M48
; DRILL file {KiCad (6.0.0-0)} date Monday, December 05, 2022 at 10:13:47 AM
; FORMAT={-:-/ absolute / inch / decimal}
; #@! TF.CreationDate,2022-12-05T10:13:47-05:00
; #@! TF.GenerationSoftware,Kicad,Pcbnew,(6.0.0-0)
; #@! TF.FileFunction,Plated,1,4,PTH
FMAT,2
INCH
; #@! TA.AperFunction,Plated,PTH,ViaDrill
T1C0.0157
; #@! TA.AperFunction,Plated,PTH,ComponentDrill
T2C0.0197
; #@! TA.AperFunction,Plated,PTH,ComponentDrill
T3C0.0217
; #@! TA.AperFunction,Plated,PTH,ComponentDrill
T4C0.0402
; #@! TA.AperFunction,Plated,PTH,ComponentDrill
T5C0.0469
; #@! TA.AperFunction,Plated,PTH,ComponentDrill
T6C0.0472
; #@! TA.AperFunction,Plated,PTH,ComponentDrill
T7C0.0945
%
G90
G05
T1
X3.6635Y-4.4378
X3.699Y-3.8623
X3.7388Y-4.2625
X3.7544Y-4.1181
X3.7688Y-3.8225
X3.7988Y-3.4725
X3.8388Y-3.4225
X3.8388Y-3.8125
X3.9288Y-3.4325
X3.9288Y-3.6225
X3.9576Y-4.6538
X3.9688Y-4.2725
X4.0615Y-3.4799
X4.1088Y-4.0925
X4.1088Y-4.2725
X4.1488Y-3.6025
X4.1888Y-3.8525
X4.1988Y-3.7825
X4.2038Y-4.2675
X4.3388Y-4.5525
X4.3988Y-3.6825
X4.5388Y-3.6625
X4.5388Y-3.8725
X4.5488Y-4.1325
X4.5588Y-4.0925
X4.5588Y-4.2025
X4.5788Y-3.9925
T4
X5.1099Y-4.571
X5.1099Y-4.671
X5.1099Y-4.771
X5.1099Y-4.871
X5.1099Y-4.971
T5
X4.7888Y-3.6325
X4.8888Y-3.6325
X4.8888Y-3.9491
X4.8888Y-4.2824
X4.9888Y-3.6325
X4.9888Y-3.9491
X4.9888Y-4.2824
X5.0888Y-3.6325
X5.0888Y-3.9491
X5.0888Y-4.2824
T6
X3.7029Y-4.861
X3.8407Y-4.861
X4.0832Y-4.861
X4.221Y-4.861
T7
X4.4473Y-4.5785
X5.0772Y-5.11
T2
G00X3.6685Y-3.2592
M15
G01X3.6685Y-3.2336
M16
G05
G00X3.9441Y-3.2592
M15
G01X3.9441Y-3.2336
M16
G05
T3
G00X3.7138Y-3.3527
M15
G01X3.702Y-3.3527
M16
G05
G00X3.9106Y-3.3527
M15
G01X3.8988Y-3.3527
M16
G05
T0
M30
