%TF.GenerationSoftware,KiCad,Pcbnew,(6.0.0-0)*%
%TF.CreationDate,2022-12-05T10:13:41-05:00*%
%TF.ProjectId,Dome_Logics_V1,446f6d65-5f4c-46f6-9769-63735f56312e,rev?*%
%TF.SameCoordinates,Original*%
%TF.FileFunction,Copper,L3,Inr*%
%TF.FilePolarity,Positive*%
%FSLAX46Y46*%
G04 Gerber Fmt 4.6, Leading zero omitted, Abs format (unit mm)*
G04 Created by KiCad (PCBNEW (6.0.0-0)) date 2022-12-05 10:13:41*
%MOMM*%
%LPD*%
G01*
G04 APERTURE LIST*
G04 Aperture macros list*
%AMRoundRect*
0 Rectangle with rounded corners*
0 $1 Rounding radius*
0 $2 $3 $4 $5 $6 $7 $8 $9 X,Y pos of 4 corners*
0 Add a 4 corners polygon primitive as box body*
4,1,4,$2,$3,$4,$5,$6,$7,$8,$9,$2,$3,0*
0 Add four circle primitives for the rounded corners*
1,1,$1+$1,$2,$3*
1,1,$1+$1,$4,$5*
1,1,$1+$1,$6,$7*
1,1,$1+$1,$8,$9*
0 Add four rect primitives between the rounded corners*
20,1,$1+$1,$2,$3,$4,$5,0*
20,1,$1+$1,$4,$5,$6,$7,0*
20,1,$1+$1,$6,$7,$8,$9,0*
20,1,$1+$1,$8,$9,$2,$3,0*%
G04 Aperture macros list end*
%TA.AperFunction,ComponentPad*%
%ADD10RoundRect,0.250000X-0.620000X-0.845000X0.620000X-0.845000X0.620000X0.845000X-0.620000X0.845000X0*%
%TD*%
%TA.AperFunction,ComponentPad*%
%ADD11O,1.740000X2.190000*%
%TD*%
%TA.AperFunction,ComponentPad*%
%ADD12R,2.400000X2.400000*%
%TD*%
%TA.AperFunction,ComponentPad*%
%ADD13C,2.400000*%
%TD*%
%TA.AperFunction,ComponentPad*%
%ADD14C,1.836000*%
%TD*%
%TA.AperFunction,ComponentPad*%
%ADD15C,2.500000*%
%TD*%
%TA.AperFunction,ComponentPad*%
%ADD16C,2.600000*%
%TD*%
%TA.AperFunction,ComponentPad*%
%ADD17O,1.250000X0.950000*%
%TD*%
%TA.AperFunction,ComponentPad*%
%ADD18O,0.890000X1.550000*%
%TD*%
%TA.AperFunction,ViaPad*%
%ADD19C,0.800000*%
%TD*%
%TA.AperFunction,Conductor*%
%ADD20C,0.250000*%
%TD*%
%TA.AperFunction,Conductor*%
%ADD21C,0.254000*%
%TD*%
G04 APERTURE END LIST*
D10*
%TO.N,GND*%
%TO.C,J2*%
X121636000Y-92266000D03*
D11*
%TO.N,+5V*%
X124176000Y-92266000D03*
%TO.N,REAR_LOGICS*%
X126716000Y-92266000D03*
%TO.N,REAR_LOGICS_CLOCK*%
X129256000Y-92266000D03*
%TD*%
D12*
%TO.N,GND*%
%TO.C,J7*%
X94054000Y-123470000D03*
D13*
%TO.N,+5V*%
X97554000Y-123470000D03*
%TD*%
D10*
%TO.N,GND*%
%TO.C,J12*%
X124176000Y-108774000D03*
D11*
%TO.N,RX_FU*%
X126716000Y-108774000D03*
%TO.N,TX_FU*%
X129256000Y-108774000D03*
%TD*%
D14*
%TO.N,unconnected-(U6-Pad0)*%
%TO.C,U6*%
X129792000Y-126264000D03*
%TO.N,+12V*%
X129792000Y-123724000D03*
%TO.N,GND*%
X129792000Y-121184000D03*
X129792000Y-118644000D03*
%TO.N,+5V*%
X129792000Y-116104000D03*
D15*
%TO.N,N/C*%
X128962000Y-129794000D03*
D16*
X112962000Y-116294000D03*
%TD*%
D12*
%TO.N,GND*%
%TO.C,J5*%
X103714000Y-123470000D03*
D13*
%TO.N,+12V*%
X107214000Y-123470000D03*
%TD*%
D10*
%TO.N,GND*%
%TO.C,J3*%
X124176000Y-100306000D03*
D11*
%TO.N,+5V*%
X126716000Y-100306000D03*
%TO.N,FRONT_LOGICS*%
X129256000Y-100306000D03*
%TD*%
D17*
%TO.N,unconnected-(J1-Pad6)*%
%TO.C,J1*%
X94180000Y-85158000D03*
D18*
X100180000Y-82458000D03*
X93180000Y-82458000D03*
D17*
X99180000Y-85158000D03*
%TD*%
D19*
%TO.N,REAR_LOGICS_CLOCK*%
X106650000Y-96076000D03*
%TO.N,FRONT_LOGICS*%
X106396000Y-97854000D03*
%TO.N,RX_FU*%
X106777000Y-108395000D03*
%TO.N,TX_FU*%
X104364000Y-108522000D03*
%TO.N,REAR_LOGICS*%
X100808000Y-108522000D03*
%TO.N,GND*%
X104364000Y-103950000D03*
X95361500Y-104599500D03*
X105380000Y-91504000D03*
X115286000Y-98362000D03*
X93954500Y-98103500D03*
%TO.N,+3.3V*%
X93053000Y-112721000D03*
X111730000Y-93536000D03*
X99792000Y-92012000D03*
X110206000Y-115634000D03*
%TO.N,VBUS*%
X99792000Y-87186000D03*
X100522000Y-118206000D03*
%TO.N,D-*%
X115794000Y-106744000D03*
X97506000Y-86932000D03*
%TO.N,D+*%
X96490000Y-88202000D03*
X115540000Y-104966000D03*
%TO.N,TXD0*%
X95728000Y-97092000D03*
X115794000Y-103950000D03*
%TO.N,RXD0*%
X97506000Y-96838000D03*
X116302000Y-101410000D03*
%TO.N,RESET*%
X94966000Y-108268000D03*
X115286000Y-93028000D03*
X103161000Y-88389000D03*
%TD*%
D20*
%TO.N,RX_FU*%
X126716000Y-109284000D02*
X124938000Y-111062000D01*
X109444000Y-111062000D02*
X106777000Y-108395000D01*
X126716000Y-108774000D02*
X126716000Y-109284000D01*
X124938000Y-111062000D02*
X109444000Y-111062000D01*
%TO.N,TX_FU*%
X104364000Y-109538000D02*
X106904000Y-112078000D01*
X104364000Y-108522000D02*
X104364000Y-109538000D01*
X106904000Y-112078000D02*
X125952000Y-112078000D01*
X125952000Y-112078000D02*
X129256000Y-108774000D01*
%TO.N,REAR_LOGICS*%
X126716000Y-92266000D02*
X126716000Y-92774000D01*
X126716000Y-92774000D02*
X132050000Y-98108000D01*
X132050000Y-98108000D02*
X132050000Y-111062000D01*
X132050000Y-111062000D02*
X130526000Y-112586000D01*
X130526000Y-112586000D02*
X104872000Y-112586000D01*
X104872000Y-112586000D02*
X100808000Y-108522000D01*
%TO.N,FRONT_LOGICS*%
X106396000Y-97854000D02*
X106650000Y-97600000D01*
X106650000Y-97600000D02*
X126970000Y-97600000D01*
X126970000Y-97600000D02*
X129256000Y-99886000D01*
X129256000Y-99886000D02*
X129256000Y-100306000D01*
%TO.N,REAR_LOGICS_CLOCK*%
X106650000Y-96076000D02*
X113000000Y-89726000D01*
X113000000Y-89726000D02*
X126716000Y-89726000D01*
X126716000Y-89726000D02*
X129256000Y-92266000D01*
D21*
%TO.N,D-*%
X97506000Y-86932000D02*
X96732557Y-86932000D01*
X92226480Y-102491923D02*
X96478557Y-106744000D01*
X96732557Y-86932000D02*
X92226480Y-91438077D01*
X92226480Y-91438077D02*
X92226480Y-102491923D01*
X96478557Y-106744000D02*
X115794000Y-106744000D01*
%TO.N,D+*%
X92680000Y-100648000D02*
X98014000Y-105982000D01*
X92680000Y-92012000D02*
X92680000Y-100648000D01*
X96490000Y-88202000D02*
X92680000Y-92012000D01*
X114524000Y-105982000D02*
X115540000Y-104966000D01*
X98014000Y-105982000D02*
X114524000Y-105982000D01*
%TO.N,TXD0*%
X95474000Y-96838000D02*
X95728000Y-97092000D01*
X93442000Y-96838000D02*
X95474000Y-96838000D01*
X93227989Y-99925989D02*
X93227989Y-97131989D01*
X115794000Y-103950000D02*
X115286000Y-103950000D01*
X115286000Y-103950000D02*
X114016000Y-105220000D01*
X98522000Y-105220000D02*
X93227989Y-99925989D01*
X93188000Y-97092000D02*
X93442000Y-96838000D01*
X93227989Y-97131989D02*
X93188000Y-97092000D01*
X114016000Y-105220000D02*
X98522000Y-105220000D01*
%TO.N,RXD0*%
X97506000Y-96838000D02*
X100808000Y-100140000D01*
X115032000Y-100140000D02*
X116302000Y-101410000D01*
X100808000Y-100140000D02*
X115032000Y-100140000D01*
%TD*%
M02*
