%TF.GenerationSoftware,KiCad,Pcbnew,(6.0.0-0)*%
%TF.CreationDate,2022-12-05T10:13:43-05:00*%
%TF.ProjectId,Dome_Logics_V1,446f6d65-5f4c-46f6-9769-63735f56312e,rev?*%
%TF.SameCoordinates,Original*%
%TF.FileFunction,Soldermask,Top*%
%TF.FilePolarity,Negative*%
%FSLAX46Y46*%
G04 Gerber Fmt 4.6, Leading zero omitted, Abs format (unit mm)*
G04 Created by KiCad (PCBNEW (6.0.0-0)) date 2022-12-05 10:13:43*
%MOMM*%
%LPD*%
G01*
G04 APERTURE LIST*
G04 Aperture macros list*
%AMRoundRect*
0 Rectangle with rounded corners*
0 $1 Rounding radius*
0 $2 $3 $4 $5 $6 $7 $8 $9 X,Y pos of 4 corners*
0 Add a 4 corners polygon primitive as box body*
4,1,4,$2,$3,$4,$5,$6,$7,$8,$9,$2,$3,0*
0 Add four circle primitives for the rounded corners*
1,1,$1+$1,$2,$3*
1,1,$1+$1,$4,$5*
1,1,$1+$1,$6,$7*
1,1,$1+$1,$8,$9*
0 Add four rect primitives between the rounded corners*
20,1,$1+$1,$2,$3,$4,$5,0*
20,1,$1+$1,$4,$5,$6,$7,0*
20,1,$1+$1,$6,$7,$8,$9,0*
20,1,$1+$1,$8,$9,$2,$3,0*%
G04 Aperture macros list end*
%ADD10C,0.010000*%
%ADD11R,1.000000X1.000000*%
%ADD12RoundRect,0.250000X-0.620000X-0.845000X0.620000X-0.845000X0.620000X0.845000X-0.620000X0.845000X0*%
%ADD13O,1.740000X2.190000*%
%ADD14RoundRect,0.140000X-0.170000X0.140000X-0.170000X-0.140000X0.170000X-0.140000X0.170000X0.140000X0*%
%ADD15RoundRect,0.100000X-1.000000X-0.400000X1.000000X-0.400000X1.000000X0.400000X-1.000000X0.400000X0*%
%ADD16RoundRect,0.200000X-0.200000X-0.275000X0.200000X-0.275000X0.200000X0.275000X-0.200000X0.275000X0*%
%ADD17R,2.400000X2.400000*%
%ADD18C,2.400000*%
%ADD19RoundRect,0.140000X-0.140000X-0.170000X0.140000X-0.170000X0.140000X0.170000X-0.140000X0.170000X0*%
%ADD20C,3.200000*%
%ADD21R,0.914400X1.219200*%
%ADD22RoundRect,0.140000X0.170000X-0.140000X0.170000X0.140000X-0.170000X0.140000X-0.170000X-0.140000X0*%
%ADD23RoundRect,0.049600X-0.605400X-0.260400X0.605400X-0.260400X0.605400X0.260400X-0.605400X0.260400X0*%
%ADD24RoundRect,0.140000X0.140000X0.170000X-0.140000X0.170000X-0.140000X-0.170000X0.140000X-0.170000X0*%
%ADD25C,2.039200*%
%ADD26C,2.703200*%
%ADD27C,2.803200*%
%ADD28RoundRect,0.150000X0.587500X0.150000X-0.587500X0.150000X-0.587500X-0.150000X0.587500X-0.150000X0*%
%ADD29RoundRect,0.135000X0.185000X-0.135000X0.185000X0.135000X-0.185000X0.135000X-0.185000X-0.135000X0*%
%ADD30R,0.900000X2.000000*%
%ADD31R,2.000000X0.900000*%
%ADD32R,5.000000X5.000000*%
%ADD33R,0.400000X1.350000*%
%ADD34O,1.250000X0.950000*%
%ADD35R,1.500000X1.550000*%
%ADD36O,0.890000X1.550000*%
%ADD37R,1.200000X1.550000*%
%ADD38RoundRect,0.150000X-0.512500X-0.150000X0.512500X-0.150000X0.512500X0.150000X-0.512500X0.150000X0*%
G04 APERTURE END LIST*
D10*
%TO.C,U5*%
X116789000Y-95331800D02*
X117414000Y-95331800D01*
X117414000Y-95331800D02*
X117414000Y-95731800D01*
X117414000Y-95731800D02*
X116789000Y-95731800D01*
X116789000Y-95731800D02*
X116789000Y-95331800D01*
G36*
X117414000Y-95731800D02*
G01*
X116789000Y-95731800D01*
X116789000Y-95331800D01*
X117414000Y-95331800D01*
X117414000Y-95731800D01*
G37*
X117414000Y-95731800D02*
X116789000Y-95731800D01*
X116789000Y-95331800D01*
X117414000Y-95331800D01*
X117414000Y-95731800D01*
X114964000Y-95981800D02*
X115589000Y-95981800D01*
X115589000Y-95981800D02*
X115589000Y-96381800D01*
X115589000Y-96381800D02*
X114964000Y-96381800D01*
X114964000Y-96381800D02*
X114964000Y-95981800D01*
G36*
X115589000Y-96381800D02*
G01*
X114964000Y-96381800D01*
X114964000Y-95981800D01*
X115589000Y-95981800D01*
X115589000Y-96381800D01*
G37*
X115589000Y-96381800D02*
X114964000Y-96381800D01*
X114964000Y-95981800D01*
X115589000Y-95981800D01*
X115589000Y-96381800D01*
X114964000Y-94681800D02*
X115589000Y-94681800D01*
X115589000Y-94681800D02*
X115589000Y-95081800D01*
X115589000Y-95081800D02*
X114964000Y-95081800D01*
X114964000Y-95081800D02*
X114964000Y-94681800D01*
G36*
X115589000Y-95081800D02*
G01*
X114964000Y-95081800D01*
X114964000Y-94681800D01*
X115589000Y-94681800D01*
X115589000Y-95081800D01*
G37*
X115589000Y-95081800D02*
X114964000Y-95081800D01*
X114964000Y-94681800D01*
X115589000Y-94681800D01*
X115589000Y-95081800D01*
X116789000Y-94681800D02*
X117414000Y-94681800D01*
X117414000Y-94681800D02*
X117414000Y-95081800D01*
X117414000Y-95081800D02*
X116789000Y-95081800D01*
X116789000Y-95081800D02*
X116789000Y-94681800D01*
G36*
X117414000Y-95081800D02*
G01*
X116789000Y-95081800D01*
X116789000Y-94681800D01*
X117414000Y-94681800D01*
X117414000Y-95081800D01*
G37*
X117414000Y-95081800D02*
X116789000Y-95081800D01*
X116789000Y-94681800D01*
X117414000Y-94681800D01*
X117414000Y-95081800D01*
X114964000Y-95331800D02*
X115589000Y-95331800D01*
X115589000Y-95331800D02*
X115589000Y-95731800D01*
X115589000Y-95731800D02*
X114964000Y-95731800D01*
X114964000Y-95731800D02*
X114964000Y-95331800D01*
G36*
X115589000Y-95731800D02*
G01*
X114964000Y-95731800D01*
X114964000Y-95331800D01*
X115589000Y-95331800D01*
X115589000Y-95731800D01*
G37*
X115589000Y-95731800D02*
X114964000Y-95731800D01*
X114964000Y-95331800D01*
X115589000Y-95331800D01*
X115589000Y-95731800D01*
X116789000Y-95981800D02*
X117414000Y-95981800D01*
X117414000Y-95981800D02*
X117414000Y-96381800D01*
X117414000Y-96381800D02*
X116789000Y-96381800D01*
X116789000Y-96381800D02*
X116789000Y-95981800D01*
G36*
X117414000Y-96381800D02*
G01*
X116789000Y-96381800D01*
X116789000Y-95981800D01*
X117414000Y-95981800D01*
X117414000Y-96381800D01*
G37*
X117414000Y-96381800D02*
X116789000Y-96381800D01*
X116789000Y-95981800D01*
X117414000Y-95981800D01*
X117414000Y-96381800D01*
%TD*%
D11*
%TO.C,L1*%
X105083000Y-88747000D03*
X105083000Y-90047000D03*
X107113000Y-90047000D03*
X107113000Y-88747000D03*
%TD*%
D12*
%TO.C,J2*%
X121636000Y-92266000D03*
D13*
X124176000Y-92266000D03*
X126716000Y-92266000D03*
X129256000Y-92266000D03*
%TD*%
D14*
%TO.C,C2*%
X92426000Y-113554000D03*
X92426000Y-114514000D03*
%TD*%
D15*
%TO.C,SW1*%
X92959000Y-89351000D03*
X100759000Y-89351000D03*
%TD*%
D16*
%TO.C,R2*%
X102555000Y-118206000D03*
X104205000Y-118206000D03*
%TD*%
%TO.C,R1*%
X101511000Y-91098000D03*
X103161000Y-91098000D03*
%TD*%
D17*
%TO.C,J7*%
X94054000Y-123470000D03*
D18*
X97554000Y-123470000D03*
%TD*%
D19*
%TO.C,C4*%
X112218000Y-95036000D03*
X113178000Y-95036000D03*
%TD*%
D20*
%TO.C,REF\u002A\u002A*%
X88000000Y-84762000D03*
%TD*%
D12*
%TO.C,J12*%
X124176000Y-108774000D03*
D13*
X126716000Y-108774000D03*
X129256000Y-108774000D03*
%TD*%
D21*
%TO.C,CR1*%
X101166200Y-115014500D03*
X104442800Y-115014500D03*
%TD*%
D20*
%TO.C,REF\u002A\u002A*%
X135000000Y-84762000D03*
%TD*%
D16*
%TO.C,R3*%
X96939000Y-114436000D03*
X98589000Y-114436000D03*
%TD*%
D22*
%TO.C,C7*%
X109190000Y-114144000D03*
X109190000Y-113184000D03*
%TD*%
D20*
%TO.C,REF\u002A\u002A*%
X135000000Y-128762000D03*
%TD*%
D23*
%TO.C,U4*%
X112941000Y-98203000D03*
X112941000Y-99473000D03*
X112941000Y-100743000D03*
X112941000Y-102013000D03*
X112941000Y-103283000D03*
X112941000Y-104553000D03*
X112941000Y-105823000D03*
X112941000Y-107093000D03*
X118441000Y-107093000D03*
X118441000Y-105823000D03*
X118441000Y-104553000D03*
X118441000Y-103283000D03*
X118441000Y-102013000D03*
X118441000Y-100743000D03*
X118441000Y-99473000D03*
X118441000Y-98203000D03*
%TD*%
D19*
%TO.C,C6*%
X119048000Y-96646000D03*
X120008000Y-96646000D03*
%TD*%
D24*
%TO.C,C5*%
X107236000Y-114696000D03*
X106276000Y-114696000D03*
%TD*%
D25*
%TO.C,U6*%
X129792000Y-126264000D03*
X129792000Y-123724000D03*
X129792000Y-121184000D03*
X129792000Y-118644000D03*
X129792000Y-116104000D03*
D26*
X128962000Y-129794000D03*
D27*
X112962000Y-116294000D03*
%TD*%
D14*
%TO.C,C3*%
X93680000Y-113554000D03*
X93680000Y-114514000D03*
%TD*%
D17*
%TO.C,J5*%
X103714000Y-123470000D03*
D18*
X107214000Y-123470000D03*
%TD*%
D28*
%TO.C,U2*%
X98623500Y-118332000D03*
X98623500Y-116432000D03*
X96748500Y-117382000D03*
%TD*%
D20*
%TO.C,REF\u002A\u002A*%
X88000000Y-128762000D03*
%TD*%
D19*
%TO.C,C1*%
X117346000Y-93536000D03*
X118306000Y-93536000D03*
%TD*%
D12*
%TO.C,J3*%
X124176000Y-100306000D03*
D13*
X126716000Y-100306000D03*
X129256000Y-100306000D03*
%TD*%
D29*
%TO.C,R4*%
X109310000Y-90154000D03*
X109310000Y-89134000D03*
%TD*%
D30*
%TO.C,U1*%
X91783000Y-110932000D03*
X93053000Y-110932000D03*
X94323000Y-110932000D03*
X95593000Y-110932000D03*
X96863000Y-110932000D03*
X98133000Y-110932000D03*
X99403000Y-110932000D03*
X100673000Y-110932000D03*
X101943000Y-110932000D03*
X103213000Y-110932000D03*
X104483000Y-110932000D03*
X105753000Y-110932000D03*
X107023000Y-110932000D03*
X108293000Y-110932000D03*
D31*
X109293000Y-108147000D03*
X109293000Y-106877000D03*
X109293000Y-105607000D03*
X109293000Y-104337000D03*
X109293000Y-103067000D03*
X109293000Y-101797000D03*
X109293000Y-100527000D03*
X109293000Y-99257000D03*
X109293000Y-97987000D03*
X109293000Y-96717000D03*
D30*
X108293000Y-93932000D03*
X107023000Y-93932000D03*
X105753000Y-93932000D03*
X104483000Y-93932000D03*
X103213000Y-93932000D03*
X101943000Y-93932000D03*
X100673000Y-93932000D03*
X99403000Y-93932000D03*
X98133000Y-93932000D03*
X96863000Y-93932000D03*
X95593000Y-93932000D03*
X94323000Y-93932000D03*
X93053000Y-93932000D03*
X91783000Y-93932000D03*
D32*
X99283000Y-103432000D03*
%TD*%
D33*
%TO.C,J1*%
X97980000Y-85158000D03*
X97330000Y-85158000D03*
X96680000Y-85158000D03*
X96030000Y-85158000D03*
X95380000Y-85158000D03*
D34*
X94180000Y-85158000D03*
D35*
X97680000Y-82458000D03*
D36*
X100180000Y-82458000D03*
D35*
X95680000Y-82458000D03*
D37*
X99580000Y-82458000D03*
X93780000Y-82458000D03*
D36*
X93180000Y-82458000D03*
D34*
X99180000Y-85158000D03*
%TD*%
D38*
%TO.C,U3*%
X106688500Y-116510000D03*
X106688500Y-117460000D03*
X106688500Y-118410000D03*
X108963500Y-118410000D03*
X108963500Y-116510000D03*
%TD*%
M02*
