0
SECTION
2
HEADER
9
$INSUNITS
70
4
9
$ACADVER
1
AC1014
9
$HANDSEED
5
FFFF
0
ENDSEC
0
SECTION
2
TABLES
0
TABLE
2
VPORT
5
8
100
AcDbSymbolTable
0
ENDTAB
0
TABLE
2
LTYPE
5
5
100
AcDbSymbolTable
0
LTYPE
5
14
100
AcDbSymbolTableRecord
100
AcDbLinetypeTableRecord
2
BYBLOCK
70
0
0
LTYPE
5
15
100
AcDbSymbolTableRecord
100
AcDbLinetypeTableRecord
2
BYLAYER
70
0
0
ENDTAB
0
TABLE
2
LAYER
5
2
100
AcDbSymbolTable
70
2
0
LAYER
5
50
100
AcDbSymbolTableRecord
100
AcDbLayerTableRecord
2
0
70
0
6
CONTINUOUS
0
ENDTAB
0
TABLE
2
STYLE
5
3
100
AcDbSymbolTable
70
1
0
STYLE
5
11
100
AcDbSymbolTableRecord
100
AcDbTextStyleTableRecord
2
STANDARD
70
0
0
ENDTAB
0
TABLE
2
VIEW
5
6
100
AcDbSymbolTable
70
0
0
ENDTAB
0
TABLE
2
UCS
5
7
100
AcDbSymbolTable
70
0
0
ENDTAB
0
TABLE
2
APPID
5
9
100
AcDbSymbolTable
70
2
0
APPID
5
12
100
AcDbSymbolTableRecord
100
AcDbRegAppTableRecord
2
ACAD
70
0
0
ENDTAB
0
TABLE
2
DIMSTYLE
5
A
100
AcDbSymbolTable
70
1
0
ENDTAB
0
TABLE
2
BLOCK_RECORD
5
1
100
AcDbSymbolTable
70
1
0
BLOCK_RECORD
5
1F
100
AcDbSymbolTableRecord
100
AcDbBlockTableRecord
2
*MODEL_SPACE
0
BLOCK_RECORD
5
1B
100
AcDbSymbolTableRecord
100
AcDbBlockTableRecord
2
*PAPER_SPACE
0
ENDTAB
0
ENDSEC
0
SECTION
2
BLOCKS
0
BLOCK
5
20
100
AcDbEntity
100
AcDbBlockBegin
2
*MODEL_SPACE
0
ENDBLK
5
21
100
AcDbEntity
100
AcDbBlockEnd
0
BLOCK
5
1C
100
AcDbEntity
100
AcDbBlockBegin
2
*PAPER_SPACE
0
ENDBLK
5
1D
100
AcDbEntity
100
AcDbBlockEnd
0
ENDSEC
0
SECTION
2
ENTITIES
0
SPLINE
5
100
100
AcDbEntity
8
0
100
AcDbSpline
70
4
71
5
72
91
73
85
74
0
42
0.000000001
43
0.0000000001
44
0.0000000001
40
0
40
0
40
0
40
0
40
0
40
0
40
0.012500000000000001
40
0.025000000000000001
40
0.037500000000000006
40
0.050000000000000003
40
0.0625
40
0.074999999999999997
40
0.087499999999999994
40
0.099999999999999992
40
0.11249999999999999
40
0.12499999999999999
40
0.13749999999999998
40
0.14999999999999999
40
0.16250000000000001
40
0.17500000000000002
40
0.18750000000000003
40
0.20000000000000004
40
0.21250000000000005
40
0.22500000000000006
40
0.23750000000000007
40
0.25000000000000006
40
0.26250000000000007
40
0.27500000000000008
40
0.28750000000000009
40
0.3000000000000001
40
0.31250000000000011
40
0.32500000000000012
40
0.33750000000000013
40
0.35000000000000014
40
0.36250000000000016
40
0.37500000000000017
40
0.38750000000000018
40
0.40000000000000019
40
0.4125000000000002
40
0.42500000000000021
40
0.43750000000000022
40
0.45000000000000023
40
0.46250000000000024
40
0.47500000000000026
40
0.48750000000000027
40
0.50000000000000022
40
0.51250000000000018
40
0.52500000000000013
40
0.53750000000000009
40
0.55000000000000004
40
0.5625
40
0.57499999999999996
40
0.58749999999999991
40
0.59999999999999987
40
0.61249999999999982
40
0.62499999999999978
40
0.63749999999999973
40
0.64999999999999969
40
0.66249999999999964
40
0.6749999999999996
40
0.68749999999999956
40
0.69999999999999951
40
0.71249999999999947
40
0.72499999999999942
40
0.73749999999999938
40
0.74999999999999933
40
0.76249999999999929
40
0.77499999999999925
40
0.7874999999999992
40
0.79999999999999916
40
0.81249999999999911
40
0.82499999999999907
40
0.83749999999999902
40
0.84999999999999898
40
0.86249999999999893
40
0.87499999999999889
40
0.88749999999999885
40
0.8999999999999988
40
0.91249999999999876
40
0.92499999999999871
40
0.93749999999999867
40
0.94999999999999862
40
0.96249999999999858
40
0.97499999999999853
40
0.98749999999999849
40
0.99478414746267996
40
0.99478414746267996
40
0.99478414746267996
40
0.99478414746267996
40
0.99478414746267996
40
0.99478414746267996
41
1
41
1
41
1
41
1
41
1
41
1
41
1
41
1
41
1
41
1
41
1
41
1
41
1
41
1
41
1
41
1
41
1
41
1
41
1
41
1
41
1
41
1
41
1
41
1
41
1
41
1
41
1
41
1
41
1
41
1
41
1
41
1
41
1
41
1
41
1
41
1
41
1
41
1
41
1
41
1
41
1
41
1
41
1
41
1
41
1
41
1
41
1
41
1
41
1
41
1
41
1
41
1
41
1
41
1
41
1
41
1
41
1
41
1
41
1
41
1
41
1
41
1
41
1
41
1
41
1
41
1
41
1
41
1
41
1
41
1
41
1
41
1
41
1
41
1
41
1
41
1
41
1
41
1
41
1
41
1
41
1
41
1
41
1
41
1
41
1
10
-3.9406583588037893
20
37.771323921140969
30
0
10
-3.9815133040314437
20
37.769371681932327
30
0
10
-4.0651663214814642
20
37.764055559012213
30
0
10
-4.1964749463693138
20
37.751846570490869
30
0
10
-4.3832167247036011
20
37.727095034071937
30
0
10
-4.6357454197977583
20
37.682205595472837
30
0
10
-4.9063778015778334
20
37.623881227860998
30
0
10
-5.1930096469630946
20
37.553207943968815
30
0
10
-5.4924165985111273
20
37.471871695136485
30
0
10
-5.8009212460681967
20
37.381875617015901
30
0
10
-6.1149023793182709
20
37.285329541377948
30
0
10
-6.4313645809916453
20
37.184212282542404
30
0
10
-6.7484911113388
20
37.080141705309508
30
0
10
-7.0653695994000074
20
36.974146597410623
30
0
10
-7.3816958292088275
20
36.866414805986189
30
0
10
-7.697498019327659
20
36.756099338128301
30
0
10
-8.0128261284541242
20
36.640981248298175
30
0
10
-8.3275428970645287
20
36.51756989991317
30
0
10
-8.6413572354129151
20
36.382208160156175
30
0
10
-8.9538116606336544
20
36.232043715895259
30
0
10
-9.2642850098426894
20
36.065922199593395
30
0
10
-9.5719951893492237
20
35.885637580271272
30
0
10
-9.8759773491045326
20
35.695720747189398
30
0
10
-10.175051611622159
20
35.501930723472903
30
0
10
-10.467769861955716
20
35.310062243868401
30
0
10
-10.75242322677973
20
35.124729078607061
30
0
10
-11.026892446145203
20
34.947895665824511
30
0
10
-11.289187118579694
20
34.778721363053904
30
0
10
-11.538479731145712
20
34.614255577024593
30
0
10
-11.775903791503419
20
34.449895246344184
30
0
10
-12.005649980807615
20
34.279888933955498
30
0
10
-12.23535132094996
20
34.097963779708387
30
0
10
-12.473268637461814
20
33.898688786655043
30
0
10
-12.725763176442985
20
33.678821699020169
30
0
10
-12.994925829252644
20
33.438487444560209
30
0
10
-13.275449732764177
20
33.18288286725307
30
0
10
-13.556849502757997
20
32.920463005366159
30
0
10
-13.826975934383611
20
32.660297679547902
30
0
10
-14.075246737415119
20
32.409580150174257
30
0
10
-14.295637314062974
20
32.171366539750359
30
0
10
-14.490695811418217
20
31.941458290889557
30
0
10
-14.669808130120137
20
31.710019584279255
30
0
10
-14.844990681248733
20
31.465228127721531
30
0
10
-15.027716973437952
20
31.196071212771365
30
0
10
-15.224786508336532
20
30.89594297549905
30
0
10
-15.436333744725069
20
30.564440140204901
30
0
10
-15.658199823663248
20
30.205489439227495
30
0
10
-15.883398527010018
20
29.826224387567059
30
0
10
-16.103987862927017
20
29.435554695076153
30
0
10
-16.312653848486956
20
29.042899843199848
30
0
10
-16.504708402093698
20
28.656774399732289
30
0
10
-16.678109397925954
20
28.283944020974914
30
0
10
-16.832819585608295
20
27.928796359710812
30
0
10
-16.970382549268095
20
27.592576658387756
30
0
10
-17.093414178974015
20
27.27281743192443
30
0
10
-17.205121787284657
20
26.962343419028603
30
0
10
-17.308845683224344
20
26.649531056753361
30
0
10
-17.40772746431989
20
26.321665229845131
30
0
10
-17.504333656546713
20
25.967864675592701
30
0
10
-17.600336472174462
20
25.581853997289883
30
0
10
-17.696073629272149
20
25.165588351826006
30
0
10
-17.790499760380936
20
24.729728484855723
30
0
10
-17.881726259439535
20
24.289256231391914
30
0
10
-17.967411513706221
20
23.860346903174268
30
0
10
-18.0452287771821
20
23.456548508916594
30
0
10
-18.113259500091289
20
23.085689758771174
30
0
10
-18.170522315191839
20
22.745382614916736
30
0
10
-18.216974312249192
20
22.424062791813348
30
0
10
-18.253170452305852
20
22.105605760039499
30
0
10
-18.280020447531371
20
21.772962164525218
30
0
10
-18.298516976372767
20
21.411996714562068
30
0
10
-18.309447473365552
20
21.015762960653753
30
0
10
-18.313387679154218
20
20.58364193701388
30
0
10
-18.310749895311055
20
20.119516236301127
30
0
10
-18.301811480205579
20
19.630304015758593
30
0
10
-18.286752121650803
20
19.124310732073639
30
0
10
-18.265685890619238
20
18.609742495803204
30
0
10
-18.23869902859127
20
18.092938564467961
30
0
10
-18.205857842776044
20
17.578361786128728
30
0
10
-18.167209862913339
20
17.069002452213919
30
0
10
-18.126494504663462
20
16.608563815587818
30
0
10
-18.090969941737598
20
16.253658170614219
30
0
10
-18.06344404529527
20
16.000525778048001
30
0
10
-18.045856214022461
20
15.846425719298693
30
0
10
-18.039283168006392
20
15.789827726907419
30
0
0
SPLINE
5
101
100
AcDbEntity
8
0
100
AcDbSpline
70
4
71
5
72
16
73
10
74
0
42
0.000000001
43
0.0000000001
44
0.0000000001
40
0
40
0
40
0
40
0
40
0
40
0
40
0.20000000000000001
40
0.40000000000000002
40
0.60000000000000009
40
0.80000000000000004
40
1
40
1
40
1
40
1
40
1
40
1
41
1
41
1
41
1
41
1
41
1
41
1
41
1
41
1
41
1
41
1
10
-18.218168840423932
20
15.567736095210707
30
0
10
-18.378620672444161
20
15.551789984748119
30
0
10
-18.699599442781757
20
15.520779762928122
30
0
10
-19.181292714485608
20
15.476908047208504
30
0
10
-19.823938533685801
20
15.422970295263019
30
0
10
-20.627676397647811
20
15.360604671509954
30
0
10
-21.270878006431992
20
15.31319374801339
30
0
10
-21.753359030512598
20
15.27857287968083
30
0
10
-22.075046215998881
20
15.255881820856654
30
0
10
-22.235898104588042
20
15.244633712419953
30
0
0
SPLINE
5
102
100
AcDbEntity
8
0
100
AcDbSpline
70
4
71
5
72
26
73
20
74
0
42
0.000000001
43
0.0000000001
44
0.0000000001
40
0
40
0
40
0
40
0
40
0
40
0
40
0.066666666666666666
40
0.13333333333333333
40
0.20000000000000001
40
0.26666666666666666
40
0.33333333333333331
40
0.39999999999999997
40
0.46666666666666662
40
0.53333333333333333
40
0.59999999999999998
40
0.66666666666666663
40
0.73333333333333328
40
0.79999999999999993
40
0.86666666666666659
40
0.93333333333333324
40
1
40
1
40
1
40
1
40
1
40
1
41
1
41
1
41
1
41
1
41
1
41
1
41
1
41
1
41
1
41
1
41
1
41
1
41
1
41
1
41
1
41
1
41
1
41
1
41
1
41
1
10
-22.235898104588042
20
15.244633712419953
30
0
10
-22.255796842909781
20
15.235466989125825
30
0
10
-22.295433918779445
20
15.21648204417202
30
0
10
-22.354408359801209
20
15.186050234840023
30
0
10
-22.432071355100977
20
15.141536412885735
30
0
10
-22.527430764281515
20
15.078939287330396
30
0
10
-22.620828788647621
20
15.008492634023536
30
0
10
-22.711845025143809
20
14.928662818480692
30
0
10
-22.79981283686995
20
14.83704693004784
30
0
10
-22.88386560548572
20
14.730536367698107
30
0
10
-22.963072606072245
20
14.605790185881563
30
0
10
-23.036564245011633
20
14.459676181641164
30
0
10
-23.103665498794328
20
14.289742144059739
30
0
10
-23.164083356812174
20
14.094881927214225
30
0
10
-23.217811221771662
20
13.874998145304753
30
0
10
-23.264993264798623
20
13.63052541657944
30
0
10
-23.297662952918387
20
13.415788586890878
30
0
10
-23.319387240282619
20
13.244207990019978
30
0
10
-23.332645552614366
20
13.125174343265408
30
0
10
-23.338968569008003
20
13.064495861902634
30
0
0
SPLINE
5
103
100
AcDbEntity
8
0
100
AcDbSpline
70
4
71
5
72
16
73
10
74
0
42
0.000000001
43
0.0000000001
44
0.0000000001
40
0
40
0
40
0
40
0
40
0
40
0
40
0.20000000000000001
40
0.40000000000000002
40
0.60000000000000009
40
0.80000000000000004
40
1
40
1
40
1
40
1
40
1
40
1
41
1
41
1
41
1
41
1
41
1
41
1
41
1
41
1
41
1
41
1
10
-23.339816102450229
20
13.053347116723778
30
0
10
-23.351156926279977
20
12.816860070258599
30
0
10
-23.373930976264301
20
12.343890501517496
30
0
10
-23.408369008843593
20
11.634449708763931
30
0
10
-23.454763889152169
20
10.68855203121756
30
0
10
-23.513287238905995
20
9.5062058717956557
30
0
10
-23.560365900088986
20
8.5603416734281108
30
0
10
-23.595773094424004
20
7.8509483326303791
30
0
10
-23.619418698579082
20
7.3780214367971384
30
0
10
-23.631251706930655
20
7.1415584885985979
30
0
0
SPLINE
5
104
100
AcDbEntity
8
0
100
AcDbSpline
70
4
71
5
72
13
73
7
74
0
42
0.000000001
43
0.0000000001
44
0.0000000001
40
0.63159685413697486
40
0.63159685413697486
40
0.63159685413697486
40
0.63159685413697486
40
0.63159685413697486
40
0.63159685413697486
40
0.80000000000000004
40
1
40
1
40
1
40
1
40
1
40
1
41
1
41
1
41
1
41
1
41
1
41
1
41
1
10
-23.821639904810961
20
7.1415584885955932
30
0
10
-23.831792574588427
20
7.1415584885957664
30
0
10
-23.854002821705809
20
7.1415584885962078
30
0
10
-23.876213068823535
20
7.1415584885967682
30
0
10
-23.89842331594145
20
7.1415584885974255
30
0
10
-23.920633563059475
20
7.1415584885981689
30
0
10
-23.932691140399676
20
7.1415584885985979
30
0
0
SPLINE
5
105
100
AcDbEntity
8
0
100
AcDbSpline
70
4
71
5
72
21
73
15
74
0
42
0.000000001
43
0.0000000001
44
0.0000000001
40
0
40
0
40
0
40
0
40
0
40
0
40
0.10000000000000001
40
0.20000000000000001
40
0.30000000000000004
40
0.40000000000000002
40
0.5
40
0.59999999999999998
40
0.69999999999999996
40
0.79999999999999993
40
0.89999999999999991
40
0.98147025026224899
40
0.98147025026224899
40
0.98147025026224899
40
0.98147025026224899
40
0.98147025026224899
40
0.98147025026224899
41
1
41
1
41
1
41
1
41
1
41
1
41
1
41
1
41
1
41
1
41
1
41
1
41
1
41
1
41
1
10
-23.932691140399676
20
7.1415584885985979
30
0
10
-23.930398769736478
20
7.0573254192424786
30
0
10
-23.924964653276373
20
6.8864116277723175
30
0
10
-23.91426528519322
20
6.6226977863603498
30
0
10
-23.894819818906075
20
6.2561531048468924
30
0
10
-23.861320424887403
20
5.7714819581737942
30
0
10
-23.817907930640597
20
5.258244132134112
30
0
10
-23.763932180673994
20
4.7145660671946974
30
0
10
-23.699329331554964
20
4.1402637851063364
30
0
10
-23.624793965817574
20
3.5373388712602436
30
0
10
-23.544299454654471
20
2.9316255403287359
30
0
10
-23.474527509408869
20
2.4344386561435636
30
0
10
-23.419983996545056
20
2.0587628188273186
30
0
10
-23.38356805045278
20
1.812952492729045
30
0
10
-23.366967855292174
20
1.7018725348999926
30
0
0
SPLINE
5
106
100
AcDbEntity
8
0
100
AcDbSpline
70
4
71
5
72
16
73
10
74
0
42
0.000000001
43
0.0000000001
44
0.0000000001
40
0.1449114173407399
40
0.1449114173407399
40
0.1449114173407399
40
0.1449114173407399
40
0.1449114173407399
40
0.1449114173407399
40
0.20000000000000001
40
0.40000000000000002
40
0.60000000000000009
40
0.80000000000000004
40
0.81973999083400018
40
0.81973999083400018
40
0.81973999083400018
40
0.81973999083400018
40
0.81973999083400018
40
0.81973999083400018
41
1
41
1
41
1
41
1
41
1
41
1
41
1
41
1
41
1
41
1
10
-23.455255068557037
20
1.504961519003998
30
0
10
-23.463412791581931
20
1.4996230090830198
30
0
10
-23.501187261421279
20
1.4749029516134493
30
0
10
-23.568578478076002
20
1.4308013465953771
30
0
10
-23.665586441547724
20
1.3673181940289698
30
0
10
-23.765517576574958
20
1.3019220836080339
30
0
10
-23.8572909885775
20
1.2418644831081762
30
0
10
-23.919447653763754
20
1.2011884301567437
30
0
10
-23.951987572133593
20
1.1798939247536613
30
0
10
-23.954910743687034
20
1.1779809668988985
30
0
0
SPLINE
5
107
100
AcDbEntity
8
0
100
AcDbSpline
70
4
71
5
72
16
73
10
74
0
42
0.000000001
43
0.0000000001
44
0.0000000001
40
0.16956716649530912
40
0.16956716649530912
40
0.16956716649530912
40
0.16956716649530912
40
0.16956716649530912
40
0.16956716649530912
40
0.20000000000000001
40
0.40000000000000002
40
0.60000000000000009
40
0.80000000000000004
40
0.82329297607808516
40
0.82329297607808516
40
0.82329297607808516
40
0.82329297607808516
40
0.82329297607808516
40
0.82329297607808516
41
1
41
1
41
1
41
1
41
1
41
1
41
1
41
1
41
1
41
1
10
-24.032913726522473
20
0.94108498353945325
30
0
10
-24.030922829459804
20
0.93571681857562461
30
0
10
-24.015848056639399
20
0.8950698816696373
30
0
10
-23.987689408062355
20
0.81914417282152652
30
0
10
-23.94644688373085
20
0.70793969203136009
30
0
10
-23.903680547377487
20
0.59262647328672502
30
0
10
-23.8629051080881
20
0.48268141950594423
30
0
10
-23.835213544554108
20
0.40801513766724529
30
0
10
-23.820605856774829
20
0.36862762777061953
30
0
10
-23.81908204475004
20
0.36451888981606506
30
0
0
SPLINE
5
108
100
AcDbEntity
8
0
100
AcDbSpline
70
4
71
5
72
14
73
8
74
0
42
0.000000001
43
0.0000000001
44
0.0000000001
40
0.28156966324191079
40
0.28156966324191079
40
0.28156966324191079
40
0.28156966324191079
40
0.28156966324191079
40
0.28156966324191079
40
0.40000000000000002
40
0.60000000000000009
40
0.74964206603696848
40
0.74964206603696848
40
0.74964206603696848
40
0.74964206603696848
40
0.74964206603696848
40
0.74964206603696848
41
1
41
1
41
1
41
1
41
1
41
1
41
1
41
1
10
-23.903930886815733
20
0.12333778026724845
30
0
10
-23.915930750684673
20
0.11615961213814052
30
0
10
-23.948195462560719
20
0.096859265983365916
30
0
10
-23.995622543056633
20
0.068488981005458277
30
0
10
-24.043049623554232
20
0.040118696027563031
30
0
10
-24.090476704053025
20
0.011748411049674279
30
0
10
-24.125903920682198
20
-0.009443705799113522
30
0
10
-24.141066289302344
20
-0.018513644622247211
30
0
0
SPLINE
5
109
100
AcDbEntity
8
0
100
AcDbSpline
70
4
71
5
72
16
73
10
74
0
42
0.000000001
43
0.0000000001
44
0.0000000001
40
0.19659048397333515
40
0.19659048397333515
40
0.19659048397333515
40
0.19659048397333515
40
0.19659048397333515
40
0.19659048397333515
40
0.20000000000000001
40
0.40000000000000002
40
0.60000000000000009
40
0.80000000000000004
40
0.96777137949216074
40
0.96777137949216074
40
0.96777137949216074
40
0.96777137949216074
40
0.96777137949216074
40
0.96777137949216074
41
1
41
1
41
1
41
1
41
1
41
1
41
1
41
1
41
1
41
1
10
-24.232610156035935
20
-0.23790759776291417
30
0
10
-24.232487737836035
20
-0.23840542461172437
30
0
10
-24.225184347384285
20
-0.26810545170929795
30
0
10
-24.210699984680843
20
-0.32700767905562789
30
0
10
-24.189034649726011
20
-0.41511210665069898
30
0
10
-24.161345506667814
20
-0.52771300134544297
30
0
10
-24.133778781809156
20
-0.63981606919135681
30
0
10
-24.113393029201585
20
-0.72271693678852167
30
0
10
-24.100188248845527
20
-0.77641560413694355
30
0
10
-24.094164440741395
20
-0.80091207123662744
30
0
0
SPLINE
5
110
100
AcDbEntity
8
0
100
AcDbSpline
70
4
71
5
72
16
73
10
74
0
42
0.000000001
43
0.0000000001
44
0.0000000001
40
0.066762572753049865
40
0.066762572753049865
40
0.066762572753049865
40
0.066762572753049865
40
0.066762572753049865
40
0.066762572753049865
40
0.20000000000000001
40
0.40000000000000002
40
0.60000000000000009
40
0.80000000000000004
40
0.8288266215160901
40
0.8288266215160901
40
0.8288266215160901
40
0.8288266215160901
40
0.8288266215160901
40
0.8288266215160901
41
1
41
1
41
1
41
1
41
1
41
1
41
1
41
1
41
1
41
1
10
-24.088378619996391
20
-0.84867034353083748
30
0
10
-24.088378619994515
20
-0.85834130229310956
30
0
10
-24.088378619990358
20
-0.88252914112745939
30
0
10
-24.088378619985889
20
-0.92123386003393692
30
0
10
-24.088378619984017
20
-0.97445545901261621
30
0
10
-24.088378619986301
20
-1.0297694210285759
30
0
10
-24.08837861998984
20
-1.0754124242822529
30
0
10
-24.088378619992774
20
-1.1065385474637801
30
0
10
-24.088378619994462
20
-1.1231477905731357
30
0
10
-24.088378619994678
20
-1.1252401536103118
30
0
0
SPLINE
5
111
100
AcDbEntity
8
0
100
AcDbSpline
70
4
71
5
72
16
73
10
74
0
42
0.000000001
43
0.0000000001
44
0.0000000001
40
0.053195981173047559
40
0.053195981173047559
40
0.053195981173047559
40
0.053195981173047559
40
0.053195981173047559
40
0.053195981173047559
40
0.20000000000000001
40
0.40000000000000002
40
0.60000000000000009
40
0.80000000000000004
40
0.94680401884487897
40
0.94680401884487897
40
0.94680401884487897
40
0.94680401884487897
40
0.94680401884487897
40
0.94680401884487897
41
1
41
1
41
1
41
1
41
1
41
1
41
1
41
1
41
1
41
1
10
-24.053182225933824
20
-1.2385528690225291
30
0
10
-24.033756051311737
20
-1.2668065704389864
30
0
10
-23.98786442325493
20
-1.333551999319359
30
0
10
-23.915507341766236
20
-1.4387891556637176
30
0
10
-23.816684806849654
20
-1.582518039472163
30
0
10
-23.698436097318016
20
-1.7545006247007642
30
0
10
-23.599613562408514
20
-1.8982295085129284
30
0
10
-23.527256480930163
20
-2.0034666648610981
30
0
10
-23.481364852881569
20
-2.0702120937452202
30
0
10
-23.46193867826203
20
-2.098465795165267
30
0
0
LINE
5
112
100
AcDbEntity
8
0
100
AcDbLine
10
-23.426742284215546
20
-2.2117785105361278
30
0
11
-23.426742284215564
21
-3.1111804705909698
31
0
0
LINE
5
113
100
AcDbEntity
8
0
100
AcDbLine
10
-23.3832847968499
20
-3.2356571420524505
30
0
11
-23.330368690019512
21
-3.3022047145798843
31
0
0
LINE
5
114
100
AcDbEntity
8
0
100
AcDbLine
10
-23.28715773152863
20
-3.4366086602607231
30
0
11
-23.35359343147131
21
-4.7734067960774311
31
0
0
LINE
5
115
100
AcDbEntity
8
0
100
AcDbLine
10
-23.347762551457922
20
-4.8322628824270017
30
0
11
-23.291254181598781
21
-5.0562260040623421
31
0
0
LINE
5
116
100
AcDbEntity
8
0
100
AcDbLine
10
-23.285675884621302
20
-5.1192755687070379
30
0
11
-23.491897279545711
21
-8.0328137380238438
31
0
0
SPLINE
5
117
100
AcDbEntity
8
0
100
AcDbSpline
70
4
71
5
72
31
73
25
74
0
42
0.000000001
43
0.0000000001
44
0.0000000001
40
0.018194767889047048
40
0.018194767889047048
40
0.018194767889047048
40
0.018194767889047048
40
0.018194767889047048
40
0.018194767889047048
40
0.050000000000000003
40
0.10000000000000001
40
0.15000000000000002
40
0.20000000000000001
40
0.25
40
0.29999999999999999
40
0.34999999999999998
40
0.39999999999999997
40
0.44999999999999996
40
0.49999999999999994
40
0.54999999999999993
40
0.59999999999999998
40
0.65000000000000002
40
0.70000000000000007
40
0.75000000000000011
40
0.80000000000000016
40
0.8500000000000002
40
0.90000000000000024
40
0.95000000000000029
40
0.96101794300211862
40
0.96101794300211862
40
0.96101794300211862
40
0.96101794300211862
40
0.96101794300211862
40
0.96101794300211862
41
1
41
1
41
1
41
1
41
1
41
1
41
1
41
1
41
1
41
1
41
1
41
1
41
1
41
1
41
1
41
1
41
1
41
1
41
1
41
1
41
1
41
1
41
1
41
1
41
1
10
-23.536696245828903
20
-8.1454499000722098
30
0
10
-23.550597092157652
20
-8.1624153464881548
30
0
10
-23.585959995892949
20
-8.2060825225805605
30
0
10
-23.641315165237948
20
-8.2765681558133029
30
0
10
-23.71405105609124
20
-8.3740893551204749
30
0
10
-23.800365749729686
20
-8.4991086881099118
30
0
10
-23.88577325777127
20
-8.6353678984555469
30
0
10
-23.963527098777419
20
-8.7742859302097944
30
0
10
-24.033823830110848
20
-8.917939812664244
30
0
10
-24.097090733125889
20
-9.069405146739129
30
0
10
-24.153769492890838
20
-9.2319013183858267
30
0
10
-24.204124637723471
20
-9.4079985867077092
30
0
10
-24.248050419175303
20
-9.5987954597628757
30
0
10
-24.28487386547415
20
-9.8030455434685155
30
0
10
-24.313175688900877
20
-10.016332996950732
30
0
10
-24.331069230141708
20
-10.232201614257763
30
0
10
-24.336452776174315
20
-10.443141354463863
30
0
10
-24.327292247931723
20
-10.641646699570057
30
0
10
-24.301871049994382
20
-10.821139845432988
30
0
10
-24.259156191975215
20
-10.977230852137543
30
0
10
-24.208178000193435
20
-11.087353882873256
30
0
10
-24.160095863249168
20
-11.157642750455533
30
0
10
-24.12260488102352
20
-11.199563104173226
30
0
10
-24.100691724472263
20
-11.220629453238775
30
0
10
-24.096692285882156
20
-11.224369032965043
30
0
0
SPLINE
5
118
100
AcDbEntity
8
0
100
AcDbSpline
70
4
71
5
72
16
73
10
74
0
42
0.000000001
43
0.0000000001
44
0.0000000001
40
0.17412688191879805
40
0.17412688191879805
40
0.17412688191879805
40
0.17412688191879805
40
0.17412688191879805
40
0.17412688191879805
40
0.20000000000000001
40
0.40000000000000002
40
0.60000000000000009
40
0.80000000000000004
40
0.81367405272802218
40
0.81367405272802218
40
0.81367405272802218
40
0.81367405272802218
40
0.81367405272802218
40
0.81367405272802218
41
1
41
1
41
1
41
1
41
1
41
1
41
1
41
1
41
1
41
1
10
-24.034858232864238
20
-11.395468831353048
30
0
10
-24.035281496731194
20
-11.398826724698017
30
0
10
-24.038976603331797
20
-11.428141237066873
30
0
10
-24.045943552666369
20
-11.48341236845978
30
0
10
-24.056182344735507
20
-11.564640118877058
30
0
10
-24.066644833555845
20
-11.647642530180747
30
0
10
-24.076684058509574
20
-11.727287048139814
30
0
10
-24.083451440728986
20
-11.780974947074681
30
0
10
-24.086946980213895
20
-11.80870622698512
30
0
10
-24.087170676964249
20
-11.81048088787103
30
0
0
SPLINE
5
119
100
AcDbEntity
8
0
100
AcDbSpline
70
4
71
5
72
31
73
25
74
0
42
0.000000001
43
0.0000000001
44
0.0000000001
40
0
40
0
40
0
40
0
40
0
40
0
40
0.050000000000000003
40
0.10000000000000001
40
0.15000000000000002
40
0.20000000000000001
40
0.25
40
0.29999999999999999
40
0.34999999999999998
40
0.39999999999999997
40
0.44999999999999996
40
0.49999999999999994
40
0.54999999999999993
40
0.59999999999999998
40
0.65000000000000002
40
0.70000000000000007
40
0.75000000000000011
40
0.80000000000000016
40
0.8500000000000002
40
0.90000000000000024
40
0.95000000000000029
40
1
40
1
40
1
40
1
40
1
40
1
41
1
41
1
41
1
41
1
41
1
41
1
41
1
41
1
41
1
41
1
41
1
41
1
41
1
41
1
41
1
41
1
41
1
41
1
41
1
41
1
41
1
41
1
41
1
41
1
41
1
10
-24.222741538089242
20
-11.975333814709153
30
0
10
-24.250919279634346
20
-11.984662667057393
30
0
10
-24.30366571718794
20
-12.0011276527433
30
0
10
-24.371958542212695
20
-12.019247372465276
30
0
10
-24.442715352763919
20
-12.031599644922411
30
0
10
-24.505386723018145
20
-12.035219356420502
30
0
10
-24.552958483724257
20
-12.037104186277872
30
0
10
-24.59680863460413
20
-12.047486603000984
30
0
10
-24.646908949230308
20
-12.074340613580887
30
0
10
-24.710390742392359
20
-12.121980808418744
30
0
10
-24.7914913548119
20
-12.191691238988598
30
0
10
-24.891084571387626
20
-12.281814201035228
30
0
10
-25.006447042458561
20
-12.388067704232997
30
0
10
-25.130500745522536
20
-12.503486726924589
30
0
10
-25.252394452307207
20
-12.619195237434663
30
0
10
-25.36026622312577
20
-12.726516604923354
30
0
10
-25.443416968342405
20
-12.818715811951769
30
0
10
-25.494866854458209
20
-12.893034810384449
30
0
10
-25.513533323057281
20
-12.952410671459049
30
0
10
-25.507452777491789
20
-13.008130434084356
30
0
10
-25.490575130702634
20
-13.076608332357306
30
0
10
-25.480674775382838
20
-13.155242847313469
30
0
10
-25.480950750355031
20
-13.233788655018039
30
0
10
-25.485307974337186
20
-13.295649600285785
30
0
10
-25.48852999951815
20
-13.328954442259604
30
0
0
SPLINE
5
120
100
AcDbEntity
8
0
100
AcDbSpline
70
4
71
5
72
16
73
10
74
0
42
0.000000001
43
0.0000000001
44
0.0000000001
40
0.011856804600652242
40
0.011856804600652242
40
0.011856804600652242
40
0.011856804600652242
40
0.011856804600652242
40
0.011856804600652242
40
0.20000000000000001
40
0.40000000000000002
40
0.60000000000000009
40
0.80000000000000004
40
0.92469989211466963
40
0.92469989211466963
40
0.92469989211466963
40
0.92469989211466963
40
0.92469989211466963
40
0.92469989211466963
41
1
41
1
41
1
41
1
41
1
41
1
41
1
41
1
41
1
41
1
10
-25.478684785156975
20
-13.412972443563424
30
0
10
-25.433405840663813
20
-13.545276760991541
30
0
10
-25.33999446768042
20
-13.818223228296736
30
0
10
-25.198450666208903
20
-14.231811845480246
30
0
10
-25.008774436252111
20
-14.786042612543802
30
0
10
-24.789087663101562
20
-15.427963684193276
30
0
10
-24.614679834443315
20
-15.937580438414223
30
0
10
-24.488404434272976
20
-16.306555042756727
30
0
10
-24.41026146258946
20
-16.534887497220062
30
0
10
-24.380250919392253
20
-16.622577801803878
30
0
0
SPLINE
5
121
100
AcDbEntity
8
0
100
AcDbSpline
70
4
71
5
72
15
73
9
74
0
42
0.000000001
43
0.0000000001
44
0.0000000001
40
0.38597998529380556
40
0.38597998529380556
40
0.38597998529380556
40
0.38597998529380556
40
0.38597998529380556
40
0.38597998529380556
40
0.40000000000000002
40
0.60000000000000009
40
0.80000000000000004
40
0.84527792629292808
40
0.84527792629292808
40
0.84527792629292808
40
0.84527792629292808
40
0.84527792629292808
40
0.84527792629292808
41
1
41
1
41
1
41
1
41
1
41
1
41
1
41
1
41
1
10
-24.569476294507758
20
-16.887337028274864
30
0
10
-24.57150919164377
20
-16.88733702827485
30
0
10
-24.602542017504728
20
-16.887337028274679
30
0
10
-24.662574772091041
20
-16.887337028274661
30
0
10
-24.72917280985461
20
-16.887337028275255
30
0
10
-24.795770847618542
20
-16.887337028276399
30
0
10
-24.860335988246504
20
-16.887337028277976
30
0
10
-24.89590120014882
20
-16.887337028278992
30
0
10
-24.902466483325515
20
-16.88733702827918
30
0
0
SPLINE
5
122
100
AcDbEntity
8
0
100
AcDbSpline
70
4
71
5
72
16
73
10
74
0
42
0.000000001
43
0.0000000001
44
0.0000000001
40
0.017095685802581213
40
0.017095685802581213
40
0.017095685802581213
40
0.017095685802581213
40
0.017095685802581213
40
0.017095685802581213
40
0.20000000000000001
40
0.40000000000000002
40
0.60000000000000009
40
0.80000000000000004
40
0.98369818682699695
40
0.98369818682699695
40
0.98369818682699695
40
0.98369818682699695
40
0.98369818682699695
40
0.98369818682699695
41
1
41
1
41
1
41
1
41
1
41
1
41
1
41
1
41
1
41
1
10
-25.073127851375471
20
-16.983055210816453
30
0
10
-25.198279112515568
20
-17.187870258714248
30
0
10
-25.460279262856552
20
-17.616643991016929
30
0
10
-25.859128302397746
20
-18.269376407725591
30
0
10
-26.394826231138133
20
-19.14606750884175
30
0
10
-27.056218623953647
20
-20.228462631207947
30
0
10
-27.592459755629012
20
-21.106042705675733
30
0
10
-27.991851998104153
20
-21.759664095737211
30
0
10
-28.254395351379532
20
-22.189326801392106
30
0
10
-28.380089815455506
20
-22.395030822640386
30
0
0
SPLINE
5
123
100
AcDbEntity
8
0
100
AcDbSpline
70
4
71
5
72
16
73
10
74
0
42
0.000000001
43
0.0000000001
44
0.0000000001
40
0.0092133153561420166
40
0.0092133153561420166
40
0.0092133153561420166
40
0.0092133153561420166
40
0.0092133153561420166
40
0.0092133153561420166
40
0.20000000000000001
40
0.40000000000000002
40
0.60000000000000009
40
0.80000000000000004
40
0.98745954529623736
40
0.98745954529623736
40
0.98745954529623736
40
0.98745954529623736
40
0.98745954529623736
40
0.98745954529623736
41
1
41
1
41
1
41
1
41
1
41
1
41
1
41
1
41
1
41
1
10
-28.390909473303552
20
-22.583364036512634
30
0
10
-28.204736918461286
20
-22.985341727514211
30
0
10
-27.823401315223517
20
-23.808709089134389
30
0
10
-27.246902663591488
20
-25.053466121375642
30
0
10
-26.4752409635669
20
-26.719612824241295
30
0
10
-25.520653381992041
20
-28.780727107348497
30
0
10
-24.752238355258982
20
-30.439863699453703
30
0
10
-24.178986376920001
20
-31.677610620937841
30
0
10
-23.800897446974552
20
-32.493967871799434
30
0
10
-23.61797156542243
20
-32.888935452037664
30
0
0
SPLINE
5
124
100
AcDbEntity
8
0
100
AcDbSpline
70
4
71
5
72
16
73
10
74
0
42
0.000000001
43
0.0000000001
44
0.0000000001
40
0
40
0
40
0
40
0
40
0
40
0
40
0.20000000000000001
40
0.40000000000000002
40
0.60000000000000009
40
0.80000000000000004
40
1
40
1
40
1
40
1
40
1
40
1
41
1
41
1
41
1
41
1
41
1
41
1
41
1
41
1
41
1
41
1
10
-23.412266152828845
20
-33.003411582928891
30
0
10
-22.994697212831667
20
-32.952459699283033
30
0
10
-22.15956873353359
20
-32.850479005847568
30
0
10
-20.90690418636493
20
-32.697277435303647
30
0
10
-19.236729085349879
20
-32.49264621297047
30
0
10
-17.149029091523779
20
-32.236702728833045
30
0
10
-15.478833861034957
20
-32.032236378432899
30
0
10
-14.226140783211484
20
-31.879268490312537
30
0
10
-13.390986646678424
20
-31.777497944346855
30
0
10
-12.973403217514274
20
-31.726664735288711
30
0
0
SPLINE
5
125
100
AcDbEntity
8
0
100
AcDbSpline
70
4
71
5
72
18
73
12
74
0
42
0.000000001
43
0.0000000001
44
0.0000000001
40
0
40
0
40
0
40
0
40
0
40
0
40
0.10000000000000001
40
0.20000000000000001
40
0.30000000000000004
40
0.40000000000000002
40
0.5
40
0.59999999999999998
40
0.67373619222384362
40
0.67373619222384362
40
0.67373619222384362
40
0.67373619222384362
40
0.67373619222384362
40
0.67373619222384362
41
1
41
1
41
1
41
1
41
1
41
1
41
1
41
1
41
1
41
1
41
1
41
1
10
-12.817070533392565
20
-31.61426694599967
30
0
10
-12.801351541765722
20
-31.581327548848495
30
0
10
-12.765347957031301
20
-31.505176632507062
30
0
10
-12.697646973081236
20
-31.360136404037988
30
0
10
-12.583592408284916
20
-31.111921714311201
30
0
10
-12.421172317274953
20
-30.748101657057212
30
0
10
-12.263260262366691
20
-30.378365115391937
30
0
10
-12.139801290317926
20
-30.067393082037022
30
0
10
-12.072923517919325
20
-29.877330450545823
30
0
10
-12.041063777387208
20
-29.773389717190277
30
0
10
-12.026360715806659
20
-29.720595441701711
30
0
10
-12.020980186198354
20
-29.700436059794768
30
0
0
SPLINE
5
126
100
AcDbEntity
8
0
100
AcDbSpline
70
4
71
5
72
31
73
25
74
0
42
0.000000001
43
0.0000000001
44
0.0000000001
40
0
40
0
40
0
40
0
40
0
40
0
40
0.050000000000000003
40
0.10000000000000001
40
0.15000000000000002
40
0.20000000000000001
40
0.25
40
0.29999999999999999
40
0.34999999999999998
40
0.39999999999999997
40
0.44999999999999996
40
0.49999999999999994
40
0.54999999999999993
40
0.59999999999999998
40
0.65000000000000002
40
0.70000000000000007
40
0.75000000000000011
40
0.80000000000000016
40
0.8500000000000002
40
0.90000000000000024
40
0.95000000000000029
40
1
40
1
40
1
40
1
40
1
40
1
41
1
41
1
41
1
41
1
41
1
41
1
41
1
41
1
41
1
41
1
41
1
41
1
41
1
41
1
41
1
41
1
41
1
41
1
41
1
41
1
41
1
41
1
41
1
41
1
41
1
10
-12.172605237342387
20
-26.744825250576334
30
0
10
-12.121076526782197
20
-26.675069800848949
30
0
10
-12.024641423284699
20
-26.540645239486715
30
0
10
-11.899855626804355
20
-26.354267964657726
30
0
10
-11.772366443659303
20
-26.13459451948199
30
0
10
-11.672480140956134
20
-25.898973796348507
30
0
10
-11.624365063427577
20
-25.691719734229284
30
0
10
-11.618763647944288
20
-25.504301208751773
30
0
10
-11.645609164669018
20
-25.333146388320174
30
0
10
-11.694732412999322
20
-25.184366746752531
30
0
10
-11.756533435192317
20
-25.069202081591516
30
0
10
-11.8226834190258
20
-24.995085141787307
30
0
10
-11.886742950158787
20
-24.958987235293645
30
0
10
-11.945024919512448
20
-24.937336506031361
30
0
10
-11.995978745965035
20
-24.894054552364064
30
0
10
-12.039299675831607
20
-24.791661882104986
30
0
10
-12.075062954874113
20
-24.603124360725985
30
0
10
-12.103206252964005
20
-24.317342719177578
30
0
10
-12.123645180286918
20
-23.933528456661325
30
0
10
-12.13624240892077
20
-23.458503406207029
30
0
10
-12.140843794741677
20
-22.903066367037894
30
0
10
-12.138003979375364
20
-22.403774309092569
30
0
10
-12.132150679741375
20
-22.002673577654708
30
0
10
-12.126586150960716
20
-21.723997528217694
30
0
10
-12.123388304948449
20
-21.581840589378384
30
0
0
SPLINE
5
127
100
AcDbEntity
8
0
100
AcDbSpline
70
4
71
5
72
16
73
10
74
0
42
0.000000001
43
0.0000000001
44
0.0000000001
40
0
40
0
40
0
40
0
40
0
40
0
40
0.20000000000000001
40
0.40000000000000002
40
0.60000000000000009
40
0.80000000000000004
40
1
40
1
40
1
40
1
40
1
40
1
41
1
41
1
41
1
41
1
41
1
41
1
41
1
41
1
41
1
41
1
10
-12.097752308104264
20
-21.488283238155972
30
0
10
-12.081362049624069
20
-21.459146175012179
30
0
10
-12.04722028359746
20
-21.403449054127549
30
0
10
-11.99192756104547
20
-21.327627434286647
30
0
10
-11.911169462454829
20
-21.23984902165569
30
0
10
-11.802417697521355
20
-21.144900168661643
30
0
10
-11.711586301708852
20
-21.076191698484138
30
0
10
-11.642016118670753
20
-21.027398999151043
30
0
10
-11.595034823899271
20
-20.996008624004698
30
0
10
-11.571393820111698
20
-20.980598078874522
30
0
0
SPLINE
5
128
100
AcDbEntity
8
0
100
AcDbSpline
70
4
71
5
72
26
73
20
74
0
42
0.000000001
43
0.0000000001
44
0.0000000001
40
0
40
0
40
0
40
0
40
0
40
0
40
0.066666666666666666
40
0.13333333333333333
40
0.20000000000000001
40
0.26666666666666666
40
0.33333333333333331
40
0.39999999999999997
40
0.46666666666666662
40
0.53333333333333333
40
0.59999999999999998
40
0.66666666666666663
40
0.73333333333333328
40
0.79999999999999993
40
0.86666666666666659
40
0.93333333333333324
40
0.99337624237231004
40
0.99337624237231004
40
0.99337624237231004
40
0.99337624237231004
40
0.99337624237231004
40
0.99337624237231004
41
1
41
1
41
1
41
1
41
1
41
1
41
1
41
1
41
1
41
1
41
1
41
1
41
1
41
1
41
1
41
1
41
1
41
1
41
1
41
1
10
-11.571393820111698
20
-20.980598078874522
30
0
10
-11.563850175268779
20
-20.973777726992921
30
0
10
-11.548741969450555
20
-20.960842327187809
30
0
10
-11.526014939809865
20
-20.943555557620613
30
0
10
-11.495599119778886
20
-20.924766293365945
30
0
10
-11.455388846675527
20
-20.909035230768819
30
0
10
-11.40727213734792
20
-20.902643221031255
30
0
10
-11.339071984738736
20
-20.908660418363208
30
0
10
-11.233902861149645
20
-20.9311997008523
30
0
10
-11.074136041745277
20
-20.974463401172695
30
0
10
-10.844550814274847
20
-21.041956120454746
30
0
10
-10.536483801724927
20
-21.135427706257186
30
0
10
-10.14637787476109
20
-21.255298103727064
30
0
10
-9.6739951218692628
20
-21.401163459477491
30
0
10
-9.1211270117408709
20
-21.572158335182081
30
0
10
-8.5029894019758618
20
-21.763392396022027
30
0
10
-7.953850164261195
20
-21.933248024187577
30
0
10
-7.5147138734690335
20
-22.069050733572219
30
0
10
-7.2138532047165596
20
-22.162080645726846
30
0
10
-7.0683431343824044
20
-22.207071805623187
30
0
0
SPLINE
5
129
100
AcDbEntity
8
0
100
AcDbSpline
70
4
71
5
72
15
73
9
74
0
42
0.000000001
43
0.0000000001
44
0.0000000001
40
0.20510449155937344
40
0.20510449155937344
40
0.20510449155937344
40
0.20510449155937344
40
0.20510449155937344
40
0.20510449155937344
40
0.40000000000000002
40
0.60000000000000009
40
0.80000000000000004
40
0.8884298637611252
40
0.8884298637611252
40
0.8884298637611252
40
0.8884298637611252
40
0.8884298637611252
40
0.8884298637611252
41
1
41
1
41
1
41
1
41
1
41
1
41
1
41
1
41
1
10
-6.9136149597949581
20
-22.191642487488899
30
0
10
-6.899530955115817
20
-22.183972979989814
30
0
10
-6.8709940727981476
20
-22.168433093578464
30
0
10
-6.8280043128423964
20
-22.145022828255897
30
0
10
-6.7786242228847371
20
-22.118132680260235
30
0
10
-6.7292441329275761
20
-22.091242532265419
30
0
10
-6.693948047649128
20
-22.072021891768529
30
0
10
-6.6731048400087456
20
-22.060671630182931
30
0
10
-6.6667145100063401
20
-22.057191747508583
30
0
0
SPLINE
5
130
100
AcDbEntity
8
0
100
AcDbSpline
70
4
71
5
72
16
73
10
74
0
42
0.000000001
43
0.0000000001
44
0.0000000001
40
0.017866160728824163
40
0.017866160728824163
40
0.017866160728824163
40
0.017866160728824163
40
0.017866160728824163
40
0.017866160728824163
40
0.20000000000000001
40
0.40000000000000002
40
0.60000000000000009
40
0.80000000000000004
40
0.98342566754041627
40
0.98342566754041627
40
0.98342566754041627
40
0.98342566754041627
40
0.98342566754041627
40
0.98342566754041627
41
1
41
1
41
1
41
1
41
1
41
1
41
1
41
1
41
1
41
1
10
-6.5835146681636667
20
-22.051601559226356
30
0
10
-6.4960734661697863
20
-22.084962137033767
30
0
10
-6.3126136414492242
20
-22.154955751229654
30
0
10
-6.0331351940025222
20
-22.261582401815932
30
0
10
-5.6576381238304165
20
-22.404842088795025
30
0
10
-5.1940796538102418
20
-22.581698971547599
30
0
10
-4.8179623857837734
20
-22.725195276491725
30
0
10
-4.5378637404833677
20
-22.832058545044973
30
0
10
-4.3537837179087955
20
-22.902288777206948
30
0
10
-4.2657223180599457
20
-22.935885972977559
30
0
0
SPLINE
5
131
100
AcDbEntity
8
0
100
AcDbSpline
70
4
71
5
72
16
73
10
74
0
42
0.000000001
43
0.0000000001
44
0.0000000001
40
0.011745586068370265
40
0.011745586068370265
40
0.011745586068370265
40
0.011745586068370265
40
0.011745586068370265
40
0.011745586068370265
40
0.20000000000000001
40
0.40000000000000002
40
0.60000000000000009
40
0.80000000000000004
40
0.97507452053234833
40
0.97507452053234833
40
0.97507452053234833
40
0.97507452053234833
40
0.97507452053234833
40
0.97507452053234833
41
1
41
1
41
1
41
1
41
1
41
1
41
1
41
1
41
1
41
1
10
-4.1834174478178161
20
-22.94872028690401
30
0
10
-4.0471221038724492
20
-22.94120366346343
30
0
10
-3.7660276648102538
20
-22.925701438747463
30
0
10
-3.340134130631581
20
-22.902213612757933
30
0
10
-2.7694415013368907
20
-22.870740185497283
30
0
10
-2.0719957112877236
20
-22.832276381669981
30
0
10
-1.5108452651837028
20
-22.801329201282613
30
0
10
-1.0944939141960717
20
-22.778367622168613
30
0
10
-0.82294165832476018
20
-22.763391644327164
30
0
10
-0.69618849756974721
20
-22.75640126775787
30
0
0
SPLINE
5
132
100
AcDbEntity
8
0
100
AcDbSpline
70
4
71
5
72
25
73
19
74
0
42
0.000000001
43
0.0000000001
44
0.0000000001
40
0.10565895481031938
40
0.10565895481031938
40
0.10565895481031938
40
0.10565895481031938
40
0.10565895481031938
40
0.10565895481031938
40
0.13333333333333333
40
0.20000000000000001
40
0.26666666666666666
40
0.33333333333333331
40
0.39999999999999997
40
0.46666666666666662
40
0.53333333333333333
40
0.59999999999999998
40
0.66666666666666663
40
0.73333333333333328
40
0.79999999999999993
40
0.86666666666666659
40
0.93333333333333324
40
0.99591228389965658
40
0.99591228389965658
40
0.99591228389965658
40
0.99591228389965658
40
0.99591228389965658
40
0.99591228389965658
41
1
41
1
41
1
41
1
41
1
41
1
41
1
41
1
41
1
41
1
41
1
41
1
41
1
41
1
41
1
41
1
41
1
41
1
41
1
10
-0.50420723227708386
20
-22.818661842129234
30
0
10
-0.49896182264297179
20
-22.822923601117267
30
0
10
-0.48115933679257439
20
-22.837820029832482
30
0
10
-0.45134040403254583
20
-22.865480092574813
30
0
10
-0.41162205619650394
20
-22.910966382478591
30
0
10
-0.37120560994471385
20
-22.987088106665809
30
0
10
-0.36120645153609787
20
-23.114552054524282
30
0
10
-0.41240118128924397
20
-23.304973329269217
30
0
10
-0.54885025705339241
20
-23.578719647716696
30
0
10
-0.78591964524274194
20
-23.948466533246776
30
0
10
-1.1307524666543152
20
-24.419676986786062
30
0
10
-1.5852596422978884
20
-24.993279789002468
30
0
10
-2.147770305284213
20
-25.667153429024779
30
0
10
-2.8147360596391318
20
-26.437645073506943
30
0
10
-3.5725471485828924
20
-27.290073915005287
30
0
10
-4.2517084600620283
20
-28.0388422552302
30
0
10
-4.7989308066899925
20
-28.634815230846741
30
0
10
-5.1774339689454143
20
-29.044104193590901
30
0
10
-5.3647995775051305
20
-29.246053515078039
30
0
0
SPLINE
5
133
100
AcDbEntity
8
0
100
AcDbSpline
70
4
71
5
72
16
73
10
74
0
42
0.000000001
43
0.0000000001
44
0.0000000001
40
0.047159850411525157
40
0.047159850411525157
40
0.047159850411525157
40
0.047159850411525157
40
0.047159850411525157
40
0.047159850411525157
40
0.20000000000000001
40
0.40000000000000002
40
0.60000000000000009
40
0.80000000000000004
40
0.96558047049859697
40
0.96558047049859697
40
0.96558047049859697
40
0.96558047049859697
40
0.96558047049859697
40
0.96558047049859697
41
1
41
1
41
1
41
1
41
1
41
1
41
1
41
1
41
1
41
1
10
-5.4171914933336396
20
-29.401976212645216
30
0
10
-5.4113724689842506
20
-29.460185245226235
30
0
10
-5.3979389214025941
20
-29.594564096717015
30
0
10
-5.3768908505889437
20
-29.805112767119475
30
0
10
-5.3482282565436803
20
-30.091831256436471
30
0
10
-5.3132615808021306
20
-30.441610918024459
30
0
10
-5.2841139294098616
20
-30.733181547031805
30
0
10
-5.2625808012494613
20
-30.948582357127066
30
0
10
-5.2486621963208879
20
-31.087813348309009
30
0
10
-5.2423581146241425
20
-31.150874520577005
30
0
0
SPLINE
5
134
100
AcDbEntity
8
0
100
AcDbSpline
70
4
71
5
72
16
73
10
74
0
42
0.000000001
43
0.0000000001
44
0.0000000001
40
0.0071504205019870815
40
0.0071504205019870815
40
0.0071504205019870815
40
0.0071504205019870815
40
0.0071504205019870815
40
0.0071504205019870815
40
0.20000000000000001
40
0.40000000000000002
40
0.60000000000000009
40
0.80000000000000004
40
0.98989711211488074
40
0.98989711211488074
40
0.98989711211488074
40
0.98989711211488074
40
0.98989711211488074
40
0.98989711211488074
41
1
41
1
41
1
41
1
41
1
41
1
41
1
41
1
41
1
41
1
10
-5.1915875627708168
20
-31.265239725164527
30
0
10
-4.953070427213909
20
-31.528589178354967
30
0
10
-4.4671924872647004
20
-32.065052479008557
30
0
10
-3.733953742923672
20
-32.874629627129082
30
0
10
-2.7533541941914512
20
-33.957320622721589
30
0
10
-1.5378891334380462
20
-35.299329272885281
30
0
10
-0.56094120824118376
20
-36.377988469857144
30
0
10
0.16864591256400094
20
-37.183533819361678
30
0
10
0.65087222897755259
20
-37.715965321397221
30
0
10
0.885737740999474
20
-37.975282975962983
30
0
0
SPLINE
5
135
100
AcDbEntity
8
0
100
AcDbSpline
70
4
71
5
72
16
73
10
74
0
42
0.000000001
43
0.0000000001
44
0.0000000001
40
0.027537719974767956
40
0.027537719974767956
40
0.027537719974767956
40
0.027537719974767956
40
0.027537719974767956
40
0.027537719974767956
40
0.20000000000000001
40
0.40000000000000002
40
0.60000000000000009
40
0.80000000000000004
40
1
40
1
40
1
40
1
40
1
40
1
41
1
41
1
41
1
41
1
41
1
41
1
41
1
41
1
41
1
41
1
10
1.0412212581311164
20
-38.040892083491578
30
0
10
1.1577175318041282
20
-38.03666865362564
30
0
10
1.409311490206768
20
-38.027547422496482
30
0
10
1.7960031333390249
20
-38.013528390107979
30
0
10
2.317792461200896
20
-37.994611556465443
30
0
10
2.9746794737924267
20
-37.9707969215725
30
0
10
3.5150702127110267
20
-37.951205716544784
30
0
10
3.9203632669000523
20
-37.936512312775662
30
0
10
4.1905586363594312
20
-37.926716710263491
30
0
10
4.3256563210891281
20
-37.921818909007563
30
0
0
SPLINE
5
136
100
AcDbEntity
8
0
100
AcDbSpline
70
4
71
5
72
16
73
10
74
0
42
0.000000001
43
0.0000000001
44
0.0000000001
40
0
40
0
40
0
40
0
40
0
40
0
40
0.20000000000000001
40
0.40000000000000002
40
0.60000000000000009
40
0.80000000000000004
40
0.98720054942632829
40
0.98720054942632829
40
0.98720054942632829
40
0.98720054942632829
40
0.98720054942632829
40
0.98720054942632829
41
1
41
1
41
1
41
1
41
1
41
1
41
1
41
1
41
1
41
1
10
4.3256563210891281
20
-37.921818909007563
30
0
10
4.6382911384578449
20
-37.872092621222308
30
0
10
5.2635607731953948
20
-37.772640045652437
30
0
10
6.201465225302111
20
-37.62346118229965
30
0
10
7.4520044947784445
20
-37.424556031166105
30
0
10
8.995170812162165
20
-37.179106938066198
30
0
10
10.225702312177166
20
-36.983384132749968
30
0
10
11.143598994823034
20
-36.837387615216123
30
0
10
11.748860860099512
20
-36.74111738546457
30
0
10
12.041487908006452
20
-36.694573443495479
30
0
0
SPLINE
5
137
100
AcDbEntity
8
0
100
AcDbSpline
70
4
71
5
72
16
73
10
74
0
42
0.000000001
43
0.0000000001
44
0.0000000001
40
0.043968953011914232
40
0.043968953011914232
40
0.043968953011914232
40
0.043968953011914232
40
0.043968953011914232
40
0.043968953011914232
40
0.20000000000000001
40
0.40000000000000002
40
0.60000000000000009
40
0.80000000000000004
40
0.95063237544124846
40
0.95063237544124846
40
0.95063237544124846
40
0.95063237544124846
40
0.95063237544124846
40
0.95063237544124846
41
1
41
1
41
1
41
1
41
1
41
1
41
1
41
1
41
1
41
1
10
12.187891568162792
20
-36.588599190457046
30
0
10
12.220798197935709
20
-36.524678860556136
30
0
10
12.295884420050546
20
-36.378825695960764
30
0
10
12.413150234508432
20
-36.151039696673053
30
0
10
12.572595641310976
20
-35.84132086269598
30
0
10
12.763809109064951
20
-35.469893341141734
30
0
10
12.922115947045693
20
-35.162386149487482
30
0
10
13.038243192683002
20
-34.936811792524686
30
0
10
13.112190845976512
20
-34.793170270252944
30
0
10
13.143958906926095
20
-34.731461582672225
30
0
0
SPLINE
5
138
100
AcDbEntity
8
0
100
AcDbSpline
70
4
71
5
72
16
73
10
74
0
42
0.000000001
43
0.0000000001
44
0.0000000001
40
0.029444421236682523
40
0.029444421236682523
40
0.029444421236682523
40
0.029444421236682523
40
0.029444421236682523
40
0.029444421236682523
40
0.20000000000000001
40
0.40000000000000002
40
0.60000000000000009
40
0.80000000000000004
40
0.99486774310829462
40
0.99486774310829462
40
0.99486774310829462
40
0.99486774310829462
40
0.99486774310829462
40
0.99486774310829462
41
1
41
1
41
1
41
1
41
1
41
1
41
1
41
1
41
1
41
1
10
13.135727550084386
20
-34.533901033650572
30
0
10
13.065883231791274
20
-34.422176316292415
30
0
10
12.914136792442603
20
-34.179438918882767
30
0
10
12.680488232039167
20
-33.805688841423446
30
0
10
12.364937550582054
20
-33.300926083916941
30
0
10
11.969586461698299
20
-32.668512600014992
30
0
10
11.644079691107773
20
-32.147823833470298
30
0
10
11.40047504157206
20
-31.758147746974672
30
0
10
11.238772513090563
20
-31.499484340527779
30
0
10
11.158972105662945
20
-31.371833614129532
30
0
0
LINE
5
139
100
AcDbEntity
8
0
100
AcDbLine
10
11.145162484319709
20
-31.335476432735923
30
0
11
10.657853655648086
21
-28.449843760994177
31
0
0
LINE
5
140
100
AcDbEntity
8
0
100
AcDbLine
10
10.810942422308576
20
-28.221467362120695
30
0
11
20.62508876980635
21
-26.001837914360038
31
0
0
LINE
5
141
100
AcDbEntity
8
0
100
AcDbLine
10
20.762232436775051
20
-25.891286149559424
30
0
11
21.528078792393792
21
-24.248868664015617
31
0
0
LINE
5
142
100
AcDbEntity
8
0
100
AcDbLine
10
21.522888514789663
20
-24.069486767822127
30
0
11
18.159213281133944
21
-17.82610955144801
31
0
0
LINE
5
143
100
AcDbEntity
8
0
100
AcDbLine
10
18.159213281133944
20
-17.82610955144801
30
0
11
17.190617348297213
21
-15.501479312639852
31
0
0
LINE
5
144
100
AcDbEntity
8
0
100
AcDbLine
10
17.175232732912601
20
-15.424556235716778
30
0
11
17.175232732912601
21
-15.127115428963801
31
0
0
LINE
5
145
100
AcDbEntity
8
0
100
AcDbLine
10
17.252145833914131
20
-14.969477821474534
30
0
11
17.842614629594994
21
-14.508426844025092
31
0
0
LINE
5
146
100
AcDbEntity
8
0
100
AcDbLine
10
17.9181491230663
20
-14.327346914693308
30
0
11
16.720002183687861
21
-4.1757239192630653
31
0
0
LINE
5
147
100
AcDbEntity
8
0
100
AcDbLine
10
16.729432873691788
20
-3.7571723364527667
30
0
11
17.644535375434991
21
1.8232614204776265
31
0
0
LINE
5
148
100
AcDbEntity
8
0
100
AcDbLine
10
17.805019212809881
20
1.9874670964093117
30
0
11
19.606364898511242
21
2.3254321179984654
31
0
0
LINE
5
149
100
AcDbEntity
8
0
100
AcDbLine
10
19.766848735886136
20
2.4896377939301524
30
0
11
21.148087270595404
21
10.912639731725877
31
0
0
SPLINE
5
150
100
AcDbEntity
8
0
100
AcDbSpline
70
4
71
5
72
36
73
30
74
0
42
0.000000001
43
0.0000000001
44
0.0000000001
40
0
40
0
40
0
40
0
40
0
40
0
40
0.040000000000000001
40
0.080000000000000002
40
0.12
40
0.16
40
0.20000000000000001
40
0.24000000000000002
40
0.28000000000000003
40
0.32000000000000001
40
0.35999999999999999
40
0.39999999999999997
40
0.43999999999999995
40
0.47999999999999993
40
0.51999999999999991
40
0.55999999999999994
40
0.59999999999999998
40
0.64000000000000001
40
0.68000000000000005
40
0.72000000000000008
40
0.76000000000000012
40
0.80000000000000016
40
0.84000000000000019
40
0.88000000000000023
40
0.92000000000000026
40
0.9600000000000003
40
1
40
1
40
1
40
1
40
1
40
1
41
1
41
1
41
1
41
1
41
1
41
1
41
1
41
1
41
1
41
1
41
1
41
1
41
1
41
1
41
1
41
1
41
1
41
1
41
1
41
1
41
1
41
1
41
1
41
1
41
1
41
1
41
1
41
1
41
1
41
1
10
21.148087270595404
20
10.912639731725877
30
0
10
21.157848455151061
20
10.98392345583261
30
0
10
21.175727136262047
20
11.129865194063173
30
0
10
21.197614202701132
20
11.358900523803596
30
0
10
21.216230871247156
20
11.684891475913686
30
0
10
21.218025684917798
20
12.128209644097414
30
0
10
21.193745822761649
20
12.608173642758704
30
0
10
21.139494224551502
20
13.123622025956028
30
0
10
21.053389110401159
20
13.670229589671393
30
0
10
20.937221771353308
20
14.238914227244672
30
0
10
20.79719444569303
20
14.815312691887947
30
0
10
20.641815024215148
20
15.382564184572837
30
0
10
20.480292661037332
20
15.923523720474348
30
0
10
20.3208137239676
20
16.423116941742567
30
0
10
20.168735930735735
20
16.870832032731666
30
0
10
20.025099715044306
20
17.262807935409779
30
0
10
19.884177715774296
20
17.605210834329224
30
0
10
19.735457201135208
20
17.9117982592091
30
0
10
19.567644653283029
20
18.198832990510311
30
0
10
19.372138696259192
20
18.480750475334307
30
0
10
19.146472368817186
20
18.765830577997583
30
0
10
18.898563573262471
20
19.050998166134722
30
0
10
18.643837019618736
20
19.324658962320306
30
0
10
18.40104584501513
20
19.571006082208186
30
0
10
18.18868024648572
20
19.773679602594619
30
0
10
18.020948980224166
20
19.919873777628958
30
0
10
17.927737147976551
20
19.986989512113965
30
0
10
17.881757094295299
20
20.008550372724866
30
0
10
17.86170824960201
20
20.010171032619354
30
0
10
17.854335120882883
20
20.007792891183879
30
0
0
LINE
5
151
100
AcDbEntity
8
0
100
AcDbLine
10
17.854335120882883
20
20.007792891183879
30
0
11
13.936727328642636
21
19.681356978546081
31
0
0
SPLINE
5
152
100
AcDbEntity
8
0
100
AcDbSpline
70
4
71
5
72
51
73
45
74
0
42
0.000000001
43
0.0000000001
44
0.0000000001
40
0.0062847896315232389
40
0.0062847896315232389
40
0.0062847896315232389
40
0.0062847896315232389
40
0.0062847896315232389
40
0.0062847896315232389
40
0.025000000000000001
40
0.050000000000000003
40
0.075000000000000011
40
0.10000000000000001
40
0.125
40
0.14999999999999999
40
0.17499999999999999
40
0.19999999999999998
40
0.22499999999999998
40
0.24999999999999997
40
0.27499999999999997
40
0.29999999999999999
40
0.32500000000000001
40
0.35000000000000003
40
0.37500000000000006
40
0.40000000000000008
40
0.4250000000000001
40
0.45000000000000012
40
0.47500000000000014
40
0.50000000000000011
40
0.52500000000000013
40
0.55000000000000016
40
0.57500000000000018
40
0.6000000000000002
40
0.62500000000000022
40
0.65000000000000024
40
0.67500000000000027
40
0.70000000000000029
40
0.72500000000000031
40
0.75000000000000033
40
0.77500000000000036
40
0.80000000000000038
40
0.8250000000000004
40
0.85000000000000042
40
0.87500000000000044
40
0.90000000000000047
40
0.92500000000000049
40
0.95000000000000051
40
0.97500000000000053
40
1
40
1
40
1
40
1
40
1
40
1
41
1
41
1
41
1
41
1
41
1
41
1
41
1
41
1
41
1
41
1
41
1
41
1
41
1
41
1
41
1
41
1
41
1
41
1
41
1
41
1
41
1
41
1
41
1
41
1
41
1
41
1
41
1
41
1
41
1
41
1
41
1
41
1
41
1
41
1
41
1
41
1
41
1
41
1
41
1
41
1
41
1
41
1
41
1
41
1
41
1
10
13.72129770800198
20
19.858992129083603
30
0
10
13.70881184637854
20
19.973527982891493
30
0
10
13.679710255177074
20
20.237905462221939
30
0
10
13.634196536428618
20
20.641885055421263
30
0
10
13.572601027231316
20
21.167996278270667
30
0
10
13.495025710877169
20
21.792020681979231
30
0
10
13.412461133128417
20
22.403513427057995
30
0
10
13.326247752728852
20
22.973857220186691
30
0
10
13.231712573488338
20
23.51071280622628
30
0
10
13.121972887841988
20
24.025563421414368
30
0
10
12.989482250440236
20
24.531401191264255
30
0
10
12.827381002003806
20
25.040719117396367
30
0
10
12.630961784607127
20
25.563337414208394
30
0
10
12.398992041557211
20
26.104429114416149
30
0
10
12.132930460046072
20
26.665365259716619
30
0
10
11.836245200145854
20
27.244420103340499
30
0
10
11.513720976304604
20
27.83750428684025
30
0
10
11.170742181082092
20
28.438896183663608
30
0
10
10.812749537250305
20
29.04187052040001
30
0
10
10.44485355594059
20
29.639230100668229
30
0
10
10.071395793545403
20
30.223864734183397
30
0
10
9.6955456604545276
20
30.789295299647907
30
0
10
9.3188383618125918
20
31.330235938311514
30
0
10
8.9408943564605785
20
31.843112754311797
30
0
10
8.5593216430234165
20
32.326518286204362
30
0
10
8.1695343823711735
20
32.781734397788313
30
0
10
7.7646537626757786
20
33.213149440671174
30
0
10
7.3352137320721731
20
33.628974904451042
30
0
10
6.870592537567406
20
34.039231997143887
30
0
10
6.3607425815160044
20
34.453271090433859
30
0
10
5.7977418611591061
20
34.877566964298168
30
0
10
5.1776069054675737
20
35.313131513921654
30
0
10
4.5014781371684442
20
35.753847145308654
30
0
10
3.7740928653713017
20
36.188757938480506
30
0
10
3.0026680872363314
20
36.603766742568979
30
0
10
2.1956161755044774
20
36.983586044762376
30
0
10
1.3613942142849678
20
37.313488230279582
30
0
10
0.50717436459155008
20
37.581350776429176
30
0
10
-0.3620125135187075
20
37.778933721379076
30
0
10
-1.2427630593851637
20
37.900915213939214
30
0
10
-2.1330330571917662
20
37.944335323756675
30
0
10
-2.852028510059514
20
37.915182530195196
30
0
10
-3.3949254098160204
20
37.857261186115608
30
0
10
-3.7584772720677244
20
37.802637853139238
30
0
10
-3.9406583588037893
20
37.771323921140969
30
0
0
ARC
5
153
100
AcDbEntity
8
0
100
AcDbCircle
10
-11.923438889066336
20
-21.586338487598866
30
0
40
0.19999999999999918
210
0
220
0
230
1
100
AcDbArc
50
150.6412598814828
51
178.7113384315885
0
ARC
5
154
100
AcDbEntity
8
0
100
AcDbCircle
10
-6.6190450925001665
20
-22.144730132389363
30
0
40
0.099676186689262813
210
0
220
-0
230
1
100
AcDbArc
50
69.117140809450163
51
118.57069854687123
0
ARC
5
155
100
AcDbEntity
8
0
100
AcDbCircle
10
-0.68077003649429524
20
-23.035976860848919
30
0
40
0.28000043070350172
210
0
220
-0
230
1
100
AcDbArc
50
50.907038175090342
51
93.156637326036233
0
ARC
5
156
100
AcDbEntity
8
0
100
AcDbCircle
10
11.243766351735582
20
-31.318824786251788
30
0
40
0.099999999999999506
210
0
220
0
230
1
100
AcDbArc
50
189.58534033249049
51
212.01141966267701
0
ARC
5
157
100
AcDbEntity
8
0
100
AcDbCircle
10
10.855061390479833
20
-28.4165404680259
30
0
40
0.19999999999999768
210
0
220
0
230
1
100
AcDbArc
50
102.74397325164378
51
189.58534033249248
0
ARC
5
158
100
AcDbEntity
8
0
100
AcDbCircle
10
17.3752327329126
20
-15.42455623571678
30
0
40
0.20000000000000018
210
0
220
0
230
1
100
AcDbArc
50
180
51
202.61986494803861
0
ARC
5
159
100
AcDbEntity
8
0
100
AcDbCircle
10
17.375232732912608
20
-15.127115428963807
30
0
40
0.20000000000000584
210
0
220
-0
230
1
100
AcDbArc
50
127.98349825527785
51
180
0
ARC
5
160
100
AcDbEntity
8
0
100
AcDbCircle
10
18.209662627211078
20
-3.9999065054442089
30
0
40
1.4999999999999114
210
0
220
0
230
1
100
AcDbArc
50
170.68728729037963
51
186.73120378379517
0
ARC
5
161
100
AcDbEntity
8
0
100
AcDbCircle
10
17.841899342570901
20
1.7908968646121048
30
0
40
0.19999999999999338
210
0
220
-0
230
1
100
AcDbArc
50
100.62619093132618
51
170.68728729038102
0
ARC
5
162
100
AcDbEntity
8
0
100
AcDbCircle
10
13.92011981930909
20
19.880666262408464
30
0
40
0.19999999999999957
210
0
220
0
230
1
100
AcDbArc
50
186.22140015969364
51
274.7631855772745
0
ARC
5
163
100
AcDbEntity
8
0
100
AcDbCircle
10
-18.2379479103999
20
15.766755663069956
30
0
40
0.19999999999999085
210
-0
220
0
230
1
100
AcDbArc
50
-84.324436629397198
51
6.6244081369449805
0
ARC
5
164
100
AcDbEntity
8
0
100
AcDbCircle
10
-23.140045678308155
20
13.043767052105217
30
0
40
0.20000000000000348
210
0
220
0
230
1
100
AcDbArc
50
174.05094995353898
51
177.25446305405671
0
ARC
5
165
100
AcDbEntity
8
0
100
AcDbCircle
10
-23.821639904807252
20
7.3415584885955942
30
0
40
0.20000000000000018
210
0
220
0
230
1
100
AcDbArc
50
269.99999999902292
51
357.17919518432529
0
ARC
5
166
100
AcDbEntity
8
0
100
AcDbCircle
10
-23.564771240317832
20
1.6723120735978214
30
0
40
0.20000000000000717
210
-0
220
0
230
1
100
AcDbArc
50
-56.798792448389392
51
8.4995884146382661
0
ARC
5
167
100
AcDbEntity
8
0
100
AcDbCircle
10
-24.00660119934658
20
0.29497346107056771
30
0
40
0.19999999999998894
210
-0
220
0
230
1
100
AcDbArc
50
-59.112665339482753
51
20.348359932853427
0
ARC
5
168
100
AcDbEntity
8
0
100
AcDbCircle
10
-24.288378619996379
20
-0.8486703435692311
30
0
40
0.19999999999970264
210
0
220
-0
230
1
100
AcDbArc
50
0
51
13.815216533939978
0
ARC
5
169
100
AcDbEntity
8
0
100
AcDbCircle
10
-23.626742284215545
20
-2.2117785105361278
30
0
40
0.20000000000000018
210
0
220
-0
230
1
100
AcDbArc
50
0
51
34.510939472141658
0
ARC
5
170
100
AcDbEntity
8
0
100
AcDbCircle
10
-23.48691120265384
20
-3.4266813860413587
30
0
40
0.19999999999999168
210
-0
220
0
230
1
100
AcDbArc
50
-2.8451236788513361
51
38.490389507472713
0
ARC
5
171
100
AcDbEntity
8
0
100
AcDbCircle
10
-23.485176772710279
20
-5.1051548161925169
30
0
40
0.19999999999966725
210
-0
220
0
230
1
100
AcDbArc
50
-4.0486660695756971
51
14.160799802262575
0
ARC
5
172
100
AcDbEntity
8
0
100
AcDbCircle
10
-23.691398167635022
20
-8.0186929855093538
30
0
40
0.2000000000000009
210
0
220
0
230
1
100
AcDbArc
50
320.67010331430248
51
355.95133393043989
0
ARC
5
173
100
AcDbEntity
8
0
100
AcDbCircle
10
-24.233288048592421
20
-11.370456669709538
30
0
40
0.19999999999997967
210
-0
220
0
230
1
100
AcDbArc
50
-7.1842673914152044
51
46.923141126909073
0
ARC
5
174
100
AcDbEntity
8
0
100
AcDbCircle
10
-24.285600492691685
20
-11.785468726221893
30
0
40
0.19999999999996748
210
0
220
0
230
1
100
AcDbArc
50
288.3182451425472
51
352.81573260677021
0
ARC
5
175
100
AcDbEntity
8
0
100
AcDbCircle
10
-24.569476294505826
20
-16.687337028274865
30
0
40
0.19999999999998019
210
0
220
0
230
1
100
AcDbArc
50
-90.00000000034504
51
18.892654981515051
0
ARC
5
176
100
AcDbEntity
8
0
100
AcDbCircle
10
-28.209428447402058
20
-22.499312640106936
30
0
40
0.20000000000000645
210
0
220
0
230
1
100
AcDbArc
50
148.57318216483509
51
204.85081289645319
0
ARC
5
177
100
AcDbEntity
8
0
100
AcDbCircle
10
-23.43649053951518
20
-32.804884055644472
30
0
40
0.19999999999998327
210
0
220
0
230
1
100
AcDbArc
50
204.85081289583965
51
276.95685695674155
0
ARC
5
178
100
AcDbEntity
8
0
100
AcDbCircle
10
-12.997571180508118
20
-31.528130331306112
30
0
40
0.1999999999999949
210
0
220
0
230
1
100
AcDbArc
50
276.94057315228679
51
334.48908248916848
0
SPLINE
5
179
100
AcDbEntity
8
0
100
AcDbSpline
70
4
71
5
72
41
73
35
74
0
42
0.000000001
43
0.0000000001
44
0.0000000001
40
0.01262296850013154
40
0.01262296850013154
40
0.01262296850013154
40
0.01262296850013154
40
0.01262296850013154
40
0.01262296850013154
40
0.033333333333333333
40
0.066666666666666666
40
0.10000000000000001
40
0.13333333333333333
40
0.16666666666666666
40
0.19999999999999998
40
0.23333333333333331
40
0.26666666666666666
40
0.29999999999999999
40
0.33333333333333331
40
0.36666666666666664
40
0.39999999999999997
40
0.43333333333333329
40
0.46666666666666662
40
0.49999999999999994
40
0.53333333333333333
40
0.56666666666666665
40
0.59999999999999998
40
0.6333333333333333
40
0.66666666666666663
40
0.69999999999999996
40
0.73333333333333328
40
0.76666666666666661
40
0.79999999999999993
40
0.83333333333333326
40
0.86666666666666659
40
0.89999999999999991
40
0.93333333333333324
40
0.96666666666666656
40
0.96764871666538277
40
0.96764871666538277
40
0.96764871666538277
40
0.96764871666538277
40
0.96764871666538277
40
0.96764871666538277
41
1
41
1
41
1
41
1
41
1
41
1
41
1
41
1
41
1
41
1
41
1
41
1
41
1
41
1
41
1
41
1
41
1
41
1
41
1
41
1
41
1
41
1
41
1
41
1
41
1
41
1
41
1
41
1
41
1
41
1
41
1
41
1
41
1
41
1
41
1
10
-11.81416123856005
20
-29.552472388492177
30
0
10
-11.776205206382182
20
-29.555056169942318
30
0
10
-11.679341717132857
20
-29.561301507909477
30
0
10
-11.531945749412831
20
-29.569301034485878
30
0
10
-11.348911073759009
20
-29.57565811247607
30
0
10
-11.151515016132549
20
-29.575450892890078
30
0
10
-10.980221796147076
20
-29.565211754424425
30
0
10
-10.848897918516116
20
-29.544896714822272
30
0
10
-10.753367663023967
20
-29.514480555649495
30
0
10
-10.686957785108191
20
-29.47400022149435
30
0
10
-10.640117280891053
20
-29.423583357664143
30
0
10
-10.603086965433384
20
-29.363506457311196
30
0
10
-10.568123008563902
20
-29.2942421231926
30
0
10
-10.532304504626053
20
-29.216536901178106
30
0
10
-10.498856997901356
20
-29.131407977743727
30
0
10
-10.47420129228035
20
-29.039887457916397
30
0
10
-10.465865804175973
20
-28.942826768988922
30
0
10
-10.479899233025936
20
-28.84064940706201
30
0
10
-10.518991140255139
20
-28.733207763014661
30
0
10
-10.5833534355554
20
-28.620089440996818
30
0
10
-10.671240922028192
20
-28.500877029976607
30
0
10
-10.779570380100418
20
-28.375399418845191
30
0
10
-10.90452842710395
20
-28.244055638506413
30
0
10
-11.041967650892827
20
-28.107826790228575
30
0
10
-11.187613900339809
20
-27.968042065551472
30
0
10
-11.337321337714306
20
-27.826222622564494
30
0
10
-11.487315925934364
20
-27.683890238356589
30
0
10
-11.634422165178485
20
-27.542405643804202
30
0
10
-11.776359314198663
20
-27.402758645568586
30
0
10
-11.911671420577788
20
-27.265580455640674
30
0
10
-12.014701959722863
20
-27.157315172376222
30
0
10
-12.088561678333214
20
-27.07729714137043
30
0
10
-12.136410810217392
20
-27.024317526710607
30
0
10
-12.160262571304056
20
-26.997604344648309
30
0
10
-12.160944825498925
20
-26.99683998919491
30
0
0
ARC
5
180
100
AcDbEntity
8
0
100
AcDbCircle
10
-12.011737313919921
20
-26.863659215475867
30
0
40
0.19999999999999957
210
0
220
0
230
1
100
AcDbArc
50
143.54652662753472
51
221.75170513942862
0
ARC
5
181
100
AcDbEntity
8
0
100
AcDbCircle
10
-7.0092635175794094
20
-22.015996954116218
30
0
40
0.1999999999999991
210
0
220
0
230
1
100
AcDbArc
50
252.81859023971003
51
298.57069855017312
0
ARC
5
182
100
AcDbEntity
8
0
100
AcDbCircle
10
-4.194430617368667
20
-22.749023741875206
30
0
40
0.19999999999999965
210
0
220
0
230
1
100
AcDbArc
50
249.11714080736408
51
273.15663732761976
0
ARC
5
183
100
AcDbEntity
8
0
100
AcDbCircle
10
-5.2181834193824699
20
-29.382081828959198
30
0
40
0.19999999999999996
210
0
220
0
230
1
100
AcDbArc
50
137.1452932331531
51
185.70876201269439
0
ARC
5
184
100
AcDbEntity
8
0
100
AcDbCircle
10
-5.043350040672526
20
-31.130980136895545
30
0
40
0.19999999999999321
210
0
220
0
230
1
100
AcDbArc
50
185.70876201193249
51
222.1673197381881
0
ARC
5
185
100
AcDbEntity
8
0
100
AcDbCircle
10
1.0339752631062298
20
-37.841023387703309
30
0
40
0.20000000000001794
210
0
220
0
230
1
100
AcDbArc
50
222.16731973722142
51
272.07627905905804
0
ARC
5
186
100
AcDbEntity
8
0
100
AcDbCircle
10
12.010071719172753
20
-36.497056297203905
30
0
40
0.20000000000000945
210
0
220
0
230
1
100
AcDbArc
50
279.03750418718482
51
332.76027575661624
0
ARC
5
187
100
AcDbEntity
8
0
100
AcDbCircle
10
12.966139057941104
20
-34.639918689409264
30
0
40
0.19999999999998977
210
-0
220
0
230
1
100
AcDbArc
50
-27.239724245886507
51
32.011419662651278
0
ARC
5
188
100
AcDbEntity
8
0
100
AcDbCircle
10
20.580969801635106
20
-25.806764808454847
30
0
40
0.19999999999998175
210
0
220
0
230
1
100
AcDbArc
50
282.74397325164119
51
335.00073056918075
0
ARC
5
189
100
AcDbEntity
8
0
100
AcDbCircle
10
21.346816157253834
20
-24.164347322911031
30
0
40
0.20000000000000162
210
-0
220
0
230
1
100
AcDbArc
50
-24.999269430820235
51
28.31396351165532
0
ARC
5
190
100
AcDbEntity
8
0
100
AcDbCircle
10
17.719527730596532
20
-14.350789236535826
30
0
40
0.19999999999999238
210
0
220
0
230
1
100
AcDbArc
50
-52.016501744724131
51
6.7312037837960821
0
ARC
5
191
100
AcDbEntity
8
0
100
AcDbCircle
10
19.569484768750215
20
2.5220023497956823
30
0
40
0.20000000000000473
210
0
220
0
230
1
100
AcDbArc
50
280.62619093132764
51
350.68728729037912
0
ARC
5
192
100
AcDbEntity
8
0
100
AcDbCircle
10
-23.845394571931994
20
1.0106304123013086
30
0
40
0.19999999999999896
210
0
220
0
230
1
100
AcDbArc
50
123.20120754938758
51
200.34835993758151
0
ARC
5
193
100
AcDbEntity
8
0
100
AcDbCircle
10
-24.0383959767805
20
-0.1901493254309343
30
0
40
0.19999999999998691
210
0
220
0
230
1
100
AcDbArc
50
120.88733465734893
51
193.81521653351967
0
ARC
5
194
100
AcDbEntity
8
0
100
AcDbCircle
10
-23.888378619994626
20
-1.1252401536308285
30
0
40
0.20000000000005347
210
0
220
0
230
1
100
AcDbArc
50
180
51
214.51093947905005
0
ARC
5
195
100
AcDbEntity
8
0
100
AcDbCircle
10
-23.226742284215554
20
-3.1111804705909689
30
0
40
0.20000000000000906
210
0
220
0
230
1
100
AcDbArc
50
180
51
218.49038950747115
0
ARC
5
196
100
AcDbEntity
8
0
100
AcDbCircle
10
-23.153839960345998
20
-4.7833340702967773
30
0
40
0.20000000000009277
210
0
220
0
230
1
100
AcDbArc
50
177.15487632115531
51
194.16079980224649
0
ARC
5
197
100
AcDbEntity
8
0
100
AcDbCircle
10
-25.289459410047112
20
-13.348213217081874
30
0
40
0.20000000000000107
210
0
220
0
230
1
100
AcDbArc
50
174.47420521264434
51
198.89265498365745
0
ARC
5
198
100
AcDbEntity
8
0
100
AcDbCircle
10
-24.902466483319689
20
-17.087337028279187
30
0
40
0.2000000000000024
210
0
220
0
230
1
100
AcDbArc
50
90.000000001670173
51
148.57318216423849
0
ARC
5
199
100
AcDbEntity
8
0
100
AcDbCircle
10
-11.827744405673272
20
-29.752010599296966
30
0
40
0.19999999999999798
210
0
220
-0
230
1
100
AcDbArc
50
86.105711567101253
51
165.05612710098146
0
ENDSEC
0
SECTION
2
OBJECTS
0
DICTIONARY
5
C
100
AcDbDictionary
3
ACAD_GROUP
350
D
3
ACAD_MLINESTYLE
350
17
0
DICTIONARY
5
D
100
AcDbDictionary
0
DICTIONARY
5
1A
330
C
100
AcDbDictionary
0
DICTIONARY
5
17
100
AcDbDictionary
0
ENDSEC
0
EOF
