%TF.GenerationSoftware,KiCad,Pcbnew,(6.0.0-0)*%
%TF.CreationDate,2022-02-24T10:59:22-05:00*%
%TF.ProjectId,Rotary,526f7461-7279-42e6-9b69-6361645f7063,rev?*%
%TF.SameCoordinates,Original*%
%TF.FileFunction,Copper,L3,Inr*%
%TF.FilePolarity,Positive*%
%FSLAX46Y46*%
G04 Gerber Fmt 4.6, Leading zero omitted, Abs format (unit mm)*
G04 Created by KiCad (PCBNEW (6.0.0-0)) date 2022-02-24 10:59:22*
%MOMM*%
%LPD*%
G01*
G04 APERTURE LIST*
%TA.AperFunction,ComponentPad*%
%ADD10O,1.700000X1.700000*%
%TD*%
%TA.AperFunction,ComponentPad*%
%ADD11R,1.700000X1.700000*%
%TD*%
%TA.AperFunction,ComponentPad*%
%ADD12R,1.836000X1.836000*%
%TD*%
%TA.AperFunction,ComponentPad*%
%ADD13C,1.836000*%
%TD*%
%TA.AperFunction,Conductor*%
%ADD14C,0.250000*%
%TD*%
G04 APERTURE END LIST*
D10*
%TO.N,RTR_LIMIT*%
%TO.C,J3*%
X117870000Y-103340000D03*
D11*
%TO.N,GND*%
X120410000Y-103340000D03*
%TD*%
D12*
%TO.N,RTR_ENB*%
%TO.C,J2*%
X174853250Y-103503500D03*
D13*
%TO.N,LKIT_C*%
X174853250Y-100963500D03*
%TO.N,RTR_ENA*%
X177393250Y-103503500D03*
%TO.N,LKIT_B*%
X177393250Y-100963500D03*
%TO.N,RTR_LIMIT*%
X179933250Y-103503500D03*
%TO.N,LKIT_A*%
X179933250Y-100963500D03*
%TO.N,5V*%
X182473250Y-103503500D03*
%TO.N,GND*%
X182473250Y-100963500D03*
%TO.N,RMOT2*%
X185013250Y-103503500D03*
%TO.N,RMOT1*%
X185013250Y-100963500D03*
%TD*%
D11*
%TO.N,RTR_ENB*%
%TO.C,J1*%
X108320000Y-99520000D03*
D10*
%TO.N,GND*%
X108320000Y-96980000D03*
%TO.N,RTR_ENA*%
X110860000Y-99520000D03*
%TO.N,GND*%
X110860000Y-96980000D03*
%TO.N,5V*%
X113400000Y-99520000D03*
X113400000Y-96980000D03*
%TO.N,GND*%
X115940000Y-99520000D03*
%TO.N,LKIT_A*%
X115940000Y-96980000D03*
%TO.N,RMOT1*%
X118480000Y-99520000D03*
%TO.N,LKIT_B*%
X118480000Y-96980000D03*
%TO.N,RMOT2*%
X121020000Y-99520000D03*
%TO.N,LKIT_C*%
X121020000Y-96980000D03*
%TD*%
D14*
%TO.N,RTR_ENB*%
X174853250Y-103503500D02*
X174853250Y-112366750D01*
X131590000Y-125240000D02*
X108320000Y-101970000D01*
X174853250Y-112366750D02*
X161980000Y-125240000D01*
X108320000Y-101970000D02*
X108320000Y-99520000D01*
X161980000Y-125240000D02*
X131590000Y-125240000D01*
%TO.N,RTR_ENA*%
X176095761Y-102206011D02*
X173665717Y-102206011D01*
X119820000Y-106360000D02*
X116640000Y-106360000D01*
X173665717Y-102206011D02*
X169600000Y-106271728D01*
X116640000Y-105300000D02*
X110860000Y-99520000D01*
X116640000Y-106360000D02*
X116640000Y-105300000D01*
X169600000Y-111550000D02*
X158970000Y-122180000D01*
X177393250Y-103503500D02*
X176095761Y-102206011D01*
X134080000Y-120620000D02*
X119820000Y-106360000D01*
X169600000Y-106271728D02*
X169600000Y-111550000D01*
X158970000Y-122180000D02*
X134080000Y-122180000D01*
X134080000Y-122180000D02*
X134080000Y-120620000D01*
%TO.N,LKIT_A*%
X116490000Y-90920000D02*
X115940000Y-91470000D01*
X179933250Y-94244309D02*
X157268941Y-71580000D01*
X157268941Y-71580000D02*
X136330000Y-71580000D01*
X116990000Y-90920000D02*
X116490000Y-90920000D01*
X136330000Y-71580000D02*
X116990000Y-90920000D01*
X179933250Y-100963500D02*
X179933250Y-94244309D01*
X115940000Y-91470000D02*
X115940000Y-96980000D01*
%TO.N,LKIT_B*%
X175760000Y-99330250D02*
X175760000Y-91520000D01*
X156520000Y-72280000D02*
X137220000Y-72280000D01*
X137220000Y-72280000D02*
X118480000Y-91020000D01*
X177393250Y-100963500D02*
X175760000Y-99330250D01*
X118480000Y-91020000D02*
X118480000Y-96980000D01*
X175760000Y-91520000D02*
X156520000Y-72280000D01*
%TO.N,LKIT_C*%
X174853250Y-92153250D02*
X156160000Y-73460000D01*
X137320000Y-73460000D02*
X121020000Y-89760000D01*
X156160000Y-73460000D02*
X137320000Y-73460000D01*
X121020000Y-89760000D02*
X121020000Y-96980000D01*
X174853250Y-100963500D02*
X174853250Y-92153250D01*
%TD*%
M02*
