%TF.GenerationSoftware,KiCad,Pcbnew,(6.0.0-0)*%
%TF.CreationDate,2022-09-06T13:07:19-04:00*%
%TF.ProjectId,Body_LED_Controller_Embedded_ESP32s,426f6479-5f4c-4454-945f-436f6e74726f,1.0*%
%TF.SameCoordinates,Original*%
%TF.FileFunction,Soldermask,Bot*%
%TF.FilePolarity,Negative*%
%FSLAX46Y46*%
G04 Gerber Fmt 4.6, Leading zero omitted, Abs format (unit mm)*
G04 Created by KiCad (PCBNEW (6.0.0-0)) date 2022-09-06 13:07:19*
%MOMM*%
%LPD*%
G01*
G04 APERTURE LIST*
%ADD10R,1.700000X1.700000*%
%ADD11O,1.700000X1.700000*%
%ADD12O,0.890000X1.550000*%
%ADD13O,1.250000X0.950000*%
%ADD14C,3.250000*%
%ADD15C,1.007000*%
%ADD16C,1.524000*%
%ADD17C,2.300000*%
%ADD18R,2.400000X2.400000*%
%ADD19C,2.400000*%
G04 APERTURE END LIST*
D10*
%TO.C,J1*%
X141210000Y-59650000D03*
D11*
X143750000Y-59650000D03*
X141210000Y-62190000D03*
X143750000Y-62190000D03*
X141210000Y-64730000D03*
X143750000Y-64730000D03*
X141210000Y-67270000D03*
X143750000Y-67270000D03*
%TD*%
D12*
%TO.C,J11*%
X144545000Y-118510000D03*
D13*
X145545000Y-115810000D03*
D12*
X151545000Y-118510000D03*
D13*
X150545000Y-115810000D03*
%TD*%
%TO.C,J10*%
X170990000Y-115800000D03*
X165990000Y-115800000D03*
D12*
X164990000Y-118500000D03*
X171990000Y-118500000D03*
%TD*%
D14*
%TO.C,REF\u002A\u002A*%
X185000000Y-116000000D03*
%TD*%
D15*
%TO.C,Y1*%
X114850000Y-94020000D03*
X109970000Y-94020000D03*
%TD*%
D10*
%TO.C,J15*%
X84770000Y-107720000D03*
D11*
X84770000Y-105180000D03*
X84770000Y-102640000D03*
X84770000Y-100100000D03*
X84770000Y-97560000D03*
X84770000Y-95020000D03*
%TD*%
D10*
%TO.C,J14*%
X128240000Y-59600000D03*
D11*
X128240000Y-62140000D03*
X128240000Y-64680000D03*
%TD*%
D16*
%TO.C,U14*%
X101765000Y-66085000D03*
X99225000Y-66085000D03*
X96685000Y-66085000D03*
X94145000Y-66085000D03*
X91605000Y-66085000D03*
X89065000Y-66085000D03*
X89065000Y-68625000D03*
X91605000Y-68625000D03*
X94145000Y-68625000D03*
X96685000Y-68625000D03*
X99225000Y-68625000D03*
X101765000Y-68625000D03*
D17*
X106015000Y-67015000D03*
X84815000Y-67015000D03*
X84815000Y-88015000D03*
%TD*%
D12*
%TO.C,J12*%
X89065000Y-118550000D03*
X96065000Y-118550000D03*
D13*
X90065000Y-115850000D03*
X95065000Y-115850000D03*
%TD*%
D18*
%TO.C,J19*%
X120540000Y-58400000D03*
D19*
X117040000Y-58400000D03*
%TD*%
D18*
%TO.C,J16*%
X90790000Y-58280000D03*
D19*
X87290000Y-58280000D03*
%TD*%
D10*
%TO.C,J7*%
X167630000Y-76298000D03*
D11*
X170170000Y-76298000D03*
X172710000Y-76298000D03*
X175250000Y-76298000D03*
X177790000Y-76298000D03*
%TD*%
D18*
%TO.C,J17*%
X102270000Y-58390000D03*
D19*
X98770000Y-58390000D03*
%TD*%
D10*
%TO.C,J2*%
X149620000Y-59790000D03*
D11*
X152160000Y-59790000D03*
X149620000Y-62330000D03*
X152160000Y-62330000D03*
X149620000Y-64870000D03*
X152160000Y-64870000D03*
X149620000Y-67410000D03*
X152160000Y-67410000D03*
%TD*%
D10*
%TO.C,J5*%
X165080000Y-91374000D03*
D11*
X165080000Y-88834000D03*
X167620000Y-91374000D03*
X167620000Y-88834000D03*
X170160000Y-91374000D03*
X170160000Y-88834000D03*
X172700000Y-91374000D03*
X172700000Y-88834000D03*
X175240000Y-91374000D03*
X175240000Y-88834000D03*
X177780000Y-91374000D03*
X177780000Y-88834000D03*
%TD*%
D10*
%TO.C,J6*%
X170130000Y-71040000D03*
D11*
X172670000Y-71040000D03*
X175210000Y-71040000D03*
X177750000Y-71040000D03*
%TD*%
D14*
%TO.C,REF\u002A\u002A*%
X185000000Y-51000000D03*
%TD*%
%TO.C,REF\u002A\u002A*%
X79000000Y-116000000D03*
%TD*%
%TO.C,REF\u002A\u002A*%
X79000000Y-51000000D03*
%TD*%
D10*
%TO.C,J9*%
X172720000Y-59950000D03*
D11*
X175260000Y-59950000D03*
X177800000Y-59950000D03*
%TD*%
D10*
%TO.C,J4*%
X169980000Y-83906000D03*
D11*
X169980000Y-81366000D03*
X172520000Y-83906000D03*
X172520000Y-81366000D03*
X175060000Y-83906000D03*
X175060000Y-81366000D03*
X177600000Y-83906000D03*
X177600000Y-81366000D03*
%TD*%
D10*
%TO.C,J20*%
X157110000Y-59990000D03*
D11*
X159650000Y-59990000D03*
X157110000Y-62530000D03*
X159650000Y-62530000D03*
X157110000Y-65070000D03*
X159650000Y-65070000D03*
%TD*%
D10*
%TO.C,J13*%
X132950000Y-59680000D03*
D11*
X135490000Y-59680000D03*
X132950000Y-62220000D03*
X135490000Y-62220000D03*
X132950000Y-64760000D03*
X135490000Y-64760000D03*
%TD*%
D18*
%TO.C,J18*%
X111360000Y-58420000D03*
D19*
X107860000Y-58420000D03*
%TD*%
D10*
%TO.C,J3*%
X138610000Y-76840000D03*
D11*
X138610000Y-74300000D03*
X141150000Y-76840000D03*
X141150000Y-74300000D03*
X143690000Y-76840000D03*
X143690000Y-74300000D03*
X146230000Y-76840000D03*
X146230000Y-74300000D03*
X148770000Y-76840000D03*
X148770000Y-74300000D03*
X151310000Y-76840000D03*
X151310000Y-74300000D03*
X153850000Y-76840000D03*
X153850000Y-74300000D03*
X156390000Y-76840000D03*
X156390000Y-74300000D03*
X158930000Y-76840000D03*
X158930000Y-74300000D03*
X161470000Y-76840000D03*
X161470000Y-74300000D03*
%TD*%
D10*
%TO.C,J8*%
X165260000Y-65272000D03*
D11*
X167800000Y-65272000D03*
X170340000Y-65272000D03*
X172880000Y-65272000D03*
X175420000Y-65272000D03*
X177960000Y-65272000D03*
%TD*%
M02*
