M48
; DRILL file KiCad 10.0.4 date 2026-07-24T14:07:29
; FORMAT={-:-/ absolute / metric / decimal}
; #@! TF.CreationDate,2026-07-24T14:07:29-04:00
; #@! TF.GenerationSoftware,Kicad,Pcbnew,10.0.4
; #@! TF.FileFunction,Plated,1,4,PTH
FMAT,2
METRIC
; #@! TA.AperFunction,Plated,PTH,ViaDrill
T1C0.300
; #@! TA.AperFunction,Plated,PTH,ComponentDrill
T2C1.000
; #@! TA.AperFunction,Plated,PTH,ComponentDrill
T3C1.020
; #@! TA.AperFunction,Plated,PTH,ComponentDrill
T4C1.500
; #@! TA.AperFunction,Plated,PTH,ComponentDrill
T5C1.600
; #@! TA.AperFunction,Plated,PTH,ComponentDrill
T6C1.700
%
G90
G05
T1
X108.5Y-104.0
X108.5Y-105.0
X109.0Y-103.0
X109.0Y-105.5
X109.5Y-102.5
X110.0Y-106.0
X110.5Y-102.5
X111.0Y-106.0
X111.5Y-102.5
X112.0Y-105.5
X112.5Y-103.5
X112.5Y-105.0
X113.5Y-103.5
X113.5Y-105.0
X114.5Y-103.5
X114.5Y-105.0
X116.0Y-85.5
X116.5Y-86.5
X116.5Y-87.5
X126.5Y-93.5
X127.5Y-92.5
X131.5Y-87.0
X132.46Y-102.96
X132.5Y-104.0
X132.5Y-105.5
X132.61Y-97.39
X133.69Y-66.5
X134.0Y-96.0
X134.075Y-87.575
X134.575Y-87.075
X134.95Y-95.0
X136.0Y-86.6
X137.0Y-67.0
X137.0Y-87.0
X146.393Y-90.107
X146.75Y-88.75
X149.5Y-89.5
X152.25Y-89.75
X162.0Y-99.0
X162.5Y-98.5
X163.5Y-97.88
X166.5Y-87.5
X167.0Y-87.0
X167.0Y-107.0
X170.0Y-97.0
X171.0Y-97.0
X175.0Y-102.0
X175.5Y-96.0
X175.5Y-99.5
X181.0Y-89.0
X181.0Y-90.44
X181.5Y-105.5
X182.0Y-89.0
X182.0Y-90.44
X183.0Y-89.0
X183.0Y-90.5
X183.5Y-88.5
X184.0Y-88.0
X184.0Y-91.0
X184.5Y-91.5
X185.0Y-87.5
X185.5Y-91.5
X186.0Y-88.0
X186.5Y-88.5
X186.5Y-90.5
X187.0Y-89.5
T2
X115.5Y-112.92
X115.5Y-115.46
X115.5Y-118.0
X120.5Y-112.92
X120.5Y-115.46
X120.5Y-118.0
X125.5Y-113.0
X125.5Y-115.54
X125.5Y-118.08
X130.5Y-113.0
X130.5Y-115.54
X130.5Y-118.08
X136.0Y-112.96
X136.0Y-115.5
X136.0Y-118.04
X142.38Y-105.0
X144.92Y-105.0
X147.46Y-105.0
X150.0Y-105.0
X152.54Y-105.0
X165.046Y-112.5
X165.046Y-115.04
X165.046Y-117.58
X165.046Y-120.12
X170.0Y-112.5
X170.0Y-115.04
X170.0Y-117.58
X170.0Y-120.12
X174.954Y-112.5
X174.954Y-115.04
X174.954Y-117.58
X174.954Y-120.12
T3
X120.99Y-57.084
X120.99Y-59.624
X120.99Y-82.484
X123.5Y-57.084
X123.53Y-59.624
X123.53Y-82.484
X126.07Y-57.084
X126.07Y-59.624
X126.07Y-82.484
X128.61Y-57.084
X128.61Y-59.624
X128.61Y-82.484
X131.15Y-57.084
X131.15Y-59.624
X131.15Y-82.484
X133.69Y-57.084
X133.69Y-59.624
X133.69Y-82.484
X136.23Y-57.084
X136.23Y-59.624
X136.23Y-82.484
X138.77Y-57.084
X138.77Y-59.624
X138.77Y-82.484
X141.31Y-57.084
X141.31Y-59.624
X141.31Y-82.484
X143.85Y-57.084
X143.85Y-59.624
X143.85Y-82.484
X146.39Y-57.084
X146.39Y-59.624
X146.39Y-82.484
X148.93Y-57.084
X148.93Y-59.624
X148.93Y-82.484
X151.47Y-57.084
X151.47Y-59.624
X151.47Y-82.484
X154.01Y-57.084
X154.01Y-59.624
X154.01Y-82.484
X156.55Y-57.084
X156.55Y-59.624
X156.55Y-82.484
X159.09Y-57.084
X159.09Y-59.624
X159.09Y-82.484
X161.63Y-57.084
X161.63Y-59.624
X161.63Y-82.484
X164.17Y-57.084
X164.17Y-59.624
X164.17Y-82.484
X166.71Y-57.084
X166.71Y-59.624
X166.71Y-82.484
X169.25Y-57.084
X169.25Y-59.624
X169.25Y-82.484
X171.79Y-57.084
X171.79Y-59.624
X171.79Y-82.484
X174.33Y-57.084
X174.33Y-59.624
X174.33Y-82.484
T4
X110.5Y-104.46
X185.04Y-89.58
T5
X147.16Y-116.142
X152.24Y-116.142
T6
X107.96Y-101.92
X107.96Y-107.0
X113.04Y-101.92
X113.04Y-107.0
X182.5Y-87.04
X182.5Y-92.12
X187.58Y-87.04
X187.58Y-92.12
M30
