%TF.GenerationSoftware,KiCad,Pcbnew,10.0.4*%
%TF.CreationDate,2026-07-24T14:07:31-04:00*%
%TF.ProjectId,NaviHiltCore,4e617669-4869-46c7-9443-6f72652e6b69,rev?*%
%TF.SameCoordinates,Original*%
%TF.FileFunction,Copper,L2,Inr*%
%TF.FilePolarity,Positive*%
%FSLAX46Y46*%
G04 Gerber Fmt 4.6, Leading zero omitted, Abs format (unit mm)*
G04 Created by KiCad (PCBNEW 10.0.4) date 2026-07-24 14:07:31*
%MOMM*%
%LPD*%
G01*
G04 APERTURE LIST*
G04 Aperture macros list*
%AMRoundRect*
0 Rectangle with rounded corners*
0 $1 Rounding radius*
0 $2 $3 $4 $5 $6 $7 $8 $9 X,Y pos of 4 corners*
0 Add a 4 corners polygon primitive as box body*
4,1,4,$2,$3,$4,$5,$6,$7,$8,$9,$2,$3,0*
0 Add four circle primitives for the rounded corners*
1,1,$1+$1,$2,$3*
1,1,$1+$1,$4,$5*
1,1,$1+$1,$6,$7*
1,1,$1+$1,$8,$9*
0 Add four rect primitives between the rounded corners*
20,1,$1+$1,$2,$3,$4,$5,0*
20,1,$1+$1,$4,$5,$6,$7,0*
20,1,$1+$1,$6,$7,$8,$9,0*
20,1,$1+$1,$8,$9,$2,$3,0*%
G04 Aperture macros list end*
%TA.AperFunction,ComponentPad*%
%ADD10R,1.700000X1.700000*%
%TD*%
%TA.AperFunction,ComponentPad*%
%ADD11C,1.700000*%
%TD*%
%TA.AperFunction,ComponentPad*%
%ADD12R,1.530000X1.530000*%
%TD*%
%TA.AperFunction,ComponentPad*%
%ADD13C,1.530000*%
%TD*%
%TA.AperFunction,ComponentPad*%
%ADD14C,2.050000*%
%TD*%
%TA.AperFunction,ComponentPad*%
%ADD15C,2.250000*%
%TD*%
%TA.AperFunction,ComponentPad*%
%ADD16RoundRect,0.250001X-0.949999X-0.949999X0.949999X-0.949999X0.949999X0.949999X-0.949999X0.949999X0*%
%TD*%
%TA.AperFunction,ComponentPad*%
%ADD17C,2.400000*%
%TD*%
%TA.AperFunction,ViaPad*%
%ADD18C,0.600000*%
%TD*%
G04 APERTURE END LIST*
D10*
%TO.N,unconnected-(U2-PG-Pad1)*%
%TO.C,U2*%
X142380000Y-105000000D03*
D11*
%TO.N,/+5V*%
X144920000Y-105000000D03*
X147460000Y-105000000D03*
%TO.N,GND*%
X150000000Y-105000000D03*
%TO.N,/+3V3_RF*%
X152540000Y-105000000D03*
%TD*%
D10*
%TO.N,GND*%
%TO.C,J4*%
X136000000Y-112960000D03*
D11*
%TO.N,/+5V*%
X136000000Y-115500000D03*
%TO.N,/PWM3*%
X136000000Y-118040000D03*
%TD*%
D12*
%TO.N,/+3V3*%
%TO.C,U1*%
X120990000Y-82484500D03*
D13*
X123530000Y-82484500D03*
%TO.N,unconnected-(U1-RST-PadJ1_3)*%
X126070000Y-82484500D03*
%TO.N,/SBUS_IN*%
X128610000Y-82484500D03*
%TO.N,/SBUS_OUT*%
X131150000Y-82484500D03*
%TO.N,/MAESTRO_TX*%
X133690000Y-82484500D03*
%TO.N,/MAESTRO_RX*%
X136230000Y-82484500D03*
%TO.N,/BUSY_1*%
X138770000Y-82484500D03*
%TO.N,/DIO1_1*%
X141310000Y-82484500D03*
%TO.N,/RXEN_1*%
X143850000Y-82484500D03*
%TO.N,/TXEN_1*%
X146390000Y-82484500D03*
%TO.N,/S1_TX*%
X148930000Y-82484500D03*
%TO.N,unconnected-(U1-GPIO3-PadJ1_13)*%
X151470000Y-82484500D03*
%TO.N,unconnected-(U1-GPIO46-PadJ1_14)*%
X154010000Y-82484500D03*
%TO.N,/S1_RX*%
X156550000Y-82484500D03*
%TO.N,/S2_TX*%
X159090000Y-82484500D03*
%TO.N,/MOSI*%
X161630000Y-82484500D03*
%TO.N,/SCK*%
X164170000Y-82484500D03*
%TO.N,/MISO*%
X166710000Y-82484500D03*
%TO.N,/NSS_1*%
X169250000Y-82484500D03*
%TO.N,/+5V*%
X171790000Y-82484500D03*
%TO.N,GND*%
X174330000Y-82484500D03*
X120990000Y-59624500D03*
X120990000Y-57084500D03*
%TO.N,/PWM1*%
X123530000Y-59624500D03*
X123500000Y-57084500D03*
%TO.N,unconnected-(U1-U0RXD{slash}GPIO44-PadJ3_3)*%
X126070000Y-59624500D03*
%TO.N,unconnected-(U1-U0RXD{slash}GPIO44-PadJ3_3)_1*%
X126070000Y-57084500D03*
%TO.N,/PWM3*%
X128610000Y-59624500D03*
X128610000Y-57084500D03*
%TO.N,/PWM2*%
X131150000Y-59624500D03*
X131150000Y-57084500D03*
%TO.N,/TXEN_2*%
X133690000Y-59624500D03*
X133690000Y-57084500D03*
%TO.N,/RXEN_2*%
X136230000Y-59624500D03*
X136230000Y-57084500D03*
%TO.N,/DIO1_2*%
X138770000Y-59624500D03*
X138770000Y-57084500D03*
%TO.N,/BUSY_2*%
X141310000Y-59624500D03*
X141310000Y-57084500D03*
%TO.N,/NSS_2*%
X143850000Y-59624500D03*
X143850000Y-57084500D03*
%TO.N,unconnected-(U1-GPIO37-PadJ3_11)_1*%
X146390000Y-59624500D03*
%TO.N,unconnected-(U1-GPIO37-PadJ3_11)*%
X146390000Y-57084500D03*
%TO.N,unconnected-(U1-GPIO36-PadJ3_12)_1*%
X148930000Y-59624500D03*
%TO.N,unconnected-(U1-GPIO36-PadJ3_12)*%
X148930000Y-57084500D03*
%TO.N,unconnected-(U1-GPIO35-PadJ3_13)*%
X151470000Y-59624500D03*
%TO.N,unconnected-(U1-GPIO35-PadJ3_13)_1*%
X151470000Y-57084500D03*
%TO.N,unconnected-(U1-GPIO0-PadJ3_14)_1*%
X154010000Y-59624500D03*
%TO.N,unconnected-(U1-GPIO0-PadJ3_14)*%
X154010000Y-57084500D03*
%TO.N,unconnected-(U1-GPIO45-PadJ3_15)_1*%
X156550000Y-59624500D03*
%TO.N,unconnected-(U1-GPIO45-PadJ3_15)*%
X156550000Y-57084500D03*
%TO.N,unconnected-(U1-GPIO48-PadJ3_16)*%
X159090000Y-59624500D03*
%TO.N,unconnected-(U1-GPIO48-PadJ3_16)_1*%
X159090000Y-57084500D03*
%TO.N,/RST*%
X161630000Y-59624500D03*
X161630000Y-57084500D03*
%TO.N,/S2_RX*%
X164170000Y-59624500D03*
X164170000Y-57084500D03*
%TO.N,unconnected-(U1-USB_D+{slash}GPIO20-PadJ3_19)*%
X166710000Y-59624500D03*
%TO.N,unconnected-(U1-USB_D+{slash}GPIO20-PadJ3_19)_1*%
X166710000Y-57084500D03*
%TO.N,unconnected-(U1-USB_D-{slash}GPIO19-PadJ3_20)_1*%
X169250000Y-59624500D03*
%TO.N,unconnected-(U1-USB_D-{slash}GPIO19-PadJ3_20)*%
X169250000Y-57084500D03*
%TO.N,GND*%
X171790000Y-59624500D03*
X171790000Y-57084500D03*
X174330000Y-59624500D03*
X174330000Y-57084500D03*
%TD*%
D10*
%TO.N,GND*%
%TO.C,J2*%
X125500000Y-113000000D03*
D11*
%TO.N,/+5V*%
X125500000Y-115540000D03*
%TO.N,/PWM1*%
X125500000Y-118080000D03*
%TD*%
D10*
%TO.N,GND*%
%TO.C,J3*%
X130500000Y-113000000D03*
D11*
%TO.N,/+5V*%
X130500000Y-115540000D03*
%TO.N,/PWM2*%
X130500000Y-118080000D03*
%TD*%
D10*
%TO.N,GND*%
%TO.C,J7*%
X170000000Y-112500000D03*
D11*
%TO.N,/+5V*%
X170000000Y-115040000D03*
%TO.N,/S1_TX*%
X170000000Y-117580000D03*
%TO.N,/S1_RX*%
X170000000Y-120120000D03*
%TD*%
D14*
%TO.N,/ANT1*%
%TO.C,J12*%
X185040000Y-89580000D03*
D15*
%TO.N,GND*%
X187580000Y-92120000D03*
X187580000Y-87040000D03*
X182500000Y-92120000D03*
X182500000Y-87040000D03*
%TD*%
D16*
%TO.N,/+5V*%
%TO.C,J10*%
X147160000Y-116142500D03*
D17*
%TO.N,GND*%
X152240000Y-116142500D03*
%TD*%
D10*
%TO.N,GND*%
%TO.C,J6*%
X165045714Y-112500000D03*
D11*
%TO.N,/+5V*%
X165045714Y-115040000D03*
%TO.N,/MAESTRO_TX*%
X165045714Y-117580000D03*
%TO.N,/MAESTRO_RX*%
X165045714Y-120120000D03*
%TD*%
D10*
%TO.N,GND*%
%TO.C,J11*%
X120500000Y-112920000D03*
D11*
%TO.N,/+5V*%
X120500000Y-115460000D03*
%TO.N,/SBUS_IN*%
X120500000Y-118000000D03*
%TD*%
D14*
%TO.N,/ANT2*%
%TO.C,J13*%
X110500000Y-104460000D03*
D15*
%TO.N,GND*%
X107960000Y-101920000D03*
X107960000Y-107000000D03*
X113040000Y-101920000D03*
X113040000Y-107000000D03*
%TD*%
D10*
%TO.N,GND*%
%TO.C,J1*%
X115500000Y-112920000D03*
D11*
%TO.N,/+5V*%
X115500000Y-115460000D03*
%TO.N,/SBUS_OUT*%
X115500000Y-118000000D03*
%TD*%
D10*
%TO.N,GND*%
%TO.C,J8*%
X174954285Y-112500000D03*
D11*
%TO.N,/+5V*%
X174954285Y-115040000D03*
%TO.N,/S2_TX*%
X174954285Y-117580000D03*
%TO.N,/S2_RX*%
X174954285Y-120120000D03*
%TD*%
D18*
%TO.N,GND*%
X132500000Y-105500000D03*
X186500000Y-90500000D03*
X112500000Y-105000000D03*
X134000000Y-96000000D03*
X187000000Y-89500000D03*
X184500000Y-91500000D03*
X166500000Y-87500000D03*
X109500000Y-102500000D03*
X116000000Y-85500000D03*
X108500000Y-105000000D03*
X185500000Y-91500000D03*
X131500000Y-87000000D03*
X182000000Y-90440268D03*
X132500000Y-104000000D03*
X113500000Y-103500000D03*
X184000000Y-88000000D03*
X113500000Y-105000000D03*
X181000000Y-89000000D03*
X110500000Y-102500000D03*
X108500000Y-104000000D03*
X111000000Y-106000000D03*
X183500000Y-88500000D03*
X109000000Y-103000000D03*
X110000000Y-106000000D03*
X114500000Y-103500000D03*
X183000000Y-90500000D03*
X112000000Y-105500000D03*
X111500000Y-102500000D03*
X109000000Y-105500000D03*
X112500000Y-103500000D03*
X167000000Y-87000000D03*
X132460000Y-102960000D03*
X182000000Y-89000000D03*
X186500000Y-88500000D03*
X183000000Y-89000000D03*
X134950000Y-95000000D03*
X162000000Y-99000000D03*
X167000000Y-107000000D03*
X116500000Y-87500000D03*
X114500000Y-105000000D03*
X185000000Y-87500000D03*
X162500000Y-98500000D03*
X184000000Y-91000000D03*
X181500000Y-105500000D03*
X186000000Y-88000000D03*
X181000000Y-90440268D03*
X132610000Y-97390000D03*
X116500000Y-86500000D03*
X163500000Y-97880000D03*
%TO.N,/RXEN_1*%
X149500000Y-89500000D03*
X170000000Y-97000000D03*
%TO.N,/TXEN_1*%
X152250000Y-89750000D03*
X171000000Y-97000000D03*
%TO.N,/+3V3_RF*%
X134075000Y-87575000D03*
X134575000Y-87075000D03*
X137000000Y-87000000D03*
X136000000Y-86600000D03*
%TO.N,/DIO1_1*%
X146750000Y-88750000D03*
X175000000Y-102000000D03*
%TO.N,/BUSY_1*%
X146392750Y-90107250D03*
X175500000Y-99500000D03*
%TO.N,/MOSI*%
X175500000Y-96000000D03*
%TO.N,/RXEN_2*%
X137000000Y-67000000D03*
X126500000Y-93500000D03*
%TO.N,/TXEN_2*%
X133690000Y-66500000D03*
X127500000Y-92500000D03*
%TD*%
%TA.AperFunction,Conductor*%
%TO.N,GND*%
G36*
X171314755Y-57281353D02*
G01*
X171381898Y-57397647D01*
X171476853Y-57492602D01*
X171593147Y-57559745D01*
X171652425Y-57575628D01*
X171089134Y-58138917D01*
X171126999Y-58166428D01*
X171279272Y-58244016D01*
X171330068Y-58291990D01*
X171346863Y-58359811D01*
X171324325Y-58425946D01*
X171279272Y-58464984D01*
X171126996Y-58542573D01*
X171126995Y-58542574D01*
X171089135Y-58570080D01*
X171089135Y-58570081D01*
X171652425Y-59133371D01*
X171593147Y-59149255D01*
X171476853Y-59216398D01*
X171381898Y-59311353D01*
X171314755Y-59427647D01*
X171298871Y-59486925D01*
X170735581Y-58923635D01*
X170735580Y-58923635D01*
X170708075Y-58961493D01*
X170630764Y-59113223D01*
X170582790Y-59164018D01*
X170514969Y-59180813D01*
X170448834Y-59158275D01*
X170409795Y-59113222D01*
X170332486Y-58961496D01*
X170332353Y-58961234D01*
X170215269Y-58800082D01*
X170074418Y-58659231D01*
X169913266Y-58542147D01*
X169761827Y-58464985D01*
X169711031Y-58417010D01*
X169694236Y-58349189D01*
X169716773Y-58283054D01*
X169761827Y-58244015D01*
X169776827Y-58236372D01*
X169913266Y-58166853D01*
X170074418Y-58049769D01*
X170215269Y-57908918D01*
X170332353Y-57747766D01*
X170409795Y-57595776D01*
X170457769Y-57544981D01*
X170525590Y-57528186D01*
X170591725Y-57550723D01*
X170630765Y-57595777D01*
X170708077Y-57747508D01*
X170735580Y-57785363D01*
X170735581Y-57785364D01*
X171298871Y-57222074D01*
X171314755Y-57281353D01*
G37*
%TD.AperFunction*%
%TA.AperFunction,Conductor*%
G36*
X173854755Y-57281353D02*
G01*
X173921898Y-57397647D01*
X174016853Y-57492602D01*
X174133147Y-57559745D01*
X174192425Y-57575628D01*
X173629134Y-58138917D01*
X173666999Y-58166428D01*
X173819272Y-58244016D01*
X173870068Y-58291990D01*
X173886863Y-58359811D01*
X173864325Y-58425946D01*
X173819272Y-58464984D01*
X173666996Y-58542573D01*
X173666995Y-58542574D01*
X173629135Y-58570080D01*
X173629135Y-58570081D01*
X174192425Y-59133371D01*
X174133147Y-59149255D01*
X174016853Y-59216398D01*
X173921898Y-59311353D01*
X173854755Y-59427647D01*
X173838871Y-59486925D01*
X173275581Y-58923635D01*
X173275580Y-58923635D01*
X173248074Y-58961495D01*
X173248073Y-58961496D01*
X173170484Y-59113772D01*
X173122510Y-59164568D01*
X173054689Y-59181363D01*
X172988554Y-59158825D01*
X172949516Y-59113772D01*
X172871928Y-58961499D01*
X172844417Y-58923635D01*
X172844417Y-58923634D01*
X172281128Y-59486924D01*
X172265245Y-59427647D01*
X172198102Y-59311353D01*
X172103147Y-59216398D01*
X171986853Y-59149255D01*
X171927574Y-59133371D01*
X172490864Y-58570081D01*
X172490863Y-58570080D01*
X172453008Y-58542577D01*
X172300727Y-58464985D01*
X172249931Y-58417010D01*
X172233136Y-58349189D01*
X172255674Y-58283054D01*
X172300727Y-58244015D01*
X172453005Y-58166424D01*
X172490863Y-58138918D01*
X172490863Y-58138917D01*
X171927574Y-57575628D01*
X171986853Y-57559745D01*
X172103147Y-57492602D01*
X172198102Y-57397647D01*
X172265245Y-57281353D01*
X172281128Y-57222074D01*
X172844417Y-57785363D01*
X172844418Y-57785363D01*
X172871924Y-57747505D01*
X172949515Y-57595227D01*
X172997490Y-57544431D01*
X173065311Y-57527636D01*
X173131446Y-57550174D01*
X173170485Y-57595227D01*
X173248077Y-57747508D01*
X173275580Y-57785363D01*
X173275581Y-57785364D01*
X173838871Y-57222074D01*
X173854755Y-57281353D01*
G37*
%TD.AperFunction*%
%TA.AperFunction,Conductor*%
G36*
X122044417Y-57785363D02*
G01*
X122044418Y-57785363D01*
X122071924Y-57747505D01*
X122134234Y-57625216D01*
X122182208Y-57574420D01*
X122250029Y-57557625D01*
X122316164Y-57580162D01*
X122355204Y-57625216D01*
X122417514Y-57747505D01*
X122417647Y-57747766D01*
X122534731Y-57908918D01*
X122675582Y-58049769D01*
X122836734Y-58166853D01*
X123003172Y-58251657D01*
X123053968Y-58299631D01*
X123070763Y-58367452D01*
X123048226Y-58433587D01*
X123003173Y-58472626D01*
X122866736Y-58542145D01*
X122828286Y-58570081D01*
X122705582Y-58659231D01*
X122705580Y-58659233D01*
X122705579Y-58659233D01*
X122564733Y-58800079D01*
X122564733Y-58800080D01*
X122564731Y-58800082D01*
X122529555Y-58848497D01*
X122447645Y-58961235D01*
X122370203Y-59113223D01*
X122322229Y-59164018D01*
X122254408Y-59180813D01*
X122188273Y-59158275D01*
X122149234Y-59113222D01*
X122071924Y-58961494D01*
X122044417Y-58923635D01*
X122044417Y-58923634D01*
X121481128Y-59486924D01*
X121465245Y-59427647D01*
X121398102Y-59311353D01*
X121303147Y-59216398D01*
X121186853Y-59149255D01*
X121127574Y-59133371D01*
X121690864Y-58570081D01*
X121690863Y-58570080D01*
X121653008Y-58542577D01*
X121500727Y-58464985D01*
X121449931Y-58417010D01*
X121433136Y-58349189D01*
X121455674Y-58283054D01*
X121500727Y-58244015D01*
X121653005Y-58166424D01*
X121690863Y-58138918D01*
X121690863Y-58138917D01*
X121127574Y-57575628D01*
X121186853Y-57559745D01*
X121303147Y-57492602D01*
X121398102Y-57397647D01*
X121465245Y-57281353D01*
X121481128Y-57222074D01*
X122044417Y-57785363D01*
G37*
%TD.AperFunction*%
%TA.AperFunction,Conductor*%
G36*
X189442539Y-52519685D02*
G01*
X189488294Y-52572489D01*
X189499500Y-52624000D01*
X189499500Y-133375500D01*
X189479815Y-133442539D01*
X189427011Y-133488294D01*
X189375500Y-133499500D01*
X106624500Y-133499500D01*
X106557461Y-133479815D01*
X106511706Y-133427011D01*
X106500500Y-133375500D01*
X106500500Y-129878711D01*
X107649500Y-129878711D01*
X107649500Y-130121288D01*
X107681161Y-130361785D01*
X107743947Y-130596104D01*
X107754379Y-130621288D01*
X107836776Y-130820212D01*
X107958064Y-131030289D01*
X107958066Y-131030292D01*
X107958067Y-131030293D01*
X108105733Y-131222736D01*
X108105739Y-131222743D01*
X108277256Y-131394260D01*
X108277262Y-131394265D01*
X108469711Y-131541936D01*
X108679788Y-131663224D01*
X108903900Y-131756054D01*
X109138211Y-131818838D01*
X109318586Y-131842584D01*
X109378711Y-131850500D01*
X109378712Y-131850500D01*
X109621289Y-131850500D01*
X109669388Y-131844167D01*
X109861789Y-131818838D01*
X110096100Y-131756054D01*
X110320212Y-131663224D01*
X110530289Y-131541936D01*
X110722738Y-131394265D01*
X110894265Y-131222738D01*
X111041936Y-131030289D01*
X111163224Y-130820212D01*
X111256054Y-130596100D01*
X111314304Y-130378711D01*
X184649500Y-130378711D01*
X184649500Y-130621288D01*
X184681161Y-130861785D01*
X184743947Y-131096104D01*
X184796400Y-131222736D01*
X184836776Y-131320212D01*
X184958064Y-131530289D01*
X184958066Y-131530292D01*
X184958067Y-131530293D01*
X185105733Y-131722736D01*
X185105739Y-131722743D01*
X185277256Y-131894260D01*
X185277262Y-131894265D01*
X185469711Y-132041936D01*
X185679788Y-132163224D01*
X185903900Y-132256054D01*
X186138211Y-132318838D01*
X186318586Y-132342584D01*
X186378711Y-132350500D01*
X186378712Y-132350500D01*
X186621289Y-132350500D01*
X186669388Y-132344167D01*
X186861789Y-132318838D01*
X187096100Y-132256054D01*
X187320212Y-132163224D01*
X187530289Y-132041936D01*
X187722738Y-131894265D01*
X187894265Y-131722738D01*
X188041936Y-131530289D01*
X188163224Y-131320212D01*
X188256054Y-131096100D01*
X188318838Y-130861789D01*
X188350500Y-130621288D01*
X188350500Y-130378712D01*
X188318838Y-130138211D01*
X188256054Y-129903900D01*
X188163224Y-129679788D01*
X188041936Y-129469711D01*
X187894265Y-129277262D01*
X187894260Y-129277256D01*
X187722743Y-129105739D01*
X187722736Y-129105733D01*
X187530293Y-128958067D01*
X187530292Y-128958066D01*
X187530289Y-128958064D01*
X187320212Y-128836776D01*
X187320205Y-128836773D01*
X187096104Y-128743947D01*
X186861785Y-128681161D01*
X186621289Y-128649500D01*
X186621288Y-128649500D01*
X186378712Y-128649500D01*
X186378711Y-128649500D01*
X186138214Y-128681161D01*
X185903895Y-128743947D01*
X185679794Y-128836773D01*
X185679785Y-128836777D01*
X185469706Y-128958067D01*
X185277263Y-129105733D01*
X185277256Y-129105739D01*
X185105739Y-129277256D01*
X185105733Y-129277263D01*
X184958067Y-129469706D01*
X184836777Y-129679785D01*
X184836773Y-129679794D01*
X184743947Y-129903895D01*
X184681161Y-130138214D01*
X184649500Y-130378711D01*
X111314304Y-130378711D01*
X111318838Y-130361789D01*
X111350500Y-130121288D01*
X111350500Y-129878712D01*
X111318838Y-129638211D01*
X111256054Y-129403900D01*
X111163224Y-129179788D01*
X111041936Y-128969711D01*
X110894265Y-128777262D01*
X110894260Y-128777256D01*
X110722743Y-128605739D01*
X110722736Y-128605733D01*
X110530293Y-128458067D01*
X110530292Y-128458066D01*
X110530289Y-128458064D01*
X110320212Y-128336776D01*
X110320205Y-128336773D01*
X110096104Y-128243947D01*
X109861785Y-128181161D01*
X109621289Y-128149500D01*
X109621288Y-128149500D01*
X109378712Y-128149500D01*
X109378711Y-128149500D01*
X109138214Y-128181161D01*
X108903895Y-128243947D01*
X108679794Y-128336773D01*
X108679785Y-128336777D01*
X108469706Y-128458067D01*
X108277263Y-128605733D01*
X108277256Y-128605739D01*
X108105739Y-128777256D01*
X108105733Y-128777263D01*
X107958067Y-128969706D01*
X107836777Y-129179785D01*
X107836773Y-129179794D01*
X107743947Y-129403895D01*
X107681161Y-129638214D01*
X107649500Y-129878711D01*
X106500500Y-129878711D01*
X106500500Y-115353713D01*
X114149500Y-115353713D01*
X114149500Y-115566286D01*
X114178251Y-115747816D01*
X114182754Y-115776243D01*
X114229394Y-115919786D01*
X114248444Y-115978414D01*
X114344951Y-116167820D01*
X114469890Y-116339786D01*
X114620213Y-116490109D01*
X114792182Y-116615050D01*
X114800946Y-116619516D01*
X114851742Y-116667491D01*
X114868536Y-116735312D01*
X114845998Y-116801447D01*
X114800946Y-116840484D01*
X114792182Y-116844949D01*
X114620213Y-116969890D01*
X114469890Y-117120213D01*
X114344951Y-117292179D01*
X114248444Y-117481585D01*
X114182753Y-117683760D01*
X114149500Y-117893713D01*
X114149500Y-118106286D01*
X114178251Y-118287816D01*
X114182754Y-118316243D01*
X114229394Y-118459786D01*
X114248444Y-118518414D01*
X114344951Y-118707820D01*
X114469890Y-118879786D01*
X114620213Y-119030109D01*
X114792179Y-119155048D01*
X114792181Y-119155049D01*
X114792184Y-119155051D01*
X114981588Y-119251557D01*
X115183757Y-119317246D01*
X115393713Y-119350500D01*
X115393714Y-119350500D01*
X115606286Y-119350500D01*
X115606287Y-119350500D01*
X115816243Y-119317246D01*
X116018412Y-119251557D01*
X116207816Y-119155051D01*
X116297503Y-119089890D01*
X116379786Y-119030109D01*
X116379788Y-119030106D01*
X116379792Y-119030104D01*
X116530104Y-118879792D01*
X116530106Y-118879788D01*
X116530109Y-118879786D01*
X116655048Y-118707820D01*
X116655047Y-118707820D01*
X116655051Y-118707816D01*
X116751557Y-118518412D01*
X116817246Y-118316243D01*
X116850500Y-118106287D01*
X116850500Y-117893713D01*
X116817246Y-117683757D01*
X116751557Y-117481588D01*
X116655051Y-117292184D01*
X116655049Y-117292181D01*
X116655048Y-117292179D01*
X116530109Y-117120213D01*
X116379786Y-116969890D01*
X116207820Y-116844951D01*
X116207115Y-116844591D01*
X116199054Y-116840485D01*
X116148259Y-116792512D01*
X116131463Y-116724692D01*
X116153999Y-116658556D01*
X116199054Y-116619515D01*
X116207816Y-116615051D01*
X116297503Y-116549890D01*
X116379786Y-116490109D01*
X116379788Y-116490106D01*
X116379792Y-116490104D01*
X116530104Y-116339792D01*
X116530106Y-116339788D01*
X116530109Y-116339786D01*
X116655048Y-116167820D01*
X116655047Y-116167820D01*
X116655051Y-116167816D01*
X116751557Y-115978412D01*
X116817246Y-115776243D01*
X116850500Y-115566287D01*
X116850500Y-115353713D01*
X119149500Y-115353713D01*
X119149500Y-115566286D01*
X119178251Y-115747816D01*
X119182754Y-115776243D01*
X119229394Y-115919786D01*
X119248444Y-115978414D01*
X119344951Y-116167820D01*
X119469890Y-116339786D01*
X119620213Y-116490109D01*
X119792182Y-116615050D01*
X119800946Y-116619516D01*
X119851742Y-116667491D01*
X119868536Y-116735312D01*
X119845998Y-116801447D01*
X119800946Y-116840484D01*
X119792182Y-116844949D01*
X119620213Y-116969890D01*
X119469890Y-117120213D01*
X119344951Y-117292179D01*
X119248444Y-117481585D01*
X119182753Y-117683760D01*
X119149500Y-117893713D01*
X119149500Y-118106286D01*
X119178251Y-118287816D01*
X119182754Y-118316243D01*
X119229394Y-118459786D01*
X119248444Y-118518414D01*
X119344951Y-118707820D01*
X119469890Y-118879786D01*
X119620213Y-119030109D01*
X119792179Y-119155048D01*
X119792181Y-119155049D01*
X119792184Y-119155051D01*
X119981588Y-119251557D01*
X120183757Y-119317246D01*
X120393713Y-119350500D01*
X120393714Y-119350500D01*
X120606286Y-119350500D01*
X120606287Y-119350500D01*
X120816243Y-119317246D01*
X121018412Y-119251557D01*
X121207816Y-119155051D01*
X121297503Y-119089890D01*
X121379786Y-119030109D01*
X121379788Y-119030106D01*
X121379792Y-119030104D01*
X121530104Y-118879792D01*
X121530106Y-118879788D01*
X121530109Y-118879786D01*
X121655048Y-118707820D01*
X121655047Y-118707820D01*
X121655051Y-118707816D01*
X121751557Y-118518412D01*
X121817246Y-118316243D01*
X121850500Y-118106287D01*
X121850500Y-117893713D01*
X121817246Y-117683757D01*
X121751557Y-117481588D01*
X121655051Y-117292184D01*
X121655049Y-117292181D01*
X121655048Y-117292179D01*
X121530109Y-117120213D01*
X121379786Y-116969890D01*
X121207820Y-116844951D01*
X121207115Y-116844591D01*
X121199054Y-116840485D01*
X121148259Y-116792512D01*
X121131463Y-116724692D01*
X121153999Y-116658556D01*
X121199054Y-116619515D01*
X121207816Y-116615051D01*
X121297503Y-116549890D01*
X121379786Y-116490109D01*
X121379788Y-116490106D01*
X121379792Y-116490104D01*
X121530104Y-116339792D01*
X121530106Y-116339788D01*
X121530109Y-116339786D01*
X121655048Y-116167820D01*
X121655047Y-116167820D01*
X121655051Y-116167816D01*
X121751557Y-115978412D01*
X121817246Y-115776243D01*
X121850500Y-115566287D01*
X121850500Y-115433713D01*
X124149500Y-115433713D01*
X124149500Y-115646286D01*
X124176418Y-115816243D01*
X124182754Y-115856243D01*
X124222449Y-115978412D01*
X124248444Y-116058414D01*
X124344951Y-116247820D01*
X124469890Y-116419786D01*
X124620213Y-116570109D01*
X124792182Y-116695050D01*
X124800946Y-116699516D01*
X124851742Y-116747491D01*
X124868536Y-116815312D01*
X124845998Y-116881447D01*
X124800946Y-116920484D01*
X124792182Y-116924949D01*
X124620213Y-117049890D01*
X124469890Y-117200213D01*
X124344951Y-117372179D01*
X124248444Y-117561585D01*
X124182753Y-117763760D01*
X124149500Y-117973713D01*
X124149500Y-118186286D01*
X124176418Y-118356243D01*
X124182754Y-118396243D01*
X124222449Y-118518412D01*
X124248444Y-118598414D01*
X124344951Y-118787820D01*
X124469890Y-118959786D01*
X124620213Y-119110109D01*
X124792179Y-119235048D01*
X124792181Y-119235049D01*
X124792184Y-119235051D01*
X124981588Y-119331557D01*
X125183757Y-119397246D01*
X125393713Y-119430500D01*
X125393714Y-119430500D01*
X125606286Y-119430500D01*
X125606287Y-119430500D01*
X125816243Y-119397246D01*
X126018412Y-119331557D01*
X126207816Y-119235051D01*
X126262876Y-119195048D01*
X126379786Y-119110109D01*
X126379788Y-119110106D01*
X126379792Y-119110104D01*
X126530104Y-118959792D01*
X126530106Y-118959788D01*
X126530109Y-118959786D01*
X126655048Y-118787820D01*
X126655047Y-118787820D01*
X126655051Y-118787816D01*
X126751557Y-118598412D01*
X126817246Y-118396243D01*
X126850500Y-118186287D01*
X126850500Y-117973713D01*
X126817246Y-117763757D01*
X126751557Y-117561588D01*
X126655051Y-117372184D01*
X126655049Y-117372181D01*
X126655048Y-117372179D01*
X126530109Y-117200213D01*
X126379786Y-117049890D01*
X126207820Y-116924951D01*
X126207115Y-116924591D01*
X126199054Y-116920485D01*
X126148259Y-116872512D01*
X126131463Y-116804692D01*
X126153999Y-116738556D01*
X126199054Y-116699515D01*
X126207816Y-116695051D01*
X126256729Y-116659514D01*
X126379786Y-116570109D01*
X126379788Y-116570106D01*
X126379792Y-116570104D01*
X126530104Y-116419792D01*
X126530106Y-116419788D01*
X126530109Y-116419786D01*
X126655048Y-116247820D01*
X126655047Y-116247820D01*
X126655051Y-116247816D01*
X126751557Y-116058412D01*
X126817246Y-115856243D01*
X126850500Y-115646287D01*
X126850500Y-115433713D01*
X129149500Y-115433713D01*
X129149500Y-115646286D01*
X129176418Y-115816243D01*
X129182754Y-115856243D01*
X129222449Y-115978412D01*
X129248444Y-116058414D01*
X129344951Y-116247820D01*
X129469890Y-116419786D01*
X129620213Y-116570109D01*
X129792182Y-116695050D01*
X129800946Y-116699516D01*
X129851742Y-116747491D01*
X129868536Y-116815312D01*
X129845998Y-116881447D01*
X129800946Y-116920484D01*
X129792182Y-116924949D01*
X129620213Y-117049890D01*
X129469890Y-117200213D01*
X129344951Y-117372179D01*
X129248444Y-117561585D01*
X129182753Y-117763760D01*
X129149500Y-117973713D01*
X129149500Y-118186286D01*
X129176418Y-118356243D01*
X129182754Y-118396243D01*
X129222449Y-118518412D01*
X129248444Y-118598414D01*
X129344951Y-118787820D01*
X129469890Y-118959786D01*
X129620213Y-119110109D01*
X129792179Y-119235048D01*
X129792181Y-119235049D01*
X129792184Y-119235051D01*
X129981588Y-119331557D01*
X130183757Y-119397246D01*
X130393713Y-119430500D01*
X130393714Y-119430500D01*
X130606286Y-119430500D01*
X130606287Y-119430500D01*
X130816243Y-119397246D01*
X131018412Y-119331557D01*
X131207816Y-119235051D01*
X131262876Y-119195048D01*
X131379786Y-119110109D01*
X131379788Y-119110106D01*
X131379792Y-119110104D01*
X131530104Y-118959792D01*
X131530106Y-118959788D01*
X131530109Y-118959786D01*
X131655048Y-118787820D01*
X131655047Y-118787820D01*
X131655051Y-118787816D01*
X131751557Y-118598412D01*
X131817246Y-118396243D01*
X131850500Y-118186287D01*
X131850500Y-117973713D01*
X131817246Y-117763757D01*
X131751557Y-117561588D01*
X131655051Y-117372184D01*
X131655049Y-117372181D01*
X131655048Y-117372179D01*
X131530109Y-117200213D01*
X131379786Y-117049890D01*
X131207820Y-116924951D01*
X131207115Y-116924591D01*
X131199054Y-116920485D01*
X131148259Y-116872512D01*
X131131463Y-116804692D01*
X131153999Y-116738556D01*
X131199054Y-116699515D01*
X131207816Y-116695051D01*
X131256729Y-116659514D01*
X131379786Y-116570109D01*
X131379788Y-116570106D01*
X131379792Y-116570104D01*
X131530104Y-116419792D01*
X131530106Y-116419788D01*
X131530109Y-116419786D01*
X131655048Y-116247820D01*
X131655047Y-116247820D01*
X131655051Y-116247816D01*
X131751557Y-116058412D01*
X131817246Y-115856243D01*
X131850500Y-115646287D01*
X131850500Y-115433713D01*
X131844165Y-115393713D01*
X134649500Y-115393713D01*
X134649500Y-115606286D01*
X134678430Y-115788946D01*
X134682754Y-115816243D01*
X134716399Y-115919792D01*
X134748444Y-116018414D01*
X134844951Y-116207820D01*
X134969890Y-116379786D01*
X135120213Y-116530109D01*
X135292182Y-116655050D01*
X135300946Y-116659516D01*
X135351742Y-116707491D01*
X135368536Y-116775312D01*
X135345998Y-116841447D01*
X135300946Y-116880484D01*
X135292182Y-116884949D01*
X135120213Y-117009890D01*
X134969890Y-117160213D01*
X134844951Y-117332179D01*
X134748444Y-117521585D01*
X134682753Y-117723760D01*
X134649500Y-117933713D01*
X134649500Y-118146286D01*
X134676418Y-118316243D01*
X134682754Y-118356243D01*
X134716399Y-118459792D01*
X134748444Y-118558414D01*
X134844951Y-118747820D01*
X134969890Y-118919786D01*
X135120213Y-119070109D01*
X135292179Y-119195048D01*
X135292181Y-119195049D01*
X135292184Y-119195051D01*
X135481588Y-119291557D01*
X135683757Y-119357246D01*
X135893713Y-119390500D01*
X135893714Y-119390500D01*
X136106286Y-119390500D01*
X136106287Y-119390500D01*
X136316243Y-119357246D01*
X136518412Y-119291557D01*
X136707816Y-119195051D01*
X136762876Y-119155048D01*
X136879786Y-119070109D01*
X136879788Y-119070106D01*
X136879792Y-119070104D01*
X137030104Y-118919792D01*
X137030106Y-118919788D01*
X137030109Y-118919786D01*
X137155048Y-118747820D01*
X137155047Y-118747820D01*
X137155051Y-118747816D01*
X137251557Y-118558412D01*
X137317246Y-118356243D01*
X137350500Y-118146287D01*
X137350500Y-117933713D01*
X137317246Y-117723757D01*
X137251557Y-117521588D01*
X137155051Y-117332184D01*
X137155049Y-117332181D01*
X137155048Y-117332179D01*
X137030109Y-117160213D01*
X136879786Y-117009890D01*
X136707820Y-116884951D01*
X136707115Y-116884591D01*
X136699054Y-116880485D01*
X136648259Y-116832512D01*
X136631463Y-116764692D01*
X136653999Y-116698556D01*
X136699054Y-116659515D01*
X136707816Y-116655051D01*
X136762876Y-116615048D01*
X136879786Y-116530109D01*
X136879788Y-116530106D01*
X136879792Y-116530104D01*
X137030104Y-116379792D01*
X137030106Y-116379788D01*
X137030109Y-116379786D01*
X137155048Y-116207820D01*
X137155047Y-116207820D01*
X137155051Y-116207816D01*
X137251557Y-116018412D01*
X137317246Y-115816243D01*
X137350500Y-115606287D01*
X137350500Y-115393713D01*
X137317246Y-115183757D01*
X137303836Y-115142484D01*
X145459500Y-115142484D01*
X145459500Y-117142515D01*
X145470000Y-117245295D01*
X145470001Y-117245296D01*
X145525186Y-117411835D01*
X145525187Y-117411837D01*
X145617286Y-117561151D01*
X145617289Y-117561155D01*
X145741344Y-117685210D01*
X145741348Y-117685213D01*
X145890662Y-117777312D01*
X145890664Y-117777313D01*
X145890666Y-117777314D01*
X146057203Y-117832499D01*
X146159992Y-117843000D01*
X146159997Y-117843000D01*
X148160003Y-117843000D01*
X148160008Y-117843000D01*
X148262797Y-117832499D01*
X148429334Y-117777314D01*
X148578655Y-117685211D01*
X148702711Y-117561155D01*
X148794814Y-117411834D01*
X148849999Y-117245297D01*
X148860500Y-117142508D01*
X148860500Y-116031075D01*
X150540000Y-116031075D01*
X150540000Y-116253924D01*
X150569085Y-116474854D01*
X150569088Y-116474867D01*
X150626763Y-116690118D01*
X150712045Y-116896002D01*
X150712054Y-116896020D01*
X150823464Y-117088991D01*
X150823473Y-117089004D01*
X150874040Y-117154903D01*
X150874043Y-117154903D01*
X151524152Y-116504793D01*
X151531049Y-116521442D01*
X151618599Y-116652470D01*
X151730030Y-116763901D01*
X151861058Y-116851451D01*
X151877705Y-116858346D01*
X151227595Y-117508455D01*
X151227595Y-117508456D01*
X151293507Y-117559033D01*
X151486485Y-117670449D01*
X151486497Y-117670454D01*
X151692381Y-117755736D01*
X151907632Y-117813411D01*
X151907645Y-117813414D01*
X152128575Y-117842500D01*
X152351425Y-117842500D01*
X152572354Y-117813414D01*
X152572367Y-117813411D01*
X152787618Y-117755736D01*
X152993502Y-117670454D01*
X152993514Y-117670449D01*
X153186498Y-117559030D01*
X153252403Y-117508457D01*
X153252404Y-117508456D01*
X152602294Y-116858346D01*
X152618942Y-116851451D01*
X152749970Y-116763901D01*
X152861401Y-116652470D01*
X152948951Y-116521442D01*
X152955846Y-116504794D01*
X153605956Y-117154904D01*
X153605957Y-117154903D01*
X153656530Y-117088998D01*
X153767949Y-116896014D01*
X153767954Y-116896002D01*
X153853236Y-116690118D01*
X153910911Y-116474867D01*
X153910914Y-116474854D01*
X153940000Y-116253924D01*
X153940000Y-116031075D01*
X153910914Y-115810145D01*
X153910911Y-115810132D01*
X153853236Y-115594881D01*
X153767954Y-115388997D01*
X153767949Y-115388985D01*
X153656533Y-115196007D01*
X153605956Y-115130095D01*
X153605955Y-115130095D01*
X152955846Y-115780204D01*
X152948951Y-115763558D01*
X152861401Y-115632530D01*
X152749970Y-115521099D01*
X152618942Y-115433549D01*
X152602293Y-115426652D01*
X153095234Y-114933713D01*
X163695214Y-114933713D01*
X163695214Y-115146287D01*
X163728468Y-115356243D01*
X163782033Y-115521099D01*
X163794158Y-115558414D01*
X163890665Y-115747820D01*
X164015604Y-115919786D01*
X164165927Y-116070109D01*
X164337896Y-116195050D01*
X164346660Y-116199516D01*
X164397456Y-116247491D01*
X164414250Y-116315312D01*
X164391712Y-116381447D01*
X164346660Y-116420484D01*
X164337896Y-116424949D01*
X164165927Y-116549890D01*
X164015604Y-116700213D01*
X163890665Y-116872179D01*
X163794158Y-117061585D01*
X163794157Y-117061587D01*
X163794157Y-117061588D01*
X163767866Y-117142502D01*
X163728467Y-117263760D01*
X163695214Y-117473713D01*
X163695214Y-117686286D01*
X163728467Y-117896239D01*
X163794158Y-118098414D01*
X163890665Y-118287820D01*
X164015604Y-118459786D01*
X164165927Y-118610109D01*
X164337896Y-118735050D01*
X164346660Y-118739516D01*
X164397456Y-118787491D01*
X164414250Y-118855312D01*
X164391712Y-118921447D01*
X164346660Y-118960484D01*
X164337896Y-118964949D01*
X164165927Y-119089890D01*
X164015604Y-119240213D01*
X163890665Y-119412179D01*
X163794158Y-119601585D01*
X163728467Y-119803760D01*
X163695214Y-120013713D01*
X163695214Y-120226286D01*
X163728467Y-120436239D01*
X163794158Y-120638414D01*
X163890665Y-120827820D01*
X164015604Y-120999786D01*
X164165927Y-121150109D01*
X164337893Y-121275048D01*
X164337895Y-121275049D01*
X164337898Y-121275051D01*
X164527302Y-121371557D01*
X164729471Y-121437246D01*
X164939427Y-121470500D01*
X164939428Y-121470500D01*
X165152000Y-121470500D01*
X165152001Y-121470500D01*
X165361957Y-121437246D01*
X165564126Y-121371557D01*
X165753530Y-121275051D01*
X165775503Y-121259086D01*
X165925500Y-121150109D01*
X165925502Y-121150106D01*
X165925506Y-121150104D01*
X166075818Y-120999792D01*
X166075820Y-120999788D01*
X166075823Y-120999786D01*
X166200762Y-120827820D01*
X166200761Y-120827820D01*
X166200765Y-120827816D01*
X166297271Y-120638412D01*
X166362960Y-120436243D01*
X166396214Y-120226287D01*
X166396214Y-120013713D01*
X166362960Y-119803757D01*
X166297271Y-119601588D01*
X166200765Y-119412184D01*
X166200763Y-119412181D01*
X166200762Y-119412179D01*
X166075823Y-119240213D01*
X165925500Y-119089890D01*
X165753534Y-118964951D01*
X165752829Y-118964591D01*
X165744768Y-118960485D01*
X165693973Y-118912512D01*
X165677177Y-118844692D01*
X165699713Y-118778556D01*
X165744768Y-118739515D01*
X165753530Y-118735051D01*
X165791016Y-118707816D01*
X165925500Y-118610109D01*
X165925502Y-118610106D01*
X165925506Y-118610104D01*
X166075818Y-118459792D01*
X166075820Y-118459788D01*
X166075823Y-118459786D01*
X166200762Y-118287820D01*
X166200761Y-118287820D01*
X166200765Y-118287816D01*
X166297271Y-118098412D01*
X166362960Y-117896243D01*
X166396214Y-117686287D01*
X166396214Y-117473713D01*
X166362960Y-117263757D01*
X166297271Y-117061588D01*
X166200765Y-116872184D01*
X166200763Y-116872181D01*
X166200762Y-116872179D01*
X166075823Y-116700213D01*
X165925500Y-116549890D01*
X165753534Y-116424951D01*
X165752829Y-116424591D01*
X165744768Y-116420485D01*
X165693973Y-116372512D01*
X165677177Y-116304692D01*
X165699713Y-116238556D01*
X165744768Y-116199515D01*
X165753530Y-116195051D01*
X165791016Y-116167816D01*
X165925500Y-116070109D01*
X165925502Y-116070106D01*
X165925506Y-116070104D01*
X166075818Y-115919792D01*
X166075820Y-115919788D01*
X166075823Y-115919786D01*
X166200762Y-115747820D01*
X166200761Y-115747820D01*
X166200765Y-115747816D01*
X166297271Y-115558412D01*
X166362960Y-115356243D01*
X166396214Y-115146287D01*
X166396214Y-114933713D01*
X168649500Y-114933713D01*
X168649500Y-115146287D01*
X168682754Y-115356243D01*
X168736319Y-115521099D01*
X168748444Y-115558414D01*
X168844951Y-115747820D01*
X168969890Y-115919786D01*
X169120213Y-116070109D01*
X169292182Y-116195050D01*
X169300946Y-116199516D01*
X169351742Y-116247491D01*
X169368536Y-116315312D01*
X169345998Y-116381447D01*
X169300946Y-116420484D01*
X169292182Y-116424949D01*
X169120213Y-116549890D01*
X168969890Y-116700213D01*
X168844951Y-116872179D01*
X168748444Y-117061585D01*
X168748443Y-117061587D01*
X168748443Y-117061588D01*
X168722152Y-117142502D01*
X168682753Y-117263760D01*
X168649500Y-117473713D01*
X168649500Y-117686286D01*
X168682753Y-117896239D01*
X168748444Y-118098414D01*
X168844951Y-118287820D01*
X168969890Y-118459786D01*
X169120213Y-118610109D01*
X169292182Y-118735050D01*
X169300946Y-118739516D01*
X169351742Y-118787491D01*
X169368536Y-118855312D01*
X169345998Y-118921447D01*
X169300946Y-118960484D01*
X169292182Y-118964949D01*
X169120213Y-119089890D01*
X168969890Y-119240213D01*
X168844951Y-119412179D01*
X168748444Y-119601585D01*
X168682753Y-119803760D01*
X168649500Y-120013713D01*
X168649500Y-120226286D01*
X168682753Y-120436239D01*
X168748444Y-120638414D01*
X168844951Y-120827820D01*
X168969890Y-120999786D01*
X169120213Y-121150109D01*
X169292179Y-121275048D01*
X169292181Y-121275049D01*
X169292184Y-121275051D01*
X169481588Y-121371557D01*
X169683757Y-121437246D01*
X169893713Y-121470500D01*
X169893714Y-121470500D01*
X170106286Y-121470500D01*
X170106287Y-121470500D01*
X170316243Y-121437246D01*
X170518412Y-121371557D01*
X170707816Y-121275051D01*
X170729789Y-121259086D01*
X170879786Y-121150109D01*
X170879788Y-121150106D01*
X170879792Y-121150104D01*
X171030104Y-120999792D01*
X171030106Y-120999788D01*
X171030109Y-120999786D01*
X171155048Y-120827820D01*
X171155047Y-120827820D01*
X171155051Y-120827816D01*
X171251557Y-120638412D01*
X171317246Y-120436243D01*
X171350500Y-120226287D01*
X171350500Y-120013713D01*
X171317246Y-119803757D01*
X171251557Y-119601588D01*
X171155051Y-119412184D01*
X171155049Y-119412181D01*
X171155048Y-119412179D01*
X171030109Y-119240213D01*
X170879786Y-119089890D01*
X170707820Y-118964951D01*
X170707115Y-118964591D01*
X170699054Y-118960485D01*
X170648259Y-118912512D01*
X170631463Y-118844692D01*
X170653999Y-118778556D01*
X170699054Y-118739515D01*
X170707816Y-118735051D01*
X170745302Y-118707816D01*
X170879786Y-118610109D01*
X170879788Y-118610106D01*
X170879792Y-118610104D01*
X171030104Y-118459792D01*
X171030106Y-118459788D01*
X171030109Y-118459786D01*
X171155048Y-118287820D01*
X171155047Y-118287820D01*
X171155051Y-118287816D01*
X171251557Y-118098412D01*
X171317246Y-117896243D01*
X171350500Y-117686287D01*
X171350500Y-117473713D01*
X171317246Y-117263757D01*
X171251557Y-117061588D01*
X171155051Y-116872184D01*
X171155049Y-116872181D01*
X171155048Y-116872179D01*
X171030109Y-116700213D01*
X170879786Y-116549890D01*
X170707820Y-116424951D01*
X170707115Y-116424591D01*
X170699054Y-116420485D01*
X170648259Y-116372512D01*
X170631463Y-116304692D01*
X170653999Y-116238556D01*
X170699054Y-116199515D01*
X170707816Y-116195051D01*
X170745302Y-116167816D01*
X170879786Y-116070109D01*
X170879788Y-116070106D01*
X170879792Y-116070104D01*
X171030104Y-115919792D01*
X171030106Y-115919788D01*
X171030109Y-115919786D01*
X171155048Y-115747820D01*
X171155047Y-115747820D01*
X171155051Y-115747816D01*
X171251557Y-115558412D01*
X171317246Y-115356243D01*
X171350500Y-115146287D01*
X171350500Y-114933713D01*
X173603785Y-114933713D01*
X173603785Y-115146287D01*
X173637039Y-115356243D01*
X173690604Y-115521099D01*
X173702729Y-115558414D01*
X173799236Y-115747820D01*
X173924175Y-115919786D01*
X174074498Y-116070109D01*
X174246467Y-116195050D01*
X174255231Y-116199516D01*
X174306027Y-116247491D01*
X174322821Y-116315312D01*
X174300283Y-116381447D01*
X174255231Y-116420484D01*
X174246467Y-116424949D01*
X174074498Y-116549890D01*
X173924175Y-116700213D01*
X173799236Y-116872179D01*
X173702729Y-117061585D01*
X173702728Y-117061587D01*
X173702728Y-117061588D01*
X173676437Y-117142502D01*
X173637038Y-117263760D01*
X173603785Y-117473713D01*
X173603785Y-117686286D01*
X173637038Y-117896239D01*
X173702729Y-118098414D01*
X173799236Y-118287820D01*
X173924175Y-118459786D01*
X174074498Y-118610109D01*
X174246467Y-118735050D01*
X174255231Y-118739516D01*
X174306027Y-118787491D01*
X174322821Y-118855312D01*
X174300283Y-118921447D01*
X174255231Y-118960484D01*
X174246467Y-118964949D01*
X174074498Y-119089890D01*
X173924175Y-119240213D01*
X173799236Y-119412179D01*
X173702729Y-119601585D01*
X173637038Y-119803760D01*
X173603785Y-120013713D01*
X173603785Y-120226286D01*
X173637038Y-120436239D01*
X173702729Y-120638414D01*
X173799236Y-120827820D01*
X173924175Y-120999786D01*
X174074498Y-121150109D01*
X174246464Y-121275048D01*
X174246466Y-121275049D01*
X174246469Y-121275051D01*
X174435873Y-121371557D01*
X174638042Y-121437246D01*
X174847998Y-121470500D01*
X174847999Y-121470500D01*
X175060571Y-121470500D01*
X175060572Y-121470500D01*
X175270528Y-121437246D01*
X175472697Y-121371557D01*
X175662101Y-121275051D01*
X175684074Y-121259086D01*
X175834071Y-121150109D01*
X175834073Y-121150106D01*
X175834077Y-121150104D01*
X175984389Y-120999792D01*
X175984391Y-120999788D01*
X175984394Y-120999786D01*
X176109333Y-120827820D01*
X176109332Y-120827820D01*
X176109336Y-120827816D01*
X176205842Y-120638412D01*
X176271531Y-120436243D01*
X176304785Y-120226287D01*
X176304785Y-120013713D01*
X176271531Y-119803757D01*
X176205842Y-119601588D01*
X176109336Y-119412184D01*
X176109334Y-119412181D01*
X176109333Y-119412179D01*
X175984394Y-119240213D01*
X175834071Y-119089890D01*
X175662105Y-118964951D01*
X175661400Y-118964591D01*
X175653339Y-118960485D01*
X175602544Y-118912512D01*
X175585748Y-118844692D01*
X175608284Y-118778556D01*
X175653339Y-118739515D01*
X175662101Y-118735051D01*
X175699587Y-118707816D01*
X175834071Y-118610109D01*
X175834073Y-118610106D01*
X175834077Y-118610104D01*
X175984389Y-118459792D01*
X175984391Y-118459788D01*
X175984394Y-118459786D01*
X176109333Y-118287820D01*
X176109332Y-118287820D01*
X176109336Y-118287816D01*
X176205842Y-118098412D01*
X176271531Y-117896243D01*
X176304785Y-117686287D01*
X176304785Y-117473713D01*
X176271531Y-117263757D01*
X176205842Y-117061588D01*
X176109336Y-116872184D01*
X176109334Y-116872181D01*
X176109333Y-116872179D01*
X175984394Y-116700213D01*
X175834071Y-116549890D01*
X175662105Y-116424951D01*
X175661400Y-116424591D01*
X175653339Y-116420485D01*
X175602544Y-116372512D01*
X175585748Y-116304692D01*
X175608284Y-116238556D01*
X175653339Y-116199515D01*
X175662101Y-116195051D01*
X175699587Y-116167816D01*
X175834071Y-116070109D01*
X175834073Y-116070106D01*
X175834077Y-116070104D01*
X175984389Y-115919792D01*
X175984391Y-115919788D01*
X175984394Y-115919786D01*
X176109333Y-115747820D01*
X176109332Y-115747820D01*
X176109336Y-115747816D01*
X176205842Y-115558412D01*
X176271531Y-115356243D01*
X176304785Y-115146287D01*
X176304785Y-114933713D01*
X176271531Y-114723757D01*
X176205842Y-114521588D01*
X176109336Y-114332184D01*
X176109334Y-114332181D01*
X176109333Y-114332179D01*
X175984394Y-114160213D01*
X175870466Y-114046285D01*
X175836981Y-113984962D01*
X175841965Y-113915270D01*
X175883837Y-113859337D01*
X175914814Y-113842422D01*
X176046371Y-113793354D01*
X176046378Y-113793350D01*
X176161472Y-113707190D01*
X176161475Y-113707187D01*
X176247635Y-113592093D01*
X176247639Y-113592086D01*
X176297881Y-113457379D01*
X176297883Y-113457372D01*
X176304284Y-113397844D01*
X176304285Y-113397827D01*
X176304285Y-112750000D01*
X175387297Y-112750000D01*
X175420210Y-112692993D01*
X175454285Y-112565826D01*
X175454285Y-112434174D01*
X175420210Y-112307007D01*
X175387297Y-112250000D01*
X176304285Y-112250000D01*
X176304285Y-111602172D01*
X176304284Y-111602155D01*
X176297883Y-111542627D01*
X176297881Y-111542620D01*
X176247639Y-111407913D01*
X176247635Y-111407906D01*
X176161475Y-111292812D01*
X176161472Y-111292809D01*
X176046378Y-111206649D01*
X176046371Y-111206645D01*
X175911664Y-111156403D01*
X175911657Y-111156401D01*
X175852129Y-111150000D01*
X175204285Y-111150000D01*
X175204285Y-112066988D01*
X175147278Y-112034075D01*
X175020111Y-112000000D01*
X174888459Y-112000000D01*
X174761292Y-112034075D01*
X174704285Y-112066988D01*
X174704285Y-111150000D01*
X174056440Y-111150000D01*
X173996912Y-111156401D01*
X173996905Y-111156403D01*
X173862198Y-111206645D01*
X173862191Y-111206649D01*
X173747097Y-111292809D01*
X173747094Y-111292812D01*
X173660934Y-111407906D01*
X173660930Y-111407913D01*
X173610688Y-111542620D01*
X173610686Y-111542627D01*
X173604285Y-111602155D01*
X173604285Y-112250000D01*
X174521273Y-112250000D01*
X174488360Y-112307007D01*
X174454285Y-112434174D01*
X174454285Y-112565826D01*
X174488360Y-112692993D01*
X174521273Y-112750000D01*
X173604285Y-112750000D01*
X173604285Y-113397844D01*
X173610686Y-113457372D01*
X173610688Y-113457379D01*
X173660930Y-113592086D01*
X173660934Y-113592093D01*
X173747094Y-113707187D01*
X173747097Y-113707190D01*
X173862191Y-113793350D01*
X173862198Y-113793354D01*
X173993755Y-113842422D01*
X174049689Y-113884293D01*
X174074106Y-113949758D01*
X174059254Y-114018031D01*
X174038104Y-114046285D01*
X173924174Y-114160215D01*
X173799236Y-114332179D01*
X173702729Y-114521585D01*
X173702728Y-114521587D01*
X173702728Y-114521588D01*
X173683679Y-114580215D01*
X173637038Y-114723760D01*
X173613375Y-114873162D01*
X173603785Y-114933713D01*
X171350500Y-114933713D01*
X171317246Y-114723757D01*
X171251557Y-114521588D01*
X171155051Y-114332184D01*
X171155049Y-114332181D01*
X171155048Y-114332179D01*
X171030109Y-114160213D01*
X170916181Y-114046285D01*
X170882696Y-113984962D01*
X170887680Y-113915270D01*
X170929552Y-113859337D01*
X170960529Y-113842422D01*
X171092086Y-113793354D01*
X171092093Y-113793350D01*
X171207187Y-113707190D01*
X171207190Y-113707187D01*
X171293350Y-113592093D01*
X171293354Y-113592086D01*
X171343596Y-113457379D01*
X171343598Y-113457372D01*
X171349999Y-113397844D01*
X171350000Y-113397827D01*
X171350000Y-112750000D01*
X170433012Y-112750000D01*
X170465925Y-112692993D01*
X170500000Y-112565826D01*
X170500000Y-112434174D01*
X170465925Y-112307007D01*
X170433012Y-112250000D01*
X171350000Y-112250000D01*
X171350000Y-111602172D01*
X171349999Y-111602155D01*
X171343598Y-111542627D01*
X171343596Y-111542620D01*
X171293354Y-111407913D01*
X171293350Y-111407906D01*
X171207190Y-111292812D01*
X171207187Y-111292809D01*
X171092093Y-111206649D01*
X171092086Y-111206645D01*
X170957379Y-111156403D01*
X170957372Y-111156401D01*
X170897844Y-111150000D01*
X170250000Y-111150000D01*
X170250000Y-112066988D01*
X170192993Y-112034075D01*
X170065826Y-112000000D01*
X169934174Y-112000000D01*
X169807007Y-112034075D01*
X169750000Y-112066988D01*
X169750000Y-111150000D01*
X169102155Y-111150000D01*
X169042627Y-111156401D01*
X169042620Y-111156403D01*
X168907913Y-111206645D01*
X168907906Y-111206649D01*
X168792812Y-111292809D01*
X168792809Y-111292812D01*
X168706649Y-111407906D01*
X168706645Y-111407913D01*
X168656403Y-111542620D01*
X168656401Y-111542627D01*
X168650000Y-111602155D01*
X168650000Y-112250000D01*
X169566988Y-112250000D01*
X169534075Y-112307007D01*
X169500000Y-112434174D01*
X169500000Y-112565826D01*
X169534075Y-112692993D01*
X169566988Y-112750000D01*
X168650000Y-112750000D01*
X168650000Y-113397844D01*
X168656401Y-113457372D01*
X168656403Y-113457379D01*
X168706645Y-113592086D01*
X168706649Y-113592093D01*
X168792809Y-113707187D01*
X168792812Y-113707190D01*
X168907906Y-113793350D01*
X168907913Y-113793354D01*
X169039470Y-113842422D01*
X169095404Y-113884293D01*
X169119821Y-113949758D01*
X169104969Y-114018031D01*
X169083819Y-114046285D01*
X168969889Y-114160215D01*
X168844951Y-114332179D01*
X168748444Y-114521585D01*
X168748443Y-114521587D01*
X168748443Y-114521588D01*
X168729394Y-114580215D01*
X168682753Y-114723760D01*
X168659090Y-114873162D01*
X168649500Y-114933713D01*
X166396214Y-114933713D01*
X166362960Y-114723757D01*
X166297271Y-114521588D01*
X166200765Y-114332184D01*
X166200763Y-114332181D01*
X166200762Y-114332179D01*
X166075823Y-114160213D01*
X165961895Y-114046285D01*
X165928410Y-113984962D01*
X165933394Y-113915270D01*
X165975266Y-113859337D01*
X166006243Y-113842422D01*
X166137800Y-113793354D01*
X166137807Y-113793350D01*
X166252901Y-113707190D01*
X166252904Y-113707187D01*
X166339064Y-113592093D01*
X166339068Y-113592086D01*
X166389310Y-113457379D01*
X166389312Y-113457372D01*
X166395713Y-113397844D01*
X166395714Y-113397827D01*
X166395714Y-112750000D01*
X165478726Y-112750000D01*
X165511639Y-112692993D01*
X165545714Y-112565826D01*
X165545714Y-112434174D01*
X165511639Y-112307007D01*
X165478726Y-112250000D01*
X166395714Y-112250000D01*
X166395714Y-111602172D01*
X166395713Y-111602155D01*
X166389312Y-111542627D01*
X166389310Y-111542620D01*
X166339068Y-111407913D01*
X166339064Y-111407906D01*
X166252904Y-111292812D01*
X166252901Y-111292809D01*
X166137807Y-111206649D01*
X166137800Y-111206645D01*
X166003093Y-111156403D01*
X166003086Y-111156401D01*
X165943558Y-111150000D01*
X165295714Y-111150000D01*
X165295714Y-112066988D01*
X165238707Y-112034075D01*
X165111540Y-112000000D01*
X164979888Y-112000000D01*
X164852721Y-112034075D01*
X164795714Y-112066988D01*
X164795714Y-111150000D01*
X164147869Y-111150000D01*
X164088341Y-111156401D01*
X164088334Y-111156403D01*
X163953627Y-111206645D01*
X163953620Y-111206649D01*
X163838526Y-111292809D01*
X163838523Y-111292812D01*
X163752363Y-111407906D01*
X163752359Y-111407913D01*
X163702117Y-111542620D01*
X163702115Y-111542627D01*
X163695714Y-111602155D01*
X163695714Y-112250000D01*
X164612702Y-112250000D01*
X164579789Y-112307007D01*
X164545714Y-112434174D01*
X164545714Y-112565826D01*
X164579789Y-112692993D01*
X164612702Y-112750000D01*
X163695714Y-112750000D01*
X163695714Y-113397844D01*
X163702115Y-113457372D01*
X163702117Y-113457379D01*
X163752359Y-113592086D01*
X163752363Y-113592093D01*
X163838523Y-113707187D01*
X163838526Y-113707190D01*
X163953620Y-113793350D01*
X163953627Y-113793354D01*
X164085184Y-113842422D01*
X164141118Y-113884293D01*
X164165535Y-113949758D01*
X164150683Y-114018031D01*
X164129533Y-114046285D01*
X164015603Y-114160215D01*
X163890665Y-114332179D01*
X163794158Y-114521585D01*
X163794157Y-114521587D01*
X163794157Y-114521588D01*
X163775108Y-114580215D01*
X163728467Y-114723760D01*
X163704804Y-114873162D01*
X163695214Y-114933713D01*
X153095234Y-114933713D01*
X153187787Y-114841160D01*
X153252403Y-114776543D01*
X153252403Y-114776540D01*
X153186504Y-114725973D01*
X153186491Y-114725964D01*
X152993520Y-114614554D01*
X152993502Y-114614545D01*
X152787618Y-114529263D01*
X152572367Y-114471588D01*
X152572354Y-114471585D01*
X152351425Y-114442500D01*
X152128575Y-114442500D01*
X151907645Y-114471585D01*
X151907632Y-114471588D01*
X151692381Y-114529263D01*
X151486497Y-114614545D01*
X151486479Y-114614554D01*
X151293511Y-114725962D01*
X151227595Y-114776542D01*
X151877706Y-115426652D01*
X151861058Y-115433549D01*
X151730030Y-115521099D01*
X151618599Y-115632530D01*
X151531049Y-115763558D01*
X151524153Y-115780206D01*
X150874042Y-115130095D01*
X150823462Y-115196011D01*
X150712054Y-115388979D01*
X150712045Y-115388997D01*
X150626763Y-115594881D01*
X150569088Y-115810132D01*
X150569085Y-115810145D01*
X150540000Y-116031075D01*
X148860500Y-116031075D01*
X148860500Y-115142492D01*
X148849999Y-115039703D01*
X148794814Y-114873166D01*
X148702711Y-114723845D01*
X148578655Y-114599789D01*
X148578651Y-114599786D01*
X148429337Y-114507687D01*
X148429335Y-114507686D01*
X148339841Y-114478031D01*
X148262797Y-114452501D01*
X148262795Y-114452500D01*
X148160015Y-114442000D01*
X148160008Y-114442000D01*
X146159992Y-114442000D01*
X146159984Y-114442000D01*
X146057204Y-114452500D01*
X146057203Y-114452501D01*
X145890664Y-114507686D01*
X145890662Y-114507687D01*
X145741348Y-114599786D01*
X145741344Y-114599789D01*
X145617289Y-114723844D01*
X145617286Y-114723848D01*
X145525187Y-114873162D01*
X145525186Y-114873164D01*
X145470001Y-115039703D01*
X145470000Y-115039704D01*
X145459500Y-115142484D01*
X137303836Y-115142484D01*
X137251557Y-114981588D01*
X137155051Y-114792184D01*
X137155049Y-114792181D01*
X137155048Y-114792179D01*
X137030109Y-114620213D01*
X136916181Y-114506285D01*
X136882696Y-114444962D01*
X136887680Y-114375270D01*
X136929552Y-114319337D01*
X136960529Y-114302422D01*
X137092086Y-114253354D01*
X137092093Y-114253350D01*
X137207187Y-114167190D01*
X137207190Y-114167187D01*
X137293350Y-114052093D01*
X137293354Y-114052086D01*
X137343596Y-113917379D01*
X137343598Y-113917372D01*
X137349999Y-113857844D01*
X137350000Y-113857827D01*
X137350000Y-113210000D01*
X136433012Y-113210000D01*
X136465925Y-113152993D01*
X136500000Y-113025826D01*
X136500000Y-112894174D01*
X136465925Y-112767007D01*
X136433012Y-112710000D01*
X137350000Y-112710000D01*
X137350000Y-112062172D01*
X137349999Y-112062155D01*
X137343598Y-112002627D01*
X137343596Y-112002620D01*
X137293354Y-111867913D01*
X137293350Y-111867906D01*
X137207190Y-111752813D01*
X137134128Y-111698118D01*
X137134127Y-111698117D01*
X137092089Y-111666647D01*
X137092086Y-111666645D01*
X136957379Y-111616403D01*
X136957372Y-111616401D01*
X136897844Y-111610000D01*
X136250000Y-111610000D01*
X136250000Y-112526988D01*
X136192993Y-112494075D01*
X136065826Y-112460000D01*
X135934174Y-112460000D01*
X135807007Y-112494075D01*
X135750000Y-112526988D01*
X135750000Y-111610000D01*
X135102155Y-111610000D01*
X135042627Y-111616401D01*
X135042620Y-111616403D01*
X134907913Y-111666645D01*
X134907906Y-111666649D01*
X134792812Y-111752809D01*
X134792809Y-111752812D01*
X134706649Y-111867906D01*
X134706645Y-111867913D01*
X134656403Y-112002620D01*
X134656401Y-112002627D01*
X134650000Y-112062155D01*
X134650000Y-112710000D01*
X135566988Y-112710000D01*
X135534075Y-112767007D01*
X135500000Y-112894174D01*
X135500000Y-113025826D01*
X135534075Y-113152993D01*
X135566988Y-113210000D01*
X134650000Y-113210000D01*
X134650000Y-113857844D01*
X134656401Y-113917372D01*
X134656403Y-113917379D01*
X134706645Y-114052086D01*
X134706649Y-114052093D01*
X134792809Y-114167187D01*
X134792812Y-114167190D01*
X134907906Y-114253350D01*
X134907913Y-114253354D01*
X135039470Y-114302422D01*
X135095404Y-114344293D01*
X135119821Y-114409758D01*
X135104969Y-114478031D01*
X135083819Y-114506285D01*
X134969889Y-114620215D01*
X134844951Y-114792179D01*
X134748444Y-114981585D01*
X134682753Y-115183760D01*
X134649500Y-115393713D01*
X131844165Y-115393713D01*
X131817246Y-115223757D01*
X131751557Y-115021588D01*
X131655051Y-114832184D01*
X131655049Y-114832181D01*
X131655048Y-114832179D01*
X131530109Y-114660213D01*
X131416181Y-114546285D01*
X131382696Y-114484962D01*
X131387680Y-114415270D01*
X131429552Y-114359337D01*
X131460529Y-114342422D01*
X131592086Y-114293354D01*
X131592093Y-114293350D01*
X131707187Y-114207190D01*
X131707190Y-114207187D01*
X131793350Y-114092093D01*
X131793354Y-114092086D01*
X131843596Y-113957379D01*
X131843598Y-113957372D01*
X131849999Y-113897844D01*
X131850000Y-113897827D01*
X131850000Y-113250000D01*
X130933012Y-113250000D01*
X130965925Y-113192993D01*
X131000000Y-113065826D01*
X131000000Y-112934174D01*
X130965925Y-112807007D01*
X130933012Y-112750000D01*
X131850000Y-112750000D01*
X131850000Y-112102172D01*
X131849999Y-112102158D01*
X131846768Y-112072108D01*
X131846768Y-112072107D01*
X131843598Y-112042626D01*
X131843596Y-112042620D01*
X131793354Y-111907913D01*
X131793350Y-111907906D01*
X131707190Y-111792812D01*
X131707187Y-111792809D01*
X131592093Y-111706649D01*
X131592086Y-111706645D01*
X131457379Y-111656403D01*
X131457372Y-111656401D01*
X131397844Y-111650000D01*
X130750000Y-111650000D01*
X130750000Y-112566988D01*
X130692993Y-112534075D01*
X130565826Y-112500000D01*
X130434174Y-112500000D01*
X130307007Y-112534075D01*
X130250000Y-112566988D01*
X130250000Y-111650000D01*
X129602155Y-111650000D01*
X129542627Y-111656401D01*
X129542620Y-111656403D01*
X129407913Y-111706645D01*
X129407906Y-111706649D01*
X129292812Y-111792809D01*
X129292809Y-111792812D01*
X129206649Y-111907906D01*
X129206645Y-111907913D01*
X129156403Y-112042620D01*
X129156401Y-112042627D01*
X129150000Y-112102155D01*
X129150000Y-112750000D01*
X130066988Y-112750000D01*
X130034075Y-112807007D01*
X130000000Y-112934174D01*
X130000000Y-113065826D01*
X130034075Y-113192993D01*
X130066988Y-113250000D01*
X129150000Y-113250000D01*
X129150000Y-113897844D01*
X129156401Y-113957372D01*
X129156403Y-113957379D01*
X129206645Y-114092086D01*
X129206649Y-114092093D01*
X129292809Y-114207187D01*
X129292812Y-114207190D01*
X129407906Y-114293350D01*
X129407913Y-114293354D01*
X129539470Y-114342422D01*
X129595404Y-114384293D01*
X129619821Y-114449758D01*
X129604969Y-114518031D01*
X129583819Y-114546285D01*
X129469889Y-114660215D01*
X129344951Y-114832179D01*
X129248444Y-115021585D01*
X129182753Y-115223760D01*
X129149500Y-115433713D01*
X126850500Y-115433713D01*
X126817246Y-115223757D01*
X126751557Y-115021588D01*
X126655051Y-114832184D01*
X126655049Y-114832181D01*
X126655048Y-114832179D01*
X126530109Y-114660213D01*
X126416181Y-114546285D01*
X126382696Y-114484962D01*
X126387680Y-114415270D01*
X126429552Y-114359337D01*
X126460529Y-114342422D01*
X126592086Y-114293354D01*
X126592093Y-114293350D01*
X126707187Y-114207190D01*
X126707190Y-114207187D01*
X126793350Y-114092093D01*
X126793354Y-114092086D01*
X126843596Y-113957379D01*
X126843598Y-113957372D01*
X126849999Y-113897844D01*
X126850000Y-113897827D01*
X126850000Y-113250000D01*
X125933012Y-113250000D01*
X125965925Y-113192993D01*
X126000000Y-113065826D01*
X126000000Y-112934174D01*
X125965925Y-112807007D01*
X125933012Y-112750000D01*
X126850000Y-112750000D01*
X126850000Y-112102172D01*
X126849999Y-112102155D01*
X126843598Y-112042627D01*
X126843596Y-112042620D01*
X126793354Y-111907913D01*
X126793350Y-111907906D01*
X126707190Y-111792812D01*
X126707187Y-111792809D01*
X126592093Y-111706649D01*
X126592086Y-111706645D01*
X126457379Y-111656403D01*
X126457372Y-111656401D01*
X126397844Y-111650000D01*
X125750000Y-111650000D01*
X125750000Y-112566988D01*
X125692993Y-112534075D01*
X125565826Y-112500000D01*
X125434174Y-112500000D01*
X125307007Y-112534075D01*
X125250000Y-112566988D01*
X125250000Y-111650000D01*
X124602155Y-111650000D01*
X124542627Y-111656401D01*
X124542620Y-111656403D01*
X124407913Y-111706645D01*
X124407906Y-111706649D01*
X124292812Y-111792809D01*
X124292809Y-111792812D01*
X124206649Y-111907906D01*
X124206645Y-111907913D01*
X124156403Y-112042620D01*
X124156401Y-112042627D01*
X124150000Y-112102155D01*
X124150000Y-112750000D01*
X125066988Y-112750000D01*
X125034075Y-112807007D01*
X125000000Y-112934174D01*
X125000000Y-113065826D01*
X125034075Y-113192993D01*
X125066988Y-113250000D01*
X124150000Y-113250000D01*
X124150000Y-113897844D01*
X124156401Y-113957372D01*
X124156403Y-113957379D01*
X124206645Y-114092086D01*
X124206649Y-114092093D01*
X124292809Y-114207187D01*
X124292812Y-114207190D01*
X124407906Y-114293350D01*
X124407913Y-114293354D01*
X124539470Y-114342422D01*
X124595404Y-114384293D01*
X124619821Y-114449758D01*
X124604969Y-114518031D01*
X124583819Y-114546285D01*
X124469889Y-114660215D01*
X124344951Y-114832179D01*
X124248444Y-115021585D01*
X124182753Y-115223760D01*
X124149500Y-115433713D01*
X121850500Y-115433713D01*
X121850500Y-115353713D01*
X121817246Y-115143757D01*
X121751557Y-114941588D01*
X121655051Y-114752184D01*
X121655049Y-114752181D01*
X121655048Y-114752179D01*
X121530109Y-114580213D01*
X121416181Y-114466285D01*
X121382696Y-114404962D01*
X121387680Y-114335270D01*
X121429552Y-114279337D01*
X121460529Y-114262422D01*
X121592086Y-114213354D01*
X121592093Y-114213350D01*
X121707187Y-114127190D01*
X121707190Y-114127187D01*
X121793350Y-114012093D01*
X121793354Y-114012086D01*
X121843596Y-113877379D01*
X121843598Y-113877372D01*
X121849999Y-113817844D01*
X121850000Y-113817827D01*
X121850000Y-113170000D01*
X120933012Y-113170000D01*
X120965925Y-113112993D01*
X121000000Y-112985826D01*
X121000000Y-112854174D01*
X120965925Y-112727007D01*
X120933012Y-112670000D01*
X121850000Y-112670000D01*
X121850000Y-112022172D01*
X121849999Y-112022155D01*
X121843598Y-111962627D01*
X121843596Y-111962620D01*
X121793354Y-111827913D01*
X121793350Y-111827906D01*
X121707190Y-111712812D01*
X121707187Y-111712809D01*
X121592093Y-111626649D01*
X121592086Y-111626645D01*
X121457379Y-111576403D01*
X121457372Y-111576401D01*
X121397844Y-111570000D01*
X120750000Y-111570000D01*
X120750000Y-112486988D01*
X120692993Y-112454075D01*
X120565826Y-112420000D01*
X120434174Y-112420000D01*
X120307007Y-112454075D01*
X120250000Y-112486988D01*
X120250000Y-111570000D01*
X119602155Y-111570000D01*
X119542627Y-111576401D01*
X119542620Y-111576403D01*
X119407913Y-111626645D01*
X119407906Y-111626649D01*
X119292812Y-111712809D01*
X119292809Y-111712812D01*
X119206649Y-111827906D01*
X119206645Y-111827913D01*
X119156403Y-111962620D01*
X119156401Y-111962627D01*
X119150000Y-112022155D01*
X119150000Y-112670000D01*
X120066988Y-112670000D01*
X120034075Y-112727007D01*
X120000000Y-112854174D01*
X120000000Y-112985826D01*
X120034075Y-113112993D01*
X120066988Y-113170000D01*
X119150000Y-113170000D01*
X119150000Y-113817844D01*
X119156401Y-113877372D01*
X119156403Y-113877379D01*
X119206645Y-114012086D01*
X119206649Y-114012093D01*
X119292809Y-114127187D01*
X119292812Y-114127190D01*
X119407906Y-114213350D01*
X119407913Y-114213354D01*
X119539470Y-114262422D01*
X119595404Y-114304293D01*
X119619821Y-114369758D01*
X119604969Y-114438031D01*
X119583819Y-114466285D01*
X119469889Y-114580215D01*
X119344951Y-114752179D01*
X119248444Y-114941585D01*
X119182753Y-115143760D01*
X119149500Y-115353713D01*
X116850500Y-115353713D01*
X116817246Y-115143757D01*
X116751557Y-114941588D01*
X116655051Y-114752184D01*
X116655049Y-114752181D01*
X116655048Y-114752179D01*
X116530109Y-114580213D01*
X116416181Y-114466285D01*
X116382696Y-114404962D01*
X116387680Y-114335270D01*
X116429552Y-114279337D01*
X116460529Y-114262422D01*
X116592086Y-114213354D01*
X116592093Y-114213350D01*
X116707187Y-114127190D01*
X116707190Y-114127187D01*
X116793350Y-114012093D01*
X116793354Y-114012086D01*
X116843596Y-113877379D01*
X116843598Y-113877372D01*
X116849999Y-113817844D01*
X116850000Y-113817827D01*
X116850000Y-113170000D01*
X115933012Y-113170000D01*
X115965925Y-113112993D01*
X116000000Y-112985826D01*
X116000000Y-112854174D01*
X115965925Y-112727007D01*
X115933012Y-112670000D01*
X116850000Y-112670000D01*
X116850000Y-112022172D01*
X116849999Y-112022155D01*
X116843598Y-111962627D01*
X116843596Y-111962620D01*
X116793354Y-111827913D01*
X116793350Y-111827906D01*
X116707190Y-111712812D01*
X116707187Y-111712809D01*
X116592093Y-111626649D01*
X116592086Y-111626645D01*
X116457379Y-111576403D01*
X116457372Y-111576401D01*
X116397844Y-111570000D01*
X115750000Y-111570000D01*
X115750000Y-112486988D01*
X115692993Y-112454075D01*
X115565826Y-112420000D01*
X115434174Y-112420000D01*
X115307007Y-112454075D01*
X115250000Y-112486988D01*
X115250000Y-111570000D01*
X114602155Y-111570000D01*
X114542627Y-111576401D01*
X114542620Y-111576403D01*
X114407913Y-111626645D01*
X114407906Y-111626649D01*
X114292812Y-111712809D01*
X114292809Y-111712812D01*
X114206649Y-111827906D01*
X114206645Y-111827913D01*
X114156403Y-111962620D01*
X114156401Y-111962627D01*
X114150000Y-112022155D01*
X114150000Y-112670000D01*
X115066988Y-112670000D01*
X115034075Y-112727007D01*
X115000000Y-112854174D01*
X115000000Y-112985826D01*
X115034075Y-113112993D01*
X115066988Y-113170000D01*
X114150000Y-113170000D01*
X114150000Y-113817844D01*
X114156401Y-113877372D01*
X114156403Y-113877379D01*
X114206645Y-114012086D01*
X114206649Y-114012093D01*
X114292809Y-114127187D01*
X114292812Y-114127190D01*
X114407906Y-114213350D01*
X114407913Y-114213354D01*
X114539470Y-114262422D01*
X114595404Y-114304293D01*
X114619821Y-114369758D01*
X114604969Y-114438031D01*
X114583819Y-114466285D01*
X114469889Y-114580215D01*
X114344951Y-114752179D01*
X114248444Y-114941585D01*
X114182753Y-115143760D01*
X114149500Y-115353713D01*
X106500500Y-115353713D01*
X106500500Y-108081141D01*
X106520185Y-108014102D01*
X106572989Y-107968347D01*
X106634230Y-107957523D01*
X106647851Y-107958595D01*
X107205884Y-107400561D01*
X107206740Y-107402626D01*
X107299762Y-107541844D01*
X107418156Y-107660238D01*
X107557374Y-107753260D01*
X107559437Y-107754114D01*
X107001402Y-108312148D01*
X107108313Y-108389824D01*
X107336215Y-108505947D01*
X107336218Y-108505948D01*
X107579476Y-108584986D01*
X107832111Y-108625000D01*
X108087889Y-108625000D01*
X108340523Y-108584986D01*
X108583781Y-108505948D01*
X108583784Y-108505947D01*
X108811685Y-108389825D01*
X108918595Y-108312148D01*
X108918596Y-108312148D01*
X108360562Y-107754114D01*
X108362626Y-107753260D01*
X108501844Y-107660238D01*
X108620238Y-107541844D01*
X108713260Y-107402626D01*
X108714114Y-107400562D01*
X109272148Y-107958596D01*
X109272148Y-107958595D01*
X109349825Y-107851685D01*
X109465947Y-107623784D01*
X109465948Y-107623781D01*
X109544986Y-107380523D01*
X109585000Y-107127889D01*
X109585000Y-106872110D01*
X111415000Y-106872110D01*
X111415000Y-107127889D01*
X111455013Y-107380523D01*
X111534051Y-107623781D01*
X111534052Y-107623784D01*
X111650175Y-107851686D01*
X111727850Y-107958595D01*
X111727850Y-107958596D01*
X112285884Y-107400561D01*
X112286740Y-107402626D01*
X112379762Y-107541844D01*
X112498156Y-107660238D01*
X112637374Y-107753260D01*
X112639437Y-107754114D01*
X112081402Y-108312148D01*
X112188313Y-108389824D01*
X112416215Y-108505947D01*
X112416218Y-108505948D01*
X112659476Y-108584986D01*
X112912111Y-108625000D01*
X113167889Y-108625000D01*
X113420523Y-108584986D01*
X113663781Y-108505948D01*
X113663784Y-108505947D01*
X113891685Y-108389825D01*
X113998595Y-108312148D01*
X113998596Y-108312148D01*
X113440562Y-107754114D01*
X113442626Y-107753260D01*
X113581844Y-107660238D01*
X113700238Y-107541844D01*
X113793260Y-107402626D01*
X113794114Y-107400562D01*
X114352148Y-107958596D01*
X114352148Y-107958595D01*
X114429825Y-107851685D01*
X114545947Y-107623784D01*
X114545948Y-107623781D01*
X114624986Y-107380523D01*
X114665000Y-107127889D01*
X114665000Y-106872110D01*
X114624986Y-106619476D01*
X114545948Y-106376218D01*
X114545947Y-106376215D01*
X114429824Y-106148313D01*
X114352148Y-106041403D01*
X114352148Y-106041402D01*
X113794114Y-106599436D01*
X113793260Y-106597374D01*
X113700238Y-106458156D01*
X113581844Y-106339762D01*
X113442626Y-106246740D01*
X113440560Y-106245884D01*
X113998596Y-105687850D01*
X113891686Y-105610175D01*
X113663784Y-105494052D01*
X113663781Y-105494051D01*
X113420523Y-105415013D01*
X113167889Y-105375000D01*
X112912111Y-105375000D01*
X112659476Y-105415013D01*
X112416218Y-105494051D01*
X112416215Y-105494052D01*
X112188310Y-105610177D01*
X112081403Y-105687849D01*
X112081402Y-105687850D01*
X112639437Y-106245885D01*
X112637374Y-106246740D01*
X112498156Y-106339762D01*
X112379762Y-106458156D01*
X112286740Y-106597374D01*
X112285885Y-106599437D01*
X111727850Y-106041402D01*
X111727849Y-106041403D01*
X111650177Y-106148310D01*
X111534052Y-106376215D01*
X111534051Y-106376218D01*
X111455013Y-106619476D01*
X111415000Y-106872110D01*
X109585000Y-106872110D01*
X109544986Y-106619476D01*
X109465948Y-106376218D01*
X109465947Y-106376215D01*
X109349824Y-106148313D01*
X109272148Y-106041403D01*
X109272148Y-106041402D01*
X108714114Y-106599436D01*
X108713260Y-106597374D01*
X108620238Y-106458156D01*
X108501844Y-106339762D01*
X108362626Y-106246740D01*
X108360560Y-106245884D01*
X108918596Y-105687850D01*
X108811686Y-105610175D01*
X108583784Y-105494052D01*
X108583781Y-105494051D01*
X108340523Y-105415013D01*
X108087889Y-105375000D01*
X107832111Y-105375000D01*
X107579476Y-105415013D01*
X107336218Y-105494051D01*
X107336215Y-105494052D01*
X107108310Y-105610177D01*
X107001403Y-105687849D01*
X107001402Y-105687850D01*
X107559437Y-106245885D01*
X107557374Y-106246740D01*
X107418156Y-106339762D01*
X107299762Y-106458156D01*
X107206740Y-106597374D01*
X107205885Y-106599438D01*
X106647849Y-106041402D01*
X106634227Y-106042474D01*
X106620617Y-106039614D01*
X106606853Y-106041594D01*
X106587100Y-106032573D01*
X106565850Y-106028109D01*
X106555946Y-106018345D01*
X106543297Y-106012569D01*
X106531557Y-105994301D01*
X106516094Y-105979057D01*
X106512267Y-105964286D01*
X106505523Y-105953791D01*
X106500500Y-105918856D01*
X106500500Y-104339941D01*
X108974500Y-104339941D01*
X108974500Y-104580058D01*
X109012063Y-104817222D01*
X109086265Y-105045593D01*
X109117191Y-105106287D01*
X109195276Y-105259536D01*
X109336414Y-105453796D01*
X109506204Y-105623586D01*
X109700464Y-105764724D01*
X109801543Y-105816226D01*
X109914406Y-105873734D01*
X109914408Y-105873734D01*
X109914411Y-105873736D01*
X110142778Y-105947937D01*
X110379941Y-105985500D01*
X110379942Y-105985500D01*
X110620058Y-105985500D01*
X110620059Y-105985500D01*
X110857222Y-105947937D01*
X111085589Y-105873736D01*
X111299536Y-105764724D01*
X111493796Y-105623586D01*
X111663586Y-105453796D01*
X111804724Y-105259536D01*
X111913736Y-105045589D01*
X111987937Y-104817222D01*
X112025500Y-104580059D01*
X112025500Y-104339941D01*
X111987937Y-104102778D01*
X111987728Y-104102135D01*
X141029500Y-104102135D01*
X141029500Y-105897870D01*
X141029501Y-105897876D01*
X141035908Y-105957483D01*
X141086202Y-106092328D01*
X141086206Y-106092335D01*
X141172452Y-106207544D01*
X141172455Y-106207547D01*
X141287664Y-106293793D01*
X141287671Y-106293797D01*
X141422517Y-106344091D01*
X141422516Y-106344091D01*
X141429444Y-106344835D01*
X141482127Y-106350500D01*
X143277872Y-106350499D01*
X143337483Y-106344091D01*
X143472331Y-106293796D01*
X143587546Y-106207546D01*
X143673796Y-106092331D01*
X143722810Y-105960916D01*
X143764681Y-105904984D01*
X143830145Y-105880566D01*
X143898418Y-105895417D01*
X143926673Y-105916569D01*
X144040213Y-106030109D01*
X144212179Y-106155048D01*
X144212181Y-106155049D01*
X144212184Y-106155051D01*
X144401588Y-106251557D01*
X144603757Y-106317246D01*
X144813713Y-106350500D01*
X144813714Y-106350500D01*
X145026286Y-106350500D01*
X145026287Y-106350500D01*
X145236243Y-106317246D01*
X145438412Y-106251557D01*
X145627816Y-106155051D01*
X145714138Y-106092335D01*
X145799786Y-106030109D01*
X145799788Y-106030106D01*
X145799792Y-106030104D01*
X145950104Y-105879792D01*
X145950106Y-105879788D01*
X145950109Y-105879786D01*
X146075048Y-105707820D01*
X146075047Y-105707820D01*
X146075051Y-105707816D01*
X146079514Y-105699054D01*
X146127488Y-105648259D01*
X146195308Y-105631463D01*
X146261444Y-105653999D01*
X146300486Y-105699056D01*
X146304951Y-105707820D01*
X146429890Y-105879786D01*
X146580213Y-106030109D01*
X146752179Y-106155048D01*
X146752181Y-106155049D01*
X146752184Y-106155051D01*
X146941588Y-106251557D01*
X147143757Y-106317246D01*
X147353713Y-106350500D01*
X147353714Y-106350500D01*
X147566286Y-106350500D01*
X147566287Y-106350500D01*
X147776243Y-106317246D01*
X147978412Y-106251557D01*
X148167816Y-106155051D01*
X148254138Y-106092335D01*
X148339786Y-106030109D01*
X148339788Y-106030106D01*
X148339792Y-106030104D01*
X148490104Y-105879792D01*
X148490106Y-105879788D01*
X148490109Y-105879786D01*
X148575890Y-105761717D01*
X148615051Y-105707816D01*
X148619793Y-105698508D01*
X148667763Y-105647711D01*
X148735583Y-105630911D01*
X148801719Y-105653445D01*
X148840763Y-105698500D01*
X148845373Y-105707547D01*
X148884728Y-105761716D01*
X149517037Y-105129408D01*
X149534075Y-105192993D01*
X149599901Y-105307007D01*
X149692993Y-105400099D01*
X149807007Y-105465925D01*
X149870590Y-105482962D01*
X149238282Y-106115269D01*
X149238282Y-106115270D01*
X149292449Y-106154624D01*
X149481782Y-106251095D01*
X149683870Y-106316757D01*
X149893754Y-106350000D01*
X150106246Y-106350000D01*
X150316127Y-106316757D01*
X150316130Y-106316757D01*
X150518217Y-106251095D01*
X150707554Y-106154622D01*
X150761716Y-106115270D01*
X150761717Y-106115270D01*
X150129408Y-105482962D01*
X150192993Y-105465925D01*
X150307007Y-105400099D01*
X150400099Y-105307007D01*
X150465925Y-105192993D01*
X150482962Y-105129408D01*
X151115270Y-105761717D01*
X151115270Y-105761716D01*
X151154622Y-105707555D01*
X151159232Y-105698507D01*
X151207205Y-105647709D01*
X151275025Y-105630912D01*
X151341161Y-105653447D01*
X151380204Y-105698504D01*
X151384949Y-105707817D01*
X151509890Y-105879786D01*
X151660213Y-106030109D01*
X151832179Y-106155048D01*
X151832181Y-106155049D01*
X151832184Y-106155051D01*
X152021588Y-106251557D01*
X152223757Y-106317246D01*
X152433713Y-106350500D01*
X152433714Y-106350500D01*
X152646286Y-106350500D01*
X152646287Y-106350500D01*
X152856243Y-106317246D01*
X153058412Y-106251557D01*
X153247816Y-106155051D01*
X153334138Y-106092335D01*
X153419786Y-106030109D01*
X153419788Y-106030106D01*
X153419792Y-106030104D01*
X153570104Y-105879792D01*
X153570106Y-105879788D01*
X153570109Y-105879786D01*
X153695048Y-105707820D01*
X153695047Y-105707820D01*
X153695051Y-105707816D01*
X153791557Y-105518412D01*
X153857246Y-105316243D01*
X153890500Y-105106287D01*
X153890500Y-104893713D01*
X153857246Y-104683757D01*
X153791557Y-104481588D01*
X153695051Y-104292184D01*
X153695049Y-104292181D01*
X153695048Y-104292179D01*
X153570109Y-104120213D01*
X153419786Y-103969890D01*
X153247820Y-103844951D01*
X153058414Y-103748444D01*
X153058413Y-103748443D01*
X153058412Y-103748443D01*
X152856243Y-103682754D01*
X152856241Y-103682753D01*
X152856240Y-103682753D01*
X152694957Y-103657208D01*
X152646287Y-103649500D01*
X152433713Y-103649500D01*
X152385042Y-103657208D01*
X152223760Y-103682753D01*
X152021585Y-103748444D01*
X151832179Y-103844951D01*
X151660213Y-103969890D01*
X151509890Y-104120213D01*
X151384949Y-104292182D01*
X151380202Y-104301499D01*
X151332227Y-104352293D01*
X151264405Y-104369087D01*
X151198271Y-104346548D01*
X151159234Y-104301495D01*
X151154626Y-104292452D01*
X151115270Y-104238282D01*
X151115269Y-104238282D01*
X150482962Y-104870590D01*
X150465925Y-104807007D01*
X150400099Y-104692993D01*
X150307007Y-104599901D01*
X150192993Y-104534075D01*
X150129409Y-104517037D01*
X150761716Y-103884728D01*
X150707550Y-103845375D01*
X150518217Y-103748904D01*
X150316129Y-103683242D01*
X150106246Y-103650000D01*
X149893754Y-103650000D01*
X149683872Y-103683242D01*
X149683869Y-103683242D01*
X149481782Y-103748904D01*
X149292439Y-103845380D01*
X149238282Y-103884727D01*
X149238282Y-103884728D01*
X149870591Y-104517037D01*
X149807007Y-104534075D01*
X149692993Y-104599901D01*
X149599901Y-104692993D01*
X149534075Y-104807007D01*
X149517037Y-104870591D01*
X148884728Y-104238282D01*
X148884727Y-104238282D01*
X148845380Y-104292440D01*
X148845376Y-104292446D01*
X148840760Y-104301505D01*
X148792781Y-104352297D01*
X148724959Y-104369087D01*
X148658826Y-104346543D01*
X148619794Y-104301493D01*
X148615051Y-104292184D01*
X148615049Y-104292181D01*
X148615048Y-104292179D01*
X148490109Y-104120213D01*
X148339786Y-103969890D01*
X148167820Y-103844951D01*
X147978414Y-103748444D01*
X147978413Y-103748443D01*
X147978412Y-103748443D01*
X147776243Y-103682754D01*
X147776241Y-103682753D01*
X147776240Y-103682753D01*
X147614957Y-103657208D01*
X147566287Y-103649500D01*
X147353713Y-103649500D01*
X147305042Y-103657208D01*
X147143760Y-103682753D01*
X146941585Y-103748444D01*
X146752179Y-103844951D01*
X146580213Y-103969890D01*
X146429890Y-104120213D01*
X146304949Y-104292182D01*
X146300484Y-104300946D01*
X146252509Y-104351742D01*
X146184688Y-104368536D01*
X146118553Y-104345998D01*
X146079516Y-104300946D01*
X146075050Y-104292182D01*
X145950109Y-104120213D01*
X145799786Y-103969890D01*
X145627820Y-103844951D01*
X145438414Y-103748444D01*
X145438413Y-103748443D01*
X145438412Y-103748443D01*
X145236243Y-103682754D01*
X145236241Y-103682753D01*
X145236240Y-103682753D01*
X145074957Y-103657208D01*
X145026287Y-103649500D01*
X144813713Y-103649500D01*
X144765042Y-103657208D01*
X144603760Y-103682753D01*
X144401585Y-103748444D01*
X144212179Y-103844951D01*
X144040215Y-103969889D01*
X143926673Y-104083431D01*
X143865350Y-104116915D01*
X143795658Y-104111931D01*
X143739725Y-104070059D01*
X143722810Y-104039082D01*
X143673797Y-103907671D01*
X143673793Y-103907664D01*
X143587547Y-103792455D01*
X143587544Y-103792452D01*
X143472335Y-103706206D01*
X143472328Y-103706202D01*
X143337482Y-103655908D01*
X143337483Y-103655908D01*
X143277883Y-103649501D01*
X143277881Y-103649500D01*
X143277873Y-103649500D01*
X143277864Y-103649500D01*
X141482129Y-103649500D01*
X141482123Y-103649501D01*
X141422516Y-103655908D01*
X141287671Y-103706202D01*
X141287664Y-103706206D01*
X141172455Y-103792452D01*
X141172452Y-103792455D01*
X141086206Y-103907664D01*
X141086202Y-103907671D01*
X141035908Y-104042517D01*
X141029501Y-104102116D01*
X141029500Y-104102135D01*
X111987728Y-104102135D01*
X111913736Y-103874411D01*
X111913734Y-103874408D01*
X111913734Y-103874406D01*
X111816081Y-103682754D01*
X111804724Y-103660464D01*
X111663586Y-103466204D01*
X111493796Y-103296414D01*
X111299536Y-103155276D01*
X111085593Y-103046265D01*
X110857222Y-102972063D01*
X110620059Y-102934500D01*
X110379941Y-102934500D01*
X110261359Y-102953281D01*
X110142777Y-102972063D01*
X109914406Y-103046265D01*
X109700463Y-103155276D01*
X109506201Y-103296416D01*
X109336416Y-103466201D01*
X109195276Y-103660463D01*
X109086265Y-103874406D01*
X109012063Y-104102777D01*
X108974500Y-104339941D01*
X106500500Y-104339941D01*
X106500500Y-103001141D01*
X106520185Y-102934102D01*
X106572989Y-102888347D01*
X106634230Y-102877523D01*
X106647851Y-102878595D01*
X107205884Y-102320561D01*
X107206740Y-102322626D01*
X107299762Y-102461844D01*
X107418156Y-102580238D01*
X107557374Y-102673260D01*
X107559437Y-102674114D01*
X107001402Y-103232148D01*
X107108313Y-103309824D01*
X107336215Y-103425947D01*
X107336218Y-103425948D01*
X107579476Y-103504986D01*
X107832111Y-103545000D01*
X108087889Y-103545000D01*
X108340523Y-103504986D01*
X108583781Y-103425948D01*
X108583784Y-103425947D01*
X108811685Y-103309825D01*
X108918595Y-103232148D01*
X108918596Y-103232148D01*
X108360562Y-102674114D01*
X108362626Y-102673260D01*
X108501844Y-102580238D01*
X108620238Y-102461844D01*
X108713260Y-102322626D01*
X108714114Y-102320562D01*
X109272148Y-102878596D01*
X109272148Y-102878595D01*
X109349825Y-102771685D01*
X109465947Y-102543784D01*
X109465948Y-102543781D01*
X109544986Y-102300523D01*
X109585000Y-102047889D01*
X109585000Y-101792110D01*
X111415000Y-101792110D01*
X111415000Y-102047889D01*
X111455013Y-102300523D01*
X111534051Y-102543781D01*
X111534052Y-102543784D01*
X111650175Y-102771686D01*
X111727850Y-102878595D01*
X111727850Y-102878596D01*
X112285884Y-102320561D01*
X112286740Y-102322626D01*
X112379762Y-102461844D01*
X112498156Y-102580238D01*
X112637374Y-102673260D01*
X112639437Y-102674114D01*
X112081402Y-103232148D01*
X112188313Y-103309824D01*
X112416215Y-103425947D01*
X112416218Y-103425948D01*
X112659476Y-103504986D01*
X112912111Y-103545000D01*
X113167889Y-103545000D01*
X113420523Y-103504986D01*
X113663781Y-103425948D01*
X113663784Y-103425947D01*
X113891685Y-103309825D01*
X113998595Y-103232148D01*
X113998596Y-103232148D01*
X113440562Y-102674114D01*
X113442626Y-102673260D01*
X113581844Y-102580238D01*
X113700238Y-102461844D01*
X113793260Y-102322626D01*
X113794114Y-102320562D01*
X114352148Y-102878596D01*
X114352148Y-102878595D01*
X114429825Y-102771685D01*
X114545947Y-102543784D01*
X114545948Y-102543781D01*
X114624986Y-102300523D01*
X114665000Y-102047889D01*
X114665000Y-101921153D01*
X174199500Y-101921153D01*
X174199500Y-102078846D01*
X174230261Y-102233489D01*
X174230264Y-102233501D01*
X174290602Y-102379172D01*
X174290609Y-102379185D01*
X174378210Y-102510288D01*
X174378213Y-102510292D01*
X174489707Y-102621786D01*
X174489711Y-102621789D01*
X174620814Y-102709390D01*
X174620827Y-102709397D01*
X174766498Y-102769735D01*
X174766503Y-102769737D01*
X174921153Y-102800499D01*
X174921156Y-102800500D01*
X174921158Y-102800500D01*
X175078844Y-102800500D01*
X175078845Y-102800499D01*
X175233497Y-102769737D01*
X175379179Y-102709394D01*
X175510289Y-102621789D01*
X175621789Y-102510289D01*
X175709394Y-102379179D01*
X175769737Y-102233497D01*
X175800500Y-102078842D01*
X175800500Y-101921158D01*
X175800500Y-101921155D01*
X175800499Y-101921153D01*
X175783617Y-101836282D01*
X175769737Y-101766503D01*
X175769735Y-101766498D01*
X175709397Y-101620827D01*
X175709390Y-101620814D01*
X175621789Y-101489711D01*
X175621786Y-101489707D01*
X175510292Y-101378213D01*
X175510288Y-101378210D01*
X175379185Y-101290609D01*
X175379172Y-101290602D01*
X175233501Y-101230264D01*
X175233489Y-101230261D01*
X175078845Y-101199500D01*
X175078842Y-101199500D01*
X174921158Y-101199500D01*
X174921155Y-101199500D01*
X174766510Y-101230261D01*
X174766498Y-101230264D01*
X174620827Y-101290602D01*
X174620814Y-101290609D01*
X174489711Y-101378210D01*
X174489707Y-101378213D01*
X174378213Y-101489707D01*
X174378210Y-101489711D01*
X174290609Y-101620814D01*
X174290602Y-101620827D01*
X174230264Y-101766498D01*
X174230261Y-101766510D01*
X174199500Y-101921153D01*
X114665000Y-101921153D01*
X114665000Y-101792110D01*
X114624986Y-101539476D01*
X114545948Y-101296218D01*
X114545947Y-101296215D01*
X114429824Y-101068313D01*
X114352148Y-100961403D01*
X114352148Y-100961402D01*
X113794114Y-101519436D01*
X113793260Y-101517374D01*
X113700238Y-101378156D01*
X113581844Y-101259762D01*
X113442626Y-101166740D01*
X113440560Y-101165884D01*
X113998596Y-100607850D01*
X113891686Y-100530175D01*
X113663784Y-100414052D01*
X113663781Y-100414051D01*
X113420523Y-100335013D01*
X113167889Y-100295000D01*
X112912111Y-100295000D01*
X112659476Y-100335013D01*
X112416218Y-100414051D01*
X112416215Y-100414052D01*
X112188310Y-100530177D01*
X112081403Y-100607849D01*
X112081402Y-100607850D01*
X112639437Y-101165885D01*
X112637374Y-101166740D01*
X112498156Y-101259762D01*
X112379762Y-101378156D01*
X112286740Y-101517374D01*
X112285885Y-101519437D01*
X111727850Y-100961402D01*
X111727849Y-100961403D01*
X111650177Y-101068310D01*
X111534052Y-101296215D01*
X111534051Y-101296218D01*
X111455013Y-101539476D01*
X111415000Y-101792110D01*
X109585000Y-101792110D01*
X109544986Y-101539476D01*
X109465948Y-101296218D01*
X109465947Y-101296215D01*
X109349824Y-101068313D01*
X109272148Y-100961403D01*
X109272148Y-100961402D01*
X108714114Y-101519436D01*
X108713260Y-101517374D01*
X108620238Y-101378156D01*
X108501844Y-101259762D01*
X108362626Y-101166740D01*
X108360560Y-101165884D01*
X108918596Y-100607850D01*
X108811686Y-100530175D01*
X108583784Y-100414052D01*
X108583781Y-100414051D01*
X108340523Y-100335013D01*
X108087889Y-100295000D01*
X107832111Y-100295000D01*
X107579476Y-100335013D01*
X107336218Y-100414051D01*
X107336215Y-100414052D01*
X107108310Y-100530177D01*
X107001403Y-100607849D01*
X107001402Y-100607850D01*
X107559437Y-101165885D01*
X107557374Y-101166740D01*
X107418156Y-101259762D01*
X107299762Y-101378156D01*
X107206740Y-101517374D01*
X107205885Y-101519438D01*
X106647849Y-100961402D01*
X106634227Y-100962474D01*
X106620617Y-100959614D01*
X106606853Y-100961594D01*
X106587100Y-100952573D01*
X106565850Y-100948109D01*
X106555946Y-100938345D01*
X106543297Y-100932569D01*
X106531557Y-100914301D01*
X106516094Y-100899057D01*
X106512267Y-100884286D01*
X106505523Y-100873791D01*
X106500500Y-100838856D01*
X106500500Y-99421153D01*
X174699500Y-99421153D01*
X174699500Y-99578846D01*
X174730261Y-99733489D01*
X174730264Y-99733501D01*
X174790602Y-99879172D01*
X174790609Y-99879185D01*
X174878210Y-100010288D01*
X174878213Y-100010292D01*
X174989707Y-100121786D01*
X174989711Y-100121789D01*
X175120814Y-100209390D01*
X175120827Y-100209397D01*
X175266498Y-100269735D01*
X175266503Y-100269737D01*
X175393508Y-100295000D01*
X175421153Y-100300499D01*
X175421156Y-100300500D01*
X175421158Y-100300500D01*
X175578844Y-100300500D01*
X175578845Y-100300499D01*
X175733497Y-100269737D01*
X175879179Y-100209394D01*
X176010289Y-100121789D01*
X176121789Y-100010289D01*
X176209394Y-99879179D01*
X176269737Y-99733497D01*
X176300500Y-99578842D01*
X176300500Y-99421158D01*
X176300500Y-99421155D01*
X176300499Y-99421153D01*
X176269738Y-99266510D01*
X176269737Y-99266503D01*
X176269735Y-99266498D01*
X176209397Y-99120827D01*
X176209390Y-99120814D01*
X176121789Y-98989711D01*
X176121786Y-98989707D01*
X176010292Y-98878213D01*
X176010288Y-98878210D01*
X175879185Y-98790609D01*
X175879172Y-98790602D01*
X175733501Y-98730264D01*
X175733489Y-98730261D01*
X175578845Y-98699500D01*
X175578842Y-98699500D01*
X175421158Y-98699500D01*
X175421155Y-98699500D01*
X175266510Y-98730261D01*
X175266498Y-98730264D01*
X175120827Y-98790602D01*
X175120814Y-98790609D01*
X174989711Y-98878210D01*
X174989707Y-98878213D01*
X174878213Y-98989707D01*
X174878210Y-98989711D01*
X174790609Y-99120814D01*
X174790602Y-99120827D01*
X174730264Y-99266498D01*
X174730261Y-99266510D01*
X174699500Y-99421153D01*
X106500500Y-99421153D01*
X106500500Y-96921153D01*
X169199500Y-96921153D01*
X169199500Y-97078846D01*
X169230261Y-97233489D01*
X169230264Y-97233501D01*
X169290602Y-97379172D01*
X169290609Y-97379185D01*
X169378210Y-97510288D01*
X169378213Y-97510292D01*
X169489707Y-97621786D01*
X169489711Y-97621789D01*
X169620814Y-97709390D01*
X169620827Y-97709397D01*
X169766498Y-97769735D01*
X169766503Y-97769737D01*
X169921153Y-97800499D01*
X169921156Y-97800500D01*
X169921158Y-97800500D01*
X170078844Y-97800500D01*
X170078845Y-97800499D01*
X170233497Y-97769737D01*
X170379179Y-97709394D01*
X170431110Y-97674694D01*
X170497785Y-97653816D01*
X170565165Y-97672300D01*
X170568863Y-97674676D01*
X170620821Y-97709394D01*
X170620823Y-97709395D01*
X170620825Y-97709396D01*
X170766498Y-97769735D01*
X170766503Y-97769737D01*
X170921153Y-97800499D01*
X170921156Y-97800500D01*
X170921158Y-97800500D01*
X171078844Y-97800500D01*
X171078845Y-97800499D01*
X171233497Y-97769737D01*
X171379179Y-97709394D01*
X171510289Y-97621789D01*
X171621789Y-97510289D01*
X171709394Y-97379179D01*
X171769737Y-97233497D01*
X171800500Y-97078842D01*
X171800500Y-96921158D01*
X171800500Y-96921155D01*
X171800499Y-96921153D01*
X171769738Y-96766510D01*
X171769737Y-96766503D01*
X171709794Y-96621786D01*
X171709397Y-96620827D01*
X171709390Y-96620814D01*
X171621789Y-96489711D01*
X171621786Y-96489707D01*
X171510292Y-96378213D01*
X171510288Y-96378210D01*
X171379185Y-96290609D01*
X171379172Y-96290602D01*
X171233501Y-96230264D01*
X171233489Y-96230261D01*
X171078845Y-96199500D01*
X171078842Y-96199500D01*
X170921158Y-96199500D01*
X170921155Y-96199500D01*
X170766510Y-96230261D01*
X170766498Y-96230264D01*
X170620827Y-96290602D01*
X170620814Y-96290609D01*
X170568891Y-96325304D01*
X170502214Y-96346182D01*
X170434833Y-96327698D01*
X170431109Y-96325304D01*
X170379185Y-96290609D01*
X170379172Y-96290602D01*
X170233501Y-96230264D01*
X170233489Y-96230261D01*
X170078845Y-96199500D01*
X170078842Y-96199500D01*
X169921158Y-96199500D01*
X169921155Y-96199500D01*
X169766510Y-96230261D01*
X169766498Y-96230264D01*
X169620827Y-96290602D01*
X169620814Y-96290609D01*
X169489711Y-96378210D01*
X169489707Y-96378213D01*
X169378213Y-96489707D01*
X169378210Y-96489711D01*
X169290609Y-96620814D01*
X169290602Y-96620827D01*
X169230264Y-96766498D01*
X169230261Y-96766510D01*
X169199500Y-96921153D01*
X106500500Y-96921153D01*
X106500500Y-95921153D01*
X174699500Y-95921153D01*
X174699500Y-96078846D01*
X174730261Y-96233489D01*
X174730264Y-96233501D01*
X174790602Y-96379172D01*
X174790609Y-96379185D01*
X174878210Y-96510288D01*
X174878213Y-96510292D01*
X174989707Y-96621786D01*
X174989711Y-96621789D01*
X175120814Y-96709390D01*
X175120827Y-96709397D01*
X175258683Y-96766498D01*
X175266503Y-96769737D01*
X175421153Y-96800499D01*
X175421156Y-96800500D01*
X175421158Y-96800500D01*
X175578844Y-96800500D01*
X175578845Y-96800499D01*
X175733497Y-96769737D01*
X175879179Y-96709394D01*
X176010289Y-96621789D01*
X176121789Y-96510289D01*
X176209394Y-96379179D01*
X176269737Y-96233497D01*
X176300500Y-96078842D01*
X176300500Y-95921158D01*
X176300500Y-95921155D01*
X176300499Y-95921153D01*
X176269738Y-95766510D01*
X176269737Y-95766503D01*
X176269735Y-95766498D01*
X176209397Y-95620827D01*
X176209390Y-95620814D01*
X176121789Y-95489711D01*
X176121786Y-95489707D01*
X176010292Y-95378213D01*
X176010288Y-95378210D01*
X175879185Y-95290609D01*
X175879172Y-95290602D01*
X175733501Y-95230264D01*
X175733489Y-95230261D01*
X175578845Y-95199500D01*
X175578842Y-95199500D01*
X175421158Y-95199500D01*
X175421155Y-95199500D01*
X175266510Y-95230261D01*
X175266498Y-95230264D01*
X175120827Y-95290602D01*
X175120814Y-95290609D01*
X174989711Y-95378210D01*
X174989707Y-95378213D01*
X174878213Y-95489707D01*
X174878210Y-95489711D01*
X174790609Y-95620814D01*
X174790602Y-95620827D01*
X174730264Y-95766498D01*
X174730261Y-95766510D01*
X174699500Y-95921153D01*
X106500500Y-95921153D01*
X106500500Y-93421153D01*
X125699500Y-93421153D01*
X125699500Y-93578846D01*
X125730261Y-93733489D01*
X125730264Y-93733501D01*
X125790602Y-93879172D01*
X125790609Y-93879185D01*
X125878210Y-94010288D01*
X125878213Y-94010292D01*
X125989707Y-94121786D01*
X125989711Y-94121789D01*
X126120814Y-94209390D01*
X126120827Y-94209397D01*
X126266498Y-94269735D01*
X126266503Y-94269737D01*
X126421153Y-94300499D01*
X126421156Y-94300500D01*
X126421158Y-94300500D01*
X126578844Y-94300500D01*
X126578845Y-94300499D01*
X126733497Y-94269737D01*
X126879179Y-94209394D01*
X127010289Y-94121789D01*
X127121789Y-94010289D01*
X127209394Y-93879179D01*
X127269737Y-93733497D01*
X127300500Y-93578842D01*
X127300500Y-93424500D01*
X127320185Y-93357461D01*
X127372989Y-93311706D01*
X127424500Y-93300500D01*
X127578844Y-93300500D01*
X127578845Y-93300499D01*
X127733497Y-93269737D01*
X127879179Y-93209394D01*
X128010289Y-93121789D01*
X128121789Y-93010289D01*
X128209394Y-92879179D01*
X128269737Y-92733497D01*
X128300500Y-92578842D01*
X128300500Y-92421158D01*
X128300500Y-92421155D01*
X128300499Y-92421153D01*
X128269738Y-92266510D01*
X128269737Y-92266503D01*
X128243731Y-92203718D01*
X128209397Y-92120827D01*
X128209390Y-92120814D01*
X128166169Y-92056129D01*
X128123392Y-91992110D01*
X180875000Y-91992110D01*
X180875000Y-92247889D01*
X180915013Y-92500523D01*
X180994051Y-92743781D01*
X180994052Y-92743784D01*
X181110175Y-92971686D01*
X181187850Y-93078595D01*
X181187850Y-93078596D01*
X181745884Y-92520561D01*
X181746740Y-92522626D01*
X181839762Y-92661844D01*
X181958156Y-92780238D01*
X182097374Y-92873260D01*
X182099437Y-92874114D01*
X181541402Y-93432148D01*
X181648313Y-93509824D01*
X181876215Y-93625947D01*
X181876218Y-93625948D01*
X182119476Y-93704986D01*
X182372111Y-93745000D01*
X182627889Y-93745000D01*
X182880523Y-93704986D01*
X183123781Y-93625948D01*
X183123784Y-93625947D01*
X183351685Y-93509825D01*
X183458595Y-93432148D01*
X183458596Y-93432148D01*
X182900562Y-92874114D01*
X182902626Y-92873260D01*
X183041844Y-92780238D01*
X183160238Y-92661844D01*
X183253260Y-92522626D01*
X183254114Y-92520562D01*
X183812148Y-93078596D01*
X183812148Y-93078595D01*
X183889825Y-92971685D01*
X184005947Y-92743784D01*
X184005948Y-92743781D01*
X184084986Y-92500523D01*
X184125000Y-92247889D01*
X184125000Y-91992110D01*
X185955000Y-91992110D01*
X185955000Y-92247889D01*
X185995013Y-92500523D01*
X186074051Y-92743781D01*
X186074052Y-92743784D01*
X186190175Y-92971686D01*
X186267850Y-93078595D01*
X186267850Y-93078596D01*
X186825884Y-92520561D01*
X186826740Y-92522626D01*
X186919762Y-92661844D01*
X187038156Y-92780238D01*
X187177374Y-92873260D01*
X187179437Y-92874114D01*
X186621402Y-93432148D01*
X186728313Y-93509824D01*
X186956215Y-93625947D01*
X186956218Y-93625948D01*
X187199476Y-93704986D01*
X187452111Y-93745000D01*
X187707889Y-93745000D01*
X187960523Y-93704986D01*
X188203781Y-93625948D01*
X188203784Y-93625947D01*
X188431685Y-93509825D01*
X188538595Y-93432148D01*
X188538596Y-93432148D01*
X187980562Y-92874114D01*
X187982626Y-92873260D01*
X188121844Y-92780238D01*
X188240238Y-92661844D01*
X188333260Y-92522626D01*
X188334114Y-92520562D01*
X188892148Y-93078596D01*
X188892148Y-93078595D01*
X188969825Y-92971685D01*
X189085947Y-92743784D01*
X189085948Y-92743781D01*
X189164986Y-92500523D01*
X189205000Y-92247889D01*
X189205000Y-91992110D01*
X189164986Y-91739476D01*
X189085948Y-91496218D01*
X189085947Y-91496215D01*
X188969824Y-91268313D01*
X188892148Y-91161403D01*
X188892148Y-91161402D01*
X188334114Y-91719436D01*
X188333260Y-91717374D01*
X188240238Y-91578156D01*
X188121844Y-91459762D01*
X187982626Y-91366740D01*
X187980560Y-91365884D01*
X188538596Y-90807850D01*
X188431686Y-90730175D01*
X188203784Y-90614052D01*
X188203781Y-90614051D01*
X187960523Y-90535013D01*
X187707889Y-90495000D01*
X187452111Y-90495000D01*
X187199476Y-90535013D01*
X186956218Y-90614051D01*
X186956215Y-90614052D01*
X186728310Y-90730177D01*
X186621403Y-90807849D01*
X186621402Y-90807850D01*
X187179437Y-91365885D01*
X187177374Y-91366740D01*
X187038156Y-91459762D01*
X186919762Y-91578156D01*
X186826740Y-91717374D01*
X186825885Y-91719437D01*
X186267850Y-91161402D01*
X186267849Y-91161403D01*
X186190177Y-91268310D01*
X186074052Y-91496215D01*
X186074051Y-91496218D01*
X185995013Y-91739476D01*
X185955000Y-91992110D01*
X184125000Y-91992110D01*
X184084986Y-91739476D01*
X184005948Y-91496218D01*
X184005947Y-91496215D01*
X183889824Y-91268313D01*
X183812148Y-91161403D01*
X183812148Y-91161402D01*
X183254114Y-91719436D01*
X183253260Y-91717374D01*
X183160238Y-91578156D01*
X183041844Y-91459762D01*
X182902626Y-91366740D01*
X182900560Y-91365884D01*
X183458596Y-90807850D01*
X183351686Y-90730175D01*
X183123784Y-90614052D01*
X183123781Y-90614051D01*
X182880523Y-90535013D01*
X182627889Y-90495000D01*
X182372111Y-90495000D01*
X182119476Y-90535013D01*
X181876218Y-90614051D01*
X181876215Y-90614052D01*
X181648310Y-90730177D01*
X181541403Y-90807849D01*
X181541402Y-90807850D01*
X182099437Y-91365885D01*
X182097374Y-91366740D01*
X181958156Y-91459762D01*
X181839762Y-91578156D01*
X181746740Y-91717374D01*
X181745885Y-91719437D01*
X181187850Y-91161402D01*
X181187849Y-91161403D01*
X181110177Y-91268310D01*
X180994052Y-91496215D01*
X180994051Y-91496218D01*
X180915013Y-91739476D01*
X180875000Y-91992110D01*
X128123392Y-91992110D01*
X128121789Y-91989711D01*
X128121786Y-91989707D01*
X128010292Y-91878213D01*
X128010288Y-91878210D01*
X127879185Y-91790609D01*
X127879172Y-91790602D01*
X127733501Y-91730264D01*
X127733489Y-91730261D01*
X127578845Y-91699500D01*
X127578842Y-91699500D01*
X127421158Y-91699500D01*
X127421155Y-91699500D01*
X127266510Y-91730261D01*
X127266498Y-91730264D01*
X127120827Y-91790602D01*
X127120814Y-91790609D01*
X126989711Y-91878210D01*
X126989707Y-91878213D01*
X126878213Y-91989707D01*
X126878210Y-91989711D01*
X126790609Y-92120814D01*
X126790602Y-92120827D01*
X126730264Y-92266498D01*
X126730261Y-92266510D01*
X126699500Y-92421153D01*
X126699500Y-92575500D01*
X126679815Y-92642539D01*
X126627011Y-92688294D01*
X126575500Y-92699500D01*
X126421155Y-92699500D01*
X126266510Y-92730261D01*
X126266498Y-92730264D01*
X126120827Y-92790602D01*
X126120814Y-92790609D01*
X125989711Y-92878210D01*
X125989707Y-92878213D01*
X125878213Y-92989707D01*
X125878210Y-92989711D01*
X125790609Y-93120814D01*
X125790602Y-93120827D01*
X125730264Y-93266498D01*
X125730261Y-93266510D01*
X125699500Y-93421153D01*
X106500500Y-93421153D01*
X106500500Y-90028403D01*
X145592250Y-90028403D01*
X145592250Y-90186096D01*
X145623011Y-90340739D01*
X145623014Y-90340751D01*
X145683352Y-90486422D01*
X145683359Y-90486435D01*
X145770960Y-90617538D01*
X145770963Y-90617542D01*
X145882457Y-90729036D01*
X145882461Y-90729039D01*
X146013564Y-90816640D01*
X146013577Y-90816647D01*
X146159248Y-90876985D01*
X146159253Y-90876987D01*
X146313903Y-90907749D01*
X146313906Y-90907750D01*
X146313908Y-90907750D01*
X146471594Y-90907750D01*
X146471595Y-90907749D01*
X146626247Y-90876987D01*
X146771929Y-90816644D01*
X146864497Y-90754792D01*
X146868664Y-90752008D01*
X146881274Y-90743582D01*
X146903039Y-90729039D01*
X147014539Y-90617539D01*
X147102144Y-90486429D01*
X147162487Y-90340747D01*
X147193250Y-90186092D01*
X147193250Y-90028408D01*
X147193250Y-90028405D01*
X147193249Y-90028403D01*
X147184317Y-89983501D01*
X147162487Y-89873753D01*
X147143885Y-89828844D01*
X147102147Y-89728077D01*
X147102140Y-89728064D01*
X147051340Y-89652037D01*
X147030462Y-89585360D01*
X147048946Y-89517979D01*
X147100925Y-89471289D01*
X147106975Y-89468591D01*
X147129179Y-89459394D01*
X147186411Y-89421153D01*
X148699500Y-89421153D01*
X148699500Y-89578846D01*
X148730261Y-89733489D01*
X148730264Y-89733501D01*
X148790602Y-89879172D01*
X148790609Y-89879185D01*
X148878210Y-90010288D01*
X148878213Y-90010292D01*
X148989707Y-90121786D01*
X148989711Y-90121789D01*
X149120814Y-90209390D01*
X149120827Y-90209397D01*
X149266498Y-90269735D01*
X149266503Y-90269737D01*
X149421153Y-90300499D01*
X149421156Y-90300500D01*
X149421158Y-90300500D01*
X149578844Y-90300500D01*
X149578845Y-90300499D01*
X149733497Y-90269737D01*
X149879179Y-90209394D01*
X150010289Y-90121789D01*
X150121789Y-90010289D01*
X150209394Y-89879179D01*
X150269737Y-89733497D01*
X150282138Y-89671153D01*
X151449500Y-89671153D01*
X151449500Y-89828846D01*
X151480261Y-89983489D01*
X151480264Y-89983501D01*
X151540602Y-90129172D01*
X151540609Y-90129185D01*
X151628210Y-90260288D01*
X151628213Y-90260292D01*
X151739707Y-90371786D01*
X151739711Y-90371789D01*
X151870814Y-90459390D01*
X151870827Y-90459397D01*
X151956782Y-90495000D01*
X152016503Y-90519737D01*
X152171153Y-90550499D01*
X152171156Y-90550500D01*
X152171158Y-90550500D01*
X152328844Y-90550500D01*
X152328845Y-90550499D01*
X152483497Y-90519737D01*
X152629179Y-90459394D01*
X152760289Y-90371789D01*
X152871789Y-90260289D01*
X152959394Y-90129179D01*
X153019737Y-89983497D01*
X153050500Y-89828842D01*
X153050500Y-89671158D01*
X153050500Y-89671155D01*
X153050499Y-89671153D01*
X153035740Y-89596957D01*
X153019737Y-89516503D01*
X152996308Y-89459941D01*
X183514500Y-89459941D01*
X183514500Y-89700059D01*
X183542012Y-89873760D01*
X183552063Y-89937222D01*
X183626265Y-90165593D01*
X183695004Y-90300499D01*
X183735276Y-90379536D01*
X183876414Y-90573796D01*
X184046204Y-90743586D01*
X184240464Y-90884724D01*
X184285653Y-90907749D01*
X184454406Y-90993734D01*
X184454408Y-90993734D01*
X184454411Y-90993736D01*
X184682778Y-91067937D01*
X184919941Y-91105500D01*
X184919942Y-91105500D01*
X185160058Y-91105500D01*
X185160059Y-91105500D01*
X185397222Y-91067937D01*
X185625589Y-90993736D01*
X185839536Y-90884724D01*
X186033796Y-90743586D01*
X186203586Y-90573796D01*
X186344724Y-90379536D01*
X186453736Y-90165589D01*
X186527937Y-89937222D01*
X186565500Y-89700059D01*
X186565500Y-89459941D01*
X186527937Y-89222778D01*
X186453736Y-88994411D01*
X186453734Y-88994408D01*
X186453734Y-88994406D01*
X186349893Y-88790609D01*
X186344724Y-88780464D01*
X186203586Y-88586204D01*
X186033796Y-88416414D01*
X185839536Y-88275276D01*
X185625593Y-88166265D01*
X185397222Y-88092063D01*
X185160059Y-88054500D01*
X184919941Y-88054500D01*
X184801359Y-88073281D01*
X184682777Y-88092063D01*
X184454406Y-88166265D01*
X184240463Y-88275276D01*
X184046201Y-88416416D01*
X183876416Y-88586201D01*
X183735276Y-88780463D01*
X183626265Y-88994406D01*
X183552063Y-89222777D01*
X183544284Y-89271890D01*
X183514500Y-89459941D01*
X152996308Y-89459941D01*
X152980242Y-89421153D01*
X152959397Y-89370827D01*
X152959390Y-89370814D01*
X152871789Y-89239711D01*
X152871786Y-89239707D01*
X152760292Y-89128213D01*
X152760288Y-89128210D01*
X152629185Y-89040609D01*
X152629172Y-89040602D01*
X152483501Y-88980264D01*
X152483489Y-88980261D01*
X152328845Y-88949500D01*
X152328842Y-88949500D01*
X152171158Y-88949500D01*
X152171155Y-88949500D01*
X152016510Y-88980261D01*
X152016498Y-88980264D01*
X151870827Y-89040602D01*
X151870814Y-89040609D01*
X151739711Y-89128210D01*
X151739707Y-89128213D01*
X151628213Y-89239707D01*
X151628210Y-89239711D01*
X151540609Y-89370814D01*
X151540602Y-89370827D01*
X151480264Y-89516498D01*
X151480261Y-89516510D01*
X151449500Y-89671153D01*
X150282138Y-89671153D01*
X150296897Y-89596957D01*
X150300500Y-89578844D01*
X150300500Y-89421155D01*
X150300499Y-89421153D01*
X150269737Y-89266503D01*
X150267163Y-89260288D01*
X150209397Y-89120827D01*
X150209390Y-89120814D01*
X150121789Y-88989711D01*
X150121786Y-88989707D01*
X150010292Y-88878213D01*
X150010288Y-88878210D01*
X149879185Y-88790609D01*
X149879172Y-88790602D01*
X149733501Y-88730264D01*
X149733489Y-88730261D01*
X149578845Y-88699500D01*
X149578842Y-88699500D01*
X149421158Y-88699500D01*
X149421155Y-88699500D01*
X149266510Y-88730261D01*
X149266498Y-88730264D01*
X149120827Y-88790602D01*
X149120814Y-88790609D01*
X148989711Y-88878210D01*
X148989707Y-88878213D01*
X148878213Y-88989707D01*
X148878210Y-88989711D01*
X148790609Y-89120814D01*
X148790602Y-89120827D01*
X148730264Y-89266498D01*
X148730261Y-89266510D01*
X148699500Y-89421153D01*
X147186411Y-89421153D01*
X147260289Y-89371789D01*
X147261264Y-89370814D01*
X147304694Y-89327385D01*
X147371786Y-89260292D01*
X147371789Y-89260289D01*
X147459394Y-89129179D01*
X147462854Y-89120827D01*
X147473067Y-89096166D01*
X147519737Y-88983497D01*
X147550500Y-88828842D01*
X147550500Y-88671158D01*
X147550500Y-88671155D01*
X147550499Y-88671153D01*
X147525594Y-88545948D01*
X147519737Y-88516503D01*
X147473637Y-88405207D01*
X147459397Y-88370827D01*
X147459389Y-88370813D01*
X147371789Y-88239711D01*
X147371786Y-88239707D01*
X147260292Y-88128213D01*
X147260288Y-88128210D01*
X147129185Y-88040609D01*
X147129172Y-88040602D01*
X146983501Y-87980264D01*
X146983489Y-87980261D01*
X146828845Y-87949500D01*
X146828842Y-87949500D01*
X146671158Y-87949500D01*
X146671155Y-87949500D01*
X146516510Y-87980261D01*
X146516498Y-87980264D01*
X146370827Y-88040602D01*
X146370814Y-88040609D01*
X146239711Y-88128210D01*
X146239707Y-88128213D01*
X146128213Y-88239707D01*
X146128210Y-88239711D01*
X146040609Y-88370814D01*
X146040602Y-88370827D01*
X145980264Y-88516498D01*
X145980261Y-88516510D01*
X145949500Y-88671153D01*
X145949500Y-88828846D01*
X145980261Y-88983489D01*
X145980264Y-88983501D01*
X146040602Y-89129172D01*
X146040609Y-89129185D01*
X146091409Y-89205212D01*
X146112287Y-89271890D01*
X146093802Y-89339270D01*
X146041824Y-89385960D01*
X146035763Y-89388663D01*
X146013573Y-89397854D01*
X146013564Y-89397859D01*
X145882461Y-89485460D01*
X145882457Y-89485463D01*
X145770963Y-89596957D01*
X145770960Y-89596961D01*
X145683359Y-89728064D01*
X145683352Y-89728077D01*
X145623014Y-89873748D01*
X145623011Y-89873760D01*
X145592250Y-90028403D01*
X106500500Y-90028403D01*
X106500500Y-87496153D01*
X133274500Y-87496153D01*
X133274500Y-87653846D01*
X133305261Y-87808489D01*
X133305264Y-87808501D01*
X133365602Y-87954172D01*
X133365609Y-87954185D01*
X133453210Y-88085288D01*
X133453213Y-88085292D01*
X133564707Y-88196786D01*
X133564711Y-88196789D01*
X133695814Y-88284390D01*
X133695827Y-88284397D01*
X133841498Y-88344735D01*
X133841503Y-88344737D01*
X133996153Y-88375499D01*
X133996156Y-88375500D01*
X133996158Y-88375500D01*
X134153844Y-88375500D01*
X134153845Y-88375499D01*
X134308497Y-88344737D01*
X134454179Y-88284394D01*
X134585289Y-88196789D01*
X134696789Y-88085289D01*
X134784394Y-87954179D01*
X134814467Y-87881572D01*
X134858305Y-87827172D01*
X134881565Y-87814470D01*
X134954179Y-87784394D01*
X135085289Y-87696789D01*
X135196789Y-87585289D01*
X135284394Y-87454179D01*
X135344737Y-87308497D01*
X135344738Y-87308489D01*
X135346470Y-87304309D01*
X135390311Y-87249905D01*
X135456605Y-87227839D01*
X135524304Y-87245117D01*
X135529923Y-87248658D01*
X135620814Y-87309390D01*
X135620827Y-87309397D01*
X135766498Y-87369735D01*
X135766503Y-87369737D01*
X135921153Y-87400499D01*
X135921156Y-87400500D01*
X135921158Y-87400500D01*
X136078844Y-87400500D01*
X136197074Y-87376982D01*
X136266666Y-87383209D01*
X136321843Y-87426072D01*
X136324368Y-87429708D01*
X136378210Y-87510288D01*
X136378213Y-87510292D01*
X136489707Y-87621786D01*
X136489711Y-87621789D01*
X136620814Y-87709390D01*
X136620827Y-87709397D01*
X136766498Y-87769735D01*
X136766503Y-87769737D01*
X136921153Y-87800499D01*
X136921156Y-87800500D01*
X136921158Y-87800500D01*
X137078844Y-87800500D01*
X137078845Y-87800499D01*
X137233497Y-87769737D01*
X137379179Y-87709394D01*
X137510289Y-87621789D01*
X137621789Y-87510289D01*
X137709394Y-87379179D01*
X137769737Y-87233497D01*
X137800500Y-87078842D01*
X137800500Y-86921158D01*
X137800499Y-86921150D01*
X137798701Y-86912110D01*
X180875000Y-86912110D01*
X180875000Y-87167889D01*
X180915013Y-87420523D01*
X180994051Y-87663781D01*
X180994052Y-87663784D01*
X181110175Y-87891686D01*
X181187850Y-87998595D01*
X181187850Y-87998596D01*
X181745884Y-87440561D01*
X181746740Y-87442626D01*
X181839762Y-87581844D01*
X181958156Y-87700238D01*
X182097374Y-87793260D01*
X182099437Y-87794114D01*
X181541402Y-88352148D01*
X181648313Y-88429824D01*
X181876215Y-88545947D01*
X181876218Y-88545948D01*
X182119476Y-88624986D01*
X182372111Y-88665000D01*
X182627889Y-88665000D01*
X182880523Y-88624986D01*
X183123781Y-88545948D01*
X183123784Y-88545947D01*
X183351685Y-88429825D01*
X183458595Y-88352148D01*
X183458596Y-88352148D01*
X182900562Y-87794114D01*
X182902626Y-87793260D01*
X183041844Y-87700238D01*
X183160238Y-87581844D01*
X183253260Y-87442626D01*
X183254114Y-87440562D01*
X183812148Y-87998596D01*
X183812148Y-87998595D01*
X183889825Y-87891685D01*
X184005947Y-87663784D01*
X184005948Y-87663781D01*
X184084986Y-87420523D01*
X184125000Y-87167889D01*
X184125000Y-86912110D01*
X185955000Y-86912110D01*
X185955000Y-87167889D01*
X185995013Y-87420523D01*
X186074051Y-87663781D01*
X186074052Y-87663784D01*
X186190175Y-87891686D01*
X186267850Y-87998595D01*
X186267850Y-87998596D01*
X186825884Y-87440561D01*
X186826740Y-87442626D01*
X186919762Y-87581844D01*
X187038156Y-87700238D01*
X187177374Y-87793260D01*
X187179437Y-87794114D01*
X186621402Y-88352148D01*
X186728313Y-88429824D01*
X186956215Y-88545947D01*
X186956218Y-88545948D01*
X187199476Y-88624986D01*
X187452111Y-88665000D01*
X187707889Y-88665000D01*
X187960523Y-88624986D01*
X188203781Y-88545948D01*
X188203784Y-88545947D01*
X188431685Y-88429825D01*
X188538595Y-88352148D01*
X188538596Y-88352148D01*
X187980562Y-87794114D01*
X187982626Y-87793260D01*
X188121844Y-87700238D01*
X188240238Y-87581844D01*
X188333260Y-87442626D01*
X188334114Y-87440562D01*
X188892148Y-87998596D01*
X188892148Y-87998595D01*
X188969825Y-87891685D01*
X189085947Y-87663784D01*
X189085948Y-87663781D01*
X189164986Y-87420523D01*
X189205000Y-87167889D01*
X189205000Y-86912110D01*
X189164986Y-86659476D01*
X189085948Y-86416218D01*
X189085947Y-86416215D01*
X188969824Y-86188313D01*
X188892148Y-86081403D01*
X188892148Y-86081402D01*
X188334114Y-86639436D01*
X188333260Y-86637374D01*
X188240238Y-86498156D01*
X188121844Y-86379762D01*
X187982626Y-86286740D01*
X187980560Y-86285884D01*
X188538596Y-85727850D01*
X188431686Y-85650175D01*
X188203784Y-85534052D01*
X188203781Y-85534051D01*
X187960523Y-85455013D01*
X187707889Y-85415000D01*
X187452111Y-85415000D01*
X187199476Y-85455013D01*
X186956218Y-85534051D01*
X186956215Y-85534052D01*
X186728310Y-85650177D01*
X186621403Y-85727849D01*
X186621402Y-85727850D01*
X187179437Y-86285885D01*
X187177374Y-86286740D01*
X187038156Y-86379762D01*
X186919762Y-86498156D01*
X186826740Y-86637374D01*
X186825885Y-86639437D01*
X186267850Y-86081402D01*
X186267849Y-86081403D01*
X186190177Y-86188310D01*
X186074052Y-86416215D01*
X186074051Y-86416218D01*
X185995013Y-86659476D01*
X185955000Y-86912110D01*
X184125000Y-86912110D01*
X184084986Y-86659476D01*
X184005948Y-86416218D01*
X184005947Y-86416215D01*
X183889824Y-86188313D01*
X183812148Y-86081403D01*
X183812148Y-86081402D01*
X183254114Y-86639436D01*
X183253260Y-86637374D01*
X183160238Y-86498156D01*
X183041844Y-86379762D01*
X182902626Y-86286740D01*
X182900560Y-86285884D01*
X183458596Y-85727850D01*
X183351686Y-85650175D01*
X183123784Y-85534052D01*
X183123781Y-85534051D01*
X182880523Y-85455013D01*
X182627889Y-85415000D01*
X182372111Y-85415000D01*
X182119476Y-85455013D01*
X181876218Y-85534051D01*
X181876215Y-85534052D01*
X181648310Y-85650177D01*
X181541403Y-85727849D01*
X181541402Y-85727850D01*
X182099437Y-86285885D01*
X182097374Y-86286740D01*
X181958156Y-86379762D01*
X181839762Y-86498156D01*
X181746740Y-86637374D01*
X181745885Y-86639437D01*
X181187850Y-86081402D01*
X181187849Y-86081403D01*
X181110177Y-86188310D01*
X180994052Y-86416215D01*
X180994051Y-86416218D01*
X180915013Y-86659476D01*
X180875000Y-86912110D01*
X137798701Y-86912110D01*
X137769738Y-86766510D01*
X137769737Y-86766503D01*
X137740460Y-86695821D01*
X137709397Y-86620827D01*
X137709390Y-86620814D01*
X137621789Y-86489711D01*
X137621786Y-86489707D01*
X137510292Y-86378213D01*
X137510288Y-86378210D01*
X137379185Y-86290609D01*
X137379172Y-86290602D01*
X137233501Y-86230264D01*
X137233489Y-86230261D01*
X137078845Y-86199500D01*
X137078842Y-86199500D01*
X136921158Y-86199500D01*
X136921153Y-86199500D01*
X136802924Y-86223017D01*
X136733332Y-86216790D01*
X136678155Y-86173926D01*
X136675631Y-86170291D01*
X136621789Y-86089710D01*
X136510292Y-85978213D01*
X136510288Y-85978210D01*
X136379185Y-85890609D01*
X136379173Y-85890602D01*
X136376923Y-85889671D01*
X136233501Y-85830264D01*
X136233489Y-85830261D01*
X136078845Y-85799500D01*
X136078842Y-85799500D01*
X135921158Y-85799500D01*
X135921155Y-85799500D01*
X135766510Y-85830261D01*
X135766498Y-85830264D01*
X135620827Y-85890602D01*
X135620814Y-85890609D01*
X135489711Y-85978210D01*
X135489707Y-85978213D01*
X135378213Y-86089707D01*
X135378210Y-86089711D01*
X135290609Y-86220814D01*
X135290602Y-86220827D01*
X135228528Y-86370691D01*
X135184687Y-86425095D01*
X135118393Y-86447160D01*
X135050694Y-86429881D01*
X135045076Y-86426341D01*
X134954185Y-86365609D01*
X134954172Y-86365602D01*
X134808501Y-86305264D01*
X134808489Y-86305261D01*
X134653845Y-86274500D01*
X134653842Y-86274500D01*
X134496158Y-86274500D01*
X134496155Y-86274500D01*
X134341510Y-86305261D01*
X134341498Y-86305264D01*
X134195827Y-86365602D01*
X134195814Y-86365609D01*
X134064711Y-86453210D01*
X134064707Y-86453213D01*
X133953213Y-86564707D01*
X133953210Y-86564711D01*
X133865609Y-86695814D01*
X133865606Y-86695820D01*
X133835532Y-86768425D01*
X133791690Y-86822828D01*
X133768425Y-86835532D01*
X133695820Y-86865606D01*
X133695814Y-86865609D01*
X133564711Y-86953210D01*
X133564707Y-86953213D01*
X133453213Y-87064707D01*
X133453210Y-87064711D01*
X133365609Y-87195814D01*
X133365602Y-87195827D01*
X133305264Y-87341498D01*
X133305261Y-87341510D01*
X133274500Y-87496153D01*
X106500500Y-87496153D01*
X106500500Y-81671635D01*
X119724500Y-81671635D01*
X119724500Y-83297370D01*
X119724501Y-83297376D01*
X119730908Y-83356983D01*
X119781202Y-83491828D01*
X119781206Y-83491835D01*
X119867452Y-83607044D01*
X119867455Y-83607047D01*
X119982664Y-83693293D01*
X119982671Y-83693297D01*
X120117517Y-83743591D01*
X120117516Y-83743591D01*
X120124444Y-83744335D01*
X120177127Y-83750000D01*
X121802872Y-83749999D01*
X121862483Y-83743591D01*
X121997331Y-83693296D01*
X122112546Y-83607046D01*
X122198796Y-83491831D01*
X122249091Y-83356983D01*
X122255500Y-83297373D01*
X122255499Y-83264930D01*
X122275182Y-83197894D01*
X122327984Y-83152138D01*
X122397143Y-83142193D01*
X122460699Y-83171216D01*
X122479817Y-83192045D01*
X122484067Y-83197894D01*
X122564731Y-83308918D01*
X122705582Y-83449769D01*
X122866734Y-83566853D01*
X123043304Y-83656820D01*
X123044219Y-83657286D01*
X123233657Y-83718838D01*
X123233658Y-83718838D01*
X123233661Y-83718839D01*
X123430403Y-83750000D01*
X123430404Y-83750000D01*
X123629596Y-83750000D01*
X123629597Y-83750000D01*
X123826339Y-83718839D01*
X123826342Y-83718838D01*
X123826343Y-83718838D01*
X124015780Y-83657286D01*
X124015780Y-83657285D01*
X124015783Y-83657285D01*
X124193266Y-83566853D01*
X124354418Y-83449769D01*
X124495269Y-83308918D01*
X124612353Y-83147766D01*
X124689515Y-82996327D01*
X124737490Y-82945531D01*
X124805311Y-82928736D01*
X124871446Y-82951273D01*
X124910485Y-82996327D01*
X124987647Y-83147766D01*
X125104731Y-83308918D01*
X125245582Y-83449769D01*
X125406734Y-83566853D01*
X125583304Y-83656820D01*
X125584219Y-83657286D01*
X125773657Y-83718838D01*
X125773658Y-83718838D01*
X125773661Y-83718839D01*
X125970403Y-83750000D01*
X125970404Y-83750000D01*
X126169596Y-83750000D01*
X126169597Y-83750000D01*
X126366339Y-83718839D01*
X126366342Y-83718838D01*
X126366343Y-83718838D01*
X126555780Y-83657286D01*
X126555780Y-83657285D01*
X126555783Y-83657285D01*
X126733266Y-83566853D01*
X126894418Y-83449769D01*
X127035269Y-83308918D01*
X127152353Y-83147766D01*
X127229515Y-82996327D01*
X127277490Y-82945531D01*
X127345311Y-82928736D01*
X127411446Y-82951273D01*
X127450485Y-82996327D01*
X127527647Y-83147766D01*
X127644731Y-83308918D01*
X127785582Y-83449769D01*
X127946734Y-83566853D01*
X128123304Y-83656820D01*
X128124219Y-83657286D01*
X128313657Y-83718838D01*
X128313658Y-83718838D01*
X128313661Y-83718839D01*
X128510403Y-83750000D01*
X128510404Y-83750000D01*
X128709596Y-83750000D01*
X128709597Y-83750000D01*
X128906339Y-83718839D01*
X128906342Y-83718838D01*
X128906343Y-83718838D01*
X129095780Y-83657286D01*
X129095780Y-83657285D01*
X129095783Y-83657285D01*
X129273266Y-83566853D01*
X129434418Y-83449769D01*
X129575269Y-83308918D01*
X129692353Y-83147766D01*
X129769515Y-82996327D01*
X129817490Y-82945531D01*
X129885311Y-82928736D01*
X129951446Y-82951273D01*
X129990485Y-82996327D01*
X130067647Y-83147766D01*
X130184731Y-83308918D01*
X130325582Y-83449769D01*
X130486734Y-83566853D01*
X130663304Y-83656820D01*
X130664219Y-83657286D01*
X130853657Y-83718838D01*
X130853658Y-83718838D01*
X130853661Y-83718839D01*
X131050403Y-83750000D01*
X131050404Y-83750000D01*
X131249596Y-83750000D01*
X131249597Y-83750000D01*
X131446339Y-83718839D01*
X131446342Y-83718838D01*
X131446343Y-83718838D01*
X131635780Y-83657286D01*
X131635780Y-83657285D01*
X131635783Y-83657285D01*
X131813266Y-83566853D01*
X131974418Y-83449769D01*
X132115269Y-83308918D01*
X132232353Y-83147766D01*
X132309515Y-82996327D01*
X132357490Y-82945531D01*
X132425311Y-82928736D01*
X132491446Y-82951273D01*
X132530485Y-82996327D01*
X132607647Y-83147766D01*
X132724731Y-83308918D01*
X132865582Y-83449769D01*
X133026734Y-83566853D01*
X133203304Y-83656820D01*
X133204219Y-83657286D01*
X133393657Y-83718838D01*
X133393658Y-83718838D01*
X133393661Y-83718839D01*
X133590403Y-83750000D01*
X133590404Y-83750000D01*
X133789596Y-83750000D01*
X133789597Y-83750000D01*
X133986339Y-83718839D01*
X133986342Y-83718838D01*
X133986343Y-83718838D01*
X134175780Y-83657286D01*
X134175780Y-83657285D01*
X134175783Y-83657285D01*
X134353266Y-83566853D01*
X134514418Y-83449769D01*
X134655269Y-83308918D01*
X134772353Y-83147766D01*
X134849515Y-82996327D01*
X134897490Y-82945531D01*
X134965311Y-82928736D01*
X135031446Y-82951273D01*
X135070485Y-82996327D01*
X135147647Y-83147766D01*
X135264731Y-83308918D01*
X135405582Y-83449769D01*
X135566734Y-83566853D01*
X135743304Y-83656820D01*
X135744219Y-83657286D01*
X135933657Y-83718838D01*
X135933658Y-83718838D01*
X135933661Y-83718839D01*
X136130403Y-83750000D01*
X136130404Y-83750000D01*
X136329596Y-83750000D01*
X136329597Y-83750000D01*
X136526339Y-83718839D01*
X136526342Y-83718838D01*
X136526343Y-83718838D01*
X136715780Y-83657286D01*
X136715780Y-83657285D01*
X136715783Y-83657285D01*
X136893266Y-83566853D01*
X137054418Y-83449769D01*
X137195269Y-83308918D01*
X137312353Y-83147766D01*
X137389515Y-82996327D01*
X137437490Y-82945531D01*
X137505311Y-82928736D01*
X137571446Y-82951273D01*
X137610485Y-82996327D01*
X137687647Y-83147766D01*
X137804731Y-83308918D01*
X137945582Y-83449769D01*
X138106734Y-83566853D01*
X138283304Y-83656820D01*
X138284219Y-83657286D01*
X138473657Y-83718838D01*
X138473658Y-83718838D01*
X138473661Y-83718839D01*
X138670403Y-83750000D01*
X138670404Y-83750000D01*
X138869596Y-83750000D01*
X138869597Y-83750000D01*
X139066339Y-83718839D01*
X139066342Y-83718838D01*
X139066343Y-83718838D01*
X139255780Y-83657286D01*
X139255780Y-83657285D01*
X139255783Y-83657285D01*
X139433266Y-83566853D01*
X139594418Y-83449769D01*
X139735269Y-83308918D01*
X139852353Y-83147766D01*
X139929515Y-82996327D01*
X139977490Y-82945531D01*
X140045311Y-82928736D01*
X140111446Y-82951273D01*
X140150485Y-82996327D01*
X140227647Y-83147766D01*
X140344731Y-83308918D01*
X140485582Y-83449769D01*
X140646734Y-83566853D01*
X140823304Y-83656820D01*
X140824219Y-83657286D01*
X141013657Y-83718838D01*
X141013658Y-83718838D01*
X141013661Y-83718839D01*
X141210403Y-83750000D01*
X141210404Y-83750000D01*
X141409596Y-83750000D01*
X141409597Y-83750000D01*
X141606339Y-83718839D01*
X141606342Y-83718838D01*
X141606343Y-83718838D01*
X141795780Y-83657286D01*
X141795780Y-83657285D01*
X141795783Y-83657285D01*
X141973266Y-83566853D01*
X142134418Y-83449769D01*
X142275269Y-83308918D01*
X142392353Y-83147766D01*
X142469515Y-82996327D01*
X142517490Y-82945531D01*
X142585311Y-82928736D01*
X142651446Y-82951273D01*
X142690485Y-82996327D01*
X142767647Y-83147766D01*
X142884731Y-83308918D01*
X143025582Y-83449769D01*
X143186734Y-83566853D01*
X143363304Y-83656820D01*
X143364219Y-83657286D01*
X143553657Y-83718838D01*
X143553658Y-83718838D01*
X143553661Y-83718839D01*
X143750403Y-83750000D01*
X143750404Y-83750000D01*
X143949596Y-83750000D01*
X143949597Y-83750000D01*
X144146339Y-83718839D01*
X144146342Y-83718838D01*
X144146343Y-83718838D01*
X144335780Y-83657286D01*
X144335780Y-83657285D01*
X144335783Y-83657285D01*
X144513266Y-83566853D01*
X144674418Y-83449769D01*
X144815269Y-83308918D01*
X144932353Y-83147766D01*
X145009515Y-82996327D01*
X145057490Y-82945531D01*
X145125311Y-82928736D01*
X145191446Y-82951273D01*
X145230485Y-82996327D01*
X145307647Y-83147766D01*
X145424731Y-83308918D01*
X145565582Y-83449769D01*
X145726734Y-83566853D01*
X145903304Y-83656820D01*
X145904219Y-83657286D01*
X146093657Y-83718838D01*
X146093658Y-83718838D01*
X146093661Y-83718839D01*
X146290403Y-83750000D01*
X146290404Y-83750000D01*
X146489596Y-83750000D01*
X146489597Y-83750000D01*
X146686339Y-83718839D01*
X146686342Y-83718838D01*
X146686343Y-83718838D01*
X146875780Y-83657286D01*
X146875780Y-83657285D01*
X146875783Y-83657285D01*
X147053266Y-83566853D01*
X147214418Y-83449769D01*
X147355269Y-83308918D01*
X147472353Y-83147766D01*
X147549515Y-82996327D01*
X147597490Y-82945531D01*
X147665311Y-82928736D01*
X147731446Y-82951273D01*
X147770485Y-82996327D01*
X147847647Y-83147766D01*
X147964731Y-83308918D01*
X148105582Y-83449769D01*
X148266734Y-83566853D01*
X148443304Y-83656820D01*
X148444219Y-83657286D01*
X148633657Y-83718838D01*
X148633658Y-83718838D01*
X148633661Y-83718839D01*
X148830403Y-83750000D01*
X148830404Y-83750000D01*
X149029596Y-83750000D01*
X149029597Y-83750000D01*
X149226339Y-83718839D01*
X149226342Y-83718838D01*
X149226343Y-83718838D01*
X149415780Y-83657286D01*
X149415780Y-83657285D01*
X149415783Y-83657285D01*
X149593266Y-83566853D01*
X149754418Y-83449769D01*
X149895269Y-83308918D01*
X150012353Y-83147766D01*
X150089515Y-82996327D01*
X150137490Y-82945531D01*
X150205311Y-82928736D01*
X150271446Y-82951273D01*
X150310485Y-82996327D01*
X150387647Y-83147766D01*
X150504731Y-83308918D01*
X150645582Y-83449769D01*
X150806734Y-83566853D01*
X150983304Y-83656820D01*
X150984219Y-83657286D01*
X151173657Y-83718838D01*
X151173658Y-83718838D01*
X151173661Y-83718839D01*
X151370403Y-83750000D01*
X151370404Y-83750000D01*
X151569596Y-83750000D01*
X151569597Y-83750000D01*
X151766339Y-83718839D01*
X151766342Y-83718838D01*
X151766343Y-83718838D01*
X151955780Y-83657286D01*
X151955780Y-83657285D01*
X151955783Y-83657285D01*
X152133266Y-83566853D01*
X152294418Y-83449769D01*
X152435269Y-83308918D01*
X152552353Y-83147766D01*
X152629515Y-82996327D01*
X152677490Y-82945531D01*
X152745311Y-82928736D01*
X152811446Y-82951273D01*
X152850485Y-82996327D01*
X152927647Y-83147766D01*
X153044731Y-83308918D01*
X153185582Y-83449769D01*
X153346734Y-83566853D01*
X153523304Y-83656820D01*
X153524219Y-83657286D01*
X153713657Y-83718838D01*
X153713658Y-83718838D01*
X153713661Y-83718839D01*
X153910403Y-83750000D01*
X153910404Y-83750000D01*
X154109596Y-83750000D01*
X154109597Y-83750000D01*
X154306339Y-83718839D01*
X154306342Y-83718838D01*
X154306343Y-83718838D01*
X154495780Y-83657286D01*
X154495780Y-83657285D01*
X154495783Y-83657285D01*
X154673266Y-83566853D01*
X154834418Y-83449769D01*
X154975269Y-83308918D01*
X155092353Y-83147766D01*
X155169515Y-82996327D01*
X155217490Y-82945531D01*
X155285311Y-82928736D01*
X155351446Y-82951273D01*
X155390485Y-82996327D01*
X155467647Y-83147766D01*
X155584731Y-83308918D01*
X155725582Y-83449769D01*
X155886734Y-83566853D01*
X156063304Y-83656820D01*
X156064219Y-83657286D01*
X156253657Y-83718838D01*
X156253658Y-83718838D01*
X156253661Y-83718839D01*
X156450403Y-83750000D01*
X156450404Y-83750000D01*
X156649596Y-83750000D01*
X156649597Y-83750000D01*
X156846339Y-83718839D01*
X156846342Y-83718838D01*
X156846343Y-83718838D01*
X157035780Y-83657286D01*
X157035780Y-83657285D01*
X157035783Y-83657285D01*
X157213266Y-83566853D01*
X157374418Y-83449769D01*
X157515269Y-83308918D01*
X157632353Y-83147766D01*
X157709515Y-82996327D01*
X157757490Y-82945531D01*
X157825311Y-82928736D01*
X157891446Y-82951273D01*
X157930485Y-82996327D01*
X158007647Y-83147766D01*
X158124731Y-83308918D01*
X158265582Y-83449769D01*
X158426734Y-83566853D01*
X158603304Y-83656820D01*
X158604219Y-83657286D01*
X158793657Y-83718838D01*
X158793658Y-83718838D01*
X158793661Y-83718839D01*
X158990403Y-83750000D01*
X158990404Y-83750000D01*
X159189596Y-83750000D01*
X159189597Y-83750000D01*
X159386339Y-83718839D01*
X159386342Y-83718838D01*
X159386343Y-83718838D01*
X159575780Y-83657286D01*
X159575780Y-83657285D01*
X159575783Y-83657285D01*
X159753266Y-83566853D01*
X159914418Y-83449769D01*
X160055269Y-83308918D01*
X160172353Y-83147766D01*
X160249515Y-82996327D01*
X160297490Y-82945531D01*
X160365311Y-82928736D01*
X160431446Y-82951273D01*
X160470485Y-82996327D01*
X160547647Y-83147766D01*
X160664731Y-83308918D01*
X160805582Y-83449769D01*
X160966734Y-83566853D01*
X161143304Y-83656820D01*
X161144219Y-83657286D01*
X161333657Y-83718838D01*
X161333658Y-83718838D01*
X161333661Y-83718839D01*
X161530403Y-83750000D01*
X161530404Y-83750000D01*
X161729596Y-83750000D01*
X161729597Y-83750000D01*
X161926339Y-83718839D01*
X161926342Y-83718838D01*
X161926343Y-83718838D01*
X162115780Y-83657286D01*
X162115780Y-83657285D01*
X162115783Y-83657285D01*
X162293266Y-83566853D01*
X162454418Y-83449769D01*
X162595269Y-83308918D01*
X162712353Y-83147766D01*
X162789515Y-82996327D01*
X162837490Y-82945531D01*
X162905311Y-82928736D01*
X162971446Y-82951273D01*
X163010485Y-82996327D01*
X163087647Y-83147766D01*
X163204731Y-83308918D01*
X163345582Y-83449769D01*
X163506734Y-83566853D01*
X163683304Y-83656820D01*
X163684219Y-83657286D01*
X163873657Y-83718838D01*
X163873658Y-83718838D01*
X163873661Y-83718839D01*
X164070403Y-83750000D01*
X164070404Y-83750000D01*
X164269596Y-83750000D01*
X164269597Y-83750000D01*
X164466339Y-83718839D01*
X164466342Y-83718838D01*
X164466343Y-83718838D01*
X164655780Y-83657286D01*
X164655780Y-83657285D01*
X164655783Y-83657285D01*
X164833266Y-83566853D01*
X164994418Y-83449769D01*
X165135269Y-83308918D01*
X165252353Y-83147766D01*
X165329515Y-82996327D01*
X165377490Y-82945531D01*
X165445311Y-82928736D01*
X165511446Y-82951273D01*
X165550485Y-82996327D01*
X165627647Y-83147766D01*
X165744731Y-83308918D01*
X165885582Y-83449769D01*
X166046734Y-83566853D01*
X166223304Y-83656820D01*
X166224219Y-83657286D01*
X166413657Y-83718838D01*
X166413658Y-83718838D01*
X166413661Y-83718839D01*
X166610403Y-83750000D01*
X166610404Y-83750000D01*
X166809596Y-83750000D01*
X166809597Y-83750000D01*
X167006339Y-83718839D01*
X167006342Y-83718838D01*
X167006343Y-83718838D01*
X167195780Y-83657286D01*
X167195780Y-83657285D01*
X167195783Y-83657285D01*
X167373266Y-83566853D01*
X167534418Y-83449769D01*
X167675269Y-83308918D01*
X167792353Y-83147766D01*
X167869515Y-82996327D01*
X167917490Y-82945531D01*
X167985311Y-82928736D01*
X168051446Y-82951273D01*
X168090485Y-82996327D01*
X168167647Y-83147766D01*
X168284731Y-83308918D01*
X168425582Y-83449769D01*
X168586734Y-83566853D01*
X168763304Y-83656820D01*
X168764219Y-83657286D01*
X168953657Y-83718838D01*
X168953658Y-83718838D01*
X168953661Y-83718839D01*
X169150403Y-83750000D01*
X169150404Y-83750000D01*
X169349596Y-83750000D01*
X169349597Y-83750000D01*
X169546339Y-83718839D01*
X169546342Y-83718838D01*
X169546343Y-83718838D01*
X169735780Y-83657286D01*
X169735780Y-83657285D01*
X169735783Y-83657285D01*
X169913266Y-83566853D01*
X170074418Y-83449769D01*
X170215269Y-83308918D01*
X170332353Y-83147766D01*
X170409515Y-82996327D01*
X170457490Y-82945531D01*
X170525311Y-82928736D01*
X170591446Y-82951273D01*
X170630485Y-82996327D01*
X170707647Y-83147766D01*
X170824731Y-83308918D01*
X170965582Y-83449769D01*
X171126734Y-83566853D01*
X171303304Y-83656820D01*
X171304219Y-83657286D01*
X171493657Y-83718838D01*
X171493658Y-83718838D01*
X171493661Y-83718839D01*
X171690403Y-83750000D01*
X171690404Y-83750000D01*
X171889596Y-83750000D01*
X171889597Y-83750000D01*
X172086339Y-83718839D01*
X172086342Y-83718838D01*
X172086343Y-83718838D01*
X172275780Y-83657286D01*
X172275780Y-83657285D01*
X172275783Y-83657285D01*
X172453266Y-83566853D01*
X172614418Y-83449769D01*
X172755269Y-83308918D01*
X172872353Y-83147766D01*
X172949795Y-82995776D01*
X172997769Y-82944981D01*
X173065590Y-82928186D01*
X173131725Y-82950723D01*
X173170765Y-82995777D01*
X173248077Y-83147508D01*
X173275580Y-83185363D01*
X173275581Y-83185364D01*
X173838871Y-82622074D01*
X173854755Y-82681353D01*
X173921898Y-82797647D01*
X174016853Y-82892602D01*
X174133147Y-82959745D01*
X174192425Y-82975628D01*
X173629134Y-83538917D01*
X173666994Y-83566424D01*
X173844405Y-83656820D01*
X174033777Y-83718352D01*
X174230437Y-83749500D01*
X174429563Y-83749500D01*
X174626222Y-83718352D01*
X174815594Y-83656820D01*
X174993005Y-83566424D01*
X175030863Y-83538918D01*
X175030863Y-83538917D01*
X174467574Y-82975628D01*
X174526853Y-82959745D01*
X174643147Y-82892602D01*
X174738102Y-82797647D01*
X174805245Y-82681353D01*
X174821128Y-82622074D01*
X175384417Y-83185363D01*
X175384418Y-83185363D01*
X175411924Y-83147505D01*
X175502320Y-82970094D01*
X175563852Y-82780722D01*
X175595000Y-82584063D01*
X175595000Y-82384936D01*
X175563852Y-82188277D01*
X175502320Y-81998905D01*
X175411924Y-81821494D01*
X175384417Y-81783635D01*
X175384417Y-81783634D01*
X174821128Y-82346924D01*
X174805245Y-82287647D01*
X174738102Y-82171353D01*
X174643147Y-82076398D01*
X174526853Y-82009255D01*
X174467574Y-81993371D01*
X175030864Y-81430081D01*
X175030863Y-81430080D01*
X174993008Y-81402577D01*
X174815594Y-81312179D01*
X174626222Y-81250647D01*
X174429563Y-81219500D01*
X174230437Y-81219500D01*
X174033777Y-81250647D01*
X173844405Y-81312179D01*
X173666990Y-81402577D01*
X173629135Y-81430080D01*
X173629135Y-81430081D01*
X174192425Y-81993371D01*
X174133147Y-82009255D01*
X174016853Y-82076398D01*
X173921898Y-82171353D01*
X173854755Y-82287647D01*
X173838871Y-82346925D01*
X173275581Y-81783635D01*
X173275580Y-81783635D01*
X173248075Y-81821493D01*
X173170764Y-81973223D01*
X173122790Y-82024018D01*
X173054969Y-82040813D01*
X172988834Y-82018275D01*
X172949795Y-81973222D01*
X172918299Y-81911409D01*
X172872353Y-81821234D01*
X172755269Y-81660082D01*
X172614418Y-81519231D01*
X172453266Y-81402147D01*
X172374379Y-81361952D01*
X172275780Y-81311713D01*
X172086342Y-81250161D01*
X171938782Y-81226790D01*
X171889597Y-81219000D01*
X171690403Y-81219000D01*
X171624822Y-81229387D01*
X171493659Y-81250161D01*
X171493656Y-81250161D01*
X171304219Y-81311713D01*
X171126733Y-81402147D01*
X171088286Y-81430081D01*
X170965582Y-81519231D01*
X170965580Y-81519233D01*
X170965579Y-81519233D01*
X170824733Y-81660079D01*
X170824733Y-81660080D01*
X170824731Y-81660082D01*
X170792772Y-81704070D01*
X170707647Y-81821233D01*
X170630485Y-81972672D01*
X170582510Y-82023468D01*
X170514689Y-82040263D01*
X170448554Y-82017725D01*
X170409515Y-81972672D01*
X170367877Y-81890953D01*
X170332353Y-81821234D01*
X170215269Y-81660082D01*
X170074418Y-81519231D01*
X169913266Y-81402147D01*
X169834379Y-81361952D01*
X169735780Y-81311713D01*
X169546342Y-81250161D01*
X169398782Y-81226790D01*
X169349597Y-81219000D01*
X169150403Y-81219000D01*
X169084822Y-81229387D01*
X168953659Y-81250161D01*
X168953656Y-81250161D01*
X168764219Y-81311713D01*
X168586733Y-81402147D01*
X168548286Y-81430081D01*
X168425582Y-81519231D01*
X168425580Y-81519233D01*
X168425579Y-81519233D01*
X168284733Y-81660079D01*
X168284733Y-81660080D01*
X168284731Y-81660082D01*
X168252772Y-81704070D01*
X168167647Y-81821233D01*
X168090485Y-81972672D01*
X168042510Y-82023468D01*
X167974689Y-82040263D01*
X167908554Y-82017725D01*
X167869515Y-81972672D01*
X167827877Y-81890953D01*
X167792353Y-81821234D01*
X167675269Y-81660082D01*
X167534418Y-81519231D01*
X167373266Y-81402147D01*
X167294379Y-81361952D01*
X167195780Y-81311713D01*
X167006342Y-81250161D01*
X166858782Y-81226790D01*
X166809597Y-81219000D01*
X166610403Y-81219000D01*
X166544822Y-81229387D01*
X166413659Y-81250161D01*
X166413656Y-81250161D01*
X166224219Y-81311713D01*
X166046733Y-81402147D01*
X166008286Y-81430081D01*
X165885582Y-81519231D01*
X165885580Y-81519233D01*
X165885579Y-81519233D01*
X165744733Y-81660079D01*
X165744733Y-81660080D01*
X165744731Y-81660082D01*
X165712772Y-81704070D01*
X165627647Y-81821233D01*
X165550485Y-81972672D01*
X165502510Y-82023468D01*
X165434689Y-82040263D01*
X165368554Y-82017725D01*
X165329515Y-81972672D01*
X165287877Y-81890953D01*
X165252353Y-81821234D01*
X165135269Y-81660082D01*
X164994418Y-81519231D01*
X164833266Y-81402147D01*
X164754379Y-81361952D01*
X164655780Y-81311713D01*
X164466342Y-81250161D01*
X164318782Y-81226790D01*
X164269597Y-81219000D01*
X164070403Y-81219000D01*
X164004822Y-81229387D01*
X163873659Y-81250161D01*
X163873656Y-81250161D01*
X163684219Y-81311713D01*
X163506733Y-81402147D01*
X163468286Y-81430081D01*
X163345582Y-81519231D01*
X163345580Y-81519233D01*
X163345579Y-81519233D01*
X163204733Y-81660079D01*
X163204733Y-81660080D01*
X163204731Y-81660082D01*
X163172772Y-81704070D01*
X163087647Y-81821233D01*
X163010485Y-81972672D01*
X162962510Y-82023468D01*
X162894689Y-82040263D01*
X162828554Y-82017725D01*
X162789515Y-81972672D01*
X162747877Y-81890953D01*
X162712353Y-81821234D01*
X162595269Y-81660082D01*
X162454418Y-81519231D01*
X162293266Y-81402147D01*
X162214379Y-81361952D01*
X162115780Y-81311713D01*
X161926342Y-81250161D01*
X161778782Y-81226790D01*
X161729597Y-81219000D01*
X161530403Y-81219000D01*
X161464822Y-81229387D01*
X161333659Y-81250161D01*
X161333656Y-81250161D01*
X161144219Y-81311713D01*
X160966733Y-81402147D01*
X160928286Y-81430081D01*
X160805582Y-81519231D01*
X160805580Y-81519233D01*
X160805579Y-81519233D01*
X160664733Y-81660079D01*
X160664733Y-81660080D01*
X160664731Y-81660082D01*
X160632772Y-81704070D01*
X160547647Y-81821233D01*
X160470485Y-81972672D01*
X160422510Y-82023468D01*
X160354689Y-82040263D01*
X160288554Y-82017725D01*
X160249515Y-81972672D01*
X160207877Y-81890953D01*
X160172353Y-81821234D01*
X160055269Y-81660082D01*
X159914418Y-81519231D01*
X159753266Y-81402147D01*
X159674379Y-81361952D01*
X159575780Y-81311713D01*
X159386342Y-81250161D01*
X159238782Y-81226790D01*
X159189597Y-81219000D01*
X158990403Y-81219000D01*
X158924822Y-81229387D01*
X158793659Y-81250161D01*
X158793656Y-81250161D01*
X158604219Y-81311713D01*
X158426733Y-81402147D01*
X158388286Y-81430081D01*
X158265582Y-81519231D01*
X158265580Y-81519233D01*
X158265579Y-81519233D01*
X158124733Y-81660079D01*
X158124733Y-81660080D01*
X158124731Y-81660082D01*
X158092772Y-81704070D01*
X158007647Y-81821233D01*
X157930485Y-81972672D01*
X157882510Y-82023468D01*
X157814689Y-82040263D01*
X157748554Y-82017725D01*
X157709515Y-81972672D01*
X157667877Y-81890953D01*
X157632353Y-81821234D01*
X157515269Y-81660082D01*
X157374418Y-81519231D01*
X157213266Y-81402147D01*
X157134379Y-81361952D01*
X157035780Y-81311713D01*
X156846342Y-81250161D01*
X156698782Y-81226790D01*
X156649597Y-81219000D01*
X156450403Y-81219000D01*
X156384822Y-81229387D01*
X156253659Y-81250161D01*
X156253656Y-81250161D01*
X156064219Y-81311713D01*
X155886733Y-81402147D01*
X155848286Y-81430081D01*
X155725582Y-81519231D01*
X155725580Y-81519233D01*
X155725579Y-81519233D01*
X155584733Y-81660079D01*
X155584733Y-81660080D01*
X155584731Y-81660082D01*
X155552772Y-81704070D01*
X155467647Y-81821233D01*
X155390485Y-81972672D01*
X155342510Y-82023468D01*
X155274689Y-82040263D01*
X155208554Y-82017725D01*
X155169515Y-81972672D01*
X155127877Y-81890953D01*
X155092353Y-81821234D01*
X154975269Y-81660082D01*
X154834418Y-81519231D01*
X154673266Y-81402147D01*
X154594379Y-81361952D01*
X154495780Y-81311713D01*
X154306342Y-81250161D01*
X154158782Y-81226790D01*
X154109597Y-81219000D01*
X153910403Y-81219000D01*
X153844822Y-81229387D01*
X153713659Y-81250161D01*
X153713656Y-81250161D01*
X153524219Y-81311713D01*
X153346733Y-81402147D01*
X153308286Y-81430081D01*
X153185582Y-81519231D01*
X153185580Y-81519233D01*
X153185579Y-81519233D01*
X153044733Y-81660079D01*
X153044733Y-81660080D01*
X153044731Y-81660082D01*
X153012772Y-81704070D01*
X152927647Y-81821233D01*
X152850485Y-81972672D01*
X152802510Y-82023468D01*
X152734689Y-82040263D01*
X152668554Y-82017725D01*
X152629515Y-81972672D01*
X152587877Y-81890953D01*
X152552353Y-81821234D01*
X152435269Y-81660082D01*
X152294418Y-81519231D01*
X152133266Y-81402147D01*
X152054379Y-81361952D01*
X151955780Y-81311713D01*
X151766342Y-81250161D01*
X151618782Y-81226790D01*
X151569597Y-81219000D01*
X151370403Y-81219000D01*
X151304822Y-81229387D01*
X151173659Y-81250161D01*
X151173656Y-81250161D01*
X150984219Y-81311713D01*
X150806733Y-81402147D01*
X150768286Y-81430081D01*
X150645582Y-81519231D01*
X150645580Y-81519233D01*
X150645579Y-81519233D01*
X150504733Y-81660079D01*
X150504733Y-81660080D01*
X150504731Y-81660082D01*
X150472772Y-81704070D01*
X150387647Y-81821233D01*
X150310485Y-81972672D01*
X150262510Y-82023468D01*
X150194689Y-82040263D01*
X150128554Y-82017725D01*
X150089515Y-81972672D01*
X150047877Y-81890953D01*
X150012353Y-81821234D01*
X149895269Y-81660082D01*
X149754418Y-81519231D01*
X149593266Y-81402147D01*
X149514379Y-81361952D01*
X149415780Y-81311713D01*
X149226342Y-81250161D01*
X149078782Y-81226790D01*
X149029597Y-81219000D01*
X148830403Y-81219000D01*
X148764822Y-81229387D01*
X148633659Y-81250161D01*
X148633656Y-81250161D01*
X148444219Y-81311713D01*
X148266733Y-81402147D01*
X148228286Y-81430081D01*
X148105582Y-81519231D01*
X148105580Y-81519233D01*
X148105579Y-81519233D01*
X147964733Y-81660079D01*
X147964733Y-81660080D01*
X147964731Y-81660082D01*
X147932772Y-81704070D01*
X147847647Y-81821233D01*
X147770485Y-81972672D01*
X147722510Y-82023468D01*
X147654689Y-82040263D01*
X147588554Y-82017725D01*
X147549515Y-81972672D01*
X147507877Y-81890953D01*
X147472353Y-81821234D01*
X147355269Y-81660082D01*
X147214418Y-81519231D01*
X147053266Y-81402147D01*
X146974379Y-81361952D01*
X146875780Y-81311713D01*
X146686342Y-81250161D01*
X146538782Y-81226790D01*
X146489597Y-81219000D01*
X146290403Y-81219000D01*
X146224822Y-81229387D01*
X146093659Y-81250161D01*
X146093656Y-81250161D01*
X145904219Y-81311713D01*
X145726733Y-81402147D01*
X145688286Y-81430081D01*
X145565582Y-81519231D01*
X145565580Y-81519233D01*
X145565579Y-81519233D01*
X145424733Y-81660079D01*
X145424733Y-81660080D01*
X145424731Y-81660082D01*
X145392772Y-81704070D01*
X145307647Y-81821233D01*
X145230485Y-81972672D01*
X145182510Y-82023468D01*
X145114689Y-82040263D01*
X145048554Y-82017725D01*
X145009515Y-81972672D01*
X144967877Y-81890953D01*
X144932353Y-81821234D01*
X144815269Y-81660082D01*
X144674418Y-81519231D01*
X144513266Y-81402147D01*
X144434379Y-81361952D01*
X144335780Y-81311713D01*
X144146342Y-81250161D01*
X143998782Y-81226790D01*
X143949597Y-81219000D01*
X143750403Y-81219000D01*
X143684822Y-81229387D01*
X143553659Y-81250161D01*
X143553656Y-81250161D01*
X143364219Y-81311713D01*
X143186733Y-81402147D01*
X143148286Y-81430081D01*
X143025582Y-81519231D01*
X143025580Y-81519233D01*
X143025579Y-81519233D01*
X142884733Y-81660079D01*
X142884733Y-81660080D01*
X142884731Y-81660082D01*
X142852772Y-81704070D01*
X142767647Y-81821233D01*
X142690485Y-81972672D01*
X142642510Y-82023468D01*
X142574689Y-82040263D01*
X142508554Y-82017725D01*
X142469515Y-81972672D01*
X142427877Y-81890953D01*
X142392353Y-81821234D01*
X142275269Y-81660082D01*
X142134418Y-81519231D01*
X141973266Y-81402147D01*
X141894379Y-81361952D01*
X141795780Y-81311713D01*
X141606342Y-81250161D01*
X141458782Y-81226790D01*
X141409597Y-81219000D01*
X141210403Y-81219000D01*
X141144822Y-81229387D01*
X141013659Y-81250161D01*
X141013656Y-81250161D01*
X140824219Y-81311713D01*
X140646733Y-81402147D01*
X140608286Y-81430081D01*
X140485582Y-81519231D01*
X140485580Y-81519233D01*
X140485579Y-81519233D01*
X140344733Y-81660079D01*
X140344733Y-81660080D01*
X140344731Y-81660082D01*
X140312772Y-81704070D01*
X140227647Y-81821233D01*
X140150485Y-81972672D01*
X140102510Y-82023468D01*
X140034689Y-82040263D01*
X139968554Y-82017725D01*
X139929515Y-81972672D01*
X139887877Y-81890953D01*
X139852353Y-81821234D01*
X139735269Y-81660082D01*
X139594418Y-81519231D01*
X139433266Y-81402147D01*
X139354379Y-81361952D01*
X139255780Y-81311713D01*
X139066342Y-81250161D01*
X138918782Y-81226790D01*
X138869597Y-81219000D01*
X138670403Y-81219000D01*
X138604822Y-81229387D01*
X138473659Y-81250161D01*
X138473656Y-81250161D01*
X138284219Y-81311713D01*
X138106733Y-81402147D01*
X138068286Y-81430081D01*
X137945582Y-81519231D01*
X137945580Y-81519233D01*
X137945579Y-81519233D01*
X137804733Y-81660079D01*
X137804733Y-81660080D01*
X137804731Y-81660082D01*
X137772772Y-81704070D01*
X137687647Y-81821233D01*
X137610485Y-81972672D01*
X137562510Y-82023468D01*
X137494689Y-82040263D01*
X137428554Y-82017725D01*
X137389515Y-81972672D01*
X137347877Y-81890953D01*
X137312353Y-81821234D01*
X137195269Y-81660082D01*
X137054418Y-81519231D01*
X136893266Y-81402147D01*
X136814379Y-81361952D01*
X136715780Y-81311713D01*
X136526342Y-81250161D01*
X136378782Y-81226790D01*
X136329597Y-81219000D01*
X136130403Y-81219000D01*
X136064822Y-81229387D01*
X135933659Y-81250161D01*
X135933656Y-81250161D01*
X135744219Y-81311713D01*
X135566733Y-81402147D01*
X135528286Y-81430081D01*
X135405582Y-81519231D01*
X135405580Y-81519233D01*
X135405579Y-81519233D01*
X135264733Y-81660079D01*
X135264733Y-81660080D01*
X135264731Y-81660082D01*
X135232772Y-81704070D01*
X135147647Y-81821233D01*
X135070485Y-81972672D01*
X135022510Y-82023468D01*
X134954689Y-82040263D01*
X134888554Y-82017725D01*
X134849515Y-81972672D01*
X134807877Y-81890953D01*
X134772353Y-81821234D01*
X134655269Y-81660082D01*
X134514418Y-81519231D01*
X134353266Y-81402147D01*
X134274379Y-81361952D01*
X134175780Y-81311713D01*
X133986342Y-81250161D01*
X133838782Y-81226790D01*
X133789597Y-81219000D01*
X133590403Y-81219000D01*
X133524822Y-81229387D01*
X133393659Y-81250161D01*
X133393656Y-81250161D01*
X133204219Y-81311713D01*
X133026733Y-81402147D01*
X132988286Y-81430081D01*
X132865582Y-81519231D01*
X132865580Y-81519233D01*
X132865579Y-81519233D01*
X132724733Y-81660079D01*
X132724733Y-81660080D01*
X132724731Y-81660082D01*
X132692772Y-81704070D01*
X132607647Y-81821233D01*
X132530485Y-81972672D01*
X132482510Y-82023468D01*
X132414689Y-82040263D01*
X132348554Y-82017725D01*
X132309515Y-81972672D01*
X132267877Y-81890953D01*
X132232353Y-81821234D01*
X132115269Y-81660082D01*
X131974418Y-81519231D01*
X131813266Y-81402147D01*
X131734379Y-81361952D01*
X131635780Y-81311713D01*
X131446342Y-81250161D01*
X131298782Y-81226790D01*
X131249597Y-81219000D01*
X131050403Y-81219000D01*
X130984822Y-81229387D01*
X130853659Y-81250161D01*
X130853656Y-81250161D01*
X130664219Y-81311713D01*
X130486733Y-81402147D01*
X130448286Y-81430081D01*
X130325582Y-81519231D01*
X130325580Y-81519233D01*
X130325579Y-81519233D01*
X130184733Y-81660079D01*
X130184733Y-81660080D01*
X130184731Y-81660082D01*
X130152772Y-81704070D01*
X130067647Y-81821233D01*
X129990485Y-81972672D01*
X129942510Y-82023468D01*
X129874689Y-82040263D01*
X129808554Y-82017725D01*
X129769515Y-81972672D01*
X129727877Y-81890953D01*
X129692353Y-81821234D01*
X129575269Y-81660082D01*
X129434418Y-81519231D01*
X129273266Y-81402147D01*
X129194379Y-81361952D01*
X129095780Y-81311713D01*
X128906342Y-81250161D01*
X128758782Y-81226790D01*
X128709597Y-81219000D01*
X128510403Y-81219000D01*
X128444822Y-81229387D01*
X128313659Y-81250161D01*
X128313656Y-81250161D01*
X128124219Y-81311713D01*
X127946733Y-81402147D01*
X127908286Y-81430081D01*
X127785582Y-81519231D01*
X127785580Y-81519233D01*
X127785579Y-81519233D01*
X127644733Y-81660079D01*
X127644733Y-81660080D01*
X127644731Y-81660082D01*
X127612772Y-81704070D01*
X127527647Y-81821233D01*
X127450485Y-81972672D01*
X127402510Y-82023468D01*
X127334689Y-82040263D01*
X127268554Y-82017725D01*
X127229515Y-81972672D01*
X127187877Y-81890953D01*
X127152353Y-81821234D01*
X127035269Y-81660082D01*
X126894418Y-81519231D01*
X126733266Y-81402147D01*
X126654379Y-81361952D01*
X126555780Y-81311713D01*
X126366342Y-81250161D01*
X126218782Y-81226790D01*
X126169597Y-81219000D01*
X125970403Y-81219000D01*
X125904822Y-81229387D01*
X125773659Y-81250161D01*
X125773656Y-81250161D01*
X125584219Y-81311713D01*
X125406733Y-81402147D01*
X125368286Y-81430081D01*
X125245582Y-81519231D01*
X125245580Y-81519233D01*
X125245579Y-81519233D01*
X125104733Y-81660079D01*
X125104733Y-81660080D01*
X125104731Y-81660082D01*
X125072772Y-81704070D01*
X124987647Y-81821233D01*
X124910485Y-81972672D01*
X124862510Y-82023468D01*
X124794689Y-82040263D01*
X124728554Y-82017725D01*
X124689515Y-81972672D01*
X124647877Y-81890953D01*
X124612353Y-81821234D01*
X124495269Y-81660082D01*
X124354418Y-81519231D01*
X124193266Y-81402147D01*
X124114379Y-81361952D01*
X124015780Y-81311713D01*
X123826342Y-81250161D01*
X123678782Y-81226790D01*
X123629597Y-81219000D01*
X123430403Y-81219000D01*
X123364822Y-81229387D01*
X123233659Y-81250161D01*
X123233656Y-81250161D01*
X123044219Y-81311713D01*
X122866733Y-81402147D01*
X122828286Y-81430081D01*
X122705582Y-81519231D01*
X122705580Y-81519233D01*
X122705579Y-81519233D01*
X122564733Y-81660079D01*
X122564733Y-81660080D01*
X122564731Y-81660082D01*
X122532772Y-81704070D01*
X122479817Y-81776956D01*
X122424487Y-81819621D01*
X122354873Y-81825600D01*
X122293078Y-81792994D01*
X122258721Y-81732155D01*
X122255499Y-81704070D01*
X122255499Y-81671629D01*
X122255498Y-81671623D01*
X122255497Y-81671616D01*
X122249091Y-81612017D01*
X122198796Y-81477169D01*
X122198795Y-81477168D01*
X122198793Y-81477164D01*
X122112547Y-81361955D01*
X122112544Y-81361952D01*
X121997335Y-81275706D01*
X121997328Y-81275702D01*
X121862482Y-81225408D01*
X121862483Y-81225408D01*
X121802883Y-81219001D01*
X121802881Y-81219000D01*
X121802873Y-81219000D01*
X121802864Y-81219000D01*
X120177129Y-81219000D01*
X120177123Y-81219001D01*
X120117516Y-81225408D01*
X119982671Y-81275702D01*
X119982664Y-81275706D01*
X119867455Y-81361952D01*
X119867452Y-81361955D01*
X119781206Y-81477164D01*
X119781202Y-81477171D01*
X119730908Y-81612017D01*
X119725741Y-81660080D01*
X119724501Y-81671623D01*
X119724500Y-81671635D01*
X106500500Y-81671635D01*
X106500500Y-66421153D01*
X132889500Y-66421153D01*
X132889500Y-66578846D01*
X132920261Y-66733489D01*
X132920264Y-66733501D01*
X132980602Y-66879172D01*
X132980609Y-66879185D01*
X133068210Y-67010288D01*
X133068213Y-67010292D01*
X133179707Y-67121786D01*
X133179711Y-67121789D01*
X133310814Y-67209390D01*
X133310827Y-67209397D01*
X133456498Y-67269735D01*
X133456503Y-67269737D01*
X133611153Y-67300499D01*
X133611156Y-67300500D01*
X133611158Y-67300500D01*
X133768844Y-67300500D01*
X133768845Y-67300499D01*
X133923497Y-67269737D01*
X134069179Y-67209394D01*
X134200289Y-67121789D01*
X134311789Y-67010289D01*
X134371348Y-66921153D01*
X136199500Y-66921153D01*
X136199500Y-67078846D01*
X136230261Y-67233489D01*
X136230264Y-67233501D01*
X136290602Y-67379172D01*
X136290609Y-67379185D01*
X136378210Y-67510288D01*
X136378213Y-67510292D01*
X136489707Y-67621786D01*
X136489711Y-67621789D01*
X136620814Y-67709390D01*
X136620827Y-67709397D01*
X136766498Y-67769735D01*
X136766503Y-67769737D01*
X136921153Y-67800499D01*
X136921156Y-67800500D01*
X136921158Y-67800500D01*
X137078844Y-67800500D01*
X137078845Y-67800499D01*
X137233497Y-67769737D01*
X137379179Y-67709394D01*
X137510289Y-67621789D01*
X137621789Y-67510289D01*
X137709394Y-67379179D01*
X137769737Y-67233497D01*
X137800500Y-67078842D01*
X137800500Y-66921158D01*
X137800500Y-66921155D01*
X137800499Y-66921153D01*
X137769738Y-66766510D01*
X137769737Y-66766503D01*
X137756062Y-66733489D01*
X137709397Y-66620827D01*
X137709390Y-66620814D01*
X137621789Y-66489711D01*
X137621786Y-66489707D01*
X137510292Y-66378213D01*
X137510288Y-66378210D01*
X137379185Y-66290609D01*
X137379172Y-66290602D01*
X137233501Y-66230264D01*
X137233489Y-66230261D01*
X137078845Y-66199500D01*
X137078842Y-66199500D01*
X136921158Y-66199500D01*
X136921155Y-66199500D01*
X136766510Y-66230261D01*
X136766498Y-66230264D01*
X136620827Y-66290602D01*
X136620814Y-66290609D01*
X136489711Y-66378210D01*
X136489707Y-66378213D01*
X136378213Y-66489707D01*
X136378210Y-66489711D01*
X136290609Y-66620814D01*
X136290602Y-66620827D01*
X136230264Y-66766498D01*
X136230261Y-66766510D01*
X136199500Y-66921153D01*
X134371348Y-66921153D01*
X134399394Y-66879179D01*
X134459737Y-66733497D01*
X134490500Y-66578842D01*
X134490500Y-66421158D01*
X134490500Y-66421155D01*
X134490499Y-66421153D01*
X134464531Y-66290606D01*
X134459737Y-66266503D01*
X134459735Y-66266498D01*
X134399397Y-66120827D01*
X134399390Y-66120814D01*
X134311789Y-65989711D01*
X134311786Y-65989707D01*
X134200292Y-65878213D01*
X134200288Y-65878210D01*
X134069185Y-65790609D01*
X134069172Y-65790602D01*
X133923501Y-65730264D01*
X133923489Y-65730261D01*
X133768845Y-65699500D01*
X133768842Y-65699500D01*
X133611158Y-65699500D01*
X133611155Y-65699500D01*
X133456510Y-65730261D01*
X133456498Y-65730264D01*
X133310827Y-65790602D01*
X133310814Y-65790609D01*
X133179711Y-65878210D01*
X133179707Y-65878213D01*
X133068213Y-65989707D01*
X133068210Y-65989711D01*
X132980609Y-66120814D01*
X132980602Y-66120827D01*
X132920264Y-66266498D01*
X132920261Y-66266510D01*
X132889500Y-66421153D01*
X106500500Y-66421153D01*
X106500500Y-55378711D01*
X107649500Y-55378711D01*
X107649500Y-55621288D01*
X107681161Y-55861785D01*
X107743947Y-56096104D01*
X107811869Y-56260082D01*
X107836776Y-56320212D01*
X107958064Y-56530289D01*
X107958066Y-56530292D01*
X107958067Y-56530293D01*
X108105733Y-56722736D01*
X108105739Y-56722743D01*
X108277256Y-56894260D01*
X108277262Y-56894265D01*
X108469711Y-57041936D01*
X108679788Y-57163224D01*
X108903900Y-57256054D01*
X109138211Y-57318838D01*
X109318586Y-57342584D01*
X109378711Y-57350500D01*
X109378712Y-57350500D01*
X109621289Y-57350500D01*
X109669388Y-57344167D01*
X109861789Y-57318838D01*
X110096100Y-57256054D01*
X110320212Y-57163224D01*
X110530289Y-57041936D01*
X110604573Y-56984936D01*
X119725000Y-56984936D01*
X119725000Y-57184063D01*
X119756147Y-57380722D01*
X119817679Y-57570094D01*
X119908077Y-57747508D01*
X119935580Y-57785363D01*
X119935581Y-57785364D01*
X120498871Y-57222074D01*
X120514755Y-57281353D01*
X120581898Y-57397647D01*
X120676853Y-57492602D01*
X120793147Y-57559745D01*
X120852425Y-57575628D01*
X120289134Y-58138917D01*
X120326999Y-58166428D01*
X120479272Y-58244016D01*
X120530068Y-58291990D01*
X120546863Y-58359811D01*
X120524325Y-58425946D01*
X120479272Y-58464984D01*
X120326996Y-58542573D01*
X120326995Y-58542574D01*
X120289135Y-58570080D01*
X120289135Y-58570081D01*
X120852425Y-59133371D01*
X120793147Y-59149255D01*
X120676853Y-59216398D01*
X120581898Y-59311353D01*
X120514755Y-59427647D01*
X120498871Y-59486925D01*
X119935581Y-58923635D01*
X119935580Y-58923635D01*
X119908077Y-58961490D01*
X119817679Y-59138905D01*
X119756147Y-59328277D01*
X119725000Y-59524936D01*
X119725000Y-59724063D01*
X119756147Y-59920722D01*
X119817679Y-60110094D01*
X119908077Y-60287508D01*
X119935580Y-60325363D01*
X119935581Y-60325364D01*
X120498871Y-59762074D01*
X120514755Y-59821353D01*
X120581898Y-59937647D01*
X120676853Y-60032602D01*
X120793147Y-60099745D01*
X120852425Y-60115628D01*
X120289134Y-60678917D01*
X120326994Y-60706424D01*
X120504405Y-60796820D01*
X120693777Y-60858352D01*
X120890437Y-60889500D01*
X121089563Y-60889500D01*
X121286222Y-60858352D01*
X121475594Y-60796820D01*
X121653005Y-60706424D01*
X121690863Y-60678918D01*
X121690863Y-60678917D01*
X121127574Y-60115628D01*
X121186853Y-60099745D01*
X121303147Y-60032602D01*
X121398102Y-59937647D01*
X121465245Y-59821353D01*
X121481128Y-59762074D01*
X122044417Y-60325363D01*
X122044418Y-60325363D01*
X122071924Y-60287505D01*
X122149234Y-60135777D01*
X122197208Y-60084981D01*
X122265029Y-60068186D01*
X122331164Y-60090723D01*
X122370204Y-60135777D01*
X122447514Y-60287505D01*
X122447647Y-60287766D01*
X122564731Y-60448918D01*
X122705582Y-60589769D01*
X122866734Y-60706853D01*
X123043304Y-60796820D01*
X123044219Y-60797286D01*
X123233657Y-60858838D01*
X123233658Y-60858838D01*
X123233661Y-60858839D01*
X123430403Y-60890000D01*
X123430404Y-60890000D01*
X123629596Y-60890000D01*
X123629597Y-60890000D01*
X123826339Y-60858839D01*
X123826342Y-60858838D01*
X123826343Y-60858838D01*
X124015780Y-60797286D01*
X124015780Y-60797285D01*
X124015783Y-60797285D01*
X124193266Y-60706853D01*
X124354418Y-60589769D01*
X124495269Y-60448918D01*
X124612353Y-60287766D01*
X124689515Y-60136327D01*
X124737490Y-60085531D01*
X124805311Y-60068736D01*
X124871446Y-60091273D01*
X124910485Y-60136327D01*
X124987647Y-60287766D01*
X125104731Y-60448918D01*
X125245582Y-60589769D01*
X125406734Y-60706853D01*
X125583304Y-60796820D01*
X125584219Y-60797286D01*
X125773657Y-60858838D01*
X125773658Y-60858838D01*
X125773661Y-60858839D01*
X125970403Y-60890000D01*
X125970404Y-60890000D01*
X126169596Y-60890000D01*
X126169597Y-60890000D01*
X126366339Y-60858839D01*
X126366342Y-60858838D01*
X126366343Y-60858838D01*
X126555780Y-60797286D01*
X126555780Y-60797285D01*
X126555783Y-60797285D01*
X126733266Y-60706853D01*
X126894418Y-60589769D01*
X127035269Y-60448918D01*
X127152353Y-60287766D01*
X127229515Y-60136327D01*
X127277490Y-60085531D01*
X127345311Y-60068736D01*
X127411446Y-60091273D01*
X127450485Y-60136327D01*
X127527647Y-60287766D01*
X127644731Y-60448918D01*
X127785582Y-60589769D01*
X127946734Y-60706853D01*
X128123304Y-60796820D01*
X128124219Y-60797286D01*
X128313657Y-60858838D01*
X128313658Y-60858838D01*
X128313661Y-60858839D01*
X128510403Y-60890000D01*
X128510404Y-60890000D01*
X128709596Y-60890000D01*
X128709597Y-60890000D01*
X128906339Y-60858839D01*
X128906342Y-60858838D01*
X128906343Y-60858838D01*
X129095780Y-60797286D01*
X129095780Y-60797285D01*
X129095783Y-60797285D01*
X129273266Y-60706853D01*
X129434418Y-60589769D01*
X129575269Y-60448918D01*
X129692353Y-60287766D01*
X129769515Y-60136327D01*
X129817490Y-60085531D01*
X129885311Y-60068736D01*
X129951446Y-60091273D01*
X129990485Y-60136327D01*
X130067647Y-60287766D01*
X130184731Y-60448918D01*
X130325582Y-60589769D01*
X130486734Y-60706853D01*
X130663304Y-60796820D01*
X130664219Y-60797286D01*
X130853657Y-60858838D01*
X130853658Y-60858838D01*
X130853661Y-60858839D01*
X131050403Y-60890000D01*
X131050404Y-60890000D01*
X131249596Y-60890000D01*
X131249597Y-60890000D01*
X131446339Y-60858839D01*
X131446342Y-60858838D01*
X131446343Y-60858838D01*
X131635780Y-60797286D01*
X131635780Y-60797285D01*
X131635783Y-60797285D01*
X131813266Y-60706853D01*
X131974418Y-60589769D01*
X132115269Y-60448918D01*
X132232353Y-60287766D01*
X132309515Y-60136327D01*
X132357490Y-60085531D01*
X132425311Y-60068736D01*
X132491446Y-60091273D01*
X132530485Y-60136327D01*
X132607647Y-60287766D01*
X132724731Y-60448918D01*
X132865582Y-60589769D01*
X133026734Y-60706853D01*
X133203304Y-60796820D01*
X133204219Y-60797286D01*
X133393657Y-60858838D01*
X133393658Y-60858838D01*
X133393661Y-60858839D01*
X133590403Y-60890000D01*
X133590404Y-60890000D01*
X133789596Y-60890000D01*
X133789597Y-60890000D01*
X133986339Y-60858839D01*
X133986342Y-60858838D01*
X133986343Y-60858838D01*
X134175780Y-60797286D01*
X134175780Y-60797285D01*
X134175783Y-60797285D01*
X134353266Y-60706853D01*
X134514418Y-60589769D01*
X134655269Y-60448918D01*
X134772353Y-60287766D01*
X134849515Y-60136327D01*
X134897490Y-60085531D01*
X134965311Y-60068736D01*
X135031446Y-60091273D01*
X135070485Y-60136327D01*
X135147647Y-60287766D01*
X135264731Y-60448918D01*
X135405582Y-60589769D01*
X135566734Y-60706853D01*
X135743304Y-60796820D01*
X135744219Y-60797286D01*
X135933657Y-60858838D01*
X135933658Y-60858838D01*
X135933661Y-60858839D01*
X136130403Y-60890000D01*
X136130404Y-60890000D01*
X136329596Y-60890000D01*
X136329597Y-60890000D01*
X136526339Y-60858839D01*
X136526342Y-60858838D01*
X136526343Y-60858838D01*
X136715780Y-60797286D01*
X136715780Y-60797285D01*
X136715783Y-60797285D01*
X136893266Y-60706853D01*
X137054418Y-60589769D01*
X137195269Y-60448918D01*
X137312353Y-60287766D01*
X137389515Y-60136327D01*
X137437490Y-60085531D01*
X137505311Y-60068736D01*
X137571446Y-60091273D01*
X137610485Y-60136327D01*
X137687647Y-60287766D01*
X137804731Y-60448918D01*
X137945582Y-60589769D01*
X138106734Y-60706853D01*
X138283304Y-60796820D01*
X138284219Y-60797286D01*
X138473657Y-60858838D01*
X138473658Y-60858838D01*
X138473661Y-60858839D01*
X138670403Y-60890000D01*
X138670404Y-60890000D01*
X138869596Y-60890000D01*
X138869597Y-60890000D01*
X139066339Y-60858839D01*
X139066342Y-60858838D01*
X139066343Y-60858838D01*
X139255780Y-60797286D01*
X139255780Y-60797285D01*
X139255783Y-60797285D01*
X139433266Y-60706853D01*
X139594418Y-60589769D01*
X139735269Y-60448918D01*
X139852353Y-60287766D01*
X139929515Y-60136327D01*
X139977490Y-60085531D01*
X140045311Y-60068736D01*
X140111446Y-60091273D01*
X140150485Y-60136327D01*
X140227647Y-60287766D01*
X140344731Y-60448918D01*
X140485582Y-60589769D01*
X140646734Y-60706853D01*
X140823304Y-60796820D01*
X140824219Y-60797286D01*
X141013657Y-60858838D01*
X141013658Y-60858838D01*
X141013661Y-60858839D01*
X141210403Y-60890000D01*
X141210404Y-60890000D01*
X141409596Y-60890000D01*
X141409597Y-60890000D01*
X141606339Y-60858839D01*
X141606342Y-60858838D01*
X141606343Y-60858838D01*
X141795780Y-60797286D01*
X141795780Y-60797285D01*
X141795783Y-60797285D01*
X141973266Y-60706853D01*
X142134418Y-60589769D01*
X142275269Y-60448918D01*
X142392353Y-60287766D01*
X142469515Y-60136327D01*
X142517490Y-60085531D01*
X142585311Y-60068736D01*
X142651446Y-60091273D01*
X142690485Y-60136327D01*
X142767647Y-60287766D01*
X142884731Y-60448918D01*
X143025582Y-60589769D01*
X143186734Y-60706853D01*
X143363304Y-60796820D01*
X143364219Y-60797286D01*
X143553657Y-60858838D01*
X143553658Y-60858838D01*
X143553661Y-60858839D01*
X143750403Y-60890000D01*
X143750404Y-60890000D01*
X143949596Y-60890000D01*
X143949597Y-60890000D01*
X144146339Y-60858839D01*
X144146342Y-60858838D01*
X144146343Y-60858838D01*
X144335780Y-60797286D01*
X144335780Y-60797285D01*
X144335783Y-60797285D01*
X144513266Y-60706853D01*
X144674418Y-60589769D01*
X144815269Y-60448918D01*
X144932353Y-60287766D01*
X145009515Y-60136327D01*
X145057490Y-60085531D01*
X145125311Y-60068736D01*
X145191446Y-60091273D01*
X145230485Y-60136327D01*
X145307647Y-60287766D01*
X145424731Y-60448918D01*
X145565582Y-60589769D01*
X145726734Y-60706853D01*
X145903304Y-60796820D01*
X145904219Y-60797286D01*
X146093657Y-60858838D01*
X146093658Y-60858838D01*
X146093661Y-60858839D01*
X146290403Y-60890000D01*
X146290404Y-60890000D01*
X146489596Y-60890000D01*
X146489597Y-60890000D01*
X146686339Y-60858839D01*
X146686342Y-60858838D01*
X146686343Y-60858838D01*
X146875780Y-60797286D01*
X146875780Y-60797285D01*
X146875783Y-60797285D01*
X147053266Y-60706853D01*
X147214418Y-60589769D01*
X147355269Y-60448918D01*
X147472353Y-60287766D01*
X147549515Y-60136327D01*
X147597490Y-60085531D01*
X147665311Y-60068736D01*
X147731446Y-60091273D01*
X147770485Y-60136327D01*
X147847647Y-60287766D01*
X147964731Y-60448918D01*
X148105582Y-60589769D01*
X148266734Y-60706853D01*
X148443304Y-60796820D01*
X148444219Y-60797286D01*
X148633657Y-60858838D01*
X148633658Y-60858838D01*
X148633661Y-60858839D01*
X148830403Y-60890000D01*
X148830404Y-60890000D01*
X149029596Y-60890000D01*
X149029597Y-60890000D01*
X149226339Y-60858839D01*
X149226342Y-60858838D01*
X149226343Y-60858838D01*
X149415780Y-60797286D01*
X149415780Y-60797285D01*
X149415783Y-60797285D01*
X149593266Y-60706853D01*
X149754418Y-60589769D01*
X149895269Y-60448918D01*
X150012353Y-60287766D01*
X150089515Y-60136327D01*
X150137490Y-60085531D01*
X150205311Y-60068736D01*
X150271446Y-60091273D01*
X150310485Y-60136327D01*
X150387647Y-60287766D01*
X150504731Y-60448918D01*
X150645582Y-60589769D01*
X150806734Y-60706853D01*
X150983304Y-60796820D01*
X150984219Y-60797286D01*
X151173657Y-60858838D01*
X151173658Y-60858838D01*
X151173661Y-60858839D01*
X151370403Y-60890000D01*
X151370404Y-60890000D01*
X151569596Y-60890000D01*
X151569597Y-60890000D01*
X151766339Y-60858839D01*
X151766342Y-60858838D01*
X151766343Y-60858838D01*
X151955780Y-60797286D01*
X151955780Y-60797285D01*
X151955783Y-60797285D01*
X152133266Y-60706853D01*
X152294418Y-60589769D01*
X152435269Y-60448918D01*
X152552353Y-60287766D01*
X152629515Y-60136327D01*
X152677490Y-60085531D01*
X152745311Y-60068736D01*
X152811446Y-60091273D01*
X152850485Y-60136327D01*
X152927647Y-60287766D01*
X153044731Y-60448918D01*
X153185582Y-60589769D01*
X153346734Y-60706853D01*
X153523304Y-60796820D01*
X153524219Y-60797286D01*
X153713657Y-60858838D01*
X153713658Y-60858838D01*
X153713661Y-60858839D01*
X153910403Y-60890000D01*
X153910404Y-60890000D01*
X154109596Y-60890000D01*
X154109597Y-60890000D01*
X154306339Y-60858839D01*
X154306342Y-60858838D01*
X154306343Y-60858838D01*
X154495780Y-60797286D01*
X154495780Y-60797285D01*
X154495783Y-60797285D01*
X154673266Y-60706853D01*
X154834418Y-60589769D01*
X154975269Y-60448918D01*
X155092353Y-60287766D01*
X155169515Y-60136327D01*
X155217490Y-60085531D01*
X155285311Y-60068736D01*
X155351446Y-60091273D01*
X155390485Y-60136327D01*
X155467647Y-60287766D01*
X155584731Y-60448918D01*
X155725582Y-60589769D01*
X155886734Y-60706853D01*
X156063304Y-60796820D01*
X156064219Y-60797286D01*
X156253657Y-60858838D01*
X156253658Y-60858838D01*
X156253661Y-60858839D01*
X156450403Y-60890000D01*
X156450404Y-60890000D01*
X156649596Y-60890000D01*
X156649597Y-60890000D01*
X156846339Y-60858839D01*
X156846342Y-60858838D01*
X156846343Y-60858838D01*
X157035780Y-60797286D01*
X157035780Y-60797285D01*
X157035783Y-60797285D01*
X157213266Y-60706853D01*
X157374418Y-60589769D01*
X157515269Y-60448918D01*
X157632353Y-60287766D01*
X157709515Y-60136327D01*
X157757490Y-60085531D01*
X157825311Y-60068736D01*
X157891446Y-60091273D01*
X157930485Y-60136327D01*
X158007647Y-60287766D01*
X158124731Y-60448918D01*
X158265582Y-60589769D01*
X158426734Y-60706853D01*
X158603304Y-60796820D01*
X158604219Y-60797286D01*
X158793657Y-60858838D01*
X158793658Y-60858838D01*
X158793661Y-60858839D01*
X158990403Y-60890000D01*
X158990404Y-60890000D01*
X159189596Y-60890000D01*
X159189597Y-60890000D01*
X159386339Y-60858839D01*
X159386342Y-60858838D01*
X159386343Y-60858838D01*
X159575780Y-60797286D01*
X159575780Y-60797285D01*
X159575783Y-60797285D01*
X159753266Y-60706853D01*
X159914418Y-60589769D01*
X160055269Y-60448918D01*
X160172353Y-60287766D01*
X160249515Y-60136327D01*
X160297490Y-60085531D01*
X160365311Y-60068736D01*
X160431446Y-60091273D01*
X160470485Y-60136327D01*
X160547647Y-60287766D01*
X160664731Y-60448918D01*
X160805582Y-60589769D01*
X160966734Y-60706853D01*
X161143304Y-60796820D01*
X161144219Y-60797286D01*
X161333657Y-60858838D01*
X161333658Y-60858838D01*
X161333661Y-60858839D01*
X161530403Y-60890000D01*
X161530404Y-60890000D01*
X161729596Y-60890000D01*
X161729597Y-60890000D01*
X161926339Y-60858839D01*
X161926342Y-60858838D01*
X161926343Y-60858838D01*
X162115780Y-60797286D01*
X162115780Y-60797285D01*
X162115783Y-60797285D01*
X162293266Y-60706853D01*
X162454418Y-60589769D01*
X162595269Y-60448918D01*
X162712353Y-60287766D01*
X162789515Y-60136327D01*
X162837490Y-60085531D01*
X162905311Y-60068736D01*
X162971446Y-60091273D01*
X163010485Y-60136327D01*
X163087647Y-60287766D01*
X163204731Y-60448918D01*
X163345582Y-60589769D01*
X163506734Y-60706853D01*
X163683304Y-60796820D01*
X163684219Y-60797286D01*
X163873657Y-60858838D01*
X163873658Y-60858838D01*
X163873661Y-60858839D01*
X164070403Y-60890000D01*
X164070404Y-60890000D01*
X164269596Y-60890000D01*
X164269597Y-60890000D01*
X164466339Y-60858839D01*
X164466342Y-60858838D01*
X164466343Y-60858838D01*
X164655780Y-60797286D01*
X164655780Y-60797285D01*
X164655783Y-60797285D01*
X164833266Y-60706853D01*
X164994418Y-60589769D01*
X165135269Y-60448918D01*
X165252353Y-60287766D01*
X165329515Y-60136327D01*
X165377490Y-60085531D01*
X165445311Y-60068736D01*
X165511446Y-60091273D01*
X165550485Y-60136327D01*
X165627647Y-60287766D01*
X165744731Y-60448918D01*
X165885582Y-60589769D01*
X166046734Y-60706853D01*
X166223304Y-60796820D01*
X166224219Y-60797286D01*
X166413657Y-60858838D01*
X166413658Y-60858838D01*
X166413661Y-60858839D01*
X166610403Y-60890000D01*
X166610404Y-60890000D01*
X166809596Y-60890000D01*
X166809597Y-60890000D01*
X167006339Y-60858839D01*
X167006342Y-60858838D01*
X167006343Y-60858838D01*
X167195780Y-60797286D01*
X167195780Y-60797285D01*
X167195783Y-60797285D01*
X167373266Y-60706853D01*
X167534418Y-60589769D01*
X167675269Y-60448918D01*
X167792353Y-60287766D01*
X167869515Y-60136327D01*
X167917490Y-60085531D01*
X167985311Y-60068736D01*
X168051446Y-60091273D01*
X168090485Y-60136327D01*
X168167647Y-60287766D01*
X168284731Y-60448918D01*
X168425582Y-60589769D01*
X168586734Y-60706853D01*
X168763304Y-60796820D01*
X168764219Y-60797286D01*
X168953657Y-60858838D01*
X168953658Y-60858838D01*
X168953661Y-60858839D01*
X169150403Y-60890000D01*
X169150404Y-60890000D01*
X169349596Y-60890000D01*
X169349597Y-60890000D01*
X169546339Y-60858839D01*
X169546342Y-60858838D01*
X169546343Y-60858838D01*
X169735780Y-60797286D01*
X169735780Y-60797285D01*
X169735783Y-60797285D01*
X169913266Y-60706853D01*
X170074418Y-60589769D01*
X170215269Y-60448918D01*
X170332353Y-60287766D01*
X170409795Y-60135776D01*
X170457769Y-60084981D01*
X170525590Y-60068186D01*
X170591725Y-60090723D01*
X170630765Y-60135777D01*
X170708077Y-60287508D01*
X170735580Y-60325363D01*
X170735581Y-60325364D01*
X171298871Y-59762074D01*
X171314755Y-59821353D01*
X171381898Y-59937647D01*
X171476853Y-60032602D01*
X171593147Y-60099745D01*
X171652425Y-60115628D01*
X171089134Y-60678917D01*
X171126994Y-60706424D01*
X171304405Y-60796820D01*
X171493777Y-60858352D01*
X171690437Y-60889500D01*
X171889563Y-60889500D01*
X172086222Y-60858352D01*
X172275594Y-60796820D01*
X172453005Y-60706424D01*
X172490863Y-60678918D01*
X172490863Y-60678917D01*
X171927574Y-60115628D01*
X171986853Y-60099745D01*
X172103147Y-60032602D01*
X172198102Y-59937647D01*
X172265245Y-59821353D01*
X172281128Y-59762074D01*
X172844417Y-60325363D01*
X172844418Y-60325363D01*
X172871924Y-60287505D01*
X172949515Y-60135227D01*
X172997490Y-60084431D01*
X173065311Y-60067636D01*
X173131446Y-60090174D01*
X173170485Y-60135227D01*
X173248077Y-60287508D01*
X173275580Y-60325363D01*
X173275581Y-60325364D01*
X173838871Y-59762074D01*
X173854755Y-59821353D01*
X173921898Y-59937647D01*
X174016853Y-60032602D01*
X174133147Y-60099745D01*
X174192425Y-60115628D01*
X173629134Y-60678917D01*
X173666994Y-60706424D01*
X173844405Y-60796820D01*
X174033777Y-60858352D01*
X174230437Y-60889500D01*
X174429563Y-60889500D01*
X174626222Y-60858352D01*
X174815594Y-60796820D01*
X174993005Y-60706424D01*
X175030863Y-60678918D01*
X175030863Y-60678917D01*
X174467574Y-60115628D01*
X174526853Y-60099745D01*
X174643147Y-60032602D01*
X174738102Y-59937647D01*
X174805245Y-59821353D01*
X174821128Y-59762074D01*
X175384417Y-60325363D01*
X175384418Y-60325363D01*
X175411924Y-60287505D01*
X175502320Y-60110094D01*
X175563852Y-59920722D01*
X175595000Y-59724063D01*
X175595000Y-59524936D01*
X175563852Y-59328277D01*
X175502320Y-59138905D01*
X175411924Y-58961494D01*
X175384417Y-58923635D01*
X175384417Y-58923634D01*
X174821128Y-59486924D01*
X174805245Y-59427647D01*
X174738102Y-59311353D01*
X174643147Y-59216398D01*
X174526853Y-59149255D01*
X174467574Y-59133371D01*
X175030864Y-58570081D01*
X175030863Y-58570080D01*
X174993008Y-58542577D01*
X174840727Y-58464985D01*
X174789931Y-58417010D01*
X174773136Y-58349189D01*
X174795674Y-58283054D01*
X174840727Y-58244015D01*
X174993005Y-58166424D01*
X175030863Y-58138918D01*
X175030863Y-58138917D01*
X174467574Y-57575628D01*
X174526853Y-57559745D01*
X174643147Y-57492602D01*
X174738102Y-57397647D01*
X174805245Y-57281353D01*
X174821128Y-57222074D01*
X175384417Y-57785363D01*
X175384418Y-57785363D01*
X175411924Y-57747505D01*
X175502320Y-57570094D01*
X175563852Y-57380722D01*
X175595000Y-57184063D01*
X175595000Y-56984936D01*
X175563852Y-56788277D01*
X175502320Y-56598905D01*
X175411924Y-56421494D01*
X175384417Y-56383635D01*
X175384417Y-56383634D01*
X174821128Y-56946924D01*
X174805245Y-56887647D01*
X174738102Y-56771353D01*
X174643147Y-56676398D01*
X174526853Y-56609255D01*
X174467574Y-56593371D01*
X175030864Y-56030081D01*
X175030863Y-56030080D01*
X174993008Y-56002577D01*
X174815594Y-55912179D01*
X174626222Y-55850647D01*
X174429563Y-55819500D01*
X174230437Y-55819500D01*
X174033777Y-55850647D01*
X173844405Y-55912179D01*
X173666990Y-56002577D01*
X173629135Y-56030080D01*
X173629135Y-56030081D01*
X174192425Y-56593371D01*
X174133147Y-56609255D01*
X174016853Y-56676398D01*
X173921898Y-56771353D01*
X173854755Y-56887647D01*
X173838871Y-56946925D01*
X173275581Y-56383635D01*
X173275580Y-56383635D01*
X173248074Y-56421495D01*
X173248073Y-56421496D01*
X173170484Y-56573772D01*
X173122510Y-56624568D01*
X173054689Y-56641363D01*
X172988554Y-56618825D01*
X172949516Y-56573772D01*
X172871928Y-56421499D01*
X172844417Y-56383635D01*
X172844417Y-56383634D01*
X172281128Y-56946924D01*
X172265245Y-56887647D01*
X172198102Y-56771353D01*
X172103147Y-56676398D01*
X171986853Y-56609255D01*
X171927574Y-56593371D01*
X172490864Y-56030081D01*
X172490863Y-56030080D01*
X172453008Y-56002577D01*
X172275594Y-55912179D01*
X172086222Y-55850647D01*
X171889563Y-55819500D01*
X171690437Y-55819500D01*
X171493777Y-55850647D01*
X171304405Y-55912179D01*
X171126990Y-56002577D01*
X171089135Y-56030080D01*
X171089135Y-56030081D01*
X171652425Y-56593371D01*
X171593147Y-56609255D01*
X171476853Y-56676398D01*
X171381898Y-56771353D01*
X171314755Y-56887647D01*
X171298871Y-56946925D01*
X170735581Y-56383635D01*
X170735580Y-56383635D01*
X170708075Y-56421493D01*
X170630764Y-56573223D01*
X170582790Y-56624018D01*
X170514969Y-56640813D01*
X170448834Y-56618275D01*
X170409795Y-56573222D01*
X170332486Y-56421496D01*
X170332353Y-56421234D01*
X170215269Y-56260082D01*
X170074418Y-56119231D01*
X169913266Y-56002147D01*
X169735780Y-55911713D01*
X169546342Y-55850161D01*
X169398782Y-55826790D01*
X169349597Y-55819000D01*
X169150403Y-55819000D01*
X169084822Y-55829387D01*
X168953659Y-55850161D01*
X168953656Y-55850161D01*
X168764219Y-55911713D01*
X168586733Y-56002147D01*
X168548286Y-56030081D01*
X168425582Y-56119231D01*
X168425580Y-56119233D01*
X168425579Y-56119233D01*
X168284733Y-56260079D01*
X168284733Y-56260080D01*
X168284731Y-56260082D01*
X168234447Y-56329290D01*
X168167647Y-56421233D01*
X168090485Y-56572672D01*
X168042510Y-56623468D01*
X167974689Y-56640263D01*
X167908554Y-56617725D01*
X167869515Y-56572672D01*
X167792486Y-56421496D01*
X167792353Y-56421234D01*
X167675269Y-56260082D01*
X167534418Y-56119231D01*
X167373266Y-56002147D01*
X167195780Y-55911713D01*
X167006342Y-55850161D01*
X166858782Y-55826790D01*
X166809597Y-55819000D01*
X166610403Y-55819000D01*
X166544822Y-55829387D01*
X166413659Y-55850161D01*
X166413656Y-55850161D01*
X166224219Y-55911713D01*
X166046733Y-56002147D01*
X166008286Y-56030081D01*
X165885582Y-56119231D01*
X165885580Y-56119233D01*
X165885579Y-56119233D01*
X165744733Y-56260079D01*
X165744733Y-56260080D01*
X165744731Y-56260082D01*
X165694447Y-56329290D01*
X165627647Y-56421233D01*
X165550485Y-56572672D01*
X165502510Y-56623468D01*
X165434689Y-56640263D01*
X165368554Y-56617725D01*
X165329515Y-56572672D01*
X165252486Y-56421496D01*
X165252353Y-56421234D01*
X165135269Y-56260082D01*
X164994418Y-56119231D01*
X164833266Y-56002147D01*
X164655780Y-55911713D01*
X164466342Y-55850161D01*
X164318782Y-55826790D01*
X164269597Y-55819000D01*
X164070403Y-55819000D01*
X164004822Y-55829387D01*
X163873659Y-55850161D01*
X163873656Y-55850161D01*
X163684219Y-55911713D01*
X163506733Y-56002147D01*
X163468286Y-56030081D01*
X163345582Y-56119231D01*
X163345580Y-56119233D01*
X163345579Y-56119233D01*
X163204733Y-56260079D01*
X163204733Y-56260080D01*
X163204731Y-56260082D01*
X163154447Y-56329290D01*
X163087647Y-56421233D01*
X163010485Y-56572672D01*
X162962510Y-56623468D01*
X162894689Y-56640263D01*
X162828554Y-56617725D01*
X162789515Y-56572672D01*
X162712486Y-56421496D01*
X162712353Y-56421234D01*
X162595269Y-56260082D01*
X162454418Y-56119231D01*
X162293266Y-56002147D01*
X162115780Y-55911713D01*
X161926342Y-55850161D01*
X161778782Y-55826790D01*
X161729597Y-55819000D01*
X161530403Y-55819000D01*
X161464822Y-55829387D01*
X161333659Y-55850161D01*
X161333656Y-55850161D01*
X161144219Y-55911713D01*
X160966733Y-56002147D01*
X160928286Y-56030081D01*
X160805582Y-56119231D01*
X160805580Y-56119233D01*
X160805579Y-56119233D01*
X160664733Y-56260079D01*
X160664733Y-56260080D01*
X160664731Y-56260082D01*
X160614447Y-56329290D01*
X160547647Y-56421233D01*
X160470485Y-56572672D01*
X160422510Y-56623468D01*
X160354689Y-56640263D01*
X160288554Y-56617725D01*
X160249515Y-56572672D01*
X160172486Y-56421496D01*
X160172353Y-56421234D01*
X160055269Y-56260082D01*
X159914418Y-56119231D01*
X159753266Y-56002147D01*
X159575780Y-55911713D01*
X159386342Y-55850161D01*
X159238782Y-55826790D01*
X159189597Y-55819000D01*
X158990403Y-55819000D01*
X158924822Y-55829387D01*
X158793659Y-55850161D01*
X158793656Y-55850161D01*
X158604219Y-55911713D01*
X158426733Y-56002147D01*
X158388286Y-56030081D01*
X158265582Y-56119231D01*
X158265580Y-56119233D01*
X158265579Y-56119233D01*
X158124733Y-56260079D01*
X158124733Y-56260080D01*
X158124731Y-56260082D01*
X158074447Y-56329290D01*
X158007647Y-56421233D01*
X157930485Y-56572672D01*
X157882510Y-56623468D01*
X157814689Y-56640263D01*
X157748554Y-56617725D01*
X157709515Y-56572672D01*
X157632486Y-56421496D01*
X157632353Y-56421234D01*
X157515269Y-56260082D01*
X157374418Y-56119231D01*
X157213266Y-56002147D01*
X157035780Y-55911713D01*
X156846342Y-55850161D01*
X156698782Y-55826790D01*
X156649597Y-55819000D01*
X156450403Y-55819000D01*
X156384822Y-55829387D01*
X156253659Y-55850161D01*
X156253656Y-55850161D01*
X156064219Y-55911713D01*
X155886733Y-56002147D01*
X155848286Y-56030081D01*
X155725582Y-56119231D01*
X155725580Y-56119233D01*
X155725579Y-56119233D01*
X155584733Y-56260079D01*
X155584733Y-56260080D01*
X155584731Y-56260082D01*
X155534447Y-56329290D01*
X155467647Y-56421233D01*
X155390485Y-56572672D01*
X155342510Y-56623468D01*
X155274689Y-56640263D01*
X155208554Y-56617725D01*
X155169515Y-56572672D01*
X155092486Y-56421496D01*
X155092353Y-56421234D01*
X154975269Y-56260082D01*
X154834418Y-56119231D01*
X154673266Y-56002147D01*
X154495780Y-55911713D01*
X154306342Y-55850161D01*
X154158782Y-55826790D01*
X154109597Y-55819000D01*
X153910403Y-55819000D01*
X153844822Y-55829387D01*
X153713659Y-55850161D01*
X153713656Y-55850161D01*
X153524219Y-55911713D01*
X153346733Y-56002147D01*
X153308286Y-56030081D01*
X153185582Y-56119231D01*
X153185580Y-56119233D01*
X153185579Y-56119233D01*
X153044733Y-56260079D01*
X153044733Y-56260080D01*
X153044731Y-56260082D01*
X152994447Y-56329290D01*
X152927647Y-56421233D01*
X152850485Y-56572672D01*
X152802510Y-56623468D01*
X152734689Y-56640263D01*
X152668554Y-56617725D01*
X152629515Y-56572672D01*
X152552486Y-56421496D01*
X152552353Y-56421234D01*
X152435269Y-56260082D01*
X152294418Y-56119231D01*
X152133266Y-56002147D01*
X151955780Y-55911713D01*
X151766342Y-55850161D01*
X151618782Y-55826790D01*
X151569597Y-55819000D01*
X151370403Y-55819000D01*
X151304822Y-55829387D01*
X151173659Y-55850161D01*
X151173656Y-55850161D01*
X150984219Y-55911713D01*
X150806733Y-56002147D01*
X150768286Y-56030081D01*
X150645582Y-56119231D01*
X150645580Y-56119233D01*
X150645579Y-56119233D01*
X150504733Y-56260079D01*
X150504733Y-56260080D01*
X150504731Y-56260082D01*
X150454447Y-56329290D01*
X150387647Y-56421233D01*
X150310485Y-56572672D01*
X150262510Y-56623468D01*
X150194689Y-56640263D01*
X150128554Y-56617725D01*
X150089515Y-56572672D01*
X150012486Y-56421496D01*
X150012353Y-56421234D01*
X149895269Y-56260082D01*
X149754418Y-56119231D01*
X149593266Y-56002147D01*
X149415780Y-55911713D01*
X149226342Y-55850161D01*
X149078782Y-55826790D01*
X149029597Y-55819000D01*
X148830403Y-55819000D01*
X148764822Y-55829387D01*
X148633659Y-55850161D01*
X148633656Y-55850161D01*
X148444219Y-55911713D01*
X148266733Y-56002147D01*
X148228286Y-56030081D01*
X148105582Y-56119231D01*
X148105580Y-56119233D01*
X148105579Y-56119233D01*
X147964733Y-56260079D01*
X147964733Y-56260080D01*
X147964731Y-56260082D01*
X147914447Y-56329290D01*
X147847647Y-56421233D01*
X147770485Y-56572672D01*
X147722510Y-56623468D01*
X147654689Y-56640263D01*
X147588554Y-56617725D01*
X147549515Y-56572672D01*
X147472486Y-56421496D01*
X147472353Y-56421234D01*
X147355269Y-56260082D01*
X147214418Y-56119231D01*
X147053266Y-56002147D01*
X146875780Y-55911713D01*
X146686342Y-55850161D01*
X146538782Y-55826790D01*
X146489597Y-55819000D01*
X146290403Y-55819000D01*
X146224822Y-55829387D01*
X146093659Y-55850161D01*
X146093656Y-55850161D01*
X145904219Y-55911713D01*
X145726733Y-56002147D01*
X145688286Y-56030081D01*
X145565582Y-56119231D01*
X145565580Y-56119233D01*
X145565579Y-56119233D01*
X145424733Y-56260079D01*
X145424733Y-56260080D01*
X145424731Y-56260082D01*
X145374447Y-56329290D01*
X145307647Y-56421233D01*
X145230485Y-56572672D01*
X145182510Y-56623468D01*
X145114689Y-56640263D01*
X145048554Y-56617725D01*
X145009515Y-56572672D01*
X144932486Y-56421496D01*
X144932353Y-56421234D01*
X144815269Y-56260082D01*
X144674418Y-56119231D01*
X144513266Y-56002147D01*
X144335780Y-55911713D01*
X144146342Y-55850161D01*
X143998782Y-55826790D01*
X143949597Y-55819000D01*
X143750403Y-55819000D01*
X143684822Y-55829387D01*
X143553659Y-55850161D01*
X143553656Y-55850161D01*
X143364219Y-55911713D01*
X143186733Y-56002147D01*
X143148286Y-56030081D01*
X143025582Y-56119231D01*
X143025580Y-56119233D01*
X143025579Y-56119233D01*
X142884733Y-56260079D01*
X142884733Y-56260080D01*
X142884731Y-56260082D01*
X142834447Y-56329290D01*
X142767647Y-56421233D01*
X142690485Y-56572672D01*
X142642510Y-56623468D01*
X142574689Y-56640263D01*
X142508554Y-56617725D01*
X142469515Y-56572672D01*
X142392486Y-56421496D01*
X142392353Y-56421234D01*
X142275269Y-56260082D01*
X142134418Y-56119231D01*
X141973266Y-56002147D01*
X141795780Y-55911713D01*
X141606342Y-55850161D01*
X141458782Y-55826790D01*
X141409597Y-55819000D01*
X141210403Y-55819000D01*
X141144822Y-55829387D01*
X141013659Y-55850161D01*
X141013656Y-55850161D01*
X140824219Y-55911713D01*
X140646733Y-56002147D01*
X140608286Y-56030081D01*
X140485582Y-56119231D01*
X140485580Y-56119233D01*
X140485579Y-56119233D01*
X140344733Y-56260079D01*
X140344733Y-56260080D01*
X140344731Y-56260082D01*
X140294447Y-56329290D01*
X140227647Y-56421233D01*
X140150485Y-56572672D01*
X140102510Y-56623468D01*
X140034689Y-56640263D01*
X139968554Y-56617725D01*
X139929515Y-56572672D01*
X139852486Y-56421496D01*
X139852353Y-56421234D01*
X139735269Y-56260082D01*
X139594418Y-56119231D01*
X139433266Y-56002147D01*
X139255780Y-55911713D01*
X139066342Y-55850161D01*
X138918782Y-55826790D01*
X138869597Y-55819000D01*
X138670403Y-55819000D01*
X138604822Y-55829387D01*
X138473659Y-55850161D01*
X138473656Y-55850161D01*
X138284219Y-55911713D01*
X138106733Y-56002147D01*
X138068286Y-56030081D01*
X137945582Y-56119231D01*
X137945580Y-56119233D01*
X137945579Y-56119233D01*
X137804733Y-56260079D01*
X137804733Y-56260080D01*
X137804731Y-56260082D01*
X137754447Y-56329290D01*
X137687647Y-56421233D01*
X137610485Y-56572672D01*
X137562510Y-56623468D01*
X137494689Y-56640263D01*
X137428554Y-56617725D01*
X137389515Y-56572672D01*
X137312486Y-56421496D01*
X137312353Y-56421234D01*
X137195269Y-56260082D01*
X137054418Y-56119231D01*
X136893266Y-56002147D01*
X136715780Y-55911713D01*
X136526342Y-55850161D01*
X136378782Y-55826790D01*
X136329597Y-55819000D01*
X136130403Y-55819000D01*
X136064822Y-55829387D01*
X135933659Y-55850161D01*
X135933656Y-55850161D01*
X135744219Y-55911713D01*
X135566733Y-56002147D01*
X135528286Y-56030081D01*
X135405582Y-56119231D01*
X135405580Y-56119233D01*
X135405579Y-56119233D01*
X135264733Y-56260079D01*
X135264733Y-56260080D01*
X135264731Y-56260082D01*
X135214447Y-56329290D01*
X135147647Y-56421233D01*
X135070485Y-56572672D01*
X135022510Y-56623468D01*
X134954689Y-56640263D01*
X134888554Y-56617725D01*
X134849515Y-56572672D01*
X134772486Y-56421496D01*
X134772353Y-56421234D01*
X134655269Y-56260082D01*
X134514418Y-56119231D01*
X134353266Y-56002147D01*
X134175780Y-55911713D01*
X133986342Y-55850161D01*
X133838782Y-55826790D01*
X133789597Y-55819000D01*
X133590403Y-55819000D01*
X133524822Y-55829387D01*
X133393659Y-55850161D01*
X133393656Y-55850161D01*
X133204219Y-55911713D01*
X133026733Y-56002147D01*
X132988286Y-56030081D01*
X132865582Y-56119231D01*
X132865580Y-56119233D01*
X132865579Y-56119233D01*
X132724733Y-56260079D01*
X132724733Y-56260080D01*
X132724731Y-56260082D01*
X132674447Y-56329290D01*
X132607647Y-56421233D01*
X132530485Y-56572672D01*
X132482510Y-56623468D01*
X132414689Y-56640263D01*
X132348554Y-56617725D01*
X132309515Y-56572672D01*
X132232486Y-56421496D01*
X132232353Y-56421234D01*
X132115269Y-56260082D01*
X131974418Y-56119231D01*
X131813266Y-56002147D01*
X131635780Y-55911713D01*
X131446342Y-55850161D01*
X131298782Y-55826790D01*
X131249597Y-55819000D01*
X131050403Y-55819000D01*
X130984822Y-55829387D01*
X130853659Y-55850161D01*
X130853656Y-55850161D01*
X130664219Y-55911713D01*
X130486733Y-56002147D01*
X130448286Y-56030081D01*
X130325582Y-56119231D01*
X130325580Y-56119233D01*
X130325579Y-56119233D01*
X130184733Y-56260079D01*
X130184733Y-56260080D01*
X130184731Y-56260082D01*
X130134447Y-56329290D01*
X130067647Y-56421233D01*
X129990485Y-56572672D01*
X129942510Y-56623468D01*
X129874689Y-56640263D01*
X129808554Y-56617725D01*
X129769515Y-56572672D01*
X129692486Y-56421496D01*
X129692353Y-56421234D01*
X129575269Y-56260082D01*
X129434418Y-56119231D01*
X129273266Y-56002147D01*
X129095780Y-55911713D01*
X128906342Y-55850161D01*
X128758782Y-55826790D01*
X128709597Y-55819000D01*
X128510403Y-55819000D01*
X128444822Y-55829387D01*
X128313659Y-55850161D01*
X128313656Y-55850161D01*
X128124219Y-55911713D01*
X127946733Y-56002147D01*
X127908286Y-56030081D01*
X127785582Y-56119231D01*
X127785580Y-56119233D01*
X127785579Y-56119233D01*
X127644733Y-56260079D01*
X127644733Y-56260080D01*
X127644731Y-56260082D01*
X127594447Y-56329290D01*
X127527647Y-56421233D01*
X127450485Y-56572672D01*
X127402510Y-56623468D01*
X127334689Y-56640263D01*
X127268554Y-56617725D01*
X127229515Y-56572672D01*
X127152486Y-56421496D01*
X127152353Y-56421234D01*
X127035269Y-56260082D01*
X126894418Y-56119231D01*
X126733266Y-56002147D01*
X126555780Y-55911713D01*
X126366342Y-55850161D01*
X126218782Y-55826790D01*
X126169597Y-55819000D01*
X125970403Y-55819000D01*
X125904822Y-55829387D01*
X125773659Y-55850161D01*
X125773656Y-55850161D01*
X125584219Y-55911713D01*
X125406733Y-56002147D01*
X125368286Y-56030081D01*
X125245582Y-56119231D01*
X125245580Y-56119233D01*
X125245579Y-56119233D01*
X125104733Y-56260079D01*
X125104733Y-56260080D01*
X125104731Y-56260082D01*
X125054447Y-56329290D01*
X124987647Y-56421233D01*
X124895485Y-56602112D01*
X124847510Y-56652908D01*
X124779689Y-56669703D01*
X124713554Y-56647166D01*
X124674515Y-56602112D01*
X124582486Y-56421496D01*
X124582353Y-56421234D01*
X124465269Y-56260082D01*
X124324418Y-56119231D01*
X124163266Y-56002147D01*
X123985780Y-55911713D01*
X123796342Y-55850161D01*
X123648782Y-55826790D01*
X123599597Y-55819000D01*
X123400403Y-55819000D01*
X123334822Y-55829387D01*
X123203659Y-55850161D01*
X123203656Y-55850161D01*
X123014219Y-55911713D01*
X122836733Y-56002147D01*
X122798286Y-56030081D01*
X122675582Y-56119231D01*
X122675580Y-56119233D01*
X122675579Y-56119233D01*
X122534733Y-56260079D01*
X122534733Y-56260080D01*
X122534731Y-56260082D01*
X122476189Y-56340658D01*
X122417645Y-56421236D01*
X122355203Y-56543784D01*
X122307229Y-56594579D01*
X122239407Y-56611374D01*
X122173273Y-56588836D01*
X122134234Y-56543783D01*
X122071924Y-56421494D01*
X122044417Y-56383635D01*
X122044417Y-56383634D01*
X121481128Y-56946924D01*
X121465245Y-56887647D01*
X121398102Y-56771353D01*
X121303147Y-56676398D01*
X121186853Y-56609255D01*
X121127574Y-56593371D01*
X121690864Y-56030081D01*
X121690863Y-56030080D01*
X121653008Y-56002577D01*
X121475594Y-55912179D01*
X121286222Y-55850647D01*
X121089563Y-55819500D01*
X120890437Y-55819500D01*
X120693777Y-55850647D01*
X120504405Y-55912179D01*
X120326990Y-56002577D01*
X120289135Y-56030080D01*
X120289135Y-56030081D01*
X120852425Y-56593371D01*
X120793147Y-56609255D01*
X120676853Y-56676398D01*
X120581898Y-56771353D01*
X120514755Y-56887647D01*
X120498871Y-56946925D01*
X119935581Y-56383635D01*
X119935580Y-56383635D01*
X119908077Y-56421490D01*
X119817679Y-56598905D01*
X119756147Y-56788277D01*
X119725000Y-56984936D01*
X110604573Y-56984936D01*
X110722738Y-56894265D01*
X110722743Y-56894260D01*
X110724615Y-56892389D01*
X110894260Y-56722743D01*
X110894265Y-56722738D01*
X111041936Y-56530289D01*
X111163224Y-56320212D01*
X111256054Y-56096100D01*
X111318838Y-55861789D01*
X111350500Y-55621288D01*
X111350500Y-55378712D01*
X111350500Y-55378711D01*
X184649500Y-55378711D01*
X184649500Y-55621288D01*
X184681161Y-55861785D01*
X184743947Y-56096104D01*
X184811869Y-56260082D01*
X184836776Y-56320212D01*
X184958064Y-56530289D01*
X184958066Y-56530292D01*
X184958067Y-56530293D01*
X185105733Y-56722736D01*
X185105739Y-56722743D01*
X185277256Y-56894260D01*
X185277262Y-56894265D01*
X185469711Y-57041936D01*
X185679788Y-57163224D01*
X185903900Y-57256054D01*
X186138211Y-57318838D01*
X186318586Y-57342584D01*
X186378711Y-57350500D01*
X186378712Y-57350500D01*
X186621289Y-57350500D01*
X186669388Y-57344167D01*
X186861789Y-57318838D01*
X187096100Y-57256054D01*
X187320212Y-57163224D01*
X187530289Y-57041936D01*
X187722738Y-56894265D01*
X187894265Y-56722738D01*
X188041936Y-56530289D01*
X188163224Y-56320212D01*
X188256054Y-56096100D01*
X188318838Y-55861789D01*
X188350500Y-55621288D01*
X188350500Y-55378712D01*
X188318838Y-55138211D01*
X188256054Y-54903900D01*
X188163224Y-54679788D01*
X188041936Y-54469711D01*
X187894265Y-54277262D01*
X187894260Y-54277256D01*
X187722743Y-54105739D01*
X187722736Y-54105733D01*
X187530293Y-53958067D01*
X187530292Y-53958066D01*
X187530289Y-53958064D01*
X187320212Y-53836776D01*
X187320205Y-53836773D01*
X187096104Y-53743947D01*
X186861785Y-53681161D01*
X186621289Y-53649500D01*
X186621288Y-53649500D01*
X186378712Y-53649500D01*
X186378711Y-53649500D01*
X186138214Y-53681161D01*
X185903895Y-53743947D01*
X185679794Y-53836773D01*
X185679785Y-53836777D01*
X185469706Y-53958067D01*
X185277263Y-54105733D01*
X185277256Y-54105739D01*
X185105739Y-54277256D01*
X185105733Y-54277263D01*
X184958067Y-54469706D01*
X184836777Y-54679785D01*
X184836773Y-54679794D01*
X184743947Y-54903895D01*
X184681161Y-55138214D01*
X184649500Y-55378711D01*
X111350500Y-55378711D01*
X111318838Y-55138211D01*
X111256054Y-54903900D01*
X111163224Y-54679788D01*
X111041936Y-54469711D01*
X110894265Y-54277262D01*
X110894260Y-54277256D01*
X110722743Y-54105739D01*
X110722736Y-54105733D01*
X110530293Y-53958067D01*
X110530292Y-53958066D01*
X110530289Y-53958064D01*
X110320212Y-53836776D01*
X110320205Y-53836773D01*
X110096104Y-53743947D01*
X109861785Y-53681161D01*
X109621289Y-53649500D01*
X109621288Y-53649500D01*
X109378712Y-53649500D01*
X109378711Y-53649500D01*
X109138214Y-53681161D01*
X108903895Y-53743947D01*
X108679794Y-53836773D01*
X108679785Y-53836777D01*
X108469706Y-53958067D01*
X108277263Y-54105733D01*
X108277256Y-54105739D01*
X108105739Y-54277256D01*
X108105733Y-54277263D01*
X107958067Y-54469706D01*
X107836777Y-54679785D01*
X107836773Y-54679794D01*
X107743947Y-54903895D01*
X107681161Y-55138214D01*
X107649500Y-55378711D01*
X106500500Y-55378711D01*
X106500500Y-52624000D01*
X106520185Y-52556961D01*
X106572989Y-52511206D01*
X106624500Y-52500000D01*
X189375500Y-52500000D01*
X189442539Y-52519685D01*
G37*
%TD.AperFunction*%
%TD*%
M02*
