%TF.GenerationSoftware,KiCad,Pcbnew,10.0.4*%
%TF.CreationDate,2026-07-24T14:07:31-04:00*%
%TF.ProjectId,NaviHiltCore,4e617669-4869-46c7-9443-6f72652e6b69,rev?*%
%TF.SameCoordinates,Original*%
%TF.FileFunction,Copper,L3,Inr*%
%TF.FilePolarity,Positive*%
%FSLAX46Y46*%
G04 Gerber Fmt 4.6, Leading zero omitted, Abs format (unit mm)*
G04 Created by KiCad (PCBNEW 10.0.4) date 2026-07-24 14:07:31*
%MOMM*%
%LPD*%
G01*
G04 APERTURE LIST*
G04 Aperture macros list*
%AMRoundRect*
0 Rectangle with rounded corners*
0 $1 Rounding radius*
0 $2 $3 $4 $5 $6 $7 $8 $9 X,Y pos of 4 corners*
0 Add a 4 corners polygon primitive as box body*
4,1,4,$2,$3,$4,$5,$6,$7,$8,$9,$2,$3,0*
0 Add four circle primitives for the rounded corners*
1,1,$1+$1,$2,$3*
1,1,$1+$1,$4,$5*
1,1,$1+$1,$6,$7*
1,1,$1+$1,$8,$9*
0 Add four rect primitives between the rounded corners*
20,1,$1+$1,$2,$3,$4,$5,0*
20,1,$1+$1,$4,$5,$6,$7,0*
20,1,$1+$1,$6,$7,$8,$9,0*
20,1,$1+$1,$8,$9,$2,$3,0*%
G04 Aperture macros list end*
%TA.AperFunction,ComponentPad*%
%ADD10R,1.700000X1.700000*%
%TD*%
%TA.AperFunction,ComponentPad*%
%ADD11C,1.700000*%
%TD*%
%TA.AperFunction,ComponentPad*%
%ADD12R,1.530000X1.530000*%
%TD*%
%TA.AperFunction,ComponentPad*%
%ADD13C,1.530000*%
%TD*%
%TA.AperFunction,ComponentPad*%
%ADD14C,2.050000*%
%TD*%
%TA.AperFunction,ComponentPad*%
%ADD15C,2.250000*%
%TD*%
%TA.AperFunction,ComponentPad*%
%ADD16RoundRect,0.250001X-0.949999X-0.949999X0.949999X-0.949999X0.949999X0.949999X-0.949999X0.949999X0*%
%TD*%
%TA.AperFunction,ComponentPad*%
%ADD17C,2.400000*%
%TD*%
%TA.AperFunction,ViaPad*%
%ADD18C,0.600000*%
%TD*%
%TA.AperFunction,Conductor*%
%ADD19C,0.200000*%
%TD*%
G04 APERTURE END LIST*
D10*
%TO.N,unconnected-(U2-PG-Pad1)*%
%TO.C,U2*%
X142380000Y-105000000D03*
D11*
%TO.N,/+5V*%
X144920000Y-105000000D03*
X147460000Y-105000000D03*
%TO.N,GND*%
X150000000Y-105000000D03*
%TO.N,/+3V3_RF*%
X152540000Y-105000000D03*
%TD*%
D10*
%TO.N,GND*%
%TO.C,J4*%
X136000000Y-112960000D03*
D11*
%TO.N,/+5V*%
X136000000Y-115500000D03*
%TO.N,/PWM3*%
X136000000Y-118040000D03*
%TD*%
D12*
%TO.N,/+3V3*%
%TO.C,U1*%
X120990000Y-82484500D03*
D13*
X123530000Y-82484500D03*
%TO.N,unconnected-(U1-RST-PadJ1_3)*%
X126070000Y-82484500D03*
%TO.N,/SBUS_IN*%
X128610000Y-82484500D03*
%TO.N,/SBUS_OUT*%
X131150000Y-82484500D03*
%TO.N,/MAESTRO_TX*%
X133690000Y-82484500D03*
%TO.N,/MAESTRO_RX*%
X136230000Y-82484500D03*
%TO.N,/BUSY_1*%
X138770000Y-82484500D03*
%TO.N,/DIO1_1*%
X141310000Y-82484500D03*
%TO.N,/RXEN_1*%
X143850000Y-82484500D03*
%TO.N,/TXEN_1*%
X146390000Y-82484500D03*
%TO.N,/S1_TX*%
X148930000Y-82484500D03*
%TO.N,unconnected-(U1-GPIO3-PadJ1_13)*%
X151470000Y-82484500D03*
%TO.N,unconnected-(U1-GPIO46-PadJ1_14)*%
X154010000Y-82484500D03*
%TO.N,/S1_RX*%
X156550000Y-82484500D03*
%TO.N,/S2_TX*%
X159090000Y-82484500D03*
%TO.N,/MOSI*%
X161630000Y-82484500D03*
%TO.N,/SCK*%
X164170000Y-82484500D03*
%TO.N,/MISO*%
X166710000Y-82484500D03*
%TO.N,/NSS_1*%
X169250000Y-82484500D03*
%TO.N,/+5V*%
X171790000Y-82484500D03*
%TO.N,GND*%
X174330000Y-82484500D03*
X120990000Y-59624500D03*
X120990000Y-57084500D03*
%TO.N,/PWM1*%
X123530000Y-59624500D03*
X123500000Y-57084500D03*
%TO.N,unconnected-(U1-U0RXD{slash}GPIO44-PadJ3_3)*%
X126070000Y-59624500D03*
%TO.N,unconnected-(U1-U0RXD{slash}GPIO44-PadJ3_3)_1*%
X126070000Y-57084500D03*
%TO.N,/PWM3*%
X128610000Y-59624500D03*
X128610000Y-57084500D03*
%TO.N,/PWM2*%
X131150000Y-59624500D03*
X131150000Y-57084500D03*
%TO.N,/TXEN_2*%
X133690000Y-59624500D03*
X133690000Y-57084500D03*
%TO.N,/RXEN_2*%
X136230000Y-59624500D03*
X136230000Y-57084500D03*
%TO.N,/DIO1_2*%
X138770000Y-59624500D03*
X138770000Y-57084500D03*
%TO.N,/BUSY_2*%
X141310000Y-59624500D03*
X141310000Y-57084500D03*
%TO.N,/NSS_2*%
X143850000Y-59624500D03*
X143850000Y-57084500D03*
%TO.N,unconnected-(U1-GPIO37-PadJ3_11)_1*%
X146390000Y-59624500D03*
%TO.N,unconnected-(U1-GPIO37-PadJ3_11)*%
X146390000Y-57084500D03*
%TO.N,unconnected-(U1-GPIO36-PadJ3_12)_1*%
X148930000Y-59624500D03*
%TO.N,unconnected-(U1-GPIO36-PadJ3_12)*%
X148930000Y-57084500D03*
%TO.N,unconnected-(U1-GPIO35-PadJ3_13)*%
X151470000Y-59624500D03*
%TO.N,unconnected-(U1-GPIO35-PadJ3_13)_1*%
X151470000Y-57084500D03*
%TO.N,unconnected-(U1-GPIO0-PadJ3_14)_1*%
X154010000Y-59624500D03*
%TO.N,unconnected-(U1-GPIO0-PadJ3_14)*%
X154010000Y-57084500D03*
%TO.N,unconnected-(U1-GPIO45-PadJ3_15)_1*%
X156550000Y-59624500D03*
%TO.N,unconnected-(U1-GPIO45-PadJ3_15)*%
X156550000Y-57084500D03*
%TO.N,unconnected-(U1-GPIO48-PadJ3_16)*%
X159090000Y-59624500D03*
%TO.N,unconnected-(U1-GPIO48-PadJ3_16)_1*%
X159090000Y-57084500D03*
%TO.N,/RST*%
X161630000Y-59624500D03*
X161630000Y-57084500D03*
%TO.N,/S2_RX*%
X164170000Y-59624500D03*
X164170000Y-57084500D03*
%TO.N,unconnected-(U1-USB_D+{slash}GPIO20-PadJ3_19)*%
X166710000Y-59624500D03*
%TO.N,unconnected-(U1-USB_D+{slash}GPIO20-PadJ3_19)_1*%
X166710000Y-57084500D03*
%TO.N,unconnected-(U1-USB_D-{slash}GPIO19-PadJ3_20)_1*%
X169250000Y-59624500D03*
%TO.N,unconnected-(U1-USB_D-{slash}GPIO19-PadJ3_20)*%
X169250000Y-57084500D03*
%TO.N,GND*%
X171790000Y-59624500D03*
X171790000Y-57084500D03*
X174330000Y-59624500D03*
X174330000Y-57084500D03*
%TD*%
D10*
%TO.N,GND*%
%TO.C,J2*%
X125500000Y-113000000D03*
D11*
%TO.N,/+5V*%
X125500000Y-115540000D03*
%TO.N,/PWM1*%
X125500000Y-118080000D03*
%TD*%
D10*
%TO.N,GND*%
%TO.C,J3*%
X130500000Y-113000000D03*
D11*
%TO.N,/+5V*%
X130500000Y-115540000D03*
%TO.N,/PWM2*%
X130500000Y-118080000D03*
%TD*%
D10*
%TO.N,GND*%
%TO.C,J7*%
X170000000Y-112500000D03*
D11*
%TO.N,/+5V*%
X170000000Y-115040000D03*
%TO.N,/S1_TX*%
X170000000Y-117580000D03*
%TO.N,/S1_RX*%
X170000000Y-120120000D03*
%TD*%
D14*
%TO.N,/ANT1*%
%TO.C,J12*%
X185040000Y-89580000D03*
D15*
%TO.N,GND*%
X187580000Y-92120000D03*
X187580000Y-87040000D03*
X182500000Y-92120000D03*
X182500000Y-87040000D03*
%TD*%
D16*
%TO.N,/+5V*%
%TO.C,J10*%
X147160000Y-116142500D03*
D17*
%TO.N,GND*%
X152240000Y-116142500D03*
%TD*%
D10*
%TO.N,GND*%
%TO.C,J6*%
X165045714Y-112500000D03*
D11*
%TO.N,/+5V*%
X165045714Y-115040000D03*
%TO.N,/MAESTRO_TX*%
X165045714Y-117580000D03*
%TO.N,/MAESTRO_RX*%
X165045714Y-120120000D03*
%TD*%
D10*
%TO.N,GND*%
%TO.C,J11*%
X120500000Y-112920000D03*
D11*
%TO.N,/+5V*%
X120500000Y-115460000D03*
%TO.N,/SBUS_IN*%
X120500000Y-118000000D03*
%TD*%
D14*
%TO.N,/ANT2*%
%TO.C,J13*%
X110500000Y-104460000D03*
D15*
%TO.N,GND*%
X107960000Y-101920000D03*
X107960000Y-107000000D03*
X113040000Y-101920000D03*
X113040000Y-107000000D03*
%TD*%
D10*
%TO.N,GND*%
%TO.C,J1*%
X115500000Y-112920000D03*
D11*
%TO.N,/+5V*%
X115500000Y-115460000D03*
%TO.N,/SBUS_OUT*%
X115500000Y-118000000D03*
%TD*%
D10*
%TO.N,GND*%
%TO.C,J8*%
X174954285Y-112500000D03*
D11*
%TO.N,/+5V*%
X174954285Y-115040000D03*
%TO.N,/S2_TX*%
X174954285Y-117580000D03*
%TO.N,/S2_RX*%
X174954285Y-120120000D03*
%TD*%
D18*
%TO.N,GND*%
X132500000Y-105500000D03*
X186500000Y-90500000D03*
X112500000Y-105000000D03*
X134000000Y-96000000D03*
X187000000Y-89500000D03*
X184500000Y-91500000D03*
X166500000Y-87500000D03*
X109500000Y-102500000D03*
X116000000Y-85500000D03*
X108500000Y-105000000D03*
X185500000Y-91500000D03*
X131500000Y-87000000D03*
X182000000Y-90440268D03*
X132500000Y-104000000D03*
X113500000Y-103500000D03*
X184000000Y-88000000D03*
X113500000Y-105000000D03*
X181000000Y-89000000D03*
X110500000Y-102500000D03*
X108500000Y-104000000D03*
X111000000Y-106000000D03*
X183500000Y-88500000D03*
X109000000Y-103000000D03*
X110000000Y-106000000D03*
X114500000Y-103500000D03*
X183000000Y-90500000D03*
X112000000Y-105500000D03*
X111500000Y-102500000D03*
X109000000Y-105500000D03*
X112500000Y-103500000D03*
X167000000Y-87000000D03*
X132460000Y-102960000D03*
X182000000Y-89000000D03*
X186500000Y-88500000D03*
X183000000Y-89000000D03*
X134950000Y-95000000D03*
X162000000Y-99000000D03*
X167000000Y-107000000D03*
X116500000Y-87500000D03*
X114500000Y-105000000D03*
X185000000Y-87500000D03*
X162500000Y-98500000D03*
X184000000Y-91000000D03*
X181500000Y-105500000D03*
X186000000Y-88000000D03*
X181000000Y-90440268D03*
X132610000Y-97390000D03*
X116500000Y-86500000D03*
X163500000Y-97880000D03*
%TO.N,/RXEN_1*%
X149500000Y-89500000D03*
X170000000Y-97000000D03*
%TO.N,/TXEN_1*%
X152250000Y-89750000D03*
X171000000Y-97000000D03*
%TO.N,/+3V3_RF*%
X134075000Y-87575000D03*
X134575000Y-87075000D03*
X137000000Y-87000000D03*
X136000000Y-86600000D03*
%TO.N,/DIO1_1*%
X146750000Y-88750000D03*
X175000000Y-102000000D03*
%TO.N,/BUSY_1*%
X146392750Y-90107250D03*
X175500000Y-99500000D03*
%TO.N,/MOSI*%
X175500000Y-96000000D03*
%TO.N,/RXEN_2*%
X137000000Y-67000000D03*
X126500000Y-93500000D03*
%TO.N,/TXEN_2*%
X133690000Y-66500000D03*
X127500000Y-92500000D03*
%TD*%
%TO.N,/RXEN_1*%
D19*
X170000000Y-97000000D02*
X170000000Y-96000000D01*
X168000000Y-94000000D02*
X154000000Y-94000000D01*
X154000000Y-94000000D02*
X149500000Y-89500000D01*
X170000000Y-96000000D02*
X168000000Y-94000000D01*
%TO.N,/TXEN_1*%
X152250000Y-89750000D02*
X155500000Y-93000000D01*
X168500000Y-93000000D02*
X171000000Y-95500000D01*
X171000000Y-95500000D02*
X171000000Y-97000000D01*
X155500000Y-93000000D02*
X168500000Y-93000000D01*
%TO.N,/DIO1_1*%
X158851186Y-102000000D02*
X155925593Y-99074407D01*
X141310000Y-83310000D02*
X141310000Y-82484500D01*
X155925593Y-99074407D02*
X155925593Y-97925593D01*
X175000000Y-102000000D02*
X158851186Y-102000000D01*
X155925593Y-97925593D02*
X146750000Y-88750000D01*
%TO.N,/BUSY_1*%
X176000000Y-100000000D02*
X176000000Y-103500000D01*
X176000000Y-103500000D02*
X159785500Y-103500000D01*
X175500000Y-99500000D02*
X176000000Y-100000000D01*
X159785500Y-103500000D02*
X146392750Y-90107250D01*
%TO.N,/RXEN_2*%
X138000000Y-73000000D02*
X132128362Y-78871638D01*
X130085000Y-82043362D02*
X130085000Y-82915000D01*
X127348529Y-93500000D02*
X126500000Y-93500000D01*
X138000000Y-68000000D02*
X138000000Y-73000000D01*
X129000000Y-91848529D02*
X127348529Y-93500000D01*
X129000000Y-84000000D02*
X129000000Y-91848529D01*
X130085000Y-82915000D02*
X129000000Y-84000000D01*
X132128362Y-80000000D02*
X130085000Y-82043362D01*
X132128362Y-78871638D02*
X132128362Y-80000000D01*
X137000000Y-67000000D02*
X138000000Y-68000000D01*
%TO.N,/TXEN_2*%
X127500000Y-92500000D02*
X127500000Y-74500000D01*
X127500000Y-74500000D02*
X133690000Y-68310000D01*
X133690000Y-68310000D02*
X133690000Y-66500000D01*
%TD*%
%TA.AperFunction,Conductor*%
%TO.N,/+5V*%
G36*
X150443039Y-103025185D02*
G01*
X150488794Y-103077989D01*
X150500000Y-103129500D01*
X150500000Y-103553958D01*
X150494975Y-103588899D01*
X150491064Y-103602216D01*
X150481428Y-103617207D01*
X150476408Y-103634309D01*
X150462929Y-103645989D01*
X150453287Y-103660992D01*
X150437072Y-103668396D01*
X150423606Y-103680067D01*
X150389742Y-103690012D01*
X150382824Y-103691007D01*
X150326854Y-103686201D01*
X150316242Y-103682753D01*
X150316239Y-103682752D01*
X150139542Y-103654765D01*
X150139542Y-103654766D01*
X150106288Y-103649500D01*
X150106287Y-103649500D01*
X149893713Y-103649500D01*
X149893709Y-103649500D01*
X149854776Y-103655666D01*
X149845042Y-103657208D01*
X149807654Y-103663129D01*
X149683763Y-103682752D01*
X149481582Y-103748445D01*
X149292182Y-103844949D01*
X149292179Y-103844950D01*
X149292179Y-103844951D01*
X149291589Y-103845380D01*
X149120210Y-103969892D01*
X148969886Y-104120216D01*
X148844943Y-104292187D01*
X148844188Y-104293421D01*
X148828613Y-104313768D01*
X148819070Y-104323872D01*
X148758728Y-104359094D01*
X148688922Y-104356100D01*
X148635211Y-104319934D01*
X148633272Y-104317696D01*
X148629104Y-104312886D01*
X148617086Y-104296467D01*
X148614628Y-104292457D01*
X148614626Y-104292452D01*
X148575270Y-104238282D01*
X148575268Y-104238282D01*
X148069702Y-104743849D01*
X148008379Y-104777334D01*
X147938687Y-104772350D01*
X147882754Y-104730478D01*
X147874634Y-104718169D01*
X147860099Y-104692993D01*
X147767007Y-104599901D01*
X147767004Y-104599899D01*
X147767000Y-104599896D01*
X147741828Y-104585363D01*
X147693613Y-104534796D01*
X147680391Y-104466189D01*
X147706359Y-104401324D01*
X147716135Y-104390310D01*
X148221716Y-103884728D01*
X148167550Y-103845375D01*
X148160189Y-103841624D01*
X147978214Y-103748902D01*
X147776130Y-103683242D01*
X147566251Y-103650000D01*
X147566246Y-103650000D01*
X147353754Y-103650000D01*
X147353749Y-103650000D01*
X147153513Y-103681715D01*
X147153505Y-103681715D01*
X147153506Y-103681716D01*
X147143865Y-103683242D01*
X146941784Y-103748903D01*
X146752438Y-103845380D01*
X146698282Y-103884727D01*
X146698282Y-103884728D01*
X147203850Y-104390296D01*
X147237335Y-104451619D01*
X147232351Y-104521311D01*
X147190479Y-104577244D01*
X147178173Y-104585362D01*
X147152996Y-104599898D01*
X147152990Y-104599903D01*
X147059903Y-104692990D01*
X147059898Y-104692996D01*
X147045362Y-104718173D01*
X146994793Y-104766387D01*
X146926185Y-104779607D01*
X146861322Y-104753637D01*
X146850296Y-104743850D01*
X146344728Y-104238282D01*
X146344727Y-104238282D01*
X146305376Y-104292443D01*
X146304386Y-104294060D01*
X146288810Y-104314408D01*
X146279350Y-104324424D01*
X146219007Y-104359646D01*
X146149201Y-104356652D01*
X146095492Y-104320486D01*
X146089415Y-104313472D01*
X146077814Y-104296216D01*
X146077174Y-104296609D01*
X146074630Y-104292458D01*
X146074429Y-104292182D01*
X146035270Y-104238282D01*
X146035268Y-104238282D01*
X145529702Y-104743849D01*
X145468379Y-104777334D01*
X145398687Y-104772350D01*
X145342754Y-104730478D01*
X145334634Y-104718169D01*
X145320099Y-104692993D01*
X145227007Y-104599901D01*
X145227004Y-104599899D01*
X145227000Y-104599896D01*
X145201828Y-104585363D01*
X145153613Y-104534796D01*
X145140391Y-104466189D01*
X145166359Y-104401324D01*
X145176135Y-104390310D01*
X145681716Y-103884728D01*
X145627550Y-103845375D01*
X145620189Y-103841624D01*
X145438214Y-103748902D01*
X145236130Y-103683242D01*
X145026251Y-103650000D01*
X145026246Y-103650000D01*
X144813754Y-103650000D01*
X144813749Y-103650000D01*
X144613513Y-103681715D01*
X144613505Y-103681715D01*
X144613506Y-103681716D01*
X144603865Y-103683242D01*
X144401784Y-103748903D01*
X144212438Y-103845380D01*
X144158282Y-103884727D01*
X144158282Y-103884728D01*
X144663850Y-104390296D01*
X144697335Y-104451619D01*
X144692351Y-104521311D01*
X144650479Y-104577244D01*
X144638173Y-104585362D01*
X144612996Y-104599898D01*
X144612990Y-104599903D01*
X144519903Y-104692990D01*
X144519898Y-104692996D01*
X144505362Y-104718173D01*
X144454793Y-104766387D01*
X144386185Y-104779607D01*
X144321322Y-104753637D01*
X144310296Y-104743850D01*
X143779425Y-104212979D01*
X143779420Y-104212974D01*
X143758273Y-104184723D01*
X143745666Y-104161634D01*
X143731313Y-104105401D01*
X143730900Y-104105423D01*
X143730854Y-104105429D01*
X143730853Y-104105426D01*
X143730676Y-104105436D01*
X143730504Y-104102230D01*
X143730499Y-104102209D01*
X143730499Y-104102129D01*
X143730498Y-104102123D01*
X143730497Y-104102116D01*
X143724091Y-104042517D01*
X143695926Y-103967002D01*
X143673798Y-103907673D01*
X143673793Y-103907664D01*
X143656623Y-103884728D01*
X143587555Y-103792465D01*
X143587549Y-103792458D01*
X143587547Y-103792455D01*
X143587544Y-103792452D01*
X143587542Y-103792450D01*
X143528757Y-103748444D01*
X143472335Y-103706206D01*
X143472332Y-103706204D01*
X143472330Y-103706203D01*
X143472328Y-103706202D01*
X143337482Y-103655908D01*
X143337483Y-103655908D01*
X143277883Y-103649501D01*
X143277881Y-103649500D01*
X143277873Y-103649500D01*
X143277864Y-103649500D01*
X143276841Y-103649500D01*
X141482123Y-103649500D01*
X141480192Y-103649659D01*
X141478545Y-103649885D01*
X141422516Y-103655908D01*
X141331862Y-103689720D01*
X141287666Y-103706204D01*
X141287665Y-103706205D01*
X141172456Y-103792450D01*
X141172450Y-103792456D01*
X141086205Y-103907665D01*
X141086203Y-103907668D01*
X141035907Y-104042516D01*
X141029501Y-104102116D01*
X141029500Y-104102139D01*
X141029500Y-105897876D01*
X141029659Y-105899806D01*
X141029885Y-105901454D01*
X141035907Y-105957482D01*
X141062996Y-106030109D01*
X141086202Y-106092328D01*
X141086206Y-106092335D01*
X141129086Y-106149616D01*
X141172450Y-106207542D01*
X141172452Y-106207544D01*
X141172455Y-106207547D01*
X141287664Y-106293793D01*
X141287671Y-106293797D01*
X141422517Y-106344091D01*
X141422516Y-106344091D01*
X141429444Y-106344835D01*
X141482127Y-106350500D01*
X143277872Y-106350499D01*
X143337483Y-106344091D01*
X143472331Y-106293796D01*
X143587546Y-106207546D01*
X143673796Y-106092331D01*
X143724091Y-105957483D01*
X143724091Y-105957482D01*
X143730499Y-105897888D01*
X143730499Y-105897882D01*
X143730500Y-105897873D01*
X143730499Y-105897816D01*
X143730504Y-105897796D01*
X143730677Y-105894565D01*
X143730855Y-105894574D01*
X143730856Y-105894568D01*
X143730977Y-105894581D01*
X143731141Y-105894589D01*
X143732127Y-105889628D01*
X143731209Y-105884540D01*
X143736489Y-105867677D01*
X143739935Y-105850341D01*
X143742472Y-105844212D01*
X143743940Y-105841525D01*
X143744802Y-105838587D01*
X143747343Y-105832453D01*
X143758778Y-105818260D01*
X143774224Y-105792219D01*
X144310297Y-105256147D01*
X144371619Y-105222663D01*
X144441311Y-105227647D01*
X144497244Y-105269519D01*
X144505363Y-105281828D01*
X144519896Y-105307000D01*
X144519899Y-105307004D01*
X144519901Y-105307007D01*
X144612993Y-105400099D01*
X144638169Y-105414634D01*
X144686384Y-105465202D01*
X144699606Y-105533809D01*
X144673638Y-105598673D01*
X144663849Y-105609702D01*
X144158282Y-106115268D01*
X144158282Y-106115269D01*
X144158282Y-106115270D01*
X144212449Y-106154624D01*
X144401782Y-106251095D01*
X144401784Y-106251096D01*
X144603866Y-106316756D01*
X144603867Y-106316756D01*
X144603870Y-106316757D01*
X144813754Y-106350000D01*
X145026245Y-106350000D01*
X145026246Y-106350000D01*
X145170599Y-106327136D01*
X145226487Y-106318284D01*
X145226493Y-106318283D01*
X145236127Y-106316757D01*
X145236130Y-106316757D01*
X145438217Y-106251095D01*
X145627554Y-106154622D01*
X145629976Y-106152862D01*
X145649121Y-106138953D01*
X145675858Y-106129412D01*
X145681717Y-106115269D01*
X145176149Y-105609702D01*
X145142664Y-105548379D01*
X145147648Y-105478688D01*
X145189519Y-105422754D01*
X145201822Y-105414639D01*
X145227007Y-105400099D01*
X145320099Y-105307007D01*
X145334634Y-105281830D01*
X145385199Y-105233616D01*
X145453805Y-105220391D01*
X145518671Y-105246358D01*
X145529702Y-105256149D01*
X146035269Y-105761717D01*
X146035269Y-105761716D01*
X146035270Y-105761717D01*
X146035270Y-105761716D01*
X146043893Y-105758144D01*
X146053698Y-105739247D01*
X146054955Y-105734967D01*
X146057952Y-105730517D01*
X146058423Y-105729848D01*
X146074622Y-105707554D01*
X146075837Y-105705169D01*
X146080016Y-105699247D01*
X146081845Y-105697795D01*
X146091172Y-105685609D01*
X146100648Y-105675575D01*
X146160984Y-105640355D01*
X146230790Y-105643345D01*
X146284507Y-105679514D01*
X146290577Y-105686519D01*
X146302207Y-105703770D01*
X146302826Y-105703391D01*
X146305373Y-105707548D01*
X146344727Y-105761715D01*
X146344728Y-105761716D01*
X146850297Y-105256147D01*
X146911619Y-105222663D01*
X146981311Y-105227647D01*
X147037244Y-105269519D01*
X147045363Y-105281828D01*
X147059896Y-105307000D01*
X147059899Y-105307004D01*
X147059901Y-105307007D01*
X147152993Y-105400099D01*
X147178169Y-105414634D01*
X147226384Y-105465202D01*
X147239606Y-105533809D01*
X147213638Y-105598673D01*
X147203849Y-105609702D01*
X146698282Y-106115268D01*
X146698282Y-106115269D01*
X146698282Y-106115270D01*
X146752449Y-106154624D01*
X146941782Y-106251095D01*
X146941784Y-106251096D01*
X147143866Y-106316756D01*
X147143867Y-106316756D01*
X147143870Y-106316757D01*
X147353754Y-106350000D01*
X147566245Y-106350000D01*
X147566246Y-106350000D01*
X147710599Y-106327136D01*
X147766487Y-106318284D01*
X147766493Y-106318283D01*
X147776127Y-106316757D01*
X147776130Y-106316757D01*
X147978217Y-106251095D01*
X148167554Y-106154622D01*
X148169976Y-106152862D01*
X148189121Y-106138953D01*
X148215858Y-106129412D01*
X148221717Y-106115269D01*
X147716149Y-105609702D01*
X147682664Y-105548379D01*
X147687648Y-105478688D01*
X147729519Y-105422754D01*
X147741822Y-105414639D01*
X147767007Y-105400099D01*
X147860099Y-105307007D01*
X147874634Y-105281830D01*
X147925199Y-105233616D01*
X147993805Y-105220391D01*
X148058671Y-105246358D01*
X148069702Y-105256149D01*
X148575269Y-105761717D01*
X148575269Y-105761716D01*
X148575270Y-105761717D01*
X148575270Y-105761716D01*
X148583859Y-105758158D01*
X148593710Y-105739207D01*
X148594955Y-105734968D01*
X148598057Y-105730369D01*
X148598474Y-105729779D01*
X148614622Y-105707555D01*
X148615694Y-105705450D01*
X148619676Y-105699825D01*
X148621521Y-105698365D01*
X148630733Y-105686327D01*
X148640363Y-105676131D01*
X148700703Y-105640907D01*
X148770508Y-105643897D01*
X148824227Y-105680066D01*
X148830297Y-105687071D01*
X148841752Y-105704056D01*
X148842401Y-105703659D01*
X148844944Y-105707809D01*
X148844947Y-105707813D01*
X148844949Y-105707817D01*
X148969890Y-105879786D01*
X148969892Y-105879788D01*
X149120216Y-106030112D01*
X149292169Y-106155042D01*
X149292200Y-106155060D01*
X149292442Y-106155182D01*
X149481588Y-106251557D01*
X149683757Y-106317246D01*
X149893713Y-106350500D01*
X149893714Y-106350500D01*
X150106286Y-106350500D01*
X150106287Y-106350500D01*
X150316243Y-106317246D01*
X150320741Y-106315784D01*
X150355504Y-106309769D01*
X150369377Y-106309373D01*
X150436951Y-106327136D01*
X150484188Y-106378600D01*
X150487272Y-106384871D01*
X150500000Y-106439593D01*
X150500000Y-109000000D01*
X151416204Y-109000000D01*
X151483243Y-109019685D01*
X151528998Y-109072489D01*
X151533858Y-109084841D01*
X151551383Y-109137497D01*
X151551386Y-109137503D01*
X151629171Y-109258537D01*
X151629179Y-109258548D01*
X151674923Y-109311340D01*
X151674926Y-109311343D01*
X151674930Y-109311347D01*
X151783664Y-109405567D01*
X151914541Y-109465338D01*
X151981580Y-109485023D01*
X151981584Y-109485024D01*
X152124000Y-109505500D01*
X179376000Y-109505500D01*
X179443039Y-109525185D01*
X179488794Y-109577989D01*
X179500000Y-109629500D01*
X179500000Y-115858170D01*
X179499999Y-115858176D01*
X179500000Y-115858179D01*
X179494975Y-115893114D01*
X179490570Y-115908112D01*
X179452827Y-115966855D01*
X179452792Y-115966885D01*
X179452791Y-115966887D01*
X179452789Y-115966887D01*
X179451458Y-115968042D01*
X179396597Y-115995518D01*
X179389039Y-115997163D01*
X179362668Y-116000000D01*
X176186690Y-116000000D01*
X176186689Y-115999999D01*
X176186689Y-116000000D01*
X176151754Y-115994977D01*
X176139327Y-115991328D01*
X176080549Y-115953553D01*
X176051525Y-115889997D01*
X176059367Y-115825717D01*
X176062857Y-115817119D01*
X176077425Y-115790886D01*
X176108908Y-115747553D01*
X176205380Y-115558217D01*
X176271042Y-115356130D01*
X176271042Y-115356127D01*
X176304285Y-115146246D01*
X176304285Y-114933753D01*
X176288240Y-114832452D01*
X176272569Y-114733511D01*
X176272568Y-114733505D01*
X176272568Y-114733506D01*
X176271041Y-114723865D01*
X176243758Y-114639898D01*
X176205380Y-114521782D01*
X176108909Y-114332449D01*
X176069555Y-114278282D01*
X176069554Y-114278282D01*
X176069553Y-114278282D01*
X175563986Y-114783849D01*
X175502663Y-114817334D01*
X175432971Y-114812350D01*
X175377038Y-114770478D01*
X175368922Y-114758173D01*
X175354384Y-114732993D01*
X175261292Y-114639901D01*
X175261289Y-114639899D01*
X175261285Y-114639896D01*
X175236113Y-114625363D01*
X175187898Y-114574796D01*
X175174676Y-114506189D01*
X175200644Y-114441324D01*
X175210418Y-114430312D01*
X175741313Y-113899416D01*
X175769557Y-113878274D01*
X175792649Y-113865666D01*
X175848883Y-113851313D01*
X175848861Y-113850900D01*
X175848856Y-113850854D01*
X175848858Y-113850853D01*
X175848849Y-113850676D01*
X175852052Y-113850504D01*
X175852074Y-113850499D01*
X175852156Y-113850499D01*
X175852157Y-113850499D01*
X175911768Y-113844091D01*
X176046616Y-113793796D01*
X176161831Y-113707546D01*
X176248081Y-113592331D01*
X176298376Y-113457483D01*
X176304785Y-113397873D01*
X176304784Y-111602128D01*
X176298376Y-111542517D01*
X176248081Y-111407669D01*
X176248080Y-111407668D01*
X176248078Y-111407664D01*
X176248067Y-111407649D01*
X176245677Y-111403929D01*
X176245676Y-111403928D01*
X176242774Y-111400579D01*
X176161832Y-111292455D01*
X176161829Y-111292452D01*
X176161827Y-111292450D01*
X176103901Y-111249086D01*
X176046620Y-111206206D01*
X176046617Y-111206204D01*
X176046615Y-111206203D01*
X176046613Y-111206202D01*
X175911767Y-111155908D01*
X175911768Y-111155908D01*
X175852168Y-111149501D01*
X175852166Y-111149500D01*
X175852158Y-111149500D01*
X175852149Y-111149500D01*
X175851126Y-111149500D01*
X174056408Y-111149500D01*
X174054477Y-111149659D01*
X174052830Y-111149885D01*
X173996801Y-111155908D01*
X173861951Y-111206204D01*
X173861950Y-111206205D01*
X173746741Y-111292450D01*
X173746735Y-111292456D01*
X173660490Y-111407665D01*
X173660488Y-111407668D01*
X173610193Y-111542516D01*
X173603785Y-111602125D01*
X173603785Y-113397876D01*
X173603944Y-113399806D01*
X173604170Y-113401454D01*
X173610192Y-113457482D01*
X173637975Y-113531971D01*
X173660487Y-113592328D01*
X173660488Y-113592330D01*
X173660489Y-113592332D01*
X173660490Y-113592333D01*
X173746735Y-113707542D01*
X173746737Y-113707544D01*
X173746740Y-113707547D01*
X173861949Y-113793793D01*
X173861956Y-113793797D01*
X173906903Y-113810561D01*
X173996802Y-113844091D01*
X173996801Y-113844091D01*
X174059717Y-113850856D01*
X174059675Y-113851240D01*
X174083190Y-113855260D01*
X174109316Y-113862930D01*
X174162066Y-113894227D01*
X174698135Y-114430296D01*
X174731620Y-114491619D01*
X174726636Y-114561311D01*
X174684764Y-114617244D01*
X174672458Y-114625362D01*
X174647281Y-114639898D01*
X174647275Y-114639903D01*
X174554188Y-114732990D01*
X174554183Y-114732996D01*
X174539647Y-114758173D01*
X174489078Y-114806387D01*
X174420470Y-114819607D01*
X174355607Y-114793637D01*
X174344581Y-114783850D01*
X173839013Y-114278282D01*
X173839012Y-114278282D01*
X173799665Y-114332438D01*
X173703188Y-114521784D01*
X173637527Y-114723865D01*
X173637020Y-114727071D01*
X173604285Y-114933753D01*
X173604285Y-115146246D01*
X173634696Y-115338254D01*
X173636000Y-115346485D01*
X173636001Y-115346493D01*
X173637527Y-115356133D01*
X173703190Y-115558219D01*
X173799661Y-115747554D01*
X173813416Y-115766485D01*
X173829555Y-115788698D01*
X173846021Y-115819909D01*
X173850372Y-115832105D01*
X173854358Y-115901861D01*
X173819999Y-115962699D01*
X173763405Y-115994131D01*
X173754409Y-115996360D01*
X173724586Y-116000000D01*
X171232405Y-116000000D01*
X171197469Y-115994977D01*
X171185042Y-115991328D01*
X171172237Y-115983098D01*
X171157464Y-115979440D01*
X171143443Y-115964593D01*
X171126264Y-115953553D01*
X171119941Y-115939707D01*
X171109491Y-115928642D01*
X171105722Y-115908571D01*
X171097240Y-115889997D01*
X171099207Y-115873873D01*
X171096597Y-115859972D01*
X171105080Y-115825721D01*
X171108572Y-115817119D01*
X171123140Y-115790886D01*
X171154623Y-115747553D01*
X171251095Y-115558217D01*
X171316757Y-115356130D01*
X171316757Y-115356127D01*
X171350000Y-115146246D01*
X171350000Y-114933753D01*
X171333955Y-114832452D01*
X171318284Y-114733511D01*
X171318283Y-114733505D01*
X171318283Y-114733506D01*
X171316756Y-114723865D01*
X171289473Y-114639898D01*
X171251095Y-114521782D01*
X171154624Y-114332449D01*
X171115270Y-114278282D01*
X171115269Y-114278282D01*
X171115268Y-114278282D01*
X170609701Y-114783849D01*
X170548378Y-114817334D01*
X170478686Y-114812350D01*
X170422753Y-114770478D01*
X170414637Y-114758173D01*
X170400099Y-114732993D01*
X170307007Y-114639901D01*
X170307004Y-114639899D01*
X170307000Y-114639896D01*
X170281828Y-114625363D01*
X170233613Y-114574796D01*
X170220391Y-114506189D01*
X170246359Y-114441324D01*
X170256133Y-114430312D01*
X170787028Y-113899416D01*
X170815272Y-113878274D01*
X170838364Y-113865666D01*
X170894598Y-113851313D01*
X170894576Y-113850900D01*
X170894571Y-113850854D01*
X170894573Y-113850853D01*
X170894564Y-113850676D01*
X170897767Y-113850504D01*
X170897789Y-113850499D01*
X170897871Y-113850499D01*
X170897872Y-113850499D01*
X170957483Y-113844091D01*
X171092331Y-113793796D01*
X171207546Y-113707546D01*
X171293796Y-113592331D01*
X171344091Y-113457483D01*
X171350500Y-113397873D01*
X171350499Y-111602128D01*
X171344091Y-111542517D01*
X171293796Y-111407669D01*
X171293795Y-111407668D01*
X171293793Y-111407664D01*
X171293782Y-111407649D01*
X171291392Y-111403929D01*
X171291391Y-111403928D01*
X171288489Y-111400579D01*
X171207547Y-111292455D01*
X171207544Y-111292452D01*
X171207542Y-111292450D01*
X171149616Y-111249086D01*
X171092335Y-111206206D01*
X171092332Y-111206204D01*
X171092330Y-111206203D01*
X171092328Y-111206202D01*
X170957482Y-111155908D01*
X170957483Y-111155908D01*
X170897883Y-111149501D01*
X170897881Y-111149500D01*
X170897873Y-111149500D01*
X170897864Y-111149500D01*
X170896841Y-111149500D01*
X169102123Y-111149500D01*
X169100192Y-111149659D01*
X169098545Y-111149885D01*
X169042516Y-111155908D01*
X168907666Y-111206204D01*
X168907665Y-111206205D01*
X168792456Y-111292450D01*
X168792450Y-111292456D01*
X168706205Y-111407665D01*
X168706203Y-111407668D01*
X168655908Y-111542516D01*
X168649500Y-111602125D01*
X168649500Y-113397876D01*
X168649659Y-113399806D01*
X168649885Y-113401454D01*
X168655907Y-113457482D01*
X168683690Y-113531971D01*
X168706202Y-113592328D01*
X168706203Y-113592330D01*
X168706204Y-113592332D01*
X168706205Y-113592333D01*
X168792450Y-113707542D01*
X168792452Y-113707544D01*
X168792455Y-113707547D01*
X168907664Y-113793793D01*
X168907671Y-113793797D01*
X168952618Y-113810561D01*
X169042517Y-113844091D01*
X169042516Y-113844091D01*
X169105432Y-113850856D01*
X169105390Y-113851240D01*
X169128905Y-113855260D01*
X169155031Y-113862930D01*
X169207781Y-113894227D01*
X169743850Y-114430296D01*
X169777335Y-114491619D01*
X169772351Y-114561311D01*
X169730479Y-114617244D01*
X169718173Y-114625362D01*
X169692996Y-114639898D01*
X169692990Y-114639903D01*
X169599903Y-114732990D01*
X169599898Y-114732996D01*
X169585362Y-114758173D01*
X169534793Y-114806387D01*
X169466185Y-114819607D01*
X169401322Y-114793637D01*
X169390296Y-114783850D01*
X168884728Y-114278282D01*
X168884727Y-114278282D01*
X168845380Y-114332438D01*
X168748903Y-114521784D01*
X168683242Y-114723865D01*
X168682735Y-114727071D01*
X168650000Y-114933753D01*
X168650000Y-115146246D01*
X168680411Y-115338254D01*
X168681715Y-115346485D01*
X168681716Y-115346493D01*
X168683242Y-115356133D01*
X168748905Y-115558219D01*
X168845376Y-115747554D01*
X168859131Y-115766485D01*
X168875270Y-115788698D01*
X168891736Y-115819909D01*
X168896087Y-115832105D01*
X168900073Y-115901861D01*
X168865714Y-115962699D01*
X168809120Y-115994131D01*
X168800124Y-115996360D01*
X168770301Y-116000000D01*
X166278119Y-116000000D01*
X166243183Y-115994977D01*
X166230756Y-115991328D01*
X166217951Y-115983098D01*
X166203178Y-115979440D01*
X166189157Y-115964593D01*
X166171978Y-115953553D01*
X166165655Y-115939707D01*
X166155205Y-115928642D01*
X166151436Y-115908571D01*
X166142954Y-115889997D01*
X166144921Y-115873873D01*
X166142311Y-115859972D01*
X166150794Y-115825721D01*
X166154286Y-115817119D01*
X166168854Y-115790886D01*
X166200337Y-115747553D01*
X166296809Y-115558217D01*
X166362471Y-115356130D01*
X166362471Y-115356127D01*
X166395714Y-115146246D01*
X166395714Y-114933753D01*
X166379669Y-114832452D01*
X166363998Y-114733511D01*
X166363997Y-114733505D01*
X166363997Y-114733506D01*
X166362470Y-114723865D01*
X166335187Y-114639898D01*
X166296809Y-114521782D01*
X166200338Y-114332449D01*
X166160984Y-114278282D01*
X166160983Y-114278282D01*
X166160982Y-114278282D01*
X165655415Y-114783849D01*
X165594092Y-114817334D01*
X165524400Y-114812350D01*
X165468467Y-114770478D01*
X165460351Y-114758173D01*
X165445813Y-114732993D01*
X165352721Y-114639901D01*
X165352718Y-114639899D01*
X165352714Y-114639896D01*
X165327542Y-114625363D01*
X165279327Y-114574796D01*
X165266105Y-114506189D01*
X165292073Y-114441324D01*
X165301847Y-114430312D01*
X165832742Y-113899416D01*
X165860986Y-113878274D01*
X165884078Y-113865666D01*
X165940312Y-113851313D01*
X165940290Y-113850900D01*
X165940285Y-113850854D01*
X165940287Y-113850853D01*
X165940278Y-113850676D01*
X165943481Y-113850504D01*
X165943503Y-113850499D01*
X165943585Y-113850499D01*
X165943586Y-113850499D01*
X166003197Y-113844091D01*
X166138045Y-113793796D01*
X166253260Y-113707546D01*
X166339510Y-113592331D01*
X166389805Y-113457483D01*
X166396214Y-113397873D01*
X166396213Y-111602128D01*
X166389805Y-111542517D01*
X166339510Y-111407669D01*
X166339509Y-111407668D01*
X166339507Y-111407664D01*
X166339496Y-111407649D01*
X166337106Y-111403929D01*
X166337105Y-111403928D01*
X166334203Y-111400579D01*
X166253261Y-111292455D01*
X166253258Y-111292452D01*
X166253256Y-111292450D01*
X166195330Y-111249086D01*
X166138049Y-111206206D01*
X166138046Y-111206204D01*
X166138044Y-111206203D01*
X166138042Y-111206202D01*
X166003196Y-111155908D01*
X166003197Y-111155908D01*
X165943597Y-111149501D01*
X165943595Y-111149500D01*
X165943587Y-111149500D01*
X165943578Y-111149500D01*
X165942555Y-111149500D01*
X164147837Y-111149500D01*
X164145906Y-111149659D01*
X164144259Y-111149885D01*
X164088230Y-111155908D01*
X163953380Y-111206204D01*
X163953379Y-111206205D01*
X163838170Y-111292450D01*
X163838164Y-111292456D01*
X163751919Y-111407665D01*
X163751917Y-111407668D01*
X163701622Y-111542516D01*
X163695214Y-111602125D01*
X163695214Y-113397876D01*
X163695373Y-113399806D01*
X163695599Y-113401454D01*
X163701621Y-113457482D01*
X163729404Y-113531971D01*
X163751916Y-113592328D01*
X163751917Y-113592330D01*
X163751918Y-113592332D01*
X163751919Y-113592333D01*
X163838164Y-113707542D01*
X163838166Y-113707544D01*
X163838169Y-113707547D01*
X163953378Y-113793793D01*
X163953385Y-113793797D01*
X163998332Y-113810561D01*
X164088231Y-113844091D01*
X164088230Y-113844091D01*
X164151146Y-113850856D01*
X164151104Y-113851240D01*
X164174619Y-113855260D01*
X164200745Y-113862930D01*
X164253495Y-113894227D01*
X164789564Y-114430296D01*
X164823049Y-114491619D01*
X164818065Y-114561311D01*
X164776193Y-114617244D01*
X164763887Y-114625362D01*
X164738710Y-114639898D01*
X164738704Y-114639903D01*
X164645617Y-114732990D01*
X164645612Y-114732996D01*
X164631076Y-114758173D01*
X164580507Y-114806387D01*
X164511899Y-114819607D01*
X164447036Y-114793637D01*
X164436010Y-114783850D01*
X163930442Y-114278282D01*
X163930441Y-114278282D01*
X163891094Y-114332438D01*
X163794617Y-114521784D01*
X163728956Y-114723865D01*
X163728449Y-114727071D01*
X163695714Y-114933753D01*
X163695714Y-115146246D01*
X163726125Y-115338254D01*
X163727429Y-115346485D01*
X163727430Y-115346493D01*
X163728956Y-115356133D01*
X163794619Y-115558219D01*
X163891090Y-115747554D01*
X163904845Y-115766485D01*
X163920984Y-115788698D01*
X163937450Y-115819909D01*
X163941801Y-115832105D01*
X163945787Y-115901861D01*
X163911428Y-115962699D01*
X163854834Y-115994131D01*
X163845838Y-115996360D01*
X163816015Y-116000000D01*
X156000000Y-116000000D01*
X156000000Y-121858170D01*
X155999999Y-121858176D01*
X156000000Y-121858179D01*
X155994975Y-121893114D01*
X155990570Y-121908112D01*
X155952827Y-121966855D01*
X155952792Y-121966885D01*
X155952791Y-121966887D01*
X155952789Y-121966887D01*
X155951458Y-121968042D01*
X155896597Y-121995518D01*
X155889039Y-121997163D01*
X155862668Y-122000000D01*
X142141830Y-122000000D01*
X142141825Y-121999999D01*
X142141823Y-122000000D01*
X142106889Y-121994975D01*
X142091890Y-121990570D01*
X142033144Y-121952827D01*
X142033115Y-121952793D01*
X142033114Y-121952793D01*
X142033113Y-121952791D01*
X142031957Y-121951458D01*
X142004477Y-121896583D01*
X142002832Y-121889021D01*
X142000000Y-121862668D01*
X142000000Y-116500000D01*
X137203343Y-116500000D01*
X137179157Y-116497618D01*
X137173718Y-116496536D01*
X137173431Y-116496452D01*
X137173335Y-116496460D01*
X137167280Y-116495256D01*
X137164621Y-116493865D01*
X137162352Y-116493199D01*
X137162440Y-116492898D01*
X137144851Y-116488543D01*
X137143197Y-116487872D01*
X137123954Y-116472595D01*
X137105367Y-116462874D01*
X137100133Y-116453684D01*
X137088475Y-116444429D01*
X137078944Y-116416475D01*
X137070791Y-116402159D01*
X137071235Y-116393866D01*
X137065927Y-116378298D01*
X137065924Y-116378240D01*
X137065829Y-116376008D01*
X137074178Y-116338924D01*
X137074528Y-116332390D01*
X137076158Y-116330129D01*
X137080041Y-116312882D01*
X137081057Y-116310956D01*
X137090400Y-116295949D01*
X137110524Y-116268252D01*
X137154619Y-116207559D01*
X137154620Y-116207558D01*
X137154623Y-116207553D01*
X137251096Y-116018215D01*
X137260697Y-115988667D01*
X137260697Y-115988666D01*
X137316757Y-115816130D01*
X137316757Y-115816127D01*
X137350000Y-115606246D01*
X137350000Y-115393753D01*
X137316758Y-115183873D01*
X137314747Y-115177684D01*
X137314746Y-115177682D01*
X137303317Y-115142508D01*
X145460000Y-115142508D01*
X145460000Y-115142514D01*
X145460000Y-115892500D01*
X146242961Y-115892500D01*
X146310000Y-115912185D01*
X146355755Y-115964989D01*
X146365699Y-116034147D01*
X146364578Y-116040693D01*
X146360000Y-116063706D01*
X146360000Y-116221293D01*
X146364578Y-116244307D01*
X146358351Y-116313899D01*
X146315489Y-116369077D01*
X146249599Y-116392322D01*
X146242961Y-116392500D01*
X145460000Y-116392500D01*
X145460000Y-117142490D01*
X145470493Y-117245193D01*
X145470494Y-117245198D01*
X145525638Y-117411609D01*
X145525641Y-117411618D01*
X145525643Y-117411623D01*
X145617684Y-117560844D01*
X145741655Y-117684815D01*
X145890876Y-117776856D01*
X145890881Y-117776858D01*
X146057303Y-117832005D01*
X146057310Y-117832006D01*
X146145508Y-117841017D01*
X146160023Y-117842500D01*
X146160027Y-117842500D01*
X146910000Y-117842500D01*
X146910000Y-117059539D01*
X146929685Y-116992500D01*
X146982489Y-116946745D01*
X147051647Y-116936801D01*
X147058181Y-116937920D01*
X147081207Y-116942500D01*
X147238793Y-116942500D01*
X147261808Y-116937922D01*
X147331399Y-116944149D01*
X147386577Y-116987011D01*
X147409822Y-117052901D01*
X147410000Y-117059539D01*
X147410000Y-117842500D01*
X148159973Y-117842500D01*
X148159977Y-117842500D01*
X148184217Y-117840023D01*
X148262689Y-117832006D01*
X148262696Y-117832005D01*
X148429118Y-117776858D01*
X148429123Y-117776856D01*
X148578344Y-117684815D01*
X148702315Y-117560844D01*
X148794356Y-117411623D01*
X148794358Y-117411618D01*
X148849505Y-117245196D01*
X148849506Y-117245189D01*
X148859999Y-117142485D01*
X148860000Y-117142472D01*
X148860000Y-116392500D01*
X148077039Y-116392500D01*
X148010000Y-116372815D01*
X147964245Y-116320011D01*
X147953046Y-116267200D01*
X147953167Y-116255644D01*
X147960000Y-116221293D01*
X147960000Y-116063707D01*
X147955420Y-116040682D01*
X147955521Y-116031041D01*
X150539500Y-116031041D01*
X150539500Y-116253957D01*
X150539503Y-116253982D01*
X150568593Y-116474947D01*
X150568597Y-116474967D01*
X150615363Y-116649500D01*
X150626289Y-116690279D01*
X150626296Y-116690299D01*
X150704068Y-116878055D01*
X150706924Y-116884949D01*
X150711595Y-116896226D01*
X150821515Y-117086612D01*
X150821871Y-117087244D01*
X150821899Y-117087365D01*
X150822233Y-117087986D01*
X150822845Y-117089005D01*
X150824569Y-117091251D01*
X150824571Y-117091254D01*
X150942695Y-117245198D01*
X150958751Y-117266122D01*
X150958757Y-117266129D01*
X151116370Y-117423742D01*
X151116376Y-117423747D01*
X151293226Y-117559448D01*
X151486274Y-117670905D01*
X151692219Y-117756210D01*
X151907537Y-117813904D01*
X152128543Y-117843000D01*
X152128550Y-117843000D01*
X152351450Y-117843000D01*
X152351457Y-117843000D01*
X152572463Y-117813904D01*
X152787781Y-117756210D01*
X152993726Y-117670905D01*
X153186774Y-117559448D01*
X153363624Y-117423747D01*
X153521247Y-117266124D01*
X153656948Y-117089274D01*
X153768405Y-116896226D01*
X153853710Y-116690281D01*
X153911404Y-116474963D01*
X153940500Y-116253957D01*
X153940500Y-116031043D01*
X153911404Y-115810037D01*
X153853710Y-115594719D01*
X153851380Y-115589095D01*
X153841915Y-115566245D01*
X153787036Y-115433754D01*
X153770085Y-115392832D01*
X153769383Y-115390949D01*
X153768414Y-115388797D01*
X153768406Y-115388777D01*
X153768405Y-115388774D01*
X153656948Y-115195726D01*
X153605821Y-115129095D01*
X153605820Y-115129093D01*
X153521254Y-115018884D01*
X153521250Y-115018880D01*
X153521248Y-115018877D01*
X153521242Y-115018870D01*
X153363629Y-114861257D01*
X153363622Y-114861251D01*
X153363612Y-114861243D01*
X153363603Y-114861236D01*
X153188754Y-114727071D01*
X153188751Y-114727069D01*
X153186505Y-114725345D01*
X153185486Y-114724733D01*
X153183589Y-114723712D01*
X152993726Y-114614095D01*
X152993722Y-114614093D01*
X152791829Y-114530466D01*
X152787787Y-114528791D01*
X152573476Y-114471367D01*
X152573472Y-114471366D01*
X152572463Y-114471096D01*
X152572457Y-114471095D01*
X152572452Y-114471094D01*
X152353259Y-114442237D01*
X152353255Y-114442235D01*
X152351654Y-114442000D01*
X152351463Y-114442000D01*
X152351457Y-114442000D01*
X152128543Y-114442000D01*
X152128537Y-114442000D01*
X152128535Y-114442000D01*
X152123039Y-114442676D01*
X152122316Y-114442816D01*
X152121796Y-114442887D01*
X151907547Y-114471094D01*
X151907540Y-114471095D01*
X151907537Y-114471096D01*
X151896500Y-114474053D01*
X151896495Y-114474054D01*
X151805246Y-114498504D01*
X151769275Y-114508143D01*
X151692222Y-114528788D01*
X151692199Y-114528797D01*
X151486272Y-114614095D01*
X151293237Y-114725544D01*
X151293212Y-114725561D01*
X151293210Y-114725562D01*
X151116395Y-114861236D01*
X151116379Y-114861249D01*
X151116369Y-114861258D01*
X151116361Y-114861265D01*
X150958765Y-115018861D01*
X150958758Y-115018869D01*
X150958749Y-115018879D01*
X150958736Y-115018895D01*
X150823062Y-115195710D01*
X150823061Y-115195712D01*
X150823044Y-115195737D01*
X150711595Y-115388772D01*
X150626297Y-115594699D01*
X150626288Y-115594722D01*
X150585339Y-115747552D01*
X150568595Y-115810041D01*
X150568592Y-115810056D01*
X150539503Y-116031016D01*
X150539500Y-116031041D01*
X147955521Y-116031041D01*
X147955555Y-116027814D01*
X147956996Y-116023089D01*
X147961649Y-115971099D01*
X148004513Y-115915922D01*
X148070403Y-115892678D01*
X148077039Y-115892500D01*
X148860000Y-115892500D01*
X148860000Y-115142523D01*
X148857417Y-115117244D01*
X148849506Y-115039810D01*
X148849505Y-115039803D01*
X148794358Y-114873381D01*
X148794356Y-114873376D01*
X148702315Y-114724155D01*
X148578344Y-114600184D01*
X148429123Y-114508143D01*
X148429118Y-114508141D01*
X148423227Y-114506189D01*
X148262698Y-114452994D01*
X148262693Y-114452993D01*
X148159990Y-114442500D01*
X148159985Y-114442500D01*
X147410000Y-114442500D01*
X147410000Y-115225460D01*
X147390315Y-115292499D01*
X147337511Y-115338254D01*
X147268353Y-115348198D01*
X147261811Y-115347078D01*
X147238793Y-115342500D01*
X147081207Y-115342500D01*
X147058189Y-115347078D01*
X146988597Y-115340849D01*
X146933421Y-115297985D01*
X146910178Y-115232094D01*
X146910000Y-115225460D01*
X146910000Y-114442500D01*
X146160014Y-114442500D01*
X146160008Y-114442500D01*
X146057305Y-114452993D01*
X146057300Y-114452994D01*
X145890889Y-114508138D01*
X145890880Y-114508141D01*
X145890878Y-114508142D01*
X145890876Y-114508143D01*
X145811607Y-114557037D01*
X145741653Y-114600185D01*
X145617685Y-114724153D01*
X145587003Y-114773895D01*
X145533114Y-114861265D01*
X145525641Y-114873380D01*
X145525638Y-114873389D01*
X145470494Y-115039800D01*
X145470493Y-115039805D01*
X145460000Y-115142508D01*
X137303317Y-115142508D01*
X137276476Y-115059898D01*
X137251097Y-114981787D01*
X137251095Y-114981782D01*
X137226623Y-114933754D01*
X137154624Y-114792449D01*
X137115270Y-114738282D01*
X137115269Y-114738282D01*
X137115268Y-114738282D01*
X136609701Y-115243849D01*
X136548378Y-115277334D01*
X136478686Y-115272350D01*
X136422753Y-115230478D01*
X136414637Y-115218173D01*
X136400099Y-115192993D01*
X136307007Y-115099901D01*
X136307004Y-115099899D01*
X136307000Y-115099896D01*
X136281828Y-115085363D01*
X136233613Y-115034796D01*
X136220391Y-114966189D01*
X136246359Y-114901324D01*
X136256133Y-114890312D01*
X136787028Y-114359416D01*
X136815272Y-114338274D01*
X136838364Y-114325666D01*
X136894598Y-114311313D01*
X136894576Y-114310900D01*
X136894571Y-114310854D01*
X136894573Y-114310853D01*
X136894564Y-114310676D01*
X136897767Y-114310504D01*
X136897789Y-114310499D01*
X136897871Y-114310499D01*
X136897872Y-114310499D01*
X136957483Y-114304091D01*
X137092331Y-114253796D01*
X137207546Y-114167546D01*
X137293796Y-114052331D01*
X137344091Y-113917483D01*
X137350500Y-113857873D01*
X137350499Y-112062128D01*
X137344091Y-112002517D01*
X137293796Y-111867669D01*
X137293795Y-111867668D01*
X137293793Y-111867664D01*
X137293782Y-111867649D01*
X137291392Y-111863929D01*
X137291391Y-111863928D01*
X137288489Y-111860579D01*
X137207547Y-111752455D01*
X137207544Y-111752452D01*
X137207542Y-111752450D01*
X137207533Y-111752443D01*
X137141985Y-111703373D01*
X137141978Y-111703369D01*
X137134902Y-111698072D01*
X137092335Y-111666206D01*
X137092328Y-111666202D01*
X137034517Y-111644640D01*
X137026713Y-111640375D01*
X137008049Y-111621698D01*
X137007497Y-111621284D01*
X136905583Y-111610328D01*
X136900742Y-111609500D01*
X136897881Y-111609500D01*
X136897873Y-111609500D01*
X136897864Y-111609500D01*
X135102129Y-111609500D01*
X135102123Y-111609500D01*
X135100192Y-111609659D01*
X135098545Y-111609885D01*
X135042516Y-111615908D01*
X134952452Y-111649500D01*
X134907666Y-111666204D01*
X134907665Y-111666205D01*
X134792456Y-111752450D01*
X134792450Y-111752456D01*
X134706205Y-111867665D01*
X134706203Y-111867668D01*
X134655908Y-112002516D01*
X134651608Y-112042518D01*
X134649500Y-112062126D01*
X134649500Y-113857876D01*
X134649659Y-113859806D01*
X134649885Y-113861454D01*
X134655907Y-113917482D01*
X134670827Y-113957483D01*
X134706202Y-114052328D01*
X134706203Y-114052330D01*
X134706204Y-114052332D01*
X134706205Y-114052333D01*
X134792450Y-114167542D01*
X134792452Y-114167544D01*
X134792455Y-114167547D01*
X134907664Y-114253793D01*
X134907671Y-114253797D01*
X134935266Y-114264089D01*
X135042517Y-114304091D01*
X135102127Y-114310500D01*
X135111226Y-114310499D01*
X135125984Y-114314441D01*
X135126716Y-114314886D01*
X135128905Y-114315260D01*
X135155031Y-114322930D01*
X135207781Y-114354227D01*
X135743850Y-114890296D01*
X135777335Y-114951619D01*
X135772351Y-115021311D01*
X135730479Y-115077244D01*
X135718173Y-115085362D01*
X135692996Y-115099898D01*
X135692990Y-115099903D01*
X135599903Y-115192990D01*
X135599898Y-115192996D01*
X135585362Y-115218173D01*
X135534793Y-115266387D01*
X135466185Y-115279607D01*
X135401322Y-115253637D01*
X135390296Y-115243850D01*
X134884728Y-114738282D01*
X134884727Y-114738282D01*
X134845380Y-114792438D01*
X134748903Y-114981784D01*
X134683242Y-115183865D01*
X134681716Y-115193506D01*
X134681715Y-115193513D01*
X134681363Y-115195733D01*
X134650000Y-115393753D01*
X134650000Y-115606246D01*
X134675380Y-115766487D01*
X134681715Y-115806485D01*
X134681716Y-115806493D01*
X134683242Y-115816133D01*
X134731609Y-115964989D01*
X134748904Y-116018217D01*
X134772083Y-116063707D01*
X134845380Y-116207559D01*
X134904327Y-116288695D01*
X134919333Y-116317133D01*
X134920795Y-116319904D01*
X134925146Y-116332097D01*
X134929138Y-116401853D01*
X134894783Y-116462693D01*
X134838169Y-116494135D01*
X134829173Y-116496363D01*
X134799363Y-116500000D01*
X131732405Y-116500000D01*
X131697469Y-116494977D01*
X131685042Y-116491328D01*
X131672237Y-116483098D01*
X131657464Y-116479440D01*
X131643443Y-116464593D01*
X131626264Y-116453553D01*
X131619941Y-116439707D01*
X131609491Y-116428642D01*
X131605722Y-116408571D01*
X131597240Y-116389997D01*
X131599207Y-116373873D01*
X131596597Y-116359972D01*
X131605081Y-116325720D01*
X131608572Y-116317119D01*
X131623140Y-116290886D01*
X131654623Y-116247553D01*
X131751095Y-116058217D01*
X131816757Y-115856130D01*
X131816757Y-115856127D01*
X131850000Y-115646246D01*
X131850000Y-115433753D01*
X131836178Y-115346485D01*
X131818284Y-115233511D01*
X131818283Y-115233505D01*
X131818283Y-115233506D01*
X131816756Y-115223865D01*
X131789473Y-115139898D01*
X131751095Y-115021782D01*
X131654624Y-114832449D01*
X131615270Y-114778282D01*
X131615269Y-114778282D01*
X131615268Y-114778282D01*
X131109701Y-115283849D01*
X131048378Y-115317334D01*
X130978686Y-115312350D01*
X130922753Y-115270478D01*
X130914637Y-115258173D01*
X130900099Y-115232993D01*
X130807007Y-115139901D01*
X130807004Y-115139899D01*
X130807000Y-115139896D01*
X130781828Y-115125363D01*
X130733613Y-115074796D01*
X130720391Y-115006189D01*
X130746359Y-114941324D01*
X130756133Y-114930312D01*
X131287028Y-114399416D01*
X131315272Y-114378274D01*
X131338364Y-114365666D01*
X131394598Y-114351313D01*
X131394576Y-114350900D01*
X131394571Y-114350854D01*
X131394573Y-114350853D01*
X131394564Y-114350676D01*
X131397767Y-114350504D01*
X131397789Y-114350499D01*
X131397871Y-114350499D01*
X131397872Y-114350499D01*
X131457483Y-114344091D01*
X131592331Y-114293796D01*
X131707546Y-114207546D01*
X131793796Y-114092331D01*
X131844091Y-113957483D01*
X131850500Y-113897873D01*
X131850499Y-112102128D01*
X131844091Y-112042517D01*
X131836486Y-112022128D01*
X131814253Y-111962517D01*
X131793796Y-111907669D01*
X131793795Y-111907668D01*
X131793793Y-111907664D01*
X131793782Y-111907649D01*
X131791392Y-111903929D01*
X131791391Y-111903928D01*
X131788489Y-111900579D01*
X131707547Y-111792455D01*
X131707544Y-111792452D01*
X131707542Y-111792450D01*
X131649616Y-111749086D01*
X131592335Y-111706206D01*
X131592332Y-111706204D01*
X131592330Y-111706203D01*
X131592328Y-111706202D01*
X131457482Y-111655908D01*
X131457483Y-111655908D01*
X131397883Y-111649501D01*
X131397881Y-111649500D01*
X131397873Y-111649500D01*
X131397864Y-111649500D01*
X131396841Y-111649500D01*
X129602123Y-111649500D01*
X129600192Y-111649659D01*
X129598545Y-111649885D01*
X129542516Y-111655908D01*
X129407666Y-111706204D01*
X129407665Y-111706205D01*
X129292456Y-111792450D01*
X129292450Y-111792456D01*
X129206205Y-111907665D01*
X129206203Y-111907668D01*
X129155908Y-112042516D01*
X129149500Y-112102125D01*
X129149500Y-113897876D01*
X129149659Y-113899806D01*
X129149885Y-113901454D01*
X129155907Y-113957482D01*
X129183690Y-114031971D01*
X129206202Y-114092328D01*
X129206203Y-114092330D01*
X129206204Y-114092332D01*
X129206205Y-114092333D01*
X129292450Y-114207542D01*
X129292456Y-114207548D01*
X129300804Y-114213797D01*
X129407664Y-114293793D01*
X129407671Y-114293797D01*
X129435266Y-114304089D01*
X129542517Y-114344091D01*
X129602127Y-114350500D01*
X129611226Y-114350499D01*
X129625984Y-114354441D01*
X129626716Y-114354886D01*
X129628905Y-114355260D01*
X129655031Y-114362930D01*
X129707781Y-114394227D01*
X130243850Y-114930296D01*
X130277335Y-114991619D01*
X130272351Y-115061311D01*
X130230479Y-115117244D01*
X130218173Y-115125362D01*
X130192996Y-115139898D01*
X130192990Y-115139903D01*
X130099903Y-115232990D01*
X130099898Y-115232996D01*
X130085362Y-115258173D01*
X130034793Y-115306387D01*
X129966185Y-115319607D01*
X129901322Y-115293637D01*
X129890296Y-115283850D01*
X129384728Y-114778282D01*
X129384727Y-114778282D01*
X129345380Y-114832438D01*
X129248903Y-115021784D01*
X129183242Y-115223865D01*
X129181899Y-115232350D01*
X129150000Y-115433753D01*
X129150000Y-115646246D01*
X129175381Y-115806493D01*
X129181715Y-115846485D01*
X129181716Y-115846493D01*
X129183242Y-115856133D01*
X129226306Y-115988667D01*
X129240071Y-116031033D01*
X129248905Y-116058219D01*
X129345376Y-116247554D01*
X129359650Y-116267200D01*
X129375270Y-116288698D01*
X129391736Y-116319909D01*
X129396087Y-116332105D01*
X129400073Y-116401861D01*
X129365714Y-116462699D01*
X129309120Y-116494131D01*
X129300124Y-116496360D01*
X129270301Y-116500000D01*
X126732405Y-116500000D01*
X126697469Y-116494977D01*
X126685042Y-116491328D01*
X126672237Y-116483098D01*
X126657464Y-116479440D01*
X126643443Y-116464593D01*
X126626264Y-116453553D01*
X126619941Y-116439707D01*
X126609491Y-116428642D01*
X126605722Y-116408571D01*
X126597240Y-116389997D01*
X126599207Y-116373873D01*
X126596597Y-116359972D01*
X126605081Y-116325720D01*
X126608572Y-116317119D01*
X126623140Y-116290886D01*
X126654623Y-116247553D01*
X126751095Y-116058217D01*
X126816757Y-115856130D01*
X126816757Y-115856127D01*
X126850000Y-115646246D01*
X126850000Y-115433753D01*
X126836178Y-115346485D01*
X126818284Y-115233511D01*
X126818283Y-115233505D01*
X126818283Y-115233506D01*
X126816756Y-115223865D01*
X126789473Y-115139898D01*
X126751095Y-115021782D01*
X126654624Y-114832449D01*
X126615270Y-114778282D01*
X126615269Y-114778282D01*
X126615268Y-114778282D01*
X126109701Y-115283849D01*
X126048378Y-115317334D01*
X125978686Y-115312350D01*
X125922753Y-115270478D01*
X125914637Y-115258173D01*
X125900099Y-115232993D01*
X125807007Y-115139901D01*
X125807004Y-115139899D01*
X125807000Y-115139896D01*
X125781828Y-115125363D01*
X125733613Y-115074796D01*
X125720391Y-115006189D01*
X125746359Y-114941324D01*
X125756133Y-114930312D01*
X126287028Y-114399416D01*
X126315272Y-114378274D01*
X126338364Y-114365666D01*
X126394598Y-114351313D01*
X126394576Y-114350900D01*
X126394571Y-114350854D01*
X126394573Y-114350853D01*
X126394564Y-114350676D01*
X126397767Y-114350504D01*
X126397789Y-114350499D01*
X126397871Y-114350499D01*
X126397872Y-114350499D01*
X126457483Y-114344091D01*
X126592331Y-114293796D01*
X126707546Y-114207546D01*
X126793796Y-114092331D01*
X126844091Y-113957483D01*
X126850500Y-113897873D01*
X126850499Y-112102128D01*
X126844091Y-112042517D01*
X126836487Y-112022130D01*
X126836486Y-112022128D01*
X126814253Y-111962517D01*
X126793797Y-111907671D01*
X126793793Y-111907664D01*
X126707547Y-111792455D01*
X126707544Y-111792452D01*
X126707542Y-111792450D01*
X126649616Y-111749086D01*
X126592335Y-111706206D01*
X126592332Y-111706204D01*
X126592330Y-111706203D01*
X126592328Y-111706202D01*
X126457482Y-111655908D01*
X126457483Y-111655908D01*
X126397883Y-111649501D01*
X126397881Y-111649500D01*
X126397873Y-111649500D01*
X126397864Y-111649500D01*
X126396841Y-111649500D01*
X124602123Y-111649500D01*
X124600192Y-111649659D01*
X124598545Y-111649885D01*
X124542516Y-111655908D01*
X124407666Y-111706204D01*
X124407665Y-111706205D01*
X124292456Y-111792450D01*
X124292450Y-111792456D01*
X124206205Y-111907665D01*
X124206203Y-111907668D01*
X124155908Y-112042516D01*
X124149500Y-112102125D01*
X124149500Y-113897876D01*
X124149659Y-113899806D01*
X124149885Y-113901454D01*
X124155907Y-113957482D01*
X124183690Y-114031971D01*
X124206202Y-114092328D01*
X124206203Y-114092330D01*
X124206204Y-114092332D01*
X124206205Y-114092333D01*
X124292450Y-114207542D01*
X124292456Y-114207548D01*
X124300804Y-114213797D01*
X124407664Y-114293793D01*
X124407671Y-114293797D01*
X124435266Y-114304089D01*
X124542517Y-114344091D01*
X124602127Y-114350500D01*
X124611226Y-114350499D01*
X124625984Y-114354441D01*
X124626716Y-114354886D01*
X124628905Y-114355260D01*
X124655031Y-114362930D01*
X124707781Y-114394227D01*
X125243850Y-114930296D01*
X125277335Y-114991619D01*
X125272351Y-115061311D01*
X125230479Y-115117244D01*
X125218173Y-115125362D01*
X125192996Y-115139898D01*
X125192990Y-115139903D01*
X125099903Y-115232990D01*
X125099898Y-115232996D01*
X125085362Y-115258173D01*
X125034793Y-115306387D01*
X124966185Y-115319607D01*
X124901322Y-115293637D01*
X124890296Y-115283850D01*
X124384728Y-114778282D01*
X124384727Y-114778282D01*
X124345380Y-114832438D01*
X124248903Y-115021784D01*
X124183242Y-115223865D01*
X124181899Y-115232350D01*
X124150000Y-115433753D01*
X124150000Y-115646246D01*
X124175381Y-115806493D01*
X124181715Y-115846485D01*
X124181716Y-115846493D01*
X124183242Y-115856133D01*
X124226306Y-115988667D01*
X124240071Y-116031033D01*
X124248905Y-116058219D01*
X124345376Y-116247554D01*
X124359650Y-116267200D01*
X124375270Y-116288698D01*
X124391736Y-116319909D01*
X124396087Y-116332105D01*
X124400073Y-116401861D01*
X124365714Y-116462699D01*
X124309120Y-116494131D01*
X124300124Y-116496360D01*
X124270301Y-116500000D01*
X121674281Y-116500000D01*
X121639340Y-116494975D01*
X121626915Y-116491326D01*
X121614116Y-116483099D01*
X121599348Y-116479443D01*
X121585322Y-116464593D01*
X121568139Y-116453549D01*
X121561819Y-116439709D01*
X121551372Y-116428648D01*
X121547601Y-116408573D01*
X121539117Y-116389992D01*
X121541083Y-116373869D01*
X121538475Y-116359979D01*
X121546958Y-116325720D01*
X121549275Y-116320011D01*
X121550447Y-116317125D01*
X121565022Y-116290880D01*
X121654620Y-116167557D01*
X121751095Y-115978217D01*
X121816757Y-115776130D01*
X121816757Y-115776127D01*
X121821284Y-115747549D01*
X121843664Y-115606246D01*
X121850000Y-115566246D01*
X121850000Y-115353753D01*
X121834143Y-115253637D01*
X121818284Y-115153511D01*
X121818283Y-115153505D01*
X121818283Y-115153506D01*
X121816756Y-115143865D01*
X121789473Y-115059898D01*
X121751095Y-114941782D01*
X121654624Y-114752449D01*
X121615270Y-114698282D01*
X121615269Y-114698282D01*
X121615268Y-114698282D01*
X121109701Y-115203849D01*
X121048378Y-115237334D01*
X120978686Y-115232350D01*
X120922753Y-115190478D01*
X120914637Y-115178173D01*
X120900099Y-115152993D01*
X120807007Y-115059901D01*
X120807004Y-115059899D01*
X120807000Y-115059896D01*
X120781828Y-115045363D01*
X120733613Y-114994796D01*
X120720391Y-114926189D01*
X120746359Y-114861324D01*
X120756133Y-114850312D01*
X121287028Y-114319416D01*
X121315272Y-114298274D01*
X121338364Y-114285666D01*
X121394598Y-114271313D01*
X121394576Y-114270900D01*
X121394571Y-114270854D01*
X121394573Y-114270853D01*
X121394564Y-114270676D01*
X121397767Y-114270504D01*
X121397789Y-114270499D01*
X121397871Y-114270499D01*
X121397872Y-114270499D01*
X121457483Y-114264091D01*
X121592331Y-114213796D01*
X121707546Y-114127546D01*
X121793796Y-114012331D01*
X121844091Y-113877483D01*
X121850500Y-113817873D01*
X121850499Y-112022128D01*
X121844091Y-111962517D01*
X121793796Y-111827669D01*
X121793795Y-111827668D01*
X121793793Y-111827664D01*
X121793782Y-111827649D01*
X121791392Y-111823929D01*
X121791391Y-111823928D01*
X121788489Y-111820579D01*
X121707547Y-111712455D01*
X121707544Y-111712452D01*
X121707542Y-111712450D01*
X121623453Y-111649501D01*
X121592335Y-111626206D01*
X121592332Y-111626204D01*
X121592330Y-111626203D01*
X121592328Y-111626202D01*
X121457482Y-111575908D01*
X121457483Y-111575908D01*
X121397883Y-111569501D01*
X121397881Y-111569500D01*
X121397873Y-111569500D01*
X121397864Y-111569500D01*
X121396841Y-111569500D01*
X119602123Y-111569500D01*
X119600192Y-111569659D01*
X119598545Y-111569885D01*
X119542516Y-111575908D01*
X119450232Y-111610328D01*
X119407666Y-111626204D01*
X119407665Y-111626205D01*
X119292456Y-111712450D01*
X119292450Y-111712456D01*
X119206205Y-111827665D01*
X119206203Y-111827668D01*
X119155907Y-111962517D01*
X119151608Y-112002518D01*
X119149500Y-112022126D01*
X119149500Y-113817876D01*
X119149659Y-113819806D01*
X119149885Y-113821454D01*
X119155907Y-113877482D01*
X119170827Y-113917483D01*
X119206202Y-114012328D01*
X119206203Y-114012330D01*
X119206204Y-114012332D01*
X119206205Y-114012333D01*
X119292450Y-114127542D01*
X119292452Y-114127544D01*
X119292455Y-114127547D01*
X119407664Y-114213793D01*
X119407671Y-114213797D01*
X119452618Y-114230561D01*
X119542517Y-114264091D01*
X119542516Y-114264091D01*
X119605432Y-114270856D01*
X119605390Y-114271240D01*
X119628905Y-114275260D01*
X119655031Y-114282930D01*
X119707781Y-114314227D01*
X120243850Y-114850296D01*
X120277335Y-114911619D01*
X120272351Y-114981311D01*
X120230479Y-115037244D01*
X120218173Y-115045362D01*
X120192996Y-115059898D01*
X120192990Y-115059903D01*
X120099903Y-115152990D01*
X120099898Y-115152996D01*
X120085362Y-115178173D01*
X120034793Y-115226387D01*
X119966185Y-115239607D01*
X119901322Y-115213637D01*
X119890296Y-115203850D01*
X119384728Y-114698282D01*
X119384727Y-114698282D01*
X119345380Y-114752438D01*
X119248903Y-114941784D01*
X119183242Y-115143865D01*
X119181798Y-115152990D01*
X119150000Y-115353753D01*
X119150000Y-115566246D01*
X119181715Y-115766485D01*
X119181716Y-115766493D01*
X119183242Y-115776133D01*
X119226275Y-115908571D01*
X119248904Y-115978217D01*
X119345378Y-116167555D01*
X119345381Y-116167560D01*
X119433388Y-116288692D01*
X119433389Y-116288693D01*
X119449859Y-116319908D01*
X119454210Y-116332103D01*
X119458198Y-116401859D01*
X119423840Y-116462697D01*
X119367231Y-116494135D01*
X119358235Y-116496363D01*
X119328425Y-116500000D01*
X116674281Y-116500000D01*
X116639340Y-116494975D01*
X116626915Y-116491326D01*
X116614116Y-116483099D01*
X116599348Y-116479443D01*
X116585322Y-116464593D01*
X116568139Y-116453549D01*
X116561819Y-116439709D01*
X116551372Y-116428648D01*
X116547601Y-116408573D01*
X116539117Y-116389992D01*
X116541083Y-116373869D01*
X116538475Y-116359979D01*
X116546958Y-116325720D01*
X116549275Y-116320011D01*
X116550447Y-116317125D01*
X116565022Y-116290880D01*
X116654620Y-116167557D01*
X116751095Y-115978217D01*
X116816757Y-115776130D01*
X116816757Y-115776127D01*
X116821284Y-115747549D01*
X116843664Y-115606246D01*
X116850000Y-115566246D01*
X116850000Y-115353753D01*
X116834143Y-115253637D01*
X116818284Y-115153511D01*
X116818283Y-115153505D01*
X116818283Y-115153506D01*
X116816756Y-115143865D01*
X116789473Y-115059898D01*
X116751095Y-114941782D01*
X116654624Y-114752449D01*
X116615270Y-114698282D01*
X116615269Y-114698282D01*
X116615268Y-114698282D01*
X116109701Y-115203849D01*
X116048378Y-115237334D01*
X115978686Y-115232350D01*
X115922753Y-115190478D01*
X115914637Y-115178173D01*
X115900099Y-115152993D01*
X115807007Y-115059901D01*
X115807004Y-115059899D01*
X115807000Y-115059896D01*
X115781828Y-115045363D01*
X115733613Y-114994796D01*
X115720391Y-114926189D01*
X115746359Y-114861324D01*
X115756133Y-114850312D01*
X116287028Y-114319416D01*
X116315272Y-114298274D01*
X116338364Y-114285666D01*
X116394598Y-114271313D01*
X116394576Y-114270900D01*
X116394571Y-114270854D01*
X116394573Y-114270853D01*
X116394564Y-114270676D01*
X116397767Y-114270504D01*
X116397789Y-114270499D01*
X116397871Y-114270499D01*
X116397872Y-114270499D01*
X116457483Y-114264091D01*
X116592331Y-114213796D01*
X116707546Y-114127546D01*
X116793796Y-114012331D01*
X116844091Y-113877483D01*
X116850500Y-113817873D01*
X116850499Y-112022128D01*
X116844091Y-111962517D01*
X116793796Y-111827669D01*
X116793795Y-111827668D01*
X116793793Y-111827664D01*
X116793782Y-111827649D01*
X116791392Y-111823929D01*
X116791391Y-111823928D01*
X116788489Y-111820579D01*
X116707547Y-111712455D01*
X116707544Y-111712452D01*
X116707542Y-111712450D01*
X116623453Y-111649501D01*
X116592335Y-111626206D01*
X116592332Y-111626204D01*
X116592330Y-111626203D01*
X116592328Y-111626202D01*
X116457482Y-111575908D01*
X116457483Y-111575908D01*
X116397883Y-111569501D01*
X116397881Y-111569500D01*
X116397873Y-111569500D01*
X116397864Y-111569500D01*
X116396841Y-111569500D01*
X114602123Y-111569500D01*
X114600192Y-111569659D01*
X114598545Y-111569885D01*
X114542516Y-111575908D01*
X114450232Y-111610328D01*
X114407666Y-111626204D01*
X114407665Y-111626205D01*
X114292456Y-111712450D01*
X114292450Y-111712456D01*
X114206205Y-111827665D01*
X114206203Y-111827668D01*
X114155907Y-111962517D01*
X114151608Y-112002518D01*
X114149500Y-112022126D01*
X114149500Y-113817876D01*
X114149659Y-113819806D01*
X114149885Y-113821454D01*
X114155907Y-113877482D01*
X114170827Y-113917483D01*
X114206202Y-114012328D01*
X114206203Y-114012330D01*
X114206204Y-114012332D01*
X114206205Y-114012333D01*
X114292450Y-114127542D01*
X114292452Y-114127544D01*
X114292455Y-114127547D01*
X114407664Y-114213793D01*
X114407671Y-114213797D01*
X114452618Y-114230561D01*
X114542517Y-114264091D01*
X114542516Y-114264091D01*
X114605432Y-114270856D01*
X114605390Y-114271240D01*
X114628905Y-114275260D01*
X114655031Y-114282930D01*
X114707781Y-114314227D01*
X115243850Y-114850296D01*
X115277335Y-114911619D01*
X115272351Y-114981311D01*
X115230479Y-115037244D01*
X115218173Y-115045362D01*
X115192996Y-115059898D01*
X115192990Y-115059903D01*
X115099903Y-115152990D01*
X115099898Y-115152996D01*
X115085362Y-115178173D01*
X115034793Y-115226387D01*
X114966185Y-115239607D01*
X114901322Y-115213637D01*
X114890296Y-115203850D01*
X114384728Y-114698282D01*
X114384727Y-114698282D01*
X114345380Y-114752438D01*
X114248903Y-114941784D01*
X114183242Y-115143865D01*
X114181798Y-115152990D01*
X114150000Y-115353753D01*
X114150000Y-115566246D01*
X114181715Y-115766485D01*
X114181716Y-115766493D01*
X114183242Y-115776133D01*
X114226275Y-115908571D01*
X114248904Y-115978217D01*
X114345378Y-116167555D01*
X114345381Y-116167560D01*
X114433388Y-116288692D01*
X114433389Y-116288693D01*
X114449859Y-116319908D01*
X114454210Y-116332103D01*
X114458198Y-116401859D01*
X114423840Y-116462697D01*
X114367231Y-116494135D01*
X114358235Y-116496363D01*
X114328425Y-116500000D01*
X110641830Y-116500000D01*
X110606889Y-116494975D01*
X110591890Y-116490570D01*
X110576902Y-116480940D01*
X110559824Y-116475932D01*
X110533144Y-116452827D01*
X110531957Y-116451458D01*
X110504477Y-116396583D01*
X110502832Y-116389021D01*
X110500000Y-116362668D01*
X110500000Y-108641829D01*
X110505023Y-108606893D01*
X110509427Y-108591895D01*
X110519057Y-108576904D01*
X110524067Y-108559824D01*
X110547172Y-108533144D01*
X110548541Y-108531957D01*
X110603420Y-108504477D01*
X110610979Y-108502833D01*
X110637332Y-108500000D01*
X112366902Y-108500000D01*
X112386289Y-108501525D01*
X112405342Y-108504543D01*
X112424250Y-108509082D01*
X112561561Y-108553697D01*
X112659360Y-108585474D01*
X112785715Y-108605487D01*
X112912070Y-108625500D01*
X112912071Y-108625500D01*
X113167929Y-108625500D01*
X113167930Y-108625500D01*
X113420639Y-108585474D01*
X113655751Y-108509081D01*
X113674657Y-108504543D01*
X113693709Y-108501525D01*
X113713098Y-108500000D01*
X137000000Y-108500000D01*
X137000000Y-103129500D01*
X137019685Y-103062461D01*
X137072489Y-103016706D01*
X137124000Y-103005500D01*
X150376000Y-103005500D01*
X150443039Y-103025185D01*
G37*
%TD.AperFunction*%
%TD*%
%TA.AperFunction,Conductor*%
%TO.N,/+3V3_RF*%
G36*
X115766056Y-84519685D02*
G01*
X115811811Y-84572489D01*
X115821755Y-84641647D01*
X115792730Y-84705203D01*
X115746469Y-84738561D01*
X115620827Y-84790602D01*
X115620814Y-84790609D01*
X115489711Y-84878210D01*
X115489707Y-84878213D01*
X115378213Y-84989707D01*
X115378210Y-84989711D01*
X115290609Y-85120814D01*
X115290602Y-85120827D01*
X115230264Y-85266498D01*
X115230261Y-85266510D01*
X115199500Y-85421153D01*
X115199500Y-85578846D01*
X115230261Y-85733489D01*
X115230264Y-85733501D01*
X115290602Y-85879172D01*
X115290609Y-85879185D01*
X115378210Y-86010288D01*
X115378213Y-86010292D01*
X115489707Y-86121786D01*
X115489711Y-86121789D01*
X115620817Y-86209392D01*
X115620819Y-86209393D01*
X115620821Y-86209394D01*
X115638409Y-86216679D01*
X115692812Y-86260520D01*
X115714877Y-86326814D01*
X115712573Y-86355431D01*
X115699500Y-86421153D01*
X115699500Y-86578846D01*
X115730261Y-86733489D01*
X115730264Y-86733501D01*
X115790602Y-86879172D01*
X115790609Y-86879185D01*
X115825304Y-86931109D01*
X115846182Y-86997786D01*
X115827698Y-87065167D01*
X115825304Y-87068891D01*
X115790609Y-87120814D01*
X115790602Y-87120827D01*
X115730264Y-87266498D01*
X115730261Y-87266510D01*
X115699500Y-87421153D01*
X115699500Y-87578846D01*
X115730261Y-87733489D01*
X115730264Y-87733501D01*
X115790602Y-87879172D01*
X115790609Y-87879185D01*
X115878210Y-88010288D01*
X115878213Y-88010292D01*
X115989707Y-88121786D01*
X115989711Y-88121789D01*
X116120814Y-88209390D01*
X116120827Y-88209397D01*
X116194013Y-88239711D01*
X116266503Y-88269737D01*
X116421153Y-88300499D01*
X116421156Y-88300500D01*
X116421158Y-88300500D01*
X116578844Y-88300500D01*
X116578845Y-88300499D01*
X116733497Y-88269737D01*
X116879179Y-88209394D01*
X117010289Y-88121789D01*
X117121789Y-88010289D01*
X117209394Y-87879179D01*
X117269737Y-87733497D01*
X117300500Y-87578842D01*
X117300500Y-87421158D01*
X117300500Y-87421155D01*
X117300499Y-87421153D01*
X117269738Y-87266510D01*
X117269737Y-87266503D01*
X117269735Y-87266498D01*
X117209396Y-87120825D01*
X117209394Y-87120822D01*
X117209394Y-87120821D01*
X117174694Y-87068889D01*
X117153816Y-87002215D01*
X117172300Y-86934835D01*
X117174676Y-86931136D01*
X117209394Y-86879179D01*
X117269737Y-86733497D01*
X117300500Y-86578842D01*
X117300500Y-86421158D01*
X117300500Y-86421155D01*
X117300499Y-86421153D01*
X117287426Y-86355431D01*
X117269737Y-86266503D01*
X117265573Y-86256450D01*
X117209397Y-86120827D01*
X117209390Y-86120814D01*
X117121789Y-85989711D01*
X117121786Y-85989707D01*
X117010292Y-85878213D01*
X117010288Y-85878210D01*
X116879185Y-85790609D01*
X116879179Y-85790606D01*
X116861589Y-85783320D01*
X116807186Y-85739478D01*
X116785122Y-85673184D01*
X116787425Y-85644571D01*
X116800500Y-85578842D01*
X116800500Y-85421158D01*
X116800500Y-85421155D01*
X116800499Y-85421153D01*
X116769738Y-85266510D01*
X116769737Y-85266503D01*
X116769735Y-85266498D01*
X116709397Y-85120827D01*
X116709390Y-85120814D01*
X116621789Y-84989711D01*
X116621786Y-84989707D01*
X116510292Y-84878213D01*
X116510288Y-84878210D01*
X116379185Y-84790609D01*
X116379172Y-84790602D01*
X116253531Y-84738561D01*
X116199127Y-84694720D01*
X116177062Y-84628426D01*
X116194341Y-84560727D01*
X116245478Y-84513116D01*
X116300983Y-84500000D01*
X126775500Y-84500000D01*
X126842539Y-84519685D01*
X126888294Y-84572489D01*
X126899500Y-84624000D01*
X126899500Y-91920234D01*
X126879815Y-91987273D01*
X126878602Y-91989125D01*
X126790609Y-92120814D01*
X126790602Y-92120827D01*
X126730264Y-92266498D01*
X126730261Y-92266510D01*
X126699500Y-92421153D01*
X126699500Y-92575500D01*
X126679815Y-92642539D01*
X126627011Y-92688294D01*
X126575500Y-92699500D01*
X126421155Y-92699500D01*
X126266510Y-92730261D01*
X126266498Y-92730264D01*
X126120827Y-92790602D01*
X126120814Y-92790609D01*
X125989711Y-92878210D01*
X125989707Y-92878213D01*
X125878213Y-92989707D01*
X125878210Y-92989711D01*
X125790609Y-93120814D01*
X125790602Y-93120827D01*
X125730264Y-93266498D01*
X125730261Y-93266510D01*
X125699500Y-93421153D01*
X125699500Y-93578846D01*
X125730261Y-93733489D01*
X125730264Y-93733501D01*
X125790602Y-93879172D01*
X125790609Y-93879185D01*
X125878210Y-94010288D01*
X125878213Y-94010292D01*
X125989707Y-94121786D01*
X125989711Y-94121789D01*
X126120814Y-94209390D01*
X126120827Y-94209397D01*
X126266498Y-94269735D01*
X126266503Y-94269737D01*
X126421153Y-94300499D01*
X126421156Y-94300500D01*
X126421158Y-94300500D01*
X126578844Y-94300500D01*
X126578845Y-94300499D01*
X126733497Y-94269737D01*
X126879179Y-94209394D01*
X126879185Y-94209390D01*
X127010875Y-94121398D01*
X127028921Y-94115747D01*
X127044831Y-94105523D01*
X127075792Y-94101071D01*
X127077553Y-94100520D01*
X127079766Y-94100500D01*
X127261860Y-94100500D01*
X127261876Y-94100501D01*
X127269472Y-94100501D01*
X127427583Y-94100501D01*
X127427586Y-94100501D01*
X127580314Y-94059577D01*
X127630433Y-94030639D01*
X127717245Y-93980520D01*
X127829049Y-93868716D01*
X127829049Y-93868714D01*
X127839257Y-93858507D01*
X127839258Y-93858504D01*
X129480520Y-92217245D01*
X129559577Y-92080313D01*
X129600501Y-91927586D01*
X129600501Y-91769471D01*
X129600501Y-91761876D01*
X129600500Y-91761858D01*
X129600500Y-90028403D01*
X145592250Y-90028403D01*
X145592250Y-90186096D01*
X145623011Y-90340739D01*
X145623014Y-90340751D01*
X145683352Y-90486422D01*
X145683359Y-90486435D01*
X145770960Y-90617538D01*
X145770963Y-90617542D01*
X145882457Y-90729036D01*
X145882461Y-90729039D01*
X146013564Y-90816640D01*
X146013577Y-90816647D01*
X146159248Y-90876985D01*
X146159253Y-90876987D01*
X146223897Y-90889845D01*
X146314599Y-90907888D01*
X146376510Y-90940273D01*
X146378088Y-90941823D01*
X159416784Y-103980520D01*
X159416786Y-103980521D01*
X159416790Y-103980524D01*
X159524167Y-104042517D01*
X159553716Y-104059577D01*
X159706443Y-104100501D01*
X159706445Y-104100501D01*
X159872154Y-104100501D01*
X159872170Y-104100500D01*
X176079055Y-104100500D01*
X176079057Y-104100500D01*
X176231784Y-104059577D01*
X176368716Y-103980520D01*
X176480520Y-103868716D01*
X176559577Y-103731784D01*
X176600500Y-103579057D01*
X176600500Y-100089060D01*
X176600501Y-100089047D01*
X176600501Y-99920944D01*
X176600501Y-99920943D01*
X176559577Y-99768216D01*
X176559573Y-99768209D01*
X176480524Y-99631290D01*
X176480518Y-99631282D01*
X176334573Y-99485337D01*
X176301088Y-99424014D01*
X176300637Y-99421847D01*
X176269738Y-99266510D01*
X176269737Y-99266503D01*
X176209795Y-99121789D01*
X176209397Y-99120827D01*
X176209390Y-99120814D01*
X176121789Y-98989711D01*
X176121786Y-98989707D01*
X176010292Y-98878213D01*
X176010288Y-98878210D01*
X175879185Y-98790609D01*
X175879172Y-98790602D01*
X175733501Y-98730264D01*
X175733489Y-98730261D01*
X175578845Y-98699500D01*
X175578842Y-98699500D01*
X175421158Y-98699500D01*
X175421155Y-98699500D01*
X175266510Y-98730261D01*
X175266498Y-98730264D01*
X175120827Y-98790602D01*
X175120814Y-98790609D01*
X174989711Y-98878210D01*
X174989707Y-98878213D01*
X174878213Y-98989707D01*
X174878210Y-98989711D01*
X174790609Y-99120814D01*
X174790602Y-99120827D01*
X174730264Y-99266498D01*
X174730261Y-99266510D01*
X174699500Y-99421153D01*
X174699500Y-99578846D01*
X174730261Y-99733489D01*
X174730264Y-99733501D01*
X174790602Y-99879172D01*
X174790609Y-99879185D01*
X174878210Y-100010288D01*
X174878213Y-100010292D01*
X174989707Y-100121786D01*
X174989711Y-100121789D01*
X175120814Y-100209390D01*
X175120827Y-100209397D01*
X175186790Y-100236719D01*
X175266503Y-100269737D01*
X175299691Y-100276338D01*
X175361600Y-100308721D01*
X175396176Y-100369436D01*
X175399500Y-100397955D01*
X175399500Y-101113444D01*
X175379815Y-101180483D01*
X175327011Y-101226238D01*
X175257853Y-101236182D01*
X175239575Y-101231202D01*
X175239324Y-101232031D01*
X175233500Y-101230264D01*
X175233497Y-101230263D01*
X175233492Y-101230262D01*
X175233489Y-101230261D01*
X175078845Y-101199500D01*
X175078842Y-101199500D01*
X174921158Y-101199500D01*
X174921155Y-101199500D01*
X174766510Y-101230261D01*
X174766498Y-101230264D01*
X174620827Y-101290602D01*
X174620814Y-101290609D01*
X174489125Y-101378602D01*
X174422447Y-101399480D01*
X174420234Y-101399500D01*
X159151283Y-101399500D01*
X159084244Y-101379815D01*
X159063602Y-101363181D01*
X156621574Y-98921153D01*
X161199500Y-98921153D01*
X161199500Y-99078846D01*
X161230261Y-99233489D01*
X161230264Y-99233501D01*
X161290602Y-99379172D01*
X161290609Y-99379185D01*
X161378210Y-99510288D01*
X161378213Y-99510292D01*
X161489707Y-99621786D01*
X161489711Y-99621789D01*
X161620814Y-99709390D01*
X161620827Y-99709397D01*
X161762814Y-99768209D01*
X161766503Y-99769737D01*
X161921153Y-99800499D01*
X161921156Y-99800500D01*
X161921158Y-99800500D01*
X162078844Y-99800500D01*
X162078845Y-99800499D01*
X162233497Y-99769737D01*
X162379179Y-99709394D01*
X162510289Y-99621789D01*
X162621789Y-99510289D01*
X162709394Y-99379179D01*
X162739467Y-99306572D01*
X162783305Y-99252172D01*
X162806565Y-99239470D01*
X162879179Y-99209394D01*
X163010289Y-99121789D01*
X163121789Y-99010289D01*
X163209394Y-98879179D01*
X163262602Y-98750721D01*
X163306440Y-98696322D01*
X163372734Y-98674256D01*
X163401355Y-98676560D01*
X163406693Y-98677622D01*
X163421155Y-98680500D01*
X163421158Y-98680500D01*
X163578844Y-98680500D01*
X163578845Y-98680499D01*
X163733497Y-98649737D01*
X163879179Y-98589394D01*
X164010289Y-98501789D01*
X164121789Y-98390289D01*
X164209394Y-98259179D01*
X164269737Y-98113497D01*
X164300500Y-97958842D01*
X164300500Y-97801158D01*
X164300500Y-97801155D01*
X164300499Y-97801153D01*
X164294250Y-97769737D01*
X164269737Y-97646503D01*
X164262601Y-97629274D01*
X164209397Y-97500827D01*
X164209390Y-97500814D01*
X164121789Y-97369711D01*
X164121786Y-97369707D01*
X164010292Y-97258213D01*
X164010288Y-97258210D01*
X163879185Y-97170609D01*
X163879172Y-97170602D01*
X163733501Y-97110264D01*
X163733489Y-97110261D01*
X163578845Y-97079500D01*
X163578842Y-97079500D01*
X163421158Y-97079500D01*
X163421155Y-97079500D01*
X163266510Y-97110261D01*
X163266498Y-97110264D01*
X163120827Y-97170602D01*
X163120814Y-97170609D01*
X162989711Y-97258210D01*
X162989707Y-97258213D01*
X162878213Y-97369707D01*
X162878210Y-97369711D01*
X162790609Y-97500814D01*
X162790604Y-97500823D01*
X162737399Y-97629274D01*
X162693558Y-97683677D01*
X162627264Y-97705742D01*
X162598650Y-97703439D01*
X162578844Y-97699500D01*
X162578842Y-97699500D01*
X162421158Y-97699500D01*
X162421155Y-97699500D01*
X162266510Y-97730261D01*
X162266498Y-97730264D01*
X162120827Y-97790602D01*
X162120814Y-97790609D01*
X161989711Y-97878210D01*
X161989707Y-97878213D01*
X161878213Y-97989707D01*
X161878210Y-97989711D01*
X161790609Y-98120814D01*
X161790606Y-98120820D01*
X161760532Y-98193425D01*
X161716690Y-98247828D01*
X161693425Y-98260532D01*
X161620820Y-98290606D01*
X161620814Y-98290609D01*
X161489711Y-98378210D01*
X161489707Y-98378213D01*
X161378213Y-98489707D01*
X161378210Y-98489711D01*
X161290609Y-98620814D01*
X161290602Y-98620827D01*
X161230264Y-98766498D01*
X161230261Y-98766510D01*
X161199500Y-98921153D01*
X156621574Y-98921153D01*
X156562412Y-98861991D01*
X156528927Y-98800668D01*
X156526093Y-98774310D01*
X156526093Y-97846538D01*
X156526093Y-97846536D01*
X156485170Y-97693809D01*
X156485170Y-97693808D01*
X156445733Y-97625501D01*
X156443668Y-97621925D01*
X156443665Y-97621918D01*
X156406117Y-97556883D01*
X156406114Y-97556879D01*
X156406113Y-97556877D01*
X156294309Y-97445073D01*
X156294308Y-97445072D01*
X156289978Y-97440742D01*
X156289967Y-97440732D01*
X153583860Y-94734625D01*
X153550375Y-94673302D01*
X153555359Y-94603610D01*
X153597231Y-94547677D01*
X153662695Y-94523260D01*
X153730968Y-94538112D01*
X153733525Y-94539548D01*
X153768215Y-94559577D01*
X153920943Y-94600501D01*
X153920946Y-94600501D01*
X154086653Y-94600501D01*
X154086669Y-94600500D01*
X167699903Y-94600500D01*
X167766942Y-94620185D01*
X167787584Y-94636819D01*
X169363181Y-96212416D01*
X169377884Y-96239343D01*
X169394477Y-96265162D01*
X169395368Y-96271362D01*
X169396666Y-96273739D01*
X169399500Y-96300097D01*
X169399500Y-96420234D01*
X169379815Y-96487273D01*
X169378602Y-96489125D01*
X169290609Y-96620814D01*
X169290602Y-96620827D01*
X169230264Y-96766498D01*
X169230261Y-96766510D01*
X169199500Y-96921153D01*
X169199500Y-97078846D01*
X169230261Y-97233489D01*
X169230264Y-97233501D01*
X169290602Y-97379172D01*
X169290609Y-97379185D01*
X169378210Y-97510288D01*
X169378213Y-97510292D01*
X169489707Y-97621786D01*
X169489711Y-97621789D01*
X169620814Y-97709390D01*
X169620827Y-97709397D01*
X169765139Y-97769172D01*
X169766503Y-97769737D01*
X169921153Y-97800499D01*
X169921156Y-97800500D01*
X169921158Y-97800500D01*
X170078844Y-97800500D01*
X170078845Y-97800499D01*
X170233497Y-97769737D01*
X170379179Y-97709394D01*
X170431110Y-97674694D01*
X170497785Y-97653816D01*
X170565165Y-97672300D01*
X170568863Y-97674676D01*
X170620821Y-97709394D01*
X170620823Y-97709395D01*
X170620825Y-97709396D01*
X170765139Y-97769172D01*
X170766503Y-97769737D01*
X170921153Y-97800499D01*
X170921156Y-97800500D01*
X170921158Y-97800500D01*
X171078844Y-97800500D01*
X171078845Y-97800499D01*
X171233497Y-97769737D01*
X171379179Y-97709394D01*
X171510289Y-97621789D01*
X171621789Y-97510289D01*
X171709394Y-97379179D01*
X171769737Y-97233497D01*
X171800500Y-97078842D01*
X171800500Y-96921158D01*
X171800500Y-96921155D01*
X171800499Y-96921153D01*
X171770077Y-96768213D01*
X171769737Y-96766503D01*
X171709794Y-96621786D01*
X171709397Y-96620827D01*
X171709390Y-96620814D01*
X171621398Y-96489125D01*
X171600520Y-96422447D01*
X171600500Y-96420234D01*
X171600500Y-95921153D01*
X174699500Y-95921153D01*
X174699500Y-96078846D01*
X174730261Y-96233489D01*
X174730264Y-96233501D01*
X174790602Y-96379172D01*
X174790609Y-96379185D01*
X174878210Y-96510288D01*
X174878213Y-96510292D01*
X174989707Y-96621786D01*
X174989711Y-96621789D01*
X175120814Y-96709390D01*
X175120827Y-96709397D01*
X175258683Y-96766498D01*
X175266503Y-96769737D01*
X175421153Y-96800499D01*
X175421156Y-96800500D01*
X175421158Y-96800500D01*
X175578844Y-96800500D01*
X175578845Y-96800499D01*
X175733497Y-96769737D01*
X175879179Y-96709394D01*
X176010289Y-96621789D01*
X176121789Y-96510289D01*
X176209394Y-96379179D01*
X176269737Y-96233497D01*
X176300500Y-96078842D01*
X176300500Y-95921158D01*
X176300500Y-95921155D01*
X176300499Y-95921153D01*
X176276499Y-95800499D01*
X176269737Y-95766503D01*
X176209794Y-95621786D01*
X176209397Y-95620827D01*
X176209390Y-95620814D01*
X176121789Y-95489711D01*
X176121786Y-95489707D01*
X176010292Y-95378213D01*
X176010288Y-95378210D01*
X175879185Y-95290609D01*
X175879172Y-95290602D01*
X175733501Y-95230264D01*
X175733489Y-95230261D01*
X175578845Y-95199500D01*
X175578842Y-95199500D01*
X175421158Y-95199500D01*
X175421155Y-95199500D01*
X175266510Y-95230261D01*
X175266498Y-95230264D01*
X175120827Y-95290602D01*
X175120814Y-95290609D01*
X174989711Y-95378210D01*
X174989707Y-95378213D01*
X174878213Y-95489707D01*
X174878210Y-95489711D01*
X174790609Y-95620814D01*
X174790602Y-95620827D01*
X174730264Y-95766498D01*
X174730261Y-95766510D01*
X174699500Y-95921153D01*
X171600500Y-95921153D01*
X171600500Y-95589059D01*
X171600501Y-95589046D01*
X171600501Y-95420945D01*
X171600501Y-95420943D01*
X171559577Y-95268215D01*
X171519904Y-95199500D01*
X171480520Y-95131284D01*
X171368716Y-95019480D01*
X171364385Y-95015149D01*
X171364374Y-95015139D01*
X168987590Y-92638355D01*
X168987588Y-92638352D01*
X168868717Y-92519481D01*
X168868716Y-92519480D01*
X168781904Y-92469360D01*
X168781904Y-92469359D01*
X168781900Y-92469358D01*
X168731785Y-92440423D01*
X168579057Y-92399499D01*
X168420943Y-92399499D01*
X168413347Y-92399499D01*
X168413331Y-92399500D01*
X155800097Y-92399500D01*
X155733058Y-92379815D01*
X155712416Y-92363181D01*
X153084574Y-89735339D01*
X153051089Y-89674016D01*
X153050638Y-89671849D01*
X153032137Y-89578842D01*
X153019737Y-89516503D01*
X153006829Y-89485339D01*
X152959397Y-89370827D01*
X152959390Y-89370814D01*
X152871789Y-89239711D01*
X152871786Y-89239707D01*
X152760292Y-89128213D01*
X152760288Y-89128210D01*
X152629185Y-89040609D01*
X152629172Y-89040602D01*
X152483501Y-88980264D01*
X152483489Y-88980261D01*
X152328845Y-88949500D01*
X152328842Y-88949500D01*
X152171158Y-88949500D01*
X152171155Y-88949500D01*
X152016510Y-88980261D01*
X152016498Y-88980264D01*
X151870827Y-89040602D01*
X151870814Y-89040609D01*
X151739711Y-89128210D01*
X151739707Y-89128213D01*
X151628213Y-89239707D01*
X151628210Y-89239711D01*
X151540609Y-89370814D01*
X151540602Y-89370827D01*
X151480264Y-89516498D01*
X151480261Y-89516510D01*
X151449500Y-89671153D01*
X151449500Y-89828846D01*
X151480261Y-89983489D01*
X151480264Y-89983501D01*
X151540602Y-90129172D01*
X151540609Y-90129185D01*
X151628210Y-90260288D01*
X151628213Y-90260292D01*
X151739707Y-90371786D01*
X151739711Y-90371789D01*
X151870814Y-90459390D01*
X151870827Y-90459397D01*
X152014989Y-90519110D01*
X152016503Y-90519737D01*
X152081147Y-90532595D01*
X152171849Y-90550638D01*
X152233760Y-90583023D01*
X152235339Y-90584574D01*
X154838584Y-93187819D01*
X154872069Y-93249142D01*
X154867085Y-93318834D01*
X154825213Y-93374767D01*
X154759749Y-93399184D01*
X154750903Y-93399500D01*
X154300097Y-93399500D01*
X154233058Y-93379815D01*
X154212416Y-93363181D01*
X150334574Y-89485339D01*
X150301089Y-89424016D01*
X150300638Y-89421849D01*
X150282338Y-89329850D01*
X150269737Y-89266503D01*
X150267163Y-89260289D01*
X150209397Y-89120827D01*
X150209390Y-89120814D01*
X150121789Y-88989711D01*
X150121786Y-88989707D01*
X150010292Y-88878213D01*
X150010288Y-88878210D01*
X149879185Y-88790609D01*
X149879172Y-88790602D01*
X149733501Y-88730264D01*
X149733489Y-88730261D01*
X149578845Y-88699500D01*
X149578842Y-88699500D01*
X149421158Y-88699500D01*
X149421155Y-88699500D01*
X149266510Y-88730261D01*
X149266498Y-88730264D01*
X149120827Y-88790602D01*
X149120814Y-88790609D01*
X148989711Y-88878210D01*
X148989707Y-88878213D01*
X148878213Y-88989707D01*
X148878210Y-88989711D01*
X148790609Y-89120814D01*
X148790602Y-89120827D01*
X148730264Y-89266498D01*
X148730261Y-89266510D01*
X148699500Y-89421153D01*
X148699500Y-89550903D01*
X148679815Y-89617942D01*
X148627011Y-89663697D01*
X148557853Y-89673641D01*
X148494297Y-89644616D01*
X148487819Y-89638584D01*
X147584574Y-88735339D01*
X147551089Y-88674016D01*
X147550638Y-88671849D01*
X147519738Y-88516510D01*
X147519737Y-88516503D01*
X147519735Y-88516498D01*
X147459397Y-88370827D01*
X147459390Y-88370814D01*
X147371789Y-88239711D01*
X147371786Y-88239707D01*
X147260292Y-88128213D01*
X147260288Y-88128210D01*
X147129185Y-88040609D01*
X147129172Y-88040602D01*
X146983501Y-87980264D01*
X146983489Y-87980261D01*
X146828845Y-87949500D01*
X146828842Y-87949500D01*
X146671158Y-87949500D01*
X146671155Y-87949500D01*
X146516510Y-87980261D01*
X146516498Y-87980264D01*
X146370827Y-88040602D01*
X146370814Y-88040609D01*
X146239711Y-88128210D01*
X146239707Y-88128213D01*
X146128213Y-88239707D01*
X146128210Y-88239711D01*
X146040609Y-88370814D01*
X146040602Y-88370827D01*
X145980264Y-88516498D01*
X145980261Y-88516510D01*
X145949500Y-88671153D01*
X145949500Y-88828846D01*
X145980261Y-88983489D01*
X145980264Y-88983501D01*
X146040602Y-89129172D01*
X146040609Y-89129185D01*
X146091409Y-89205212D01*
X146112287Y-89271890D01*
X146093802Y-89339270D01*
X146041824Y-89385960D01*
X146035763Y-89388663D01*
X146013573Y-89397854D01*
X146013564Y-89397859D01*
X145882461Y-89485460D01*
X145882457Y-89485463D01*
X145770963Y-89596957D01*
X145770960Y-89596961D01*
X145683359Y-89728064D01*
X145683352Y-89728077D01*
X145623014Y-89873748D01*
X145623011Y-89873760D01*
X145592250Y-90028403D01*
X129600500Y-90028403D01*
X129600500Y-86921153D01*
X130699500Y-86921153D01*
X130699500Y-87078846D01*
X130730261Y-87233489D01*
X130730264Y-87233501D01*
X130790602Y-87379172D01*
X130790609Y-87379185D01*
X130878210Y-87510288D01*
X130878213Y-87510292D01*
X130989707Y-87621786D01*
X130989711Y-87621789D01*
X131120814Y-87709390D01*
X131120827Y-87709397D01*
X131193419Y-87739465D01*
X131266503Y-87769737D01*
X131421153Y-87800499D01*
X131421156Y-87800500D01*
X131421158Y-87800500D01*
X131578844Y-87800500D01*
X131578845Y-87800499D01*
X131733497Y-87769737D01*
X131879179Y-87709394D01*
X132010289Y-87621789D01*
X132121789Y-87510289D01*
X132181348Y-87421153D01*
X165699500Y-87421153D01*
X165699500Y-87578846D01*
X165730261Y-87733489D01*
X165730264Y-87733501D01*
X165790602Y-87879172D01*
X165790609Y-87879185D01*
X165878210Y-88010288D01*
X165878213Y-88010292D01*
X165989707Y-88121786D01*
X165989711Y-88121789D01*
X166120814Y-88209390D01*
X166120827Y-88209397D01*
X166194013Y-88239711D01*
X166266503Y-88269737D01*
X166421153Y-88300499D01*
X166421156Y-88300500D01*
X166421158Y-88300500D01*
X166578844Y-88300500D01*
X166578845Y-88300499D01*
X166733497Y-88269737D01*
X166879179Y-88209394D01*
X167010289Y-88121789D01*
X167121789Y-88010289D01*
X167209394Y-87879179D01*
X167239467Y-87806572D01*
X167283305Y-87752172D01*
X167306565Y-87739470D01*
X167379179Y-87709394D01*
X167510289Y-87621789D01*
X167621789Y-87510289D01*
X167709394Y-87379179D01*
X167769737Y-87233497D01*
X167800500Y-87078842D01*
X167800500Y-86921158D01*
X167800500Y-86921155D01*
X167800499Y-86921153D01*
X167769738Y-86766510D01*
X167769737Y-86766503D01*
X167762002Y-86747828D01*
X167709397Y-86620827D01*
X167709390Y-86620814D01*
X167621789Y-86489711D01*
X167621786Y-86489707D01*
X167510292Y-86378213D01*
X167510288Y-86378210D01*
X167379185Y-86290609D01*
X167379172Y-86290602D01*
X167233501Y-86230264D01*
X167233489Y-86230261D01*
X167078845Y-86199500D01*
X167078842Y-86199500D01*
X166921158Y-86199500D01*
X166921155Y-86199500D01*
X166766510Y-86230261D01*
X166766498Y-86230264D01*
X166620827Y-86290602D01*
X166620814Y-86290609D01*
X166489711Y-86378210D01*
X166489707Y-86378213D01*
X166378213Y-86489707D01*
X166378210Y-86489711D01*
X166290609Y-86620814D01*
X166290606Y-86620820D01*
X166260532Y-86693425D01*
X166216690Y-86747828D01*
X166193425Y-86760532D01*
X166120820Y-86790606D01*
X166120814Y-86790609D01*
X165989711Y-86878210D01*
X165989707Y-86878213D01*
X165878213Y-86989707D01*
X165878210Y-86989711D01*
X165790609Y-87120814D01*
X165790602Y-87120827D01*
X165730264Y-87266498D01*
X165730261Y-87266510D01*
X165699500Y-87421153D01*
X132181348Y-87421153D01*
X132209394Y-87379179D01*
X132269737Y-87233497D01*
X132300500Y-87078842D01*
X132300500Y-86921158D01*
X132300500Y-86921155D01*
X132300499Y-86921153D01*
X132269738Y-86766510D01*
X132269737Y-86766503D01*
X132262002Y-86747828D01*
X132209397Y-86620827D01*
X132209390Y-86620814D01*
X132121789Y-86489711D01*
X132121786Y-86489707D01*
X132010292Y-86378213D01*
X132010288Y-86378210D01*
X131879185Y-86290609D01*
X131879172Y-86290602D01*
X131733501Y-86230264D01*
X131733489Y-86230261D01*
X131578845Y-86199500D01*
X131578842Y-86199500D01*
X131421158Y-86199500D01*
X131421155Y-86199500D01*
X131266510Y-86230261D01*
X131266498Y-86230264D01*
X131120827Y-86290602D01*
X131120814Y-86290609D01*
X130989711Y-86378210D01*
X130989707Y-86378213D01*
X130878213Y-86489707D01*
X130878210Y-86489711D01*
X130790609Y-86620814D01*
X130790602Y-86620827D01*
X130730264Y-86766498D01*
X130730261Y-86766510D01*
X130699500Y-86921153D01*
X129600500Y-86921153D01*
X129600500Y-84624000D01*
X129620185Y-84556961D01*
X129672989Y-84511206D01*
X129724500Y-84500000D01*
X183873444Y-84500000D01*
X183940483Y-84519685D01*
X183986238Y-84572489D01*
X183997417Y-84626528D01*
X183992281Y-84878213D01*
X183971017Y-85920148D01*
X183949969Y-85986772D01*
X183896242Y-86031440D01*
X183826895Y-86039970D01*
X183763945Y-86009655D01*
X183746724Y-85990502D01*
X183739865Y-85981061D01*
X183558940Y-85800136D01*
X183558935Y-85800132D01*
X183351950Y-85649750D01*
X183351949Y-85649749D01*
X183351947Y-85649748D01*
X183212789Y-85578843D01*
X183123975Y-85533589D01*
X183123972Y-85533588D01*
X182880640Y-85454526D01*
X182754284Y-85434513D01*
X182627930Y-85414500D01*
X182372070Y-85414500D01*
X182330053Y-85421155D01*
X182119359Y-85454526D01*
X181876027Y-85533588D01*
X181876024Y-85533589D01*
X181648049Y-85649750D01*
X181441064Y-85800132D01*
X181441059Y-85800136D01*
X181260136Y-85981059D01*
X181260132Y-85981064D01*
X181109750Y-86188049D01*
X180993589Y-86416024D01*
X180993588Y-86416027D01*
X180914526Y-86659359D01*
X180874500Y-86912070D01*
X180874500Y-87167929D01*
X180914526Y-87420640D01*
X180993588Y-87663972D01*
X180993589Y-87663975D01*
X181047479Y-87769738D01*
X181103245Y-87879185D01*
X181109750Y-87891950D01*
X181190529Y-88003134D01*
X181214009Y-88068940D01*
X181198183Y-88136994D01*
X181148078Y-88185689D01*
X181084934Y-88198483D01*
X181084934Y-88199500D01*
X181079915Y-88199500D01*
X181079599Y-88199564D01*
X181078902Y-88199500D01*
X181078842Y-88199500D01*
X180921158Y-88199500D01*
X180921155Y-88199500D01*
X180766510Y-88230261D01*
X180766498Y-88230264D01*
X180620827Y-88290602D01*
X180620814Y-88290609D01*
X180489711Y-88378210D01*
X180489707Y-88378213D01*
X180378213Y-88489707D01*
X180378210Y-88489711D01*
X180290609Y-88620814D01*
X180290602Y-88620827D01*
X180230264Y-88766498D01*
X180230261Y-88766510D01*
X180199500Y-88921153D01*
X180199500Y-89078846D01*
X180230261Y-89233489D01*
X180230264Y-89233501D01*
X180290602Y-89379172D01*
X180290609Y-89379185D01*
X180378210Y-89510288D01*
X180378213Y-89510292D01*
X180489710Y-89621789D01*
X180492751Y-89624285D01*
X180493914Y-89625993D01*
X180494018Y-89626097D01*
X180493998Y-89626116D01*
X180532082Y-89682033D01*
X180533949Y-89751877D01*
X180497759Y-89811644D01*
X180492751Y-89815983D01*
X180489710Y-89818478D01*
X180378213Y-89929975D01*
X180378210Y-89929979D01*
X180290609Y-90061082D01*
X180290602Y-90061095D01*
X180230264Y-90206766D01*
X180230261Y-90206778D01*
X180199500Y-90361421D01*
X180199500Y-90519114D01*
X180230261Y-90673757D01*
X180230264Y-90673769D01*
X180290602Y-90819440D01*
X180290609Y-90819453D01*
X180378210Y-90950556D01*
X180378213Y-90950560D01*
X180489707Y-91062054D01*
X180489711Y-91062057D01*
X180620814Y-91149658D01*
X180620827Y-91149665D01*
X180766498Y-91210003D01*
X180766503Y-91210005D01*
X180921153Y-91240767D01*
X180921156Y-91240768D01*
X180921300Y-91240768D01*
X180921372Y-91240789D01*
X180927218Y-91241365D01*
X180927108Y-91242473D01*
X180988339Y-91260453D01*
X181034094Y-91313257D01*
X181044038Y-91382415D01*
X181031785Y-91421063D01*
X180993589Y-91496024D01*
X180993588Y-91496027D01*
X180914526Y-91739359D01*
X180889274Y-91898793D01*
X180874500Y-91992070D01*
X180874500Y-92247930D01*
X180892754Y-92363181D01*
X180914526Y-92500640D01*
X180993588Y-92743972D01*
X180993589Y-92743975D01*
X181109750Y-92971950D01*
X181260132Y-93178935D01*
X181260136Y-93178940D01*
X181441059Y-93359863D01*
X181441064Y-93359867D01*
X181525418Y-93421153D01*
X181648053Y-93510252D01*
X181782668Y-93578842D01*
X181876024Y-93626410D01*
X181876027Y-93626411D01*
X181997693Y-93665942D01*
X182119361Y-93705474D01*
X182372070Y-93745500D01*
X182372071Y-93745500D01*
X182627929Y-93745500D01*
X182627930Y-93745500D01*
X182880639Y-93705474D01*
X183123975Y-93626410D01*
X183351947Y-93510252D01*
X183558942Y-93359862D01*
X183606665Y-93312138D01*
X183667986Y-93278654D01*
X183737677Y-93283638D01*
X183793611Y-93325509D01*
X183818029Y-93390973D01*
X183818319Y-93402350D01*
X183502479Y-108878530D01*
X183481431Y-108945154D01*
X183427704Y-108989822D01*
X183378505Y-109000000D01*
X152124000Y-109000000D01*
X152056961Y-108980315D01*
X152011206Y-108927511D01*
X152000000Y-108876000D01*
X152000000Y-106921153D01*
X166199500Y-106921153D01*
X166199500Y-107078846D01*
X166230261Y-107233489D01*
X166230264Y-107233501D01*
X166290602Y-107379172D01*
X166290609Y-107379185D01*
X166378210Y-107510288D01*
X166378213Y-107510292D01*
X166489707Y-107621786D01*
X166489711Y-107621789D01*
X166620814Y-107709390D01*
X166620827Y-107709397D01*
X166766498Y-107769735D01*
X166766503Y-107769737D01*
X166921153Y-107800499D01*
X166921156Y-107800500D01*
X166921158Y-107800500D01*
X167078844Y-107800500D01*
X167078845Y-107800499D01*
X167233497Y-107769737D01*
X167379179Y-107709394D01*
X167510289Y-107621789D01*
X167621789Y-107510289D01*
X167709394Y-107379179D01*
X167769737Y-107233497D01*
X167800500Y-107078842D01*
X167800500Y-106921158D01*
X167800500Y-106921155D01*
X167800499Y-106921153D01*
X167769738Y-106766510D01*
X167769737Y-106766503D01*
X167769735Y-106766498D01*
X167709397Y-106620827D01*
X167709390Y-106620814D01*
X167621789Y-106489711D01*
X167621786Y-106489707D01*
X167510292Y-106378213D01*
X167510288Y-106378210D01*
X167379185Y-106290609D01*
X167379172Y-106290602D01*
X167233501Y-106230264D01*
X167233489Y-106230261D01*
X167078845Y-106199500D01*
X167078842Y-106199500D01*
X166921158Y-106199500D01*
X166921155Y-106199500D01*
X166766510Y-106230261D01*
X166766498Y-106230264D01*
X166620827Y-106290602D01*
X166620814Y-106290609D01*
X166489711Y-106378210D01*
X166489707Y-106378213D01*
X166378213Y-106489707D01*
X166378210Y-106489711D01*
X166290609Y-106620814D01*
X166290602Y-106620827D01*
X166230264Y-106766498D01*
X166230261Y-106766510D01*
X166199500Y-106921153D01*
X152000000Y-106921153D01*
X152000000Y-106414688D01*
X152019685Y-106347649D01*
X152072489Y-106301894D01*
X152141647Y-106291950D01*
X152162320Y-106296757D01*
X152223875Y-106316758D01*
X152433754Y-106350000D01*
X152646246Y-106350000D01*
X152856127Y-106316757D01*
X152856130Y-106316757D01*
X153058217Y-106251095D01*
X153247554Y-106154622D01*
X153301716Y-106115270D01*
X153301717Y-106115270D01*
X152669409Y-105482962D01*
X152732993Y-105465925D01*
X152847007Y-105400099D01*
X152940099Y-105307007D01*
X153005925Y-105192993D01*
X153022962Y-105129408D01*
X153655270Y-105761717D01*
X153655270Y-105761716D01*
X153694622Y-105707554D01*
X153791095Y-105518217D01*
X153822633Y-105421153D01*
X180699500Y-105421153D01*
X180699500Y-105578846D01*
X180730261Y-105733489D01*
X180730264Y-105733501D01*
X180790602Y-105879172D01*
X180790609Y-105879185D01*
X180878210Y-106010288D01*
X180878213Y-106010292D01*
X180989707Y-106121786D01*
X180989711Y-106121789D01*
X181120814Y-106209390D01*
X181120827Y-106209397D01*
X181222612Y-106251557D01*
X181266503Y-106269737D01*
X181378175Y-106291950D01*
X181421153Y-106300499D01*
X181421156Y-106300500D01*
X181421158Y-106300500D01*
X181578844Y-106300500D01*
X181578845Y-106300499D01*
X181733497Y-106269737D01*
X181879179Y-106209394D01*
X182010289Y-106121789D01*
X182121789Y-106010289D01*
X182209394Y-105879179D01*
X182269737Y-105733497D01*
X182300500Y-105578842D01*
X182300500Y-105421158D01*
X182300500Y-105421155D01*
X182300499Y-105421153D01*
X182279631Y-105316243D01*
X182269737Y-105266503D01*
X182243489Y-105203134D01*
X182209397Y-105120827D01*
X182209390Y-105120814D01*
X182121789Y-104989711D01*
X182121786Y-104989707D01*
X182010292Y-104878213D01*
X182010288Y-104878210D01*
X181879185Y-104790609D01*
X181879172Y-104790602D01*
X181733501Y-104730264D01*
X181733489Y-104730261D01*
X181578845Y-104699500D01*
X181578842Y-104699500D01*
X181421158Y-104699500D01*
X181421155Y-104699500D01*
X181266510Y-104730261D01*
X181266498Y-104730264D01*
X181120827Y-104790602D01*
X181120814Y-104790609D01*
X180989711Y-104878210D01*
X180989707Y-104878213D01*
X180878213Y-104989707D01*
X180878210Y-104989711D01*
X180790609Y-105120814D01*
X180790602Y-105120827D01*
X180730264Y-105266498D01*
X180730261Y-105266510D01*
X180699500Y-105421153D01*
X153822633Y-105421153D01*
X153837061Y-105376748D01*
X153837061Y-105376747D01*
X153856758Y-105316126D01*
X153890000Y-105106246D01*
X153890000Y-104893753D01*
X153856757Y-104683872D01*
X153856757Y-104683869D01*
X153791095Y-104481782D01*
X153694624Y-104292449D01*
X153655270Y-104238282D01*
X153655269Y-104238282D01*
X153022962Y-104870590D01*
X153005925Y-104807007D01*
X152940099Y-104692993D01*
X152847007Y-104599901D01*
X152732993Y-104534075D01*
X152669407Y-104517036D01*
X153301716Y-103884728D01*
X153247550Y-103845375D01*
X153058217Y-103748904D01*
X152856129Y-103683242D01*
X152646246Y-103650000D01*
X152433754Y-103650000D01*
X152223872Y-103683242D01*
X152223869Y-103683242D01*
X152162318Y-103703242D01*
X152092477Y-103705237D01*
X152032644Y-103669157D01*
X152001816Y-103606456D01*
X152000000Y-103585311D01*
X152000000Y-102500000D01*
X135000000Y-102500000D01*
X135000000Y-107376000D01*
X134980315Y-107443039D01*
X134927511Y-107488794D01*
X134876000Y-107500000D01*
X114751754Y-107500000D01*
X114684715Y-107480315D01*
X114638960Y-107427511D01*
X114629016Y-107358353D01*
X114629281Y-107356602D01*
X114665500Y-107127928D01*
X114665500Y-106872070D01*
X114625474Y-106619361D01*
X114583347Y-106489707D01*
X114546411Y-106376027D01*
X114546410Y-106376024D01*
X114482990Y-106251557D01*
X114430252Y-106148053D01*
X114389768Y-106092331D01*
X114320787Y-105997385D01*
X114297307Y-105931578D01*
X114313133Y-105863525D01*
X114363239Y-105814830D01*
X114421105Y-105800500D01*
X114578844Y-105800500D01*
X114578845Y-105800499D01*
X114733497Y-105769737D01*
X114879179Y-105709394D01*
X115010289Y-105621789D01*
X115121789Y-105510289D01*
X115209394Y-105379179D01*
X115269737Y-105233497D01*
X115300500Y-105078842D01*
X115300500Y-104921158D01*
X115300500Y-104921155D01*
X115300499Y-104921153D01*
X115282937Y-104832863D01*
X115269737Y-104766503D01*
X115256912Y-104735541D01*
X115209397Y-104620827D01*
X115209390Y-104620814D01*
X115121789Y-104489711D01*
X115121786Y-104489707D01*
X115010292Y-104378213D01*
X115010284Y-104378207D01*
X114972712Y-104353102D01*
X114927906Y-104299490D01*
X114919199Y-104230165D01*
X114949353Y-104167138D01*
X114972712Y-104146898D01*
X115008906Y-104122713D01*
X115010289Y-104121789D01*
X115121789Y-104010289D01*
X115209394Y-103879179D01*
X115213728Y-103868717D01*
X115245316Y-103792454D01*
X115269737Y-103733497D01*
X115300500Y-103578842D01*
X115300500Y-103421158D01*
X115300500Y-103421155D01*
X115300499Y-103421153D01*
X115276499Y-103300500D01*
X115269737Y-103266503D01*
X115223666Y-103155276D01*
X115209397Y-103120827D01*
X115209390Y-103120814D01*
X115121789Y-102989711D01*
X115121786Y-102989707D01*
X115013232Y-102881153D01*
X131659500Y-102881153D01*
X131659500Y-103038846D01*
X131690261Y-103193489D01*
X131690264Y-103193501D01*
X131750602Y-103339172D01*
X131750612Y-103339190D01*
X131818667Y-103441042D01*
X131839545Y-103507719D01*
X131821060Y-103575099D01*
X131818668Y-103578821D01*
X131790611Y-103620812D01*
X131790602Y-103620828D01*
X131730264Y-103766498D01*
X131730261Y-103766510D01*
X131699500Y-103921153D01*
X131699500Y-104078846D01*
X131730261Y-104233489D01*
X131730264Y-104233501D01*
X131790602Y-104379172D01*
X131790609Y-104379185D01*
X131878210Y-104510288D01*
X131878213Y-104510292D01*
X131989707Y-104621786D01*
X131989710Y-104621788D01*
X131989711Y-104621789D01*
X132015219Y-104638833D01*
X132027289Y-104646898D01*
X132072093Y-104700511D01*
X132080800Y-104769836D01*
X132050645Y-104832863D01*
X132027289Y-104853102D01*
X131989707Y-104878213D01*
X131878213Y-104989707D01*
X131878210Y-104989711D01*
X131790609Y-105120814D01*
X131790602Y-105120827D01*
X131730264Y-105266498D01*
X131730261Y-105266510D01*
X131699500Y-105421153D01*
X131699500Y-105578846D01*
X131730261Y-105733489D01*
X131730264Y-105733501D01*
X131790602Y-105879172D01*
X131790609Y-105879185D01*
X131878210Y-106010288D01*
X131878213Y-106010292D01*
X131989707Y-106121786D01*
X131989711Y-106121789D01*
X132120814Y-106209390D01*
X132120827Y-106209397D01*
X132222612Y-106251557D01*
X132266503Y-106269737D01*
X132378175Y-106291950D01*
X132421153Y-106300499D01*
X132421156Y-106300500D01*
X132421158Y-106300500D01*
X132578844Y-106300500D01*
X132578845Y-106300499D01*
X132733497Y-106269737D01*
X132879179Y-106209394D01*
X133010289Y-106121789D01*
X133121789Y-106010289D01*
X133209394Y-105879179D01*
X133269737Y-105733497D01*
X133300500Y-105578842D01*
X133300500Y-105421158D01*
X133300500Y-105421155D01*
X133300499Y-105421153D01*
X133279631Y-105316243D01*
X133269737Y-105266503D01*
X133243489Y-105203134D01*
X133209397Y-105120827D01*
X133209390Y-105120814D01*
X133121789Y-104989711D01*
X133121786Y-104989707D01*
X133010292Y-104878213D01*
X133010284Y-104878207D01*
X132972712Y-104853102D01*
X132927906Y-104799490D01*
X132919199Y-104730165D01*
X132949353Y-104667138D01*
X132972712Y-104646898D01*
X132999279Y-104629145D01*
X133010289Y-104621789D01*
X133121789Y-104510289D01*
X133209394Y-104379179D01*
X133269737Y-104233497D01*
X133300500Y-104078842D01*
X133300500Y-103921158D01*
X133300500Y-103921155D01*
X133300499Y-103921153D01*
X133297817Y-103907669D01*
X133269737Y-103766503D01*
X133243534Y-103703242D01*
X133209397Y-103620827D01*
X133209395Y-103620823D01*
X133209394Y-103620821D01*
X133141330Y-103518957D01*
X133120453Y-103452281D01*
X133138937Y-103384901D01*
X133141309Y-103381210D01*
X133169394Y-103339179D01*
X133229737Y-103193497D01*
X133260500Y-103038842D01*
X133260500Y-102881158D01*
X133260500Y-102881155D01*
X133260499Y-102881153D01*
X133255966Y-102858362D01*
X133229737Y-102726503D01*
X133187790Y-102625233D01*
X133169397Y-102580827D01*
X133169390Y-102580814D01*
X133081789Y-102449711D01*
X133081786Y-102449707D01*
X132970292Y-102338213D01*
X132970288Y-102338210D01*
X132839185Y-102250609D01*
X132839172Y-102250602D01*
X132693501Y-102190264D01*
X132693489Y-102190261D01*
X132538845Y-102159500D01*
X132538842Y-102159500D01*
X132381158Y-102159500D01*
X132381155Y-102159500D01*
X132226510Y-102190261D01*
X132226498Y-102190264D01*
X132080827Y-102250602D01*
X132080814Y-102250609D01*
X131949711Y-102338210D01*
X131949707Y-102338213D01*
X131838213Y-102449707D01*
X131838210Y-102449711D01*
X131750609Y-102580814D01*
X131750602Y-102580827D01*
X131690264Y-102726498D01*
X131690261Y-102726510D01*
X131659500Y-102881153D01*
X115013232Y-102881153D01*
X115010292Y-102878213D01*
X115010288Y-102878210D01*
X114879185Y-102790609D01*
X114879172Y-102790602D01*
X114733501Y-102730264D01*
X114733491Y-102730261D01*
X114637552Y-102711177D01*
X114575641Y-102678791D01*
X114541067Y-102618075D01*
X114544808Y-102548306D01*
X114546087Y-102544968D01*
X114560698Y-102500000D01*
X114625474Y-102300639D01*
X114665500Y-102047930D01*
X114665500Y-101792070D01*
X114625474Y-101539361D01*
X114546410Y-101296025D01*
X114546410Y-101296024D01*
X114487538Y-101180483D01*
X114430252Y-101068053D01*
X114411038Y-101041607D01*
X114279867Y-100861064D01*
X114279863Y-100861059D01*
X114098940Y-100680136D01*
X114098935Y-100680132D01*
X113891950Y-100529750D01*
X113891949Y-100529749D01*
X113891947Y-100529748D01*
X113818910Y-100492533D01*
X113663975Y-100413589D01*
X113663972Y-100413588D01*
X113420640Y-100334526D01*
X113257716Y-100308721D01*
X113167930Y-100294500D01*
X112912070Y-100294500D01*
X112861528Y-100302505D01*
X112659357Y-100334526D01*
X112654618Y-100335664D01*
X112654172Y-100333809D01*
X112592419Y-100335544D01*
X112532604Y-100299435D01*
X112501806Y-100236719D01*
X112500000Y-100215633D01*
X112500000Y-97311153D01*
X131809500Y-97311153D01*
X131809500Y-97468846D01*
X131840261Y-97623489D01*
X131840264Y-97623501D01*
X131900602Y-97769172D01*
X131900609Y-97769185D01*
X131988210Y-97900288D01*
X131988213Y-97900292D01*
X132099707Y-98011786D01*
X132099711Y-98011789D01*
X132230814Y-98099390D01*
X132230827Y-98099397D01*
X132376498Y-98159735D01*
X132376503Y-98159737D01*
X132530439Y-98190357D01*
X132531153Y-98190499D01*
X132531156Y-98190500D01*
X132531158Y-98190500D01*
X132688844Y-98190500D01*
X132688845Y-98190499D01*
X132843497Y-98159737D01*
X132989179Y-98099394D01*
X133120289Y-98011789D01*
X133231789Y-97900289D01*
X133319394Y-97769179D01*
X133379737Y-97623497D01*
X133410500Y-97468842D01*
X133410500Y-97311158D01*
X133410500Y-97311155D01*
X133410499Y-97311153D01*
X133379737Y-97156503D01*
X133379735Y-97156498D01*
X133319397Y-97010827D01*
X133319390Y-97010814D01*
X133231789Y-96879711D01*
X133231786Y-96879707D01*
X133120292Y-96768213D01*
X133120288Y-96768210D01*
X132989185Y-96680609D01*
X132989172Y-96680602D01*
X132843501Y-96620264D01*
X132843489Y-96620261D01*
X132688845Y-96589500D01*
X132688842Y-96589500D01*
X132531158Y-96589500D01*
X132531155Y-96589500D01*
X132376510Y-96620261D01*
X132376498Y-96620264D01*
X132230827Y-96680602D01*
X132230814Y-96680609D01*
X132099711Y-96768210D01*
X132099707Y-96768213D01*
X131988213Y-96879707D01*
X131988210Y-96879711D01*
X131900609Y-97010814D01*
X131900602Y-97010827D01*
X131840264Y-97156498D01*
X131840261Y-97156510D01*
X131809500Y-97311153D01*
X112500000Y-97311153D01*
X112500000Y-95921153D01*
X133199500Y-95921153D01*
X133199500Y-96078846D01*
X133230261Y-96233489D01*
X133230264Y-96233501D01*
X133290602Y-96379172D01*
X133290609Y-96379185D01*
X133378210Y-96510288D01*
X133378213Y-96510292D01*
X133489707Y-96621786D01*
X133489711Y-96621789D01*
X133620814Y-96709390D01*
X133620827Y-96709397D01*
X133758683Y-96766498D01*
X133766503Y-96769737D01*
X133921153Y-96800499D01*
X133921156Y-96800500D01*
X133921158Y-96800500D01*
X134078844Y-96800500D01*
X134078845Y-96800499D01*
X134233497Y-96769737D01*
X134379179Y-96709394D01*
X134510289Y-96621789D01*
X134621789Y-96510289D01*
X134709394Y-96379179D01*
X134769737Y-96233497D01*
X134800500Y-96078842D01*
X134800500Y-95924500D01*
X134820185Y-95857461D01*
X134872989Y-95811706D01*
X134924500Y-95800500D01*
X135028844Y-95800500D01*
X135028845Y-95800499D01*
X135183497Y-95769737D01*
X135329179Y-95709394D01*
X135460289Y-95621789D01*
X135571789Y-95510289D01*
X135659394Y-95379179D01*
X135719737Y-95233497D01*
X135750500Y-95078842D01*
X135750500Y-94921158D01*
X135750500Y-94921155D01*
X135750499Y-94921153D01*
X135719738Y-94766510D01*
X135719737Y-94766503D01*
X135706533Y-94734625D01*
X135659397Y-94620827D01*
X135659390Y-94620814D01*
X135571789Y-94489711D01*
X135571786Y-94489707D01*
X135460292Y-94378213D01*
X135460288Y-94378210D01*
X135329185Y-94290609D01*
X135329172Y-94290602D01*
X135183501Y-94230264D01*
X135183489Y-94230261D01*
X135028845Y-94199500D01*
X135028842Y-94199500D01*
X134871158Y-94199500D01*
X134871155Y-94199500D01*
X134716510Y-94230261D01*
X134716498Y-94230264D01*
X134570827Y-94290602D01*
X134570814Y-94290609D01*
X134439711Y-94378210D01*
X134439707Y-94378213D01*
X134328213Y-94489707D01*
X134328210Y-94489711D01*
X134240609Y-94620814D01*
X134240602Y-94620827D01*
X134180264Y-94766498D01*
X134180261Y-94766510D01*
X134149500Y-94921153D01*
X134149500Y-95075500D01*
X134129815Y-95142539D01*
X134077011Y-95188294D01*
X134025500Y-95199500D01*
X133921155Y-95199500D01*
X133766510Y-95230261D01*
X133766498Y-95230264D01*
X133620827Y-95290602D01*
X133620814Y-95290609D01*
X133489711Y-95378210D01*
X133489707Y-95378213D01*
X133378213Y-95489707D01*
X133378210Y-95489711D01*
X133290609Y-95620814D01*
X133290602Y-95620827D01*
X133230264Y-95766498D01*
X133230261Y-95766510D01*
X133199500Y-95921153D01*
X112500000Y-95921153D01*
X112500000Y-84624000D01*
X112519685Y-84556961D01*
X112572489Y-84511206D01*
X112624000Y-84500000D01*
X115699017Y-84500000D01*
X115766056Y-84519685D01*
G37*
%TD.AperFunction*%
%TD*%
M02*
