%TF.GenerationSoftware,KiCad,Pcbnew,10.0.4*%
%TF.CreationDate,2026-07-24T12:18:49-04:00*%
%TF.ProjectId,NaviHiltCore,4e617669-4869-46c7-9443-6f72652e6b69,rev?*%
%TF.SameCoordinates,Original*%
%TF.FileFunction,Paste,Top*%
%TF.FilePolarity,Positive*%
%FSLAX46Y46*%
G04 Gerber Fmt 4.6, Leading zero omitted, Abs format (unit mm)*
G04 Created by KiCad (PCBNEW 10.0.4) date 2026-07-24 12:18:49*
%MOMM*%
%LPD*%
G01*
G04 APERTURE LIST*
G04 Aperture macros list*
%AMRoundRect*
0 Rectangle with rounded corners*
0 $1 Rounding radius*
0 $2 $3 $4 $5 $6 $7 $8 $9 X,Y pos of 4 corners*
0 Add a 4 corners polygon primitive as box body*
4,1,4,$2,$3,$4,$5,$6,$7,$8,$9,$2,$3,0*
0 Add four circle primitives for the rounded corners*
1,1,$1+$1,$2,$3*
1,1,$1+$1,$4,$5*
1,1,$1+$1,$6,$7*
1,1,$1+$1,$8,$9*
0 Add four rect primitives between the rounded corners*
20,1,$1+$1,$2,$3,$4,$5,0*
20,1,$1+$1,$4,$5,$6,$7,0*
20,1,$1+$1,$6,$7,$8,$9,0*
20,1,$1+$1,$8,$9,$2,$3,0*%
G04 Aperture macros list end*
%ADD10R,2.000000X0.800000*%
%ADD11RoundRect,0.250000X-0.250000X-0.475000X0.250000X-0.475000X0.250000X0.475000X-0.250000X0.475000X0*%
%ADD12RoundRect,0.250000X0.250000X0.475000X-0.250000X0.475000X-0.250000X-0.475000X0.250000X-0.475000X0*%
G04 APERTURE END LIST*
D10*
%TO.C,IC1*%
X165500000Y-88500000D03*
X165500000Y-89770000D03*
X165500000Y-91040000D03*
X165500000Y-96610000D03*
X165500000Y-97880000D03*
X165500000Y-99150000D03*
X165500000Y-100420000D03*
X165500000Y-101690000D03*
X165500000Y-102960000D03*
X165500000Y-104230000D03*
X165500000Y-105500000D03*
X179500000Y-105500000D03*
X179500000Y-104230000D03*
X179500000Y-102960000D03*
X179500000Y-101690000D03*
X179500000Y-100420000D03*
X179500000Y-99150000D03*
X179500000Y-97880000D03*
X179500000Y-96610000D03*
X179500000Y-91040000D03*
X179500000Y-89770000D03*
X179500000Y-88500000D03*
%TD*%
D11*
%TO.C,C4*%
X133150000Y-88500000D03*
X135050000Y-88500000D03*
%TD*%
D12*
%TO.C,C2*%
X162900000Y-103010000D03*
X161000000Y-103010000D03*
%TD*%
D10*
%TO.C,IC2*%
X130500000Y-105500000D03*
X130500000Y-104230000D03*
X130500000Y-102960000D03*
X130500000Y-97390000D03*
X130500000Y-96120000D03*
X130500000Y-94850000D03*
X130500000Y-93580000D03*
X130500000Y-92310000D03*
X130500000Y-91040000D03*
X130500000Y-89770000D03*
X130500000Y-88500000D03*
X116500000Y-88500000D03*
X116500000Y-89770000D03*
X116500000Y-91040000D03*
X116500000Y-92310000D03*
X116500000Y-93580000D03*
X116500000Y-94850000D03*
X116500000Y-96120000D03*
X116500000Y-97390000D03*
X116500000Y-102960000D03*
X116500000Y-104230000D03*
X116500000Y-105500000D03*
%TD*%
D11*
%TO.C,C6*%
X133050000Y-93500000D03*
X134950000Y-93500000D03*
%TD*%
D12*
%TO.C,C1*%
X162900000Y-106020000D03*
X161000000Y-106020000D03*
%TD*%
%TO.C,C3*%
X162900000Y-100000000D03*
X161000000Y-100000000D03*
%TD*%
D11*
%TO.C,C5*%
X133200000Y-91000000D03*
X135100000Y-91000000D03*
%TD*%
M02*
