%TF.GenerationSoftware,KiCad,Pcbnew,10.0.4*%
%TF.CreationDate,2026-07-24T12:18:49-04:00*%
%TF.ProjectId,NaviHiltCore,4e617669-4869-46c7-9443-6f72652e6b69,rev?*%
%TF.SameCoordinates,Original*%
%TF.FileFunction,Soldermask,Top*%
%TF.FilePolarity,Negative*%
%FSLAX46Y46*%
G04 Gerber Fmt 4.6, Leading zero omitted, Abs format (unit mm)*
G04 Created by KiCad (PCBNEW 10.0.4) date 2026-07-24 12:18:49*
%MOMM*%
%LPD*%
G01*
G04 APERTURE LIST*
G04 Aperture macros list*
%AMRoundRect*
0 Rectangle with rounded corners*
0 $1 Rounding radius*
0 $2 $3 $4 $5 $6 $7 $8 $9 X,Y pos of 4 corners*
0 Add a 4 corners polygon primitive as box body*
4,1,4,$2,$3,$4,$5,$6,$7,$8,$9,$2,$3,0*
0 Add four circle primitives for the rounded corners*
1,1,$1+$1,$2,$3*
1,1,$1+$1,$4,$5*
1,1,$1+$1,$6,$7*
1,1,$1+$1,$8,$9*
0 Add four rect primitives between the rounded corners*
20,1,$1+$1,$2,$3,$4,$5,0*
20,1,$1+$1,$4,$5,$6,$7,0*
20,1,$1+$1,$6,$7,$8,$9,0*
20,1,$1+$1,$8,$9,$2,$3,0*%
G04 Aperture macros list end*
%ADD10C,1.734000*%
%ADD11RoundRect,0.102000X0.765000X-0.765000X0.765000X0.765000X-0.765000X0.765000X-0.765000X-0.765000X0*%
%ADD12RoundRect,0.102000X1.000000X0.400000X-1.000000X0.400000X-1.000000X-0.400000X1.000000X-0.400000X0*%
%ADD13RoundRect,0.250000X-0.250000X-0.475000X0.250000X-0.475000X0.250000X0.475000X-0.250000X0.475000X0*%
%ADD14R,1.700000X1.700000*%
%ADD15C,1.700000*%
%ADD16C,3.200000*%
%ADD17RoundRect,0.250000X0.250000X0.475000X-0.250000X0.475000X-0.250000X-0.475000X0.250000X-0.475000X0*%
%ADD18RoundRect,0.102000X-1.000000X-0.400000X1.000000X-0.400000X1.000000X0.400000X-1.000000X0.400000X0*%
%ADD19C,2.050000*%
%ADD20C,2.250000*%
%ADD21RoundRect,0.250001X-0.949999X-0.949999X0.949999X-0.949999X0.949999X0.949999X-0.949999X0.949999X0*%
%ADD22C,2.400000*%
%ADD23C,1.524000*%
%ADD24C,3.100000*%
G04 APERTURE END LIST*
D10*
%TO.C,U1*%
X174330000Y-57084500D03*
X174330000Y-59624500D03*
X171790000Y-57084500D03*
X171790000Y-59624500D03*
X169250000Y-57084500D03*
X169250000Y-59624500D03*
X166710000Y-57084500D03*
X166710000Y-59624500D03*
X164170000Y-57084500D03*
X164170000Y-59624500D03*
X161630000Y-57084500D03*
X161630000Y-59624500D03*
X159090000Y-57084500D03*
X159090000Y-59624500D03*
X156550000Y-57084500D03*
X156550000Y-59624500D03*
X154010000Y-57084500D03*
X154010000Y-59624500D03*
X151470000Y-57084500D03*
X151470000Y-59624500D03*
X148930000Y-57084500D03*
X148930000Y-59624500D03*
X146390000Y-57084500D03*
X146390000Y-59624500D03*
X143850000Y-57084500D03*
X143850000Y-59624500D03*
X141310000Y-57084500D03*
X141310000Y-59624500D03*
X138770000Y-57084500D03*
X138770000Y-59624500D03*
X136230000Y-57084500D03*
X136230000Y-59624500D03*
X133690000Y-57084500D03*
X133690000Y-59624500D03*
X131150000Y-57084500D03*
X131150000Y-59624500D03*
X128610000Y-57084500D03*
X128610000Y-59624500D03*
X126070000Y-57084500D03*
X126070000Y-59624500D03*
X123500000Y-57084500D03*
X123530000Y-59624500D03*
X120990000Y-57084500D03*
X120990000Y-59624500D03*
X174330000Y-82484500D03*
X171790000Y-82484500D03*
X169250000Y-82484500D03*
X166710000Y-82484500D03*
X164170000Y-82484500D03*
X161630000Y-82484500D03*
X159090000Y-82484500D03*
X156550000Y-82484500D03*
X154010000Y-82484500D03*
X151470000Y-82484500D03*
X148930000Y-82484500D03*
X146390000Y-82484500D03*
X143850000Y-82484500D03*
X141310000Y-82484500D03*
X138770000Y-82484500D03*
X136230000Y-82484500D03*
X133690000Y-82484500D03*
X131150000Y-82484500D03*
X128610000Y-82484500D03*
X126070000Y-82484500D03*
X123530000Y-82484500D03*
D11*
X120990000Y-82484500D03*
%TD*%
D12*
%TO.C,IC1*%
X165500000Y-88500000D03*
X165500000Y-89770000D03*
X165500000Y-91040000D03*
X165500000Y-96610000D03*
X165500000Y-97880000D03*
X165500000Y-99150000D03*
X165500000Y-100420000D03*
X165500000Y-101690000D03*
X165500000Y-102960000D03*
X165500000Y-104230000D03*
X165500000Y-105500000D03*
X179500000Y-105500000D03*
X179500000Y-104230000D03*
X179500000Y-102960000D03*
X179500000Y-101690000D03*
X179500000Y-100420000D03*
X179500000Y-99150000D03*
X179500000Y-97880000D03*
X179500000Y-96610000D03*
X179500000Y-91040000D03*
X179500000Y-89770000D03*
X179500000Y-88500000D03*
%TD*%
D13*
%TO.C,C4*%
X133150000Y-88500000D03*
X135050000Y-88500000D03*
%TD*%
D14*
%TO.C,J4*%
X136000000Y-112960000D03*
D15*
X136000000Y-115500000D03*
X136000000Y-118040000D03*
%TD*%
D16*
%TO.C,H3*%
X186500000Y-55500000D03*
%TD*%
D17*
%TO.C,C2*%
X162900000Y-103010000D03*
X161000000Y-103010000D03*
%TD*%
D18*
%TO.C,IC2*%
X130500000Y-105500000D03*
X130500000Y-104230000D03*
X130500000Y-102960000D03*
X130500000Y-97390000D03*
X130500000Y-96120000D03*
X130500000Y-94850000D03*
X130500000Y-93580000D03*
X130500000Y-92310000D03*
X130500000Y-91040000D03*
X130500000Y-89770000D03*
X130500000Y-88500000D03*
X116500000Y-88500000D03*
X116500000Y-89770000D03*
X116500000Y-91040000D03*
X116500000Y-92310000D03*
X116500000Y-93580000D03*
X116500000Y-94850000D03*
X116500000Y-96120000D03*
X116500000Y-97390000D03*
X116500000Y-102960000D03*
X116500000Y-104230000D03*
X116500000Y-105500000D03*
%TD*%
D14*
%TO.C,J2*%
X125500000Y-113000000D03*
D15*
X125500000Y-115540000D03*
X125500000Y-118080000D03*
%TD*%
D13*
%TO.C,C6*%
X133050000Y-93500000D03*
X134950000Y-93500000D03*
%TD*%
D17*
%TO.C,C1*%
X162900000Y-106020000D03*
X161000000Y-106020000D03*
%TD*%
D14*
%TO.C,J3*%
X130500000Y-113000000D03*
D15*
X130500000Y-115540000D03*
X130500000Y-118080000D03*
%TD*%
D14*
%TO.C,J7*%
X170000000Y-112500000D03*
D15*
X170000000Y-115040000D03*
X170000000Y-117580000D03*
X170000000Y-120120000D03*
%TD*%
D19*
%TO.C,J12*%
X185040000Y-89580000D03*
D20*
X187580000Y-92120000D03*
X187580000Y-87040000D03*
X182500000Y-92120000D03*
X182500000Y-87040000D03*
%TD*%
D21*
%TO.C,J10*%
X147160000Y-116142500D03*
D22*
X152240000Y-116142500D03*
%TD*%
D17*
%TO.C,C3*%
X162900000Y-100000000D03*
X161000000Y-100000000D03*
%TD*%
D14*
%TO.C,J6*%
X165045714Y-112500000D03*
D15*
X165045714Y-115040000D03*
X165045714Y-117580000D03*
X165045714Y-120120000D03*
%TD*%
D14*
%TO.C,J11*%
X120500000Y-112920000D03*
D15*
X120500000Y-115460000D03*
X120500000Y-118000000D03*
%TD*%
D23*
%TO.C,U2*%
X144768800Y-105558800D03*
X147308800Y-105558800D03*
X149848800Y-105558800D03*
X152388800Y-105558800D03*
X154928800Y-105558800D03*
D24*
X141238800Y-104728800D03*
X155000000Y-88500000D03*
%TD*%
D19*
%TO.C,J13*%
X110500000Y-104460000D03*
D20*
X107960000Y-101920000D03*
X107960000Y-107000000D03*
X113040000Y-101920000D03*
X113040000Y-107000000D03*
%TD*%
D16*
%TO.C,H4*%
X186500000Y-130500000D03*
%TD*%
%TO.C,H1*%
X109500000Y-55500000D03*
%TD*%
D14*
%TO.C,J1*%
X115500000Y-112920000D03*
D15*
X115500000Y-115460000D03*
X115500000Y-118000000D03*
%TD*%
D16*
%TO.C,H2*%
X109500000Y-130000000D03*
%TD*%
D13*
%TO.C,C5*%
X133200000Y-91000000D03*
X135100000Y-91000000D03*
%TD*%
D14*
%TO.C,J8*%
X174954285Y-112500000D03*
D15*
X174954285Y-115040000D03*
X174954285Y-117580000D03*
X174954285Y-120120000D03*
%TD*%
M02*
