%TF.GenerationSoftware,KiCad,Pcbnew,(6.0.0-0)*%
%TF.CreationDate,2022-09-01T13:13:12-04:00*%
%TF.ProjectId,Dome_Controller,446f6d65-5f43-46f6-9e74-726f6c6c6572,rev?*%
%TF.SameCoordinates,Original*%
%TF.FileFunction,Paste,Top*%
%TF.FilePolarity,Positive*%
%FSLAX46Y46*%
G04 Gerber Fmt 4.6, Leading zero omitted, Abs format (unit mm)*
G04 Created by KiCad (PCBNEW (6.0.0-0)) date 2022-09-01 13:13:12*
%MOMM*%
%LPD*%
G01*
G04 APERTURE LIST*
G04 Aperture macros list*
%AMRoundRect*
0 Rectangle with rounded corners*
0 $1 Rounding radius*
0 $2 $3 $4 $5 $6 $7 $8 $9 X,Y pos of 4 corners*
0 Add a 4 corners polygon primitive as box body*
4,1,4,$2,$3,$4,$5,$6,$7,$8,$9,$2,$3,0*
0 Add four circle primitives for the rounded corners*
1,1,$1+$1,$2,$3*
1,1,$1+$1,$4,$5*
1,1,$1+$1,$6,$7*
1,1,$1+$1,$8,$9*
0 Add four rect primitives between the rounded corners*
20,1,$1+$1,$2,$3,$4,$5,0*
20,1,$1+$1,$4,$5,$6,$7,0*
20,1,$1+$1,$6,$7,$8,$9,0*
20,1,$1+$1,$8,$9,$2,$3,0*%
G04 Aperture macros list end*
%ADD10C,0.010000*%
%ADD11RoundRect,0.140000X-0.170000X0.140000X-0.170000X-0.140000X0.170000X-0.140000X0.170000X0.140000X0*%
%ADD12RoundRect,0.200000X-0.200000X-0.275000X0.200000X-0.275000X0.200000X0.275000X-0.200000X0.275000X0*%
%ADD13O,0.890000X1.550000*%
%ADD14O,1.250000X0.950000*%
%ADD15R,0.400000X1.350000*%
%ADD16R,1.500000X1.550000*%
%ADD17R,1.200000X1.550000*%
%ADD18R,2.000000X0.900000*%
%ADD19R,0.900000X2.000000*%
%ADD20R,5.000000X5.000000*%
%ADD21RoundRect,0.140000X0.140000X0.170000X-0.140000X0.170000X-0.140000X-0.170000X0.140000X-0.170000X0*%
%ADD22RoundRect,0.083990X-1.126010X-0.556010X1.126010X-0.556010X1.126010X0.556010X-1.126010X0.556010X0*%
%ADD23R,0.914400X1.219200*%
%ADD24RoundRect,0.150000X-0.150000X0.587500X-0.150000X-0.587500X0.150000X-0.587500X0.150000X0.587500X0*%
%ADD25R,0.800000X0.500000*%
%ADD26R,0.500000X1.000000*%
%ADD27R,0.800000X0.300000*%
%ADD28R,0.500000X1.480000*%
%ADD29RoundRect,0.135000X-0.135000X-0.185000X0.135000X-0.185000X0.135000X0.185000X-0.135000X0.185000X0*%
%ADD30RoundRect,0.140000X-0.140000X-0.170000X0.140000X-0.170000X0.140000X0.170000X-0.140000X0.170000X0*%
%ADD31RoundRect,0.049600X-0.605400X-0.260400X0.605400X-0.260400X0.605400X0.260400X-0.605400X0.260400X0*%
%ADD32RoundRect,0.150000X-0.512500X-0.150000X0.512500X-0.150000X0.512500X0.150000X-0.512500X0.150000X0*%
%ADD33RoundRect,0.200000X0.200000X0.275000X-0.200000X0.275000X-0.200000X-0.275000X0.200000X-0.275000X0*%
G04 APERTURE END LIST*
D10*
%TO.C,U5*%
X139855000Y-83170800D02*
X140305000Y-83170800D01*
X140305000Y-83170800D02*
X140305000Y-83420800D01*
X140305000Y-83420800D02*
X139855000Y-83420800D01*
X139855000Y-83420800D02*
X139855000Y-83170800D01*
G36*
X140305000Y-83420800D02*
G01*
X139855000Y-83420800D01*
X139855000Y-83170800D01*
X140305000Y-83170800D01*
X140305000Y-83420800D01*
G37*
X140305000Y-83420800D02*
X139855000Y-83420800D01*
X139855000Y-83170800D01*
X140305000Y-83170800D01*
X140305000Y-83420800D01*
X139855000Y-83820800D02*
X140305000Y-83820800D01*
X140305000Y-83820800D02*
X140305000Y-84070800D01*
X140305000Y-84070800D02*
X139855000Y-84070800D01*
X139855000Y-84070800D02*
X139855000Y-83820800D01*
G36*
X140305000Y-84070800D02*
G01*
X139855000Y-84070800D01*
X139855000Y-83820800D01*
X140305000Y-83820800D01*
X140305000Y-84070800D01*
G37*
X140305000Y-84070800D02*
X139855000Y-84070800D01*
X139855000Y-83820800D01*
X140305000Y-83820800D01*
X140305000Y-84070800D01*
X138005000Y-84470800D02*
X138455000Y-84470800D01*
X138455000Y-84470800D02*
X138455000Y-84720800D01*
X138455000Y-84720800D02*
X138005000Y-84720800D01*
X138005000Y-84720800D02*
X138005000Y-84470800D01*
G36*
X138455000Y-84720800D02*
G01*
X138005000Y-84720800D01*
X138005000Y-84470800D01*
X138455000Y-84470800D01*
X138455000Y-84720800D01*
G37*
X138455000Y-84720800D02*
X138005000Y-84720800D01*
X138005000Y-84470800D01*
X138455000Y-84470800D01*
X138455000Y-84720800D01*
X138005000Y-83820800D02*
X138455000Y-83820800D01*
X138455000Y-83820800D02*
X138455000Y-84070800D01*
X138455000Y-84070800D02*
X138005000Y-84070800D01*
X138005000Y-84070800D02*
X138005000Y-83820800D01*
G36*
X138455000Y-84070800D02*
G01*
X138005000Y-84070800D01*
X138005000Y-83820800D01*
X138455000Y-83820800D01*
X138455000Y-84070800D01*
G37*
X138455000Y-84070800D02*
X138005000Y-84070800D01*
X138005000Y-83820800D01*
X138455000Y-83820800D01*
X138455000Y-84070800D01*
X139855000Y-84470800D02*
X140305000Y-84470800D01*
X140305000Y-84470800D02*
X140305000Y-84720800D01*
X140305000Y-84720800D02*
X139855000Y-84720800D01*
X139855000Y-84720800D02*
X139855000Y-84470800D01*
G36*
X140305000Y-84720800D02*
G01*
X139855000Y-84720800D01*
X139855000Y-84470800D01*
X140305000Y-84470800D01*
X140305000Y-84720800D01*
G37*
X140305000Y-84720800D02*
X139855000Y-84720800D01*
X139855000Y-84470800D01*
X140305000Y-84470800D01*
X140305000Y-84720800D01*
X138005000Y-83170800D02*
X138455000Y-83170800D01*
X138455000Y-83170800D02*
X138455000Y-83420800D01*
X138455000Y-83420800D02*
X138005000Y-83420800D01*
X138005000Y-83420800D02*
X138005000Y-83170800D01*
G36*
X138455000Y-83420800D02*
G01*
X138005000Y-83420800D01*
X138005000Y-83170800D01*
X138455000Y-83170800D01*
X138455000Y-83420800D01*
G37*
X138455000Y-83420800D02*
X138005000Y-83420800D01*
X138005000Y-83170800D01*
X138455000Y-83170800D01*
X138455000Y-83420800D01*
%TD*%
D11*
%TO.C,C4*%
X138220000Y-80620000D03*
X138220000Y-81580000D03*
%TD*%
D12*
%TO.C,R2*%
X104165000Y-75030000D03*
X105815000Y-75030000D03*
%TD*%
%TO.C,R3*%
X100755000Y-81700000D03*
X102405000Y-81700000D03*
%TD*%
D13*
%TO.C,J1*%
X118400000Y-108450000D03*
D14*
X112400000Y-105750000D03*
D13*
X111400000Y-108450000D03*
D14*
X117400000Y-105750000D03*
D15*
X113600000Y-105750000D03*
X114250000Y-105750000D03*
X114900000Y-105750000D03*
X115550000Y-105750000D03*
X116200000Y-105750000D03*
D16*
X115900000Y-108450000D03*
D17*
X112000000Y-108450000D03*
X117800000Y-108450000D03*
D16*
X113900000Y-108450000D03*
%TD*%
D18*
%TO.C,U1*%
X108980000Y-70245000D03*
X108980000Y-71515000D03*
X108980000Y-72785000D03*
X108980000Y-74055000D03*
X108980000Y-75325000D03*
X108980000Y-76595000D03*
X108980000Y-77865000D03*
X108980000Y-79135000D03*
X108980000Y-80405000D03*
X108980000Y-81675000D03*
X108980000Y-82945000D03*
X108980000Y-84215000D03*
X108980000Y-85485000D03*
X108980000Y-86755000D03*
D19*
X111765000Y-87755000D03*
X113035000Y-87755000D03*
X114305000Y-87755000D03*
X115575000Y-87755000D03*
X116845000Y-87755000D03*
X118115000Y-87755000D03*
X119385000Y-87755000D03*
X120655000Y-87755000D03*
X121925000Y-87755000D03*
X123195000Y-87755000D03*
D18*
X125980000Y-86755000D03*
X125980000Y-85485000D03*
X125980000Y-84215000D03*
X125980000Y-82945000D03*
X125980000Y-81675000D03*
X125980000Y-80405000D03*
X125980000Y-79135000D03*
X125980000Y-77865000D03*
X125980000Y-76595000D03*
X125980000Y-75325000D03*
X125980000Y-74055000D03*
X125980000Y-72785000D03*
X125980000Y-71515000D03*
X125980000Y-70245000D03*
D20*
X116480000Y-77745000D03*
%TD*%
D21*
%TO.C,C3*%
X106350000Y-71550000D03*
X105390000Y-71550000D03*
%TD*%
%TO.C,C5*%
X103440000Y-80110000D03*
X102480000Y-80110000D03*
%TD*%
%TO.C,C2*%
X106390000Y-70320000D03*
X105430000Y-70320000D03*
%TD*%
D22*
%TO.C,SW1*%
X118375000Y-101600000D03*
X111795000Y-101600000D03*
%TD*%
D11*
%TO.C,C7*%
X105870000Y-83990000D03*
X105870000Y-84950000D03*
%TD*%
D23*
%TO.C,CR1*%
X105476800Y-77738500D03*
X102200200Y-77738500D03*
%TD*%
D24*
%TO.C,U2*%
X103130000Y-71142500D03*
X101230000Y-71142500D03*
X102180000Y-73017500D03*
%TD*%
D11*
%TO.C,C6*%
X128680000Y-84190000D03*
X128680000Y-85150000D03*
%TD*%
D25*
%TO.C,D1*%
X122650000Y-107670000D03*
D26*
X121800000Y-107600000D03*
D27*
X122650000Y-106770000D03*
D25*
X122650000Y-105870000D03*
X120950000Y-105870000D03*
D27*
X120950000Y-106770000D03*
D28*
X121800000Y-106180000D03*
D25*
X120950000Y-107670000D03*
%TD*%
D29*
%TO.C,R4*%
X120550000Y-102200000D03*
X121570000Y-102200000D03*
%TD*%
D30*
%TO.C,C1*%
X111350000Y-97870000D03*
X112310000Y-97870000D03*
%TD*%
D31*
%TO.C,U4*%
X130845000Y-80395000D03*
X130845000Y-81665000D03*
X130845000Y-82935000D03*
X130845000Y-84205000D03*
X130845000Y-85475000D03*
X130845000Y-86745000D03*
X130845000Y-88015000D03*
X130845000Y-89285000D03*
X136345000Y-89285000D03*
X136345000Y-88015000D03*
X136345000Y-86745000D03*
X136345000Y-85475000D03*
X136345000Y-84205000D03*
X136345000Y-82935000D03*
X136345000Y-81665000D03*
X136345000Y-80395000D03*
%TD*%
D32*
%TO.C,U3*%
X102032500Y-83920000D03*
X102032500Y-84870000D03*
X102032500Y-85820000D03*
X104307500Y-85820000D03*
X104307500Y-83920000D03*
%TD*%
D33*
%TO.C,R1*%
X112855000Y-96010000D03*
X111205000Y-96010000D03*
%TD*%
M02*
