<?xml version="1.0" standalone="no"?>
 <!DOCTYPE svg PUBLIC "-//W3C//DTD SVG 1.1//EN" 
 "http://www.w3.org/Graphics/SVG/1.1/DTD/svg11.dtd"> 
<svg
  xmlns:svg="http://www.w3.org/2000/svg"
  xmlns="http://www.w3.org/2000/svg"
  xmlns:xlink="http://www.w3.org/1999/xlink"
  version="1.1"
  width="6.731000cm" height="3.561080cm" viewBox="0 0 67310000 35610800">
<title>SVG Picture created as Kill_Switch_Remote-F_Silkscreen.svg date 2023/02/07 17:57:12 </title>
  <desc>Picture generated by PCBNEW </desc>
<g style="fill:#000000; fill-opacity:1.000000;stroke:#000000; stroke-opacity:1.000000;
stroke-linecap:round; stroke-linejoin:round;"
 transform="translate(0 0) scale(1 1)">
</g>
<g style="fill:#000000; fill-opacity:0.0; 
stroke:#000000; stroke-width:0.000000; stroke-opacity:1; 
stroke-linecap:round; stroke-linejoin:round;">
</g>
<g style="fill:#F2EDA1; fill-opacity:0.0; 
stroke:#F2EDA1; stroke-width:0.000000; stroke-opacity:1; 
stroke-linecap:round; stroke-linejoin:round;">
</g>
<g style="fill:#F2EDA1; fill-opacity:0.0; 
stroke:#F2EDA1; stroke-width:120000.000000; stroke-opacity:1; 
stroke-linecap:round; stroke-linejoin:round;">
<path d="M11985580 5845000
L11704420 5845000
" />
<path d="M11985580 6865000
L11704420 6865000
" />
</g>
<g style="fill:#F2EDA1; fill-opacity:0.0; 
stroke:#F2EDA1; stroke-width:127000.000000; stroke-opacity:1; 
stroke-linecap:round; stroke-linejoin:round;">
<path d="M20839000 27260000
L20839000 21360000
" />
<path d="M20839000 21360000
L28439000 21360000
" />
<path d="M28439000 21360000
L28439000 27260000
" />
<path d="M28439000 27260000
L20839000 27260000
" />
</g>
<g style="fill:#F2EDA1; fill-opacity:0.0; 
stroke:#F2EDA1; stroke-width:200000.000000; stroke-opacity:1; 
stroke-linecap:round; stroke-linejoin:round;">
<circle cx="20289000.000000" cy="25310000.000000" r="100000.000000" /> 
</g>
<g style="fill:#F2EDA1; fill-opacity:0.0; 
stroke:#F2EDA1; stroke-width:120000.000000; stroke-opacity:1; 
stroke-linecap:round; stroke-linejoin:round;">
<path d="M19082000 3487000
L19807000 3487000
" />
<path d="M19082000 8707000
L19807000 8707000
" />
<path d="M14587000 8707000
L14587000 7982000
" />
<path d="M15312000 8707000
L14587000 8707000
" />
<path d="M19807000 3487000
L19807000 4212000
" />
<path d="M15312000 3487000
L14587000 3487000
" />
<path d="M19807000 8707000
L19807000 7982000
" />
</g>
<g style="fill:#F2EDA1; fill-opacity:0.0; 
stroke:#F2EDA1; stroke-width:127000.000000; stroke-opacity:1; 
stroke-linecap:round; stroke-linejoin:round;">
<path d="M23224000 6319000
L23224000 919000
" />
<path d="M23224000 919000
L36424000 919000
" />
<path d="M36424000 919000
L36424000 6319000
" />
</g>
<g style="fill:#F2EDA1; fill-opacity:0.0; 
stroke:#F2EDA1; stroke-width:200000.000000; stroke-opacity:1; 
stroke-linecap:round; stroke-linejoin:round;">
<circle cx="22474000.000000" cy="7919000.000000" r="100000.000000" /> 
</g>
<g style="fill:#F2EDA1; fill-opacity:0.0; 
stroke:#F2EDA1; stroke-width:120000.000000; stroke-opacity:1; 
stroke-linecap:round; stroke-linejoin:round;">
<path d="M44736641 15175000
L44429359 15175000
" />
<path d="M44736641 15935000
L44429359 15935000
" />
<path d="M58608420 6457000
L58889580 6457000
" />
<path d="M58608420 5437000
L58889580 5437000
" />
<path d="M49294641 21925000
L48987359 21925000
" />
<path d="M49294641 21165000
L48987359 21165000
" />
<path d="M46313000 8474420
L46313000 8755580
" />
<path d="M45293000 8474420
L45293000 8755580
" />
<path d="M16611580 16791000
L16330420 16791000
" />
<path d="M16611580 15771000
L16330420 15771000
" />
<path d="M20650000 7932252
L20650000 7409748
" />
<path d="M22120000 7932252
L22120000 7409748
" />
<path d="M6705000 14055000
L6705000 13635000
" />
<path d="M4725000 14055000
L6705000 14055000
" />
<path d="M7385000 8985000
L7385000 8535000
" />
<path d="M6705000 6535000
L6705000 6955000
" />
<path d="M6935000 8535000
L7385000 8535000
" />
<path d="M2355000 6535000
L2755000 6535000
" />
<path d="M4725000 6535000
L6705000 6535000
" />
<path d="M2755000 14055000
L2355000 14055000
" />
<path d="M16881000 10711359
L16881000 11018641
" />
<path d="M17641000 10711359
L17641000 11018641
" />
<path d="M45859000 12881000
L47859000 12881000
" />
<path d="M46859000 10661000
L47859000 10661000
" />
<path d="M15835000 10711359
L15835000 11018641
" />
<path d="M16595000 10711359
L16595000 11018641
" />
<path d="M39443000 23741000
L39443000 23016000
" />
<path d="M42938000 19521000
L43663000 19521000
" />
<path d="M40168000 19521000
L39443000 19521000
" />
<path d="M43663000 23741000
L43663000 23016000
" />
<path d="M42938000 23741000
L43663000 23741000
" />
<path d="M43663000 19521000
L43663000 20246000
" />
<path d="M40168000 23741000
L39443000 23741000
" />
<path d="M45017359 17299000
L45324641 17299000
" />
<path d="M45017359 16539000
L45324641 16539000
" />
<path d="M47517359 19927000
L47824641 19927000
" />
<path d="M47517359 19167000
L47824641 19167000
" />
<path d="M13182561 10851000
L12875279 10851000
" />
<path d="M13182561 10091000
L12875279 10091000
" />
<path d="M45918420 17727000
L46199580 17727000
" />
<path d="M45918420 18747000
L46199580 18747000
" />
<path d="M50788641 6753000
L50481359 6753000
" />
<path d="M50788641 5993000
L50481359 5993000
" />
<path d="M14593000 11022641
L14593000 10715359
" />
<path d="M15353000 11022641
L15353000 10715359
" />
</g>
<g style="fill:#F2EDA1; fill-opacity:0.0; 
stroke:#F2EDA1; stroke-width:152400.000000; stroke-opacity:1; 
stroke-linecap:round; stroke-linejoin:round;">
<path d="M41247800 1854400
L40638200 1854400
" />
<path d="M40638200 1854400
L40511200 1854400
" />
<path d="M41374800 1854400
L41247800 1854400
" />
<path d="M40638200.000000 1854400.000000 A304800.000000 304800.000000 0.0 0 0 41247800.000000 1854400.000000" />
</g>
<g style="fill:#F2EDA1; fill-opacity:0.0; 
stroke:#F2EDA1; stroke-width:127000.000000; stroke-opacity:1; 
stroke-linecap:round; stroke-linejoin:round;">
<path d="M42793000 10389000
L42793000 10179000
" />
<path d="M38463000 10179000
L38463000 10389000
" />
<path d="M42793000 10179000
L38463000 10179000
" />
<path d="M38463000 12739000
L38463000 12529000
" />
<path d="M38463000 12739000
L42793000 12739000
" />
<path d="M42793000 12739000
L42793000 12529000
" />
</g>
<g style="fill:#F2EDA1; fill-opacity:0.0; 
stroke:#F2EDA1; stroke-width:200000.000000; stroke-opacity:1; 
stroke-linecap:round; stroke-linejoin:round;">
<circle cx="36728000.000000" cy="11559000.000000" r="100000.000000" /> 
</g>
<g style="fill:#F2EDA1; fill-opacity:0.0; 
stroke:#F2EDA1; stroke-width:127000.000000; stroke-opacity:1; 
stroke-linecap:round; stroke-linejoin:round;">
<path d="M11993500 4069500
L9293500 4069500
" />
<path d="M9293500 2469500
L11993500 2469500
" />
</g>
<g style="fill:#F2EDA1; fill-opacity:0.0; 
stroke:#F2EDA1; stroke-width:10000.000000; stroke-opacity:1; 
stroke-linecap:round; stroke-linejoin:round;">
<path d="M11544944 4069500
L10943500 4069500
" />
<path d="M10943500 4069500
L10943500 2468216
" />
<path d="M10943500 2468216
L11544944 2468216
" />
<path d="M11544944 2468216
L11544944 4069500
" />
</g>
<g style="fill:#F2EDA1; fill-opacity:1.0; 
stroke:#F2EDA1; stroke-width:10000.000000; stroke-opacity:1; 
stroke-linecap:round; stroke-linejoin:round;">
<path style="fill:#F2EDA1; fill-opacity:1.0; 
stroke:#F2EDA1; stroke-width:10000.000000; stroke-opacity:1; 
stroke-linecap:round; stroke-linejoin:round;fill-rule:evenodd;"
d="M 11544944.000000,4069500.000000
10943500.000000,4069500.000000
10943500.000000,2468216.000000
11544944.000000,2468216.000000
Z" /> 
</g>
<g style="fill:#F2EDA1; fill-opacity:1.0; 
stroke:#F2EDA1; stroke-width:120000.000000; stroke-opacity:1; 
stroke-linecap:round; stroke-linejoin:round;">
</g>
<g style="fill:#F2EDA1; fill-opacity:0.0; 
stroke:#F2EDA1; stroke-width:120000.000000; stroke-opacity:1; 
stroke-linecap:round; stroke-linejoin:round;">
<path d="M19405359 1845000
L19712641 1845000
" />
<path d="M19405359 1085000
L19712641 1085000
" />
</g>
<g style="fill:#F2EDA1; fill-opacity:0.0; 
stroke:#F2EDA1; stroke-width:127000.000000; stroke-opacity:1; 
stroke-linecap:round; stroke-linejoin:round;">
<path d="M66532000 25023000
L66532000 9023000
" />
<path d="M50532000 25023000
L50532000 9023000
" />
</g>
<g style="fill:#F2EDA1; fill-opacity:0.0; 
stroke:#F2EDA1; stroke-width:200000.000000; stroke-opacity:1; 
stroke-linecap:round; stroke-linejoin:round;">
<circle cx="51482000.000000" cy="27173000.000000" r="100000.000000" /> 
</g>
<g style="fill:#F2EDA1; fill-opacity:0.0; 
stroke:#F2EDA1; stroke-width:120000.000000; stroke-opacity:1; 
stroke-linecap:round; stroke-linejoin:round;">
<path d="M37065580 21907000
L36784420 21907000
" />
<path d="M37065580 22927000
L36784420 22927000
" />
<path d="M22155000 11026420
L22155000 11307580
" />
<path d="M21135000 11026420
L21135000 11307580
" />
</g>
<g style="fill:#F2EDA1; fill-opacity:0.0; 
stroke:#F2EDA1; stroke-width:200000.000000; stroke-opacity:1; 
stroke-linecap:round; stroke-linejoin:round;">
<path d="M20553000 16213000
L20203000 16213000
" />
<path d="M20203000 14113000
L20553000 14113000
" />
<path d="M20203000 16213000
L20203000 14113000
" />
<path d="M20553000 14113000
L20553000 16213000
" />
<path d="M21953000 16388000
L20903000 16388000
" />
</g>
<g style="fill:#F2EDA1; fill-opacity:0.0; 
stroke:#F2EDA1; stroke-width:120000.000000; stroke-opacity:1; 
stroke-linecap:round; stroke-linejoin:round;">
<path d="M40696252 14264000
L40173748 14264000
" />
<path d="M40696252 15734000
L40173748 15734000
" />
<path d="M48971000 8873580
L48971000 8592420
" />
<path d="M47951000 8873580
L47951000 8592420
" />
<path d="M45299359 21781000
L45606641 21781000
" />
<path d="M45299359 22541000
L45606641 22541000
" />
<path d="M8699000 15711000
L11099000 15711000
" />
<path d="M11099000 12611000
L8149000 12611000
" />
<path d="M13690561 16955000
L13383279 16955000
" />
<path d="M13690561 16195000
L13383279 16195000
" />
<path d="M38012641 9239000
L37705359 9239000
" />
<path d="M38012641 8479000
L37705359 8479000
" />
</g>
<g style="fill:#F2EDA1; fill-opacity:0.0; 
stroke:#F2EDA1; stroke-width:127000.000000; stroke-opacity:1; 
stroke-linecap:round; stroke-linejoin:round;">
<path d="M2547920 27149000
L12547920 27149000
" />
<path d="M12547920 27149000
L12547920 17149000
" />
<path d="M12547920 17149000
L2547920 17149000
" />
<path d="M2547920 17149000
L2547920 27149000
" />
</g>
<g style="fill:#F2EDA1; fill-opacity:0.0; 
stroke:#F2EDA1; stroke-width:120000.000000; stroke-opacity:1; 
stroke-linecap:round; stroke-linejoin:round;">
<path d="M40968420 7165000
L41249580 7165000
" />
<path d="M40968420 8185000
L41249580 8185000
" />
<path d="M16993359 12783000
L17300641 12783000
" />
<path d="M16993359 13543000
L17300641 13543000
" />
<path d="M13944561 13681000
L13637279 13681000
" />
<path d="M13944561 14441000
L13637279 14441000
" />
</g>
<g style="fill:#F2EDA1; fill-opacity:0.0; 
stroke:#F2EDA1; stroke-width:127000.000000; stroke-opacity:1; 
stroke-linecap:round; stroke-linejoin:round;">
<path d="M13763618 21303000
L13663618 21303000
" />
<path d="M13763618 23503000
L13663618 23503000
" />
<path d="M18863618 21303000
L18763618 21303000
" />
<path d="M18763618 23503000
L18863618 23503000
" />
<path d="M18863618 21303000
L18863618 23503000
" />
<path d="M13663618 21303000
L13663618 23503000
" />
</g>
<g style="fill:#F2EDA1; fill-opacity:1.0; 
stroke:#F2EDA1; stroke-width:1.000000; stroke-opacity:1; 
stroke-linecap:round; stroke-linejoin:round;">
<circle cx="13513618.000000" cy="18153000.000000" r="127000.000000" /> 
</g>
<g style="fill:#F2EDA1; fill-opacity:0.0; 
stroke:#F2EDA1; stroke-width:127000.000000; stroke-opacity:1; 
stroke-linecap:round; stroke-linejoin:round;">
<circle cx="16263618.000000" cy="22403000.000000" r="1000000.000000" /> 
</g>
<g style="fill:#F2EDA1; fill-opacity:0.0; 
stroke:#F2EDA1; stroke-width:120000.000000; stroke-opacity:1; 
stroke-linecap:round; stroke-linejoin:round;">
<path d="M17051359 1421000
L17358641 1421000
" />
<path d="M17051359 2181000
L17358641 2181000
" />
</g>
<g style="fill:#F2EDA1; fill-opacity:0.0; 
stroke:#F2EDA1; stroke-width:127000.000000; stroke-opacity:1; 
stroke-linecap:round; stroke-linejoin:round;">
<path d="M65565000 4413000
L64935000 4413000
" />
<path d="M62965000 4413000
L63595000 4413000
" />
<path d="M62965000 1813000
L65565000 1813000
" />
</g>
<g style="fill:#F2EDA1; fill-opacity:0.0; 
stroke:#F2EDA1; stroke-width:120000.000000; stroke-opacity:1; 
stroke-linecap:round; stroke-linejoin:round;">
<path d="M12073580 8465000
L11792420 8465000
" />
<path d="M12073580 7445000
L11792420 7445000
" />
</g>
<g style="fill:#F2EDA1; fill-opacity:1.0; 
stroke:#F2EDA1; stroke-width:1.000000; stroke-opacity:1; 
stroke-linecap:round; stroke-linejoin:round;">
<path style="fill:#F2EDA1; fill-opacity:1.0; 
stroke:#F2EDA1; stroke-width:1.000000; stroke-opacity:1; 
stroke-linecap:round; stroke-linejoin:round;fill-rule:evenodd;"
d="M 32724363.000000,22072021.000000
32955955.000000,22072183.000000
33157252.000000,22072507.000000
33330613.000000,22073040.000000
33478396.000000,22073827.000000
33602958.000000,22074914.000000
33706658.000000,22076345.000000
33791853.000000,22078168.000000
33860902.000000,22080426.000000
33916162.000000,22083165.000000
33959992.000000,22086432.000000
33994750.000000,22090271.000000
34022792.000000,22094727.000000
34046479.000000,22099848.000000
34057867.000000,22102790.000000
34248574.000000,22171441.000000
34418438.000000,22267855.000000
34566211.000000,22390781.000000
34690644.000000,22538966.000000
34790487.000000,22711159.000000
34864492.000000,22906109.000000
34866508.000000,22913015.000000
34880232.000000,22963379.000000
34890432.000000,23010498.000000
34897605.000000,23060751.000000
34902249.000000,23120522.000000
34904859.000000,23196193.000000
34905933.000000,23294145.000000
34905970.000000,23419876.000000
34904968.000000,23558358.000000
34902403.000000,23667696.000000
34897902.000000,23753737.000000
34891097.000000,23822324.000000
34881618.000000,23879306.000000
34875076.000000,23908037.000000
34813393.000000,24085469.000000
34722576.000000,24246784.000000
34605724.000000,24389529.000000
34465935.000000,24511251.000000
34306308.000000,24609497.000000
34129941.000000,24681815.000000
33939935.000000,24725753.000000
33827554.000000,24737112.000000
33754736.000000,24741612.000000
33697146.000000,24746100.000000
33662240.000000,24749939.000000
33655248.000000,24751781.000000
33665580.000000,24766224.000000
33695364.000000,24806082.000000
33742783.000000,24868962.000000
33806018.000000,24952468.000000
33883253.000000,25054207.000000
33972670.000000,25171785.000000
34072451.000000,25302809.000000
34180779.000000,25444883.000000
34295836.000000,25595615.000000
34307865.000000,25611365.000000
34425228.000000,25765026.000000
34537427.000000,25911947.000000
34642458.000000,26049500.000000
34738318.000000,26175061.000000
34823001.000000,26286004.000000
34894504.000000,26379702.000000
34950823.000000,26453530.000000
34989952.000000,26504862.000000
35009888.000000,26531073.000000
35010150.000000,26531419.000000
35059817.000000,26597064.000000
33818484.000000,26597064.000000
33113040.000000,25667933.000000
32407595.000000,24738801.000000
32090519.000000,24744535.000000
31961325.000000,24747723.000000
31862025.000000,24752923.000000
31787510.000000,24761499.000000
31732671.000000,24774815.000000
31692398.000000,24794237.000000
31661582.000000,24821127.000000
31635112.000000,24856852.000000
31628160.000000,24868004.000000
31602369.000000,24919084.000000
31582957.000000,24979675.000000
31569339.000000,25054632.000000
31560929.000000,25148816.000000
31557141.000000,25267083.000000
31557389.000000,25414292.000000
31557917.000000,25450475.000000
31563381.000000,25783073.000000
32310773.000000,25791826.000000
33058165.000000,25800578.000000
33356706.000000,26192157.000000
33433926.000000,26293669.000000
33503729.000000,26385867.000000
33563426.000000,26465166.000000
33610329.000000,26527977.000000
33641748.000000,26570714.000000
33654995.000000,26589791.000000
33655248.000000,26590400.000000
33638161.000000,26591392.000000
33588567.000000,26592340.000000
33508971.000000,26593232.000000
33401879.000000,26594058.000000
33269793.000000,26594806.000000
33115219.000000,26595467.000000
32940661.000000,26596028.000000
32748622.000000,26596479.000000
32541608.000000,26596809.000000
32322123.000000,26597007.000000
32122230.000000,26597064.000000
30589212.000000,26597064.000000
30596137.000000,25743687.000000
30597840.000000,25538904.000000
30599603.000000,25365625.000000
30601803.000000,25220343.000000
30604819.000000,25099552.000000
30609028.000000,24999747.000000
30614807.000000,24917421.000000
30622535.000000,24849068.000000
30632590.000000,24791183.000000
30645348.000000,24740260.000000
30661188.000000,24692793.000000
30680488.000000,24645276.000000
30703625.000000,24594203.000000
30724850.000000,24549067.000000
30821091.000000,24379672.000000
30937938.000000,24237454.000000
31077256.000000,24120848.000000
31240914.000000,24028292.000000
31430154.000000,23958404.000000
31454201.000000,23952460.000000
31484578.000000,23947286.000000
31523974.000000,23942797.000000
31575078.000000,23938908.000000
31640581.000000,23935533.000000
31723170.000000,23932587.000000
31825537.000000,23929984.000000
31950371.000000,23927640.000000
32100360.000000,23925468.000000
32278195.000000,23923383.000000
32486565.000000,23921299.000000
32643070.000000,23919875.000000
32868127.000000,23917859.000000
33060820.000000,23916023.000000
33223793.000000,23914263.000000
33359690.000000,23912473.000000
33471156.000000,23910549.000000
33560836.000000,23908387.000000
33631375.000000,23905883.000000
33685416.000000,23902931.000000
33725605.000000,23899428.000000
33754585.000000,23895269.000000
33775002.000000,23890350.000000
33789501.000000,23884565.000000
33800724.000000,23877811.000000
33806082.000000,23873928.000000
33846876.000000,23841916.000000
33877300.000000,23811568.000000
33898984.000000,23777158.000000
33913557.000000,23732960.000000
33922647.000000,23673246.000000
33927883.000000,23592291.000000
33930895.000000,23484368.000000
33931852.000000,23431771.000000
33933519.000000,23319690.000000
33933771.000000,23236479.000000
33932055.000000,23176005.000000
33927819.000000,23132137.000000
33920508.000000,23098746.000000
33909572.000000,23069700.000000
33896841.000000,23043514.000000
33850411.000000,22976134.000000
33785719.000000,22929109.000000
33778452.000000,22925355.000000
33700346.000000,22885968.000000
32334275.000000,22885975.000000
30968205.000000,22885982.000000
30976155.000000,22071978.000000
32460119.000000,22071978.000000
Z" /> 
<g >
</g>
<g >
</g>
<g >
</g>
<g >
</g>
<g >
</g>
<g >
</g>
<g >
</g>
<g >
</g>
<g >
</g>
<g >
</g>
<g >
</g>
<g >
</g>
<g >
</g>
<g >
</g>
<g >
</g>
<g >
</g>
<g >
</g>
<g >
</g>
<g >
</g>
<g >
</g>
<g >
</g>
<g >
</g>
<g >
</g>
<g >
</g>
<g >
</g>
<g >
</g>
<g >
</g>
<g >
</g>
<g >
</g>
<g >
</g>
<g >
</g>
<g >
</g>
<g >
</g>
<g >
</g>
<g >
</g>
<g >
</g>
<g >
</g>
<g >
</g>
<g >
</g>
<g >
</g>
<g >
</g>
<g >
</g>
<g >
</g>
<g >
</g>
<g >
</g>
<g >
</g>
<g >
</g>
<g >
</g>
<g >
</g>
<g >
</g>
<g >
</g>
<g >
</g>
<g >
</g>
<g >
</g>
<g >
</g>
<g >
</g>
<g >
</g>
<g >
</g>
<g >
</g>
<g >
</g>
<g >
</g>
</g> 
</svg>
