M48
; DRILL file {KiCad 8.0.2-1} date 2025-01-09T15:56:45-0500
; FORMAT={-:-/ absolute / inch / decimal}
; #@! TF.CreationDate,2025-01-09T15:56:45-05:00
; #@! TF.GenerationSoftware,Kicad,Pcbnew,8.0.2-1
; #@! TF.FileFunction,Plated,1,4,PTH
FMAT,2
INCH
; #@! TA.AperFunction,Plated,PTH,ComponentDrill
T1C0.0394
; #@! TA.AperFunction,Plated,PTH,ComponentDrill
T2C0.0409
; #@! TA.AperFunction,Plated,PTH,ComponentDrill
T3C0.0512
%
G90
G05
T1
X3.0177Y-2.5175
X3.0177Y-2.6175
X3.0177Y-2.7175
X3.0177Y-4.7104
X3.0177Y-4.8104
X3.0177Y-4.9104
X3.7798Y-2.638
X3.7798Y-2.738
X3.7798Y-2.838
X3.9558Y-2.638
X3.9558Y-2.738
X3.9558Y-2.838
X4.1317Y-2.638
X4.1317Y-2.738
X4.1317Y-2.838
X4.3077Y-2.638
X4.3077Y-2.738
X4.3077Y-2.838
X4.4836Y-2.638
X4.4836Y-2.738
X4.4836Y-2.838
X4.6596Y-2.638
X4.6596Y-2.738
X4.6596Y-2.838
X4.8355Y-2.638
X4.8355Y-2.738
X4.8355Y-2.838
X5.0115Y-2.638
X5.0115Y-2.738
X5.0115Y-2.838
X5.1874Y-2.638
X5.1874Y-2.738
X5.1874Y-2.838
X5.3634Y-2.638
X5.3634Y-2.738
X5.3634Y-2.838
X5.5393Y-2.638
X5.5393Y-2.738
X5.5393Y-2.838
X5.7153Y-2.638
X5.7153Y-2.738
X5.7153Y-2.838
X5.8912Y-2.638
X5.8912Y-2.738
X5.8912Y-2.838
X6.0672Y-2.638
X6.0672Y-2.738
X6.0672Y-2.838
X6.2431Y-2.638
X6.2431Y-2.738
X6.2431Y-2.838
X6.4191Y-2.638
X6.4191Y-2.738
X6.4191Y-2.838
X6.5951Y-2.638
X6.5951Y-2.738
X6.5951Y-2.838
X6.771Y-2.638
X6.771Y-2.738
X6.771Y-2.838
X6.947Y-2.638
X6.947Y-2.738
X6.947Y-2.838
X7.1229Y-2.638
X7.1229Y-2.738
X7.1229Y-2.838
X7.2989Y-2.638
X7.2989Y-2.738
X7.2989Y-2.838
X7.4748Y-2.638
X7.4748Y-2.738
X7.4748Y-2.838
X7.6508Y-2.638
X7.6508Y-2.738
X7.6508Y-2.838
X7.8267Y-2.638
X7.8267Y-2.738
X7.8267Y-2.838
X8.0475Y-2.93
X8.0475Y-3.0831
X8.0475Y-3.2362
X8.0475Y-3.3894
X8.0475Y-3.5425
X8.0475Y-3.6956
X8.0475Y-3.8487
X8.0475Y-4.0019
X8.1219Y-5.1719
X8.1475Y-2.93
X8.1475Y-3.0831
X8.1475Y-3.2362
X8.1475Y-3.3894
X8.1475Y-3.5425
X8.1475Y-3.6956
X8.1475Y-3.8487
X8.1475Y-4.0019
X8.2219Y-5.1719
X8.2475Y-2.93
X8.2475Y-3.0831
X8.2475Y-3.2362
X8.2475Y-3.3894
X8.2475Y-3.5425
X8.2475Y-3.6956
X8.2475Y-3.8487
X8.2475Y-4.0019
T2
X3.3027Y-3.2918
X3.3027Y-3.3918
X3.3027Y-3.4918
X3.3027Y-3.5918
X3.3027Y-3.6918
X3.3027Y-3.7918
X3.3027Y-3.8918
X3.3027Y-3.9918
X3.3027Y-4.0918
X3.3027Y-4.1918
X3.3027Y-4.2918
X3.3027Y-4.3918
X3.3027Y-4.4918
X3.3027Y-4.5918
X3.3027Y-4.6918
X3.3027Y-4.7918
X3.3027Y-4.8918
X3.3027Y-4.9918
X3.3027Y-5.0918
X4.3027Y-3.2918
X4.3027Y-3.3918
X4.3027Y-3.4918
X4.3027Y-3.5918
X4.3027Y-3.6918
X4.3027Y-3.7918
X4.3027Y-3.8918
X4.3027Y-3.9918
X4.3027Y-4.0918
X4.3027Y-4.1918
X4.3027Y-4.2918
X4.3027Y-4.3918
X4.3027Y-4.4918
X4.3027Y-4.5918
X4.3027Y-4.6918
X4.3027Y-4.7918
X4.3027Y-4.8918
X4.3027Y-4.9918
X4.3027Y-5.0918
X4.4848Y-3.2918
X4.4848Y-3.3918
X4.4848Y-3.4918
X4.4848Y-3.5918
X4.4848Y-3.6918
X4.4848Y-3.7918
X4.4848Y-3.8918
X4.4848Y-3.9918
X4.4848Y-4.0918
X4.4848Y-4.1918
X4.4848Y-4.2918
X4.4848Y-4.3918
X4.4848Y-4.4918
X4.4848Y-4.5918
X4.4848Y-4.6918
X4.4848Y-4.7918
X4.4848Y-4.8918
X4.4848Y-4.9918
X4.4848Y-5.0918
X5.4848Y-3.2918
X5.4848Y-3.3918
X5.4848Y-3.4918
X5.4848Y-3.5918
X5.4848Y-3.6918
X5.4848Y-3.7918
X5.4848Y-3.8918
X5.4848Y-3.9918
X5.4848Y-4.0918
X5.4848Y-4.1918
X5.4848Y-4.2918
X5.4848Y-4.3918
X5.4848Y-4.4918
X5.4848Y-4.5918
X5.4848Y-4.6918
X5.4848Y-4.7918
X5.4848Y-4.8918
X5.4848Y-4.9918
X5.4848Y-5.0918
X5.6669Y-3.2918
X5.6669Y-3.3918
X5.6669Y-3.4918
X5.6669Y-3.5918
X5.6669Y-3.6918
X5.6669Y-3.7918
X5.6669Y-3.8918
X5.6669Y-3.9918
X5.6669Y-4.0918
X5.6669Y-4.1918
X5.6669Y-4.2918
X5.6669Y-4.3918
X5.6669Y-4.4918
X5.6669Y-4.5918
X5.6669Y-4.6918
X5.6669Y-4.7918
X5.6669Y-4.8918
X5.6669Y-4.9918
X5.6669Y-5.0918
X6.6669Y-3.2918
X6.6669Y-3.3918
X6.6669Y-3.4918
X6.6669Y-3.5918
X6.6669Y-3.6918
X6.6669Y-3.7918
X6.6669Y-3.8918
X6.6669Y-3.9918
X6.6669Y-4.0918
X6.6669Y-4.1918
X6.6669Y-4.2918
X6.6669Y-4.3918
X6.6669Y-4.4918
X6.6669Y-4.5918
X6.6669Y-4.6918
X6.6669Y-4.7918
X6.6669Y-4.8918
X6.6669Y-4.9918
X6.6669Y-5.0918
X6.8489Y-3.2918
X6.8489Y-3.3918
X6.8489Y-3.4918
X6.8489Y-3.5918
X6.8489Y-3.6918
X6.8489Y-3.7918
X6.8489Y-3.8918
X6.8489Y-3.9918
X6.8489Y-4.0918
X6.8489Y-4.1918
X6.8489Y-4.2918
X6.8489Y-4.3918
X6.8489Y-4.4918
X6.8489Y-4.5918
X6.8489Y-4.6918
X6.8489Y-4.7918
X6.8489Y-4.8918
X6.8489Y-4.9918
X6.8489Y-5.0918
X7.8489Y-3.2918
X7.8489Y-3.3918
X7.8489Y-3.4918
X7.8489Y-3.5918
X7.8489Y-3.6918
X7.8489Y-3.7918
X7.8489Y-3.8918
X7.8489Y-3.9918
X7.8489Y-4.0918
X7.8489Y-4.1918
X7.8489Y-4.2918
X7.8489Y-4.3918
X7.8489Y-4.4918
X7.8489Y-4.5918
X7.8489Y-4.6918
X7.8489Y-4.7918
X7.8489Y-4.8918
X7.8489Y-4.9918
X7.8489Y-5.0918
T3
X3.3107Y-2.5258
X3.5107Y-2.5258
X8.0607Y-2.5258
X8.2507Y-4.2627
X8.2507Y-4.4627
X8.2507Y-4.7318
X8.2507Y-4.9318
X8.2607Y-2.5258
M30
