%TF.GenerationSoftware,KiCad,Pcbnew,8.0.2-1*%
%TF.CreationDate,2025-01-09T15:56:49-05:00*%
%TF.ProjectId,C3P0_Controller_V1.1,43335030-5f43-46f6-9e74-726f6c6c6572,rev?*%
%TF.SameCoordinates,Original*%
%TF.FileFunction,Copper,L1,Top*%
%TF.FilePolarity,Positive*%
%FSLAX46Y46*%
G04 Gerber Fmt 4.6, Leading zero omitted, Abs format (unit mm)*
G04 Created by KiCad (PCBNEW 8.0.2-1) date 2025-01-09 15:56:49*
%MOMM*%
%LPD*%
G01*
G04 APERTURE LIST*
%TA.AperFunction,ComponentPad*%
%ADD10R,1.700000X1.700000*%
%TD*%
%TA.AperFunction,ComponentPad*%
%ADD11O,1.700000X1.700000*%
%TD*%
%TA.AperFunction,ComponentPad*%
%ADD12R,1.560000X1.560000*%
%TD*%
%TA.AperFunction,ComponentPad*%
%ADD13C,1.560000*%
%TD*%
%TA.AperFunction,ComponentPad*%
%ADD14R,2.600000X2.600000*%
%TD*%
%TA.AperFunction,ComponentPad*%
%ADD15C,2.600000*%
%TD*%
%TA.AperFunction,Conductor*%
%ADD16C,0.152400*%
%TD*%
%TA.AperFunction,Conductor*%
%ADD17C,0.200000*%
%TD*%
G04 APERTURE END LIST*
D10*
%TO.P,J37,1,Pin_1*%
%TO.N,GND*%
X204406000Y-93868285D03*
D11*
%TO.P,J37,2,Pin_2*%
%TO.N,T_RX1*%
X206946000Y-93868285D03*
%TO.P,J37,3,Pin_3*%
%TO.N,T_TX1*%
X209486000Y-93868285D03*
%TD*%
D10*
%TO.P,J36,1,Pin_1*%
%TO.N,GND*%
X204406000Y-78310857D03*
D11*
%TO.P,J36,2,Pin_2*%
%TO.N,RA_RX1*%
X206946000Y-78310857D03*
%TO.P,J36,3,Pin_3*%
%TO.N,RA_TX1*%
X209486000Y-78310857D03*
%TD*%
D10*
%TO.P,J35,1,Pin_1*%
%TO.N,GND*%
X204406000Y-101647000D03*
D11*
%TO.P,J35,2,Pin_2*%
%TO.N,LA_RX1*%
X206946000Y-101647000D03*
%TO.P,J35,3,Pin_3*%
%TO.N,LA_TX1*%
X209486000Y-101647000D03*
%TD*%
D10*
%TO.P,J34,1,Pin_1*%
%TO.N,GND*%
X204406000Y-86089571D03*
D11*
%TO.P,J34,2,Pin_2*%
%TO.N,H_RX1*%
X206946000Y-86089571D03*
%TO.P,J34,3,Pin_3*%
%TO.N,H_TX1*%
X209486000Y-86089571D03*
%TD*%
D10*
%TO.P,J7,1,Pin_1*%
%TO.N,GND*%
X185391025Y-67005000D03*
D11*
%TO.P,J7,2,Pin_2*%
%TO.N,SVR_PWR*%
X185391025Y-69545000D03*
%TO.P,J7,3,Pin_3*%
%TO.N,SRV_7*%
X185391025Y-72085000D03*
%TD*%
D10*
%TO.P,J21,1,Pin_1*%
%TO.N,GND*%
X167514301Y-67005000D03*
D11*
%TO.P,J21,2,Pin_2*%
%TO.N,SVR_PWR*%
X167514301Y-69545000D03*
%TO.P,J21,3,Pin_3*%
%TO.N,SRV_21*%
X167514301Y-72085000D03*
%TD*%
D12*
%TO.P,U3,J2-1,3V3*%
%TO.N,unconnected-(U3-3V3-PadJ2-1)*%
X143938000Y-83611000D03*
D13*
%TO.P,U3,J2-2,EN*%
%TO.N,unconnected-(U3-EN-PadJ2-2)*%
X143938000Y-86151000D03*
%TO.P,U3,J2-3,SENSOR_VP*%
%TO.N,unconnected-(U3-SENSOR_VP-PadJ2-3)*%
X143938000Y-88691000D03*
%TO.P,U3,J2-4,SENSOR_VN*%
%TO.N,unconnected-(U3-SENSOR_VN-PadJ2-4)*%
X143938000Y-91231000D03*
%TO.P,U3,J2-5,IO34*%
%TO.N,unconnected-(U3-IO34-PadJ2-5)*%
X143938000Y-93771000D03*
%TO.P,U3,J2-6,IO35*%
%TO.N,unconnected-(U3-IO35-PadJ2-6)*%
X143938000Y-96311000D03*
%TO.P,U3,J2-7,IO32*%
%TO.N,unconnected-(U3-IO32-PadJ2-7)*%
X143938000Y-98851000D03*
%TO.P,U3,J2-8,IO33*%
%TO.N,T_TX1*%
X143938000Y-101391000D03*
%TO.P,U3,J2-9,IO25*%
%TO.N,T_RX1*%
X143938000Y-103931000D03*
%TO.P,U3,J2-10,IO26*%
%TO.N,unconnected-(U3-IO26-PadJ2-10)*%
X143938000Y-106471000D03*
%TO.P,U3,J2-11,IO27*%
%TO.N,unconnected-(U3-IO27-PadJ2-11)*%
X143938000Y-109011000D03*
%TO.P,U3,J2-12,IO14*%
%TO.N,unconnected-(U3-IO14-PadJ2-12)*%
X143938000Y-111551000D03*
%TO.P,U3,J2-13,IO12*%
%TO.N,unconnected-(U3-IO12-PadJ2-13)*%
X143938000Y-114091000D03*
%TO.P,U3,J2-14,GND1*%
%TO.N,unconnected-(U3-GND1-PadJ2-14)*%
X143938000Y-116631000D03*
%TO.P,U3,J2-15,IO13*%
%TO.N,unconnected-(U3-IO13-PadJ2-15)*%
X143938000Y-119171000D03*
%TO.P,U3,J2-16,SD2*%
%TO.N,unconnected-(U3-SD2-PadJ2-16)*%
X143938000Y-121711000D03*
%TO.P,U3,J2-17,SD3*%
%TO.N,unconnected-(U3-SD3-PadJ2-17)*%
X143938000Y-124251000D03*
%TO.P,U3,J2-18,CMD*%
%TO.N,unconnected-(U3-CMD-PadJ2-18)*%
X143938000Y-126791000D03*
%TO.P,U3,J2-19,EXT_5V*%
%TO.N,5V*%
X143938000Y-129331000D03*
%TO.P,U3,J3-1,GND3*%
%TO.N,GND*%
X169338000Y-83611000D03*
%TO.P,U3,J3-2,IO23*%
%TO.N,unconnected-(U3-IO23-PadJ3-2)*%
X169338000Y-86151000D03*
%TO.P,U3,J3-3,IO22*%
%TO.N,SRV_22*%
X169338000Y-88691000D03*
%TO.P,U3,J3-4,TXD0*%
%TO.N,T_TX*%
X169338000Y-91231000D03*
%TO.P,U3,J3-5,RXD0*%
%TO.N,T_RX*%
X169338000Y-93771000D03*
%TO.P,U3,J3-6,IO21*%
%TO.N,SRV_21*%
X169338000Y-96311000D03*
%TO.P,U3,J3-7,GND2*%
%TO.N,unconnected-(U3-GND2-PadJ3-7)*%
X169338000Y-98851000D03*
%TO.P,U3,J3-8,IO19*%
%TO.N,SRV_20*%
X169338000Y-101391000D03*
%TO.P,U3,J3-9,IO18*%
%TO.N,SRV_19*%
X169338000Y-103931000D03*
%TO.P,U3,J3-10,IO5*%
%TO.N,unconnected-(U3-IO5-PadJ3-10)*%
X169338000Y-106471000D03*
%TO.P,U3,J3-11,IO17*%
%TO.N,SRV_18*%
X169338000Y-109011000D03*
%TO.P,U3,J3-12,IO16*%
%TO.N,SRV_17*%
X169338000Y-111551000D03*
%TO.P,U3,J3-13,IO4*%
%TO.N,unconnected-(U3-IO4-PadJ3-13)*%
X169338000Y-114091000D03*
%TO.P,U3,J3-14,IO0*%
%TO.N,unconnected-(U3-IO0-PadJ3-14)*%
X169338000Y-116631000D03*
%TO.P,U3,J3-15,IO2*%
%TO.N,unconnected-(U3-IO2-PadJ3-15)*%
X169338000Y-119171000D03*
%TO.P,U3,J3-16,IO15*%
%TO.N,unconnected-(U3-IO15-PadJ3-16)*%
X169338000Y-121711000D03*
%TO.P,U3,J3-17,SD1*%
%TO.N,unconnected-(U3-SD1-PadJ3-17)*%
X169338000Y-124251000D03*
%TO.P,U3,J3-18,SD0*%
%TO.N,unconnected-(U3-SD0-PadJ3-18)*%
X169338000Y-126791000D03*
%TO.P,U3,J3-19,CLK*%
%TO.N,unconnected-(U3-CLK-PadJ3-19)*%
X169338000Y-129331000D03*
%TD*%
D10*
%TO.P,J29,1,Pin_1*%
%TO.N,GND*%
X208835000Y-131365000D03*
D11*
%TO.P,J29,2,Pin_2*%
%TO.N,5V*%
X206295000Y-131365000D03*
%TD*%
D10*
%TO.P,J16,1,Pin_1*%
%TO.N,GND*%
X118353310Y-67005000D03*
D11*
%TO.P,J16,2,Pin_2*%
%TO.N,SVR_PWR*%
X118353310Y-69545000D03*
%TO.P,J16,3,Pin_3*%
%TO.N,SRV_16*%
X118353310Y-72085000D03*
%TD*%
D10*
%TO.P,J5,1,Pin_1*%
%TO.N,GND*%
X176452663Y-67005000D03*
D11*
%TO.P,J5,2,Pin_2*%
%TO.N,SVR_PWR*%
X176452663Y-69545000D03*
%TO.P,J5,3,Pin_3*%
%TO.N,SRV_5*%
X176452663Y-72085000D03*
%TD*%
D12*
%TO.P,U1,J2-1,3V3*%
%TO.N,unconnected-(U1-3V3-PadJ2-1)*%
X83888000Y-83611000D03*
D13*
%TO.P,U1,J2-2,EN*%
%TO.N,unconnected-(U1-EN-PadJ2-2)*%
X83888000Y-86151000D03*
%TO.P,U1,J2-3,SENSOR_VP*%
%TO.N,unconnected-(U1-SENSOR_VP-PadJ2-3)*%
X83888000Y-88691000D03*
%TO.P,U1,J2-4,SENSOR_VN*%
%TO.N,unconnected-(U1-SENSOR_VN-PadJ2-4)*%
X83888000Y-91231000D03*
%TO.P,U1,J2-5,IO34*%
%TO.N,unconnected-(U1-IO34-PadJ2-5)*%
X83888000Y-93771000D03*
%TO.P,U1,J2-6,IO35*%
%TO.N,unconnected-(U1-IO35-PadJ2-6)*%
X83888000Y-96311000D03*
%TO.P,U1,J2-7,IO32*%
%TO.N,unconnected-(U1-IO32-PadJ2-7)*%
X83888000Y-98851000D03*
%TO.P,U1,J2-8,IO33*%
%TO.N,RA_TX1*%
X83888000Y-101391000D03*
%TO.P,U1,J2-9,IO25*%
%TO.N,RA_RX1*%
X83888000Y-103931000D03*
%TO.P,U1,J2-10,IO26*%
%TO.N,unconnected-(U1-IO26-PadJ2-10)*%
X83888000Y-106471000D03*
%TO.P,U1,J2-11,IO27*%
%TO.N,unconnected-(U1-IO27-PadJ2-11)*%
X83888000Y-109011000D03*
%TO.P,U1,J2-12,IO14*%
%TO.N,unconnected-(U1-IO14-PadJ2-12)*%
X83888000Y-111551000D03*
%TO.P,U1,J2-13,IO12*%
%TO.N,unconnected-(U1-IO12-PadJ2-13)*%
X83888000Y-114091000D03*
%TO.P,U1,J2-14,GND1*%
%TO.N,unconnected-(U1-GND1-PadJ2-14)*%
X83888000Y-116631000D03*
%TO.P,U1,J2-15,IO13*%
%TO.N,unconnected-(U1-IO13-PadJ2-15)*%
X83888000Y-119171000D03*
%TO.P,U1,J2-16,SD2*%
%TO.N,unconnected-(U1-SD2-PadJ2-16)*%
X83888000Y-121711000D03*
%TO.P,U1,J2-17,SD3*%
%TO.N,unconnected-(U1-SD3-PadJ2-17)*%
X83888000Y-124251000D03*
%TO.P,U1,J2-18,CMD*%
%TO.N,unconnected-(U1-CMD-PadJ2-18)*%
X83888000Y-126791000D03*
%TO.P,U1,J2-19,EXT_5V*%
%TO.N,5V*%
X83888000Y-129331000D03*
%TO.P,U1,J3-1,GND3*%
%TO.N,GND*%
X109288000Y-83611000D03*
%TO.P,U1,J3-2,IO23*%
%TO.N,unconnected-(U1-IO23-PadJ3-2)*%
X109288000Y-86151000D03*
%TO.P,U1,J3-3,IO22*%
%TO.N,SRV_16*%
X109288000Y-88691000D03*
%TO.P,U1,J3-4,TXD0*%
%TO.N,RA_TX*%
X109288000Y-91231000D03*
%TO.P,U1,J3-5,RXD0*%
%TO.N,RA_RX*%
X109288000Y-93771000D03*
%TO.P,U1,J3-6,IO21*%
%TO.N,SRV_15*%
X109288000Y-96311000D03*
%TO.P,U1,J3-7,GND2*%
%TO.N,unconnected-(U1-GND2-PadJ3-7)*%
X109288000Y-98851000D03*
%TO.P,U1,J3-8,IO19*%
%TO.N,SRV_14*%
X109288000Y-101391000D03*
%TO.P,U1,J3-9,IO18*%
%TO.N,SRV_13*%
X109288000Y-103931000D03*
%TO.P,U1,J3-10,IO5*%
%TO.N,unconnected-(U1-IO5-PadJ3-10)*%
X109288000Y-106471000D03*
%TO.P,U1,J3-11,IO17*%
%TO.N,SRV_12*%
X109288000Y-109011000D03*
%TO.P,U1,J3-12,IO16*%
%TO.N,SRV_11*%
X109288000Y-111551000D03*
%TO.P,U1,J3-13,IO4*%
%TO.N,unconnected-(U1-IO4-PadJ3-13)*%
X109288000Y-114091000D03*
%TO.P,U1,J3-14,IO0*%
%TO.N,unconnected-(U1-IO0-PadJ3-14)*%
X109288000Y-116631000D03*
%TO.P,U1,J3-15,IO2*%
%TO.N,unconnected-(U1-IO2-PadJ3-15)*%
X109288000Y-119171000D03*
%TO.P,U1,J3-16,IO15*%
%TO.N,unconnected-(U1-IO15-PadJ3-16)*%
X109288000Y-121711000D03*
%TO.P,U1,J3-17,SD1*%
%TO.N,unconnected-(U1-SD1-PadJ3-17)*%
X109288000Y-124251000D03*
%TO.P,U1,J3-18,SD0*%
%TO.N,unconnected-(U1-SD0-PadJ3-18)*%
X109288000Y-126791000D03*
%TO.P,U1,J3-19,CLK*%
%TO.N,unconnected-(U1-CLK-PadJ3-19)*%
X109288000Y-129331000D03*
%TD*%
D10*
%TO.P,J30,1,Pin_1*%
%TO.N,GND*%
X204406000Y-82200214D03*
D11*
%TO.P,J30,2,Pin_2*%
%TO.N,H_RX*%
X206946000Y-82200214D03*
%TO.P,J30,3,Pin_3*%
%TO.N,H_TX*%
X209486000Y-82200214D03*
%TD*%
D10*
%TO.P,J15,1,Pin_1*%
%TO.N,GND*%
X113884129Y-67005000D03*
D11*
%TO.P,J15,2,Pin_2*%
%TO.N,SVR_PWR*%
X113884129Y-69545000D03*
%TO.P,J15,3,Pin_3*%
%TO.N,SRV_15*%
X113884129Y-72085000D03*
%TD*%
D10*
%TO.P,J20,1,Pin_1*%
%TO.N,GND*%
X163045120Y-67005000D03*
D11*
%TO.P,J20,2,Pin_2*%
%TO.N,SVR_PWR*%
X163045120Y-69545000D03*
%TO.P,J20,3,Pin_3*%
%TO.N,SRV_20*%
X163045120Y-72085000D03*
%TD*%
D10*
%TO.P,J2,1,Pin_1*%
%TO.N,GND*%
X127291672Y-67005000D03*
D11*
%TO.P,J2,2,Pin_2*%
%TO.N,SVR_PWR*%
X127291672Y-69545000D03*
%TO.P,J2,3,Pin_3*%
%TO.N,SRV_2*%
X127291672Y-72085000D03*
%TD*%
D14*
%TO.P,J50,1,Pin_1*%
%TO.N,GND*%
X89171000Y-64155000D03*
D15*
%TO.P,J50,2,Pin_2*%
%TO.N,SVR_PWR*%
X84091000Y-64155000D03*
%TD*%
D10*
%TO.P,J19,1,Pin_1*%
%TO.N,GND*%
X158575939Y-67005000D03*
D11*
%TO.P,J19,2,Pin_2*%
%TO.N,SVR_PWR*%
X158575939Y-69545000D03*
%TO.P,J19,3,Pin_3*%
%TO.N,SRV_19*%
X158575939Y-72085000D03*
%TD*%
D10*
%TO.P,J13,1,Pin_1*%
%TO.N,GND*%
X104945767Y-67005000D03*
D11*
%TO.P,J13,2,Pin_2*%
%TO.N,SVR_PWR*%
X104945767Y-69545000D03*
%TO.P,J13,3,Pin_3*%
%TO.N,SRV_13*%
X104945767Y-72085000D03*
%TD*%
D10*
%TO.P,J33,1,Pin_1*%
%TO.N,GND*%
X204406000Y-89978928D03*
D11*
%TO.P,J33,2,Pin_2*%
%TO.N,T_RX*%
X206946000Y-89978928D03*
%TO.P,J33,3,Pin_3*%
%TO.N,T_TX*%
X209486000Y-89978928D03*
%TD*%
D10*
%TO.P,J24,1,Pin_1*%
%TO.N,GND*%
X145168396Y-67005000D03*
D11*
%TO.P,J24,2,Pin_2*%
%TO.N,SVR_PWR*%
X145168396Y-69545000D03*
%TO.P,J24,3,Pin_3*%
%TO.N,SPR_2*%
X145168396Y-72085000D03*
%TD*%
D10*
%TO.P,J11,1,Pin_1*%
%TO.N,GND*%
X96007405Y-67005000D03*
D11*
%TO.P,J11,2,Pin_2*%
%TO.N,SVR_PWR*%
X96007405Y-69545000D03*
%TO.P,J11,3,Pin_3*%
%TO.N,SRV_11*%
X96007405Y-72085000D03*
%TD*%
D10*
%TO.P,J26,1,Pin_1*%
%TO.N,GND*%
X76650000Y-119644000D03*
D11*
%TO.P,J26,2,Pin_2*%
%TO.N,5V*%
X76650000Y-122184000D03*
%TO.P,J26,3,Pin_3*%
%TO.N,MISC_2*%
X76650000Y-124724000D03*
%TD*%
D10*
%TO.P,J22,1,Pin_1*%
%TO.N,GND*%
X171983482Y-67005000D03*
D11*
%TO.P,J22,2,Pin_2*%
%TO.N,SVR_PWR*%
X171983482Y-69545000D03*
%TO.P,J22,3,Pin_3*%
%TO.N,SRV_22*%
X171983482Y-72085000D03*
%TD*%
D10*
%TO.P,J6,1,Pin_1*%
%TO.N,GND*%
X180921844Y-67005000D03*
D11*
%TO.P,J6,2,Pin_2*%
%TO.N,SVR_PWR*%
X180921844Y-69545000D03*
%TO.P,J6,3,Pin_3*%
%TO.N,SRV_6*%
X180921844Y-72085000D03*
%TD*%
D12*
%TO.P,U4,J2-1,3V3*%
%TO.N,unconnected-(U4-3V3-PadJ2-1)*%
X173963000Y-83611000D03*
D13*
%TO.P,U4,J2-2,EN*%
%TO.N,unconnected-(U4-EN-PadJ2-2)*%
X173963000Y-86151000D03*
%TO.P,U4,J2-3,SENSOR_VP*%
%TO.N,unconnected-(U4-SENSOR_VP-PadJ2-3)*%
X173963000Y-88691000D03*
%TO.P,U4,J2-4,SENSOR_VN*%
%TO.N,unconnected-(U4-SENSOR_VN-PadJ2-4)*%
X173963000Y-91231000D03*
%TO.P,U4,J2-5,IO34*%
%TO.N,unconnected-(U4-IO34-PadJ2-5)*%
X173963000Y-93771000D03*
%TO.P,U4,J2-6,IO35*%
%TO.N,unconnected-(U4-IO35-PadJ2-6)*%
X173963000Y-96311000D03*
%TO.P,U4,J2-7,IO32*%
%TO.N,unconnected-(U4-IO32-PadJ2-7)*%
X173963000Y-98851000D03*
%TO.P,U4,J2-8,IO33*%
%TO.N,LA_TX1*%
X173963000Y-101391000D03*
%TO.P,U4,J2-9,IO25*%
%TO.N,LA_RX1*%
X173963000Y-103931000D03*
%TO.P,U4,J2-10,IO26*%
%TO.N,unconnected-(U4-IO26-PadJ2-10)*%
X173963000Y-106471000D03*
%TO.P,U4,J2-11,IO27*%
%TO.N,unconnected-(U4-IO27-PadJ2-11)*%
X173963000Y-109011000D03*
%TO.P,U4,J2-12,IO14*%
%TO.N,unconnected-(U4-IO14-PadJ2-12)*%
X173963000Y-111551000D03*
%TO.P,U4,J2-13,IO12*%
%TO.N,unconnected-(U4-IO12-PadJ2-13)*%
X173963000Y-114091000D03*
%TO.P,U4,J2-14,GND1*%
%TO.N,unconnected-(U4-GND1-PadJ2-14)*%
X173963000Y-116631000D03*
%TO.P,U4,J2-15,IO13*%
%TO.N,unconnected-(U4-IO13-PadJ2-15)*%
X173963000Y-119171000D03*
%TO.P,U4,J2-16,SD2*%
%TO.N,unconnected-(U4-SD2-PadJ2-16)*%
X173963000Y-121711000D03*
%TO.P,U4,J2-17,SD3*%
%TO.N,unconnected-(U4-SD3-PadJ2-17)*%
X173963000Y-124251000D03*
%TO.P,U4,J2-18,CMD*%
%TO.N,unconnected-(U4-CMD-PadJ2-18)*%
X173963000Y-126791000D03*
%TO.P,U4,J2-19,EXT_5V*%
%TO.N,5V*%
X173963000Y-129331000D03*
%TO.P,U4,J3-1,GND3*%
%TO.N,GND*%
X199363000Y-83611000D03*
%TO.P,U4,J3-2,IO23*%
%TO.N,unconnected-(U4-IO23-PadJ3-2)*%
X199363000Y-86151000D03*
%TO.P,U4,J3-3,IO22*%
%TO.N,SRV_10*%
X199363000Y-88691000D03*
%TO.P,U4,J3-4,TXD0*%
%TO.N,LA_TX*%
X199363000Y-91231000D03*
%TO.P,U4,J3-5,RXD0*%
%TO.N,LA_RX*%
X199363000Y-93771000D03*
%TO.P,U4,J3-6,IO21*%
%TO.N,SRV_9*%
X199363000Y-96311000D03*
%TO.P,U4,J3-7,GND2*%
%TO.N,unconnected-(U4-GND2-PadJ3-7)*%
X199363000Y-98851000D03*
%TO.P,U4,J3-8,IO19*%
%TO.N,SRV_8*%
X199363000Y-101391000D03*
%TO.P,U4,J3-9,IO18*%
%TO.N,SRV_7*%
X199363000Y-103931000D03*
%TO.P,U4,J3-10,IO5*%
%TO.N,unconnected-(U4-IO5-PadJ3-10)*%
X199363000Y-106471000D03*
%TO.P,U4,J3-11,IO17*%
%TO.N,SRV_6*%
X199363000Y-109011000D03*
%TO.P,U4,J3-12,IO16*%
%TO.N,SRV_5*%
X199363000Y-111551000D03*
%TO.P,U4,J3-13,IO4*%
%TO.N,unconnected-(U4-IO4-PadJ3-13)*%
X199363000Y-114091000D03*
%TO.P,U4,J3-14,IO0*%
%TO.N,unconnected-(U4-IO0-PadJ3-14)*%
X199363000Y-116631000D03*
%TO.P,U4,J3-15,IO2*%
%TO.N,unconnected-(U4-IO2-PadJ3-15)*%
X199363000Y-119171000D03*
%TO.P,U4,J3-16,IO15*%
%TO.N,unconnected-(U4-IO15-PadJ3-16)*%
X199363000Y-121711000D03*
%TO.P,U4,J3-17,SD1*%
%TO.N,unconnected-(U4-SD1-PadJ3-17)*%
X199363000Y-124251000D03*
%TO.P,U4,J3-18,SD0*%
%TO.N,unconnected-(U4-SD0-PadJ3-18)*%
X199363000Y-126791000D03*
%TO.P,U4,J3-19,CLK*%
%TO.N,unconnected-(U4-CLK-PadJ3-19)*%
X199363000Y-129331000D03*
%TD*%
D11*
%TO.P,J32,3,Pin_3*%
%TO.N,RA_TX*%
X209486000Y-74421500D03*
%TO.P,J32,2,Pin_2*%
%TO.N,RA_RX*%
X206946000Y-74421500D03*
D10*
%TO.P,J32,1,Pin_1*%
%TO.N,GND*%
X204406000Y-74421500D03*
%TD*%
%TO.P,J3,1,Pin_1*%
%TO.N,GND*%
X131760853Y-67005000D03*
D11*
%TO.P,J3,2,Pin_2*%
%TO.N,SVR_PWR*%
X131760853Y-69545000D03*
%TO.P,J3,3,Pin_3*%
%TO.N,SRV_3*%
X131760853Y-72085000D03*
%TD*%
D10*
%TO.P,J1,1,Pin_1*%
%TO.N,GND*%
X122822491Y-67005000D03*
D11*
%TO.P,J1,2,Pin_2*%
%TO.N,SVR_PWR*%
X122822491Y-69545000D03*
%TO.P,J1,3,Pin_3*%
%TO.N,SRV_1*%
X122822491Y-72085000D03*
%TD*%
D10*
%TO.P,J18,1,Pin_1*%
%TO.N,GND*%
X154106758Y-67005000D03*
D11*
%TO.P,J18,2,Pin_2*%
%TO.N,SVR_PWR*%
X154106758Y-69545000D03*
%TO.P,J18,3,Pin_3*%
%TO.N,SRV_18*%
X154106758Y-72085000D03*
%TD*%
D10*
%TO.P,J23,1,Pin_1*%
%TO.N,GND*%
X140699215Y-67005000D03*
D11*
%TO.P,J23,2,Pin_2*%
%TO.N,SVR_PWR*%
X140699215Y-69545000D03*
%TO.P,J23,3,Pin_3*%
%TO.N,SPR_1*%
X140699215Y-72085000D03*
%TD*%
D10*
%TO.P,J4,1,Pin_1*%
%TO.N,GND*%
X136230034Y-67005000D03*
D11*
%TO.P,J4,2,Pin_2*%
%TO.N,SVR_PWR*%
X136230034Y-69545000D03*
%TO.P,J4,3,Pin_3*%
%TO.N,SRV_4*%
X136230034Y-72085000D03*
%TD*%
D10*
%TO.P,J17,1,Pin_1*%
%TO.N,GND*%
X149637577Y-67005000D03*
D11*
%TO.P,J17,2,Pin_2*%
%TO.N,SVR_PWR*%
X149637577Y-69545000D03*
%TO.P,J17,3,Pin_3*%
%TO.N,SRV_17*%
X149637577Y-72085000D03*
%TD*%
D14*
%TO.P,J51,1,Pin_1*%
%TO.N,GND*%
X209567000Y-125267000D03*
D15*
%TO.P,J51,2,Pin_2*%
%TO.N,5V*%
X209567000Y-120187000D03*
%TD*%
D14*
%TO.P,J27,1,Pin_1*%
%TO.N,GND*%
X209821000Y-64155000D03*
D15*
%TO.P,J27,2,Pin_2*%
%TO.N,SVR_PWR*%
X204741000Y-64155000D03*
%TD*%
D10*
%TO.P,J9,1,Pin_1*%
%TO.N,GND*%
X194329387Y-67005000D03*
D11*
%TO.P,J9,2,Pin_2*%
%TO.N,SVR_PWR*%
X194329387Y-69545000D03*
%TO.P,J9,3,Pin_3*%
%TO.N,SRV_9*%
X194329387Y-72085000D03*
%TD*%
D14*
%TO.P,J28,1,Pin_1*%
%TO.N,GND*%
X209567000Y-113353000D03*
D15*
%TO.P,J28,2,Pin_2*%
%TO.N,5V*%
X209567000Y-108273000D03*
%TD*%
D10*
%TO.P,J12,1,Pin_1*%
%TO.N,GND*%
X100476586Y-67005000D03*
D11*
%TO.P,J12,2,Pin_2*%
%TO.N,SVR_PWR*%
X100476586Y-69545000D03*
%TO.P,J12,3,Pin_3*%
%TO.N,SRV_12*%
X100476586Y-72085000D03*
%TD*%
D12*
%TO.P,U2,J2-1,3V3*%
%TO.N,unconnected-(U2-3V3-PadJ2-1)*%
X113913000Y-83611000D03*
D13*
%TO.P,U2,J2-2,EN*%
%TO.N,unconnected-(U2-EN-PadJ2-2)*%
X113913000Y-86151000D03*
%TO.P,U2,J2-3,SENSOR_VP*%
%TO.N,unconnected-(U2-SENSOR_VP-PadJ2-3)*%
X113913000Y-88691000D03*
%TO.P,U2,J2-4,SENSOR_VN*%
%TO.N,unconnected-(U2-SENSOR_VN-PadJ2-4)*%
X113913000Y-91231000D03*
%TO.P,U2,J2-5,IO34*%
%TO.N,unconnected-(U2-IO34-PadJ2-5)*%
X113913000Y-93771000D03*
%TO.P,U2,J2-6,IO35*%
%TO.N,unconnected-(U2-IO35-PadJ2-6)*%
X113913000Y-96311000D03*
%TO.P,U2,J2-7,IO32*%
%TO.N,unconnected-(U2-IO32-PadJ2-7)*%
X113913000Y-98851000D03*
%TO.P,U2,J2-8,IO33*%
%TO.N,H_TX1*%
X113913000Y-101391000D03*
%TO.P,U2,J2-9,IO25*%
%TO.N,H_RX1*%
X113913000Y-103931000D03*
%TO.P,U2,J2-10,IO26*%
%TO.N,MISC_1*%
X113913000Y-106471000D03*
%TO.P,U2,J2-11,IO27*%
%TO.N,MISC_2*%
X113913000Y-109011000D03*
%TO.P,U2,J2-12,IO14*%
%TO.N,unconnected-(U2-IO14-PadJ2-12)*%
X113913000Y-111551000D03*
%TO.P,U2,J2-13,IO12*%
%TO.N,unconnected-(U2-IO12-PadJ2-13)*%
X113913000Y-114091000D03*
%TO.P,U2,J2-14,GND1*%
%TO.N,unconnected-(U2-GND1-PadJ2-14)*%
X113913000Y-116631000D03*
%TO.P,U2,J2-15,IO13*%
%TO.N,unconnected-(U2-IO13-PadJ2-15)*%
X113913000Y-119171000D03*
%TO.P,U2,J2-16,SD2*%
%TO.N,unconnected-(U2-SD2-PadJ2-16)*%
X113913000Y-121711000D03*
%TO.P,U2,J2-17,SD3*%
%TO.N,unconnected-(U2-SD3-PadJ2-17)*%
X113913000Y-124251000D03*
%TO.P,U2,J2-18,CMD*%
%TO.N,unconnected-(U2-CMD-PadJ2-18)*%
X113913000Y-126791000D03*
%TO.P,U2,J2-19,EXT_5V*%
%TO.N,5V*%
X113913000Y-129331000D03*
%TO.P,U2,J3-1,GND3*%
%TO.N,GND*%
X139313000Y-83611000D03*
%TO.P,U2,J3-2,IO23*%
%TO.N,unconnected-(U2-IO23-PadJ3-2)*%
X139313000Y-86151000D03*
%TO.P,U2,J3-3,IO22*%
%TO.N,SPR_2*%
X139313000Y-88691000D03*
%TO.P,U2,J3-4,TXD0*%
%TO.N,H_TX*%
X139313000Y-91231000D03*
%TO.P,U2,J3-5,RXD0*%
%TO.N,H_RX*%
X139313000Y-93771000D03*
%TO.P,U2,J3-6,IO21*%
%TO.N,SPR_1*%
X139313000Y-96311000D03*
%TO.P,U2,J3-7,GND2*%
%TO.N,unconnected-(U2-GND2-PadJ3-7)*%
X139313000Y-98851000D03*
%TO.P,U2,J3-8,IO19*%
%TO.N,SRV_4*%
X139313000Y-101391000D03*
%TO.P,U2,J3-9,IO18*%
%TO.N,SRV_3*%
X139313000Y-103931000D03*
%TO.P,U2,J3-10,IO5*%
%TO.N,unconnected-(U2-IO5-PadJ3-10)*%
X139313000Y-106471000D03*
%TO.P,U2,J3-11,IO17*%
%TO.N,SRV_2*%
X139313000Y-109011000D03*
%TO.P,U2,J3-12,IO16*%
%TO.N,SRV_1*%
X139313000Y-111551000D03*
%TO.P,U2,J3-13,IO4*%
%TO.N,unconnected-(U2-IO4-PadJ3-13)*%
X139313000Y-114091000D03*
%TO.P,U2,J3-14,IO0*%
%TO.N,unconnected-(U2-IO0-PadJ3-14)*%
X139313000Y-116631000D03*
%TO.P,U2,J3-15,IO2*%
%TO.N,unconnected-(U2-IO2-PadJ3-15)*%
X139313000Y-119171000D03*
%TO.P,U2,J3-16,IO15*%
%TO.N,unconnected-(U2-IO15-PadJ3-16)*%
X139313000Y-121711000D03*
%TO.P,U2,J3-17,SD1*%
%TO.N,unconnected-(U2-SD1-PadJ3-17)*%
X139313000Y-124251000D03*
%TO.P,U2,J3-18,SD0*%
%TO.N,unconnected-(U2-SD0-PadJ3-18)*%
X139313000Y-126791000D03*
%TO.P,U2,J3-19,CLK*%
%TO.N,unconnected-(U2-CLK-PadJ3-19)*%
X139313000Y-129331000D03*
%TD*%
D10*
%TO.P,J14,1,Pin_1*%
%TO.N,GND*%
X109414948Y-67005000D03*
D11*
%TO.P,J14,2,Pin_2*%
%TO.N,SVR_PWR*%
X109414948Y-69545000D03*
%TO.P,J14,3,Pin_3*%
%TO.N,SRV_14*%
X109414948Y-72085000D03*
%TD*%
D10*
%TO.P,J31,1,Pin_1*%
%TO.N,GND*%
X204406000Y-97757642D03*
D11*
%TO.P,J31,2,Pin_2*%
%TO.N,LA_RX*%
X206946000Y-97757642D03*
%TO.P,J31,3,Pin_3*%
%TO.N,LA_TX*%
X209486000Y-97757642D03*
%TD*%
D10*
%TO.P,J10,1,Pin_1*%
%TO.N,GND*%
X198798569Y-67005000D03*
D11*
%TO.P,J10,2,Pin_2*%
%TO.N,SVR_PWR*%
X198798569Y-69545000D03*
%TO.P,J10,3,Pin_3*%
%TO.N,SRV_10*%
X198798569Y-72085000D03*
%TD*%
D10*
%TO.P,J25,1,Pin_1*%
%TO.N,GND*%
X76650000Y-63944000D03*
D11*
%TO.P,J25,2,Pin_2*%
%TO.N,5V*%
X76650000Y-66484000D03*
%TO.P,J25,3,Pin_3*%
%TO.N,MISC_1*%
X76650000Y-69024000D03*
%TD*%
D10*
%TO.P,J8,1,Pin_1*%
%TO.N,GND*%
X189860206Y-67005000D03*
D11*
%TO.P,J8,2,Pin_2*%
%TO.N,SVR_PWR*%
X189860206Y-69545000D03*
%TO.P,J8,3,Pin_3*%
%TO.N,SRV_8*%
X189860206Y-72085000D03*
%TD*%
D16*
%TO.N,LA_TX*%
X209486000Y-97757642D02*
X207740358Y-96012000D01*
X202692000Y-95504000D02*
X202692000Y-94560000D01*
X207740358Y-96012000D02*
X203200000Y-96012000D01*
X203200000Y-96012000D02*
X202692000Y-95504000D01*
X202692000Y-94560000D02*
X199363000Y-91231000D01*
%TO.N,LA_RX*%
X206946000Y-97757642D02*
X205389642Y-99314000D01*
X205389642Y-99314000D02*
X202946000Y-99314000D01*
X202946000Y-99314000D02*
X201930000Y-98298000D01*
X201930000Y-98298000D02*
X201930000Y-96338000D01*
X201930000Y-96338000D02*
X199363000Y-93771000D01*
%TO.N,T_RX*%
X205740000Y-91186000D02*
X205486000Y-91440000D01*
X165608000Y-90041000D02*
X169338000Y-93771000D01*
X202946000Y-91440000D02*
X201930000Y-90424000D01*
X205740000Y-91184928D02*
X205740000Y-91186000D01*
X205486000Y-91440000D02*
X202946000Y-91440000D01*
X206946000Y-89978928D02*
X205740000Y-91184928D01*
X201930000Y-90424000D02*
X201930000Y-82550000D01*
X167132000Y-80518000D02*
X165608000Y-82042000D01*
X201930000Y-82550000D02*
X199898000Y-80518000D01*
X199898000Y-80518000D02*
X167132000Y-80518000D01*
X165608000Y-82042000D02*
X165608000Y-90041000D01*
%TO.N,T_TX*%
X166370000Y-88263000D02*
X166370000Y-82042000D01*
X199898000Y-81026000D02*
X201422000Y-82550000D01*
X169338000Y-91231000D02*
X166370000Y-88263000D01*
X201422000Y-82550000D02*
X201422000Y-90424000D01*
X203200000Y-92202000D02*
X207262928Y-92202000D01*
X207262928Y-92202000D02*
X209486000Y-89978928D01*
X166370000Y-82042000D02*
X167386000Y-81026000D01*
X167386000Y-81026000D02*
X199898000Y-81026000D01*
X201422000Y-90424000D02*
X203200000Y-92202000D01*
%TO.N,H_TX*%
X139313000Y-91231000D02*
X134620000Y-86538000D01*
X134620000Y-82296000D02*
X138176000Y-78740000D01*
X138176000Y-78740000D02*
X199390001Y-78740000D01*
X207612214Y-84074000D02*
X209486000Y-82200214D01*
X199390001Y-78740000D02*
X202339600Y-81689599D01*
X134620000Y-86538000D02*
X134620000Y-82296000D01*
X202339600Y-81689599D02*
X202339600Y-83467601D01*
X202339600Y-83467601D02*
X202945999Y-84074000D01*
X202945999Y-84074000D02*
X207612214Y-84074000D01*
%TO.N,H_RX*%
X206946000Y-82200214D02*
X206946000Y-83122000D01*
X206946000Y-83122000D02*
X206346400Y-83721600D01*
X206346400Y-83721600D02*
X203091968Y-83721600D01*
X199126369Y-77978000D02*
X133096000Y-77978000D01*
X203091968Y-83721600D02*
X202692000Y-83321632D01*
X133096000Y-77978000D02*
X133096000Y-87554000D01*
X202692000Y-83321632D02*
X202692000Y-81543631D01*
X202692000Y-81543631D02*
X199126369Y-77978000D01*
X133096000Y-87554000D02*
X139313000Y-93771000D01*
D17*
%TO.N,RA_RX*%
X206946000Y-74421500D02*
X205421500Y-75946000D01*
X205421500Y-75946000D02*
X113030000Y-75946000D01*
X113030000Y-75946000D02*
X106934000Y-82042000D01*
X106934000Y-82042000D02*
X106934000Y-91417000D01*
X106934000Y-91417000D02*
X109288000Y-93771000D01*
%TO.N,RA_TX*%
X209486000Y-74421500D02*
X207453500Y-76454000D01*
X207453500Y-76454000D02*
X113792000Y-76454000D01*
X113792000Y-76454000D02*
X107950000Y-82296000D01*
X107950000Y-82296000D02*
X107950000Y-89893000D01*
X107950000Y-89893000D02*
X109288000Y-91231000D01*
%TD*%
%TA.AperFunction,Conductor*%
%TO.N,5V*%
G36*
X80461557Y-62249685D02*
G01*
X80507312Y-62302489D01*
X80518516Y-62353479D01*
X80772000Y-122936000D01*
X83140255Y-122936000D01*
X83207294Y-122955685D01*
X83253049Y-123008489D01*
X83262993Y-123077647D01*
X83233968Y-123141203D01*
X83211378Y-123161575D01*
X83061764Y-123266334D01*
X82903334Y-123424764D01*
X82774819Y-123608304D01*
X82774818Y-123608306D01*
X82680129Y-123811368D01*
X82680126Y-123811374D01*
X82622137Y-124027791D01*
X82622136Y-124027799D01*
X82602609Y-124250998D01*
X82602609Y-124251001D01*
X82622136Y-124474200D01*
X82622137Y-124474208D01*
X82680126Y-124690625D01*
X82680127Y-124690627D01*
X82680128Y-124690630D01*
X82695689Y-124724000D01*
X82774819Y-124893696D01*
X82774821Y-124893700D01*
X82903329Y-125077228D01*
X82903334Y-125077234D01*
X83061765Y-125235665D01*
X83061771Y-125235670D01*
X83245299Y-125364178D01*
X83245301Y-125364179D01*
X83245304Y-125364181D01*
X83340600Y-125408618D01*
X83393039Y-125454790D01*
X83412191Y-125521984D01*
X83391975Y-125588865D01*
X83340600Y-125633382D01*
X83245306Y-125677818D01*
X83245304Y-125677819D01*
X83061764Y-125806334D01*
X82903334Y-125964764D01*
X82774819Y-126148304D01*
X82774818Y-126148306D01*
X82680129Y-126351368D01*
X82680126Y-126351374D01*
X82622137Y-126567791D01*
X82622136Y-126567799D01*
X82602609Y-126790998D01*
X82602609Y-126791001D01*
X82622136Y-127014200D01*
X82622137Y-127014208D01*
X82680126Y-127230625D01*
X82680127Y-127230627D01*
X82680128Y-127230630D01*
X82774819Y-127433696D01*
X82774821Y-127433700D01*
X82903329Y-127617228D01*
X82903334Y-127617234D01*
X83061765Y-127775665D01*
X83061771Y-127775670D01*
X83245299Y-127904178D01*
X83245301Y-127904179D01*
X83245304Y-127904181D01*
X83341190Y-127948893D01*
X83393630Y-127995065D01*
X83412782Y-128062258D01*
X83392567Y-128129139D01*
X83341192Y-128173657D01*
X83245554Y-128218254D01*
X83176887Y-128266334D01*
X83742260Y-128831707D01*
X83687288Y-128846437D01*
X83568713Y-128914896D01*
X83471896Y-129011713D01*
X83403437Y-129130288D01*
X83388707Y-129185260D01*
X82823334Y-128619887D01*
X82775253Y-128688556D01*
X82680600Y-128891540D01*
X82680596Y-128891549D01*
X82622632Y-129107875D01*
X82622630Y-129107886D01*
X82603111Y-129330997D01*
X82603111Y-129331002D01*
X82622630Y-129554113D01*
X82622632Y-129554124D01*
X82680596Y-129770450D01*
X82680600Y-129770459D01*
X82775252Y-129973443D01*
X82775253Y-129973445D01*
X82823334Y-130042112D01*
X83388707Y-129476739D01*
X83403437Y-129531712D01*
X83471896Y-129650287D01*
X83568713Y-129747104D01*
X83687288Y-129815563D01*
X83742259Y-129830292D01*
X83176886Y-130395664D01*
X83245555Y-130443746D01*
X83448540Y-130538399D01*
X83448549Y-130538403D01*
X83664875Y-130596367D01*
X83664886Y-130596369D01*
X83887998Y-130615889D01*
X83888002Y-130615889D01*
X84111113Y-130596369D01*
X84111124Y-130596367D01*
X84327450Y-130538403D01*
X84327459Y-130538399D01*
X84530445Y-130443746D01*
X84530451Y-130443742D01*
X84599112Y-130395665D01*
X84033739Y-129830292D01*
X84088712Y-129815563D01*
X84207287Y-129747104D01*
X84304104Y-129650287D01*
X84372563Y-129531712D01*
X84387292Y-129476739D01*
X84952665Y-130042112D01*
X85000742Y-129973451D01*
X85000746Y-129973445D01*
X85095399Y-129770459D01*
X85095403Y-129770450D01*
X85153367Y-129554124D01*
X85153369Y-129554113D01*
X85172889Y-129331002D01*
X85172889Y-129330997D01*
X85153369Y-129107886D01*
X85153367Y-129107875D01*
X85095403Y-128891549D01*
X85095399Y-128891540D01*
X85000747Y-128688557D01*
X85000746Y-128688555D01*
X84952664Y-128619887D01*
X84952664Y-128619886D01*
X84387292Y-129185259D01*
X84372563Y-129130288D01*
X84304104Y-129011713D01*
X84207287Y-128914896D01*
X84088712Y-128846437D01*
X84033740Y-128831707D01*
X84599112Y-128266334D01*
X84599112Y-128266333D01*
X84530445Y-128218253D01*
X84530443Y-128218252D01*
X84434808Y-128173657D01*
X84382369Y-128127485D01*
X84363217Y-128060291D01*
X84383433Y-127993410D01*
X84434804Y-127948895D01*
X84530696Y-127904181D01*
X84714233Y-127775667D01*
X84872667Y-127617233D01*
X85001181Y-127433696D01*
X85095872Y-127230630D01*
X85153863Y-127014206D01*
X85173391Y-126791000D01*
X85153863Y-126567794D01*
X85095872Y-126351370D01*
X85001181Y-126148305D01*
X84936924Y-126056536D01*
X84872668Y-125964768D01*
X84805932Y-125898032D01*
X84714233Y-125806333D01*
X84714229Y-125806330D01*
X84714228Y-125806329D01*
X84530700Y-125677821D01*
X84530692Y-125677817D01*
X84435400Y-125633382D01*
X84382960Y-125587210D01*
X84363808Y-125520017D01*
X84384023Y-125453135D01*
X84435400Y-125408618D01*
X84530696Y-125364181D01*
X84714233Y-125235667D01*
X84872667Y-125077233D01*
X85001181Y-124893696D01*
X85095872Y-124690630D01*
X85153863Y-124474206D01*
X85173391Y-124251000D01*
X85153863Y-124027794D01*
X85095872Y-123811370D01*
X85001181Y-123608305D01*
X84872667Y-123424767D01*
X84714233Y-123266333D01*
X84564622Y-123161574D01*
X84520999Y-123106998D01*
X84513806Y-123037499D01*
X84545328Y-122975145D01*
X84605558Y-122939731D01*
X84635747Y-122936000D01*
X86490000Y-122936000D01*
X86557039Y-122955685D01*
X86602794Y-123008489D01*
X86614000Y-123060000D01*
X86614000Y-127508000D01*
X108162297Y-127508000D01*
X108229336Y-127527685D01*
X108263871Y-127560876D01*
X108303333Y-127617233D01*
X108461765Y-127775665D01*
X108461771Y-127775670D01*
X108645299Y-127904178D01*
X108645301Y-127904179D01*
X108645304Y-127904181D01*
X108740600Y-127948618D01*
X108793039Y-127994790D01*
X108812191Y-128061984D01*
X108791975Y-128128865D01*
X108740600Y-128173382D01*
X108645306Y-128217818D01*
X108645304Y-128217819D01*
X108461764Y-128346334D01*
X108303334Y-128504764D01*
X108174819Y-128688304D01*
X108174818Y-128688306D01*
X108080129Y-128891368D01*
X108080126Y-128891374D01*
X108022137Y-129107791D01*
X108022136Y-129107799D01*
X108002609Y-129330998D01*
X108002609Y-129331001D01*
X108022136Y-129554200D01*
X108022137Y-129554208D01*
X108080126Y-129770625D01*
X108080127Y-129770627D01*
X108080128Y-129770630D01*
X108101081Y-129815563D01*
X108174819Y-129973696D01*
X108174821Y-129973700D01*
X108303329Y-130157228D01*
X108303334Y-130157234D01*
X108461765Y-130315665D01*
X108461771Y-130315670D01*
X108645299Y-130444178D01*
X108645301Y-130444179D01*
X108645304Y-130444181D01*
X108848370Y-130538872D01*
X109064794Y-130596863D01*
X109224226Y-130610811D01*
X109287998Y-130616391D01*
X109288000Y-130616391D01*
X109288002Y-130616391D01*
X109343801Y-130611509D01*
X109511206Y-130596863D01*
X109727630Y-130538872D01*
X109930696Y-130444181D01*
X110114233Y-130315667D01*
X110272667Y-130157233D01*
X110401181Y-129973696D01*
X110495872Y-129770630D01*
X110553863Y-129554206D01*
X110573391Y-129331000D01*
X110553863Y-129107794D01*
X110495872Y-128891370D01*
X110401181Y-128688305D01*
X110336924Y-128596536D01*
X110272668Y-128504768D01*
X110272664Y-128504764D01*
X110114233Y-128346333D01*
X110114229Y-128346330D01*
X110114228Y-128346329D01*
X109930700Y-128217821D01*
X109930692Y-128217817D01*
X109835400Y-128173382D01*
X109782960Y-128127210D01*
X109763808Y-128060017D01*
X109784023Y-127993135D01*
X109835400Y-127948618D01*
X109930696Y-127904181D01*
X110114233Y-127775667D01*
X110272667Y-127617233D01*
X110312129Y-127560876D01*
X110366706Y-127517251D01*
X110413703Y-127508000D01*
X112787297Y-127508000D01*
X112854336Y-127527685D01*
X112888871Y-127560876D01*
X112928333Y-127617233D01*
X113086765Y-127775665D01*
X113086771Y-127775670D01*
X113270299Y-127904178D01*
X113270301Y-127904179D01*
X113270304Y-127904181D01*
X113366190Y-127948893D01*
X113418630Y-127995065D01*
X113437782Y-128062258D01*
X113417567Y-128129139D01*
X113366192Y-128173657D01*
X113270554Y-128218254D01*
X113201887Y-128266334D01*
X113767260Y-128831707D01*
X113712288Y-128846437D01*
X113593713Y-128914896D01*
X113496896Y-129011713D01*
X113428437Y-129130288D01*
X113413707Y-129185260D01*
X112848334Y-128619887D01*
X112800253Y-128688556D01*
X112705600Y-128891540D01*
X112705596Y-128891549D01*
X112647632Y-129107875D01*
X112647630Y-129107886D01*
X112628111Y-129330997D01*
X112628111Y-129331002D01*
X112647630Y-129554113D01*
X112647632Y-129554124D01*
X112705596Y-129770450D01*
X112705600Y-129770459D01*
X112800252Y-129973443D01*
X112800253Y-129973445D01*
X112848334Y-130042112D01*
X113413707Y-129476739D01*
X113428437Y-129531712D01*
X113496896Y-129650287D01*
X113593713Y-129747104D01*
X113712288Y-129815563D01*
X113767259Y-129830292D01*
X113201886Y-130395664D01*
X113270555Y-130443746D01*
X113473540Y-130538399D01*
X113473549Y-130538403D01*
X113689875Y-130596367D01*
X113689886Y-130596369D01*
X113912998Y-130615889D01*
X113913002Y-130615889D01*
X114136113Y-130596369D01*
X114136124Y-130596367D01*
X114352450Y-130538403D01*
X114352459Y-130538399D01*
X114555445Y-130443746D01*
X114555451Y-130443742D01*
X114624112Y-130395665D01*
X114058739Y-129830292D01*
X114113712Y-129815563D01*
X114232287Y-129747104D01*
X114329104Y-129650287D01*
X114397563Y-129531712D01*
X114412292Y-129476739D01*
X114977665Y-130042112D01*
X115025742Y-129973451D01*
X115025746Y-129973445D01*
X115120399Y-129770459D01*
X115120403Y-129770450D01*
X115178367Y-129554124D01*
X115178369Y-129554113D01*
X115197889Y-129331002D01*
X115197889Y-129330997D01*
X115178369Y-129107886D01*
X115178367Y-129107875D01*
X115120403Y-128891549D01*
X115120399Y-128891540D01*
X115025747Y-128688557D01*
X115025746Y-128688555D01*
X114977664Y-128619887D01*
X114977664Y-128619886D01*
X114412292Y-129185259D01*
X114397563Y-129130288D01*
X114329104Y-129011713D01*
X114232287Y-128914896D01*
X114113712Y-128846437D01*
X114058740Y-128831707D01*
X114624112Y-128266334D01*
X114624112Y-128266333D01*
X114555445Y-128218253D01*
X114555443Y-128218252D01*
X114459808Y-128173657D01*
X114407369Y-128127485D01*
X114388217Y-128060291D01*
X114408433Y-127993410D01*
X114459804Y-127948895D01*
X114555696Y-127904181D01*
X114739233Y-127775667D01*
X114897667Y-127617233D01*
X114937129Y-127560876D01*
X114991706Y-127517251D01*
X115038703Y-127508000D01*
X138187297Y-127508000D01*
X138254336Y-127527685D01*
X138288871Y-127560876D01*
X138328333Y-127617233D01*
X138486765Y-127775665D01*
X138486771Y-127775670D01*
X138670299Y-127904178D01*
X138670301Y-127904179D01*
X138670304Y-127904181D01*
X138765600Y-127948618D01*
X138818039Y-127994790D01*
X138837191Y-128061984D01*
X138816975Y-128128865D01*
X138765600Y-128173382D01*
X138670306Y-128217818D01*
X138670304Y-128217819D01*
X138486764Y-128346334D01*
X138328334Y-128504764D01*
X138199819Y-128688304D01*
X138199818Y-128688306D01*
X138105129Y-128891368D01*
X138105126Y-128891374D01*
X138047137Y-129107791D01*
X138047136Y-129107799D01*
X138027609Y-129330998D01*
X138027609Y-129331001D01*
X138047136Y-129554200D01*
X138047137Y-129554208D01*
X138105126Y-129770625D01*
X138105127Y-129770627D01*
X138105128Y-129770630D01*
X138126081Y-129815563D01*
X138199819Y-129973696D01*
X138199821Y-129973700D01*
X138328329Y-130157228D01*
X138328334Y-130157234D01*
X138486765Y-130315665D01*
X138486771Y-130315670D01*
X138670299Y-130444178D01*
X138670301Y-130444179D01*
X138670304Y-130444181D01*
X138873370Y-130538872D01*
X139089794Y-130596863D01*
X139249226Y-130610811D01*
X139312998Y-130616391D01*
X139313000Y-130616391D01*
X139313002Y-130616391D01*
X139368801Y-130611509D01*
X139536206Y-130596863D01*
X139752630Y-130538872D01*
X139955696Y-130444181D01*
X140139233Y-130315667D01*
X140297667Y-130157233D01*
X140426181Y-129973696D01*
X140520872Y-129770630D01*
X140578863Y-129554206D01*
X140598391Y-129331000D01*
X140578863Y-129107794D01*
X140520872Y-128891370D01*
X140426181Y-128688305D01*
X140361924Y-128596536D01*
X140297668Y-128504768D01*
X140297664Y-128504764D01*
X140139233Y-128346333D01*
X140139229Y-128346330D01*
X140139228Y-128346329D01*
X139955700Y-128217821D01*
X139955692Y-128217817D01*
X139860400Y-128173382D01*
X139807960Y-128127210D01*
X139788808Y-128060017D01*
X139809023Y-127993135D01*
X139860400Y-127948618D01*
X139955696Y-127904181D01*
X140139233Y-127775667D01*
X140297667Y-127617233D01*
X140337129Y-127560876D01*
X140391706Y-127517251D01*
X140438703Y-127508000D01*
X142812297Y-127508000D01*
X142879336Y-127527685D01*
X142913871Y-127560876D01*
X142953333Y-127617233D01*
X143111765Y-127775665D01*
X143111771Y-127775670D01*
X143295299Y-127904178D01*
X143295301Y-127904179D01*
X143295304Y-127904181D01*
X143391190Y-127948893D01*
X143443630Y-127995065D01*
X143462782Y-128062258D01*
X143442567Y-128129139D01*
X143391192Y-128173657D01*
X143295554Y-128218254D01*
X143226887Y-128266334D01*
X143792260Y-128831707D01*
X143737288Y-128846437D01*
X143618713Y-128914896D01*
X143521896Y-129011713D01*
X143453437Y-129130288D01*
X143438707Y-129185260D01*
X142873334Y-128619887D01*
X142825253Y-128688556D01*
X142730600Y-128891540D01*
X142730596Y-128891549D01*
X142672632Y-129107875D01*
X142672630Y-129107886D01*
X142653111Y-129330997D01*
X142653111Y-129331002D01*
X142672630Y-129554113D01*
X142672632Y-129554124D01*
X142730596Y-129770450D01*
X142730600Y-129770459D01*
X142825252Y-129973443D01*
X142825253Y-129973445D01*
X142873334Y-130042112D01*
X143438707Y-129476739D01*
X143453437Y-129531712D01*
X143521896Y-129650287D01*
X143618713Y-129747104D01*
X143737288Y-129815563D01*
X143792259Y-129830292D01*
X143226886Y-130395664D01*
X143295555Y-130443746D01*
X143498540Y-130538399D01*
X143498549Y-130538403D01*
X143714875Y-130596367D01*
X143714886Y-130596369D01*
X143937998Y-130615889D01*
X143938002Y-130615889D01*
X144161113Y-130596369D01*
X144161124Y-130596367D01*
X144377450Y-130538403D01*
X144377459Y-130538399D01*
X144580445Y-130443746D01*
X144580451Y-130443742D01*
X144649112Y-130395665D01*
X144083739Y-129830292D01*
X144138712Y-129815563D01*
X144257287Y-129747104D01*
X144354104Y-129650287D01*
X144422563Y-129531712D01*
X144437292Y-129476739D01*
X145002665Y-130042112D01*
X145050742Y-129973451D01*
X145050746Y-129973445D01*
X145145399Y-129770459D01*
X145145403Y-129770450D01*
X145203367Y-129554124D01*
X145203369Y-129554113D01*
X145222889Y-129331002D01*
X145222889Y-129330997D01*
X145203369Y-129107886D01*
X145203367Y-129107875D01*
X145145403Y-128891549D01*
X145145399Y-128891540D01*
X145050747Y-128688557D01*
X145050746Y-128688555D01*
X145002664Y-128619887D01*
X145002664Y-128619886D01*
X144437292Y-129185259D01*
X144422563Y-129130288D01*
X144354104Y-129011713D01*
X144257287Y-128914896D01*
X144138712Y-128846437D01*
X144083740Y-128831707D01*
X144649112Y-128266334D01*
X144649112Y-128266333D01*
X144580445Y-128218253D01*
X144580443Y-128218252D01*
X144484808Y-128173657D01*
X144432369Y-128127485D01*
X144413217Y-128060291D01*
X144433433Y-127993410D01*
X144484804Y-127948895D01*
X144580696Y-127904181D01*
X144764233Y-127775667D01*
X144922667Y-127617233D01*
X144962129Y-127560876D01*
X145016706Y-127517251D01*
X145063703Y-127508000D01*
X168212297Y-127508000D01*
X168279336Y-127527685D01*
X168313871Y-127560876D01*
X168353333Y-127617233D01*
X168511765Y-127775665D01*
X168511771Y-127775670D01*
X168695299Y-127904178D01*
X168695301Y-127904179D01*
X168695304Y-127904181D01*
X168790600Y-127948618D01*
X168843039Y-127994790D01*
X168862191Y-128061984D01*
X168841975Y-128128865D01*
X168790600Y-128173382D01*
X168695306Y-128217818D01*
X168695304Y-128217819D01*
X168511764Y-128346334D01*
X168353334Y-128504764D01*
X168224819Y-128688304D01*
X168224818Y-128688306D01*
X168130129Y-128891368D01*
X168130126Y-128891374D01*
X168072137Y-129107791D01*
X168072136Y-129107799D01*
X168052609Y-129330998D01*
X168052609Y-129331001D01*
X168072136Y-129554200D01*
X168072137Y-129554208D01*
X168130126Y-129770625D01*
X168130127Y-129770627D01*
X168130128Y-129770630D01*
X168151081Y-129815563D01*
X168224819Y-129973696D01*
X168224821Y-129973700D01*
X168353329Y-130157228D01*
X168353334Y-130157234D01*
X168511765Y-130315665D01*
X168511771Y-130315670D01*
X168695299Y-130444178D01*
X168695301Y-130444179D01*
X168695304Y-130444181D01*
X168898370Y-130538872D01*
X169114794Y-130596863D01*
X169274226Y-130610811D01*
X169337998Y-130616391D01*
X169338000Y-130616391D01*
X169338002Y-130616391D01*
X169393801Y-130611509D01*
X169561206Y-130596863D01*
X169777630Y-130538872D01*
X169980696Y-130444181D01*
X170164233Y-130315667D01*
X170322667Y-130157233D01*
X170451181Y-129973696D01*
X170545872Y-129770630D01*
X170603863Y-129554206D01*
X170623391Y-129331000D01*
X170603863Y-129107794D01*
X170545872Y-128891370D01*
X170451181Y-128688305D01*
X170386924Y-128596536D01*
X170322668Y-128504768D01*
X170322664Y-128504764D01*
X170164233Y-128346333D01*
X170164229Y-128346330D01*
X170164228Y-128346329D01*
X169980700Y-128217821D01*
X169980692Y-128217817D01*
X169885400Y-128173382D01*
X169832960Y-128127210D01*
X169813808Y-128060017D01*
X169834023Y-127993135D01*
X169885400Y-127948618D01*
X169980696Y-127904181D01*
X170164233Y-127775667D01*
X170322667Y-127617233D01*
X170362129Y-127560876D01*
X170416706Y-127517251D01*
X170463703Y-127508000D01*
X172837297Y-127508000D01*
X172904336Y-127527685D01*
X172938871Y-127560876D01*
X172978333Y-127617233D01*
X173136765Y-127775665D01*
X173136771Y-127775670D01*
X173320299Y-127904178D01*
X173320301Y-127904179D01*
X173320304Y-127904181D01*
X173416190Y-127948893D01*
X173468630Y-127995065D01*
X173487782Y-128062258D01*
X173467567Y-128129139D01*
X173416192Y-128173657D01*
X173320554Y-128218254D01*
X173251887Y-128266334D01*
X173817260Y-128831707D01*
X173762288Y-128846437D01*
X173643713Y-128914896D01*
X173546896Y-129011713D01*
X173478437Y-129130288D01*
X173463707Y-129185260D01*
X172898334Y-128619887D01*
X172850253Y-128688556D01*
X172755600Y-128891540D01*
X172755596Y-128891549D01*
X172697632Y-129107875D01*
X172697630Y-129107886D01*
X172678111Y-129330997D01*
X172678111Y-129331002D01*
X172697630Y-129554113D01*
X172697632Y-129554124D01*
X172755596Y-129770450D01*
X172755600Y-129770459D01*
X172850252Y-129973443D01*
X172850253Y-129973445D01*
X172898334Y-130042112D01*
X173463707Y-129476739D01*
X173478437Y-129531712D01*
X173546896Y-129650287D01*
X173643713Y-129747104D01*
X173762288Y-129815563D01*
X173817259Y-129830292D01*
X173251886Y-130395664D01*
X173320555Y-130443746D01*
X173523540Y-130538399D01*
X173523549Y-130538403D01*
X173739875Y-130596367D01*
X173739886Y-130596369D01*
X173962998Y-130615889D01*
X173963002Y-130615889D01*
X174186113Y-130596369D01*
X174186124Y-130596367D01*
X174402450Y-130538403D01*
X174402459Y-130538399D01*
X174605445Y-130443746D01*
X174605451Y-130443742D01*
X174674112Y-130395665D01*
X174108739Y-129830292D01*
X174163712Y-129815563D01*
X174282287Y-129747104D01*
X174379104Y-129650287D01*
X174447563Y-129531712D01*
X174462292Y-129476739D01*
X175027665Y-130042112D01*
X175075742Y-129973451D01*
X175075746Y-129973445D01*
X175170399Y-129770459D01*
X175170403Y-129770450D01*
X175228367Y-129554124D01*
X175228369Y-129554113D01*
X175247889Y-129331002D01*
X175247889Y-129330997D01*
X175228369Y-129107886D01*
X175228367Y-129107875D01*
X175170403Y-128891549D01*
X175170399Y-128891540D01*
X175075747Y-128688557D01*
X175075746Y-128688555D01*
X175027664Y-128619887D01*
X175027664Y-128619886D01*
X174462292Y-129185259D01*
X174447563Y-129130288D01*
X174379104Y-129011713D01*
X174282287Y-128914896D01*
X174163712Y-128846437D01*
X174108740Y-128831707D01*
X174674112Y-128266334D01*
X174674112Y-128266333D01*
X174605445Y-128218253D01*
X174605443Y-128218252D01*
X174509808Y-128173657D01*
X174457369Y-128127485D01*
X174438217Y-128060291D01*
X174458433Y-127993410D01*
X174509804Y-127948895D01*
X174605696Y-127904181D01*
X174789233Y-127775667D01*
X174947667Y-127617233D01*
X174987129Y-127560876D01*
X175041706Y-127517251D01*
X175088703Y-127508000D01*
X198237297Y-127508000D01*
X198304336Y-127527685D01*
X198338871Y-127560876D01*
X198378333Y-127617233D01*
X198536765Y-127775665D01*
X198536771Y-127775670D01*
X198720299Y-127904178D01*
X198720301Y-127904179D01*
X198720304Y-127904181D01*
X198815600Y-127948618D01*
X198868039Y-127994790D01*
X198887191Y-128061984D01*
X198866975Y-128128865D01*
X198815600Y-128173382D01*
X198720306Y-128217818D01*
X198720304Y-128217819D01*
X198536764Y-128346334D01*
X198378334Y-128504764D01*
X198249819Y-128688304D01*
X198249818Y-128688306D01*
X198155129Y-128891368D01*
X198155126Y-128891374D01*
X198097137Y-129107791D01*
X198097136Y-129107799D01*
X198077609Y-129330998D01*
X198077609Y-129331001D01*
X198097136Y-129554200D01*
X198097137Y-129554208D01*
X198155126Y-129770625D01*
X198155127Y-129770627D01*
X198155128Y-129770630D01*
X198176081Y-129815563D01*
X198249819Y-129973696D01*
X198249821Y-129973700D01*
X198378329Y-130157228D01*
X198378334Y-130157234D01*
X198536765Y-130315665D01*
X198536771Y-130315670D01*
X198720299Y-130444178D01*
X198720301Y-130444179D01*
X198720304Y-130444181D01*
X198923370Y-130538872D01*
X199139794Y-130596863D01*
X199299226Y-130610811D01*
X199362998Y-130616391D01*
X199363000Y-130616391D01*
X199363002Y-130616391D01*
X199418801Y-130611509D01*
X199586206Y-130596863D01*
X199802630Y-130538872D01*
X200005696Y-130444181D01*
X200189233Y-130315667D01*
X200347667Y-130157233D01*
X200476181Y-129973696D01*
X200570872Y-129770630D01*
X200628863Y-129554206D01*
X200648391Y-129331000D01*
X200628863Y-129107794D01*
X200570872Y-128891370D01*
X200476181Y-128688305D01*
X200411924Y-128596536D01*
X200347668Y-128504768D01*
X200347664Y-128504764D01*
X200189233Y-128346333D01*
X200189229Y-128346330D01*
X200189228Y-128346329D01*
X200005700Y-128217821D01*
X200005692Y-128217817D01*
X199910400Y-128173382D01*
X199857960Y-128127210D01*
X199838808Y-128060017D01*
X199859023Y-127993135D01*
X199910400Y-127948618D01*
X200005696Y-127904181D01*
X200189233Y-127775667D01*
X200347667Y-127617233D01*
X200387129Y-127560876D01*
X200441706Y-127517251D01*
X200488703Y-127508000D01*
X203961999Y-127508000D01*
X203962000Y-127508000D01*
X204003731Y-123919135D01*
X207766500Y-123919135D01*
X207766500Y-126614870D01*
X207766501Y-126614876D01*
X207772908Y-126674483D01*
X207823202Y-126809328D01*
X207823206Y-126809335D01*
X207909452Y-126924544D01*
X207909455Y-126924547D01*
X208024664Y-127010793D01*
X208024671Y-127010797D01*
X208159517Y-127061091D01*
X208159516Y-127061091D01*
X208166444Y-127061835D01*
X208219127Y-127067500D01*
X210914872Y-127067499D01*
X210974483Y-127061091D01*
X211109331Y-127010796D01*
X211224546Y-126924546D01*
X211310796Y-126809331D01*
X211361091Y-126674483D01*
X211367500Y-126614873D01*
X211367499Y-123919128D01*
X211361091Y-123859517D01*
X211343133Y-123811370D01*
X211310797Y-123724671D01*
X211310793Y-123724664D01*
X211224547Y-123609455D01*
X211224544Y-123609452D01*
X211109335Y-123523206D01*
X211109328Y-123523202D01*
X210974482Y-123472908D01*
X210974483Y-123472908D01*
X210914883Y-123466501D01*
X210914881Y-123466500D01*
X210914873Y-123466500D01*
X210914864Y-123466500D01*
X208219129Y-123466500D01*
X208219123Y-123466501D01*
X208159516Y-123472908D01*
X208024671Y-123523202D01*
X208024664Y-123523206D01*
X207909455Y-123609452D01*
X207909452Y-123609455D01*
X207823206Y-123724664D01*
X207823202Y-123724671D01*
X207772908Y-123859517D01*
X207766501Y-123919116D01*
X207766501Y-123919123D01*
X207766500Y-123919135D01*
X204003731Y-123919135D01*
X204047128Y-120186995D01*
X207761953Y-120186995D01*
X207761953Y-120187004D01*
X207782113Y-120456026D01*
X207782113Y-120456028D01*
X207842142Y-120719033D01*
X207842148Y-120719052D01*
X207940709Y-120970181D01*
X207940708Y-120970181D01*
X208075602Y-121203822D01*
X208129294Y-121271151D01*
X208965957Y-120434487D01*
X208990978Y-120494890D01*
X209062112Y-120601351D01*
X209152649Y-120691888D01*
X209259110Y-120763022D01*
X209319510Y-120788041D01*
X208481848Y-121625702D01*
X208664483Y-121750220D01*
X208664485Y-121750221D01*
X208907539Y-121867269D01*
X208907537Y-121867269D01*
X209165337Y-121946790D01*
X209165343Y-121946792D01*
X209432101Y-121986999D01*
X209432110Y-121987000D01*
X209701890Y-121987000D01*
X209701898Y-121986999D01*
X209968656Y-121946792D01*
X209968662Y-121946790D01*
X210226461Y-121867269D01*
X210469521Y-121750218D01*
X210652150Y-121625702D01*
X209814488Y-120788041D01*
X209874890Y-120763022D01*
X209981351Y-120691888D01*
X210071888Y-120601351D01*
X210143022Y-120494890D01*
X210168041Y-120434488D01*
X211004703Y-121271151D01*
X211004704Y-121271150D01*
X211058393Y-121203828D01*
X211058400Y-121203817D01*
X211193290Y-120970181D01*
X211291851Y-120719052D01*
X211291857Y-120719033D01*
X211351886Y-120456028D01*
X211351886Y-120456026D01*
X211372047Y-120187004D01*
X211372047Y-120186995D01*
X211351886Y-119917973D01*
X211351886Y-119917971D01*
X211291857Y-119654966D01*
X211291851Y-119654947D01*
X211193290Y-119403818D01*
X211193291Y-119403818D01*
X211058397Y-119170177D01*
X211004704Y-119102847D01*
X210168041Y-119939510D01*
X210143022Y-119879110D01*
X210071888Y-119772649D01*
X209981351Y-119682112D01*
X209874890Y-119610978D01*
X209814488Y-119585958D01*
X210652150Y-118748296D01*
X210469517Y-118623779D01*
X210469516Y-118623778D01*
X210226460Y-118506730D01*
X210226462Y-118506730D01*
X209968662Y-118427209D01*
X209968656Y-118427207D01*
X209701898Y-118387000D01*
X209432101Y-118387000D01*
X209165343Y-118427207D01*
X209165337Y-118427209D01*
X208907538Y-118506730D01*
X208664485Y-118623778D01*
X208664476Y-118623783D01*
X208481848Y-118748296D01*
X209319511Y-119585958D01*
X209259110Y-119610978D01*
X209152649Y-119682112D01*
X209062112Y-119772649D01*
X208990978Y-119879110D01*
X208965958Y-119939511D01*
X208129295Y-119102848D01*
X208075600Y-119170180D01*
X207940709Y-119403818D01*
X207842148Y-119654947D01*
X207842142Y-119654966D01*
X207782113Y-119917971D01*
X207782113Y-119917973D01*
X207761953Y-120186995D01*
X204047128Y-120186995D01*
X204142266Y-112005135D01*
X207766500Y-112005135D01*
X207766500Y-114700870D01*
X207766501Y-114700876D01*
X207772908Y-114760483D01*
X207823202Y-114895328D01*
X207823206Y-114895335D01*
X207909452Y-115010544D01*
X207909455Y-115010547D01*
X208024664Y-115096793D01*
X208024671Y-115096797D01*
X208159517Y-115147091D01*
X208159516Y-115147091D01*
X208166444Y-115147835D01*
X208219127Y-115153500D01*
X210914872Y-115153499D01*
X210974483Y-115147091D01*
X211109331Y-115096796D01*
X211224546Y-115010546D01*
X211310796Y-114895331D01*
X211361091Y-114760483D01*
X211367500Y-114700873D01*
X211367499Y-112005128D01*
X211361091Y-111945517D01*
X211310796Y-111810669D01*
X211310795Y-111810668D01*
X211310793Y-111810664D01*
X211224547Y-111695455D01*
X211224544Y-111695452D01*
X211109335Y-111609206D01*
X211109328Y-111609202D01*
X210974482Y-111558908D01*
X210974483Y-111558908D01*
X210914883Y-111552501D01*
X210914881Y-111552500D01*
X210914873Y-111552500D01*
X210914864Y-111552500D01*
X208219129Y-111552500D01*
X208219123Y-111552501D01*
X208159516Y-111558908D01*
X208024671Y-111609202D01*
X208024664Y-111609206D01*
X207909455Y-111695452D01*
X207909452Y-111695455D01*
X207823206Y-111810664D01*
X207823202Y-111810671D01*
X207772908Y-111945517D01*
X207766501Y-112005116D01*
X207766501Y-112005123D01*
X207766500Y-112005135D01*
X204142266Y-112005135D01*
X204185663Y-108272995D01*
X207761953Y-108272995D01*
X207761953Y-108273004D01*
X207782113Y-108542026D01*
X207782113Y-108542028D01*
X207842142Y-108805033D01*
X207842148Y-108805052D01*
X207940709Y-109056181D01*
X207940708Y-109056181D01*
X208075602Y-109289822D01*
X208129294Y-109357151D01*
X208965957Y-108520487D01*
X208990978Y-108580890D01*
X209062112Y-108687351D01*
X209152649Y-108777888D01*
X209259110Y-108849022D01*
X209319510Y-108874041D01*
X208481848Y-109711702D01*
X208664483Y-109836220D01*
X208664485Y-109836221D01*
X208907539Y-109953269D01*
X208907537Y-109953269D01*
X209165337Y-110032790D01*
X209165343Y-110032792D01*
X209432101Y-110072999D01*
X209432110Y-110073000D01*
X209701890Y-110073000D01*
X209701898Y-110072999D01*
X209968656Y-110032792D01*
X209968662Y-110032790D01*
X210226461Y-109953269D01*
X210469521Y-109836218D01*
X210652150Y-109711702D01*
X209814488Y-108874041D01*
X209874890Y-108849022D01*
X209981351Y-108777888D01*
X210071888Y-108687351D01*
X210143022Y-108580890D01*
X210168041Y-108520488D01*
X211004703Y-109357151D01*
X211004704Y-109357150D01*
X211058393Y-109289828D01*
X211058400Y-109289817D01*
X211193290Y-109056181D01*
X211291851Y-108805052D01*
X211291857Y-108805033D01*
X211351886Y-108542028D01*
X211351886Y-108542026D01*
X211372047Y-108273004D01*
X211372047Y-108272995D01*
X211351886Y-108003973D01*
X211351886Y-108003971D01*
X211291857Y-107740966D01*
X211291851Y-107740947D01*
X211193290Y-107489818D01*
X211193291Y-107489818D01*
X211058397Y-107256177D01*
X211004704Y-107188847D01*
X210168041Y-108025510D01*
X210143022Y-107965110D01*
X210071888Y-107858649D01*
X209981351Y-107768112D01*
X209874890Y-107696978D01*
X209814488Y-107671958D01*
X210652150Y-106834296D01*
X210469517Y-106709779D01*
X210469516Y-106709778D01*
X210226460Y-106592730D01*
X210226462Y-106592730D01*
X209968662Y-106513209D01*
X209968656Y-106513207D01*
X209701898Y-106473000D01*
X209432101Y-106473000D01*
X209165343Y-106513207D01*
X209165337Y-106513209D01*
X208907538Y-106592730D01*
X208664485Y-106709778D01*
X208664476Y-106709783D01*
X208481848Y-106834296D01*
X209319511Y-107671958D01*
X209259110Y-107696978D01*
X209152649Y-107768112D01*
X209062112Y-107858649D01*
X208990978Y-107965110D01*
X208965958Y-108025511D01*
X208129295Y-107188848D01*
X208075600Y-107256180D01*
X207940709Y-107489818D01*
X207842148Y-107740947D01*
X207842142Y-107740966D01*
X207782113Y-108003971D01*
X207782113Y-108003973D01*
X207761953Y-108272995D01*
X204185663Y-108272995D01*
X204205201Y-106592730D01*
X204214575Y-105786558D01*
X204235038Y-105719752D01*
X204288370Y-105674614D01*
X204338567Y-105664000D01*
X219079386Y-105664000D01*
X219146425Y-105683685D01*
X219192180Y-105736489D01*
X219203377Y-105786605D01*
X219308552Y-115147091D01*
X219454640Y-128149004D01*
X219435710Y-128216260D01*
X219383423Y-128262606D01*
X219335074Y-128274318D01*
X212344000Y-128523999D01*
X212344000Y-134495758D01*
X212324315Y-134562797D01*
X212271511Y-134608552D01*
X212219759Y-134619758D01*
X81911759Y-134366240D01*
X81844758Y-134346425D01*
X81799106Y-134293532D01*
X81788000Y-134242240D01*
X81788000Y-131114999D01*
X204964364Y-131114999D01*
X204964364Y-131115000D01*
X205861988Y-131115000D01*
X205829075Y-131172007D01*
X205795000Y-131299174D01*
X205795000Y-131430826D01*
X205829075Y-131557993D01*
X205861988Y-131615000D01*
X204964364Y-131615000D01*
X205021567Y-131828486D01*
X205021570Y-131828492D01*
X205121399Y-132042578D01*
X205256894Y-132236082D01*
X205423917Y-132403105D01*
X205617421Y-132538600D01*
X205831507Y-132638429D01*
X205831516Y-132638433D01*
X206045000Y-132695634D01*
X206045000Y-131798012D01*
X206102007Y-131830925D01*
X206229174Y-131865000D01*
X206360826Y-131865000D01*
X206487993Y-131830925D01*
X206545000Y-131798012D01*
X206545000Y-132695633D01*
X206758483Y-132638433D01*
X206758492Y-132638429D01*
X206972578Y-132538600D01*
X207166078Y-132403108D01*
X207288133Y-132281053D01*
X207349456Y-132247568D01*
X207419148Y-132252552D01*
X207475082Y-132294423D01*
X207491997Y-132325401D01*
X207541202Y-132457328D01*
X207541206Y-132457335D01*
X207627452Y-132572544D01*
X207627455Y-132572547D01*
X207742664Y-132658793D01*
X207742671Y-132658797D01*
X207877517Y-132709091D01*
X207877516Y-132709091D01*
X207884444Y-132709835D01*
X207937127Y-132715500D01*
X209732872Y-132715499D01*
X209792483Y-132709091D01*
X209927331Y-132658796D01*
X210042546Y-132572546D01*
X210128796Y-132457331D01*
X210179091Y-132322483D01*
X210185500Y-132262873D01*
X210185499Y-130467128D01*
X210179091Y-130407517D01*
X210178002Y-130404598D01*
X210128797Y-130272671D01*
X210128793Y-130272664D01*
X210042547Y-130157455D01*
X210042544Y-130157452D01*
X209927335Y-130071206D01*
X209927328Y-130071202D01*
X209792482Y-130020908D01*
X209792483Y-130020908D01*
X209732883Y-130014501D01*
X209732881Y-130014500D01*
X209732873Y-130014500D01*
X209732864Y-130014500D01*
X207937129Y-130014500D01*
X207937123Y-130014501D01*
X207877516Y-130020908D01*
X207742671Y-130071202D01*
X207742664Y-130071206D01*
X207627455Y-130157452D01*
X207627452Y-130157455D01*
X207541206Y-130272664D01*
X207541202Y-130272671D01*
X207491997Y-130404598D01*
X207450126Y-130460532D01*
X207384661Y-130484949D01*
X207316388Y-130470097D01*
X207288134Y-130448946D01*
X207166082Y-130326894D01*
X206972578Y-130191399D01*
X206758492Y-130091570D01*
X206758486Y-130091567D01*
X206545000Y-130034364D01*
X206545000Y-130931988D01*
X206487993Y-130899075D01*
X206360826Y-130865000D01*
X206229174Y-130865000D01*
X206102007Y-130899075D01*
X206045000Y-130931988D01*
X206045000Y-130034364D01*
X206044999Y-130034364D01*
X205831513Y-130091567D01*
X205831507Y-130091570D01*
X205617422Y-130191399D01*
X205617420Y-130191400D01*
X205423926Y-130326886D01*
X205423920Y-130326891D01*
X205256891Y-130493920D01*
X205256886Y-130493926D01*
X205121400Y-130687420D01*
X205121399Y-130687422D01*
X205021570Y-130901507D01*
X205021567Y-130901513D01*
X204964364Y-131114999D01*
X81788000Y-131114999D01*
X81788000Y-128778000D01*
X75053528Y-128778000D01*
X74986489Y-128758315D01*
X74940734Y-128705511D01*
X74929529Y-128654473D01*
X74914527Y-124723999D01*
X75294341Y-124723999D01*
X75294341Y-124724000D01*
X75314936Y-124959403D01*
X75314938Y-124959413D01*
X75376094Y-125187655D01*
X75376096Y-125187659D01*
X75376097Y-125187663D01*
X75458409Y-125364181D01*
X75475965Y-125401830D01*
X75475967Y-125401834D01*
X75584281Y-125556521D01*
X75611505Y-125595401D01*
X75778599Y-125762495D01*
X75841206Y-125806333D01*
X75972165Y-125898032D01*
X75972167Y-125898033D01*
X75972170Y-125898035D01*
X76186337Y-125997903D01*
X76414592Y-126059063D01*
X76602918Y-126075539D01*
X76649999Y-126079659D01*
X76650000Y-126079659D01*
X76650001Y-126079659D01*
X76689234Y-126076226D01*
X76885408Y-126059063D01*
X77113663Y-125997903D01*
X77327830Y-125898035D01*
X77521401Y-125762495D01*
X77688495Y-125595401D01*
X77824035Y-125401830D01*
X77923903Y-125187663D01*
X77985063Y-124959408D01*
X78005659Y-124724000D01*
X77985063Y-124488592D01*
X77923903Y-124260337D01*
X77824035Y-124046171D01*
X77811168Y-124027794D01*
X77688494Y-123852597D01*
X77521402Y-123685506D01*
X77521401Y-123685505D01*
X77335405Y-123555269D01*
X77291781Y-123500692D01*
X77284588Y-123431193D01*
X77316110Y-123368839D01*
X77335405Y-123352119D01*
X77521082Y-123222105D01*
X77688105Y-123055082D01*
X77823600Y-122861578D01*
X77923429Y-122647492D01*
X77923432Y-122647486D01*
X77980636Y-122434000D01*
X77083012Y-122434000D01*
X77115925Y-122376993D01*
X77150000Y-122249826D01*
X77150000Y-122118174D01*
X77115925Y-121991007D01*
X77083012Y-121934000D01*
X77980636Y-121934000D01*
X77980635Y-121933999D01*
X77923432Y-121720513D01*
X77923429Y-121720507D01*
X77823600Y-121506422D01*
X77823599Y-121506420D01*
X77688113Y-121312926D01*
X77688108Y-121312920D01*
X77566053Y-121190865D01*
X77532568Y-121129542D01*
X77537552Y-121059850D01*
X77579424Y-121003917D01*
X77610400Y-120987002D01*
X77742331Y-120937796D01*
X77857546Y-120851546D01*
X77943796Y-120736331D01*
X77994091Y-120601483D01*
X78000500Y-120541873D01*
X78000499Y-118746128D01*
X77994091Y-118686517D01*
X77970691Y-118623779D01*
X77943797Y-118551671D01*
X77943793Y-118551664D01*
X77857547Y-118436455D01*
X77857544Y-118436452D01*
X77742335Y-118350206D01*
X77742328Y-118350202D01*
X77607482Y-118299908D01*
X77607483Y-118299908D01*
X77547883Y-118293501D01*
X77547881Y-118293500D01*
X77547873Y-118293500D01*
X77547864Y-118293500D01*
X75752129Y-118293500D01*
X75752123Y-118293501D01*
X75692516Y-118299908D01*
X75557671Y-118350202D01*
X75557664Y-118350206D01*
X75442455Y-118436452D01*
X75442452Y-118436455D01*
X75356206Y-118551664D01*
X75356202Y-118551671D01*
X75305908Y-118686517D01*
X75299501Y-118746116D01*
X75299501Y-118746123D01*
X75299500Y-118746135D01*
X75299500Y-120541870D01*
X75299501Y-120541876D01*
X75305908Y-120601483D01*
X75356202Y-120736328D01*
X75356206Y-120736335D01*
X75442452Y-120851544D01*
X75442455Y-120851547D01*
X75557664Y-120937793D01*
X75557671Y-120937797D01*
X75557674Y-120937798D01*
X75689598Y-120987002D01*
X75745531Y-121028873D01*
X75769949Y-121094337D01*
X75755098Y-121162610D01*
X75733947Y-121190865D01*
X75611886Y-121312926D01*
X75476400Y-121506420D01*
X75476399Y-121506422D01*
X75376570Y-121720507D01*
X75376567Y-121720513D01*
X75319364Y-121933999D01*
X75319364Y-121934000D01*
X76216988Y-121934000D01*
X76184075Y-121991007D01*
X76150000Y-122118174D01*
X76150000Y-122249826D01*
X76184075Y-122376993D01*
X76216988Y-122434000D01*
X75319364Y-122434000D01*
X75376567Y-122647486D01*
X75376570Y-122647492D01*
X75476399Y-122861578D01*
X75611894Y-123055082D01*
X75778917Y-123222105D01*
X75964595Y-123352119D01*
X76008219Y-123406696D01*
X76015412Y-123476195D01*
X75983890Y-123538549D01*
X75964595Y-123555269D01*
X75778594Y-123685508D01*
X75611505Y-123852597D01*
X75475965Y-124046169D01*
X75475964Y-124046171D01*
X75382401Y-124246816D01*
X75380451Y-124251001D01*
X75376098Y-124260335D01*
X75376094Y-124260344D01*
X75314938Y-124488586D01*
X75314936Y-124488596D01*
X75294341Y-124723999D01*
X74914527Y-124723999D01*
X74706794Y-70297905D01*
X74701932Y-69023999D01*
X75294341Y-69023999D01*
X75294341Y-69024000D01*
X75314936Y-69259403D01*
X75314938Y-69259413D01*
X75376094Y-69487655D01*
X75376096Y-69487659D01*
X75376097Y-69487663D01*
X75402834Y-69545000D01*
X75475965Y-69701830D01*
X75475967Y-69701834D01*
X75530986Y-69780408D01*
X75611505Y-69895401D01*
X75778599Y-70062495D01*
X75875384Y-70130265D01*
X75972165Y-70198032D01*
X75972167Y-70198033D01*
X75972170Y-70198035D01*
X76186337Y-70297903D01*
X76414592Y-70359063D01*
X76602918Y-70375539D01*
X76649999Y-70379659D01*
X76650000Y-70379659D01*
X76650001Y-70379659D01*
X76689234Y-70376226D01*
X76885408Y-70359063D01*
X77113663Y-70297903D01*
X77327830Y-70198035D01*
X77521401Y-70062495D01*
X77688495Y-69895401D01*
X77824035Y-69701830D01*
X77923903Y-69487663D01*
X77985063Y-69259408D01*
X78005659Y-69024000D01*
X77985063Y-68788592D01*
X77923903Y-68560337D01*
X77824035Y-68346171D01*
X77730471Y-68212546D01*
X77688494Y-68152597D01*
X77521402Y-67985506D01*
X77521401Y-67985505D01*
X77335405Y-67855269D01*
X77291781Y-67800692D01*
X77284588Y-67731193D01*
X77316110Y-67668839D01*
X77335405Y-67652119D01*
X77521082Y-67522105D01*
X77688105Y-67355082D01*
X77823600Y-67161578D01*
X77923429Y-66947492D01*
X77923432Y-66947486D01*
X77980636Y-66734000D01*
X77083012Y-66734000D01*
X77115925Y-66676993D01*
X77150000Y-66549826D01*
X77150000Y-66418174D01*
X77115925Y-66291007D01*
X77083012Y-66234000D01*
X77980636Y-66234000D01*
X77980635Y-66233999D01*
X77923432Y-66020513D01*
X77923429Y-66020507D01*
X77823600Y-65806422D01*
X77823599Y-65806420D01*
X77688113Y-65612926D01*
X77688108Y-65612920D01*
X77566053Y-65490865D01*
X77532568Y-65429542D01*
X77537552Y-65359850D01*
X77579424Y-65303917D01*
X77610400Y-65287002D01*
X77742331Y-65237796D01*
X77857546Y-65151546D01*
X77943796Y-65036331D01*
X77994091Y-64901483D01*
X78000500Y-64841873D01*
X78000499Y-63046128D01*
X77994091Y-62986517D01*
X77943796Y-62851669D01*
X77943795Y-62851668D01*
X77943793Y-62851664D01*
X77857547Y-62736455D01*
X77857544Y-62736452D01*
X77742335Y-62650206D01*
X77742328Y-62650202D01*
X77607482Y-62599908D01*
X77607483Y-62599908D01*
X77547883Y-62593501D01*
X77547881Y-62593500D01*
X77547873Y-62593500D01*
X77547864Y-62593500D01*
X75752129Y-62593500D01*
X75752123Y-62593501D01*
X75692516Y-62599908D01*
X75557671Y-62650202D01*
X75557664Y-62650206D01*
X75442455Y-62736452D01*
X75442452Y-62736455D01*
X75356206Y-62851664D01*
X75356202Y-62851671D01*
X75305908Y-62986517D01*
X75299501Y-63046116D01*
X75299501Y-63046123D01*
X75299500Y-63046135D01*
X75299500Y-64841870D01*
X75299501Y-64841876D01*
X75305908Y-64901483D01*
X75356202Y-65036328D01*
X75356206Y-65036335D01*
X75442452Y-65151544D01*
X75442455Y-65151547D01*
X75557664Y-65237793D01*
X75557671Y-65237797D01*
X75557674Y-65237798D01*
X75689598Y-65287002D01*
X75745531Y-65328873D01*
X75769949Y-65394337D01*
X75755098Y-65462610D01*
X75733947Y-65490865D01*
X75611886Y-65612926D01*
X75476400Y-65806420D01*
X75476399Y-65806422D01*
X75376570Y-66020507D01*
X75376567Y-66020513D01*
X75319364Y-66233999D01*
X75319364Y-66234000D01*
X76216988Y-66234000D01*
X76184075Y-66291007D01*
X76150000Y-66418174D01*
X76150000Y-66549826D01*
X76184075Y-66676993D01*
X76216988Y-66734000D01*
X75319364Y-66734000D01*
X75376567Y-66947486D01*
X75376570Y-66947492D01*
X75476399Y-67161578D01*
X75611894Y-67355082D01*
X75778917Y-67522105D01*
X75964595Y-67652119D01*
X76008219Y-67706696D01*
X76015412Y-67776195D01*
X75983890Y-67838549D01*
X75964595Y-67855269D01*
X75778594Y-67985508D01*
X75611505Y-68152597D01*
X75475965Y-68346169D01*
X75475964Y-68346171D01*
X75376098Y-68560335D01*
X75376094Y-68560344D01*
X75314938Y-68788586D01*
X75314936Y-68788596D01*
X75294341Y-69023999D01*
X74701932Y-69023999D01*
X74676475Y-62354472D01*
X74695903Y-62287359D01*
X74748532Y-62241403D01*
X74800474Y-62230000D01*
X80394518Y-62230000D01*
X80461557Y-62249685D01*
G37*
%TD.AperFunction*%
%TD*%
M02*
