M48
; DRILL file {KiCad (6.0.0-0)} date Tuesday, September 06, 2022 at 01:07:14 PM
; FORMAT={-:-/ absolute / inch / decimal}
; #@! TF.CreationDate,2022-09-06T13:07:14-04:00
; #@! TF.GenerationSoftware,Kicad,Pcbnew,(6.0.0-0)
; #@! TF.FileFunction,Plated,1,4,PTH
FMAT,2
INCH
; #@! TA.AperFunction,Plated,PTH,ViaDrill
T1C0.0118
; #@! TA.AperFunction,Plated,PTH,ViaDrill
T2C0.0157
; #@! TA.AperFunction,Plated,PTH,ComponentDrill
T3C0.0197
; #@! TA.AperFunction,Plated,PTH,ComponentDrill
T4C0.0217
; #@! TA.AperFunction,Plated,PTH,ComponentDrill
T5C0.0259
; #@! TA.AperFunction,Plated,PTH,ComponentDrill
T6C0.0300
; #@! TA.AperFunction,Plated,PTH,ComponentDrill
T7C0.0394
; #@! TA.AperFunction,Plated,PTH,ComponentDrill
T8C0.0472
; #@! TA.AperFunction,Plated,PTH,ComponentDrill
T9C0.0866
; #@! TA.AperFunction,Plated,PTH,ComponentDrill
T10C0.1260
%
G90
G05
T1
X3.4457Y-4.4189
X3.5953Y-4.6055
X3.6293Y-3.8293
X3.6843Y-4.1791
X3.6965Y-4.3815
X3.7343Y-4.0551
X3.7343Y-4.1807
X3.7854Y-4.0551
X3.9159Y-4.0947
X3.9413Y-4.1169
X4.0374Y-4.5177
X4.1685Y-4.4547
X4.1768Y-4.5004
X4.1882Y-4.1059
X4.1949Y-4.4047
X4.1965Y-4.561
X4.2665Y-4.0413
X4.322Y-2.9972
X4.3701Y-2.8358
X4.3941Y-2.8689
X4.4642Y-3.3402
X4.5169Y-2.8252
X4.5197Y-2.8701
X4.522Y-2.9276
X4.5224Y-3.025
X4.5563Y-3.2957
X4.5646Y-2.6689
X4.5657Y-3.2496
X4.572Y-3.7571
X4.5768Y-3.4693
X4.5831Y-4.1271
X4.5866Y-3.4177
X4.5894Y-3.025
X4.5965Y-2.8315
X4.6004Y-3.0961
X4.6012Y-3.2106
X4.6055Y-3.1504
X4.6211Y-4.3608
X4.6315Y-4.1244
X4.6476Y-2.8437
X4.6508Y-4.5626
X4.6713Y-3.1854
X4.6756Y-2.8134
X4.7012Y-3.3059
X4.7283Y-3.2795
X4.7287Y-3.9346
X4.7378Y-3.4398
X4.7557Y-3.2978
X4.7783Y-3.2437
X4.7866Y-3.4213
X4.7941Y-3.2984
X4.8234Y-3.4289
X4.8433Y-3.2618
X4.8724Y-3.5
X4.8827Y-3.2697
X4.8846Y-4.1732
X4.8894Y-4.0752
X4.9024Y-2.7043
X4.9358Y-3.126
X4.9362Y-3.2728
X4.939Y-3.2193
X4.9564Y-3.0258
X4.9624Y-3.411
X4.9626Y-4.6492
X4.9665Y-3.1524
X4.9772Y-4.2642
X4.9827Y-3.198
X5.0354Y-3.3492
X5.0663Y-3.4116
X5.0976Y-3.4807
X5.1258Y-3.2808
X5.1278Y-3.1919
X5.1356Y-3.2404
X5.1433Y-2.8992
X5.148Y-3.774
X5.1724Y-2.9898
X5.177Y-3.1915
X5.1992Y-3.1614
X5.211Y-4.4228
X5.2445Y-3.1004
X5.2618Y-4.4205
X5.2874Y-2.95
X5.3665Y-3.978
X5.3669Y-4.0772
X5.4067Y-3.652
X5.4071Y-4.3071
X5.4122Y-4.528
X5.4504Y-4.313
X5.4929Y-4.3358
X5.5138Y-4.2016
X5.5563Y-3.9469
X5.5614Y-4.0051
X5.5673Y-4.089
X5.5697Y-3.6012
X5.6406Y-3.8201
X5.6409Y-4.5287
X5.6476Y-4.5902
X5.674Y-4.3701
X5.7575Y-2.5571
X5.7976Y-2.7008
X5.8024Y-4.5039
X5.8177Y-4.4587
X5.8998Y-4.4191
X5.9898Y-4.113
X5.9943Y-4.0514
X6.0598Y-3.9913
X6.0717Y-3.9012
X6.0728Y-3.9469
X6.0791Y-3.6504
X6.0843Y-3.7012
X6.1323Y-4.4756
X6.1496Y-4.2043
X6.3335Y-3.5909
X6.3441Y-3.5094
X6.4563Y-4.485
X6.5226Y-3.2734
X6.5315Y-4.4079
X6.5476Y-3.1732
X6.5799Y-4.4496
X6.6075Y-2.8425
X6.6224Y-3.9689
X6.6567Y-4.4579
X6.6724Y-3.9673
X6.7315Y-3.8134
X6.7925Y-4.302
X6.8106Y-3.7996
X6.8138Y-2.7016
X6.8787Y-4.4102
X6.8933Y-4.4917
X6.9516Y-2.9118
X6.9665Y-4.0146
X7.087Y-3.3953
X7.0953Y-3.7
T2
X3.9484Y-4.4713
T5
X4.3295Y-3.7016
X4.5217Y-3.7016
T6
X3.5065Y-2.6018
X3.5065Y-2.7018
X3.6065Y-2.6018
X3.6065Y-2.7018
X3.7065Y-2.6018
X3.7065Y-2.7018
X3.8065Y-2.6018
X3.8065Y-2.7018
X3.9065Y-2.6018
X3.9065Y-2.7018
X4.0065Y-2.6018
X4.0065Y-2.7018
T7
X3.3374Y-3.7409
X3.3374Y-3.8409
X3.3374Y-3.9409
X3.3374Y-4.0409
X3.3374Y-4.1409
X3.3374Y-4.2409
X5.0488Y-2.3465
X5.0488Y-2.4465
X5.0488Y-2.5465
X5.2343Y-2.3496
X5.2343Y-2.4496
X5.2343Y-2.5496
X5.3343Y-2.3496
X5.3343Y-2.4496
X5.3343Y-2.5496
X5.4571Y-2.9252
X5.4571Y-3.0252
X5.5571Y-2.9252
X5.5571Y-3.0252
X5.5594Y-2.3484
X5.5594Y-2.4484
X5.5594Y-2.5484
X5.5594Y-2.6484
X5.6571Y-2.9252
X5.6571Y-3.0252
X5.6594Y-2.3484
X5.6594Y-2.4484
X5.6594Y-2.5484
X5.6594Y-2.6484
X5.7571Y-2.9252
X5.7571Y-3.0252
X5.8571Y-2.9252
X5.8571Y-3.0252
X5.8906Y-2.3539
X5.8906Y-2.4539
X5.8906Y-2.5539
X5.8906Y-2.6539
X5.9571Y-2.9252
X5.9571Y-3.0252
X5.9906Y-2.3539
X5.9906Y-2.4539
X5.9906Y-2.5539
X5.9906Y-2.6539
X6.0571Y-2.9252
X6.0571Y-3.0252
X6.1571Y-2.9252
X6.1571Y-3.0252
X6.1854Y-2.3618
X6.1854Y-2.4618
X6.1854Y-2.5618
X6.2571Y-2.9252
X6.2571Y-3.0252
X6.2854Y-2.3618
X6.2854Y-2.4618
X6.2854Y-2.5618
X6.3571Y-2.9252
X6.3571Y-3.0252
X6.4992Y-3.4974
X6.4992Y-3.5974
X6.5063Y-2.5698
X6.5992Y-3.4974
X6.5992Y-3.5974
X6.5996Y-3.0039
X6.6063Y-2.5698
X6.6921Y-3.2034
X6.6921Y-3.3034
X6.698Y-2.7969
X6.6992Y-3.4974
X6.6992Y-3.5974
X6.6996Y-3.0039
X6.7063Y-2.5698
X6.7921Y-3.2034
X6.7921Y-3.3034
X6.798Y-2.7969
X6.7992Y-3.4974
X6.7992Y-3.5974
X6.7996Y-3.0039
X6.8Y-2.3602
X6.8063Y-2.5698
X6.8921Y-3.2034
X6.8921Y-3.3034
X6.898Y-2.7969
X6.8992Y-3.4974
X6.8992Y-3.5974
X6.8996Y-3.0039
X6.9Y-2.3602
X6.9063Y-2.5698
X6.9921Y-3.2034
X6.9921Y-3.3034
X6.998Y-2.7969
X6.9992Y-3.4974
X6.9992Y-3.5974
X6.9996Y-3.0039
X7.0Y-2.3602
X7.0063Y-2.5698
T8
X3.4366Y-2.2945
X3.5744Y-2.2945
X3.8886Y-2.2988
X4.0264Y-2.2988
X4.2465Y-2.3
X4.3843Y-2.3
X4.6079Y-2.2992
X4.7457Y-2.2992
T9
X3.3392Y-2.6384
X3.3392Y-3.4652
X4.1738Y-2.6384
T10
X3.1102Y-2.0079
X3.1102Y-4.5669
X7.2835Y-2.0079
X7.2835Y-4.5669
T3
G00X3.5065Y-4.6545
M15
G01X3.5065Y-4.6801
M16
G05
G00X3.7821Y-4.6545
M15
G01X3.7821Y-4.6801
M16
G05
G00X5.6907Y-4.653
M15
G01X5.6907Y-4.6785
M16
G05
G00X5.9663Y-4.653
M15
G01X5.9663Y-4.6785
M16
G05
G00X6.4957Y-4.6526
M15
G01X6.4957Y-4.6781
M16
G05
G00X6.7713Y-4.6526
M15
G01X6.7713Y-4.6781
M16
G05
T4
G00X3.54Y-4.561
M15
G01X3.5518Y-4.561
M16
G05
G00X3.7368Y-4.561
M15
G01X3.7486Y-4.561
M16
G05
G00X5.7242Y-4.5594
M15
G01X5.736Y-4.5594
M16
G05
G00X5.9211Y-4.5594
M15
G01X5.9329Y-4.5594
M16
G05
G00X6.5291Y-4.5591
M15
G01X6.5409Y-4.5591
M16
G05
G00X6.726Y-4.5591
M15
G01X6.7378Y-4.5591
M16
G05
T0
M30
