%TF.GenerationSoftware,KiCad,Pcbnew,(6.0.0-0)*%
%TF.CreationDate,2022-09-06T13:07:18-04:00*%
%TF.ProjectId,Body_LED_Controller_Embedded_ESP32s,426f6479-5f4c-4454-945f-436f6e74726f,1.0*%
%TF.SameCoordinates,Original*%
%TF.FileFunction,Copper,L3,Inr*%
%TF.FilePolarity,Positive*%
%FSLAX46Y46*%
G04 Gerber Fmt 4.6, Leading zero omitted, Abs format (unit mm)*
G04 Created by KiCad (PCBNEW (6.0.0-0)) date 2022-09-06 13:07:18*
%MOMM*%
%LPD*%
G01*
G04 APERTURE LIST*
%TA.AperFunction,ComponentPad*%
%ADD10R,1.700000X1.700000*%
%TD*%
%TA.AperFunction,ComponentPad*%
%ADD11O,1.700000X1.700000*%
%TD*%
%TA.AperFunction,ComponentPad*%
%ADD12O,0.890000X1.550000*%
%TD*%
%TA.AperFunction,ComponentPad*%
%ADD13O,1.250000X0.950000*%
%TD*%
%TA.AperFunction,ComponentPad*%
%ADD14C,3.250000*%
%TD*%
%TA.AperFunction,ComponentPad*%
%ADD15C,1.007000*%
%TD*%
%TA.AperFunction,ComponentPad*%
%ADD16C,1.524000*%
%TD*%
%TA.AperFunction,ComponentPad*%
%ADD17C,2.300000*%
%TD*%
%TA.AperFunction,ComponentPad*%
%ADD18R,2.400000X2.400000*%
%TD*%
%TA.AperFunction,ComponentPad*%
%ADD19C,2.400000*%
%TD*%
%TA.AperFunction,ViaPad*%
%ADD20C,0.600000*%
%TD*%
%TA.AperFunction,ViaPad*%
%ADD21C,0.800000*%
%TD*%
%TA.AperFunction,Conductor*%
%ADD22C,0.200000*%
%TD*%
%TA.AperFunction,Conductor*%
%ADD23C,0.250000*%
%TD*%
G04 APERTURE END LIST*
D10*
%TO.N,+5V*%
%TO.C,J1*%
X141210000Y-59650000D03*
D11*
X143750000Y-59650000D03*
%TO.N,GND*%
X141210000Y-62190000D03*
X143750000Y-62190000D03*
%TO.N,RX1*%
X141210000Y-64730000D03*
%TO.N,RX3*%
X143750000Y-64730000D03*
%TO.N,TX1*%
X141210000Y-67270000D03*
%TO.N,TX3*%
X143750000Y-67270000D03*
%TD*%
D12*
%TO.N,unconnected-(J11-Pad6)*%
%TO.C,J11*%
X144545000Y-118510000D03*
D13*
X145545000Y-115810000D03*
D12*
X151545000Y-118510000D03*
D13*
X150545000Y-115810000D03*
%TD*%
%TO.N,unconnected-(J10-Pad6)*%
%TO.C,J10*%
X170990000Y-115800000D03*
X165990000Y-115800000D03*
D12*
X164990000Y-118500000D03*
X171990000Y-118500000D03*
%TD*%
D14*
%TO.N,N/C*%
%TO.C,REF\u002A\u002A*%
X185000000Y-116000000D03*
%TD*%
D15*
%TO.N,XTAL2*%
%TO.C,Y1*%
X114850000Y-94020000D03*
%TO.N,XTAL1*%
X109970000Y-94020000D03*
%TD*%
D10*
%TO.N,GND*%
%TO.C,J15*%
X84770000Y-107720000D03*
D11*
%TO.N,unconnected-(J15-Pad2)*%
X84770000Y-105180000D03*
%TO.N,SCL_BS*%
X84770000Y-102640000D03*
%TO.N,SDA_BS*%
X84770000Y-100100000D03*
%TO.N,+3.3V_BS*%
X84770000Y-97560000D03*
%TO.N,+5V*%
X84770000Y-95020000D03*
%TD*%
D10*
%TO.N,GND*%
%TO.C,J14*%
X128240000Y-59600000D03*
D11*
%TO.N,RX_FU*%
X128240000Y-62140000D03*
%TO.N,TX_FU*%
X128240000Y-64680000D03*
%TD*%
D16*
%TO.N,+5V*%
%TO.C,U14*%
X101765000Y-66085000D03*
%TO.N,GND*%
X99225000Y-66085000D03*
X96685000Y-66085000D03*
%TO.N,+12V*%
X94145000Y-66085000D03*
%TO.N,unconnected-(U14-Pad5)*%
X91605000Y-66085000D03*
%TO.N,unconnected-(U14-Pad6)*%
X89065000Y-66085000D03*
%TO.N,unconnected-(U14-Pad7)*%
X89065000Y-68625000D03*
%TO.N,unconnected-(U14-Pad8)*%
X91605000Y-68625000D03*
%TO.N,+12V*%
X94145000Y-68625000D03*
%TO.N,GND*%
X96685000Y-68625000D03*
X99225000Y-68625000D03*
%TO.N,+5V*%
X101765000Y-68625000D03*
D17*
%TO.N,N/C*%
X106015000Y-67015000D03*
X84815000Y-67015000D03*
X84815000Y-88015000D03*
%TD*%
D12*
%TO.N,unconnected-(J12-Pad6)*%
%TO.C,J12*%
X89065000Y-118550000D03*
X96065000Y-118550000D03*
D13*
X90065000Y-115850000D03*
X95065000Y-115850000D03*
%TD*%
D18*
%TO.N,GND*%
%TO.C,J19*%
X120540000Y-58400000D03*
D19*
%TO.N,+5V*%
X117040000Y-58400000D03*
%TD*%
D18*
%TO.N,GND*%
%TO.C,J16*%
X90790000Y-58280000D03*
D19*
%TO.N,+12V*%
X87290000Y-58280000D03*
%TD*%
D10*
%TO.N,GND*%
%TO.C,J7*%
X167630000Y-76298000D03*
D11*
%TO.N,+5V*%
X170170000Y-76298000D03*
%TO.N,DP_LOAD*%
X172710000Y-76298000D03*
%TO.N,DP_CLOCK*%
X175250000Y-76298000D03*
%TO.N,DP_DATA_IN*%
X177790000Y-76298000D03*
%TD*%
D18*
%TO.N,GND*%
%TO.C,J17*%
X102270000Y-58390000D03*
D19*
%TO.N,+5V*%
X98770000Y-58390000D03*
%TD*%
D10*
%TO.N,+5V*%
%TO.C,J2*%
X149620000Y-59790000D03*
D11*
X152160000Y-59790000D03*
%TO.N,GND*%
X149620000Y-62330000D03*
X152160000Y-62330000D03*
%TO.N,SCL*%
X149620000Y-64870000D03*
X152160000Y-64870000D03*
%TO.N,SDA*%
X149620000Y-67410000D03*
X152160000Y-67410000D03*
%TD*%
D10*
%TO.N,GND*%
%TO.C,J5*%
X165080000Y-91374000D03*
D11*
X165080000Y-88834000D03*
%TO.N,+5V*%
X167620000Y-91374000D03*
X167620000Y-88834000D03*
%TO.N,CS1_CLOCK*%
X170160000Y-91374000D03*
%TO.N,VU1_CLOCK*%
X170160000Y-88834000D03*
%TO.N,Net-(J5-Pad7)*%
X172700000Y-91374000D03*
%TO.N,Net-(J5-Pad8)*%
X172700000Y-88834000D03*
%TO.N,CS2_CLOCK*%
X175240000Y-91374000D03*
%TO.N,VU2_CLOCK*%
X175240000Y-88834000D03*
%TO.N,Net-(J5-Pad11)*%
X177780000Y-91374000D03*
%TO.N,Net-(J5-Pad12)*%
X177780000Y-88834000D03*
%TD*%
D10*
%TO.N,GND*%
%TO.C,J6*%
X170130000Y-71040000D03*
D11*
%TO.N,Net-(J6-Pad2)*%
X172670000Y-71040000D03*
%TO.N,Net-(J6-Pad3)*%
X175210000Y-71040000D03*
%TO.N,Net-(J6-Pad4)*%
X177750000Y-71040000D03*
%TD*%
D14*
%TO.N,N/C*%
%TO.C,REF\u002A\u002A*%
X185000000Y-51000000D03*
%TD*%
%TO.N,N/C*%
%TO.C,REF\u002A\u002A*%
X79000000Y-116000000D03*
%TD*%
%TO.N,N/C*%
%TO.C,REF\u002A\u002A*%
X79000000Y-51000000D03*
%TD*%
D10*
%TO.N,GND*%
%TO.C,J9*%
X172720000Y-59950000D03*
D11*
%TO.N,+5V*%
X175260000Y-59950000D03*
%TO.N,EXT_MIC*%
X177800000Y-59950000D03*
%TD*%
D10*
%TO.N,GND*%
%TO.C,J4*%
X169980000Y-83906000D03*
D11*
X169980000Y-81366000D03*
%TO.N,+5V*%
X172520000Y-83906000D03*
X172520000Y-81366000D03*
%TO.N,LDP_CLOCK*%
X175060000Y-83906000D03*
%TO.N,MAINT_CLOCK*%
X175060000Y-81366000D03*
%TO.N,Net-(J4-Pad7)*%
X177600000Y-83906000D03*
%TO.N,Net-(J4-Pad8)*%
X177600000Y-81366000D03*
%TD*%
D10*
%TO.N,VU2_DATA*%
%TO.C,J20*%
X157110000Y-59990000D03*
D11*
%TO.N,+5V*%
X159650000Y-59990000D03*
%TO.N,VU2_CLOCK*%
X157110000Y-62530000D03*
%TO.N,YELLOW_LED*%
X159650000Y-62530000D03*
%TO.N,RESET_BL*%
X157110000Y-65070000D03*
%TO.N,GND*%
X159650000Y-65070000D03*
%TD*%
D10*
%TO.N,GND*%
%TO.C,J13*%
X132950000Y-59680000D03*
D11*
X135490000Y-59680000D03*
%TO.N,RX_MP*%
X132950000Y-62220000D03*
%TO.N,RX_ST*%
X135490000Y-62220000D03*
%TO.N,TX_MP*%
X132950000Y-64760000D03*
%TO.N,TX_ST*%
X135490000Y-64760000D03*
%TD*%
D18*
%TO.N,GND*%
%TO.C,J18*%
X111360000Y-58420000D03*
D19*
%TO.N,+5V*%
X107860000Y-58420000D03*
%TD*%
D10*
%TO.N,LIMIT1*%
%TO.C,J3*%
X138610000Y-76840000D03*
D11*
%TO.N,+5V*%
X138610000Y-74300000D03*
%TO.N,LIMIT2*%
X141150000Y-76840000D03*
%TO.N,+5V*%
X141150000Y-74300000D03*
%TO.N,LIMIT3*%
X143690000Y-76840000D03*
%TO.N,+5V*%
X143690000Y-74300000D03*
%TO.N,LIMIT4*%
X146230000Y-76840000D03*
%TO.N,+5V*%
X146230000Y-74300000D03*
%TO.N,LIMIT5*%
X148770000Y-76840000D03*
%TO.N,+5V*%
X148770000Y-74300000D03*
%TO.N,LIMIT6*%
X151310000Y-76840000D03*
%TO.N,+5V*%
X151310000Y-74300000D03*
%TO.N,LIMIT7*%
X153850000Y-76840000D03*
%TO.N,+5V*%
X153850000Y-74300000D03*
%TO.N,LIMIT8*%
X156390000Y-76840000D03*
%TO.N,+5V*%
X156390000Y-74300000D03*
%TO.N,LIMIT9*%
X158930000Y-76840000D03*
%TO.N,+5V*%
X158930000Y-74300000D03*
%TO.N,LIMIT10*%
X161470000Y-76840000D03*
%TO.N,+5V*%
X161470000Y-74300000D03*
%TD*%
D10*
%TO.N,GND*%
%TO.C,J8*%
X165260000Y-65272000D03*
D11*
%TO.N,+5V*%
X167800000Y-65272000D03*
%TO.N,VU_STROBE*%
X170340000Y-65272000D03*
%TO.N,VU_RESET*%
X172880000Y-65272000D03*
%TO.N,SPECTRUM_LEFT*%
X175420000Y-65272000D03*
%TO.N,SPECTRUM_RIGHT*%
X177960000Y-65272000D03*
%TD*%
D20*
%TO.N,GND*%
X124520000Y-68690000D03*
X133210000Y-78750000D03*
X144120000Y-111000000D03*
X92185000Y-97265000D03*
X172530000Y-109270000D03*
X132060000Y-80300000D03*
X109780000Y-76130000D03*
X117375000Y-110765000D03*
X176950000Y-101970000D03*
X116250000Y-88120000D03*
X136310000Y-101040000D03*
X126050000Y-118090000D03*
X143270000Y-97030000D03*
X102550000Y-114750000D03*
X139520000Y-110130000D03*
X116130000Y-95430000D03*
X137470000Y-115010000D03*
X87520000Y-112240000D03*
X115940000Y-67790000D03*
X124070000Y-106000000D03*
X93890000Y-111290000D03*
X137330000Y-92760000D03*
X120110000Y-99940000D03*
%TO.N,+5V*%
X124190000Y-103510000D03*
X136320000Y-103560000D03*
%TO.N,MAINT_CLOCK*%
X126150000Y-80070000D03*
%TO.N,LDP_CLOCK*%
X125450000Y-81770000D03*
%TO.N,VU1_CLOCK*%
X120100000Y-83300000D03*
%TO.N,VU2_CLOCK*%
X118650000Y-80910000D03*
%TO.N,CS2_CLOCK*%
X121770000Y-83780000D03*
%TO.N,CS1_CLOCK*%
X125380000Y-83130000D03*
%TO.N,DP_DATA_IN*%
X114860000Y-74360000D03*
%TO.N,DP_CLOCK*%
X114730000Y-71760000D03*
%TO.N,DP_LOAD*%
X114800000Y-72900000D03*
%TO.N,SPECTRUM_RIGHT*%
X116750000Y-71920000D03*
%TO.N,SPECTRUM_LEFT*%
X118050000Y-72230000D03*
%TO.N,VU_RESET*%
X115730000Y-83710000D03*
%TO.N,VU_STROBE*%
X113390000Y-84840000D03*
%TO.N,SDA*%
X147260000Y-68600000D03*
%TO.N,SCL*%
X123020000Y-82850000D03*
%TO.N,SDA*%
X124020000Y-83050000D03*
%TO.N,SCL*%
X146240000Y-64950000D03*
%TO.N,TX1*%
X126045832Y-86639500D03*
%TO.N,RX1*%
X123760000Y-88900000D03*
%TO.N,LDP_DATA*%
X126560000Y-81230000D03*
X165675000Y-83145000D03*
%TO.N,CS1_DATA*%
X127900000Y-85070000D03*
X160870000Y-91210000D03*
%TO.N,CS2_DATA*%
X121370000Y-82390000D03*
X180220000Y-93980000D03*
%TO.N,MAINT_DATA*%
X166310000Y-80600000D03*
X125370000Y-79400000D03*
%TO.N,VU1_DATA*%
X161140000Y-89140000D03*
X120795000Y-83765000D03*
%TO.N,VU2_DATA*%
X180010000Y-86240000D03*
X115970000Y-82540000D03*
%TO.N,+5V_BL*%
X134300000Y-74930000D03*
X125893508Y-76856492D03*
%TO.N,RESET_BL*%
X174720000Y-112020000D03*
X165900000Y-111960000D03*
X116500000Y-86810000D03*
X163990000Y-113920000D03*
%TO.N,RESET_BC*%
X149855000Y-112245000D03*
X141470000Y-91470000D03*
X143450000Y-116590000D03*
%TO.N,RESET_BS*%
X118130000Y-115890000D03*
D21*
X100290000Y-113570000D03*
D20*
%TO.N,VBUS_BS*%
X91320000Y-116980000D03*
X126420000Y-108310000D03*
%TO.N,TXD0_BL*%
X111000000Y-72030000D03*
X170980000Y-96860000D03*
%TO.N,RXD0_BL*%
X111610000Y-72870000D03*
X172990000Y-96510000D03*
%TO.N,LIMIT7*%
X128685000Y-86655000D03*
%TO.N,LIMIT8*%
X122515000Y-87095000D03*
%TO.N,LIMIT9*%
X121580000Y-86900000D03*
%TO.N,LIMIT10*%
X120340000Y-87370000D03*
%TO.N,D-_BL*%
X168210000Y-100810000D03*
X167130000Y-113020000D03*
%TO.N,D+_BL*%
X169480000Y-100770000D03*
X169080000Y-113230000D03*
%TO.N,EXT_MIC*%
X118760000Y-71460000D03*
%TO.N,D-_BC*%
X147380000Y-114400000D03*
X132360000Y-112340000D03*
%TO.N,D+_BC*%
X133650000Y-112280000D03*
X147770000Y-113250000D03*
%TO.N,LIMIT1*%
X130640000Y-73640000D03*
X130760000Y-95860000D03*
%TO.N,LIMIT2*%
X131495000Y-81065000D03*
%TO.N,LIMIT3*%
X130245000Y-81075000D03*
%TO.N,LIMIT4*%
X130445000Y-82305000D03*
%TO.N,LIMIT5*%
X130196492Y-83333508D03*
%TO.N,LIMIT6*%
X131380000Y-75940000D03*
X129480000Y-88410000D03*
%TO.N,RX_MP*%
X153920000Y-101380000D03*
%TO.N,RX_ST*%
X140050000Y-106720000D03*
%TO.N,TX_MP*%
X154250000Y-100250000D03*
%TO.N,TX_ST*%
X141410000Y-103860000D03*
%TO.N,RX_FU*%
X116411089Y-104828911D03*
%TO.N,TX_FU*%
X117640000Y-104759011D03*
%TO.N,SCL_BS*%
X106590000Y-115850000D03*
%TO.N,SDA_BS*%
X106550000Y-111880000D03*
%TO.N,YELLOW_LED*%
X116870000Y-81550000D03*
X173070000Y-68620000D03*
%TO.N,GREEN_LED*%
X167830000Y-72200000D03*
X116980000Y-80020000D03*
%TO.N,RED_LED*%
X119410000Y-83970000D03*
X176570000Y-73960000D03*
%TO.N,RX_BL*%
X114870000Y-76834500D03*
X141260000Y-101730000D03*
%TO.N,TX_BL*%
X116570000Y-76834500D03*
X141130000Y-100250000D03*
%TO.N,TX_BS*%
X152140000Y-104470000D03*
X106380000Y-104290000D03*
%TO.N,GPIO0_BC*%
X143280000Y-115030000D03*
X156200000Y-106790000D03*
%TO.N,RX_BS*%
X152255000Y-102905000D03*
X108370000Y-102650000D03*
%TO.N,TXD0_BC*%
X154540000Y-94010000D03*
X137340000Y-109400000D03*
%TO.N,RXD0_BC*%
X154410000Y-92720000D03*
X138440000Y-109550000D03*
%TO.N,TXD0_BS*%
X94850000Y-103000000D03*
X105880000Y-113150000D03*
%TO.N,RXD0_BS*%
X106090000Y-114310000D03*
X96150000Y-103000000D03*
%TO.N,DTR_BS*%
X93580000Y-106150000D03*
X99465000Y-104005000D03*
%TO.N,RTS_BS*%
X100110000Y-104570000D03*
X94850000Y-106190000D03*
%TO.N,ST_LED_D_BL*%
X175090000Y-114090000D03*
X116850000Y-78640000D03*
%TO.N,ST_LED_D_BC*%
X155760000Y-113680000D03*
X154220000Y-99090000D03*
%TD*%
D22*
%TO.N,MAINT_CLOCK*%
X172900000Y-78980000D02*
X165270000Y-78980000D01*
X125771673Y-78150489D02*
X124770489Y-79151673D01*
X164440489Y-78150489D02*
X125771673Y-78150489D01*
X165270000Y-78980000D02*
X164440489Y-78150489D01*
X175214000Y-81366000D02*
X175250000Y-81330000D01*
X125030000Y-80070000D02*
X126150000Y-80070000D01*
X124770489Y-79151673D02*
X124770489Y-79810489D01*
X175250000Y-81330000D02*
X172900000Y-78980000D01*
X124770489Y-79810489D02*
X125030000Y-80070000D01*
X175060000Y-81366000D02*
X175214000Y-81366000D01*
%TO.N,LDP_CLOCK*%
X165063019Y-83933019D02*
X127613019Y-83933019D01*
X166185511Y-85055511D02*
X165063019Y-83933019D01*
X127613019Y-83933019D02*
X125450000Y-81770000D01*
X174084489Y-85055511D02*
X166185511Y-85055511D01*
X175060000Y-83906000D02*
X175234000Y-83906000D01*
X175234000Y-83906000D02*
X174084489Y-85055511D01*
%TO.N,CS2_CLOCK*%
X173294489Y-93319511D02*
X159699511Y-93319511D01*
X175240000Y-91374000D02*
X173294489Y-93319511D01*
X152090000Y-85710000D02*
X125832162Y-85710000D01*
X123902162Y-83780000D02*
X121770000Y-83780000D01*
X159699511Y-93319511D02*
X152090000Y-85710000D01*
X125832162Y-85710000D02*
X123902162Y-83780000D01*
%TO.N,CS1_CLOCK*%
X163930489Y-90224489D02*
X158376480Y-84670480D01*
X170160000Y-91374000D02*
X169010489Y-90224489D01*
X148470000Y-84670480D02*
X148270009Y-84470489D01*
X158376480Y-84670480D02*
X148470000Y-84670480D01*
X126720489Y-84470489D02*
X125380000Y-83130000D01*
X148270009Y-84470489D02*
X126720489Y-84470489D01*
X169010489Y-90224489D02*
X163930489Y-90224489D01*
%TO.N,DP_DATA_IN*%
X177790000Y-76298000D02*
X176640489Y-75148489D01*
X115130000Y-70430000D02*
X114020000Y-71540000D01*
X167865487Y-74070481D02*
X164225006Y-70430000D01*
X176640489Y-75148489D02*
X174665495Y-75148489D01*
X114020000Y-73520000D02*
X114860000Y-74360000D01*
X164225006Y-70430000D02*
X115130000Y-70430000D01*
X174665495Y-75148489D02*
X173587487Y-74070481D01*
X114020000Y-71540000D02*
X114020000Y-73520000D01*
X173587487Y-74070481D02*
X167865487Y-74070481D01*
%TO.N,DP_CLOCK*%
X164090489Y-70860489D02*
X115629511Y-70860489D01*
X175250000Y-76298000D02*
X173422000Y-74470000D01*
X173422000Y-74470000D02*
X167700000Y-74470000D01*
X115629511Y-70860489D02*
X114730000Y-71760000D01*
X167700000Y-74470000D02*
X164090489Y-70860489D01*
%TO.N,DP_LOAD*%
X167360000Y-74880000D02*
X171292000Y-74880000D01*
X171292000Y-74880000D02*
X172710000Y-76298000D01*
X163940000Y-71460000D02*
X167360000Y-74880000D01*
X114800000Y-72900000D02*
X120690000Y-72900000D01*
X120690000Y-72900000D02*
X122130000Y-71460000D01*
X122130000Y-71460000D02*
X163940000Y-71460000D01*
%TO.N,LDP_DATA*%
X130844511Y-81554511D02*
X130844511Y-80826673D01*
X162630000Y-80100000D02*
X133510000Y-80100000D01*
X127314511Y-80475489D02*
X126560000Y-81230000D01*
X130954511Y-81664511D02*
X130844511Y-81554511D01*
X131945489Y-81664511D02*
X130954511Y-81664511D01*
X130493327Y-80475489D02*
X127314511Y-80475489D01*
X165675000Y-83145000D02*
X162630000Y-80100000D01*
X130844511Y-80826673D02*
X130493327Y-80475489D01*
X133510000Y-80100000D02*
X131945489Y-81664511D01*
%TO.N,CS1_DATA*%
X159050000Y-91210000D02*
X152910000Y-85070000D01*
X152910000Y-85070000D02*
X127900000Y-85070000D01*
X160870000Y-91210000D02*
X159050000Y-91210000D01*
%TO.N,CS2_DATA*%
X118500000Y-84050000D02*
X118500000Y-83300000D01*
X180090000Y-93850000D02*
X155227838Y-93850000D01*
X119520000Y-85070000D02*
X118500000Y-84050000D01*
X119410000Y-82390000D02*
X121370000Y-82390000D01*
X118500000Y-83300000D02*
X119410000Y-82390000D01*
X129678327Y-93410489D02*
X121337838Y-85070000D01*
X155227838Y-93850000D02*
X154788327Y-93410489D01*
X180220000Y-93980000D02*
X180090000Y-93850000D01*
X121337838Y-85070000D02*
X119520000Y-85070000D01*
X154788327Y-93410489D02*
X129678327Y-93410489D01*
%TO.N,MAINT_DATA*%
X133012162Y-79400000D02*
X125370000Y-79400000D01*
X166310000Y-80600000D02*
X166330000Y-80600000D01*
X166380000Y-80650000D02*
X166060000Y-80650000D01*
X164930000Y-79520000D02*
X133132162Y-79520000D01*
X133132162Y-79520000D02*
X133012162Y-79400000D01*
X166330000Y-80600000D02*
X166380000Y-80650000D01*
X166060000Y-80650000D02*
X164930000Y-79520000D01*
%TO.N,RESET_BL*%
X114460000Y-88674994D02*
X125422503Y-99637497D01*
X159970000Y-67930000D02*
X178410000Y-67930000D01*
X157110000Y-65070000D02*
X159970000Y-67930000D01*
X178220000Y-96827838D02*
X178220000Y-108520000D01*
X158840000Y-108770000D02*
X163990000Y-113920000D01*
X180819511Y-70339511D02*
X180819511Y-94228327D01*
X145350000Y-102020000D02*
X152630000Y-102020000D01*
X178220000Y-108520000D02*
X174720000Y-112020000D01*
X125422503Y-99637497D02*
X142967497Y-99637497D01*
X180819511Y-94228327D02*
X178220000Y-96827838D01*
X114460000Y-87860000D02*
X114460000Y-88674994D01*
X158840000Y-108230000D02*
X158840000Y-108770000D01*
X152630000Y-102020000D02*
X158840000Y-108230000D01*
X116500000Y-86810000D02*
X115510000Y-86810000D01*
X115510000Y-86810000D02*
X114460000Y-87860000D01*
X142967497Y-99637497D02*
X145350000Y-102020000D01*
X178410000Y-67930000D02*
X180819511Y-70339511D01*
D23*
%TO.N,RESET_BS*%
X100290000Y-113570000D02*
X103680000Y-116960000D01*
X117060000Y-116960000D02*
X118130000Y-115890000D01*
X103680000Y-116960000D02*
X117060000Y-116960000D01*
D22*
%TO.N,LIMIT1*%
X130640000Y-73640000D02*
X121002162Y-73640000D01*
X117830000Y-87180000D02*
X117830000Y-91160000D01*
X117830000Y-91160000D02*
X122530000Y-95860000D01*
X113000000Y-86040000D02*
X116690000Y-86040000D01*
X113250000Y-83570000D02*
X112570000Y-84250000D01*
X113330000Y-83570000D02*
X113250000Y-83570000D01*
X112570000Y-85610000D02*
X113000000Y-86040000D01*
X113330000Y-79870000D02*
X113330000Y-83570000D01*
X117052162Y-77590000D02*
X115610000Y-77590000D01*
X116690000Y-86040000D02*
X117830000Y-87180000D01*
X122530000Y-95860000D02*
X130760000Y-95860000D01*
X112570000Y-84250000D02*
X112570000Y-85610000D01*
X121002162Y-73640000D02*
X117052162Y-77590000D01*
X115610000Y-77590000D02*
X113330000Y-79870000D01*
%TO.N,RX_BL*%
X111380000Y-86830000D02*
X111380000Y-80324500D01*
X111380000Y-80324500D02*
X114870000Y-76834500D01*
X141260000Y-101730000D02*
X126280000Y-101730000D01*
X126280000Y-101730000D02*
X111380000Y-86830000D01*
%TO.N,TX_BL*%
X116570000Y-76834500D02*
X116485500Y-76750000D01*
X115470000Y-76750000D02*
X115469511Y-76750489D01*
X111860000Y-86640000D02*
X125470000Y-100250000D01*
X111860000Y-80409506D02*
X111860000Y-86640000D01*
X115469511Y-76750489D02*
X115469511Y-77082827D01*
X115118327Y-77434011D02*
X114835495Y-77434011D01*
X116485500Y-76750000D02*
X115470000Y-76750000D01*
X114835495Y-77434011D02*
X111860000Y-80409506D01*
X125470000Y-100250000D02*
X141130000Y-100250000D01*
X115469511Y-77082827D02*
X115118327Y-77434011D01*
%TO.N,TX_BS*%
X137907838Y-102820000D02*
X150490000Y-102820000D01*
X106380000Y-104290000D02*
X107620000Y-103050000D01*
X108729511Y-104159511D02*
X136568327Y-104159511D01*
X136568327Y-104159511D02*
X137907838Y-102820000D01*
X107620000Y-103050000D02*
X108729511Y-104159511D01*
X150490000Y-102820000D02*
X152140000Y-104470000D01*
%TO.N,GPIO0_BC*%
X147000000Y-111310000D02*
X153520000Y-111310000D01*
X156200000Y-108630000D02*
X156200000Y-106790000D01*
X153520000Y-111310000D02*
X156200000Y-108630000D01*
X143280000Y-115030000D02*
X147000000Y-111310000D01*
%TO.N,RX_BS*%
X108640000Y-102380000D02*
X145144994Y-102380000D01*
X145144994Y-102380000D02*
X145184514Y-102419520D01*
X151769520Y-102419520D02*
X152255000Y-102905000D01*
X108370000Y-102650000D02*
X108640000Y-102380000D01*
X145184514Y-102419520D02*
X151769520Y-102419520D01*
%TD*%
M02*
