%TF.GenerationSoftware,KiCad,Pcbnew,(6.0.0-0)*%
%TF.CreationDate,2022-02-07T13:41:27-05:00*%
%TF.ProjectId,Coin_Slots,436f696e-5f53-46c6-9f74-732e6b696361,rev?*%
%TF.SameCoordinates,Original*%
%TF.FileFunction,Legend,Bot*%
%TF.FilePolarity,Positive*%
%FSLAX46Y46*%
G04 Gerber Fmt 4.6, Leading zero omitted, Abs format (unit mm)*
G04 Created by KiCad (PCBNEW (6.0.0-0)) date 2022-02-07 13:41:27*
%MOMM*%
%LPD*%
G01*
G04 APERTURE LIST*
%ADD10C,0.300000*%
%ADD11C,0.120000*%
G04 APERTURE END LIST*
D10*
X112553714Y-68774571D02*
X113268000Y-68774571D01*
X113339428Y-69488857D01*
X113268000Y-69417428D01*
X113125142Y-69346000D01*
X112768000Y-69346000D01*
X112625142Y-69417428D01*
X112553714Y-69488857D01*
X112482285Y-69631714D01*
X112482285Y-69988857D01*
X112553714Y-70131714D01*
X112625142Y-70203142D01*
X112768000Y-70274571D01*
X113125142Y-70274571D01*
X113268000Y-70203142D01*
X113339428Y-70131714D01*
X112053714Y-68774571D02*
X111553714Y-70274571D01*
X111053714Y-68774571D01*
X111875142Y-66052000D02*
X112018000Y-65980571D01*
X112232285Y-65980571D01*
X112446571Y-66052000D01*
X112589428Y-66194857D01*
X112660857Y-66337714D01*
X112732285Y-66623428D01*
X112732285Y-66837714D01*
X112660857Y-67123428D01*
X112589428Y-67266285D01*
X112446571Y-67409142D01*
X112232285Y-67480571D01*
X112089428Y-67480571D01*
X111875142Y-67409142D01*
X111803714Y-67337714D01*
X111803714Y-66837714D01*
X112089428Y-66837714D01*
X114030000Y-80037714D02*
X114101428Y-80109142D01*
X114315714Y-80180571D01*
X114458571Y-80180571D01*
X114672857Y-80109142D01*
X114815714Y-79966285D01*
X114887142Y-79823428D01*
X114958571Y-79537714D01*
X114958571Y-79323428D01*
X114887142Y-79037714D01*
X114815714Y-78894857D01*
X114672857Y-78752000D01*
X114458571Y-78680571D01*
X114315714Y-78680571D01*
X114101428Y-78752000D01*
X114030000Y-78823428D01*
X113458571Y-78823428D02*
X113387142Y-78752000D01*
X113244285Y-78680571D01*
X112887142Y-78680571D01*
X112744285Y-78752000D01*
X112672857Y-78823428D01*
X112601428Y-78966285D01*
X112601428Y-79109142D01*
X112672857Y-79323428D01*
X113530000Y-80180571D01*
X112601428Y-80180571D01*
X111958571Y-80180571D02*
X111958571Y-78680571D01*
X111601428Y-78680571D01*
X111387142Y-78752000D01*
X111244285Y-78894857D01*
X111172857Y-79037714D01*
X111101428Y-79323428D01*
X111101428Y-79537714D01*
X111172857Y-79823428D01*
X111244285Y-79966285D01*
X111387142Y-80109142D01*
X111601428Y-80180571D01*
X111958571Y-80180571D01*
X114030000Y-74957714D02*
X114101428Y-75029142D01*
X114315714Y-75100571D01*
X114458571Y-75100571D01*
X114672857Y-75029142D01*
X114815714Y-74886285D01*
X114887142Y-74743428D01*
X114958571Y-74457714D01*
X114958571Y-74243428D01*
X114887142Y-73957714D01*
X114815714Y-73814857D01*
X114672857Y-73672000D01*
X114458571Y-73600571D01*
X114315714Y-73600571D01*
X114101428Y-73672000D01*
X114030000Y-73743428D01*
X112601428Y-75100571D02*
X113458571Y-75100571D01*
X113030000Y-75100571D02*
X113030000Y-73600571D01*
X113172857Y-73814857D01*
X113315714Y-73957714D01*
X113458571Y-74029142D01*
X111958571Y-75100571D02*
X111958571Y-73600571D01*
X111601428Y-73600571D01*
X111387142Y-73672000D01*
X111244285Y-73814857D01*
X111172857Y-73957714D01*
X111101428Y-74243428D01*
X111101428Y-74457714D01*
X111172857Y-74743428D01*
X111244285Y-74886285D01*
X111387142Y-75029142D01*
X111601428Y-75100571D01*
X111958571Y-75100571D01*
X114030000Y-77497714D02*
X114101428Y-77569142D01*
X114315714Y-77640571D01*
X114458571Y-77640571D01*
X114672857Y-77569142D01*
X114815714Y-77426285D01*
X114887142Y-77283428D01*
X114958571Y-76997714D01*
X114958571Y-76783428D01*
X114887142Y-76497714D01*
X114815714Y-76354857D01*
X114672857Y-76212000D01*
X114458571Y-76140571D01*
X114315714Y-76140571D01*
X114101428Y-76212000D01*
X114030000Y-76283428D01*
X113458571Y-76283428D02*
X113387142Y-76212000D01*
X113244285Y-76140571D01*
X112887142Y-76140571D01*
X112744285Y-76212000D01*
X112672857Y-76283428D01*
X112601428Y-76426285D01*
X112601428Y-76569142D01*
X112672857Y-76783428D01*
X113530000Y-77640571D01*
X112601428Y-77640571D01*
X111101428Y-77497714D02*
X111172857Y-77569142D01*
X111387142Y-77640571D01*
X111530000Y-77640571D01*
X111744285Y-77569142D01*
X111887142Y-77426285D01*
X111958571Y-77283428D01*
X112030000Y-76997714D01*
X112030000Y-76783428D01*
X111958571Y-76497714D01*
X111887142Y-76354857D01*
X111744285Y-76212000D01*
X111530000Y-76140571D01*
X111387142Y-76140571D01*
X111172857Y-76212000D01*
X111101428Y-76283428D01*
X114030000Y-72671714D02*
X114101428Y-72743142D01*
X114315714Y-72814571D01*
X114458571Y-72814571D01*
X114672857Y-72743142D01*
X114815714Y-72600285D01*
X114887142Y-72457428D01*
X114958571Y-72171714D01*
X114958571Y-71957428D01*
X114887142Y-71671714D01*
X114815714Y-71528857D01*
X114672857Y-71386000D01*
X114458571Y-71314571D01*
X114315714Y-71314571D01*
X114101428Y-71386000D01*
X114030000Y-71457428D01*
X112601428Y-72814571D02*
X113458571Y-72814571D01*
X113030000Y-72814571D02*
X113030000Y-71314571D01*
X113172857Y-71528857D01*
X113315714Y-71671714D01*
X113458571Y-71743142D01*
X111101428Y-72671714D02*
X111172857Y-72743142D01*
X111387142Y-72814571D01*
X111530000Y-72814571D01*
X111744285Y-72743142D01*
X111887142Y-72600285D01*
X111958571Y-72457428D01*
X112030000Y-72171714D01*
X112030000Y-71957428D01*
X111958571Y-71671714D01*
X111887142Y-71528857D01*
X111744285Y-71386000D01*
X111530000Y-71314571D01*
X111387142Y-71314571D01*
X111172857Y-71386000D01*
X111101428Y-71457428D01*
%TO.C,G\u002A\u002A\u002A*%
G36*
X135863640Y-88378806D02*
G01*
X135118043Y-88378806D01*
X135118043Y-86191722D01*
X135863640Y-86191722D01*
X135863640Y-88378806D01*
G37*
G36*
X130531913Y-91441571D02*
G01*
X130399805Y-91620743D01*
X130380581Y-91637058D01*
X130189015Y-91735758D01*
X129970092Y-91763089D01*
X129751644Y-91723587D01*
X129561502Y-91621789D01*
X129427495Y-91462234D01*
X129363718Y-91263579D01*
X129359071Y-91091663D01*
X129849159Y-91091663D01*
X129849998Y-91140079D01*
X129876767Y-91322326D01*
X129939418Y-91418705D01*
X130035558Y-91424937D01*
X130071274Y-91371128D01*
X130093854Y-91249258D01*
X130100625Y-91093150D01*
X130091897Y-90935770D01*
X130067981Y-90810087D01*
X130029188Y-90749065D01*
X130004556Y-90741878D01*
X129919257Y-90768662D01*
X129866941Y-90886240D01*
X129849159Y-91091663D01*
X129359071Y-91091663D01*
X129357442Y-91031403D01*
X129408258Y-90805937D01*
X129509517Y-90615683D01*
X129654567Y-90489141D01*
X129751412Y-90449302D01*
X129979746Y-90414536D01*
X130204996Y-90446820D01*
X130389655Y-90543385D01*
X130416225Y-90567468D01*
X130541216Y-90751328D01*
X130602343Y-90977724D01*
X130600895Y-91093150D01*
X130599334Y-91217519D01*
X130531913Y-91441571D01*
G37*
G36*
X131067092Y-91362267D02*
G01*
X131154096Y-91377651D01*
X131186458Y-91428270D01*
X131191233Y-91535166D01*
X131189853Y-91612585D01*
X131170074Y-91680255D01*
X131104992Y-91705425D01*
X130967554Y-91709139D01*
X130868016Y-91708066D01*
X130781012Y-91692681D01*
X130748650Y-91642063D01*
X130743875Y-91535166D01*
X130745255Y-91457748D01*
X130765034Y-91390078D01*
X130830116Y-91364908D01*
X130967554Y-91361194D01*
X131067092Y-91362267D01*
G37*
G36*
X121374333Y-91362267D02*
G01*
X121461337Y-91377651D01*
X121493699Y-91428270D01*
X121498474Y-91535166D01*
X121497094Y-91612585D01*
X121477314Y-91680255D01*
X121412233Y-91705425D01*
X121274795Y-91709139D01*
X121175257Y-91708066D01*
X121088253Y-91692681D01*
X121055891Y-91642063D01*
X121051116Y-91535166D01*
X121052495Y-91457748D01*
X121072275Y-91390078D01*
X121137357Y-91364908D01*
X121274795Y-91361194D01*
X121374333Y-91362267D01*
G37*
G36*
X131618575Y-90466810D02*
G01*
X131821853Y-90506128D01*
X132041745Y-90619128D01*
X132152552Y-90692881D01*
X132230612Y-90761285D01*
X132251389Y-90822251D01*
X132231004Y-90899675D01*
X132199239Y-90979810D01*
X132149973Y-91065554D01*
X132094412Y-91078184D01*
X132008798Y-91031832D01*
X131887123Y-90952109D01*
X131887123Y-91709139D01*
X131390059Y-91709139D01*
X131390059Y-90466477D01*
X131596960Y-90466477D01*
X131618575Y-90466810D01*
G37*
G36*
X120056987Y-88378806D02*
G01*
X118118435Y-88378806D01*
X118118435Y-87732622D01*
X119311390Y-87732622D01*
X119311390Y-86191722D01*
X120056987Y-86191722D01*
X120056987Y-88378806D01*
G37*
G36*
X127687053Y-93648764D02*
G01*
X127774057Y-93664148D01*
X127806419Y-93714767D01*
X127811194Y-93821663D01*
X127809814Y-93899082D01*
X127790034Y-93966752D01*
X127724953Y-93991922D01*
X127587515Y-93995636D01*
X127487977Y-93994563D01*
X127400973Y-93979179D01*
X127368611Y-93928560D01*
X127363836Y-93821663D01*
X127365216Y-93744245D01*
X127384995Y-93676575D01*
X127450077Y-93651405D01*
X127587515Y-93647691D01*
X127687053Y-93648764D01*
G37*
G36*
X125350724Y-93945930D02*
G01*
X125411055Y-93946404D01*
X125519562Y-93957182D01*
X125565132Y-93993514D01*
X125574403Y-94070196D01*
X125597028Y-94166911D01*
X125677084Y-94194462D01*
X125811172Y-94173698D01*
X125929694Y-94089443D01*
X125972055Y-93950267D01*
X125968922Y-93894901D01*
X125917822Y-93770037D01*
X125798914Y-93711087D01*
X125605448Y-93713695D01*
X125469315Y-93724741D01*
X125369099Y-93701620D01*
X125283049Y-93630166D01*
X125241242Y-93584487D01*
X125186882Y-93501145D01*
X125212629Y-93441857D01*
X125323403Y-93375582D01*
X125423637Y-93337099D01*
X125646275Y-93303713D01*
X125880190Y-93316944D01*
X126076134Y-93376718D01*
X126251198Y-93514797D01*
X126368517Y-93708044D01*
X126417304Y-93927971D01*
X126391932Y-94148728D01*
X126286774Y-94344466D01*
X126262447Y-94372171D01*
X126149120Y-94479354D01*
X126050669Y-94543955D01*
X126043121Y-94546519D01*
X125942638Y-94562173D01*
X125768515Y-94575344D01*
X125543062Y-94584713D01*
X125288591Y-94588963D01*
X124629981Y-94592113D01*
X124626647Y-94219315D01*
X124322099Y-94592113D01*
X122592016Y-94592113D01*
X122592016Y-94276546D01*
X122480176Y-94378412D01*
X122455302Y-94400621D01*
X122324041Y-94497317D01*
X122182392Y-94555723D01*
X122000941Y-94584451D01*
X121750274Y-94592113D01*
X121349354Y-94592113D01*
X121349354Y-93945930D01*
X121548180Y-93945930D01*
X121565495Y-93945974D01*
X121684966Y-93954548D01*
X121736154Y-93990133D01*
X121747006Y-94070196D01*
X121749113Y-94113573D01*
X121784268Y-94178713D01*
X121886184Y-94194462D01*
X122010582Y-94175677D01*
X122111806Y-94091087D01*
X122144658Y-93934758D01*
X122120994Y-93831674D01*
X122032664Y-93753939D01*
X121868971Y-93710749D01*
X121619504Y-93697397D01*
X121349354Y-93697397D01*
X121349354Y-93299746D01*
X121759433Y-93299931D01*
X121867487Y-93300993D01*
X122070179Y-93313460D01*
X122214322Y-93343835D01*
X122328356Y-93396971D01*
X122333822Y-93400324D01*
X122520338Y-93554367D01*
X122617433Y-93738629D01*
X122634020Y-93969814D01*
X122616153Y-94194462D01*
X122976883Y-94194462D01*
X123103554Y-94193062D01*
X123245674Y-94182927D01*
X123317650Y-94159789D01*
X123337613Y-94119902D01*
X123334004Y-94098467D01*
X123277037Y-94057654D01*
X123138787Y-94045342D01*
X123024025Y-94039714D01*
X122956634Y-94010969D01*
X122939961Y-93945930D01*
X122951218Y-93888549D01*
X123008708Y-93854853D01*
X123138787Y-93846517D01*
X123195948Y-93845163D01*
X123304781Y-93823801D01*
X123337613Y-93771957D01*
X123335247Y-93755036D01*
X123296475Y-93720161D01*
X123195748Y-93702375D01*
X123014521Y-93697397D01*
X122691429Y-93697397D01*
X122691429Y-93299746D01*
X123784971Y-93299746D01*
X123784971Y-94194462D01*
X123956010Y-94194462D01*
X124052990Y-94189401D01*
X124140228Y-94157596D01*
X124132925Y-94095544D01*
X124031551Y-94002053D01*
X123942074Y-93912327D01*
X123897533Y-93799642D01*
X124290066Y-93799642D01*
X124333266Y-93836806D01*
X124452363Y-93846517D01*
X124540533Y-93842535D01*
X124612112Y-93813815D01*
X124629981Y-93743954D01*
X124624815Y-93695700D01*
X124580995Y-93656603D01*
X124468842Y-93656968D01*
X124353822Y-93685518D01*
X124291224Y-93759530D01*
X124290066Y-93799642D01*
X123897533Y-93799642D01*
X123879993Y-93755269D01*
X123904166Y-93593403D01*
X124015353Y-93452473D01*
X124051300Y-93426381D01*
X124131864Y-93386813D01*
X124240436Y-93363429D01*
X124400786Y-93352290D01*
X124636684Y-93349452D01*
X125127045Y-93349452D01*
X125127045Y-93945930D01*
X125350724Y-93945930D01*
G37*
G36*
X130020872Y-94592113D02*
G01*
X129879396Y-94591849D01*
X129674572Y-94588465D01*
X129537490Y-94578241D01*
X129447378Y-94557534D01*
X129383466Y-94522703D01*
X129324982Y-94470107D01*
X129319942Y-94465013D01*
X129220962Y-94315091D01*
X129220753Y-94183586D01*
X129717795Y-94183586D01*
X129746602Y-94265233D01*
X129749225Y-94268245D01*
X129844816Y-94321554D01*
X129979511Y-94343581D01*
X130073134Y-94338455D01*
X130133753Y-94304437D01*
X130147397Y-94219315D01*
X130141641Y-94154246D01*
X130097999Y-94106253D01*
X129985851Y-94095810D01*
X129924366Y-94097853D01*
X129779423Y-94126112D01*
X129717795Y-94183586D01*
X129220753Y-94183586D01*
X129220732Y-94170360D01*
X129319289Y-94033629D01*
X129395074Y-93958903D01*
X129402458Y-93906634D01*
X129344142Y-93838565D01*
X129344031Y-93838453D01*
X129266512Y-93729101D01*
X129266736Y-93722250D01*
X129824305Y-93722250D01*
X129824749Y-93725982D01*
X129875813Y-93763527D01*
X129985851Y-93787533D01*
X130029803Y-93790712D01*
X130121625Y-93777837D01*
X130147397Y-93722250D01*
X130145282Y-93700456D01*
X130101873Y-93658682D01*
X129985851Y-93656968D01*
X129973864Y-93658260D01*
X129867844Y-93684194D01*
X129824305Y-93722250D01*
X129266736Y-93722250D01*
X129270113Y-93618744D01*
X129355702Y-93480422D01*
X129390095Y-93438722D01*
X129439663Y-93396084D01*
X129507934Y-93369775D01*
X129615086Y-93355859D01*
X129781295Y-93350397D01*
X130026739Y-93349452D01*
X130594756Y-93349452D01*
X130594756Y-94592113D01*
X130020872Y-94592113D01*
G37*
G36*
X127687053Y-94245241D02*
G01*
X127774057Y-94260626D01*
X127806419Y-94311245D01*
X127811194Y-94418141D01*
X127809814Y-94495559D01*
X127790034Y-94563229D01*
X127724953Y-94588400D01*
X127587515Y-94592113D01*
X127487977Y-94591040D01*
X127400973Y-94575656D01*
X127368611Y-94525037D01*
X127363836Y-94418141D01*
X127365216Y-94340722D01*
X127384995Y-94273053D01*
X127450077Y-94247882D01*
X127587515Y-94244168D01*
X127687053Y-94245241D01*
G37*
G36*
X133637185Y-86572002D02*
G01*
X133651703Y-86952281D01*
X133949291Y-86572002D01*
X134246878Y-86191722D01*
X135018630Y-86191722D01*
X135018630Y-88378806D01*
X134277215Y-88378806D01*
X134262698Y-87993581D01*
X134248180Y-87608356D01*
X133951507Y-87993581D01*
X133654833Y-88378806D01*
X132881253Y-88378806D01*
X132881253Y-86191722D01*
X133622668Y-86191722D01*
X133637185Y-86572002D01*
G37*
G36*
X117919609Y-94592113D02*
G01*
X116826067Y-94592113D01*
X116826067Y-94194462D01*
X117472251Y-94194462D01*
X117472251Y-93349452D01*
X117919609Y-93349452D01*
X117919609Y-94592113D01*
G37*
G36*
X138920587Y-91311487D02*
G01*
X139063696Y-91309779D01*
X139203287Y-91299341D01*
X139273857Y-91276256D01*
X139293386Y-91236928D01*
X139289777Y-91215492D01*
X139232810Y-91174680D01*
X139094560Y-91162368D01*
X138979798Y-91156739D01*
X138912407Y-91127994D01*
X138895734Y-91062955D01*
X138906991Y-91005574D01*
X138964481Y-90971879D01*
X139094560Y-90963542D01*
X139151721Y-90962189D01*
X139260554Y-90940826D01*
X139293386Y-90888982D01*
X139291020Y-90872061D01*
X139252248Y-90837186D01*
X139151521Y-90819400D01*
X138970294Y-90814423D01*
X138647202Y-90814423D01*
X138647202Y-90416771D01*
X139057280Y-90417069D01*
X139309424Y-90421249D01*
X139606745Y-90432695D01*
X139871269Y-90448814D01*
X140275179Y-90480261D01*
X140390831Y-90892583D01*
X140414301Y-90973597D01*
X140467883Y-91139259D01*
X140511955Y-91249915D01*
X140538750Y-91284963D01*
X140545448Y-91276512D01*
X140579769Y-91195950D01*
X140628948Y-91051101D01*
X140684705Y-90865749D01*
X140798393Y-90466477D01*
X141326895Y-90466477D01*
X141212765Y-90777143D01*
X141160971Y-90918280D01*
X141068862Y-91169744D01*
X140985253Y-91398474D01*
X140871871Y-91709139D01*
X140163145Y-91709139D01*
X139964371Y-91149941D01*
X139765597Y-90590744D01*
X139751543Y-91149941D01*
X139737488Y-91709139D01*
X138050724Y-91709139D01*
X138049058Y-91522740D01*
X138047391Y-91336340D01*
X137895117Y-91522740D01*
X137742843Y-91709139D01*
X137123066Y-91709139D01*
X137115001Y-91709135D01*
X136869233Y-91704891D01*
X136654041Y-91693802D01*
X136492364Y-91677517D01*
X136407143Y-91657684D01*
X136381283Y-91640457D01*
X136315424Y-91531121D01*
X136308171Y-91377512D01*
X136357183Y-91206686D01*
X136460118Y-91045696D01*
X136503444Y-90995020D01*
X136579238Y-90897732D01*
X136609237Y-90845141D01*
X136607755Y-90841137D01*
X136550312Y-90822147D01*
X136435264Y-90814423D01*
X136261292Y-90814423D01*
X136261292Y-91709139D01*
X135813934Y-91709139D01*
X135813934Y-90480639D01*
X136119464Y-90448705D01*
X136484816Y-90420198D01*
X136781365Y-90418714D01*
X136993172Y-90445084D01*
X137114814Y-90499035D01*
X137141113Y-90526240D01*
X137199767Y-90668099D01*
X137171695Y-90843353D01*
X137057978Y-91041674D01*
X137008373Y-91109295D01*
X136937359Y-91215936D01*
X136908859Y-91274207D01*
X136910810Y-91279255D01*
X136971118Y-91298039D01*
X137092882Y-91308390D01*
X137245058Y-91310519D01*
X137396603Y-91304637D01*
X137516474Y-91290955D01*
X137573628Y-91269685D01*
X137575872Y-91261354D01*
X137541583Y-91199752D01*
X137452295Y-91119078D01*
X137362817Y-91029352D01*
X137318276Y-90916668D01*
X137710810Y-90916668D01*
X137754009Y-90953831D01*
X137873107Y-90963542D01*
X137961276Y-90959561D01*
X138032856Y-90930840D01*
X138050724Y-90860980D01*
X138045559Y-90812725D01*
X138001739Y-90773628D01*
X137889585Y-90773993D01*
X137774566Y-90802544D01*
X137711968Y-90876556D01*
X137710810Y-90916668D01*
X137318276Y-90916668D01*
X137300736Y-90872294D01*
X137324910Y-90710428D01*
X137436097Y-90569498D01*
X137472043Y-90543407D01*
X137552607Y-90503839D01*
X137661180Y-90480455D01*
X137821530Y-90469315D01*
X138057428Y-90466477D01*
X138547789Y-90466477D01*
X138547789Y-91311487D01*
X138920587Y-91311487D01*
G37*
G36*
X120104606Y-91323914D02*
G01*
X120104577Y-91368800D01*
X120091770Y-91421749D01*
X120044237Y-91449018D01*
X119940418Y-91459130D01*
X119758748Y-91460607D01*
X119665968Y-91460833D01*
X119521839Y-91465667D01*
X119445711Y-91482794D01*
X119415919Y-91519950D01*
X119410803Y-91584873D01*
X119402644Y-91658075D01*
X119354480Y-91699855D01*
X119236830Y-91709139D01*
X119134347Y-91703312D01*
X119075855Y-91668909D01*
X119062857Y-91584873D01*
X119041400Y-91489731D01*
X118963444Y-91460607D01*
X118887331Y-91433785D01*
X118864032Y-91336340D01*
X118885489Y-91241199D01*
X118963444Y-91212074D01*
X118981339Y-91211490D01*
X119025244Y-91195388D01*
X119049803Y-91141720D01*
X119060509Y-91029883D01*
X119060510Y-91029817D01*
X119410803Y-91029817D01*
X119410852Y-91049226D01*
X119420424Y-91159510D01*
X119464603Y-91203886D01*
X119569222Y-91212074D01*
X119727641Y-91212074D01*
X119581648Y-91050777D01*
X119542431Y-91007188D01*
X119461306Y-90914997D01*
X119423229Y-90868520D01*
X119420978Y-90867740D01*
X119413727Y-90917631D01*
X119410803Y-91029817D01*
X119060510Y-91029817D01*
X119062857Y-90839276D01*
X119062857Y-90466477D01*
X119241198Y-90466477D01*
X119304364Y-90469901D01*
X119388861Y-90493824D01*
X119480157Y-90552291D01*
X119597723Y-90658801D01*
X119761028Y-90826849D01*
X119853258Y-90926247D01*
X119997963Y-91098479D01*
X120069535Y-91212074D01*
X120078774Y-91226737D01*
X120104606Y-91323914D01*
G37*
G36*
X112630453Y-86192503D02*
G01*
X112922490Y-86201701D01*
X113135505Y-86225481D01*
X113283403Y-86269095D01*
X113380092Y-86337796D01*
X113439476Y-86436837D01*
X113475464Y-86571469D01*
X113486845Y-86665005D01*
X113459394Y-86894846D01*
X113348751Y-87133187D01*
X113149831Y-87392856D01*
X113129495Y-87415744D01*
X113007757Y-87562037D01*
X112960264Y-87654790D01*
X112993272Y-87706084D01*
X113113040Y-87728001D01*
X113325827Y-87732622D01*
X113595147Y-87732622D01*
X113595147Y-88386320D01*
X112894832Y-88370137D01*
X112753401Y-88366807D01*
X112517436Y-88359738D01*
X112354504Y-88349877D01*
X112246684Y-88333822D01*
X112176053Y-88308173D01*
X112124691Y-88269529D01*
X112074676Y-88214488D01*
X112005016Y-88110623D01*
X111952761Y-87901278D01*
X111989951Y-87665497D01*
X112114919Y-87410381D01*
X112326001Y-87143031D01*
X112378649Y-87085948D01*
X112471100Y-86972094D01*
X112494539Y-86899573D01*
X112441391Y-86859174D01*
X112304081Y-86841688D01*
X112075035Y-86837906D01*
X111756008Y-86837906D01*
X111756008Y-86191722D01*
X112470048Y-86191722D01*
X112630453Y-86192503D01*
G37*
G36*
X117323131Y-87732622D02*
G01*
X117323131Y-87608356D01*
X117321761Y-87564710D01*
X117304727Y-87518968D01*
X117251105Y-87494938D01*
X117139954Y-87485639D01*
X116950333Y-87484090D01*
X116577534Y-87484090D01*
X116577534Y-87086438D01*
X116950333Y-87086438D01*
X117081272Y-87085981D01*
X117218496Y-87080304D01*
X117290587Y-87062430D01*
X117318485Y-87025379D01*
X117323131Y-86962172D01*
X117323131Y-86837906D01*
X116130176Y-86837906D01*
X116130176Y-86191722D01*
X118068728Y-86191722D01*
X118068728Y-88382148D01*
X116138886Y-88368051D01*
X114209045Y-88353953D01*
X114025514Y-88229687D01*
X113851785Y-88070461D01*
X113703279Y-87827543D01*
X113615446Y-87544672D01*
X113593349Y-87285264D01*
X114440157Y-87285264D01*
X114442463Y-87366254D01*
X114474877Y-87532087D01*
X114556001Y-87662929D01*
X114560213Y-87667787D01*
X114653091Y-87750129D01*
X114772059Y-87796351D01*
X114953652Y-87820976D01*
X115235460Y-87844345D01*
X115235460Y-86726183D01*
X114953652Y-86749552D01*
X114726260Y-86792845D01*
X114561702Y-86891386D01*
X114469140Y-87052598D01*
X114440157Y-87285264D01*
X113593349Y-87285264D01*
X113589827Y-87243919D01*
X113627962Y-86947352D01*
X113731390Y-86677041D01*
X113901653Y-86455053D01*
X113950112Y-86411930D01*
X114063614Y-86330744D01*
X114193558Y-86271799D01*
X114356506Y-86231761D01*
X114569022Y-86207293D01*
X114847669Y-86195059D01*
X115209010Y-86191722D01*
X116030763Y-86191722D01*
X116030763Y-87732622D01*
X117323131Y-87732622D01*
G37*
G36*
X118267554Y-90615597D02*
G01*
X118267319Y-90658291D01*
X118256557Y-90764024D01*
X118214051Y-90806571D01*
X118118435Y-90814423D01*
X117969315Y-90814423D01*
X117969315Y-91709139D01*
X117521957Y-91709139D01*
X117521957Y-91162368D01*
X117323131Y-91162368D01*
X117208370Y-91156739D01*
X117140979Y-91127994D01*
X117124305Y-91062955D01*
X117135562Y-91005574D01*
X117193052Y-90971879D01*
X117323131Y-90963542D01*
X117380292Y-90962189D01*
X117489126Y-90940826D01*
X117521957Y-90888982D01*
X117519591Y-90872061D01*
X117480819Y-90837186D01*
X117380092Y-90819400D01*
X117198865Y-90814423D01*
X116875773Y-90814423D01*
X116875773Y-90416771D01*
X118267554Y-90416771D01*
X118267554Y-90615597D01*
G37*
G36*
X124033503Y-90814423D02*
G01*
X123586145Y-90814423D01*
X123586145Y-91709139D01*
X123138787Y-91709139D01*
X123138787Y-90814423D01*
X122741135Y-90814423D01*
X122741135Y-91709139D01*
X121548180Y-91709139D01*
X121548180Y-91311487D01*
X121920979Y-91311487D01*
X122064087Y-91309779D01*
X122203678Y-91299341D01*
X122274249Y-91276256D01*
X122293777Y-91236928D01*
X122290169Y-91215492D01*
X122233201Y-91174680D01*
X122094951Y-91162368D01*
X121980190Y-91156739D01*
X121912799Y-91127994D01*
X121896125Y-91062955D01*
X121907382Y-91005574D01*
X121964872Y-90971879D01*
X122094951Y-90963542D01*
X122152112Y-90962189D01*
X122260946Y-90940826D01*
X122293777Y-90888982D01*
X122291411Y-90872061D01*
X122252639Y-90837186D01*
X122151912Y-90819400D01*
X121970685Y-90814423D01*
X121647593Y-90814423D01*
X121647593Y-90416771D01*
X124033503Y-90416771D01*
X124033503Y-90814423D01*
G37*
G36*
X122273506Y-86192503D02*
G01*
X122565543Y-86201701D01*
X122778557Y-86225481D01*
X122926456Y-86269095D01*
X123023144Y-86337796D01*
X123082529Y-86436837D01*
X123118517Y-86571469D01*
X123129898Y-86665005D01*
X123102447Y-86894846D01*
X122991804Y-87133187D01*
X122792883Y-87392856D01*
X122772548Y-87415744D01*
X122650810Y-87562037D01*
X122603317Y-87654790D01*
X122636325Y-87706084D01*
X122756093Y-87728001D01*
X122968880Y-87732622D01*
X123238200Y-87732622D01*
X123238200Y-88386320D01*
X122537885Y-88370137D01*
X122396453Y-88366807D01*
X122160489Y-88359738D01*
X121997557Y-88349877D01*
X121889737Y-88333822D01*
X121819106Y-88308173D01*
X121767744Y-88269529D01*
X121717729Y-88214488D01*
X121648068Y-88110623D01*
X121595814Y-87901278D01*
X121633004Y-87665497D01*
X121757972Y-87410381D01*
X121969054Y-87143031D01*
X122021702Y-87085948D01*
X122114153Y-86972094D01*
X122137592Y-86899573D01*
X122084444Y-86859174D01*
X121947134Y-86841688D01*
X121718087Y-86837906D01*
X121399061Y-86837906D01*
X121399061Y-86191722D01*
X122113101Y-86191722D01*
X122273506Y-86192503D01*
G37*
G36*
X139691705Y-86171756D02*
G01*
X139964423Y-86260481D01*
X140234655Y-86426616D01*
X140454793Y-86659634D01*
X140589660Y-86939452D01*
X140635460Y-87260411D01*
X140597733Y-87553174D01*
X140470987Y-87837056D01*
X140258618Y-88074665D01*
X139964423Y-88260341D01*
X139695752Y-88348227D01*
X139395430Y-88380959D01*
X139095694Y-88359035D01*
X138825327Y-88284597D01*
X138613108Y-88159787D01*
X138479437Y-88044808D01*
X138703123Y-87808062D01*
X138926808Y-87571315D01*
X139093333Y-87657428D01*
X139148878Y-87682845D01*
X139360482Y-87726366D01*
X139561064Y-87695575D01*
X139729942Y-87600780D01*
X139846436Y-87452289D01*
X139889863Y-87260411D01*
X139886608Y-87205686D01*
X139821714Y-87024349D01*
X139689258Y-86889143D01*
X139509921Y-86810376D01*
X139304386Y-86798357D01*
X139093333Y-86863394D01*
X138926808Y-86949507D01*
X138703123Y-86712760D01*
X138479437Y-86476014D01*
X138613108Y-86361035D01*
X138821912Y-86237619D01*
X139091669Y-86162467D01*
X139391193Y-86139798D01*
X139691705Y-86171756D01*
G37*
G36*
X138395084Y-87698861D02*
G01*
X138341562Y-87832359D01*
X138194323Y-88046680D01*
X137999223Y-88229041D01*
X137786844Y-88346860D01*
X137776415Y-88350398D01*
X137615854Y-88386456D01*
X137402960Y-88412857D01*
X137180861Y-88424103D01*
X136837167Y-88399343D01*
X136512515Y-88304394D01*
X136256952Y-88139109D01*
X136071599Y-87904242D01*
X135957575Y-87600546D01*
X135931732Y-87451895D01*
X135932555Y-87387552D01*
X136743736Y-87387552D01*
X136774052Y-87563533D01*
X136839680Y-87684808D01*
X136876872Y-87715663D01*
X137043507Y-87789461D01*
X137235358Y-87810007D01*
X137403561Y-87769925D01*
X137510638Y-87689688D01*
X137611999Y-87527571D01*
X137650392Y-87335273D01*
X137626175Y-87139861D01*
X137539708Y-86968398D01*
X137391349Y-86847951D01*
X137307859Y-86818771D01*
X137120893Y-86810383D01*
X136945797Y-86864884D01*
X136820682Y-86973868D01*
X136793174Y-87025905D01*
X136749767Y-87195473D01*
X136743736Y-87387552D01*
X135932555Y-87387552D01*
X135935932Y-87123384D01*
X136022671Y-86824433D01*
X136184418Y-86568770D01*
X136413639Y-86370124D01*
X136702803Y-86242225D01*
X136730335Y-86235103D01*
X136973513Y-86200404D01*
X137257631Y-86195484D01*
X137537073Y-86219144D01*
X137766227Y-86270185D01*
X137912624Y-86334277D01*
X138144948Y-86512104D01*
X138315886Y-86752308D01*
X138418907Y-87040057D01*
X138445232Y-87335273D01*
X138447483Y-87360519D01*
X138395084Y-87698861D01*
G37*
G36*
X118416673Y-93743553D02*
G01*
X118428630Y-93986964D01*
X118471504Y-94176215D01*
X118545561Y-94271167D01*
X118650827Y-94271880D01*
X118684315Y-94260565D01*
X118768684Y-94244168D01*
X118778876Y-94232849D01*
X118797062Y-94146545D01*
X118809632Y-93993808D01*
X118814325Y-93796810D01*
X118814325Y-93349452D01*
X119261683Y-93349452D01*
X119261683Y-93800078D01*
X119257716Y-94026418D01*
X119238912Y-94219585D01*
X119198314Y-94352000D01*
X119129070Y-94444376D01*
X119024328Y-94517423D01*
X119001861Y-94528980D01*
X118828477Y-94573502D01*
X118576910Y-94578049D01*
X118494596Y-94573013D01*
X118335067Y-94550950D01*
X118225293Y-94506324D01*
X118129552Y-94427078D01*
X118073719Y-94366244D01*
X118029457Y-94292614D01*
X118002712Y-94193577D01*
X117987277Y-94044465D01*
X117976944Y-93820613D01*
X117959719Y-93349452D01*
X118416673Y-93349452D01*
X118416673Y-93743553D01*
G37*
G36*
X125160787Y-91699187D02*
G01*
X125093952Y-91694710D01*
X124970071Y-91676444D01*
X124909934Y-91639718D01*
X124887482Y-91572446D01*
X124869471Y-91510607D01*
X124809814Y-91470403D01*
X124681619Y-91460607D01*
X124572596Y-91466686D01*
X124497160Y-91501776D01*
X124460450Y-91584873D01*
X124449513Y-91622401D01*
X124411249Y-91679182D01*
X124331608Y-91703798D01*
X124181676Y-91709139D01*
X124093091Y-91706659D01*
X123978739Y-91693165D01*
X123933926Y-91671859D01*
X123934014Y-91670463D01*
X123951870Y-91605524D01*
X123996325Y-91467702D01*
X124061002Y-91276276D01*
X124096178Y-91175142D01*
X124534320Y-91175142D01*
X124575566Y-91201238D01*
X124678457Y-91212074D01*
X124747798Y-91210848D01*
X124791683Y-91195028D01*
X124797204Y-91145040D01*
X124765430Y-91041276D01*
X124697430Y-90864129D01*
X124688579Y-90847626D01*
X124653026Y-90857952D01*
X124603273Y-90963542D01*
X124593767Y-90989218D01*
X124552898Y-91107430D01*
X124534349Y-91174794D01*
X124534320Y-91175142D01*
X124096178Y-91175142D01*
X124139520Y-91050528D01*
X124345280Y-90466477D01*
X125005213Y-90466477D01*
X125229836Y-91145040D01*
X125418207Y-91714089D01*
X125160787Y-91699187D01*
G37*
G36*
X121374333Y-90765789D02*
G01*
X121461337Y-90781174D01*
X121493699Y-90831792D01*
X121498474Y-90938689D01*
X121497094Y-91016107D01*
X121477314Y-91083777D01*
X121412233Y-91108948D01*
X121274795Y-91112661D01*
X121175257Y-91111588D01*
X121088253Y-91096204D01*
X121055891Y-91045585D01*
X121051116Y-90938689D01*
X121052495Y-90861270D01*
X121072275Y-90793600D01*
X121137357Y-90768430D01*
X121274795Y-90764716D01*
X121374333Y-90765789D01*
G37*
G36*
X139897411Y-93316944D02*
G01*
X140093356Y-93376718D01*
X140269206Y-93512297D01*
X140385228Y-93702124D01*
X140429283Y-93917831D01*
X140400762Y-94136866D01*
X140299056Y-94336677D01*
X140123556Y-94494713D01*
X140009920Y-94545694D01*
X139783385Y-94587778D01*
X139544948Y-94578395D01*
X139340624Y-94516277D01*
X139287037Y-94487642D01*
X139209978Y-94427780D01*
X139216029Y-94362811D01*
X139300270Y-94261693D01*
X139376997Y-94195498D01*
X139473567Y-94167635D01*
X139622670Y-94178164D01*
X139688752Y-94185120D01*
X139859795Y-94169545D01*
X139957927Y-94091109D01*
X139989276Y-93945930D01*
X139986548Y-93895384D01*
X139935910Y-93770530D01*
X139816660Y-93711261D01*
X139622670Y-93713695D01*
X139486536Y-93724741D01*
X139386320Y-93701620D01*
X139300270Y-93630166D01*
X139258463Y-93584487D01*
X139204103Y-93501145D01*
X139229850Y-93441857D01*
X139340624Y-93375582D01*
X139440858Y-93337099D01*
X139663496Y-93303713D01*
X139897411Y-93316944D01*
G37*
G36*
X116776360Y-94592113D02*
G01*
X115583405Y-94592113D01*
X115583405Y-94194462D01*
X115956204Y-94194462D01*
X116099312Y-94192753D01*
X116238903Y-94182316D01*
X116309474Y-94159230D01*
X116329002Y-94119902D01*
X116325394Y-94098467D01*
X116268426Y-94057654D01*
X116130176Y-94045342D01*
X116015415Y-94039714D01*
X115948024Y-94010969D01*
X115931350Y-93945930D01*
X115942607Y-93888549D01*
X116000097Y-93854853D01*
X116130176Y-93846517D01*
X116187337Y-93845163D01*
X116296171Y-93823801D01*
X116329002Y-93771957D01*
X116322665Y-93748662D01*
X116281434Y-93723011D01*
X116188122Y-93707349D01*
X116026973Y-93699527D01*
X115782231Y-93697397D01*
X115235460Y-93697397D01*
X115235460Y-94592113D01*
X114788102Y-94592113D01*
X114788102Y-93697397D01*
X114042505Y-93697397D01*
X114042505Y-94592113D01*
X113595147Y-94592113D01*
X113595147Y-93697397D01*
X113197495Y-93697397D01*
X113197495Y-94592113D01*
X112004540Y-94592113D01*
X112004540Y-94194462D01*
X112377339Y-94194462D01*
X112520447Y-94192753D01*
X112660038Y-94182316D01*
X112730609Y-94159230D01*
X112750137Y-94119902D01*
X112746529Y-94098467D01*
X112689561Y-94057654D01*
X112551311Y-94045342D01*
X112436550Y-94039714D01*
X112369159Y-94010969D01*
X112352486Y-93945930D01*
X112363742Y-93888549D01*
X112421232Y-93854853D01*
X112551311Y-93846517D01*
X112608472Y-93845163D01*
X112717306Y-93823801D01*
X112750137Y-93771957D01*
X112747771Y-93755036D01*
X112708999Y-93720161D01*
X112608272Y-93702375D01*
X112427045Y-93697397D01*
X112103953Y-93697397D01*
X112103953Y-93299746D01*
X116776360Y-93299746D01*
X116776360Y-94592113D01*
G37*
G36*
X114485344Y-91709139D02*
G01*
X114363338Y-91587132D01*
X114358298Y-91582038D01*
X114259318Y-91432116D01*
X114259109Y-91300611D01*
X114756151Y-91300611D01*
X114784958Y-91382259D01*
X114787581Y-91385271D01*
X114883172Y-91438580D01*
X115017867Y-91460607D01*
X115111491Y-91455481D01*
X115172109Y-91421462D01*
X115185754Y-91336340D01*
X115179997Y-91271272D01*
X115136355Y-91223278D01*
X115024208Y-91212835D01*
X114962722Y-91214879D01*
X114817779Y-91243137D01*
X114756151Y-91300611D01*
X114259109Y-91300611D01*
X114259088Y-91287385D01*
X114357645Y-91150655D01*
X114433430Y-91075929D01*
X114440814Y-91023659D01*
X114382498Y-90955590D01*
X114382387Y-90955479D01*
X114304869Y-90846126D01*
X114305092Y-90839276D01*
X114862662Y-90839276D01*
X114863105Y-90843007D01*
X114914169Y-90880552D01*
X115024208Y-90904558D01*
X115068159Y-90907737D01*
X115159981Y-90894863D01*
X115185754Y-90839276D01*
X115183638Y-90817481D01*
X115140229Y-90775707D01*
X115024208Y-90773993D01*
X115012220Y-90775286D01*
X114906200Y-90801220D01*
X114862662Y-90839276D01*
X114305092Y-90839276D01*
X114308469Y-90735770D01*
X114394058Y-90597447D01*
X114428452Y-90555748D01*
X114478019Y-90513109D01*
X114546290Y-90486801D01*
X114653442Y-90472885D01*
X114819651Y-90467423D01*
X115065095Y-90466477D01*
X115633112Y-90466477D01*
X115633112Y-91311487D01*
X116005910Y-91311487D01*
X116149019Y-91309779D01*
X116288610Y-91299341D01*
X116359180Y-91276256D01*
X116378709Y-91236928D01*
X116375100Y-91215492D01*
X116318132Y-91174680D01*
X116179883Y-91162368D01*
X116065121Y-91156739D01*
X115997730Y-91127994D01*
X115981057Y-91062955D01*
X115992314Y-91005574D01*
X116049804Y-90971879D01*
X116179883Y-90963542D01*
X116237044Y-90962189D01*
X116345877Y-90940826D01*
X116378709Y-90888982D01*
X116376343Y-90872061D01*
X116337571Y-90837186D01*
X116236844Y-90819400D01*
X116055617Y-90814423D01*
X115732525Y-90814423D01*
X115732525Y-90416771D01*
X116826067Y-90416771D01*
X116826067Y-91709139D01*
X114485344Y-91709139D01*
G37*
G36*
X125663875Y-91709139D02*
G01*
X125494873Y-91540137D01*
X125430573Y-91472784D01*
X125361981Y-91373825D01*
X125332292Y-91259451D01*
X125325871Y-91087808D01*
X125326551Y-91046878D01*
X125824862Y-91046878D01*
X125837572Y-91202116D01*
X125913836Y-91328637D01*
X126000639Y-91380329D01*
X126137515Y-91410900D01*
X126165283Y-91410656D01*
X126225095Y-91400313D01*
X126256369Y-91358056D01*
X126268354Y-91261388D01*
X126270294Y-91087808D01*
X126270269Y-91059238D01*
X126266809Y-90896874D01*
X126252011Y-90808559D01*
X126218046Y-90771953D01*
X126157088Y-90764716D01*
X126060580Y-90782224D01*
X125933409Y-90842094D01*
X125874028Y-90904568D01*
X125824862Y-91046878D01*
X125326551Y-91046878D01*
X125327692Y-90978190D01*
X125345806Y-90845084D01*
X125396320Y-90744797D01*
X125494873Y-90635479D01*
X125663875Y-90466477D01*
X126717652Y-90466477D01*
X126717652Y-91709139D01*
X125663875Y-91709139D01*
G37*
G36*
X135716728Y-91359168D02*
G01*
X135612272Y-91547661D01*
X135450033Y-91678654D01*
X135377287Y-91705923D01*
X135202711Y-91742780D01*
X135013554Y-91757714D01*
X134895207Y-91752047D01*
X134643263Y-91687335D01*
X134454506Y-91554701D01*
X134337972Y-91359472D01*
X134278645Y-91187221D01*
X134273033Y-91709139D01*
X133825675Y-91709139D01*
X133823809Y-91522740D01*
X133821943Y-91336340D01*
X133662263Y-91522742D01*
X133627220Y-91562875D01*
X133524874Y-91658546D01*
X133419927Y-91700096D01*
X133266478Y-91709141D01*
X133030372Y-91709139D01*
X133030372Y-91066504D01*
X134773686Y-91066504D01*
X134791858Y-91217439D01*
X134880571Y-91333522D01*
X134961072Y-91383187D01*
X135064822Y-91404254D01*
X135180176Y-91357212D01*
X135223005Y-91313801D01*
X135265376Y-91190680D01*
X135270382Y-91039906D01*
X135238702Y-90901672D01*
X135171017Y-90816172D01*
X135079297Y-90776136D01*
X134977237Y-90780654D01*
X134869511Y-90864129D01*
X134826906Y-90916762D01*
X134773686Y-91066504D01*
X133030372Y-91066504D01*
X133030372Y-90466477D01*
X133477730Y-90466477D01*
X133479213Y-90677730D01*
X133480697Y-90888982D01*
X133665613Y-90676960D01*
X133728294Y-90607180D01*
X133830839Y-90515152D01*
X133929773Y-90474515D01*
X134061781Y-90465708D01*
X134273033Y-90466477D01*
X134278645Y-90988395D01*
X134337972Y-90816144D01*
X134339277Y-90812431D01*
X134431301Y-90657377D01*
X134571272Y-90526032D01*
X134645745Y-90479665D01*
X134753688Y-90436713D01*
X134886687Y-90421399D01*
X135081472Y-90426562D01*
X135243845Y-90438740D01*
X135377892Y-90464663D01*
X135476008Y-90514393D01*
X135572963Y-90600217D01*
X135654454Y-90702559D01*
X135740712Y-90911231D01*
X135751915Y-91039906D01*
X135760505Y-91138562D01*
X135716728Y-91359168D01*
G37*
G36*
X136985118Y-94194462D02*
G01*
X137124055Y-94192833D01*
X137264277Y-94182470D01*
X137335198Y-94159371D01*
X137354834Y-94119902D01*
X137351225Y-94098467D01*
X137294258Y-94057654D01*
X137156008Y-94045342D01*
X137041246Y-94039714D01*
X136973856Y-94010969D01*
X136957182Y-93945930D01*
X136968439Y-93888549D01*
X137025929Y-93854853D01*
X137156008Y-93846517D01*
X137213169Y-93845163D01*
X137322002Y-93823801D01*
X137354834Y-93771957D01*
X137352468Y-93755036D01*
X137313696Y-93720161D01*
X137212969Y-93702375D01*
X137031742Y-93697397D01*
X136708650Y-93697397D01*
X136708650Y-93299746D01*
X137802192Y-93299746D01*
X137802192Y-94194462D01*
X137973231Y-94194462D01*
X138070212Y-94189401D01*
X138157449Y-94157596D01*
X138150146Y-94095544D01*
X138048772Y-94002053D01*
X137959295Y-93912327D01*
X137914754Y-93799642D01*
X138307288Y-93799642D01*
X138350487Y-93836806D01*
X138469584Y-93846517D01*
X138557754Y-93842535D01*
X138629333Y-93813815D01*
X138647202Y-93743954D01*
X138642036Y-93695700D01*
X138598216Y-93656603D01*
X138486063Y-93656968D01*
X138371043Y-93685518D01*
X138308446Y-93759530D01*
X138307288Y-93799642D01*
X137914754Y-93799642D01*
X137897214Y-93755269D01*
X137921387Y-93593403D01*
X138032574Y-93452473D01*
X138068521Y-93426381D01*
X138149085Y-93386813D01*
X138257657Y-93363429D01*
X138418007Y-93352290D01*
X138653905Y-93349452D01*
X139144266Y-93349452D01*
X139144266Y-94592113D01*
X138647202Y-94592113D01*
X138646462Y-94405714D01*
X138645723Y-94219315D01*
X138484916Y-94407519D01*
X138324110Y-94595722D01*
X137280274Y-94581491D01*
X136961969Y-94576968D01*
X136694125Y-94571878D01*
X136501448Y-94565217D01*
X136371224Y-94555474D01*
X136290737Y-94541135D01*
X136247273Y-94520688D01*
X136228117Y-94492621D01*
X136220555Y-94455421D01*
X136202544Y-94393582D01*
X136142886Y-94353378D01*
X136014691Y-94343581D01*
X135905668Y-94349660D01*
X135830232Y-94384751D01*
X135793522Y-94467847D01*
X135782585Y-94505376D01*
X135744321Y-94562156D01*
X135664681Y-94586772D01*
X135514748Y-94592113D01*
X135426163Y-94589633D01*
X135311812Y-94576139D01*
X135266998Y-94554834D01*
X135267087Y-94553438D01*
X135284942Y-94488499D01*
X135329398Y-94350676D01*
X135394075Y-94159250D01*
X135429250Y-94058117D01*
X135867393Y-94058117D01*
X135908638Y-94084212D01*
X136011529Y-94095049D01*
X136080870Y-94093823D01*
X136124755Y-94078003D01*
X136130276Y-94028014D01*
X136098502Y-93924250D01*
X136030502Y-93747104D01*
X136021651Y-93730601D01*
X135986098Y-93740927D01*
X135936345Y-93846517D01*
X135926839Y-93872193D01*
X135885971Y-93990404D01*
X135867422Y-94057769D01*
X135867393Y-94058117D01*
X135429250Y-94058117D01*
X135472593Y-93933503D01*
X135678352Y-93349452D01*
X136340214Y-93349452D01*
X136477808Y-93771957D01*
X136561197Y-94028014D01*
X136615403Y-94194462D01*
X136985118Y-94194462D01*
G37*
G36*
X112302779Y-90596957D02*
G01*
X112302685Y-90628594D01*
X112293401Y-90729147D01*
X112250826Y-90760195D01*
X112149591Y-90746505D01*
X112122176Y-90741789D01*
X111962266Y-90747990D01*
X111848828Y-90809259D01*
X111805714Y-90913980D01*
X111844377Y-91000143D01*
X111954029Y-91107878D01*
X112110325Y-91217872D01*
X112288777Y-91315076D01*
X112464894Y-91384435D01*
X112614190Y-91410900D01*
X112819158Y-91410900D01*
X112649037Y-91285389D01*
X112542043Y-91197635D01*
X112403321Y-91023666D01*
X112359502Y-90843108D01*
X112407673Y-90648270D01*
X112454483Y-90572221D01*
X112574407Y-90482183D01*
X112759957Y-90432205D01*
X113025862Y-90416771D01*
X113346615Y-90416771D01*
X113346615Y-90596957D01*
X113346520Y-90628594D01*
X113337237Y-90729147D01*
X113294662Y-90760195D01*
X113193426Y-90746505D01*
X113061450Y-90739527D01*
X112944894Y-90766894D01*
X112866417Y-90832227D01*
X112855582Y-90932106D01*
X112941215Y-91051452D01*
X113122936Y-91189366D01*
X113257880Y-91279764D01*
X113347797Y-91359152D01*
X113387441Y-91436534D01*
X113396321Y-91536694D01*
X113396321Y-91709139D01*
X111308650Y-91709139D01*
X111308650Y-91560020D01*
X111310440Y-91496353D01*
X111332298Y-91437614D01*
X111400666Y-91414763D01*
X111541986Y-91410900D01*
X111775322Y-91410900D01*
X111605202Y-91285389D01*
X111498208Y-91197635D01*
X111359485Y-91023666D01*
X111315666Y-90843108D01*
X111363838Y-90648270D01*
X111410647Y-90572221D01*
X111530571Y-90482183D01*
X111716122Y-90432205D01*
X111982026Y-90416771D01*
X112302779Y-90416771D01*
X112302779Y-90596957D01*
G37*
G36*
X129143427Y-93351208D02*
G01*
X129257672Y-93360868D01*
X129302388Y-93376149D01*
X129297731Y-93387921D01*
X129251258Y-93465127D01*
X129165570Y-93594799D01*
X129053855Y-93756743D01*
X129025459Y-93797393D01*
X128910955Y-93971339D01*
X128844184Y-94102304D01*
X128813017Y-94219310D01*
X128805323Y-94351377D01*
X128805323Y-94592113D01*
X128357965Y-94592113D01*
X128357965Y-94380518D01*
X128357723Y-94358984D01*
X128344189Y-94243384D01*
X128301731Y-94125423D01*
X128218984Y-93980260D01*
X128084579Y-93783055D01*
X128015293Y-93684480D01*
X127910335Y-93531608D01*
X127838087Y-93421571D01*
X127811194Y-93373320D01*
X127831602Y-93364140D01*
X127926318Y-93353826D01*
X128072153Y-93350067D01*
X128184342Y-93352247D01*
X128297013Y-93370947D01*
X128372703Y-93424082D01*
X128449034Y-93529571D01*
X128564956Y-93708459D01*
X128686931Y-93528955D01*
X128729015Y-93469289D01*
X128806406Y-93389531D01*
X128901746Y-93356176D01*
X129055647Y-93349452D01*
X129143427Y-93351208D01*
G37*
G36*
X125325871Y-86837906D02*
G01*
X124629981Y-86837906D01*
X124629981Y-88378806D01*
X123884384Y-88378806D01*
X123884384Y-86837906D01*
X123188493Y-86837906D01*
X123188493Y-86191722D01*
X125325871Y-86191722D01*
X125325871Y-86837906D01*
G37*
G36*
X130170562Y-86191773D02*
G01*
X130488692Y-86192885D01*
X130726469Y-86196397D01*
X130898106Y-86203548D01*
X131017817Y-86215574D01*
X131099817Y-86233715D01*
X131158318Y-86259207D01*
X131207535Y-86293289D01*
X131238202Y-86320393D01*
X131341722Y-86485707D01*
X131380454Y-86698360D01*
X131348256Y-86930539D01*
X131347477Y-86933090D01*
X131285031Y-87063388D01*
X131176237Y-87228331D01*
X131044155Y-87392856D01*
X131023820Y-87415744D01*
X130902082Y-87562037D01*
X130854589Y-87654790D01*
X130887597Y-87706084D01*
X131007365Y-87728001D01*
X131220152Y-87732622D01*
X131489472Y-87732622D01*
X131489472Y-88386320D01*
X130789157Y-88370137D01*
X130647725Y-88366807D01*
X130411761Y-88359738D01*
X130248829Y-88349877D01*
X130141009Y-88333822D01*
X130070378Y-88308173D01*
X130019016Y-88269529D01*
X129969001Y-88214488D01*
X129899340Y-88110623D01*
X129847086Y-87901278D01*
X129884276Y-87665497D01*
X130009244Y-87410381D01*
X130220326Y-87143031D01*
X130232391Y-87130098D01*
X130347344Y-86997402D01*
X130390292Y-86912150D01*
X130354430Y-86864027D01*
X130232957Y-86842717D01*
X130019066Y-86837906D01*
X129749746Y-86837906D01*
X129749746Y-88378806D01*
X127811194Y-88378806D01*
X127811194Y-87732622D01*
X129004149Y-87732622D01*
X129004149Y-86191722D01*
X130041281Y-86191722D01*
X130170562Y-86191773D01*
G37*
G36*
X133254051Y-94194462D02*
G01*
X133397160Y-94192753D01*
X133536750Y-94182316D01*
X133607321Y-94159230D01*
X133626850Y-94119902D01*
X133623241Y-94098467D01*
X133566273Y-94057654D01*
X133428024Y-94045342D01*
X133313262Y-94039714D01*
X133245871Y-94010969D01*
X133229198Y-93945930D01*
X133240455Y-93888549D01*
X133297945Y-93854853D01*
X133428024Y-93846517D01*
X133485185Y-93845163D01*
X133594018Y-93823801D01*
X133626850Y-93771957D01*
X133624484Y-93755036D01*
X133585711Y-93720161D01*
X133484985Y-93702375D01*
X133303758Y-93697397D01*
X132980666Y-93697397D01*
X132980666Y-93299746D01*
X135366576Y-93299746D01*
X135366576Y-93697397D01*
X134919217Y-93697397D01*
X134919217Y-94592113D01*
X134471859Y-94592113D01*
X134471859Y-93697397D01*
X134074208Y-93697397D01*
X134074208Y-94592113D01*
X131827476Y-94592113D01*
X131658474Y-94423112D01*
X131594174Y-94355759D01*
X131525582Y-94256800D01*
X131495893Y-94142425D01*
X131489472Y-93970783D01*
X131490152Y-93929853D01*
X131988462Y-93929853D01*
X132001173Y-94085091D01*
X132077437Y-94211611D01*
X132164239Y-94263304D01*
X132301116Y-94293875D01*
X132328884Y-94293630D01*
X132388695Y-94283287D01*
X132419970Y-94241031D01*
X132431954Y-94144362D01*
X132433895Y-93970783D01*
X132433869Y-93942213D01*
X132430410Y-93779848D01*
X132415611Y-93691533D01*
X132381647Y-93654928D01*
X132320688Y-93647691D01*
X132224181Y-93665198D01*
X132097009Y-93725069D01*
X132037629Y-93787543D01*
X131988462Y-93929853D01*
X131490152Y-93929853D01*
X131491293Y-93861165D01*
X131509406Y-93728058D01*
X131559921Y-93627772D01*
X131658474Y-93518454D01*
X131827476Y-93349452D01*
X132881253Y-93349452D01*
X132881253Y-94194462D01*
X133254051Y-94194462D01*
G37*
G36*
X127757902Y-87698861D02*
G01*
X127704380Y-87832359D01*
X127557141Y-88046680D01*
X127362041Y-88229041D01*
X127149662Y-88346860D01*
X127139233Y-88350398D01*
X126978672Y-88386456D01*
X126765778Y-88412857D01*
X126543679Y-88424103D01*
X126199985Y-88399343D01*
X125875333Y-88304394D01*
X125619770Y-88139109D01*
X125434417Y-87904242D01*
X125320393Y-87600546D01*
X125294550Y-87451895D01*
X125295373Y-87387552D01*
X126106554Y-87387552D01*
X126136870Y-87563533D01*
X126202498Y-87684808D01*
X126239690Y-87715663D01*
X126406325Y-87789461D01*
X126598176Y-87810007D01*
X126766379Y-87769925D01*
X126873456Y-87689688D01*
X126974817Y-87527571D01*
X127013210Y-87335273D01*
X126988993Y-87139861D01*
X126902526Y-86968398D01*
X126754167Y-86847951D01*
X126670677Y-86818771D01*
X126483711Y-86810383D01*
X126308615Y-86864884D01*
X126183500Y-86973868D01*
X126155992Y-87025905D01*
X126112585Y-87195473D01*
X126106554Y-87387552D01*
X125295373Y-87387552D01*
X125298750Y-87123384D01*
X125385489Y-86824433D01*
X125547236Y-86568770D01*
X125776457Y-86370124D01*
X126065621Y-86242225D01*
X126093153Y-86235103D01*
X126336331Y-86200404D01*
X126620449Y-86195484D01*
X126899891Y-86219144D01*
X127129045Y-86270185D01*
X127275442Y-86334277D01*
X127507766Y-86512104D01*
X127678704Y-86752308D01*
X127781725Y-87040057D01*
X127808050Y-87335273D01*
X127810301Y-87360519D01*
X127757902Y-87698861D01*
G37*
G36*
X119758748Y-93548278D02*
G01*
X119760422Y-93671009D01*
X119775573Y-93757995D01*
X119819592Y-93791380D01*
X119907867Y-93796810D01*
X119981506Y-93794019D01*
X120033697Y-93768769D01*
X120053729Y-93695403D01*
X120056987Y-93548278D01*
X120056987Y-93299746D01*
X120752877Y-93299746D01*
X120752877Y-93498571D01*
X120752833Y-93515886D01*
X120744258Y-93635357D01*
X120708673Y-93686545D01*
X120628611Y-93697397D01*
X120617648Y-93697419D01*
X120562688Y-93702843D01*
X120529192Y-93731158D01*
X120511845Y-93801495D01*
X120505334Y-93932984D01*
X120504345Y-94144755D01*
X120504345Y-94592113D01*
X120056987Y-94592113D01*
X120056987Y-94368434D01*
X120056144Y-94284049D01*
X120042993Y-94188678D01*
X119999563Y-94151239D01*
X119907867Y-94144755D01*
X119851610Y-94146020D01*
X119788029Y-94165746D01*
X119763070Y-94230891D01*
X119758748Y-94368434D01*
X119758748Y-94592113D01*
X119311390Y-94592113D01*
X119311390Y-93299746D01*
X119758748Y-93299746D01*
X119758748Y-93548278D01*
G37*
D11*
%TO.C,J1*%
X110804000Y-80832000D02*
X108144000Y-80832000D01*
X110804000Y-66802000D02*
X110804000Y-65472000D01*
X110804000Y-65472000D02*
X109474000Y-65472000D01*
X108144000Y-68072000D02*
X108144000Y-80832000D01*
X110804000Y-68072000D02*
X108144000Y-68072000D01*
X110804000Y-68072000D02*
X110804000Y-80832000D01*
%TD*%
M02*
