%TF.GenerationSoftware,KiCad,Pcbnew,(6.0.0-0)*%
%TF.CreationDate,2022-02-07T13:41:27-05:00*%
%TF.ProjectId,Coin_Slots,436f696e-5f53-46c6-9f74-732e6b696361,rev?*%
%TF.SameCoordinates,Original*%
%TF.FileFunction,Copper,L2,Bot*%
%TF.FilePolarity,Positive*%
%FSLAX46Y46*%
G04 Gerber Fmt 4.6, Leading zero omitted, Abs format (unit mm)*
G04 Created by KiCad (PCBNEW (6.0.0-0)) date 2022-02-07 13:41:27*
%MOMM*%
%LPD*%
G01*
G04 APERTURE LIST*
%TA.AperFunction,ComponentPad*%
%ADD10R,1.700000X1.700000*%
%TD*%
%TA.AperFunction,ComponentPad*%
%ADD11O,1.700000X1.700000*%
%TD*%
%TA.AperFunction,ViaPad*%
%ADD12C,0.800000*%
%TD*%
%TA.AperFunction,Conductor*%
%ADD13C,0.250000*%
%TD*%
G04 APERTURE END LIST*
D10*
%TO.P,J1,1,Pin_1*%
%TO.N,GND*%
X109474000Y-66802000D03*
D11*
%TO.P,J1,2,Pin_2*%
%TO.N,+5V*%
X109474000Y-69342000D03*
%TO.P,J1,3,Pin_3*%
%TO.N,/C1C*%
X109474000Y-71882000D03*
%TO.P,J1,4,Pin_4*%
%TO.N,/C1D*%
X109474000Y-74422000D03*
%TO.P,J1,5,Pin_5*%
%TO.N,/C2C*%
X109474000Y-76962000D03*
%TO.P,J1,6,Pin_6*%
%TO.N,/C2D*%
X109474000Y-79502000D03*
%TD*%
D12*
%TO.N,/C2D*%
X112776000Y-163576000D03*
%TO.N,/C2C*%
X112014000Y-164846000D03*
%TO.N,/C1C*%
X129540000Y-166116000D03*
%TO.N,/C1D*%
X129921000Y-164973000D03*
%TD*%
D13*
%TO.N,/C2D*%
X112776000Y-163576000D02*
X112776000Y-82804000D01*
X112776000Y-82804000D02*
X109474000Y-79502000D01*
%TO.N,/C2C*%
X106934000Y-79502000D02*
X109474000Y-76962000D01*
X112014000Y-85344000D02*
X106934000Y-80264000D01*
X112014000Y-164846000D02*
X112014000Y-85344000D01*
X106934000Y-80264000D02*
X106934000Y-79502000D01*
%TO.N,/C1C*%
X130556000Y-166116000D02*
X129540000Y-166116000D01*
X142494000Y-113030000D02*
X142494000Y-154178000D01*
X142494000Y-154178000D02*
X130556000Y-166116000D01*
X119380000Y-89916000D02*
X142494000Y-113030000D01*
X110676081Y-71882000D02*
X119380000Y-80585919D01*
X109474000Y-71882000D02*
X110676081Y-71882000D01*
X119380000Y-80585919D02*
X119380000Y-89916000D01*
%TO.N,/C1D*%
X141224000Y-113792000D02*
X117602000Y-90170000D01*
X129921000Y-164973000D02*
X141224000Y-153670000D01*
X112014000Y-74422000D02*
X109474000Y-74422000D01*
X117602000Y-90170000D02*
X117602000Y-80010000D01*
X141224000Y-153670000D02*
X141224000Y-113792000D01*
X117602000Y-80010000D02*
X112014000Y-74422000D01*
%TD*%
M02*
