%TF.GenerationSoftware,KiCad,Pcbnew,8.0.2-1*%
%TF.CreationDate,2025-01-01T21:53:55-05:00*%
%TF.ProjectId,C3P0_Controller,43335030-5f43-46f6-9e74-726f6c6c6572,rev?*%
%TF.SameCoordinates,Original*%
%TF.FileFunction,Copper,L2,Inr*%
%TF.FilePolarity,Positive*%
%FSLAX46Y46*%
G04 Gerber Fmt 4.6, Leading zero omitted, Abs format (unit mm)*
G04 Created by KiCad (PCBNEW 8.0.2-1) date 2025-01-01 21:53:55*
%MOMM*%
%LPD*%
G01*
G04 APERTURE LIST*
%TA.AperFunction,ComponentPad*%
%ADD10O,1.700000X1.700000*%
%TD*%
%TA.AperFunction,ComponentPad*%
%ADD11R,1.700000X1.700000*%
%TD*%
%TA.AperFunction,ComponentPad*%
%ADD12C,2.600000*%
%TD*%
%TA.AperFunction,ComponentPad*%
%ADD13R,2.600000X2.600000*%
%TD*%
%TA.AperFunction,ComponentPad*%
%ADD14R,1.560000X1.560000*%
%TD*%
%TA.AperFunction,ComponentPad*%
%ADD15C,1.560000*%
%TD*%
%TA.AperFunction,Conductor*%
%ADD16C,0.500000*%
%TD*%
G04 APERTURE END LIST*
D10*
%TO.N,MISC_2*%
%TO.C,J26*%
X214826000Y-106944000D03*
%TO.N,5V*%
X212286000Y-106944000D03*
D11*
%TO.N,GND*%
X209746000Y-106944000D03*
%TD*%
%TO.N,GND*%
%TO.C,J25*%
X209736000Y-99118000D03*
D10*
%TO.N,5V*%
X212276000Y-99118000D03*
%TO.N,MISC_1*%
X214816000Y-99118000D03*
%TD*%
D11*
%TO.N,GND*%
%TO.C,J24*%
X147708396Y-57099000D03*
D10*
%TO.N,SVR_PWR*%
X147708396Y-59639000D03*
%TO.N,SPR_2*%
X147708396Y-62179000D03*
%TD*%
%TO.N,SPR_1*%
%TO.C,J23*%
X143239215Y-62179000D03*
%TO.N,SVR_PWR*%
X143239215Y-59639000D03*
D11*
%TO.N,GND*%
X143239215Y-57099000D03*
%TD*%
D12*
%TO.N,5V*%
%TO.C,J51*%
X209591000Y-119425000D03*
D13*
%TO.N,GND*%
X209591000Y-124505000D03*
%TD*%
%TO.N,GND*%
%TO.C,J50*%
X91711000Y-63901000D03*
D12*
%TO.N,SVR_PWR*%
X86631000Y-63901000D03*
%TD*%
D11*
%TO.N,GND*%
%TO.C,J33*%
X209486000Y-83210000D03*
D10*
%TO.N,T_RX*%
X212026000Y-83210000D03*
%TO.N,T_TX*%
X214566000Y-83210000D03*
%TD*%
D11*
%TO.N,GND*%
%TO.C,J32*%
X209425834Y-67563500D03*
D10*
%TO.N,RA_RX*%
X211965834Y-67563500D03*
%TO.N,RA_TX*%
X214505834Y-67563500D03*
%TD*%
D11*
%TO.N,GND*%
%TO.C,J31*%
X210088668Y-91122000D03*
D10*
%TO.N,LA_RX*%
X212628668Y-91122000D03*
%TO.N,LA_TX*%
X215168668Y-91122000D03*
%TD*%
D11*
%TO.N,GND*%
%TO.C,J30*%
X209486000Y-75062000D03*
D10*
%TO.N,H_RX*%
X212026000Y-75062000D03*
%TO.N,H_TX*%
X214566000Y-75062000D03*
%TD*%
%TO.N,SRV_2*%
%TO.C,J2*%
X129831672Y-62179000D03*
%TO.N,SVR_PWR*%
X129831672Y-59639000D03*
D11*
%TO.N,GND*%
X129831672Y-57099000D03*
%TD*%
D10*
%TO.N,SRV_1*%
%TO.C,J1*%
X125362491Y-62179000D03*
%TO.N,SVR_PWR*%
X125362491Y-59639000D03*
D11*
%TO.N,GND*%
X125362491Y-57099000D03*
%TD*%
D10*
%TO.N,SRV_22*%
%TO.C,J22*%
X174523482Y-62179000D03*
%TO.N,SVR_PWR*%
X174523482Y-59639000D03*
D11*
%TO.N,GND*%
X174523482Y-57099000D03*
%TD*%
D10*
%TO.N,SRV_21*%
%TO.C,J21*%
X170054301Y-62179000D03*
%TO.N,SVR_PWR*%
X170054301Y-59639000D03*
D11*
%TO.N,GND*%
X170054301Y-57099000D03*
%TD*%
D10*
%TO.N,SRV_20*%
%TO.C,J20*%
X165585120Y-62179000D03*
%TO.N,SVR_PWR*%
X165585120Y-59639000D03*
D11*
%TO.N,GND*%
X165585120Y-57099000D03*
%TD*%
D10*
%TO.N,SRV_19*%
%TO.C,J19*%
X161115939Y-62179000D03*
%TO.N,SVR_PWR*%
X161115939Y-59639000D03*
D11*
%TO.N,GND*%
X161115939Y-57099000D03*
%TD*%
D10*
%TO.N,SRV_18*%
%TO.C,J18*%
X156646758Y-62179000D03*
%TO.N,SVR_PWR*%
X156646758Y-59639000D03*
D11*
%TO.N,GND*%
X156646758Y-57099000D03*
%TD*%
D10*
%TO.N,SRV_17*%
%TO.C,J17*%
X152177577Y-62179000D03*
%TO.N,SVR_PWR*%
X152177577Y-59639000D03*
D11*
%TO.N,GND*%
X152177577Y-57099000D03*
%TD*%
D10*
%TO.N,SRV_16*%
%TO.C,J16*%
X120893310Y-62179000D03*
%TO.N,SVR_PWR*%
X120893310Y-59639000D03*
D11*
%TO.N,GND*%
X120893310Y-57099000D03*
%TD*%
D10*
%TO.N,SRV_15*%
%TO.C,J15*%
X116424129Y-62179000D03*
%TO.N,SVR_PWR*%
X116424129Y-59639000D03*
D11*
%TO.N,GND*%
X116424129Y-57099000D03*
%TD*%
D10*
%TO.N,SRV_14*%
%TO.C,J14*%
X111954948Y-62179000D03*
%TO.N,SVR_PWR*%
X111954948Y-59639000D03*
D11*
%TO.N,GND*%
X111954948Y-57099000D03*
%TD*%
D10*
%TO.N,SRV_13*%
%TO.C,J13*%
X107485767Y-62179000D03*
%TO.N,SVR_PWR*%
X107485767Y-59639000D03*
D11*
%TO.N,GND*%
X107485767Y-57099000D03*
%TD*%
D10*
%TO.N,SRV_12*%
%TO.C,J12*%
X103016586Y-62179000D03*
%TO.N,SVR_PWR*%
X103016586Y-59639000D03*
D11*
%TO.N,GND*%
X103016586Y-57099000D03*
%TD*%
D10*
%TO.N,SRV_11*%
%TO.C,J11*%
X98547405Y-62179000D03*
%TO.N,SVR_PWR*%
X98547405Y-59639000D03*
D11*
%TO.N,GND*%
X98547405Y-57099000D03*
%TD*%
D10*
%TO.N,SRV_10*%
%TO.C,J10*%
X201338569Y-62179000D03*
%TO.N,SVR_PWR*%
X201338569Y-59639000D03*
D11*
%TO.N,GND*%
X201338569Y-57099000D03*
%TD*%
D10*
%TO.N,SRV_9*%
%TO.C,J9*%
X196869387Y-62179000D03*
%TO.N,SVR_PWR*%
X196869387Y-59639000D03*
D11*
%TO.N,GND*%
X196869387Y-57099000D03*
%TD*%
D10*
%TO.N,SRV_8*%
%TO.C,J8*%
X192400206Y-62179000D03*
%TO.N,SVR_PWR*%
X192400206Y-59639000D03*
D11*
%TO.N,GND*%
X192400206Y-57099000D03*
%TD*%
D10*
%TO.N,SRV_7*%
%TO.C,J7*%
X187931025Y-62179000D03*
%TO.N,SVR_PWR*%
X187931025Y-59639000D03*
D11*
%TO.N,GND*%
X187931025Y-57099000D03*
%TD*%
D10*
%TO.N,SRV_6*%
%TO.C,J6*%
X183461844Y-62179000D03*
%TO.N,SVR_PWR*%
X183461844Y-59639000D03*
D11*
%TO.N,GND*%
X183461844Y-57099000D03*
%TD*%
D10*
%TO.N,SRV_5*%
%TO.C,J5*%
X178992663Y-62179000D03*
%TO.N,SVR_PWR*%
X178992663Y-59639000D03*
D11*
%TO.N,GND*%
X178992663Y-57099000D03*
%TD*%
D10*
%TO.N,SRV_4*%
%TO.C,J4*%
X138770034Y-62179000D03*
%TO.N,SVR_PWR*%
X138770034Y-59639000D03*
D11*
%TO.N,GND*%
X138770034Y-57099000D03*
%TD*%
D14*
%TO.N,unconnected-(U4-3V3-PadJ2-1)*%
%TO.C,U4*%
X173963000Y-83611000D03*
D15*
%TO.N,unconnected-(U4-EN-PadJ2-2)*%
X173963000Y-86151000D03*
%TO.N,unconnected-(U4-SENSOR_VP-PadJ2-3)*%
X173963000Y-88691000D03*
%TO.N,unconnected-(U4-SENSOR_VN-PadJ2-4)*%
X173963000Y-91231000D03*
%TO.N,unconnected-(U4-IO34-PadJ2-5)*%
X173963000Y-93771000D03*
%TO.N,unconnected-(U4-IO35-PadJ2-6)*%
X173963000Y-96311000D03*
%TO.N,unconnected-(U4-IO32-PadJ2-7)*%
X173963000Y-98851000D03*
%TO.N,unconnected-(U4-IO33-PadJ2-8)*%
X173963000Y-101391000D03*
%TO.N,unconnected-(U4-IO25-PadJ2-9)*%
X173963000Y-103931000D03*
%TO.N,unconnected-(U4-IO26-PadJ2-10)*%
X173963000Y-106471000D03*
%TO.N,unconnected-(U4-IO27-PadJ2-11)*%
X173963000Y-109011000D03*
%TO.N,unconnected-(U4-IO14-PadJ2-12)*%
X173963000Y-111551000D03*
%TO.N,unconnected-(U4-IO12-PadJ2-13)*%
X173963000Y-114091000D03*
%TO.N,unconnected-(U4-GND1-PadJ2-14)*%
X173963000Y-116631000D03*
%TO.N,unconnected-(U4-IO13-PadJ2-15)*%
X173963000Y-119171000D03*
%TO.N,unconnected-(U4-SD2-PadJ2-16)*%
X173963000Y-121711000D03*
%TO.N,unconnected-(U4-SD3-PadJ2-17)*%
X173963000Y-124251000D03*
%TO.N,unconnected-(U4-CMD-PadJ2-18)*%
X173963000Y-126791000D03*
%TO.N,5V*%
X173963000Y-129331000D03*
%TO.N,GND*%
X199363000Y-83611000D03*
%TO.N,unconnected-(U4-IO23-PadJ3-2)*%
X199363000Y-86151000D03*
%TO.N,SRV_10*%
X199363000Y-88691000D03*
%TO.N,LA_TX*%
X199363000Y-91231000D03*
%TO.N,LA_RX*%
X199363000Y-93771000D03*
%TO.N,SRV_9*%
X199363000Y-96311000D03*
%TO.N,unconnected-(U4-GND2-PadJ3-7)*%
X199363000Y-98851000D03*
%TO.N,SRV_8*%
X199363000Y-101391000D03*
%TO.N,SRV_7*%
X199363000Y-103931000D03*
%TO.N,unconnected-(U4-IO5-PadJ3-10)*%
X199363000Y-106471000D03*
%TO.N,SRV_6*%
X199363000Y-109011000D03*
%TO.N,SRV_5*%
X199363000Y-111551000D03*
%TO.N,unconnected-(U4-IO4-PadJ3-13)*%
X199363000Y-114091000D03*
%TO.N,unconnected-(U4-IO0-PadJ3-14)*%
X199363000Y-116631000D03*
%TO.N,unconnected-(U4-IO2-PadJ3-15)*%
X199363000Y-119171000D03*
%TO.N,unconnected-(U4-IO15-PadJ3-16)*%
X199363000Y-121711000D03*
%TO.N,unconnected-(U4-SD1-PadJ3-17)*%
X199363000Y-124251000D03*
%TO.N,unconnected-(U4-SD0-PadJ3-18)*%
X199363000Y-126791000D03*
%TO.N,unconnected-(U4-CLK-PadJ3-19)*%
X199363000Y-129331000D03*
%TD*%
D14*
%TO.N,unconnected-(U3-3V3-PadJ2-1)*%
%TO.C,U3*%
X143938000Y-83611000D03*
D15*
%TO.N,unconnected-(U3-EN-PadJ2-2)*%
X143938000Y-86151000D03*
%TO.N,unconnected-(U3-SENSOR_VP-PadJ2-3)*%
X143938000Y-88691000D03*
%TO.N,unconnected-(U3-SENSOR_VN-PadJ2-4)*%
X143938000Y-91231000D03*
%TO.N,unconnected-(U3-IO34-PadJ2-5)*%
X143938000Y-93771000D03*
%TO.N,unconnected-(U3-IO35-PadJ2-6)*%
X143938000Y-96311000D03*
%TO.N,unconnected-(U3-IO32-PadJ2-7)*%
X143938000Y-98851000D03*
%TO.N,unconnected-(U3-IO33-PadJ2-8)*%
X143938000Y-101391000D03*
%TO.N,unconnected-(U3-IO25-PadJ2-9)*%
X143938000Y-103931000D03*
%TO.N,unconnected-(U3-IO26-PadJ2-10)*%
X143938000Y-106471000D03*
%TO.N,unconnected-(U3-IO27-PadJ2-11)*%
X143938000Y-109011000D03*
%TO.N,unconnected-(U3-IO14-PadJ2-12)*%
X143938000Y-111551000D03*
%TO.N,unconnected-(U3-IO12-PadJ2-13)*%
X143938000Y-114091000D03*
%TO.N,unconnected-(U3-GND1-PadJ2-14)*%
X143938000Y-116631000D03*
%TO.N,unconnected-(U3-IO13-PadJ2-15)*%
X143938000Y-119171000D03*
%TO.N,unconnected-(U3-SD2-PadJ2-16)*%
X143938000Y-121711000D03*
%TO.N,unconnected-(U3-SD3-PadJ2-17)*%
X143938000Y-124251000D03*
%TO.N,unconnected-(U3-CMD-PadJ2-18)*%
X143938000Y-126791000D03*
%TO.N,5V*%
X143938000Y-129331000D03*
%TO.N,GND*%
X169338000Y-83611000D03*
%TO.N,unconnected-(U3-IO23-PadJ3-2)*%
X169338000Y-86151000D03*
%TO.N,SRV_22*%
X169338000Y-88691000D03*
%TO.N,T_TX*%
X169338000Y-91231000D03*
%TO.N,T_RX*%
X169338000Y-93771000D03*
%TO.N,SRV_21*%
X169338000Y-96311000D03*
%TO.N,unconnected-(U3-GND2-PadJ3-7)*%
X169338000Y-98851000D03*
%TO.N,SRV_20*%
X169338000Y-101391000D03*
%TO.N,SRV_19*%
X169338000Y-103931000D03*
%TO.N,unconnected-(U3-IO5-PadJ3-10)*%
X169338000Y-106471000D03*
%TO.N,SRV_18*%
X169338000Y-109011000D03*
%TO.N,SRV_17*%
X169338000Y-111551000D03*
%TO.N,unconnected-(U3-IO4-PadJ3-13)*%
X169338000Y-114091000D03*
%TO.N,unconnected-(U3-IO0-PadJ3-14)*%
X169338000Y-116631000D03*
%TO.N,unconnected-(U3-IO2-PadJ3-15)*%
X169338000Y-119171000D03*
%TO.N,unconnected-(U3-IO15-PadJ3-16)*%
X169338000Y-121711000D03*
%TO.N,unconnected-(U3-SD1-PadJ3-17)*%
X169338000Y-124251000D03*
%TO.N,unconnected-(U3-SD0-PadJ3-18)*%
X169338000Y-126791000D03*
%TO.N,unconnected-(U3-CLK-PadJ3-19)*%
X169338000Y-129331000D03*
%TD*%
D14*
%TO.N,unconnected-(U2-3V3-PadJ2-1)*%
%TO.C,U2*%
X113913000Y-83611000D03*
D15*
%TO.N,unconnected-(U2-EN-PadJ2-2)*%
X113913000Y-86151000D03*
%TO.N,unconnected-(U2-SENSOR_VP-PadJ2-3)*%
X113913000Y-88691000D03*
%TO.N,unconnected-(U2-SENSOR_VN-PadJ2-4)*%
X113913000Y-91231000D03*
%TO.N,unconnected-(U2-IO34-PadJ2-5)*%
X113913000Y-93771000D03*
%TO.N,unconnected-(U2-IO35-PadJ2-6)*%
X113913000Y-96311000D03*
%TO.N,unconnected-(U2-IO32-PadJ2-7)*%
X113913000Y-98851000D03*
%TO.N,unconnected-(U2-IO33-PadJ2-8)*%
X113913000Y-101391000D03*
%TO.N,unconnected-(U2-IO25-PadJ2-9)*%
X113913000Y-103931000D03*
%TO.N,MISC_1*%
X113913000Y-106471000D03*
%TO.N,MISC_2*%
X113913000Y-109011000D03*
%TO.N,unconnected-(U2-IO14-PadJ2-12)*%
X113913000Y-111551000D03*
%TO.N,unconnected-(U2-IO12-PadJ2-13)*%
X113913000Y-114091000D03*
%TO.N,unconnected-(U2-GND1-PadJ2-14)*%
X113913000Y-116631000D03*
%TO.N,unconnected-(U2-IO13-PadJ2-15)*%
X113913000Y-119171000D03*
%TO.N,unconnected-(U2-SD2-PadJ2-16)*%
X113913000Y-121711000D03*
%TO.N,unconnected-(U2-SD3-PadJ2-17)*%
X113913000Y-124251000D03*
%TO.N,unconnected-(U2-CMD-PadJ2-18)*%
X113913000Y-126791000D03*
%TO.N,5V*%
X113913000Y-129331000D03*
%TO.N,GND*%
X139313000Y-83611000D03*
%TO.N,unconnected-(U2-IO23-PadJ3-2)*%
X139313000Y-86151000D03*
%TO.N,SPR_2*%
X139313000Y-88691000D03*
%TO.N,H_TX*%
X139313000Y-91231000D03*
%TO.N,H_RX*%
X139313000Y-93771000D03*
%TO.N,SPR_1*%
X139313000Y-96311000D03*
%TO.N,unconnected-(U2-GND2-PadJ3-7)*%
X139313000Y-98851000D03*
%TO.N,SRV_4*%
X139313000Y-101391000D03*
%TO.N,SRV_3*%
X139313000Y-103931000D03*
%TO.N,unconnected-(U2-IO5-PadJ3-10)*%
X139313000Y-106471000D03*
%TO.N,SRV_2*%
X139313000Y-109011000D03*
%TO.N,SRV_1*%
X139313000Y-111551000D03*
%TO.N,unconnected-(U2-IO4-PadJ3-13)*%
X139313000Y-114091000D03*
%TO.N,unconnected-(U2-IO0-PadJ3-14)*%
X139313000Y-116631000D03*
%TO.N,unconnected-(U2-IO2-PadJ3-15)*%
X139313000Y-119171000D03*
%TO.N,unconnected-(U2-IO15-PadJ3-16)*%
X139313000Y-121711000D03*
%TO.N,unconnected-(U2-SD1-PadJ3-17)*%
X139313000Y-124251000D03*
%TO.N,unconnected-(U2-SD0-PadJ3-18)*%
X139313000Y-126791000D03*
%TO.N,unconnected-(U2-CLK-PadJ3-19)*%
X139313000Y-129331000D03*
%TD*%
D14*
%TO.N,unconnected-(U1-3V3-PadJ2-1)*%
%TO.C,U1*%
X83888000Y-83611000D03*
D15*
%TO.N,unconnected-(U1-EN-PadJ2-2)*%
X83888000Y-86151000D03*
%TO.N,unconnected-(U1-SENSOR_VP-PadJ2-3)*%
X83888000Y-88691000D03*
%TO.N,unconnected-(U1-SENSOR_VN-PadJ2-4)*%
X83888000Y-91231000D03*
%TO.N,unconnected-(U1-IO34-PadJ2-5)*%
X83888000Y-93771000D03*
%TO.N,unconnected-(U1-IO35-PadJ2-6)*%
X83888000Y-96311000D03*
%TO.N,unconnected-(U1-IO32-PadJ2-7)*%
X83888000Y-98851000D03*
%TO.N,unconnected-(U1-IO33-PadJ2-8)*%
X83888000Y-101391000D03*
%TO.N,unconnected-(U1-IO25-PadJ2-9)*%
X83888000Y-103931000D03*
%TO.N,unconnected-(U1-IO26-PadJ2-10)*%
X83888000Y-106471000D03*
%TO.N,unconnected-(U1-IO27-PadJ2-11)*%
X83888000Y-109011000D03*
%TO.N,unconnected-(U1-IO14-PadJ2-12)*%
X83888000Y-111551000D03*
%TO.N,unconnected-(U1-IO12-PadJ2-13)*%
X83888000Y-114091000D03*
%TO.N,unconnected-(U1-GND1-PadJ2-14)*%
X83888000Y-116631000D03*
%TO.N,unconnected-(U1-IO13-PadJ2-15)*%
X83888000Y-119171000D03*
%TO.N,unconnected-(U1-SD2-PadJ2-16)*%
X83888000Y-121711000D03*
%TO.N,unconnected-(U1-SD3-PadJ2-17)*%
X83888000Y-124251000D03*
%TO.N,unconnected-(U1-CMD-PadJ2-18)*%
X83888000Y-126791000D03*
%TO.N,5V*%
X83888000Y-129331000D03*
%TO.N,GND*%
X109288000Y-83611000D03*
%TO.N,unconnected-(U1-IO23-PadJ3-2)*%
X109288000Y-86151000D03*
%TO.N,SRV_16*%
X109288000Y-88691000D03*
%TO.N,RA_TX*%
X109288000Y-91231000D03*
%TO.N,RA_RX*%
X109288000Y-93771000D03*
%TO.N,SRV_15*%
X109288000Y-96311000D03*
%TO.N,unconnected-(U1-GND2-PadJ3-7)*%
X109288000Y-98851000D03*
%TO.N,SRV_14*%
X109288000Y-101391000D03*
%TO.N,SRV_13*%
X109288000Y-103931000D03*
%TO.N,unconnected-(U1-IO5-PadJ3-10)*%
X109288000Y-106471000D03*
%TO.N,SRV_12*%
X109288000Y-109011000D03*
%TO.N,SRV_11*%
X109288000Y-111551000D03*
%TO.N,unconnected-(U1-IO4-PadJ3-13)*%
X109288000Y-114091000D03*
%TO.N,unconnected-(U1-IO0-PadJ3-14)*%
X109288000Y-116631000D03*
%TO.N,unconnected-(U1-IO2-PadJ3-15)*%
X109288000Y-119171000D03*
%TO.N,unconnected-(U1-IO15-PadJ3-16)*%
X109288000Y-121711000D03*
%TO.N,unconnected-(U1-SD1-PadJ3-17)*%
X109288000Y-124251000D03*
%TO.N,unconnected-(U1-SD0-PadJ3-18)*%
X109288000Y-126791000D03*
%TO.N,unconnected-(U1-CLK-PadJ3-19)*%
X109288000Y-129331000D03*
%TD*%
D10*
%TO.N,SRV_3*%
%TO.C,J3*%
X134300853Y-62179000D03*
%TO.N,SVR_PWR*%
X134300853Y-59639000D03*
D11*
%TO.N,GND*%
X134300853Y-57099000D03*
%TD*%
D16*
%TO.N,MISC_2*%
X113913000Y-109011000D02*
X118618000Y-113716000D01*
X118618000Y-113716000D02*
X118618000Y-115824000D01*
X208788000Y-113030000D02*
X212090000Y-113030000D01*
X118618000Y-115824000D02*
X136144000Y-133350000D01*
X136144000Y-133350000D02*
X201168000Y-133350000D01*
X201168000Y-133350000D02*
X204724000Y-129794000D01*
X204724000Y-129794000D02*
X204724000Y-117094000D01*
X212090000Y-113030000D02*
X214826000Y-110294000D01*
X214826000Y-110294000D02*
X214826000Y-106944000D01*
X204724000Y-117094000D02*
X208788000Y-113030000D01*
%TO.N,MISC_1*%
X214816000Y-99118000D02*
X211318000Y-102616000D01*
X209042000Y-102616000D02*
X203200000Y-108458000D01*
X120396000Y-115570000D02*
X120396000Y-112954000D01*
X203200000Y-129540000D02*
X200660000Y-132080000D01*
X211318000Y-102616000D02*
X209042000Y-102616000D01*
X203200000Y-108458000D02*
X203200000Y-129540000D01*
X200660000Y-132080000D02*
X136906000Y-132080000D01*
X136906000Y-132080000D02*
X120396000Y-115570000D01*
X120396000Y-112954000D02*
X113913000Y-106471000D01*
%TO.N,SRV_9*%
X196869387Y-62179000D02*
X196869387Y-70338613D01*
X196869387Y-70338613D02*
X193548000Y-73660000D01*
X193548000Y-73660000D02*
X193548000Y-92202000D01*
X197657000Y-96311000D02*
X199363000Y-96311000D01*
X193548000Y-92202000D02*
X197657000Y-96311000D01*
%TO.N,SRV_10*%
X201338569Y-62179000D02*
X201338569Y-70949431D01*
X201338569Y-70949431D02*
X196088000Y-76200000D01*
X196088000Y-76200000D02*
X196088000Y-85416000D01*
X196088000Y-85416000D02*
X199363000Y-88691000D01*
%TO.N,SRV_8*%
X190500000Y-69596000D02*
X190500000Y-97282000D01*
X192400206Y-62179000D02*
X192400206Y-67695794D01*
X192400206Y-67695794D02*
X190500000Y-69596000D01*
X190500000Y-97282000D02*
X194609000Y-101391000D01*
X194609000Y-101391000D02*
X199363000Y-101391000D01*
%TO.N,SRV_7*%
X187931025Y-62179000D02*
X187931025Y-99285025D01*
X192577000Y-103931000D02*
X199363000Y-103931000D01*
X187931025Y-99285025D02*
X192577000Y-103931000D01*
%TO.N,SRV_6*%
X183461844Y-102796156D02*
X183388000Y-102870000D01*
X183388000Y-102870000D02*
X189529000Y-109011000D01*
X183461844Y-62179000D02*
X183461844Y-102796156D01*
X189529000Y-109011000D02*
X199363000Y-109011000D01*
%TO.N,SRV_5*%
X178992663Y-105840663D02*
X184912000Y-111760000D01*
X178992663Y-62179000D02*
X178992663Y-105840663D01*
X184912000Y-111760000D02*
X185121000Y-111551000D01*
X185121000Y-111551000D02*
X199363000Y-111551000D01*
%TO.N,SRV_18*%
X156646758Y-62179000D02*
X156646758Y-64841242D01*
X156646758Y-64841242D02*
X155448000Y-66040000D01*
X155448000Y-66040000D02*
X155448000Y-102870000D01*
X155448000Y-102870000D02*
X161589000Y-109011000D01*
X161589000Y-109011000D02*
X169338000Y-109011000D01*
%TO.N,SRV_21*%
X170054301Y-62179000D02*
X170054301Y-65149699D01*
X170054301Y-65149699D02*
X163830000Y-71374000D01*
X163830000Y-71374000D02*
X163830000Y-93472000D01*
X163830000Y-93472000D02*
X166669000Y-96311000D01*
X166669000Y-96311000D02*
X169338000Y-96311000D01*
%TO.N,SRV_22*%
X174523482Y-62179000D02*
X174523482Y-65252518D01*
X174523482Y-65252518D02*
X166624000Y-73152000D01*
X166624000Y-73152000D02*
X166624000Y-87946500D01*
X167368500Y-88691000D02*
X169338000Y-88691000D01*
X166624000Y-87946500D02*
X167368500Y-88691000D01*
%TO.N,SRV_20*%
X165585120Y-62179000D02*
X165585120Y-65808880D01*
X165585120Y-65808880D02*
X161544000Y-69850000D01*
X161544000Y-69850000D02*
X161544000Y-97790000D01*
X161544000Y-97790000D02*
X165145000Y-101391000D01*
X165145000Y-101391000D02*
X169338000Y-101391000D01*
%TO.N,SRV_19*%
X161115939Y-62179000D02*
X161115939Y-66976061D01*
X161115939Y-66976061D02*
X159004000Y-69088000D01*
X159004000Y-69088000D02*
X159004000Y-100838000D01*
X162097000Y-103931000D02*
X169338000Y-103931000D01*
X159004000Y-100838000D02*
X162097000Y-103931000D01*
%TO.N,SRV_17*%
X152177577Y-62179000D02*
X152177577Y-107727577D01*
X152177577Y-107727577D02*
X156001000Y-111551000D01*
X156001000Y-111551000D02*
X169338000Y-111551000D01*
%TO.N,SPR_2*%
X147708396Y-62179000D02*
X136144000Y-73743396D01*
X136144000Y-73743396D02*
X136144000Y-87122000D01*
X136144000Y-87122000D02*
X137713000Y-88691000D01*
X137713000Y-88691000D02*
X139313000Y-88691000D01*
%TO.N,SRV_2*%
X129831672Y-62179000D02*
X128016000Y-63994672D01*
X128016000Y-63994672D02*
X128016000Y-104140000D01*
X128016000Y-104140000D02*
X132887000Y-109011000D01*
X132887000Y-109011000D02*
X139313000Y-109011000D01*
%TO.N,SRV_4*%
X138770034Y-62179000D02*
X131826000Y-69123034D01*
X131826000Y-69123034D02*
X131826000Y-97790000D01*
X131826000Y-97790000D02*
X135427000Y-101391000D01*
X135427000Y-101391000D02*
X139313000Y-101391000D01*
%TO.N,SPR_1*%
X143239215Y-62179000D02*
X134366000Y-71052215D01*
X134366000Y-71052215D02*
X134366000Y-91364000D01*
X134366000Y-91364000D02*
X139313000Y-96311000D01*
%TO.N,SRV_3*%
X134300853Y-62179000D02*
X129794000Y-66685853D01*
X129794000Y-66685853D02*
X129794000Y-100584000D01*
X129794000Y-100584000D02*
X133141000Y-103931000D01*
X133141000Y-103931000D02*
X139313000Y-103931000D01*
%TO.N,SRV_1*%
X125362491Y-62179000D02*
X125362491Y-105804491D01*
X131109000Y-111551000D02*
X139313000Y-111551000D01*
X125362491Y-105804491D02*
X131109000Y-111551000D01*
%TO.N,SRV_16*%
X120893310Y-62179000D02*
X116524310Y-66548000D01*
X106426000Y-86868000D02*
X108249000Y-88691000D01*
X114300000Y-68580000D02*
X110236000Y-68580000D01*
X116524310Y-66548000D02*
X116332000Y-66548000D01*
X116332000Y-66548000D02*
X114300000Y-68580000D01*
X110236000Y-68580000D02*
X106426000Y-72390000D01*
X106426000Y-72390000D02*
X106426000Y-86868000D01*
X108249000Y-88691000D02*
X109288000Y-88691000D01*
%TO.N,SRV_15*%
X116424129Y-62179000D02*
X115113000Y-62179000D01*
X115113000Y-62179000D02*
X104902000Y-72390000D01*
X107995000Y-96311000D02*
X109288000Y-96311000D01*
X104902000Y-72390000D02*
X104902000Y-93218000D01*
X104902000Y-93218000D02*
X107995000Y-96311000D01*
%TO.N,SRV_14*%
X111954948Y-62179000D02*
X103378000Y-70755948D01*
X103378000Y-98044000D02*
X106725000Y-101391000D01*
X106725000Y-101391000D02*
X109288000Y-101391000D01*
X103378000Y-70755948D02*
X103378000Y-98044000D01*
%TO.N,SRV_13*%
X107485767Y-62179000D02*
X107485767Y-64218233D01*
X101854000Y-100076000D02*
X105709000Y-103931000D01*
X107485767Y-64218233D02*
X101854000Y-69850000D01*
X101854000Y-69850000D02*
X101854000Y-100076000D01*
X105709000Y-103931000D02*
X109288000Y-103931000D01*
%TO.N,SRV_12*%
X103016586Y-62179000D02*
X103016586Y-65385414D01*
X103016586Y-65385414D02*
X100330000Y-68072000D01*
X100330000Y-68072000D02*
X100330000Y-102108000D01*
X100330000Y-102108000D02*
X107233000Y-109011000D01*
X107233000Y-109011000D02*
X109288000Y-109011000D01*
%TO.N,SRV_11*%
X98547405Y-62179000D02*
X98547405Y-103881405D01*
X106217000Y-111551000D02*
X109288000Y-111551000D01*
X98547405Y-103881405D02*
X106217000Y-111551000D01*
%TD*%
%TA.AperFunction,Conductor*%
%TO.N,SVR_PWR*%
G36*
X204287209Y-54304741D02*
G01*
X204354205Y-54324566D01*
X204399850Y-54377465D01*
X204410948Y-54428741D01*
X204410948Y-70945000D01*
X204391263Y-71012039D01*
X204338459Y-71057794D01*
X204286948Y-71069000D01*
X202213069Y-71069000D01*
X202146030Y-71049315D01*
X202100275Y-70996511D01*
X202089069Y-70945000D01*
X202089069Y-63366700D01*
X202108754Y-63299661D01*
X202141944Y-63265126D01*
X202209970Y-63217495D01*
X202377064Y-63050401D01*
X202512604Y-62856830D01*
X202612472Y-62642663D01*
X202673632Y-62414408D01*
X202694228Y-62179000D01*
X202673632Y-61943592D01*
X202612472Y-61715337D01*
X202512604Y-61501171D01*
X202505119Y-61490480D01*
X202377063Y-61307597D01*
X202209971Y-61140506D01*
X202209970Y-61140505D01*
X202023974Y-61010269D01*
X201980350Y-60955692D01*
X201973157Y-60886193D01*
X202004679Y-60823839D01*
X202023974Y-60807119D01*
X202209651Y-60677105D01*
X202376674Y-60510082D01*
X202512169Y-60316578D01*
X202611998Y-60102492D01*
X202612001Y-60102486D01*
X202669205Y-59889000D01*
X201771581Y-59889000D01*
X201804494Y-59831993D01*
X201838569Y-59704826D01*
X201838569Y-59573174D01*
X201804494Y-59446007D01*
X201771581Y-59389000D01*
X202669205Y-59389000D01*
X202669204Y-59388999D01*
X202612001Y-59175513D01*
X202611998Y-59175507D01*
X202512169Y-58961422D01*
X202512168Y-58961420D01*
X202376682Y-58767926D01*
X202376677Y-58767920D01*
X202254622Y-58645865D01*
X202221137Y-58584542D01*
X202226121Y-58514850D01*
X202267993Y-58458917D01*
X202298969Y-58442002D01*
X202430900Y-58392796D01*
X202546115Y-58306546D01*
X202632365Y-58191331D01*
X202682660Y-58056483D01*
X202689069Y-57996873D01*
X202689068Y-56201128D01*
X202682660Y-56141517D01*
X202632365Y-56006669D01*
X202632364Y-56006668D01*
X202632362Y-56006664D01*
X202546116Y-55891455D01*
X202546113Y-55891452D01*
X202430904Y-55805206D01*
X202430897Y-55805202D01*
X202296051Y-55754908D01*
X202296052Y-55754908D01*
X202236452Y-55748501D01*
X202236450Y-55748500D01*
X202236442Y-55748500D01*
X202236433Y-55748500D01*
X200440698Y-55748500D01*
X200440692Y-55748501D01*
X200381085Y-55754908D01*
X200246240Y-55805202D01*
X200246233Y-55805206D01*
X200131024Y-55891452D01*
X200131021Y-55891455D01*
X200044775Y-56006664D01*
X200044771Y-56006671D01*
X199994477Y-56141517D01*
X199988070Y-56201116D01*
X199988070Y-56201123D01*
X199988069Y-56201135D01*
X199988069Y-57996870D01*
X199988070Y-57996876D01*
X199994477Y-58056483D01*
X200044771Y-58191328D01*
X200044775Y-58191335D01*
X200131021Y-58306544D01*
X200131024Y-58306547D01*
X200246233Y-58392793D01*
X200246240Y-58392797D01*
X200246243Y-58392798D01*
X200378167Y-58442002D01*
X200434100Y-58483873D01*
X200458518Y-58549337D01*
X200443667Y-58617610D01*
X200422516Y-58645865D01*
X200300455Y-58767926D01*
X200164969Y-58961420D01*
X200164968Y-58961422D01*
X200065139Y-59175507D01*
X200065136Y-59175513D01*
X200007933Y-59388999D01*
X200007933Y-59389000D01*
X200905557Y-59389000D01*
X200872644Y-59446007D01*
X200838569Y-59573174D01*
X200838569Y-59704826D01*
X200872644Y-59831993D01*
X200905557Y-59889000D01*
X200007933Y-59889000D01*
X200065136Y-60102486D01*
X200065139Y-60102492D01*
X200164968Y-60316578D01*
X200300463Y-60510082D01*
X200467486Y-60677105D01*
X200653164Y-60807119D01*
X200696788Y-60861696D01*
X200703981Y-60931195D01*
X200672459Y-60993549D01*
X200653164Y-61010269D01*
X200467163Y-61140508D01*
X200300074Y-61307597D01*
X200164534Y-61501169D01*
X200164533Y-61501171D01*
X200064667Y-61715335D01*
X200064663Y-61715344D01*
X200003507Y-61943586D01*
X200003505Y-61943596D01*
X199982910Y-62178999D01*
X199982910Y-62179000D01*
X200003505Y-62414403D01*
X200003507Y-62414413D01*
X200064663Y-62642655D01*
X200064665Y-62642659D01*
X200064666Y-62642663D01*
X200109802Y-62739457D01*
X200164534Y-62856830D01*
X200164536Y-62856834D01*
X200300070Y-63050395D01*
X200300075Y-63050402D01*
X200467164Y-63217492D01*
X200467167Y-63217494D01*
X200467168Y-63217495D01*
X200535192Y-63265125D01*
X200578817Y-63319701D01*
X200588069Y-63366700D01*
X200588069Y-70587201D01*
X200568384Y-70654240D01*
X200551750Y-70674882D01*
X200193951Y-71032681D01*
X200132628Y-71066166D01*
X200106270Y-71069000D01*
X197499729Y-71069000D01*
X197432690Y-71049315D01*
X197386935Y-70996511D01*
X197376991Y-70927353D01*
X197406016Y-70863797D01*
X197412048Y-70857319D01*
X197452339Y-70817028D01*
X197479592Y-70776240D01*
X197534471Y-70694108D01*
X197584305Y-70573799D01*
X197591046Y-70557525D01*
X197619887Y-70412530D01*
X197619887Y-70264695D01*
X197619887Y-63366700D01*
X197639572Y-63299661D01*
X197672762Y-63265126D01*
X197740788Y-63217495D01*
X197907882Y-63050401D01*
X198043422Y-62856830D01*
X198143290Y-62642663D01*
X198204450Y-62414408D01*
X198225046Y-62179000D01*
X198204450Y-61943592D01*
X198143290Y-61715337D01*
X198043422Y-61501171D01*
X198035937Y-61490480D01*
X197907881Y-61307597D01*
X197740789Y-61140506D01*
X197740788Y-61140505D01*
X197554792Y-61010269D01*
X197511168Y-60955692D01*
X197503975Y-60886193D01*
X197535497Y-60823839D01*
X197554792Y-60807119D01*
X197740469Y-60677105D01*
X197907492Y-60510082D01*
X198042987Y-60316578D01*
X198142816Y-60102492D01*
X198142819Y-60102486D01*
X198200023Y-59889000D01*
X197302399Y-59889000D01*
X197335312Y-59831993D01*
X197369387Y-59704826D01*
X197369387Y-59573174D01*
X197335312Y-59446007D01*
X197302399Y-59389000D01*
X198200023Y-59389000D01*
X198200022Y-59388999D01*
X198142819Y-59175513D01*
X198142816Y-59175507D01*
X198042987Y-58961422D01*
X198042986Y-58961420D01*
X197907500Y-58767926D01*
X197907495Y-58767920D01*
X197785440Y-58645865D01*
X197751955Y-58584542D01*
X197756939Y-58514850D01*
X197798811Y-58458917D01*
X197829787Y-58442002D01*
X197961718Y-58392796D01*
X198076933Y-58306546D01*
X198163183Y-58191331D01*
X198213478Y-58056483D01*
X198219887Y-57996873D01*
X198219886Y-56201128D01*
X198213478Y-56141517D01*
X198163183Y-56006669D01*
X198163182Y-56006668D01*
X198163180Y-56006664D01*
X198076934Y-55891455D01*
X198076931Y-55891452D01*
X197961722Y-55805206D01*
X197961715Y-55805202D01*
X197826869Y-55754908D01*
X197826870Y-55754908D01*
X197767270Y-55748501D01*
X197767268Y-55748500D01*
X197767260Y-55748500D01*
X197767251Y-55748500D01*
X195971516Y-55748500D01*
X195971510Y-55748501D01*
X195911903Y-55754908D01*
X195777058Y-55805202D01*
X195777051Y-55805206D01*
X195661842Y-55891452D01*
X195661839Y-55891455D01*
X195575593Y-56006664D01*
X195575589Y-56006671D01*
X195525295Y-56141517D01*
X195518888Y-56201116D01*
X195518888Y-56201123D01*
X195518887Y-56201135D01*
X195518887Y-57996870D01*
X195518888Y-57996876D01*
X195525295Y-58056483D01*
X195575589Y-58191328D01*
X195575593Y-58191335D01*
X195661839Y-58306544D01*
X195661842Y-58306547D01*
X195777051Y-58392793D01*
X195777058Y-58392797D01*
X195777061Y-58392798D01*
X195908985Y-58442002D01*
X195964918Y-58483873D01*
X195989336Y-58549337D01*
X195974485Y-58617610D01*
X195953334Y-58645865D01*
X195831273Y-58767926D01*
X195695787Y-58961420D01*
X195695786Y-58961422D01*
X195595957Y-59175507D01*
X195595954Y-59175513D01*
X195538751Y-59388999D01*
X195538751Y-59389000D01*
X196436375Y-59389000D01*
X196403462Y-59446007D01*
X196369387Y-59573174D01*
X196369387Y-59704826D01*
X196403462Y-59831993D01*
X196436375Y-59889000D01*
X195538751Y-59889000D01*
X195595954Y-60102486D01*
X195595957Y-60102492D01*
X195695786Y-60316578D01*
X195831281Y-60510082D01*
X195998304Y-60677105D01*
X196183982Y-60807119D01*
X196227606Y-60861696D01*
X196234799Y-60931195D01*
X196203277Y-60993549D01*
X196183982Y-61010269D01*
X195997981Y-61140508D01*
X195830892Y-61307597D01*
X195695352Y-61501169D01*
X195695351Y-61501171D01*
X195595485Y-61715335D01*
X195595481Y-61715344D01*
X195534325Y-61943586D01*
X195534323Y-61943596D01*
X195513728Y-62178999D01*
X195513728Y-62179000D01*
X195534323Y-62414403D01*
X195534325Y-62414413D01*
X195595481Y-62642655D01*
X195595483Y-62642659D01*
X195595484Y-62642663D01*
X195640620Y-62739457D01*
X195695352Y-62856830D01*
X195695354Y-62856834D01*
X195830888Y-63050395D01*
X195830893Y-63050402D01*
X195997982Y-63217492D01*
X195997985Y-63217494D01*
X195997986Y-63217495D01*
X196066010Y-63265125D01*
X196109635Y-63319701D01*
X196118887Y-63366700D01*
X196118887Y-69976383D01*
X196099202Y-70043422D01*
X196082568Y-70064064D01*
X195113951Y-71032681D01*
X195052628Y-71066166D01*
X195026270Y-71069000D01*
X191374500Y-71069000D01*
X191307461Y-71049315D01*
X191261706Y-70996511D01*
X191250500Y-70945000D01*
X191250500Y-69958229D01*
X191270185Y-69891190D01*
X191286819Y-69870548D01*
X192983155Y-68174212D01*
X192983157Y-68174210D01*
X193031684Y-68101584D01*
X193065290Y-68051289D01*
X193121864Y-67914707D01*
X193134121Y-67853087D01*
X193150706Y-67769714D01*
X193150706Y-63366700D01*
X193170391Y-63299661D01*
X193203581Y-63265126D01*
X193271607Y-63217495D01*
X193438701Y-63050401D01*
X193574241Y-62856830D01*
X193674109Y-62642663D01*
X193735269Y-62414408D01*
X193755865Y-62179000D01*
X193735269Y-61943592D01*
X193674109Y-61715337D01*
X193574241Y-61501171D01*
X193566756Y-61490480D01*
X193438700Y-61307597D01*
X193271608Y-61140506D01*
X193271607Y-61140505D01*
X193085611Y-61010269D01*
X193041987Y-60955692D01*
X193034794Y-60886193D01*
X193066316Y-60823839D01*
X193085611Y-60807119D01*
X193271288Y-60677105D01*
X193438311Y-60510082D01*
X193573806Y-60316578D01*
X193673635Y-60102492D01*
X193673638Y-60102486D01*
X193730842Y-59889000D01*
X192833218Y-59889000D01*
X192866131Y-59831993D01*
X192900206Y-59704826D01*
X192900206Y-59573174D01*
X192866131Y-59446007D01*
X192833218Y-59389000D01*
X193730842Y-59389000D01*
X193730841Y-59388999D01*
X193673638Y-59175513D01*
X193673635Y-59175507D01*
X193573806Y-58961422D01*
X193573805Y-58961420D01*
X193438319Y-58767926D01*
X193438314Y-58767920D01*
X193316259Y-58645865D01*
X193282774Y-58584542D01*
X193287758Y-58514850D01*
X193329630Y-58458917D01*
X193360606Y-58442002D01*
X193492537Y-58392796D01*
X193607752Y-58306546D01*
X193694002Y-58191331D01*
X193744297Y-58056483D01*
X193750706Y-57996873D01*
X193750705Y-56201128D01*
X193744297Y-56141517D01*
X193694002Y-56006669D01*
X193694001Y-56006668D01*
X193693999Y-56006664D01*
X193607753Y-55891455D01*
X193607750Y-55891452D01*
X193492541Y-55805206D01*
X193492534Y-55805202D01*
X193357688Y-55754908D01*
X193357689Y-55754908D01*
X193298089Y-55748501D01*
X193298087Y-55748500D01*
X193298079Y-55748500D01*
X193298070Y-55748500D01*
X191502335Y-55748500D01*
X191502329Y-55748501D01*
X191442722Y-55754908D01*
X191307877Y-55805202D01*
X191307870Y-55805206D01*
X191192661Y-55891452D01*
X191192658Y-55891455D01*
X191106412Y-56006664D01*
X191106408Y-56006671D01*
X191056114Y-56141517D01*
X191049707Y-56201116D01*
X191049707Y-56201123D01*
X191049706Y-56201135D01*
X191049706Y-57996870D01*
X191049707Y-57996876D01*
X191056114Y-58056483D01*
X191106408Y-58191328D01*
X191106412Y-58191335D01*
X191192658Y-58306544D01*
X191192661Y-58306547D01*
X191307870Y-58392793D01*
X191307877Y-58392797D01*
X191307880Y-58392798D01*
X191439804Y-58442002D01*
X191495737Y-58483873D01*
X191520155Y-58549337D01*
X191505304Y-58617610D01*
X191484153Y-58645865D01*
X191362092Y-58767926D01*
X191226606Y-58961420D01*
X191226605Y-58961422D01*
X191126776Y-59175507D01*
X191126773Y-59175513D01*
X191069570Y-59388999D01*
X191069570Y-59389000D01*
X191967194Y-59389000D01*
X191934281Y-59446007D01*
X191900206Y-59573174D01*
X191900206Y-59704826D01*
X191934281Y-59831993D01*
X191967194Y-59889000D01*
X191069570Y-59889000D01*
X191126773Y-60102486D01*
X191126776Y-60102492D01*
X191226605Y-60316578D01*
X191362100Y-60510082D01*
X191529123Y-60677105D01*
X191714801Y-60807119D01*
X191758425Y-60861696D01*
X191765618Y-60931195D01*
X191734096Y-60993549D01*
X191714801Y-61010269D01*
X191528800Y-61140508D01*
X191361711Y-61307597D01*
X191226171Y-61501169D01*
X191226170Y-61501171D01*
X191126304Y-61715335D01*
X191126300Y-61715344D01*
X191065144Y-61943586D01*
X191065142Y-61943596D01*
X191044547Y-62178999D01*
X191044547Y-62179000D01*
X191065142Y-62414403D01*
X191065144Y-62414413D01*
X191126300Y-62642655D01*
X191126302Y-62642659D01*
X191126303Y-62642663D01*
X191171439Y-62739457D01*
X191226171Y-62856830D01*
X191226173Y-62856834D01*
X191361707Y-63050395D01*
X191361712Y-63050402D01*
X191528801Y-63217492D01*
X191528804Y-63217494D01*
X191528805Y-63217495D01*
X191596829Y-63265125D01*
X191640454Y-63319701D01*
X191649706Y-63366700D01*
X191649706Y-67333564D01*
X191630021Y-67400603D01*
X191613387Y-67421245D01*
X189917047Y-69117584D01*
X189917045Y-69117586D01*
X189895379Y-69150013D01*
X189886735Y-69162952D01*
X189860736Y-69201861D01*
X189834914Y-69240507D01*
X189778343Y-69377082D01*
X189778340Y-69377092D01*
X189749500Y-69522079D01*
X189749500Y-70945000D01*
X189729815Y-71012039D01*
X189677011Y-71057794D01*
X189625500Y-71069000D01*
X188805525Y-71069000D01*
X188738486Y-71049315D01*
X188692731Y-70996511D01*
X188681525Y-70945000D01*
X188681525Y-63366700D01*
X188701210Y-63299661D01*
X188734400Y-63265126D01*
X188802426Y-63217495D01*
X188969520Y-63050401D01*
X189105060Y-62856830D01*
X189204928Y-62642663D01*
X189266088Y-62414408D01*
X189286684Y-62179000D01*
X189266088Y-61943592D01*
X189204928Y-61715337D01*
X189105060Y-61501171D01*
X189097575Y-61490480D01*
X188969519Y-61307597D01*
X188802427Y-61140506D01*
X188802426Y-61140505D01*
X188616430Y-61010269D01*
X188572806Y-60955692D01*
X188565613Y-60886193D01*
X188597135Y-60823839D01*
X188616430Y-60807119D01*
X188802107Y-60677105D01*
X188969130Y-60510082D01*
X189104625Y-60316578D01*
X189204454Y-60102492D01*
X189204457Y-60102486D01*
X189261661Y-59889000D01*
X188364037Y-59889000D01*
X188396950Y-59831993D01*
X188431025Y-59704826D01*
X188431025Y-59573174D01*
X188396950Y-59446007D01*
X188364037Y-59389000D01*
X189261661Y-59389000D01*
X189261660Y-59388999D01*
X189204457Y-59175513D01*
X189204454Y-59175507D01*
X189104625Y-58961422D01*
X189104624Y-58961420D01*
X188969138Y-58767926D01*
X188969133Y-58767920D01*
X188847078Y-58645865D01*
X188813593Y-58584542D01*
X188818577Y-58514850D01*
X188860449Y-58458917D01*
X188891425Y-58442002D01*
X189023356Y-58392796D01*
X189138571Y-58306546D01*
X189224821Y-58191331D01*
X189275116Y-58056483D01*
X189281525Y-57996873D01*
X189281524Y-56201128D01*
X189275116Y-56141517D01*
X189224821Y-56006669D01*
X189224820Y-56006668D01*
X189224818Y-56006664D01*
X189138572Y-55891455D01*
X189138569Y-55891452D01*
X189023360Y-55805206D01*
X189023353Y-55805202D01*
X188888507Y-55754908D01*
X188888508Y-55754908D01*
X188828908Y-55748501D01*
X188828906Y-55748500D01*
X188828898Y-55748500D01*
X188828889Y-55748500D01*
X187033154Y-55748500D01*
X187033148Y-55748501D01*
X186973541Y-55754908D01*
X186838696Y-55805202D01*
X186838689Y-55805206D01*
X186723480Y-55891452D01*
X186723477Y-55891455D01*
X186637231Y-56006664D01*
X186637227Y-56006671D01*
X186586933Y-56141517D01*
X186580526Y-56201116D01*
X186580526Y-56201123D01*
X186580525Y-56201135D01*
X186580525Y-57996870D01*
X186580526Y-57996876D01*
X186586933Y-58056483D01*
X186637227Y-58191328D01*
X186637231Y-58191335D01*
X186723477Y-58306544D01*
X186723480Y-58306547D01*
X186838689Y-58392793D01*
X186838696Y-58392797D01*
X186838699Y-58392798D01*
X186970623Y-58442002D01*
X187026556Y-58483873D01*
X187050974Y-58549337D01*
X187036123Y-58617610D01*
X187014972Y-58645865D01*
X186892911Y-58767926D01*
X186757425Y-58961420D01*
X186757424Y-58961422D01*
X186657595Y-59175507D01*
X186657592Y-59175513D01*
X186600389Y-59388999D01*
X186600389Y-59389000D01*
X187498013Y-59389000D01*
X187465100Y-59446007D01*
X187431025Y-59573174D01*
X187431025Y-59704826D01*
X187465100Y-59831993D01*
X187498013Y-59889000D01*
X186600389Y-59889000D01*
X186657592Y-60102486D01*
X186657595Y-60102492D01*
X186757424Y-60316578D01*
X186892919Y-60510082D01*
X187059942Y-60677105D01*
X187245620Y-60807119D01*
X187289244Y-60861696D01*
X187296437Y-60931195D01*
X187264915Y-60993549D01*
X187245620Y-61010269D01*
X187059619Y-61140508D01*
X186892530Y-61307597D01*
X186756990Y-61501169D01*
X186756989Y-61501171D01*
X186657123Y-61715335D01*
X186657119Y-61715344D01*
X186595963Y-61943586D01*
X186595961Y-61943596D01*
X186575366Y-62178999D01*
X186575366Y-62179000D01*
X186595961Y-62414403D01*
X186595963Y-62414413D01*
X186657119Y-62642655D01*
X186657121Y-62642659D01*
X186657122Y-62642663D01*
X186702258Y-62739457D01*
X186756990Y-62856830D01*
X186756992Y-62856834D01*
X186892526Y-63050395D01*
X186892531Y-63050402D01*
X187059620Y-63217492D01*
X187059623Y-63217494D01*
X187059624Y-63217495D01*
X187127648Y-63265125D01*
X187171273Y-63319701D01*
X187180525Y-63366700D01*
X187180525Y-70945000D01*
X187160840Y-71012039D01*
X187108036Y-71057794D01*
X187056525Y-71069000D01*
X184336344Y-71069000D01*
X184269305Y-71049315D01*
X184223550Y-70996511D01*
X184212344Y-70945000D01*
X184212344Y-63366700D01*
X184232029Y-63299661D01*
X184265219Y-63265126D01*
X184333245Y-63217495D01*
X184500339Y-63050401D01*
X184635879Y-62856830D01*
X184735747Y-62642663D01*
X184796907Y-62414408D01*
X184817503Y-62179000D01*
X184796907Y-61943592D01*
X184735747Y-61715337D01*
X184635879Y-61501171D01*
X184628394Y-61490480D01*
X184500338Y-61307597D01*
X184333246Y-61140506D01*
X184333245Y-61140505D01*
X184147249Y-61010269D01*
X184103625Y-60955692D01*
X184096432Y-60886193D01*
X184127954Y-60823839D01*
X184147249Y-60807119D01*
X184332926Y-60677105D01*
X184499949Y-60510082D01*
X184635444Y-60316578D01*
X184735273Y-60102492D01*
X184735276Y-60102486D01*
X184792480Y-59889000D01*
X183894856Y-59889000D01*
X183927769Y-59831993D01*
X183961844Y-59704826D01*
X183961844Y-59573174D01*
X183927769Y-59446007D01*
X183894856Y-59389000D01*
X184792480Y-59389000D01*
X184792479Y-59388999D01*
X184735276Y-59175513D01*
X184735273Y-59175507D01*
X184635444Y-58961422D01*
X184635443Y-58961420D01*
X184499957Y-58767926D01*
X184499952Y-58767920D01*
X184377897Y-58645865D01*
X184344412Y-58584542D01*
X184349396Y-58514850D01*
X184391268Y-58458917D01*
X184422244Y-58442002D01*
X184554175Y-58392796D01*
X184669390Y-58306546D01*
X184755640Y-58191331D01*
X184805935Y-58056483D01*
X184812344Y-57996873D01*
X184812343Y-56201128D01*
X184805935Y-56141517D01*
X184755640Y-56006669D01*
X184755639Y-56006668D01*
X184755637Y-56006664D01*
X184669391Y-55891455D01*
X184669388Y-55891452D01*
X184554179Y-55805206D01*
X184554172Y-55805202D01*
X184419326Y-55754908D01*
X184419327Y-55754908D01*
X184359727Y-55748501D01*
X184359725Y-55748500D01*
X184359717Y-55748500D01*
X184359708Y-55748500D01*
X182563973Y-55748500D01*
X182563967Y-55748501D01*
X182504360Y-55754908D01*
X182369515Y-55805202D01*
X182369508Y-55805206D01*
X182254299Y-55891452D01*
X182254296Y-55891455D01*
X182168050Y-56006664D01*
X182168046Y-56006671D01*
X182117752Y-56141517D01*
X182111345Y-56201116D01*
X182111345Y-56201123D01*
X182111344Y-56201135D01*
X182111344Y-57996870D01*
X182111345Y-57996876D01*
X182117752Y-58056483D01*
X182168046Y-58191328D01*
X182168050Y-58191335D01*
X182254296Y-58306544D01*
X182254299Y-58306547D01*
X182369508Y-58392793D01*
X182369515Y-58392797D01*
X182369518Y-58392798D01*
X182501442Y-58442002D01*
X182557375Y-58483873D01*
X182581793Y-58549337D01*
X182566942Y-58617610D01*
X182545791Y-58645865D01*
X182423730Y-58767926D01*
X182288244Y-58961420D01*
X182288243Y-58961422D01*
X182188414Y-59175507D01*
X182188411Y-59175513D01*
X182131208Y-59388999D01*
X182131208Y-59389000D01*
X183028832Y-59389000D01*
X182995919Y-59446007D01*
X182961844Y-59573174D01*
X182961844Y-59704826D01*
X182995919Y-59831993D01*
X183028832Y-59889000D01*
X182131208Y-59889000D01*
X182188411Y-60102486D01*
X182188414Y-60102492D01*
X182288243Y-60316578D01*
X182423738Y-60510082D01*
X182590761Y-60677105D01*
X182776439Y-60807119D01*
X182820063Y-60861696D01*
X182827256Y-60931195D01*
X182795734Y-60993549D01*
X182776439Y-61010269D01*
X182590438Y-61140508D01*
X182423349Y-61307597D01*
X182287809Y-61501169D01*
X182287808Y-61501171D01*
X182187942Y-61715335D01*
X182187938Y-61715344D01*
X182126782Y-61943586D01*
X182126780Y-61943596D01*
X182106185Y-62178999D01*
X182106185Y-62179000D01*
X182126780Y-62414403D01*
X182126782Y-62414413D01*
X182187938Y-62642655D01*
X182187940Y-62642659D01*
X182187941Y-62642663D01*
X182233077Y-62739457D01*
X182287809Y-62856830D01*
X182287811Y-62856834D01*
X182423345Y-63050395D01*
X182423350Y-63050402D01*
X182590439Y-63217492D01*
X182590442Y-63217494D01*
X182590443Y-63217495D01*
X182658467Y-63265125D01*
X182702092Y-63319701D01*
X182711344Y-63366700D01*
X182711344Y-70945000D01*
X182691659Y-71012039D01*
X182638855Y-71057794D01*
X182587344Y-71069000D01*
X179867163Y-71069000D01*
X179800124Y-71049315D01*
X179754369Y-70996511D01*
X179743163Y-70945000D01*
X179743163Y-63366700D01*
X179762848Y-63299661D01*
X179796038Y-63265126D01*
X179864064Y-63217495D01*
X180031158Y-63050401D01*
X180166698Y-62856830D01*
X180266566Y-62642663D01*
X180327726Y-62414408D01*
X180348322Y-62179000D01*
X180327726Y-61943592D01*
X180266566Y-61715337D01*
X180166698Y-61501171D01*
X180159213Y-61490480D01*
X180031157Y-61307597D01*
X179864065Y-61140506D01*
X179864064Y-61140505D01*
X179678068Y-61010269D01*
X179634444Y-60955692D01*
X179627251Y-60886193D01*
X179658773Y-60823839D01*
X179678068Y-60807119D01*
X179863745Y-60677105D01*
X180030768Y-60510082D01*
X180166263Y-60316578D01*
X180266092Y-60102492D01*
X180266095Y-60102486D01*
X180323299Y-59889000D01*
X179425675Y-59889000D01*
X179458588Y-59831993D01*
X179492663Y-59704826D01*
X179492663Y-59573174D01*
X179458588Y-59446007D01*
X179425675Y-59389000D01*
X180323299Y-59389000D01*
X180323298Y-59388999D01*
X180266095Y-59175513D01*
X180266092Y-59175507D01*
X180166263Y-58961422D01*
X180166262Y-58961420D01*
X180030776Y-58767926D01*
X180030771Y-58767920D01*
X179908716Y-58645865D01*
X179875231Y-58584542D01*
X179880215Y-58514850D01*
X179922087Y-58458917D01*
X179953063Y-58442002D01*
X180084994Y-58392796D01*
X180200209Y-58306546D01*
X180286459Y-58191331D01*
X180336754Y-58056483D01*
X180343163Y-57996873D01*
X180343162Y-56201128D01*
X180336754Y-56141517D01*
X180286459Y-56006669D01*
X180286458Y-56006668D01*
X180286456Y-56006664D01*
X180200210Y-55891455D01*
X180200207Y-55891452D01*
X180084998Y-55805206D01*
X180084991Y-55805202D01*
X179950145Y-55754908D01*
X179950146Y-55754908D01*
X179890546Y-55748501D01*
X179890544Y-55748500D01*
X179890536Y-55748500D01*
X179890527Y-55748500D01*
X178094792Y-55748500D01*
X178094786Y-55748501D01*
X178035179Y-55754908D01*
X177900334Y-55805202D01*
X177900327Y-55805206D01*
X177785118Y-55891452D01*
X177785115Y-55891455D01*
X177698869Y-56006664D01*
X177698865Y-56006671D01*
X177648571Y-56141517D01*
X177642164Y-56201116D01*
X177642164Y-56201123D01*
X177642163Y-56201135D01*
X177642163Y-57996870D01*
X177642164Y-57996876D01*
X177648571Y-58056483D01*
X177698865Y-58191328D01*
X177698869Y-58191335D01*
X177785115Y-58306544D01*
X177785118Y-58306547D01*
X177900327Y-58392793D01*
X177900334Y-58392797D01*
X177900337Y-58392798D01*
X178032261Y-58442002D01*
X178088194Y-58483873D01*
X178112612Y-58549337D01*
X178097761Y-58617610D01*
X178076610Y-58645865D01*
X177954549Y-58767926D01*
X177819063Y-58961420D01*
X177819062Y-58961422D01*
X177719233Y-59175507D01*
X177719230Y-59175513D01*
X177662027Y-59388999D01*
X177662027Y-59389000D01*
X178559651Y-59389000D01*
X178526738Y-59446007D01*
X178492663Y-59573174D01*
X178492663Y-59704826D01*
X178526738Y-59831993D01*
X178559651Y-59889000D01*
X177662027Y-59889000D01*
X177719230Y-60102486D01*
X177719233Y-60102492D01*
X177819062Y-60316578D01*
X177954557Y-60510082D01*
X178121580Y-60677105D01*
X178307258Y-60807119D01*
X178350882Y-60861696D01*
X178358075Y-60931195D01*
X178326553Y-60993549D01*
X178307258Y-61010269D01*
X178121257Y-61140508D01*
X177954168Y-61307597D01*
X177818628Y-61501169D01*
X177818627Y-61501171D01*
X177718761Y-61715335D01*
X177718757Y-61715344D01*
X177657601Y-61943586D01*
X177657599Y-61943596D01*
X177637004Y-62178999D01*
X177637004Y-62179000D01*
X177657599Y-62414403D01*
X177657601Y-62414413D01*
X177718757Y-62642655D01*
X177718759Y-62642659D01*
X177718760Y-62642663D01*
X177763896Y-62739457D01*
X177818628Y-62856830D01*
X177818630Y-62856834D01*
X177954164Y-63050395D01*
X177954169Y-63050402D01*
X178121258Y-63217492D01*
X178121261Y-63217494D01*
X178121262Y-63217495D01*
X178189286Y-63265125D01*
X178232911Y-63319701D01*
X178242163Y-63366700D01*
X178242163Y-70945000D01*
X178222478Y-71012039D01*
X178169674Y-71057794D01*
X178118163Y-71069000D01*
X170067730Y-71069000D01*
X170000691Y-71049315D01*
X169954936Y-70996511D01*
X169944992Y-70927353D01*
X169974017Y-70863797D01*
X169980049Y-70857319D01*
X175106429Y-65730938D01*
X175106432Y-65730935D01*
X175106431Y-65730935D01*
X175106434Y-65730933D01*
X175175134Y-65628115D01*
X175188566Y-65608013D01*
X175231155Y-65505194D01*
X175245141Y-65471430D01*
X175273982Y-65326435D01*
X175273982Y-65178600D01*
X175273982Y-63366700D01*
X175293667Y-63299661D01*
X175326857Y-63265126D01*
X175394883Y-63217495D01*
X175561977Y-63050401D01*
X175697517Y-62856830D01*
X175797385Y-62642663D01*
X175858545Y-62414408D01*
X175879141Y-62179000D01*
X175858545Y-61943592D01*
X175797385Y-61715337D01*
X175697517Y-61501171D01*
X175690032Y-61490480D01*
X175561976Y-61307597D01*
X175394884Y-61140506D01*
X175394883Y-61140505D01*
X175208887Y-61010269D01*
X175165263Y-60955692D01*
X175158070Y-60886193D01*
X175189592Y-60823839D01*
X175208887Y-60807119D01*
X175394564Y-60677105D01*
X175561587Y-60510082D01*
X175697082Y-60316578D01*
X175796911Y-60102492D01*
X175796914Y-60102486D01*
X175854118Y-59889000D01*
X174956494Y-59889000D01*
X174989407Y-59831993D01*
X175023482Y-59704826D01*
X175023482Y-59573174D01*
X174989407Y-59446007D01*
X174956494Y-59389000D01*
X175854118Y-59389000D01*
X175854117Y-59388999D01*
X175796914Y-59175513D01*
X175796911Y-59175507D01*
X175697082Y-58961422D01*
X175697081Y-58961420D01*
X175561595Y-58767926D01*
X175561590Y-58767920D01*
X175439535Y-58645865D01*
X175406050Y-58584542D01*
X175411034Y-58514850D01*
X175452906Y-58458917D01*
X175483882Y-58442002D01*
X175615813Y-58392796D01*
X175731028Y-58306546D01*
X175817278Y-58191331D01*
X175867573Y-58056483D01*
X175873982Y-57996873D01*
X175873981Y-56201128D01*
X175867573Y-56141517D01*
X175817278Y-56006669D01*
X175817277Y-56006668D01*
X175817275Y-56006664D01*
X175731029Y-55891455D01*
X175731026Y-55891452D01*
X175615817Y-55805206D01*
X175615810Y-55805202D01*
X175480964Y-55754908D01*
X175480965Y-55754908D01*
X175421365Y-55748501D01*
X175421363Y-55748500D01*
X175421355Y-55748500D01*
X175421346Y-55748500D01*
X173625611Y-55748500D01*
X173625605Y-55748501D01*
X173565998Y-55754908D01*
X173431153Y-55805202D01*
X173431146Y-55805206D01*
X173315937Y-55891452D01*
X173315934Y-55891455D01*
X173229688Y-56006664D01*
X173229684Y-56006671D01*
X173179390Y-56141517D01*
X173172983Y-56201116D01*
X173172983Y-56201123D01*
X173172982Y-56201135D01*
X173172982Y-57996870D01*
X173172983Y-57996876D01*
X173179390Y-58056483D01*
X173229684Y-58191328D01*
X173229688Y-58191335D01*
X173315934Y-58306544D01*
X173315937Y-58306547D01*
X173431146Y-58392793D01*
X173431153Y-58392797D01*
X173431156Y-58392798D01*
X173563080Y-58442002D01*
X173619013Y-58483873D01*
X173643431Y-58549337D01*
X173628580Y-58617610D01*
X173607429Y-58645865D01*
X173485368Y-58767926D01*
X173349882Y-58961420D01*
X173349881Y-58961422D01*
X173250052Y-59175507D01*
X173250049Y-59175513D01*
X173192846Y-59388999D01*
X173192846Y-59389000D01*
X174090470Y-59389000D01*
X174057557Y-59446007D01*
X174023482Y-59573174D01*
X174023482Y-59704826D01*
X174057557Y-59831993D01*
X174090470Y-59889000D01*
X173192846Y-59889000D01*
X173250049Y-60102486D01*
X173250052Y-60102492D01*
X173349881Y-60316578D01*
X173485376Y-60510082D01*
X173652399Y-60677105D01*
X173838077Y-60807119D01*
X173881701Y-60861696D01*
X173888894Y-60931195D01*
X173857372Y-60993549D01*
X173838077Y-61010269D01*
X173652076Y-61140508D01*
X173484987Y-61307597D01*
X173349447Y-61501169D01*
X173349446Y-61501171D01*
X173249580Y-61715335D01*
X173249576Y-61715344D01*
X173188420Y-61943586D01*
X173188418Y-61943596D01*
X173167823Y-62178999D01*
X173167823Y-62179000D01*
X173188418Y-62414403D01*
X173188420Y-62414413D01*
X173249576Y-62642655D01*
X173249578Y-62642659D01*
X173249579Y-62642663D01*
X173294715Y-62739457D01*
X173349447Y-62856830D01*
X173349449Y-62856834D01*
X173484983Y-63050395D01*
X173484988Y-63050402D01*
X173652077Y-63217492D01*
X173652080Y-63217494D01*
X173652081Y-63217495D01*
X173720105Y-63265125D01*
X173763730Y-63319701D01*
X173772982Y-63366700D01*
X173772982Y-64890288D01*
X173753297Y-64957327D01*
X173736663Y-64977969D01*
X167681951Y-71032681D01*
X167620628Y-71066166D01*
X167594270Y-71069000D01*
X165495730Y-71069000D01*
X165428691Y-71049315D01*
X165382936Y-70996511D01*
X165372992Y-70927353D01*
X165402017Y-70863797D01*
X165408049Y-70857319D01*
X167918820Y-68346548D01*
X170637253Y-65628115D01*
X170686487Y-65554428D01*
X170719385Y-65505194D01*
X170719386Y-65505190D01*
X170719388Y-65505188D01*
X170775957Y-65368616D01*
X170775959Y-65368612D01*
X170799777Y-65248873D01*
X170804801Y-65223619D01*
X170804801Y-63366700D01*
X170824486Y-63299661D01*
X170857676Y-63265126D01*
X170925702Y-63217495D01*
X171092796Y-63050401D01*
X171228336Y-62856830D01*
X171328204Y-62642663D01*
X171389364Y-62414408D01*
X171409960Y-62179000D01*
X171389364Y-61943592D01*
X171328204Y-61715337D01*
X171228336Y-61501171D01*
X171220851Y-61490480D01*
X171092795Y-61307597D01*
X170925703Y-61140506D01*
X170925702Y-61140505D01*
X170739706Y-61010269D01*
X170696082Y-60955692D01*
X170688889Y-60886193D01*
X170720411Y-60823839D01*
X170739706Y-60807119D01*
X170925383Y-60677105D01*
X171092406Y-60510082D01*
X171227901Y-60316578D01*
X171327730Y-60102492D01*
X171327733Y-60102486D01*
X171384937Y-59889000D01*
X170487313Y-59889000D01*
X170520226Y-59831993D01*
X170554301Y-59704826D01*
X170554301Y-59573174D01*
X170520226Y-59446007D01*
X170487313Y-59389000D01*
X171384937Y-59389000D01*
X171384936Y-59388999D01*
X171327733Y-59175513D01*
X171327730Y-59175507D01*
X171227901Y-58961422D01*
X171227900Y-58961420D01*
X171092414Y-58767926D01*
X171092409Y-58767920D01*
X170970354Y-58645865D01*
X170936869Y-58584542D01*
X170941853Y-58514850D01*
X170983725Y-58458917D01*
X171014701Y-58442002D01*
X171146632Y-58392796D01*
X171261847Y-58306546D01*
X171348097Y-58191331D01*
X171398392Y-58056483D01*
X171404801Y-57996873D01*
X171404800Y-56201128D01*
X171398392Y-56141517D01*
X171348097Y-56006669D01*
X171348096Y-56006668D01*
X171348094Y-56006664D01*
X171261848Y-55891455D01*
X171261845Y-55891452D01*
X171146636Y-55805206D01*
X171146629Y-55805202D01*
X171011783Y-55754908D01*
X171011784Y-55754908D01*
X170952184Y-55748501D01*
X170952182Y-55748500D01*
X170952174Y-55748500D01*
X170952165Y-55748500D01*
X169156430Y-55748500D01*
X169156424Y-55748501D01*
X169096817Y-55754908D01*
X168961972Y-55805202D01*
X168961965Y-55805206D01*
X168846756Y-55891452D01*
X168846753Y-55891455D01*
X168760507Y-56006664D01*
X168760503Y-56006671D01*
X168710209Y-56141517D01*
X168703802Y-56201116D01*
X168703802Y-56201123D01*
X168703801Y-56201135D01*
X168703801Y-57996870D01*
X168703802Y-57996876D01*
X168710209Y-58056483D01*
X168760503Y-58191328D01*
X168760507Y-58191335D01*
X168846753Y-58306544D01*
X168846756Y-58306547D01*
X168961965Y-58392793D01*
X168961972Y-58392797D01*
X168961975Y-58392798D01*
X169093899Y-58442002D01*
X169149832Y-58483873D01*
X169174250Y-58549337D01*
X169159399Y-58617610D01*
X169138248Y-58645865D01*
X169016187Y-58767926D01*
X168880701Y-58961420D01*
X168880700Y-58961422D01*
X168780871Y-59175507D01*
X168780868Y-59175513D01*
X168723665Y-59388999D01*
X168723665Y-59389000D01*
X169621289Y-59389000D01*
X169588376Y-59446007D01*
X169554301Y-59573174D01*
X169554301Y-59704826D01*
X169588376Y-59831993D01*
X169621289Y-59889000D01*
X168723665Y-59889000D01*
X168780868Y-60102486D01*
X168780871Y-60102492D01*
X168880700Y-60316578D01*
X169016195Y-60510082D01*
X169183218Y-60677105D01*
X169368896Y-60807119D01*
X169412520Y-60861696D01*
X169419713Y-60931195D01*
X169388191Y-60993549D01*
X169368896Y-61010269D01*
X169182895Y-61140508D01*
X169015806Y-61307597D01*
X168880266Y-61501169D01*
X168880265Y-61501171D01*
X168780399Y-61715335D01*
X168780395Y-61715344D01*
X168719239Y-61943586D01*
X168719237Y-61943596D01*
X168698642Y-62178999D01*
X168698642Y-62179000D01*
X168719237Y-62414403D01*
X168719239Y-62414413D01*
X168780395Y-62642655D01*
X168780397Y-62642659D01*
X168780398Y-62642663D01*
X168825534Y-62739457D01*
X168880266Y-62856830D01*
X168880268Y-62856834D01*
X169015802Y-63050395D01*
X169015807Y-63050402D01*
X169182896Y-63217492D01*
X169182899Y-63217494D01*
X169182900Y-63217495D01*
X169250924Y-63265125D01*
X169294549Y-63319701D01*
X169303801Y-63366700D01*
X169303801Y-64787468D01*
X169284116Y-64854507D01*
X169267482Y-64875149D01*
X163247050Y-70895580D01*
X163247044Y-70895588D01*
X163197812Y-70969268D01*
X163197813Y-70969269D01*
X163168000Y-71013889D01*
X163114389Y-71058695D01*
X163064897Y-71069000D01*
X162418500Y-71069000D01*
X162351461Y-71049315D01*
X162305706Y-70996511D01*
X162294500Y-70945000D01*
X162294500Y-70212230D01*
X162314185Y-70145191D01*
X162330819Y-70124549D01*
X166168067Y-66287301D01*
X166168072Y-66287296D01*
X166221431Y-66207437D01*
X166250204Y-66164375D01*
X166289468Y-66069584D01*
X166306779Y-66027792D01*
X166319260Y-65965048D01*
X166332160Y-65900197D01*
X166333889Y-65891498D01*
X166335620Y-65882798D01*
X166335620Y-63366700D01*
X166355305Y-63299661D01*
X166388495Y-63265126D01*
X166456521Y-63217495D01*
X166623615Y-63050401D01*
X166759155Y-62856830D01*
X166859023Y-62642663D01*
X166920183Y-62414408D01*
X166940779Y-62179000D01*
X166920183Y-61943592D01*
X166859023Y-61715337D01*
X166759155Y-61501171D01*
X166751670Y-61490480D01*
X166623614Y-61307597D01*
X166456522Y-61140506D01*
X166456521Y-61140505D01*
X166270525Y-61010269D01*
X166226901Y-60955692D01*
X166219708Y-60886193D01*
X166251230Y-60823839D01*
X166270525Y-60807119D01*
X166456202Y-60677105D01*
X166623225Y-60510082D01*
X166758720Y-60316578D01*
X166858549Y-60102492D01*
X166858552Y-60102486D01*
X166915756Y-59889000D01*
X166018132Y-59889000D01*
X166051045Y-59831993D01*
X166085120Y-59704826D01*
X166085120Y-59573174D01*
X166051045Y-59446007D01*
X166018132Y-59389000D01*
X166915756Y-59389000D01*
X166915755Y-59388999D01*
X166858552Y-59175513D01*
X166858549Y-59175507D01*
X166758720Y-58961422D01*
X166758719Y-58961420D01*
X166623233Y-58767926D01*
X166623228Y-58767920D01*
X166501173Y-58645865D01*
X166467688Y-58584542D01*
X166472672Y-58514850D01*
X166514544Y-58458917D01*
X166545520Y-58442002D01*
X166677451Y-58392796D01*
X166792666Y-58306546D01*
X166878916Y-58191331D01*
X166929211Y-58056483D01*
X166935620Y-57996873D01*
X166935619Y-56201128D01*
X166929211Y-56141517D01*
X166878916Y-56006669D01*
X166878915Y-56006668D01*
X166878913Y-56006664D01*
X166792667Y-55891455D01*
X166792664Y-55891452D01*
X166677455Y-55805206D01*
X166677448Y-55805202D01*
X166542602Y-55754908D01*
X166542603Y-55754908D01*
X166483003Y-55748501D01*
X166483001Y-55748500D01*
X166482993Y-55748500D01*
X166482984Y-55748500D01*
X164687249Y-55748500D01*
X164687243Y-55748501D01*
X164627636Y-55754908D01*
X164492791Y-55805202D01*
X164492784Y-55805206D01*
X164377575Y-55891452D01*
X164377572Y-55891455D01*
X164291326Y-56006664D01*
X164291322Y-56006671D01*
X164241028Y-56141517D01*
X164234621Y-56201116D01*
X164234621Y-56201123D01*
X164234620Y-56201135D01*
X164234620Y-57996870D01*
X164234621Y-57996876D01*
X164241028Y-58056483D01*
X164291322Y-58191328D01*
X164291326Y-58191335D01*
X164377572Y-58306544D01*
X164377575Y-58306547D01*
X164492784Y-58392793D01*
X164492791Y-58392797D01*
X164492794Y-58392798D01*
X164624718Y-58442002D01*
X164680651Y-58483873D01*
X164705069Y-58549337D01*
X164690218Y-58617610D01*
X164669067Y-58645865D01*
X164547006Y-58767926D01*
X164411520Y-58961420D01*
X164411519Y-58961422D01*
X164311690Y-59175507D01*
X164311687Y-59175513D01*
X164254484Y-59388999D01*
X164254484Y-59389000D01*
X165152108Y-59389000D01*
X165119195Y-59446007D01*
X165085120Y-59573174D01*
X165085120Y-59704826D01*
X165119195Y-59831993D01*
X165152108Y-59889000D01*
X164254484Y-59889000D01*
X164311687Y-60102486D01*
X164311690Y-60102492D01*
X164411519Y-60316578D01*
X164547014Y-60510082D01*
X164714037Y-60677105D01*
X164899715Y-60807119D01*
X164943339Y-60861696D01*
X164950532Y-60931195D01*
X164919010Y-60993549D01*
X164899715Y-61010269D01*
X164713714Y-61140508D01*
X164546625Y-61307597D01*
X164411085Y-61501169D01*
X164411084Y-61501171D01*
X164311218Y-61715335D01*
X164311214Y-61715344D01*
X164250058Y-61943586D01*
X164250056Y-61943596D01*
X164229461Y-62178999D01*
X164229461Y-62179000D01*
X164250056Y-62414403D01*
X164250058Y-62414413D01*
X164311214Y-62642655D01*
X164311216Y-62642659D01*
X164311217Y-62642663D01*
X164356353Y-62739457D01*
X164411085Y-62856830D01*
X164411087Y-62856834D01*
X164546621Y-63050395D01*
X164546626Y-63050402D01*
X164713715Y-63217492D01*
X164713718Y-63217494D01*
X164713719Y-63217495D01*
X164781743Y-63265125D01*
X164825368Y-63319701D01*
X164834620Y-63366700D01*
X164834620Y-65446649D01*
X164814935Y-65513688D01*
X164798301Y-65534330D01*
X160961052Y-69371578D01*
X160961049Y-69371581D01*
X160912999Y-69443493D01*
X160913000Y-69443494D01*
X160878914Y-69494508D01*
X160822343Y-69631082D01*
X160822340Y-69631092D01*
X160793500Y-69776079D01*
X160793500Y-70945000D01*
X160773815Y-71012039D01*
X160721011Y-71057794D01*
X160669500Y-71069000D01*
X159878500Y-71069000D01*
X159811461Y-71049315D01*
X159765706Y-70996511D01*
X159754500Y-70945000D01*
X159754500Y-69450230D01*
X159774185Y-69383191D01*
X159790819Y-69362549D01*
X161698886Y-67454482D01*
X161698891Y-67454477D01*
X161745363Y-67384926D01*
X161768069Y-67350944D01*
X161768073Y-67350937D01*
X161781023Y-67331556D01*
X161837597Y-67194974D01*
X161847035Y-67147523D01*
X161866439Y-67049981D01*
X161866439Y-63366700D01*
X161886124Y-63299661D01*
X161919314Y-63265126D01*
X161987340Y-63217495D01*
X162154434Y-63050401D01*
X162289974Y-62856830D01*
X162389842Y-62642663D01*
X162451002Y-62414408D01*
X162471598Y-62179000D01*
X162451002Y-61943592D01*
X162389842Y-61715337D01*
X162289974Y-61501171D01*
X162282489Y-61490480D01*
X162154433Y-61307597D01*
X161987341Y-61140506D01*
X161987340Y-61140505D01*
X161801344Y-61010269D01*
X161757720Y-60955692D01*
X161750527Y-60886193D01*
X161782049Y-60823839D01*
X161801344Y-60807119D01*
X161987021Y-60677105D01*
X162154044Y-60510082D01*
X162289539Y-60316578D01*
X162389368Y-60102492D01*
X162389371Y-60102486D01*
X162446575Y-59889000D01*
X161548951Y-59889000D01*
X161581864Y-59831993D01*
X161615939Y-59704826D01*
X161615939Y-59573174D01*
X161581864Y-59446007D01*
X161548951Y-59389000D01*
X162446575Y-59389000D01*
X162446574Y-59388999D01*
X162389371Y-59175513D01*
X162389368Y-59175507D01*
X162289539Y-58961422D01*
X162289538Y-58961420D01*
X162154052Y-58767926D01*
X162154047Y-58767920D01*
X162031992Y-58645865D01*
X161998507Y-58584542D01*
X162003491Y-58514850D01*
X162045363Y-58458917D01*
X162076339Y-58442002D01*
X162208270Y-58392796D01*
X162323485Y-58306546D01*
X162409735Y-58191331D01*
X162460030Y-58056483D01*
X162466439Y-57996873D01*
X162466438Y-56201128D01*
X162460030Y-56141517D01*
X162409735Y-56006669D01*
X162409734Y-56006668D01*
X162409732Y-56006664D01*
X162323486Y-55891455D01*
X162323483Y-55891452D01*
X162208274Y-55805206D01*
X162208267Y-55805202D01*
X162073421Y-55754908D01*
X162073422Y-55754908D01*
X162013822Y-55748501D01*
X162013820Y-55748500D01*
X162013812Y-55748500D01*
X162013803Y-55748500D01*
X160218068Y-55748500D01*
X160218062Y-55748501D01*
X160158455Y-55754908D01*
X160023610Y-55805202D01*
X160023603Y-55805206D01*
X159908394Y-55891452D01*
X159908391Y-55891455D01*
X159822145Y-56006664D01*
X159822141Y-56006671D01*
X159771847Y-56141517D01*
X159765440Y-56201116D01*
X159765440Y-56201123D01*
X159765439Y-56201135D01*
X159765439Y-57996870D01*
X159765440Y-57996876D01*
X159771847Y-58056483D01*
X159822141Y-58191328D01*
X159822145Y-58191335D01*
X159908391Y-58306544D01*
X159908394Y-58306547D01*
X160023603Y-58392793D01*
X160023610Y-58392797D01*
X160023613Y-58392798D01*
X160155537Y-58442002D01*
X160211470Y-58483873D01*
X160235888Y-58549337D01*
X160221037Y-58617610D01*
X160199886Y-58645865D01*
X160077825Y-58767926D01*
X159942339Y-58961420D01*
X159942338Y-58961422D01*
X159842509Y-59175507D01*
X159842506Y-59175513D01*
X159785303Y-59388999D01*
X159785303Y-59389000D01*
X160682927Y-59389000D01*
X160650014Y-59446007D01*
X160615939Y-59573174D01*
X160615939Y-59704826D01*
X160650014Y-59831993D01*
X160682927Y-59889000D01*
X159785303Y-59889000D01*
X159842506Y-60102486D01*
X159842509Y-60102492D01*
X159942338Y-60316578D01*
X160077833Y-60510082D01*
X160244856Y-60677105D01*
X160430534Y-60807119D01*
X160474158Y-60861696D01*
X160481351Y-60931195D01*
X160449829Y-60993549D01*
X160430534Y-61010269D01*
X160244533Y-61140508D01*
X160077444Y-61307597D01*
X159941904Y-61501169D01*
X159941903Y-61501171D01*
X159842037Y-61715335D01*
X159842033Y-61715344D01*
X159780877Y-61943586D01*
X159780875Y-61943596D01*
X159760280Y-62178999D01*
X159760280Y-62179000D01*
X159780875Y-62414403D01*
X159780877Y-62414413D01*
X159842033Y-62642655D01*
X159842035Y-62642659D01*
X159842036Y-62642663D01*
X159887172Y-62739457D01*
X159941904Y-62856830D01*
X159941906Y-62856834D01*
X160077440Y-63050395D01*
X160077445Y-63050402D01*
X160244534Y-63217492D01*
X160244537Y-63217494D01*
X160244538Y-63217495D01*
X160312562Y-63265125D01*
X160356187Y-63319701D01*
X160365439Y-63366700D01*
X160365439Y-66613831D01*
X160345754Y-66680870D01*
X160329120Y-66701512D01*
X158421047Y-68609584D01*
X158421045Y-68609586D01*
X158391428Y-68653915D01*
X158391426Y-68653918D01*
X158338914Y-68732507D01*
X158282343Y-68869082D01*
X158282340Y-68869092D01*
X158253500Y-69014079D01*
X158253500Y-70945000D01*
X158233815Y-71012039D01*
X158181011Y-71057794D01*
X158129500Y-71069000D01*
X156322500Y-71069000D01*
X156255461Y-71049315D01*
X156209706Y-70996511D01*
X156198500Y-70945000D01*
X156198500Y-66402230D01*
X156218185Y-66335191D01*
X156234819Y-66314549D01*
X157229705Y-65319663D01*
X157229710Y-65319658D01*
X157293882Y-65223616D01*
X157311842Y-65196737D01*
X157368416Y-65060155D01*
X157391989Y-64941650D01*
X157397258Y-64915162D01*
X157397258Y-63366700D01*
X157416943Y-63299661D01*
X157450133Y-63265126D01*
X157518159Y-63217495D01*
X157685253Y-63050401D01*
X157820793Y-62856830D01*
X157920661Y-62642663D01*
X157981821Y-62414408D01*
X158002417Y-62179000D01*
X157981821Y-61943592D01*
X157920661Y-61715337D01*
X157820793Y-61501171D01*
X157813308Y-61490480D01*
X157685252Y-61307597D01*
X157518160Y-61140506D01*
X157518159Y-61140505D01*
X157332163Y-61010269D01*
X157288539Y-60955692D01*
X157281346Y-60886193D01*
X157312868Y-60823839D01*
X157332163Y-60807119D01*
X157517840Y-60677105D01*
X157684863Y-60510082D01*
X157820358Y-60316578D01*
X157920187Y-60102492D01*
X157920190Y-60102486D01*
X157977394Y-59889000D01*
X157079770Y-59889000D01*
X157112683Y-59831993D01*
X157146758Y-59704826D01*
X157146758Y-59573174D01*
X157112683Y-59446007D01*
X157079770Y-59389000D01*
X157977394Y-59389000D01*
X157977393Y-59388999D01*
X157920190Y-59175513D01*
X157920187Y-59175507D01*
X157820358Y-58961422D01*
X157820357Y-58961420D01*
X157684871Y-58767926D01*
X157684866Y-58767920D01*
X157562811Y-58645865D01*
X157529326Y-58584542D01*
X157534310Y-58514850D01*
X157576182Y-58458917D01*
X157607158Y-58442002D01*
X157739089Y-58392796D01*
X157854304Y-58306546D01*
X157940554Y-58191331D01*
X157990849Y-58056483D01*
X157997258Y-57996873D01*
X157997257Y-56201128D01*
X157990849Y-56141517D01*
X157940554Y-56006669D01*
X157940553Y-56006668D01*
X157940551Y-56006664D01*
X157854305Y-55891455D01*
X157854302Y-55891452D01*
X157739093Y-55805206D01*
X157739086Y-55805202D01*
X157604240Y-55754908D01*
X157604241Y-55754908D01*
X157544641Y-55748501D01*
X157544639Y-55748500D01*
X157544631Y-55748500D01*
X157544622Y-55748500D01*
X155748887Y-55748500D01*
X155748881Y-55748501D01*
X155689274Y-55754908D01*
X155554429Y-55805202D01*
X155554422Y-55805206D01*
X155439213Y-55891452D01*
X155439210Y-55891455D01*
X155352964Y-56006664D01*
X155352960Y-56006671D01*
X155302666Y-56141517D01*
X155296259Y-56201116D01*
X155296259Y-56201123D01*
X155296258Y-56201135D01*
X155296258Y-57996870D01*
X155296259Y-57996876D01*
X155302666Y-58056483D01*
X155352960Y-58191328D01*
X155352964Y-58191335D01*
X155439210Y-58306544D01*
X155439213Y-58306547D01*
X155554422Y-58392793D01*
X155554429Y-58392797D01*
X155554432Y-58392798D01*
X155686356Y-58442002D01*
X155742289Y-58483873D01*
X155766707Y-58549337D01*
X155751856Y-58617610D01*
X155730705Y-58645865D01*
X155608644Y-58767926D01*
X155473158Y-58961420D01*
X155473157Y-58961422D01*
X155373328Y-59175507D01*
X155373325Y-59175513D01*
X155316122Y-59388999D01*
X155316122Y-59389000D01*
X156213746Y-59389000D01*
X156180833Y-59446007D01*
X156146758Y-59573174D01*
X156146758Y-59704826D01*
X156180833Y-59831993D01*
X156213746Y-59889000D01*
X155316122Y-59889000D01*
X155373325Y-60102486D01*
X155373328Y-60102492D01*
X155473157Y-60316578D01*
X155608652Y-60510082D01*
X155775675Y-60677105D01*
X155961353Y-60807119D01*
X156004977Y-60861696D01*
X156012170Y-60931195D01*
X155980648Y-60993549D01*
X155961353Y-61010269D01*
X155775352Y-61140508D01*
X155608263Y-61307597D01*
X155472723Y-61501169D01*
X155472722Y-61501171D01*
X155372856Y-61715335D01*
X155372852Y-61715344D01*
X155311696Y-61943586D01*
X155311694Y-61943596D01*
X155291099Y-62178999D01*
X155291099Y-62179000D01*
X155311694Y-62414403D01*
X155311696Y-62414413D01*
X155372852Y-62642655D01*
X155372854Y-62642659D01*
X155372855Y-62642663D01*
X155417991Y-62739457D01*
X155472723Y-62856830D01*
X155472725Y-62856834D01*
X155608259Y-63050395D01*
X155608264Y-63050402D01*
X155775353Y-63217492D01*
X155775356Y-63217494D01*
X155775357Y-63217495D01*
X155843381Y-63265125D01*
X155887006Y-63319701D01*
X155896258Y-63366700D01*
X155896258Y-64479011D01*
X155876573Y-64546050D01*
X155859939Y-64566692D01*
X154865050Y-65561580D01*
X154865044Y-65561588D01*
X154815812Y-65635268D01*
X154815813Y-65635269D01*
X154782921Y-65684496D01*
X154782914Y-65684508D01*
X154726342Y-65821086D01*
X154726340Y-65821092D01*
X154697500Y-65966079D01*
X154697500Y-70945000D01*
X154677815Y-71012039D01*
X154625011Y-71057794D01*
X154573500Y-71069000D01*
X153052077Y-71069000D01*
X152985038Y-71049315D01*
X152939283Y-70996511D01*
X152928077Y-70945000D01*
X152928077Y-63366700D01*
X152947762Y-63299661D01*
X152980952Y-63265126D01*
X153048978Y-63217495D01*
X153216072Y-63050401D01*
X153351612Y-62856830D01*
X153451480Y-62642663D01*
X153512640Y-62414408D01*
X153533236Y-62179000D01*
X153512640Y-61943592D01*
X153451480Y-61715337D01*
X153351612Y-61501171D01*
X153344127Y-61490480D01*
X153216071Y-61307597D01*
X153048979Y-61140506D01*
X153048978Y-61140505D01*
X152862982Y-61010269D01*
X152819358Y-60955692D01*
X152812165Y-60886193D01*
X152843687Y-60823839D01*
X152862982Y-60807119D01*
X153048659Y-60677105D01*
X153215682Y-60510082D01*
X153351177Y-60316578D01*
X153451006Y-60102492D01*
X153451009Y-60102486D01*
X153508213Y-59889000D01*
X152610589Y-59889000D01*
X152643502Y-59831993D01*
X152677577Y-59704826D01*
X152677577Y-59573174D01*
X152643502Y-59446007D01*
X152610589Y-59389000D01*
X153508213Y-59389000D01*
X153508212Y-59388999D01*
X153451009Y-59175513D01*
X153451006Y-59175507D01*
X153351177Y-58961422D01*
X153351176Y-58961420D01*
X153215690Y-58767926D01*
X153215685Y-58767920D01*
X153093630Y-58645865D01*
X153060145Y-58584542D01*
X153065129Y-58514850D01*
X153107001Y-58458917D01*
X153137977Y-58442002D01*
X153269908Y-58392796D01*
X153385123Y-58306546D01*
X153471373Y-58191331D01*
X153521668Y-58056483D01*
X153528077Y-57996873D01*
X153528076Y-56201128D01*
X153521668Y-56141517D01*
X153471373Y-56006669D01*
X153471372Y-56006668D01*
X153471370Y-56006664D01*
X153385124Y-55891455D01*
X153385121Y-55891452D01*
X153269912Y-55805206D01*
X153269905Y-55805202D01*
X153135059Y-55754908D01*
X153135060Y-55754908D01*
X153075460Y-55748501D01*
X153075458Y-55748500D01*
X153075450Y-55748500D01*
X153075441Y-55748500D01*
X151279706Y-55748500D01*
X151279700Y-55748501D01*
X151220093Y-55754908D01*
X151085248Y-55805202D01*
X151085241Y-55805206D01*
X150970032Y-55891452D01*
X150970029Y-55891455D01*
X150883783Y-56006664D01*
X150883779Y-56006671D01*
X150833485Y-56141517D01*
X150827078Y-56201116D01*
X150827078Y-56201123D01*
X150827077Y-56201135D01*
X150827077Y-57996870D01*
X150827078Y-57996876D01*
X150833485Y-58056483D01*
X150883779Y-58191328D01*
X150883783Y-58191335D01*
X150970029Y-58306544D01*
X150970032Y-58306547D01*
X151085241Y-58392793D01*
X151085248Y-58392797D01*
X151085251Y-58392798D01*
X151217175Y-58442002D01*
X151273108Y-58483873D01*
X151297526Y-58549337D01*
X151282675Y-58617610D01*
X151261524Y-58645865D01*
X151139463Y-58767926D01*
X151003977Y-58961420D01*
X151003976Y-58961422D01*
X150904147Y-59175507D01*
X150904144Y-59175513D01*
X150846941Y-59388999D01*
X150846941Y-59389000D01*
X151744565Y-59389000D01*
X151711652Y-59446007D01*
X151677577Y-59573174D01*
X151677577Y-59704826D01*
X151711652Y-59831993D01*
X151744565Y-59889000D01*
X150846941Y-59889000D01*
X150904144Y-60102486D01*
X150904147Y-60102492D01*
X151003976Y-60316578D01*
X151139471Y-60510082D01*
X151306494Y-60677105D01*
X151492172Y-60807119D01*
X151535796Y-60861696D01*
X151542989Y-60931195D01*
X151511467Y-60993549D01*
X151492172Y-61010269D01*
X151306171Y-61140508D01*
X151139082Y-61307597D01*
X151003542Y-61501169D01*
X151003541Y-61501171D01*
X150903675Y-61715335D01*
X150903671Y-61715344D01*
X150842515Y-61943586D01*
X150842513Y-61943596D01*
X150821918Y-62178999D01*
X150821918Y-62179000D01*
X150842513Y-62414403D01*
X150842515Y-62414413D01*
X150903671Y-62642655D01*
X150903673Y-62642659D01*
X150903674Y-62642663D01*
X150948810Y-62739457D01*
X151003542Y-62856830D01*
X151003544Y-62856834D01*
X151139078Y-63050395D01*
X151139083Y-63050402D01*
X151306172Y-63217492D01*
X151306175Y-63217494D01*
X151306176Y-63217495D01*
X151374200Y-63265125D01*
X151417825Y-63319701D01*
X151427077Y-63366700D01*
X151427077Y-70945000D01*
X151407392Y-71012039D01*
X151354588Y-71057794D01*
X151303077Y-71069000D01*
X140179125Y-71069000D01*
X140112086Y-71049315D01*
X140066331Y-70996511D01*
X140056387Y-70927353D01*
X140085412Y-70863797D01*
X140091444Y-70857319D01*
X141899650Y-69049113D01*
X147396894Y-63551867D01*
X147458215Y-63518384D01*
X147495379Y-63516022D01*
X147638257Y-63528522D01*
X147708395Y-63534659D01*
X147708396Y-63534659D01*
X147708397Y-63534659D01*
X147747630Y-63531226D01*
X147943804Y-63514063D01*
X148172059Y-63452903D01*
X148386226Y-63353035D01*
X148579797Y-63217495D01*
X148746891Y-63050401D01*
X148882431Y-62856830D01*
X148982299Y-62642663D01*
X149043459Y-62414408D01*
X149064055Y-62179000D01*
X149043459Y-61943592D01*
X148982299Y-61715337D01*
X148882431Y-61501171D01*
X148874946Y-61490480D01*
X148746890Y-61307597D01*
X148579798Y-61140506D01*
X148579797Y-61140505D01*
X148393801Y-61010269D01*
X148350177Y-60955692D01*
X148342984Y-60886193D01*
X148374506Y-60823839D01*
X148393801Y-60807119D01*
X148579478Y-60677105D01*
X148746501Y-60510082D01*
X148881996Y-60316578D01*
X148981825Y-60102492D01*
X148981828Y-60102486D01*
X149039032Y-59889000D01*
X148141408Y-59889000D01*
X148174321Y-59831993D01*
X148208396Y-59704826D01*
X148208396Y-59573174D01*
X148174321Y-59446007D01*
X148141408Y-59389000D01*
X149039032Y-59389000D01*
X149039031Y-59388999D01*
X148981828Y-59175513D01*
X148981825Y-59175507D01*
X148881996Y-58961422D01*
X148881995Y-58961420D01*
X148746509Y-58767926D01*
X148746504Y-58767920D01*
X148624449Y-58645865D01*
X148590964Y-58584542D01*
X148595948Y-58514850D01*
X148637820Y-58458917D01*
X148668796Y-58442002D01*
X148800727Y-58392796D01*
X148915942Y-58306546D01*
X149002192Y-58191331D01*
X149052487Y-58056483D01*
X149058896Y-57996873D01*
X149058895Y-56201128D01*
X149052487Y-56141517D01*
X149002192Y-56006669D01*
X149002191Y-56006668D01*
X149002189Y-56006664D01*
X148915943Y-55891455D01*
X148915940Y-55891452D01*
X148800731Y-55805206D01*
X148800724Y-55805202D01*
X148665878Y-55754908D01*
X148665879Y-55754908D01*
X148606279Y-55748501D01*
X148606277Y-55748500D01*
X148606269Y-55748500D01*
X148606260Y-55748500D01*
X146810525Y-55748500D01*
X146810519Y-55748501D01*
X146750912Y-55754908D01*
X146616067Y-55805202D01*
X146616060Y-55805206D01*
X146500851Y-55891452D01*
X146500848Y-55891455D01*
X146414602Y-56006664D01*
X146414598Y-56006671D01*
X146364304Y-56141517D01*
X146357897Y-56201116D01*
X146357897Y-56201123D01*
X146357896Y-56201135D01*
X146357896Y-57996870D01*
X146357897Y-57996876D01*
X146364304Y-58056483D01*
X146414598Y-58191328D01*
X146414602Y-58191335D01*
X146500848Y-58306544D01*
X146500851Y-58306547D01*
X146616060Y-58392793D01*
X146616067Y-58392797D01*
X146616070Y-58392798D01*
X146747994Y-58442002D01*
X146803927Y-58483873D01*
X146828345Y-58549337D01*
X146813494Y-58617610D01*
X146792343Y-58645865D01*
X146670282Y-58767926D01*
X146534796Y-58961420D01*
X146534795Y-58961422D01*
X146434966Y-59175507D01*
X146434963Y-59175513D01*
X146377760Y-59388999D01*
X146377760Y-59389000D01*
X147275384Y-59389000D01*
X147242471Y-59446007D01*
X147208396Y-59573174D01*
X147208396Y-59704826D01*
X147242471Y-59831993D01*
X147275384Y-59889000D01*
X146377760Y-59889000D01*
X146434963Y-60102486D01*
X146434966Y-60102492D01*
X146534795Y-60316578D01*
X146670290Y-60510082D01*
X146837313Y-60677105D01*
X147022991Y-60807119D01*
X147066615Y-60861696D01*
X147073808Y-60931195D01*
X147042286Y-60993549D01*
X147022991Y-61010269D01*
X146836990Y-61140508D01*
X146669901Y-61307597D01*
X146534361Y-61501169D01*
X146534360Y-61501171D01*
X146434494Y-61715335D01*
X146434490Y-61715344D01*
X146373334Y-61943586D01*
X146373332Y-61943596D01*
X146352737Y-62178999D01*
X146352737Y-62179001D01*
X146371373Y-62392013D01*
X146357606Y-62460513D01*
X146335526Y-62490501D01*
X137793347Y-71032681D01*
X137732024Y-71066166D01*
X137705666Y-71069000D01*
X135709945Y-71069000D01*
X135642906Y-71049315D01*
X135597151Y-70996511D01*
X135587207Y-70927353D01*
X135616232Y-70863797D01*
X135622264Y-70857319D01*
X137430470Y-69049113D01*
X142927714Y-63551867D01*
X142989035Y-63518384D01*
X143026199Y-63516022D01*
X143186450Y-63530042D01*
X143239214Y-63534659D01*
X143239215Y-63534659D01*
X143239216Y-63534659D01*
X143278449Y-63531226D01*
X143474623Y-63514063D01*
X143702878Y-63452903D01*
X143917045Y-63353035D01*
X144110616Y-63217495D01*
X144277710Y-63050401D01*
X144413250Y-62856830D01*
X144513118Y-62642663D01*
X144574278Y-62414408D01*
X144594874Y-62179000D01*
X144574278Y-61943592D01*
X144513118Y-61715337D01*
X144413250Y-61501171D01*
X144405765Y-61490480D01*
X144277709Y-61307597D01*
X144110617Y-61140506D01*
X144110616Y-61140505D01*
X143924620Y-61010269D01*
X143880996Y-60955692D01*
X143873803Y-60886193D01*
X143905325Y-60823839D01*
X143924620Y-60807119D01*
X144110297Y-60677105D01*
X144277320Y-60510082D01*
X144412815Y-60316578D01*
X144512644Y-60102492D01*
X144512647Y-60102486D01*
X144569851Y-59889000D01*
X143672227Y-59889000D01*
X143705140Y-59831993D01*
X143739215Y-59704826D01*
X143739215Y-59573174D01*
X143705140Y-59446007D01*
X143672227Y-59389000D01*
X144569851Y-59389000D01*
X144569850Y-59388999D01*
X144512647Y-59175513D01*
X144512644Y-59175507D01*
X144412815Y-58961422D01*
X144412814Y-58961420D01*
X144277328Y-58767926D01*
X144277323Y-58767920D01*
X144155268Y-58645865D01*
X144121783Y-58584542D01*
X144126767Y-58514850D01*
X144168639Y-58458917D01*
X144199615Y-58442002D01*
X144331546Y-58392796D01*
X144446761Y-58306546D01*
X144533011Y-58191331D01*
X144583306Y-58056483D01*
X144589715Y-57996873D01*
X144589714Y-56201128D01*
X144583306Y-56141517D01*
X144533011Y-56006669D01*
X144533010Y-56006668D01*
X144533008Y-56006664D01*
X144446762Y-55891455D01*
X144446759Y-55891452D01*
X144331550Y-55805206D01*
X144331543Y-55805202D01*
X144196697Y-55754908D01*
X144196698Y-55754908D01*
X144137098Y-55748501D01*
X144137096Y-55748500D01*
X144137088Y-55748500D01*
X144137079Y-55748500D01*
X142341344Y-55748500D01*
X142341338Y-55748501D01*
X142281731Y-55754908D01*
X142146886Y-55805202D01*
X142146879Y-55805206D01*
X142031670Y-55891452D01*
X142031667Y-55891455D01*
X141945421Y-56006664D01*
X141945417Y-56006671D01*
X141895123Y-56141517D01*
X141888716Y-56201116D01*
X141888716Y-56201123D01*
X141888715Y-56201135D01*
X141888715Y-57996870D01*
X141888716Y-57996876D01*
X141895123Y-58056483D01*
X141945417Y-58191328D01*
X141945421Y-58191335D01*
X142031667Y-58306544D01*
X142031670Y-58306547D01*
X142146879Y-58392793D01*
X142146886Y-58392797D01*
X142146889Y-58392798D01*
X142278813Y-58442002D01*
X142334746Y-58483873D01*
X142359164Y-58549337D01*
X142344313Y-58617610D01*
X142323162Y-58645865D01*
X142201101Y-58767926D01*
X142065615Y-58961420D01*
X142065614Y-58961422D01*
X141965785Y-59175507D01*
X141965782Y-59175513D01*
X141908579Y-59388999D01*
X141908579Y-59389000D01*
X142806203Y-59389000D01*
X142773290Y-59446007D01*
X142739215Y-59573174D01*
X142739215Y-59704826D01*
X142773290Y-59831993D01*
X142806203Y-59889000D01*
X141908579Y-59889000D01*
X141965782Y-60102486D01*
X141965785Y-60102492D01*
X142065614Y-60316578D01*
X142201109Y-60510082D01*
X142368132Y-60677105D01*
X142553810Y-60807119D01*
X142597434Y-60861696D01*
X142604627Y-60931195D01*
X142573105Y-60993549D01*
X142553810Y-61010269D01*
X142367809Y-61140508D01*
X142200720Y-61307597D01*
X142065180Y-61501169D01*
X142065179Y-61501171D01*
X141965313Y-61715335D01*
X141965309Y-61715344D01*
X141904153Y-61943586D01*
X141904151Y-61943596D01*
X141883556Y-62178999D01*
X141883556Y-62179001D01*
X141902192Y-62392012D01*
X141888425Y-62460512D01*
X141866345Y-62490500D01*
X133783048Y-70573799D01*
X133749842Y-70623497D01*
X133749840Y-70623500D01*
X133700919Y-70696714D01*
X133700912Y-70696726D01*
X133644343Y-70833297D01*
X133644340Y-70833307D01*
X133617311Y-70969192D01*
X133584926Y-71031103D01*
X133524210Y-71065677D01*
X133495694Y-71069000D01*
X132700500Y-71069000D01*
X132633461Y-71049315D01*
X132587706Y-70996511D01*
X132576500Y-70945000D01*
X132576500Y-69485263D01*
X132596185Y-69418224D01*
X132612814Y-69397587D01*
X138458533Y-63551867D01*
X138519854Y-63518384D01*
X138557018Y-63516022D01*
X138717269Y-63530042D01*
X138770033Y-63534659D01*
X138770034Y-63534659D01*
X138770035Y-63534659D01*
X138809268Y-63531226D01*
X139005442Y-63514063D01*
X139233697Y-63452903D01*
X139447864Y-63353035D01*
X139641435Y-63217495D01*
X139808529Y-63050401D01*
X139944069Y-62856830D01*
X140043937Y-62642663D01*
X140105097Y-62414408D01*
X140125693Y-62179000D01*
X140105097Y-61943592D01*
X140043937Y-61715337D01*
X139944069Y-61501171D01*
X139936584Y-61490480D01*
X139808528Y-61307597D01*
X139641436Y-61140506D01*
X139641435Y-61140505D01*
X139455439Y-61010269D01*
X139411815Y-60955692D01*
X139404622Y-60886193D01*
X139436144Y-60823839D01*
X139455439Y-60807119D01*
X139641116Y-60677105D01*
X139808139Y-60510082D01*
X139943634Y-60316578D01*
X140043463Y-60102492D01*
X140043466Y-60102486D01*
X140100670Y-59889000D01*
X139203046Y-59889000D01*
X139235959Y-59831993D01*
X139270034Y-59704826D01*
X139270034Y-59573174D01*
X139235959Y-59446007D01*
X139203046Y-59389000D01*
X140100670Y-59389000D01*
X140100669Y-59388999D01*
X140043466Y-59175513D01*
X140043463Y-59175507D01*
X139943634Y-58961422D01*
X139943633Y-58961420D01*
X139808147Y-58767926D01*
X139808142Y-58767920D01*
X139686087Y-58645865D01*
X139652602Y-58584542D01*
X139657586Y-58514850D01*
X139699458Y-58458917D01*
X139730434Y-58442002D01*
X139862365Y-58392796D01*
X139977580Y-58306546D01*
X140063830Y-58191331D01*
X140114125Y-58056483D01*
X140120534Y-57996873D01*
X140120533Y-56201128D01*
X140114125Y-56141517D01*
X140063830Y-56006669D01*
X140063829Y-56006668D01*
X140063827Y-56006664D01*
X139977581Y-55891455D01*
X139977578Y-55891452D01*
X139862369Y-55805206D01*
X139862362Y-55805202D01*
X139727516Y-55754908D01*
X139727517Y-55754908D01*
X139667917Y-55748501D01*
X139667915Y-55748500D01*
X139667907Y-55748500D01*
X139667898Y-55748500D01*
X137872163Y-55748500D01*
X137872157Y-55748501D01*
X137812550Y-55754908D01*
X137677705Y-55805202D01*
X137677698Y-55805206D01*
X137562489Y-55891452D01*
X137562486Y-55891455D01*
X137476240Y-56006664D01*
X137476236Y-56006671D01*
X137425942Y-56141517D01*
X137419535Y-56201116D01*
X137419535Y-56201123D01*
X137419534Y-56201135D01*
X137419534Y-57996870D01*
X137419535Y-57996876D01*
X137425942Y-58056483D01*
X137476236Y-58191328D01*
X137476240Y-58191335D01*
X137562486Y-58306544D01*
X137562489Y-58306547D01*
X137677698Y-58392793D01*
X137677705Y-58392797D01*
X137677708Y-58392798D01*
X137809632Y-58442002D01*
X137865565Y-58483873D01*
X137889983Y-58549337D01*
X137875132Y-58617610D01*
X137853981Y-58645865D01*
X137731920Y-58767926D01*
X137596434Y-58961420D01*
X137596433Y-58961422D01*
X137496604Y-59175507D01*
X137496601Y-59175513D01*
X137439398Y-59388999D01*
X137439398Y-59389000D01*
X138337022Y-59389000D01*
X138304109Y-59446007D01*
X138270034Y-59573174D01*
X138270034Y-59704826D01*
X138304109Y-59831993D01*
X138337022Y-59889000D01*
X137439398Y-59889000D01*
X137496601Y-60102486D01*
X137496604Y-60102492D01*
X137596433Y-60316578D01*
X137731928Y-60510082D01*
X137898951Y-60677105D01*
X138084629Y-60807119D01*
X138128253Y-60861696D01*
X138135446Y-60931195D01*
X138103924Y-60993549D01*
X138084629Y-61010269D01*
X137898628Y-61140508D01*
X137731539Y-61307597D01*
X137595999Y-61501169D01*
X137595998Y-61501171D01*
X137496132Y-61715335D01*
X137496128Y-61715344D01*
X137434972Y-61943586D01*
X137434970Y-61943596D01*
X137414375Y-62178999D01*
X137414375Y-62179001D01*
X137433011Y-62392012D01*
X137419244Y-62460512D01*
X137397164Y-62490500D01*
X131243050Y-68644614D01*
X131243044Y-68644622D01*
X131193812Y-68718302D01*
X131193813Y-68718303D01*
X131160921Y-68767530D01*
X131160914Y-68767542D01*
X131104342Y-68904120D01*
X131104340Y-68904126D01*
X131075500Y-69049113D01*
X131075500Y-70945000D01*
X131055815Y-71012039D01*
X131003011Y-71057794D01*
X130951500Y-71069000D01*
X130668500Y-71069000D01*
X130601461Y-71049315D01*
X130555706Y-70996511D01*
X130544500Y-70945000D01*
X130544500Y-67048081D01*
X130564185Y-66981042D01*
X130580814Y-66960405D01*
X133989351Y-63551867D01*
X134050672Y-63518384D01*
X134087836Y-63516022D01*
X134230714Y-63528522D01*
X134300852Y-63534659D01*
X134300853Y-63534659D01*
X134300854Y-63534659D01*
X134340087Y-63531226D01*
X134536261Y-63514063D01*
X134764516Y-63452903D01*
X134978683Y-63353035D01*
X135172254Y-63217495D01*
X135339348Y-63050401D01*
X135474888Y-62856830D01*
X135574756Y-62642663D01*
X135635916Y-62414408D01*
X135656512Y-62179000D01*
X135635916Y-61943592D01*
X135574756Y-61715337D01*
X135474888Y-61501171D01*
X135467403Y-61490480D01*
X135339347Y-61307597D01*
X135172255Y-61140506D01*
X135172254Y-61140505D01*
X134986258Y-61010269D01*
X134942634Y-60955692D01*
X134935441Y-60886193D01*
X134966963Y-60823839D01*
X134986258Y-60807119D01*
X135171935Y-60677105D01*
X135338958Y-60510082D01*
X135474453Y-60316578D01*
X135574282Y-60102492D01*
X135574285Y-60102486D01*
X135631489Y-59889000D01*
X134733865Y-59889000D01*
X134766778Y-59831993D01*
X134800853Y-59704826D01*
X134800853Y-59573174D01*
X134766778Y-59446007D01*
X134733865Y-59389000D01*
X135631489Y-59389000D01*
X135631488Y-59388999D01*
X135574285Y-59175513D01*
X135574282Y-59175507D01*
X135474453Y-58961422D01*
X135474452Y-58961420D01*
X135338966Y-58767926D01*
X135338961Y-58767920D01*
X135216906Y-58645865D01*
X135183421Y-58584542D01*
X135188405Y-58514850D01*
X135230277Y-58458917D01*
X135261253Y-58442002D01*
X135393184Y-58392796D01*
X135508399Y-58306546D01*
X135594649Y-58191331D01*
X135644944Y-58056483D01*
X135651353Y-57996873D01*
X135651352Y-56201128D01*
X135644944Y-56141517D01*
X135594649Y-56006669D01*
X135594648Y-56006668D01*
X135594646Y-56006664D01*
X135508400Y-55891455D01*
X135508397Y-55891452D01*
X135393188Y-55805206D01*
X135393181Y-55805202D01*
X135258335Y-55754908D01*
X135258336Y-55754908D01*
X135198736Y-55748501D01*
X135198734Y-55748500D01*
X135198726Y-55748500D01*
X135198717Y-55748500D01*
X133402982Y-55748500D01*
X133402976Y-55748501D01*
X133343369Y-55754908D01*
X133208524Y-55805202D01*
X133208517Y-55805206D01*
X133093308Y-55891452D01*
X133093305Y-55891455D01*
X133007059Y-56006664D01*
X133007055Y-56006671D01*
X132956761Y-56141517D01*
X132950354Y-56201116D01*
X132950354Y-56201123D01*
X132950353Y-56201135D01*
X132950353Y-57996870D01*
X132950354Y-57996876D01*
X132956761Y-58056483D01*
X133007055Y-58191328D01*
X133007059Y-58191335D01*
X133093305Y-58306544D01*
X133093308Y-58306547D01*
X133208517Y-58392793D01*
X133208524Y-58392797D01*
X133208527Y-58392798D01*
X133340451Y-58442002D01*
X133396384Y-58483873D01*
X133420802Y-58549337D01*
X133405951Y-58617610D01*
X133384800Y-58645865D01*
X133262739Y-58767926D01*
X133127253Y-58961420D01*
X133127252Y-58961422D01*
X133027423Y-59175507D01*
X133027420Y-59175513D01*
X132970217Y-59388999D01*
X132970217Y-59389000D01*
X133867841Y-59389000D01*
X133834928Y-59446007D01*
X133800853Y-59573174D01*
X133800853Y-59704826D01*
X133834928Y-59831993D01*
X133867841Y-59889000D01*
X132970217Y-59889000D01*
X133027420Y-60102486D01*
X133027423Y-60102492D01*
X133127252Y-60316578D01*
X133262747Y-60510082D01*
X133429770Y-60677105D01*
X133615448Y-60807119D01*
X133659072Y-60861696D01*
X133666265Y-60931195D01*
X133634743Y-60993549D01*
X133615448Y-61010269D01*
X133429447Y-61140508D01*
X133262358Y-61307597D01*
X133126818Y-61501169D01*
X133126817Y-61501171D01*
X133026951Y-61715335D01*
X133026947Y-61715344D01*
X132965791Y-61943586D01*
X132965789Y-61943596D01*
X132945194Y-62178999D01*
X132945194Y-62179001D01*
X132963830Y-62392013D01*
X132950063Y-62460513D01*
X132927983Y-62490501D01*
X129211052Y-66207432D01*
X129211044Y-66207441D01*
X129161812Y-66281121D01*
X129161813Y-66281122D01*
X129128921Y-66330349D01*
X129128914Y-66330361D01*
X129072342Y-66466939D01*
X129072340Y-66466945D01*
X129043500Y-66611932D01*
X129043500Y-70945000D01*
X129023815Y-71012039D01*
X128971011Y-71057794D01*
X128919500Y-71069000D01*
X128890500Y-71069000D01*
X128823461Y-71049315D01*
X128777706Y-70996511D01*
X128766500Y-70945000D01*
X128766500Y-64356901D01*
X128786185Y-64289862D01*
X128802815Y-64269224D01*
X129520171Y-63551867D01*
X129581492Y-63518384D01*
X129618656Y-63516022D01*
X129778907Y-63530042D01*
X129831671Y-63534659D01*
X129831672Y-63534659D01*
X129831673Y-63534659D01*
X129870906Y-63531226D01*
X130067080Y-63514063D01*
X130295335Y-63452903D01*
X130509502Y-63353035D01*
X130703073Y-63217495D01*
X130870167Y-63050401D01*
X131005707Y-62856830D01*
X131105575Y-62642663D01*
X131166735Y-62414408D01*
X131187331Y-62179000D01*
X131166735Y-61943592D01*
X131105575Y-61715337D01*
X131005707Y-61501171D01*
X130998222Y-61490480D01*
X130870166Y-61307597D01*
X130703074Y-61140506D01*
X130703073Y-61140505D01*
X130517077Y-61010269D01*
X130473453Y-60955692D01*
X130466260Y-60886193D01*
X130497782Y-60823839D01*
X130517077Y-60807119D01*
X130702754Y-60677105D01*
X130869777Y-60510082D01*
X131005272Y-60316578D01*
X131105101Y-60102492D01*
X131105104Y-60102486D01*
X131162308Y-59889000D01*
X130264684Y-59889000D01*
X130297597Y-59831993D01*
X130331672Y-59704826D01*
X130331672Y-59573174D01*
X130297597Y-59446007D01*
X130264684Y-59389000D01*
X131162308Y-59389000D01*
X131162307Y-59388999D01*
X131105104Y-59175513D01*
X131105101Y-59175507D01*
X131005272Y-58961422D01*
X131005271Y-58961420D01*
X130869785Y-58767926D01*
X130869780Y-58767920D01*
X130747725Y-58645865D01*
X130714240Y-58584542D01*
X130719224Y-58514850D01*
X130761096Y-58458917D01*
X130792072Y-58442002D01*
X130924003Y-58392796D01*
X131039218Y-58306546D01*
X131125468Y-58191331D01*
X131175763Y-58056483D01*
X131182172Y-57996873D01*
X131182171Y-56201128D01*
X131175763Y-56141517D01*
X131125468Y-56006669D01*
X131125467Y-56006668D01*
X131125465Y-56006664D01*
X131039219Y-55891455D01*
X131039216Y-55891452D01*
X130924007Y-55805206D01*
X130924000Y-55805202D01*
X130789154Y-55754908D01*
X130789155Y-55754908D01*
X130729555Y-55748501D01*
X130729553Y-55748500D01*
X130729545Y-55748500D01*
X130729536Y-55748500D01*
X128933801Y-55748500D01*
X128933795Y-55748501D01*
X128874188Y-55754908D01*
X128739343Y-55805202D01*
X128739336Y-55805206D01*
X128624127Y-55891452D01*
X128624124Y-55891455D01*
X128537878Y-56006664D01*
X128537874Y-56006671D01*
X128487580Y-56141517D01*
X128481173Y-56201116D01*
X128481173Y-56201123D01*
X128481172Y-56201135D01*
X128481172Y-57996870D01*
X128481173Y-57996876D01*
X128487580Y-58056483D01*
X128537874Y-58191328D01*
X128537878Y-58191335D01*
X128624124Y-58306544D01*
X128624127Y-58306547D01*
X128739336Y-58392793D01*
X128739343Y-58392797D01*
X128739346Y-58392798D01*
X128871270Y-58442002D01*
X128927203Y-58483873D01*
X128951621Y-58549337D01*
X128936770Y-58617610D01*
X128915619Y-58645865D01*
X128793558Y-58767926D01*
X128658072Y-58961420D01*
X128658071Y-58961422D01*
X128558242Y-59175507D01*
X128558239Y-59175513D01*
X128501036Y-59388999D01*
X128501036Y-59389000D01*
X129398660Y-59389000D01*
X129365747Y-59446007D01*
X129331672Y-59573174D01*
X129331672Y-59704826D01*
X129365747Y-59831993D01*
X129398660Y-59889000D01*
X128501036Y-59889000D01*
X128558239Y-60102486D01*
X128558242Y-60102492D01*
X128658071Y-60316578D01*
X128793566Y-60510082D01*
X128960589Y-60677105D01*
X129146267Y-60807119D01*
X129189891Y-60861696D01*
X129197084Y-60931195D01*
X129165562Y-60993549D01*
X129146267Y-61010269D01*
X128960266Y-61140508D01*
X128793177Y-61307597D01*
X128657637Y-61501169D01*
X128657636Y-61501171D01*
X128557770Y-61715335D01*
X128557766Y-61715344D01*
X128496610Y-61943586D01*
X128496608Y-61943596D01*
X128476013Y-62178999D01*
X128476013Y-62179001D01*
X128494649Y-62392012D01*
X128480882Y-62460512D01*
X128458802Y-62490500D01*
X127433049Y-63516253D01*
X127383812Y-63589943D01*
X127350921Y-63639168D01*
X127350914Y-63639180D01*
X127294342Y-63775758D01*
X127294340Y-63775764D01*
X127265500Y-63920751D01*
X127265500Y-70945000D01*
X127245815Y-71012039D01*
X127193011Y-71057794D01*
X127141500Y-71069000D01*
X126236991Y-71069000D01*
X126169952Y-71049315D01*
X126124197Y-70996511D01*
X126112991Y-70945000D01*
X126112991Y-63366700D01*
X126132676Y-63299661D01*
X126165866Y-63265126D01*
X126233892Y-63217495D01*
X126400986Y-63050401D01*
X126536526Y-62856830D01*
X126636394Y-62642663D01*
X126697554Y-62414408D01*
X126718150Y-62179000D01*
X126697554Y-61943592D01*
X126636394Y-61715337D01*
X126536526Y-61501171D01*
X126529041Y-61490480D01*
X126400985Y-61307597D01*
X126233893Y-61140506D01*
X126233892Y-61140505D01*
X126047896Y-61010269D01*
X126004272Y-60955692D01*
X125997079Y-60886193D01*
X126028601Y-60823839D01*
X126047896Y-60807119D01*
X126233573Y-60677105D01*
X126400596Y-60510082D01*
X126536091Y-60316578D01*
X126635920Y-60102492D01*
X126635923Y-60102486D01*
X126693127Y-59889000D01*
X125795503Y-59889000D01*
X125828416Y-59831993D01*
X125862491Y-59704826D01*
X125862491Y-59573174D01*
X125828416Y-59446007D01*
X125795503Y-59389000D01*
X126693127Y-59389000D01*
X126693126Y-59388999D01*
X126635923Y-59175513D01*
X126635920Y-59175507D01*
X126536091Y-58961422D01*
X126536090Y-58961420D01*
X126400604Y-58767926D01*
X126400599Y-58767920D01*
X126278544Y-58645865D01*
X126245059Y-58584542D01*
X126250043Y-58514850D01*
X126291915Y-58458917D01*
X126322891Y-58442002D01*
X126454822Y-58392796D01*
X126570037Y-58306546D01*
X126656287Y-58191331D01*
X126706582Y-58056483D01*
X126712991Y-57996873D01*
X126712990Y-56201128D01*
X126706582Y-56141517D01*
X126656287Y-56006669D01*
X126656286Y-56006668D01*
X126656284Y-56006664D01*
X126570038Y-55891455D01*
X126570035Y-55891452D01*
X126454826Y-55805206D01*
X126454819Y-55805202D01*
X126319973Y-55754908D01*
X126319974Y-55754908D01*
X126260374Y-55748501D01*
X126260372Y-55748500D01*
X126260364Y-55748500D01*
X126260355Y-55748500D01*
X124464620Y-55748500D01*
X124464614Y-55748501D01*
X124405007Y-55754908D01*
X124270162Y-55805202D01*
X124270155Y-55805206D01*
X124154946Y-55891452D01*
X124154943Y-55891455D01*
X124068697Y-56006664D01*
X124068693Y-56006671D01*
X124018399Y-56141517D01*
X124011992Y-56201116D01*
X124011992Y-56201123D01*
X124011991Y-56201135D01*
X124011991Y-57996870D01*
X124011992Y-57996876D01*
X124018399Y-58056483D01*
X124068693Y-58191328D01*
X124068697Y-58191335D01*
X124154943Y-58306544D01*
X124154946Y-58306547D01*
X124270155Y-58392793D01*
X124270162Y-58392797D01*
X124270165Y-58392798D01*
X124402089Y-58442002D01*
X124458022Y-58483873D01*
X124482440Y-58549337D01*
X124467589Y-58617610D01*
X124446438Y-58645865D01*
X124324377Y-58767926D01*
X124188891Y-58961420D01*
X124188890Y-58961422D01*
X124089061Y-59175507D01*
X124089058Y-59175513D01*
X124031855Y-59388999D01*
X124031855Y-59389000D01*
X124929479Y-59389000D01*
X124896566Y-59446007D01*
X124862491Y-59573174D01*
X124862491Y-59704826D01*
X124896566Y-59831993D01*
X124929479Y-59889000D01*
X124031855Y-59889000D01*
X124089058Y-60102486D01*
X124089061Y-60102492D01*
X124188890Y-60316578D01*
X124324385Y-60510082D01*
X124491408Y-60677105D01*
X124677086Y-60807119D01*
X124720710Y-60861696D01*
X124727903Y-60931195D01*
X124696381Y-60993549D01*
X124677086Y-61010269D01*
X124491085Y-61140508D01*
X124323996Y-61307597D01*
X124188456Y-61501169D01*
X124188455Y-61501171D01*
X124088589Y-61715335D01*
X124088585Y-61715344D01*
X124027429Y-61943586D01*
X124027427Y-61943596D01*
X124006832Y-62178999D01*
X124006832Y-62179000D01*
X124027427Y-62414403D01*
X124027429Y-62414413D01*
X124088585Y-62642655D01*
X124088587Y-62642659D01*
X124088588Y-62642663D01*
X124133724Y-62739457D01*
X124188456Y-62856830D01*
X124188458Y-62856834D01*
X124323992Y-63050395D01*
X124323997Y-63050402D01*
X124491086Y-63217492D01*
X124491089Y-63217494D01*
X124491090Y-63217495D01*
X124559114Y-63265125D01*
X124602739Y-63319701D01*
X124611991Y-63366700D01*
X124611991Y-70945000D01*
X124592306Y-71012039D01*
X124539502Y-71057794D01*
X124487991Y-71069000D01*
X109107729Y-71069000D01*
X109040690Y-71049315D01*
X108994935Y-70996511D01*
X108984991Y-70927353D01*
X109014016Y-70863797D01*
X109020048Y-70857319D01*
X110510548Y-69366819D01*
X110571871Y-69333334D01*
X110598229Y-69330500D01*
X114373920Y-69330500D01*
X114471462Y-69311096D01*
X114518913Y-69301658D01*
X114655495Y-69245084D01*
X114704729Y-69212186D01*
X114778416Y-69162952D01*
X116627356Y-67314010D01*
X116688677Y-67280527D01*
X116690701Y-67280105D01*
X116743223Y-67269658D01*
X116879805Y-67213084D01*
X116952862Y-67164269D01*
X117002726Y-67130952D01*
X120581809Y-63551867D01*
X120643130Y-63518384D01*
X120680294Y-63516022D01*
X120840545Y-63530042D01*
X120893309Y-63534659D01*
X120893310Y-63534659D01*
X120893311Y-63534659D01*
X120932544Y-63531226D01*
X121128718Y-63514063D01*
X121356973Y-63452903D01*
X121571140Y-63353035D01*
X121764711Y-63217495D01*
X121931805Y-63050401D01*
X122067345Y-62856830D01*
X122167213Y-62642663D01*
X122228373Y-62414408D01*
X122248969Y-62179000D01*
X122228373Y-61943592D01*
X122167213Y-61715337D01*
X122067345Y-61501171D01*
X122059860Y-61490480D01*
X121931804Y-61307597D01*
X121764712Y-61140506D01*
X121764711Y-61140505D01*
X121578715Y-61010269D01*
X121535091Y-60955692D01*
X121527898Y-60886193D01*
X121559420Y-60823839D01*
X121578715Y-60807119D01*
X121764392Y-60677105D01*
X121931415Y-60510082D01*
X122066910Y-60316578D01*
X122166739Y-60102492D01*
X122166742Y-60102486D01*
X122223946Y-59889000D01*
X121326322Y-59889000D01*
X121359235Y-59831993D01*
X121393310Y-59704826D01*
X121393310Y-59573174D01*
X121359235Y-59446007D01*
X121326322Y-59389000D01*
X122223946Y-59389000D01*
X122223945Y-59388999D01*
X122166742Y-59175513D01*
X122166739Y-59175507D01*
X122066910Y-58961422D01*
X122066909Y-58961420D01*
X121931423Y-58767926D01*
X121931418Y-58767920D01*
X121809363Y-58645865D01*
X121775878Y-58584542D01*
X121780862Y-58514850D01*
X121822734Y-58458917D01*
X121853710Y-58442002D01*
X121985641Y-58392796D01*
X122100856Y-58306546D01*
X122187106Y-58191331D01*
X122237401Y-58056483D01*
X122243810Y-57996873D01*
X122243809Y-56201128D01*
X122237401Y-56141517D01*
X122187106Y-56006669D01*
X122187105Y-56006668D01*
X122187103Y-56006664D01*
X122100857Y-55891455D01*
X122100854Y-55891452D01*
X121985645Y-55805206D01*
X121985638Y-55805202D01*
X121850792Y-55754908D01*
X121850793Y-55754908D01*
X121791193Y-55748501D01*
X121791191Y-55748500D01*
X121791183Y-55748500D01*
X121791174Y-55748500D01*
X119995439Y-55748500D01*
X119995433Y-55748501D01*
X119935826Y-55754908D01*
X119800981Y-55805202D01*
X119800974Y-55805206D01*
X119685765Y-55891452D01*
X119685762Y-55891455D01*
X119599516Y-56006664D01*
X119599512Y-56006671D01*
X119549218Y-56141517D01*
X119542811Y-56201116D01*
X119542811Y-56201123D01*
X119542810Y-56201135D01*
X119542810Y-57996870D01*
X119542811Y-57996876D01*
X119549218Y-58056483D01*
X119599512Y-58191328D01*
X119599516Y-58191335D01*
X119685762Y-58306544D01*
X119685765Y-58306547D01*
X119800974Y-58392793D01*
X119800981Y-58392797D01*
X119800984Y-58392798D01*
X119932908Y-58442002D01*
X119988841Y-58483873D01*
X120013259Y-58549337D01*
X119998408Y-58617610D01*
X119977257Y-58645865D01*
X119855196Y-58767926D01*
X119719710Y-58961420D01*
X119719709Y-58961422D01*
X119619880Y-59175507D01*
X119619877Y-59175513D01*
X119562674Y-59388999D01*
X119562674Y-59389000D01*
X120460298Y-59389000D01*
X120427385Y-59446007D01*
X120393310Y-59573174D01*
X120393310Y-59704826D01*
X120427385Y-59831993D01*
X120460298Y-59889000D01*
X119562674Y-59889000D01*
X119619877Y-60102486D01*
X119619880Y-60102492D01*
X119719709Y-60316578D01*
X119855204Y-60510082D01*
X120022227Y-60677105D01*
X120207905Y-60807119D01*
X120251529Y-60861696D01*
X120258722Y-60931195D01*
X120227200Y-60993549D01*
X120207905Y-61010269D01*
X120021904Y-61140508D01*
X119854815Y-61307597D01*
X119719275Y-61501169D01*
X119719274Y-61501171D01*
X119619408Y-61715335D01*
X119619404Y-61715344D01*
X119558248Y-61943586D01*
X119558246Y-61943596D01*
X119537651Y-62178999D01*
X119537651Y-62179001D01*
X119556287Y-62392012D01*
X119542520Y-62460512D01*
X119520440Y-62490500D01*
X116228954Y-65781986D01*
X116167631Y-65815471D01*
X116165466Y-65815922D01*
X116113090Y-65826340D01*
X116113088Y-65826341D01*
X115976508Y-65882914D01*
X115976496Y-65882921D01*
X115927269Y-65915813D01*
X115853588Y-65965044D01*
X115853580Y-65965050D01*
X114025451Y-67793181D01*
X113964128Y-67826666D01*
X113937770Y-67829500D01*
X110823230Y-67829500D01*
X110756191Y-67809815D01*
X110710436Y-67757011D01*
X110700492Y-67687853D01*
X110729517Y-67624297D01*
X110735549Y-67617819D01*
X111392968Y-66960400D01*
X115256620Y-63096745D01*
X115317941Y-63063262D01*
X115387633Y-63068246D01*
X115431980Y-63096747D01*
X115552728Y-63217495D01*
X115600578Y-63251000D01*
X115746294Y-63353032D01*
X115746296Y-63353033D01*
X115746299Y-63353035D01*
X115960466Y-63452903D01*
X116188721Y-63514063D01*
X116377047Y-63530539D01*
X116424128Y-63534659D01*
X116424129Y-63534659D01*
X116424130Y-63534659D01*
X116463363Y-63531226D01*
X116659537Y-63514063D01*
X116887792Y-63452903D01*
X117101959Y-63353035D01*
X117295530Y-63217495D01*
X117462624Y-63050401D01*
X117598164Y-62856830D01*
X117698032Y-62642663D01*
X117759192Y-62414408D01*
X117779788Y-62179000D01*
X117759192Y-61943592D01*
X117698032Y-61715337D01*
X117598164Y-61501171D01*
X117590679Y-61490480D01*
X117462623Y-61307597D01*
X117295531Y-61140506D01*
X117295530Y-61140505D01*
X117109534Y-61010269D01*
X117065910Y-60955692D01*
X117058717Y-60886193D01*
X117090239Y-60823839D01*
X117109534Y-60807119D01*
X117295211Y-60677105D01*
X117462234Y-60510082D01*
X117597729Y-60316578D01*
X117697558Y-60102492D01*
X117697561Y-60102486D01*
X117754765Y-59889000D01*
X116857141Y-59889000D01*
X116890054Y-59831993D01*
X116924129Y-59704826D01*
X116924129Y-59573174D01*
X116890054Y-59446007D01*
X116857141Y-59389000D01*
X117754765Y-59389000D01*
X117754764Y-59388999D01*
X117697561Y-59175513D01*
X117697558Y-59175507D01*
X117597729Y-58961422D01*
X117597728Y-58961420D01*
X117462242Y-58767926D01*
X117462237Y-58767920D01*
X117340182Y-58645865D01*
X117306697Y-58584542D01*
X117311681Y-58514850D01*
X117353553Y-58458917D01*
X117384529Y-58442002D01*
X117516460Y-58392796D01*
X117631675Y-58306546D01*
X117717925Y-58191331D01*
X117768220Y-58056483D01*
X117774629Y-57996873D01*
X117774628Y-56201128D01*
X117768220Y-56141517D01*
X117717925Y-56006669D01*
X117717924Y-56006668D01*
X117717922Y-56006664D01*
X117631676Y-55891455D01*
X117631673Y-55891452D01*
X117516464Y-55805206D01*
X117516457Y-55805202D01*
X117381611Y-55754908D01*
X117381612Y-55754908D01*
X117322012Y-55748501D01*
X117322010Y-55748500D01*
X117322002Y-55748500D01*
X117321993Y-55748500D01*
X115526258Y-55748500D01*
X115526252Y-55748501D01*
X115466645Y-55754908D01*
X115331800Y-55805202D01*
X115331793Y-55805206D01*
X115216584Y-55891452D01*
X115216581Y-55891455D01*
X115130335Y-56006664D01*
X115130331Y-56006671D01*
X115080037Y-56141517D01*
X115073630Y-56201116D01*
X115073630Y-56201123D01*
X115073629Y-56201135D01*
X115073629Y-57996870D01*
X115073630Y-57996876D01*
X115080037Y-58056483D01*
X115130331Y-58191328D01*
X115130335Y-58191335D01*
X115216581Y-58306544D01*
X115216584Y-58306547D01*
X115331793Y-58392793D01*
X115331800Y-58392797D01*
X115331803Y-58392798D01*
X115463727Y-58442002D01*
X115519660Y-58483873D01*
X115544078Y-58549337D01*
X115529227Y-58617610D01*
X115508076Y-58645865D01*
X115386015Y-58767926D01*
X115250529Y-58961420D01*
X115250528Y-58961422D01*
X115150699Y-59175507D01*
X115150696Y-59175513D01*
X115093493Y-59388999D01*
X115093493Y-59389000D01*
X115991117Y-59389000D01*
X115958204Y-59446007D01*
X115924129Y-59573174D01*
X115924129Y-59704826D01*
X115958204Y-59831993D01*
X115991117Y-59889000D01*
X115093493Y-59889000D01*
X115150696Y-60102486D01*
X115150699Y-60102492D01*
X115250528Y-60316578D01*
X115386023Y-60510082D01*
X115553046Y-60677105D01*
X115738724Y-60807119D01*
X115782348Y-60861696D01*
X115789541Y-60931195D01*
X115758019Y-60993549D01*
X115738724Y-61010269D01*
X115552723Y-61140508D01*
X115385635Y-61307596D01*
X115338003Y-61375623D01*
X115283426Y-61419248D01*
X115236428Y-61428500D01*
X115039076Y-61428500D01*
X115010242Y-61434234D01*
X115010243Y-61434235D01*
X114894093Y-61457339D01*
X114894083Y-61457342D01*
X114814081Y-61490479D01*
X114814082Y-61490480D01*
X114757506Y-61513915D01*
X114716645Y-61541218D01*
X114634582Y-61596049D01*
X113412339Y-62818292D01*
X113351016Y-62851777D01*
X113281324Y-62846793D01*
X113225391Y-62804921D01*
X113200974Y-62739457D01*
X113212276Y-62678207D01*
X113228851Y-62642663D01*
X113290011Y-62414408D01*
X113310607Y-62179000D01*
X113290011Y-61943592D01*
X113228851Y-61715337D01*
X113128983Y-61501171D01*
X113121498Y-61490480D01*
X112993442Y-61307597D01*
X112826350Y-61140506D01*
X112826349Y-61140505D01*
X112640353Y-61010269D01*
X112596729Y-60955692D01*
X112589536Y-60886193D01*
X112621058Y-60823839D01*
X112640353Y-60807119D01*
X112826030Y-60677105D01*
X112993053Y-60510082D01*
X113128548Y-60316578D01*
X113228377Y-60102492D01*
X113228380Y-60102486D01*
X113285584Y-59889000D01*
X112387960Y-59889000D01*
X112420873Y-59831993D01*
X112454948Y-59704826D01*
X112454948Y-59573174D01*
X112420873Y-59446007D01*
X112387960Y-59389000D01*
X113285584Y-59389000D01*
X113285583Y-59388999D01*
X113228380Y-59175513D01*
X113228377Y-59175507D01*
X113128548Y-58961422D01*
X113128547Y-58961420D01*
X112993061Y-58767926D01*
X112993056Y-58767920D01*
X112871001Y-58645865D01*
X112837516Y-58584542D01*
X112842500Y-58514850D01*
X112884372Y-58458917D01*
X112915348Y-58442002D01*
X113047279Y-58392796D01*
X113162494Y-58306546D01*
X113248744Y-58191331D01*
X113299039Y-58056483D01*
X113305448Y-57996873D01*
X113305447Y-56201128D01*
X113299039Y-56141517D01*
X113248744Y-56006669D01*
X113248743Y-56006668D01*
X113248741Y-56006664D01*
X113162495Y-55891455D01*
X113162492Y-55891452D01*
X113047283Y-55805206D01*
X113047276Y-55805202D01*
X112912430Y-55754908D01*
X112912431Y-55754908D01*
X112852831Y-55748501D01*
X112852829Y-55748500D01*
X112852821Y-55748500D01*
X112852812Y-55748500D01*
X111057077Y-55748500D01*
X111057071Y-55748501D01*
X110997464Y-55754908D01*
X110862619Y-55805202D01*
X110862612Y-55805206D01*
X110747403Y-55891452D01*
X110747400Y-55891455D01*
X110661154Y-56006664D01*
X110661150Y-56006671D01*
X110610856Y-56141517D01*
X110604449Y-56201116D01*
X110604449Y-56201123D01*
X110604448Y-56201135D01*
X110604448Y-57996870D01*
X110604449Y-57996876D01*
X110610856Y-58056483D01*
X110661150Y-58191328D01*
X110661154Y-58191335D01*
X110747400Y-58306544D01*
X110747403Y-58306547D01*
X110862612Y-58392793D01*
X110862619Y-58392797D01*
X110862622Y-58392798D01*
X110994546Y-58442002D01*
X111050479Y-58483873D01*
X111074897Y-58549337D01*
X111060046Y-58617610D01*
X111038895Y-58645865D01*
X110916834Y-58767926D01*
X110781348Y-58961420D01*
X110781347Y-58961422D01*
X110681518Y-59175507D01*
X110681515Y-59175513D01*
X110624312Y-59388999D01*
X110624312Y-59389000D01*
X111521936Y-59389000D01*
X111489023Y-59446007D01*
X111454948Y-59573174D01*
X111454948Y-59704826D01*
X111489023Y-59831993D01*
X111521936Y-59889000D01*
X110624312Y-59889000D01*
X110681515Y-60102486D01*
X110681518Y-60102492D01*
X110781347Y-60316578D01*
X110916842Y-60510082D01*
X111083865Y-60677105D01*
X111269543Y-60807119D01*
X111313167Y-60861696D01*
X111320360Y-60931195D01*
X111288838Y-60993549D01*
X111269543Y-61010269D01*
X111083542Y-61140508D01*
X110916453Y-61307597D01*
X110780913Y-61501169D01*
X110780912Y-61501171D01*
X110681046Y-61715335D01*
X110681042Y-61715344D01*
X110619886Y-61943586D01*
X110619884Y-61943596D01*
X110599289Y-62178999D01*
X110599289Y-62179001D01*
X110617925Y-62392013D01*
X110604158Y-62460513D01*
X110582078Y-62490501D01*
X108340335Y-64732243D01*
X108279012Y-64765728D01*
X108209320Y-64760744D01*
X108153387Y-64718872D01*
X108128970Y-64653408D01*
X108143822Y-64585135D01*
X108149550Y-64575674D01*
X108150851Y-64573728D01*
X108207425Y-64437146D01*
X108236267Y-64292151D01*
X108236267Y-64144316D01*
X108236267Y-63366700D01*
X108255952Y-63299661D01*
X108289142Y-63265126D01*
X108357168Y-63217495D01*
X108524262Y-63050401D01*
X108659802Y-62856830D01*
X108759670Y-62642663D01*
X108820830Y-62414408D01*
X108841426Y-62179000D01*
X108820830Y-61943592D01*
X108759670Y-61715337D01*
X108659802Y-61501171D01*
X108652317Y-61490480D01*
X108524261Y-61307597D01*
X108357169Y-61140506D01*
X108357168Y-61140505D01*
X108171172Y-61010269D01*
X108127548Y-60955692D01*
X108120355Y-60886193D01*
X108151877Y-60823839D01*
X108171172Y-60807119D01*
X108356849Y-60677105D01*
X108523872Y-60510082D01*
X108659367Y-60316578D01*
X108759196Y-60102492D01*
X108759199Y-60102486D01*
X108816403Y-59889000D01*
X107918779Y-59889000D01*
X107951692Y-59831993D01*
X107985767Y-59704826D01*
X107985767Y-59573174D01*
X107951692Y-59446007D01*
X107918779Y-59389000D01*
X108816403Y-59389000D01*
X108816402Y-59388999D01*
X108759199Y-59175513D01*
X108759196Y-59175507D01*
X108659367Y-58961422D01*
X108659366Y-58961420D01*
X108523880Y-58767926D01*
X108523875Y-58767920D01*
X108401820Y-58645865D01*
X108368335Y-58584542D01*
X108373319Y-58514850D01*
X108415191Y-58458917D01*
X108446167Y-58442002D01*
X108578098Y-58392796D01*
X108693313Y-58306546D01*
X108779563Y-58191331D01*
X108829858Y-58056483D01*
X108836267Y-57996873D01*
X108836266Y-56201128D01*
X108829858Y-56141517D01*
X108779563Y-56006669D01*
X108779562Y-56006668D01*
X108779560Y-56006664D01*
X108693314Y-55891455D01*
X108693311Y-55891452D01*
X108578102Y-55805206D01*
X108578095Y-55805202D01*
X108443249Y-55754908D01*
X108443250Y-55754908D01*
X108383650Y-55748501D01*
X108383648Y-55748500D01*
X108383640Y-55748500D01*
X108383631Y-55748500D01*
X106587896Y-55748500D01*
X106587890Y-55748501D01*
X106528283Y-55754908D01*
X106393438Y-55805202D01*
X106393431Y-55805206D01*
X106278222Y-55891452D01*
X106278219Y-55891455D01*
X106191973Y-56006664D01*
X106191969Y-56006671D01*
X106141675Y-56141517D01*
X106135268Y-56201116D01*
X106135268Y-56201123D01*
X106135267Y-56201135D01*
X106135267Y-57996870D01*
X106135268Y-57996876D01*
X106141675Y-58056483D01*
X106191969Y-58191328D01*
X106191973Y-58191335D01*
X106278219Y-58306544D01*
X106278222Y-58306547D01*
X106393431Y-58392793D01*
X106393438Y-58392797D01*
X106393441Y-58392798D01*
X106525365Y-58442002D01*
X106581298Y-58483873D01*
X106605716Y-58549337D01*
X106590865Y-58617610D01*
X106569714Y-58645865D01*
X106447653Y-58767926D01*
X106312167Y-58961420D01*
X106312166Y-58961422D01*
X106212337Y-59175507D01*
X106212334Y-59175513D01*
X106155131Y-59388999D01*
X106155131Y-59389000D01*
X107052755Y-59389000D01*
X107019842Y-59446007D01*
X106985767Y-59573174D01*
X106985767Y-59704826D01*
X107019842Y-59831993D01*
X107052755Y-59889000D01*
X106155131Y-59889000D01*
X106212334Y-60102486D01*
X106212337Y-60102492D01*
X106312166Y-60316578D01*
X106447661Y-60510082D01*
X106614684Y-60677105D01*
X106800362Y-60807119D01*
X106843986Y-60861696D01*
X106851179Y-60931195D01*
X106819657Y-60993549D01*
X106800362Y-61010269D01*
X106614361Y-61140508D01*
X106447272Y-61307597D01*
X106311732Y-61501169D01*
X106311731Y-61501171D01*
X106211865Y-61715335D01*
X106211861Y-61715344D01*
X106150705Y-61943586D01*
X106150703Y-61943596D01*
X106130108Y-62178999D01*
X106130108Y-62179000D01*
X106150703Y-62414403D01*
X106150705Y-62414413D01*
X106211861Y-62642655D01*
X106211863Y-62642659D01*
X106211864Y-62642663D01*
X106257000Y-62739457D01*
X106311732Y-62856830D01*
X106311734Y-62856834D01*
X106447268Y-63050395D01*
X106447273Y-63050402D01*
X106614362Y-63217492D01*
X106614365Y-63217494D01*
X106614366Y-63217495D01*
X106682390Y-63265125D01*
X106726015Y-63319701D01*
X106735267Y-63366700D01*
X106735267Y-63856002D01*
X106715582Y-63923041D01*
X106698948Y-63943683D01*
X101292181Y-69350450D01*
X101230858Y-69383935D01*
X101161166Y-69378951D01*
X101105233Y-69337079D01*
X101080816Y-69271615D01*
X101080500Y-69262769D01*
X101080500Y-68434229D01*
X101100185Y-68367190D01*
X101116819Y-68346548D01*
X103599534Y-65863833D01*
X103599537Y-65863830D01*
X103681670Y-65740909D01*
X103738244Y-65604327D01*
X103756274Y-65513688D01*
X103767086Y-65459334D01*
X103767086Y-63366700D01*
X103786771Y-63299661D01*
X103819961Y-63265126D01*
X103887987Y-63217495D01*
X104055081Y-63050401D01*
X104190621Y-62856830D01*
X104290489Y-62642663D01*
X104351649Y-62414408D01*
X104372245Y-62179000D01*
X104351649Y-61943592D01*
X104290489Y-61715337D01*
X104190621Y-61501171D01*
X104183136Y-61490480D01*
X104055080Y-61307597D01*
X103887988Y-61140506D01*
X103887987Y-61140505D01*
X103701991Y-61010269D01*
X103658367Y-60955692D01*
X103651174Y-60886193D01*
X103682696Y-60823839D01*
X103701991Y-60807119D01*
X103887668Y-60677105D01*
X104054691Y-60510082D01*
X104190186Y-60316578D01*
X104290015Y-60102492D01*
X104290018Y-60102486D01*
X104347222Y-59889000D01*
X103449598Y-59889000D01*
X103482511Y-59831993D01*
X103516586Y-59704826D01*
X103516586Y-59573174D01*
X103482511Y-59446007D01*
X103449598Y-59389000D01*
X104347222Y-59389000D01*
X104347221Y-59388999D01*
X104290018Y-59175513D01*
X104290015Y-59175507D01*
X104190186Y-58961422D01*
X104190185Y-58961420D01*
X104054699Y-58767926D01*
X104054694Y-58767920D01*
X103932639Y-58645865D01*
X103899154Y-58584542D01*
X103904138Y-58514850D01*
X103946010Y-58458917D01*
X103976986Y-58442002D01*
X104108917Y-58392796D01*
X104224132Y-58306546D01*
X104310382Y-58191331D01*
X104360677Y-58056483D01*
X104367086Y-57996873D01*
X104367085Y-56201128D01*
X104360677Y-56141517D01*
X104310382Y-56006669D01*
X104310381Y-56006668D01*
X104310379Y-56006664D01*
X104224133Y-55891455D01*
X104224130Y-55891452D01*
X104108921Y-55805206D01*
X104108914Y-55805202D01*
X103974068Y-55754908D01*
X103974069Y-55754908D01*
X103914469Y-55748501D01*
X103914467Y-55748500D01*
X103914459Y-55748500D01*
X103914450Y-55748500D01*
X102118715Y-55748500D01*
X102118709Y-55748501D01*
X102059102Y-55754908D01*
X101924257Y-55805202D01*
X101924250Y-55805206D01*
X101809041Y-55891452D01*
X101809038Y-55891455D01*
X101722792Y-56006664D01*
X101722788Y-56006671D01*
X101672494Y-56141517D01*
X101666087Y-56201116D01*
X101666087Y-56201123D01*
X101666086Y-56201135D01*
X101666086Y-57996870D01*
X101666087Y-57996876D01*
X101672494Y-58056483D01*
X101722788Y-58191328D01*
X101722792Y-58191335D01*
X101809038Y-58306544D01*
X101809041Y-58306547D01*
X101924250Y-58392793D01*
X101924257Y-58392797D01*
X101924260Y-58392798D01*
X102056184Y-58442002D01*
X102112117Y-58483873D01*
X102136535Y-58549337D01*
X102121684Y-58617610D01*
X102100533Y-58645865D01*
X101978472Y-58767926D01*
X101842986Y-58961420D01*
X101842985Y-58961422D01*
X101743156Y-59175507D01*
X101743153Y-59175513D01*
X101685950Y-59388999D01*
X101685950Y-59389000D01*
X102583574Y-59389000D01*
X102550661Y-59446007D01*
X102516586Y-59573174D01*
X102516586Y-59704826D01*
X102550661Y-59831993D01*
X102583574Y-59889000D01*
X101685950Y-59889000D01*
X101743153Y-60102486D01*
X101743156Y-60102492D01*
X101842985Y-60316578D01*
X101978480Y-60510082D01*
X102145503Y-60677105D01*
X102331181Y-60807119D01*
X102374805Y-60861696D01*
X102381998Y-60931195D01*
X102350476Y-60993549D01*
X102331181Y-61010269D01*
X102145180Y-61140508D01*
X101978091Y-61307597D01*
X101842551Y-61501169D01*
X101842550Y-61501171D01*
X101742684Y-61715335D01*
X101742680Y-61715344D01*
X101681524Y-61943586D01*
X101681522Y-61943596D01*
X101660927Y-62178999D01*
X101660927Y-62179000D01*
X101681522Y-62414403D01*
X101681524Y-62414413D01*
X101742680Y-62642655D01*
X101742682Y-62642659D01*
X101742683Y-62642663D01*
X101787819Y-62739457D01*
X101842551Y-62856830D01*
X101842553Y-62856834D01*
X101978087Y-63050395D01*
X101978092Y-63050402D01*
X102145181Y-63217492D01*
X102145184Y-63217494D01*
X102145185Y-63217495D01*
X102213209Y-63265125D01*
X102256834Y-63319701D01*
X102266086Y-63366700D01*
X102266086Y-65023183D01*
X102246401Y-65090222D01*
X102229767Y-65110864D01*
X99747050Y-67593580D01*
X99747044Y-67593588D01*
X99697812Y-67667268D01*
X99697813Y-67667269D01*
X99664921Y-67716496D01*
X99664914Y-67716508D01*
X99608342Y-67853086D01*
X99608340Y-67853092D01*
X99579500Y-67998079D01*
X99579500Y-70945000D01*
X99559815Y-71012039D01*
X99507011Y-71057794D01*
X99455500Y-71069000D01*
X99421905Y-71069000D01*
X99354866Y-71049315D01*
X99309111Y-70996511D01*
X99297905Y-70945000D01*
X99297905Y-63366700D01*
X99317590Y-63299661D01*
X99350780Y-63265126D01*
X99418806Y-63217495D01*
X99585900Y-63050401D01*
X99721440Y-62856830D01*
X99821308Y-62642663D01*
X99882468Y-62414408D01*
X99903064Y-62179000D01*
X99882468Y-61943592D01*
X99821308Y-61715337D01*
X99721440Y-61501171D01*
X99713955Y-61490480D01*
X99585899Y-61307597D01*
X99418807Y-61140506D01*
X99418806Y-61140505D01*
X99232810Y-61010269D01*
X99189186Y-60955692D01*
X99181993Y-60886193D01*
X99213515Y-60823839D01*
X99232810Y-60807119D01*
X99418487Y-60677105D01*
X99585510Y-60510082D01*
X99721005Y-60316578D01*
X99820834Y-60102492D01*
X99820837Y-60102486D01*
X99878041Y-59889000D01*
X98980417Y-59889000D01*
X99013330Y-59831993D01*
X99047405Y-59704826D01*
X99047405Y-59573174D01*
X99013330Y-59446007D01*
X98980417Y-59389000D01*
X99878041Y-59389000D01*
X99878040Y-59388999D01*
X99820837Y-59175513D01*
X99820834Y-59175507D01*
X99721005Y-58961422D01*
X99721004Y-58961420D01*
X99585518Y-58767926D01*
X99585513Y-58767920D01*
X99463458Y-58645865D01*
X99429973Y-58584542D01*
X99434957Y-58514850D01*
X99476829Y-58458917D01*
X99507805Y-58442002D01*
X99639736Y-58392796D01*
X99754951Y-58306546D01*
X99841201Y-58191331D01*
X99891496Y-58056483D01*
X99897905Y-57996873D01*
X99897904Y-56201128D01*
X99891496Y-56141517D01*
X99841201Y-56006669D01*
X99841200Y-56006668D01*
X99841198Y-56006664D01*
X99754952Y-55891455D01*
X99754949Y-55891452D01*
X99639740Y-55805206D01*
X99639733Y-55805202D01*
X99504887Y-55754908D01*
X99504888Y-55754908D01*
X99445288Y-55748501D01*
X99445286Y-55748500D01*
X99445278Y-55748500D01*
X99445269Y-55748500D01*
X97649534Y-55748500D01*
X97649528Y-55748501D01*
X97589921Y-55754908D01*
X97455076Y-55805202D01*
X97455069Y-55805206D01*
X97339860Y-55891452D01*
X97339857Y-55891455D01*
X97253611Y-56006664D01*
X97253607Y-56006671D01*
X97203313Y-56141517D01*
X97196906Y-56201116D01*
X97196906Y-56201123D01*
X97196905Y-56201135D01*
X97196905Y-57996870D01*
X97196906Y-57996876D01*
X97203313Y-58056483D01*
X97253607Y-58191328D01*
X97253611Y-58191335D01*
X97339857Y-58306544D01*
X97339860Y-58306547D01*
X97455069Y-58392793D01*
X97455076Y-58392797D01*
X97455079Y-58392798D01*
X97587003Y-58442002D01*
X97642936Y-58483873D01*
X97667354Y-58549337D01*
X97652503Y-58617610D01*
X97631352Y-58645865D01*
X97509291Y-58767926D01*
X97373805Y-58961420D01*
X97373804Y-58961422D01*
X97273975Y-59175507D01*
X97273972Y-59175513D01*
X97216769Y-59388999D01*
X97216769Y-59389000D01*
X98114393Y-59389000D01*
X98081480Y-59446007D01*
X98047405Y-59573174D01*
X98047405Y-59704826D01*
X98081480Y-59831993D01*
X98114393Y-59889000D01*
X97216769Y-59889000D01*
X97273972Y-60102486D01*
X97273975Y-60102492D01*
X97373804Y-60316578D01*
X97509299Y-60510082D01*
X97676322Y-60677105D01*
X97862000Y-60807119D01*
X97905624Y-60861696D01*
X97912817Y-60931195D01*
X97881295Y-60993549D01*
X97862000Y-61010269D01*
X97675999Y-61140508D01*
X97508910Y-61307597D01*
X97373370Y-61501169D01*
X97373369Y-61501171D01*
X97273503Y-61715335D01*
X97273499Y-61715344D01*
X97212343Y-61943586D01*
X97212341Y-61943596D01*
X97191746Y-62178999D01*
X97191746Y-62179000D01*
X97212341Y-62414403D01*
X97212343Y-62414413D01*
X97273499Y-62642655D01*
X97273501Y-62642659D01*
X97273502Y-62642663D01*
X97318638Y-62739457D01*
X97373370Y-62856830D01*
X97373372Y-62856834D01*
X97508906Y-63050395D01*
X97508911Y-63050402D01*
X97676000Y-63217492D01*
X97676003Y-63217494D01*
X97676004Y-63217495D01*
X97744028Y-63265125D01*
X97787653Y-63319701D01*
X97796905Y-63366700D01*
X97796905Y-70945000D01*
X97777220Y-71012039D01*
X97724416Y-71057794D01*
X97672905Y-71069000D01*
X82618541Y-71069000D01*
X82551502Y-71049315D01*
X82505747Y-70996511D01*
X82494592Y-70941459D01*
X82502209Y-70674882D01*
X82524600Y-69891190D01*
X82695749Y-63900995D01*
X84825953Y-63900995D01*
X84825953Y-63901004D01*
X84846113Y-64170026D01*
X84846113Y-64170028D01*
X84906142Y-64433033D01*
X84906148Y-64433052D01*
X85004709Y-64684181D01*
X85004708Y-64684181D01*
X85139602Y-64917822D01*
X85193294Y-64985151D01*
X85193295Y-64985151D01*
X86029958Y-64148488D01*
X86054978Y-64208890D01*
X86126112Y-64315351D01*
X86216649Y-64405888D01*
X86323110Y-64477022D01*
X86383510Y-64502041D01*
X85545848Y-65339702D01*
X85728483Y-65464220D01*
X85728485Y-65464221D01*
X85971539Y-65581269D01*
X85971537Y-65581269D01*
X86229337Y-65660790D01*
X86229343Y-65660792D01*
X86496101Y-65700999D01*
X86496110Y-65701000D01*
X86765890Y-65701000D01*
X86765898Y-65700999D01*
X87032656Y-65660792D01*
X87032662Y-65660790D01*
X87290461Y-65581269D01*
X87533521Y-65464218D01*
X87716150Y-65339702D01*
X86878488Y-64502041D01*
X86938890Y-64477022D01*
X87045351Y-64405888D01*
X87135888Y-64315351D01*
X87207022Y-64208890D01*
X87232041Y-64148488D01*
X88068703Y-64985151D01*
X88068704Y-64985150D01*
X88122393Y-64917828D01*
X88122400Y-64917817D01*
X88257290Y-64684181D01*
X88355851Y-64433052D01*
X88355857Y-64433033D01*
X88415886Y-64170028D01*
X88415886Y-64170026D01*
X88436047Y-63901004D01*
X88436047Y-63900995D01*
X88415886Y-63631973D01*
X88415886Y-63631971D01*
X88355857Y-63368966D01*
X88355851Y-63368947D01*
X88257290Y-63117818D01*
X88257291Y-63117818D01*
X88122397Y-62884177D01*
X88068704Y-62816847D01*
X87232041Y-63653510D01*
X87207022Y-63593110D01*
X87135888Y-63486649D01*
X87045351Y-63396112D01*
X86938890Y-63324978D01*
X86878488Y-63299958D01*
X87625311Y-62553135D01*
X89910500Y-62553135D01*
X89910500Y-65248870D01*
X89910501Y-65248876D01*
X89916908Y-65308483D01*
X89967202Y-65443328D01*
X89967206Y-65443335D01*
X90053452Y-65558544D01*
X90053455Y-65558547D01*
X90168664Y-65644793D01*
X90168671Y-65644797D01*
X90303517Y-65695091D01*
X90303516Y-65695091D01*
X90310444Y-65695835D01*
X90363127Y-65701500D01*
X93058872Y-65701499D01*
X93118483Y-65695091D01*
X93253331Y-65644796D01*
X93368546Y-65558546D01*
X93454796Y-65443331D01*
X93505091Y-65308483D01*
X93511500Y-65248873D01*
X93511499Y-62553128D01*
X93505091Y-62493517D01*
X93493446Y-62462296D01*
X93454797Y-62358671D01*
X93454793Y-62358664D01*
X93368547Y-62243455D01*
X93368544Y-62243452D01*
X93253335Y-62157206D01*
X93253328Y-62157202D01*
X93118482Y-62106908D01*
X93118483Y-62106908D01*
X93058883Y-62100501D01*
X93058881Y-62100500D01*
X93058873Y-62100500D01*
X93058864Y-62100500D01*
X90363129Y-62100500D01*
X90363123Y-62100501D01*
X90303516Y-62106908D01*
X90168671Y-62157202D01*
X90168664Y-62157206D01*
X90053455Y-62243452D01*
X90053452Y-62243455D01*
X89967206Y-62358664D01*
X89967202Y-62358671D01*
X89916908Y-62493517D01*
X89910501Y-62553116D01*
X89910501Y-62553123D01*
X89910500Y-62553135D01*
X87625311Y-62553135D01*
X87716150Y-62462296D01*
X87533517Y-62337779D01*
X87533516Y-62337778D01*
X87290460Y-62220730D01*
X87290462Y-62220730D01*
X87032662Y-62141209D01*
X87032656Y-62141207D01*
X86765898Y-62101000D01*
X86496101Y-62101000D01*
X86229343Y-62141207D01*
X86229337Y-62141209D01*
X85971538Y-62220730D01*
X85728485Y-62337778D01*
X85728476Y-62337783D01*
X85545848Y-62462296D01*
X86383511Y-63299958D01*
X86323110Y-63324978D01*
X86216649Y-63396112D01*
X86126112Y-63486649D01*
X86054978Y-63593110D01*
X86029958Y-63653511D01*
X85193295Y-62816848D01*
X85139600Y-62884180D01*
X85004709Y-63117818D01*
X84906148Y-63368947D01*
X84906142Y-63368966D01*
X84846113Y-63631971D01*
X84846113Y-63631973D01*
X84825953Y-63900995D01*
X82695749Y-63900995D01*
X82744948Y-62179014D01*
X82744948Y-54175259D01*
X82764633Y-54108220D01*
X82817437Y-54062465D01*
X82869205Y-54051259D01*
X204287209Y-54304741D01*
G37*
%TD.AperFunction*%
%TD*%
M02*
