%TF.GenerationSoftware,KiCad,Pcbnew,8.0.2-1*%
%TF.CreationDate,2025-01-01T21:53:55-05:00*%
%TF.ProjectId,C3P0_Controller,43335030-5f43-46f6-9e74-726f6c6c6572,rev?*%
%TF.SameCoordinates,Original*%
%TF.FileFunction,Soldermask,Top*%
%TF.FilePolarity,Negative*%
%FSLAX46Y46*%
G04 Gerber Fmt 4.6, Leading zero omitted, Abs format (unit mm)*
G04 Created by KiCad (PCBNEW 8.0.2-1) date 2025-01-01 21:53:55*
%MOMM*%
%LPD*%
G01*
G04 APERTURE LIST*
G04 Aperture macros list*
%AMRoundRect*
0 Rectangle with rounded corners*
0 $1 Rounding radius*
0 $2 $3 $4 $5 $6 $7 $8 $9 X,Y pos of 4 corners*
0 Add a 4 corners polygon primitive as box body*
4,1,4,$2,$3,$4,$5,$6,$7,$8,$9,$2,$3,0*
0 Add four circle primitives for the rounded corners*
1,1,$1+$1,$2,$3*
1,1,$1+$1,$4,$5*
1,1,$1+$1,$6,$7*
1,1,$1+$1,$8,$9*
0 Add four rect primitives between the rounded corners*
20,1,$1+$1,$2,$3,$4,$5,0*
20,1,$1+$1,$4,$5,$6,$7,0*
20,1,$1+$1,$6,$7,$8,$9,0*
20,1,$1+$1,$8,$9,$2,$3,0*%
G04 Aperture macros list end*
%ADD10C,3.200000*%
%ADD11O,1.700000X1.700000*%
%ADD12R,1.700000X1.700000*%
%ADD13C,2.600000*%
%ADD14R,2.600000X2.600000*%
%ADD15RoundRect,0.102000X-0.780000X-0.780000X0.780000X-0.780000X0.780000X0.780000X-0.780000X0.780000X0*%
%ADD16C,1.764000*%
G04 APERTURE END LIST*
D10*
%TO.C,REF\u002A\u002A*%
X77978000Y-132334000D03*
%TD*%
%TO.C,REF\u002A\u002A*%
X77978000Y-56642000D03*
%TD*%
%TO.C,REF\u002A\u002A*%
X216154000Y-132334000D03*
%TD*%
%TO.C,REF\u002A\u002A*%
X216154000Y-56642000D03*
%TD*%
D11*
%TO.C,J26*%
X214826000Y-106944000D03*
X212286000Y-106944000D03*
D12*
X209746000Y-106944000D03*
%TD*%
%TO.C,J25*%
X209736000Y-99118000D03*
D11*
X212276000Y-99118000D03*
X214816000Y-99118000D03*
%TD*%
D12*
%TO.C,J24*%
X147708396Y-57099000D03*
D11*
X147708396Y-59639000D03*
X147708396Y-62179000D03*
%TD*%
%TO.C,J23*%
X143239215Y-62179000D03*
X143239215Y-59639000D03*
D12*
X143239215Y-57099000D03*
%TD*%
D13*
%TO.C,J51*%
X209591000Y-119425000D03*
D14*
X209591000Y-124505000D03*
%TD*%
%TO.C,J50*%
X91711000Y-63901000D03*
D13*
X86631000Y-63901000D03*
%TD*%
D12*
%TO.C,J33*%
X209486000Y-83210000D03*
D11*
X212026000Y-83210000D03*
X214566000Y-83210000D03*
%TD*%
D12*
%TO.C,J32*%
X209425834Y-67563500D03*
D11*
X211965834Y-67563500D03*
X214505834Y-67563500D03*
%TD*%
D12*
%TO.C,J31*%
X210088668Y-91122000D03*
D11*
X212628668Y-91122000D03*
X215168668Y-91122000D03*
%TD*%
D12*
%TO.C,J30*%
X209486000Y-75062000D03*
D11*
X212026000Y-75062000D03*
X214566000Y-75062000D03*
%TD*%
%TO.C,J2*%
X129831672Y-62179000D03*
X129831672Y-59639000D03*
D12*
X129831672Y-57099000D03*
%TD*%
D11*
%TO.C,J1*%
X125362491Y-62179000D03*
X125362491Y-59639000D03*
D12*
X125362491Y-57099000D03*
%TD*%
D11*
%TO.C,J22*%
X174523482Y-62179000D03*
X174523482Y-59639000D03*
D12*
X174523482Y-57099000D03*
%TD*%
D11*
%TO.C,J21*%
X170054301Y-62179000D03*
X170054301Y-59639000D03*
D12*
X170054301Y-57099000D03*
%TD*%
D11*
%TO.C,J20*%
X165585120Y-62179000D03*
X165585120Y-59639000D03*
D12*
X165585120Y-57099000D03*
%TD*%
D11*
%TO.C,J19*%
X161115939Y-62179000D03*
X161115939Y-59639000D03*
D12*
X161115939Y-57099000D03*
%TD*%
D11*
%TO.C,J18*%
X156646758Y-62179000D03*
X156646758Y-59639000D03*
D12*
X156646758Y-57099000D03*
%TD*%
D11*
%TO.C,J17*%
X152177577Y-62179000D03*
X152177577Y-59639000D03*
D12*
X152177577Y-57099000D03*
%TD*%
D11*
%TO.C,J16*%
X120893310Y-62179000D03*
X120893310Y-59639000D03*
D12*
X120893310Y-57099000D03*
%TD*%
D11*
%TO.C,J15*%
X116424129Y-62179000D03*
X116424129Y-59639000D03*
D12*
X116424129Y-57099000D03*
%TD*%
D11*
%TO.C,J14*%
X111954948Y-62179000D03*
X111954948Y-59639000D03*
D12*
X111954948Y-57099000D03*
%TD*%
D11*
%TO.C,J13*%
X107485767Y-62179000D03*
X107485767Y-59639000D03*
D12*
X107485767Y-57099000D03*
%TD*%
D11*
%TO.C,J12*%
X103016586Y-62179000D03*
X103016586Y-59639000D03*
D12*
X103016586Y-57099000D03*
%TD*%
D11*
%TO.C,J11*%
X98547405Y-62179000D03*
X98547405Y-59639000D03*
D12*
X98547405Y-57099000D03*
%TD*%
D11*
%TO.C,J10*%
X201338569Y-62179000D03*
X201338569Y-59639000D03*
D12*
X201338569Y-57099000D03*
%TD*%
D11*
%TO.C,J9*%
X196869387Y-62179000D03*
X196869387Y-59639000D03*
D12*
X196869387Y-57099000D03*
%TD*%
D11*
%TO.C,J8*%
X192400206Y-62179000D03*
X192400206Y-59639000D03*
D12*
X192400206Y-57099000D03*
%TD*%
D11*
%TO.C,J7*%
X187931025Y-62179000D03*
X187931025Y-59639000D03*
D12*
X187931025Y-57099000D03*
%TD*%
D11*
%TO.C,J6*%
X183461844Y-62179000D03*
X183461844Y-59639000D03*
D12*
X183461844Y-57099000D03*
%TD*%
D11*
%TO.C,J5*%
X178992663Y-62179000D03*
X178992663Y-59639000D03*
D12*
X178992663Y-57099000D03*
%TD*%
D11*
%TO.C,J4*%
X138770034Y-62179000D03*
X138770034Y-59639000D03*
D12*
X138770034Y-57099000D03*
%TD*%
D15*
%TO.C,U4*%
X173963000Y-83611000D03*
D16*
X173963000Y-86151000D03*
X173963000Y-88691000D03*
X173963000Y-91231000D03*
X173963000Y-93771000D03*
X173963000Y-96311000D03*
X173963000Y-98851000D03*
X173963000Y-101391000D03*
X173963000Y-103931000D03*
X173963000Y-106471000D03*
X173963000Y-109011000D03*
X173963000Y-111551000D03*
X173963000Y-114091000D03*
X173963000Y-116631000D03*
X173963000Y-119171000D03*
X173963000Y-121711000D03*
X173963000Y-124251000D03*
X173963000Y-126791000D03*
X173963000Y-129331000D03*
X199363000Y-83611000D03*
X199363000Y-86151000D03*
X199363000Y-88691000D03*
X199363000Y-91231000D03*
X199363000Y-93771000D03*
X199363000Y-96311000D03*
X199363000Y-98851000D03*
X199363000Y-101391000D03*
X199363000Y-103931000D03*
X199363000Y-106471000D03*
X199363000Y-109011000D03*
X199363000Y-111551000D03*
X199363000Y-114091000D03*
X199363000Y-116631000D03*
X199363000Y-119171000D03*
X199363000Y-121711000D03*
X199363000Y-124251000D03*
X199363000Y-126791000D03*
X199363000Y-129331000D03*
%TD*%
D15*
%TO.C,U3*%
X143938000Y-83611000D03*
D16*
X143938000Y-86151000D03*
X143938000Y-88691000D03*
X143938000Y-91231000D03*
X143938000Y-93771000D03*
X143938000Y-96311000D03*
X143938000Y-98851000D03*
X143938000Y-101391000D03*
X143938000Y-103931000D03*
X143938000Y-106471000D03*
X143938000Y-109011000D03*
X143938000Y-111551000D03*
X143938000Y-114091000D03*
X143938000Y-116631000D03*
X143938000Y-119171000D03*
X143938000Y-121711000D03*
X143938000Y-124251000D03*
X143938000Y-126791000D03*
X143938000Y-129331000D03*
X169338000Y-83611000D03*
X169338000Y-86151000D03*
X169338000Y-88691000D03*
X169338000Y-91231000D03*
X169338000Y-93771000D03*
X169338000Y-96311000D03*
X169338000Y-98851000D03*
X169338000Y-101391000D03*
X169338000Y-103931000D03*
X169338000Y-106471000D03*
X169338000Y-109011000D03*
X169338000Y-111551000D03*
X169338000Y-114091000D03*
X169338000Y-116631000D03*
X169338000Y-119171000D03*
X169338000Y-121711000D03*
X169338000Y-124251000D03*
X169338000Y-126791000D03*
X169338000Y-129331000D03*
%TD*%
D15*
%TO.C,U2*%
X113913000Y-83611000D03*
D16*
X113913000Y-86151000D03*
X113913000Y-88691000D03*
X113913000Y-91231000D03*
X113913000Y-93771000D03*
X113913000Y-96311000D03*
X113913000Y-98851000D03*
X113913000Y-101391000D03*
X113913000Y-103931000D03*
X113913000Y-106471000D03*
X113913000Y-109011000D03*
X113913000Y-111551000D03*
X113913000Y-114091000D03*
X113913000Y-116631000D03*
X113913000Y-119171000D03*
X113913000Y-121711000D03*
X113913000Y-124251000D03*
X113913000Y-126791000D03*
X113913000Y-129331000D03*
X139313000Y-83611000D03*
X139313000Y-86151000D03*
X139313000Y-88691000D03*
X139313000Y-91231000D03*
X139313000Y-93771000D03*
X139313000Y-96311000D03*
X139313000Y-98851000D03*
X139313000Y-101391000D03*
X139313000Y-103931000D03*
X139313000Y-106471000D03*
X139313000Y-109011000D03*
X139313000Y-111551000D03*
X139313000Y-114091000D03*
X139313000Y-116631000D03*
X139313000Y-119171000D03*
X139313000Y-121711000D03*
X139313000Y-124251000D03*
X139313000Y-126791000D03*
X139313000Y-129331000D03*
%TD*%
D15*
%TO.C,U1*%
X83888000Y-83611000D03*
D16*
X83888000Y-86151000D03*
X83888000Y-88691000D03*
X83888000Y-91231000D03*
X83888000Y-93771000D03*
X83888000Y-96311000D03*
X83888000Y-98851000D03*
X83888000Y-101391000D03*
X83888000Y-103931000D03*
X83888000Y-106471000D03*
X83888000Y-109011000D03*
X83888000Y-111551000D03*
X83888000Y-114091000D03*
X83888000Y-116631000D03*
X83888000Y-119171000D03*
X83888000Y-121711000D03*
X83888000Y-124251000D03*
X83888000Y-126791000D03*
X83888000Y-129331000D03*
X109288000Y-83611000D03*
X109288000Y-86151000D03*
X109288000Y-88691000D03*
X109288000Y-91231000D03*
X109288000Y-93771000D03*
X109288000Y-96311000D03*
X109288000Y-98851000D03*
X109288000Y-101391000D03*
X109288000Y-103931000D03*
X109288000Y-106471000D03*
X109288000Y-109011000D03*
X109288000Y-111551000D03*
X109288000Y-114091000D03*
X109288000Y-116631000D03*
X109288000Y-119171000D03*
X109288000Y-121711000D03*
X109288000Y-124251000D03*
X109288000Y-126791000D03*
X109288000Y-129331000D03*
%TD*%
D11*
%TO.C,J3*%
X134300853Y-62179000D03*
X134300853Y-59639000D03*
D12*
X134300853Y-57099000D03*
%TD*%
M02*
