M48
; DRILL file {KiCad 8.0.2-1} date 2025-01-01T21:53:51-0500
; FORMAT={-:-/ absolute / inch / decimal}
; #@! TF.CreationDate,2025-01-01T21:53:51-05:00
; #@! TF.GenerationSoftware,Kicad,Pcbnew,8.0.2-1
; #@! TF.FileFunction,Plated,1,4,PTH
FMAT,2
INCH
; #@! TA.AperFunction,Plated,PTH,ComponentDrill
T1C0.0394
; #@! TA.AperFunction,Plated,PTH,ComponentDrill
T2C0.0409
; #@! TA.AperFunction,Plated,PTH,ComponentDrill
T3C0.0512
%
G90
G05
T1
X3.8798Y-2.248
X3.8798Y-2.348
X3.8798Y-2.448
X4.0558Y-2.248
X4.0558Y-2.348
X4.0558Y-2.448
X4.2317Y-2.248
X4.2317Y-2.348
X4.2317Y-2.448
X4.4077Y-2.248
X4.4077Y-2.348
X4.4077Y-2.448
X4.5836Y-2.248
X4.5836Y-2.348
X4.5836Y-2.448
X4.7596Y-2.248
X4.7596Y-2.348
X4.7596Y-2.448
X4.9355Y-2.248
X4.9355Y-2.348
X4.9355Y-2.448
X5.1115Y-2.248
X5.1115Y-2.348
X5.1115Y-2.448
X5.2874Y-2.248
X5.2874Y-2.348
X5.2874Y-2.448
X5.4634Y-2.248
X5.4634Y-2.348
X5.4634Y-2.448
X5.6393Y-2.248
X5.6393Y-2.348
X5.6393Y-2.448
X5.8153Y-2.248
X5.8153Y-2.348
X5.8153Y-2.448
X5.9912Y-2.248
X5.9912Y-2.348
X5.9912Y-2.448
X6.1672Y-2.248
X6.1672Y-2.348
X6.1672Y-2.448
X6.3431Y-2.248
X6.3431Y-2.348
X6.3431Y-2.448
X6.5191Y-2.248
X6.5191Y-2.348
X6.5191Y-2.448
X6.6951Y-2.248
X6.6951Y-2.348
X6.6951Y-2.448
X6.871Y-2.248
X6.871Y-2.348
X6.871Y-2.448
X7.047Y-2.248
X7.047Y-2.348
X7.047Y-2.448
X7.2229Y-2.248
X7.2229Y-2.348
X7.2229Y-2.448
X7.3989Y-2.248
X7.3989Y-2.348
X7.3989Y-2.448
X7.5748Y-2.248
X7.5748Y-2.348
X7.5748Y-2.448
X7.7508Y-2.248
X7.7508Y-2.348
X7.7508Y-2.448
X7.9267Y-2.248
X7.9267Y-2.348
X7.9267Y-2.448
X8.2451Y-2.66
X8.2475Y-2.9552
X8.2475Y-3.276
X8.2573Y-3.9023
X8.2577Y-4.2104
X8.2712Y-3.5875
X8.3451Y-2.66
X8.3475Y-2.9552
X8.3475Y-3.276
X8.3573Y-3.9023
X8.3577Y-4.2104
X8.3712Y-3.5875
X8.4451Y-2.66
X8.4475Y-2.9552
X8.4475Y-3.276
X8.4573Y-3.9023
X8.4577Y-4.2104
X8.4712Y-3.5875
T2
X3.3027Y-3.2918
X3.3027Y-3.3918
X3.3027Y-3.4918
X3.3027Y-3.5918
X3.3027Y-3.6918
X3.3027Y-3.7918
X3.3027Y-3.8918
X3.3027Y-3.9918
X3.3027Y-4.0918
X3.3027Y-4.1918
X3.3027Y-4.2918
X3.3027Y-4.3918
X3.3027Y-4.4918
X3.3027Y-4.5918
X3.3027Y-4.6918
X3.3027Y-4.7918
X3.3027Y-4.8918
X3.3027Y-4.9918
X3.3027Y-5.0918
X4.3027Y-3.2918
X4.3027Y-3.3918
X4.3027Y-3.4918
X4.3027Y-3.5918
X4.3027Y-3.6918
X4.3027Y-3.7918
X4.3027Y-3.8918
X4.3027Y-3.9918
X4.3027Y-4.0918
X4.3027Y-4.1918
X4.3027Y-4.2918
X4.3027Y-4.3918
X4.3027Y-4.4918
X4.3027Y-4.5918
X4.3027Y-4.6918
X4.3027Y-4.7918
X4.3027Y-4.8918
X4.3027Y-4.9918
X4.3027Y-5.0918
X4.4848Y-3.2918
X4.4848Y-3.3918
X4.4848Y-3.4918
X4.4848Y-3.5918
X4.4848Y-3.6918
X4.4848Y-3.7918
X4.4848Y-3.8918
X4.4848Y-3.9918
X4.4848Y-4.0918
X4.4848Y-4.1918
X4.4848Y-4.2918
X4.4848Y-4.3918
X4.4848Y-4.4918
X4.4848Y-4.5918
X4.4848Y-4.6918
X4.4848Y-4.7918
X4.4848Y-4.8918
X4.4848Y-4.9918
X4.4848Y-5.0918
X5.4848Y-3.2918
X5.4848Y-3.3918
X5.4848Y-3.4918
X5.4848Y-3.5918
X5.4848Y-3.6918
X5.4848Y-3.7918
X5.4848Y-3.8918
X5.4848Y-3.9918
X5.4848Y-4.0918
X5.4848Y-4.1918
X5.4848Y-4.2918
X5.4848Y-4.3918
X5.4848Y-4.4918
X5.4848Y-4.5918
X5.4848Y-4.6918
X5.4848Y-4.7918
X5.4848Y-4.8918
X5.4848Y-4.9918
X5.4848Y-5.0918
X5.6669Y-3.2918
X5.6669Y-3.3918
X5.6669Y-3.4918
X5.6669Y-3.5918
X5.6669Y-3.6918
X5.6669Y-3.7918
X5.6669Y-3.8918
X5.6669Y-3.9918
X5.6669Y-4.0918
X5.6669Y-4.1918
X5.6669Y-4.2918
X5.6669Y-4.3918
X5.6669Y-4.4918
X5.6669Y-4.5918
X5.6669Y-4.6918
X5.6669Y-4.7918
X5.6669Y-4.8918
X5.6669Y-4.9918
X5.6669Y-5.0918
X6.6669Y-3.2918
X6.6669Y-3.3918
X6.6669Y-3.4918
X6.6669Y-3.5918
X6.6669Y-3.6918
X6.6669Y-3.7918
X6.6669Y-3.8918
X6.6669Y-3.9918
X6.6669Y-4.0918
X6.6669Y-4.1918
X6.6669Y-4.2918
X6.6669Y-4.3918
X6.6669Y-4.4918
X6.6669Y-4.5918
X6.6669Y-4.6918
X6.6669Y-4.7918
X6.6669Y-4.8918
X6.6669Y-4.9918
X6.6669Y-5.0918
X6.8489Y-3.2918
X6.8489Y-3.3918
X6.8489Y-3.4918
X6.8489Y-3.5918
X6.8489Y-3.6918
X6.8489Y-3.7918
X6.8489Y-3.8918
X6.8489Y-3.9918
X6.8489Y-4.0918
X6.8489Y-4.1918
X6.8489Y-4.2918
X6.8489Y-4.3918
X6.8489Y-4.4918
X6.8489Y-4.5918
X6.8489Y-4.6918
X6.8489Y-4.7918
X6.8489Y-4.8918
X6.8489Y-4.9918
X6.8489Y-5.0918
X7.8489Y-3.2918
X7.8489Y-3.3918
X7.8489Y-3.4918
X7.8489Y-3.5918
X7.8489Y-3.6918
X7.8489Y-3.7918
X7.8489Y-3.8918
X7.8489Y-3.9918
X7.8489Y-4.0918
X7.8489Y-4.1918
X7.8489Y-4.2918
X7.8489Y-4.3918
X7.8489Y-4.4918
X7.8489Y-4.5918
X7.8489Y-4.6918
X7.8489Y-4.7918
X7.8489Y-4.8918
X7.8489Y-4.9918
X7.8489Y-5.0918
T3
X3.4107Y-2.5158
X3.6107Y-2.5158
X8.2516Y-4.7018
X8.2516Y-4.9018
M30
