M48
; DRILL file {KiCad (6.0.0-0)} date Monday, December 05, 2022 at 03:15:16 PM
; FORMAT={-:-/ absolute / inch / decimal}
; #@! TF.CreationDate,2022-12-05T15:15:16-05:00
; #@! TF.GenerationSoftware,Kicad,Pcbnew,(6.0.0-0)
; #@! TF.FileFunction,Plated,1,4,PTH
FMAT,2
INCH
; #@! TA.AperFunction,Plated,PTH,ViaDrill
T1C0.0118
; #@! TA.AperFunction,Plated,PTH,ComponentDrill
T2C0.0197
; #@! TA.AperFunction,Plated,PTH,ComponentDrill
T3C0.0217
; #@! TA.AperFunction,Plated,PTH,ComponentDrill
T4C0.0259
; #@! TA.AperFunction,Plated,PTH,ComponentDrill
T5C0.0300
; #@! TA.AperFunction,Plated,PTH,ComponentDrill
T6C0.0394
; #@! TA.AperFunction,Plated,PTH,ComponentDrill
T7C0.0469
; #@! TA.AperFunction,Plated,PTH,ComponentDrill
T8C0.0472
; #@! TA.AperFunction,Plated,PTH,ComponentDrill
T9C0.0866
; #@! TA.AperFunction,Plated,PTH,ComponentDrill
T10C0.1260
%
G90
G05
T1
X3.2244Y-4.237
X3.248Y-4.0248
X3.2508Y-4.4496
X3.2677Y-4.511
X3.2831Y-4.4177
X3.2972Y-4.5457
X3.4102Y-4.1941
X3.4256Y-4.0228
X3.4866Y-3.6138
X3.5476Y-3.5465
X3.5602Y-3.6248
X3.5768Y-3.985
X3.5976Y-3.5626
X3.6406Y-4.0339
X3.6535Y-3.5622
X3.6626Y-3.9594
X3.6933Y-4.4201
X3.7081Y-3.2616
X3.7106Y-4.0256
X3.7185Y-2.9756
X3.7189Y-3.5638
X3.7209Y-4.2807
X3.7303Y-4.4909
X3.7358Y-4.5409
X3.7563Y-4.4531
X3.7878Y-4.413
X3.7882Y-4.0256
X3.7894Y-3.5283
X3.8059Y-3.2587
X3.8094Y-3.1354
X3.8476Y-3.6323
X3.8563Y-3.9039
X3.9606Y-3.1504
X3.9795Y-3.4677
X4.0207Y-3.9884
X4.0331Y-4.1181
X4.0386Y-3.1555
X4.0583Y-3.6803
X4.1386Y-4.1642
X4.1588Y-4.2432
X4.1878Y-4.1224
X4.1992Y-3.6358
X4.2002Y-3.6967
X4.2224Y-3.4201
X4.274Y-3.4878
X4.2815Y-3.2882
X4.2815Y-3.7441
X4.2819Y-3.3906
X4.2835Y-3.1087
X4.2913Y-3.5213
X4.2961Y-3.2287
X4.2988Y-3.7839
X4.31Y-4.25
X4.3795Y-2.9421
X4.4051Y-4.0811
X4.4185Y-3.0996
X4.4193Y-3.0669
X4.4264Y-3.2906
X4.4283Y-3.961
X4.4323Y-3.3669
X4.4331Y-4.1142
X4.4344Y-4.4451
X4.4413Y-3.5039
X4.4602Y-3.774
X4.4795Y-2.8587
X4.4807Y-3.4776
X4.498Y-3.0138
X4.5177Y-4.2551
X4.5642Y-3.3256
X4.5866Y-3.478
X4.5941Y-4.1661
X4.622Y-3.0323
X4.6461Y-4.4555
X4.6476Y-3.4205
X4.6815Y-3.4469
X4.698Y-3.5028
X4.6996Y-3.8154
X4.7087Y-3.9016
X4.7169Y-4.478
X4.7366Y-3.502
X4.7413Y-3.298
X4.748Y-2.8815
X4.7677Y-4.4811
X4.7906Y-4.2705
X4.8315Y-3.4386
X4.8327Y-4.2346
X4.837Y-3.3303
X4.8508Y-3.6256
X4.8567Y-3.2587
X4.8835Y-3.348
X4.8898Y-3.3854
X4.9Y-3.4229
X4.9437Y-4.1717
X5.0177Y-3.522
X5.278Y-3.8382
X5.3217Y-4.1441
X5.3496Y-3.8209
X5.8209Y-3.7823
X6.0106Y-3.8091
X6.1075Y-3.813
X6.1091Y-3.5984
X6.211Y-3.8161
X6.2165Y-3.7575
X6.3142Y-3.8248
X6.4142Y-3.8272
X6.5156Y-3.8283
X6.6201Y-3.8374
X6.6681Y-2.3846
X6.6691Y-2.312
X6.6783Y-1.9886
X6.6831Y-2.0496
X6.7193Y-3.8181
X6.8138Y-3.7575
X6.8201Y-3.813
X6.8272Y-3.6937
X6.8441Y-3.5941
X6.8654Y-3.1067
X6.8689Y-2.7457
T4
X4.6291Y-3.878
X4.8213Y-3.878
T5
X5.7411Y-2.3152
X5.7411Y-2.4152
X5.8411Y-2.3152
X5.8411Y-2.4152
X5.9411Y-2.3152
X5.9411Y-2.4152
X6.0411Y-2.3152
X6.0411Y-2.4152
X6.1411Y-2.3152
X6.1411Y-2.4152
X6.2411Y-2.3152
X6.2411Y-2.4152
T6
X3.1673Y-3.0083
X3.1673Y-3.1083
X3.2673Y-3.0083
X3.2673Y-3.1083
X3.3673Y-3.0083
X3.3673Y-3.1083
X3.5094Y-2.4935
X3.564Y-2.6053
X3.6185Y-2.4935
X3.673Y-2.6053
X3.7276Y-2.4935
X3.7821Y-2.6053
X3.8366Y-2.4935
X3.8911Y-2.6053
X3.9457Y-2.4935
X4.0002Y-2.6053
X4.0547Y-2.4935
X4.1093Y-2.6053
X4.1638Y-2.4935
X4.2183Y-2.6053
X4.2728Y-2.4935
X4.3274Y-2.6053
X4.3819Y-2.4935
X4.4364Y-2.6053
X4.4909Y-2.4935
X4.5455Y-2.6053
X4.6Y-2.4935
X4.6545Y-2.6053
X4.7091Y-2.4935
X4.7636Y-2.6053
X4.8181Y-2.4935
X5.8673Y-3.9339
X5.8673Y-4.0339
X5.9673Y-3.9339
X5.9673Y-4.0339
X6.0673Y-3.9339
X6.0673Y-4.0339
X6.1673Y-3.9339
X6.1673Y-4.0339
X6.2673Y-3.9339
X6.2673Y-4.0339
X6.3673Y-3.9339
X6.3673Y-4.0339
X6.4673Y-3.9339
X6.4673Y-4.0339
X6.5673Y-3.9339
X6.5673Y-4.0339
X6.6673Y-3.9339
X6.6673Y-4.0339
X6.7673Y-3.9339
X6.7673Y-4.0339
T7
X5.1098Y-4.1724
X5.1098Y-4.2724
X5.1098Y-4.3724
X5.1098Y-4.4724
X5.4549Y-4.2724
X5.4549Y-4.3724
X5.4549Y-4.4724
X5.8Y-4.2724
X5.8Y-4.3724
X5.8Y-4.4724
X6.1451Y-4.2724
X6.1451Y-4.3724
X6.1451Y-4.4724
X6.4902Y-4.2724
X6.4902Y-4.3724
X6.4902Y-4.4724
X6.8161Y-4.4189
X6.8189Y-2.3712
X6.8193Y-2.0277
X6.9161Y-4.4189
X6.9189Y-2.3712
X6.9193Y-2.0277
X6.9232Y-3.4334
X7.0161Y-4.4189
X7.0177Y-3.7639
X7.0189Y-2.3712
X7.0193Y-2.0277
X7.0224Y-2.7276
X7.0232Y-3.4334
X7.0252Y-3.0817
X7.1146Y-4.0873
X7.1161Y-4.4189
X7.1177Y-3.7639
X7.1189Y-2.3712
X7.1193Y-2.0277
X7.1224Y-2.7276
X7.1232Y-3.4334
X7.1252Y-3.0817
X7.2146Y-4.0873
X7.2161Y-4.4189
X7.2177Y-3.7639
X7.2189Y-2.3712
X7.2193Y-2.0277
X7.2224Y-2.7276
X7.2232Y-3.4334
X7.2252Y-3.0817
X7.3146Y-4.0873
X7.3161Y-4.4189
X7.3177Y-3.7639
X7.3189Y-2.3712
X7.3193Y-2.0277
X7.3224Y-2.7276
X7.3232Y-3.4334
X7.3252Y-3.0817
T8
X3.574Y-2.0433
X3.7118Y-2.0433
X4.3114Y-2.0433
X4.4492Y-2.0433
X4.6711Y-2.0433
X4.8089Y-2.0433
X5.0307Y-2.0433
X5.1685Y-2.0433
X5.5311Y-2.0433
X5.6689Y-2.0433
X5.8876Y-2.0433
X6.0254Y-2.0433
X6.2441Y-2.0433
X6.3819Y-2.0433
T9
X5.5738Y-2.3518
X5.5738Y-3.1785
X6.4085Y-2.3518
T10
X3.2366Y-2.5494
X5.0909Y-2.5494
T2
G00X3.3539Y-4.6541
M15
G01X3.3539Y-4.6797
M16
G05
G00X3.6295Y-4.6541
M15
G01X3.6295Y-4.6797
M16
G05
G00X3.776Y-4.6541
M15
G01X3.776Y-4.6797
M16
G05
G00X4.0516Y-4.6541
M15
G01X4.0516Y-4.6797
M16
G05
G00X4.199Y-4.6537
M15
G01X4.199Y-4.6793
M16
G05
G00X4.4746Y-4.6537
M15
G01X4.4746Y-4.6793
M16
G05
G00X4.6147Y-4.6533
M15
G01X4.6147Y-4.6789
M16
G05
G00X4.8903Y-4.6533
M15
G01X4.8903Y-4.6789
M16
G05
T3
G00X3.3874Y-4.5606
M15
G01X3.3992Y-4.5606
M16
G05
G00X3.5843Y-4.5606
M15
G01X3.5961Y-4.5606
M16
G05
G00X3.8094Y-4.5606
M15
G01X3.8213Y-4.5606
M16
G05
G00X4.0063Y-4.5606
M15
G01X4.0181Y-4.5606
M16
G05
G00X4.2325Y-4.5602
M15
G01X4.2443Y-4.5602
M16
G05
G00X4.4293Y-4.5602
M15
G01X4.4411Y-4.5602
M16
G05
G00X4.6481Y-4.5598
M15
G01X4.6599Y-4.5598
M16
G05
G00X4.845Y-4.5598
M15
G01X4.8568Y-4.5598
M16
G05
T0
M30
