%TF.GenerationSoftware,KiCad,Pcbnew,(6.0.0-0)*%
%TF.CreationDate,2022-09-07T16:36:10-04:00*%
%TF.ProjectId,Dome_Controller,446f6d65-5f43-46f6-9e74-726f6c6c6572,rev?*%
%TF.SameCoordinates,Original*%
%TF.FileFunction,Soldermask,Top*%
%TF.FilePolarity,Negative*%
%FSLAX46Y46*%
G04 Gerber Fmt 4.6, Leading zero omitted, Abs format (unit mm)*
G04 Created by KiCad (PCBNEW (6.0.0-0)) date 2022-09-07 16:36:10*
%MOMM*%
%LPD*%
G01*
G04 APERTURE LIST*
G04 Aperture macros list*
%AMRoundRect*
0 Rectangle with rounded corners*
0 $1 Rounding radius*
0 $2 $3 $4 $5 $6 $7 $8 $9 X,Y pos of 4 corners*
0 Add a 4 corners polygon primitive as box body*
4,1,4,$2,$3,$4,$5,$6,$7,$8,$9,$2,$3,0*
0 Add four circle primitives for the rounded corners*
1,1,$1+$1,$2,$3*
1,1,$1+$1,$4,$5*
1,1,$1+$1,$6,$7*
1,1,$1+$1,$8,$9*
0 Add four rect primitives between the rounded corners*
20,1,$1+$1,$2,$3,$4,$5,0*
20,1,$1+$1,$4,$5,$6,$7,0*
20,1,$1+$1,$6,$7,$8,$9,0*
20,1,$1+$1,$8,$9,$2,$3,0*%
G04 Aperture macros list end*
%ADD10C,0.010000*%
%ADD11RoundRect,0.135000X-0.185000X0.135000X-0.185000X-0.135000X0.185000X-0.135000X0.185000X0.135000X0*%
%ADD12R,1.000000X1.000000*%
%ADD13R,2.400000X2.400000*%
%ADD14C,2.400000*%
%ADD15RoundRect,0.140000X-0.170000X0.140000X-0.170000X-0.140000X0.170000X-0.140000X0.170000X0.140000X0*%
%ADD16RoundRect,0.200000X-0.200000X-0.275000X0.200000X-0.275000X0.200000X0.275000X-0.200000X0.275000X0*%
%ADD17R,0.400000X1.350000*%
%ADD18R,1.500000X1.550000*%
%ADD19O,0.890000X1.550000*%
%ADD20O,1.250000X0.950000*%
%ADD21R,1.200000X1.550000*%
%ADD22R,2.000000X0.900000*%
%ADD23R,0.900000X2.000000*%
%ADD24R,5.000000X5.000000*%
%ADD25RoundRect,0.140000X0.140000X0.170000X-0.140000X0.170000X-0.140000X-0.170000X0.140000X-0.170000X0*%
%ADD26RoundRect,0.100000X1.000000X0.400000X-1.000000X0.400000X-1.000000X-0.400000X1.000000X-0.400000X0*%
%ADD27R,0.914400X1.219200*%
%ADD28C,3.400000*%
%ADD29R,1.700000X1.700000*%
%ADD30O,1.700000X1.700000*%
%ADD31RoundRect,0.150000X-0.150000X0.587500X-0.150000X-0.587500X0.150000X-0.587500X0.150000X0.587500X0*%
%ADD32C,1.524000*%
%ADD33C,2.300000*%
%ADD34RoundRect,0.140000X-0.140000X-0.170000X0.140000X-0.170000X0.140000X0.170000X-0.140000X0.170000X0*%
%ADD35RoundRect,0.049600X-0.605400X-0.260400X0.605400X-0.260400X0.605400X0.260400X-0.605400X0.260400X0*%
%ADD36RoundRect,0.150000X-0.512500X-0.150000X0.512500X-0.150000X0.512500X0.150000X-0.512500X0.150000X0*%
%ADD37RoundRect,0.200000X0.200000X0.275000X-0.200000X0.275000X-0.200000X-0.275000X0.200000X-0.275000X0*%
G04 APERTURE END LIST*
D10*
%TO.C,U5*%
X137930000Y-83745800D02*
X138555000Y-83745800D01*
X138555000Y-83745800D02*
X138555000Y-84145800D01*
X138555000Y-84145800D02*
X137930000Y-84145800D01*
X137930000Y-84145800D02*
X137930000Y-83745800D01*
G36*
X138555000Y-84145800D02*
G01*
X137930000Y-84145800D01*
X137930000Y-83745800D01*
X138555000Y-83745800D01*
X138555000Y-84145800D01*
G37*
X138555000Y-84145800D02*
X137930000Y-84145800D01*
X137930000Y-83745800D01*
X138555000Y-83745800D01*
X138555000Y-84145800D01*
X139755000Y-84395800D02*
X140380000Y-84395800D01*
X140380000Y-84395800D02*
X140380000Y-84795800D01*
X140380000Y-84795800D02*
X139755000Y-84795800D01*
X139755000Y-84795800D02*
X139755000Y-84395800D01*
G36*
X140380000Y-84795800D02*
G01*
X139755000Y-84795800D01*
X139755000Y-84395800D01*
X140380000Y-84395800D01*
X140380000Y-84795800D01*
G37*
X140380000Y-84795800D02*
X139755000Y-84795800D01*
X139755000Y-84395800D01*
X140380000Y-84395800D01*
X140380000Y-84795800D01*
X137930000Y-84395800D02*
X138555000Y-84395800D01*
X138555000Y-84395800D02*
X138555000Y-84795800D01*
X138555000Y-84795800D02*
X137930000Y-84795800D01*
X137930000Y-84795800D02*
X137930000Y-84395800D01*
G36*
X138555000Y-84795800D02*
G01*
X137930000Y-84795800D01*
X137930000Y-84395800D01*
X138555000Y-84395800D01*
X138555000Y-84795800D01*
G37*
X138555000Y-84795800D02*
X137930000Y-84795800D01*
X137930000Y-84395800D01*
X138555000Y-84395800D01*
X138555000Y-84795800D01*
X137930000Y-83095800D02*
X138555000Y-83095800D01*
X138555000Y-83095800D02*
X138555000Y-83495800D01*
X138555000Y-83495800D02*
X137930000Y-83495800D01*
X137930000Y-83495800D02*
X137930000Y-83095800D01*
G36*
X138555000Y-83495800D02*
G01*
X137930000Y-83495800D01*
X137930000Y-83095800D01*
X138555000Y-83095800D01*
X138555000Y-83495800D01*
G37*
X138555000Y-83495800D02*
X137930000Y-83495800D01*
X137930000Y-83095800D01*
X138555000Y-83095800D01*
X138555000Y-83495800D01*
X139755000Y-83095800D02*
X140380000Y-83095800D01*
X140380000Y-83095800D02*
X140380000Y-83495800D01*
X140380000Y-83495800D02*
X139755000Y-83495800D01*
X139755000Y-83495800D02*
X139755000Y-83095800D01*
G36*
X140380000Y-83495800D02*
G01*
X139755000Y-83495800D01*
X139755000Y-83095800D01*
X140380000Y-83095800D01*
X140380000Y-83495800D01*
G37*
X140380000Y-83495800D02*
X139755000Y-83495800D01*
X139755000Y-83095800D01*
X140380000Y-83095800D01*
X140380000Y-83495800D01*
X139755000Y-83745800D02*
X140380000Y-83745800D01*
X140380000Y-83745800D02*
X140380000Y-84145800D01*
X140380000Y-84145800D02*
X139755000Y-84145800D01*
X139755000Y-84145800D02*
X139755000Y-83745800D01*
G36*
X140380000Y-84145800D02*
G01*
X139755000Y-84145800D01*
X139755000Y-83745800D01*
X140380000Y-83745800D01*
X140380000Y-84145800D01*
G37*
X140380000Y-84145800D02*
X139755000Y-84145800D01*
X139755000Y-83745800D01*
X140380000Y-83745800D01*
X140380000Y-84145800D01*
%TD*%
D11*
%TO.C,R4*%
X121580000Y-102330000D03*
X121580000Y-103350000D03*
%TD*%
D12*
%TO.C,L1*%
X122375000Y-107320000D03*
X122375000Y-106020000D03*
X120345000Y-106020000D03*
X120345000Y-107320000D03*
%TD*%
D13*
%TO.C,J5*%
X87780000Y-66000000D03*
D14*
X84280000Y-66000000D03*
%TD*%
D15*
%TO.C,C4*%
X138220000Y-80620000D03*
X138220000Y-81580000D03*
%TD*%
D13*
%TO.C,J8*%
X93190000Y-99570000D03*
D14*
X96690000Y-99570000D03*
%TD*%
D16*
%TO.C,R2*%
X104165000Y-75030000D03*
X105815000Y-75030000D03*
%TD*%
%TO.C,R3*%
X100755000Y-81700000D03*
X102405000Y-81700000D03*
%TD*%
D17*
%TO.C,J1*%
X113600000Y-105750000D03*
X114250000Y-105750000D03*
X114900000Y-105750000D03*
X115550000Y-105750000D03*
X116200000Y-105750000D03*
D18*
X115900000Y-108450000D03*
D19*
X118400000Y-108450000D03*
D20*
X117400000Y-105750000D03*
D21*
X112000000Y-108450000D03*
D20*
X112400000Y-105750000D03*
D21*
X117800000Y-108450000D03*
D18*
X113900000Y-108450000D03*
D19*
X111400000Y-108450000D03*
%TD*%
D22*
%TO.C,U1*%
X108980000Y-70245000D03*
X108980000Y-71515000D03*
X108980000Y-72785000D03*
X108980000Y-74055000D03*
X108980000Y-75325000D03*
X108980000Y-76595000D03*
X108980000Y-77865000D03*
X108980000Y-79135000D03*
X108980000Y-80405000D03*
X108980000Y-81675000D03*
X108980000Y-82945000D03*
X108980000Y-84215000D03*
X108980000Y-85485000D03*
X108980000Y-86755000D03*
D23*
X111765000Y-87755000D03*
X113035000Y-87755000D03*
X114305000Y-87755000D03*
X115575000Y-87755000D03*
X116845000Y-87755000D03*
X118115000Y-87755000D03*
X119385000Y-87755000D03*
X120655000Y-87755000D03*
X121925000Y-87755000D03*
X123195000Y-87755000D03*
D22*
X125980000Y-86755000D03*
X125980000Y-85485000D03*
X125980000Y-84215000D03*
X125980000Y-82945000D03*
X125980000Y-81675000D03*
X125980000Y-80405000D03*
X125980000Y-79135000D03*
X125980000Y-77865000D03*
X125980000Y-76595000D03*
X125980000Y-75325000D03*
X125980000Y-74055000D03*
X125980000Y-72785000D03*
X125980000Y-71515000D03*
X125980000Y-70245000D03*
D24*
X116480000Y-77745000D03*
%TD*%
D25*
%TO.C,C3*%
X106350000Y-71550000D03*
X105390000Y-71550000D03*
%TD*%
%TO.C,C5*%
X103440000Y-80110000D03*
X102480000Y-80110000D03*
%TD*%
D13*
%TO.C,J9*%
X102060000Y-99570000D03*
D14*
X105560000Y-99570000D03*
%TD*%
D25*
%TO.C,C2*%
X106390000Y-70320000D03*
X105430000Y-70320000D03*
%TD*%
D26*
%TO.C,SW1*%
X118705000Y-101600000D03*
X110905000Y-101600000D03*
%TD*%
D15*
%TO.C,C7*%
X105870000Y-83990000D03*
X105870000Y-84950000D03*
%TD*%
D27*
%TO.C,CR1*%
X105476800Y-77738500D03*
X102200200Y-77738500D03*
%TD*%
D28*
%TO.C,REF\u002A\u002A*%
X77000000Y-61000000D03*
%TD*%
D29*
%TO.C,J3*%
X139210000Y-67040000D03*
D30*
X141750000Y-67040000D03*
X139210000Y-69580000D03*
X141750000Y-69580000D03*
X139210000Y-72120000D03*
X141750000Y-72120000D03*
%TD*%
D31*
%TO.C,U2*%
X103130000Y-71142500D03*
X101230000Y-71142500D03*
X102180000Y-73017500D03*
%TD*%
D28*
%TO.C,REF\u002A\u002A*%
X77000000Y-103000000D03*
%TD*%
D29*
%TO.C,J2*%
X142610000Y-81150000D03*
D30*
X142610000Y-83690000D03*
X142610000Y-86230000D03*
X142610000Y-88770000D03*
X142610000Y-91310000D03*
X142610000Y-93850000D03*
%TD*%
D15*
%TO.C,C6*%
X128680000Y-84190000D03*
X128680000Y-85150000D03*
%TD*%
D28*
%TO.C,REF\u002A\u002A*%
X148000000Y-103000000D03*
%TD*%
D29*
%TO.C,J4*%
X142050000Y-76320000D03*
D30*
X139510000Y-76320000D03*
X136970000Y-76320000D03*
%TD*%
D28*
%TO.C,REF\u002A\u002A*%
X148000000Y-61000000D03*
%TD*%
D29*
%TO.C,J10*%
X134870000Y-67020000D03*
D30*
X134870000Y-69560000D03*
X134870000Y-72100000D03*
%TD*%
D13*
%TO.C,J7*%
X84230000Y-99650000D03*
D14*
X87730000Y-99650000D03*
%TD*%
D32*
%TO.C,U6*%
X75035000Y-76185000D03*
X75035000Y-78725000D03*
X75035000Y-81265000D03*
X75035000Y-83805000D03*
X75035000Y-86345000D03*
X75035000Y-88885000D03*
X77575000Y-88885000D03*
X77575000Y-86345000D03*
X77575000Y-83805000D03*
X77575000Y-81265000D03*
X77575000Y-78725000D03*
X77575000Y-76185000D03*
D33*
X75965000Y-71935000D03*
X75965000Y-93135000D03*
X96965000Y-93135000D03*
%TD*%
D34*
%TO.C,C1*%
X110180000Y-97890000D03*
X111140000Y-97890000D03*
%TD*%
D35*
%TO.C,U4*%
X130845000Y-80395000D03*
X130845000Y-81665000D03*
X130845000Y-82935000D03*
X130845000Y-84205000D03*
X130845000Y-85475000D03*
X130845000Y-86745000D03*
X130845000Y-88015000D03*
X130845000Y-89285000D03*
X136345000Y-89285000D03*
X136345000Y-88015000D03*
X136345000Y-86745000D03*
X136345000Y-85475000D03*
X136345000Y-84205000D03*
X136345000Y-82935000D03*
X136345000Y-81665000D03*
X136345000Y-80395000D03*
%TD*%
D13*
%TO.C,J6*%
X97850000Y-65930000D03*
D14*
X94350000Y-65930000D03*
%TD*%
D36*
%TO.C,U3*%
X102032500Y-83920000D03*
X102032500Y-84870000D03*
X102032500Y-85820000D03*
X104307500Y-85820000D03*
X104307500Y-83920000D03*
%TD*%
D37*
%TO.C,R1*%
X112855000Y-96010000D03*
X111205000Y-96010000D03*
%TD*%
M02*
