%TF.GenerationSoftware,KiCad,Pcbnew,(6.0.0-0)*%
%TF.CreationDate,2022-02-07T13:40:10-05:00*%
%TF.ProjectId,Data Panel VU,44617461-2050-4616-9e65-6c2056552e6b,rev?*%
%TF.SameCoordinates,Original*%
%TF.FileFunction,Legend,Bot*%
%TF.FilePolarity,Positive*%
%FSLAX46Y46*%
G04 Gerber Fmt 4.6, Leading zero omitted, Abs format (unit mm)*
G04 Created by KiCad (PCBNEW (6.0.0-0)) date 2022-02-07 13:40:10*
%MOMM*%
%LPD*%
G01*
G04 APERTURE LIST*
%ADD10C,0.150000*%
%ADD11C,0.120000*%
G04 APERTURE END LIST*
D10*
X132627619Y-111545523D02*
X131627619Y-111212190D01*
X132627619Y-110878857D01*
X131627619Y-110021714D02*
X131627619Y-110593142D01*
X131627619Y-110307428D02*
X132627619Y-110307428D01*
X132484761Y-110402666D01*
X132389523Y-110497904D01*
X132341904Y-110593142D01*
X131722857Y-109021714D02*
X131675238Y-109069333D01*
X131627619Y-109212190D01*
X131627619Y-109307428D01*
X131675238Y-109450285D01*
X131770476Y-109545523D01*
X131865714Y-109593142D01*
X132056190Y-109640761D01*
X132199047Y-109640761D01*
X132389523Y-109593142D01*
X132484761Y-109545523D01*
X132580000Y-109450285D01*
X132627619Y-109307428D01*
X132627619Y-109212190D01*
X132580000Y-109069333D01*
X132532380Y-109021714D01*
X137707619Y-111545523D02*
X136707619Y-111212190D01*
X137707619Y-110878857D01*
X137612380Y-110593142D02*
X137660000Y-110545523D01*
X137707619Y-110450285D01*
X137707619Y-110212190D01*
X137660000Y-110116952D01*
X137612380Y-110069333D01*
X137517142Y-110021714D01*
X137421904Y-110021714D01*
X137279047Y-110069333D01*
X136707619Y-110640761D01*
X136707619Y-110021714D01*
X136802857Y-109021714D02*
X136755238Y-109069333D01*
X136707619Y-109212190D01*
X136707619Y-109307428D01*
X136755238Y-109450285D01*
X136850476Y-109545523D01*
X136945714Y-109593142D01*
X137136190Y-109640761D01*
X137279047Y-109640761D01*
X137469523Y-109593142D01*
X137564761Y-109545523D01*
X137660000Y-109450285D01*
X137707619Y-109307428D01*
X137707619Y-109212190D01*
X137660000Y-109069333D01*
X137612380Y-109021714D01*
X140501619Y-111545523D02*
X139501619Y-111212190D01*
X140501619Y-110878857D01*
X140406380Y-110593142D02*
X140454000Y-110545523D01*
X140501619Y-110450285D01*
X140501619Y-110212190D01*
X140454000Y-110116952D01*
X140406380Y-110069333D01*
X140311142Y-110021714D01*
X140215904Y-110021714D01*
X140073047Y-110069333D01*
X139501619Y-110640761D01*
X139501619Y-110021714D01*
X139501619Y-109593142D02*
X140501619Y-109593142D01*
X140501619Y-109355047D01*
X140454000Y-109212190D01*
X140358761Y-109116952D01*
X140263523Y-109069333D01*
X140073047Y-109021714D01*
X139930190Y-109021714D01*
X139739714Y-109069333D01*
X139644476Y-109116952D01*
X139549238Y-109212190D01*
X139501619Y-109355047D01*
X139501619Y-109593142D01*
X135197619Y-111545523D02*
X134197619Y-111212190D01*
X135197619Y-110878857D01*
X134197619Y-110021714D02*
X134197619Y-110593142D01*
X134197619Y-110307428D02*
X135197619Y-110307428D01*
X135054761Y-110402666D01*
X134959523Y-110497904D01*
X134911904Y-110593142D01*
X134197619Y-109593142D02*
X135197619Y-109593142D01*
X135197619Y-109355047D01*
X135150000Y-109212190D01*
X135054761Y-109116952D01*
X134959523Y-109069333D01*
X134769047Y-109021714D01*
X134626190Y-109021714D01*
X134435714Y-109069333D01*
X134340476Y-109116952D01*
X134245238Y-109212190D01*
X134197619Y-109355047D01*
X134197619Y-109593142D01*
X127500000Y-110736095D02*
X127547619Y-110831333D01*
X127547619Y-110974190D01*
X127500000Y-111117047D01*
X127404761Y-111212285D01*
X127309523Y-111259904D01*
X127119047Y-111307523D01*
X126976190Y-111307523D01*
X126785714Y-111259904D01*
X126690476Y-111212285D01*
X126595238Y-111117047D01*
X126547619Y-110974190D01*
X126547619Y-110878952D01*
X126595238Y-110736095D01*
X126642857Y-110688476D01*
X126976190Y-110688476D01*
X126976190Y-110878952D01*
X130087619Y-110680476D02*
X130087619Y-111156666D01*
X129611428Y-111204285D01*
X129659047Y-111156666D01*
X129706666Y-111061428D01*
X129706666Y-110823333D01*
X129659047Y-110728095D01*
X129611428Y-110680476D01*
X129516190Y-110632857D01*
X129278095Y-110632857D01*
X129182857Y-110680476D01*
X129135238Y-110728095D01*
X129087619Y-110823333D01*
X129087619Y-111061428D01*
X129135238Y-111156666D01*
X129182857Y-111204285D01*
X130087619Y-110347142D02*
X129087619Y-110013809D01*
X130087619Y-109680476D01*
%TO.C,G\u002A\u002A\u002A*%
G36*
X126941883Y-92033233D02*
G01*
X126941966Y-91989017D01*
X127207574Y-91989017D01*
X127213053Y-92089104D01*
X127249420Y-92153908D01*
X127340419Y-92168494D01*
X127409980Y-92162340D01*
X127461286Y-92115685D01*
X127472450Y-91995795D01*
X127472009Y-91982511D01*
X127792092Y-91982511D01*
X127792237Y-91999449D01*
X127812847Y-92128164D01*
X127871800Y-92168494D01*
X127879059Y-92168158D01*
X127934222Y-92120067D01*
X127951507Y-91982511D01*
X127951363Y-91965572D01*
X127930752Y-91836858D01*
X127871800Y-91796527D01*
X127864540Y-91796863D01*
X127809377Y-91844954D01*
X127792092Y-91982511D01*
X127472009Y-91982511D01*
X127470266Y-91930065D01*
X127440056Y-91775115D01*
X127378615Y-91709233D01*
X127291331Y-91740028D01*
X127288111Y-91742832D01*
X127231121Y-91845023D01*
X127207574Y-91989017D01*
X126941966Y-91989017D01*
X126942166Y-91881990D01*
X126945783Y-91663026D01*
X126956714Y-91516480D01*
X126978850Y-91420147D01*
X127016085Y-91351822D01*
X127072313Y-91289300D01*
X127082097Y-91279697D01*
X127240898Y-91176795D01*
X127394833Y-91179938D01*
X127545917Y-91289125D01*
X127559557Y-91303818D01*
X127638656Y-91379210D01*
X127690774Y-91381499D01*
X127755412Y-91315694D01*
X127871357Y-91226675D01*
X127995801Y-91234482D01*
X128139905Y-91342438D01*
X128163460Y-91366630D01*
X128213050Y-91430287D01*
X128244365Y-91508508D01*
X128261571Y-91624217D01*
X128268839Y-91800340D01*
X128270335Y-92059802D01*
X128270335Y-92646737D01*
X126941883Y-92646737D01*
X126941883Y-92033233D01*
G37*
G36*
X133584143Y-95516193D02*
G01*
X134381214Y-95516193D01*
X134907523Y-95516193D01*
X135337699Y-95516193D01*
X135336885Y-95237218D01*
X135327039Y-95033321D01*
X135289848Y-94900259D01*
X135215161Y-94839552D01*
X135092812Y-94834427D01*
X135072434Y-94836851D01*
X134996646Y-94854791D01*
X134954885Y-94901412D01*
X134934627Y-95002560D01*
X134923343Y-95184080D01*
X134907523Y-95516193D01*
X134381214Y-95516193D01*
X134381214Y-95088449D01*
X134381829Y-95010982D01*
X134400881Y-94737673D01*
X134454566Y-94533035D01*
X134553644Y-94368382D01*
X134708877Y-94215030D01*
X134775303Y-94162157D01*
X134879511Y-94104986D01*
X135002844Y-94085424D01*
X135188301Y-94092478D01*
X135340968Y-94109439D01*
X135508262Y-94157511D01*
X135634280Y-94244217D01*
X135713708Y-94322620D01*
X135794833Y-94424426D01*
X135851836Y-94540340D01*
X135888897Y-94688786D01*
X135910195Y-94888188D01*
X135919909Y-95156969D01*
X135922218Y-95513554D01*
X135922218Y-96366402D01*
X133584143Y-96366402D01*
X133584143Y-95516193D01*
G37*
G36*
X133584143Y-94230342D02*
G01*
X133584143Y-93354354D01*
X133796695Y-93290671D01*
X134009247Y-93226989D01*
X134009247Y-92880097D01*
X134487490Y-92880097D01*
X134488737Y-93005654D01*
X134493561Y-93129381D01*
X134500774Y-93176682D01*
X134509492Y-93174146D01*
X134592298Y-93145996D01*
X134742403Y-93093411D01*
X134935765Y-93024785D01*
X135357471Y-92874322D01*
X135057490Y-92762085D01*
X134923892Y-92713542D01*
X134746543Y-92653227D01*
X134622500Y-92615963D01*
X134619433Y-92615194D01*
X134544168Y-92602080D01*
X134504885Y-92626608D01*
X134489890Y-92711655D01*
X134487490Y-92880097D01*
X134009247Y-92880097D01*
X134009247Y-92544726D01*
X133584143Y-92417362D01*
X133584143Y-90791374D01*
X133994290Y-90775855D01*
X134404438Y-90760335D01*
X133996736Y-90441506D01*
X133589035Y-90122678D01*
X133584143Y-89299038D01*
X135922218Y-89299038D01*
X135922218Y-90091638D01*
X135098578Y-90122678D01*
X135922218Y-90756988D01*
X135922218Y-91528636D01*
X133770126Y-91557406D01*
X134846172Y-91920505D01*
X135922218Y-92283605D01*
X135918628Y-93470377D01*
X134751385Y-93850360D01*
X134500774Y-93931943D01*
X133584143Y-94230342D01*
G37*
G36*
X127632678Y-87040670D02*
G01*
X127632171Y-87105166D01*
X127620648Y-87221163D01*
X127581809Y-87269880D01*
X127499833Y-87279791D01*
X127396441Y-87303977D01*
X127366988Y-87389560D01*
X127389185Y-87532905D01*
X127479257Y-87659610D01*
X127628041Y-87704896D01*
X127687230Y-87701546D01*
X127820714Y-87646918D01*
X127883734Y-87519801D01*
X127880946Y-87312979D01*
X127869137Y-87167447D01*
X127893855Y-87060313D01*
X127970241Y-86968322D01*
X127972073Y-86966605D01*
X128066746Y-86887502D01*
X128126266Y-86854686D01*
X128145810Y-86860555D01*
X128206828Y-86936720D01*
X128264204Y-87076027D01*
X128306799Y-87246712D01*
X128323473Y-87417010D01*
X128309761Y-87576294D01*
X128225327Y-87819267D01*
X128079486Y-88006008D01*
X127890350Y-88130024D01*
X127676027Y-88184821D01*
X127454627Y-88163905D01*
X127244262Y-88060783D01*
X127063039Y-87868962D01*
X127026258Y-87810664D01*
X126988051Y-87727633D01*
X126963447Y-87624578D01*
X126949509Y-87479938D01*
X126943300Y-87272156D01*
X126941883Y-86979673D01*
X126941883Y-86270167D01*
X127141151Y-86267956D01*
X127340419Y-86265744D01*
X127141151Y-86089625D01*
X127130587Y-86080288D01*
X127738954Y-86080288D01*
X127743211Y-86174544D01*
X127773914Y-86251065D01*
X127848597Y-86270167D01*
X127900183Y-86264645D01*
X127941980Y-86217800D01*
X127941589Y-86097904D01*
X127911068Y-85974943D01*
X127831946Y-85908024D01*
X127789065Y-85906786D01*
X127749336Y-85952968D01*
X127738954Y-86080288D01*
X127130587Y-86080288D01*
X126941883Y-85913507D01*
X126941883Y-84091506D01*
X127139690Y-84091506D01*
X127188143Y-84091411D01*
X127284206Y-84086024D01*
X127290337Y-84062784D01*
X127219094Y-84008574D01*
X127106499Y-83906540D01*
X127010742Y-83738134D01*
X126958022Y-83505902D01*
X126941883Y-83190798D01*
X126941883Y-82763054D01*
X127632678Y-82763054D01*
X127632678Y-82975607D01*
X127632631Y-82994117D01*
X127623465Y-83121836D01*
X127585423Y-83176558D01*
X127499833Y-83188159D01*
X127479006Y-83188565D01*
X127390004Y-83218534D01*
X127366988Y-83316658D01*
X127367312Y-83346288D01*
X127392385Y-83507600D01*
X127468927Y-83590096D01*
X127613110Y-83613264D01*
X127643774Y-83612361D01*
X127766141Y-83577746D01*
X127844481Y-83482396D01*
X127886117Y-83311901D01*
X127898369Y-83051855D01*
X127898369Y-82763054D01*
X128323473Y-82763054D01*
X128323473Y-83206870D01*
X128319266Y-83433609D01*
X128301824Y-83598753D01*
X128264915Y-83720365D01*
X128202318Y-83830468D01*
X128047200Y-84007994D01*
X127846135Y-84112900D01*
X127592825Y-84132569D01*
X127366988Y-84117310D01*
X127366988Y-84502944D01*
X127368484Y-84638360D01*
X127379319Y-84790291D01*
X127404054Y-84867236D01*
X127446695Y-84888578D01*
X127469610Y-84884720D01*
X127513240Y-84823819D01*
X127526402Y-84676025D01*
X127532419Y-84553341D01*
X127563148Y-84481297D01*
X127632678Y-84463473D01*
X127694021Y-84475507D01*
X127730042Y-84536966D01*
X127738954Y-84676025D01*
X127740401Y-84737132D01*
X127763239Y-84853479D01*
X127818661Y-84888578D01*
X127836751Y-84886048D01*
X127874033Y-84844599D01*
X127893047Y-84736919D01*
X127898369Y-84543180D01*
X127898369Y-84197783D01*
X128323473Y-84197783D01*
X128323473Y-85366820D01*
X127366988Y-85366820D01*
X127366988Y-85549667D01*
X127372398Y-85653343D01*
X127406399Y-85746603D01*
X127472735Y-85738796D01*
X127572681Y-85630424D01*
X127668601Y-85534769D01*
X127836502Y-85468402D01*
X128009543Y-85494245D01*
X128160202Y-85613108D01*
X128188095Y-85651536D01*
X128230395Y-85737662D01*
X128255393Y-85853730D01*
X128267302Y-86025150D01*
X128270335Y-86277334D01*
X128270335Y-86801548D01*
X127632678Y-86801548D01*
X127632678Y-87040670D01*
G37*
G36*
X127366988Y-76997573D02*
G01*
X127368814Y-77150562D01*
X127379973Y-77299790D01*
X127404652Y-77375232D01*
X127446695Y-77396109D01*
X127469610Y-77392251D01*
X127513240Y-77331351D01*
X127526402Y-77183557D01*
X127532419Y-77060872D01*
X127563148Y-76988829D01*
X127632678Y-76971004D01*
X127694021Y-76983038D01*
X127730042Y-77044497D01*
X127738954Y-77183557D01*
X127740401Y-77244664D01*
X127763239Y-77361011D01*
X127818661Y-77396109D01*
X127836751Y-77393580D01*
X127874033Y-77352131D01*
X127893047Y-77244450D01*
X127898369Y-77050711D01*
X127898369Y-76705314D01*
X128323473Y-76705314D01*
X128323473Y-77874352D01*
X126941883Y-77874352D01*
X126941883Y-76599038D01*
X127366988Y-76599038D01*
X127366988Y-76997573D01*
G37*
G36*
X130292638Y-92754488D02*
G01*
X130364980Y-92775633D01*
X130391888Y-92845207D01*
X130395858Y-92992134D01*
X130394711Y-93098544D01*
X130378265Y-93191555D01*
X130324151Y-93226151D01*
X130209875Y-93231255D01*
X130127112Y-93229780D01*
X130054770Y-93208635D01*
X130027862Y-93139061D01*
X130023892Y-92992134D01*
X130025039Y-92885724D01*
X130041485Y-92792713D01*
X130095599Y-92758117D01*
X130209875Y-92753013D01*
X130292638Y-92754488D01*
G37*
G36*
X126941883Y-101255105D02*
G01*
X127340419Y-101250681D01*
X127141151Y-101074563D01*
X127130586Y-101065225D01*
X127738954Y-101065225D01*
X127743211Y-101159481D01*
X127773914Y-101236002D01*
X127848597Y-101255105D01*
X127900183Y-101249583D01*
X127941980Y-101202737D01*
X127941589Y-101082841D01*
X127911068Y-100959881D01*
X127831946Y-100892962D01*
X127789065Y-100891724D01*
X127749336Y-100937905D01*
X127738954Y-101065225D01*
X127130586Y-101065225D01*
X126941883Y-100898444D01*
X126941883Y-98706502D01*
X127074728Y-98673160D01*
X127148537Y-98645201D01*
X127196192Y-98576649D01*
X127206651Y-98449966D01*
X127473248Y-98449966D01*
X127475553Y-98548834D01*
X127500244Y-98586957D01*
X127572920Y-98571857D01*
X127719180Y-98511060D01*
X127924938Y-98423918D01*
X127738954Y-98355688D01*
X127711875Y-98345863D01*
X127585275Y-98302942D01*
X127513118Y-98283415D01*
X127512478Y-98283371D01*
X127484761Y-98328214D01*
X127473264Y-98438787D01*
X127473248Y-98449966D01*
X127206651Y-98449966D01*
X127207574Y-98438787D01*
X127201339Y-98325530D01*
X127163943Y-98244029D01*
X127074728Y-98204414D01*
X127030733Y-98191341D01*
X126972468Y-98149657D01*
X126947303Y-98062957D01*
X126941883Y-97900708D01*
X126945546Y-97778245D01*
X126966331Y-97673815D01*
X127008306Y-97654790D01*
X127076943Y-97678453D01*
X127226250Y-97728739D01*
X127432325Y-97797591D01*
X127672532Y-97877421D01*
X128270335Y-98075607D01*
X128270335Y-98788848D01*
X127818661Y-98935942D01*
X127500244Y-99039639D01*
X127366988Y-99083035D01*
X127366988Y-99478275D01*
X127368729Y-99626803D01*
X127379808Y-99776706D01*
X127404502Y-99852523D01*
X127446695Y-99873515D01*
X127469610Y-99869657D01*
X127513240Y-99808757D01*
X127526402Y-99660962D01*
X127532419Y-99538278D01*
X127563148Y-99466235D01*
X127632678Y-99448410D01*
X127694021Y-99460444D01*
X127730042Y-99521903D01*
X127738954Y-99660962D01*
X127740401Y-99722070D01*
X127763239Y-99838417D01*
X127818661Y-99873515D01*
X127836751Y-99870986D01*
X127874033Y-99829537D01*
X127893047Y-99721856D01*
X127898369Y-99528117D01*
X127898369Y-99182720D01*
X128323473Y-99182720D01*
X128323473Y-100351757D01*
X127366988Y-100351757D01*
X127366988Y-100534605D01*
X127372398Y-100638280D01*
X127406399Y-100731540D01*
X127472735Y-100723734D01*
X127572681Y-100615361D01*
X127668601Y-100519706D01*
X127836502Y-100453339D01*
X128009543Y-100479182D01*
X128160202Y-100598045D01*
X128188095Y-100636473D01*
X128230395Y-100722599D01*
X128255393Y-100838667D01*
X128267302Y-101010087D01*
X128270335Y-101262271D01*
X128270335Y-101786485D01*
X126941883Y-101786485D01*
X126941883Y-101255105D01*
G37*
G36*
X130023892Y-87057922D02*
G01*
X130023892Y-86797902D01*
X130024564Y-86725818D01*
X130037094Y-86599718D01*
X130076438Y-86536368D01*
X130156737Y-86504541D01*
X130230545Y-86476582D01*
X130278200Y-86408030D01*
X130288659Y-86281347D01*
X130555256Y-86281347D01*
X130557561Y-86380215D01*
X130582252Y-86418337D01*
X130654929Y-86403238D01*
X130801189Y-86342440D01*
X131006946Y-86255299D01*
X130820963Y-86187069D01*
X130793883Y-86177244D01*
X130667283Y-86134323D01*
X130595126Y-86114796D01*
X130594487Y-86114751D01*
X130566769Y-86159594D01*
X130555272Y-86270167D01*
X130555256Y-86281347D01*
X130288659Y-86281347D01*
X130289582Y-86270167D01*
X130283348Y-86156910D01*
X130245951Y-86075409D01*
X130156737Y-86035794D01*
X130112742Y-86022722D01*
X130054476Y-85981037D01*
X130029312Y-85894338D01*
X130023892Y-85732089D01*
X130027554Y-85609626D01*
X130048340Y-85505195D01*
X130090314Y-85486171D01*
X130158951Y-85509834D01*
X130308258Y-85560120D01*
X130514333Y-85628972D01*
X130754540Y-85708802D01*
X131352343Y-85906988D01*
X131352343Y-86618167D01*
X130688118Y-86838044D01*
X130582252Y-86873089D01*
X130023892Y-87057922D01*
G37*
G36*
X130930295Y-82392563D02*
G01*
X131002637Y-82413708D01*
X131029545Y-82483283D01*
X131033515Y-82630209D01*
X131032368Y-82736619D01*
X131015921Y-82829630D01*
X130961808Y-82864226D01*
X130847532Y-82869331D01*
X130764768Y-82867856D01*
X130692427Y-82846710D01*
X130665519Y-82777136D01*
X130661548Y-82630209D01*
X130662696Y-82523799D01*
X130679142Y-82430789D01*
X130733256Y-82396193D01*
X130847532Y-82391088D01*
X130930295Y-82392563D01*
G37*
G36*
X130536511Y-81353996D02*
G01*
X130435712Y-81379776D01*
X130387846Y-81379566D01*
X130331190Y-81365665D01*
X130302001Y-81314743D01*
X130291168Y-81203716D01*
X130289582Y-81009498D01*
X130289501Y-80976243D01*
X130555272Y-80976243D01*
X130727706Y-80820172D01*
X130774304Y-80778247D01*
X130872859Y-80691521D01*
X130922545Y-80650816D01*
X130923379Y-80648410D01*
X130870043Y-80640657D01*
X130750112Y-80637531D01*
X130729364Y-80637585D01*
X130611465Y-80647817D01*
X130564025Y-80695046D01*
X130555272Y-80806887D01*
X130555272Y-80976243D01*
X130289501Y-80976243D01*
X130289340Y-80910313D01*
X130284172Y-80756234D01*
X130265863Y-80674849D01*
X130226141Y-80643001D01*
X130156737Y-80637531D01*
X130078481Y-80628810D01*
X130033817Y-80577321D01*
X130023892Y-80451548D01*
X130030121Y-80341991D01*
X130066899Y-80279460D01*
X130156737Y-80265565D01*
X130258447Y-80242627D01*
X130289582Y-80159289D01*
X130318255Y-80077921D01*
X130422427Y-80053013D01*
X130524137Y-80075951D01*
X130555272Y-80159289D01*
X130555897Y-80178419D01*
X130573110Y-80225355D01*
X130630484Y-80251609D01*
X130750042Y-80263055D01*
X130953808Y-80265565D01*
X131352343Y-80265565D01*
X131352343Y-80451230D01*
X131349160Y-80510978D01*
X131323855Y-80602031D01*
X131261224Y-80701443D01*
X131147044Y-80829752D01*
X130967092Y-81007492D01*
X130843424Y-81123603D01*
X130667589Y-81271986D01*
X130555272Y-81342258D01*
X130536511Y-81353996D01*
G37*
G36*
X131352343Y-93664992D02*
G01*
X131351988Y-93688100D01*
X131309956Y-93905411D01*
X131189155Y-94140485D01*
X131110310Y-94258942D01*
X131037183Y-94342391D01*
X130972008Y-94364602D01*
X130889239Y-94342809D01*
X130803571Y-94308851D01*
X130711908Y-94256184D01*
X130698406Y-94196788D01*
X130747958Y-94105263D01*
X130833186Y-93975188D01*
X130023892Y-93975188D01*
X130023892Y-93443808D01*
X131352343Y-93443808D01*
X131352343Y-93664992D01*
G37*
G36*
X128323473Y-76652176D02*
G01*
X127898369Y-76652176D01*
X127898369Y-76227071D01*
X126941883Y-76227071D01*
X126941883Y-75801967D01*
X127898369Y-75801967D01*
X127898369Y-74951757D01*
X126941883Y-74951757D01*
X126941883Y-74526653D01*
X127898369Y-74526653D01*
X127898369Y-74101548D01*
X128323473Y-74101548D01*
X128323473Y-76652176D01*
G37*
G36*
X133584143Y-105229924D02*
G01*
X133584143Y-104353935D01*
X134009247Y-104226571D01*
X134009247Y-103879679D01*
X134487490Y-103879679D01*
X134488737Y-104005236D01*
X134493561Y-104128963D01*
X134500774Y-104176264D01*
X134509492Y-104173727D01*
X134592298Y-104145578D01*
X134742403Y-104092992D01*
X134935765Y-104024366D01*
X135357471Y-103873904D01*
X135057490Y-103761667D01*
X134923892Y-103713124D01*
X134746543Y-103652809D01*
X134622500Y-103615544D01*
X134619433Y-103614775D01*
X134544168Y-103601662D01*
X134504885Y-103626190D01*
X134489890Y-103711237D01*
X134487490Y-103879679D01*
X134009247Y-103879679D01*
X134009247Y-103544308D01*
X133584143Y-103416944D01*
X133584143Y-102973681D01*
X133584731Y-102897756D01*
X133592002Y-102710096D01*
X133605818Y-102579442D01*
X133623969Y-102530419D01*
X133641035Y-102534223D01*
X133743940Y-102564874D01*
X133925510Y-102622262D01*
X134170824Y-102701581D01*
X134464964Y-102798030D01*
X134793006Y-102906804D01*
X135922218Y-103283189D01*
X135920423Y-103876574D01*
X135918628Y-104469958D01*
X134751385Y-104849941D01*
X134500774Y-104931525D01*
X133584143Y-105229924D01*
G37*
G36*
X130322237Y-92517628D02*
G01*
X130137577Y-92408862D01*
X130025423Y-92261150D01*
X130022270Y-92253095D01*
X129978554Y-92032286D01*
X129981655Y-91965613D01*
X130286093Y-91965613D01*
X130326730Y-92021523D01*
X130460756Y-92052604D01*
X130693838Y-92062218D01*
X130875997Y-92054985D01*
X131023177Y-92022957D01*
X131073729Y-91963329D01*
X131031583Y-91873907D01*
X130943376Y-91828113D01*
X130789033Y-91801710D01*
X130611662Y-91797719D01*
X130452641Y-91816970D01*
X130353348Y-91860293D01*
X130333179Y-91881515D01*
X130286093Y-91965613D01*
X129981655Y-91965613D01*
X129989948Y-91787334D01*
X130053990Y-91577150D01*
X130119376Y-91483016D01*
X130293795Y-91354567D01*
X130514979Y-91284850D01*
X130755965Y-91273626D01*
X130989792Y-91320653D01*
X131189496Y-91425691D01*
X131328115Y-91588502D01*
X131368418Y-91684258D01*
X131405434Y-91926083D01*
X131366011Y-92164447D01*
X131257785Y-92369900D01*
X131088392Y-92512992D01*
X131023264Y-92542010D01*
X130793879Y-92591025D01*
X130693838Y-92586747D01*
X130550604Y-92580623D01*
X130322237Y-92517628D01*
G37*
G36*
X127366988Y-95489624D02*
G01*
X127368814Y-95642612D01*
X127379973Y-95791840D01*
X127404652Y-95867282D01*
X127446695Y-95888159D01*
X127469610Y-95884301D01*
X127513240Y-95823401D01*
X127526402Y-95675607D01*
X127532419Y-95552922D01*
X127563148Y-95480879D01*
X127632678Y-95463054D01*
X127694021Y-95475088D01*
X127730042Y-95536547D01*
X127738954Y-95675607D01*
X127740401Y-95736714D01*
X127763239Y-95853061D01*
X127818661Y-95888159D01*
X127836751Y-95885630D01*
X127874033Y-95844181D01*
X127893047Y-95736500D01*
X127898369Y-95542762D01*
X127898369Y-95197364D01*
X128323473Y-95197364D01*
X128323473Y-96366402D01*
X126941883Y-96366402D01*
X126941883Y-94470900D01*
X127260712Y-94470900D01*
X127260973Y-94500585D01*
X127272030Y-94564526D01*
X127317204Y-94597960D01*
X127420546Y-94610771D01*
X127606109Y-94612845D01*
X127951507Y-94612845D01*
X127951507Y-94457227D01*
X127929938Y-94331558D01*
X127868004Y-94218105D01*
X127806813Y-94175521D01*
X127648033Y-94137611D01*
X127478329Y-94156811D01*
X127348655Y-94231778D01*
X127293393Y-94324574D01*
X127260712Y-94470900D01*
X126941883Y-94470900D01*
X126941883Y-93976865D01*
X127093398Y-93807290D01*
X127145767Y-93751861D01*
X127246175Y-93676118D01*
X127372239Y-93635866D01*
X127564253Y-93614616D01*
X127725367Y-93606214D01*
X127853921Y-93617364D01*
X127952935Y-93662271D01*
X128063679Y-93752313D01*
X128243766Y-93913108D01*
X128279738Y-95091088D01*
X127366988Y-95091088D01*
X127366988Y-95489624D01*
G37*
G36*
X135922218Y-102689833D02*
G01*
X135231423Y-102689833D01*
X135231423Y-101945900D01*
X133584143Y-101945900D01*
X133584143Y-101148829D01*
X135231423Y-101148829D01*
X135231423Y-100404896D01*
X135922218Y-100404896D01*
X135922218Y-102689833D01*
G37*
G36*
X127848287Y-89194237D02*
G01*
X127920628Y-89215382D01*
X127947536Y-89284956D01*
X127951507Y-89431883D01*
X127950359Y-89538293D01*
X127933913Y-89631304D01*
X127879800Y-89665900D01*
X127765523Y-89671004D01*
X127682760Y-89669529D01*
X127610418Y-89648384D01*
X127583510Y-89578810D01*
X127579540Y-89431883D01*
X127580687Y-89325473D01*
X127597134Y-89232462D01*
X127651247Y-89197866D01*
X127765523Y-89192762D01*
X127848287Y-89194237D01*
G37*
G36*
X133584143Y-100606912D02*
G01*
X133584143Y-99730923D01*
X133796695Y-99667241D01*
X134009247Y-99603558D01*
X134009247Y-99256666D01*
X134487490Y-99256666D01*
X134488737Y-99382224D01*
X134493561Y-99505950D01*
X134500774Y-99553251D01*
X134509492Y-99550715D01*
X134592298Y-99522565D01*
X134742403Y-99469980D01*
X134935765Y-99401354D01*
X135357471Y-99250891D01*
X135057490Y-99138654D01*
X134923892Y-99090111D01*
X134746543Y-99029796D01*
X134622500Y-98992532D01*
X134619433Y-98991763D01*
X134544168Y-98978649D01*
X134504885Y-99003177D01*
X134489890Y-99088224D01*
X134487490Y-99256666D01*
X134009247Y-99256666D01*
X134009247Y-98921295D01*
X133584143Y-98793931D01*
X133584143Y-98350669D01*
X133584731Y-98274743D01*
X133592002Y-98087083D01*
X133605818Y-97956429D01*
X133623969Y-97907406D01*
X133641035Y-97911211D01*
X133743940Y-97941862D01*
X133925510Y-97999249D01*
X134170824Y-98078569D01*
X134464964Y-98175018D01*
X134793006Y-98283791D01*
X135922218Y-98660177D01*
X135920423Y-99253561D01*
X135918628Y-99846946D01*
X134751385Y-100226929D01*
X134500774Y-100308513D01*
X133584143Y-100606912D01*
G37*
G36*
X130023892Y-87891717D02*
G01*
X130023966Y-87828640D01*
X130342720Y-87828640D01*
X130342981Y-87858326D01*
X130354039Y-87922266D01*
X130399212Y-87955700D01*
X130502555Y-87968512D01*
X130688118Y-87970586D01*
X131033515Y-87970586D01*
X131033515Y-87814967D01*
X131011947Y-87689298D01*
X130950012Y-87575846D01*
X130888822Y-87533262D01*
X130730041Y-87495351D01*
X130560337Y-87514551D01*
X130430663Y-87589519D01*
X130375401Y-87682314D01*
X130342720Y-87828640D01*
X130023966Y-87828640D01*
X130024016Y-87786241D01*
X130027212Y-87568717D01*
X130038717Y-87422931D01*
X130063762Y-87323786D01*
X130107581Y-87246185D01*
X130175407Y-87165031D01*
X130227776Y-87109601D01*
X130328184Y-87033859D01*
X130454247Y-86993607D01*
X130646261Y-86972357D01*
X130807376Y-86963954D01*
X130935930Y-86975105D01*
X131034943Y-87020012D01*
X131145687Y-87110053D01*
X131325774Y-87270849D01*
X131361746Y-88448829D01*
X130023892Y-88448829D01*
X130023892Y-87891717D01*
G37*
G36*
X133585310Y-106768180D02*
G01*
X133586937Y-106532702D01*
X133597804Y-106193651D01*
X133622660Y-105933392D01*
X133665915Y-105734575D01*
X133731982Y-105579853D01*
X133825273Y-105451876D01*
X133950198Y-105333296D01*
X134098623Y-105232317D01*
X134390546Y-105120927D01*
X134715003Y-105078767D01*
X135043276Y-105105325D01*
X135346645Y-105200092D01*
X135596390Y-105362557D01*
X135667141Y-105431741D01*
X135751496Y-105536199D01*
X135814986Y-105657227D01*
X135860514Y-105809766D01*
X135890982Y-106008758D01*
X135909292Y-106269145D01*
X135918348Y-106605869D01*
X135921051Y-107033870D01*
X135922218Y-108163054D01*
X135231423Y-108163054D01*
X135231423Y-107631674D01*
X133584143Y-107631674D01*
X133585220Y-106834603D01*
X134168661Y-106834603D01*
X135337699Y-106834603D01*
X135337699Y-106564825D01*
X135337693Y-106558813D01*
X135326058Y-106380096D01*
X135280199Y-106256583D01*
X135182372Y-106139720D01*
X135172636Y-106130065D01*
X135058499Y-106037626D01*
X134934584Y-105994824D01*
X134753180Y-105984393D01*
X134736111Y-105984439D01*
X134560819Y-105996745D01*
X134439348Y-106042750D01*
X134323988Y-106139720D01*
X134320530Y-106143188D01*
X134224331Y-106259595D01*
X134179622Y-106383956D01*
X134168661Y-106564825D01*
X134168661Y-106834603D01*
X133585220Y-106834603D01*
X133585310Y-106768180D01*
G37*
G36*
X128323473Y-81062636D02*
G01*
X128057783Y-81062636D01*
X127926578Y-81064426D01*
X127833588Y-81080622D01*
X127797897Y-81127681D01*
X127792092Y-81222050D01*
X127795076Y-81300773D01*
X127822070Y-81356567D01*
X127900501Y-81377982D01*
X128057783Y-81381465D01*
X128323473Y-81381465D01*
X128323473Y-82125398D01*
X128110921Y-82125398D01*
X128092410Y-82125350D01*
X127964692Y-82116184D01*
X127909970Y-82078142D01*
X127898369Y-81992552D01*
X127898345Y-81980833D01*
X127892547Y-81922079D01*
X127862277Y-81886270D01*
X127787084Y-81867726D01*
X127646517Y-81860765D01*
X127420126Y-81859707D01*
X126941883Y-81859707D01*
X126941883Y-81381465D01*
X127181005Y-81381465D01*
X127271215Y-81380563D01*
X127373171Y-81366505D01*
X127413194Y-81320077D01*
X127420126Y-81222050D01*
X127418774Y-81161910D01*
X127397687Y-81093939D01*
X127328044Y-81067257D01*
X127181005Y-81062636D01*
X126941883Y-81062636D01*
X126941883Y-80584393D01*
X128323473Y-80584393D01*
X128323473Y-81062636D01*
G37*
G36*
X130023892Y-75372031D02*
G01*
X130154321Y-75241601D01*
X130164106Y-75231998D01*
X130322906Y-75129097D01*
X130476841Y-75132240D01*
X130627925Y-75241427D01*
X130641565Y-75256120D01*
X130720665Y-75331511D01*
X130772782Y-75333800D01*
X130837420Y-75267996D01*
X130953365Y-75178976D01*
X131077810Y-75186784D01*
X131221914Y-75294740D01*
X131245468Y-75318932D01*
X131295059Y-75382589D01*
X131326373Y-75460809D01*
X131343580Y-75576518D01*
X131350847Y-75752642D01*
X131352343Y-76012104D01*
X131352343Y-76599038D01*
X130448996Y-76599038D01*
X130448996Y-76997573D01*
X130450822Y-77150562D01*
X130461981Y-77299790D01*
X130486660Y-77375232D01*
X130528703Y-77396109D01*
X130551618Y-77392251D01*
X130595249Y-77331351D01*
X130608410Y-77183557D01*
X130614427Y-77060872D01*
X130645157Y-76988829D01*
X130714687Y-76971004D01*
X130776029Y-76983038D01*
X130812050Y-77044497D01*
X130820963Y-77183557D01*
X130822409Y-77244664D01*
X130845247Y-77361011D01*
X130900670Y-77396109D01*
X130918759Y-77393580D01*
X130956042Y-77352131D01*
X130975056Y-77244450D01*
X130980377Y-77050711D01*
X130980377Y-76705314D01*
X131405482Y-76705314D01*
X131405482Y-77874352D01*
X130023892Y-77874352D01*
X130023892Y-75941318D01*
X130289582Y-75941318D01*
X130295062Y-76041405D01*
X130331429Y-76106209D01*
X130422427Y-76120795D01*
X130491988Y-76114641D01*
X130543295Y-76067986D01*
X130554459Y-75948096D01*
X130554017Y-75934812D01*
X130874101Y-75934812D01*
X130874245Y-75951750D01*
X130894855Y-76080465D01*
X130953808Y-76120795D01*
X130961067Y-76120459D01*
X131016231Y-76072368D01*
X131033515Y-75934812D01*
X131033371Y-75917873D01*
X131012761Y-75789159D01*
X130953808Y-75748829D01*
X130946549Y-75749165D01*
X130891385Y-75797255D01*
X130874101Y-75934812D01*
X130554017Y-75934812D01*
X130552274Y-75882366D01*
X130522065Y-75727416D01*
X130460623Y-75661534D01*
X130373339Y-75692329D01*
X130370119Y-75695134D01*
X130313129Y-75797324D01*
X130289582Y-75941318D01*
X130023892Y-75941318D01*
X130023892Y-75372031D01*
G37*
G36*
X134274938Y-86323306D02*
G01*
X135922218Y-86323306D01*
X135922218Y-87067239D01*
X134274938Y-87067239D01*
X134274938Y-88501967D01*
X134407783Y-88501967D01*
X134454442Y-88500502D01*
X134503342Y-88482292D01*
X134529031Y-88424968D01*
X134538972Y-88306143D01*
X134540628Y-88103431D01*
X134540628Y-87704896D01*
X134965733Y-87704896D01*
X134965733Y-88103431D01*
X134966221Y-88243410D01*
X134972291Y-88390108D01*
X134991399Y-88467176D01*
X135031007Y-88497000D01*
X135098578Y-88501967D01*
X135231423Y-88501967D01*
X135231423Y-87226653D01*
X135922218Y-87226653D01*
X135922218Y-89245900D01*
X133584143Y-89245900D01*
X133584143Y-85047992D01*
X134274938Y-85047992D01*
X134274938Y-86323306D01*
G37*
G36*
X135922218Y-68864485D02*
G01*
X135922209Y-68905143D01*
X135920877Y-69196886D01*
X135915498Y-69403927D01*
X135903526Y-69545568D01*
X135882412Y-69641111D01*
X135849611Y-69709860D01*
X135802574Y-69771118D01*
X135724740Y-69841704D01*
X135524424Y-69929637D01*
X135291162Y-69943880D01*
X135058241Y-69879584D01*
X134952650Y-69818439D01*
X134782550Y-69696591D01*
X134614873Y-69555910D01*
X134473449Y-69434620D01*
X134371008Y-69379475D01*
X134311244Y-69410550D01*
X134283157Y-69534382D01*
X134275751Y-69757511D01*
X134274938Y-70063054D01*
X133584143Y-70063054D01*
X133584143Y-69396190D01*
X133584361Y-69328305D01*
X133596603Y-68968527D01*
X133631680Y-68700252D01*
X133695262Y-68511846D01*
X133793018Y-68391674D01*
X133930620Y-68328103D01*
X134113737Y-68309498D01*
X134344003Y-68345386D01*
X134615922Y-68476132D01*
X134905233Y-68706290D01*
X134966257Y-68762572D01*
X135087971Y-68861406D01*
X135165499Y-68886463D01*
X135208687Y-68829646D01*
X135227380Y-68682856D01*
X135231423Y-68437997D01*
X135231423Y-68096946D01*
X135922218Y-68096946D01*
X135922218Y-68864485D01*
G37*
G36*
X130448996Y-83321004D02*
G01*
X130450822Y-83473993D01*
X130461981Y-83623221D01*
X130486660Y-83698663D01*
X130528703Y-83719540D01*
X130551618Y-83715682D01*
X130595249Y-83654782D01*
X130608410Y-83506988D01*
X130614427Y-83384303D01*
X130645157Y-83312260D01*
X130714687Y-83294435D01*
X130776029Y-83306469D01*
X130812050Y-83367928D01*
X130820963Y-83506988D01*
X130822409Y-83568095D01*
X130845247Y-83684442D01*
X130900670Y-83719540D01*
X130918759Y-83717011D01*
X130956042Y-83675562D01*
X130975056Y-83567881D01*
X130980377Y-83374142D01*
X130980377Y-83028745D01*
X131405482Y-83028745D01*
X131405482Y-84197783D01*
X130023892Y-84197783D01*
X130023892Y-82922469D01*
X130448996Y-82922469D01*
X130448996Y-83321004D01*
G37*
G36*
X128258182Y-89738299D02*
G01*
X128269406Y-89817881D01*
X128269677Y-89948110D01*
X128267237Y-90071468D01*
X128247063Y-90191130D01*
X128190226Y-90271614D01*
X128077781Y-90352879D01*
X127886543Y-90476804D01*
X128078439Y-90607201D01*
X128142225Y-90652189D01*
X128227489Y-90734924D01*
X128263146Y-90836845D01*
X128270335Y-91001372D01*
X128268601Y-91095205D01*
X128259056Y-91217341D01*
X128243958Y-91265147D01*
X128232568Y-91260516D01*
X128152473Y-91211203D01*
X128016204Y-91119414D01*
X127845230Y-90999456D01*
X127787553Y-90958588D01*
X127609649Y-90840502D01*
X127474701Y-90772436D01*
X127351136Y-90741242D01*
X127207381Y-90733766D01*
X126941883Y-90733766D01*
X126941883Y-90255523D01*
X127170628Y-90255523D01*
X127259124Y-90251170D01*
X127394257Y-90219129D01*
X127544397Y-90144199D01*
X127741862Y-90012638D01*
X127813257Y-89961952D01*
X128013543Y-89821190D01*
X128144776Y-89738178D01*
X128221481Y-89711140D01*
X128258182Y-89738299D01*
G37*
G36*
X127366988Y-78618285D02*
G01*
X128270335Y-78618285D01*
X128270335Y-79096527D01*
X126941883Y-79096527D01*
X126941883Y-77927490D01*
X127366988Y-77927490D01*
X127366988Y-78618285D01*
G37*
G36*
X130448996Y-101494226D02*
G01*
X130450822Y-101647214D01*
X130461981Y-101796442D01*
X130486660Y-101871885D01*
X130528703Y-101892762D01*
X130551618Y-101888904D01*
X130595249Y-101828003D01*
X130608410Y-101680209D01*
X130614427Y-101557525D01*
X130645157Y-101485481D01*
X130714687Y-101467657D01*
X130776029Y-101479691D01*
X130812050Y-101541150D01*
X130820963Y-101680209D01*
X130822409Y-101741316D01*
X130845247Y-101857663D01*
X130900670Y-101892762D01*
X130918759Y-101890232D01*
X130956042Y-101848783D01*
X130975056Y-101741103D01*
X130980377Y-101547364D01*
X130980377Y-101201967D01*
X131405482Y-101201967D01*
X131405163Y-101640356D01*
X131400713Y-101910216D01*
X131388598Y-102226099D01*
X131371555Y-102506279D01*
X131338266Y-102933814D01*
X130897734Y-103062658D01*
X130810505Y-103088963D01*
X130633728Y-103148124D01*
X130515549Y-103196318D01*
X130477936Y-103225050D01*
X130486904Y-103232073D01*
X130572802Y-103268362D01*
X130727462Y-103320646D01*
X130925507Y-103380135D01*
X131352343Y-103501671D01*
X131352343Y-103788416D01*
X131351216Y-103897340D01*
X131340853Y-104007198D01*
X131312914Y-104044106D01*
X131259352Y-104028868D01*
X131191197Y-104000205D01*
X131038760Y-103942085D01*
X130831192Y-103866095D01*
X130592930Y-103781314D01*
X130019501Y-103580054D01*
X130050461Y-102823496D01*
X130661548Y-102600028D01*
X131272636Y-102376560D01*
X130023892Y-102371004D01*
X130023892Y-100564310D01*
X130223159Y-100562098D01*
X130422427Y-100559886D01*
X130223159Y-100383768D01*
X130212594Y-100374430D01*
X130820963Y-100374430D01*
X130825219Y-100468686D01*
X130855922Y-100545207D01*
X130930606Y-100564310D01*
X130982192Y-100558788D01*
X131023988Y-100511942D01*
X131023597Y-100392046D01*
X130993076Y-100269086D01*
X130913954Y-100202167D01*
X130871073Y-100200929D01*
X130831344Y-100247110D01*
X130820963Y-100374430D01*
X130212594Y-100374430D01*
X130023892Y-100207649D01*
X130023892Y-99539566D01*
X130023927Y-99499737D01*
X130028784Y-99193947D01*
X130046092Y-98977550D01*
X130081951Y-98835475D01*
X130142457Y-98752651D01*
X130233710Y-98714009D01*
X130361807Y-98704477D01*
X130510959Y-98733918D01*
X130716694Y-98861732D01*
X130771290Y-98907046D01*
X130879391Y-98988068D01*
X130940523Y-99021146D01*
X130945803Y-99019795D01*
X130970383Y-98959627D01*
X130980377Y-98837322D01*
X130980377Y-98651339D01*
X130023892Y-98651339D01*
X130023892Y-98173096D01*
X131337204Y-98173096D01*
X131371343Y-98499720D01*
X131401818Y-98890295D01*
X131403404Y-99207317D01*
X131375214Y-99433747D01*
X131317539Y-99563787D01*
X131264269Y-99610905D01*
X131107092Y-99659849D01*
X130922698Y-99614285D01*
X130722741Y-99475934D01*
X130642308Y-99408218D01*
X130538441Y-99338184D01*
X130483467Y-99325376D01*
X130464382Y-99385271D01*
X130452376Y-99518504D01*
X130449800Y-99687453D01*
X130456157Y-99856687D01*
X130470951Y-99990772D01*
X130493684Y-100054275D01*
X130502591Y-100056675D01*
X130568445Y-100020019D01*
X130654689Y-99924566D01*
X130750609Y-99828911D01*
X130918510Y-99762544D01*
X131091551Y-99788387D01*
X131242211Y-99907250D01*
X131270103Y-99945678D01*
X131312403Y-100031804D01*
X131337401Y-100147872D01*
X131349310Y-100319292D01*
X131352343Y-100571476D01*
X131352343Y-101095690D01*
X130448996Y-101095690D01*
X130448996Y-101494226D01*
G37*
G36*
X128270335Y-79627908D02*
G01*
X127820531Y-79627908D01*
X127723848Y-79628239D01*
X127534735Y-79633845D01*
X127419011Y-79650331D01*
X127352938Y-79682759D01*
X127312776Y-79736191D01*
X127285256Y-79818907D01*
X127287918Y-79948744D01*
X127301069Y-79980485D01*
X127341373Y-80018905D01*
X127422766Y-80040826D01*
X127566961Y-80050709D01*
X127795673Y-80053013D01*
X128270335Y-80053013D01*
X128270335Y-80531255D01*
X127778808Y-80530074D01*
X127557482Y-80524899D01*
X127333120Y-80499000D01*
X127178643Y-80443812D01*
X127073684Y-80351049D01*
X126997875Y-80212427D01*
X126977817Y-80136584D01*
X126959530Y-79966314D01*
X126959227Y-79771684D01*
X126960412Y-79750535D01*
X126982467Y-79559850D01*
X127030548Y-79430085D01*
X127119266Y-79320011D01*
X127183196Y-79261351D01*
X127261828Y-79214061D01*
X127367724Y-79185441D01*
X127527218Y-79168893D01*
X127766646Y-79157820D01*
X128270335Y-79139407D01*
X128270335Y-79627908D01*
G37*
G36*
X130243145Y-71977967D02*
G01*
X130308418Y-72001928D01*
X130338677Y-72076076D01*
X130353093Y-72228431D01*
X130369289Y-72480837D01*
X130469483Y-72315341D01*
X130470959Y-72312916D01*
X130616295Y-72142149D01*
X130798087Y-72021655D01*
X130979379Y-71976025D01*
X131004112Y-71978850D01*
X131123993Y-72032043D01*
X131250155Y-72131352D01*
X131262417Y-72143703D01*
X131339995Y-72233824D01*
X131383037Y-72327583D01*
X131401536Y-72459159D01*
X131405482Y-72662733D01*
X131405482Y-73038787D01*
X131215276Y-73038787D01*
X131188768Y-73038722D01*
X131078553Y-73029502D01*
X131044160Y-72986178D01*
X131059400Y-72882489D01*
X131067164Y-72748619D01*
X131035183Y-72616799D01*
X131028764Y-72605219D01*
X130942414Y-72516379D01*
X130837270Y-72523673D01*
X130709260Y-72628940D01*
X130554313Y-72834019D01*
X130475001Y-72957519D01*
X130391675Y-73113933D01*
X130355313Y-73242953D01*
X130353330Y-73378684D01*
X130369289Y-73596737D01*
X130469483Y-73431240D01*
X130470959Y-73428815D01*
X130616295Y-73258049D01*
X130798087Y-73137555D01*
X130979379Y-73091925D01*
X131004112Y-73094750D01*
X131123993Y-73147942D01*
X131250155Y-73247251D01*
X131262417Y-73259603D01*
X131339995Y-73349724D01*
X131383037Y-73443482D01*
X131401536Y-73575058D01*
X131405482Y-73778632D01*
X131405482Y-74154686D01*
X131215276Y-74154686D01*
X131188768Y-74154621D01*
X131078553Y-74145402D01*
X131044160Y-74102077D01*
X131059400Y-73998389D01*
X131067164Y-73864518D01*
X131035183Y-73732698D01*
X130961688Y-73643346D01*
X130854529Y-73630013D01*
X130727237Y-73720718D01*
X130579548Y-73915565D01*
X130482910Y-74059826D01*
X130398041Y-74155950D01*
X130315316Y-74198331D01*
X130208242Y-74207824D01*
X130023892Y-74207824D01*
X130023892Y-71976025D01*
X130180394Y-71976025D01*
X130243145Y-71977967D01*
G37*
G36*
X128145810Y-101845492D02*
G01*
X128206828Y-101921658D01*
X128264204Y-102060965D01*
X128306799Y-102231649D01*
X128323473Y-102401947D01*
X128305853Y-102581205D01*
X128216052Y-102819108D01*
X128066322Y-103000362D01*
X127874859Y-103118711D01*
X127659854Y-103167901D01*
X127439502Y-103141673D01*
X127231995Y-103033774D01*
X127055528Y-102837946D01*
X127000052Y-102723804D01*
X126947891Y-102479723D01*
X126954903Y-102221179D01*
X127022955Y-101996399D01*
X127053567Y-101939113D01*
X127117562Y-101856734D01*
X127187016Y-101863203D01*
X127295115Y-101953260D01*
X127365880Y-102035283D01*
X127395667Y-102138520D01*
X127384410Y-102297916D01*
X127376975Y-102368562D01*
X127393624Y-102551413D01*
X127477476Y-102656320D01*
X127632678Y-102689833D01*
X127686713Y-102686916D01*
X127820187Y-102632782D01*
X127883548Y-102505299D01*
X127880946Y-102297916D01*
X127869137Y-102152384D01*
X127893855Y-102045250D01*
X127970241Y-101953260D01*
X127972073Y-101951542D01*
X128066746Y-101872439D01*
X128126266Y-101839624D01*
X128145810Y-101845492D01*
G37*
G36*
X127366988Y-73171632D02*
G01*
X127368814Y-73324620D01*
X127379973Y-73473848D01*
X127404652Y-73549291D01*
X127446695Y-73570167D01*
X127469610Y-73566310D01*
X127513240Y-73505409D01*
X127526402Y-73357615D01*
X127532419Y-73234931D01*
X127563148Y-73162887D01*
X127632678Y-73145063D01*
X127694021Y-73157097D01*
X127730042Y-73218556D01*
X127738954Y-73357615D01*
X127740401Y-73418722D01*
X127763239Y-73535069D01*
X127818661Y-73570167D01*
X127836751Y-73567638D01*
X127874033Y-73526189D01*
X127893047Y-73418509D01*
X127898369Y-73224770D01*
X127898369Y-72879372D01*
X128323473Y-72879372D01*
X128323473Y-74048410D01*
X126941883Y-74048410D01*
X126941883Y-72773096D01*
X127366988Y-72773096D01*
X127366988Y-73171632D01*
G37*
G36*
X128323473Y-97694854D02*
G01*
X127898369Y-97694854D01*
X127898369Y-97269749D01*
X126941883Y-97269749D01*
X126941883Y-96844644D01*
X127898369Y-96844644D01*
X127898369Y-96419540D01*
X128323473Y-96419540D01*
X128323473Y-97694854D01*
G37*
G36*
X131405482Y-85526234D02*
G01*
X130980377Y-85526234D01*
X130980377Y-85101130D01*
X130023892Y-85101130D01*
X130023892Y-84676025D01*
X130980377Y-84676025D01*
X130980377Y-84250921D01*
X131405482Y-84250921D01*
X131405482Y-85526234D01*
G37*
G36*
X130292638Y-82392563D02*
G01*
X130364980Y-82413708D01*
X130391888Y-82483283D01*
X130395858Y-82630209D01*
X130394711Y-82736619D01*
X130378265Y-82829630D01*
X130324151Y-82864226D01*
X130209875Y-82869331D01*
X130127112Y-82867856D01*
X130054770Y-82846710D01*
X130027862Y-82777136D01*
X130023892Y-82630209D01*
X130025039Y-82523799D01*
X130041485Y-82430789D01*
X130095599Y-82396193D01*
X130209875Y-82391088D01*
X130292638Y-82392563D01*
G37*
G36*
X133585310Y-72839519D02*
G01*
X133585997Y-72327602D01*
X133588495Y-71872756D01*
X133589385Y-71816611D01*
X134168661Y-71816611D01*
X135337699Y-71816611D01*
X135337699Y-71546833D01*
X135337693Y-71540821D01*
X135326058Y-71362104D01*
X135280199Y-71238591D01*
X135182372Y-71121728D01*
X135172636Y-71112073D01*
X135058499Y-71019634D01*
X134934584Y-70976832D01*
X134753180Y-70966402D01*
X134736111Y-70966448D01*
X134560819Y-70978754D01*
X134439348Y-71024759D01*
X134323988Y-71121728D01*
X134320530Y-71125196D01*
X134224331Y-71241604D01*
X134179622Y-71365964D01*
X134168661Y-71546833D01*
X134168661Y-71816611D01*
X133589385Y-71816611D01*
X133594350Y-71503197D01*
X133605129Y-71208076D01*
X133622401Y-70976547D01*
X133647734Y-70797762D01*
X133682697Y-70660871D01*
X133728856Y-70555028D01*
X133787780Y-70469385D01*
X133861038Y-70393093D01*
X133950198Y-70315304D01*
X134192373Y-70168988D01*
X134492240Y-70082904D01*
X134814203Y-70063036D01*
X135131066Y-70108198D01*
X135415632Y-70217209D01*
X135640707Y-70388883D01*
X135673735Y-70425968D01*
X135765176Y-70549861D01*
X135831642Y-70689035D01*
X135876855Y-70861651D01*
X135904539Y-71085872D01*
X135918419Y-71379856D01*
X135922218Y-71761766D01*
X135922218Y-72613682D01*
X134274938Y-72613682D01*
X134274938Y-74048410D01*
X134407783Y-74048410D01*
X134454442Y-74046945D01*
X134503342Y-74028736D01*
X134529031Y-73971411D01*
X134538972Y-73852586D01*
X134540628Y-73649875D01*
X134540628Y-73251339D01*
X134965733Y-73251339D01*
X134965733Y-73649875D01*
X134966221Y-73789854D01*
X134972291Y-73936551D01*
X134991399Y-74013619D01*
X135031007Y-74043443D01*
X135098578Y-74048410D01*
X135231423Y-74048410D01*
X135231423Y-72773096D01*
X135922218Y-72773096D01*
X135922218Y-74792343D01*
X133584143Y-74792343D01*
X133585310Y-72839519D01*
G37*
G36*
X135922218Y-79362218D02*
G01*
X135128942Y-79362218D01*
X135032982Y-79362341D01*
X134739133Y-79365376D01*
X134530603Y-79373657D01*
X134390923Y-79388750D01*
X134303626Y-79412222D01*
X134252244Y-79445641D01*
X134183801Y-79536504D01*
X134133050Y-79727739D01*
X134177820Y-79929534D01*
X134249671Y-80079582D01*
X135087321Y-80094223D01*
X135924971Y-80108863D01*
X135910310Y-80910818D01*
X135895649Y-81712772D01*
X135045440Y-81965192D01*
X134195230Y-82217611D01*
X134540628Y-82324553D01*
X134617976Y-82348284D01*
X134857418Y-82420302D01*
X135134655Y-82502248D01*
X135404122Y-82580611D01*
X135922218Y-82729728D01*
X135922218Y-83648542D01*
X134753635Y-83245652D01*
X133585051Y-82842762D01*
X133584701Y-81567448D01*
X134501053Y-81238657D01*
X135417406Y-80909866D01*
X134905952Y-80906544D01*
X134791693Y-80905008D01*
X134552575Y-80896996D01*
X134350523Y-80884134D01*
X134220139Y-80868350D01*
X134200613Y-80863823D01*
X134019660Y-80775501D01*
X133838196Y-80620527D01*
X133686268Y-80429401D01*
X133593920Y-80232625D01*
X133566506Y-80097296D01*
X133547297Y-79830460D01*
X133558248Y-79544383D01*
X133596974Y-79280063D01*
X133661089Y-79078501D01*
X133689325Y-79028233D01*
X133818413Y-78866421D01*
X133973580Y-78733103D01*
X134034829Y-78693800D01*
X134114628Y-78651833D01*
X134204965Y-78622460D01*
X134324986Y-78602878D01*
X134493835Y-78590285D01*
X134730660Y-78581878D01*
X135054606Y-78574855D01*
X135922218Y-78557994D01*
X135922218Y-79362218D01*
G37*
G36*
X131405482Y-79415356D02*
G01*
X131192929Y-79415356D01*
X131147288Y-79415104D01*
X131034255Y-79403599D01*
X130988770Y-79358159D01*
X130980377Y-79255942D01*
X130980377Y-79096527D01*
X130023892Y-79096527D01*
X130023892Y-78618285D01*
X130608410Y-78618285D01*
X130608410Y-78405732D01*
X130614427Y-78283048D01*
X130645157Y-78211004D01*
X130714687Y-78193180D01*
X130776029Y-78205214D01*
X130812050Y-78266673D01*
X130820963Y-78405732D01*
X130822409Y-78466840D01*
X130845247Y-78583186D01*
X130900670Y-78618285D01*
X130918759Y-78615756D01*
X130956042Y-78574306D01*
X130975056Y-78466626D01*
X130980377Y-78272887D01*
X130980377Y-77927490D01*
X131405482Y-77927490D01*
X131405482Y-79415356D01*
G37*
G36*
X134274938Y-76173933D02*
G01*
X135922218Y-76173933D01*
X135922218Y-76917866D01*
X133584143Y-76917866D01*
X133584143Y-74898619D01*
X134274938Y-74898619D01*
X134274938Y-76173933D01*
G37*
G36*
X130417571Y-98076567D02*
G01*
X130306467Y-98036170D01*
X130208345Y-97960544D01*
X130197966Y-97950730D01*
X130090062Y-97829808D01*
X130021449Y-97721423D01*
X130006681Y-97677145D01*
X129979357Y-97492280D01*
X129978514Y-97343272D01*
X130344551Y-97343272D01*
X130383614Y-97472117D01*
X130501996Y-97564098D01*
X130688118Y-97599205D01*
X130758694Y-97595196D01*
X130924040Y-97541232D01*
X131014066Y-97438862D01*
X131018542Y-97306729D01*
X130927239Y-97163473D01*
X130894741Y-97135165D01*
X130737101Y-97067448D01*
X130568026Y-97073587D01*
X130430663Y-97154373D01*
X130396389Y-97197570D01*
X130344551Y-97343272D01*
X129978514Y-97343272D01*
X129978101Y-97270255D01*
X130001402Y-97058147D01*
X130047745Y-96903035D01*
X130086621Y-96839124D01*
X130259854Y-96667720D01*
X130477780Y-96564577D01*
X130495306Y-96552664D01*
X130436932Y-96539523D01*
X130302866Y-96531980D01*
X130023892Y-96525816D01*
X130023892Y-96047573D01*
X130223159Y-96045361D01*
X130422427Y-96043149D01*
X130223159Y-95867031D01*
X130210598Y-95855866D01*
X130091626Y-95733566D01*
X130037014Y-95620341D01*
X130023892Y-95470708D01*
X130023892Y-95250502D01*
X131352343Y-95250502D01*
X131352343Y-95675607D01*
X131126507Y-95677872D01*
X130900670Y-95680138D01*
X131126507Y-95878589D01*
X131196554Y-95941881D01*
X131297098Y-96053585D01*
X131342031Y-96160332D01*
X131352343Y-96301428D01*
X131352343Y-96525816D01*
X131073369Y-96531980D01*
X130964045Y-96537212D01*
X130887727Y-96549412D01*
X130900670Y-96564754D01*
X130923405Y-96570845D01*
X131145122Y-96684840D01*
X131300095Y-96876855D01*
X131384274Y-97139489D01*
X131393609Y-97465340D01*
X131366566Y-97655148D01*
X131308762Y-97794998D01*
X131200517Y-97924343D01*
X131106950Y-98010282D01*
X131010227Y-98064996D01*
X130884567Y-98088427D01*
X130691377Y-98093389D01*
X130688118Y-98093347D01*
X130578690Y-98091921D01*
X130417571Y-98076567D01*
G37*
G36*
X127210630Y-89194237D02*
G01*
X127282971Y-89215382D01*
X127309879Y-89284956D01*
X127313850Y-89431883D01*
X127312703Y-89538293D01*
X127296256Y-89631304D01*
X127242143Y-89665900D01*
X127127866Y-89671004D01*
X127045103Y-89669529D01*
X126972762Y-89648384D01*
X126945854Y-89578810D01*
X126941883Y-89431883D01*
X126943030Y-89325473D01*
X126959477Y-89232462D01*
X127013590Y-89197866D01*
X127127866Y-89192762D01*
X127210630Y-89194237D01*
G37*
D11*
%TO.C,J1*%
X127000000Y-112462000D02*
X125670000Y-112462000D01*
X125670000Y-112462000D02*
X125670000Y-113792000D01*
X128270000Y-112462000D02*
X128270000Y-115122000D01*
X128270000Y-115122000D02*
X141030000Y-115122000D01*
X128270000Y-112462000D02*
X141030000Y-112462000D01*
X141030000Y-112462000D02*
X141030000Y-115122000D01*
%TD*%
M02*
