%TF.GenerationSoftware,KiCad,Pcbnew,(6.0.0-0)*%
%TF.CreationDate,2022-02-07T13:40:10-05:00*%
%TF.ProjectId,Data Panel VU,44617461-2050-4616-9e65-6c2056552e6b,rev?*%
%TF.SameCoordinates,Original*%
%TF.FileFunction,Copper,L1,Top*%
%TF.FilePolarity,Positive*%
%FSLAX46Y46*%
G04 Gerber Fmt 4.6, Leading zero omitted, Abs format (unit mm)*
G04 Created by KiCad (PCBNEW (6.0.0-0)) date 2022-02-07 13:40:10*
%MOMM*%
%LPD*%
G01*
G04 APERTURE LIST*
%TA.AperFunction,SMDPad,CuDef*%
%ADD10R,2.000000X1.100000*%
%TD*%
%TA.AperFunction,ComponentPad*%
%ADD11R,1.700000X1.700000*%
%TD*%
%TA.AperFunction,ComponentPad*%
%ADD12O,1.700000X1.700000*%
%TD*%
%TA.AperFunction,ViaPad*%
%ADD13C,0.800000*%
%TD*%
%TA.AperFunction,Conductor*%
%ADD14C,0.250000*%
%TD*%
G04 APERTURE END LIST*
D10*
%TO.P,D18,1,DI*%
%TO.N,Net-(D16-Pad6)*%
X131178000Y-65708000D03*
%TO.P,D18,2,CI*%
%TO.N,Net-(D16-Pad5)*%
X131178000Y-64008000D03*
%TO.P,D18,3,GND*%
%TO.N,GND*%
X131178000Y-62308000D03*
%TO.P,D18,4,VCC*%
%TO.N,+5V*%
X126378000Y-62308000D03*
%TO.P,D18,5,CO*%
%TO.N,unconnected-(D18-Pad5)*%
X126378000Y-64008000D03*
%TO.P,D18,6,DO*%
%TO.N,unconnected-(D18-Pad6)*%
X126378000Y-65708000D03*
%TD*%
%TO.P,D5,1,DI*%
%TO.N,Net-(D3-Pad6)*%
X134678000Y-95836000D03*
%TO.P,D5,2,CI*%
%TO.N,Net-(D3-Pad5)*%
X134678000Y-97536000D03*
%TO.P,D5,3,GND*%
%TO.N,GND*%
X134678000Y-99236000D03*
%TO.P,D5,4,VCC*%
%TO.N,+5V*%
X139478000Y-99236000D03*
%TO.P,D5,5,CO*%
%TO.N,Net-(D7-Pad2)*%
X139478000Y-97536000D03*
%TO.P,D5,6,DO*%
%TO.N,Net-(D7-Pad1)*%
X139478000Y-95836000D03*
%TD*%
%TO.P,D10,1,DI*%
%TO.N,Net-(D8-Pad6)*%
X131178000Y-88060000D03*
%TO.P,D10,2,CI*%
%TO.N,Net-(D8-Pad5)*%
X131178000Y-86360000D03*
%TO.P,D10,3,GND*%
%TO.N,GND*%
X131178000Y-84660000D03*
%TO.P,D10,4,VCC*%
%TO.N,+5V*%
X126378000Y-84660000D03*
%TO.P,D10,5,CO*%
%TO.N,Net-(D10-Pad5)*%
X126378000Y-86360000D03*
%TO.P,D10,6,DO*%
%TO.N,Net-(D10-Pad6)*%
X126378000Y-88060000D03*
%TD*%
%TO.P,D15,1,DI*%
%TO.N,Net-(D13-Pad6)*%
X134678000Y-67896000D03*
%TO.P,D15,2,CI*%
%TO.N,Net-(D13-Pad5)*%
X134678000Y-69596000D03*
%TO.P,D15,3,GND*%
%TO.N,GND*%
X134678000Y-71296000D03*
%TO.P,D15,4,VCC*%
%TO.N,+5V*%
X139478000Y-71296000D03*
%TO.P,D15,5,CO*%
%TO.N,Net-(D15-Pad5)*%
X139478000Y-69596000D03*
%TO.P,D15,6,DO*%
%TO.N,Net-(D15-Pad6)*%
X139478000Y-67896000D03*
%TD*%
%TO.P,D8,1,DI*%
%TO.N,Net-(D6-Pad6)*%
X131178000Y-93648000D03*
%TO.P,D8,2,CI*%
%TO.N,Net-(D6-Pad5)*%
X131178000Y-91948000D03*
%TO.P,D8,3,GND*%
%TO.N,GND*%
X131178000Y-90248000D03*
%TO.P,D8,4,VCC*%
%TO.N,+5V*%
X126378000Y-90248000D03*
%TO.P,D8,5,CO*%
%TO.N,Net-(D8-Pad5)*%
X126378000Y-91948000D03*
%TO.P,D8,6,DO*%
%TO.N,Net-(D8-Pad6)*%
X126378000Y-93648000D03*
%TD*%
%TO.P,D3,1,DI*%
%TO.N,Net-(D1-Pad6)*%
X134678000Y-101424000D03*
%TO.P,D3,2,CI*%
%TO.N,Net-(D1-Pad5)*%
X134678000Y-103124000D03*
%TO.P,D3,3,GND*%
%TO.N,GND*%
X134678000Y-104824000D03*
%TO.P,D3,4,VCC*%
%TO.N,+5V*%
X139478000Y-104824000D03*
%TO.P,D3,5,CO*%
%TO.N,Net-(D3-Pad5)*%
X139478000Y-103124000D03*
%TO.P,D3,6,DO*%
%TO.N,Net-(D3-Pad6)*%
X139478000Y-101424000D03*
%TD*%
%TO.P,D14,1,DI*%
%TO.N,Net-(D12-Pad6)*%
X131178000Y-76884000D03*
%TO.P,D14,2,CI*%
%TO.N,Net-(D12-Pad5)*%
X131178000Y-75184000D03*
%TO.P,D14,3,GND*%
%TO.N,GND*%
X131178000Y-73484000D03*
%TO.P,D14,4,VCC*%
%TO.N,+5V*%
X126378000Y-73484000D03*
%TO.P,D14,5,CO*%
%TO.N,Net-(D14-Pad5)*%
X126378000Y-75184000D03*
%TO.P,D14,6,DO*%
%TO.N,Net-(D14-Pad6)*%
X126378000Y-76884000D03*
%TD*%
%TO.P,D11,1,DI*%
%TO.N,Net-(D9-Pad6)*%
X134678000Y-79072000D03*
%TO.P,D11,2,CI*%
%TO.N,Net-(D9-Pad5)*%
X134678000Y-80772000D03*
%TO.P,D11,3,GND*%
%TO.N,GND*%
X134678000Y-82472000D03*
%TO.P,D11,4,VCC*%
%TO.N,+5V*%
X139478000Y-82472000D03*
%TO.P,D11,5,CO*%
%TO.N,Net-(D11-Pad5)*%
X139478000Y-80772000D03*
%TO.P,D11,6,DO*%
%TO.N,Net-(D11-Pad6)*%
X139478000Y-79072000D03*
%TD*%
%TO.P,D4,1,DI*%
%TO.N,Net-(D2-Pad6)*%
X131178000Y-104824000D03*
%TO.P,D4,2,CI*%
%TO.N,Net-(D2-Pad5)*%
X131178000Y-103124000D03*
%TO.P,D4,3,GND*%
%TO.N,GND*%
X131178000Y-101424000D03*
%TO.P,D4,4,VCC*%
%TO.N,+5V*%
X126378000Y-101424000D03*
%TO.P,D4,5,CO*%
%TO.N,Net-(D4-Pad5)*%
X126378000Y-103124000D03*
%TO.P,D4,6,DO*%
%TO.N,Net-(D4-Pad6)*%
X126378000Y-104824000D03*
%TD*%
%TO.P,D6,1,DI*%
%TO.N,Net-(D4-Pad6)*%
X131178000Y-99236000D03*
%TO.P,D6,2,CI*%
%TO.N,Net-(D4-Pad5)*%
X131178000Y-97536000D03*
%TO.P,D6,3,GND*%
%TO.N,GND*%
X131178000Y-95836000D03*
%TO.P,D6,4,VCC*%
%TO.N,+5V*%
X126378000Y-95836000D03*
%TO.P,D6,5,CO*%
%TO.N,Net-(D6-Pad5)*%
X126378000Y-97536000D03*
%TO.P,D6,6,DO*%
%TO.N,Net-(D6-Pad6)*%
X126378000Y-99236000D03*
%TD*%
%TO.P,D1,1,DI*%
%TO.N,/C2D*%
X134678000Y-107012000D03*
%TO.P,D1,2,CI*%
%TO.N,/C2C*%
X134678000Y-108712000D03*
%TO.P,D1,3,GND*%
%TO.N,GND*%
X134678000Y-110412000D03*
%TO.P,D1,4,VCC*%
%TO.N,+5V*%
X139478000Y-110412000D03*
%TO.P,D1,5,CO*%
%TO.N,Net-(D1-Pad5)*%
X139478000Y-108712000D03*
%TO.P,D1,6,DO*%
%TO.N,Net-(D1-Pad6)*%
X139478000Y-107012000D03*
%TD*%
%TO.P,D13,1,DI*%
%TO.N,Net-(D11-Pad6)*%
X134678000Y-73484000D03*
%TO.P,D13,2,CI*%
%TO.N,Net-(D11-Pad5)*%
X134678000Y-75184000D03*
%TO.P,D13,3,GND*%
%TO.N,GND*%
X134678000Y-76884000D03*
%TO.P,D13,4,VCC*%
%TO.N,+5V*%
X139478000Y-76884000D03*
%TO.P,D13,5,CO*%
%TO.N,Net-(D13-Pad5)*%
X139478000Y-75184000D03*
%TO.P,D13,6,DO*%
%TO.N,Net-(D13-Pad6)*%
X139478000Y-73484000D03*
%TD*%
%TO.P,D17,1,DI*%
%TO.N,Net-(D15-Pad6)*%
X134678000Y-62308000D03*
%TO.P,D17,2,CI*%
%TO.N,Net-(D15-Pad5)*%
X134678000Y-64008000D03*
%TO.P,D17,3,GND*%
%TO.N,GND*%
X134678000Y-65708000D03*
%TO.P,D17,4,VCC*%
%TO.N,+5V*%
X139478000Y-65708000D03*
%TO.P,D17,5,CO*%
%TO.N,unconnected-(D17-Pad5)*%
X139478000Y-64008000D03*
%TO.P,D17,6,DO*%
%TO.N,unconnected-(D17-Pad6)*%
X139478000Y-62308000D03*
%TD*%
%TO.P,D7,1,DI*%
%TO.N,Net-(D7-Pad1)*%
X134678000Y-90248000D03*
%TO.P,D7,2,CI*%
%TO.N,Net-(D7-Pad2)*%
X134678000Y-91948000D03*
%TO.P,D7,3,GND*%
%TO.N,GND*%
X134678000Y-93648000D03*
%TO.P,D7,4,VCC*%
%TO.N,+5V*%
X139478000Y-93648000D03*
%TO.P,D7,5,CO*%
%TO.N,Net-(D7-Pad5)*%
X139478000Y-91948000D03*
%TO.P,D7,6,DO*%
%TO.N,Net-(D7-Pad6)*%
X139478000Y-90248000D03*
%TD*%
%TO.P,D16,1,DI*%
%TO.N,Net-(D14-Pad6)*%
X131178000Y-71296000D03*
%TO.P,D16,2,CI*%
%TO.N,Net-(D14-Pad5)*%
X131178000Y-69596000D03*
%TO.P,D16,3,GND*%
%TO.N,GND*%
X131178000Y-67896000D03*
%TO.P,D16,4,VCC*%
%TO.N,+5V*%
X126378000Y-67896000D03*
%TO.P,D16,5,CO*%
%TO.N,Net-(D16-Pad5)*%
X126378000Y-69596000D03*
%TO.P,D16,6,DO*%
%TO.N,Net-(D16-Pad6)*%
X126378000Y-71296000D03*
%TD*%
%TO.P,D12,1,DI*%
%TO.N,Net-(D10-Pad6)*%
X131178000Y-82472000D03*
%TO.P,D12,2,CI*%
%TO.N,Net-(D10-Pad5)*%
X131178000Y-80772000D03*
%TO.P,D12,3,GND*%
%TO.N,GND*%
X131178000Y-79072000D03*
%TO.P,D12,4,VCC*%
%TO.N,+5V*%
X126378000Y-79072000D03*
%TO.P,D12,5,CO*%
%TO.N,Net-(D12-Pad5)*%
X126378000Y-80772000D03*
%TO.P,D12,6,DO*%
%TO.N,Net-(D12-Pad6)*%
X126378000Y-82472000D03*
%TD*%
%TO.P,D9,1,DI*%
%TO.N,Net-(D7-Pad6)*%
X134678000Y-84660000D03*
%TO.P,D9,2,CI*%
%TO.N,Net-(D7-Pad5)*%
X134678000Y-86360000D03*
%TO.P,D9,3,GND*%
%TO.N,GND*%
X134678000Y-88060000D03*
%TO.P,D9,4,VCC*%
%TO.N,+5V*%
X139478000Y-88060000D03*
%TO.P,D9,5,CO*%
%TO.N,Net-(D9-Pad5)*%
X139478000Y-86360000D03*
%TO.P,D9,6,DO*%
%TO.N,Net-(D9-Pad6)*%
X139478000Y-84660000D03*
%TD*%
%TO.P,D2,1,DI*%
%TO.N,/C1D*%
X131178000Y-110412000D03*
%TO.P,D2,2,CI*%
%TO.N,/C1C*%
X131178000Y-108712000D03*
%TO.P,D2,3,GND*%
%TO.N,GND*%
X131178000Y-107012000D03*
%TO.P,D2,4,VCC*%
%TO.N,+5V*%
X126378000Y-107012000D03*
%TO.P,D2,5,CO*%
%TO.N,Net-(D2-Pad5)*%
X126378000Y-108712000D03*
%TO.P,D2,6,DO*%
%TO.N,Net-(D2-Pad6)*%
X126378000Y-110412000D03*
%TD*%
D11*
%TO.P,J1,1,Pin_1*%
%TO.N,GND*%
X127000000Y-113792000D03*
D12*
%TO.P,J1,2,Pin_2*%
%TO.N,+5V*%
X129540000Y-113792000D03*
%TO.P,J1,3,Pin_3*%
%TO.N,/C1C*%
X132080000Y-113792000D03*
%TO.P,J1,4,Pin_4*%
%TO.N,/C1D*%
X134620000Y-113792000D03*
%TO.P,J1,5,Pin_5*%
%TO.N,/C2C*%
X137160000Y-113792000D03*
%TO.P,J1,6,Pin_6*%
%TO.N,/C2D*%
X139700000Y-113792000D03*
%TD*%
D13*
%TO.N,GND*%
X135831000Y-112522000D03*
%TD*%
D14*
%TO.N,GND*%
X132236000Y-73484000D02*
X134678000Y-71042000D01*
X134678000Y-76884000D02*
X133526000Y-76884000D01*
X134228000Y-104824000D02*
X132502511Y-103098511D01*
X131628000Y-73484000D02*
X131178000Y-73484000D01*
X132842000Y-62992000D02*
X132158000Y-62308000D01*
X133366000Y-88060000D02*
X131178000Y-90248000D01*
X131178000Y-67896000D02*
X133366000Y-65708000D01*
X131178000Y-95836000D02*
X132490000Y-95836000D01*
X132490000Y-101424000D02*
X134678000Y-99236000D01*
X131677022Y-90248000D02*
X131178000Y-90248000D01*
X134678000Y-88060000D02*
X133366000Y-88060000D01*
X131677022Y-79072000D02*
X131178000Y-79072000D01*
X134228000Y-110412000D02*
X132782000Y-108966000D01*
X134678000Y-93648000D02*
X134228000Y-93648000D01*
X132502511Y-69764511D02*
X132502511Y-68748511D01*
X134228000Y-93648000D02*
X132502511Y-91922511D01*
X131650000Y-67896000D02*
X131178000Y-67896000D01*
X133780000Y-71042000D02*
X132502511Y-69764511D01*
X132502511Y-102418000D02*
X131508511Y-101424000D01*
X131677022Y-95836000D02*
X131178000Y-95836000D01*
X132158000Y-62308000D02*
X131178000Y-62308000D01*
X133366000Y-65708000D02*
X134678000Y-65708000D01*
X132490000Y-107012000D02*
X134678000Y-104824000D01*
X134034000Y-82472000D02*
X132528000Y-80966000D01*
X132490000Y-95836000D02*
X134678000Y-93648000D01*
X133096000Y-77154000D02*
X133096000Y-76454000D01*
X132782000Y-108116978D02*
X131677022Y-107012000D01*
X134678000Y-71042000D02*
X133780000Y-71042000D01*
X133526000Y-76884000D02*
X133096000Y-76454000D01*
X134678000Y-76884000D02*
X133366000Y-76884000D01*
X131178000Y-107012000D02*
X132490000Y-107012000D01*
X131178000Y-101424000D02*
X132490000Y-101424000D01*
X134678000Y-65708000D02*
X134228000Y-65708000D01*
X132502511Y-96661489D02*
X131677022Y-95836000D01*
X131982000Y-84660000D02*
X134170000Y-82472000D01*
X131508511Y-101424000D02*
X131178000Y-101424000D01*
X133065000Y-77185000D02*
X133096000Y-77154000D01*
X132528000Y-80966000D02*
X132528000Y-79922978D01*
X132782000Y-108966000D02*
X132782000Y-108116978D01*
X132502511Y-91073489D02*
X131677022Y-90248000D01*
X131677022Y-107012000D02*
X131178000Y-107012000D01*
X134678000Y-99236000D02*
X133694511Y-99236000D01*
X135831000Y-111565000D02*
X135831000Y-112522000D01*
X134228000Y-65708000D02*
X132842000Y-64322000D01*
X133096000Y-76454000D02*
X133096000Y-74952000D01*
X134170000Y-82472000D02*
X134034000Y-82472000D01*
X131178000Y-73484000D02*
X132236000Y-73484000D01*
X132502511Y-91922511D02*
X132502511Y-91073489D01*
X132502511Y-68748511D02*
X131650000Y-67896000D01*
X131178000Y-79072000D02*
X133065000Y-77185000D01*
X133694511Y-99236000D02*
X132502511Y-98044000D01*
X132842000Y-64322000D02*
X132842000Y-62992000D01*
X134678000Y-110412000D02*
X135831000Y-111565000D01*
X131178000Y-84660000D02*
X131904000Y-84660000D01*
X131178000Y-84660000D02*
X131982000Y-84660000D01*
X132842000Y-87122000D02*
X133780000Y-88060000D01*
X133096000Y-74952000D02*
X131628000Y-73484000D01*
X132502511Y-103098511D02*
X132502511Y-102418000D01*
X132502511Y-98044000D02*
X132502511Y-96661489D01*
X134678000Y-104824000D02*
X134228000Y-104824000D01*
X134678000Y-110412000D02*
X134228000Y-110412000D01*
X133366000Y-76884000D02*
X133065000Y-77185000D01*
X132528000Y-79922978D02*
X131677022Y-79072000D01*
X132842000Y-85598000D02*
X132842000Y-87122000D01*
X133780000Y-88060000D02*
X134678000Y-88060000D01*
X131904000Y-84660000D02*
X132842000Y-85598000D01*
%TO.N,Net-(D1-Pad5)*%
X134678000Y-103124000D02*
X135636000Y-103124000D01*
X137160000Y-106934000D02*
X138938000Y-108712000D01*
X135636000Y-103124000D02*
X137160000Y-104648000D01*
X137160000Y-104648000D02*
X137160000Y-106934000D01*
X138938000Y-108712000D02*
X139478000Y-108712000D01*
%TO.N,Net-(D1-Pad6)*%
X136222000Y-101424000D02*
X137668000Y-102870000D01*
X137668000Y-105410000D02*
X139270000Y-107012000D01*
X134678000Y-101424000D02*
X136222000Y-101424000D01*
X139270000Y-107012000D02*
X139478000Y-107012000D01*
X137668000Y-102870000D02*
X137668000Y-105410000D01*
%TO.N,Net-(D2-Pad5)*%
X128524000Y-105156000D02*
X130556000Y-103124000D01*
X126378000Y-108712000D02*
X126828000Y-108712000D01*
X128524000Y-107016000D02*
X128524000Y-105156000D01*
X130556000Y-103124000D02*
X131178000Y-103124000D01*
X126828000Y-108712000D02*
X128524000Y-107016000D01*
%TO.N,Net-(D2-Pad6)*%
X129540000Y-107700000D02*
X126828000Y-110412000D01*
X131178000Y-104824000D02*
X130380000Y-104824000D01*
X126828000Y-110412000D02*
X126378000Y-110412000D01*
X130380000Y-104824000D02*
X129540000Y-105664000D01*
X129540000Y-105664000D02*
X129540000Y-107700000D01*
%TO.N,Net-(D3-Pad5)*%
X134678000Y-97536000D02*
X135890000Y-97536000D01*
X135890000Y-97536000D02*
X136906000Y-98552000D01*
X138938000Y-103124000D02*
X139478000Y-103124000D01*
X136906000Y-98552000D02*
X136906000Y-101092000D01*
X136906000Y-101092000D02*
X138938000Y-103124000D01*
%TO.N,Net-(D3-Pad6)*%
X134678000Y-95836000D02*
X135460000Y-95836000D01*
X137668000Y-98044000D02*
X137668000Y-99614000D01*
X137668000Y-99614000D02*
X139478000Y-101424000D01*
X135460000Y-95836000D02*
X137668000Y-98044000D01*
%TO.N,Net-(D4-Pad5)*%
X128270000Y-101682000D02*
X128270000Y-99568000D01*
X126828000Y-103124000D02*
X128270000Y-101682000D01*
X126378000Y-103124000D02*
X126828000Y-103124000D01*
X128270000Y-99568000D02*
X130302000Y-97536000D01*
X130302000Y-97536000D02*
X131178000Y-97536000D01*
%TO.N,Net-(D4-Pad6)*%
X126378000Y-104824000D02*
X126824000Y-104824000D01*
X129032000Y-102616000D02*
X129032000Y-100076000D01*
X126824000Y-104824000D02*
X129032000Y-102616000D01*
X129872000Y-99236000D02*
X131178000Y-99236000D01*
X129032000Y-100076000D02*
X129872000Y-99236000D01*
%TO.N,Net-(D7-Pad2)*%
X135382000Y-91948000D02*
X136906000Y-93472000D01*
X138978978Y-97536000D02*
X139478000Y-97536000D01*
X136906000Y-95463022D02*
X138978978Y-97536000D01*
X134678000Y-91948000D02*
X135382000Y-91948000D01*
X136906000Y-93472000D02*
X136906000Y-95463022D01*
%TO.N,Net-(D7-Pad1)*%
X134678000Y-90248000D02*
X136222000Y-90248000D01*
X137668000Y-91694000D02*
X137668000Y-94996000D01*
X138508000Y-95836000D02*
X139478000Y-95836000D01*
X137668000Y-94996000D02*
X138508000Y-95836000D01*
X136222000Y-90248000D02*
X137668000Y-91694000D01*
%TO.N,Net-(D6-Pad5)*%
X126828000Y-97536000D02*
X128270000Y-96094000D01*
X128270000Y-93726000D02*
X130048000Y-91948000D01*
X126378000Y-97536000D02*
X126828000Y-97536000D01*
X130048000Y-91948000D02*
X131178000Y-91948000D01*
X128270000Y-96094000D02*
X128270000Y-93726000D01*
%TO.N,Net-(D6-Pad6)*%
X126378000Y-99236000D02*
X126828000Y-99236000D01*
X130126000Y-93648000D02*
X131178000Y-93648000D01*
X129032000Y-94742000D02*
X130126000Y-93648000D01*
X129032000Y-97032000D02*
X129032000Y-94742000D01*
X126828000Y-99236000D02*
X129032000Y-97032000D01*
%TO.N,Net-(D7-Pad5)*%
X138938000Y-91948000D02*
X139478000Y-91948000D01*
X136652000Y-89662000D02*
X138938000Y-91948000D01*
X136652000Y-87630000D02*
X136652000Y-89662000D01*
X135128000Y-86106000D02*
X136652000Y-87630000D01*
X134678000Y-86106000D02*
X135128000Y-86106000D01*
%TO.N,Net-(D7-Pad6)*%
X137160000Y-85285520D02*
X137160000Y-88138000D01*
X136280480Y-84406000D02*
X137160000Y-85285520D01*
X134678000Y-84406000D02*
X136280480Y-84406000D01*
X137160000Y-88138000D02*
X139270000Y-90248000D01*
X139270000Y-90248000D02*
X139478000Y-90248000D01*
%TO.N,Net-(D8-Pad5)*%
X128016000Y-87630000D02*
X129286000Y-86360000D01*
X126828000Y-91948000D02*
X128016000Y-90760000D01*
X129286000Y-86360000D02*
X131178000Y-86360000D01*
X126378000Y-91948000D02*
X126828000Y-91948000D01*
X128016000Y-90760000D02*
X128016000Y-87630000D01*
%TO.N,Net-(D8-Pad6)*%
X128524000Y-92001022D02*
X128524000Y-89408000D01*
X129872000Y-88060000D02*
X131178000Y-88060000D01*
X128524000Y-89408000D02*
X129872000Y-88060000D01*
X126877022Y-93648000D02*
X128524000Y-92001022D01*
X126378000Y-93648000D02*
X126877022Y-93648000D01*
%TO.N,Net-(D9-Pad5)*%
X137414000Y-82804000D02*
X137414000Y-84795022D01*
X135890000Y-80772000D02*
X136906000Y-81788000D01*
X137414000Y-84795022D02*
X138724978Y-86106000D01*
X138724978Y-86106000D02*
X139478000Y-86106000D01*
X136906000Y-81788000D02*
X136906000Y-82296000D01*
X135186000Y-80772000D02*
X135890000Y-80772000D01*
X136906000Y-82296000D02*
X137414000Y-82804000D01*
%TO.N,Net-(D9-Pad6)*%
X137922000Y-81358000D02*
X137922000Y-83115022D01*
X135636000Y-79072000D02*
X137922000Y-81358000D01*
X134678000Y-79072000D02*
X135636000Y-79072000D01*
X139212978Y-84406000D02*
X139478000Y-84406000D01*
X137922000Y-83115022D02*
X139212978Y-84406000D01*
%TO.N,Net-(D10-Pad5)*%
X128270000Y-82804000D02*
X130302000Y-80772000D01*
X128270000Y-84918000D02*
X128270000Y-82804000D01*
X130302000Y-80772000D02*
X131178000Y-80772000D01*
X126828000Y-86360000D02*
X128270000Y-84918000D01*
X126378000Y-86360000D02*
X126828000Y-86360000D01*
%TO.N,Net-(D10-Pad6)*%
X129032000Y-85724282D02*
X129032000Y-84074000D01*
X126378000Y-88060000D02*
X126696282Y-88060000D01*
X129032000Y-84074000D02*
X130634000Y-82472000D01*
X126696282Y-88060000D02*
X129032000Y-85724282D01*
X130634000Y-82472000D02*
X131178000Y-82472000D01*
%TO.N,Net-(D11-Pad5)*%
X134678000Y-74930000D02*
X135128000Y-74930000D01*
X138176000Y-80264000D02*
X139478000Y-80264000D01*
X136398000Y-76200000D02*
X136398000Y-78486000D01*
X135128000Y-74930000D02*
X136398000Y-76200000D01*
X136398000Y-78486000D02*
X138176000Y-80264000D01*
%TO.N,Net-(D11-Pad6)*%
X137414000Y-75438000D02*
X137414000Y-77470000D01*
X138508000Y-78564000D02*
X139478000Y-78564000D01*
X134678000Y-73230000D02*
X135206000Y-73230000D01*
X135206000Y-73230000D02*
X137414000Y-75438000D01*
X137414000Y-77470000D02*
X138508000Y-78564000D01*
%TO.N,Net-(D12-Pad5)*%
X126378000Y-80772000D02*
X126828000Y-80772000D01*
X128778000Y-78822000D02*
X128778000Y-76962000D01*
X128778000Y-76962000D02*
X130556000Y-75184000D01*
X126828000Y-80772000D02*
X128778000Y-78822000D01*
X130556000Y-75184000D02*
X131178000Y-75184000D01*
%TO.N,Net-(D12-Pad6)*%
X126378000Y-82472000D02*
X127078000Y-82472000D01*
X127078000Y-82472000D02*
X129286000Y-80264000D01*
X130380000Y-76884000D02*
X131178000Y-76884000D01*
X129286000Y-77978000D02*
X130380000Y-76884000D01*
X129286000Y-80264000D02*
X129286000Y-77978000D01*
%TO.N,/C2D*%
X134678000Y-107012000D02*
X135177022Y-107012000D01*
X135177022Y-107012000D02*
X137668000Y-109502978D01*
X137668000Y-111760000D02*
X139700000Y-113792000D01*
X137668000Y-109502978D02*
X137668000Y-111760000D01*
%TO.N,/C2C*%
X134678000Y-108712000D02*
X135128000Y-108712000D01*
X137160000Y-110744000D02*
X137160000Y-113792000D01*
X135128000Y-108712000D02*
X137160000Y-110744000D01*
%TO.N,/C1C*%
X129032000Y-110744000D02*
X129032000Y-110236000D01*
X130556000Y-108712000D02*
X131178000Y-108712000D01*
X132080000Y-113792000D02*
X129032000Y-110744000D01*
X129032000Y-110236000D02*
X130556000Y-108712000D01*
%TO.N,/C1D*%
X131748000Y-110412000D02*
X134620000Y-113284000D01*
X134620000Y-113284000D02*
X134620000Y-113792000D01*
X131178000Y-110412000D02*
X131748000Y-110412000D01*
%TO.N,Net-(D13-Pad5)*%
X136906000Y-70358000D02*
X136906000Y-73660000D01*
X138176000Y-74930000D02*
X139478000Y-74930000D01*
X135890000Y-69342000D02*
X136906000Y-70358000D01*
X134678000Y-69342000D02*
X135890000Y-69342000D01*
X136906000Y-73660000D02*
X138176000Y-74930000D01*
%TO.N,Net-(D15-Pad5)*%
X136398000Y-64770000D02*
X136398000Y-67015022D01*
X138978978Y-69596000D02*
X139478000Y-69596000D01*
X134678000Y-64008000D02*
X135636000Y-64008000D01*
X136398000Y-67015022D02*
X138978978Y-69596000D01*
X135636000Y-64008000D02*
X136398000Y-64770000D01*
%TO.N,Net-(D15-Pad6)*%
X139028000Y-67642000D02*
X139478000Y-67642000D01*
X134678000Y-62308000D02*
X136222000Y-62308000D01*
X137160000Y-63246000D02*
X137160000Y-65774000D01*
X137160000Y-65774000D02*
X139028000Y-67642000D01*
X136222000Y-62308000D02*
X137160000Y-63246000D01*
%TO.N,Net-(D16-Pad5)*%
X126828000Y-69596000D02*
X128524000Y-67900000D01*
X130302000Y-64008000D02*
X131178000Y-64008000D01*
X128524000Y-67900000D02*
X128524000Y-65786000D01*
X126378000Y-69596000D02*
X126828000Y-69596000D01*
X128524000Y-65786000D02*
X130302000Y-64008000D01*
%TO.N,Net-(D16-Pad6)*%
X129032000Y-67854000D02*
X131178000Y-65708000D01*
X126378000Y-71296000D02*
X126828000Y-71296000D01*
X126828000Y-71296000D02*
X129032000Y-69092000D01*
X129032000Y-69092000D02*
X129032000Y-67854000D01*
%TO.N,Net-(D13-Pad6)*%
X134678000Y-67642000D02*
X135968000Y-67642000D01*
X135968000Y-67642000D02*
X137668000Y-69342000D01*
X137668000Y-71674000D02*
X139478000Y-73484000D01*
X137668000Y-69342000D02*
X137668000Y-71674000D01*
%TO.N,Net-(D14-Pad5)*%
X128778000Y-73660000D02*
X128778000Y-71374000D01*
X127254000Y-75184000D02*
X128778000Y-73660000D01*
X130556000Y-69596000D02*
X131178000Y-69596000D01*
X126378000Y-75184000D02*
X127254000Y-75184000D01*
X128778000Y-71374000D02*
X130556000Y-69596000D01*
%TO.N,Net-(D14-Pad6)*%
X127586000Y-76884000D02*
X129540000Y-74930000D01*
X126378000Y-76884000D02*
X127586000Y-76884000D01*
X129540000Y-74930000D02*
X129540000Y-72644000D01*
X130888000Y-71296000D02*
X131178000Y-71296000D01*
X129540000Y-72644000D02*
X130888000Y-71296000D01*
%TD*%
%TA.AperFunction,Conductor*%
%TO.N,+5V*%
G36*
X142362121Y-60528002D02*
G01*
X142408614Y-60581658D01*
X142420000Y-60634000D01*
X142420000Y-115366000D01*
X142399998Y-115434121D01*
X142346342Y-115480614D01*
X142294000Y-115492000D01*
X123562000Y-115492000D01*
X123493879Y-115471998D01*
X123447386Y-115418342D01*
X123436000Y-115366000D01*
X123436000Y-114690134D01*
X125641500Y-114690134D01*
X125648255Y-114752316D01*
X125699385Y-114888705D01*
X125786739Y-115005261D01*
X125903295Y-115092615D01*
X126039684Y-115143745D01*
X126101866Y-115150500D01*
X127898134Y-115150500D01*
X127960316Y-115143745D01*
X128096705Y-115092615D01*
X128213261Y-115005261D01*
X128300615Y-114888705D01*
X128344798Y-114770848D01*
X128387440Y-114714084D01*
X128454001Y-114689384D01*
X128523350Y-114704592D01*
X128558017Y-114732580D01*
X128583218Y-114761673D01*
X128590580Y-114768883D01*
X128754434Y-114904916D01*
X128762881Y-114910831D01*
X128946756Y-115018279D01*
X128956042Y-115022729D01*
X129155001Y-115098703D01*
X129164899Y-115101579D01*
X129268250Y-115122606D01*
X129282299Y-115121410D01*
X129286000Y-115111065D01*
X129286000Y-112475102D01*
X129282082Y-112461758D01*
X129267806Y-112459771D01*
X129229324Y-112465660D01*
X129219288Y-112468051D01*
X129016868Y-112534212D01*
X129007359Y-112538209D01*
X128818463Y-112636542D01*
X128809738Y-112642036D01*
X128639433Y-112769905D01*
X128631726Y-112776748D01*
X128554478Y-112857584D01*
X128492954Y-112893014D01*
X128422042Y-112889557D01*
X128364255Y-112848311D01*
X128345402Y-112814763D01*
X128303767Y-112703703D01*
X128300615Y-112695295D01*
X128213261Y-112578739D01*
X128096705Y-112491385D01*
X127960316Y-112440255D01*
X127898134Y-112433500D01*
X126101866Y-112433500D01*
X126039684Y-112440255D01*
X125903295Y-112491385D01*
X125786739Y-112578739D01*
X125699385Y-112695295D01*
X125648255Y-112831684D01*
X125641500Y-112893866D01*
X125641500Y-114690134D01*
X123436000Y-114690134D01*
X123436000Y-111010134D01*
X124869500Y-111010134D01*
X124876255Y-111072316D01*
X124927385Y-111208705D01*
X125014739Y-111325261D01*
X125131295Y-111412615D01*
X125267684Y-111463745D01*
X125329866Y-111470500D01*
X127426134Y-111470500D01*
X127488316Y-111463745D01*
X127624705Y-111412615D01*
X127741261Y-111325261D01*
X127828615Y-111208705D01*
X127879745Y-111072316D01*
X127886500Y-111010134D01*
X127886500Y-110301594D01*
X127906502Y-110233473D01*
X127923405Y-110212499D01*
X128212819Y-109923085D01*
X128275131Y-109889059D01*
X128345946Y-109894124D01*
X128402782Y-109936671D01*
X128427593Y-110003191D01*
X128422910Y-110047337D01*
X128421969Y-110050576D01*
X128418819Y-110057855D01*
X128417579Y-110065685D01*
X128417577Y-110065691D01*
X128411901Y-110101524D01*
X128409495Y-110113144D01*
X128398500Y-110155970D01*
X128398500Y-110176224D01*
X128396949Y-110195934D01*
X128393780Y-110215943D01*
X128394526Y-110223835D01*
X128397941Y-110259961D01*
X128398500Y-110271819D01*
X128398500Y-110665233D01*
X128397973Y-110676416D01*
X128396298Y-110683909D01*
X128396547Y-110691835D01*
X128396547Y-110691836D01*
X128398438Y-110751986D01*
X128398500Y-110755945D01*
X128398500Y-110783856D01*
X128398997Y-110787790D01*
X128398997Y-110787791D01*
X128399005Y-110787856D01*
X128399938Y-110799693D01*
X128401327Y-110843889D01*
X128406978Y-110863339D01*
X128410987Y-110882700D01*
X128413526Y-110902797D01*
X128416445Y-110910168D01*
X128416445Y-110910170D01*
X128429804Y-110943912D01*
X128433649Y-110955142D01*
X128438664Y-110972405D01*
X128445982Y-110997593D01*
X128450015Y-111004412D01*
X128450017Y-111004417D01*
X128456293Y-111015028D01*
X128464988Y-111032776D01*
X128472448Y-111051617D01*
X128477110Y-111058033D01*
X128477110Y-111058034D01*
X128498436Y-111087387D01*
X128504952Y-111097307D01*
X128523041Y-111127893D01*
X128527458Y-111135362D01*
X128541779Y-111149683D01*
X128554619Y-111164716D01*
X128566528Y-111181107D01*
X128572634Y-111186158D01*
X128600605Y-111209298D01*
X128609384Y-111217288D01*
X129757975Y-112365880D01*
X129792001Y-112428192D01*
X129790693Y-112457795D01*
X129794000Y-112457795D01*
X129794000Y-115110517D01*
X129798064Y-115124359D01*
X129811478Y-115126393D01*
X129818184Y-115125534D01*
X129828262Y-115123392D01*
X130032255Y-115062191D01*
X130041842Y-115058433D01*
X130233095Y-114964739D01*
X130241945Y-114959464D01*
X130415328Y-114835792D01*
X130423200Y-114829139D01*
X130574052Y-114678812D01*
X130580730Y-114670965D01*
X130708022Y-114493819D01*
X130709279Y-114494722D01*
X130756373Y-114451362D01*
X130826311Y-114439145D01*
X130891751Y-114466678D01*
X130919579Y-114498511D01*
X130979987Y-114597088D01*
X131126250Y-114765938D01*
X131298126Y-114908632D01*
X131491000Y-115021338D01*
X131699692Y-115101030D01*
X131704760Y-115102061D01*
X131704763Y-115102062D01*
X131799862Y-115121410D01*
X131918597Y-115145567D01*
X131923772Y-115145757D01*
X131923774Y-115145757D01*
X132136673Y-115153564D01*
X132136677Y-115153564D01*
X132141837Y-115153753D01*
X132146957Y-115153097D01*
X132146959Y-115153097D01*
X132358288Y-115126025D01*
X132358289Y-115126025D01*
X132363416Y-115125368D01*
X132368366Y-115123883D01*
X132572429Y-115062661D01*
X132572434Y-115062659D01*
X132577384Y-115061174D01*
X132777994Y-114962896D01*
X132959860Y-114833173D01*
X133118096Y-114675489D01*
X133248453Y-114494077D01*
X133249776Y-114495028D01*
X133296645Y-114451857D01*
X133366580Y-114439625D01*
X133432026Y-114467144D01*
X133459875Y-114498994D01*
X133519987Y-114597088D01*
X133666250Y-114765938D01*
X133838126Y-114908632D01*
X134031000Y-115021338D01*
X134239692Y-115101030D01*
X134244760Y-115102061D01*
X134244763Y-115102062D01*
X134339862Y-115121410D01*
X134458597Y-115145567D01*
X134463772Y-115145757D01*
X134463774Y-115145757D01*
X134676673Y-115153564D01*
X134676677Y-115153564D01*
X134681837Y-115153753D01*
X134686957Y-115153097D01*
X134686959Y-115153097D01*
X134898288Y-115126025D01*
X134898289Y-115126025D01*
X134903416Y-115125368D01*
X134908366Y-115123883D01*
X135112429Y-115062661D01*
X135112434Y-115062659D01*
X135117384Y-115061174D01*
X135317994Y-114962896D01*
X135499860Y-114833173D01*
X135658096Y-114675489D01*
X135788453Y-114494077D01*
X135789776Y-114495028D01*
X135836645Y-114451857D01*
X135906580Y-114439625D01*
X135972026Y-114467144D01*
X135999875Y-114498994D01*
X136059987Y-114597088D01*
X136206250Y-114765938D01*
X136378126Y-114908632D01*
X136571000Y-115021338D01*
X136779692Y-115101030D01*
X136784760Y-115102061D01*
X136784763Y-115102062D01*
X136879862Y-115121410D01*
X136998597Y-115145567D01*
X137003772Y-115145757D01*
X137003774Y-115145757D01*
X137216673Y-115153564D01*
X137216677Y-115153564D01*
X137221837Y-115153753D01*
X137226957Y-115153097D01*
X137226959Y-115153097D01*
X137438288Y-115126025D01*
X137438289Y-115126025D01*
X137443416Y-115125368D01*
X137448366Y-115123883D01*
X137652429Y-115062661D01*
X137652434Y-115062659D01*
X137657384Y-115061174D01*
X137857994Y-114962896D01*
X138039860Y-114833173D01*
X138198096Y-114675489D01*
X138328453Y-114494077D01*
X138329776Y-114495028D01*
X138376645Y-114451857D01*
X138446580Y-114439625D01*
X138512026Y-114467144D01*
X138539875Y-114498994D01*
X138599987Y-114597088D01*
X138746250Y-114765938D01*
X138918126Y-114908632D01*
X139111000Y-115021338D01*
X139319692Y-115101030D01*
X139324760Y-115102061D01*
X139324763Y-115102062D01*
X139419862Y-115121410D01*
X139538597Y-115145567D01*
X139543772Y-115145757D01*
X139543774Y-115145757D01*
X139756673Y-115153564D01*
X139756677Y-115153564D01*
X139761837Y-115153753D01*
X139766957Y-115153097D01*
X139766959Y-115153097D01*
X139978288Y-115126025D01*
X139978289Y-115126025D01*
X139983416Y-115125368D01*
X139988366Y-115123883D01*
X140192429Y-115062661D01*
X140192434Y-115062659D01*
X140197384Y-115061174D01*
X140397994Y-114962896D01*
X140579860Y-114833173D01*
X140738096Y-114675489D01*
X140868453Y-114494077D01*
X140881995Y-114466678D01*
X140965136Y-114298453D01*
X140965137Y-114298451D01*
X140967430Y-114293811D01*
X141032370Y-114080069D01*
X141061529Y-113858590D01*
X141063156Y-113792000D01*
X141044852Y-113569361D01*
X140990431Y-113352702D01*
X140901354Y-113147840D01*
X140780014Y-112960277D01*
X140629670Y-112795051D01*
X140625619Y-112791852D01*
X140625615Y-112791848D01*
X140458414Y-112659800D01*
X140458410Y-112659798D01*
X140454359Y-112656598D01*
X140418028Y-112636542D01*
X140402136Y-112627769D01*
X140258789Y-112548638D01*
X140253920Y-112546914D01*
X140253916Y-112546912D01*
X140053087Y-112475795D01*
X140053083Y-112475794D01*
X140048212Y-112474069D01*
X140043119Y-112473162D01*
X140043116Y-112473161D01*
X139833373Y-112435800D01*
X139833367Y-112435799D01*
X139828284Y-112434894D01*
X139745778Y-112433886D01*
X139610081Y-112432228D01*
X139610079Y-112432228D01*
X139604911Y-112432165D01*
X139384091Y-112465955D01*
X139371532Y-112470060D01*
X139300568Y-112472210D01*
X139243294Y-112439389D01*
X138489000Y-111685095D01*
X138454974Y-111622783D01*
X138460039Y-111551968D01*
X138502586Y-111495132D01*
X138569106Y-111470321D01*
X138578095Y-111470000D01*
X139205885Y-111470000D01*
X139221124Y-111465525D01*
X139222329Y-111464135D01*
X139224000Y-111456452D01*
X139224000Y-111451884D01*
X139732000Y-111451884D01*
X139736475Y-111467123D01*
X139737865Y-111468328D01*
X139745548Y-111469999D01*
X140522669Y-111469999D01*
X140529490Y-111469629D01*
X140580352Y-111464105D01*
X140595604Y-111460479D01*
X140716054Y-111415324D01*
X140731649Y-111406786D01*
X140833724Y-111330285D01*
X140846285Y-111317724D01*
X140922786Y-111215649D01*
X140931324Y-111200054D01*
X140976478Y-111079606D01*
X140980105Y-111064351D01*
X140985631Y-111013486D01*
X140986000Y-111006672D01*
X140986000Y-110684115D01*
X140981525Y-110668876D01*
X140980135Y-110667671D01*
X140972452Y-110666000D01*
X139750115Y-110666000D01*
X139734876Y-110670475D01*
X139733671Y-110671865D01*
X139732000Y-110679548D01*
X139732000Y-111451884D01*
X139224000Y-111451884D01*
X139224000Y-110284000D01*
X139244002Y-110215879D01*
X139297658Y-110169386D01*
X139350000Y-110158000D01*
X140967884Y-110158000D01*
X140983123Y-110153525D01*
X140984328Y-110152135D01*
X140985999Y-110144452D01*
X140985999Y-109817331D01*
X140985629Y-109810510D01*
X140980105Y-109759648D01*
X140976479Y-109744396D01*
X140931321Y-109623939D01*
X140930826Y-109623034D01*
X140930607Y-109622034D01*
X140928172Y-109615538D01*
X140929110Y-109615186D01*
X140915657Y-109553677D01*
X140928838Y-109508788D01*
X140928615Y-109508705D01*
X140929756Y-109505663D01*
X140929758Y-109505656D01*
X140979745Y-109372316D01*
X140986500Y-109310134D01*
X140986500Y-108113866D01*
X140979745Y-108051684D01*
X140928615Y-107915295D01*
X140929466Y-107914976D01*
X140915945Y-107853151D01*
X140928958Y-107808834D01*
X140928615Y-107808705D01*
X140930372Y-107804019D01*
X140930373Y-107804015D01*
X140931856Y-107800061D01*
X140976971Y-107679715D01*
X140979745Y-107672316D01*
X140986500Y-107610134D01*
X140986500Y-106413866D01*
X140979745Y-106351684D01*
X140928615Y-106215295D01*
X140841261Y-106098739D01*
X140821881Y-106084214D01*
X140734216Y-106018513D01*
X140691701Y-105961654D01*
X140686675Y-105890835D01*
X140720735Y-105828542D01*
X140734217Y-105816860D01*
X140833725Y-105742284D01*
X140846285Y-105729724D01*
X140922786Y-105627649D01*
X140931324Y-105612054D01*
X140976478Y-105491606D01*
X140980105Y-105476351D01*
X140985631Y-105425486D01*
X140986000Y-105418672D01*
X140986000Y-105096115D01*
X140981525Y-105080876D01*
X140980135Y-105079671D01*
X140972452Y-105078000D01*
X139350000Y-105078000D01*
X139281879Y-105057998D01*
X139235386Y-105004342D01*
X139224000Y-104952000D01*
X139224000Y-104696000D01*
X139244002Y-104627879D01*
X139297658Y-104581386D01*
X139350000Y-104570000D01*
X140967884Y-104570000D01*
X140983123Y-104565525D01*
X140984328Y-104564135D01*
X140985999Y-104556452D01*
X140985999Y-104229331D01*
X140985629Y-104222510D01*
X140980105Y-104171648D01*
X140976479Y-104156396D01*
X140931321Y-104035939D01*
X140930826Y-104035034D01*
X140930607Y-104034034D01*
X140928172Y-104027538D01*
X140929110Y-104027186D01*
X140915657Y-103965677D01*
X140928838Y-103920788D01*
X140928615Y-103920705D01*
X140929756Y-103917663D01*
X140929758Y-103917656D01*
X140979745Y-103784316D01*
X140986500Y-103722134D01*
X140986500Y-102525866D01*
X140979745Y-102463684D01*
X140958886Y-102408042D01*
X140931766Y-102335699D01*
X140931764Y-102335696D01*
X140928615Y-102327295D01*
X140929466Y-102326976D01*
X140915945Y-102265151D01*
X140928958Y-102220834D01*
X140928615Y-102220705D01*
X140930372Y-102216019D01*
X140930373Y-102216015D01*
X140931856Y-102212061D01*
X140976971Y-102091715D01*
X140979745Y-102084316D01*
X140986500Y-102022134D01*
X140986500Y-100825866D01*
X140979745Y-100763684D01*
X140928615Y-100627295D01*
X140841261Y-100510739D01*
X140821881Y-100496214D01*
X140734216Y-100430513D01*
X140691701Y-100373654D01*
X140686675Y-100302835D01*
X140720735Y-100240542D01*
X140734217Y-100228860D01*
X140833725Y-100154284D01*
X140846285Y-100141724D01*
X140922786Y-100039649D01*
X140931324Y-100024054D01*
X140976478Y-99903606D01*
X140980105Y-99888351D01*
X140985631Y-99837486D01*
X140986000Y-99830672D01*
X140986000Y-99508115D01*
X140981525Y-99492876D01*
X140980135Y-99491671D01*
X140972452Y-99490000D01*
X139350000Y-99490000D01*
X139281879Y-99469998D01*
X139235386Y-99416342D01*
X139224000Y-99364000D01*
X139224000Y-99108000D01*
X139244002Y-99039879D01*
X139297658Y-98993386D01*
X139350000Y-98982000D01*
X140967884Y-98982000D01*
X140983123Y-98977525D01*
X140984328Y-98976135D01*
X140985999Y-98968452D01*
X140985999Y-98641331D01*
X140985629Y-98634510D01*
X140980105Y-98583648D01*
X140976479Y-98568396D01*
X140931321Y-98447939D01*
X140930826Y-98447034D01*
X140930607Y-98446034D01*
X140928172Y-98439538D01*
X140929110Y-98439186D01*
X140915657Y-98377677D01*
X140928838Y-98332788D01*
X140928615Y-98332705D01*
X140929756Y-98329663D01*
X140929758Y-98329656D01*
X140979745Y-98196316D01*
X140986500Y-98134134D01*
X140986500Y-96937866D01*
X140979745Y-96875684D01*
X140928615Y-96739295D01*
X140929466Y-96738976D01*
X140915945Y-96677151D01*
X140928958Y-96632834D01*
X140928615Y-96632705D01*
X140930372Y-96628019D01*
X140930373Y-96628015D01*
X140931856Y-96624061D01*
X140976971Y-96503715D01*
X140979745Y-96496316D01*
X140986500Y-96434134D01*
X140986500Y-95237866D01*
X140979745Y-95175684D01*
X140928615Y-95039295D01*
X140841261Y-94922739D01*
X140821881Y-94908214D01*
X140734216Y-94842513D01*
X140691701Y-94785654D01*
X140686675Y-94714835D01*
X140720735Y-94652542D01*
X140734217Y-94640860D01*
X140833725Y-94566284D01*
X140846285Y-94553724D01*
X140922786Y-94451649D01*
X140931324Y-94436054D01*
X140976478Y-94315606D01*
X140980105Y-94300351D01*
X140985631Y-94249486D01*
X140986000Y-94242672D01*
X140986000Y-93920115D01*
X140981525Y-93904876D01*
X140980135Y-93903671D01*
X140972452Y-93902000D01*
X139350000Y-93902000D01*
X139281879Y-93881998D01*
X139235386Y-93828342D01*
X139224000Y-93776000D01*
X139224000Y-93520000D01*
X139244002Y-93451879D01*
X139297658Y-93405386D01*
X139350000Y-93394000D01*
X140967884Y-93394000D01*
X140983123Y-93389525D01*
X140984328Y-93388135D01*
X140985999Y-93380452D01*
X140985999Y-93053331D01*
X140985629Y-93046510D01*
X140980105Y-92995648D01*
X140976479Y-92980396D01*
X140931321Y-92859939D01*
X140930826Y-92859034D01*
X140930607Y-92858034D01*
X140928172Y-92851538D01*
X140929110Y-92851186D01*
X140915657Y-92789677D01*
X140928838Y-92744788D01*
X140928615Y-92744705D01*
X140929756Y-92741663D01*
X140929758Y-92741656D01*
X140979745Y-92608316D01*
X140986500Y-92546134D01*
X140986500Y-91349866D01*
X140979745Y-91287684D01*
X140928615Y-91151295D01*
X140929466Y-91150976D01*
X140915945Y-91089151D01*
X140928958Y-91044834D01*
X140928615Y-91044705D01*
X140930372Y-91040019D01*
X140930373Y-91040015D01*
X140931856Y-91036061D01*
X140976971Y-90915715D01*
X140979745Y-90908316D01*
X140986500Y-90846134D01*
X140986500Y-89649866D01*
X140979745Y-89587684D01*
X140928615Y-89451295D01*
X140841261Y-89334739D01*
X140742900Y-89261021D01*
X140734216Y-89254513D01*
X140691701Y-89197654D01*
X140686675Y-89126835D01*
X140720735Y-89064542D01*
X140734217Y-89052860D01*
X140833725Y-88978284D01*
X140846285Y-88965724D01*
X140922786Y-88863649D01*
X140931324Y-88848054D01*
X140976478Y-88727606D01*
X140980105Y-88712351D01*
X140985631Y-88661486D01*
X140986000Y-88654672D01*
X140986000Y-88332115D01*
X140981525Y-88316876D01*
X140980135Y-88315671D01*
X140972452Y-88314000D01*
X139350000Y-88314000D01*
X139281879Y-88293998D01*
X139235386Y-88240342D01*
X139224000Y-88188000D01*
X139224000Y-87932000D01*
X139244002Y-87863879D01*
X139297658Y-87817386D01*
X139350000Y-87806000D01*
X140967884Y-87806000D01*
X140983123Y-87801525D01*
X140984328Y-87800135D01*
X140985999Y-87792452D01*
X140985999Y-87465331D01*
X140985629Y-87458510D01*
X140980105Y-87407648D01*
X140976479Y-87392396D01*
X140931321Y-87271939D01*
X140930826Y-87271034D01*
X140930607Y-87270034D01*
X140928172Y-87263538D01*
X140929110Y-87263186D01*
X140915657Y-87201677D01*
X140928838Y-87156788D01*
X140928615Y-87156705D01*
X140929756Y-87153663D01*
X140929758Y-87153656D01*
X140931767Y-87148299D01*
X140976971Y-87027715D01*
X140979745Y-87020316D01*
X140986500Y-86958134D01*
X140986500Y-85761866D01*
X140979745Y-85699684D01*
X140942419Y-85600116D01*
X140931766Y-85571699D01*
X140931764Y-85571696D01*
X140928615Y-85563295D01*
X140929466Y-85562976D01*
X140915945Y-85501151D01*
X140928958Y-85456834D01*
X140928615Y-85456705D01*
X140930372Y-85452019D01*
X140930373Y-85452015D01*
X140931767Y-85448299D01*
X140968375Y-85350646D01*
X140979745Y-85320316D01*
X140986500Y-85258134D01*
X140986500Y-84061866D01*
X140979745Y-83999684D01*
X140928615Y-83863295D01*
X140841261Y-83746739D01*
X140735053Y-83667140D01*
X140734216Y-83666513D01*
X140691701Y-83609654D01*
X140686675Y-83538835D01*
X140720735Y-83476542D01*
X140734217Y-83464860D01*
X140833725Y-83390284D01*
X140846285Y-83377724D01*
X140922786Y-83275649D01*
X140931324Y-83260054D01*
X140976478Y-83139606D01*
X140980105Y-83124351D01*
X140985631Y-83073486D01*
X140986000Y-83066672D01*
X140986000Y-82744115D01*
X140981525Y-82728876D01*
X140980135Y-82727671D01*
X140972452Y-82726000D01*
X139350000Y-82726000D01*
X139281879Y-82705998D01*
X139235386Y-82652342D01*
X139224000Y-82600000D01*
X139224000Y-82344000D01*
X139244002Y-82275879D01*
X139297658Y-82229386D01*
X139350000Y-82218000D01*
X140967884Y-82218000D01*
X140983123Y-82213525D01*
X140984328Y-82212135D01*
X140985999Y-82204452D01*
X140985999Y-81877331D01*
X140985629Y-81870510D01*
X140980105Y-81819648D01*
X140976479Y-81804396D01*
X140931321Y-81683939D01*
X140930826Y-81683034D01*
X140930607Y-81682034D01*
X140928172Y-81675538D01*
X140929110Y-81675186D01*
X140915657Y-81613677D01*
X140928838Y-81568788D01*
X140928615Y-81568705D01*
X140929756Y-81565663D01*
X140929758Y-81565656D01*
X140979745Y-81432316D01*
X140986500Y-81370134D01*
X140986500Y-80173866D01*
X140979745Y-80111684D01*
X140928615Y-79975295D01*
X140929466Y-79974976D01*
X140915945Y-79913151D01*
X140928958Y-79868834D01*
X140928615Y-79868705D01*
X140930372Y-79864019D01*
X140930373Y-79864015D01*
X140931856Y-79860061D01*
X140976971Y-79739715D01*
X140979745Y-79732316D01*
X140986500Y-79670134D01*
X140986500Y-78473866D01*
X140979745Y-78411684D01*
X140928615Y-78275295D01*
X140841261Y-78158739D01*
X140783520Y-78115464D01*
X140734216Y-78078513D01*
X140691701Y-78021654D01*
X140686675Y-77950835D01*
X140720735Y-77888542D01*
X140734217Y-77876860D01*
X140833725Y-77802284D01*
X140846285Y-77789724D01*
X140922786Y-77687649D01*
X140931324Y-77672054D01*
X140976478Y-77551606D01*
X140980105Y-77536351D01*
X140985631Y-77485486D01*
X140986000Y-77478672D01*
X140986000Y-77156115D01*
X140981525Y-77140876D01*
X140980135Y-77139671D01*
X140972452Y-77138000D01*
X139350000Y-77138000D01*
X139281879Y-77117998D01*
X139235386Y-77064342D01*
X139224000Y-77012000D01*
X139224000Y-76756000D01*
X139244002Y-76687879D01*
X139297658Y-76641386D01*
X139350000Y-76630000D01*
X140967884Y-76630000D01*
X140983123Y-76625525D01*
X140984328Y-76624135D01*
X140985999Y-76616452D01*
X140985999Y-76289331D01*
X140985629Y-76282510D01*
X140980105Y-76231648D01*
X140976479Y-76216396D01*
X140931321Y-76095939D01*
X140930826Y-76095034D01*
X140930607Y-76094034D01*
X140928172Y-76087538D01*
X140929110Y-76087186D01*
X140915657Y-76025677D01*
X140928838Y-75980788D01*
X140928615Y-75980705D01*
X140929756Y-75977663D01*
X140929758Y-75977656D01*
X140979745Y-75844316D01*
X140986500Y-75782134D01*
X140986500Y-74585866D01*
X140979745Y-74523684D01*
X140928615Y-74387295D01*
X140929466Y-74386976D01*
X140915945Y-74325151D01*
X140928958Y-74280834D01*
X140928615Y-74280705D01*
X140930372Y-74276019D01*
X140930373Y-74276015D01*
X140931856Y-74272061D01*
X140976971Y-74151715D01*
X140979745Y-74144316D01*
X140986500Y-74082134D01*
X140986500Y-72885866D01*
X140979745Y-72823684D01*
X140928615Y-72687295D01*
X140841261Y-72570739D01*
X140735053Y-72491140D01*
X140734216Y-72490513D01*
X140691701Y-72433654D01*
X140686675Y-72362835D01*
X140720735Y-72300542D01*
X140734217Y-72288860D01*
X140833725Y-72214284D01*
X140846285Y-72201724D01*
X140922786Y-72099649D01*
X140931324Y-72084054D01*
X140976478Y-71963606D01*
X140980105Y-71948351D01*
X140985631Y-71897486D01*
X140986000Y-71890672D01*
X140986000Y-71568115D01*
X140981525Y-71552876D01*
X140980135Y-71551671D01*
X140972452Y-71550000D01*
X139350000Y-71550000D01*
X139281879Y-71529998D01*
X139235386Y-71476342D01*
X139224000Y-71424000D01*
X139224000Y-71168000D01*
X139244002Y-71099879D01*
X139297658Y-71053386D01*
X139350000Y-71042000D01*
X140967884Y-71042000D01*
X140983123Y-71037525D01*
X140984328Y-71036135D01*
X140985999Y-71028452D01*
X140985999Y-70701331D01*
X140985629Y-70694510D01*
X140980105Y-70643648D01*
X140976479Y-70628396D01*
X140931321Y-70507939D01*
X140930826Y-70507034D01*
X140930607Y-70506034D01*
X140928172Y-70499538D01*
X140929110Y-70499186D01*
X140915657Y-70437677D01*
X140928838Y-70392788D01*
X140928615Y-70392705D01*
X140929756Y-70389663D01*
X140929758Y-70389656D01*
X140979745Y-70256316D01*
X140986500Y-70194134D01*
X140986500Y-68997866D01*
X140979745Y-68935684D01*
X140962024Y-68888414D01*
X140931766Y-68807699D01*
X140931764Y-68807696D01*
X140928615Y-68799295D01*
X140929466Y-68798976D01*
X140915945Y-68737151D01*
X140928958Y-68692834D01*
X140928615Y-68692705D01*
X140930372Y-68688019D01*
X140930373Y-68688015D01*
X140931856Y-68684061D01*
X140976971Y-68563715D01*
X140979745Y-68556316D01*
X140986500Y-68494134D01*
X140986500Y-67297866D01*
X140979745Y-67235684D01*
X140928615Y-67099295D01*
X140841261Y-66982739D01*
X140808167Y-66957936D01*
X140734216Y-66902513D01*
X140691701Y-66845654D01*
X140686675Y-66774835D01*
X140720735Y-66712542D01*
X140734217Y-66700860D01*
X140833725Y-66626284D01*
X140846285Y-66613724D01*
X140922786Y-66511649D01*
X140931324Y-66496054D01*
X140976478Y-66375606D01*
X140980105Y-66360351D01*
X140985631Y-66309486D01*
X140986000Y-66302672D01*
X140986000Y-65980115D01*
X140981525Y-65964876D01*
X140980135Y-65963671D01*
X140972452Y-65962000D01*
X139350000Y-65962000D01*
X139281879Y-65941998D01*
X139235386Y-65888342D01*
X139224000Y-65836000D01*
X139224000Y-65580000D01*
X139244002Y-65511879D01*
X139297658Y-65465386D01*
X139350000Y-65454000D01*
X140967884Y-65454000D01*
X140983123Y-65449525D01*
X140984328Y-65448135D01*
X140985999Y-65440452D01*
X140985999Y-65113331D01*
X140985629Y-65106510D01*
X140980105Y-65055648D01*
X140976479Y-65040396D01*
X140931321Y-64919939D01*
X140930826Y-64919034D01*
X140930607Y-64918034D01*
X140928172Y-64911538D01*
X140929110Y-64911186D01*
X140915657Y-64849677D01*
X140928838Y-64804788D01*
X140928615Y-64804705D01*
X140929756Y-64801663D01*
X140929758Y-64801656D01*
X140979745Y-64668316D01*
X140986500Y-64606134D01*
X140986500Y-63409866D01*
X140979745Y-63347684D01*
X140928615Y-63211295D01*
X140929466Y-63210976D01*
X140915945Y-63149151D01*
X140928958Y-63104834D01*
X140928615Y-63104705D01*
X140930372Y-63100019D01*
X140930373Y-63100015D01*
X140931856Y-63096061D01*
X140976971Y-62975715D01*
X140979745Y-62968316D01*
X140986500Y-62906134D01*
X140986500Y-61709866D01*
X140979745Y-61647684D01*
X140928615Y-61511295D01*
X140841261Y-61394739D01*
X140724705Y-61307385D01*
X140588316Y-61256255D01*
X140526134Y-61249500D01*
X138429866Y-61249500D01*
X138367684Y-61256255D01*
X138231295Y-61307385D01*
X138114739Y-61394739D01*
X138027385Y-61511295D01*
X137976255Y-61647684D01*
X137969500Y-61709866D01*
X137969500Y-62906134D01*
X137968728Y-62906134D01*
X137953215Y-62971936D01*
X137902151Y-63021261D01*
X137832526Y-63035148D01*
X137766445Y-63009189D01*
X137726538Y-62956027D01*
X137722471Y-62945755D01*
X137722470Y-62945754D01*
X137719552Y-62938383D01*
X137698560Y-62909490D01*
X137693573Y-62902625D01*
X137687057Y-62892707D01*
X137668575Y-62861457D01*
X137664542Y-62854637D01*
X137650218Y-62840313D01*
X137637376Y-62825278D01*
X137625472Y-62808893D01*
X137591406Y-62780711D01*
X137582627Y-62772722D01*
X136725652Y-61915747D01*
X136718112Y-61907461D01*
X136714000Y-61900982D01*
X136664348Y-61854356D01*
X136661507Y-61851602D01*
X136641770Y-61831865D01*
X136638573Y-61829385D01*
X136629551Y-61821680D01*
X136603100Y-61796841D01*
X136597321Y-61791414D01*
X136590375Y-61787595D01*
X136590372Y-61787593D01*
X136579566Y-61781652D01*
X136563047Y-61770801D01*
X136562583Y-61770441D01*
X136547041Y-61758386D01*
X136539772Y-61755241D01*
X136539768Y-61755238D01*
X136506463Y-61740826D01*
X136495813Y-61735609D01*
X136457060Y-61714305D01*
X136437437Y-61709267D01*
X136418734Y-61702863D01*
X136407420Y-61697967D01*
X136407419Y-61697967D01*
X136400145Y-61694819D01*
X136392322Y-61693580D01*
X136392312Y-61693577D01*
X136356476Y-61687901D01*
X136344856Y-61685495D01*
X136309711Y-61676472D01*
X136309710Y-61676472D01*
X136302030Y-61674500D01*
X136281776Y-61674500D01*
X136262067Y-61672949D01*
X136257123Y-61672166D01*
X136192969Y-61641754D01*
X136158850Y-61591946D01*
X136131768Y-61519705D01*
X136131767Y-61519703D01*
X136128615Y-61511295D01*
X136041261Y-61394739D01*
X135924705Y-61307385D01*
X135788316Y-61256255D01*
X135726134Y-61249500D01*
X133629866Y-61249500D01*
X133567684Y-61256255D01*
X133431295Y-61307385D01*
X133314739Y-61394739D01*
X133227385Y-61511295D01*
X133176255Y-61647684D01*
X133169500Y-61709866D01*
X133169500Y-62119405D01*
X133149498Y-62187526D01*
X133095842Y-62234019D01*
X133025568Y-62244123D01*
X132960988Y-62214629D01*
X132954404Y-62208500D01*
X132865310Y-62119405D01*
X132723404Y-61977499D01*
X132689379Y-61915187D01*
X132686500Y-61888404D01*
X132686500Y-61709866D01*
X132679745Y-61647684D01*
X132628615Y-61511295D01*
X132541261Y-61394739D01*
X132424705Y-61307385D01*
X132288316Y-61256255D01*
X132226134Y-61249500D01*
X130129866Y-61249500D01*
X130067684Y-61256255D01*
X129931295Y-61307385D01*
X129814739Y-61394739D01*
X129727385Y-61511295D01*
X129676255Y-61647684D01*
X129669500Y-61709866D01*
X129669500Y-62906134D01*
X129676255Y-62968316D01*
X129679029Y-62975715D01*
X129724145Y-63096061D01*
X129727294Y-63104462D01*
X129727385Y-63104705D01*
X129726534Y-63105024D01*
X129740055Y-63166849D01*
X129727042Y-63211166D01*
X129727385Y-63211295D01*
X129726245Y-63214337D01*
X129676255Y-63347684D01*
X129669500Y-63409866D01*
X129669500Y-63692406D01*
X129649498Y-63760527D01*
X129632595Y-63781501D01*
X128131747Y-65282348D01*
X128123461Y-65289888D01*
X128116982Y-65294000D01*
X128111557Y-65299777D01*
X128104351Y-65307451D01*
X128043139Y-65343417D01*
X127972199Y-65340580D01*
X127914054Y-65299840D01*
X127887166Y-65234132D01*
X127886500Y-65221199D01*
X127886500Y-65109866D01*
X127879745Y-65047684D01*
X127862024Y-65000414D01*
X127831766Y-64919699D01*
X127831764Y-64919696D01*
X127828615Y-64911295D01*
X127829466Y-64910976D01*
X127815945Y-64849151D01*
X127828958Y-64804834D01*
X127828615Y-64804705D01*
X127830372Y-64800019D01*
X127830373Y-64800015D01*
X127879745Y-64668316D01*
X127886500Y-64606134D01*
X127886500Y-63409866D01*
X127879745Y-63347684D01*
X127828615Y-63211295D01*
X127829307Y-63211036D01*
X127815657Y-63148626D01*
X127828580Y-63104615D01*
X127828172Y-63104462D01*
X127830262Y-63098888D01*
X127830826Y-63096966D01*
X127831321Y-63096061D01*
X127876478Y-62975606D01*
X127880105Y-62960351D01*
X127885631Y-62909486D01*
X127886000Y-62902672D01*
X127886000Y-62580115D01*
X127881525Y-62564876D01*
X127880135Y-62563671D01*
X127872452Y-62562000D01*
X124888116Y-62562000D01*
X124872877Y-62566475D01*
X124871672Y-62567865D01*
X124870001Y-62575548D01*
X124870001Y-62902669D01*
X124870371Y-62909490D01*
X124875895Y-62960352D01*
X124879521Y-62975604D01*
X124924679Y-63096061D01*
X124925174Y-63096966D01*
X124925393Y-63097966D01*
X124927828Y-63104462D01*
X124926890Y-63104814D01*
X124940343Y-63166323D01*
X124927162Y-63211212D01*
X124927385Y-63211295D01*
X124926244Y-63214337D01*
X124926242Y-63214344D01*
X124876255Y-63347684D01*
X124869500Y-63409866D01*
X124869500Y-64606134D01*
X124876255Y-64668316D01*
X124926245Y-64801663D01*
X124927385Y-64804705D01*
X124926534Y-64805024D01*
X124940055Y-64866849D01*
X124927042Y-64911166D01*
X124927385Y-64911295D01*
X124924236Y-64919696D01*
X124924234Y-64919699D01*
X124893976Y-65000414D01*
X124876255Y-65047684D01*
X124869500Y-65109866D01*
X124869500Y-66306134D01*
X124876255Y-66368316D01*
X124927385Y-66504705D01*
X125014739Y-66621261D01*
X125021919Y-66626642D01*
X125021920Y-66626643D01*
X125121784Y-66701487D01*
X125164299Y-66758346D01*
X125169325Y-66829165D01*
X125135265Y-66891458D01*
X125121783Y-66903140D01*
X125022275Y-66977716D01*
X125009715Y-66990276D01*
X124933214Y-67092351D01*
X124924676Y-67107946D01*
X124879522Y-67228394D01*
X124875895Y-67243649D01*
X124870369Y-67294514D01*
X124870000Y-67301328D01*
X124870000Y-67623885D01*
X124874475Y-67639124D01*
X124875865Y-67640329D01*
X124883548Y-67642000D01*
X126506000Y-67642000D01*
X126574121Y-67662002D01*
X126620614Y-67715658D01*
X126632000Y-67768000D01*
X126632000Y-68024000D01*
X126611998Y-68092121D01*
X126558342Y-68138614D01*
X126506000Y-68150000D01*
X124888116Y-68150000D01*
X124872877Y-68154475D01*
X124871672Y-68155865D01*
X124870001Y-68163548D01*
X124870001Y-68490669D01*
X124870371Y-68497490D01*
X124875895Y-68548352D01*
X124879521Y-68563604D01*
X124924679Y-68684061D01*
X124925174Y-68684966D01*
X124925393Y-68685966D01*
X124927828Y-68692462D01*
X124926890Y-68692814D01*
X124940343Y-68754323D01*
X124927162Y-68799212D01*
X124927385Y-68799295D01*
X124926244Y-68802337D01*
X124926242Y-68802344D01*
X124924236Y-68807696D01*
X124924234Y-68807699D01*
X124893976Y-68888414D01*
X124876255Y-68935684D01*
X124869500Y-68997866D01*
X124869500Y-70194134D01*
X124876255Y-70256316D01*
X124925174Y-70386806D01*
X124927385Y-70392705D01*
X124926534Y-70393024D01*
X124940055Y-70454849D01*
X124927042Y-70499166D01*
X124927385Y-70499295D01*
X124924236Y-70507696D01*
X124924234Y-70507699D01*
X124893976Y-70588414D01*
X124876255Y-70635684D01*
X124869500Y-70697866D01*
X124869500Y-71894134D01*
X124876255Y-71956316D01*
X124927385Y-72092705D01*
X125014739Y-72209261D01*
X125021919Y-72214642D01*
X125021920Y-72214643D01*
X125121784Y-72289487D01*
X125164299Y-72346346D01*
X125169325Y-72417165D01*
X125135265Y-72479458D01*
X125121783Y-72491140D01*
X125022275Y-72565716D01*
X125009715Y-72578276D01*
X124933214Y-72680351D01*
X124924676Y-72695946D01*
X124879522Y-72816394D01*
X124875895Y-72831649D01*
X124870369Y-72882514D01*
X124870000Y-72889328D01*
X124870000Y-73211885D01*
X124874475Y-73227124D01*
X124875865Y-73228329D01*
X124883548Y-73230000D01*
X126506000Y-73230000D01*
X126574121Y-73250002D01*
X126620614Y-73303658D01*
X126632000Y-73356000D01*
X126632000Y-73612000D01*
X126611998Y-73680121D01*
X126558342Y-73726614D01*
X126506000Y-73738000D01*
X124888116Y-73738000D01*
X124872877Y-73742475D01*
X124871672Y-73743865D01*
X124870001Y-73751548D01*
X124870001Y-74078669D01*
X124870371Y-74085490D01*
X124875895Y-74136352D01*
X124879521Y-74151604D01*
X124924679Y-74272061D01*
X124925174Y-74272966D01*
X124925393Y-74273966D01*
X124927828Y-74280462D01*
X124926890Y-74280814D01*
X124940343Y-74342323D01*
X124927162Y-74387212D01*
X124927385Y-74387295D01*
X124926244Y-74390337D01*
X124926242Y-74390344D01*
X124876255Y-74523684D01*
X124869500Y-74585866D01*
X124869500Y-75782134D01*
X124876255Y-75844316D01*
X124925174Y-75974806D01*
X124927385Y-75980705D01*
X124926534Y-75981024D01*
X124940055Y-76042849D01*
X124927042Y-76087166D01*
X124927385Y-76087295D01*
X124924236Y-76095696D01*
X124924234Y-76095699D01*
X124893976Y-76176414D01*
X124876255Y-76223684D01*
X124869500Y-76285866D01*
X124869500Y-77482134D01*
X124876255Y-77544316D01*
X124927385Y-77680705D01*
X125014739Y-77797261D01*
X125021919Y-77802642D01*
X125021920Y-77802643D01*
X125121784Y-77877487D01*
X125164299Y-77934346D01*
X125169325Y-78005165D01*
X125135265Y-78067458D01*
X125121783Y-78079140D01*
X125022275Y-78153716D01*
X125009715Y-78166276D01*
X124933214Y-78268351D01*
X124924676Y-78283946D01*
X124879522Y-78404394D01*
X124875895Y-78419649D01*
X124870369Y-78470514D01*
X124870000Y-78477328D01*
X124870000Y-78799885D01*
X124874475Y-78815124D01*
X124875865Y-78816329D01*
X124883548Y-78818000D01*
X126506000Y-78818000D01*
X126574121Y-78838002D01*
X126620614Y-78891658D01*
X126632000Y-78944000D01*
X126632000Y-79200000D01*
X126611998Y-79268121D01*
X126558342Y-79314614D01*
X126506000Y-79326000D01*
X124888116Y-79326000D01*
X124872877Y-79330475D01*
X124871672Y-79331865D01*
X124870001Y-79339548D01*
X124870001Y-79666669D01*
X124870371Y-79673490D01*
X124875895Y-79724352D01*
X124879521Y-79739604D01*
X124924679Y-79860061D01*
X124925174Y-79860966D01*
X124925393Y-79861966D01*
X124927828Y-79868462D01*
X124926890Y-79868814D01*
X124940343Y-79930323D01*
X124927162Y-79975212D01*
X124927385Y-79975295D01*
X124926244Y-79978337D01*
X124926242Y-79978344D01*
X124876255Y-80111684D01*
X124869500Y-80173866D01*
X124869500Y-81370134D01*
X124876255Y-81432316D01*
X124925174Y-81562806D01*
X124927385Y-81568705D01*
X124926534Y-81569024D01*
X124940055Y-81630849D01*
X124927042Y-81675166D01*
X124927385Y-81675295D01*
X124924236Y-81683696D01*
X124924234Y-81683699D01*
X124893976Y-81764414D01*
X124876255Y-81811684D01*
X124869500Y-81873866D01*
X124869500Y-83070134D01*
X124876255Y-83132316D01*
X124927385Y-83268705D01*
X125014739Y-83385261D01*
X125021919Y-83390642D01*
X125021920Y-83390643D01*
X125121784Y-83465487D01*
X125164299Y-83522346D01*
X125169325Y-83593165D01*
X125135265Y-83655458D01*
X125121783Y-83667140D01*
X125022275Y-83741716D01*
X125009715Y-83754276D01*
X124933214Y-83856351D01*
X124924676Y-83871946D01*
X124879522Y-83992394D01*
X124875895Y-84007649D01*
X124870369Y-84058514D01*
X124870000Y-84065328D01*
X124870000Y-84387885D01*
X124874475Y-84403124D01*
X124875865Y-84404329D01*
X124883548Y-84406000D01*
X126506000Y-84406000D01*
X126574121Y-84426002D01*
X126620614Y-84479658D01*
X126632000Y-84532000D01*
X126632000Y-84788000D01*
X126611998Y-84856121D01*
X126558342Y-84902614D01*
X126506000Y-84914000D01*
X124888116Y-84914000D01*
X124872877Y-84918475D01*
X124871672Y-84919865D01*
X124870001Y-84927548D01*
X124870001Y-85254669D01*
X124870371Y-85261490D01*
X124875895Y-85312352D01*
X124879521Y-85327604D01*
X124924679Y-85448061D01*
X124925174Y-85448966D01*
X124925393Y-85449966D01*
X124927828Y-85456462D01*
X124926890Y-85456814D01*
X124940343Y-85518323D01*
X124927162Y-85563212D01*
X124927385Y-85563295D01*
X124926244Y-85566337D01*
X124926242Y-85566344D01*
X124924236Y-85571696D01*
X124924234Y-85571699D01*
X124913581Y-85600116D01*
X124876255Y-85699684D01*
X124869500Y-85761866D01*
X124869500Y-86958134D01*
X124876255Y-87020316D01*
X124879029Y-87027715D01*
X124924234Y-87148299D01*
X124926245Y-87153663D01*
X124927385Y-87156705D01*
X124926534Y-87157024D01*
X124940055Y-87218849D01*
X124927042Y-87263166D01*
X124927385Y-87263295D01*
X124924236Y-87271696D01*
X124924234Y-87271699D01*
X124893976Y-87352414D01*
X124876255Y-87399684D01*
X124869500Y-87461866D01*
X124869500Y-88658134D01*
X124876255Y-88720316D01*
X124927385Y-88856705D01*
X125014739Y-88973261D01*
X125021919Y-88978642D01*
X125021920Y-88978643D01*
X125121784Y-89053487D01*
X125164299Y-89110346D01*
X125169325Y-89181165D01*
X125135265Y-89243458D01*
X125121783Y-89255140D01*
X125022275Y-89329716D01*
X125009715Y-89342276D01*
X124933214Y-89444351D01*
X124924676Y-89459946D01*
X124879522Y-89580394D01*
X124875895Y-89595649D01*
X124870369Y-89646514D01*
X124870000Y-89653328D01*
X124870000Y-89975885D01*
X124874475Y-89991124D01*
X124875865Y-89992329D01*
X124883548Y-89994000D01*
X126506000Y-89994000D01*
X126574121Y-90014002D01*
X126620614Y-90067658D01*
X126632000Y-90120000D01*
X126632000Y-90376000D01*
X126611998Y-90444121D01*
X126558342Y-90490614D01*
X126506000Y-90502000D01*
X124888116Y-90502000D01*
X124872877Y-90506475D01*
X124871672Y-90507865D01*
X124870001Y-90515548D01*
X124870001Y-90842669D01*
X124870371Y-90849490D01*
X124875895Y-90900352D01*
X124879521Y-90915604D01*
X124924679Y-91036061D01*
X124925174Y-91036966D01*
X124925393Y-91037966D01*
X124927828Y-91044462D01*
X124926890Y-91044814D01*
X124940343Y-91106323D01*
X124927162Y-91151212D01*
X124927385Y-91151295D01*
X124926244Y-91154337D01*
X124926242Y-91154344D01*
X124876255Y-91287684D01*
X124869500Y-91349866D01*
X124869500Y-92546134D01*
X124876255Y-92608316D01*
X124925174Y-92738806D01*
X124927385Y-92744705D01*
X124926534Y-92745024D01*
X124940055Y-92806849D01*
X124927042Y-92851166D01*
X124927385Y-92851295D01*
X124924236Y-92859696D01*
X124924234Y-92859699D01*
X124893976Y-92940414D01*
X124876255Y-92987684D01*
X124869500Y-93049866D01*
X124869500Y-94246134D01*
X124876255Y-94308316D01*
X124927385Y-94444705D01*
X125014739Y-94561261D01*
X125021919Y-94566642D01*
X125021920Y-94566643D01*
X125121784Y-94641487D01*
X125164299Y-94698346D01*
X125169325Y-94769165D01*
X125135265Y-94831458D01*
X125121783Y-94843140D01*
X125022275Y-94917716D01*
X125009715Y-94930276D01*
X124933214Y-95032351D01*
X124924676Y-95047946D01*
X124879522Y-95168394D01*
X124875895Y-95183649D01*
X124870369Y-95234514D01*
X124870000Y-95241328D01*
X124870000Y-95563885D01*
X124874475Y-95579124D01*
X124875865Y-95580329D01*
X124883548Y-95582000D01*
X126506000Y-95582000D01*
X126574121Y-95602002D01*
X126620614Y-95655658D01*
X126632000Y-95708000D01*
X126632000Y-95964000D01*
X126611998Y-96032121D01*
X126558342Y-96078614D01*
X126506000Y-96090000D01*
X124888116Y-96090000D01*
X124872877Y-96094475D01*
X124871672Y-96095865D01*
X124870001Y-96103548D01*
X124870001Y-96430669D01*
X124870371Y-96437490D01*
X124875895Y-96488352D01*
X124879521Y-96503604D01*
X124924679Y-96624061D01*
X124925174Y-96624966D01*
X124925393Y-96625966D01*
X124927828Y-96632462D01*
X124926890Y-96632814D01*
X124940343Y-96694323D01*
X124927162Y-96739212D01*
X124927385Y-96739295D01*
X124926244Y-96742337D01*
X124926242Y-96742344D01*
X124876255Y-96875684D01*
X124869500Y-96937866D01*
X124869500Y-98134134D01*
X124876255Y-98196316D01*
X124925174Y-98326806D01*
X124927385Y-98332705D01*
X124926534Y-98333024D01*
X124940055Y-98394849D01*
X124927042Y-98439166D01*
X124927385Y-98439295D01*
X124924236Y-98447696D01*
X124924234Y-98447699D01*
X124893976Y-98528414D01*
X124876255Y-98575684D01*
X124869500Y-98637866D01*
X124869500Y-99834134D01*
X124876255Y-99896316D01*
X124927385Y-100032705D01*
X125014739Y-100149261D01*
X125021919Y-100154642D01*
X125021920Y-100154643D01*
X125121784Y-100229487D01*
X125164299Y-100286346D01*
X125169325Y-100357165D01*
X125135265Y-100419458D01*
X125121783Y-100431140D01*
X125022275Y-100505716D01*
X125009715Y-100518276D01*
X124933214Y-100620351D01*
X124924676Y-100635946D01*
X124879522Y-100756394D01*
X124875895Y-100771649D01*
X124870369Y-100822514D01*
X124870000Y-100829328D01*
X124870000Y-101151885D01*
X124874475Y-101167124D01*
X124875865Y-101168329D01*
X124883548Y-101170000D01*
X126506000Y-101170000D01*
X126574121Y-101190002D01*
X126620614Y-101243658D01*
X126632000Y-101296000D01*
X126632000Y-101552000D01*
X126611998Y-101620121D01*
X126558342Y-101666614D01*
X126506000Y-101678000D01*
X124888116Y-101678000D01*
X124872877Y-101682475D01*
X124871672Y-101683865D01*
X124870001Y-101691548D01*
X124870001Y-102018669D01*
X124870371Y-102025490D01*
X124875895Y-102076352D01*
X124879521Y-102091604D01*
X124924679Y-102212061D01*
X124925174Y-102212966D01*
X124925393Y-102213966D01*
X124927828Y-102220462D01*
X124926890Y-102220814D01*
X124940343Y-102282323D01*
X124927162Y-102327212D01*
X124927385Y-102327295D01*
X124926244Y-102330337D01*
X124926242Y-102330344D01*
X124924236Y-102335696D01*
X124924234Y-102335699D01*
X124897114Y-102408042D01*
X124876255Y-102463684D01*
X124869500Y-102525866D01*
X124869500Y-103722134D01*
X124876255Y-103784316D01*
X124925174Y-103914806D01*
X124927385Y-103920705D01*
X124926534Y-103921024D01*
X124940055Y-103982849D01*
X124927042Y-104027166D01*
X124927385Y-104027295D01*
X124924236Y-104035696D01*
X124924234Y-104035699D01*
X124893976Y-104116414D01*
X124876255Y-104163684D01*
X124869500Y-104225866D01*
X124869500Y-105422134D01*
X124876255Y-105484316D01*
X124927385Y-105620705D01*
X125014739Y-105737261D01*
X125021919Y-105742642D01*
X125021920Y-105742643D01*
X125121784Y-105817487D01*
X125164299Y-105874346D01*
X125169325Y-105945165D01*
X125135265Y-106007458D01*
X125121783Y-106019140D01*
X125022275Y-106093716D01*
X125009715Y-106106276D01*
X124933214Y-106208351D01*
X124924676Y-106223946D01*
X124879522Y-106344394D01*
X124875895Y-106359649D01*
X124870369Y-106410514D01*
X124870000Y-106417328D01*
X124870000Y-106739885D01*
X124874475Y-106755124D01*
X124875865Y-106756329D01*
X124883548Y-106758000D01*
X126506000Y-106758000D01*
X126574121Y-106778002D01*
X126620614Y-106831658D01*
X126632000Y-106884000D01*
X126632000Y-107140000D01*
X126611998Y-107208121D01*
X126558342Y-107254614D01*
X126506000Y-107266000D01*
X124888116Y-107266000D01*
X124872877Y-107270475D01*
X124871672Y-107271865D01*
X124870001Y-107279548D01*
X124870001Y-107606669D01*
X124870371Y-107613490D01*
X124875895Y-107664352D01*
X124879521Y-107679604D01*
X124924679Y-107800061D01*
X124925174Y-107800966D01*
X124925393Y-107801966D01*
X124927828Y-107808462D01*
X124926890Y-107808814D01*
X124940343Y-107870323D01*
X124927162Y-107915212D01*
X124927385Y-107915295D01*
X124926244Y-107918337D01*
X124926242Y-107918344D01*
X124876255Y-108051684D01*
X124869500Y-108113866D01*
X124869500Y-109310134D01*
X124876255Y-109372316D01*
X124925174Y-109502806D01*
X124927385Y-109508705D01*
X124926534Y-109509024D01*
X124940055Y-109570849D01*
X124927042Y-109615166D01*
X124927385Y-109615295D01*
X124924236Y-109623696D01*
X124924234Y-109623699D01*
X124893976Y-109704414D01*
X124876255Y-109751684D01*
X124869500Y-109813866D01*
X124869500Y-111010134D01*
X123436000Y-111010134D01*
X123436000Y-62035885D01*
X124870000Y-62035885D01*
X124874475Y-62051124D01*
X124875865Y-62052329D01*
X124883548Y-62054000D01*
X126105885Y-62054000D01*
X126121124Y-62049525D01*
X126122329Y-62048135D01*
X126124000Y-62040452D01*
X126124000Y-62035885D01*
X126632000Y-62035885D01*
X126636475Y-62051124D01*
X126637865Y-62052329D01*
X126645548Y-62054000D01*
X127867884Y-62054000D01*
X127883123Y-62049525D01*
X127884328Y-62048135D01*
X127885999Y-62040452D01*
X127885999Y-61713331D01*
X127885629Y-61706510D01*
X127880105Y-61655648D01*
X127876479Y-61640396D01*
X127831324Y-61519946D01*
X127822786Y-61504351D01*
X127746285Y-61402276D01*
X127733724Y-61389715D01*
X127631649Y-61313214D01*
X127616054Y-61304676D01*
X127495606Y-61259522D01*
X127480351Y-61255895D01*
X127429486Y-61250369D01*
X127422672Y-61250000D01*
X126650115Y-61250000D01*
X126634876Y-61254475D01*
X126633671Y-61255865D01*
X126632000Y-61263548D01*
X126632000Y-62035885D01*
X126124000Y-62035885D01*
X126124000Y-61268116D01*
X126119525Y-61252877D01*
X126118135Y-61251672D01*
X126110452Y-61250001D01*
X125333331Y-61250001D01*
X125326510Y-61250371D01*
X125275648Y-61255895D01*
X125260396Y-61259521D01*
X125139946Y-61304676D01*
X125124351Y-61313214D01*
X125022276Y-61389715D01*
X125009715Y-61402276D01*
X124933214Y-61504351D01*
X124924676Y-61519946D01*
X124879522Y-61640394D01*
X124875895Y-61655649D01*
X124870369Y-61706514D01*
X124870000Y-61713328D01*
X124870000Y-62035885D01*
X123436000Y-62035885D01*
X123436000Y-60634000D01*
X123456002Y-60565879D01*
X123509658Y-60519386D01*
X123562000Y-60508000D01*
X142294000Y-60508000D01*
X142362121Y-60528002D01*
G37*
%TD.AperFunction*%
%TD*%
M02*
