%TF.GenerationSoftware,KiCad,Pcbnew,(6.0.0-0)*%
%TF.CreationDate,2022-02-07T13:40:10-05:00*%
%TF.ProjectId,Data Panel VU,44617461-2050-4616-9e65-6c2056552e6b,rev?*%
%TF.SameCoordinates,Original*%
%TF.FileFunction,Legend,Top*%
%TF.FilePolarity,Positive*%
%FSLAX46Y46*%
G04 Gerber Fmt 4.6, Leading zero omitted, Abs format (unit mm)*
G04 Created by KiCad (PCBNEW (6.0.0-0)) date 2022-02-07 13:40:10*
%MOMM*%
%LPD*%
G01*
G04 APERTURE LIST*
%ADD10C,0.120000*%
G04 APERTURE END LIST*
D10*
%TO.C,D18*%
X132378000Y-65608000D02*
X132378000Y-66708000D01*
X132378000Y-66708000D02*
X126278000Y-66708000D01*
X126278000Y-61308000D02*
X131278000Y-61308000D01*
%TO.C,D5*%
X133478000Y-95936000D02*
X133478000Y-94836000D01*
X139578000Y-100236000D02*
X134578000Y-100236000D01*
X133478000Y-94836000D02*
X139578000Y-94836000D01*
%TO.C,D10*%
X126278000Y-83660000D02*
X131278000Y-83660000D01*
X132378000Y-87960000D02*
X132378000Y-89060000D01*
X132378000Y-89060000D02*
X126278000Y-89060000D01*
%TO.C,D15*%
X133478000Y-67996000D02*
X133478000Y-66896000D01*
X139578000Y-72296000D02*
X134578000Y-72296000D01*
X133478000Y-66896000D02*
X139578000Y-66896000D01*
%TO.C,D8*%
X126278000Y-89248000D02*
X131278000Y-89248000D01*
X132378000Y-93548000D02*
X132378000Y-94648000D01*
X132378000Y-94648000D02*
X126278000Y-94648000D01*
%TO.C,D3*%
X139578000Y-105824000D02*
X134578000Y-105824000D01*
X133478000Y-100424000D02*
X139578000Y-100424000D01*
X133478000Y-101524000D02*
X133478000Y-100424000D01*
%TO.C,D14*%
X132378000Y-76784000D02*
X132378000Y-77884000D01*
X126278000Y-72484000D02*
X131278000Y-72484000D01*
X132378000Y-77884000D02*
X126278000Y-77884000D01*
%TO.C,D11*%
X133478000Y-78072000D02*
X139578000Y-78072000D01*
X139578000Y-83472000D02*
X134578000Y-83472000D01*
X133478000Y-79172000D02*
X133478000Y-78072000D01*
%TO.C,D4*%
X132378000Y-104724000D02*
X132378000Y-105824000D01*
X126278000Y-100424000D02*
X131278000Y-100424000D01*
X132378000Y-105824000D02*
X126278000Y-105824000D01*
%TO.C,D6*%
X126278000Y-94836000D02*
X131278000Y-94836000D01*
X132378000Y-100236000D02*
X126278000Y-100236000D01*
X132378000Y-99136000D02*
X132378000Y-100236000D01*
%TO.C,D1*%
X133478000Y-107112000D02*
X133478000Y-106012000D01*
X133478000Y-106012000D02*
X139578000Y-106012000D01*
X139578000Y-111412000D02*
X134578000Y-111412000D01*
%TO.C,D13*%
X133478000Y-73584000D02*
X133478000Y-72484000D01*
X139578000Y-77884000D02*
X134578000Y-77884000D01*
X133478000Y-72484000D02*
X139578000Y-72484000D01*
%TO.C,D17*%
X133478000Y-62408000D02*
X133478000Y-61308000D01*
X139578000Y-66708000D02*
X134578000Y-66708000D01*
X133478000Y-61308000D02*
X139578000Y-61308000D01*
%TO.C,D7*%
X133478000Y-90348000D02*
X133478000Y-89248000D01*
X133478000Y-89248000D02*
X139578000Y-89248000D01*
X139578000Y-94648000D02*
X134578000Y-94648000D01*
%TO.C,D16*%
X132378000Y-72296000D02*
X126278000Y-72296000D01*
X132378000Y-71196000D02*
X132378000Y-72296000D01*
X126278000Y-66896000D02*
X131278000Y-66896000D01*
%TO.C,D12*%
X132378000Y-83472000D02*
X126278000Y-83472000D01*
X132378000Y-82372000D02*
X132378000Y-83472000D01*
X126278000Y-78072000D02*
X131278000Y-78072000D01*
%TO.C,D9*%
X133478000Y-83660000D02*
X139578000Y-83660000D01*
X133478000Y-84760000D02*
X133478000Y-83660000D01*
X139578000Y-89060000D02*
X134578000Y-89060000D01*
%TO.C,D2*%
X132378000Y-111412000D02*
X126278000Y-111412000D01*
X132378000Y-110312000D02*
X132378000Y-111412000D01*
X126278000Y-106012000D02*
X131278000Y-106012000D01*
%TD*%
M02*
