%TF.GenerationSoftware,KiCad,Pcbnew,(6.0.0-0)*%
%TF.CreationDate,2022-02-07T13:40:11-05:00*%
%TF.ProjectId,Data Panel VU,44617461-2050-4616-9e65-6c2056552e6b,rev?*%
%TF.SameCoordinates,Original*%
%TF.FileFunction,Soldermask,Top*%
%TF.FilePolarity,Negative*%
%FSLAX46Y46*%
G04 Gerber Fmt 4.6, Leading zero omitted, Abs format (unit mm)*
G04 Created by KiCad (PCBNEW (6.0.0-0)) date 2022-02-07 13:40:11*
%MOMM*%
%LPD*%
G01*
G04 APERTURE LIST*
%ADD10R,2.000000X1.100000*%
%ADD11R,1.700000X1.700000*%
%ADD12O,1.700000X1.700000*%
G04 APERTURE END LIST*
D10*
%TO.C,D18*%
X131178000Y-65708000D03*
X131178000Y-64008000D03*
X131178000Y-62308000D03*
X126378000Y-62308000D03*
X126378000Y-64008000D03*
X126378000Y-65708000D03*
%TD*%
%TO.C,D5*%
X134678000Y-95836000D03*
X134678000Y-97536000D03*
X134678000Y-99236000D03*
X139478000Y-99236000D03*
X139478000Y-97536000D03*
X139478000Y-95836000D03*
%TD*%
%TO.C,D10*%
X131178000Y-88060000D03*
X131178000Y-86360000D03*
X131178000Y-84660000D03*
X126378000Y-84660000D03*
X126378000Y-86360000D03*
X126378000Y-88060000D03*
%TD*%
%TO.C,D15*%
X134678000Y-67896000D03*
X134678000Y-69596000D03*
X134678000Y-71296000D03*
X139478000Y-71296000D03*
X139478000Y-69596000D03*
X139478000Y-67896000D03*
%TD*%
%TO.C,D8*%
X131178000Y-93648000D03*
X131178000Y-91948000D03*
X131178000Y-90248000D03*
X126378000Y-90248000D03*
X126378000Y-91948000D03*
X126378000Y-93648000D03*
%TD*%
%TO.C,D3*%
X134678000Y-101424000D03*
X134678000Y-103124000D03*
X134678000Y-104824000D03*
X139478000Y-104824000D03*
X139478000Y-103124000D03*
X139478000Y-101424000D03*
%TD*%
%TO.C,D14*%
X131178000Y-76884000D03*
X131178000Y-75184000D03*
X131178000Y-73484000D03*
X126378000Y-73484000D03*
X126378000Y-75184000D03*
X126378000Y-76884000D03*
%TD*%
%TO.C,D11*%
X134678000Y-79072000D03*
X134678000Y-80772000D03*
X134678000Y-82472000D03*
X139478000Y-82472000D03*
X139478000Y-80772000D03*
X139478000Y-79072000D03*
%TD*%
%TO.C,D4*%
X131178000Y-104824000D03*
X131178000Y-103124000D03*
X131178000Y-101424000D03*
X126378000Y-101424000D03*
X126378000Y-103124000D03*
X126378000Y-104824000D03*
%TD*%
%TO.C,D6*%
X131178000Y-99236000D03*
X131178000Y-97536000D03*
X131178000Y-95836000D03*
X126378000Y-95836000D03*
X126378000Y-97536000D03*
X126378000Y-99236000D03*
%TD*%
%TO.C,D1*%
X134678000Y-107012000D03*
X134678000Y-108712000D03*
X134678000Y-110412000D03*
X139478000Y-110412000D03*
X139478000Y-108712000D03*
X139478000Y-107012000D03*
%TD*%
%TO.C,D13*%
X134678000Y-73484000D03*
X134678000Y-75184000D03*
X134678000Y-76884000D03*
X139478000Y-76884000D03*
X139478000Y-75184000D03*
X139478000Y-73484000D03*
%TD*%
%TO.C,D17*%
X134678000Y-62308000D03*
X134678000Y-64008000D03*
X134678000Y-65708000D03*
X139478000Y-65708000D03*
X139478000Y-64008000D03*
X139478000Y-62308000D03*
%TD*%
%TO.C,D7*%
X134678000Y-90248000D03*
X134678000Y-91948000D03*
X134678000Y-93648000D03*
X139478000Y-93648000D03*
X139478000Y-91948000D03*
X139478000Y-90248000D03*
%TD*%
%TO.C,D16*%
X131178000Y-71296000D03*
X131178000Y-69596000D03*
X131178000Y-67896000D03*
X126378000Y-67896000D03*
X126378000Y-69596000D03*
X126378000Y-71296000D03*
%TD*%
%TO.C,D12*%
X131178000Y-82472000D03*
X131178000Y-80772000D03*
X131178000Y-79072000D03*
X126378000Y-79072000D03*
X126378000Y-80772000D03*
X126378000Y-82472000D03*
%TD*%
%TO.C,D9*%
X134678000Y-84660000D03*
X134678000Y-86360000D03*
X134678000Y-88060000D03*
X139478000Y-88060000D03*
X139478000Y-86360000D03*
X139478000Y-84660000D03*
%TD*%
%TO.C,D2*%
X131178000Y-110412000D03*
X131178000Y-108712000D03*
X131178000Y-107012000D03*
X126378000Y-107012000D03*
X126378000Y-108712000D03*
X126378000Y-110412000D03*
%TD*%
D11*
%TO.C,J1*%
X127000000Y-113792000D03*
D12*
X129540000Y-113792000D03*
X132080000Y-113792000D03*
X134620000Y-113792000D03*
X137160000Y-113792000D03*
X139700000Y-113792000D03*
%TD*%
M02*
