%TF.GenerationSoftware,KiCad,Pcbnew,(6.0.0-0)*%
%TF.CreationDate,2022-12-05T14:38:03-05:00*%
%TF.ProjectId,Dome_Plate_Controller_V1,446f6d65-5f50-46c6-9174-655f436f6e74,rev?*%
%TF.SameCoordinates,Original*%
%TF.FileFunction,Legend,Top*%
%TF.FilePolarity,Positive*%
%FSLAX46Y46*%
G04 Gerber Fmt 4.6, Leading zero omitted, Abs format (unit mm)*
G04 Created by KiCad (PCBNEW (6.0.0-0)) date 2022-12-05 14:38:03*
%MOMM*%
%LPD*%
G01*
G04 APERTURE LIST*
%ADD10C,0.150000*%
%ADD11C,0.120000*%
%ADD12C,0.300000*%
%ADD13C,0.010000*%
%ADD14C,0.127000*%
%ADD15C,0.200000*%
%ADD16C,0.101600*%
%ADD17C,0.103000*%
G04 APERTURE END LIST*
D10*
X96240000Y-126910000D02*
X78350000Y-126910000D01*
X51160000Y-113000000D02*
X48050000Y-107080000D01*
X66530000Y-89660000D02*
X57090000Y-93950000D01*
X102370000Y-126910000D02*
X120210000Y-126950000D01*
X72790000Y-87450000D02*
X83490000Y-84940000D01*
X58400000Y-125690000D02*
X61230000Y-130330000D01*
X95155714Y-122282380D02*
X94822381Y-121806190D01*
X94584286Y-122282380D02*
X94584286Y-121282380D01*
X94965238Y-121282380D01*
X95060476Y-121330000D01*
X95108095Y-121377619D01*
X95155714Y-121472857D01*
X95155714Y-121615714D01*
X95108095Y-121710952D01*
X95060476Y-121758571D01*
X94965238Y-121806190D01*
X94584286Y-121806190D01*
X95489048Y-122282380D02*
X96012857Y-121615714D01*
X95489048Y-121615714D02*
X96012857Y-122282380D01*
X51042426Y-107940842D02*
X51613855Y-108930585D01*
X86315714Y-122312380D02*
X85982381Y-121836190D01*
X85744286Y-122312380D02*
X85744286Y-121312380D01*
X86125238Y-121312380D01*
X86220476Y-121360000D01*
X86268095Y-121407619D01*
X86315714Y-121502857D01*
X86315714Y-121645714D01*
X86268095Y-121740952D01*
X86220476Y-121788571D01*
X86125238Y-121836190D01*
X85744286Y-121836190D01*
X86649048Y-122312380D02*
X87172857Y-121645714D01*
X86649048Y-121645714D02*
X87172857Y-122312380D01*
X106794285Y-114773571D02*
X106460952Y-114773571D01*
X106460952Y-115297380D02*
X106460952Y-114297380D01*
X106937142Y-114297380D01*
X107746666Y-114630714D02*
X107746666Y-115297380D01*
X107318095Y-114630714D02*
X107318095Y-115154523D01*
X107365714Y-115249761D01*
X107460952Y-115297380D01*
X107603809Y-115297380D01*
X107699047Y-115249761D01*
X107746666Y-115202142D01*
X108080000Y-114630714D02*
X108460952Y-114630714D01*
X108222857Y-114297380D02*
X108222857Y-115154523D01*
X108270476Y-115249761D01*
X108365714Y-115297380D01*
X108460952Y-115297380D01*
X109222857Y-114630714D02*
X109222857Y-115297380D01*
X108794285Y-114630714D02*
X108794285Y-115154523D01*
X108841904Y-115249761D01*
X108937142Y-115297380D01*
X109080000Y-115297380D01*
X109175238Y-115249761D01*
X109222857Y-115202142D01*
X109699047Y-115297380D02*
X109699047Y-114630714D01*
X109699047Y-114821190D02*
X109746666Y-114725952D01*
X109794285Y-114678333D01*
X109889523Y-114630714D01*
X109984761Y-114630714D01*
X110699047Y-115249761D02*
X110603809Y-115297380D01*
X110413333Y-115297380D01*
X110318095Y-115249761D01*
X110270476Y-115154523D01*
X110270476Y-114773571D01*
X110318095Y-114678333D01*
X110413333Y-114630714D01*
X110603809Y-114630714D01*
X110699047Y-114678333D01*
X110746666Y-114773571D01*
X110746666Y-114868809D01*
X110270476Y-114964047D01*
X108246666Y-115907380D02*
X108865714Y-115907380D01*
X108532380Y-116288333D01*
X108675238Y-116288333D01*
X108770476Y-116335952D01*
X108818095Y-116383571D01*
X108865714Y-116478809D01*
X108865714Y-116716904D01*
X108818095Y-116812142D01*
X108770476Y-116859761D01*
X108675238Y-116907380D01*
X108389523Y-116907380D01*
X108294285Y-116859761D01*
X108246666Y-116812142D01*
X76579523Y-118922380D02*
X77150952Y-118922380D01*
X76865238Y-119922380D02*
X76865238Y-118922380D01*
X77389047Y-119922380D02*
X77912857Y-119255714D01*
X77389047Y-119255714D02*
X77912857Y-119922380D01*
X96860476Y-127404761D02*
X97003333Y-127452380D01*
X97241428Y-127452380D01*
X97336666Y-127404761D01*
X97384285Y-127357142D01*
X97431904Y-127261904D01*
X97431904Y-127166666D01*
X97384285Y-127071428D01*
X97336666Y-127023809D01*
X97241428Y-126976190D01*
X97050952Y-126928571D01*
X96955714Y-126880952D01*
X96908095Y-126833333D01*
X96860476Y-126738095D01*
X96860476Y-126642857D01*
X96908095Y-126547619D01*
X96955714Y-126500000D01*
X97050952Y-126452380D01*
X97289047Y-126452380D01*
X97431904Y-126500000D01*
X97860476Y-126928571D02*
X98193809Y-126928571D01*
X98336666Y-127452380D02*
X97860476Y-127452380D01*
X97860476Y-126452380D01*
X98336666Y-126452380D01*
X99336666Y-127452380D02*
X99003333Y-126976190D01*
X98765238Y-127452380D02*
X98765238Y-126452380D01*
X99146190Y-126452380D01*
X99241428Y-126500000D01*
X99289047Y-126547619D01*
X99336666Y-126642857D01*
X99336666Y-126785714D01*
X99289047Y-126880952D01*
X99241428Y-126928571D01*
X99146190Y-126976190D01*
X98765238Y-126976190D01*
X99765238Y-127452380D02*
X99765238Y-126452380D01*
X100193809Y-127166666D02*
X100670000Y-127166666D01*
X100098571Y-127452380D02*
X100431904Y-126452380D01*
X100765238Y-127452380D01*
X101574761Y-127452380D02*
X101098571Y-127452380D01*
X101098571Y-126452380D01*
X95917619Y-123970000D02*
X95822381Y-123922380D01*
X95679524Y-123922380D01*
X95536667Y-123970000D01*
X95441429Y-124065238D01*
X95393810Y-124160476D01*
X95346191Y-124350952D01*
X95346191Y-124493809D01*
X95393810Y-124684285D01*
X95441429Y-124779523D01*
X95536667Y-124874761D01*
X95679524Y-124922380D01*
X95774762Y-124922380D01*
X95917619Y-124874761D01*
X95965238Y-124827142D01*
X95965238Y-124493809D01*
X95774762Y-124493809D01*
X77055714Y-122382380D02*
X76722381Y-121906190D01*
X76484286Y-122382380D02*
X76484286Y-121382380D01*
X76865238Y-121382380D01*
X76960476Y-121430000D01*
X77008095Y-121477619D01*
X77055714Y-121572857D01*
X77055714Y-121715714D01*
X77008095Y-121810952D01*
X76960476Y-121858571D01*
X76865238Y-121906190D01*
X76484286Y-121906190D01*
X77389048Y-122382380D02*
X77912857Y-121715714D01*
X77389048Y-121715714D02*
X77912857Y-122382380D01*
X68377462Y-91762560D02*
X69451397Y-91371680D01*
X69044723Y-91925099D02*
X68784136Y-91209142D01*
X104075714Y-122382380D02*
X103742381Y-121906190D01*
X103504286Y-122382380D02*
X103504286Y-121382380D01*
X103885238Y-121382380D01*
X103980476Y-121430000D01*
X104028095Y-121477619D01*
X104075714Y-121572857D01*
X104075714Y-121715714D01*
X104028095Y-121810952D01*
X103980476Y-121858571D01*
X103885238Y-121906190D01*
X103504286Y-121906190D01*
X104409048Y-122382380D02*
X104932857Y-121715714D01*
X104409048Y-121715714D02*
X104932857Y-122382380D01*
X112725714Y-122312380D02*
X112392381Y-121836190D01*
X112154286Y-122312380D02*
X112154286Y-121312380D01*
X112535238Y-121312380D01*
X112630476Y-121360000D01*
X112678095Y-121407619D01*
X112725714Y-121502857D01*
X112725714Y-121645714D01*
X112678095Y-121740952D01*
X112630476Y-121788571D01*
X112535238Y-121836190D01*
X112154286Y-121836190D01*
X113059048Y-122312380D02*
X113582857Y-121645714D01*
X113059048Y-121645714D02*
X113582857Y-122312380D01*
X88804285Y-114773571D02*
X88470952Y-114773571D01*
X88470952Y-115297380D02*
X88470952Y-114297380D01*
X88947142Y-114297380D01*
X89756666Y-114630714D02*
X89756666Y-115297380D01*
X89328095Y-114630714D02*
X89328095Y-115154523D01*
X89375714Y-115249761D01*
X89470952Y-115297380D01*
X89613809Y-115297380D01*
X89709047Y-115249761D01*
X89756666Y-115202142D01*
X90090000Y-114630714D02*
X90470952Y-114630714D01*
X90232857Y-114297380D02*
X90232857Y-115154523D01*
X90280476Y-115249761D01*
X90375714Y-115297380D01*
X90470952Y-115297380D01*
X91232857Y-114630714D02*
X91232857Y-115297380D01*
X90804285Y-114630714D02*
X90804285Y-115154523D01*
X90851904Y-115249761D01*
X90947142Y-115297380D01*
X91090000Y-115297380D01*
X91185238Y-115249761D01*
X91232857Y-115202142D01*
X91709047Y-115297380D02*
X91709047Y-114630714D01*
X91709047Y-114821190D02*
X91756666Y-114725952D01*
X91804285Y-114678333D01*
X91899523Y-114630714D01*
X91994761Y-114630714D01*
X92709047Y-115249761D02*
X92613809Y-115297380D01*
X92423333Y-115297380D01*
X92328095Y-115249761D01*
X92280476Y-115154523D01*
X92280476Y-114773571D01*
X92328095Y-114678333D01*
X92423333Y-114630714D01*
X92613809Y-114630714D01*
X92709047Y-114678333D01*
X92756666Y-114773571D01*
X92756666Y-114868809D01*
X92280476Y-114964047D01*
X90875714Y-116907380D02*
X90304285Y-116907380D01*
X90590000Y-116907380D02*
X90590000Y-115907380D01*
X90494761Y-116050238D01*
X90399523Y-116145476D01*
X90304285Y-116193095D01*
X79534761Y-114297380D02*
X79534761Y-115106904D01*
X79582380Y-115202142D01*
X79630000Y-115249761D01*
X79725238Y-115297380D01*
X79915714Y-115297380D01*
X80010952Y-115249761D01*
X80058571Y-115202142D01*
X80106190Y-115106904D01*
X80106190Y-114297380D01*
X80582380Y-114630714D02*
X80582380Y-115630714D01*
X80582380Y-114678333D02*
X80677619Y-114630714D01*
X80868095Y-114630714D01*
X80963333Y-114678333D01*
X81010952Y-114725952D01*
X81058571Y-114821190D01*
X81058571Y-115106904D01*
X81010952Y-115202142D01*
X80963333Y-115249761D01*
X80868095Y-115297380D01*
X80677619Y-115297380D01*
X80582380Y-115249761D01*
X81487142Y-114630714D02*
X81487142Y-115630714D01*
X81487142Y-114678333D02*
X81582380Y-114630714D01*
X81772857Y-114630714D01*
X81868095Y-114678333D01*
X81915714Y-114725952D01*
X81963333Y-114821190D01*
X81963333Y-115106904D01*
X81915714Y-115202142D01*
X81868095Y-115249761D01*
X81772857Y-115297380D01*
X81582380Y-115297380D01*
X81487142Y-115249761D01*
X82391904Y-115297380D02*
X82391904Y-114630714D01*
X82391904Y-114297380D02*
X82344285Y-114345000D01*
X82391904Y-114392619D01*
X82439523Y-114345000D01*
X82391904Y-114297380D01*
X82391904Y-114392619D01*
X82725238Y-114630714D02*
X83106190Y-114630714D01*
X82868095Y-114297380D02*
X82868095Y-115154523D01*
X82915714Y-115249761D01*
X83010952Y-115297380D01*
X83106190Y-115297380D01*
X83344285Y-114630714D02*
X83582380Y-115297380D01*
X83820476Y-114630714D02*
X83582380Y-115297380D01*
X83487142Y-115535476D01*
X83439523Y-115583095D01*
X83344285Y-115630714D01*
X79010952Y-116859761D02*
X79153809Y-116907380D01*
X79391904Y-116907380D01*
X79487142Y-116859761D01*
X79534761Y-116812142D01*
X79582380Y-116716904D01*
X79582380Y-116621666D01*
X79534761Y-116526428D01*
X79487142Y-116478809D01*
X79391904Y-116431190D01*
X79201428Y-116383571D01*
X79106190Y-116335952D01*
X79058571Y-116288333D01*
X79010952Y-116193095D01*
X79010952Y-116097857D01*
X79058571Y-116002619D01*
X79106190Y-115955000D01*
X79201428Y-115907380D01*
X79439523Y-115907380D01*
X79582380Y-115955000D01*
X80010952Y-116240714D02*
X80010952Y-117240714D01*
X80010952Y-116288333D02*
X80106190Y-116240714D01*
X80296666Y-116240714D01*
X80391904Y-116288333D01*
X80439523Y-116335952D01*
X80487142Y-116431190D01*
X80487142Y-116716904D01*
X80439523Y-116812142D01*
X80391904Y-116859761D01*
X80296666Y-116907380D01*
X80106190Y-116907380D01*
X80010952Y-116859761D01*
X80915714Y-116907380D02*
X80915714Y-116240714D01*
X80915714Y-115907380D02*
X80868095Y-115955000D01*
X80915714Y-116002619D01*
X80963333Y-115955000D01*
X80915714Y-115907380D01*
X80915714Y-116002619D01*
X81391904Y-116240714D02*
X81391904Y-116907380D01*
X81391904Y-116335952D02*
X81439523Y-116288333D01*
X81534761Y-116240714D01*
X81677619Y-116240714D01*
X81772857Y-116288333D01*
X81820476Y-116383571D01*
X81820476Y-116907380D01*
X82296666Y-116240714D02*
X82296666Y-116907380D01*
X82296666Y-116335952D02*
X82344285Y-116288333D01*
X82439523Y-116240714D01*
X82582380Y-116240714D01*
X82677619Y-116288333D01*
X82725238Y-116383571D01*
X82725238Y-116907380D01*
X83582380Y-116859761D02*
X83487142Y-116907380D01*
X83296666Y-116907380D01*
X83201428Y-116859761D01*
X83153809Y-116764523D01*
X83153809Y-116383571D01*
X83201428Y-116288333D01*
X83296666Y-116240714D01*
X83487142Y-116240714D01*
X83582380Y-116288333D01*
X83630000Y-116383571D01*
X83630000Y-116478809D01*
X83153809Y-116574047D01*
X84058571Y-116907380D02*
X84058571Y-116240714D01*
X84058571Y-116431190D02*
X84106190Y-116335952D01*
X84153809Y-116288333D01*
X84249047Y-116240714D01*
X84344285Y-116240714D01*
X97644285Y-114773571D02*
X97310952Y-114773571D01*
X97310952Y-115297380D02*
X97310952Y-114297380D01*
X97787142Y-114297380D01*
X98596666Y-114630714D02*
X98596666Y-115297380D01*
X98168095Y-114630714D02*
X98168095Y-115154523D01*
X98215714Y-115249761D01*
X98310952Y-115297380D01*
X98453809Y-115297380D01*
X98549047Y-115249761D01*
X98596666Y-115202142D01*
X98930000Y-114630714D02*
X99310952Y-114630714D01*
X99072857Y-114297380D02*
X99072857Y-115154523D01*
X99120476Y-115249761D01*
X99215714Y-115297380D01*
X99310952Y-115297380D01*
X100072857Y-114630714D02*
X100072857Y-115297380D01*
X99644285Y-114630714D02*
X99644285Y-115154523D01*
X99691904Y-115249761D01*
X99787142Y-115297380D01*
X99930000Y-115297380D01*
X100025238Y-115249761D01*
X100072857Y-115202142D01*
X100549047Y-115297380D02*
X100549047Y-114630714D01*
X100549047Y-114821190D02*
X100596666Y-114725952D01*
X100644285Y-114678333D01*
X100739523Y-114630714D01*
X100834761Y-114630714D01*
X101549047Y-115249761D02*
X101453809Y-115297380D01*
X101263333Y-115297380D01*
X101168095Y-115249761D01*
X101120476Y-115154523D01*
X101120476Y-114773571D01*
X101168095Y-114678333D01*
X101263333Y-114630714D01*
X101453809Y-114630714D01*
X101549047Y-114678333D01*
X101596666Y-114773571D01*
X101596666Y-114868809D01*
X101120476Y-114964047D01*
X99144285Y-116002619D02*
X99191904Y-115955000D01*
X99287142Y-115907380D01*
X99525238Y-115907380D01*
X99620476Y-115955000D01*
X99668095Y-116002619D01*
X99715714Y-116097857D01*
X99715714Y-116193095D01*
X99668095Y-116335952D01*
X99096666Y-116907380D01*
X99715714Y-116907380D01*
X85839523Y-118852380D02*
X86410952Y-118852380D01*
X86125238Y-119852380D02*
X86125238Y-118852380D01*
X86649047Y-119852380D02*
X87172857Y-119185714D01*
X86649047Y-119185714D02*
X87172857Y-119852380D01*
X78863470Y-88083108D02*
X77759555Y-88378901D01*
X78212915Y-87863033D02*
X78410110Y-88598977D01*
X57596700Y-125379790D02*
X58297768Y-124975028D01*
X58356437Y-124886170D01*
X58373867Y-124821121D01*
X58367487Y-124714833D01*
X58272249Y-124549876D01*
X58183391Y-124491207D01*
X58118342Y-124473777D01*
X58012054Y-124480157D01*
X57310986Y-124884919D01*
X57938916Y-123972526D02*
X57072890Y-124472526D01*
X57653201Y-123477654D01*
X56787176Y-123977654D01*
X57129392Y-122570389D02*
X56883666Y-123097160D01*
X57415106Y-123065261D02*
X56549081Y-123565261D01*
X56358605Y-123235346D01*
X56352225Y-123129058D01*
X56369655Y-123064010D01*
X56428324Y-122975151D01*
X56552042Y-122903723D01*
X56658330Y-122897343D01*
X56723379Y-122914773D01*
X56812237Y-122973442D01*
X57002713Y-123303356D01*
X56461474Y-122461140D02*
X56294807Y-122172465D01*
X56677011Y-121786842D02*
X56915106Y-122199236D01*
X56049081Y-122699236D01*
X55810986Y-122286842D01*
X55376034Y-121438247D02*
X55382414Y-121544535D01*
X55453843Y-121668253D01*
X55566511Y-121768161D01*
X55696608Y-121803021D01*
X55802896Y-121796641D01*
X55991663Y-121742642D01*
X56115381Y-121671214D01*
X56256529Y-121534736D01*
X56315198Y-121445878D01*
X56350057Y-121315780D01*
X56319868Y-121168253D01*
X56272249Y-121085774D01*
X56159581Y-120985866D01*
X56094532Y-120968436D01*
X55805857Y-121135103D01*
X55901095Y-121300060D01*
X55096700Y-121049663D02*
X55797768Y-120644901D01*
X55856437Y-120556043D01*
X55873867Y-120490994D01*
X55867487Y-120384706D01*
X55772249Y-120219749D01*
X55683391Y-120161080D01*
X55618342Y-120143650D01*
X55512054Y-120150030D01*
X54810986Y-120554792D01*
X55200821Y-119230006D02*
X55438916Y-119642399D01*
X54572890Y-120142399D01*
X54810528Y-119125427D02*
X54572432Y-118713034D01*
X55105582Y-119065048D02*
X54072890Y-119276373D01*
X54772249Y-118487698D01*
X53810986Y-118822741D02*
X53525271Y-118327869D01*
X54534154Y-118075305D02*
X53668128Y-118575305D01*
X53770998Y-117801099D02*
X53604331Y-117512424D01*
X53986535Y-117126801D02*
X54224630Y-117539194D01*
X53358605Y-118039194D01*
X53120509Y-117626801D01*
X53772249Y-116755647D02*
X52906224Y-117255647D01*
X52787176Y-117049451D01*
X52756987Y-116901923D01*
X52791846Y-116771826D01*
X52850515Y-116682967D01*
X52991663Y-116546490D01*
X53115381Y-116475061D01*
X53304148Y-116421063D01*
X53410436Y-116414683D01*
X53540534Y-116449542D01*
X53653201Y-116549451D01*
X53772249Y-116755647D01*
X51930033Y-115564836D02*
X51834795Y-115399879D01*
X51828415Y-115293590D01*
X51863275Y-115163493D01*
X52004423Y-115027015D01*
X52293098Y-114860349D01*
X52481865Y-114806350D01*
X52611962Y-114841209D01*
X52700821Y-114899879D01*
X52796059Y-115064836D01*
X52802438Y-115171124D01*
X52767579Y-115301222D01*
X52626431Y-115437699D01*
X52337756Y-115604366D01*
X52148989Y-115658364D01*
X52018892Y-115623505D01*
X51930033Y-115564836D01*
X51501462Y-114822528D02*
X52202530Y-114417766D01*
X52261199Y-114328908D01*
X52278629Y-114263859D01*
X52272249Y-114157571D01*
X52177011Y-113992614D01*
X52088153Y-113933945D01*
X52023104Y-113916515D01*
X51916816Y-113922895D01*
X51215747Y-114327657D01*
X51049081Y-114038981D02*
X50763367Y-113544110D01*
X51772249Y-113291546D02*
X50906224Y-113791546D01*
X87077619Y-124000000D02*
X86982381Y-123952380D01*
X86839524Y-123952380D01*
X86696667Y-124000000D01*
X86601429Y-124095238D01*
X86553810Y-124190476D01*
X86506191Y-124380952D01*
X86506191Y-124523809D01*
X86553810Y-124714285D01*
X86601429Y-124809523D01*
X86696667Y-124904761D01*
X86839524Y-124952380D01*
X86934762Y-124952380D01*
X87077619Y-124904761D01*
X87125238Y-124857142D01*
X87125238Y-124523809D01*
X86934762Y-124523809D01*
X81953470Y-87273108D02*
X80849555Y-87568901D01*
X72692537Y-90177439D02*
X71618602Y-90568319D01*
X63767703Y-93503767D02*
X62731922Y-93986759D01*
X113487619Y-124000000D02*
X113392381Y-123952380D01*
X113249524Y-123952380D01*
X113106667Y-124000000D01*
X113011429Y-124095238D01*
X112963810Y-124190476D01*
X112916191Y-124380952D01*
X112916191Y-124523809D01*
X112963810Y-124714285D01*
X113011429Y-124809523D01*
X113106667Y-124904761D01*
X113249524Y-124952380D01*
X113344762Y-124952380D01*
X113487619Y-124904761D01*
X113535238Y-124857142D01*
X113535238Y-124523809D01*
X113344762Y-124523809D01*
X104837619Y-124070000D02*
X104742381Y-124022380D01*
X104599524Y-124022380D01*
X104456667Y-124070000D01*
X104361429Y-124165238D01*
X104313810Y-124260476D01*
X104266191Y-124450952D01*
X104266191Y-124593809D01*
X104313810Y-124784285D01*
X104361429Y-124879523D01*
X104456667Y-124974761D01*
X104599524Y-125022380D01*
X104694762Y-125022380D01*
X104837619Y-124974761D01*
X104885238Y-124927142D01*
X104885238Y-124593809D01*
X104694762Y-124593809D01*
X112249523Y-118852380D02*
X112820952Y-118852380D01*
X112535238Y-119852380D02*
X112535238Y-118852380D01*
X113059047Y-119852380D02*
X113582857Y-119185714D01*
X113059047Y-119185714D02*
X113582857Y-119852380D01*
X52420842Y-111527573D02*
X53410585Y-110956144D01*
X53106190Y-111571773D02*
X52725238Y-110911944D01*
X58329157Y-119142426D02*
X57339414Y-119713855D01*
X57643809Y-119098226D02*
X58024761Y-119758055D01*
X67428318Y-88694446D02*
X66980845Y-88857313D01*
X67098964Y-89321072D01*
X67127425Y-89260038D01*
X67200633Y-89182718D01*
X67424369Y-89101284D01*
X67530150Y-89113458D01*
X67591184Y-89141919D01*
X67668505Y-89215127D01*
X67749938Y-89438863D01*
X67737764Y-89544644D01*
X67709304Y-89605678D01*
X67636096Y-89682999D01*
X67412360Y-89764432D01*
X67306578Y-89752258D01*
X67245544Y-89723798D01*
X67741548Y-88580439D02*
X68396799Y-89406125D01*
X68368010Y-88352426D01*
X69576186Y-87912686D02*
X69755175Y-87847539D01*
X69860957Y-87859713D01*
X69983025Y-87916634D01*
X70092918Y-88079337D01*
X70206925Y-88392568D01*
X70227325Y-88587843D01*
X70170403Y-88709911D01*
X70097196Y-88787232D01*
X69918207Y-88852379D01*
X69812425Y-88840205D01*
X69690357Y-88783283D01*
X69580463Y-88620581D01*
X69466457Y-88307350D01*
X69446057Y-88112074D01*
X69502978Y-87990006D01*
X69576186Y-87912686D01*
X70381637Y-87619526D02*
X70658511Y-88380229D01*
X70735831Y-88453437D01*
X70796865Y-88481898D01*
X70902646Y-88494072D01*
X71081635Y-88428925D01*
X71154843Y-88351604D01*
X71183304Y-88290570D01*
X71195478Y-88184789D01*
X70918604Y-87424086D01*
X71231835Y-87310079D02*
X71768802Y-87114639D01*
X71842339Y-88152052D02*
X71500319Y-87212359D01*
X103599523Y-118922380D02*
X104170952Y-118922380D01*
X103885238Y-119922380D02*
X103885238Y-118922380D01*
X104409047Y-119922380D02*
X104932857Y-119255714D01*
X104409047Y-119255714D02*
X104932857Y-119922380D01*
X115624285Y-114773571D02*
X115290952Y-114773571D01*
X115290952Y-115297380D02*
X115290952Y-114297380D01*
X115767142Y-114297380D01*
X116576666Y-114630714D02*
X116576666Y-115297380D01*
X116148095Y-114630714D02*
X116148095Y-115154523D01*
X116195714Y-115249761D01*
X116290952Y-115297380D01*
X116433809Y-115297380D01*
X116529047Y-115249761D01*
X116576666Y-115202142D01*
X116910000Y-114630714D02*
X117290952Y-114630714D01*
X117052857Y-114297380D02*
X117052857Y-115154523D01*
X117100476Y-115249761D01*
X117195714Y-115297380D01*
X117290952Y-115297380D01*
X118052857Y-114630714D02*
X118052857Y-115297380D01*
X117624285Y-114630714D02*
X117624285Y-115154523D01*
X117671904Y-115249761D01*
X117767142Y-115297380D01*
X117910000Y-115297380D01*
X118005238Y-115249761D01*
X118052857Y-115202142D01*
X118529047Y-115297380D02*
X118529047Y-114630714D01*
X118529047Y-114821190D02*
X118576666Y-114725952D01*
X118624285Y-114678333D01*
X118719523Y-114630714D01*
X118814761Y-114630714D01*
X119529047Y-115249761D02*
X119433809Y-115297380D01*
X119243333Y-115297380D01*
X119148095Y-115249761D01*
X119100476Y-115154523D01*
X119100476Y-114773571D01*
X119148095Y-114678333D01*
X119243333Y-114630714D01*
X119433809Y-114630714D01*
X119529047Y-114678333D01*
X119576666Y-114773571D01*
X119576666Y-114868809D01*
X119100476Y-114964047D01*
X117600476Y-116240714D02*
X117600476Y-116907380D01*
X117362380Y-115859761D02*
X117124285Y-116574047D01*
X117743333Y-116574047D01*
X77817619Y-124070000D02*
X77722381Y-124022380D01*
X77579524Y-124022380D01*
X77436667Y-124070000D01*
X77341429Y-124165238D01*
X77293810Y-124260476D01*
X77246191Y-124450952D01*
X77246191Y-124593809D01*
X77293810Y-124784285D01*
X77341429Y-124879523D01*
X77436667Y-124974761D01*
X77579524Y-125022380D01*
X77674762Y-125022380D01*
X77817619Y-124974761D01*
X77865238Y-124927142D01*
X77865238Y-124593809D01*
X77674762Y-124593809D01*
X59472296Y-95466232D02*
X60508077Y-94983240D01*
X60151184Y-95569996D02*
X59829189Y-94879476D01*
X55562426Y-115390842D02*
X56133855Y-116380585D01*
X62919157Y-127172426D02*
X61929414Y-127743855D01*
X62233809Y-127128226D02*
X62614761Y-127788055D01*
X94679523Y-118822380D02*
X95250952Y-118822380D01*
X94965238Y-119822380D02*
X94965238Y-118822380D01*
X95489047Y-119822380D02*
X96012857Y-119155714D01*
X95489047Y-119155714D02*
X96012857Y-119822380D01*
X60102426Y-123450842D02*
X60673855Y-124440585D01*
D11*
%TO.C,U3*%
X86040000Y-100750000D02*
X84240000Y-100750000D01*
X86040000Y-103870000D02*
X85240000Y-103870000D01*
X86040000Y-103870000D02*
X86840000Y-103870000D01*
X86040000Y-100750000D02*
X86840000Y-100750000D01*
%TO.C,C3*%
X88547836Y-84950000D02*
X88332164Y-84950000D01*
X88547836Y-84230000D02*
X88332164Y-84230000D01*
%TO.C,L1*%
D12*
X115834078Y-84450830D02*
G75*
G03*
X115834078Y-84450830I-150000J0D01*
G01*
D13*
X113533159Y-83978021D02*
X114112715Y-84133312D01*
X114112715Y-84133312D02*
X113957423Y-84712868D01*
X113957423Y-84712868D02*
X113377868Y-84557577D01*
X113377868Y-84557577D02*
X113533159Y-83978021D01*
G36*
X114112715Y-84133312D02*
G01*
X113957423Y-84712868D01*
X113377868Y-84557577D01*
X113533159Y-83978021D01*
X114112715Y-84133312D01*
G37*
X114112715Y-84133312D02*
X113957423Y-84712868D01*
X113377868Y-84557577D01*
X113533159Y-83978021D01*
X114112715Y-84133312D01*
D14*
%TO.C,J14*%
X138168396Y-132937114D02*
X125697630Y-125737114D01*
X130197630Y-117942886D02*
X131392745Y-118632886D01*
X130197630Y-117942886D02*
X129207630Y-119657616D01*
X125697630Y-125737114D02*
X126687630Y-124022384D01*
X135411103Y-120952886D02*
X142668396Y-125142886D01*
X142668396Y-125142886D02*
X138168396Y-132937114D01*
D15*
X126835194Y-121140000D02*
G75*
G03*
X126835194Y-121140000I-100000J0D01*
G01*
D11*
%TO.C,R1*%
X125097258Y-93917500D02*
X124622742Y-93917500D01*
X125097258Y-94962500D02*
X124622742Y-94962500D01*
D14*
%TO.C,U4*%
X123175000Y-101115000D02*
X123175000Y-97565000D01*
X123175000Y-101115000D02*
X123175000Y-97565000D01*
X113175000Y-101115000D02*
X113175000Y-97565000D01*
X113175000Y-101115000D02*
X113175000Y-97565000D01*
D15*
X112520000Y-102090000D02*
G75*
G03*
X112520000Y-102090000I-100000J0D01*
G01*
D11*
%TO.C,C5*%
X78632164Y-99600000D02*
X78847836Y-99600000D01*
X78632164Y-98880000D02*
X78847836Y-98880000D01*
%TO.C,J5*%
X57786448Y-102299385D02*
X51620347Y-105859385D01*
X51292501Y-105771539D02*
X52042501Y-107070577D01*
X51620347Y-105859385D02*
X55530347Y-112631704D01*
X57786448Y-102299385D02*
X61696448Y-109071704D01*
X61696448Y-109071704D02*
X55530347Y-112631704D01*
X52799385Y-104901539D02*
X51292501Y-105771539D01*
X52971347Y-105079385D02*
X56881347Y-111851704D01*
X56059457Y-107444149D02*
G75*
G03*
X57112375Y-106836372I-189459J1544151D01*
G01*
X57414149Y-105710543D02*
G75*
G03*
X56806372Y-104657625I-1544151J-189459D01*
G01*
X54325852Y-106089457D02*
G75*
G03*
X54536409Y-106701139I1544137J189453D01*
G01*
X55680543Y-104355851D02*
G75*
G03*
X54627625Y-104963628I189459J-1544151D01*
G01*
X54523331Y-106677500D02*
G75*
G03*
X54934178Y-107141878I1346667J777498D01*
G01*
X59175000Y-108931089D02*
G75*
G03*
X59175000Y-108931089I-1555000J0D01*
G01*
%TO.C,J6*%
X62516448Y-110109385D02*
X56350347Y-113669385D01*
X56022501Y-113581539D02*
X56772501Y-114880577D01*
X62516448Y-110109385D02*
X66426448Y-116881704D01*
X57529385Y-112711539D02*
X56022501Y-113581539D01*
X57701347Y-112889385D02*
X61611347Y-119661704D01*
X56350347Y-113669385D02*
X60260347Y-120441704D01*
X66426448Y-116881704D02*
X60260347Y-120441704D01*
X59253331Y-114487500D02*
G75*
G03*
X59664178Y-114951878I1346667J777498D01*
G01*
X59055852Y-113899457D02*
G75*
G03*
X59266409Y-114511139I1544137J189453D01*
G01*
X62144149Y-113520543D02*
G75*
G03*
X61536372Y-112467625I-1544151J-189459D01*
G01*
X60789457Y-115254149D02*
G75*
G03*
X61842375Y-114646372I-189459J1544151D01*
G01*
X60410543Y-112165851D02*
G75*
G03*
X59357625Y-112773628I189459J-1544151D01*
G01*
X63905000Y-116741089D02*
G75*
G03*
X63905000Y-116741089I-1555000J0D01*
G01*
%TO.C,C7*%
X90140000Y-102402164D02*
X90140000Y-102617836D01*
X89420000Y-102402164D02*
X89420000Y-102617836D01*
%TO.C,J9*%
X84639173Y-89722435D02*
X84188828Y-88041724D01*
X78308374Y-97237019D02*
X76465582Y-90359627D01*
X85861914Y-95213054D02*
X84019122Y-88335662D01*
X84019122Y-88335662D02*
X76465582Y-90359627D01*
X84188828Y-88041724D02*
X82739939Y-88429952D01*
X84422880Y-89842507D02*
X76869340Y-91866472D01*
X85861914Y-95213054D02*
X78308374Y-97237019D01*
X82663346Y-93970569D02*
G75*
G03*
X83837691Y-93656016I216652J1540572D01*
G01*
X82477536Y-90927985D02*
G75*
G03*
X81922646Y-91204643I402462J-1502012D01*
G01*
X84420569Y-92646654D02*
G75*
G03*
X84106016Y-91472309I-1540572J216652D01*
G01*
X81339431Y-92213346D02*
G75*
G03*
X81653984Y-93387691I1540572J-216652D01*
G01*
X83096654Y-90889432D02*
G75*
G03*
X82451318Y-90934500I-216655J-1540556D01*
G01*
X81054260Y-93335867D02*
G75*
G03*
X81054260Y-93335867I-1555000J0D01*
G01*
%TO.C,U6*%
X143343523Y-123033523D02*
X121346477Y-110333523D01*
X134046477Y-88336477D02*
X156043523Y-101036477D01*
X156043523Y-101036477D02*
X143343523Y-123033523D01*
X134046477Y-88336477D02*
X121346477Y-110333523D01*
%TO.C,C4*%
X111962164Y-89210000D02*
X112177836Y-89210000D01*
X111962164Y-88490000D02*
X112177836Y-88490000D01*
%TO.C,SW1*%
X121355539Y-93949358D02*
X115446692Y-92907469D01*
X116054461Y-89460642D02*
X121963308Y-90502531D01*
X115576929Y-92168863D02*
X115446692Y-92907469D01*
X121355539Y-93949358D02*
X121485775Y-93210752D01*
X121963308Y-90502531D02*
X121833071Y-91241137D01*
X115924225Y-90199248D02*
X116054461Y-89460642D01*
%TO.C,C6*%
X116657836Y-104240000D02*
X116442164Y-104240000D01*
X116657836Y-103520000D02*
X116442164Y-103520000D01*
%TO.C,J4*%
X79300000Y-122730000D02*
X79300000Y-121130000D01*
X79300000Y-120190000D02*
X79300000Y-118590000D01*
X78700000Y-118010000D02*
X78700000Y-125850000D01*
X79300000Y-123670000D02*
X78700000Y-123670000D01*
X84720000Y-124220000D02*
X83720000Y-124220000D01*
X78700000Y-122730000D02*
X79300000Y-122730000D01*
X84720000Y-125850000D02*
X84720000Y-118010000D01*
X78700000Y-125270000D02*
X79300000Y-125270000D01*
X79730000Y-126140000D02*
X83730000Y-126140000D01*
X79300000Y-118590000D02*
X78700000Y-118590000D01*
X84720000Y-119640000D02*
X83720000Y-119640000D01*
X84720000Y-124470000D02*
X83720000Y-124470000D01*
X83720000Y-124470000D02*
X83190000Y-124220000D01*
X83720000Y-119390000D02*
X84720000Y-119390000D01*
X83720000Y-124470000D02*
X83720000Y-119390000D01*
X83190000Y-119640000D02*
X83720000Y-119390000D01*
X78700000Y-125850000D02*
X84720000Y-125850000D01*
X79300000Y-121130000D02*
X78700000Y-121130000D01*
X83190000Y-124220000D02*
X83190000Y-119640000D01*
X84720000Y-118010000D02*
X78700000Y-118010000D01*
X79300000Y-125270000D02*
X79300000Y-123670000D01*
X78700000Y-120190000D02*
X79300000Y-120190000D01*
%TO.C,J13*%
X81003530Y-151111082D02*
X81832267Y-146411082D01*
X74320000Y-142739338D02*
X125420000Y-142739338D01*
X126480000Y-143799338D02*
X126480000Y-154299338D01*
X118736470Y-151111082D02*
X117907733Y-146411082D01*
X125420000Y-155359338D02*
X74320000Y-155359338D01*
X116272952Y-145039338D02*
X83467048Y-145039338D01*
X83500000Y-156253676D02*
X83000000Y-156253676D01*
X117101689Y-153059338D02*
X82638311Y-153059338D01*
X83000000Y-156253676D02*
X83250000Y-155820663D01*
X73260000Y-154299338D02*
X73260000Y-143799338D01*
X83250000Y-155820663D02*
X83500000Y-156253676D01*
X125420000Y-155359338D02*
G75*
G03*
X126480000Y-154299338I-1J1060001D01*
G01*
X81003530Y-151111082D02*
G75*
G03*
X82638311Y-153059338I1634781J-288256D01*
G01*
X117907733Y-146411082D02*
G75*
G03*
X116272952Y-145039338I-1634780J-288255D01*
G01*
X83467048Y-145039338D02*
G75*
G03*
X81832267Y-146411082I-1J-1659999D01*
G01*
X117101689Y-153059338D02*
G75*
G03*
X118736470Y-151111082I1J1659999D01*
G01*
X74320000Y-142739338D02*
G75*
G03*
X73260000Y-143799338I1J-1060001D01*
G01*
X73260000Y-154299338D02*
G75*
G03*
X74320000Y-155359338I1060001J1D01*
G01*
X126480000Y-143799338D02*
G75*
G03*
X125420000Y-142739338I-1060001J-1D01*
G01*
%TO.C,G\u002A\u002A\u002A*%
G36*
X77529363Y-107084006D02*
G01*
X77760955Y-107084168D01*
X77962252Y-107084492D01*
X78135613Y-107085025D01*
X78283396Y-107085812D01*
X78407958Y-107086899D01*
X78511658Y-107088330D01*
X78596853Y-107090153D01*
X78665902Y-107092411D01*
X78721162Y-107095150D01*
X78764992Y-107098417D01*
X78799750Y-107102256D01*
X78827792Y-107106712D01*
X78851479Y-107111833D01*
X78862867Y-107114775D01*
X79053574Y-107183426D01*
X79223438Y-107279840D01*
X79371211Y-107402766D01*
X79495644Y-107550951D01*
X79595487Y-107723144D01*
X79669492Y-107918094D01*
X79671508Y-107925000D01*
X79685232Y-107975364D01*
X79695432Y-108022483D01*
X79702605Y-108072736D01*
X79707249Y-108132507D01*
X79709859Y-108208178D01*
X79710933Y-108306130D01*
X79710970Y-108431861D01*
X79709968Y-108570343D01*
X79707403Y-108679681D01*
X79702902Y-108765722D01*
X79696097Y-108834309D01*
X79686618Y-108891291D01*
X79680076Y-108920022D01*
X79618393Y-109097454D01*
X79527576Y-109258769D01*
X79410724Y-109401514D01*
X79270935Y-109523236D01*
X79111308Y-109621482D01*
X78934941Y-109693800D01*
X78744935Y-109737738D01*
X78632554Y-109749097D01*
X78559736Y-109753597D01*
X78502146Y-109758085D01*
X78467240Y-109761924D01*
X78460248Y-109763766D01*
X78470580Y-109778209D01*
X78500364Y-109818067D01*
X78547783Y-109880947D01*
X78611018Y-109964453D01*
X78688253Y-110066192D01*
X78777670Y-110183770D01*
X78877451Y-110314794D01*
X78985779Y-110456868D01*
X79100836Y-110607600D01*
X79112865Y-110623350D01*
X79230228Y-110777011D01*
X79342427Y-110923932D01*
X79447458Y-111061485D01*
X79543318Y-111187046D01*
X79628001Y-111297989D01*
X79699504Y-111391687D01*
X79755823Y-111465515D01*
X79794952Y-111516847D01*
X79814888Y-111543058D01*
X79815150Y-111543404D01*
X79864817Y-111609049D01*
X78623484Y-111609049D01*
X77918040Y-110679918D01*
X77212595Y-109750786D01*
X76895519Y-109756520D01*
X76766325Y-109759708D01*
X76667025Y-109764908D01*
X76592510Y-109773484D01*
X76537671Y-109786800D01*
X76497398Y-109806222D01*
X76466582Y-109833112D01*
X76440112Y-109868837D01*
X76433160Y-109879989D01*
X76407369Y-109931069D01*
X76387957Y-109991660D01*
X76374339Y-110066617D01*
X76365929Y-110160801D01*
X76362141Y-110279068D01*
X76362389Y-110426277D01*
X76362917Y-110462460D01*
X76368381Y-110795058D01*
X77115773Y-110803811D01*
X77863165Y-110812563D01*
X78161706Y-111204142D01*
X78238926Y-111305654D01*
X78308729Y-111397852D01*
X78368426Y-111477151D01*
X78415329Y-111539962D01*
X78446748Y-111582699D01*
X78459995Y-111601776D01*
X78460248Y-111602385D01*
X78443161Y-111603377D01*
X78393567Y-111604325D01*
X78313971Y-111605217D01*
X78206879Y-111606043D01*
X78074793Y-111606791D01*
X77920219Y-111607452D01*
X77745661Y-111608013D01*
X77553622Y-111608464D01*
X77346608Y-111608794D01*
X77127123Y-111608992D01*
X76927230Y-111609049D01*
X75394212Y-111609049D01*
X75401137Y-110755672D01*
X75402840Y-110550889D01*
X75404603Y-110377610D01*
X75406803Y-110232328D01*
X75409819Y-110111537D01*
X75414028Y-110011732D01*
X75419807Y-109929406D01*
X75427535Y-109861053D01*
X75437590Y-109803168D01*
X75450348Y-109752245D01*
X75466188Y-109704778D01*
X75485488Y-109657261D01*
X75508625Y-109606188D01*
X75529850Y-109561052D01*
X75626091Y-109391657D01*
X75742938Y-109249439D01*
X75882256Y-109132833D01*
X76045914Y-109040277D01*
X76235154Y-108970389D01*
X76259201Y-108964445D01*
X76289578Y-108959271D01*
X76328974Y-108954782D01*
X76380078Y-108950893D01*
X76445581Y-108947518D01*
X76528170Y-108944572D01*
X76630537Y-108941969D01*
X76755371Y-108939625D01*
X76905360Y-108937453D01*
X77083195Y-108935368D01*
X77291565Y-108933284D01*
X77448070Y-108931860D01*
X77673127Y-108929844D01*
X77865820Y-108928008D01*
X78028793Y-108926248D01*
X78164690Y-108924458D01*
X78276156Y-108922534D01*
X78365836Y-108920372D01*
X78436375Y-108917868D01*
X78490416Y-108914916D01*
X78530605Y-108911413D01*
X78559585Y-108907254D01*
X78580002Y-108902335D01*
X78594501Y-108896550D01*
X78605724Y-108889796D01*
X78611082Y-108885913D01*
X78651876Y-108853901D01*
X78682300Y-108823553D01*
X78703984Y-108789143D01*
X78718557Y-108744945D01*
X78727647Y-108685231D01*
X78732883Y-108604276D01*
X78735895Y-108496353D01*
X78736852Y-108443756D01*
X78738519Y-108331675D01*
X78738771Y-108248464D01*
X78737055Y-108187990D01*
X78732819Y-108144122D01*
X78725508Y-108110731D01*
X78714572Y-108081685D01*
X78701841Y-108055499D01*
X78655411Y-107988119D01*
X78590719Y-107941094D01*
X78583452Y-107937340D01*
X78505346Y-107897953D01*
X77139275Y-107897960D01*
X75773205Y-107897967D01*
X75781155Y-107083963D01*
X77265119Y-107083963D01*
X77529363Y-107084006D01*
G37*
%TO.C,R4*%
X112146359Y-86730000D02*
X112453641Y-86730000D01*
X112146359Y-87490000D02*
X112453641Y-87490000D01*
D14*
%TO.C,CR1*%
X78528500Y-104798500D02*
X78528500Y-102098500D01*
X80128500Y-102098500D02*
X80128500Y-104798500D01*
D13*
X80128500Y-102547056D02*
X80128500Y-103148500D01*
X80128500Y-103148500D02*
X78527216Y-103148500D01*
X78527216Y-103148500D02*
X78527216Y-102547056D01*
X78527216Y-102547056D02*
X80128500Y-102547056D01*
G36*
X80128500Y-103148500D02*
G01*
X78527216Y-103148500D01*
X78527216Y-102547056D01*
X80128500Y-102547056D01*
X80128500Y-103148500D01*
G37*
X80128500Y-103148500D02*
X78527216Y-103148500D01*
X78527216Y-102547056D01*
X80128500Y-102547056D01*
X80128500Y-103148500D01*
D11*
%TO.C,U2*%
X75330000Y-103240000D02*
X77005000Y-103240000D01*
X75330000Y-100120000D02*
X74680000Y-100120000D01*
X75330000Y-103240000D02*
X74680000Y-103240000D01*
X75330000Y-100120000D02*
X75980000Y-100120000D01*
%TO.C,G\u002A\u002A\u002A*%
G36*
X118469363Y-107034006D02*
G01*
X118700955Y-107034168D01*
X118902252Y-107034492D01*
X119075613Y-107035025D01*
X119223396Y-107035812D01*
X119347958Y-107036899D01*
X119451658Y-107038330D01*
X119536853Y-107040153D01*
X119605902Y-107042411D01*
X119661162Y-107045150D01*
X119704992Y-107048417D01*
X119739750Y-107052256D01*
X119767792Y-107056712D01*
X119791479Y-107061833D01*
X119802867Y-107064775D01*
X119993574Y-107133426D01*
X120163438Y-107229840D01*
X120311211Y-107352766D01*
X120435644Y-107500951D01*
X120535487Y-107673144D01*
X120609492Y-107868094D01*
X120611508Y-107875000D01*
X120625232Y-107925364D01*
X120635432Y-107972483D01*
X120642605Y-108022736D01*
X120647249Y-108082507D01*
X120649859Y-108158178D01*
X120650933Y-108256130D01*
X120650970Y-108381861D01*
X120649968Y-108520343D01*
X120647403Y-108629681D01*
X120642902Y-108715722D01*
X120636097Y-108784309D01*
X120626618Y-108841291D01*
X120620076Y-108870022D01*
X120558393Y-109047454D01*
X120467576Y-109208769D01*
X120350724Y-109351514D01*
X120210935Y-109473236D01*
X120051308Y-109571482D01*
X119874941Y-109643800D01*
X119684935Y-109687738D01*
X119572554Y-109699097D01*
X119499736Y-109703597D01*
X119442146Y-109708085D01*
X119407240Y-109711924D01*
X119400248Y-109713766D01*
X119410580Y-109728209D01*
X119440364Y-109768067D01*
X119487783Y-109830947D01*
X119551018Y-109914453D01*
X119628253Y-110016192D01*
X119717670Y-110133770D01*
X119817451Y-110264794D01*
X119925779Y-110406868D01*
X120040836Y-110557600D01*
X120052865Y-110573350D01*
X120170228Y-110727011D01*
X120282427Y-110873932D01*
X120387458Y-111011485D01*
X120483318Y-111137046D01*
X120568001Y-111247989D01*
X120639504Y-111341687D01*
X120695823Y-111415515D01*
X120734952Y-111466847D01*
X120754888Y-111493058D01*
X120755150Y-111493404D01*
X120804817Y-111559049D01*
X119563484Y-111559049D01*
X118858040Y-110629918D01*
X118152595Y-109700786D01*
X117835519Y-109706520D01*
X117706325Y-109709708D01*
X117607025Y-109714908D01*
X117532510Y-109723484D01*
X117477671Y-109736800D01*
X117437398Y-109756222D01*
X117406582Y-109783112D01*
X117380112Y-109818837D01*
X117373160Y-109829989D01*
X117347369Y-109881069D01*
X117327957Y-109941660D01*
X117314339Y-110016617D01*
X117305929Y-110110801D01*
X117302141Y-110229068D01*
X117302389Y-110376277D01*
X117302917Y-110412460D01*
X117308381Y-110745058D01*
X118055773Y-110753811D01*
X118803165Y-110762563D01*
X119101706Y-111154142D01*
X119178926Y-111255654D01*
X119248729Y-111347852D01*
X119308426Y-111427151D01*
X119355329Y-111489962D01*
X119386748Y-111532699D01*
X119399995Y-111551776D01*
X119400248Y-111552385D01*
X119383161Y-111553377D01*
X119333567Y-111554325D01*
X119253971Y-111555217D01*
X119146879Y-111556043D01*
X119014793Y-111556791D01*
X118860219Y-111557452D01*
X118685661Y-111558013D01*
X118493622Y-111558464D01*
X118286608Y-111558794D01*
X118067123Y-111558992D01*
X117867230Y-111559049D01*
X116334212Y-111559049D01*
X116341137Y-110705672D01*
X116342840Y-110500889D01*
X116344603Y-110327610D01*
X116346803Y-110182328D01*
X116349819Y-110061537D01*
X116354028Y-109961732D01*
X116359807Y-109879406D01*
X116367535Y-109811053D01*
X116377590Y-109753168D01*
X116390348Y-109702245D01*
X116406188Y-109654778D01*
X116425488Y-109607261D01*
X116448625Y-109556188D01*
X116469850Y-109511052D01*
X116566091Y-109341657D01*
X116682938Y-109199439D01*
X116822256Y-109082833D01*
X116985914Y-108990277D01*
X117175154Y-108920389D01*
X117199201Y-108914445D01*
X117229578Y-108909271D01*
X117268974Y-108904782D01*
X117320078Y-108900893D01*
X117385581Y-108897518D01*
X117468170Y-108894572D01*
X117570537Y-108891969D01*
X117695371Y-108889625D01*
X117845360Y-108887453D01*
X118023195Y-108885368D01*
X118231565Y-108883284D01*
X118388070Y-108881860D01*
X118613127Y-108879844D01*
X118805820Y-108878008D01*
X118968793Y-108876248D01*
X119104690Y-108874458D01*
X119216156Y-108872534D01*
X119305836Y-108870372D01*
X119376375Y-108867868D01*
X119430416Y-108864916D01*
X119470605Y-108861413D01*
X119499585Y-108857254D01*
X119520002Y-108852335D01*
X119534501Y-108846550D01*
X119545724Y-108839796D01*
X119551082Y-108835913D01*
X119591876Y-108803901D01*
X119622300Y-108773553D01*
X119643984Y-108739143D01*
X119658557Y-108694945D01*
X119667647Y-108635231D01*
X119672883Y-108554276D01*
X119675895Y-108446353D01*
X119676852Y-108393756D01*
X119678519Y-108281675D01*
X119678771Y-108198464D01*
X119677055Y-108137990D01*
X119672819Y-108094122D01*
X119665508Y-108060731D01*
X119654572Y-108031685D01*
X119641841Y-108005499D01*
X119595411Y-107938119D01*
X119530719Y-107891094D01*
X119523452Y-107887340D01*
X119445346Y-107847953D01*
X118079275Y-107847960D01*
X116713205Y-107847967D01*
X116721155Y-107033963D01*
X118205119Y-107033963D01*
X118469363Y-107034006D01*
G37*
%TO.C,J7*%
X77233126Y-97732573D02*
X69884729Y-100407170D01*
X77233126Y-97732573D02*
X74797942Y-91041961D01*
X75536499Y-92369416D02*
X74941384Y-90734350D01*
X74797942Y-91041961D02*
X67449546Y-93716559D01*
X69884729Y-100407170D02*
X67449546Y-93716559D01*
X75331494Y-92507882D02*
X67983097Y-95182480D01*
X74941384Y-90734350D02*
X73531845Y-91247381D01*
X74101560Y-93666412D02*
G75*
G03*
X73462608Y-93767553I-81562J-1553576D01*
G01*
X72466411Y-95138440D02*
G75*
G03*
X72882118Y-96280901I1553591J-81558D01*
G01*
X75573589Y-95301560D02*
G75*
G03*
X75157882Y-94159099I-1553591J81558D01*
G01*
X73488159Y-93758777D02*
G75*
G03*
X72959492Y-94082745I531839J-1461221D01*
G01*
X73938440Y-96773589D02*
G75*
G03*
X75080901Y-96357882I81558J1553591D01*
G01*
X72286076Y-96417071D02*
G75*
G03*
X72286076Y-96417071I-1555000J0D01*
G01*
%TO.C,C1*%
X112082164Y-91730000D02*
X112297836Y-91730000D01*
X112082164Y-92450000D02*
X112297836Y-92450000D01*
D16*
%TO.C,U5*%
X112620000Y-93215800D02*
X112620000Y-95115800D01*
X112620000Y-95115800D02*
X111470000Y-95115800D01*
X111470000Y-95115800D02*
X111470000Y-93215800D01*
X111470000Y-93215800D02*
X112620000Y-93215800D01*
D17*
X111721500Y-93415800D02*
G75*
G03*
X111721500Y-93415800I-51500J0D01*
G01*
D11*
%TO.C,U1*%
X91010000Y-82075000D02*
X90630000Y-82075000D01*
X91010000Y-101400000D02*
X92010000Y-101400000D01*
X91010000Y-75655000D02*
X109250000Y-75655000D01*
X109250000Y-75655000D02*
X109250000Y-82075000D01*
X91010000Y-75655000D02*
X91010000Y-82075000D01*
X109250000Y-100620000D02*
X109250000Y-101400000D01*
X109250000Y-101400000D02*
X108250000Y-101400000D01*
X91010000Y-100620000D02*
X91010000Y-101400000D01*
%TO.C,J12*%
X88135000Y-121130000D02*
X87535000Y-121130000D01*
X87535000Y-122730000D02*
X88135000Y-122730000D01*
X93555000Y-118010000D02*
X87535000Y-118010000D01*
X88135000Y-118590000D02*
X87535000Y-118590000D01*
X92555000Y-124470000D02*
X92025000Y-124220000D01*
X92025000Y-124220000D02*
X92025000Y-119640000D01*
X87535000Y-125270000D02*
X88135000Y-125270000D01*
X88135000Y-123670000D02*
X87535000Y-123670000D01*
X87535000Y-125850000D02*
X93555000Y-125850000D01*
X93555000Y-119640000D02*
X92555000Y-119640000D01*
X92555000Y-124470000D02*
X92555000Y-119390000D01*
X87535000Y-120190000D02*
X88135000Y-120190000D01*
X88135000Y-125270000D02*
X88135000Y-123670000D01*
X93555000Y-125850000D02*
X93555000Y-118010000D01*
X93555000Y-124470000D02*
X92555000Y-124470000D01*
X93555000Y-124220000D02*
X92555000Y-124220000D01*
X88135000Y-120190000D02*
X88135000Y-118590000D01*
X92555000Y-119390000D02*
X93555000Y-119390000D01*
X88565000Y-126140000D02*
X92565000Y-126140000D01*
X88135000Y-122730000D02*
X88135000Y-121130000D01*
X87535000Y-118010000D02*
X87535000Y-125850000D01*
X92025000Y-119640000D02*
X92555000Y-119390000D01*
%TO.C,J2*%
X82638311Y-129989338D02*
X117101689Y-129989338D01*
X83250000Y-127428013D02*
X83000000Y-126995000D01*
X126480000Y-128949338D02*
X126480000Y-139449338D01*
X125420000Y-140509338D02*
X74320000Y-140509338D01*
X83500000Y-126995000D02*
X83250000Y-127428013D01*
X81003530Y-131937594D02*
X81902798Y-137037594D01*
X74320000Y-127889338D02*
X125420000Y-127889338D01*
X83000000Y-126995000D02*
X83500000Y-126995000D01*
X83537579Y-138409338D02*
X116202421Y-138409338D01*
X118736470Y-131937594D02*
X117837202Y-137037594D01*
X73260000Y-139449338D02*
X73260000Y-128949338D01*
X126480000Y-128949338D02*
G75*
G03*
X125420000Y-127889338I-1060001J-1D01*
G01*
X118736470Y-131937594D02*
G75*
G03*
X117101689Y-129989338I-1634781J288256D01*
G01*
X125420000Y-140509338D02*
G75*
G03*
X126480000Y-139449338I-1J1060001D01*
G01*
X82638311Y-129989338D02*
G75*
G03*
X81003530Y-131937594I-1J-1659999D01*
G01*
X73260000Y-139449338D02*
G75*
G03*
X74320000Y-140509338I1060001J1D01*
G01*
X74320000Y-127889338D02*
G75*
G03*
X73260000Y-128949338I1J-1060001D01*
G01*
X116202421Y-138409338D02*
G75*
G03*
X117837202Y-137037594I1J1659999D01*
G01*
X81902798Y-137037594D02*
G75*
G03*
X83537579Y-138409338I1634780J288255D01*
G01*
%TO.C,C2*%
X88447836Y-85570000D02*
X88232164Y-85570000D01*
X88447836Y-86290000D02*
X88232164Y-86290000D01*
%TO.C,J15*%
X96970000Y-122730000D02*
X96970000Y-121130000D01*
X96370000Y-122730000D02*
X96970000Y-122730000D01*
X96970000Y-120190000D02*
X96970000Y-118590000D01*
X101390000Y-124470000D02*
X100860000Y-124220000D01*
X96370000Y-125850000D02*
X102390000Y-125850000D01*
X100860000Y-124220000D02*
X100860000Y-119640000D01*
X97400000Y-126140000D02*
X101400000Y-126140000D01*
X96370000Y-120190000D02*
X96970000Y-120190000D01*
X96370000Y-125270000D02*
X96970000Y-125270000D01*
X102390000Y-124220000D02*
X101390000Y-124220000D01*
X102390000Y-124470000D02*
X101390000Y-124470000D01*
X96970000Y-121130000D02*
X96370000Y-121130000D01*
X101390000Y-119390000D02*
X102390000Y-119390000D01*
X96970000Y-118590000D02*
X96370000Y-118590000D01*
X102390000Y-119640000D02*
X101390000Y-119640000D01*
X101390000Y-124470000D02*
X101390000Y-119390000D01*
X96970000Y-123670000D02*
X96370000Y-123670000D01*
X102390000Y-125850000D02*
X102390000Y-118010000D01*
X100860000Y-119640000D02*
X101390000Y-119390000D01*
X102390000Y-118010000D02*
X96370000Y-118010000D01*
X96970000Y-125270000D02*
X96970000Y-123670000D01*
X96370000Y-118010000D02*
X96370000Y-125850000D01*
%TO.C,J3*%
X71006448Y-124921704D02*
X64840347Y-128481704D01*
X60602501Y-121621539D02*
X61352501Y-122920577D01*
X62281347Y-120929385D02*
X66191347Y-127701704D01*
X60930347Y-121709385D02*
X64840347Y-128481704D01*
X67096448Y-118149385D02*
X71006448Y-124921704D01*
X62109385Y-120751539D02*
X60602501Y-121621539D01*
X67096448Y-118149385D02*
X60930347Y-121709385D01*
X63635852Y-121939457D02*
G75*
G03*
X63846409Y-122551139I1544137J189453D01*
G01*
X66724149Y-121560543D02*
G75*
G03*
X66116372Y-120507625I-1544151J-189459D01*
G01*
X63833331Y-122527500D02*
G75*
G03*
X64244178Y-122991878I1346667J777498D01*
G01*
X64990543Y-120205851D02*
G75*
G03*
X63937625Y-120813628I189459J-1544151D01*
G01*
X65369457Y-123294149D02*
G75*
G03*
X66422375Y-122686372I-189459J1544151D01*
G01*
X68485000Y-124781089D02*
G75*
G03*
X68485000Y-124781089I-1555000J0D01*
G01*
%TO.C,J1*%
X124317117Y-84450531D02*
X124233953Y-84841790D01*
X121408587Y-88514624D02*
X121315026Y-88954790D01*
X116057032Y-87141977D02*
X116467854Y-87229300D01*
X116878283Y-83278294D02*
X116961447Y-82887035D01*
X116468697Y-85205245D02*
X116057032Y-87141977D01*
X120874860Y-88861230D02*
X121315026Y-88954790D01*
X123824367Y-86768741D02*
X123412702Y-88705473D01*
X123412702Y-88705473D02*
X123001880Y-88618150D01*
%TO.C,R2*%
X75667258Y-104982500D02*
X75192742Y-104982500D01*
X75667258Y-103937500D02*
X75192742Y-103937500D01*
%TO.C,R3*%
X82562500Y-102607258D02*
X82562500Y-102132742D01*
X81517500Y-102607258D02*
X81517500Y-102132742D01*
%TO.C,G\u002A\u002A\u002A*%
G36*
X81511072Y-106032335D02*
G01*
X81749876Y-106033823D01*
X81921387Y-106039431D01*
X82042111Y-106051098D01*
X82128554Y-106070763D01*
X82197224Y-106100366D01*
X82224658Y-106116182D01*
X82361905Y-106241717D01*
X82434232Y-106399063D01*
X82438742Y-106567976D01*
X82372534Y-106728210D01*
X82321144Y-106789857D01*
X82227259Y-106867606D01*
X82144865Y-106909838D01*
X82128046Y-106912376D01*
X82077912Y-106936112D01*
X82082908Y-106978675D01*
X82105100Y-107045491D01*
X82108349Y-107062504D01*
X82146518Y-107071529D01*
X82246062Y-107077712D01*
X82370313Y-107079634D01*
X82519875Y-107074013D01*
X82636059Y-107050413D01*
X82753261Y-106997925D01*
X82892973Y-106913844D01*
X83074570Y-106779257D01*
X83174065Y-106657544D01*
X83192023Y-106547662D01*
X83139165Y-106458251D01*
X83050029Y-106414888D01*
X82910483Y-106393732D01*
X82751664Y-106397573D01*
X82653234Y-106414700D01*
X82611769Y-106403588D01*
X82587869Y-106334432D01*
X82577809Y-106236701D01*
X82576416Y-106131391D01*
X82597597Y-106061449D01*
X82655005Y-106019648D01*
X82762294Y-105998759D01*
X82933118Y-105991556D01*
X83042286Y-105990836D01*
X83315157Y-106011097D01*
X83518176Y-106074661D01*
X83654611Y-106183836D01*
X83727729Y-106340929D01*
X83743003Y-106485611D01*
X83711183Y-106677416D01*
X83611160Y-106845579D01*
X83436088Y-107000389D01*
X83372123Y-107043102D01*
X83181706Y-107163861D01*
X83784917Y-107163861D01*
X83784917Y-107541089D01*
X81964286Y-107541089D01*
X81742918Y-107322471D01*
X81521551Y-107103853D01*
X81521551Y-107541089D01*
X80934752Y-107541089D01*
X80934752Y-106535148D01*
X81521551Y-106535148D01*
X81526080Y-106609415D01*
X81554041Y-106646558D01*
X81626991Y-106659430D01*
X81732437Y-106660891D01*
X81877446Y-106651054D01*
X81953110Y-106619317D01*
X81967654Y-106597486D01*
X81966359Y-106508328D01*
X81893647Y-106443834D01*
X81760184Y-106411640D01*
X81705032Y-106409406D01*
X81591088Y-106413327D01*
X81537885Y-106435619D01*
X81522375Y-106492079D01*
X81521551Y-106535148D01*
X80934752Y-106535148D01*
X80934752Y-106032178D01*
X81511072Y-106032335D01*
G37*
G36*
X114246056Y-106032335D02*
G01*
X114484860Y-106033823D01*
X114656370Y-106039431D01*
X114777094Y-106051098D01*
X114863538Y-106070763D01*
X114932207Y-106100366D01*
X114959642Y-106116182D01*
X115096888Y-106241717D01*
X115169216Y-106399063D01*
X115173726Y-106567976D01*
X115107518Y-106728210D01*
X115056128Y-106789857D01*
X114962243Y-106867606D01*
X114879848Y-106909838D01*
X114863030Y-106912376D01*
X114812895Y-106936112D01*
X114817891Y-106978675D01*
X114840084Y-107045491D01*
X114843333Y-107062504D01*
X114881254Y-107072106D01*
X114979069Y-107078473D01*
X115073861Y-107080033D01*
X115304389Y-107080033D01*
X115304389Y-107541089D01*
X114699269Y-107541089D01*
X114477902Y-107322471D01*
X114256534Y-107103853D01*
X114256534Y-107541089D01*
X112244653Y-107541089D01*
X112244653Y-106032178D01*
X113585907Y-106032178D01*
X113585907Y-106493234D01*
X113187722Y-106493234D01*
X113002655Y-106494500D01*
X112885853Y-106500480D01*
X112821768Y-106514447D01*
X112794849Y-106539677D01*
X112789537Y-106577062D01*
X112798714Y-106623882D01*
X112839023Y-106649181D01*
X112929635Y-106659350D01*
X113041023Y-106660891D01*
X113292508Y-106660891D01*
X113292508Y-106912376D01*
X113041023Y-106912376D01*
X112900563Y-106915435D01*
X112824666Y-106928871D01*
X112794161Y-106959075D01*
X112789537Y-106996204D01*
X112795056Y-107033601D01*
X112821490Y-107057855D01*
X112883663Y-107071790D01*
X112996394Y-107078227D01*
X113174503Y-107079991D01*
X113229636Y-107080033D01*
X113669735Y-107080033D01*
X113669735Y-106535148D01*
X114256534Y-106535148D01*
X114261064Y-106609415D01*
X114289024Y-106646558D01*
X114361974Y-106659430D01*
X114467421Y-106660891D01*
X114612430Y-106651054D01*
X114688093Y-106619317D01*
X114702638Y-106597486D01*
X114701343Y-106508328D01*
X114628631Y-106443834D01*
X114495167Y-106411640D01*
X114440016Y-106409406D01*
X114326072Y-106413327D01*
X114272868Y-106435619D01*
X114257358Y-106492079D01*
X114256534Y-106535148D01*
X113669735Y-106535148D01*
X113669735Y-106032178D01*
X114246056Y-106032335D01*
G37*
G36*
X112859892Y-108693230D02*
G01*
X113064749Y-108756123D01*
X113202600Y-108863727D01*
X113276734Y-109018319D01*
X113292508Y-109162653D01*
X113252503Y-109344872D01*
X113139698Y-109518556D01*
X112964902Y-109669158D01*
X112877543Y-109721006D01*
X112726666Y-109800750D01*
X113009587Y-109802603D01*
X113292508Y-109804455D01*
X113292508Y-110139769D01*
X112160825Y-110139769D01*
X112160825Y-109931050D01*
X112165186Y-109804207D01*
X112189759Y-109730155D01*
X112251778Y-109677905D01*
X112322885Y-109639654D01*
X112519460Y-109522033D01*
X112658230Y-109402903D01*
X112734849Y-109289989D01*
X112744970Y-109191014D01*
X112684246Y-109113704D01*
X112633160Y-109088234D01*
X112464990Y-109067173D01*
X112362735Y-109084303D01*
X112257023Y-109104346D01*
X112190476Y-109104403D01*
X112183799Y-109100917D01*
X112169558Y-109048287D01*
X112161500Y-108944063D01*
X112160825Y-108900799D01*
X112166506Y-108797527D01*
X112193602Y-108731201D01*
X112257186Y-108693712D01*
X112372335Y-108676950D01*
X112554122Y-108672807D01*
X112584741Y-108672772D01*
X112859892Y-108693230D01*
G37*
G36*
X97239372Y-112025907D02*
G01*
X96736402Y-112025907D01*
X96736402Y-111606765D01*
X97239372Y-111606765D01*
X97239372Y-112025907D01*
G37*
G36*
X110023201Y-107080033D02*
G01*
X110819570Y-107080033D01*
X110819570Y-107541089D01*
X109478316Y-107541089D01*
X109478316Y-106032178D01*
X110023201Y-106032178D01*
X110023201Y-107080033D01*
G37*
G36*
X112496138Y-111690594D02*
G01*
X112035082Y-111690594D01*
X112035082Y-112696534D01*
X111532112Y-112696534D01*
X111532112Y-111690594D01*
X110651914Y-111690594D01*
X110651914Y-112696534D01*
X110148943Y-112696534D01*
X110148943Y-111690594D01*
X109687887Y-111690594D01*
X109687887Y-111271452D01*
X112496138Y-111271452D01*
X112496138Y-111690594D01*
G37*
G36*
X97326794Y-108672772D02*
G01*
X98070694Y-108672772D01*
X98304703Y-109374869D01*
X98380459Y-109603858D01*
X98445992Y-109805189D01*
X98497021Y-109965445D01*
X98529267Y-110071212D01*
X98538712Y-110108367D01*
X98500454Y-110124266D01*
X98400248Y-110135561D01*
X98262629Y-110139769D01*
X98113959Y-110137752D01*
X98026871Y-110125942D01*
X97979125Y-110095694D01*
X97948481Y-110038366D01*
X97939084Y-110014026D01*
X97902569Y-109937805D01*
X97850414Y-109900779D01*
X97754946Y-109889031D01*
X97689059Y-109888283D01*
X97564830Y-109892931D01*
X97497103Y-109916125D01*
X97458679Y-109971747D01*
X97442663Y-110014026D01*
X97414406Y-110082120D01*
X97374899Y-110119754D01*
X97301754Y-110135945D01*
X97172585Y-110139712D01*
X97130487Y-110139769D01*
X96992899Y-110137055D01*
X96896111Y-110129964D01*
X96862145Y-110120713D01*
X96874488Y-110076641D01*
X96908761Y-109965942D01*
X96960834Y-109801659D01*
X97026574Y-109596841D01*
X97037390Y-109563448D01*
X97532564Y-109563448D01*
X97569973Y-109582928D01*
X97663440Y-109593956D01*
X97704913Y-109594884D01*
X97815724Y-109587665D01*
X97857285Y-109562459D01*
X97854602Y-109536376D01*
X97828891Y-109460905D01*
X97792233Y-109344249D01*
X97780612Y-109305848D01*
X97743432Y-109200681D01*
X97710949Y-109139850D01*
X97702074Y-109133828D01*
X97676147Y-109169083D01*
X97635368Y-109256350D01*
X97590683Y-109367882D01*
X97553040Y-109475931D01*
X97533388Y-109552751D01*
X97532564Y-109563448D01*
X97037390Y-109563448D01*
X97094469Y-109387215D01*
X97326794Y-108672772D01*
G37*
G36*
X89066105Y-110139769D02*
G01*
X88521221Y-110139769D01*
X88521221Y-109213390D01*
X88373380Y-109326154D01*
X88282008Y-109390557D01*
X88222643Y-109422477D01*
X88212539Y-109422594D01*
X88186986Y-109371705D01*
X88149124Y-109278197D01*
X88109609Y-109171118D01*
X88079098Y-109079511D01*
X88068247Y-109032423D01*
X88068889Y-109031046D01*
X88267439Y-108893675D01*
X88412010Y-108796848D01*
X88517601Y-108733476D01*
X88599212Y-108696470D01*
X88671844Y-108678740D01*
X88750496Y-108673197D01*
X88826919Y-108672772D01*
X89066105Y-108672772D01*
X89066105Y-110139769D01*
G37*
G36*
X102939702Y-110139769D02*
G01*
X102394818Y-110139769D01*
X102394818Y-109213390D01*
X102246978Y-109326154D01*
X102155605Y-109390557D01*
X102096240Y-109422477D01*
X102086137Y-109422594D01*
X102060583Y-109371705D01*
X102022721Y-109278197D01*
X101983206Y-109171118D01*
X101952696Y-109079511D01*
X101941845Y-109032423D01*
X101942486Y-109031046D01*
X102141037Y-108893675D01*
X102285607Y-108796848D01*
X102391198Y-108733476D01*
X102472810Y-108696470D01*
X102545441Y-108678740D01*
X102624094Y-108673197D01*
X102700517Y-108672772D01*
X102939702Y-108672772D01*
X102939702Y-110139769D01*
G37*
G36*
X113795478Y-111690594D02*
G01*
X113418250Y-111690594D01*
X113239025Y-111691994D01*
X113127658Y-111698560D01*
X113068193Y-111713837D01*
X113044676Y-111741370D01*
X113041023Y-111774422D01*
X113050199Y-111821242D01*
X113090508Y-111846541D01*
X113181120Y-111856709D01*
X113292508Y-111858250D01*
X113543993Y-111858250D01*
X113543993Y-112109736D01*
X113292508Y-112109736D01*
X113152048Y-112112794D01*
X113076151Y-112126231D01*
X113045646Y-112156435D01*
X113041023Y-112193564D01*
X113046541Y-112230961D01*
X113072976Y-112255215D01*
X113135148Y-112269149D01*
X113247879Y-112275587D01*
X113425988Y-112277351D01*
X113481122Y-112277392D01*
X113921221Y-112277392D01*
X113921221Y-112696534D01*
X112538052Y-112696534D01*
X112538052Y-111271452D01*
X113795478Y-111271452D01*
X113795478Y-111690594D01*
G37*
G36*
X90784587Y-111271452D02*
G01*
X90784587Y-111690594D01*
X90407359Y-111690594D01*
X90228134Y-111691994D01*
X90116767Y-111698560D01*
X90057302Y-111713837D01*
X90033785Y-111741370D01*
X90030132Y-111774422D01*
X90039308Y-111821242D01*
X90079617Y-111846541D01*
X90170229Y-111856709D01*
X90281617Y-111858250D01*
X90533102Y-111858250D01*
X90533102Y-112109736D01*
X90281617Y-112109736D01*
X90141157Y-112112794D01*
X90065260Y-112126231D01*
X90034755Y-112156435D01*
X90030132Y-112193564D01*
X90035650Y-112230961D01*
X90062085Y-112255215D01*
X90124257Y-112269149D01*
X90236988Y-112275587D01*
X90415097Y-112277351D01*
X90470231Y-112277392D01*
X90910330Y-112277392D01*
X90910330Y-111223353D01*
X91515179Y-111236924D01*
X91758386Y-111243612D01*
X91933117Y-111252415D01*
X92054723Y-111265466D01*
X92138557Y-111284894D01*
X92199970Y-111312830D01*
X92235609Y-111336913D01*
X92387101Y-111470882D01*
X92476657Y-111611565D01*
X92517438Y-111786239D01*
X92524026Y-111934674D01*
X92499425Y-112190177D01*
X92421282Y-112390203D01*
X92283085Y-112548666D01*
X92211683Y-112602085D01*
X92169826Y-112628803D01*
X92125960Y-112649940D01*
X92070310Y-112666148D01*
X91993097Y-112678082D01*
X91884547Y-112686396D01*
X91734881Y-112691742D01*
X91534323Y-112694776D01*
X91273097Y-112696152D01*
X90941426Y-112696521D01*
X90799346Y-112696534D01*
X89527161Y-112696534D01*
X89527161Y-112319307D01*
X91413300Y-112319307D01*
X91582862Y-112319307D01*
X91734874Y-112297050D01*
X91850928Y-112220751D01*
X91855304Y-112216426D01*
X91935190Y-112097916D01*
X91958184Y-111947026D01*
X91923091Y-111785215D01*
X91822751Y-111671801D01*
X91664575Y-111613368D01*
X91575304Y-111606765D01*
X91413300Y-111606765D01*
X91413300Y-112319307D01*
X89527161Y-112319307D01*
X89527161Y-111271452D01*
X90784587Y-111271452D01*
G37*
G36*
X108938627Y-109175742D02*
G01*
X108994157Y-109366785D01*
X109043546Y-109524476D01*
X109081720Y-109633450D01*
X109103608Y-109678339D01*
X109104669Y-109678713D01*
X109125135Y-109640923D01*
X109162887Y-109537872D01*
X109212651Y-109385030D01*
X109269151Y-109197872D01*
X109272544Y-109186221D01*
X109415661Y-108693729D01*
X109719431Y-108681414D01*
X109866789Y-108677683D01*
X109974744Y-108679223D01*
X110022499Y-108685664D01*
X110023201Y-108686844D01*
X110010088Y-108729413D01*
X109974411Y-108835278D01*
X109921664Y-108988742D01*
X109857338Y-109174108D01*
X109786927Y-109375678D01*
X109715924Y-109577754D01*
X109649821Y-109764639D01*
X109594112Y-109920636D01*
X109554289Y-110030047D01*
X109540459Y-110066419D01*
X109515224Y-110101308D01*
X109462329Y-110123223D01*
X109365455Y-110134984D01*
X109208285Y-110139415D01*
X109116246Y-110139769D01*
X108906933Y-110135418D01*
X108773715Y-110121751D01*
X108709281Y-110097842D01*
X108701801Y-110087376D01*
X108668151Y-109993972D01*
X108617154Y-109849197D01*
X108554152Y-109668559D01*
X108484488Y-109467566D01*
X108413503Y-109261726D01*
X108346542Y-109066548D01*
X108288946Y-108897538D01*
X108246057Y-108770207D01*
X108223219Y-108700060D01*
X108220891Y-108691399D01*
X108259235Y-108682145D01*
X108360002Y-108675477D01*
X108501799Y-108672778D01*
X108509117Y-108672772D01*
X108797343Y-108672772D01*
X108938627Y-109175742D01*
G37*
G36*
X107703397Y-106576511D02*
G01*
X107790788Y-106361161D01*
X107942104Y-106196764D01*
X108153490Y-106087034D01*
X108421089Y-106035681D01*
X108522229Y-106032178D01*
X108812274Y-106055532D01*
X109040109Y-106128530D01*
X109214096Y-106255579D01*
X109342596Y-106441085D01*
X109357573Y-106472277D01*
X109418818Y-106690422D01*
X109418893Y-106922217D01*
X109362082Y-107142958D01*
X109252668Y-107327941D01*
X109199781Y-107382312D01*
X109024433Y-107489785D01*
X108799503Y-107558511D01*
X108551044Y-107585885D01*
X108305113Y-107569299D01*
X108087764Y-107506149D01*
X108065668Y-107495729D01*
X107936326Y-107411546D01*
X107827778Y-107307468D01*
X107804410Y-107275712D01*
X107719333Y-107142904D01*
X107718626Y-107341996D01*
X107717920Y-107541089D01*
X107112801Y-107541089D01*
X106891433Y-107322471D01*
X106670066Y-107103853D01*
X106670066Y-107541089D01*
X106083267Y-107541089D01*
X106083267Y-106535148D01*
X106670066Y-106535148D01*
X106674595Y-106609415D01*
X106702556Y-106646558D01*
X106775505Y-106659430D01*
X106880952Y-106660891D01*
X107025961Y-106651054D01*
X107101625Y-106619317D01*
X107116169Y-106597486D01*
X107114874Y-106508328D01*
X107042162Y-106443834D01*
X106908699Y-106411640D01*
X106853547Y-106409406D01*
X106739603Y-106413327D01*
X106686400Y-106435619D01*
X106670890Y-106492079D01*
X106670066Y-106535148D01*
X106083267Y-106535148D01*
X106083267Y-106493234D01*
X105580297Y-106493234D01*
X105580297Y-107541089D01*
X105077326Y-107541089D01*
X105077326Y-106493234D01*
X104616270Y-106493234D01*
X104616270Y-107541089D01*
X104091239Y-107541089D01*
X103903177Y-107300082D01*
X103715115Y-107059076D01*
X103702545Y-107300082D01*
X103689975Y-107541089D01*
X103149273Y-107541089D01*
X103149273Y-106032178D01*
X103681792Y-106032178D01*
X103887067Y-106293847D01*
X104092343Y-106555516D01*
X104104821Y-106293847D01*
X104117300Y-106032178D01*
X105676604Y-106032335D01*
X106080532Y-106032566D01*
X106409292Y-106033457D01*
X106671541Y-106035435D01*
X106875938Y-106038928D01*
X107031142Y-106044364D01*
X107145813Y-106052172D01*
X107228608Y-106062778D01*
X107288187Y-106076611D01*
X107333208Y-106094098D01*
X107372330Y-106115669D01*
X107373173Y-106116182D01*
X107510419Y-106241717D01*
X107582747Y-106399063D01*
X107587257Y-106567976D01*
X107521049Y-106728210D01*
X107469659Y-106789857D01*
X107375774Y-106867606D01*
X107293380Y-106909838D01*
X107276561Y-106912376D01*
X107226426Y-106936112D01*
X107231423Y-106978675D01*
X107253615Y-107045491D01*
X107256864Y-107062504D01*
X107294691Y-107072313D01*
X107391849Y-107078709D01*
X107476914Y-107080109D01*
X107696963Y-107080185D01*
X107685556Y-106871410D01*
X108243933Y-106871410D01*
X108287236Y-107007829D01*
X108379618Y-107106065D01*
X108391180Y-107112552D01*
X108521603Y-107146044D01*
X108661606Y-107131773D01*
X108773960Y-107075428D01*
X108797211Y-107050500D01*
X108834708Y-106950746D01*
X108848159Y-106809957D01*
X108836659Y-106667666D01*
X108808038Y-106577714D01*
X108725440Y-106502968D01*
X108598377Y-106468339D01*
X108459010Y-106479943D01*
X108403228Y-106500710D01*
X108302456Y-106591085D01*
X108249183Y-106723574D01*
X108243933Y-106871410D01*
X107685556Y-106871410D01*
X107683791Y-106839102D01*
X107703397Y-106576511D01*
G37*
G36*
X94527287Y-106687323D02*
G01*
X94556463Y-106599245D01*
X94742921Y-106029364D01*
X95138821Y-106041250D01*
X95534720Y-106053135D01*
X95758751Y-106723762D01*
X95834792Y-106951589D01*
X95902718Y-107155480D01*
X95957553Y-107320469D01*
X95994320Y-107431590D01*
X96006750Y-107469644D01*
X96011610Y-107508081D01*
X95984824Y-107529305D01*
X95910426Y-107536877D01*
X95772451Y-107534358D01*
X95724845Y-107532516D01*
X95567307Y-107524798D01*
X95473353Y-107511721D01*
X95422806Y-107484591D01*
X95395486Y-107434710D01*
X95380039Y-107383911D01*
X95352052Y-107304226D01*
X95310627Y-107263850D01*
X95230588Y-107249455D01*
X95122706Y-107247689D01*
X94994013Y-107250944D01*
X94923934Y-107269595D01*
X94887279Y-107316969D01*
X94865263Y-107383911D01*
X94826222Y-107520132D01*
X93916130Y-107531428D01*
X93006039Y-107542724D01*
X93006039Y-106032178D01*
X93550924Y-106032178D01*
X93550924Y-107080033D01*
X93945616Y-107080033D01*
X94141554Y-107084649D01*
X94280047Y-107097665D01*
X94349602Y-107117829D01*
X94355156Y-107124579D01*
X94372506Y-107103343D01*
X94410230Y-107014902D01*
X94432801Y-106954290D01*
X94939589Y-106954290D01*
X95125454Y-106954290D01*
X95237035Y-106951571D01*
X95303346Y-106944701D01*
X95311320Y-106940800D01*
X95297424Y-106882787D01*
X95263050Y-106778068D01*
X95219164Y-106656722D01*
X95176732Y-106548829D01*
X95146722Y-106484468D01*
X95143085Y-106479365D01*
X95115157Y-106497232D01*
X95072443Y-106577764D01*
X95025661Y-106699415D01*
X94939589Y-106954290D01*
X94432801Y-106954290D01*
X94463449Y-106871985D01*
X94527287Y-106687323D01*
G37*
G36*
X101849934Y-109469142D02*
G01*
X101346963Y-109469142D01*
X101346963Y-109050000D01*
X101849934Y-109050000D01*
X101849934Y-109469142D01*
G37*
G36*
X93257524Y-111690594D02*
G01*
X93257524Y-111271452D01*
X94009251Y-111271452D01*
X94259526Y-111273723D01*
X94487226Y-111280022D01*
X94676404Y-111289579D01*
X94811111Y-111301621D01*
X94870519Y-111313099D01*
X94975687Y-111392592D01*
X95049460Y-111520310D01*
X95076834Y-111662269D01*
X95062205Y-111747230D01*
X94997029Y-111850970D01*
X94927411Y-111916892D01*
X94875609Y-111963901D01*
X94883860Y-111983983D01*
X94884757Y-111983993D01*
X94948357Y-112011510D01*
X95032325Y-112078588D01*
X95040783Y-112086873D01*
X95127011Y-112224771D01*
X95134952Y-112377691D01*
X95064547Y-112530533D01*
X95042603Y-112557976D01*
X94941542Y-112675577D01*
X94246233Y-112688877D01*
X93550924Y-112702176D01*
X93550924Y-112277392D01*
X94095808Y-112277392D01*
X94101679Y-112355922D01*
X94134772Y-112392284D01*
X94218306Y-112402647D01*
X94276411Y-112403135D01*
X94409397Y-112388807D01*
X94517890Y-112353134D01*
X94538375Y-112340264D01*
X94594814Y-112289851D01*
X94584415Y-112252399D01*
X94538375Y-112214521D01*
X94445660Y-112174680D01*
X94315106Y-112152983D01*
X94276411Y-112151650D01*
X94163620Y-112155738D01*
X94111393Y-112178778D01*
X94096509Y-112236938D01*
X94095808Y-112277392D01*
X93550924Y-112277392D01*
X93550924Y-111711551D01*
X94095808Y-111711551D01*
X94105350Y-111779831D01*
X94149869Y-111809634D01*
X94253208Y-111816331D01*
X94258333Y-111816336D01*
X94375255Y-111802894D01*
X94457505Y-111769683D01*
X94466906Y-111760851D01*
X94488008Y-111692447D01*
X94436540Y-111639587D01*
X94323416Y-111610209D01*
X94255082Y-111606765D01*
X94150532Y-111613216D01*
X94105445Y-111643101D01*
X94095808Y-111711551D01*
X93550924Y-111711551D01*
X93550924Y-111690594D01*
X93257524Y-111690594D01*
G37*
G36*
X103233102Y-111690594D02*
G01*
X102928947Y-111690594D01*
X102681350Y-111701668D01*
X102485435Y-111733223D01*
X102352734Y-111782760D01*
X102304100Y-111826049D01*
X102271709Y-111938039D01*
X102283027Y-112067701D01*
X102333878Y-112168538D01*
X102334941Y-112169613D01*
X102422571Y-112214695D01*
X102550438Y-112235240D01*
X102565469Y-112235478D01*
X102671724Y-112230275D01*
X102718476Y-112202336D01*
X102729940Y-112133168D01*
X102730132Y-112109736D01*
X102730132Y-111983993D01*
X103233102Y-111983993D01*
X103233102Y-112696534D01*
X102761567Y-112696501D01*
X102539988Y-112693955D01*
X102380921Y-112684423D01*
X102263147Y-112665012D01*
X102165449Y-112632827D01*
X102110770Y-112607735D01*
X101919433Y-112469496D01*
X101791070Y-112281474D01*
X101732684Y-112056293D01*
X101732527Y-111925955D01*
X101783927Y-111692653D01*
X101898361Y-111512083D01*
X102081477Y-111375869D01*
X102114945Y-111358878D01*
X102213016Y-111318386D01*
X102320413Y-111292330D01*
X102458522Y-111277831D01*
X102648731Y-111272010D01*
X102764322Y-111271452D01*
X103233102Y-111271452D01*
X103233102Y-111690594D01*
G37*
G36*
X85406337Y-106032178D02*
G01*
X85711691Y-106038101D01*
X85946355Y-106058758D01*
X86122822Y-106098484D01*
X86253584Y-106161611D01*
X86351131Y-106252472D01*
X86427955Y-106375401D01*
X86434621Y-106388886D01*
X86521384Y-106567471D01*
X86611879Y-106396342D01*
X86748707Y-106218753D01*
X86941171Y-106100636D01*
X87191809Y-106040747D01*
X87355562Y-106032178D01*
X87645608Y-106055532D01*
X87873442Y-106128530D01*
X88047429Y-106255579D01*
X88175930Y-106441085D01*
X88190906Y-106472277D01*
X88252151Y-106690422D01*
X88252226Y-106922217D01*
X88195415Y-107142958D01*
X88086001Y-107327941D01*
X88033114Y-107382312D01*
X87854570Y-107491989D01*
X87627329Y-107560896D01*
X87377189Y-107586702D01*
X87129949Y-107567078D01*
X86911406Y-107499693D01*
X86884138Y-107486087D01*
X86713394Y-107359395D01*
X86615582Y-107215601D01*
X86560853Y-107112297D01*
X86519859Y-107049328D01*
X86509339Y-107040501D01*
X86481906Y-107074287D01*
X86437883Y-107160976D01*
X86419477Y-107203082D01*
X86355898Y-107321870D01*
X86270829Y-107410265D01*
X86152302Y-107472319D01*
X85988347Y-107512084D01*
X85766997Y-107533613D01*
X85476284Y-107540959D01*
X85421240Y-107541089D01*
X84832772Y-107541089D01*
X84832772Y-107163861D01*
X85377656Y-107163861D01*
X85547218Y-107163861D01*
X85699230Y-107141604D01*
X85815284Y-107065306D01*
X85819660Y-107060981D01*
X85892406Y-106960442D01*
X85912051Y-106871410D01*
X87077267Y-106871410D01*
X87120570Y-107007829D01*
X87212951Y-107106065D01*
X87224513Y-107112552D01*
X87354936Y-107146044D01*
X87494940Y-107131773D01*
X87607293Y-107075428D01*
X87630544Y-107050500D01*
X87668041Y-106950746D01*
X87681492Y-106809957D01*
X87669992Y-106667666D01*
X87641371Y-106577714D01*
X87558773Y-106502968D01*
X87431711Y-106468339D01*
X87292344Y-106479943D01*
X87236561Y-106500710D01*
X87135790Y-106591085D01*
X87082516Y-106723574D01*
X87077267Y-106871410D01*
X85912051Y-106871410D01*
X85920659Y-106832398D01*
X85922541Y-106770624D01*
X85890187Y-106597042D01*
X85795127Y-106478346D01*
X85640362Y-106417368D01*
X85539661Y-106409406D01*
X85377656Y-106409406D01*
X85377656Y-107163861D01*
X84832772Y-107163861D01*
X84832772Y-106032178D01*
X85406337Y-106032178D01*
G37*
G36*
X89136690Y-106624420D02*
G01*
X89447904Y-106032178D01*
X89946303Y-106032178D01*
X89946303Y-107541089D01*
X89443333Y-107541089D01*
X89442574Y-107279125D01*
X89441814Y-107017161D01*
X89314796Y-107247629D01*
X89242316Y-107374623D01*
X89181882Y-107472538D01*
X89151092Y-107514781D01*
X89115697Y-107498601D01*
X89055645Y-107419403D01*
X88980764Y-107290576D01*
X88966575Y-107263357D01*
X88818743Y-106975247D01*
X88816681Y-107258168D01*
X88814620Y-107541089D01*
X88311650Y-107541089D01*
X88311650Y-106032178D01*
X88808218Y-106032178D01*
X89136690Y-106624420D01*
G37*
G36*
X101394555Y-106517293D02*
G01*
X101497288Y-106323335D01*
X101656130Y-106168945D01*
X101722515Y-106128695D01*
X101934444Y-106054562D01*
X102178896Y-106028434D01*
X102430030Y-106047964D01*
X102662005Y-106110810D01*
X102848979Y-106214627D01*
X102870738Y-106232869D01*
X102970444Y-106361067D01*
X103051501Y-106536530D01*
X103099004Y-106722779D01*
X103105518Y-106807590D01*
X103080093Y-106985703D01*
X103013752Y-107171055D01*
X102921399Y-107327166D01*
X102870738Y-107382312D01*
X102692399Y-107491852D01*
X102465328Y-107560761D01*
X102215365Y-107586692D01*
X101968351Y-107567303D01*
X101750128Y-107500248D01*
X101722515Y-107486486D01*
X101544706Y-107349311D01*
X101423006Y-107166829D01*
X101357414Y-106956015D01*
X101353802Y-106871410D01*
X101914891Y-106871410D01*
X101958193Y-107007829D01*
X102050575Y-107106065D01*
X102062137Y-107112552D01*
X102192560Y-107146044D01*
X102332563Y-107131773D01*
X102444917Y-107075428D01*
X102468168Y-107050500D01*
X102505665Y-106950746D01*
X102519116Y-106809957D01*
X102507616Y-106667666D01*
X102478995Y-106577714D01*
X102396397Y-106502968D01*
X102269334Y-106468339D01*
X102129967Y-106479943D01*
X102074185Y-106500710D01*
X101973413Y-106591085D01*
X101920140Y-106723574D01*
X101914891Y-106871410D01*
X101353802Y-106871410D01*
X101347930Y-106733845D01*
X101394555Y-106517293D01*
G37*
G36*
X89971707Y-109244461D02*
G01*
X89988257Y-109120643D01*
X90021722Y-109031210D01*
X90054943Y-108979723D01*
X90227185Y-108802543D01*
X90428533Y-108701939D01*
X90648230Y-108672772D01*
X90906261Y-108705068D01*
X91109662Y-108800512D01*
X91256348Y-108956939D01*
X91344239Y-109172185D01*
X91371386Y-109424575D01*
X91345489Y-109694886D01*
X91265839Y-109901815D01*
X91129494Y-110048654D01*
X90933513Y-110138694D01*
X90701697Y-110173999D01*
X90539167Y-110177691D01*
X90427724Y-110162824D01*
X90335522Y-110123047D01*
X90285471Y-110091002D01*
X90133776Y-109971621D01*
X90037951Y-109849084D01*
X89986540Y-109699492D01*
X89968084Y-109498948D01*
X89967760Y-109470712D01*
X90502014Y-109470712D01*
X90502334Y-109476093D01*
X90527849Y-109655361D01*
X90575740Y-109782158D01*
X90640227Y-109842992D01*
X90660983Y-109846369D01*
X90714584Y-109819828D01*
X90760636Y-109780504D01*
X90801762Y-109694243D01*
X90824750Y-109555388D01*
X90829678Y-109393171D01*
X90816622Y-109236823D01*
X90785660Y-109115576D01*
X90758765Y-109072079D01*
X90673381Y-109023587D01*
X90598795Y-109049001D01*
X90541227Y-109138524D01*
X90506894Y-109282360D01*
X90502014Y-109470712D01*
X89967760Y-109470712D01*
X89967260Y-109427227D01*
X89971707Y-109244461D01*
G37*
G36*
X89485247Y-111690594D02*
G01*
X89024191Y-111690594D01*
X89024191Y-112696534D01*
X88521221Y-112696534D01*
X88521221Y-111690594D01*
X88060165Y-111690594D01*
X88060165Y-111271452D01*
X89485247Y-111271452D01*
X89485247Y-111690594D01*
G37*
G36*
X97239372Y-112696534D02*
G01*
X96736402Y-112696534D01*
X96736402Y-112277392D01*
X97239372Y-112277392D01*
X97239372Y-112696534D01*
G37*
G36*
X105745619Y-108714686D02*
G01*
X105945878Y-108965346D01*
X106146138Y-109216006D01*
X106158447Y-108971869D01*
X106170757Y-108727732D01*
X106952025Y-108699510D01*
X107227202Y-108689996D01*
X107432673Y-108684837D01*
X107582491Y-108685001D01*
X107690709Y-108691455D01*
X107771382Y-108705167D01*
X107838562Y-108727105D01*
X107906304Y-108758237D01*
X107922521Y-108766337D01*
X108093029Y-108869634D01*
X108202277Y-108987209D01*
X108261782Y-109139466D01*
X108283063Y-109346807D01*
X108283762Y-109406270D01*
X108278195Y-109587221D01*
X108258022Y-109710628D01*
X108218031Y-109802244D01*
X108197480Y-109832817D01*
X108042531Y-109979235D01*
X107838002Y-110079089D01*
X107603516Y-110131915D01*
X107358696Y-110137245D01*
X107123167Y-110094614D01*
X106916553Y-110003555D01*
X106761078Y-109866940D01*
X106670066Y-109751236D01*
X106670066Y-110139769D01*
X106145034Y-110139769D01*
X105768910Y-109657755D01*
X105743770Y-110139769D01*
X105244983Y-110139769D01*
X105244983Y-109427227D01*
X107173036Y-109427227D01*
X107202144Y-109594750D01*
X107286554Y-109705842D01*
X107340693Y-109735009D01*
X107454534Y-109747953D01*
X107584042Y-109723135D01*
X107686936Y-109670451D01*
X107707442Y-109649180D01*
X107748908Y-109539445D01*
X107756854Y-109394915D01*
X107731871Y-109257367D01*
X107701039Y-109195184D01*
X107620257Y-109135454D01*
X107483918Y-109114936D01*
X107466435Y-109114776D01*
X107311763Y-109139377D01*
X107217280Y-109218052D01*
X107176123Y-109358110D01*
X107173036Y-109427227D01*
X105244983Y-109427227D01*
X105244983Y-108714686D01*
X105745619Y-108714686D01*
G37*
G36*
X111644381Y-108693230D02*
G01*
X111849237Y-108756123D01*
X111987088Y-108863727D01*
X112061222Y-109018319D01*
X112076996Y-109162653D01*
X112036992Y-109344872D01*
X111924186Y-109518556D01*
X111749391Y-109669158D01*
X111662032Y-109721006D01*
X111511155Y-109800750D01*
X111794075Y-109802603D01*
X112076996Y-109804455D01*
X112076996Y-110139769D01*
X110945313Y-110139769D01*
X110945313Y-109931050D01*
X110949675Y-109804207D01*
X110974248Y-109730155D01*
X111036266Y-109677905D01*
X111107373Y-109639654D01*
X111303948Y-109522033D01*
X111442719Y-109402903D01*
X111519337Y-109289989D01*
X111529458Y-109191014D01*
X111468734Y-109113704D01*
X111417649Y-109088234D01*
X111249478Y-109067173D01*
X111147223Y-109084303D01*
X111041512Y-109104346D01*
X110974964Y-109104403D01*
X110968287Y-109100917D01*
X110954046Y-109048287D01*
X110945989Y-108944063D01*
X110945313Y-108900799D01*
X110950995Y-108797527D01*
X110978090Y-108731201D01*
X111041675Y-108693712D01*
X111156823Y-108676950D01*
X111338611Y-108672807D01*
X111369229Y-108672772D01*
X111644381Y-108693230D01*
G37*
G36*
X111406369Y-107080033D02*
G01*
X112202739Y-107080033D01*
X112202739Y-107541089D01*
X110861485Y-107541089D01*
X110861485Y-106032178D01*
X111406369Y-106032178D01*
X111406369Y-107080033D01*
G37*
G36*
X95017920Y-109091914D02*
G01*
X95017920Y-108667480D01*
X95769450Y-108680605D01*
X96041503Y-108686115D01*
X96243024Y-108692776D01*
X96387312Y-108702114D01*
X96487662Y-108715654D01*
X96557371Y-108734924D01*
X96609736Y-108761450D01*
X96636580Y-108780147D01*
X96788079Y-108914104D01*
X96877641Y-109054787D01*
X96918426Y-109229464D01*
X96925016Y-109377908D01*
X96900415Y-109633412D01*
X96822272Y-109833438D01*
X96684075Y-109991901D01*
X96612674Y-110045319D01*
X96549799Y-110083357D01*
X96482718Y-110109592D01*
X96394925Y-110126186D01*
X96269919Y-110135301D01*
X96091195Y-110139102D01*
X95891920Y-110139769D01*
X95311320Y-110139769D01*
X95311320Y-109762541D01*
X95814290Y-109762541D01*
X95983852Y-109762541D01*
X96135864Y-109740284D01*
X96251918Y-109663985D01*
X96256294Y-109659661D01*
X96336180Y-109541150D01*
X96359174Y-109390261D01*
X96324081Y-109228450D01*
X96223741Y-109115035D01*
X96065565Y-109056603D01*
X95976294Y-109050000D01*
X95814290Y-109050000D01*
X95814290Y-109762541D01*
X95311320Y-109762541D01*
X95311320Y-109091914D01*
X95017920Y-109091914D01*
G37*
G36*
X89778646Y-110139769D02*
G01*
X89275676Y-110139769D01*
X89275676Y-109720627D01*
X89778646Y-109720627D01*
X89778646Y-110139769D01*
G37*
G36*
X86385678Y-108672772D02*
G01*
X86684218Y-108679146D01*
X86909299Y-108701580D01*
X87070552Y-108745045D01*
X87177611Y-108814510D01*
X87240106Y-108914945D01*
X87267671Y-109051320D01*
X87271306Y-109129724D01*
X87249090Y-109313455D01*
X87171576Y-109441544D01*
X87053772Y-109517786D01*
X86954040Y-109578817D01*
X86934528Y-109634053D01*
X86991630Y-109678380D01*
X87121741Y-109706683D01*
X87190852Y-109712240D01*
X87431452Y-109724810D01*
X87431452Y-110139769D01*
X86826332Y-110139769D01*
X86604964Y-109921151D01*
X86383597Y-109702533D01*
X86383597Y-110139769D01*
X84455544Y-110139769D01*
X84453114Y-109500577D01*
X84450685Y-108861386D01*
X84285079Y-109322442D01*
X84211870Y-109525780D01*
X84142083Y-109718774D01*
X84084598Y-109876908D01*
X84053514Y-109961633D01*
X83987555Y-110139769D01*
X83591521Y-110139769D01*
X83381965Y-110135438D01*
X83248483Y-110121830D01*
X83183738Y-110098018D01*
X83176058Y-110087376D01*
X83142408Y-109993972D01*
X83091411Y-109849197D01*
X83028409Y-109668559D01*
X82958745Y-109467566D01*
X82887761Y-109261726D01*
X82820799Y-109066548D01*
X82763203Y-108897538D01*
X82720315Y-108770207D01*
X82697476Y-108700060D01*
X82695148Y-108691399D01*
X82733492Y-108682145D01*
X82834260Y-108675477D01*
X82976056Y-108672778D01*
X82983374Y-108672772D01*
X83271600Y-108672772D01*
X83412885Y-109175742D01*
X83468483Y-109366793D01*
X83518053Y-109524489D01*
X83556495Y-109633461D01*
X83578708Y-109678341D01*
X83579801Y-109678713D01*
X83600506Y-109640893D01*
X83638039Y-109537870D01*
X83687101Y-109385294D01*
X83742398Y-109198818D01*
X83743412Y-109195265D01*
X83799335Y-109006135D01*
X83849628Y-108848464D01*
X83888786Y-108738710D01*
X83911304Y-108693331D01*
X83911316Y-108693323D01*
X83960355Y-108689034D01*
X84080422Y-108687557D01*
X84258765Y-108688778D01*
X84482635Y-108692586D01*
X84739282Y-108698868D01*
X84827105Y-108701408D01*
X85712970Y-108727988D01*
X85712970Y-109133828D01*
X85335742Y-109133828D01*
X85156517Y-109135229D01*
X85045149Y-109141795D01*
X84985685Y-109157071D01*
X84962167Y-109184604D01*
X84958514Y-109217656D01*
X84967690Y-109264476D01*
X85007999Y-109289775D01*
X85098612Y-109299944D01*
X85210000Y-109301485D01*
X85461485Y-109301485D01*
X85461485Y-109552970D01*
X85210000Y-109552970D01*
X85069540Y-109556029D01*
X84993643Y-109569465D01*
X84963138Y-109599669D01*
X84958514Y-109636798D01*
X84964032Y-109674195D01*
X84990467Y-109698449D01*
X85052640Y-109712384D01*
X85165370Y-109718821D01*
X85343480Y-109720585D01*
X85398613Y-109720627D01*
X85838712Y-109720627D01*
X85838712Y-109175742D01*
X86383597Y-109175742D01*
X86388126Y-109250010D01*
X86416087Y-109287152D01*
X86489037Y-109300024D01*
X86594483Y-109301485D01*
X86739493Y-109291649D01*
X86815156Y-109259911D01*
X86829701Y-109238080D01*
X86828405Y-109148922D01*
X86755694Y-109084428D01*
X86622230Y-109052234D01*
X86567079Y-109050000D01*
X86453134Y-109053921D01*
X86399931Y-109076213D01*
X86384421Y-109132673D01*
X86383597Y-109175742D01*
X85838712Y-109175742D01*
X85838712Y-108672772D01*
X86385678Y-108672772D01*
G37*
G36*
X98748283Y-106493234D02*
G01*
X98350099Y-106493234D01*
X98165031Y-106494500D01*
X98048229Y-106500480D01*
X97984144Y-106514447D01*
X97957225Y-106539677D01*
X97951914Y-106577062D01*
X97961090Y-106623882D01*
X98001399Y-106649181D01*
X98092011Y-106659350D01*
X98203399Y-106660891D01*
X98454884Y-106660891D01*
X98454884Y-106912376D01*
X98203399Y-106912376D01*
X98062939Y-106915435D01*
X97987042Y-106928871D01*
X97956537Y-106959075D01*
X97951914Y-106996204D01*
X97957219Y-107032891D01*
X97982797Y-107056972D01*
X98043138Y-107071082D01*
X98152734Y-107077856D01*
X98326075Y-107079929D01*
X98412970Y-107080033D01*
X98874026Y-107080033D01*
X98874026Y-107541089D01*
X97407029Y-107541089D01*
X97407029Y-106493234D01*
X96904059Y-106493234D01*
X96904059Y-107541089D01*
X96401089Y-107541089D01*
X96401089Y-106493234D01*
X95898118Y-106493234D01*
X95898118Y-106032178D01*
X98748283Y-106032178D01*
X98748283Y-106493234D01*
G37*
G36*
X86977338Y-111229538D02*
G01*
X87717889Y-111229538D01*
X87951898Y-111931634D01*
X88027654Y-112160624D01*
X88093186Y-112361954D01*
X88144216Y-112522211D01*
X88176462Y-112627978D01*
X88185907Y-112665133D01*
X88147649Y-112681032D01*
X88047443Y-112692327D01*
X87909824Y-112696534D01*
X87761154Y-112694518D01*
X87674066Y-112682708D01*
X87626319Y-112652460D01*
X87595676Y-112595132D01*
X87586278Y-112570792D01*
X87549764Y-112494571D01*
X87497609Y-112457545D01*
X87402141Y-112445797D01*
X87336254Y-112445049D01*
X87212025Y-112449696D01*
X87144297Y-112472891D01*
X87105874Y-112528513D01*
X87089858Y-112570792D01*
X87046023Y-112696534D01*
X84688708Y-112696534D01*
X84467341Y-112477917D01*
X84245973Y-112259299D01*
X84245973Y-112696534D01*
X83701089Y-112696534D01*
X83701089Y-111732508D01*
X84245973Y-111732508D01*
X84250503Y-111806775D01*
X84278463Y-111843918D01*
X84351413Y-111856790D01*
X84456860Y-111858250D01*
X84601869Y-111848414D01*
X84677532Y-111816677D01*
X84692077Y-111794845D01*
X84690782Y-111705688D01*
X84618070Y-111641193D01*
X84484606Y-111608999D01*
X84429455Y-111606765D01*
X84315511Y-111610686D01*
X84262307Y-111632979D01*
X84246797Y-111689439D01*
X84245973Y-111732508D01*
X83701089Y-111732508D01*
X83701089Y-111229538D01*
X84248055Y-111229538D01*
X84546594Y-111235911D01*
X84771675Y-111258346D01*
X84932928Y-111301810D01*
X85039987Y-111371275D01*
X85102483Y-111471711D01*
X85130048Y-111608086D01*
X85133683Y-111686490D01*
X85111467Y-111870220D01*
X85033953Y-111998310D01*
X84916148Y-112074552D01*
X84817375Y-112135956D01*
X84798686Y-112192418D01*
X84856346Y-112237681D01*
X84986620Y-112265487D01*
X85032257Y-112269104D01*
X85251914Y-112281773D01*
X85251914Y-111271452D01*
X86509339Y-111271452D01*
X86509339Y-111690594D01*
X86132112Y-111690594D01*
X85952886Y-111691994D01*
X85841519Y-111698560D01*
X85782054Y-111713837D01*
X85758537Y-111741370D01*
X85754884Y-111774422D01*
X85764060Y-111821242D01*
X85804369Y-111846541D01*
X85894982Y-111856709D01*
X86006369Y-111858250D01*
X86257854Y-111858250D01*
X86257854Y-112109736D01*
X86006369Y-112109736D01*
X85865910Y-112112794D01*
X85790013Y-112126231D01*
X85759507Y-112156435D01*
X85754884Y-112193564D01*
X85760439Y-112231083D01*
X85787024Y-112255366D01*
X85849515Y-112269268D01*
X85962789Y-112275647D01*
X86141725Y-112277359D01*
X86191512Y-112277392D01*
X86628139Y-112277392D01*
X86680519Y-112120214D01*
X87179759Y-112120214D01*
X87217167Y-112139694D01*
X87310635Y-112150722D01*
X87352108Y-112151650D01*
X87462919Y-112144431D01*
X87504480Y-112119225D01*
X87501797Y-112093141D01*
X87476086Y-112017670D01*
X87439428Y-111901015D01*
X87427807Y-111862613D01*
X87390627Y-111757447D01*
X87358144Y-111696616D01*
X87349269Y-111690594D01*
X87323342Y-111725849D01*
X87282562Y-111813116D01*
X87237877Y-111924647D01*
X87200235Y-112032697D01*
X87180582Y-112109517D01*
X87179759Y-112120214D01*
X86680519Y-112120214D01*
X86802739Y-111753465D01*
X86977338Y-111229538D01*
G37*
G36*
X101346963Y-106482026D02*
G01*
X100925086Y-106502341D01*
X100696227Y-106518578D01*
X100538664Y-106545646D01*
X100439986Y-106589890D01*
X100387780Y-106657655D01*
X100369636Y-106755286D01*
X100368965Y-106786633D01*
X100380231Y-106893150D01*
X100422300Y-106968135D01*
X100507587Y-107017935D01*
X100648503Y-107048895D01*
X100857458Y-107067359D01*
X100925086Y-107070925D01*
X101346963Y-107091240D01*
X101346963Y-107541089D01*
X100875429Y-107540168D01*
X100641122Y-107536237D01*
X100470574Y-107523886D01*
X100343930Y-107500684D01*
X100241334Y-107464198D01*
X100236237Y-107461869D01*
X100021054Y-107324327D01*
X99877508Y-107143269D01*
X99805431Y-106918440D01*
X99796138Y-106786633D01*
X99831774Y-106539348D01*
X99938795Y-106335965D01*
X100117368Y-106176229D01*
X100236237Y-106111397D01*
X100338119Y-106074147D01*
X100463007Y-106050308D01*
X100630756Y-106037448D01*
X100861221Y-106033135D01*
X100875429Y-106033098D01*
X101346963Y-106032178D01*
X101346963Y-106482026D01*
G37*
G36*
X95734444Y-111439109D02*
G01*
X95805322Y-111551015D01*
X95857348Y-111627052D01*
X95876387Y-111648680D01*
X95903976Y-111616443D01*
X95962379Y-111532771D01*
X96023861Y-111439109D01*
X96158342Y-111229538D01*
X96447372Y-111229538D01*
X96590789Y-111232799D01*
X96694216Y-111241372D01*
X96736292Y-111253439D01*
X96736402Y-111254120D01*
X96713989Y-111296147D01*
X96652852Y-111392890D01*
X96562146Y-111530253D01*
X96451026Y-111694142D01*
X96443003Y-111705832D01*
X96320780Y-111885141D01*
X96238316Y-112014333D01*
X96187788Y-112112308D01*
X96161375Y-112197965D01*
X96151254Y-112290203D01*
X96149604Y-112407923D01*
X96149603Y-112414749D01*
X96149603Y-112696534D01*
X95646633Y-112696534D01*
X95646633Y-112443652D01*
X95644281Y-112333713D01*
X95631988Y-112243857D01*
X95601899Y-112155367D01*
X95546159Y-112049525D01*
X95456913Y-111907615D01*
X95360790Y-111762546D01*
X95247849Y-111592883D01*
X95150602Y-111445925D01*
X95079302Y-111337226D01*
X95044202Y-111282339D01*
X95043959Y-111281930D01*
X95047486Y-111253547D01*
X95107127Y-111237025D01*
X95234262Y-111230114D01*
X95309233Y-111229538D01*
X95605494Y-111229538D01*
X95734444Y-111439109D01*
G37*
G36*
X87976336Y-109469142D02*
G01*
X87473366Y-109469142D01*
X87473366Y-109050000D01*
X87976336Y-109050000D01*
X87976336Y-109469142D01*
G37*
G36*
X104239042Y-108881916D02*
G01*
X104232522Y-108983138D01*
X104208977Y-109090602D01*
X104162430Y-109221091D01*
X104086905Y-109391392D01*
X103977855Y-109615415D01*
X103716668Y-110139769D01*
X103058608Y-110139769D01*
X103141597Y-110003547D01*
X103248115Y-109826741D01*
X103357184Y-109642375D01*
X103460313Y-109465209D01*
X103549015Y-109310005D01*
X103614800Y-109191522D01*
X103649180Y-109124524D01*
X103652244Y-109115616D01*
X103613750Y-109104286D01*
X103511925Y-109095905D01*
X103367256Y-109092017D01*
X103337887Y-109091914D01*
X103023531Y-109091914D01*
X103023531Y-108672772D01*
X104239042Y-108672772D01*
X104239042Y-108881916D01*
G37*
G36*
X87976336Y-110139769D02*
G01*
X87473366Y-110139769D01*
X87473366Y-109720627D01*
X87976336Y-109720627D01*
X87976336Y-110139769D01*
G37*
G36*
X107592178Y-112277392D02*
G01*
X108388547Y-112277392D01*
X108388547Y-111271452D01*
X109645973Y-111271452D01*
X109645973Y-111690594D01*
X109268745Y-111690594D01*
X109089520Y-111691994D01*
X108978153Y-111698560D01*
X108918688Y-111713837D01*
X108895171Y-111741370D01*
X108891518Y-111774422D01*
X108900694Y-111821242D01*
X108941003Y-111846541D01*
X109031615Y-111856709D01*
X109143003Y-111858250D01*
X109394488Y-111858250D01*
X109394488Y-112109736D01*
X109143003Y-112109736D01*
X109002543Y-112112794D01*
X108926646Y-112126231D01*
X108896141Y-112156435D01*
X108891518Y-112193564D01*
X108897036Y-112230961D01*
X108923471Y-112255215D01*
X108985643Y-112269149D01*
X109098374Y-112275587D01*
X109276483Y-112277351D01*
X109331617Y-112277392D01*
X109771716Y-112277392D01*
X109771716Y-112696534D01*
X107089207Y-112696534D01*
X107089207Y-111229538D01*
X107592178Y-111229538D01*
X107592178Y-112277392D01*
G37*
G36*
X99838052Y-109133828D02*
G01*
X99376996Y-109133828D01*
X99376996Y-110139769D01*
X98874026Y-110139769D01*
X98874026Y-109133828D01*
X98412970Y-109133828D01*
X98412970Y-108714686D01*
X99838052Y-108714686D01*
X99838052Y-109133828D01*
G37*
G36*
X106104224Y-112291493D02*
G01*
X106220831Y-112330297D01*
X106341600Y-112344695D01*
X106440881Y-112301324D01*
X106484592Y-112269049D01*
X106513853Y-112229604D01*
X106531561Y-112167041D01*
X106540610Y-112065409D01*
X106543897Y-111908759D01*
X106544323Y-111731542D01*
X106544323Y-111229538D01*
X107047293Y-111229538D01*
X107047228Y-111722029D01*
X107040922Y-111995247D01*
X107018988Y-112200780D01*
X106976778Y-112354052D01*
X106909643Y-112470484D01*
X106812934Y-112565499D01*
X106787068Y-112585177D01*
X106659693Y-112643414D01*
X106480309Y-112681688D01*
X106279186Y-112696065D01*
X106086596Y-112682612D01*
X106065486Y-112678939D01*
X105917243Y-112623581D01*
X105770814Y-112525340D01*
X105657626Y-112407913D01*
X105620905Y-112343682D01*
X105600051Y-112313481D01*
X105587993Y-112354647D01*
X105582993Y-112473267D01*
X105582953Y-112476485D01*
X105580297Y-112696534D01*
X105077326Y-112696534D01*
X105077326Y-112151650D01*
X104742013Y-112151650D01*
X104742013Y-112696534D01*
X104239042Y-112696534D01*
X104239042Y-111690594D01*
X103903729Y-111690594D01*
X103903729Y-111271452D01*
X104742013Y-111271452D01*
X104742013Y-111732508D01*
X105077326Y-111732508D01*
X105077326Y-111501980D01*
X105079606Y-111370161D01*
X105093559Y-111301546D01*
X105129856Y-111275516D01*
X105196630Y-111271452D01*
X105291978Y-111268508D01*
X105443880Y-111260652D01*
X105625304Y-111249345D01*
X105698302Y-111244311D01*
X106080670Y-111217169D01*
X106104224Y-112291493D01*
G37*
G36*
X92031534Y-106032335D02*
G01*
X92270338Y-106033823D01*
X92441849Y-106039431D01*
X92562573Y-106051098D01*
X92649016Y-106070763D01*
X92717686Y-106100366D01*
X92745120Y-106116182D01*
X92875591Y-106231820D01*
X92946102Y-106389917D01*
X92964125Y-106570465D01*
X92929834Y-106759452D01*
X92827324Y-106900100D01*
X92657136Y-106992017D01*
X92419811Y-107034812D01*
X92316536Y-107038118D01*
X92042013Y-107038118D01*
X92042013Y-107541089D01*
X90030132Y-107541089D01*
X90030132Y-106032178D01*
X91371386Y-106032178D01*
X91371386Y-106493234D01*
X90973201Y-106493234D01*
X90788133Y-106494500D01*
X90671332Y-106500480D01*
X90607246Y-106514447D01*
X90580327Y-106539677D01*
X90575016Y-106577062D01*
X90584192Y-106623882D01*
X90624501Y-106649181D01*
X90715114Y-106659350D01*
X90826501Y-106660891D01*
X91077986Y-106660891D01*
X91077986Y-106912376D01*
X90826501Y-106912376D01*
X90686042Y-106915435D01*
X90610145Y-106928871D01*
X90579639Y-106959075D01*
X90575016Y-106996204D01*
X90580534Y-107033601D01*
X90606969Y-107057855D01*
X90669141Y-107071790D01*
X90781872Y-107078227D01*
X90959982Y-107079991D01*
X91015115Y-107080033D01*
X91455214Y-107080033D01*
X91455214Y-106535148D01*
X92042013Y-106535148D01*
X92047734Y-106613236D01*
X92080264Y-106649697D01*
X92162649Y-106660326D01*
X92225494Y-106660891D01*
X92367469Y-106645366D01*
X92456216Y-106603391D01*
X92461155Y-106598019D01*
X92489949Y-106520082D01*
X92445236Y-106457586D01*
X92337007Y-106418527D01*
X92225494Y-106409406D01*
X92111550Y-106413327D01*
X92058347Y-106435619D01*
X92042837Y-106492079D01*
X92042013Y-106535148D01*
X91455214Y-106535148D01*
X91455214Y-106032178D01*
X92031534Y-106032335D01*
G37*
G36*
X83198174Y-111242153D02*
G01*
X83350397Y-111275014D01*
X83492032Y-111320647D01*
X83600967Y-111371576D01*
X83655094Y-111420327D01*
X83657430Y-111432369D01*
X83630877Y-111477118D01*
X83564924Y-111561083D01*
X83514051Y-111620386D01*
X83428742Y-111713250D01*
X83373390Y-111751835D01*
X83322903Y-111745081D01*
X83263821Y-111709551D01*
X83121811Y-111658016D01*
X82976383Y-111670702D01*
X82849400Y-111737088D01*
X82762726Y-111846655D01*
X82737062Y-111963036D01*
X82773591Y-112100487D01*
X82868601Y-112203504D01*
X83000231Y-112261566D01*
X83146615Y-112264151D01*
X83263821Y-112216520D01*
X83330342Y-112177758D01*
X83380021Y-112176600D01*
X83437951Y-112221987D01*
X83514051Y-112305686D01*
X83595273Y-112402266D01*
X83647348Y-112473073D01*
X83657430Y-112493703D01*
X83624204Y-112526447D01*
X83537742Y-112578585D01*
X83478284Y-112608967D01*
X83292008Y-112669296D01*
X83076568Y-112694307D01*
X82865281Y-112683258D01*
X82691459Y-112635407D01*
X82674191Y-112626888D01*
X82455395Y-112473365D01*
X82309863Y-112283776D01*
X82240164Y-112061977D01*
X82234092Y-111967111D01*
X82272044Y-111730211D01*
X82379665Y-111529665D01*
X82547598Y-111373854D01*
X82766489Y-111271158D01*
X83026982Y-111229956D01*
X83057473Y-111229538D01*
X83198174Y-111242153D01*
G37*
G36*
X101849934Y-110139769D02*
G01*
X101346963Y-110139769D01*
X101346963Y-109720627D01*
X101849934Y-109720627D01*
X101849934Y-110139769D01*
G37*
G36*
X101137392Y-109133828D02*
G01*
X100760165Y-109133828D01*
X100580939Y-109135229D01*
X100469572Y-109141795D01*
X100410107Y-109157071D01*
X100386590Y-109184604D01*
X100382937Y-109217656D01*
X100392113Y-109264476D01*
X100432422Y-109289775D01*
X100523035Y-109299944D01*
X100634422Y-109301485D01*
X100885907Y-109301485D01*
X100885907Y-109552970D01*
X100634422Y-109552970D01*
X100493962Y-109556029D01*
X100418065Y-109569465D01*
X100387560Y-109599669D01*
X100382937Y-109636798D01*
X100388455Y-109674195D01*
X100414890Y-109698449D01*
X100477062Y-109712384D01*
X100589793Y-109718821D01*
X100767902Y-109720585D01*
X100823036Y-109720627D01*
X101263135Y-109720627D01*
X101263135Y-110139769D01*
X99879967Y-110139769D01*
X99879967Y-108714686D01*
X101137392Y-108714686D01*
X101137392Y-109133828D01*
G37*
G36*
X99379078Y-111229538D02*
G01*
X99677618Y-111235911D01*
X99902698Y-111258346D01*
X100063952Y-111301810D01*
X100171010Y-111371275D01*
X100233506Y-111471711D01*
X100261071Y-111608086D01*
X100264706Y-111686490D01*
X100242490Y-111870220D01*
X100164976Y-111998310D01*
X100047172Y-112074552D01*
X99948399Y-112135956D01*
X99929709Y-112192418D01*
X99987369Y-112237681D01*
X100117643Y-112265487D01*
X100163280Y-112269104D01*
X100382937Y-112281773D01*
X100382937Y-111271452D01*
X101640363Y-111271452D01*
X101640363Y-111690594D01*
X101263135Y-111690594D01*
X101083910Y-111691994D01*
X100972542Y-111698560D01*
X100913077Y-111713837D01*
X100889560Y-111741370D01*
X100885907Y-111774422D01*
X100895083Y-111821242D01*
X100935392Y-111846541D01*
X101026005Y-111856709D01*
X101137392Y-111858250D01*
X101388877Y-111858250D01*
X101388877Y-112109736D01*
X101137392Y-112109736D01*
X100996933Y-112112794D01*
X100921036Y-112126231D01*
X100890530Y-112156435D01*
X100885907Y-112193564D01*
X100891425Y-112230961D01*
X100917860Y-112255215D01*
X100980033Y-112269149D01*
X101092763Y-112275587D01*
X101270873Y-112277351D01*
X101326006Y-112277392D01*
X101766105Y-112277392D01*
X101766105Y-112696534D01*
X99819731Y-112696534D01*
X99598364Y-112477917D01*
X99376996Y-112259299D01*
X99376996Y-112696534D01*
X98650090Y-112696534D01*
X98383571Y-112695844D01*
X98185998Y-112692711D01*
X98042492Y-112685546D01*
X97938175Y-112672758D01*
X97858169Y-112652757D01*
X97787595Y-112623953D01*
X97738457Y-112599083D01*
X97556859Y-112460130D01*
X97433235Y-112276353D01*
X97370698Y-112065735D01*
X97372360Y-111846264D01*
X97441335Y-111635926D01*
X97546042Y-111487422D01*
X97735101Y-111342328D01*
X97966798Y-111254518D01*
X98219502Y-111227456D01*
X98471581Y-111264608D01*
X98609307Y-111317105D01*
X98714564Y-111373462D01*
X98778895Y-111418345D01*
X98788453Y-111432369D01*
X98761900Y-111477118D01*
X98695947Y-111561083D01*
X98645074Y-111620386D01*
X98559728Y-111713239D01*
X98504328Y-111751794D01*
X98453847Y-111745037D01*
X98395518Y-111709993D01*
X98249766Y-111657428D01*
X98103113Y-111673432D01*
X97976752Y-111746828D01*
X97891876Y-111866438D01*
X97868085Y-111988187D01*
X97893158Y-112100227D01*
X97976933Y-112179612D01*
X98117910Y-112235002D01*
X98257892Y-112256737D01*
X98339917Y-112221556D01*
X98370501Y-112126118D01*
X98371056Y-112105251D01*
X98375290Y-112035921D01*
X98401743Y-111999833D01*
X98471039Y-111986140D01*
X98601584Y-111983993D01*
X98832112Y-111983993D01*
X98832112Y-111732508D01*
X99376996Y-111732508D01*
X99381526Y-111806775D01*
X99409486Y-111843918D01*
X99482436Y-111856790D01*
X99587883Y-111858250D01*
X99732892Y-111848414D01*
X99808555Y-111816677D01*
X99823100Y-111794845D01*
X99821805Y-111705688D01*
X99749093Y-111641193D01*
X99615629Y-111608999D01*
X99560478Y-111606765D01*
X99446534Y-111610686D01*
X99393330Y-111632979D01*
X99377820Y-111689439D01*
X99376996Y-111732508D01*
X98832112Y-111732508D01*
X98832112Y-111229538D01*
X99379078Y-111229538D01*
G37*
%TO.C,J8*%
X65740842Y-94190058D02*
X58653515Y-97494933D01*
X61662557Y-103947844D02*
X58653515Y-97494933D01*
X68749884Y-100642969D02*
X61662557Y-103947844D01*
X66400126Y-95603898D02*
X59312800Y-98908773D01*
X65856927Y-93871116D02*
X64497466Y-94505043D01*
X68749884Y-100642969D02*
X65740842Y-94190058D01*
X66592283Y-95448091D02*
X65856927Y-93871116D01*
X65384154Y-99974785D02*
G75*
G03*
X66486037Y-99461089I-54156J1554787D01*
G01*
X64672829Y-97010691D02*
G75*
G03*
X64174410Y-97379502I657169J-1409307D01*
G01*
X66884785Y-98365846D02*
G75*
G03*
X66371089Y-97263963I-1554787J-54156D01*
G01*
X63775215Y-98474154D02*
G75*
G03*
X64288911Y-99576037I1554787J54156D01*
G01*
X65275846Y-96865216D02*
G75*
G03*
X64648140Y-97021660I54149J-1554763D01*
G01*
X63712923Y-99899164D02*
G75*
G03*
X63712923Y-99899164I-1555000J0D01*
G01*
%TO.C,J10*%
X114640000Y-121130000D02*
X114040000Y-121130000D01*
X120060000Y-124220000D02*
X119060000Y-124220000D01*
X115070000Y-126140000D02*
X119070000Y-126140000D01*
X114040000Y-122730000D02*
X114640000Y-122730000D01*
X119060000Y-124470000D02*
X119060000Y-119390000D01*
X114040000Y-125850000D02*
X120060000Y-125850000D01*
X114040000Y-120190000D02*
X114640000Y-120190000D01*
X120060000Y-125850000D02*
X120060000Y-118010000D01*
X114040000Y-125270000D02*
X114640000Y-125270000D01*
X114040000Y-118010000D02*
X114040000Y-125850000D01*
X114640000Y-120190000D02*
X114640000Y-118590000D01*
X119060000Y-119390000D02*
X120060000Y-119390000D01*
X120060000Y-124470000D02*
X119060000Y-124470000D01*
X114640000Y-122730000D02*
X114640000Y-121130000D01*
X119060000Y-124470000D02*
X118530000Y-124220000D01*
X114640000Y-118590000D02*
X114040000Y-118590000D01*
X114640000Y-123670000D02*
X114040000Y-123670000D01*
X120060000Y-119640000D02*
X119060000Y-119640000D01*
X114640000Y-125270000D02*
X114640000Y-123670000D01*
X120060000Y-118010000D02*
X114040000Y-118010000D01*
X118530000Y-124220000D02*
X118530000Y-119640000D01*
X118530000Y-119640000D02*
X119060000Y-119390000D01*
%TO.C,J11*%
X105205000Y-125270000D02*
X105805000Y-125270000D01*
X105205000Y-120190000D02*
X105805000Y-120190000D01*
X111225000Y-124220000D02*
X110225000Y-124220000D01*
X111225000Y-125850000D02*
X111225000Y-118010000D01*
X105805000Y-120190000D02*
X105805000Y-118590000D01*
X105205000Y-118010000D02*
X105205000Y-125850000D01*
X105205000Y-125850000D02*
X111225000Y-125850000D01*
X105805000Y-121130000D02*
X105205000Y-121130000D01*
X105205000Y-122730000D02*
X105805000Y-122730000D01*
X111225000Y-124470000D02*
X110225000Y-124470000D01*
X105805000Y-123670000D02*
X105205000Y-123670000D01*
X105805000Y-118590000D02*
X105205000Y-118590000D01*
X105805000Y-122730000D02*
X105805000Y-121130000D01*
X111225000Y-118010000D02*
X105205000Y-118010000D01*
X110225000Y-124470000D02*
X109695000Y-124220000D01*
X105805000Y-125270000D02*
X105805000Y-123670000D01*
X111225000Y-119640000D02*
X110225000Y-119640000D01*
X110225000Y-124470000D02*
X110225000Y-119390000D01*
X110225000Y-119390000D02*
X111225000Y-119390000D01*
X106235000Y-126140000D02*
X110235000Y-126140000D01*
X109695000Y-124220000D02*
X109695000Y-119640000D01*
X109695000Y-119640000D02*
X110225000Y-119390000D01*
%TD*%
M02*
