%TF.GenerationSoftware,KiCad,Pcbnew,(6.0.0-0)*%
%TF.CreationDate,2022-03-11T16:24:21-05:00*%
%TF.ProjectId,Internal Body LED Strips,496e7465-726e-4616-9c20-426f6479204c,rev?*%
%TF.SameCoordinates,Original*%
%TF.FileFunction,Legend,Top*%
%TF.FilePolarity,Positive*%
%FSLAX46Y46*%
G04 Gerber Fmt 4.6, Leading zero omitted, Abs format (unit mm)*
G04 Created by KiCad (PCBNEW (6.0.0-0)) date 2022-03-11 16:24:21*
%MOMM*%
%LPD*%
G01*
G04 APERTURE LIST*
%ADD10C,0.150000*%
%ADD11C,0.010000*%
%ADD12C,0.120000*%
G04 APERTURE END LIST*
D10*
X167740000Y-113452380D02*
X167930476Y-113452380D01*
X168025714Y-113500000D01*
X168120952Y-113595238D01*
X168168571Y-113785714D01*
X168168571Y-114119047D01*
X168120952Y-114309523D01*
X168025714Y-114404761D01*
X167930476Y-114452380D01*
X167740000Y-114452380D01*
X167644761Y-114404761D01*
X167549523Y-114309523D01*
X167501904Y-114119047D01*
X167501904Y-113785714D01*
X167549523Y-113595238D01*
X167644761Y-113500000D01*
X167740000Y-113452380D01*
X168597142Y-113452380D02*
X168597142Y-114261904D01*
X168644761Y-114357142D01*
X168692380Y-114404761D01*
X168787619Y-114452380D01*
X168978095Y-114452380D01*
X169073333Y-114404761D01*
X169120952Y-114357142D01*
X169168571Y-114261904D01*
X169168571Y-113452380D01*
X169501904Y-113452380D02*
X170073333Y-113452380D01*
X169787619Y-114452380D02*
X169787619Y-113452380D01*
X124206190Y-114452380D02*
X124206190Y-113452380D01*
X124682380Y-114452380D02*
X124682380Y-113452380D01*
X125253809Y-114452380D01*
X125253809Y-113452380D01*
X128105000Y-111083571D02*
X128069285Y-111155000D01*
X128069285Y-111262142D01*
X128105000Y-111369285D01*
X128176428Y-111440714D01*
X128247857Y-111476428D01*
X128390714Y-111512142D01*
X128497857Y-111512142D01*
X128640714Y-111476428D01*
X128712142Y-111440714D01*
X128783571Y-111369285D01*
X128819285Y-111262142D01*
X128819285Y-111190714D01*
X128783571Y-111083571D01*
X128747857Y-111047857D01*
X128497857Y-111047857D01*
X128497857Y-111190714D01*
X128819285Y-106596428D02*
X128069285Y-106596428D01*
X128069285Y-106417857D01*
X128105000Y-106310714D01*
X128176428Y-106239285D01*
X128247857Y-106203571D01*
X128390714Y-106167857D01*
X128497857Y-106167857D01*
X128640714Y-106203571D01*
X128712142Y-106239285D01*
X128783571Y-106310714D01*
X128819285Y-106417857D01*
X128819285Y-106596428D01*
X128747857Y-108527857D02*
X128783571Y-108563571D01*
X128819285Y-108670714D01*
X128819285Y-108742142D01*
X128783571Y-108849285D01*
X128712142Y-108920714D01*
X128640714Y-108956428D01*
X128497857Y-108992142D01*
X128390714Y-108992142D01*
X128247857Y-108956428D01*
X128176428Y-108920714D01*
X128105000Y-108849285D01*
X128069285Y-108742142D01*
X128069285Y-108670714D01*
X128105000Y-108563571D01*
X128140714Y-108527857D01*
X128069285Y-103692857D02*
X128069285Y-104050000D01*
X128426428Y-104085714D01*
X128390714Y-104050000D01*
X128355000Y-103978571D01*
X128355000Y-103800000D01*
X128390714Y-103728571D01*
X128426428Y-103692857D01*
X128497857Y-103657142D01*
X128676428Y-103657142D01*
X128747857Y-103692857D01*
X128783571Y-103728571D01*
X128819285Y-103800000D01*
X128819285Y-103978571D01*
X128783571Y-104050000D01*
X128747857Y-104085714D01*
X128069285Y-103442857D02*
X128819285Y-103192857D01*
X128069285Y-102942857D01*
X165255000Y-110773571D02*
X165219285Y-110845000D01*
X165219285Y-110952142D01*
X165255000Y-111059285D01*
X165326428Y-111130714D01*
X165397857Y-111166428D01*
X165540714Y-111202142D01*
X165647857Y-111202142D01*
X165790714Y-111166428D01*
X165862142Y-111130714D01*
X165933571Y-111059285D01*
X165969285Y-110952142D01*
X165969285Y-110880714D01*
X165933571Y-110773571D01*
X165897857Y-110737857D01*
X165647857Y-110737857D01*
X165647857Y-110880714D01*
X165969285Y-106286428D02*
X165219285Y-106286428D01*
X165219285Y-106107857D01*
X165255000Y-106000714D01*
X165326428Y-105929285D01*
X165397857Y-105893571D01*
X165540714Y-105857857D01*
X165647857Y-105857857D01*
X165790714Y-105893571D01*
X165862142Y-105929285D01*
X165933571Y-106000714D01*
X165969285Y-106107857D01*
X165969285Y-106286428D01*
X165897857Y-108217857D02*
X165933571Y-108253571D01*
X165969285Y-108360714D01*
X165969285Y-108432142D01*
X165933571Y-108539285D01*
X165862142Y-108610714D01*
X165790714Y-108646428D01*
X165647857Y-108682142D01*
X165540714Y-108682142D01*
X165397857Y-108646428D01*
X165326428Y-108610714D01*
X165255000Y-108539285D01*
X165219285Y-108432142D01*
X165219285Y-108360714D01*
X165255000Y-108253571D01*
X165290714Y-108217857D01*
X165219285Y-103382857D02*
X165219285Y-103740000D01*
X165576428Y-103775714D01*
X165540714Y-103740000D01*
X165505000Y-103668571D01*
X165505000Y-103490000D01*
X165540714Y-103418571D01*
X165576428Y-103382857D01*
X165647857Y-103347142D01*
X165826428Y-103347142D01*
X165897857Y-103382857D01*
X165933571Y-103418571D01*
X165969285Y-103490000D01*
X165969285Y-103668571D01*
X165933571Y-103740000D01*
X165897857Y-103775714D01*
X165219285Y-103132857D02*
X165969285Y-102882857D01*
X165219285Y-102632857D01*
X167740000Y-100232380D02*
X167930476Y-100232380D01*
X168025714Y-100280000D01*
X168120952Y-100375238D01*
X168168571Y-100565714D01*
X168168571Y-100899047D01*
X168120952Y-101089523D01*
X168025714Y-101184761D01*
X167930476Y-101232380D01*
X167740000Y-101232380D01*
X167644761Y-101184761D01*
X167549523Y-101089523D01*
X167501904Y-100899047D01*
X167501904Y-100565714D01*
X167549523Y-100375238D01*
X167644761Y-100280000D01*
X167740000Y-100232380D01*
X168597142Y-100232380D02*
X168597142Y-101041904D01*
X168644761Y-101137142D01*
X168692380Y-101184761D01*
X168787619Y-101232380D01*
X168978095Y-101232380D01*
X169073333Y-101184761D01*
X169120952Y-101137142D01*
X169168571Y-101041904D01*
X169168571Y-100232380D01*
X169501904Y-100232380D02*
X170073333Y-100232380D01*
X169787619Y-101232380D02*
X169787619Y-100232380D01*
X124206190Y-101232380D02*
X124206190Y-100232380D01*
X124682380Y-101232380D02*
X124682380Y-100232380D01*
X125253809Y-101232380D01*
X125253809Y-100232380D01*
D11*
%TO.C,G\u002A\u002A\u002A*%
X132147684Y-116639166D02*
X131903579Y-116883004D01*
X131903579Y-116883004D02*
X131659473Y-117126842D01*
X131659473Y-117126842D02*
X129259353Y-117126842D01*
X129259353Y-117126842D02*
X129019098Y-116886201D01*
X129019098Y-116886201D02*
X128778842Y-116645559D01*
X128778842Y-116645559D02*
X128778842Y-114950493D01*
X128778842Y-114950493D02*
X129504576Y-114950493D01*
X129504576Y-114950493D02*
X129506017Y-115005164D01*
X129506017Y-115005164D02*
X129530185Y-115070742D01*
X129530185Y-115070742D02*
X129574005Y-115131658D01*
X129574005Y-115131658D02*
X129620006Y-115171393D01*
X129620006Y-115171393D02*
X129665112Y-115201790D01*
X129665112Y-115201790D02*
X130451002Y-115201790D01*
X130451002Y-115201790D02*
X130647578Y-115201536D01*
X130647578Y-115201536D02*
X130817434Y-115200774D01*
X130817434Y-115200774D02*
X130960585Y-115199504D01*
X130960585Y-115199504D02*
X131077042Y-115197726D01*
X131077042Y-115197726D02*
X131166818Y-115195439D01*
X131166818Y-115195439D02*
X131229927Y-115192644D01*
X131229927Y-115192644D02*
X131266380Y-115189339D01*
X131266380Y-115189339D02*
X131274525Y-115187531D01*
X131274525Y-115187531D02*
X131336195Y-115151348D01*
X131336195Y-115151348D02*
X131380719Y-115099294D01*
X131380719Y-115099294D02*
X131407512Y-115036484D01*
X131407512Y-115036484D02*
X131415991Y-114968034D01*
X131415991Y-114968034D02*
X131405574Y-114899059D01*
X131405574Y-114899059D02*
X131375677Y-114834675D01*
X131375677Y-114834675D02*
X131325718Y-114779997D01*
X131325718Y-114779997D02*
X131321353Y-114776588D01*
X131321353Y-114776588D02*
X131274152Y-114740579D01*
X131274152Y-114740579D02*
X130491050Y-114736538D01*
X130491050Y-114736538D02*
X130294903Y-114735778D01*
X130294903Y-114735778D02*
X130125312Y-114735661D01*
X130125312Y-114735661D02*
X129982103Y-114736189D01*
X129982103Y-114736189D02*
X129865103Y-114737365D01*
X129865103Y-114737365D02*
X129774137Y-114739190D01*
X129774137Y-114739190D02*
X129709033Y-114741667D01*
X129709033Y-114741667D02*
X129669618Y-114744797D01*
X129669618Y-114744797D02*
X129659056Y-114746730D01*
X129659056Y-114746730D02*
X129603534Y-114775738D01*
X129603534Y-114775738D02*
X129556493Y-114824075D01*
X129556493Y-114824075D02*
X129522113Y-114884681D01*
X129522113Y-114884681D02*
X129504576Y-114950493D01*
X129504576Y-114950493D02*
X128778842Y-114950493D01*
X128778842Y-114950493D02*
X128778842Y-114025272D01*
X128778842Y-114025272D02*
X129506087Y-114025272D01*
X129506087Y-114025272D02*
X129512722Y-114063308D01*
X129512722Y-114063308D02*
X129543426Y-114137558D01*
X129543426Y-114137558D02*
X129592328Y-114192917D01*
X129592328Y-114192917D02*
X129661247Y-114231241D01*
X129661247Y-114231241D02*
X129685791Y-114239602D01*
X129685791Y-114239602D02*
X129707879Y-114242223D01*
X129707879Y-114242223D02*
X129753678Y-114244513D01*
X129753678Y-114244513D02*
X129820164Y-114246475D01*
X129820164Y-114246475D02*
X129904312Y-114248109D01*
X129904312Y-114248109D02*
X130003098Y-114249419D01*
X130003098Y-114249419D02*
X130113498Y-114250405D01*
X130113498Y-114250405D02*
X130232489Y-114251070D01*
X130232489Y-114251070D02*
X130357045Y-114251415D01*
X130357045Y-114251415D02*
X130484143Y-114251442D01*
X130484143Y-114251442D02*
X130610759Y-114251153D01*
X130610759Y-114251153D02*
X130733869Y-114250549D01*
X130733869Y-114250549D02*
X130850448Y-114249633D01*
X130850448Y-114249633D02*
X130957473Y-114248407D01*
X130957473Y-114248407D02*
X131051919Y-114246871D01*
X131051919Y-114246871D02*
X131130762Y-114245028D01*
X131130762Y-114245028D02*
X131190978Y-114242880D01*
X131190978Y-114242880D02*
X131229543Y-114240428D01*
X131229543Y-114240428D02*
X131241559Y-114238675D01*
X131241559Y-114238675D02*
X131313090Y-114205978D01*
X131313090Y-114205978D02*
X131367696Y-114154321D01*
X131367696Y-114154321D02*
X131402462Y-114087519D01*
X131402462Y-114087519D02*
X131414466Y-114012532D01*
X131414466Y-114012532D02*
X131403473Y-113932678D01*
X131403473Y-113932678D02*
X131369908Y-113865747D01*
X131369908Y-113865747D02*
X131314877Y-113813941D01*
X131314877Y-113813941D02*
X131314398Y-113813623D01*
X131314398Y-113813623D02*
X131260659Y-113778053D01*
X131260659Y-113778053D02*
X130484303Y-113774289D01*
X130484303Y-113774289D02*
X130318324Y-113773550D01*
X130318324Y-113773550D02*
X130176941Y-113773102D01*
X130176941Y-113773102D02*
X130058014Y-113772989D01*
X130058014Y-113772989D02*
X129959405Y-113773256D01*
X129959405Y-113773256D02*
X129878973Y-113773949D01*
X129878973Y-113773949D02*
X129814579Y-113775113D01*
X129814579Y-113775113D02*
X129764084Y-113776794D01*
X129764084Y-113776794D02*
X129725347Y-113779038D01*
X129725347Y-113779038D02*
X129696230Y-113781888D01*
X129696230Y-113781888D02*
X129674593Y-113785392D01*
X129674593Y-113785392D02*
X129658297Y-113789594D01*
X129658297Y-113789594D02*
X129651512Y-113791960D01*
X129651512Y-113791960D02*
X129587116Y-113829730D01*
X129587116Y-113829730D02*
X129539566Y-113884816D01*
X129539566Y-113884816D02*
X129511633Y-113951802D01*
X129511633Y-113951802D02*
X129506087Y-114025272D01*
X129506087Y-114025272D02*
X128778842Y-114025272D01*
X128778842Y-114025272D02*
X128778842Y-113290106D01*
X128778842Y-113290106D02*
X132147684Y-113290106D01*
X132147684Y-113290106D02*
X132147684Y-116639166D01*
X132147684Y-116639166D02*
X132147684Y-116639166D01*
G36*
X132147684Y-113290106D02*
G01*
X132147684Y-116639166D01*
X131903579Y-116883004D01*
X131659473Y-117126842D01*
X129259353Y-117126842D01*
X129019098Y-116886201D01*
X128778842Y-116645559D01*
X128778842Y-114950493D01*
X129504576Y-114950493D01*
X129506017Y-115005164D01*
X129530185Y-115070742D01*
X129574005Y-115131658D01*
X129620006Y-115171393D01*
X129665112Y-115201790D01*
X130451002Y-115201790D01*
X130647578Y-115201536D01*
X130817434Y-115200774D01*
X130960585Y-115199504D01*
X131077042Y-115197726D01*
X131166818Y-115195439D01*
X131229927Y-115192644D01*
X131266380Y-115189339D01*
X131274525Y-115187531D01*
X131336195Y-115151348D01*
X131380719Y-115099294D01*
X131407512Y-115036484D01*
X131415991Y-114968034D01*
X131405574Y-114899059D01*
X131375677Y-114834675D01*
X131325718Y-114779997D01*
X131321353Y-114776588D01*
X131274152Y-114740579D01*
X130491050Y-114736538D01*
X130294903Y-114735778D01*
X130125312Y-114735661D01*
X129982103Y-114736189D01*
X129865103Y-114737365D01*
X129774137Y-114739190D01*
X129709033Y-114741667D01*
X129669618Y-114744797D01*
X129659056Y-114746730D01*
X129603534Y-114775738D01*
X129556493Y-114824075D01*
X129522113Y-114884681D01*
X129504576Y-114950493D01*
X128778842Y-114950493D01*
X128778842Y-114025272D01*
X129506087Y-114025272D01*
X129512722Y-114063308D01*
X129543426Y-114137558D01*
X129592328Y-114192917D01*
X129661247Y-114231241D01*
X129685791Y-114239602D01*
X129707879Y-114242223D01*
X129753678Y-114244513D01*
X129820164Y-114246475D01*
X129904312Y-114248109D01*
X130003098Y-114249419D01*
X130113498Y-114250405D01*
X130232489Y-114251070D01*
X130357045Y-114251415D01*
X130484143Y-114251442D01*
X130610759Y-114251153D01*
X130733869Y-114250549D01*
X130850448Y-114249633D01*
X130957473Y-114248407D01*
X131051919Y-114246871D01*
X131130762Y-114245028D01*
X131190978Y-114242880D01*
X131229543Y-114240428D01*
X131241559Y-114238675D01*
X131313090Y-114205978D01*
X131367696Y-114154321D01*
X131402462Y-114087519D01*
X131414466Y-114012532D01*
X131403473Y-113932678D01*
X131369908Y-113865747D01*
X131314877Y-113813941D01*
X131314398Y-113813623D01*
X131260659Y-113778053D01*
X130484303Y-113774289D01*
X130318324Y-113773550D01*
X130176941Y-113773102D01*
X130058014Y-113772989D01*
X129959405Y-113773256D01*
X129878973Y-113773949D01*
X129814579Y-113775113D01*
X129764084Y-113776794D01*
X129725347Y-113779038D01*
X129696230Y-113781888D01*
X129674593Y-113785392D01*
X129658297Y-113789594D01*
X129651512Y-113791960D01*
X129587116Y-113829730D01*
X129539566Y-113884816D01*
X129511633Y-113951802D01*
X129506087Y-114025272D01*
X128778842Y-114025272D01*
X128778842Y-113290106D01*
X132147684Y-113290106D01*
G37*
X132147684Y-113290106D02*
X132147684Y-116639166D01*
X131903579Y-116883004D01*
X131659473Y-117126842D01*
X129259353Y-117126842D01*
X129019098Y-116886201D01*
X128778842Y-116645559D01*
X128778842Y-114950493D01*
X129504576Y-114950493D01*
X129506017Y-115005164D01*
X129530185Y-115070742D01*
X129574005Y-115131658D01*
X129620006Y-115171393D01*
X129665112Y-115201790D01*
X130451002Y-115201790D01*
X130647578Y-115201536D01*
X130817434Y-115200774D01*
X130960585Y-115199504D01*
X131077042Y-115197726D01*
X131166818Y-115195439D01*
X131229927Y-115192644D01*
X131266380Y-115189339D01*
X131274525Y-115187531D01*
X131336195Y-115151348D01*
X131380719Y-115099294D01*
X131407512Y-115036484D01*
X131415991Y-114968034D01*
X131405574Y-114899059D01*
X131375677Y-114834675D01*
X131325718Y-114779997D01*
X131321353Y-114776588D01*
X131274152Y-114740579D01*
X130491050Y-114736538D01*
X130294903Y-114735778D01*
X130125312Y-114735661D01*
X129982103Y-114736189D01*
X129865103Y-114737365D01*
X129774137Y-114739190D01*
X129709033Y-114741667D01*
X129669618Y-114744797D01*
X129659056Y-114746730D01*
X129603534Y-114775738D01*
X129556493Y-114824075D01*
X129522113Y-114884681D01*
X129504576Y-114950493D01*
X128778842Y-114950493D01*
X128778842Y-114025272D01*
X129506087Y-114025272D01*
X129512722Y-114063308D01*
X129543426Y-114137558D01*
X129592328Y-114192917D01*
X129661247Y-114231241D01*
X129685791Y-114239602D01*
X129707879Y-114242223D01*
X129753678Y-114244513D01*
X129820164Y-114246475D01*
X129904312Y-114248109D01*
X130003098Y-114249419D01*
X130113498Y-114250405D01*
X130232489Y-114251070D01*
X130357045Y-114251415D01*
X130484143Y-114251442D01*
X130610759Y-114251153D01*
X130733869Y-114250549D01*
X130850448Y-114249633D01*
X130957473Y-114248407D01*
X131051919Y-114246871D01*
X131130762Y-114245028D01*
X131190978Y-114242880D01*
X131229543Y-114240428D01*
X131241559Y-114238675D01*
X131313090Y-114205978D01*
X131367696Y-114154321D01*
X131402462Y-114087519D01*
X131414466Y-114012532D01*
X131403473Y-113932678D01*
X131369908Y-113865747D01*
X131314877Y-113813941D01*
X131314398Y-113813623D01*
X131260659Y-113778053D01*
X130484303Y-113774289D01*
X130318324Y-113773550D01*
X130176941Y-113773102D01*
X130058014Y-113772989D01*
X129959405Y-113773256D01*
X129878973Y-113773949D01*
X129814579Y-113775113D01*
X129764084Y-113776794D01*
X129725347Y-113779038D01*
X129696230Y-113781888D01*
X129674593Y-113785392D01*
X129658297Y-113789594D01*
X129651512Y-113791960D01*
X129587116Y-113829730D01*
X129539566Y-113884816D01*
X129511633Y-113951802D01*
X129506087Y-114025272D01*
X128778842Y-114025272D01*
X128778842Y-113290106D01*
X132147684Y-113290106D01*
X130721018Y-111150709D02*
X130916614Y-111194212D01*
X130916614Y-111194212D02*
X131105395Y-111260653D01*
X131105395Y-111260653D02*
X131285103Y-111348765D01*
X131285103Y-111348765D02*
X131453483Y-111457282D01*
X131453483Y-111457282D02*
X131608277Y-111584937D01*
X131608277Y-111584937D02*
X131747230Y-111730464D01*
X131747230Y-111730464D02*
X131868084Y-111892597D01*
X131868084Y-111892597D02*
X131964311Y-112061323D01*
X131964311Y-112061323D02*
X132019641Y-112182993D01*
X132019641Y-112182993D02*
X132062936Y-112301037D01*
X132062936Y-112301037D02*
X132095607Y-112421581D01*
X132095607Y-112421581D02*
X132119064Y-112550748D01*
X132119064Y-112550748D02*
X132134719Y-112694665D01*
X132134719Y-112694665D02*
X132143128Y-112837548D01*
X132143128Y-112837548D02*
X132151865Y-113049474D01*
X132151865Y-113049474D02*
X128774967Y-113049474D01*
X128774967Y-113049474D02*
X128782468Y-112818869D01*
X128782468Y-112818869D02*
X128786568Y-112728485D01*
X128786568Y-112728485D02*
X128792628Y-112641419D01*
X128792628Y-112641419D02*
X128800043Y-112564590D01*
X128800043Y-112564590D02*
X128803297Y-112540802D01*
X128803297Y-112540802D02*
X131188197Y-112540802D01*
X131188197Y-112540802D02*
X131189481Y-112607850D01*
X131189481Y-112607850D02*
X131209334Y-112672271D01*
X131209334Y-112672271D02*
X131248146Y-112729359D01*
X131248146Y-112729359D02*
X131306310Y-112774411D01*
X131306310Y-112774411D02*
X131323975Y-112783267D01*
X131323975Y-112783267D02*
X131397924Y-112805496D01*
X131397924Y-112805496D02*
X131469316Y-112802158D01*
X131469316Y-112802158D02*
X131528705Y-112780822D01*
X131528705Y-112780822D02*
X131584581Y-112740168D01*
X131584581Y-112740168D02*
X131625491Y-112683278D01*
X131625491Y-112683278D02*
X131649616Y-112616621D01*
X131649616Y-112616621D02*
X131655135Y-112546668D01*
X131655135Y-112546668D02*
X131640228Y-112479889D01*
X131640228Y-112479889D02*
X131622656Y-112446848D01*
X131622656Y-112446848D02*
X131568464Y-112387299D01*
X131568464Y-112387299D02*
X131502584Y-112348694D01*
X131502584Y-112348694D02*
X131429811Y-112332983D01*
X131429811Y-112332983D02*
X131360891Y-112340424D01*
X131360891Y-112340424D02*
X131291827Y-112370938D01*
X131291827Y-112370938D02*
X131239762Y-112417642D01*
X131239762Y-112417642D02*
X131205088Y-112475832D01*
X131205088Y-112475832D02*
X131188197Y-112540802D01*
X131188197Y-112540802D02*
X128803297Y-112540802D01*
X128803297Y-112540802D02*
X128808206Y-112504918D01*
X128808206Y-112504918D02*
X128811417Y-112488000D01*
X128811417Y-112488000D02*
X128867321Y-112281728D01*
X128867321Y-112281728D02*
X128943849Y-112091557D01*
X128943849Y-112091557D02*
X129013724Y-111966308D01*
X129013724Y-111966308D02*
X129988705Y-111966308D01*
X129988705Y-111966308D02*
X129989939Y-112027355D01*
X129989939Y-112027355D02*
X129995179Y-112072572D01*
X129995179Y-112072572D02*
X130006696Y-112112812D01*
X130006696Y-112112812D02*
X130026759Y-112158925D01*
X130026759Y-112158925D02*
X130030713Y-112167158D01*
X130030713Y-112167158D02*
X130092327Y-112268018D01*
X130092327Y-112268018D02*
X130168427Y-112346679D01*
X130168427Y-112346679D02*
X130258079Y-112402573D01*
X130258079Y-112402573D02*
X130360348Y-112435134D01*
X130360348Y-112435134D02*
X130474301Y-112443797D01*
X130474301Y-112443797D02*
X130486255Y-112443329D01*
X130486255Y-112443329D02*
X130556035Y-112436108D01*
X130556035Y-112436108D02*
X130616119Y-112419459D01*
X130616119Y-112419459D02*
X130669199Y-112396046D01*
X130669199Y-112396046D02*
X130765619Y-112334810D01*
X130765619Y-112334810D02*
X130841544Y-112256952D01*
X130841544Y-112256952D02*
X130895875Y-112164257D01*
X130895875Y-112164257D02*
X130927511Y-112058507D01*
X130927511Y-112058507D02*
X130935746Y-111963972D01*
X130935746Y-111963972D02*
X130934469Y-111908352D01*
X130934469Y-111908352D02*
X130928620Y-111865447D01*
X130928620Y-111865447D02*
X130915469Y-111824032D01*
X130915469Y-111824032D02*
X130892283Y-111772880D01*
X130892283Y-111772880D02*
X130886255Y-111760602D01*
X130886255Y-111760602D02*
X130838492Y-111679757D01*
X130838492Y-111679757D02*
X130781120Y-111615750D01*
X130781120Y-111615750D02*
X130707237Y-111561648D01*
X130707237Y-111561648D02*
X130663790Y-111537112D01*
X130663790Y-111537112D02*
X130632333Y-111522357D01*
X130632333Y-111522357D02*
X130600762Y-111512975D01*
X130600762Y-111512975D02*
X130561750Y-111507809D01*
X130561750Y-111507809D02*
X130507967Y-111505701D01*
X130507967Y-111505701D02*
X130463263Y-111505421D01*
X130463263Y-111505421D02*
X130393361Y-111506463D01*
X130393361Y-111506463D02*
X130342750Y-111510280D01*
X130342750Y-111510280D02*
X130304040Y-111517914D01*
X130304040Y-111517914D02*
X130269842Y-111530405D01*
X130269842Y-111530405D02*
X130262737Y-111533651D01*
X130262737Y-111533651D02*
X130172775Y-111589911D01*
X130172775Y-111589911D02*
X130095074Y-111666593D01*
X130095074Y-111666593D02*
X130035081Y-111758263D01*
X130035081Y-111758263D02*
X130032644Y-111763144D01*
X130032644Y-111763144D02*
X130010271Y-111811632D01*
X130010271Y-111811632D02*
X129997063Y-111851644D01*
X129997063Y-111851644D02*
X129990675Y-111894025D01*
X129990675Y-111894025D02*
X129988760Y-111949623D01*
X129988760Y-111949623D02*
X129988705Y-111966308D01*
X129988705Y-111966308D02*
X129013724Y-111966308D01*
X129013724Y-111966308D02*
X129042273Y-111915136D01*
X129042273Y-111915136D02*
X129163863Y-111750119D01*
X129163863Y-111750119D02*
X129278914Y-111624493D01*
X129278914Y-111624493D02*
X129436602Y-111483000D01*
X129436602Y-111483000D02*
X129602400Y-111366428D01*
X129602400Y-111366428D02*
X129778121Y-111273929D01*
X129778121Y-111273929D02*
X129965577Y-111204653D01*
X129965577Y-111204653D02*
X130166580Y-111157753D01*
X130166580Y-111157753D02*
X130318404Y-111137581D01*
X130318404Y-111137581D02*
X130520862Y-111131410D01*
X130520862Y-111131410D02*
X130721018Y-111150709D01*
X130721018Y-111150709D02*
X130721018Y-111150709D01*
G36*
X128811417Y-112488000D02*
G01*
X128867321Y-112281728D01*
X128943849Y-112091557D01*
X129013724Y-111966308D01*
X129988705Y-111966308D01*
X129989939Y-112027355D01*
X129995179Y-112072572D01*
X130006696Y-112112812D01*
X130026759Y-112158925D01*
X130030713Y-112167158D01*
X130092327Y-112268018D01*
X130168427Y-112346679D01*
X130258079Y-112402573D01*
X130360348Y-112435134D01*
X130474301Y-112443797D01*
X130486255Y-112443329D01*
X130556035Y-112436108D01*
X130616119Y-112419459D01*
X130669199Y-112396046D01*
X130765619Y-112334810D01*
X130841544Y-112256952D01*
X130895875Y-112164257D01*
X130927511Y-112058507D01*
X130935746Y-111963972D01*
X130934469Y-111908352D01*
X130928620Y-111865447D01*
X130915469Y-111824032D01*
X130892283Y-111772880D01*
X130886255Y-111760602D01*
X130838492Y-111679757D01*
X130781120Y-111615750D01*
X130707237Y-111561648D01*
X130663790Y-111537112D01*
X130632333Y-111522357D01*
X130600762Y-111512975D01*
X130561750Y-111507809D01*
X130507967Y-111505701D01*
X130463263Y-111505421D01*
X130393361Y-111506463D01*
X130342750Y-111510280D01*
X130304040Y-111517914D01*
X130269842Y-111530405D01*
X130262737Y-111533651D01*
X130172775Y-111589911D01*
X130095074Y-111666593D01*
X130035081Y-111758263D01*
X130032644Y-111763144D01*
X130010271Y-111811632D01*
X129997063Y-111851644D01*
X129990675Y-111894025D01*
X129988760Y-111949623D01*
X129988705Y-111966308D01*
X129013724Y-111966308D01*
X129042273Y-111915136D01*
X129163863Y-111750119D01*
X129278914Y-111624493D01*
X129436602Y-111483000D01*
X129602400Y-111366428D01*
X129778121Y-111273929D01*
X129965577Y-111204653D01*
X130166580Y-111157753D01*
X130318404Y-111137581D01*
X130520862Y-111131410D01*
X130721018Y-111150709D01*
X130916614Y-111194212D01*
X131105395Y-111260653D01*
X131285103Y-111348765D01*
X131453483Y-111457282D01*
X131608277Y-111584937D01*
X131747230Y-111730464D01*
X131868084Y-111892597D01*
X131964311Y-112061323D01*
X132019641Y-112182993D01*
X132062936Y-112301037D01*
X132095607Y-112421581D01*
X132119064Y-112550748D01*
X132134719Y-112694665D01*
X132143128Y-112837548D01*
X132151865Y-113049474D01*
X128774967Y-113049474D01*
X128782468Y-112818869D01*
X128786568Y-112728485D01*
X128792628Y-112641419D01*
X128800043Y-112564590D01*
X128803297Y-112540802D01*
X131188197Y-112540802D01*
X131189481Y-112607850D01*
X131209334Y-112672271D01*
X131248146Y-112729359D01*
X131306310Y-112774411D01*
X131323975Y-112783267D01*
X131397924Y-112805496D01*
X131469316Y-112802158D01*
X131528705Y-112780822D01*
X131584581Y-112740168D01*
X131625491Y-112683278D01*
X131649616Y-112616621D01*
X131655135Y-112546668D01*
X131640228Y-112479889D01*
X131622656Y-112446848D01*
X131568464Y-112387299D01*
X131502584Y-112348694D01*
X131429811Y-112332983D01*
X131360891Y-112340424D01*
X131291827Y-112370938D01*
X131239762Y-112417642D01*
X131205088Y-112475832D01*
X131188197Y-112540802D01*
X128803297Y-112540802D01*
X128808206Y-112504918D01*
X128811417Y-112488000D01*
G37*
X128811417Y-112488000D02*
X128867321Y-112281728D01*
X128943849Y-112091557D01*
X129013724Y-111966308D01*
X129988705Y-111966308D01*
X129989939Y-112027355D01*
X129995179Y-112072572D01*
X130006696Y-112112812D01*
X130026759Y-112158925D01*
X130030713Y-112167158D01*
X130092327Y-112268018D01*
X130168427Y-112346679D01*
X130258079Y-112402573D01*
X130360348Y-112435134D01*
X130474301Y-112443797D01*
X130486255Y-112443329D01*
X130556035Y-112436108D01*
X130616119Y-112419459D01*
X130669199Y-112396046D01*
X130765619Y-112334810D01*
X130841544Y-112256952D01*
X130895875Y-112164257D01*
X130927511Y-112058507D01*
X130935746Y-111963972D01*
X130934469Y-111908352D01*
X130928620Y-111865447D01*
X130915469Y-111824032D01*
X130892283Y-111772880D01*
X130886255Y-111760602D01*
X130838492Y-111679757D01*
X130781120Y-111615750D01*
X130707237Y-111561648D01*
X130663790Y-111537112D01*
X130632333Y-111522357D01*
X130600762Y-111512975D01*
X130561750Y-111507809D01*
X130507967Y-111505701D01*
X130463263Y-111505421D01*
X130393361Y-111506463D01*
X130342750Y-111510280D01*
X130304040Y-111517914D01*
X130269842Y-111530405D01*
X130262737Y-111533651D01*
X130172775Y-111589911D01*
X130095074Y-111666593D01*
X130035081Y-111758263D01*
X130032644Y-111763144D01*
X130010271Y-111811632D01*
X129997063Y-111851644D01*
X129990675Y-111894025D01*
X129988760Y-111949623D01*
X129988705Y-111966308D01*
X129013724Y-111966308D01*
X129042273Y-111915136D01*
X129163863Y-111750119D01*
X129278914Y-111624493D01*
X129436602Y-111483000D01*
X129602400Y-111366428D01*
X129778121Y-111273929D01*
X129965577Y-111204653D01*
X130166580Y-111157753D01*
X130318404Y-111137581D01*
X130520862Y-111131410D01*
X130721018Y-111150709D01*
X130916614Y-111194212D01*
X131105395Y-111260653D01*
X131285103Y-111348765D01*
X131453483Y-111457282D01*
X131608277Y-111584937D01*
X131747230Y-111730464D01*
X131868084Y-111892597D01*
X131964311Y-112061323D01*
X132019641Y-112182993D01*
X132062936Y-112301037D01*
X132095607Y-112421581D01*
X132119064Y-112550748D01*
X132134719Y-112694665D01*
X132143128Y-112837548D01*
X132151865Y-113049474D01*
X128774967Y-113049474D01*
X128782468Y-112818869D01*
X128786568Y-112728485D01*
X128792628Y-112641419D01*
X128800043Y-112564590D01*
X128803297Y-112540802D01*
X131188197Y-112540802D01*
X131189481Y-112607850D01*
X131209334Y-112672271D01*
X131248146Y-112729359D01*
X131306310Y-112774411D01*
X131323975Y-112783267D01*
X131397924Y-112805496D01*
X131469316Y-112802158D01*
X131528705Y-112780822D01*
X131584581Y-112740168D01*
X131625491Y-112683278D01*
X131649616Y-112616621D01*
X131655135Y-112546668D01*
X131640228Y-112479889D01*
X131622656Y-112446848D01*
X131568464Y-112387299D01*
X131502584Y-112348694D01*
X131429811Y-112332983D01*
X131360891Y-112340424D01*
X131291827Y-112370938D01*
X131239762Y-112417642D01*
X131205088Y-112475832D01*
X131188197Y-112540802D01*
X128803297Y-112540802D01*
X128808206Y-112504918D01*
X128811417Y-112488000D01*
X132679079Y-113292544D02*
X132777181Y-113294011D01*
X132777181Y-113294011D02*
X132852626Y-113295605D01*
X132852626Y-113295605D02*
X132909494Y-113297753D01*
X132909494Y-113297753D02*
X132951862Y-113300884D01*
X132951862Y-113300884D02*
X132983811Y-113305427D01*
X132983811Y-113305427D02*
X133009418Y-113311811D01*
X133009418Y-113311811D02*
X133032762Y-113320462D01*
X133032762Y-113320462D02*
X133057922Y-113331810D01*
X133057922Y-113331810D02*
X133059364Y-113332486D01*
X133059364Y-113332486D02*
X133146063Y-113386324D01*
X133146063Y-113386324D02*
X133223023Y-113459359D01*
X133223023Y-113459359D02*
X133282806Y-113544151D01*
X133282806Y-113544151D02*
X133295094Y-113568216D01*
X133295094Y-113568216D02*
X133330790Y-113644369D01*
X133330790Y-113644369D02*
X133337474Y-115155000D01*
X133337474Y-115155000D02*
X133344158Y-116665632D01*
X133344158Y-116665632D02*
X133576270Y-117240474D01*
X133576270Y-117240474D02*
X133623684Y-117357906D01*
X133623684Y-117357906D02*
X133668125Y-117467986D01*
X133668125Y-117467986D02*
X133708569Y-117568182D01*
X133708569Y-117568182D02*
X133743995Y-117655961D01*
X133743995Y-117655961D02*
X133773381Y-117728791D01*
X133773381Y-117728791D02*
X133795706Y-117784139D01*
X133795706Y-117784139D02*
X133809947Y-117819474D01*
X133809947Y-117819474D02*
X133814990Y-117832027D01*
X133814990Y-117832027D02*
X133811383Y-117835333D01*
X133811383Y-117835333D02*
X133796747Y-117838200D01*
X133796747Y-117838200D02*
X133769554Y-117840657D01*
X133769554Y-117840657D02*
X133728273Y-117842730D01*
X133728273Y-117842730D02*
X133671374Y-117844445D01*
X133671374Y-117844445D02*
X133597328Y-117845829D01*
X133597328Y-117845829D02*
X133504606Y-117846910D01*
X133504606Y-117846910D02*
X133391678Y-117847713D01*
X133391678Y-117847713D02*
X133257013Y-117848267D01*
X133257013Y-117848267D02*
X133099083Y-117848597D01*
X133099083Y-117848597D02*
X132916358Y-117848731D01*
X132916358Y-117848731D02*
X132862766Y-117848737D01*
X132862766Y-117848737D02*
X132679453Y-117848710D01*
X132679453Y-117848710D02*
X132521078Y-117848599D01*
X132521078Y-117848599D02*
X132385841Y-117848359D01*
X132385841Y-117848359D02*
X132271941Y-117847948D01*
X132271941Y-117847948D02*
X132177581Y-117847319D01*
X132177581Y-117847319D02*
X132100960Y-117846430D01*
X132100960Y-117846430D02*
X132040278Y-117845236D01*
X132040278Y-117845236D02*
X131993737Y-117843693D01*
X131993737Y-117843693D02*
X131959536Y-117841756D01*
X131959536Y-117841756D02*
X131935877Y-117839382D01*
X131935877Y-117839382D02*
X131920959Y-117836526D01*
X131920959Y-117836526D02*
X131912983Y-117833144D01*
X131912983Y-117833144D02*
X131910150Y-117829192D01*
X131910150Y-117829192D02*
X131910444Y-117825342D01*
X131910444Y-117825342D02*
X131916625Y-117808451D01*
X131916625Y-117808451D02*
X131931752Y-117769333D01*
X131931752Y-117769333D02*
X131954803Y-117710569D01*
X131954803Y-117710569D02*
X131984756Y-117634741D01*
X131984756Y-117634741D02*
X132020588Y-117544431D01*
X132020588Y-117544431D02*
X132061278Y-117442221D01*
X132061278Y-117442221D02*
X132105804Y-117330694D01*
X132105804Y-117330694D02*
X132145950Y-117230380D01*
X132145950Y-117230380D02*
X132374948Y-116658812D01*
X132374948Y-116658812D02*
X132374948Y-113288298D01*
X132374948Y-113288298D02*
X132679079Y-113292544D01*
X132679079Y-113292544D02*
X132679079Y-113292544D01*
G36*
X132679079Y-113292544D02*
G01*
X132777181Y-113294011D01*
X132852626Y-113295605D01*
X132909494Y-113297753D01*
X132951862Y-113300884D01*
X132983811Y-113305427D01*
X133009418Y-113311811D01*
X133032762Y-113320462D01*
X133057922Y-113331810D01*
X133059364Y-113332486D01*
X133146063Y-113386324D01*
X133223023Y-113459359D01*
X133282806Y-113544151D01*
X133295094Y-113568216D01*
X133330790Y-113644369D01*
X133337474Y-115155000D01*
X133344158Y-116665632D01*
X133576270Y-117240474D01*
X133623684Y-117357906D01*
X133668125Y-117467986D01*
X133708569Y-117568182D01*
X133743995Y-117655961D01*
X133773381Y-117728791D01*
X133795706Y-117784139D01*
X133809947Y-117819474D01*
X133814990Y-117832027D01*
X133811383Y-117835333D01*
X133796747Y-117838200D01*
X133769554Y-117840657D01*
X133728273Y-117842730D01*
X133671374Y-117844445D01*
X133597328Y-117845829D01*
X133504606Y-117846910D01*
X133391678Y-117847713D01*
X133257013Y-117848267D01*
X133099083Y-117848597D01*
X132916358Y-117848731D01*
X132862766Y-117848737D01*
X132679453Y-117848710D01*
X132521078Y-117848599D01*
X132385841Y-117848359D01*
X132271941Y-117847948D01*
X132177581Y-117847319D01*
X132100960Y-117846430D01*
X132040278Y-117845236D01*
X131993737Y-117843693D01*
X131959536Y-117841756D01*
X131935877Y-117839382D01*
X131920959Y-117836526D01*
X131912983Y-117833144D01*
X131910150Y-117829192D01*
X131910444Y-117825342D01*
X131916625Y-117808451D01*
X131931752Y-117769333D01*
X131954803Y-117710569D01*
X131984756Y-117634741D01*
X132020588Y-117544431D01*
X132061278Y-117442221D01*
X132105804Y-117330694D01*
X132145950Y-117230380D01*
X132374948Y-116658812D01*
X132374948Y-113288298D01*
X132679079Y-113292544D01*
G37*
X132679079Y-113292544D02*
X132777181Y-113294011D01*
X132852626Y-113295605D01*
X132909494Y-113297753D01*
X132951862Y-113300884D01*
X132983811Y-113305427D01*
X133009418Y-113311811D01*
X133032762Y-113320462D01*
X133057922Y-113331810D01*
X133059364Y-113332486D01*
X133146063Y-113386324D01*
X133223023Y-113459359D01*
X133282806Y-113544151D01*
X133295094Y-113568216D01*
X133330790Y-113644369D01*
X133337474Y-115155000D01*
X133344158Y-116665632D01*
X133576270Y-117240474D01*
X133623684Y-117357906D01*
X133668125Y-117467986D01*
X133708569Y-117568182D01*
X133743995Y-117655961D01*
X133773381Y-117728791D01*
X133795706Y-117784139D01*
X133809947Y-117819474D01*
X133814990Y-117832027D01*
X133811383Y-117835333D01*
X133796747Y-117838200D01*
X133769554Y-117840657D01*
X133728273Y-117842730D01*
X133671374Y-117844445D01*
X133597328Y-117845829D01*
X133504606Y-117846910D01*
X133391678Y-117847713D01*
X133257013Y-117848267D01*
X133099083Y-117848597D01*
X132916358Y-117848731D01*
X132862766Y-117848737D01*
X132679453Y-117848710D01*
X132521078Y-117848599D01*
X132385841Y-117848359D01*
X132271941Y-117847948D01*
X132177581Y-117847319D01*
X132100960Y-117846430D01*
X132040278Y-117845236D01*
X131993737Y-117843693D01*
X131959536Y-117841756D01*
X131935877Y-117839382D01*
X131920959Y-117836526D01*
X131912983Y-117833144D01*
X131910150Y-117829192D01*
X131910444Y-117825342D01*
X131916625Y-117808451D01*
X131931752Y-117769333D01*
X131954803Y-117710569D01*
X131984756Y-117634741D01*
X132020588Y-117544431D01*
X132061278Y-117442221D01*
X132105804Y-117330694D01*
X132145950Y-117230380D01*
X132374948Y-116658812D01*
X132374948Y-113288298D01*
X132679079Y-113292544D01*
X128538211Y-116632082D02*
X128778842Y-117233790D01*
X128778842Y-117233790D02*
X128826710Y-117353616D01*
X128826710Y-117353616D02*
X128871408Y-117465767D01*
X128871408Y-117465767D02*
X128911981Y-117567821D01*
X128911981Y-117567821D02*
X128947471Y-117657359D01*
X128947471Y-117657359D02*
X128976919Y-117731959D01*
X128976919Y-117731959D02*
X128999368Y-117789201D01*
X128999368Y-117789201D02*
X129013862Y-117826664D01*
X129013862Y-117826664D02*
X129019441Y-117841926D01*
X129019441Y-117841926D02*
X129019474Y-117842117D01*
X129019474Y-117842117D02*
X129006458Y-117843206D01*
X129006458Y-117843206D02*
X128968822Y-117844239D01*
X128968822Y-117844239D02*
X128908683Y-117845201D01*
X128908683Y-117845201D02*
X128828157Y-117846079D01*
X128828157Y-117846079D02*
X128729360Y-117846856D01*
X128729360Y-117846856D02*
X128614410Y-117847519D01*
X128614410Y-117847519D02*
X128485423Y-117848053D01*
X128485423Y-117848053D02*
X128344515Y-117848444D01*
X128344515Y-117848444D02*
X128193804Y-117848676D01*
X128193804Y-117848676D02*
X128063632Y-117848737D01*
X128063632Y-117848737D02*
X127906428Y-117848643D01*
X127906428Y-117848643D02*
X127757282Y-117848369D01*
X127757282Y-117848369D02*
X127618310Y-117847933D01*
X127618310Y-117847933D02*
X127491631Y-117847348D01*
X127491631Y-117847348D02*
X127379359Y-117846631D01*
X127379359Y-117846631D02*
X127283612Y-117845797D01*
X127283612Y-117845797D02*
X127206506Y-117844860D01*
X127206506Y-117844860D02*
X127150158Y-117843837D01*
X127150158Y-117843837D02*
X127116684Y-117842743D01*
X127116684Y-117842743D02*
X127107790Y-117841798D01*
X127107790Y-117841798D02*
X127112584Y-117828356D01*
X127112584Y-117828356D02*
X127126323Y-117792539D01*
X127126323Y-117792539D02*
X127148040Y-117736802D01*
X127148040Y-117736802D02*
X127176769Y-117663602D01*
X127176769Y-117663602D02*
X127211544Y-117575396D01*
X127211544Y-117575396D02*
X127251398Y-117474639D01*
X127251398Y-117474639D02*
X127295364Y-117363789D01*
X127295364Y-117363789D02*
X127341348Y-117248134D01*
X127341348Y-117248134D02*
X127574907Y-116661409D01*
X127574907Y-116661409D02*
X127578638Y-115166257D01*
X127578638Y-115166257D02*
X127582369Y-113671106D01*
X127582369Y-113671106D02*
X127613166Y-113594884D01*
X127613166Y-113594884D02*
X127664907Y-113501202D01*
X127664907Y-113501202D02*
X127737852Y-113419478D01*
X127737852Y-113419478D02*
X127827435Y-113354537D01*
X127827435Y-113354537D02*
X127853601Y-113340646D01*
X127853601Y-113340646D02*
X127942618Y-113296790D01*
X127942618Y-113296790D02*
X128240414Y-113292529D01*
X128240414Y-113292529D02*
X128538211Y-113288268D01*
X128538211Y-113288268D02*
X128538211Y-116632082D01*
X128538211Y-116632082D02*
X128538211Y-116632082D01*
G36*
X128538211Y-116632082D02*
G01*
X128778842Y-117233790D01*
X128826710Y-117353616D01*
X128871408Y-117465767D01*
X128911981Y-117567821D01*
X128947471Y-117657359D01*
X128976919Y-117731959D01*
X128999368Y-117789201D01*
X129013862Y-117826664D01*
X129019441Y-117841926D01*
X129019474Y-117842117D01*
X129006458Y-117843206D01*
X128968822Y-117844239D01*
X128908683Y-117845201D01*
X128828157Y-117846079D01*
X128729360Y-117846856D01*
X128614410Y-117847519D01*
X128485423Y-117848053D01*
X128344515Y-117848444D01*
X128193804Y-117848676D01*
X128063632Y-117848737D01*
X127906428Y-117848643D01*
X127757282Y-117848369D01*
X127618310Y-117847933D01*
X127491631Y-117847348D01*
X127379359Y-117846631D01*
X127283612Y-117845797D01*
X127206506Y-117844860D01*
X127150158Y-117843837D01*
X127116684Y-117842743D01*
X127107790Y-117841798D01*
X127112584Y-117828356D01*
X127126323Y-117792539D01*
X127148040Y-117736802D01*
X127176769Y-117663602D01*
X127211544Y-117575396D01*
X127251398Y-117474639D01*
X127295364Y-117363789D01*
X127341348Y-117248134D01*
X127574907Y-116661409D01*
X127578638Y-115166257D01*
X127582369Y-113671106D01*
X127613166Y-113594884D01*
X127664907Y-113501202D01*
X127737852Y-113419478D01*
X127827435Y-113354537D01*
X127853601Y-113340646D01*
X127942618Y-113296790D01*
X128240414Y-113292529D01*
X128538211Y-113288268D01*
X128538211Y-116632082D01*
G37*
X128538211Y-116632082D02*
X128778842Y-117233790D01*
X128826710Y-117353616D01*
X128871408Y-117465767D01*
X128911981Y-117567821D01*
X128947471Y-117657359D01*
X128976919Y-117731959D01*
X128999368Y-117789201D01*
X129013862Y-117826664D01*
X129019441Y-117841926D01*
X129019474Y-117842117D01*
X129006458Y-117843206D01*
X128968822Y-117844239D01*
X128908683Y-117845201D01*
X128828157Y-117846079D01*
X128729360Y-117846856D01*
X128614410Y-117847519D01*
X128485423Y-117848053D01*
X128344515Y-117848444D01*
X128193804Y-117848676D01*
X128063632Y-117848737D01*
X127906428Y-117848643D01*
X127757282Y-117848369D01*
X127618310Y-117847933D01*
X127491631Y-117847348D01*
X127379359Y-117846631D01*
X127283612Y-117845797D01*
X127206506Y-117844860D01*
X127150158Y-117843837D01*
X127116684Y-117842743D01*
X127107790Y-117841798D01*
X127112584Y-117828356D01*
X127126323Y-117792539D01*
X127148040Y-117736802D01*
X127176769Y-117663602D01*
X127211544Y-117575396D01*
X127251398Y-117474639D01*
X127295364Y-117363789D01*
X127341348Y-117248134D01*
X127574907Y-116661409D01*
X127578638Y-115166257D01*
X127582369Y-113671106D01*
X127613166Y-113594884D01*
X127664907Y-113501202D01*
X127737852Y-113419478D01*
X127827435Y-113354537D01*
X127853601Y-113340646D01*
X127942618Y-113296790D01*
X128240414Y-113292529D01*
X128538211Y-113288268D01*
X128538211Y-116632082D01*
G36*
X142547381Y-113832549D02*
G01*
X142572693Y-113768069D01*
X142621367Y-113710027D01*
X142675208Y-113659470D01*
X142771120Y-113581317D01*
X142858447Y-113543678D01*
X142973978Y-113532575D01*
X143009908Y-113532306D01*
X143216951Y-113558897D01*
X143328797Y-113607498D01*
X143451475Y-113723157D01*
X143529444Y-113882556D01*
X143557940Y-114066695D01*
X143532201Y-114256573D01*
X143508339Y-114323625D01*
X143432407Y-114458335D01*
X143331214Y-114543336D01*
X143187497Y-114589382D01*
X143058745Y-114603802D01*
X142927072Y-114609522D01*
X142841242Y-114600016D01*
X142773010Y-114566613D01*
X142694133Y-114500640D01*
X142679664Y-114487424D01*
X142607246Y-114418213D01*
X142564553Y-114360157D01*
X142543731Y-114290466D01*
X142536926Y-114186351D01*
X142536296Y-114071405D01*
X142536326Y-114068521D01*
X142926779Y-114068521D01*
X142937958Y-114223380D01*
X142967978Y-114331216D01*
X143011565Y-114384971D01*
X143063446Y-114377586D01*
X143111415Y-114315578D01*
X143139522Y-114217084D01*
X143148733Y-114083928D01*
X143139874Y-113947543D01*
X143113769Y-113839364D01*
X143098153Y-113810298D01*
X143050385Y-113762891D01*
X143002689Y-113776540D01*
X142986587Y-113789149D01*
X142948903Y-113848994D01*
X142930203Y-113958002D01*
X142926779Y-114068521D01*
X142536326Y-114068521D01*
X142537794Y-113926112D01*
X142547381Y-113832549D01*
G37*
G36*
X144750881Y-113569356D02*
G01*
X144981741Y-113574587D01*
X145151754Y-113593195D01*
X145273904Y-113629554D01*
X145361174Y-113688037D01*
X145426546Y-113773017D01*
X145442832Y-113802415D01*
X145491365Y-113959255D01*
X145499436Y-114142648D01*
X145467170Y-114316822D01*
X145440796Y-114380224D01*
X145379994Y-114472493D01*
X145300104Y-114537346D01*
X145188279Y-114579074D01*
X145031670Y-114601970D01*
X144817427Y-114610324D01*
X144750881Y-114610644D01*
X144339956Y-114610644D01*
X144339956Y-114090000D01*
X144711845Y-114090000D01*
X144712947Y-114225937D01*
X144720546Y-114303727D01*
X144741082Y-114339600D01*
X144780996Y-114349787D01*
X144815137Y-114350322D01*
X144925682Y-114328937D01*
X145001081Y-114292430D01*
X145062015Y-114223045D01*
X145083286Y-114115474D01*
X145083734Y-114090000D01*
X145054484Y-113953381D01*
X144969907Y-113865212D01*
X144834762Y-113830106D01*
X144815137Y-113829678D01*
X144761199Y-113832455D01*
X144730333Y-113851606D01*
X144716099Y-113903363D01*
X144712057Y-114003955D01*
X144711845Y-114090000D01*
X144339956Y-114090000D01*
X144339956Y-113569356D01*
X144750881Y-113569356D01*
G37*
G36*
X138234909Y-113801257D02*
G01*
X138339425Y-113663776D01*
X138429219Y-113600121D01*
X138592516Y-113547389D01*
X138783437Y-113532167D01*
X139002788Y-113558750D01*
X139173393Y-113639960D01*
X139299256Y-113777986D01*
X139328698Y-113830419D01*
X139386115Y-114021050D01*
X139376380Y-114213663D01*
X139303886Y-114391428D01*
X139173028Y-114537514D01*
X139137312Y-114563417D01*
X138992263Y-114624227D01*
X138810732Y-114649881D01*
X138622143Y-114639694D01*
X138455923Y-114592982D01*
X138429219Y-114579879D01*
X138294771Y-114469330D01*
X138208116Y-114318992D01*
X138169254Y-114146066D01*
X138172062Y-114090000D01*
X138576820Y-114090000D01*
X138589328Y-114217165D01*
X138632697Y-114291832D01*
X138687248Y-114323215D01*
X138779007Y-114344991D01*
X138858199Y-114320692D01*
X138902106Y-114292430D01*
X138969185Y-114205050D01*
X138990260Y-114088731D01*
X138965934Y-113972501D01*
X138896810Y-113885386D01*
X138893607Y-113883234D01*
X138787154Y-113846984D01*
X138679665Y-113860748D01*
X138604142Y-113918365D01*
X138585543Y-113981628D01*
X138576897Y-114080069D01*
X138576820Y-114090000D01*
X138172062Y-114090000D01*
X138178185Y-113967754D01*
X138234909Y-113801257D01*
G37*
G36*
X150022345Y-113832549D02*
G01*
X150047657Y-113768069D01*
X150096330Y-113710027D01*
X150150171Y-113659470D01*
X150246084Y-113581317D01*
X150333410Y-113543678D01*
X150448941Y-113532575D01*
X150484871Y-113532306D01*
X150691914Y-113558897D01*
X150803761Y-113607498D01*
X150926438Y-113723157D01*
X151004407Y-113882556D01*
X151032904Y-114066695D01*
X151007164Y-114256573D01*
X150983303Y-114323625D01*
X150907371Y-114458335D01*
X150806177Y-114543336D01*
X150662461Y-114589382D01*
X150533708Y-114603802D01*
X150402035Y-114609522D01*
X150316205Y-114600016D01*
X150247974Y-114566613D01*
X150169096Y-114500640D01*
X150154627Y-114487424D01*
X150082210Y-114418213D01*
X150039516Y-114360157D01*
X150018694Y-114290466D01*
X150011889Y-114186351D01*
X150011259Y-114071405D01*
X150011289Y-114068521D01*
X150401742Y-114068521D01*
X150412921Y-114223380D01*
X150442942Y-114331216D01*
X150486529Y-114384971D01*
X150538409Y-114377586D01*
X150586378Y-114315578D01*
X150614485Y-114217084D01*
X150623696Y-114083928D01*
X150614837Y-113947543D01*
X150588733Y-113839364D01*
X150573117Y-113810298D01*
X150525348Y-113762891D01*
X150477653Y-113776540D01*
X150461550Y-113789149D01*
X150423867Y-113848994D01*
X150405166Y-113958002D01*
X150401742Y-114068521D01*
X150011289Y-114068521D01*
X150012758Y-113926112D01*
X150022345Y-113832549D01*
G37*
G36*
X141848302Y-114610644D02*
G01*
X141439224Y-114610644D01*
X141439224Y-113969879D01*
X141345202Y-114031485D01*
X141261808Y-114072595D01*
X141205599Y-114056850D01*
X141160412Y-113976868D01*
X141147221Y-113941058D01*
X141129452Y-113877534D01*
X141137953Y-113830460D01*
X141184142Y-113781892D01*
X141279441Y-113713889D01*
X141301115Y-113699262D01*
X141435373Y-113618979D01*
X141549566Y-113579518D01*
X141671158Y-113569356D01*
X141848302Y-113569356D01*
X141848302Y-114610644D01*
G37*
G36*
X149062943Y-114127189D02*
G01*
X148728243Y-114127189D01*
X148728243Y-113829678D01*
X149062943Y-113829678D01*
X149062943Y-114127189D01*
G37*
G36*
X144711845Y-115837877D02*
G01*
X144377145Y-115837877D01*
X144377145Y-115540366D01*
X144711845Y-115540366D01*
X144711845Y-115837877D01*
G37*
G36*
X139096325Y-115577555D02*
G01*
X138761625Y-115577555D01*
X138761625Y-116321332D01*
X138389737Y-116321332D01*
X138389737Y-115577555D01*
X138055037Y-115577555D01*
X138055037Y-115280044D01*
X139096325Y-115280044D01*
X139096325Y-115577555D01*
G37*
G36*
X134631016Y-115271153D02*
G01*
X134740657Y-115319700D01*
X134866248Y-115396267D01*
X134759826Y-115507347D01*
X134676814Y-115579886D01*
X134606174Y-115600382D01*
X134559857Y-115592741D01*
X134394701Y-115569071D01*
X134275113Y-115599193D01*
X134205074Y-115681085D01*
X134187394Y-115782093D01*
X134215083Y-115903802D01*
X134295495Y-115975355D01*
X134424649Y-115994729D01*
X134559857Y-115971446D01*
X134635593Y-115966698D01*
X134708130Y-116007344D01*
X134759826Y-116056840D01*
X134866248Y-116167920D01*
X134740657Y-116244487D01*
X134569273Y-116309732D01*
X134374112Y-116323247D01*
X134184115Y-116285771D01*
X134066269Y-116227293D01*
X133920307Y-116091929D01*
X133837489Y-115936810D01*
X133813533Y-115773575D01*
X133844155Y-115613862D01*
X133925072Y-115469310D01*
X134052000Y-115351556D01*
X134220656Y-115272238D01*
X134426756Y-115242994D01*
X134428541Y-115242994D01*
X134631016Y-115271153D01*
G37*
G36*
X156425534Y-113552366D02*
G01*
X156524710Y-113560587D01*
X156588664Y-113580532D01*
X156636967Y-113617308D01*
X156671347Y-113655104D01*
X156744525Y-113790792D01*
X156757470Y-113942046D01*
X156721918Y-114056423D01*
X156669267Y-114120977D01*
X156580225Y-114201552D01*
X156530394Y-114239922D01*
X156377991Y-114350322D01*
X156761040Y-114350322D01*
X156761040Y-114610644D01*
X155905696Y-114610644D01*
X155905696Y-114467174D01*
X155910122Y-114389041D01*
X155932776Y-114332065D01*
X155987714Y-114278527D01*
X156088997Y-114210712D01*
X156128829Y-114185979D01*
X156254469Y-114102007D01*
X156324414Y-114036338D01*
X156350753Y-113976667D01*
X156351962Y-113958868D01*
X156320668Y-113867543D01*
X156234236Y-113815639D01*
X156103840Y-113808894D01*
X156070005Y-113814107D01*
X155937845Y-113838901D01*
X155961479Y-113550761D01*
X156271567Y-113550761D01*
X156425534Y-113552366D01*
G37*
G36*
X149062943Y-114610644D02*
G01*
X148728243Y-114610644D01*
X148728243Y-114313133D01*
X149062943Y-114313133D01*
X149062943Y-114610644D01*
G37*
G36*
X146313769Y-115260242D02*
G01*
X146456101Y-115320277D01*
X146582642Y-115397421D01*
X146469065Y-115510998D01*
X146390064Y-115581456D01*
X146328845Y-115604384D01*
X146256247Y-115589945D01*
X146249359Y-115587579D01*
X146128381Y-115572152D01*
X146012061Y-115599356D01*
X145932356Y-115661603D01*
X145931400Y-115663082D01*
X145909694Y-115732211D01*
X145902458Y-115808677D01*
X145933633Y-115909106D01*
X146023731Y-115969988D01*
X146138702Y-115986632D01*
X146210208Y-115970273D01*
X146240191Y-115907032D01*
X146243416Y-115884363D01*
X146259321Y-115818879D01*
X146301797Y-115786440D01*
X146393001Y-115772210D01*
X146413236Y-115770658D01*
X146571289Y-115759222D01*
X146571289Y-116321332D01*
X146245886Y-116319689D01*
X146055805Y-116313498D01*
X145918901Y-116295009D01*
X145814521Y-116260956D01*
X145786069Y-116247010D01*
X145653453Y-116137995D01*
X145566936Y-115987071D01*
X145531109Y-115814045D01*
X145550562Y-115638726D01*
X145613675Y-115503158D01*
X145749114Y-115366260D01*
X145924404Y-115277218D01*
X146119354Y-115240418D01*
X146313769Y-115260242D01*
G37*
G36*
X147014702Y-115280044D02*
G01*
X147195616Y-115281154D01*
X147319177Y-115286583D01*
X147402398Y-115299477D01*
X147462294Y-115322982D01*
X147515880Y-115360244D01*
X147535346Y-115376322D01*
X147618813Y-115467845D01*
X147648677Y-115569615D01*
X147649766Y-115601145D01*
X147618353Y-115730067D01*
X147538105Y-115845423D01*
X147430013Y-115917304D01*
X147427233Y-115918253D01*
X147388856Y-115947958D01*
X147409240Y-115982092D01*
X147474176Y-116010680D01*
X147569457Y-116023745D01*
X147577583Y-116023821D01*
X147724144Y-116023821D01*
X147724144Y-115280044D01*
X148653865Y-115280044D01*
X148653865Y-115577555D01*
X148374949Y-115577555D01*
X148227828Y-115580477D01*
X148141470Y-115591037D01*
X148102423Y-115611924D01*
X148096032Y-115633338D01*
X148117934Y-115670105D01*
X148192403Y-115686853D01*
X148263382Y-115689121D01*
X148366650Y-115692975D01*
X148415578Y-115711916D01*
X148430093Y-115757017D01*
X148430732Y-115782093D01*
X148423796Y-115839465D01*
X148389701Y-115866647D01*
X148308520Y-115874711D01*
X148263382Y-115875066D01*
X148158802Y-115879932D01*
X148109349Y-115900140D01*
X148096096Y-115944100D01*
X148096032Y-115949443D01*
X148101992Y-115985821D01*
X148129632Y-116007942D01*
X148193596Y-116019302D01*
X148308526Y-116023397D01*
X148407570Y-116023821D01*
X148719107Y-116023821D01*
X148699617Y-115850912D01*
X148709809Y-115656420D01*
X148784894Y-115494253D01*
X148921204Y-115371517D01*
X148957408Y-115351344D01*
X149054832Y-115312914D01*
X149174888Y-115290496D01*
X149338447Y-115280963D01*
X149433350Y-115280044D01*
X149769532Y-115280044D01*
X149769532Y-115577555D01*
X149551948Y-115577555D01*
X149408922Y-115584694D01*
X149277493Y-115603000D01*
X149217248Y-115618382D01*
X149134445Y-115659791D01*
X149103304Y-115723370D01*
X149100132Y-115778294D01*
X149120734Y-115899522D01*
X149188259Y-115966158D01*
X149311283Y-115986632D01*
X149312109Y-115986632D01*
X149396254Y-115979402D01*
X149429451Y-115943739D01*
X149434832Y-115875066D01*
X149439683Y-115806462D01*
X149467693Y-115773969D01*
X149539047Y-115764130D01*
X149602182Y-115763499D01*
X149769532Y-115763499D01*
X149769532Y-116321332D01*
X149425535Y-116321193D01*
X149188335Y-116309203D01*
X149008937Y-116270500D01*
X148874183Y-116200654D01*
X148776570Y-116102789D01*
X148746761Y-116074034D01*
X148733080Y-116099537D01*
X148729426Y-116181874D01*
X148728243Y-116321332D01*
X147298500Y-116321332D01*
X147159613Y-116163279D01*
X147020726Y-116005227D01*
X147019141Y-116163279D01*
X147017555Y-116321332D01*
X146608477Y-116321332D01*
X146608477Y-115633338D01*
X147017555Y-115633338D01*
X147024537Y-115696575D01*
X147059855Y-115721109D01*
X147145071Y-115720221D01*
X147157013Y-115719258D01*
X147251913Y-115702868D01*
X147291499Y-115667346D01*
X147296472Y-115633338D01*
X147280467Y-115581400D01*
X147220007Y-115555284D01*
X147157013Y-115547418D01*
X147065700Y-115544740D01*
X147026413Y-115566171D01*
X147017592Y-115624995D01*
X147017555Y-115633338D01*
X146608477Y-115633338D01*
X146608477Y-115280044D01*
X147014702Y-115280044D01*
G37*
G36*
X142368946Y-114610644D02*
G01*
X142034246Y-114610644D01*
X142034246Y-114313133D01*
X142368946Y-114313133D01*
X142368946Y-114610644D01*
G37*
G36*
X156500718Y-115577555D02*
G01*
X156166018Y-115577555D01*
X156166018Y-116321332D01*
X155794129Y-116321332D01*
X155794129Y-115577555D01*
X155161918Y-115577555D01*
X155161918Y-116321332D01*
X154790029Y-116321332D01*
X154790029Y-115577555D01*
X154343763Y-115577555D01*
X154151358Y-115578953D01*
X154021917Y-115584097D01*
X153944060Y-115594409D01*
X153906410Y-115611311D01*
X153897497Y-115633338D01*
X153919398Y-115670105D01*
X153993867Y-115686853D01*
X154064846Y-115689121D01*
X154168115Y-115692975D01*
X154217042Y-115711916D01*
X154231557Y-115757017D01*
X154232196Y-115782093D01*
X154225260Y-115839465D01*
X154191166Y-115866647D01*
X154109984Y-115874711D01*
X154064846Y-115875066D01*
X153960266Y-115879932D01*
X153910813Y-115900140D01*
X153897560Y-115944100D01*
X153897497Y-115949443D01*
X153903379Y-115985608D01*
X153930722Y-116007698D01*
X153994069Y-116019136D01*
X154107963Y-116023343D01*
X154213602Y-116023821D01*
X154529707Y-116023821D01*
X154529707Y-116321332D01*
X153525608Y-116321332D01*
X153525608Y-115280044D01*
X156500718Y-115280044D01*
X156500718Y-115577555D01*
G37*
G36*
X139714868Y-113573862D02*
G01*
X139790248Y-113599643D01*
X139862717Y-113660626D01*
X139922668Y-113726832D01*
X140061016Y-113885461D01*
X140062126Y-113727408D01*
X140063236Y-113569356D01*
X140435125Y-113569356D01*
X140435125Y-114610644D01*
X140254155Y-114610644D01*
X140148827Y-114606424D01*
X140077343Y-114584099D01*
X140013288Y-114529177D01*
X139938050Y-114437191D01*
X139802914Y-114263738D01*
X139802914Y-114610644D01*
X139431025Y-114610644D01*
X139431025Y-113569356D01*
X139607672Y-113568780D01*
X139714868Y-113573862D01*
G37*
G36*
X149881098Y-114610644D02*
G01*
X149472021Y-114610644D01*
X149472021Y-113969879D01*
X149377998Y-114031485D01*
X149294605Y-114072595D01*
X149238395Y-114056850D01*
X149193209Y-113976868D01*
X149180017Y-113941058D01*
X149162249Y-113877534D01*
X149170749Y-113830460D01*
X149216939Y-113781892D01*
X149312238Y-113713889D01*
X149333912Y-113699262D01*
X149468169Y-113618979D01*
X149582362Y-113579518D01*
X149703955Y-113569356D01*
X149881098Y-113569356D01*
X149881098Y-114610644D01*
G37*
G36*
X147612577Y-113866867D02*
G01*
X147277877Y-113866867D01*
X147277877Y-114610644D01*
X146905988Y-114610644D01*
X146905988Y-113866867D01*
X146571289Y-113866867D01*
X146571289Y-113569356D01*
X147612577Y-113569356D01*
X147612577Y-113866867D01*
G37*
G36*
X143422130Y-115282400D02*
G01*
X143499112Y-115297366D01*
X143552694Y-115336783D01*
X143608364Y-115412497D01*
X143620434Y-115430682D01*
X143720121Y-115581321D01*
X143816203Y-115430950D01*
X143874354Y-115346033D01*
X143926812Y-115301157D01*
X143999914Y-115283520D01*
X144120000Y-115280320D01*
X144126120Y-115280311D01*
X144241023Y-115283122D01*
X144318644Y-115290675D01*
X144339956Y-115298777D01*
X144320059Y-115335190D01*
X144266271Y-115418952D01*
X144187450Y-115536543D01*
X144116823Y-115639394D01*
X144014375Y-115790927D01*
X143948811Y-115901030D01*
X143912170Y-115987607D01*
X143896490Y-116068567D01*
X143893690Y-116141305D01*
X143893690Y-116321332D01*
X143521801Y-116321332D01*
X143521801Y-116110424D01*
X143513104Y-115976919D01*
X143490301Y-115874853D01*
X143472629Y-115840805D01*
X143428733Y-115783539D01*
X143356339Y-115684227D01*
X143269316Y-115561960D01*
X143247617Y-115531069D01*
X143071777Y-115280044D01*
X143296261Y-115280044D01*
X143422130Y-115282400D01*
G37*
G36*
X157467628Y-115577555D02*
G01*
X157188712Y-115577555D01*
X157041591Y-115580477D01*
X156955232Y-115591037D01*
X156916186Y-115611924D01*
X156909795Y-115633338D01*
X156931696Y-115670105D01*
X157006165Y-115686853D01*
X157077145Y-115689121D01*
X157180413Y-115692975D01*
X157229341Y-115711916D01*
X157243856Y-115757017D01*
X157244495Y-115782093D01*
X157237559Y-115839465D01*
X157203464Y-115866647D01*
X157122283Y-115874711D01*
X157077145Y-115875066D01*
X156972565Y-115879932D01*
X156923112Y-115900140D01*
X156909859Y-115944100D01*
X156909795Y-115949443D01*
X156915678Y-115985608D01*
X156943021Y-116007698D01*
X157006368Y-116019136D01*
X157120262Y-116023343D01*
X157225901Y-116023821D01*
X157542006Y-116023821D01*
X157542006Y-116321332D01*
X156537906Y-116321332D01*
X156537906Y-115280044D01*
X157467628Y-115280044D01*
X157467628Y-115577555D01*
G37*
G36*
X145771029Y-113566549D02*
G01*
X146047128Y-113577249D01*
X146323228Y-113587950D01*
X146484447Y-114070315D01*
X146543355Y-114248582D01*
X146592615Y-114401489D01*
X146627880Y-114515252D01*
X146644805Y-114576088D01*
X146645666Y-114581662D01*
X146612038Y-114597559D01*
X146525320Y-114608086D01*
X146441836Y-114610644D01*
X146323293Y-114607480D01*
X146258580Y-114592404D01*
X146227234Y-114557042D01*
X146214671Y-114517672D01*
X146187787Y-114456109D01*
X146132695Y-114429678D01*
X146045816Y-114424700D01*
X145942537Y-114434221D01*
X145884435Y-114471949D01*
X145857933Y-114517672D01*
X145823656Y-114572935D01*
X145771043Y-114600714D01*
X145676981Y-114610049D01*
X145620248Y-114610644D01*
X145424924Y-114610644D01*
X145560528Y-114201566D01*
X145908727Y-114201566D01*
X146037975Y-114201566D01*
X146122986Y-114196441D01*
X146151226Y-114171693D01*
X146141525Y-114117891D01*
X146108092Y-114019787D01*
X146073175Y-113927457D01*
X146030524Y-113820698D01*
X145969625Y-114011132D01*
X145908727Y-114201566D01*
X145560528Y-114201566D01*
X145597976Y-114088596D01*
X145771029Y-113566549D01*
G37*
G36*
X144711845Y-116321332D02*
G01*
X144377145Y-116321332D01*
X144377145Y-116023821D01*
X144711845Y-116023821D01*
X144711845Y-116321332D01*
G37*
G36*
X140548538Y-115280044D02*
G01*
X140779399Y-115285275D01*
X140949412Y-115303883D01*
X141071562Y-115340243D01*
X141158831Y-115398725D01*
X141224204Y-115483705D01*
X141240489Y-115513104D01*
X141289022Y-115669943D01*
X141297093Y-115853336D01*
X141264828Y-116027510D01*
X141238454Y-116090912D01*
X141200053Y-116157867D01*
X141156172Y-116210458D01*
X141097887Y-116250409D01*
X141016274Y-116279446D01*
X140902407Y-116299293D01*
X140747363Y-116311677D01*
X140542217Y-116318322D01*
X140278046Y-116320954D01*
X140046488Y-116321332D01*
X139133514Y-116321332D01*
X139133514Y-115280044D01*
X140063236Y-115280044D01*
X140063236Y-115577555D01*
X139784319Y-115577555D01*
X139637198Y-115580477D01*
X139550840Y-115591037D01*
X139511793Y-115611924D01*
X139505403Y-115633338D01*
X139527304Y-115670105D01*
X139601773Y-115686853D01*
X139672753Y-115689121D01*
X139776021Y-115692975D01*
X139824948Y-115711916D01*
X139839464Y-115757017D01*
X139840103Y-115782093D01*
X139833166Y-115839465D01*
X139799072Y-115866647D01*
X139717891Y-115874711D01*
X139672753Y-115875066D01*
X139568172Y-115879932D01*
X139518719Y-115900140D01*
X139505467Y-115944100D01*
X139505403Y-115949443D01*
X139511285Y-115985608D01*
X139538628Y-116007698D01*
X139601975Y-116019136D01*
X139715869Y-116023343D01*
X139821508Y-116023821D01*
X140137614Y-116023821D01*
X140137614Y-115800688D01*
X140509502Y-115800688D01*
X140510604Y-115936625D01*
X140518203Y-116014415D01*
X140538740Y-116050289D01*
X140578653Y-116060475D01*
X140612794Y-116061010D01*
X140723340Y-116039625D01*
X140798739Y-116003118D01*
X140859673Y-115933733D01*
X140880943Y-115826162D01*
X140881391Y-115800688D01*
X140852141Y-115664069D01*
X140767564Y-115575900D01*
X140632420Y-115540794D01*
X140612794Y-115540366D01*
X140558856Y-115543143D01*
X140527990Y-115562294D01*
X140513756Y-115614051D01*
X140509714Y-115714643D01*
X140509502Y-115800688D01*
X140137614Y-115800688D01*
X140137614Y-115280044D01*
X140548538Y-115280044D01*
G37*
G36*
X136267118Y-113569356D02*
G01*
X136448032Y-113570466D01*
X136571593Y-113575895D01*
X136654814Y-113588789D01*
X136714710Y-113612294D01*
X136768295Y-113649556D01*
X136787762Y-113665634D01*
X136871229Y-113757157D01*
X136901093Y-113858927D01*
X136902182Y-113890457D01*
X136870768Y-114019379D01*
X136790521Y-114134735D01*
X136682429Y-114206616D01*
X136679648Y-114207565D01*
X136648988Y-114245966D01*
X136656064Y-114268842D01*
X136705050Y-114291019D01*
X136804623Y-114305717D01*
X136931599Y-114312671D01*
X137062792Y-114311617D01*
X137175017Y-114302291D01*
X137245088Y-114284426D01*
X137255638Y-114275681D01*
X137247453Y-114233297D01*
X137219658Y-114215541D01*
X137161769Y-114166728D01*
X137093400Y-114073973D01*
X137029898Y-113963083D01*
X136999356Y-113890251D01*
X137460015Y-113890251D01*
X137482938Y-113928837D01*
X137541674Y-114002328D01*
X137590176Y-114057708D01*
X137665093Y-114154260D01*
X137712144Y-114241112D01*
X137720337Y-114276051D01*
X137728166Y-114336517D01*
X137738931Y-114350322D01*
X137748402Y-114316392D01*
X137755099Y-114227621D01*
X137757526Y-114108594D01*
X137757526Y-113866867D01*
X137608770Y-113866867D01*
X137515584Y-113872057D01*
X137463787Y-113885023D01*
X137460015Y-113890251D01*
X136999356Y-113890251D01*
X136986614Y-113859867D01*
X136976559Y-113806793D01*
X136997419Y-113721676D01*
X137034452Y-113652008D01*
X137061366Y-113619163D01*
X137096738Y-113596403D01*
X137153414Y-113581884D01*
X137244238Y-113573765D01*
X137382056Y-113570205D01*
X137579712Y-113569362D01*
X137610879Y-113569356D01*
X138129415Y-113569356D01*
X138129415Y-114610644D01*
X137943470Y-114610644D01*
X137833361Y-114608358D01*
X137778120Y-114593176D01*
X137758238Y-114552616D01*
X137754590Y-114489780D01*
X137747617Y-114424314D01*
X137734188Y-114417814D01*
X137731143Y-114424700D01*
X137700452Y-114494965D01*
X137660285Y-114544945D01*
X137598543Y-114578065D01*
X137503128Y-114597746D01*
X137361943Y-114607413D01*
X137162888Y-114610490D01*
X137074079Y-114610644D01*
X136550916Y-114610644D01*
X136412029Y-114452591D01*
X136273142Y-114294539D01*
X136271557Y-114452591D01*
X136269971Y-114610644D01*
X134856794Y-114610644D01*
X134852526Y-113662328D01*
X134513284Y-114610644D01*
X134219011Y-114610644D01*
X134047363Y-114605383D01*
X133945007Y-114589163D01*
X133908336Y-114564158D01*
X133890441Y-114513337D01*
X133852968Y-114406852D01*
X133801018Y-114259202D01*
X133739695Y-114084886D01*
X133725141Y-114043514D01*
X133558346Y-113569356D01*
X133988693Y-113569356D01*
X134096575Y-113948819D01*
X134204458Y-114328283D01*
X134318958Y-113958116D01*
X134433458Y-113587950D01*
X135786516Y-113567678D01*
X135786516Y-113866867D01*
X135507599Y-113866867D01*
X135360478Y-113869789D01*
X135274120Y-113880348D01*
X135235073Y-113901236D01*
X135228682Y-113922650D01*
X135250584Y-113959417D01*
X135325053Y-113976165D01*
X135396032Y-113978433D01*
X135499301Y-113982287D01*
X135548228Y-114001228D01*
X135562743Y-114046329D01*
X135563382Y-114071405D01*
X135556446Y-114128777D01*
X135522351Y-114155958D01*
X135441170Y-114164022D01*
X135396032Y-114164377D01*
X135291452Y-114169244D01*
X135241999Y-114189452D01*
X135228746Y-114233412D01*
X135228682Y-114238755D01*
X135234565Y-114274920D01*
X135261908Y-114297010D01*
X135325255Y-114308448D01*
X135439149Y-114312655D01*
X135544788Y-114313133D01*
X135860893Y-114313133D01*
X135860893Y-113922650D01*
X136269971Y-113922650D01*
X136276953Y-113985887D01*
X136312271Y-114010421D01*
X136397486Y-114009533D01*
X136409429Y-114008570D01*
X136504329Y-113992180D01*
X136543915Y-113956658D01*
X136548887Y-113922650D01*
X136532883Y-113870712D01*
X136472423Y-113844595D01*
X136409429Y-113836730D01*
X136318116Y-113834052D01*
X136278829Y-113855483D01*
X136270007Y-113914306D01*
X136269971Y-113922650D01*
X135860893Y-113922650D01*
X135860893Y-113569356D01*
X136267118Y-113569356D01*
G37*
G36*
X150848009Y-115651932D02*
G01*
X151108331Y-115651932D01*
X151108331Y-115280044D01*
X151852109Y-115280044D01*
X151852109Y-115650624D01*
X151853637Y-115822576D01*
X151859962Y-115935067D01*
X151873694Y-116002984D01*
X151897440Y-116041212D01*
X151923792Y-116059568D01*
X152024523Y-116078307D01*
X152121658Y-116044315D01*
X152158347Y-116007939D01*
X152170431Y-115955047D01*
X152179914Y-115846782D01*
X152185415Y-115702140D01*
X152186239Y-115624041D01*
X152186808Y-115280044D01*
X152930586Y-115280044D01*
X152930586Y-116023821D01*
X153488419Y-116023821D01*
X153488419Y-116321332D01*
X152558697Y-116321332D01*
X152556598Y-116126091D01*
X152554499Y-115930849D01*
X152510112Y-116059722D01*
X152426795Y-116195165D01*
X152292545Y-116293551D01*
X152123530Y-116349904D01*
X151935921Y-116359251D01*
X151745884Y-116316617D01*
X151715380Y-116304225D01*
X151614730Y-116236611D01*
X151540222Y-116147628D01*
X151483198Y-116042416D01*
X151480220Y-116321332D01*
X151108331Y-116321332D01*
X151108331Y-115949443D01*
X150848009Y-115949443D01*
X150848009Y-116321332D01*
X150476120Y-116321332D01*
X150476120Y-115280044D01*
X150848009Y-115280044D01*
X150848009Y-115651932D01*
G37*
G36*
X157318067Y-113552366D02*
G01*
X157417243Y-113560587D01*
X157481197Y-113580532D01*
X157529500Y-113617308D01*
X157563880Y-113655104D01*
X157637058Y-113790792D01*
X157650003Y-113942046D01*
X157614451Y-114056423D01*
X157561800Y-114120977D01*
X157472758Y-114201552D01*
X157422927Y-114239922D01*
X157270524Y-114350322D01*
X157653573Y-114350322D01*
X157653573Y-114610644D01*
X156798229Y-114610644D01*
X156798229Y-114467174D01*
X156802655Y-114389041D01*
X156825309Y-114332065D01*
X156880247Y-114278527D01*
X156981530Y-114210712D01*
X157021362Y-114185979D01*
X157147002Y-114102007D01*
X157216947Y-114036338D01*
X157243286Y-113976667D01*
X157244495Y-113958868D01*
X157213201Y-113867543D01*
X157126769Y-113815639D01*
X156996373Y-113808894D01*
X156962537Y-113814107D01*
X156830378Y-113838901D01*
X156854012Y-113550761D01*
X157164100Y-113550761D01*
X157318067Y-113552366D01*
G37*
G36*
X142494987Y-115280044D02*
G01*
X142719939Y-115283433D01*
X142882284Y-115296387D01*
X142993598Y-115323087D01*
X143065458Y-115367715D01*
X143109439Y-115434453D01*
X143133294Y-115510603D01*
X143134515Y-115603754D01*
X143079381Y-115688422D01*
X143069735Y-115698301D01*
X142982435Y-115785602D01*
X143084768Y-115870351D01*
X143168485Y-115976451D01*
X143179257Y-116091139D01*
X143116871Y-116207435D01*
X143095819Y-116230050D01*
X143054851Y-116267366D01*
X143010429Y-116292830D01*
X142948289Y-116308699D01*
X142854169Y-116317234D01*
X142713808Y-116320692D01*
X142519392Y-116321332D01*
X142034246Y-116321332D01*
X142034246Y-116005227D01*
X142406135Y-116005227D01*
X142414601Y-116065809D01*
X142454101Y-116092252D01*
X142545790Y-116098195D01*
X142550337Y-116098199D01*
X142667439Y-116082189D01*
X142742608Y-116040270D01*
X142743187Y-116039581D01*
X142765213Y-115978592D01*
X142718366Y-115936250D01*
X142606348Y-115914929D01*
X142545593Y-115912824D01*
X142453637Y-115918308D01*
X142414290Y-115945244D01*
X142406135Y-116005227D01*
X142034246Y-116005227D01*
X142034246Y-115614744D01*
X142406135Y-115614744D01*
X142416191Y-115665964D01*
X142460139Y-115684707D01*
X142545593Y-115682069D01*
X142649859Y-115659942D01*
X142685037Y-115615917D01*
X142685051Y-115614744D01*
X142651308Y-115570244D01*
X142548525Y-115547667D01*
X142545593Y-115547418D01*
X142453551Y-115545487D01*
X142413976Y-115567066D01*
X142406135Y-115614744D01*
X142034246Y-115614744D01*
X142034246Y-115280044D01*
X142494987Y-115280044D01*
G37*
G36*
X137253625Y-115277216D02*
G01*
X137530300Y-115287927D01*
X137806976Y-115298638D01*
X137968195Y-115781003D01*
X138027103Y-115959270D01*
X138076363Y-116112177D01*
X138111628Y-116225941D01*
X138128553Y-116286776D01*
X138129415Y-116292350D01*
X138095786Y-116308248D01*
X138009068Y-116318775D01*
X137925584Y-116321332D01*
X137807041Y-116318168D01*
X137742328Y-116303092D01*
X137710983Y-116267730D01*
X137698419Y-116228360D01*
X137671535Y-116166798D01*
X137616444Y-116140366D01*
X137529564Y-116135388D01*
X137426285Y-116144909D01*
X137368183Y-116182637D01*
X137341682Y-116228360D01*
X137299321Y-116321332D01*
X135584005Y-116321332D01*
X135445118Y-116163279D01*
X135306231Y-116005227D01*
X135304646Y-116163279D01*
X135303060Y-116321332D01*
X134893983Y-116321332D01*
X134893983Y-115633338D01*
X135303060Y-115633338D01*
X135310042Y-115696575D01*
X135345361Y-115721109D01*
X135430576Y-115720221D01*
X135442518Y-115719258D01*
X135537419Y-115702868D01*
X135577004Y-115667346D01*
X135581977Y-115633338D01*
X135565973Y-115581400D01*
X135505512Y-115555284D01*
X135442518Y-115547418D01*
X135351205Y-115544740D01*
X135311918Y-115566171D01*
X135303097Y-115624995D01*
X135303060Y-115633338D01*
X134893983Y-115633338D01*
X134893983Y-115280044D01*
X135300207Y-115280044D01*
X135481122Y-115281154D01*
X135604682Y-115286583D01*
X135687903Y-115299477D01*
X135747799Y-115322982D01*
X135801385Y-115360244D01*
X135820851Y-115376322D01*
X135904318Y-115467845D01*
X135934182Y-115569615D01*
X135935271Y-115601145D01*
X135903858Y-115730067D01*
X135823610Y-115845423D01*
X135715518Y-115917304D01*
X135712738Y-115918253D01*
X135674361Y-115947958D01*
X135694745Y-115982092D01*
X135759681Y-116010680D01*
X135854962Y-116023745D01*
X135863088Y-116023821D01*
X136009649Y-116023821D01*
X136009649Y-115280044D01*
X136939371Y-115280044D01*
X136939371Y-115577555D01*
X136660454Y-115577555D01*
X136513333Y-115580477D01*
X136426975Y-115591037D01*
X136387928Y-115611924D01*
X136381538Y-115633338D01*
X136403439Y-115670105D01*
X136477908Y-115686853D01*
X136548887Y-115689121D01*
X136652156Y-115692975D01*
X136701083Y-115711916D01*
X136715598Y-115757017D01*
X136716237Y-115782093D01*
X136709301Y-115839465D01*
X136675207Y-115866647D01*
X136594025Y-115874711D01*
X136548887Y-115875066D01*
X136444307Y-115879932D01*
X136394854Y-115900140D01*
X136381601Y-115944100D01*
X136381538Y-115949443D01*
X136387460Y-115985720D01*
X136414960Y-116007827D01*
X136478632Y-116019224D01*
X136593072Y-116023372D01*
X136695221Y-116023821D01*
X137008905Y-116023821D01*
X137045474Y-115912255D01*
X137392475Y-115912255D01*
X137521723Y-115912255D01*
X137606735Y-115907129D01*
X137634974Y-115882382D01*
X137625273Y-115828580D01*
X137591840Y-115730475D01*
X137556923Y-115638146D01*
X137514272Y-115531387D01*
X137453374Y-115721821D01*
X137392475Y-115912255D01*
X137045474Y-115912255D01*
X137131265Y-115650519D01*
X137253625Y-115277216D01*
G37*
G36*
X148579488Y-113866867D02*
G01*
X148300571Y-113866867D01*
X148153450Y-113869789D01*
X148067092Y-113880348D01*
X148028045Y-113901236D01*
X148021655Y-113922650D01*
X148043556Y-113959417D01*
X148118025Y-113976165D01*
X148189005Y-113978433D01*
X148292273Y-113982287D01*
X148341200Y-114001228D01*
X148355715Y-114046329D01*
X148356354Y-114071405D01*
X148349418Y-114128777D01*
X148315324Y-114155958D01*
X148234142Y-114164022D01*
X148189005Y-114164377D01*
X148084424Y-114169244D01*
X148034971Y-114189452D01*
X148021719Y-114233412D01*
X148021655Y-114238755D01*
X148027537Y-114274920D01*
X148054880Y-114297010D01*
X148118227Y-114308448D01*
X148232121Y-114312655D01*
X148337760Y-114313133D01*
X148653865Y-114313133D01*
X148653865Y-114610644D01*
X147649766Y-114610644D01*
X147649766Y-113569356D01*
X148579488Y-113569356D01*
X148579488Y-113866867D01*
G37*
G36*
X151684759Y-113866867D02*
G01*
X151624858Y-113858747D01*
X151598235Y-113820450D01*
X151591820Y-113731066D01*
X151591786Y-113718111D01*
X151591786Y-113569356D01*
X152174094Y-113569356D01*
X152261186Y-113755300D01*
X152313177Y-113857488D01*
X152355453Y-113925027D01*
X152373199Y-113941244D01*
X152403001Y-113911281D01*
X152454218Y-113833808D01*
X152499818Y-113754392D01*
X152601516Y-113567540D01*
X153798366Y-113587950D01*
X154114776Y-114517672D01*
X154118449Y-113922650D01*
X154529707Y-113922650D01*
X154536689Y-113985887D01*
X154572008Y-114010421D01*
X154657223Y-114009533D01*
X154669166Y-114008570D01*
X154764066Y-113992180D01*
X154803652Y-113956658D01*
X154808624Y-113922650D01*
X154792620Y-113870712D01*
X154732160Y-113844595D01*
X154669166Y-113836730D01*
X154577852Y-113834052D01*
X154538565Y-113855483D01*
X154529744Y-113914306D01*
X154529707Y-113922650D01*
X154118449Y-113922650D01*
X154120630Y-113569356D01*
X154526854Y-113569356D01*
X154707769Y-113570466D01*
X154831329Y-113575895D01*
X154914551Y-113588789D01*
X154974447Y-113612294D01*
X155028032Y-113649556D01*
X155047498Y-113665634D01*
X155130965Y-113757157D01*
X155160829Y-113858927D01*
X155161918Y-113890457D01*
X155130505Y-114019379D01*
X155050257Y-114134735D01*
X154942165Y-114206616D01*
X154939385Y-114207565D01*
X154908724Y-114245966D01*
X154915801Y-114268842D01*
X154969639Y-114294165D01*
X155087728Y-114309300D01*
X155219896Y-114313133D01*
X155496618Y-114313133D01*
X155496618Y-114610644D01*
X154810652Y-114610644D01*
X154671765Y-114452591D01*
X154532879Y-114294539D01*
X154531293Y-114452591D01*
X154529707Y-114610644D01*
X154121338Y-114610644D01*
X153942727Y-114610072D01*
X153824784Y-114606387D01*
X153753803Y-114596638D01*
X153716073Y-114577871D01*
X153697888Y-114547135D01*
X153689635Y-114517672D01*
X153662750Y-114456109D01*
X153607659Y-114429678D01*
X153520779Y-114424700D01*
X153417500Y-114434221D01*
X153359398Y-114471949D01*
X153332897Y-114517672D01*
X153309226Y-114561159D01*
X153275820Y-114588420D01*
X153216836Y-114603234D01*
X153116432Y-114609381D01*
X152958765Y-114610641D01*
X152943211Y-114610644D01*
X152595886Y-114610644D01*
X152594820Y-114433997D01*
X152593753Y-114257350D01*
X152492550Y-114433845D01*
X152433342Y-114531243D01*
X152387893Y-114595409D01*
X152371147Y-114610493D01*
X152345027Y-114580162D01*
X152297961Y-114501374D01*
X152252546Y-114415402D01*
X152154145Y-114220161D01*
X152151882Y-114415402D01*
X152149619Y-114610644D01*
X151777731Y-114610644D01*
X151777731Y-114110176D01*
X152969716Y-114110176D01*
X152969775Y-114117891D01*
X152971775Y-114368916D01*
X153025648Y-114201566D01*
X153383690Y-114201566D01*
X153512938Y-114201566D01*
X153597950Y-114196441D01*
X153626189Y-114171693D01*
X153616488Y-114117891D01*
X153583055Y-114019787D01*
X153548139Y-113927457D01*
X153505487Y-113820698D01*
X153444589Y-114011132D01*
X153383690Y-114201566D01*
X153025648Y-114201566D01*
X153043605Y-114145783D01*
X153081189Y-114025153D01*
X153107391Y-113933654D01*
X153115982Y-113894758D01*
X153085250Y-113872089D01*
X153042152Y-113866867D01*
X153002574Y-113873984D01*
X152980419Y-113906121D01*
X152971021Y-113979459D01*
X152969716Y-114110176D01*
X151777731Y-114110176D01*
X151777731Y-113866867D01*
X151684759Y-113866867D01*
G37*
G36*
X164196106Y-99436500D02*
G01*
X163907892Y-99437070D01*
X163723129Y-99440835D01*
X163608273Y-99455894D01*
X163558980Y-99489204D01*
X163570906Y-99547721D01*
X163639707Y-99638402D01*
X163724745Y-99730372D01*
X163900835Y-99940595D01*
X164008103Y-100132136D01*
X164048198Y-100310096D01*
X164022771Y-100479576D01*
X163990937Y-100553384D01*
X163941548Y-100631856D01*
X163878725Y-100689715D01*
X163791213Y-100729956D01*
X163667756Y-100755572D01*
X163497099Y-100769558D01*
X163267984Y-100774908D01*
X163156664Y-100775300D01*
X162596984Y-100775300D01*
X162596984Y-100217467D01*
X162848009Y-100216897D01*
X163021614Y-100212243D01*
X163125457Y-100194637D01*
X163163906Y-100157185D01*
X163141330Y-100092993D01*
X163062097Y-99995167D01*
X163018353Y-99948068D01*
X162846830Y-99745532D01*
X162738866Y-99563998D01*
X162690426Y-99393429D01*
X162697477Y-99223788D01*
X162708389Y-99176779D01*
X162740635Y-99076786D01*
X162783013Y-99001902D01*
X162845865Y-98948546D01*
X162939531Y-98913133D01*
X163074354Y-98892082D01*
X163260674Y-98881810D01*
X163508833Y-98878734D01*
X163568910Y-98878667D01*
X164196106Y-98878667D01*
X164196106Y-99436500D01*
G37*
G36*
X149339295Y-99374795D02*
G01*
X149468831Y-99168043D01*
X149652988Y-99007494D01*
X149888367Y-98898424D01*
X149910656Y-98891687D01*
X150091019Y-98855877D01*
X150311312Y-98844543D01*
X150452537Y-98847959D01*
X150628533Y-98858830D01*
X150755888Y-98877229D01*
X150860323Y-98909242D01*
X150967560Y-98960956D01*
X150995700Y-98976487D01*
X151196471Y-99129459D01*
X151344782Y-99329032D01*
X151436673Y-99565417D01*
X151468185Y-99828826D01*
X151441916Y-100079629D01*
X151358705Y-100319233D01*
X151216455Y-100514568D01*
X151012487Y-100669210D01*
X150991188Y-100681157D01*
X150887543Y-100733629D01*
X150793121Y-100767393D01*
X150684952Y-100787320D01*
X150540065Y-100798286D01*
X150417628Y-100802846D01*
X150214235Y-100804882D01*
X150060949Y-100795002D01*
X149934106Y-100770759D01*
X149848492Y-100743972D01*
X149620377Y-100629860D01*
X149448392Y-100468752D01*
X149331073Y-100258570D01*
X149266956Y-99997238D01*
X149257674Y-99905798D01*
X149262972Y-99757231D01*
X149958582Y-99757231D01*
X149960445Y-99918742D01*
X150000545Y-100068646D01*
X150076886Y-100186601D01*
X150152046Y-100239824D01*
X150299027Y-100274147D01*
X150458589Y-100262899D01*
X150598848Y-100210296D01*
X150647057Y-100174363D01*
X150720524Y-100059362D01*
X150754583Y-99906224D01*
X150750123Y-99739332D01*
X150708034Y-99583065D01*
X150629203Y-99461803D01*
X150620790Y-99453849D01*
X150508455Y-99396422D01*
X150364116Y-99380003D01*
X150216844Y-99403151D01*
X150095711Y-99464426D01*
X150077553Y-99480755D01*
X149996953Y-99604455D01*
X149958582Y-99757231D01*
X149262972Y-99757231D01*
X149267777Y-99622472D01*
X149339295Y-99374795D01*
G37*
G36*
X161193104Y-98842295D02*
G01*
X161447161Y-98843307D01*
X161639196Y-98846397D01*
X161781559Y-98852639D01*
X161886599Y-98863103D01*
X161966667Y-98878862D01*
X162034111Y-98900990D01*
X162076340Y-98918981D01*
X162258159Y-99020093D01*
X162389625Y-99144214D01*
X162494762Y-99314941D01*
X162508570Y-99343528D01*
X162578830Y-99568988D01*
X162596735Y-99818346D01*
X162565110Y-100070555D01*
X162486778Y-100304569D01*
X162364564Y-100499343D01*
X162351469Y-100514273D01*
X162296126Y-100573626D01*
X162242063Y-100623225D01*
X162182348Y-100663946D01*
X162110053Y-100696663D01*
X162018248Y-100722253D01*
X161900003Y-100741589D01*
X161748389Y-100755547D01*
X161556476Y-100765002D01*
X161317335Y-100770830D01*
X161024036Y-100773905D01*
X160669651Y-100775103D01*
X160284649Y-100775300D01*
X158692152Y-100775300D01*
X158692152Y-100300509D01*
X161146618Y-100300509D01*
X161389325Y-100285055D01*
X161533309Y-100270800D01*
X161628754Y-100244725D01*
X161701435Y-100198082D01*
X161733322Y-100168311D01*
X161787813Y-100105875D01*
X161818377Y-100040033D01*
X161831735Y-99946902D01*
X161834612Y-99808389D01*
X161831500Y-99666143D01*
X161817684Y-99574285D01*
X161786443Y-99508934D01*
X161733322Y-99448468D01*
X161662483Y-99389817D01*
X161580387Y-99355639D01*
X161461260Y-99337187D01*
X161389325Y-99331724D01*
X161146618Y-99316269D01*
X161146618Y-100300509D01*
X158692152Y-100300509D01*
X158692152Y-98878667D01*
X160365652Y-98878667D01*
X160365652Y-99436500D01*
X159324363Y-99436500D01*
X159324363Y-99659634D01*
X159993763Y-99659634D01*
X159993763Y-99994334D01*
X159324363Y-99994334D01*
X159324363Y-100217467D01*
X160477218Y-100217467D01*
X160477218Y-98841479D01*
X161193104Y-98842295D01*
G37*
G36*
X157576486Y-100217467D02*
G01*
X158617775Y-100217467D01*
X158617775Y-100775300D01*
X156944275Y-100775300D01*
X156944275Y-98878667D01*
X157576486Y-98878667D01*
X157576486Y-100217467D01*
G37*
G36*
X139158697Y-98842295D02*
G01*
X139455094Y-98845314D01*
X139687269Y-98855215D01*
X139865246Y-98874434D01*
X139999049Y-98905406D01*
X140098701Y-98950566D01*
X140174225Y-99012348D01*
X140235645Y-99093188D01*
X140243479Y-99105819D01*
X140328433Y-99307180D01*
X140344264Y-99506360D01*
X140294696Y-99691718D01*
X140183453Y-99851612D01*
X140014262Y-99974402D01*
X139957208Y-100000468D01*
X139878365Y-100036866D01*
X139858457Y-100070121D01*
X139886712Y-100123037D01*
X139894236Y-100133792D01*
X139932504Y-100176759D01*
X139984704Y-100201899D01*
X140069791Y-100213780D01*
X140206720Y-100216972D01*
X140239283Y-100216975D01*
X140390734Y-100213538D01*
X140503389Y-100198429D01*
X140607564Y-100163519D01*
X140733576Y-100100681D01*
X140791438Y-100068929D01*
X141019868Y-99928269D01*
X141177164Y-99798530D01*
X141265425Y-99677655D01*
X141287760Y-99583253D01*
X141255457Y-99470570D01*
X141162095Y-99393244D01*
X141012998Y-99353081D01*
X140813488Y-99351887D01*
X140664846Y-99371859D01*
X140506794Y-99400191D01*
X140506794Y-98888399D01*
X140646252Y-98865348D01*
X140871411Y-98842399D01*
X141113347Y-98841331D01*
X141345669Y-98860683D01*
X141541982Y-98898995D01*
X141601612Y-98918207D01*
X141785911Y-99013531D01*
X141907309Y-99142424D01*
X141973223Y-99314206D01*
X141986167Y-99401626D01*
X141974708Y-99607233D01*
X141897532Y-99797861D01*
X141752195Y-99976950D01*
X141536255Y-100147941D01*
X141394354Y-100235313D01*
X141231977Y-100328138D01*
X141613163Y-100328585D01*
X141994349Y-100329033D01*
X141994349Y-100775300D01*
X140869385Y-100776615D01*
X139744422Y-100777930D01*
X139457066Y-100469807D01*
X139169709Y-100161683D01*
X139168852Y-100468492D01*
X139167994Y-100775300D01*
X138461406Y-100775300D01*
X138461406Y-99659634D01*
X139167994Y-99659634D01*
X139442932Y-99659634D01*
X139592780Y-99656113D01*
X139683288Y-99643603D01*
X139729246Y-99619178D01*
X139740443Y-99600809D01*
X139762741Y-99482190D01*
X139723449Y-99397995D01*
X139620361Y-99346397D01*
X139451269Y-99325569D01*
X139407066Y-99324934D01*
X139167994Y-99324934D01*
X139167994Y-99659634D01*
X138461406Y-99659634D01*
X138461406Y-98841479D01*
X139158697Y-98842295D01*
G37*
G36*
X147945763Y-98878667D02*
G01*
X148240807Y-98880002D01*
X148471548Y-98885239D01*
X148648031Y-98896226D01*
X148780301Y-98914814D01*
X148878405Y-98942851D01*
X148952388Y-98982187D01*
X149012296Y-99034669D01*
X149053013Y-99082472D01*
X149141621Y-99245564D01*
X149159208Y-99410116D01*
X149107517Y-99564631D01*
X148988292Y-99697610D01*
X148956257Y-99720771D01*
X148833685Y-99803279D01*
X148969945Y-99867938D01*
X149114265Y-99970979D01*
X149202490Y-100106104D01*
X149236217Y-100258453D01*
X149217043Y-100413167D01*
X149146567Y-100555386D01*
X149026384Y-100670252D01*
X148876404Y-100738139D01*
X148799914Y-100749197D01*
X148662395Y-100758943D01*
X148477193Y-100766842D01*
X148257653Y-100772359D01*
X148017119Y-100774960D01*
X147953865Y-100775092D01*
X147163602Y-100775300D01*
X147163602Y-100403411D01*
X147833002Y-100403411D01*
X148065432Y-100402863D01*
X148205591Y-100395125D01*
X148328239Y-100375668D01*
X148390835Y-100355515D01*
X148472093Y-100279035D01*
X148495154Y-100211661D01*
X148490035Y-100139102D01*
X148440086Y-100094344D01*
X148387335Y-100073064D01*
X148282020Y-100049644D01*
X148141050Y-100034579D01*
X148050585Y-100031522D01*
X147833002Y-100031522D01*
X147833002Y-100403411D01*
X147163602Y-100403411D01*
X147163602Y-99622445D01*
X147833002Y-99622445D01*
X148067292Y-99622445D01*
X148201920Y-99615564D01*
X148304086Y-99597422D01*
X148346208Y-99577818D01*
X148385012Y-99502064D01*
X148384043Y-99416279D01*
X148345397Y-99354508D01*
X148332010Y-99347507D01*
X148264167Y-99335207D01*
X148150388Y-99327008D01*
X148053093Y-99324934D01*
X147833002Y-99324934D01*
X147833002Y-99622445D01*
X147163602Y-99622445D01*
X147163602Y-98878667D01*
X147945763Y-98878667D01*
G37*
G36*
X154455489Y-99161834D02*
G01*
X154646568Y-99445000D01*
X154833578Y-99161834D01*
X155020588Y-98878667D01*
X155799975Y-98878667D01*
X155733312Y-98980937D01*
X155689594Y-99046032D01*
X155612334Y-99159106D01*
X155510502Y-99307109D01*
X155393068Y-99476987D01*
X155319958Y-99582391D01*
X154973265Y-100081576D01*
X154973265Y-100775300D01*
X154303865Y-100775300D01*
X154303865Y-100060412D01*
X154056527Y-99701970D01*
X153937405Y-99529961D01*
X153813729Y-99352406D01*
X153702938Y-99194295D01*
X153644185Y-99111098D01*
X153479182Y-98878667D01*
X154264410Y-98878667D01*
X154455489Y-99161834D01*
G37*
G36*
X145138934Y-98860683D02*
G01*
X145335247Y-98898995D01*
X145394877Y-98918207D01*
X145579176Y-99013531D01*
X145700574Y-99142424D01*
X145766488Y-99314206D01*
X145779432Y-99401626D01*
X145767973Y-99607233D01*
X145690797Y-99797861D01*
X145545460Y-99976950D01*
X145329520Y-100147941D01*
X145187619Y-100235313D01*
X145025242Y-100328138D01*
X145406428Y-100328585D01*
X145787614Y-100329033D01*
X145787614Y-100775300D01*
X144262870Y-100775300D01*
X144263271Y-100505681D01*
X144263672Y-100236061D01*
X144544971Y-100088359D01*
X144786885Y-99946073D01*
X144957223Y-99811056D01*
X145055206Y-99684041D01*
X145081025Y-99584323D01*
X145048781Y-99470977D01*
X144955494Y-99393281D01*
X144806329Y-99352997D01*
X144606453Y-99351885D01*
X144458111Y-99371859D01*
X144300059Y-99400191D01*
X144300059Y-98888399D01*
X144439517Y-98865348D01*
X144664676Y-98842399D01*
X144906613Y-98841331D01*
X145138934Y-98860683D01*
G37*
G36*
X142821801Y-98841842D02*
G01*
X143072299Y-98842476D01*
X143260995Y-98844909D01*
X143400461Y-98850366D01*
X143503270Y-98860077D01*
X143581994Y-98875268D01*
X143649207Y-98897166D01*
X143717481Y-98927001D01*
X143723631Y-98929892D01*
X143845960Y-98996850D01*
X143951434Y-99070230D01*
X143990942Y-99106176D01*
X144117350Y-99295512D01*
X144194930Y-99523257D01*
X144223818Y-99771830D01*
X144204147Y-100023652D01*
X144136053Y-100261141D01*
X144019671Y-100466719D01*
X143980165Y-100514273D01*
X143897136Y-100596940D01*
X143808922Y-100660416D01*
X143704579Y-100707136D01*
X143573161Y-100739531D01*
X143403724Y-100760035D01*
X143185322Y-100771080D01*
X142907012Y-100775100D01*
X142805879Y-100775300D01*
X142105915Y-100775300D01*
X142105915Y-100300509D01*
X142775315Y-100300509D01*
X143018022Y-100285055D01*
X143162006Y-100270800D01*
X143257451Y-100244725D01*
X143330132Y-100198082D01*
X143362019Y-100168311D01*
X143416510Y-100105875D01*
X143447073Y-100040033D01*
X143460432Y-99946902D01*
X143463309Y-99808389D01*
X143460197Y-99666143D01*
X143446381Y-99574285D01*
X143415140Y-99508934D01*
X143362019Y-99448468D01*
X143291180Y-99389817D01*
X143209084Y-99355639D01*
X143089957Y-99337187D01*
X143018022Y-99331724D01*
X142775315Y-99316269D01*
X142775315Y-100300509D01*
X142105915Y-100300509D01*
X142105915Y-98841479D01*
X142821801Y-98841842D01*
G37*
G36*
X152267775Y-98841842D02*
G01*
X152518273Y-98842476D01*
X152706969Y-98844909D01*
X152846435Y-98850366D01*
X152949243Y-98860077D01*
X153027968Y-98875268D01*
X153095181Y-98897166D01*
X153163455Y-98927001D01*
X153169605Y-98929892D01*
X153291933Y-98996850D01*
X153397408Y-99070230D01*
X153436916Y-99106176D01*
X153563323Y-99295512D01*
X153640904Y-99523257D01*
X153669791Y-99771830D01*
X153650121Y-100023652D01*
X153582027Y-100261141D01*
X153465644Y-100466719D01*
X153426139Y-100514273D01*
X153343110Y-100596940D01*
X153254896Y-100660416D01*
X153150552Y-100707136D01*
X153019135Y-100739531D01*
X152849697Y-100760035D01*
X152631296Y-100771080D01*
X152352986Y-100775100D01*
X152251853Y-100775300D01*
X151551889Y-100775300D01*
X151551889Y-100300509D01*
X152221289Y-100300509D01*
X152463996Y-100285055D01*
X152607980Y-100270800D01*
X152703425Y-100244725D01*
X152776105Y-100198082D01*
X152807993Y-100168311D01*
X152862483Y-100105875D01*
X152893047Y-100040033D01*
X152906406Y-99946902D01*
X152909283Y-99808389D01*
X152906171Y-99666143D01*
X152892355Y-99574285D01*
X152861113Y-99508934D01*
X152807993Y-99448468D01*
X152737153Y-99389817D01*
X152655057Y-99355639D01*
X152535931Y-99337187D01*
X152463996Y-99331724D01*
X152221289Y-99316269D01*
X152221289Y-100300509D01*
X151551889Y-100300509D01*
X151551889Y-98841479D01*
X152267775Y-98841842D01*
G37*
D12*
%TO.C,J2*%
X168890000Y-101970000D02*
X168890000Y-112250000D01*
X168890000Y-112250000D02*
X171550000Y-112250000D01*
X171550000Y-112250000D02*
X171550000Y-101970000D01*
X171550000Y-101970000D02*
X168890000Y-101970000D01*
X171550000Y-102920000D02*
X177550000Y-102920000D01*
X177550000Y-102920000D02*
X177550000Y-103680000D01*
X177550000Y-103680000D02*
X171550000Y-103680000D01*
X171550000Y-102980000D02*
X177550000Y-102980000D01*
X171550000Y-103100000D02*
X177550000Y-103100000D01*
X171550000Y-103220000D02*
X177550000Y-103220000D01*
X171550000Y-103340000D02*
X177550000Y-103340000D01*
X171550000Y-103460000D02*
X177550000Y-103460000D01*
X171550000Y-103580000D02*
X177550000Y-103580000D01*
X168560000Y-102920000D02*
X168890000Y-102920000D01*
X168560000Y-103680000D02*
X168890000Y-103680000D01*
X168890000Y-104570000D02*
X171550000Y-104570000D01*
X171550000Y-105460000D02*
X177550000Y-105460000D01*
X177550000Y-105460000D02*
X177550000Y-106220000D01*
X177550000Y-106220000D02*
X171550000Y-106220000D01*
X168492929Y-105460000D02*
X168890000Y-105460000D01*
X168492929Y-106220000D02*
X168890000Y-106220000D01*
X168890000Y-107110000D02*
X171550000Y-107110000D01*
X171550000Y-108000000D02*
X177550000Y-108000000D01*
X177550000Y-108000000D02*
X177550000Y-108760000D01*
X177550000Y-108760000D02*
X171550000Y-108760000D01*
X168492929Y-108000000D02*
X168890000Y-108000000D01*
X168492929Y-108760000D02*
X168890000Y-108760000D01*
X168890000Y-109650000D02*
X171550000Y-109650000D01*
X171550000Y-110540000D02*
X177550000Y-110540000D01*
X177550000Y-110540000D02*
X177550000Y-111300000D01*
X177550000Y-111300000D02*
X171550000Y-111300000D01*
X168492929Y-110540000D02*
X168890000Y-110540000D01*
X168492929Y-111300000D02*
X168890000Y-111300000D01*
X166180000Y-103300000D02*
X166180000Y-102030000D01*
X166180000Y-102030000D02*
X167450000Y-102030000D01*
%TO.C,J1*%
X125120000Y-112480000D02*
X125120000Y-102200000D01*
X125120000Y-102200000D02*
X122460000Y-102200000D01*
X122460000Y-102200000D02*
X122460000Y-112480000D01*
X122460000Y-112480000D02*
X125120000Y-112480000D01*
X122460000Y-111530000D02*
X116460000Y-111530000D01*
X116460000Y-111530000D02*
X116460000Y-110770000D01*
X116460000Y-110770000D02*
X122460000Y-110770000D01*
X122460000Y-111470000D02*
X116460000Y-111470000D01*
X122460000Y-111350000D02*
X116460000Y-111350000D01*
X122460000Y-111230000D02*
X116460000Y-111230000D01*
X122460000Y-111110000D02*
X116460000Y-111110000D01*
X122460000Y-110990000D02*
X116460000Y-110990000D01*
X122460000Y-110870000D02*
X116460000Y-110870000D01*
X125450000Y-111530000D02*
X125120000Y-111530000D01*
X125450000Y-110770000D02*
X125120000Y-110770000D01*
X125120000Y-109880000D02*
X122460000Y-109880000D01*
X122460000Y-108990000D02*
X116460000Y-108990000D01*
X116460000Y-108990000D02*
X116460000Y-108230000D01*
X116460000Y-108230000D02*
X122460000Y-108230000D01*
X125517071Y-108990000D02*
X125120000Y-108990000D01*
X125517071Y-108230000D02*
X125120000Y-108230000D01*
X125120000Y-107340000D02*
X122460000Y-107340000D01*
X122460000Y-106450000D02*
X116460000Y-106450000D01*
X116460000Y-106450000D02*
X116460000Y-105690000D01*
X116460000Y-105690000D02*
X122460000Y-105690000D01*
X125517071Y-106450000D02*
X125120000Y-106450000D01*
X125517071Y-105690000D02*
X125120000Y-105690000D01*
X125120000Y-104800000D02*
X122460000Y-104800000D01*
X122460000Y-103910000D02*
X116460000Y-103910000D01*
X116460000Y-103910000D02*
X116460000Y-103150000D01*
X116460000Y-103150000D02*
X122460000Y-103150000D01*
X125517071Y-103910000D02*
X125120000Y-103910000D01*
X125517071Y-103150000D02*
X125120000Y-103150000D01*
X127830000Y-111150000D02*
X127830000Y-112420000D01*
X127830000Y-112420000D02*
X126560000Y-112420000D01*
%TO.C,D6*%
X159370000Y-110880000D02*
X159370000Y-104780000D01*
X160470000Y-110880000D02*
X159370000Y-110880000D01*
X164770000Y-104780000D02*
X164770000Y-109780000D01*
%TO.C,D5*%
X153440000Y-110880000D02*
X153440000Y-104780000D01*
X154540000Y-110880000D02*
X153440000Y-110880000D01*
X158840000Y-104780000D02*
X158840000Y-109780000D01*
%TO.C,D4*%
X147510000Y-110880000D02*
X147510000Y-104780000D01*
X148610000Y-110880000D02*
X147510000Y-110880000D01*
X152910000Y-104780000D02*
X152910000Y-109780000D01*
%TO.C,D3*%
X141580000Y-110880000D02*
X141580000Y-104780000D01*
X142680000Y-110880000D02*
X141580000Y-110880000D01*
X146980000Y-104780000D02*
X146980000Y-109780000D01*
%TO.C,D2*%
X135650000Y-110880000D02*
X135650000Y-104780000D01*
X136750000Y-110880000D02*
X135650000Y-110880000D01*
X141050000Y-104780000D02*
X141050000Y-109780000D01*
%TO.C,D1*%
X129720000Y-110880000D02*
X129720000Y-104780000D01*
X130820000Y-110880000D02*
X129720000Y-110880000D01*
X135120000Y-104780000D02*
X135120000Y-109780000D01*
%TD*%
M02*
