%TF.GenerationSoftware,KiCad,Pcbnew,(6.0.0-0)*%
%TF.CreationDate,2022-03-11T16:24:20-05:00*%
%TF.ProjectId,Internal Body LED Strips,496e7465-726e-4616-9c20-426f6479204c,rev?*%
%TF.SameCoordinates,Original*%
%TF.FileFunction,Copper,L1,Top*%
%TF.FilePolarity,Positive*%
%FSLAX46Y46*%
G04 Gerber Fmt 4.6, Leading zero omitted, Abs format (unit mm)*
G04 Created by KiCad (PCBNEW (6.0.0-0)) date 2022-03-11 16:24:20*
%MOMM*%
%LPD*%
G01*
G04 APERTURE LIST*
%TA.AperFunction,ComponentPad*%
%ADD10R,1.700000X1.700000*%
%TD*%
%TA.AperFunction,ComponentPad*%
%ADD11O,1.700000X1.700000*%
%TD*%
%TA.AperFunction,SMDPad,CuDef*%
%ADD12R,1.100000X2.000000*%
%TD*%
%TA.AperFunction,Conductor*%
%ADD13C,0.250000*%
%TD*%
G04 APERTURE END LIST*
D10*
%TO.P,J2,1,Pin_1*%
%TO.N,Net-(D1-Pad4)*%
X167450000Y-103300000D03*
D11*
%TO.P,J2,2,Pin_2*%
%TO.N,Net-(D6-Pad6)*%
X167450000Y-105840000D03*
%TO.P,J2,3,Pin_3*%
%TO.N,Net-(D6-Pad5)*%
X167450000Y-108380000D03*
%TO.P,J2,4,Pin_4*%
%TO.N,Net-(D1-Pad3)*%
X167450000Y-110920000D03*
%TD*%
D10*
%TO.P,J1,1,Pin_1*%
%TO.N,Net-(D1-Pad3)*%
X126560000Y-111150000D03*
D11*
%TO.P,J1,2,Pin_2*%
%TO.N,Net-(D1-Pad2)*%
X126560000Y-108610000D03*
%TO.P,J1,3,Pin_3*%
%TO.N,Net-(D1-Pad1)*%
X126560000Y-106070000D03*
%TO.P,J1,4,Pin_4*%
%TO.N,Net-(D1-Pad4)*%
X126560000Y-103530000D03*
%TD*%
D12*
%TO.P,D6,1,DI*%
%TO.N,Net-(D5-Pad6)*%
X160370000Y-109680000D03*
%TO.P,D6,2,CI*%
%TO.N,Net-(D5-Pad5)*%
X162070000Y-109680000D03*
%TO.P,D6,3,GND*%
%TO.N,Net-(D1-Pad3)*%
X163770000Y-109680000D03*
%TO.P,D6,4,VCC*%
%TO.N,Net-(D1-Pad4)*%
X163770000Y-104880000D03*
%TO.P,D6,5,CO*%
%TO.N,Net-(D6-Pad5)*%
X162070000Y-104880000D03*
%TO.P,D6,6,DO*%
%TO.N,Net-(D6-Pad6)*%
X160370000Y-104880000D03*
%TD*%
%TO.P,D5,1,DI*%
%TO.N,Net-(D4-Pad6)*%
X154440000Y-109680000D03*
%TO.P,D5,2,CI*%
%TO.N,Net-(D4-Pad5)*%
X156140000Y-109680000D03*
%TO.P,D5,3,GND*%
%TO.N,Net-(D1-Pad3)*%
X157840000Y-109680000D03*
%TO.P,D5,4,VCC*%
%TO.N,Net-(D1-Pad4)*%
X157840000Y-104880000D03*
%TO.P,D5,5,CO*%
%TO.N,Net-(D5-Pad5)*%
X156140000Y-104880000D03*
%TO.P,D5,6,DO*%
%TO.N,Net-(D5-Pad6)*%
X154440000Y-104880000D03*
%TD*%
%TO.P,D4,1,DI*%
%TO.N,Net-(D3-Pad6)*%
X148510000Y-109680000D03*
%TO.P,D4,2,CI*%
%TO.N,Net-(D3-Pad5)*%
X150210000Y-109680000D03*
%TO.P,D4,3,GND*%
%TO.N,Net-(D1-Pad3)*%
X151910000Y-109680000D03*
%TO.P,D4,4,VCC*%
%TO.N,Net-(D1-Pad4)*%
X151910000Y-104880000D03*
%TO.P,D4,5,CO*%
%TO.N,Net-(D4-Pad5)*%
X150210000Y-104880000D03*
%TO.P,D4,6,DO*%
%TO.N,Net-(D4-Pad6)*%
X148510000Y-104880000D03*
%TD*%
%TO.P,D3,1,DI*%
%TO.N,Net-(D2-Pad6)*%
X142580000Y-109680000D03*
%TO.P,D3,2,CI*%
%TO.N,Net-(D2-Pad5)*%
X144280000Y-109680000D03*
%TO.P,D3,3,GND*%
%TO.N,Net-(D1-Pad3)*%
X145980000Y-109680000D03*
%TO.P,D3,4,VCC*%
%TO.N,Net-(D1-Pad4)*%
X145980000Y-104880000D03*
%TO.P,D3,5,CO*%
%TO.N,Net-(D3-Pad5)*%
X144280000Y-104880000D03*
%TO.P,D3,6,DO*%
%TO.N,Net-(D3-Pad6)*%
X142580000Y-104880000D03*
%TD*%
%TO.P,D2,1,DI*%
%TO.N,Net-(D1-Pad6)*%
X136650000Y-109680000D03*
%TO.P,D2,2,CI*%
%TO.N,Net-(D1-Pad5)*%
X138350000Y-109680000D03*
%TO.P,D2,3,GND*%
%TO.N,Net-(D1-Pad3)*%
X140050000Y-109680000D03*
%TO.P,D2,4,VCC*%
%TO.N,Net-(D1-Pad4)*%
X140050000Y-104880000D03*
%TO.P,D2,5,CO*%
%TO.N,Net-(D2-Pad5)*%
X138350000Y-104880000D03*
%TO.P,D2,6,DO*%
%TO.N,Net-(D2-Pad6)*%
X136650000Y-104880000D03*
%TD*%
%TO.P,D1,1,DI*%
%TO.N,Net-(D1-Pad1)*%
X130720000Y-109680000D03*
%TO.P,D1,2,CI*%
%TO.N,Net-(D1-Pad2)*%
X132420000Y-109680000D03*
%TO.P,D1,3,GND*%
%TO.N,Net-(D1-Pad3)*%
X134120000Y-109680000D03*
%TO.P,D1,4,VCC*%
%TO.N,Net-(D1-Pad4)*%
X134120000Y-104880000D03*
%TO.P,D1,5,CO*%
%TO.N,Net-(D1-Pad5)*%
X132420000Y-104880000D03*
%TO.P,D1,6,DO*%
%TO.N,Net-(D1-Pad6)*%
X130720000Y-104880000D03*
%TD*%
D13*
%TO.N,Net-(D1-Pad1)*%
X130720000Y-109680000D02*
X130170000Y-109680000D01*
X130170000Y-109680000D02*
X126560000Y-106070000D01*
%TO.N,Net-(D1-Pad2)*%
X126560000Y-108610000D02*
X129230000Y-111280000D01*
X129230000Y-111280000D02*
X131270000Y-111280000D01*
X131270000Y-111280000D02*
X132420000Y-110130000D01*
X132420000Y-110130000D02*
X132420000Y-109680000D01*
%TO.N,Net-(D1-Pad3)*%
X134120000Y-109680000D02*
X134120000Y-110130000D01*
X127540000Y-112130000D02*
X126560000Y-111150000D01*
X134120000Y-110130000D02*
X132120000Y-112130000D01*
X132120000Y-112130000D02*
X127540000Y-112130000D01*
%TO.N,Net-(D6-Pad5)*%
X162070000Y-104880000D02*
X162070000Y-104380978D01*
X162070000Y-104380978D02*
X161244511Y-103555489D01*
X165970000Y-108380000D02*
X167450000Y-108380000D01*
X161244511Y-103555489D02*
X159374511Y-103555489D01*
X159374511Y-103555489D02*
X159100000Y-103830000D01*
X159100000Y-103830000D02*
X159100000Y-105810000D01*
X159100000Y-105810000D02*
X160490000Y-107200000D01*
X160490000Y-107200000D02*
X161320000Y-107200000D01*
X161320000Y-107200000D02*
X162080000Y-107960000D01*
X162080000Y-107960000D02*
X165550000Y-107960000D01*
X165550000Y-107960000D02*
X165970000Y-108380000D01*
%TO.N,Net-(D1-Pad4)*%
X157840000Y-104880000D02*
X157840000Y-104020000D01*
X157840000Y-104020000D02*
X159160000Y-102700000D01*
X159160000Y-102700000D02*
X162040000Y-102700000D01*
X162040000Y-102700000D02*
X163770000Y-104430000D01*
X163770000Y-104430000D02*
X163770000Y-104880000D01*
%TO.N,Net-(D6-Pad6)*%
X160370000Y-105380000D02*
X161850000Y-106860000D01*
X166430000Y-106860000D02*
X167450000Y-105840000D01*
X160370000Y-104880000D02*
X160370000Y-105380000D01*
X161850000Y-106860000D02*
X166430000Y-106860000D01*
%TO.N,Net-(D5-Pad5)*%
X156140000Y-104880000D02*
X156140000Y-107370480D01*
X159429520Y-107800480D02*
X159430000Y-107800000D01*
X156140000Y-107370480D02*
X156570000Y-107800480D01*
X156570000Y-107800480D02*
X159429520Y-107800480D01*
X159430000Y-107800000D02*
X160790000Y-107800000D01*
X160790000Y-107800000D02*
X162070000Y-109080000D01*
X162070000Y-109080000D02*
X162070000Y-109680000D01*
%TO.N,Net-(D5-Pad6)*%
X154440000Y-104880000D02*
X154440000Y-106904282D01*
X154440000Y-106904282D02*
X155785718Y-108250000D01*
X155785718Y-108250000D02*
X158940000Y-108250000D01*
X158940000Y-108250000D02*
X160370000Y-109680000D01*
%TO.N,Net-(D4-Pad5)*%
X150210000Y-104880000D02*
X150210000Y-106720000D01*
X150210000Y-106720000D02*
X150620000Y-107130000D01*
X154630000Y-107730000D02*
X156140000Y-109240000D01*
X150620000Y-107130000D02*
X152000000Y-107130000D01*
X152000000Y-107130000D02*
X152610000Y-107740000D01*
X152610000Y-107740000D02*
X153670000Y-107740000D01*
X153670000Y-107740000D02*
X153680000Y-107730000D01*
X153680000Y-107730000D02*
X154630000Y-107730000D01*
X156140000Y-109240000D02*
X156140000Y-109680000D01*
%TO.N,Net-(D4-Pad6)*%
X148510000Y-104880000D02*
X148510000Y-106690000D01*
X148510000Y-106690000D02*
X149500000Y-107680000D01*
X151430000Y-108230000D02*
X153310000Y-108230000D01*
X149500000Y-107680000D02*
X150880000Y-107680000D01*
X150880000Y-107680000D02*
X151430000Y-108230000D01*
X153310000Y-108230000D02*
X154440000Y-109360000D01*
X154440000Y-109360000D02*
X154440000Y-109680000D01*
%TO.N,Net-(D3-Pad5)*%
X144280000Y-104880000D02*
X144280000Y-106450000D01*
X144280000Y-106450000D02*
X145460480Y-107630480D01*
X145460480Y-107630480D02*
X147320480Y-107630480D01*
X147320480Y-107630480D02*
X147920000Y-108230000D01*
X147920000Y-108230000D02*
X149470000Y-108230000D01*
X149470000Y-108230000D02*
X150210000Y-108970000D01*
X150210000Y-108970000D02*
X150210000Y-109680000D01*
%TO.N,Net-(D3-Pad6)*%
X142580000Y-104880000D02*
X142580000Y-106000000D01*
X142580000Y-106000000D02*
X144660000Y-108080000D01*
X144660000Y-108080000D02*
X147110000Y-108080000D01*
X147110000Y-108080000D02*
X148510000Y-109480000D01*
X148510000Y-109480000D02*
X148510000Y-109680000D01*
%TO.N,Net-(D2-Pad5)*%
X138350000Y-104880000D02*
X138350000Y-105860000D01*
X142350000Y-108010000D02*
X142560000Y-108220000D01*
X138350000Y-105860000D02*
X139080000Y-106590000D01*
X142350000Y-107250978D02*
X142350000Y-108010000D01*
X139080000Y-106590000D02*
X141689022Y-106590000D01*
X141689022Y-106590000D02*
X142350000Y-107250978D01*
X142560000Y-108220000D02*
X143420000Y-108220000D01*
X143420000Y-108220000D02*
X144280000Y-109080000D01*
X144280000Y-109080000D02*
X144280000Y-109680000D01*
%TO.N,Net-(D2-Pad6)*%
X138739520Y-107250480D02*
X138740000Y-107250000D01*
X136650000Y-104880000D02*
X136650000Y-106910480D01*
X136990000Y-107250480D02*
X138739520Y-107250480D01*
X136650000Y-106910480D02*
X136990000Y-107250480D01*
X138740000Y-107250000D02*
X140150000Y-107250000D01*
X140150000Y-107250000D02*
X142580000Y-109680000D01*
%TO.N,Net-(D1-Pad5)*%
X132420000Y-104880000D02*
X132420000Y-106600000D01*
X138350000Y-108790000D02*
X138350000Y-109680000D01*
X132420000Y-106600000D02*
X133520000Y-107700000D01*
X133520000Y-107700000D02*
X137260000Y-107700000D01*
X137260000Y-107700000D02*
X138350000Y-108790000D01*
%TO.N,Net-(D1-Pad6)*%
X130720000Y-104880000D02*
X130720000Y-106570000D01*
X130720000Y-106570000D02*
X132340000Y-108190000D01*
X132340000Y-108190000D02*
X135160000Y-108190000D01*
X135160000Y-108190000D02*
X136650000Y-109680000D01*
%TO.N,Net-(D1-Pad3)*%
X140050000Y-109680000D02*
X140050000Y-110130000D01*
X140050000Y-110130000D02*
X139170000Y-111010000D01*
X139170000Y-111010000D02*
X135450000Y-111010000D01*
X135450000Y-111010000D02*
X134120000Y-109680000D01*
X145980000Y-109680000D02*
X145980000Y-110130000D01*
X141390000Y-111020000D02*
X140050000Y-109680000D01*
X145980000Y-110130000D02*
X145090000Y-111020000D01*
X145090000Y-111020000D02*
X141390000Y-111020000D01*
X151910000Y-109680000D02*
X151910000Y-110130000D01*
X151910000Y-110130000D02*
X151030000Y-111010000D01*
X151030000Y-111010000D02*
X147310000Y-111010000D01*
X147310000Y-111010000D02*
X145980000Y-109680000D01*
X157840000Y-109680000D02*
X157840000Y-110130000D01*
X157840000Y-110130000D02*
X156950000Y-111020000D01*
X156950000Y-111020000D02*
X153250000Y-111020000D01*
X153250000Y-111020000D02*
X151910000Y-109680000D01*
X163770000Y-109680000D02*
X163770000Y-110130000D01*
X162895489Y-111004511D02*
X159164511Y-111004511D01*
X163770000Y-110130000D02*
X162895489Y-111004511D01*
X159164511Y-111004511D02*
X157840000Y-109680000D01*
X167450000Y-110920000D02*
X165010000Y-110920000D01*
X165010000Y-110920000D02*
X163770000Y-109680000D01*
%TO.N,Net-(D1-Pad4)*%
X163770000Y-104880000D02*
X165870000Y-104880000D01*
X165870000Y-104880000D02*
X167450000Y-103300000D01*
X151910000Y-104880000D02*
X153234511Y-103555489D01*
X153234511Y-103555489D02*
X156965489Y-103555489D01*
X156965489Y-103555489D02*
X157840000Y-104430000D01*
X157840000Y-104430000D02*
X157840000Y-104880000D01*
X145980000Y-104880000D02*
X147304511Y-103555489D01*
X147304511Y-103555489D02*
X151035489Y-103555489D01*
X151035489Y-103555489D02*
X151910000Y-104430000D01*
X151910000Y-104430000D02*
X151910000Y-104880000D01*
X140050000Y-104880000D02*
X141374511Y-103555489D01*
X145465489Y-103555489D02*
X145980000Y-104070000D01*
X145980000Y-104070000D02*
X145980000Y-104880000D01*
X141374511Y-103555489D02*
X145465489Y-103555489D01*
X134120000Y-104880000D02*
X135444511Y-103555489D01*
X135444511Y-103555489D02*
X139175489Y-103555489D01*
X139175489Y-103555489D02*
X140050000Y-104430000D01*
X140050000Y-104430000D02*
X140050000Y-104880000D01*
X126560000Y-103530000D02*
X134020000Y-103530000D01*
X134020000Y-103530000D02*
X134120000Y-103630000D01*
X134120000Y-103630000D02*
X134120000Y-104880000D01*
%TD*%
M02*
