M48
; DRILL file {KiCad (6.0.0-0)} date Wednesday, September 07, 2022 at 04:36:04 PM
; FORMAT={-:-/ absolute / inch / decimal}
; #@! TF.CreationDate,2022-09-07T16:36:04-04:00
; #@! TF.GenerationSoftware,Kicad,Pcbnew,(6.0.0-0)
; #@! TF.FileFunction,Plated,1,4,PTH
FMAT,2
INCH
; #@! TA.AperFunction,Plated,PTH,ViaDrill
T1C0.0157
; #@! TA.AperFunction,Plated,PTH,ComponentDrill
T2C0.0197
; #@! TA.AperFunction,Plated,PTH,ComponentDrill
T3C0.0217
; #@! TA.AperFunction,Plated,PTH,ComponentDrill
T4C0.0300
; #@! TA.AperFunction,Plated,PTH,ComponentDrill
T5C0.0394
; #@! TA.AperFunction,Plated,PTH,ComponentDrill
T6C0.0472
; #@! TA.AperFunction,Plated,PTH,ComponentDrill
T7C0.0866
%
G90
G05
T1
X4.3557Y-3.7419
X4.3811Y-2.9114
X4.3894Y-3.1402
X4.3957Y-3.3626
X4.4051Y-3.1976
X4.4079Y-3.3079
X4.413Y-3.2488
X4.4703Y-4.0872
X4.5354Y-4.0811
X4.6848Y-4.1026
X4.8039Y-3.9673
X4.8118Y-3.3433
X4.8795Y-3.2984
X4.8925Y-3.2051
X5.0382Y-3.4146
X5.0551Y-2.9024
X5.0583Y-2.9665
X5.2131Y-3.2356
X5.2157Y-3.1815
X5.2311Y-3.4217
X5.2406Y-3.3598
X5.4421Y-3.3756
X5.514Y-3.2435
T4
X2.9541Y-2.9994
X2.9541Y-3.0994
X2.9541Y-3.1994
X2.9541Y-3.2994
X2.9541Y-3.3994
X2.9541Y-3.4994
X3.0541Y-2.9994
X3.0541Y-3.0994
X3.0541Y-3.1994
X3.0541Y-3.2994
X3.0541Y-3.3994
X3.0541Y-3.4994
T5
X5.3098Y-2.6386
X5.3098Y-2.7386
X5.3098Y-2.8386
X5.3925Y-3.0047
X5.4807Y-2.6394
X5.4807Y-2.7394
X5.4807Y-2.8394
X5.4925Y-3.0047
X5.5807Y-2.6394
X5.5807Y-2.7394
X5.5807Y-2.8394
X5.5925Y-3.0047
X5.6146Y-3.1949
X5.6146Y-3.2949
X5.6146Y-3.3949
X5.6146Y-3.4949
X5.6146Y-3.5949
X5.6146Y-3.6949
T6
X3.3161Y-3.9232
X3.3181Y-2.5984
X3.4539Y-3.9232
X3.4559Y-2.5984
X3.6689Y-3.9201
X3.7146Y-2.5957
X3.8067Y-3.9201
X3.8524Y-2.5957
X4.0181Y-3.9201
X4.1559Y-3.9201
T7
X2.9907Y-2.8321
X2.9907Y-3.6667
X3.8175Y-3.6667
T2
G00X4.3858Y-4.2569
M15
G01X4.3858Y-4.2825
M16
G05
G00X4.6614Y-4.2569
M15
G01X4.6614Y-4.2825
M16
G05
T3
G00X4.4193Y-4.1634
M15
G01X4.4311Y-4.1634
M16
G05
G00X4.6161Y-4.1634
M15
G01X4.628Y-4.1634
M16
G05
T0
M30
