M48
; DRILL file {KiCad (6.0.0-0)} date Monday, December 05, 2022 at 03:29:07 PM
; FORMAT={-:-/ absolute / inch / decimal}
; #@! TF.CreationDate,2022-12-05T15:29:07-05:00
; #@! TF.GenerationSoftware,Kicad,Pcbnew,(6.0.0-0)
; #@! TF.FileFunction,Plated,1,4,PTH
FMAT,2
INCH
; #@! TA.AperFunction,Plated,PTH,ViaDrill
T1C0.0157
; #@! TA.AperFunction,Plated,PTH,ComponentDrill
T2C0.0197
; #@! TA.AperFunction,Plated,PTH,ComponentDrill
T3C0.0217
; #@! TA.AperFunction,Plated,PTH,ComponentDrill
T4C0.0300
; #@! TA.AperFunction,Plated,PTH,ComponentDrill
T5C0.0394
; #@! TA.AperFunction,Plated,PTH,ComponentDrill
T6C0.0469
; #@! TA.AperFunction,Plated,PTH,ComponentDrill
T7C0.0472
; #@! TA.AperFunction,Plated,PTH,ComponentDrill
T8C0.0866
; #@! TA.AperFunction,Plated,PTH,ComponentDrill
T9C0.0984
; #@! TA.AperFunction,Plated,PTH,ComponentDrill
T10C0.1260
%
G90
G05
T1
X3.9188Y-3.5125
X3.9488Y-3.1825
X4.1288Y-3.9125
X4.1788Y-3.3025
X4.2388Y-4.1125
X4.2488Y-3.7225
X4.2488Y-4.0125
X4.2588Y-3.8425
X4.2656Y-3.4493
X4.3988Y-2.6925
X4.3988Y-2.9025
X4.3988Y-3.7625
X4.4088Y-3.0125
X4.4105Y-4.0908
X4.5388Y-3.1625
X4.5713Y-3.975
X4.5988Y-4.0225
X4.6597Y-3.7616
X4.7638Y-3.1875
X4.7688Y-3.7025
X4.8588Y-2.6925
X4.8888Y-4.2325
X4.8988Y-3.6125
X4.9088Y-3.5425
X4.9588Y-3.6125
X4.9688Y-4.0225
X4.9688Y-4.1525
X5.0488Y-2.9825
X5.0888Y-2.7725
X5.1088Y-2.6825
X5.1088Y-3.0625
X5.1488Y-4.1725
X5.1688Y-3.3325
T4
X2.9637Y-3.0252
X2.9637Y-3.1252
X2.9637Y-3.2252
X2.9637Y-3.3252
X2.9637Y-3.4252
X2.9637Y-3.5252
X3.0637Y-3.0252
X3.0637Y-3.1252
X3.0637Y-3.2252
X3.0637Y-3.3252
X3.0637Y-3.4252
X3.0637Y-3.5252
X6.2655Y-2.0437
X6.2655Y-4.3337
X6.3655Y-2.0437
X6.3655Y-4.3337
X6.4655Y-2.0437
X6.4655Y-4.3337
X6.5655Y-2.0437
X6.5655Y-4.3337
X6.6655Y-2.0437
X6.6655Y-4.3337
X6.7655Y-2.0437
X6.7655Y-4.3337
T5
X2.4017Y-2.5631
X2.4017Y-2.6721
X2.4017Y-2.7812
X2.4017Y-2.8902
X2.4017Y-2.9993
X2.4017Y-3.1083
X2.4017Y-3.2174
X2.4017Y-3.3265
X2.4017Y-3.4355
X2.4017Y-3.5446
X2.4017Y-3.6536
X2.4017Y-3.7627
X2.4017Y-3.8717
X2.5135Y-2.6176
X2.5135Y-2.7267
X2.5135Y-2.8357
X2.5135Y-2.9448
X2.5135Y-3.0538
X2.5135Y-3.1629
X2.5135Y-3.2719
X2.5135Y-3.381
X2.5135Y-3.49
X2.5135Y-3.5991
X2.5135Y-3.7081
X2.5135Y-3.8172
T6
X5.4465Y-2.4226
X5.4465Y-2.82
X5.4465Y-3.2174
X5.4465Y-3.6149
X5.4465Y-4.0123
X5.5465Y-2.4226
X5.5465Y-2.82
X5.5465Y-3.2174
X5.5465Y-3.6149
X5.5465Y-4.0123
X5.6465Y-2.4226
X5.6465Y-2.82
X5.6465Y-3.2174
X5.6465Y-3.6149
X5.6465Y-4.0123
T7
X2.9906Y-3.9246
X3.1283Y-3.9246
X3.2937Y-2.6009
X3.3425Y-3.9246
X3.4315Y-2.6009
X3.4803Y-3.9246
X3.6845Y-2.6008
X3.6944Y-3.9246
X3.8223Y-2.6008
X3.8322Y-3.9246
T8
X3.0004Y-2.8579
X3.0004Y-3.6926
X3.8271Y-3.6926
T9
X6.1405Y-2.0937
X6.1405Y-4.2837
X6.8905Y-2.0937
X6.8905Y-4.2837
T10
X2.4576Y-2.2902
X2.4576Y-4.1446
T2
G00X4.4287Y-4.2592
M15
G01X4.4287Y-4.2848
M16
G05
G00X4.7043Y-4.2592
M15
G01X4.7043Y-4.2848
M16
G05
T3
G00X4.4621Y-4.1657
M15
G01X4.4739Y-4.1657
M16
G05
G00X4.659Y-4.1657
M15
G01X4.6708Y-4.1657
M16
G05
T5
G00X2.7801Y-2.5246
M15
G01X2.7801Y-2.6033
M16
G05
G00X3.0045Y-2.4458
M15
G01X2.9257Y-2.4458
M16
G05
G00X3.0143Y-2.682
M15
G01X2.9159Y-2.682
M16
G05
T0
M30
