%TF.GenerationSoftware,KiCad,Pcbnew,(6.0.0-0)*%
%TF.CreationDate,2022-12-05T15:29:02-05:00*%
%TF.ProjectId,Dome_Controller_V2,446f6d65-5f43-46f6-9e74-726f6c6c6572,2.0*%
%TF.SameCoordinates,Original*%
%TF.FileFunction,Paste,Top*%
%TF.FilePolarity,Positive*%
%FSLAX46Y46*%
G04 Gerber Fmt 4.6, Leading zero omitted, Abs format (unit mm)*
G04 Created by KiCad (PCBNEW (6.0.0-0)) date 2022-12-05 15:29:02*
%MOMM*%
%LPD*%
G01*
G04 APERTURE LIST*
G04 Aperture macros list*
%AMRoundRect*
0 Rectangle with rounded corners*
0 $1 Rounding radius*
0 $2 $3 $4 $5 $6 $7 $8 $9 X,Y pos of 4 corners*
0 Add a 4 corners polygon primitive as box body*
4,1,4,$2,$3,$4,$5,$6,$7,$8,$9,$2,$3,0*
0 Add four circle primitives for the rounded corners*
1,1,$1+$1,$2,$3*
1,1,$1+$1,$4,$5*
1,1,$1+$1,$6,$7*
1,1,$1+$1,$8,$9*
0 Add four rect primitives between the rounded corners*
20,1,$1+$1,$2,$3,$4,$5,0*
20,1,$1+$1,$4,$5,$6,$7,0*
20,1,$1+$1,$6,$7,$8,$9,0*
20,1,$1+$1,$8,$9,$2,$3,0*%
G04 Aperture macros list end*
%ADD10C,0.010000*%
%ADD11RoundRect,0.140000X-0.140000X-0.170000X0.140000X-0.170000X0.140000X0.170000X-0.140000X0.170000X0*%
%ADD12R,1.000000X1.000000*%
%ADD13RoundRect,0.200000X0.200000X0.275000X-0.200000X0.275000X-0.200000X-0.275000X0.200000X-0.275000X0*%
%ADD14RoundRect,0.140000X0.140000X0.170000X-0.140000X0.170000X-0.140000X-0.170000X0.140000X-0.170000X0*%
%ADD15O,1.250000X0.950000*%
%ADD16O,0.890000X1.550000*%
%ADD17R,0.400000X1.350000*%
%ADD18R,1.200000X1.550000*%
%ADD19R,1.500000X1.550000*%
%ADD20RoundRect,0.200000X-0.200000X-0.275000X0.200000X-0.275000X0.200000X0.275000X-0.200000X0.275000X0*%
%ADD21R,2.000000X0.900000*%
%ADD22R,0.900000X2.000000*%
%ADD23R,5.000000X5.000000*%
%ADD24RoundRect,0.049600X-0.605400X-0.260400X0.605400X-0.260400X0.605400X0.260400X-0.605400X0.260400X0*%
%ADD25RoundRect,0.150000X0.587500X0.150000X-0.587500X0.150000X-0.587500X-0.150000X0.587500X-0.150000X0*%
%ADD26RoundRect,0.150000X-0.512500X-0.150000X0.512500X-0.150000X0.512500X0.150000X-0.512500X0.150000X0*%
%ADD27R,0.914400X1.219200*%
%ADD28RoundRect,0.135000X-0.135000X-0.185000X0.135000X-0.185000X0.135000X0.185000X-0.135000X0.185000X0*%
%ADD29RoundRect,0.100000X-1.000000X-0.400000X1.000000X-0.400000X1.000000X0.400000X-1.000000X0.400000X0*%
G04 APERTURE END LIST*
D10*
%TO.C,U5*%
X132026000Y-93277800D02*
X132026000Y-93727800D01*
X132026000Y-93727800D02*
X131776000Y-93727800D01*
X131776000Y-93727800D02*
X131776000Y-93277800D01*
X131776000Y-93277800D02*
X132026000Y-93277800D01*
G36*
X132026000Y-93727800D02*
G01*
X131776000Y-93727800D01*
X131776000Y-93277800D01*
X132026000Y-93277800D01*
X132026000Y-93727800D01*
G37*
X132026000Y-93727800D02*
X131776000Y-93727800D01*
X131776000Y-93277800D01*
X132026000Y-93277800D01*
X132026000Y-93727800D01*
X132676000Y-95127800D02*
X132676000Y-95577800D01*
X132676000Y-95577800D02*
X132426000Y-95577800D01*
X132426000Y-95577800D02*
X132426000Y-95127800D01*
X132426000Y-95127800D02*
X132676000Y-95127800D01*
G36*
X132676000Y-95577800D02*
G01*
X132426000Y-95577800D01*
X132426000Y-95127800D01*
X132676000Y-95127800D01*
X132676000Y-95577800D01*
G37*
X132676000Y-95577800D02*
X132426000Y-95577800D01*
X132426000Y-95127800D01*
X132676000Y-95127800D01*
X132676000Y-95577800D01*
X132676000Y-93277800D02*
X132676000Y-93727800D01*
X132676000Y-93727800D02*
X132426000Y-93727800D01*
X132426000Y-93727800D02*
X132426000Y-93277800D01*
X132426000Y-93277800D02*
X132676000Y-93277800D01*
G36*
X132676000Y-93727800D02*
G01*
X132426000Y-93727800D01*
X132426000Y-93277800D01*
X132676000Y-93277800D01*
X132676000Y-93727800D01*
G37*
X132676000Y-93727800D02*
X132426000Y-93727800D01*
X132426000Y-93277800D01*
X132676000Y-93277800D01*
X132676000Y-93727800D01*
X131376000Y-93277800D02*
X131376000Y-93727800D01*
X131376000Y-93727800D02*
X131126000Y-93727800D01*
X131126000Y-93727800D02*
X131126000Y-93277800D01*
X131126000Y-93277800D02*
X131376000Y-93277800D01*
G36*
X131376000Y-93727800D02*
G01*
X131126000Y-93727800D01*
X131126000Y-93277800D01*
X131376000Y-93277800D01*
X131376000Y-93727800D01*
G37*
X131376000Y-93727800D02*
X131126000Y-93727800D01*
X131126000Y-93277800D01*
X131376000Y-93277800D01*
X131376000Y-93727800D01*
X132026000Y-95127800D02*
X132026000Y-95577800D01*
X132026000Y-95577800D02*
X131776000Y-95577800D01*
X131776000Y-95577800D02*
X131776000Y-95127800D01*
X131776000Y-95127800D02*
X132026000Y-95127800D01*
G36*
X132026000Y-95577800D02*
G01*
X131776000Y-95577800D01*
X131776000Y-95127800D01*
X132026000Y-95127800D01*
X132026000Y-95577800D01*
G37*
X132026000Y-95577800D02*
X131776000Y-95577800D01*
X131776000Y-95127800D01*
X132026000Y-95127800D01*
X132026000Y-95577800D01*
X131376000Y-95127800D02*
X131376000Y-95577800D01*
X131376000Y-95577800D02*
X131126000Y-95577800D01*
X131126000Y-95577800D02*
X131126000Y-95127800D01*
X131126000Y-95127800D02*
X131376000Y-95127800D01*
G36*
X131376000Y-95577800D02*
G01*
X131126000Y-95577800D01*
X131126000Y-95127800D01*
X131376000Y-95127800D01*
X131376000Y-95577800D01*
G37*
X131376000Y-95577800D02*
X131126000Y-95577800D01*
X131126000Y-95127800D01*
X131376000Y-95127800D01*
X131376000Y-95577800D01*
%TD*%
D11*
%TO.C,C5*%
X100734000Y-89292000D03*
X101694000Y-89292000D03*
%TD*%
D12*
%TO.C,L1*%
X116881000Y-96845000D03*
X116881000Y-95545000D03*
X114851000Y-95545000D03*
X114851000Y-96845000D03*
%TD*%
D13*
%TO.C,R3*%
X102613000Y-83374000D03*
X100963000Y-83374000D03*
%TD*%
D11*
%TO.C,C1*%
X133856000Y-95314000D03*
X134816000Y-95314000D03*
%TD*%
D14*
%TO.C,C4*%
X120548000Y-95556000D03*
X119588000Y-95556000D03*
%TD*%
D15*
%TO.C,J1*%
X118488000Y-105808000D03*
D16*
X112488000Y-108508000D03*
D15*
X113488000Y-105808000D03*
D16*
X119488000Y-108508000D03*
D17*
X114688000Y-105808000D03*
X115338000Y-105808000D03*
X115988000Y-105808000D03*
X116638000Y-105808000D03*
X117288000Y-105808000D03*
D18*
X113088000Y-108508000D03*
D19*
X114988000Y-108508000D03*
D18*
X118888000Y-108508000D03*
D19*
X116988000Y-108508000D03*
%TD*%
D14*
%TO.C,C3*%
X106052000Y-68002000D03*
X105092000Y-68002000D03*
%TD*%
D20*
%TO.C,R2*%
X105009000Y-89300000D03*
X106659000Y-89300000D03*
%TD*%
D14*
%TO.C,C7*%
X104216000Y-75998000D03*
X103256000Y-75998000D03*
%TD*%
%TO.C,C2*%
X105960000Y-66878000D03*
X105000000Y-66878000D03*
%TD*%
D21*
%TO.C,U1*%
X108956000Y-65637000D03*
X108956000Y-66907000D03*
X108956000Y-68177000D03*
X108956000Y-69447000D03*
X108956000Y-70717000D03*
X108956000Y-71987000D03*
X108956000Y-73257000D03*
X108956000Y-74527000D03*
X108956000Y-75797000D03*
X108956000Y-77067000D03*
X108956000Y-78337000D03*
X108956000Y-79607000D03*
X108956000Y-80877000D03*
X108956000Y-82147000D03*
D22*
X111741000Y-83147000D03*
X113011000Y-83147000D03*
X114281000Y-83147000D03*
X115551000Y-83147000D03*
X116821000Y-83147000D03*
X118091000Y-83147000D03*
X119361000Y-83147000D03*
X120631000Y-83147000D03*
X121901000Y-83147000D03*
X123171000Y-83147000D03*
D21*
X125956000Y-82147000D03*
X125956000Y-80877000D03*
X125956000Y-79607000D03*
X125956000Y-78337000D03*
X125956000Y-77067000D03*
X125956000Y-75797000D03*
X125956000Y-74527000D03*
X125956000Y-73257000D03*
X125956000Y-71987000D03*
X125956000Y-70717000D03*
X125956000Y-69447000D03*
X125956000Y-68177000D03*
X125956000Y-66907000D03*
X125956000Y-65637000D03*
D23*
X116456000Y-73137000D03*
%TD*%
D24*
%TO.C,U4*%
X122801000Y-91635000D03*
X122801000Y-92905000D03*
X122801000Y-94175000D03*
X122801000Y-95445000D03*
X122801000Y-96715000D03*
X122801000Y-97985000D03*
X122801000Y-99255000D03*
X122801000Y-100525000D03*
X128301000Y-100525000D03*
X128301000Y-99255000D03*
X128301000Y-97985000D03*
X128301000Y-96715000D03*
X128301000Y-95445000D03*
X128301000Y-94175000D03*
X128301000Y-92905000D03*
X128301000Y-91635000D03*
%TD*%
D14*
%TO.C,C6*%
X128288000Y-89980000D03*
X127328000Y-89980000D03*
%TD*%
D25*
%TO.C,U2*%
X103517500Y-93816000D03*
X103517500Y-91916000D03*
X101642500Y-92866000D03*
%TD*%
D26*
%TO.C,U3*%
X102178500Y-79000000D03*
X102178500Y-79950000D03*
X102178500Y-80900000D03*
X104453500Y-80900000D03*
X104453500Y-79000000D03*
%TD*%
D27*
%TO.C,CR1*%
X104820800Y-86742500D03*
X101544200Y-86742500D03*
%TD*%
D28*
%TO.C,R4*%
X113764000Y-93558000D03*
X114784000Y-93558000D03*
%TD*%
D13*
%TO.C,R1*%
X124657000Y-103440000D03*
X123007000Y-103440000D03*
%TD*%
D29*
%TO.C,SW1*%
X112027000Y-101841000D03*
X119827000Y-101841000D03*
%TD*%
M02*
