%TF.GenerationSoftware,KiCad,Pcbnew,8.0.2-1*%
%TF.CreationDate,2025-01-01T20:34:54-05:00*%
%TF.ProjectId,C3P0_Controller,43335030-5f43-46f6-9e74-726f6c6c6572,rev?*%
%TF.SameCoordinates,Original*%
%TF.FileFunction,Copper,L1,Top*%
%TF.FilePolarity,Positive*%
%FSLAX46Y46*%
G04 Gerber Fmt 4.6, Leading zero omitted, Abs format (unit mm)*
G04 Created by KiCad (PCBNEW 8.0.2-1) date 2025-01-01 20:34:54*
%MOMM*%
%LPD*%
G01*
G04 APERTURE LIST*
%TA.AperFunction,ComponentPad*%
%ADD10O,1.700000X1.700000*%
%TD*%
%TA.AperFunction,ComponentPad*%
%ADD11R,1.700000X1.700000*%
%TD*%
%TA.AperFunction,ComponentPad*%
%ADD12C,2.600000*%
%TD*%
%TA.AperFunction,ComponentPad*%
%ADD13R,2.600000X2.600000*%
%TD*%
%TA.AperFunction,ComponentPad*%
%ADD14R,1.560000X1.560000*%
%TD*%
%TA.AperFunction,ComponentPad*%
%ADD15C,1.560000*%
%TD*%
G04 APERTURE END LIST*
D10*
%TO.P,J26,3,Pin_3*%
%TO.N,MISC_2*%
X214826000Y-106944000D03*
%TO.P,J26,2,Pin_2*%
%TO.N,5V*%
X212286000Y-106944000D03*
D11*
%TO.P,J26,1,Pin_1*%
%TO.N,GND*%
X209746000Y-106944000D03*
%TD*%
%TO.P,J25,1,Pin_1*%
%TO.N,GND*%
X209736000Y-99118000D03*
D10*
%TO.P,J25,2,Pin_2*%
%TO.N,5V*%
X212276000Y-99118000D03*
%TO.P,J25,3,Pin_3*%
%TO.N,MISC_1*%
X214816000Y-99118000D03*
%TD*%
D11*
%TO.P,J24,1,Pin_1*%
%TO.N,GND*%
X147708396Y-57099000D03*
D10*
%TO.P,J24,2,Pin_2*%
%TO.N,SVR_PWR*%
X147708396Y-59639000D03*
%TO.P,J24,3,Pin_3*%
%TO.N,SPR_2*%
X147708396Y-62179000D03*
%TD*%
%TO.P,J23,3,Pin_3*%
%TO.N,SPR_1*%
X143239215Y-62179000D03*
%TO.P,J23,2,Pin_2*%
%TO.N,SVR_PWR*%
X143239215Y-59639000D03*
D11*
%TO.P,J23,1,Pin_1*%
%TO.N,GND*%
X143239215Y-57099000D03*
%TD*%
D12*
%TO.P,J51,2,Pin_2*%
%TO.N,5V*%
X209591000Y-119425000D03*
D13*
%TO.P,J51,1,Pin_1*%
%TO.N,GND*%
X209591000Y-124505000D03*
%TD*%
%TO.P,J50,1,Pin_1*%
%TO.N,GND*%
X91711000Y-63901000D03*
D12*
%TO.P,J50,2,Pin_2*%
%TO.N,SVR_PWR*%
X86631000Y-63901000D03*
%TD*%
D11*
%TO.P,J33,1,Pin_1*%
%TO.N,GND*%
X209486000Y-83210000D03*
D10*
%TO.P,J33,2,Pin_2*%
%TO.N,T_RX*%
X212026000Y-83210000D03*
%TO.P,J33,3,Pin_3*%
%TO.N,T_TX*%
X214566000Y-83210000D03*
%TD*%
D11*
%TO.P,J32,1,Pin_1*%
%TO.N,GND*%
X209425834Y-67563500D03*
D10*
%TO.P,J32,2,Pin_2*%
%TO.N,RA_RX*%
X211965834Y-67563500D03*
%TO.P,J32,3,Pin_3*%
%TO.N,RA_TX*%
X214505834Y-67563500D03*
%TD*%
D11*
%TO.P,J31,1,Pin_1*%
%TO.N,GND*%
X210088668Y-91122000D03*
D10*
%TO.P,J31,2,Pin_2*%
%TO.N,LA_RX*%
X212628668Y-91122000D03*
%TO.P,J31,3,Pin_3*%
%TO.N,LA_TX*%
X215168668Y-91122000D03*
%TD*%
D11*
%TO.P,J30,1,Pin_1*%
%TO.N,GND*%
X209486000Y-75062000D03*
D10*
%TO.P,J30,2,Pin_2*%
%TO.N,H_RX*%
X212026000Y-75062000D03*
%TO.P,J30,3,Pin_3*%
%TO.N,H_TX*%
X214566000Y-75062000D03*
%TD*%
%TO.P,J2,3,Pin_3*%
%TO.N,SRV_2*%
X129831672Y-62179000D03*
%TO.P,J2,2,Pin_2*%
%TO.N,SVR_PWR*%
X129831672Y-59639000D03*
D11*
%TO.P,J2,1,Pin_1*%
%TO.N,GND*%
X129831672Y-57099000D03*
%TD*%
D10*
%TO.P,J1,3,Pin_3*%
%TO.N,SRV_1*%
X125362491Y-62179000D03*
%TO.P,J1,2,Pin_2*%
%TO.N,SVR_PWR*%
X125362491Y-59639000D03*
D11*
%TO.P,J1,1,Pin_1*%
%TO.N,GND*%
X125362491Y-57099000D03*
%TD*%
D10*
%TO.P,J22,3,Pin_3*%
%TO.N,SRV_22*%
X174523482Y-62179000D03*
%TO.P,J22,2,Pin_2*%
%TO.N,SVR_PWR*%
X174523482Y-59639000D03*
D11*
%TO.P,J22,1,Pin_1*%
%TO.N,GND*%
X174523482Y-57099000D03*
%TD*%
D10*
%TO.P,J21,3,Pin_3*%
%TO.N,SRV_21*%
X170054301Y-62179000D03*
%TO.P,J21,2,Pin_2*%
%TO.N,SVR_PWR*%
X170054301Y-59639000D03*
D11*
%TO.P,J21,1,Pin_1*%
%TO.N,GND*%
X170054301Y-57099000D03*
%TD*%
D10*
%TO.P,J20,3,Pin_3*%
%TO.N,SRV_20*%
X165585120Y-62179000D03*
%TO.P,J20,2,Pin_2*%
%TO.N,SVR_PWR*%
X165585120Y-59639000D03*
D11*
%TO.P,J20,1,Pin_1*%
%TO.N,GND*%
X165585120Y-57099000D03*
%TD*%
D10*
%TO.P,J19,3,Pin_3*%
%TO.N,SRV_19*%
X161115939Y-62179000D03*
%TO.P,J19,2,Pin_2*%
%TO.N,SVR_PWR*%
X161115939Y-59639000D03*
D11*
%TO.P,J19,1,Pin_1*%
%TO.N,GND*%
X161115939Y-57099000D03*
%TD*%
D10*
%TO.P,J18,3,Pin_3*%
%TO.N,SRV_18*%
X156646758Y-62179000D03*
%TO.P,J18,2,Pin_2*%
%TO.N,SVR_PWR*%
X156646758Y-59639000D03*
D11*
%TO.P,J18,1,Pin_1*%
%TO.N,GND*%
X156646758Y-57099000D03*
%TD*%
D10*
%TO.P,J17,3,Pin_3*%
%TO.N,SRV_17*%
X152177577Y-62179000D03*
%TO.P,J17,2,Pin_2*%
%TO.N,SVR_PWR*%
X152177577Y-59639000D03*
D11*
%TO.P,J17,1,Pin_1*%
%TO.N,GND*%
X152177577Y-57099000D03*
%TD*%
D10*
%TO.P,J16,3,Pin_3*%
%TO.N,SRV_16*%
X120893310Y-62179000D03*
%TO.P,J16,2,Pin_2*%
%TO.N,SVR_PWR*%
X120893310Y-59639000D03*
D11*
%TO.P,J16,1,Pin_1*%
%TO.N,GND*%
X120893310Y-57099000D03*
%TD*%
D10*
%TO.P,J15,3,Pin_3*%
%TO.N,SRV_15*%
X116424129Y-62179000D03*
%TO.P,J15,2,Pin_2*%
%TO.N,SVR_PWR*%
X116424129Y-59639000D03*
D11*
%TO.P,J15,1,Pin_1*%
%TO.N,GND*%
X116424129Y-57099000D03*
%TD*%
D10*
%TO.P,J14,3,Pin_3*%
%TO.N,SRV_14*%
X111954948Y-62179000D03*
%TO.P,J14,2,Pin_2*%
%TO.N,SVR_PWR*%
X111954948Y-59639000D03*
D11*
%TO.P,J14,1,Pin_1*%
%TO.N,GND*%
X111954948Y-57099000D03*
%TD*%
D10*
%TO.P,J13,3,Pin_3*%
%TO.N,SRV_13*%
X107485767Y-62179000D03*
%TO.P,J13,2,Pin_2*%
%TO.N,SVR_PWR*%
X107485767Y-59639000D03*
D11*
%TO.P,J13,1,Pin_1*%
%TO.N,GND*%
X107485767Y-57099000D03*
%TD*%
D10*
%TO.P,J12,3,Pin_3*%
%TO.N,SRV_12*%
X103016586Y-62179000D03*
%TO.P,J12,2,Pin_2*%
%TO.N,SVR_PWR*%
X103016586Y-59639000D03*
D11*
%TO.P,J12,1,Pin_1*%
%TO.N,GND*%
X103016586Y-57099000D03*
%TD*%
D10*
%TO.P,J11,3,Pin_3*%
%TO.N,SRV_11*%
X98547405Y-62179000D03*
%TO.P,J11,2,Pin_2*%
%TO.N,SVR_PWR*%
X98547405Y-59639000D03*
D11*
%TO.P,J11,1,Pin_1*%
%TO.N,GND*%
X98547405Y-57099000D03*
%TD*%
D10*
%TO.P,J10,3,Pin_3*%
%TO.N,SRV_10*%
X201338569Y-62179000D03*
%TO.P,J10,2,Pin_2*%
%TO.N,SVR_PWR*%
X201338569Y-59639000D03*
D11*
%TO.P,J10,1,Pin_1*%
%TO.N,GND*%
X201338569Y-57099000D03*
%TD*%
D10*
%TO.P,J9,3,Pin_3*%
%TO.N,SRV_9*%
X196869387Y-62179000D03*
%TO.P,J9,2,Pin_2*%
%TO.N,SVR_PWR*%
X196869387Y-59639000D03*
D11*
%TO.P,J9,1,Pin_1*%
%TO.N,GND*%
X196869387Y-57099000D03*
%TD*%
D10*
%TO.P,J8,3,Pin_3*%
%TO.N,SRV_8*%
X192400206Y-62179000D03*
%TO.P,J8,2,Pin_2*%
%TO.N,SVR_PWR*%
X192400206Y-59639000D03*
D11*
%TO.P,J8,1,Pin_1*%
%TO.N,GND*%
X192400206Y-57099000D03*
%TD*%
D10*
%TO.P,J7,3,Pin_3*%
%TO.N,SRV_7*%
X187931025Y-62179000D03*
%TO.P,J7,2,Pin_2*%
%TO.N,SVR_PWR*%
X187931025Y-59639000D03*
D11*
%TO.P,J7,1,Pin_1*%
%TO.N,GND*%
X187931025Y-57099000D03*
%TD*%
D10*
%TO.P,J6,3,Pin_3*%
%TO.N,SRV_6*%
X183461844Y-62179000D03*
%TO.P,J6,2,Pin_2*%
%TO.N,SVR_PWR*%
X183461844Y-59639000D03*
D11*
%TO.P,J6,1,Pin_1*%
%TO.N,GND*%
X183461844Y-57099000D03*
%TD*%
D10*
%TO.P,J5,3,Pin_3*%
%TO.N,SRV_5*%
X178992663Y-62179000D03*
%TO.P,J5,2,Pin_2*%
%TO.N,SVR_PWR*%
X178992663Y-59639000D03*
D11*
%TO.P,J5,1,Pin_1*%
%TO.N,GND*%
X178992663Y-57099000D03*
%TD*%
D10*
%TO.P,J4,3,Pin_3*%
%TO.N,SRV_4*%
X138770034Y-62179000D03*
%TO.P,J4,2,Pin_2*%
%TO.N,SVR_PWR*%
X138770034Y-59639000D03*
D11*
%TO.P,J4,1,Pin_1*%
%TO.N,GND*%
X138770034Y-57099000D03*
%TD*%
D14*
%TO.P,U4,J2-1,3V3*%
%TO.N,unconnected-(U4-3V3-PadJ2-1)*%
X173963000Y-83611000D03*
D15*
%TO.P,U4,J2-2,EN*%
%TO.N,unconnected-(U4-EN-PadJ2-2)*%
X173963000Y-86151000D03*
%TO.P,U4,J2-3,SENSOR_VP*%
%TO.N,unconnected-(U4-SENSOR_VP-PadJ2-3)*%
X173963000Y-88691000D03*
%TO.P,U4,J2-4,SENSOR_VN*%
%TO.N,unconnected-(U4-SENSOR_VN-PadJ2-4)*%
X173963000Y-91231000D03*
%TO.P,U4,J2-5,IO34*%
%TO.N,unconnected-(U4-IO34-PadJ2-5)*%
X173963000Y-93771000D03*
%TO.P,U4,J2-6,IO35*%
%TO.N,unconnected-(U4-IO35-PadJ2-6)*%
X173963000Y-96311000D03*
%TO.P,U4,J2-7,IO32*%
%TO.N,unconnected-(U4-IO32-PadJ2-7)*%
X173963000Y-98851000D03*
%TO.P,U4,J2-8,IO33*%
%TO.N,unconnected-(U4-IO33-PadJ2-8)*%
X173963000Y-101391000D03*
%TO.P,U4,J2-9,IO25*%
%TO.N,unconnected-(U4-IO25-PadJ2-9)*%
X173963000Y-103931000D03*
%TO.P,U4,J2-10,IO26*%
%TO.N,unconnected-(U4-IO26-PadJ2-10)*%
X173963000Y-106471000D03*
%TO.P,U4,J2-11,IO27*%
%TO.N,unconnected-(U4-IO27-PadJ2-11)*%
X173963000Y-109011000D03*
%TO.P,U4,J2-12,IO14*%
%TO.N,unconnected-(U4-IO14-PadJ2-12)*%
X173963000Y-111551000D03*
%TO.P,U4,J2-13,IO12*%
%TO.N,unconnected-(U4-IO12-PadJ2-13)*%
X173963000Y-114091000D03*
%TO.P,U4,J2-14,GND1*%
%TO.N,unconnected-(U4-GND1-PadJ2-14)*%
X173963000Y-116631000D03*
%TO.P,U4,J2-15,IO13*%
%TO.N,unconnected-(U4-IO13-PadJ2-15)*%
X173963000Y-119171000D03*
%TO.P,U4,J2-16,SD2*%
%TO.N,unconnected-(U4-SD2-PadJ2-16)*%
X173963000Y-121711000D03*
%TO.P,U4,J2-17,SD3*%
%TO.N,unconnected-(U4-SD3-PadJ2-17)*%
X173963000Y-124251000D03*
%TO.P,U4,J2-18,CMD*%
%TO.N,unconnected-(U4-CMD-PadJ2-18)*%
X173963000Y-126791000D03*
%TO.P,U4,J2-19,EXT_5V*%
%TO.N,5V*%
X173963000Y-129331000D03*
%TO.P,U4,J3-1,GND3*%
%TO.N,GND*%
X199363000Y-83611000D03*
%TO.P,U4,J3-2,IO23*%
%TO.N,unconnected-(U4-IO23-PadJ3-2)*%
X199363000Y-86151000D03*
%TO.P,U4,J3-3,IO22*%
%TO.N,SRV_10*%
X199363000Y-88691000D03*
%TO.P,U4,J3-4,TXD0*%
%TO.N,LA_TX*%
X199363000Y-91231000D03*
%TO.P,U4,J3-5,RXD0*%
%TO.N,LA_RX*%
X199363000Y-93771000D03*
%TO.P,U4,J3-6,IO21*%
%TO.N,SRV_9*%
X199363000Y-96311000D03*
%TO.P,U4,J3-7,GND2*%
%TO.N,unconnected-(U4-GND2-PadJ3-7)*%
X199363000Y-98851000D03*
%TO.P,U4,J3-8,IO19*%
%TO.N,SRV_8*%
X199363000Y-101391000D03*
%TO.P,U4,J3-9,IO18*%
%TO.N,SRV_7*%
X199363000Y-103931000D03*
%TO.P,U4,J3-10,IO5*%
%TO.N,unconnected-(U4-IO5-PadJ3-10)*%
X199363000Y-106471000D03*
%TO.P,U4,J3-11,IO17*%
%TO.N,SRV_6*%
X199363000Y-109011000D03*
%TO.P,U4,J3-12,IO16*%
%TO.N,SRV_5*%
X199363000Y-111551000D03*
%TO.P,U4,J3-13,IO4*%
%TO.N,unconnected-(U4-IO4-PadJ3-13)*%
X199363000Y-114091000D03*
%TO.P,U4,J3-14,IO0*%
%TO.N,unconnected-(U4-IO0-PadJ3-14)*%
X199363000Y-116631000D03*
%TO.P,U4,J3-15,IO2*%
%TO.N,unconnected-(U4-IO2-PadJ3-15)*%
X199363000Y-119171000D03*
%TO.P,U4,J3-16,IO15*%
%TO.N,unconnected-(U4-IO15-PadJ3-16)*%
X199363000Y-121711000D03*
%TO.P,U4,J3-17,SD1*%
%TO.N,unconnected-(U4-SD1-PadJ3-17)*%
X199363000Y-124251000D03*
%TO.P,U4,J3-18,SD0*%
%TO.N,unconnected-(U4-SD0-PadJ3-18)*%
X199363000Y-126791000D03*
%TO.P,U4,J3-19,CLK*%
%TO.N,unconnected-(U4-CLK-PadJ3-19)*%
X199363000Y-129331000D03*
%TD*%
D14*
%TO.P,U3,J2-1,3V3*%
%TO.N,unconnected-(U3-3V3-PadJ2-1)*%
X143938000Y-83611000D03*
D15*
%TO.P,U3,J2-2,EN*%
%TO.N,unconnected-(U3-EN-PadJ2-2)*%
X143938000Y-86151000D03*
%TO.P,U3,J2-3,SENSOR_VP*%
%TO.N,unconnected-(U3-SENSOR_VP-PadJ2-3)*%
X143938000Y-88691000D03*
%TO.P,U3,J2-4,SENSOR_VN*%
%TO.N,unconnected-(U3-SENSOR_VN-PadJ2-4)*%
X143938000Y-91231000D03*
%TO.P,U3,J2-5,IO34*%
%TO.N,unconnected-(U3-IO34-PadJ2-5)*%
X143938000Y-93771000D03*
%TO.P,U3,J2-6,IO35*%
%TO.N,unconnected-(U3-IO35-PadJ2-6)*%
X143938000Y-96311000D03*
%TO.P,U3,J2-7,IO32*%
%TO.N,unconnected-(U3-IO32-PadJ2-7)*%
X143938000Y-98851000D03*
%TO.P,U3,J2-8,IO33*%
%TO.N,unconnected-(U3-IO33-PadJ2-8)*%
X143938000Y-101391000D03*
%TO.P,U3,J2-9,IO25*%
%TO.N,unconnected-(U3-IO25-PadJ2-9)*%
X143938000Y-103931000D03*
%TO.P,U3,J2-10,IO26*%
%TO.N,unconnected-(U3-IO26-PadJ2-10)*%
X143938000Y-106471000D03*
%TO.P,U3,J2-11,IO27*%
%TO.N,unconnected-(U3-IO27-PadJ2-11)*%
X143938000Y-109011000D03*
%TO.P,U3,J2-12,IO14*%
%TO.N,unconnected-(U3-IO14-PadJ2-12)*%
X143938000Y-111551000D03*
%TO.P,U3,J2-13,IO12*%
%TO.N,unconnected-(U3-IO12-PadJ2-13)*%
X143938000Y-114091000D03*
%TO.P,U3,J2-14,GND1*%
%TO.N,unconnected-(U3-GND1-PadJ2-14)*%
X143938000Y-116631000D03*
%TO.P,U3,J2-15,IO13*%
%TO.N,unconnected-(U3-IO13-PadJ2-15)*%
X143938000Y-119171000D03*
%TO.P,U3,J2-16,SD2*%
%TO.N,unconnected-(U3-SD2-PadJ2-16)*%
X143938000Y-121711000D03*
%TO.P,U3,J2-17,SD3*%
%TO.N,unconnected-(U3-SD3-PadJ2-17)*%
X143938000Y-124251000D03*
%TO.P,U3,J2-18,CMD*%
%TO.N,unconnected-(U3-CMD-PadJ2-18)*%
X143938000Y-126791000D03*
%TO.P,U3,J2-19,EXT_5V*%
%TO.N,5V*%
X143938000Y-129331000D03*
%TO.P,U3,J3-1,GND3*%
%TO.N,GND*%
X169338000Y-83611000D03*
%TO.P,U3,J3-2,IO23*%
%TO.N,unconnected-(U3-IO23-PadJ3-2)*%
X169338000Y-86151000D03*
%TO.P,U3,J3-3,IO22*%
%TO.N,SRV_22*%
X169338000Y-88691000D03*
%TO.P,U3,J3-4,TXD0*%
%TO.N,T_TX*%
X169338000Y-91231000D03*
%TO.P,U3,J3-5,RXD0*%
%TO.N,T_RX*%
X169338000Y-93771000D03*
%TO.P,U3,J3-6,IO21*%
%TO.N,SRV_21*%
X169338000Y-96311000D03*
%TO.P,U3,J3-7,GND2*%
%TO.N,unconnected-(U3-GND2-PadJ3-7)*%
X169338000Y-98851000D03*
%TO.P,U3,J3-8,IO19*%
%TO.N,SRV_20*%
X169338000Y-101391000D03*
%TO.P,U3,J3-9,IO18*%
%TO.N,SRV_19*%
X169338000Y-103931000D03*
%TO.P,U3,J3-10,IO5*%
%TO.N,unconnected-(U3-IO5-PadJ3-10)*%
X169338000Y-106471000D03*
%TO.P,U3,J3-11,IO17*%
%TO.N,SRV_18*%
X169338000Y-109011000D03*
%TO.P,U3,J3-12,IO16*%
%TO.N,SRV_17*%
X169338000Y-111551000D03*
%TO.P,U3,J3-13,IO4*%
%TO.N,unconnected-(U3-IO4-PadJ3-13)*%
X169338000Y-114091000D03*
%TO.P,U3,J3-14,IO0*%
%TO.N,unconnected-(U3-IO0-PadJ3-14)*%
X169338000Y-116631000D03*
%TO.P,U3,J3-15,IO2*%
%TO.N,unconnected-(U3-IO2-PadJ3-15)*%
X169338000Y-119171000D03*
%TO.P,U3,J3-16,IO15*%
%TO.N,unconnected-(U3-IO15-PadJ3-16)*%
X169338000Y-121711000D03*
%TO.P,U3,J3-17,SD1*%
%TO.N,unconnected-(U3-SD1-PadJ3-17)*%
X169338000Y-124251000D03*
%TO.P,U3,J3-18,SD0*%
%TO.N,unconnected-(U3-SD0-PadJ3-18)*%
X169338000Y-126791000D03*
%TO.P,U3,J3-19,CLK*%
%TO.N,unconnected-(U3-CLK-PadJ3-19)*%
X169338000Y-129331000D03*
%TD*%
D14*
%TO.P,U2,J2-1,3V3*%
%TO.N,unconnected-(U2-3V3-PadJ2-1)*%
X113913000Y-83611000D03*
D15*
%TO.P,U2,J2-2,EN*%
%TO.N,unconnected-(U2-EN-PadJ2-2)*%
X113913000Y-86151000D03*
%TO.P,U2,J2-3,SENSOR_VP*%
%TO.N,unconnected-(U2-SENSOR_VP-PadJ2-3)*%
X113913000Y-88691000D03*
%TO.P,U2,J2-4,SENSOR_VN*%
%TO.N,unconnected-(U2-SENSOR_VN-PadJ2-4)*%
X113913000Y-91231000D03*
%TO.P,U2,J2-5,IO34*%
%TO.N,unconnected-(U2-IO34-PadJ2-5)*%
X113913000Y-93771000D03*
%TO.P,U2,J2-6,IO35*%
%TO.N,unconnected-(U2-IO35-PadJ2-6)*%
X113913000Y-96311000D03*
%TO.P,U2,J2-7,IO32*%
%TO.N,unconnected-(U2-IO32-PadJ2-7)*%
X113913000Y-98851000D03*
%TO.P,U2,J2-8,IO33*%
%TO.N,unconnected-(U2-IO33-PadJ2-8)*%
X113913000Y-101391000D03*
%TO.P,U2,J2-9,IO25*%
%TO.N,unconnected-(U2-IO25-PadJ2-9)*%
X113913000Y-103931000D03*
%TO.P,U2,J2-10,IO26*%
%TO.N,MISC_1*%
X113913000Y-106471000D03*
%TO.P,U2,J2-11,IO27*%
%TO.N,MISC_2*%
X113913000Y-109011000D03*
%TO.P,U2,J2-12,IO14*%
%TO.N,unconnected-(U2-IO14-PadJ2-12)*%
X113913000Y-111551000D03*
%TO.P,U2,J2-13,IO12*%
%TO.N,unconnected-(U2-IO12-PadJ2-13)*%
X113913000Y-114091000D03*
%TO.P,U2,J2-14,GND1*%
%TO.N,unconnected-(U2-GND1-PadJ2-14)*%
X113913000Y-116631000D03*
%TO.P,U2,J2-15,IO13*%
%TO.N,unconnected-(U2-IO13-PadJ2-15)*%
X113913000Y-119171000D03*
%TO.P,U2,J2-16,SD2*%
%TO.N,unconnected-(U2-SD2-PadJ2-16)*%
X113913000Y-121711000D03*
%TO.P,U2,J2-17,SD3*%
%TO.N,unconnected-(U2-SD3-PadJ2-17)*%
X113913000Y-124251000D03*
%TO.P,U2,J2-18,CMD*%
%TO.N,unconnected-(U2-CMD-PadJ2-18)*%
X113913000Y-126791000D03*
%TO.P,U2,J2-19,EXT_5V*%
%TO.N,5V*%
X113913000Y-129331000D03*
%TO.P,U2,J3-1,GND3*%
%TO.N,GND*%
X139313000Y-83611000D03*
%TO.P,U2,J3-2,IO23*%
%TO.N,unconnected-(U2-IO23-PadJ3-2)*%
X139313000Y-86151000D03*
%TO.P,U2,J3-3,IO22*%
%TO.N,SPR_2*%
X139313000Y-88691000D03*
%TO.P,U2,J3-4,TXD0*%
%TO.N,H_TX*%
X139313000Y-91231000D03*
%TO.P,U2,J3-5,RXD0*%
%TO.N,H_RX*%
X139313000Y-93771000D03*
%TO.P,U2,J3-6,IO21*%
%TO.N,SPR_1*%
X139313000Y-96311000D03*
%TO.P,U2,J3-7,GND2*%
%TO.N,unconnected-(U2-GND2-PadJ3-7)*%
X139313000Y-98851000D03*
%TO.P,U2,J3-8,IO19*%
%TO.N,SRV_4*%
X139313000Y-101391000D03*
%TO.P,U2,J3-9,IO18*%
%TO.N,SRV_3*%
X139313000Y-103931000D03*
%TO.P,U2,J3-10,IO5*%
%TO.N,unconnected-(U2-IO5-PadJ3-10)*%
X139313000Y-106471000D03*
%TO.P,U2,J3-11,IO17*%
%TO.N,SRV_2*%
X139313000Y-109011000D03*
%TO.P,U2,J3-12,IO16*%
%TO.N,SRV_1*%
X139313000Y-111551000D03*
%TO.P,U2,J3-13,IO4*%
%TO.N,unconnected-(U2-IO4-PadJ3-13)*%
X139313000Y-114091000D03*
%TO.P,U2,J3-14,IO0*%
%TO.N,unconnected-(U2-IO0-PadJ3-14)*%
X139313000Y-116631000D03*
%TO.P,U2,J3-15,IO2*%
%TO.N,unconnected-(U2-IO2-PadJ3-15)*%
X139313000Y-119171000D03*
%TO.P,U2,J3-16,IO15*%
%TO.N,unconnected-(U2-IO15-PadJ3-16)*%
X139313000Y-121711000D03*
%TO.P,U2,J3-17,SD1*%
%TO.N,unconnected-(U2-SD1-PadJ3-17)*%
X139313000Y-124251000D03*
%TO.P,U2,J3-18,SD0*%
%TO.N,unconnected-(U2-SD0-PadJ3-18)*%
X139313000Y-126791000D03*
%TO.P,U2,J3-19,CLK*%
%TO.N,unconnected-(U2-CLK-PadJ3-19)*%
X139313000Y-129331000D03*
%TD*%
D14*
%TO.P,U1,J2-1,3V3*%
%TO.N,unconnected-(U1-3V3-PadJ2-1)*%
X83888000Y-83611000D03*
D15*
%TO.P,U1,J2-2,EN*%
%TO.N,unconnected-(U1-EN-PadJ2-2)*%
X83888000Y-86151000D03*
%TO.P,U1,J2-3,SENSOR_VP*%
%TO.N,unconnected-(U1-SENSOR_VP-PadJ2-3)*%
X83888000Y-88691000D03*
%TO.P,U1,J2-4,SENSOR_VN*%
%TO.N,unconnected-(U1-SENSOR_VN-PadJ2-4)*%
X83888000Y-91231000D03*
%TO.P,U1,J2-5,IO34*%
%TO.N,unconnected-(U1-IO34-PadJ2-5)*%
X83888000Y-93771000D03*
%TO.P,U1,J2-6,IO35*%
%TO.N,unconnected-(U1-IO35-PadJ2-6)*%
X83888000Y-96311000D03*
%TO.P,U1,J2-7,IO32*%
%TO.N,unconnected-(U1-IO32-PadJ2-7)*%
X83888000Y-98851000D03*
%TO.P,U1,J2-8,IO33*%
%TO.N,unconnected-(U1-IO33-PadJ2-8)*%
X83888000Y-101391000D03*
%TO.P,U1,J2-9,IO25*%
%TO.N,unconnected-(U1-IO25-PadJ2-9)*%
X83888000Y-103931000D03*
%TO.P,U1,J2-10,IO26*%
%TO.N,unconnected-(U1-IO26-PadJ2-10)*%
X83888000Y-106471000D03*
%TO.P,U1,J2-11,IO27*%
%TO.N,unconnected-(U1-IO27-PadJ2-11)*%
X83888000Y-109011000D03*
%TO.P,U1,J2-12,IO14*%
%TO.N,unconnected-(U1-IO14-PadJ2-12)*%
X83888000Y-111551000D03*
%TO.P,U1,J2-13,IO12*%
%TO.N,unconnected-(U1-IO12-PadJ2-13)*%
X83888000Y-114091000D03*
%TO.P,U1,J2-14,GND1*%
%TO.N,unconnected-(U1-GND1-PadJ2-14)*%
X83888000Y-116631000D03*
%TO.P,U1,J2-15,IO13*%
%TO.N,unconnected-(U1-IO13-PadJ2-15)*%
X83888000Y-119171000D03*
%TO.P,U1,J2-16,SD2*%
%TO.N,unconnected-(U1-SD2-PadJ2-16)*%
X83888000Y-121711000D03*
%TO.P,U1,J2-17,SD3*%
%TO.N,unconnected-(U1-SD3-PadJ2-17)*%
X83888000Y-124251000D03*
%TO.P,U1,J2-18,CMD*%
%TO.N,unconnected-(U1-CMD-PadJ2-18)*%
X83888000Y-126791000D03*
%TO.P,U1,J2-19,EXT_5V*%
%TO.N,5V*%
X83888000Y-129331000D03*
%TO.P,U1,J3-1,GND3*%
%TO.N,GND*%
X109288000Y-83611000D03*
%TO.P,U1,J3-2,IO23*%
%TO.N,unconnected-(U1-IO23-PadJ3-2)*%
X109288000Y-86151000D03*
%TO.P,U1,J3-3,IO22*%
%TO.N,SRV_16*%
X109288000Y-88691000D03*
%TO.P,U1,J3-4,TXD0*%
%TO.N,RA_TX*%
X109288000Y-91231000D03*
%TO.P,U1,J3-5,RXD0*%
%TO.N,RA_RX*%
X109288000Y-93771000D03*
%TO.P,U1,J3-6,IO21*%
%TO.N,SRV_15*%
X109288000Y-96311000D03*
%TO.P,U1,J3-7,GND2*%
%TO.N,unconnected-(U1-GND2-PadJ3-7)*%
X109288000Y-98851000D03*
%TO.P,U1,J3-8,IO19*%
%TO.N,SRV_14*%
X109288000Y-101391000D03*
%TO.P,U1,J3-9,IO18*%
%TO.N,SRV_13*%
X109288000Y-103931000D03*
%TO.P,U1,J3-10,IO5*%
%TO.N,unconnected-(U1-IO5-PadJ3-10)*%
X109288000Y-106471000D03*
%TO.P,U1,J3-11,IO17*%
%TO.N,SRV_12*%
X109288000Y-109011000D03*
%TO.P,U1,J3-12,IO16*%
%TO.N,SRV_11*%
X109288000Y-111551000D03*
%TO.P,U1,J3-13,IO4*%
%TO.N,unconnected-(U1-IO4-PadJ3-13)*%
X109288000Y-114091000D03*
%TO.P,U1,J3-14,IO0*%
%TO.N,unconnected-(U1-IO0-PadJ3-14)*%
X109288000Y-116631000D03*
%TO.P,U1,J3-15,IO2*%
%TO.N,unconnected-(U1-IO2-PadJ3-15)*%
X109288000Y-119171000D03*
%TO.P,U1,J3-16,IO15*%
%TO.N,unconnected-(U1-IO15-PadJ3-16)*%
X109288000Y-121711000D03*
%TO.P,U1,J3-17,SD1*%
%TO.N,unconnected-(U1-SD1-PadJ3-17)*%
X109288000Y-124251000D03*
%TO.P,U1,J3-18,SD0*%
%TO.N,unconnected-(U1-SD0-PadJ3-18)*%
X109288000Y-126791000D03*
%TO.P,U1,J3-19,CLK*%
%TO.N,unconnected-(U1-CLK-PadJ3-19)*%
X109288000Y-129331000D03*
%TD*%
D10*
%TO.P,J3,3,Pin_3*%
%TO.N,SRV_3*%
X134300853Y-62179000D03*
%TO.P,J3,2,Pin_2*%
%TO.N,SVR_PWR*%
X134300853Y-59639000D03*
D11*
%TO.P,J3,1,Pin_1*%
%TO.N,GND*%
X134300853Y-57099000D03*
%TD*%
%TA.AperFunction,Conductor*%
%TO.N,5V*%
G36*
X217366051Y-95777685D02*
G01*
X217411806Y-95830489D01*
X217423008Y-95882984D01*
X217170976Y-127638984D01*
X217150760Y-127705865D01*
X217097595Y-127751200D01*
X217046980Y-127762000D01*
X211582000Y-127762000D01*
X211582000Y-133226483D01*
X211562315Y-133293522D01*
X211509511Y-133339277D01*
X211458484Y-133350482D01*
X81658484Y-133857513D01*
X81591369Y-133838091D01*
X81545408Y-133785466D01*
X81534000Y-133733514D01*
X81534000Y-124583744D01*
X81553685Y-124516705D01*
X81606489Y-124470950D01*
X81657742Y-124459744D01*
X82522381Y-124457957D01*
X82589458Y-124477503D01*
X82635322Y-124530213D01*
X82642409Y-124549863D01*
X82680126Y-124690624D01*
X82680127Y-124690626D01*
X82680128Y-124690630D01*
X82774819Y-124893696D01*
X82774821Y-124893700D01*
X82903329Y-125077228D01*
X82903334Y-125077234D01*
X83061765Y-125235665D01*
X83061771Y-125235670D01*
X83245299Y-125364178D01*
X83245301Y-125364179D01*
X83245304Y-125364181D01*
X83340600Y-125408618D01*
X83393039Y-125454790D01*
X83412191Y-125521984D01*
X83391975Y-125588865D01*
X83340600Y-125633382D01*
X83245306Y-125677818D01*
X83245304Y-125677819D01*
X83061764Y-125806334D01*
X82903334Y-125964764D01*
X82774819Y-126148304D01*
X82774818Y-126148306D01*
X82680129Y-126351368D01*
X82680126Y-126351374D01*
X82622137Y-126567791D01*
X82622136Y-126567799D01*
X82602609Y-126790998D01*
X82602609Y-126791001D01*
X82622136Y-127014200D01*
X82622137Y-127014208D01*
X82680126Y-127230625D01*
X82680127Y-127230627D01*
X82680128Y-127230630D01*
X82774819Y-127433696D01*
X82774821Y-127433700D01*
X82903329Y-127617228D01*
X82903334Y-127617234D01*
X83061765Y-127775665D01*
X83061771Y-127775670D01*
X83245299Y-127904178D01*
X83245301Y-127904179D01*
X83245304Y-127904181D01*
X83341190Y-127948893D01*
X83393630Y-127995065D01*
X83412782Y-128062258D01*
X83392567Y-128129139D01*
X83341192Y-128173657D01*
X83245554Y-128218254D01*
X83176887Y-128266334D01*
X83742260Y-128831707D01*
X83687288Y-128846437D01*
X83568713Y-128914896D01*
X83471896Y-129011713D01*
X83403437Y-129130288D01*
X83388707Y-129185260D01*
X82823334Y-128619887D01*
X82775253Y-128688556D01*
X82680600Y-128891540D01*
X82680596Y-128891549D01*
X82622632Y-129107875D01*
X82622630Y-129107886D01*
X82603111Y-129330997D01*
X82603111Y-129331002D01*
X82622630Y-129554113D01*
X82622632Y-129554124D01*
X82680596Y-129770450D01*
X82680600Y-129770459D01*
X82775252Y-129973443D01*
X82775253Y-129973445D01*
X82823334Y-130042112D01*
X83388707Y-129476739D01*
X83403437Y-129531712D01*
X83471896Y-129650287D01*
X83568713Y-129747104D01*
X83687288Y-129815563D01*
X83742259Y-129830292D01*
X83176886Y-130395664D01*
X83245555Y-130443746D01*
X83448540Y-130538399D01*
X83448549Y-130538403D01*
X83664875Y-130596367D01*
X83664886Y-130596369D01*
X83887998Y-130615889D01*
X83888002Y-130615889D01*
X84111113Y-130596369D01*
X84111124Y-130596367D01*
X84327450Y-130538403D01*
X84327459Y-130538399D01*
X84530445Y-130443746D01*
X84530451Y-130443742D01*
X84599112Y-130395665D01*
X84033739Y-129830292D01*
X84088712Y-129815563D01*
X84207287Y-129747104D01*
X84304104Y-129650287D01*
X84372563Y-129531712D01*
X84387292Y-129476739D01*
X84952665Y-130042112D01*
X85000742Y-129973451D01*
X85000746Y-129973445D01*
X85095399Y-129770459D01*
X85095403Y-129770450D01*
X85153367Y-129554124D01*
X85153369Y-129554113D01*
X85172889Y-129331002D01*
X85172889Y-129330997D01*
X85153369Y-129107886D01*
X85153367Y-129107875D01*
X85095403Y-128891549D01*
X85095399Y-128891540D01*
X85000747Y-128688557D01*
X85000746Y-128688555D01*
X84952664Y-128619887D01*
X84952664Y-128619886D01*
X84387292Y-129185259D01*
X84372563Y-129130288D01*
X84304104Y-129011713D01*
X84207287Y-128914896D01*
X84088712Y-128846437D01*
X84033740Y-128831707D01*
X84599112Y-128266334D01*
X84599112Y-128266333D01*
X84530445Y-128218253D01*
X84530443Y-128218252D01*
X84434808Y-128173657D01*
X84382369Y-128127485D01*
X84363217Y-128060291D01*
X84383433Y-127993410D01*
X84434804Y-127948895D01*
X84530696Y-127904181D01*
X84714233Y-127775667D01*
X84872667Y-127617233D01*
X85001181Y-127433696D01*
X85095872Y-127230630D01*
X85153863Y-127014206D01*
X85173391Y-126791000D01*
X85153863Y-126567794D01*
X85095872Y-126351370D01*
X85001181Y-126148305D01*
X84872667Y-125964767D01*
X84714233Y-125806333D01*
X84714229Y-125806330D01*
X84714228Y-125806329D01*
X84530700Y-125677821D01*
X84530692Y-125677817D01*
X84435400Y-125633382D01*
X84382960Y-125587210D01*
X84363808Y-125520017D01*
X84384023Y-125453135D01*
X84435400Y-125408618D01*
X84530696Y-125364181D01*
X84714233Y-125235667D01*
X84872667Y-125077233D01*
X85001181Y-124893696D01*
X85095872Y-124690630D01*
X85135103Y-124544216D01*
X85171467Y-124484559D01*
X85234313Y-124454029D01*
X85254611Y-124452312D01*
X107908329Y-124405507D01*
X107975404Y-124425052D01*
X108021268Y-124477762D01*
X108028355Y-124497412D01*
X108080126Y-124690625D01*
X108080127Y-124690627D01*
X108080128Y-124690630D01*
X108174819Y-124893696D01*
X108174821Y-124893700D01*
X108303329Y-125077228D01*
X108303334Y-125077234D01*
X108461765Y-125235665D01*
X108461771Y-125235670D01*
X108645299Y-125364178D01*
X108645301Y-125364179D01*
X108645304Y-125364181D01*
X108740600Y-125408618D01*
X108793039Y-125454790D01*
X108812191Y-125521984D01*
X108791975Y-125588865D01*
X108740600Y-125633382D01*
X108645306Y-125677818D01*
X108645304Y-125677819D01*
X108461764Y-125806334D01*
X108303334Y-125964764D01*
X108174819Y-126148304D01*
X108174818Y-126148306D01*
X108080129Y-126351368D01*
X108080126Y-126351374D01*
X108022137Y-126567791D01*
X108022136Y-126567799D01*
X108002609Y-126790998D01*
X108002609Y-126791001D01*
X108022136Y-127014200D01*
X108022137Y-127014208D01*
X108080126Y-127230625D01*
X108080127Y-127230627D01*
X108080128Y-127230630D01*
X108174819Y-127433696D01*
X108174821Y-127433700D01*
X108303329Y-127617228D01*
X108303334Y-127617234D01*
X108461765Y-127775665D01*
X108461771Y-127775670D01*
X108645299Y-127904178D01*
X108645301Y-127904179D01*
X108645304Y-127904181D01*
X108740600Y-127948618D01*
X108793039Y-127994790D01*
X108812191Y-128061984D01*
X108791975Y-128128865D01*
X108740600Y-128173382D01*
X108645306Y-128217818D01*
X108645304Y-128217819D01*
X108461764Y-128346334D01*
X108303334Y-128504764D01*
X108174819Y-128688304D01*
X108174818Y-128688306D01*
X108080129Y-128891368D01*
X108080126Y-128891374D01*
X108022137Y-129107791D01*
X108022136Y-129107799D01*
X108002609Y-129330998D01*
X108002609Y-129331001D01*
X108022136Y-129554200D01*
X108022137Y-129554208D01*
X108080126Y-129770625D01*
X108080127Y-129770627D01*
X108080128Y-129770630D01*
X108101081Y-129815563D01*
X108174819Y-129973696D01*
X108174821Y-129973700D01*
X108303329Y-130157228D01*
X108303334Y-130157234D01*
X108461765Y-130315665D01*
X108461771Y-130315670D01*
X108645299Y-130444178D01*
X108645301Y-130444179D01*
X108645304Y-130444181D01*
X108848370Y-130538872D01*
X109064794Y-130596863D01*
X109224226Y-130610811D01*
X109287998Y-130616391D01*
X109288000Y-130616391D01*
X109288002Y-130616391D01*
X109343801Y-130611509D01*
X109511206Y-130596863D01*
X109727630Y-130538872D01*
X109930696Y-130444181D01*
X110114233Y-130315667D01*
X110272667Y-130157233D01*
X110401181Y-129973696D01*
X110495872Y-129770630D01*
X110553863Y-129554206D01*
X110573391Y-129331000D01*
X110553863Y-129107794D01*
X110495872Y-128891370D01*
X110401181Y-128688305D01*
X110272667Y-128504767D01*
X110114233Y-128346333D01*
X110114229Y-128346330D01*
X110114228Y-128346329D01*
X109930700Y-128217821D01*
X109930692Y-128217817D01*
X109835400Y-128173382D01*
X109782960Y-128127210D01*
X109763808Y-128060017D01*
X109784023Y-127993135D01*
X109835400Y-127948618D01*
X109930696Y-127904181D01*
X110114233Y-127775667D01*
X110272667Y-127617233D01*
X110401181Y-127433696D01*
X110495872Y-127230630D01*
X110553863Y-127014206D01*
X110573391Y-126791000D01*
X110553863Y-126567794D01*
X110495872Y-126351370D01*
X110401181Y-126148305D01*
X110272667Y-125964767D01*
X110114233Y-125806333D01*
X110114229Y-125806330D01*
X110114228Y-125806329D01*
X109930700Y-125677821D01*
X109930692Y-125677817D01*
X109835400Y-125633382D01*
X109782960Y-125587210D01*
X109763808Y-125520017D01*
X109784023Y-125453135D01*
X109835400Y-125408618D01*
X109930696Y-125364181D01*
X110114233Y-125235667D01*
X110272667Y-125077233D01*
X110401181Y-124893696D01*
X110495872Y-124690630D01*
X110549172Y-124491709D01*
X110585537Y-124432050D01*
X110648384Y-124401521D01*
X110668686Y-124399804D01*
X112530768Y-124395957D01*
X112597845Y-124415502D01*
X112643709Y-124468212D01*
X112650796Y-124487862D01*
X112705126Y-124690624D01*
X112705127Y-124690626D01*
X112705128Y-124690630D01*
X112799819Y-124893696D01*
X112799821Y-124893700D01*
X112928329Y-125077228D01*
X112928334Y-125077234D01*
X113086765Y-125235665D01*
X113086771Y-125235670D01*
X113270299Y-125364178D01*
X113270301Y-125364179D01*
X113270304Y-125364181D01*
X113365600Y-125408618D01*
X113418039Y-125454790D01*
X113437191Y-125521984D01*
X113416975Y-125588865D01*
X113365600Y-125633382D01*
X113270306Y-125677818D01*
X113270304Y-125677819D01*
X113086764Y-125806334D01*
X112928334Y-125964764D01*
X112799819Y-126148304D01*
X112799818Y-126148306D01*
X112705129Y-126351368D01*
X112705126Y-126351374D01*
X112647137Y-126567791D01*
X112647136Y-126567799D01*
X112627609Y-126790998D01*
X112627609Y-126791001D01*
X112647136Y-127014200D01*
X112647137Y-127014208D01*
X112705126Y-127230625D01*
X112705127Y-127230627D01*
X112705128Y-127230630D01*
X112799819Y-127433696D01*
X112799821Y-127433700D01*
X112928329Y-127617228D01*
X112928334Y-127617234D01*
X113086765Y-127775665D01*
X113086771Y-127775670D01*
X113270299Y-127904178D01*
X113270301Y-127904179D01*
X113270304Y-127904181D01*
X113366190Y-127948893D01*
X113418630Y-127995065D01*
X113437782Y-128062258D01*
X113417567Y-128129139D01*
X113366192Y-128173657D01*
X113270554Y-128218254D01*
X113201887Y-128266334D01*
X113767260Y-128831707D01*
X113712288Y-128846437D01*
X113593713Y-128914896D01*
X113496896Y-129011713D01*
X113428437Y-129130288D01*
X113413707Y-129185260D01*
X112848334Y-128619887D01*
X112800253Y-128688556D01*
X112705600Y-128891540D01*
X112705596Y-128891549D01*
X112647632Y-129107875D01*
X112647630Y-129107886D01*
X112628111Y-129330997D01*
X112628111Y-129331002D01*
X112647630Y-129554113D01*
X112647632Y-129554124D01*
X112705596Y-129770450D01*
X112705600Y-129770459D01*
X112800252Y-129973443D01*
X112800253Y-129973445D01*
X112848334Y-130042112D01*
X113413707Y-129476739D01*
X113428437Y-129531712D01*
X113496896Y-129650287D01*
X113593713Y-129747104D01*
X113712288Y-129815563D01*
X113767259Y-129830292D01*
X113201886Y-130395664D01*
X113270555Y-130443746D01*
X113473540Y-130538399D01*
X113473549Y-130538403D01*
X113689875Y-130596367D01*
X113689886Y-130596369D01*
X113912998Y-130615889D01*
X113913002Y-130615889D01*
X114136113Y-130596369D01*
X114136124Y-130596367D01*
X114352450Y-130538403D01*
X114352459Y-130538399D01*
X114555445Y-130443746D01*
X114555451Y-130443742D01*
X114624112Y-130395665D01*
X114058739Y-129830292D01*
X114113712Y-129815563D01*
X114232287Y-129747104D01*
X114329104Y-129650287D01*
X114397563Y-129531712D01*
X114412292Y-129476739D01*
X114977665Y-130042112D01*
X115025742Y-129973451D01*
X115025746Y-129973445D01*
X115120399Y-129770459D01*
X115120403Y-129770450D01*
X115178367Y-129554124D01*
X115178369Y-129554113D01*
X115197889Y-129331002D01*
X115197889Y-129330997D01*
X115178369Y-129107886D01*
X115178367Y-129107875D01*
X115120403Y-128891549D01*
X115120399Y-128891540D01*
X115025747Y-128688557D01*
X115025746Y-128688555D01*
X114977664Y-128619887D01*
X114977664Y-128619886D01*
X114412292Y-129185259D01*
X114397563Y-129130288D01*
X114329104Y-129011713D01*
X114232287Y-128914896D01*
X114113712Y-128846437D01*
X114058740Y-128831707D01*
X114624112Y-128266334D01*
X114624112Y-128266333D01*
X114555445Y-128218253D01*
X114555443Y-128218252D01*
X114459808Y-128173657D01*
X114407369Y-128127485D01*
X114388217Y-128060291D01*
X114408433Y-127993410D01*
X114459804Y-127948895D01*
X114555696Y-127904181D01*
X114739233Y-127775667D01*
X114897667Y-127617233D01*
X115026181Y-127433696D01*
X115120872Y-127230630D01*
X115178863Y-127014206D01*
X115198391Y-126791000D01*
X115178863Y-126567794D01*
X115120872Y-126351370D01*
X115026181Y-126148305D01*
X114897667Y-125964767D01*
X114739233Y-125806333D01*
X114739229Y-125806330D01*
X114739228Y-125806329D01*
X114555700Y-125677821D01*
X114555692Y-125677817D01*
X114460400Y-125633382D01*
X114407960Y-125587210D01*
X114388808Y-125520017D01*
X114409023Y-125453135D01*
X114460400Y-125408618D01*
X114555696Y-125364181D01*
X114739233Y-125235667D01*
X114897667Y-125077233D01*
X115026181Y-124893696D01*
X115120872Y-124690630D01*
X115176735Y-124482147D01*
X115213099Y-124422488D01*
X115275946Y-124391959D01*
X115296237Y-124390243D01*
X137921824Y-124343496D01*
X137988900Y-124363041D01*
X138034764Y-124415751D01*
X138045604Y-124456685D01*
X138047136Y-124474202D01*
X138047137Y-124474208D01*
X138105126Y-124690625D01*
X138105127Y-124690627D01*
X138105128Y-124690630D01*
X138199819Y-124893696D01*
X138199821Y-124893700D01*
X138328329Y-125077228D01*
X138328334Y-125077234D01*
X138486765Y-125235665D01*
X138486771Y-125235670D01*
X138670299Y-125364178D01*
X138670301Y-125364179D01*
X138670304Y-125364181D01*
X138765600Y-125408618D01*
X138818039Y-125454790D01*
X138837191Y-125521984D01*
X138816975Y-125588865D01*
X138765600Y-125633382D01*
X138670306Y-125677818D01*
X138670304Y-125677819D01*
X138486764Y-125806334D01*
X138328334Y-125964764D01*
X138199819Y-126148304D01*
X138199818Y-126148306D01*
X138105129Y-126351368D01*
X138105126Y-126351374D01*
X138047137Y-126567791D01*
X138047136Y-126567799D01*
X138027609Y-126790998D01*
X138027609Y-126791001D01*
X138047136Y-127014200D01*
X138047137Y-127014208D01*
X138105126Y-127230625D01*
X138105127Y-127230627D01*
X138105128Y-127230630D01*
X138199819Y-127433696D01*
X138199821Y-127433700D01*
X138328329Y-127617228D01*
X138328334Y-127617234D01*
X138486765Y-127775665D01*
X138486771Y-127775670D01*
X138670299Y-127904178D01*
X138670301Y-127904179D01*
X138670304Y-127904181D01*
X138765600Y-127948618D01*
X138818039Y-127994790D01*
X138837191Y-128061984D01*
X138816975Y-128128865D01*
X138765600Y-128173382D01*
X138670306Y-128217818D01*
X138670304Y-128217819D01*
X138486764Y-128346334D01*
X138328334Y-128504764D01*
X138199819Y-128688304D01*
X138199818Y-128688306D01*
X138105129Y-128891368D01*
X138105126Y-128891374D01*
X138047137Y-129107791D01*
X138047136Y-129107799D01*
X138027609Y-129330998D01*
X138027609Y-129331001D01*
X138047136Y-129554200D01*
X138047137Y-129554208D01*
X138105126Y-129770625D01*
X138105127Y-129770627D01*
X138105128Y-129770630D01*
X138126081Y-129815563D01*
X138199819Y-129973696D01*
X138199821Y-129973700D01*
X138328329Y-130157228D01*
X138328334Y-130157234D01*
X138486765Y-130315665D01*
X138486771Y-130315670D01*
X138670299Y-130444178D01*
X138670301Y-130444179D01*
X138670304Y-130444181D01*
X138873370Y-130538872D01*
X139089794Y-130596863D01*
X139249226Y-130610811D01*
X139312998Y-130616391D01*
X139313000Y-130616391D01*
X139313002Y-130616391D01*
X139368801Y-130611509D01*
X139536206Y-130596863D01*
X139752630Y-130538872D01*
X139955696Y-130444181D01*
X140139233Y-130315667D01*
X140297667Y-130157233D01*
X140426181Y-129973696D01*
X140520872Y-129770630D01*
X140578863Y-129554206D01*
X140598391Y-129331000D01*
X140578863Y-129107794D01*
X140520872Y-128891370D01*
X140426181Y-128688305D01*
X140297667Y-128504767D01*
X140139233Y-128346333D01*
X140139229Y-128346330D01*
X140139228Y-128346329D01*
X139955700Y-128217821D01*
X139955692Y-128217817D01*
X139860400Y-128173382D01*
X139807960Y-128127210D01*
X139788808Y-128060017D01*
X139809023Y-127993135D01*
X139860400Y-127948618D01*
X139955696Y-127904181D01*
X140139233Y-127775667D01*
X140297667Y-127617233D01*
X140426181Y-127433696D01*
X140520872Y-127230630D01*
X140578863Y-127014206D01*
X140598391Y-126791000D01*
X140578863Y-126567794D01*
X140520872Y-126351370D01*
X140426181Y-126148305D01*
X140297667Y-125964767D01*
X140139233Y-125806333D01*
X140139229Y-125806330D01*
X140139228Y-125806329D01*
X139955700Y-125677821D01*
X139955692Y-125677817D01*
X139860400Y-125633382D01*
X139807960Y-125587210D01*
X139788808Y-125520017D01*
X139809023Y-125453135D01*
X139860400Y-125408618D01*
X139955696Y-125364181D01*
X140139233Y-125235667D01*
X140297667Y-125077233D01*
X140426181Y-124893696D01*
X140520872Y-124690630D01*
X140578863Y-124474206D01*
X140580898Y-124450939D01*
X140606349Y-124385872D01*
X140662939Y-124344892D01*
X140704160Y-124337747D01*
X142545988Y-124333942D01*
X142613064Y-124353487D01*
X142658928Y-124406197D01*
X142669768Y-124447131D01*
X142672136Y-124474202D01*
X142672137Y-124474208D01*
X142730126Y-124690625D01*
X142730127Y-124690627D01*
X142730128Y-124690630D01*
X142824819Y-124893696D01*
X142824821Y-124893700D01*
X142953329Y-125077228D01*
X142953334Y-125077234D01*
X143111765Y-125235665D01*
X143111771Y-125235670D01*
X143295299Y-125364178D01*
X143295301Y-125364179D01*
X143295304Y-125364181D01*
X143390600Y-125408618D01*
X143443039Y-125454790D01*
X143462191Y-125521984D01*
X143441975Y-125588865D01*
X143390600Y-125633382D01*
X143295306Y-125677818D01*
X143295304Y-125677819D01*
X143111764Y-125806334D01*
X142953334Y-125964764D01*
X142824819Y-126148304D01*
X142824818Y-126148306D01*
X142730129Y-126351368D01*
X142730126Y-126351374D01*
X142672137Y-126567791D01*
X142672136Y-126567799D01*
X142652609Y-126790998D01*
X142652609Y-126791001D01*
X142672136Y-127014200D01*
X142672137Y-127014208D01*
X142730126Y-127230625D01*
X142730127Y-127230627D01*
X142730128Y-127230630D01*
X142824819Y-127433696D01*
X142824821Y-127433700D01*
X142953329Y-127617228D01*
X142953334Y-127617234D01*
X143111765Y-127775665D01*
X143111771Y-127775670D01*
X143295299Y-127904178D01*
X143295301Y-127904179D01*
X143295304Y-127904181D01*
X143391190Y-127948893D01*
X143443630Y-127995065D01*
X143462782Y-128062258D01*
X143442567Y-128129139D01*
X143391192Y-128173657D01*
X143295554Y-128218254D01*
X143226887Y-128266334D01*
X143792260Y-128831707D01*
X143737288Y-128846437D01*
X143618713Y-128914896D01*
X143521896Y-129011713D01*
X143453437Y-129130288D01*
X143438707Y-129185260D01*
X142873334Y-128619887D01*
X142825253Y-128688556D01*
X142730600Y-128891540D01*
X142730596Y-128891549D01*
X142672632Y-129107875D01*
X142672630Y-129107886D01*
X142653111Y-129330997D01*
X142653111Y-129331002D01*
X142672630Y-129554113D01*
X142672632Y-129554124D01*
X142730596Y-129770450D01*
X142730600Y-129770459D01*
X142825252Y-129973443D01*
X142825253Y-129973445D01*
X142873334Y-130042112D01*
X143438707Y-129476739D01*
X143453437Y-129531712D01*
X143521896Y-129650287D01*
X143618713Y-129747104D01*
X143737288Y-129815563D01*
X143792259Y-129830292D01*
X143226886Y-130395664D01*
X143295555Y-130443746D01*
X143498540Y-130538399D01*
X143498549Y-130538403D01*
X143714875Y-130596367D01*
X143714886Y-130596369D01*
X143937998Y-130615889D01*
X143938002Y-130615889D01*
X144161113Y-130596369D01*
X144161124Y-130596367D01*
X144377450Y-130538403D01*
X144377459Y-130538399D01*
X144580445Y-130443746D01*
X144580451Y-130443742D01*
X144649112Y-130395665D01*
X144083739Y-129830292D01*
X144138712Y-129815563D01*
X144257287Y-129747104D01*
X144354104Y-129650287D01*
X144422563Y-129531712D01*
X144437292Y-129476739D01*
X145002665Y-130042112D01*
X145050742Y-129973451D01*
X145050746Y-129973445D01*
X145145399Y-129770459D01*
X145145403Y-129770450D01*
X145203367Y-129554124D01*
X145203369Y-129554113D01*
X145222889Y-129331002D01*
X145222889Y-129330997D01*
X145203369Y-129107886D01*
X145203367Y-129107875D01*
X145145403Y-128891549D01*
X145145399Y-128891540D01*
X145050747Y-128688557D01*
X145050746Y-128688555D01*
X145002664Y-128619887D01*
X145002664Y-128619886D01*
X144437292Y-129185259D01*
X144422563Y-129130288D01*
X144354104Y-129011713D01*
X144257287Y-128914896D01*
X144138712Y-128846437D01*
X144083740Y-128831707D01*
X144649112Y-128266334D01*
X144649112Y-128266333D01*
X144580445Y-128218253D01*
X144580443Y-128218252D01*
X144484808Y-128173657D01*
X144432369Y-128127485D01*
X144413217Y-128060291D01*
X144433433Y-127993410D01*
X144484804Y-127948895D01*
X144580696Y-127904181D01*
X144764233Y-127775667D01*
X144922667Y-127617233D01*
X145051181Y-127433696D01*
X145145872Y-127230630D01*
X145203863Y-127014206D01*
X145223391Y-126791000D01*
X145203863Y-126567794D01*
X145145872Y-126351370D01*
X145051181Y-126148305D01*
X144922667Y-125964767D01*
X144764233Y-125806333D01*
X144764229Y-125806330D01*
X144764228Y-125806329D01*
X144580700Y-125677821D01*
X144580692Y-125677817D01*
X144485400Y-125633382D01*
X144432960Y-125587210D01*
X144413808Y-125520017D01*
X144434023Y-125453135D01*
X144485400Y-125408618D01*
X144580696Y-125364181D01*
X144764233Y-125235667D01*
X144922667Y-125077233D01*
X145051181Y-124893696D01*
X145145872Y-124690630D01*
X145203863Y-124474206D01*
X145206734Y-124441382D01*
X145232185Y-124376315D01*
X145288775Y-124335335D01*
X145329999Y-124328190D01*
X167941394Y-124281472D01*
X168008473Y-124301018D01*
X168054337Y-124353728D01*
X168065177Y-124394663D01*
X168072136Y-124474201D01*
X168072137Y-124474208D01*
X168130126Y-124690625D01*
X168130127Y-124690627D01*
X168130128Y-124690630D01*
X168224819Y-124893696D01*
X168224821Y-124893700D01*
X168353329Y-125077228D01*
X168353334Y-125077234D01*
X168511765Y-125235665D01*
X168511771Y-125235670D01*
X168695299Y-125364178D01*
X168695301Y-125364179D01*
X168695304Y-125364181D01*
X168790600Y-125408618D01*
X168843039Y-125454790D01*
X168862191Y-125521984D01*
X168841975Y-125588865D01*
X168790600Y-125633382D01*
X168695306Y-125677818D01*
X168695304Y-125677819D01*
X168511764Y-125806334D01*
X168353334Y-125964764D01*
X168224819Y-126148304D01*
X168224818Y-126148306D01*
X168130129Y-126351368D01*
X168130126Y-126351374D01*
X168072137Y-126567791D01*
X168072136Y-126567799D01*
X168052609Y-126790998D01*
X168052609Y-126791001D01*
X168072136Y-127014200D01*
X168072137Y-127014208D01*
X168130126Y-127230625D01*
X168130127Y-127230627D01*
X168130128Y-127230630D01*
X168224819Y-127433696D01*
X168224821Y-127433700D01*
X168353329Y-127617228D01*
X168353334Y-127617234D01*
X168511765Y-127775665D01*
X168511771Y-127775670D01*
X168695299Y-127904178D01*
X168695301Y-127904179D01*
X168695304Y-127904181D01*
X168790600Y-127948618D01*
X168843039Y-127994790D01*
X168862191Y-128061984D01*
X168841975Y-128128865D01*
X168790600Y-128173382D01*
X168695306Y-128217818D01*
X168695304Y-128217819D01*
X168511764Y-128346334D01*
X168353334Y-128504764D01*
X168224819Y-128688304D01*
X168224818Y-128688306D01*
X168130129Y-128891368D01*
X168130126Y-128891374D01*
X168072137Y-129107791D01*
X168072136Y-129107799D01*
X168052609Y-129330998D01*
X168052609Y-129331001D01*
X168072136Y-129554200D01*
X168072137Y-129554208D01*
X168130126Y-129770625D01*
X168130127Y-129770627D01*
X168130128Y-129770630D01*
X168151081Y-129815563D01*
X168224819Y-129973696D01*
X168224821Y-129973700D01*
X168353329Y-130157228D01*
X168353334Y-130157234D01*
X168511765Y-130315665D01*
X168511771Y-130315670D01*
X168695299Y-130444178D01*
X168695301Y-130444179D01*
X168695304Y-130444181D01*
X168898370Y-130538872D01*
X169114794Y-130596863D01*
X169274226Y-130610811D01*
X169337998Y-130616391D01*
X169338000Y-130616391D01*
X169338002Y-130616391D01*
X169393801Y-130611509D01*
X169561206Y-130596863D01*
X169777630Y-130538872D01*
X169980696Y-130444181D01*
X170164233Y-130315667D01*
X170322667Y-130157233D01*
X170451181Y-129973696D01*
X170545872Y-129770630D01*
X170603863Y-129554206D01*
X170623391Y-129331000D01*
X170603863Y-129107794D01*
X170545872Y-128891370D01*
X170451181Y-128688305D01*
X170322667Y-128504767D01*
X170164233Y-128346333D01*
X170164229Y-128346330D01*
X170164228Y-128346329D01*
X169980700Y-128217821D01*
X169980692Y-128217817D01*
X169885400Y-128173382D01*
X169832960Y-128127210D01*
X169813808Y-128060017D01*
X169834023Y-127993135D01*
X169885400Y-127948618D01*
X169980696Y-127904181D01*
X170164233Y-127775667D01*
X170322667Y-127617233D01*
X170451181Y-127433696D01*
X170545872Y-127230630D01*
X170603863Y-127014206D01*
X170623391Y-126791000D01*
X170603863Y-126567794D01*
X170545872Y-126351370D01*
X170451181Y-126148305D01*
X170322667Y-125964767D01*
X170164233Y-125806333D01*
X170164229Y-125806330D01*
X170164228Y-125806329D01*
X169980700Y-125677821D01*
X169980692Y-125677817D01*
X169885400Y-125633382D01*
X169832960Y-125587210D01*
X169813808Y-125520017D01*
X169834023Y-125453135D01*
X169885400Y-125408618D01*
X169980696Y-125364181D01*
X170164233Y-125235667D01*
X170322667Y-125077233D01*
X170451181Y-124893696D01*
X170545872Y-124690630D01*
X170603863Y-124474206D01*
X170611327Y-124388891D01*
X170636778Y-124323825D01*
X170693368Y-124282846D01*
X170734590Y-124275701D01*
X172565557Y-124271918D01*
X172632637Y-124291464D01*
X172678501Y-124344174D01*
X172689341Y-124385109D01*
X172697136Y-124474201D01*
X172697137Y-124474208D01*
X172755126Y-124690625D01*
X172755127Y-124690627D01*
X172755128Y-124690630D01*
X172849819Y-124893696D01*
X172849821Y-124893700D01*
X172978329Y-125077228D01*
X172978334Y-125077234D01*
X173136765Y-125235665D01*
X173136771Y-125235670D01*
X173320299Y-125364178D01*
X173320301Y-125364179D01*
X173320304Y-125364181D01*
X173415600Y-125408618D01*
X173468039Y-125454790D01*
X173487191Y-125521984D01*
X173466975Y-125588865D01*
X173415600Y-125633382D01*
X173320306Y-125677818D01*
X173320304Y-125677819D01*
X173136764Y-125806334D01*
X172978334Y-125964764D01*
X172849819Y-126148304D01*
X172849818Y-126148306D01*
X172755129Y-126351368D01*
X172755126Y-126351374D01*
X172697137Y-126567791D01*
X172697136Y-126567799D01*
X172677609Y-126790998D01*
X172677609Y-126791001D01*
X172697136Y-127014200D01*
X172697137Y-127014208D01*
X172755126Y-127230625D01*
X172755127Y-127230627D01*
X172755128Y-127230630D01*
X172849819Y-127433696D01*
X172849821Y-127433700D01*
X172978329Y-127617228D01*
X172978334Y-127617234D01*
X173136765Y-127775665D01*
X173136771Y-127775670D01*
X173320299Y-127904178D01*
X173320301Y-127904179D01*
X173320304Y-127904181D01*
X173416190Y-127948893D01*
X173468630Y-127995065D01*
X173487782Y-128062258D01*
X173467567Y-128129139D01*
X173416192Y-128173657D01*
X173320554Y-128218254D01*
X173251887Y-128266334D01*
X173817260Y-128831707D01*
X173762288Y-128846437D01*
X173643713Y-128914896D01*
X173546896Y-129011713D01*
X173478437Y-129130288D01*
X173463707Y-129185260D01*
X172898334Y-128619887D01*
X172850253Y-128688556D01*
X172755600Y-128891540D01*
X172755596Y-128891549D01*
X172697632Y-129107875D01*
X172697630Y-129107886D01*
X172678111Y-129330997D01*
X172678111Y-129331002D01*
X172697630Y-129554113D01*
X172697632Y-129554124D01*
X172755596Y-129770450D01*
X172755600Y-129770459D01*
X172850252Y-129973443D01*
X172850253Y-129973445D01*
X172898334Y-130042112D01*
X173463707Y-129476739D01*
X173478437Y-129531712D01*
X173546896Y-129650287D01*
X173643713Y-129747104D01*
X173762288Y-129815563D01*
X173817259Y-129830292D01*
X173251886Y-130395664D01*
X173320555Y-130443746D01*
X173523540Y-130538399D01*
X173523549Y-130538403D01*
X173739875Y-130596367D01*
X173739886Y-130596369D01*
X173962998Y-130615889D01*
X173963002Y-130615889D01*
X174186113Y-130596369D01*
X174186124Y-130596367D01*
X174402450Y-130538403D01*
X174402459Y-130538399D01*
X174605445Y-130443746D01*
X174605451Y-130443742D01*
X174674112Y-130395665D01*
X174108739Y-129830292D01*
X174163712Y-129815563D01*
X174282287Y-129747104D01*
X174379104Y-129650287D01*
X174447563Y-129531712D01*
X174462292Y-129476739D01*
X175027665Y-130042112D01*
X175075742Y-129973451D01*
X175075746Y-129973445D01*
X175170399Y-129770459D01*
X175170403Y-129770450D01*
X175228367Y-129554124D01*
X175228369Y-129554113D01*
X175247889Y-129331002D01*
X175247889Y-129330997D01*
X175228369Y-129107886D01*
X175228367Y-129107875D01*
X175170403Y-128891549D01*
X175170399Y-128891540D01*
X175075747Y-128688557D01*
X175075746Y-128688555D01*
X175027664Y-128619887D01*
X175027664Y-128619886D01*
X174462292Y-129185259D01*
X174447563Y-129130288D01*
X174379104Y-129011713D01*
X174282287Y-128914896D01*
X174163712Y-128846437D01*
X174108740Y-128831707D01*
X174674112Y-128266334D01*
X174674112Y-128266333D01*
X174605445Y-128218253D01*
X174605443Y-128218252D01*
X174509808Y-128173657D01*
X174457369Y-128127485D01*
X174438217Y-128060291D01*
X174458433Y-127993410D01*
X174509804Y-127948895D01*
X174605696Y-127904181D01*
X174789233Y-127775667D01*
X174947667Y-127617233D01*
X175076181Y-127433696D01*
X175170872Y-127230630D01*
X175228863Y-127014206D01*
X175248391Y-126791000D01*
X175228863Y-126567794D01*
X175170872Y-126351370D01*
X175076181Y-126148305D01*
X174947667Y-125964767D01*
X174789233Y-125806333D01*
X174789229Y-125806330D01*
X174789228Y-125806329D01*
X174605700Y-125677821D01*
X174605692Y-125677817D01*
X174510400Y-125633382D01*
X174457960Y-125587210D01*
X174438808Y-125520017D01*
X174459023Y-125453135D01*
X174510400Y-125408618D01*
X174605696Y-125364181D01*
X174789233Y-125235667D01*
X174947667Y-125077233D01*
X175076181Y-124893696D01*
X175170872Y-124690630D01*
X175228863Y-124474206D01*
X175237163Y-124379333D01*
X175262614Y-124314268D01*
X175319204Y-124273289D01*
X175360429Y-124266143D01*
X197960971Y-124219448D01*
X198028047Y-124238993D01*
X198073911Y-124291703D01*
X198084751Y-124332639D01*
X198097136Y-124474201D01*
X198097137Y-124474208D01*
X198155126Y-124690625D01*
X198155127Y-124690627D01*
X198155128Y-124690630D01*
X198249819Y-124893696D01*
X198249821Y-124893700D01*
X198378329Y-125077228D01*
X198378334Y-125077234D01*
X198536765Y-125235665D01*
X198536771Y-125235670D01*
X198720299Y-125364178D01*
X198720301Y-125364179D01*
X198720304Y-125364181D01*
X198815600Y-125408618D01*
X198868039Y-125454790D01*
X198887191Y-125521984D01*
X198866975Y-125588865D01*
X198815600Y-125633382D01*
X198720306Y-125677818D01*
X198720304Y-125677819D01*
X198536764Y-125806334D01*
X198378334Y-125964764D01*
X198249819Y-126148304D01*
X198249818Y-126148306D01*
X198155129Y-126351368D01*
X198155126Y-126351374D01*
X198097137Y-126567791D01*
X198097136Y-126567799D01*
X198077609Y-126790998D01*
X198077609Y-126791001D01*
X198097136Y-127014200D01*
X198097137Y-127014208D01*
X198155126Y-127230625D01*
X198155127Y-127230627D01*
X198155128Y-127230630D01*
X198249819Y-127433696D01*
X198249821Y-127433700D01*
X198378329Y-127617228D01*
X198378334Y-127617234D01*
X198536765Y-127775665D01*
X198536771Y-127775670D01*
X198720299Y-127904178D01*
X198720301Y-127904179D01*
X198720304Y-127904181D01*
X198815600Y-127948618D01*
X198868039Y-127994790D01*
X198887191Y-128061984D01*
X198866975Y-128128865D01*
X198815600Y-128173382D01*
X198720306Y-128217818D01*
X198720304Y-128217819D01*
X198536764Y-128346334D01*
X198378334Y-128504764D01*
X198249819Y-128688304D01*
X198249818Y-128688306D01*
X198155129Y-128891368D01*
X198155126Y-128891374D01*
X198097137Y-129107791D01*
X198097136Y-129107799D01*
X198077609Y-129330998D01*
X198077609Y-129331001D01*
X198097136Y-129554200D01*
X198097137Y-129554208D01*
X198155126Y-129770625D01*
X198155127Y-129770627D01*
X198155128Y-129770630D01*
X198176081Y-129815563D01*
X198249819Y-129973696D01*
X198249821Y-129973700D01*
X198378329Y-130157228D01*
X198378334Y-130157234D01*
X198536765Y-130315665D01*
X198536771Y-130315670D01*
X198720299Y-130444178D01*
X198720301Y-130444179D01*
X198720304Y-130444181D01*
X198923370Y-130538872D01*
X199139794Y-130596863D01*
X199299226Y-130610811D01*
X199362998Y-130616391D01*
X199363000Y-130616391D01*
X199363002Y-130616391D01*
X199418801Y-130611509D01*
X199586206Y-130596863D01*
X199802630Y-130538872D01*
X200005696Y-130444181D01*
X200189233Y-130315667D01*
X200347667Y-130157233D01*
X200476181Y-129973696D01*
X200570872Y-129770630D01*
X200628863Y-129554206D01*
X200648391Y-129331000D01*
X200628863Y-129107794D01*
X200570872Y-128891370D01*
X200476181Y-128688305D01*
X200347667Y-128504767D01*
X200189233Y-128346333D01*
X200189229Y-128346330D01*
X200189228Y-128346329D01*
X200005700Y-128217821D01*
X200005692Y-128217817D01*
X199910400Y-128173382D01*
X199857960Y-128127210D01*
X199838808Y-128060017D01*
X199859023Y-127993135D01*
X199910400Y-127948618D01*
X200005696Y-127904181D01*
X200189233Y-127775667D01*
X200347667Y-127617233D01*
X200476181Y-127433696D01*
X200570872Y-127230630D01*
X200628863Y-127014206D01*
X200648391Y-126791000D01*
X200628863Y-126567794D01*
X200570872Y-126351370D01*
X200476181Y-126148305D01*
X200347667Y-125964767D01*
X200189233Y-125806333D01*
X200189229Y-125806330D01*
X200189228Y-125806329D01*
X200005700Y-125677821D01*
X200005692Y-125677817D01*
X199910400Y-125633382D01*
X199857960Y-125587210D01*
X199838808Y-125520017D01*
X199859023Y-125453135D01*
X199910400Y-125408618D01*
X200005696Y-125364181D01*
X200189233Y-125235667D01*
X200347667Y-125077233D01*
X200476181Y-124893696D01*
X200570872Y-124690630D01*
X200628863Y-124474206D01*
X200641755Y-124326846D01*
X200667207Y-124261778D01*
X200723798Y-124220799D01*
X200765021Y-124213654D01*
X204470000Y-124206000D01*
X204479365Y-123157135D01*
X207790500Y-123157135D01*
X207790500Y-125852870D01*
X207790501Y-125852876D01*
X207796908Y-125912483D01*
X207847202Y-126047328D01*
X207847206Y-126047335D01*
X207933452Y-126162544D01*
X207933455Y-126162547D01*
X208048664Y-126248793D01*
X208048671Y-126248797D01*
X208183517Y-126299091D01*
X208183516Y-126299091D01*
X208190444Y-126299835D01*
X208243127Y-126305500D01*
X210938872Y-126305499D01*
X210998483Y-126299091D01*
X211133331Y-126248796D01*
X211248546Y-126162546D01*
X211334796Y-126047331D01*
X211385091Y-125912483D01*
X211391500Y-125852873D01*
X211391499Y-123157128D01*
X211385091Y-123097517D01*
X211364805Y-123043128D01*
X211334797Y-122962671D01*
X211334793Y-122962664D01*
X211248547Y-122847455D01*
X211248544Y-122847452D01*
X211133335Y-122761206D01*
X211133328Y-122761202D01*
X210998482Y-122710908D01*
X210998483Y-122710908D01*
X210938883Y-122704501D01*
X210938881Y-122704500D01*
X210938873Y-122704500D01*
X210938864Y-122704500D01*
X208243129Y-122704500D01*
X208243123Y-122704501D01*
X208183516Y-122710908D01*
X208048671Y-122761202D01*
X208048664Y-122761206D01*
X207933455Y-122847452D01*
X207933452Y-122847455D01*
X207847206Y-122962664D01*
X207847202Y-122962671D01*
X207796908Y-123097517D01*
X207790501Y-123157116D01*
X207790501Y-123157123D01*
X207790500Y-123157135D01*
X204479365Y-123157135D01*
X204510285Y-119694028D01*
X204512687Y-119424995D01*
X207785953Y-119424995D01*
X207785953Y-119425004D01*
X207806113Y-119694026D01*
X207806113Y-119694028D01*
X207866142Y-119957033D01*
X207866148Y-119957052D01*
X207964709Y-120208181D01*
X207964708Y-120208181D01*
X208099602Y-120441822D01*
X208153294Y-120509151D01*
X208989957Y-119672487D01*
X209014978Y-119732890D01*
X209086112Y-119839351D01*
X209176649Y-119929888D01*
X209283110Y-120001022D01*
X209343510Y-120026041D01*
X208505848Y-120863702D01*
X208688483Y-120988220D01*
X208688485Y-120988221D01*
X208931539Y-121105269D01*
X208931537Y-121105269D01*
X209189337Y-121184790D01*
X209189343Y-121184792D01*
X209456101Y-121224999D01*
X209456110Y-121225000D01*
X209725890Y-121225000D01*
X209725898Y-121224999D01*
X209992656Y-121184792D01*
X209992662Y-121184790D01*
X210250461Y-121105269D01*
X210493521Y-120988218D01*
X210676150Y-120863702D01*
X209838488Y-120026041D01*
X209898890Y-120001022D01*
X210005351Y-119929888D01*
X210095888Y-119839351D01*
X210167022Y-119732890D01*
X210192041Y-119672488D01*
X211028703Y-120509151D01*
X211028704Y-120509150D01*
X211082393Y-120441828D01*
X211082400Y-120441817D01*
X211217290Y-120208181D01*
X211315851Y-119957052D01*
X211315857Y-119957033D01*
X211375886Y-119694028D01*
X211375886Y-119694026D01*
X211396047Y-119425004D01*
X211396047Y-119424995D01*
X211375886Y-119155973D01*
X211375886Y-119155971D01*
X211315857Y-118892966D01*
X211315851Y-118892947D01*
X211217290Y-118641818D01*
X211217291Y-118641818D01*
X211082397Y-118408177D01*
X211028704Y-118340847D01*
X210192041Y-119177510D01*
X210167022Y-119117110D01*
X210095888Y-119010649D01*
X210005351Y-118920112D01*
X209898890Y-118848978D01*
X209838488Y-118823958D01*
X210676150Y-117986296D01*
X210493517Y-117861779D01*
X210493516Y-117861778D01*
X210250460Y-117744730D01*
X210250462Y-117744730D01*
X209992662Y-117665209D01*
X209992656Y-117665207D01*
X209725898Y-117625000D01*
X209456101Y-117625000D01*
X209189343Y-117665207D01*
X209189337Y-117665209D01*
X208931538Y-117744730D01*
X208688485Y-117861778D01*
X208688476Y-117861783D01*
X208505848Y-117986296D01*
X209343511Y-118823958D01*
X209283110Y-118848978D01*
X209176649Y-118920112D01*
X209086112Y-119010649D01*
X209014978Y-119117110D01*
X208989958Y-119177511D01*
X208153295Y-118340848D01*
X208099600Y-118408180D01*
X207964709Y-118641818D01*
X207866148Y-118892947D01*
X207866142Y-118892966D01*
X207806113Y-119155971D01*
X207806113Y-119155973D01*
X207785953Y-119424995D01*
X204512687Y-119424995D01*
X204632142Y-106046135D01*
X208395500Y-106046135D01*
X208395500Y-107841870D01*
X208395501Y-107841876D01*
X208401908Y-107901483D01*
X208452202Y-108036328D01*
X208452206Y-108036335D01*
X208538452Y-108151544D01*
X208538455Y-108151547D01*
X208653664Y-108237793D01*
X208653671Y-108237797D01*
X208788517Y-108288091D01*
X208788516Y-108288091D01*
X208795444Y-108288835D01*
X208848127Y-108294500D01*
X210643872Y-108294499D01*
X210703483Y-108288091D01*
X210838331Y-108237796D01*
X210953546Y-108151546D01*
X211039796Y-108036331D01*
X211089002Y-107904401D01*
X211130872Y-107848468D01*
X211196337Y-107824050D01*
X211264610Y-107838901D01*
X211292865Y-107860053D01*
X211414917Y-107982105D01*
X211608421Y-108117600D01*
X211822507Y-108217429D01*
X211822516Y-108217433D01*
X212036000Y-108274634D01*
X212036000Y-107377012D01*
X212093007Y-107409925D01*
X212220174Y-107444000D01*
X212351826Y-107444000D01*
X212478993Y-107409925D01*
X212536000Y-107377012D01*
X212536000Y-108274633D01*
X212749483Y-108217433D01*
X212749492Y-108217429D01*
X212963578Y-108117600D01*
X213157082Y-107982105D01*
X213324105Y-107815082D01*
X213454119Y-107629405D01*
X213508696Y-107585781D01*
X213578195Y-107578588D01*
X213640549Y-107610110D01*
X213657269Y-107629405D01*
X213787505Y-107815401D01*
X213954599Y-107982495D01*
X214051384Y-108050265D01*
X214148165Y-108118032D01*
X214148167Y-108118033D01*
X214148170Y-108118035D01*
X214362337Y-108217903D01*
X214590592Y-108279063D01*
X214767034Y-108294500D01*
X214825999Y-108299659D01*
X214826000Y-108299659D01*
X214826001Y-108299659D01*
X214884966Y-108294500D01*
X215061408Y-108279063D01*
X215289663Y-108217903D01*
X215503830Y-108118035D01*
X215697401Y-107982495D01*
X215864495Y-107815401D01*
X216000035Y-107621830D01*
X216099903Y-107407663D01*
X216161063Y-107179408D01*
X216181659Y-106944000D01*
X216161063Y-106708592D01*
X216099903Y-106480337D01*
X216000035Y-106266171D01*
X215994731Y-106258595D01*
X215864494Y-106072597D01*
X215697402Y-105905506D01*
X215697395Y-105905501D01*
X215503834Y-105769967D01*
X215503830Y-105769965D01*
X215503828Y-105769964D01*
X215289663Y-105670097D01*
X215289659Y-105670096D01*
X215289655Y-105670094D01*
X215061413Y-105608938D01*
X215061403Y-105608936D01*
X214826001Y-105588341D01*
X214825999Y-105588341D01*
X214590596Y-105608936D01*
X214590586Y-105608938D01*
X214362344Y-105670094D01*
X214362335Y-105670098D01*
X214148171Y-105769964D01*
X214148169Y-105769965D01*
X213954597Y-105905505D01*
X213787508Y-106072594D01*
X213657269Y-106258595D01*
X213602692Y-106302219D01*
X213533193Y-106309412D01*
X213470839Y-106277890D01*
X213454119Y-106258594D01*
X213324113Y-106072926D01*
X213324108Y-106072920D01*
X213157082Y-105905894D01*
X212963578Y-105770399D01*
X212749492Y-105670570D01*
X212749486Y-105670567D01*
X212536000Y-105613364D01*
X212536000Y-106510988D01*
X212478993Y-106478075D01*
X212351826Y-106444000D01*
X212220174Y-106444000D01*
X212093007Y-106478075D01*
X212036000Y-106510988D01*
X212036000Y-105613364D01*
X212035999Y-105613364D01*
X211822513Y-105670567D01*
X211822507Y-105670570D01*
X211608422Y-105770399D01*
X211608420Y-105770400D01*
X211414926Y-105905886D01*
X211292865Y-106027947D01*
X211231542Y-106061431D01*
X211161850Y-106056447D01*
X211105917Y-106014575D01*
X211089002Y-105983598D01*
X211039797Y-105851671D01*
X211039793Y-105851664D01*
X210953547Y-105736455D01*
X210953544Y-105736452D01*
X210838335Y-105650206D01*
X210838328Y-105650202D01*
X210703482Y-105599908D01*
X210703483Y-105599908D01*
X210643883Y-105593501D01*
X210643881Y-105593500D01*
X210643873Y-105593500D01*
X210643864Y-105593500D01*
X208848129Y-105593500D01*
X208848123Y-105593501D01*
X208788516Y-105599908D01*
X208653671Y-105650202D01*
X208653664Y-105650206D01*
X208538455Y-105736452D01*
X208538452Y-105736455D01*
X208452206Y-105851664D01*
X208452202Y-105851671D01*
X208401908Y-105986517D01*
X208395501Y-106046116D01*
X208395500Y-106046135D01*
X204632142Y-106046135D01*
X204702017Y-98220135D01*
X208385500Y-98220135D01*
X208385500Y-100015870D01*
X208385501Y-100015876D01*
X208391908Y-100075483D01*
X208442202Y-100210328D01*
X208442206Y-100210335D01*
X208528452Y-100325544D01*
X208528455Y-100325547D01*
X208643664Y-100411793D01*
X208643671Y-100411797D01*
X208778517Y-100462091D01*
X208778516Y-100462091D01*
X208785444Y-100462835D01*
X208838127Y-100468500D01*
X210633872Y-100468499D01*
X210693483Y-100462091D01*
X210828331Y-100411796D01*
X210943546Y-100325546D01*
X211029796Y-100210331D01*
X211079002Y-100078401D01*
X211120872Y-100022468D01*
X211186337Y-99998050D01*
X211254610Y-100012901D01*
X211282865Y-100034053D01*
X211404917Y-100156105D01*
X211598421Y-100291600D01*
X211812507Y-100391429D01*
X211812516Y-100391433D01*
X212026000Y-100448634D01*
X212026000Y-99551012D01*
X212083007Y-99583925D01*
X212210174Y-99618000D01*
X212341826Y-99618000D01*
X212468993Y-99583925D01*
X212526000Y-99551012D01*
X212526000Y-100448633D01*
X212739483Y-100391433D01*
X212739492Y-100391429D01*
X212953578Y-100291600D01*
X213147082Y-100156105D01*
X213314105Y-99989082D01*
X213444119Y-99803405D01*
X213498696Y-99759781D01*
X213568195Y-99752588D01*
X213630549Y-99784110D01*
X213647269Y-99803405D01*
X213777505Y-99989401D01*
X213944599Y-100156495D01*
X214041384Y-100224265D01*
X214138165Y-100292032D01*
X214138167Y-100292033D01*
X214138170Y-100292035D01*
X214352337Y-100391903D01*
X214580592Y-100453063D01*
X214757034Y-100468500D01*
X214815999Y-100473659D01*
X214816000Y-100473659D01*
X214816001Y-100473659D01*
X214874966Y-100468500D01*
X215051408Y-100453063D01*
X215279663Y-100391903D01*
X215493830Y-100292035D01*
X215687401Y-100156495D01*
X215854495Y-99989401D01*
X215990035Y-99795830D01*
X216089903Y-99581663D01*
X216151063Y-99353408D01*
X216171659Y-99118000D01*
X216151063Y-98882592D01*
X216089903Y-98654337D01*
X215990035Y-98440171D01*
X215984731Y-98432595D01*
X215854494Y-98246597D01*
X215687402Y-98079506D01*
X215687395Y-98079501D01*
X215493834Y-97943967D01*
X215493830Y-97943965D01*
X215493828Y-97943964D01*
X215279663Y-97844097D01*
X215279659Y-97844096D01*
X215279655Y-97844094D01*
X215051413Y-97782938D01*
X215051403Y-97782936D01*
X214816001Y-97762341D01*
X214815999Y-97762341D01*
X214580596Y-97782936D01*
X214580586Y-97782938D01*
X214352344Y-97844094D01*
X214352335Y-97844098D01*
X214138171Y-97943964D01*
X214138169Y-97943965D01*
X213944597Y-98079505D01*
X213777508Y-98246594D01*
X213647269Y-98432595D01*
X213592692Y-98476219D01*
X213523193Y-98483412D01*
X213460839Y-98451890D01*
X213444119Y-98432594D01*
X213314113Y-98246926D01*
X213314108Y-98246920D01*
X213147082Y-98079894D01*
X212953578Y-97944399D01*
X212739492Y-97844570D01*
X212739486Y-97844567D01*
X212526000Y-97787364D01*
X212526000Y-98684988D01*
X212468993Y-98652075D01*
X212341826Y-98618000D01*
X212210174Y-98618000D01*
X212083007Y-98652075D01*
X212026000Y-98684988D01*
X212026000Y-97787364D01*
X212025999Y-97787364D01*
X211812513Y-97844567D01*
X211812507Y-97844570D01*
X211598422Y-97944399D01*
X211598420Y-97944400D01*
X211404926Y-98079886D01*
X211282865Y-98201947D01*
X211221542Y-98235431D01*
X211151850Y-98230447D01*
X211095917Y-98188575D01*
X211079002Y-98157598D01*
X211029797Y-98025671D01*
X211029793Y-98025664D01*
X210943547Y-97910455D01*
X210943544Y-97910452D01*
X210828335Y-97824206D01*
X210828328Y-97824202D01*
X210693482Y-97773908D01*
X210693483Y-97773908D01*
X210633883Y-97767501D01*
X210633881Y-97767500D01*
X210633873Y-97767500D01*
X210633864Y-97767500D01*
X208838129Y-97767500D01*
X208838123Y-97767501D01*
X208778516Y-97773908D01*
X208643671Y-97824202D01*
X208643664Y-97824206D01*
X208528455Y-97910452D01*
X208528452Y-97910455D01*
X208442206Y-98025664D01*
X208442202Y-98025671D01*
X208391908Y-98160517D01*
X208385501Y-98220116D01*
X208385500Y-98220135D01*
X204702017Y-98220135D01*
X204722903Y-95880893D01*
X204743185Y-95814032D01*
X204796396Y-95768750D01*
X204846898Y-95758000D01*
X217299012Y-95758000D01*
X217366051Y-95777685D01*
G37*
%TD.AperFunction*%
%TD*%
M02*
