%TF.GenerationSoftware,KiCad,Pcbnew,(6.0.0-0)*%
%TF.CreationDate,2022-12-05T15:15:10-05:00*%
%TF.ProjectId,Body_LED_Controller_V2,426f6479-5f4c-4454-945f-436f6e74726f,1.0*%
%TF.SameCoordinates,Original*%
%TF.FileFunction,Copper,L3,Inr*%
%TF.FilePolarity,Positive*%
%FSLAX46Y46*%
G04 Gerber Fmt 4.6, Leading zero omitted, Abs format (unit mm)*
G04 Created by KiCad (PCBNEW (6.0.0-0)) date 2022-12-05 15:15:10*
%MOMM*%
%LPD*%
G01*
G04 APERTURE LIST*
G04 Aperture macros list*
%AMRoundRect*
0 Rectangle with rounded corners*
0 $1 Rounding radius*
0 $2 $3 $4 $5 $6 $7 $8 $9 X,Y pos of 4 corners*
0 Add a 4 corners polygon primitive as box body*
4,1,4,$2,$3,$4,$5,$6,$7,$8,$9,$2,$3,0*
0 Add four circle primitives for the rounded corners*
1,1,$1+$1,$2,$3*
1,1,$1+$1,$4,$5*
1,1,$1+$1,$6,$7*
1,1,$1+$1,$8,$9*
0 Add four rect primitives between the rounded corners*
20,1,$1+$1,$2,$3,$4,$5,0*
20,1,$1+$1,$4,$5,$6,$7,0*
20,1,$1+$1,$6,$7,$8,$9,0*
20,1,$1+$1,$8,$9,$2,$3,0*%
G04 Aperture macros list end*
%TA.AperFunction,ComponentPad*%
%ADD10R,1.600000X1.600000*%
%TD*%
%TA.AperFunction,ComponentPad*%
%ADD11C,1.600000*%
%TD*%
%TA.AperFunction,ComponentPad*%
%ADD12C,4.000000*%
%TD*%
%TA.AperFunction,ComponentPad*%
%ADD13RoundRect,0.250000X-0.620000X-0.845000X0.620000X-0.845000X0.620000X0.845000X-0.620000X0.845000X0*%
%TD*%
%TA.AperFunction,ComponentPad*%
%ADD14O,1.740000X2.190000*%
%TD*%
%TA.AperFunction,ComponentPad*%
%ADD15R,2.400000X2.400000*%
%TD*%
%TA.AperFunction,ComponentPad*%
%ADD16C,2.400000*%
%TD*%
%TA.AperFunction,ComponentPad*%
%ADD17O,0.890000X1.550000*%
%TD*%
%TA.AperFunction,ComponentPad*%
%ADD18O,1.250000X0.950000*%
%TD*%
%TA.AperFunction,ComponentPad*%
%ADD19RoundRect,0.250000X0.845000X-0.620000X0.845000X0.620000X-0.845000X0.620000X-0.845000X-0.620000X0*%
%TD*%
%TA.AperFunction,ComponentPad*%
%ADD20O,2.190000X1.740000*%
%TD*%
%TA.AperFunction,ComponentPad*%
%ADD21C,1.007000*%
%TD*%
%TA.AperFunction,ComponentPad*%
%ADD22R,1.700000X1.700000*%
%TD*%
%TA.AperFunction,ComponentPad*%
%ADD23O,1.700000X1.700000*%
%TD*%
%TA.AperFunction,ComponentPad*%
%ADD24C,1.524000*%
%TD*%
%TA.AperFunction,ComponentPad*%
%ADD25C,2.300000*%
%TD*%
%TA.AperFunction,ViaPad*%
%ADD26C,0.600000*%
%TD*%
%TA.AperFunction,Conductor*%
%ADD27C,0.300000*%
%TD*%
%TA.AperFunction,Conductor*%
%ADD28C,0.200000*%
%TD*%
%TA.AperFunction,Conductor*%
%ADD29C,1.000000*%
%TD*%
G04 APERTURE END LIST*
D10*
%TO.N,SW_BATT_IN_POS*%
%TO.C,J22*%
X89140000Y-63335338D03*
D11*
X91910000Y-63335338D03*
%TO.N,GND*%
X94680000Y-63335338D03*
X97450000Y-63335338D03*
%TO.N,VBUS_DC*%
X100220000Y-63335338D03*
%TO.N,D-_DC*%
X102990000Y-63335338D03*
%TO.N,unconnected-(J22-Pad7)*%
X105760000Y-63335338D03*
%TO.N,GND_DP*%
X108530000Y-63335338D03*
%TO.N,D+_DP*%
X111300000Y-63335338D03*
%TO.N,GND*%
X114070000Y-63335338D03*
X116840000Y-63335338D03*
%TO.N,SW_BATT_IN_POS*%
X119610000Y-63335338D03*
X122380000Y-63335338D03*
X90525000Y-66175338D03*
X93295000Y-66175338D03*
%TO.N,GND*%
X96065000Y-66175338D03*
X98835000Y-66175338D03*
%TO.N,GND_DC*%
X101605000Y-66175338D03*
%TO.N,D+_DC*%
X104375000Y-66175338D03*
%TO.N,VBUS_DP*%
X107145000Y-66175338D03*
%TO.N,D-_DP*%
X109915000Y-66175338D03*
%TO.N,GND*%
X112685000Y-66175338D03*
X115455000Y-66175338D03*
%TO.N,SW_BATT_IN_POS*%
X118225000Y-66175338D03*
X120995000Y-66175338D03*
D12*
%TO.N,unconnected-(J22-Pad0)*%
X82210000Y-64755338D03*
X129310000Y-64755338D03*
%TD*%
D13*
%TO.N,GND*%
%TO.C,J9*%
X178440000Y-78275000D03*
D14*
%TO.N,+5V*%
X180980000Y-78275000D03*
%TO.N,MAINT_CLOCK*%
X183520000Y-78275000D03*
%TO.N,Net-(J9-Pad4)*%
X186060000Y-78275000D03*
%TD*%
D13*
%TO.N,GND*%
%TO.C,J5*%
X173210000Y-51503750D03*
D14*
%TO.N,+5V*%
X175750000Y-51503750D03*
%TO.N,CS1_CLOCK*%
X178290000Y-51503750D03*
%TO.N,Net-(J5-Pad4)*%
X180830000Y-51503750D03*
%TO.N,CS2_CLOCK*%
X183370000Y-51503750D03*
%TO.N,Net-(J5-Pad6)*%
X185910000Y-51503750D03*
%TD*%
D15*
%TO.N,GND*%
%TO.C,J17*%
X143990000Y-51900000D03*
D16*
%TO.N,+5V*%
X140490000Y-51900000D03*
%TD*%
D17*
%TO.N,unconnected-(J11-Pad6)*%
%TO.C,J11*%
X106655000Y-118530000D03*
D18*
X112655000Y-115830000D03*
X107655000Y-115830000D03*
D17*
X113655000Y-118530000D03*
%TD*%
D13*
%TO.N,GND*%
%TO.C,J7*%
X175850000Y-87208750D03*
D14*
%TO.N,+5V*%
X178390000Y-87208750D03*
%TO.N,DP_LOAD*%
X180930000Y-87208750D03*
%TO.N,DP_CLOCK*%
X183470000Y-87208750D03*
%TO.N,DP_DATA_IN*%
X186010000Y-87208750D03*
%TD*%
D13*
%TO.N,GND*%
%TO.C,J1*%
X180710000Y-103816250D03*
D14*
%TO.N,+5V*%
X183250000Y-103816250D03*
%TO.N,EXT_MIC*%
X185790000Y-103816250D03*
%TD*%
D17*
%TO.N,unconnected-(J15-Pad6)*%
%TO.C,J15*%
X95910000Y-118540000D03*
X102910000Y-118540000D03*
D18*
X96910000Y-115840000D03*
X101910000Y-115840000D03*
%TD*%
D15*
%TO.N,GND*%
%TO.C,J21*%
X94280000Y-51900000D03*
D16*
%TO.N,SW_BATT_IN_POS*%
X90780000Y-51900000D03*
%TD*%
D19*
%TO.N,GND*%
%TO.C,J24*%
X164850000Y-113600000D03*
D20*
%TO.N,RX_FU*%
X164850000Y-111060000D03*
%TO.N,TX_FU*%
X164850000Y-108520000D03*
%TD*%
D21*
%TO.N,XTAL2*%
%TO.C,Y1*%
X117580000Y-98500000D03*
%TO.N,XTAL1*%
X122460000Y-98500000D03*
%TD*%
D19*
%TO.N,GND*%
%TO.C,J13*%
X129790000Y-113600000D03*
D20*
%TO.N,+5V*%
X129790000Y-111060000D03*
%TO.N,RX_MP*%
X129790000Y-108520000D03*
%TO.N,TX_MP*%
X129790000Y-105980000D03*
%TD*%
D13*
%TO.N,GND*%
%TO.C,J27*%
X173200000Y-60227500D03*
D14*
%TO.N,+5V*%
X175740000Y-60227500D03*
%TO.N,VU1_CLOCK*%
X178280000Y-60227500D03*
%TO.N,Net-(J27-Pad4)*%
X180820000Y-60227500D03*
%TO.N,VU2_CLOCK*%
X183360000Y-60227500D03*
%TO.N,Net-(J27-Pad6)*%
X185900000Y-60227500D03*
%TD*%
D15*
%TO.N,GND*%
%TO.C,J12*%
X122145000Y-51900000D03*
D16*
%TO.N,+12V*%
X118645000Y-51900000D03*
%TD*%
D13*
%TO.N,GND*%
%TO.C,J4*%
X178370000Y-69281250D03*
D14*
%TO.N,+5V*%
X180910000Y-69281250D03*
%TO.N,LDP_CLOCK*%
X183450000Y-69281250D03*
%TO.N,Net-(J4-Pad4)*%
X185990000Y-69281250D03*
%TD*%
D15*
%TO.N,GND*%
%TO.C,J16*%
X131280000Y-51900000D03*
D16*
%TO.N,+12V*%
X127780000Y-51900000D03*
%TD*%
D22*
%TO.N,VU2_DATA*%
%TO.C,J20*%
X80450000Y-78950000D03*
D23*
%TO.N,+5V*%
X80450000Y-76410000D03*
%TO.N,VU2_CLOCK*%
X82990000Y-78950000D03*
%TO.N,YELLOW_LED*%
X82990000Y-76410000D03*
%TO.N,RESET_BL*%
X85530000Y-78950000D03*
%TO.N,GND*%
X85530000Y-76410000D03*
%TD*%
D17*
%TO.N,unconnected-(J10-Pad6)*%
%TO.C,J10*%
X124212500Y-118520000D03*
X117212500Y-118520000D03*
D18*
X123212500Y-115820000D03*
X118212500Y-115820000D03*
%TD*%
D19*
%TO.N,GND*%
%TO.C,J2*%
X138555000Y-113600000D03*
D20*
%TO.N,RX_BS*%
X138555000Y-111060000D03*
%TO.N,TX_BS*%
X138555000Y-108520000D03*
%TD*%
D24*
%TO.N,+5V*%
%TO.C,U14*%
X158525000Y-58805000D03*
%TO.N,GND*%
X155985000Y-58805000D03*
X153445000Y-58805000D03*
%TO.N,+12V*%
X150905000Y-58805000D03*
%TO.N,unconnected-(U14-Pad5)*%
X148365000Y-58805000D03*
%TO.N,unconnected-(U14-Pad6)*%
X145825000Y-58805000D03*
%TO.N,unconnected-(U14-Pad7)*%
X145825000Y-61345000D03*
%TO.N,unconnected-(U14-Pad8)*%
X148365000Y-61345000D03*
%TO.N,+12V*%
X150905000Y-61345000D03*
%TO.N,GND*%
X153445000Y-61345000D03*
X155985000Y-61345000D03*
%TO.N,+5V*%
X158525000Y-61345000D03*
D25*
%TO.N,N/C*%
X162775000Y-59735000D03*
X141575000Y-59735000D03*
X141575000Y-80735000D03*
%TD*%
D22*
%TO.N,LIMIT1*%
%TO.C,J3*%
X171890000Y-99920000D03*
D23*
%TO.N,+5V*%
X171890000Y-102460000D03*
%TO.N,LIMIT2*%
X169350000Y-99920000D03*
%TO.N,+5V*%
X169350000Y-102460000D03*
%TO.N,LIMIT3*%
X166810000Y-99920000D03*
%TO.N,+5V*%
X166810000Y-102460000D03*
%TO.N,LIMIT4*%
X164270000Y-99920000D03*
%TO.N,+5V*%
X164270000Y-102460000D03*
%TO.N,LIMIT5*%
X161730000Y-99920000D03*
%TO.N,+5V*%
X161730000Y-102460000D03*
%TO.N,LIMIT6*%
X159190000Y-99920000D03*
%TO.N,+5V*%
X159190000Y-102460000D03*
%TO.N,LIMIT7*%
X156650000Y-99920000D03*
%TO.N,+5V*%
X156650000Y-102460000D03*
%TO.N,LIMIT8*%
X154110000Y-99920000D03*
%TO.N,+5V*%
X154110000Y-102460000D03*
%TO.N,LIMIT9*%
X151570000Y-99920000D03*
%TO.N,+5V*%
X151570000Y-102460000D03*
%TO.N,LIMIT10*%
X149030000Y-99920000D03*
%TO.N,+5V*%
X149030000Y-102460000D03*
%TD*%
D19*
%TO.N,GND*%
%TO.C,J25*%
X147320000Y-113600000D03*
D20*
%TO.N,RX_ST*%
X147320000Y-111060000D03*
%TO.N,TX_ST*%
X147320000Y-108520000D03*
%TD*%
D19*
%TO.N,GND*%
%TO.C,J26*%
X156085000Y-113600000D03*
D20*
%TO.N,RX_RD*%
X156085000Y-111060000D03*
%TO.N,TX_RD*%
X156085000Y-108520000D03*
%TD*%
D15*
%TO.N,GND*%
%TO.C,J19*%
X162100000Y-51900000D03*
D16*
%TO.N,+5V*%
X158600000Y-51900000D03*
%TD*%
D13*
%TO.N,GND*%
%TO.C,J8*%
X173130000Y-112240000D03*
D14*
%TO.N,+5V*%
X175670000Y-112240000D03*
%TO.N,VU_STROBE*%
X178210000Y-112240000D03*
%TO.N,VU_RESET*%
X180750000Y-112240000D03*
%TO.N,SPECTRUM_LEFT*%
X183290000Y-112240000D03*
%TO.N,SPECTRUM_RIGHT*%
X185830000Y-112240000D03*
%TD*%
D15*
%TO.N,GND*%
%TO.C,J23*%
X113010000Y-51900000D03*
D16*
%TO.N,+12V*%
X109510000Y-51900000D03*
%TD*%
D15*
%TO.N,GND*%
%TO.C,J18*%
X153045000Y-51900000D03*
D16*
%TO.N,+5V*%
X149545000Y-51900000D03*
%TD*%
D13*
%TO.N,GND*%
%TO.C,J6*%
X178250000Y-95602500D03*
D14*
%TO.N,Net-(J6-Pad2)*%
X180790000Y-95602500D03*
%TO.N,Net-(J6-Pad3)*%
X183330000Y-95602500D03*
%TO.N,Net-(J6-Pad4)*%
X185870000Y-95602500D03*
%TD*%
D18*
%TO.N,unconnected-(J14-Pad6)*%
%TO.C,J14*%
X86190000Y-115840000D03*
D17*
X92190000Y-118540000D03*
D18*
X91190000Y-115840000D03*
D17*
X85190000Y-118540000D03*
%TD*%
D26*
%TO.N,GND*%
X96760000Y-79640000D03*
X112635000Y-112905000D03*
X112600000Y-104500000D03*
X82500000Y-102230000D03*
X160380000Y-97150000D03*
X157760000Y-96930000D03*
X135880000Y-97050000D03*
X121680000Y-108470000D03*
X113290000Y-95860000D03*
X96670000Y-82770000D03*
X102125000Y-101305000D03*
X123360000Y-82770000D03*
X111240000Y-74730000D03*
X103080000Y-93480000D03*
X165495214Y-97240000D03*
X120600000Y-73190000D03*
X114750000Y-108080000D03*
X147850000Y-96070000D03*
X173230000Y-96850000D03*
X81900000Y-107620000D03*
X109120000Y-82010000D03*
X152670000Y-96750000D03*
X94450000Y-75580000D03*
X168150000Y-97470000D03*
X93810000Y-112270000D03*
X170670000Y-96980000D03*
X155130000Y-96850000D03*
X162920000Y-97210000D03*
%TO.N,+5V*%
X109474000Y-107950000D03*
X94510000Y-108730000D03*
%TO.N,MAINT_CLOCK*%
X124040000Y-85040000D03*
%TO.N,LDP_CLOCK*%
X124459088Y-86942876D03*
%TO.N,VU1_CLOCK*%
X118050000Y-86880000D03*
%TO.N,VU2_CLOCK*%
X108760000Y-86120000D03*
%TO.N,CS2_CLOCK*%
X119330000Y-88970000D03*
%TO.N,CS1_CLOCK*%
X122720000Y-87340000D03*
%TO.N,DP_DATA_IN*%
X127450000Y-89460000D03*
X108800000Y-78960000D03*
%TO.N,DP_CLOCK*%
X112250000Y-77900000D03*
%TO.N,DP_LOAD*%
X112230000Y-78730000D03*
%TO.N,SPECTRUM_RIGHT*%
X113780000Y-72610000D03*
%TO.N,SPECTRUM_LEFT*%
X114250000Y-76550000D03*
%TO.N,VU_RESET*%
X112810000Y-89000000D03*
%TO.N,VU_STROBE*%
X109000000Y-89440000D03*
%TO.N,LDP_DATA*%
X124200000Y-85990000D03*
X174470000Y-69740000D03*
%TO.N,CS1_DATA*%
X123210000Y-92090000D03*
X169630000Y-50510000D03*
%TO.N,CS2_DATA*%
X120310000Y-88950000D03*
X169750000Y-52060000D03*
%TO.N,MAINT_DATA*%
X122860000Y-84590000D03*
X174380000Y-78910000D03*
%TO.N,VU1_DATA*%
X169370000Y-60570000D03*
X118910000Y-87550000D03*
%TO.N,VU2_DATA*%
X169395000Y-58725000D03*
X108560000Y-88590000D03*
%TO.N,+5V_BL*%
X135170000Y-105260000D03*
X120430000Y-83770000D03*
X122750000Y-107560000D03*
%TO.N,RESET_BL*%
X119370000Y-96910000D03*
X113810000Y-88330000D03*
X116690000Y-105820000D03*
X134060000Y-97490000D03*
X94185000Y-82845000D03*
%TO.N,RESET_BC*%
X105632500Y-107777500D03*
X86620000Y-106530000D03*
%TO.N,VBUS_DC*%
X83750000Y-115460000D03*
%TO.N,D-_DC*%
X83000000Y-114580000D03*
%TO.N,D+_DC*%
X82570000Y-113020000D03*
%TO.N,GND_DC*%
X83390000Y-112210000D03*
%TO.N,Net-(F1-Pad1)*%
X125570000Y-105960000D03*
X118010000Y-113170000D03*
%TO.N,D-_BL*%
X102580000Y-80150000D03*
X119810000Y-113740000D03*
%TO.N,D+_BL*%
X121100000Y-113820000D03*
X100600000Y-80020000D03*
%TO.N,EXT_MIC*%
X117400000Y-77020000D03*
%TO.N,VBUS_DP*%
X94890000Y-115340000D03*
%TO.N,LIMIT6*%
X155170000Y-91400000D03*
X157900000Y-95440000D03*
%TO.N,D-_DP*%
X94750000Y-114070000D03*
%TO.N,D+_DP*%
X95410000Y-113110000D03*
%TO.N,RX_MP*%
X93030000Y-100570000D03*
%TO.N,RX_ST*%
X90850000Y-101220000D03*
%TO.N,TX_MP*%
X91380000Y-90490000D03*
%TO.N,TX_ST*%
X90110000Y-90080000D03*
%TO.N,GND_DP*%
X96210000Y-112090000D03*
%TO.N,YELLOW_LED*%
X107250000Y-86870000D03*
X173410000Y-93820000D03*
%TO.N,GREEN_LED*%
X173840000Y-91290000D03*
X115930000Y-84470000D03*
%TO.N,RED_LED*%
X173070000Y-95440000D03*
X116500000Y-88340000D03*
%TO.N,RX_BL*%
X112430000Y-83580000D03*
X97730000Y-92260000D03*
%TO.N,TX_BL*%
X108750000Y-83520000D03*
X96250000Y-89620000D03*
%TO.N,TX_BS*%
X96220000Y-102250000D03*
%TO.N,GPIO0_BC*%
X102440000Y-104600000D03*
X101080000Y-88080000D03*
%TO.N,RX_BS*%
X97950000Y-99160000D03*
%TO.N,TXD0_BC*%
X106685000Y-93895000D03*
X88560000Y-91790000D03*
%TO.N,RXD0_BC*%
X90430000Y-92070000D03*
X106660000Y-92350000D03*
%TO.N,DTR_BC*%
X109190000Y-96110000D03*
X105120000Y-105770000D03*
%TO.N,RTS_BC*%
X106370000Y-104710000D03*
X108750000Y-95100000D03*
%TO.N,ST_LED_D_BL*%
X112580000Y-85520000D03*
X119600000Y-99100000D03*
%TO.N,ST_LED_D_BC*%
X111890000Y-103660000D03*
X92800000Y-90480000D03*
%TO.N,RX_FU*%
X92470000Y-102460000D03*
%TO.N,TX_FU*%
X94250000Y-102250000D03*
X112480000Y-100610000D03*
%TO.N,RX_RD*%
X87010000Y-102180000D03*
%TO.N,TX_RD*%
X94460000Y-90520000D03*
%TD*%
D27*
%TO.N,GND_DP*%
X96210000Y-112090000D02*
X95246444Y-112090000D01*
X111566317Y-61976000D02*
X109889338Y-61976000D01*
X95246444Y-112090000D02*
X94216444Y-113120000D01*
X89530000Y-100320000D02*
X86840000Y-97630000D01*
X113834511Y-66651482D02*
X113834511Y-64885000D01*
X89530000Y-109430000D02*
X89530000Y-100320000D01*
X94216444Y-113120000D02*
X93220000Y-113120000D01*
X110595993Y-69890000D02*
X113834511Y-66651482D01*
X112449511Y-63500000D02*
X112449511Y-62859194D01*
X93220000Y-113120000D02*
X89530000Y-109430000D01*
X86840000Y-97630000D02*
X86840000Y-86510000D01*
X86840000Y-86510000D02*
X103460000Y-69890000D01*
X103460000Y-69890000D02*
X110595993Y-69890000D01*
X113834511Y-64885000D02*
X112449511Y-63500000D01*
X112449511Y-62859194D02*
X111566317Y-61976000D01*
X109889338Y-61976000D02*
X108530000Y-63335338D01*
D28*
%TO.N,D+_DP*%
X95023919Y-113496081D02*
X94998327Y-113470489D01*
X94998327Y-113470489D02*
X94501673Y-113470489D01*
X110624433Y-67429567D02*
X111252000Y-66802000D01*
X111252000Y-63383338D02*
X111300000Y-63335338D01*
X95410000Y-113110000D02*
X95023919Y-113496081D01*
X88850000Y-100490000D02*
X86070000Y-97710000D01*
X111252000Y-66802000D02*
X111252000Y-63383338D01*
X94501673Y-113470489D02*
X94301682Y-113670480D01*
X86070000Y-86470000D02*
X103280000Y-69260000D01*
X92730480Y-113670480D02*
X88850000Y-109790000D01*
X94301682Y-113670480D02*
X92730480Y-113670480D01*
X86070000Y-97710000D02*
X86070000Y-86470000D01*
X88850000Y-109790000D02*
X88850000Y-100490000D01*
X103280000Y-69260000D02*
X108540000Y-69260000D01*
X108540000Y-69260000D02*
X110370433Y-67429567D01*
X110370433Y-67429567D02*
X110624433Y-67429567D01*
%TO.N,VBUS_DP*%
X92650000Y-115340000D02*
X87670000Y-110360000D01*
X84960000Y-86160000D02*
X103110000Y-68010000D01*
X87670000Y-110360000D02*
X87670000Y-100890000D01*
X94890000Y-115340000D02*
X92650000Y-115340000D01*
X84960000Y-98180000D02*
X84960000Y-86160000D01*
X103110000Y-68010000D02*
X105310338Y-68010000D01*
X87670000Y-100890000D02*
X84960000Y-98180000D01*
X105310338Y-68010000D02*
X107145000Y-66175338D01*
%TO.N,D-_DP*%
X94750000Y-114070000D02*
X92360000Y-114070000D01*
X85650000Y-98060000D02*
X85650000Y-86150000D01*
X92360000Y-114070000D02*
X88300000Y-110010000D01*
X88300000Y-110010000D02*
X88300000Y-100710000D01*
X85650000Y-86150000D02*
X103170000Y-68630000D01*
X88300000Y-100710000D02*
X85650000Y-98060000D01*
X103170000Y-68630000D02*
X107460338Y-68630000D01*
X107460338Y-68630000D02*
X109915000Y-66175338D01*
D27*
%TO.N,D+_DC*%
X85766531Y-109413469D02*
X84039511Y-111140489D01*
X104190480Y-66175338D02*
X103040969Y-67324849D01*
X101356572Y-67324849D02*
X83790000Y-84891421D01*
X84039511Y-111140489D02*
X84039511Y-112479037D01*
X84039511Y-112479037D02*
X83498548Y-113020000D01*
X103040969Y-67324849D02*
X101356572Y-67324849D01*
X83498548Y-113020000D02*
X82570000Y-113020000D01*
X83790000Y-84891421D02*
X83790000Y-98380000D01*
X83790000Y-98380000D02*
X85766531Y-100356531D01*
X85766531Y-100356531D02*
X85766531Y-109413469D01*
%TO.N,GND_DC*%
X101605000Y-66175338D02*
X101605000Y-66369993D01*
X101605000Y-66369993D02*
X83120000Y-84854993D01*
X85267011Y-108902989D02*
X83390000Y-110780000D01*
X83120000Y-84854993D02*
X83120000Y-98600000D01*
X85267011Y-100747011D02*
X85267011Y-108902989D01*
X83120000Y-98600000D02*
X85267011Y-100747011D01*
X83390000Y-110780000D02*
X83390000Y-112210000D01*
%TO.N,VBUS_DC*%
X100220000Y-63335338D02*
X100220000Y-66900000D01*
X100220000Y-66900000D02*
X82520000Y-84600000D01*
X82520000Y-98880000D02*
X84340000Y-100700000D01*
X82520000Y-84600000D02*
X82520000Y-98880000D01*
X82961452Y-115460000D02*
X83750000Y-115460000D01*
X84340000Y-100700000D02*
X84340000Y-108800000D01*
X84340000Y-108800000D02*
X80420000Y-112720000D01*
X80420000Y-112720000D02*
X80420000Y-112918548D01*
X80420000Y-112918548D02*
X82961452Y-115460000D01*
%TO.N,D-_DC*%
X102990000Y-63048683D02*
X102081144Y-62139827D01*
X97019856Y-62139827D02*
X96300489Y-62859194D01*
X82869511Y-116109511D02*
X84019037Y-116109511D01*
X102081144Y-62139827D02*
X97019856Y-62139827D01*
X96300489Y-64314194D02*
X97685489Y-65699194D01*
X79920481Y-113160481D02*
X82869511Y-116109511D01*
X96300489Y-62859194D02*
X96300489Y-64314194D01*
X84019037Y-116109511D02*
X84440000Y-115688548D01*
X79920481Y-86469519D02*
X79920481Y-113160481D01*
X97685489Y-65699194D02*
X97685489Y-68704511D01*
X97685489Y-68704511D02*
X79920481Y-86469519D01*
X84440000Y-115688548D02*
X84440000Y-115200000D01*
X83820000Y-114580000D02*
X83000000Y-114580000D01*
X84440000Y-115200000D02*
X83820000Y-114580000D01*
%TO.N,unconnected-(J22-Pad0)*%
X82210000Y-64709338D02*
X84642662Y-64709338D01*
X84642662Y-64709338D02*
X88632000Y-60720000D01*
X125320662Y-60720000D02*
X129310000Y-64709338D01*
X88632000Y-60720000D02*
X125320662Y-60720000D01*
%TO.N,GND*%
X112600000Y-104500000D02*
X116570000Y-108470000D01*
X116570000Y-108470000D02*
X121680000Y-108470000D01*
D29*
%TO.N,+5V*%
X163800000Y-46700000D02*
X173041250Y-46700000D01*
X173041250Y-46700000D02*
X175750000Y-49408750D01*
X175750000Y-49408750D02*
X175750000Y-51503750D01*
X158600000Y-51900000D02*
X163800000Y-46700000D01*
D27*
%TO.N,MAINT_CLOCK*%
X170330000Y-85170000D02*
X124170000Y-85170000D01*
X124170000Y-85170000D02*
X124040000Y-85040000D01*
X183520000Y-78275000D02*
X177875000Y-83920000D01*
X171580000Y-83920000D02*
X170330000Y-85170000D01*
X177875000Y-83920000D02*
X171580000Y-83920000D01*
%TO.N,LDP_CLOCK*%
X183090202Y-69281250D02*
X168430963Y-83940489D01*
X183450000Y-69281250D02*
X183090202Y-69281250D01*
X121840000Y-85541452D02*
X123241424Y-86942876D01*
X123241424Y-86942876D02*
X124459088Y-86942876D01*
X121840000Y-84691452D02*
X121840000Y-85541452D01*
X168430963Y-83940489D02*
X122590963Y-83940489D01*
X122590963Y-83940489D02*
X121840000Y-84691452D01*
%TO.N,VU2_CLOCK*%
X158950480Y-70739520D02*
X167430000Y-62260000D01*
X108760000Y-86120000D02*
X108650000Y-86120000D01*
X111183698Y-77396302D02*
X111350000Y-77230000D01*
X118130000Y-78570000D02*
X125960480Y-70739520D01*
X108650000Y-86120000D02*
X107420000Y-84890000D01*
X107420000Y-84890000D02*
X107420000Y-81550000D01*
X125960480Y-70739520D02*
X158950480Y-70739520D01*
X167430000Y-62260000D02*
X181327500Y-62260000D01*
X107420000Y-81550000D02*
X110960000Y-78010000D01*
X110990000Y-78010000D02*
X111183698Y-77816302D01*
X111350000Y-77230000D02*
X112598596Y-77230000D01*
X112598596Y-77230000D02*
X113938596Y-78570000D01*
X111183698Y-77816302D02*
X111183698Y-77396302D01*
X110960000Y-78010000D02*
X110990000Y-78010000D01*
X181327500Y-62260000D02*
X183360000Y-60227500D01*
X113938596Y-78570000D02*
X118130000Y-78570000D01*
%TO.N,DP_DATA_IN*%
X129020000Y-88990000D02*
X128550000Y-89460000D01*
X183331250Y-84530000D02*
X173680000Y-84530000D01*
X128550000Y-89460000D02*
X127450000Y-89460000D01*
X169220000Y-88990000D02*
X129020000Y-88990000D01*
X173680000Y-84530000D02*
X169220000Y-88990000D01*
X186010000Y-87208750D02*
X183331250Y-84530000D01*
%TO.N,DP_CLOCK*%
X172580000Y-86910000D02*
X174090000Y-85400000D01*
X152360000Y-90910000D02*
X153410000Y-89860000D01*
X125120000Y-90910000D02*
X152360000Y-90910000D01*
X181661250Y-85400000D02*
X183470000Y-87208750D01*
X112879511Y-78460963D02*
X112879511Y-78669511D01*
X172580000Y-89340000D02*
X172580000Y-86910000D01*
X112250000Y-77900000D02*
X112318548Y-77900000D01*
X172060000Y-89860000D02*
X172580000Y-89340000D01*
X174090000Y-85400000D02*
X181661250Y-85400000D01*
X112318548Y-77900000D02*
X112879511Y-78460963D01*
X112879511Y-78669511D02*
X125120000Y-90910000D01*
X153410000Y-89860000D02*
X172060000Y-89860000D01*
%TO.N,DP_LOAD*%
X153411452Y-92240000D02*
X125070000Y-92240000D01*
X177518750Y-90620000D02*
X155031452Y-90620000D01*
X112230000Y-78991452D02*
X112230000Y-78730000D01*
X180930000Y-87208750D02*
X177518750Y-90620000D01*
X125070000Y-92240000D02*
X125070000Y-91831452D01*
X125070000Y-91831452D02*
X112230000Y-78991452D01*
X155031452Y-90620000D02*
X153411452Y-92240000D01*
%TO.N,SPECTRUM_RIGHT*%
X185830000Y-114090000D02*
X184910000Y-115010000D01*
X104410000Y-79721452D02*
X104410000Y-76580000D01*
X184910000Y-115010000D02*
X172310000Y-115010000D01*
X172310000Y-115010000D02*
X170630000Y-113330000D01*
X104090000Y-80041452D02*
X104410000Y-79721452D01*
X112220489Y-95210489D02*
X104090000Y-87080000D01*
X185830000Y-112240000D02*
X185830000Y-114090000D01*
X121030000Y-104230000D02*
X113559037Y-96759037D01*
X170630000Y-108990000D02*
X168790000Y-107150000D01*
X104090000Y-87080000D02*
X104090000Y-80041452D01*
X113559037Y-96759037D02*
X113559037Y-96509511D01*
X134310000Y-107150000D02*
X131390000Y-104230000D01*
X104410000Y-76580000D02*
X108380000Y-72610000D01*
X170630000Y-113330000D02*
X170630000Y-108990000D01*
X168790000Y-107150000D02*
X134310000Y-107150000D01*
X108380000Y-72610000D02*
X113780000Y-72610000D01*
X113939511Y-95590963D02*
X113559037Y-95210489D01*
X113559037Y-96509511D02*
X113939511Y-96129037D01*
X113559037Y-95210489D02*
X112220489Y-95210489D01*
X131390000Y-104230000D02*
X121030000Y-104230000D01*
X113939511Y-96129037D02*
X113939511Y-95590963D01*
%TO.N,SPECTRUM_LEFT*%
X108892512Y-90942512D02*
X109997488Y-90942512D01*
X104909520Y-79928359D02*
X104800000Y-80037879D01*
X168766427Y-106420000D02*
X171370000Y-109023573D01*
X171370000Y-113363572D02*
X172266428Y-114260000D01*
X104800000Y-86850000D02*
X108892512Y-90942512D01*
X172780000Y-114280000D02*
X182980000Y-114280000D01*
X114250000Y-76533572D02*
X113126428Y-75410000D01*
X115184976Y-96130000D02*
X115280000Y-96130000D01*
X134870000Y-106420000D02*
X168766427Y-106420000D01*
X109180000Y-75410000D02*
X104909520Y-79680480D01*
X114250000Y-76550000D02*
X114250000Y-76533572D01*
X120836428Y-103330000D02*
X131780000Y-103330000D01*
X172266428Y-114260000D02*
X172760000Y-114260000D01*
X104909520Y-79680480D02*
X104909520Y-79928359D01*
X171370000Y-109023573D02*
X171370000Y-113363572D01*
X113126428Y-75410000D02*
X109180000Y-75410000D01*
X115280000Y-97773572D02*
X120836428Y-103330000D01*
X115280000Y-96130000D02*
X115280000Y-97773572D01*
X104800000Y-80037879D02*
X104800000Y-86850000D01*
X183290000Y-113970000D02*
X183290000Y-112240000D01*
X182980000Y-114280000D02*
X183290000Y-113970000D01*
X172760000Y-114260000D02*
X172780000Y-114280000D01*
X109997488Y-90942512D02*
X115184976Y-96130000D01*
X131780000Y-103330000D02*
X134870000Y-106420000D01*
%TO.N,VU_RESET*%
X123630000Y-101770000D02*
X120510000Y-98650000D01*
X134500000Y-101770000D02*
X123630000Y-101770000D01*
X173670000Y-105270000D02*
X138000000Y-105270000D01*
X180640000Y-112240000D02*
X173670000Y-105270000D01*
X138000000Y-105270000D02*
X134500000Y-101770000D01*
X120510000Y-98650000D02*
X120191452Y-98650000D01*
X120191452Y-98650000D02*
X112810000Y-91268548D01*
X180750000Y-112240000D02*
X180640000Y-112240000D01*
X112810000Y-91268548D02*
X112810000Y-89000000D01*
%TO.N,VU_STROBE*%
X178210000Y-112240000D02*
X171770000Y-105800000D01*
X122111452Y-102530000D02*
X118950489Y-99369037D01*
X171770000Y-105800000D02*
X137170000Y-105800000D01*
X137170000Y-105800000D02*
X133900000Y-102530000D01*
X109780000Y-89440000D02*
X109000000Y-89440000D01*
X118950489Y-98610489D02*
X109780000Y-89440000D01*
X133900000Y-102530000D02*
X122111452Y-102530000D01*
X118950489Y-99369037D02*
X118950489Y-98610489D01*
%TO.N,VU2_DATA*%
X113600489Y-76690489D02*
X113600489Y-76819037D01*
X109840000Y-75920000D02*
X112830000Y-75920000D01*
X113600489Y-76819037D02*
X114071452Y-77290000D01*
X122170000Y-70240000D02*
X157880000Y-70240000D01*
X108560000Y-88590000D02*
X107345025Y-88590000D01*
X107345025Y-88590000D02*
X105480000Y-86724975D01*
X112830000Y-75920000D02*
X113600489Y-76690489D01*
X105480000Y-86724975D02*
X105480000Y-80280000D01*
X105480000Y-80280000D02*
X109840000Y-75920000D01*
X115120000Y-77290000D02*
X122170000Y-70240000D01*
X114071452Y-77290000D02*
X115120000Y-77290000D01*
X157880000Y-70240000D02*
X169395000Y-58725000D01*
%TO.N,EXT_MIC*%
X107760000Y-87470000D02*
X107570000Y-87660000D01*
X117627880Y-95380000D02*
X113818940Y-91571060D01*
X179640000Y-110310000D02*
X173830000Y-104500000D01*
X185790000Y-107190000D02*
X182670000Y-110310000D01*
X113818940Y-91571060D02*
X113818940Y-90601060D01*
X182670000Y-110310000D02*
X179640000Y-110310000D01*
X114740000Y-87780000D02*
X114430000Y-87470000D01*
X173830000Y-104500000D02*
X138540000Y-104500000D01*
X113818940Y-90601060D02*
X114740000Y-89680000D01*
X120230000Y-97663572D02*
X120230000Y-96030000D01*
X114025024Y-77950000D02*
X116470000Y-77950000D01*
X106200000Y-86738548D02*
X106200000Y-80600000D01*
X107570000Y-87660000D02*
X107121452Y-87660000D01*
X185790000Y-103816250D02*
X185790000Y-107190000D01*
X138540000Y-104500000D02*
X135130000Y-101090000D01*
X112660000Y-76470000D02*
X113100969Y-76910969D01*
X113100969Y-76910969D02*
X113100970Y-77025946D01*
X135130000Y-101090000D02*
X123656428Y-101090000D01*
X120230000Y-96030000D02*
X119580000Y-95380000D01*
X119580000Y-95380000D02*
X117627880Y-95380000D01*
X114740000Y-89680000D02*
X114740000Y-87780000D01*
X123656428Y-101090000D02*
X120230000Y-97663572D01*
X113100970Y-77025946D02*
X114025024Y-77950000D01*
X116470000Y-77950000D02*
X117400000Y-77020000D01*
X107121452Y-87660000D02*
X106200000Y-86738548D01*
X114430000Y-87470000D02*
X107760000Y-87470000D01*
X106200000Y-80600000D02*
X110330000Y-76470000D01*
X110330000Y-76470000D02*
X112660000Y-76470000D01*
%TO.N,RX_MP*%
X103510489Y-91700489D02*
X99150000Y-87340000D01*
X131234520Y-107075480D02*
X131234520Y-105474859D01*
X129790000Y-108520000D02*
X131234520Y-107075480D01*
X87910489Y-89869511D02*
X87910489Y-95450489D01*
X90440000Y-87340000D02*
X87910489Y-89869511D01*
X121480480Y-104760480D02*
X121470000Y-104750000D01*
X99150000Y-87340000D02*
X90440000Y-87340000D01*
X87910489Y-95450489D02*
X93030000Y-100570000D01*
X107726917Y-91700489D02*
X103510489Y-91700489D01*
X121470000Y-104750000D02*
X120776428Y-104750000D01*
X120776428Y-104750000D02*
X107726917Y-91700489D01*
X131234520Y-105474859D02*
X130520141Y-104760480D01*
X130520141Y-104760480D02*
X121480480Y-104760480D01*
%TO.N,TX_MP*%
X103618548Y-93100000D02*
X99428548Y-88910000D01*
X129160489Y-106609511D02*
X121929511Y-106609511D01*
X99428548Y-88910000D02*
X92960000Y-88910000D01*
X92960000Y-88910000D02*
X91380000Y-90490000D01*
X108420000Y-93100000D02*
X103618548Y-93100000D01*
X129790000Y-105980000D02*
X129160489Y-106609511D01*
X121929511Y-106609511D02*
X108420000Y-93100000D01*
%TO.N,YELLOW_LED*%
X120990000Y-93820000D02*
X117280000Y-90110000D01*
X117280000Y-88020000D02*
X115930000Y-86670000D01*
X117280000Y-90110000D02*
X117280000Y-88020000D01*
X115830489Y-86769511D02*
X107350489Y-86769511D01*
X107350489Y-86769511D02*
X107250000Y-86870000D01*
X115930000Y-86670000D02*
X115830489Y-86769511D01*
X173410000Y-93820000D02*
X120990000Y-93820000D01*
%TO.N,GREEN_LED*%
X171449520Y-93320480D02*
X121196908Y-93320480D01*
X121196908Y-93320480D02*
X118098214Y-90221786D01*
X115930000Y-85963572D02*
X115930000Y-84470000D01*
X173480000Y-91290000D02*
X171449520Y-93320480D01*
X173840000Y-91290000D02*
X173480000Y-91290000D01*
X118098214Y-88131787D02*
X115930000Y-85963572D01*
X118098214Y-90221786D02*
X118098214Y-88131787D01*
%TO.N,RED_LED*%
X121110489Y-94790489D02*
X116500000Y-90180000D01*
X172420489Y-94790489D02*
X121110489Y-94790489D01*
X116500000Y-90180000D02*
X116500000Y-88340000D01*
X173070000Y-95440000D02*
X172420489Y-94790489D01*
%TO.N,TX_BS*%
X96220000Y-102330000D02*
X96220000Y-102250000D01*
X137335480Y-109739520D02*
X103629520Y-109739520D01*
X103629520Y-109739520D02*
X96220000Y-102330000D01*
X138555000Y-108520000D02*
X137335480Y-109739520D01*
%TO.N,RX_BS*%
X138240000Y-110980000D02*
X136940480Y-112279520D01*
X103290492Y-110239040D02*
X95570000Y-102518548D01*
X95570000Y-101540000D02*
X97950000Y-99160000D01*
X115050480Y-112279520D02*
X113010000Y-110239040D01*
X138320000Y-111060000D02*
X138240000Y-110980000D01*
X138555000Y-111060000D02*
X138320000Y-111060000D01*
X95570000Y-102518548D02*
X95570000Y-101540000D01*
X113010000Y-110239040D02*
X103290492Y-110239040D01*
X136940480Y-112279520D02*
X115050480Y-112279520D01*
%TO.N,TX_FU*%
X102860000Y-97110000D02*
X99081452Y-97110000D01*
X94250000Y-101941452D02*
X94250000Y-102250000D01*
X99081452Y-97110000D02*
X94250000Y-101941452D01*
X106360000Y-100610000D02*
X102860000Y-97110000D01*
X112480000Y-100610000D02*
X106360000Y-100610000D01*
%TD*%
M02*
