%TF.GenerationSoftware,KiCad,Pcbnew,(6.0.0-0)*%
%TF.CreationDate,2022-02-03T16:21:43-05:00*%
%TF.ProjectId,Coin_Slots,436f696e-5f53-46c6-9f74-732e6b696361,rev?*%
%TF.SameCoordinates,Original*%
%TF.FileFunction,Soldermask,Top*%
%TF.FilePolarity,Negative*%
%FSLAX46Y46*%
G04 Gerber Fmt 4.6, Leading zero omitted, Abs format (unit mm)*
G04 Created by KiCad (PCBNEW (6.0.0-0)) date 2022-02-03 16:21:43*
%MOMM*%
%LPD*%
G01*
G04 APERTURE LIST*
%ADD10R,1.100000X2.000000*%
%ADD11R,1.700000X1.700000*%
%ADD12O,1.700000X1.700000*%
G04 APERTURE END LIST*
D10*
%TO.C,D5*%
X115902000Y-124303000D03*
X117602000Y-124303000D03*
X119302000Y-124303000D03*
X119302000Y-119503000D03*
X117602000Y-119503000D03*
X115902000Y-119503000D03*
%TD*%
%TO.C,D9*%
X115902000Y-83027000D03*
X117602000Y-83027000D03*
X119302000Y-83027000D03*
X119302000Y-78227000D03*
X117602000Y-78227000D03*
X115902000Y-78227000D03*
%TD*%
%TO.C,D11*%
X115902000Y-62389000D03*
X117602000Y-62389000D03*
X119302000Y-62389000D03*
X119302000Y-57589000D03*
X117602000Y-57589000D03*
X115902000Y-57589000D03*
%TD*%
%TO.C,D4*%
X132412000Y-144941000D03*
X134112000Y-144941000D03*
X135812000Y-144941000D03*
X135812000Y-140141000D03*
X134112000Y-140141000D03*
X132412000Y-140141000D03*
%TD*%
%TO.C,D10*%
X132412000Y-83027000D03*
X134112000Y-83027000D03*
X135812000Y-83027000D03*
X135812000Y-78227000D03*
X134112000Y-78227000D03*
X132412000Y-78227000D03*
%TD*%
%TO.C,D7*%
X115902000Y-103665000D03*
X117602000Y-103665000D03*
X119302000Y-103665000D03*
X119302000Y-98865000D03*
X117602000Y-98865000D03*
X115902000Y-98865000D03*
%TD*%
%TO.C,D2*%
X132412000Y-165579000D03*
X134112000Y-165579000D03*
X135812000Y-165579000D03*
X135812000Y-160779000D03*
X134112000Y-160779000D03*
X132412000Y-160779000D03*
%TD*%
%TO.C,D3*%
X115902000Y-144941000D03*
X117602000Y-144941000D03*
X119302000Y-144941000D03*
X119302000Y-140141000D03*
X117602000Y-140141000D03*
X115902000Y-140141000D03*
%TD*%
%TO.C,D12*%
X132412000Y-62389000D03*
X134112000Y-62389000D03*
X135812000Y-62389000D03*
X135812000Y-57589000D03*
X134112000Y-57589000D03*
X132412000Y-57589000D03*
%TD*%
%TO.C,D1*%
X115902000Y-165579000D03*
X117602000Y-165579000D03*
X119302000Y-165579000D03*
X119302000Y-160779000D03*
X117602000Y-160779000D03*
X115902000Y-160779000D03*
%TD*%
%TO.C,D8*%
X132412000Y-103665000D03*
X134112000Y-103665000D03*
X135812000Y-103665000D03*
X135812000Y-98865000D03*
X134112000Y-98865000D03*
X132412000Y-98865000D03*
%TD*%
%TO.C,D6*%
X132412000Y-124303000D03*
X134112000Y-124303000D03*
X135812000Y-124303000D03*
X135812000Y-119503000D03*
X134112000Y-119503000D03*
X132412000Y-119503000D03*
%TD*%
D11*
%TO.C,J1*%
X109474000Y-66802000D03*
D12*
X109474000Y-69342000D03*
X109474000Y-71882000D03*
X109474000Y-74422000D03*
X109474000Y-76962000D03*
X109474000Y-79502000D03*
%TD*%
M02*
