M48
; DRILL file {KiCad 9.0.2} date 2026-06-27T14:43:15-0400
; FORMAT={-:-/ absolute / metric / decimal}
; #@! TF.CreationDate,2026-06-27T14:43:15-04:00
; #@! TF.GenerationSoftware,Kicad,Pcbnew,9.0.2
; #@! TF.FileFunction,Plated,1,4,PTH
FMAT,2
METRIC
; #@! TA.AperFunction,Plated,PTH,ComponentDrill
T1C0.800
; #@! TA.AperFunction,Plated,PTH,ComponentDrill
T2C0.850
; #@! TA.AperFunction,Plated,PTH,ComponentDrill
T3C1.000
; #@! TA.AperFunction,Plated,PTH,ComponentDrill
T4C1.020
; #@! TA.AperFunction,Plated,PTH,ComponentDrill
T5C1.100
; #@! TA.AperFunction,Plated,PTH,ComponentDrill
T6C1.300
%
G90
G05
T1
X123.575Y-70.745
X123.575Y-80.905
X123.65Y-60.975
X123.65Y-65.975
X124.0Y-55.525
X124.0Y-57.525
X129.2Y-56.025
X129.2Y-58.025
X129.2Y-60.025
X129.2Y-62.025
X129.2Y-64.025
X129.2Y-66.025
X129.2Y-68.025
X129.2Y-70.025
X129.2Y-72.025
X129.2Y-74.025
X151.196Y-56.025
X151.196Y-58.025
X151.196Y-60.025
X151.196Y-62.025
X151.196Y-64.025
X151.196Y-66.025
X151.196Y-68.025
X151.196Y-70.025
X151.196Y-72.025
X151.196Y-74.025
X162.01Y-64.49
X163.53Y-93.59
X163.53Y-98.59
X165.61Y-115.96
X165.65Y-119.14
X167.01Y-64.49
X168.57Y-96.27
X170.57Y-96.27
X171.735Y-64.64
X173.735Y-64.64
X175.77Y-115.96
X175.81Y-119.14
T2
X137.08Y-107.666
X137.08Y-110.206
X137.08Y-112.746
X137.08Y-115.286
X137.08Y-117.826
X137.08Y-120.366
X137.08Y-122.906
X152.32Y-107.666
X152.32Y-110.206
X152.32Y-112.746
X152.32Y-115.286
X152.32Y-117.826
X152.32Y-120.366
X152.32Y-122.906
T3
X126.93Y-85.43
X126.93Y-89.126
X126.93Y-92.821
X127.165Y-98.3
X127.72Y-102.793
X127.91Y-108.123
X129.47Y-85.43
X129.47Y-89.126
X129.47Y-92.821
X129.705Y-98.3
X130.26Y-102.793
X130.45Y-108.123
X132.01Y-85.43
X132.01Y-89.126
X132.01Y-92.821
X132.245Y-98.3
X134.55Y-85.43
X134.55Y-89.126
X134.55Y-92.821
X134.785Y-98.3
X139.587Y-96.83
X139.71Y-91.18
X139.76Y-85.583
X142.127Y-96.83
X142.25Y-91.18
X142.3Y-85.583
X144.667Y-96.83
X144.79Y-91.18
X144.84Y-85.583
X147.207Y-96.83
X147.33Y-91.18
X147.38Y-85.583
T4
X157.0Y-65.43
X157.0Y-67.97
X157.0Y-70.51
X157.0Y-73.05
X157.0Y-75.59
X157.0Y-78.13
X157.0Y-80.67
X157.0Y-83.21
X157.0Y-85.75
X157.0Y-88.29
X157.0Y-90.83
X157.0Y-93.37
X157.0Y-95.91
X157.0Y-98.45
X157.0Y-100.99
X157.0Y-103.53
X157.0Y-106.07
X157.0Y-108.61
X157.0Y-111.15
X157.0Y-113.69
X157.0Y-116.23
X157.0Y-118.77
X179.86Y-65.43
X179.86Y-67.97
X179.86Y-70.51
X179.86Y-73.05
X179.86Y-75.59
X179.86Y-78.13
X179.86Y-80.67
X179.86Y-83.21
X179.86Y-85.75
X179.86Y-88.29
X179.86Y-90.83
X179.86Y-93.37
X179.86Y-95.91
X179.86Y-98.45
X179.86Y-100.99
X179.86Y-103.53
X179.86Y-106.07
X179.86Y-108.61
X179.86Y-111.15
X179.86Y-113.69
X179.86Y-116.23
X179.86Y-118.77
X182.4Y-65.43
X182.4Y-67.94
X182.4Y-70.51
X182.4Y-73.05
X182.4Y-75.59
X182.4Y-78.13
X182.4Y-80.67
X182.4Y-83.21
X182.4Y-85.75
X182.4Y-88.29
X182.4Y-90.83
X182.4Y-93.37
X182.4Y-95.91
X182.4Y-98.45
X182.4Y-100.99
X182.4Y-103.53
X182.4Y-106.07
X182.4Y-108.61
X182.4Y-111.15
X182.4Y-113.69
X182.4Y-116.23
X182.4Y-118.77
T5
X166.774Y-87.4
X169.314Y-87.4
X171.855Y-87.4
T6
X126.355Y-117.453
X131.435Y-117.453
M30
