%TF.GenerationSoftware,KiCad,Pcbnew,(6.0.0-0)*%
%TF.CreationDate,2022-12-05T13:27:29-05:00*%
%TF.ProjectId,Body_Servos,426f6479-5f53-4657-9276-6f732e6b6963,rev?*%
%TF.SameCoordinates,Original*%
%TF.FileFunction,Copper,L4,Bot*%
%TF.FilePolarity,Positive*%
%FSLAX46Y46*%
G04 Gerber Fmt 4.6, Leading zero omitted, Abs format (unit mm)*
G04 Created by KiCad (PCBNEW (6.0.0-0)) date 2022-12-05 13:27:29*
%MOMM*%
%LPD*%
G01*
G04 APERTURE LIST*
G04 Aperture macros list*
%AMRoundRect*
0 Rectangle with rounded corners*
0 $1 Rounding radius*
0 $2 $3 $4 $5 $6 $7 $8 $9 X,Y pos of 4 corners*
0 Add a 4 corners polygon primitive as box body*
4,1,4,$2,$3,$4,$5,$6,$7,$8,$9,$2,$3,0*
0 Add four circle primitives for the rounded corners*
1,1,$1+$1,$2,$3*
1,1,$1+$1,$4,$5*
1,1,$1+$1,$6,$7*
1,1,$1+$1,$8,$9*
0 Add four rect primitives between the rounded corners*
20,1,$1+$1,$2,$3,$4,$5,0*
20,1,$1+$1,$4,$5,$6,$7,0*
20,1,$1+$1,$6,$7,$8,$9,0*
20,1,$1+$1,$8,$9,$2,$3,0*%
G04 Aperture macros list end*
%TA.AperFunction,ComponentPad*%
%ADD10R,2.400000X2.400000*%
%TD*%
%TA.AperFunction,ComponentPad*%
%ADD11C,2.400000*%
%TD*%
%TA.AperFunction,ComponentPad*%
%ADD12RoundRect,0.250000X0.845000X-0.620000X0.845000X0.620000X-0.845000X0.620000X-0.845000X-0.620000X0*%
%TD*%
%TA.AperFunction,ComponentPad*%
%ADD13O,2.190000X1.740000*%
%TD*%
%TA.AperFunction,ComponentPad*%
%ADD14O,0.890000X1.550000*%
%TD*%
%TA.AperFunction,ComponentPad*%
%ADD15O,1.250000X0.950000*%
%TD*%
%TA.AperFunction,ComponentPad*%
%ADD16C,1.524000*%
%TD*%
%TA.AperFunction,ComponentPad*%
%ADD17C,2.600000*%
%TD*%
%TA.AperFunction,ComponentPad*%
%ADD18C,2.300000*%
%TD*%
%TA.AperFunction,ViaPad*%
%ADD19C,0.800000*%
%TD*%
%TA.AperFunction,Conductor*%
%ADD20C,0.254000*%
%TD*%
%TA.AperFunction,Conductor*%
%ADD21C,1.000000*%
%TD*%
G04 APERTURE END LIST*
D10*
%TO.P,J5,1,Pin_1*%
%TO.N,GND*%
X66273333Y-93390000D03*
D11*
%TO.P,J5,2,Pin_2*%
%TO.N,+12V*%
X66273333Y-96890000D03*
%TD*%
D12*
%TO.P,J3,1,Pin_1*%
%TO.N,GND*%
X108404000Y-93766000D03*
D13*
%TO.P,J3,2,Pin_2*%
%TO.N,+5V*%
X108404000Y-91226000D03*
%TO.P,J3,3,Pin_3*%
%TO.N,AUX1-1*%
X108404000Y-88686000D03*
%TO.P,J3,4,Pin_4*%
%TO.N,AUX1-2*%
X108404000Y-86146000D03*
%TD*%
D14*
%TO.P,J1,6,Shield*%
%TO.N,unconnected-(J1-Pad6)*%
X77020000Y-134060000D03*
X84020000Y-134060000D03*
D15*
X78020000Y-131360000D03*
X83020000Y-131360000D03*
%TD*%
D10*
%TO.P,J8,1,Pin_1*%
%TO.N,GND*%
X86298000Y-94410000D03*
D11*
%TO.P,J8,2,Pin_2*%
%TO.N,+5V*%
X82798000Y-94410000D03*
%TD*%
D12*
%TO.P,J2,1,Pin_1*%
%TO.N,GND*%
X126208000Y-93766000D03*
D13*
%TO.P,J2,2,Pin_2*%
%TO.N,+5V*%
X126208000Y-91226000D03*
%TO.P,J2,3,Pin_3*%
%TO.N,AUX3-1*%
X126208000Y-88686000D03*
%TO.P,J2,4,Pin_4*%
%TO.N,AUX3-2*%
X126208000Y-86146000D03*
%TD*%
D16*
%TO.P,U7,1,GND*%
%TO.N,GND*%
X69247000Y-116800000D03*
%TO.P,U7,2,OE*%
%TO.N,unconnected-(U7-Pad2)*%
X69247000Y-119340000D03*
%TO.P,U7,3,SCL*%
%TO.N,SCL*%
X69247000Y-121880000D03*
%TO.P,U7,4,SDA*%
%TO.N,SDA*%
X69247000Y-124420000D03*
%TO.P,U7,5,VCC*%
%TO.N,+3.3V*%
X69247000Y-126960000D03*
%TO.P,U7,6,V+*%
%TO.N,+5V*%
X69247000Y-129500000D03*
%TO.P,U7,7,GND*%
%TO.N,GND*%
X127413000Y-116800000D03*
%TO.P,U7,8,OE*%
%TO.N,unconnected-(U7-Pad8)*%
X127413000Y-119340000D03*
%TO.P,U7,9,SCL*%
%TO.N,SCL*%
X127413000Y-121880000D03*
%TO.P,U7,10,SDA*%
%TO.N,SDA*%
X127413000Y-124420000D03*
%TO.P,U7,11,VCC*%
%TO.N,+3.3V*%
X127413000Y-126960000D03*
%TO.P,U7,12,V+*%
%TO.N,+5V*%
X127413000Y-129500000D03*
D17*
%TO.P,U7,13*%
%TO.N,N/C*%
X70517000Y-113625000D03*
X126143000Y-113625000D03*
X126143000Y-132675000D03*
X70517000Y-132675000D03*
%TD*%
D16*
%TO.P,U6,1,VOUT*%
%TO.N,+5V*%
X92765000Y-102235000D03*
%TO.P,U6,2,GND*%
%TO.N,GND*%
X90225000Y-102235000D03*
%TO.P,U6,3,GND*%
X87685000Y-102235000D03*
%TO.P,U6,4,VIN*%
%TO.N,+12V*%
X85145000Y-102235000D03*
%TO.P,U6,5,VRP*%
%TO.N,unconnected-(U6-Pad5)*%
X82605000Y-102235000D03*
%TO.P,U6,6,EN*%
%TO.N,unconnected-(U6-Pad6)*%
X80065000Y-102235000D03*
%TO.P,U6,7,PG*%
%TO.N,unconnected-(U6-Pad7)*%
X80065000Y-104775000D03*
%TO.P,U6,8,VRP*%
%TO.N,unconnected-(U6-Pad8)*%
X82605000Y-104775000D03*
%TO.P,U6,9,VIN*%
%TO.N,+12V*%
X85145000Y-104775000D03*
%TO.P,U6,10,GND*%
%TO.N,GND*%
X87685000Y-104775000D03*
%TO.P,U6,11,GND*%
X90225000Y-104775000D03*
%TO.P,U6,12,VOUT*%
%TO.N,+5V*%
X92765000Y-104775000D03*
D18*
%TO.P,U6,13*%
%TO.N,N/C*%
X97015000Y-103165000D03*
%TO.P,U6,14*%
X75815000Y-103165000D03*
%TO.P,U6,15*%
X75815000Y-124165000D03*
%TD*%
D10*
%TO.P,J6,1,Pin_1*%
%TO.N,GND*%
X66273333Y-102650000D03*
D11*
%TO.P,J6,2,Pin_2*%
%TO.N,+12V*%
X66273333Y-106150000D03*
%TD*%
D12*
%TO.P,J4,1,Pin_1*%
%TO.N,GND*%
X117554000Y-93766000D03*
D13*
%TO.P,J4,2,Pin_2*%
%TO.N,+5V*%
X117554000Y-91226000D03*
%TO.P,J4,3,Pin_3*%
%TO.N,AUX2-1*%
X117554000Y-88686000D03*
%TO.P,J4,4,Pin_4*%
%TO.N,AUX2-2*%
X117554000Y-86146000D03*
%TD*%
D12*
%TO.P,J12,1,Pin_1*%
%TO.N,GND*%
X100028000Y-93766000D03*
D13*
%TO.P,J12,2,Pin_2*%
%TO.N,RX_FU*%
X100028000Y-91226000D03*
%TO.P,J12,3,Pin_3*%
%TO.N,TX_FU*%
X100028000Y-88686000D03*
%TD*%
D10*
%TO.P,J7,1,Pin_1*%
%TO.N,GND*%
X76834666Y-94410000D03*
D11*
%TO.P,J7,2,Pin_2*%
%TO.N,+5V*%
X73334666Y-94410000D03*
%TD*%
D19*
%TO.N,RX_FU*%
X107666000Y-122746000D03*
%TO.N,GND*%
X98522000Y-119698000D03*
X85560000Y-130350000D03*
X115878500Y-113686500D03*
X101200000Y-114734000D03*
X96236000Y-97600000D03*
X110206000Y-123254000D03*
X110633500Y-113428500D03*
%TO.N,+3.3V*%
X87346000Y-99886000D03*
X93188000Y-123000000D03*
%TO.N,VBUS*%
X79472000Y-128334000D03*
X94712000Y-125032000D03*
%TO.N,D-*%
X94458000Y-131128000D03*
X80234000Y-129350000D03*
%TO.N,D+*%
X92934000Y-131382000D03*
X81758000Y-128588000D03*
%TO.N,+5V*%
X119096000Y-129350000D03*
X102586000Y-123762000D03*
X101316000Y-129096000D03*
%TO.N,ST_LED_D*%
X96490000Y-93536000D03*
X119604000Y-123508000D03*
%TO.N,TX_FU*%
X116556000Y-122746000D03*
%TO.N,TXD0*%
X119731000Y-113475000D03*
X87346000Y-129604000D03*
%TO.N,RXD0*%
X119477000Y-115507000D03*
X88174443Y-131569557D03*
%TO.N,RESET*%
X107666000Y-113094000D03*
X95220000Y-95314000D03*
%TO.N,AUX3-1*%
X124811000Y-123127000D03*
%TO.N,AUX3-2*%
X124684000Y-120206000D03*
%TO.N,AUX1-1*%
X107666000Y-120460000D03*
%TO.N,AUX1-2*%
X107920000Y-118428000D03*
%TO.N,AUX2-1*%
X118080000Y-120206000D03*
%TO.N,AUX2-2*%
X116810000Y-116142000D03*
%TD*%
D20*
%TO.N,+3.3V*%
X127413000Y-126960000D02*
X127263000Y-126810000D01*
X95474000Y-123000000D02*
X93188000Y-123000000D01*
X127263000Y-126810000D02*
X99284000Y-126810000D01*
X99284000Y-126810000D02*
X95474000Y-123000000D01*
D21*
%TO.N,+5V*%
X119246000Y-129500000D02*
X119096000Y-129350000D01*
X127413000Y-129500000D02*
X119246000Y-129500000D01*
%TD*%
%TA.AperFunction,Conductor*%
%TO.N,GND*%
G36*
X94696241Y-86653232D02*
G01*
X106837174Y-86707975D01*
X106905204Y-86728284D01*
X106944325Y-86768608D01*
X107058220Y-86956300D01*
X107061159Y-86961144D01*
X107214483Y-87137834D01*
X107395386Y-87286165D01*
X107400016Y-87288801D01*
X107400021Y-87288804D01*
X107432516Y-87307301D01*
X107481822Y-87358384D01*
X107495683Y-87428015D01*
X107469699Y-87494085D01*
X107440550Y-87521323D01*
X107408061Y-87543196D01*
X107312104Y-87607798D01*
X107142832Y-87769276D01*
X107003187Y-87956965D01*
X107000771Y-87961716D01*
X107000769Y-87961720D01*
X106942756Y-88075823D01*
X106897162Y-88165500D01*
X106827790Y-88388917D01*
X106827089Y-88394204D01*
X106827089Y-88394205D01*
X106810055Y-88522727D01*
X106797052Y-88620829D01*
X106805828Y-88854604D01*
X106853868Y-89083559D01*
X106939797Y-89301146D01*
X107061159Y-89501144D01*
X107214483Y-89677834D01*
X107395386Y-89826165D01*
X107400016Y-89828801D01*
X107400021Y-89828804D01*
X107432516Y-89847301D01*
X107481822Y-89898384D01*
X107495683Y-89968015D01*
X107469699Y-90034085D01*
X107440550Y-90061323D01*
X107408061Y-90083196D01*
X107312104Y-90147798D01*
X107142832Y-90309276D01*
X107003187Y-90496965D01*
X107000771Y-90501716D01*
X107000769Y-90501720D01*
X106942756Y-90615823D01*
X106897162Y-90705500D01*
X106827790Y-90928917D01*
X106827089Y-90934204D01*
X106827089Y-90934205D01*
X106810055Y-91062727D01*
X106797052Y-91160829D01*
X106805828Y-91394604D01*
X106853868Y-91623559D01*
X106939797Y-91841146D01*
X107061159Y-92041144D01*
X107214483Y-92217834D01*
X107218615Y-92221222D01*
X107252201Y-92248761D01*
X107292196Y-92307421D01*
X107294127Y-92378391D01*
X107257383Y-92439139D01*
X107234843Y-92454220D01*
X107235268Y-92454906D01*
X107091193Y-92544063D01*
X107079792Y-92553099D01*
X106965261Y-92667829D01*
X106956249Y-92679240D01*
X106871184Y-92817243D01*
X106865037Y-92830424D01*
X106813862Y-92984710D01*
X106810995Y-92998086D01*
X106801328Y-93092438D01*
X106801000Y-93098855D01*
X106801000Y-93493885D01*
X106805475Y-93509124D01*
X106806865Y-93510329D01*
X106814548Y-93512000D01*
X109988884Y-93512000D01*
X110004123Y-93507525D01*
X110005328Y-93506135D01*
X110006999Y-93498452D01*
X110006999Y-93098905D01*
X110006662Y-93092386D01*
X109996743Y-92996794D01*
X109993851Y-92983400D01*
X109942412Y-92829216D01*
X109936239Y-92816038D01*
X109850937Y-92678193D01*
X109841901Y-92666792D01*
X109727171Y-92552261D01*
X109715760Y-92543249D01*
X109571525Y-92454342D01*
X109572817Y-92452245D01*
X109528308Y-92413044D01*
X109508856Y-92344764D01*
X109529407Y-92276807D01*
X109547878Y-92254614D01*
X109665168Y-92142724D01*
X109804813Y-91955035D01*
X109814313Y-91936351D01*
X109908420Y-91751256D01*
X109908420Y-91751255D01*
X109910838Y-91746500D01*
X109980210Y-91523083D01*
X109997239Y-91394604D01*
X110010248Y-91296455D01*
X110010248Y-91296451D01*
X110010948Y-91291171D01*
X110002172Y-91057396D01*
X109954132Y-90828441D01*
X109868203Y-90610854D01*
X109746841Y-90410856D01*
X109593517Y-90234166D01*
X109412614Y-90085835D01*
X109407984Y-90083199D01*
X109407979Y-90083196D01*
X109375484Y-90064699D01*
X109326178Y-90013616D01*
X109312317Y-89943985D01*
X109338301Y-89877915D01*
X109367450Y-89850677D01*
X109408885Y-89822781D01*
X109495896Y-89764202D01*
X109665168Y-89602724D01*
X109804813Y-89415035D01*
X109860398Y-89305709D01*
X109908420Y-89211256D01*
X109908420Y-89211255D01*
X109910838Y-89206500D01*
X109980210Y-88983083D01*
X109997239Y-88854604D01*
X110010248Y-88756455D01*
X110010248Y-88756451D01*
X110010948Y-88751171D01*
X110002172Y-88517396D01*
X109954132Y-88288441D01*
X109868203Y-88070854D01*
X109746841Y-87870856D01*
X109593517Y-87694166D01*
X109412614Y-87545835D01*
X109407980Y-87543197D01*
X109407979Y-87543196D01*
X109375484Y-87524699D01*
X109326178Y-87473616D01*
X109312317Y-87403985D01*
X109338301Y-87337915D01*
X109367450Y-87310677D01*
X109408885Y-87282781D01*
X109495896Y-87224202D01*
X109665168Y-87062724D01*
X109804813Y-86875035D01*
X109809539Y-86865741D01*
X109847563Y-86790952D01*
X109896266Y-86739294D01*
X109960448Y-86722058D01*
X112829563Y-86734995D01*
X116012279Y-86749345D01*
X116080308Y-86769654D01*
X116119429Y-86809978D01*
X116208220Y-86956300D01*
X116211159Y-86961144D01*
X116364483Y-87137834D01*
X116545386Y-87286165D01*
X116550016Y-87288801D01*
X116550021Y-87288804D01*
X116582516Y-87307301D01*
X116631822Y-87358384D01*
X116645683Y-87428015D01*
X116619699Y-87494085D01*
X116590550Y-87521323D01*
X116558061Y-87543196D01*
X116462104Y-87607798D01*
X116292832Y-87769276D01*
X116153187Y-87956965D01*
X116150771Y-87961716D01*
X116150769Y-87961720D01*
X116092756Y-88075823D01*
X116047162Y-88165500D01*
X115977790Y-88388917D01*
X115977089Y-88394204D01*
X115977089Y-88394205D01*
X115960055Y-88522727D01*
X115947052Y-88620829D01*
X115955828Y-88854604D01*
X116003868Y-89083559D01*
X116089797Y-89301146D01*
X116211159Y-89501144D01*
X116364483Y-89677834D01*
X116545386Y-89826165D01*
X116550016Y-89828801D01*
X116550021Y-89828804D01*
X116582516Y-89847301D01*
X116631822Y-89898384D01*
X116645683Y-89968015D01*
X116619699Y-90034085D01*
X116590550Y-90061323D01*
X116558061Y-90083196D01*
X116462104Y-90147798D01*
X116292832Y-90309276D01*
X116153187Y-90496965D01*
X116150771Y-90501716D01*
X116150769Y-90501720D01*
X116092756Y-90615823D01*
X116047162Y-90705500D01*
X115977790Y-90928917D01*
X115977089Y-90934204D01*
X115977089Y-90934205D01*
X115960055Y-91062727D01*
X115947052Y-91160829D01*
X115955828Y-91394604D01*
X116003868Y-91623559D01*
X116089797Y-91841146D01*
X116211159Y-92041144D01*
X116364483Y-92217834D01*
X116368615Y-92221222D01*
X116402201Y-92248761D01*
X116442196Y-92307421D01*
X116444127Y-92378391D01*
X116407383Y-92439139D01*
X116384843Y-92454220D01*
X116385268Y-92454906D01*
X116241193Y-92544063D01*
X116229792Y-92553099D01*
X116115261Y-92667829D01*
X116106249Y-92679240D01*
X116021184Y-92817243D01*
X116015037Y-92830424D01*
X115963862Y-92984710D01*
X115960995Y-92998086D01*
X115951328Y-93092438D01*
X115951000Y-93098855D01*
X115951000Y-93493885D01*
X115955475Y-93509124D01*
X115956865Y-93510329D01*
X115964548Y-93512000D01*
X119138884Y-93512000D01*
X119154123Y-93507525D01*
X119155328Y-93506135D01*
X119156999Y-93498452D01*
X119156999Y-93098905D01*
X119156662Y-93092386D01*
X119146743Y-92996794D01*
X119143851Y-92983400D01*
X119092412Y-92829216D01*
X119086239Y-92816038D01*
X119000937Y-92678193D01*
X118991901Y-92666792D01*
X118877171Y-92552261D01*
X118865760Y-92543249D01*
X118721525Y-92454342D01*
X118722817Y-92452245D01*
X118678308Y-92413044D01*
X118658856Y-92344764D01*
X118679407Y-92276807D01*
X118697878Y-92254614D01*
X118815168Y-92142724D01*
X118954813Y-91955035D01*
X118964313Y-91936351D01*
X119058420Y-91751256D01*
X119058420Y-91751255D01*
X119060838Y-91746500D01*
X119130210Y-91523083D01*
X119147239Y-91394604D01*
X119160248Y-91296455D01*
X119160248Y-91296451D01*
X119160948Y-91291171D01*
X119152172Y-91057396D01*
X119104132Y-90828441D01*
X119018203Y-90610854D01*
X118896841Y-90410856D01*
X118743517Y-90234166D01*
X118562614Y-90085835D01*
X118557984Y-90083199D01*
X118557979Y-90083196D01*
X118525484Y-90064699D01*
X118476178Y-90013616D01*
X118462317Y-89943985D01*
X118488301Y-89877915D01*
X118517450Y-89850677D01*
X118558885Y-89822781D01*
X118645896Y-89764202D01*
X118815168Y-89602724D01*
X118954813Y-89415035D01*
X119010398Y-89305709D01*
X119058420Y-89211256D01*
X119058420Y-89211255D01*
X119060838Y-89206500D01*
X119130210Y-88983083D01*
X119147239Y-88854604D01*
X119160248Y-88756455D01*
X119160248Y-88756451D01*
X119160948Y-88751171D01*
X119152172Y-88517396D01*
X119104132Y-88288441D01*
X119018203Y-88070854D01*
X118896841Y-87870856D01*
X118743517Y-87694166D01*
X118562614Y-87545835D01*
X118557980Y-87543197D01*
X118557979Y-87543196D01*
X118525484Y-87524699D01*
X118476178Y-87473616D01*
X118462317Y-87403985D01*
X118488301Y-87337915D01*
X118517450Y-87310677D01*
X118558885Y-87282781D01*
X118645896Y-87224202D01*
X118815168Y-87062724D01*
X118954813Y-86875035D01*
X118959539Y-86865741D01*
X118976635Y-86832115D01*
X119025338Y-86780457D01*
X119089519Y-86763220D01*
X121946285Y-86776101D01*
X124690021Y-86788473D01*
X124758051Y-86808782D01*
X124797172Y-86849106D01*
X124862391Y-86956583D01*
X124865159Y-86961144D01*
X125018483Y-87137834D01*
X125199386Y-87286165D01*
X125204016Y-87288801D01*
X125204021Y-87288804D01*
X125236516Y-87307301D01*
X125285822Y-87358384D01*
X125299683Y-87428015D01*
X125273699Y-87494085D01*
X125244550Y-87521323D01*
X125212061Y-87543196D01*
X125116104Y-87607798D01*
X124946832Y-87769276D01*
X124807187Y-87956965D01*
X124804771Y-87961716D01*
X124804769Y-87961720D01*
X124746756Y-88075823D01*
X124701162Y-88165500D01*
X124631790Y-88388917D01*
X124631089Y-88394204D01*
X124631089Y-88394205D01*
X124614055Y-88522727D01*
X124601052Y-88620829D01*
X124609828Y-88854604D01*
X124657868Y-89083559D01*
X124743797Y-89301146D01*
X124865159Y-89501144D01*
X125018483Y-89677834D01*
X125199386Y-89826165D01*
X125204016Y-89828801D01*
X125204021Y-89828804D01*
X125236516Y-89847301D01*
X125285822Y-89898384D01*
X125299683Y-89968015D01*
X125273699Y-90034085D01*
X125244550Y-90061323D01*
X125212061Y-90083196D01*
X125116104Y-90147798D01*
X124946832Y-90309276D01*
X124807187Y-90496965D01*
X124804771Y-90501716D01*
X124804769Y-90501720D01*
X124746756Y-90615823D01*
X124701162Y-90705500D01*
X124631790Y-90928917D01*
X124631089Y-90934204D01*
X124631089Y-90934205D01*
X124614055Y-91062727D01*
X124601052Y-91160829D01*
X124609828Y-91394604D01*
X124657868Y-91623559D01*
X124743797Y-91841146D01*
X124865159Y-92041144D01*
X125018483Y-92217834D01*
X125022615Y-92221222D01*
X125056201Y-92248761D01*
X125096196Y-92307421D01*
X125098127Y-92378391D01*
X125061383Y-92439139D01*
X125038843Y-92454220D01*
X125039268Y-92454906D01*
X124895193Y-92544063D01*
X124883792Y-92553099D01*
X124769261Y-92667829D01*
X124760249Y-92679240D01*
X124675184Y-92817243D01*
X124669037Y-92830424D01*
X124617862Y-92984710D01*
X124614995Y-92998086D01*
X124605328Y-93092438D01*
X124605000Y-93098855D01*
X124605000Y-93493885D01*
X124609475Y-93509124D01*
X124610865Y-93510329D01*
X124618548Y-93512000D01*
X127792884Y-93512000D01*
X127808123Y-93507525D01*
X127809328Y-93506135D01*
X127810999Y-93498452D01*
X127810999Y-93098905D01*
X127810662Y-93092386D01*
X127800743Y-92996794D01*
X127797851Y-92983400D01*
X127746412Y-92829216D01*
X127740239Y-92816038D01*
X127654937Y-92678193D01*
X127645901Y-92666792D01*
X127531171Y-92552261D01*
X127519760Y-92543249D01*
X127375525Y-92454342D01*
X127376817Y-92452245D01*
X127332308Y-92413044D01*
X127312856Y-92344764D01*
X127333407Y-92276807D01*
X127351878Y-92254614D01*
X127469168Y-92142724D01*
X127608813Y-91955035D01*
X127618313Y-91936351D01*
X127712420Y-91751256D01*
X127712420Y-91751255D01*
X127714838Y-91746500D01*
X127784210Y-91523083D01*
X127801239Y-91394604D01*
X127814248Y-91296455D01*
X127814248Y-91296451D01*
X127814948Y-91291171D01*
X127806172Y-91057396D01*
X127758132Y-90828441D01*
X127672203Y-90610854D01*
X127550841Y-90410856D01*
X127397517Y-90234166D01*
X127216614Y-90085835D01*
X127211984Y-90083199D01*
X127211979Y-90083196D01*
X127179484Y-90064699D01*
X127130178Y-90013616D01*
X127116317Y-89943985D01*
X127142301Y-89877915D01*
X127171450Y-89850677D01*
X127212885Y-89822781D01*
X127299896Y-89764202D01*
X127469168Y-89602724D01*
X127608813Y-89415035D01*
X127664398Y-89305709D01*
X127712420Y-89211256D01*
X127712420Y-89211255D01*
X127714838Y-89206500D01*
X127784210Y-88983083D01*
X127801239Y-88854604D01*
X127814248Y-88756455D01*
X127814248Y-88756451D01*
X127814948Y-88751171D01*
X127806172Y-88517396D01*
X127758132Y-88288441D01*
X127672203Y-88070854D01*
X127550841Y-87870856D01*
X127397517Y-87694166D01*
X127216614Y-87545835D01*
X127211980Y-87543197D01*
X127211979Y-87543196D01*
X127179484Y-87524699D01*
X127130178Y-87473616D01*
X127116317Y-87403985D01*
X127142301Y-87337915D01*
X127171450Y-87310677D01*
X127212885Y-87282781D01*
X127299896Y-87224202D01*
X127469168Y-87062724D01*
X127608813Y-86875035D01*
X127611233Y-86870276D01*
X127614045Y-86865741D01*
X127615182Y-86866446D01*
X127659531Y-86819395D01*
X127723724Y-86802151D01*
X130797585Y-86816011D01*
X133773698Y-86829431D01*
X133841728Y-86849740D01*
X133887978Y-86903605D01*
X133899127Y-86956300D01*
X133599521Y-130286749D01*
X133599243Y-130326998D01*
X133578770Y-130394979D01*
X133524795Y-130441100D01*
X133463361Y-130451739D01*
X133427962Y-130448953D01*
X133335718Y-130441693D01*
X133335709Y-130441693D01*
X133333261Y-130441500D01*
X133177729Y-130441500D01*
X133175593Y-130441646D01*
X133175582Y-130441646D01*
X132967452Y-130455835D01*
X132967446Y-130455836D01*
X132963175Y-130456127D01*
X132958980Y-130456996D01*
X132958978Y-130456996D01*
X132838412Y-130481964D01*
X132681658Y-130514426D01*
X132410657Y-130610393D01*
X132406848Y-130612359D01*
X132237312Y-130699863D01*
X132155188Y-130742250D01*
X132151687Y-130744711D01*
X132151683Y-130744713D01*
X132103696Y-130778439D01*
X131919977Y-130907559D01*
X131904892Y-130921577D01*
X131722165Y-131091378D01*
X131709378Y-131103260D01*
X131527287Y-131325732D01*
X131377073Y-131570858D01*
X131375347Y-131574791D01*
X131375346Y-131574792D01*
X131275629Y-131801955D01*
X131261517Y-131834102D01*
X131260342Y-131838229D01*
X131260341Y-131838230D01*
X131250646Y-131872265D01*
X131182756Y-132110594D01*
X131159993Y-132270540D01*
X131149622Y-132343413D01*
X131142249Y-132395216D01*
X131142227Y-132399505D01*
X131142226Y-132399512D01*
X131140765Y-132678417D01*
X131140743Y-132682703D01*
X131141302Y-132686947D01*
X131141302Y-132686951D01*
X131178244Y-132967554D01*
X131167305Y-133037703D01*
X131120176Y-133090801D01*
X131053322Y-133110000D01*
X128053866Y-133110000D01*
X127985745Y-133089998D01*
X127939252Y-133036342D01*
X127928873Y-132968100D01*
X127954086Y-132769915D01*
X127956571Y-132675000D01*
X127941833Y-132476685D01*
X127936996Y-132411592D01*
X127936996Y-132411591D01*
X127936650Y-132406937D01*
X127930913Y-132381583D01*
X127878361Y-132149331D01*
X127878360Y-132149326D01*
X127877327Y-132144763D01*
X127779902Y-131894238D01*
X127646518Y-131660864D01*
X127480105Y-131449769D01*
X127284317Y-131265591D01*
X127085982Y-131128000D01*
X127067299Y-131115039D01*
X127067296Y-131115037D01*
X127063457Y-131112374D01*
X127044976Y-131103260D01*
X126826564Y-130995551D01*
X126826561Y-130995550D01*
X126822376Y-130993486D01*
X126774745Y-130978239D01*
X126632258Y-130932629D01*
X126566370Y-130911538D01*
X126561763Y-130910788D01*
X126561760Y-130910787D01*
X126305674Y-130869081D01*
X126305675Y-130869081D01*
X126301063Y-130868330D01*
X126170719Y-130866624D01*
X126036961Y-130864873D01*
X126036958Y-130864873D01*
X126032284Y-130864812D01*
X125765937Y-130901060D01*
X125761451Y-130902368D01*
X125761449Y-130902368D01*
X125733625Y-130910478D01*
X125507874Y-130976278D01*
X125263763Y-131088815D01*
X125234251Y-131108164D01*
X125042881Y-131233631D01*
X125042876Y-131233635D01*
X125038968Y-131236197D01*
X125035476Y-131239314D01*
X124853302Y-131401911D01*
X124838426Y-131415188D01*
X124666544Y-131621854D01*
X124527096Y-131851656D01*
X124525287Y-131855970D01*
X124525285Y-131855974D01*
X124450160Y-132035128D01*
X124423148Y-132099545D01*
X124356981Y-132360077D01*
X124330050Y-132627526D01*
X124330274Y-132632192D01*
X124330274Y-132632197D01*
X124332700Y-132682703D01*
X124342947Y-132896019D01*
X124343859Y-132900604D01*
X124355558Y-132959418D01*
X124349230Y-133030132D01*
X124305676Y-133086200D01*
X124231979Y-133110000D01*
X84802372Y-133110000D01*
X84734251Y-133089998D01*
X84706704Y-133065997D01*
X84685102Y-133040793D01*
X84685100Y-133040791D01*
X84680943Y-133035941D01*
X84592443Y-132967293D01*
X84532933Y-132921132D01*
X84532930Y-132921130D01*
X84527884Y-132917216D01*
X84354077Y-132831693D01*
X84347907Y-132830086D01*
X84347902Y-132830084D01*
X84172806Y-132784475D01*
X84172803Y-132784475D01*
X84166624Y-132782865D01*
X84075938Y-132778112D01*
X83979563Y-132773061D01*
X83979559Y-132773061D01*
X83973182Y-132772727D01*
X83819678Y-132795942D01*
X83787965Y-132800738D01*
X83787964Y-132800738D01*
X83781651Y-132801693D01*
X83775663Y-132803896D01*
X83775660Y-132803897D01*
X83708735Y-132828521D01*
X83599858Y-132868581D01*
X83594442Y-132871939D01*
X83594438Y-132871941D01*
X83440650Y-132967293D01*
X83440646Y-132967296D01*
X83435227Y-132970656D01*
X83415400Y-132989406D01*
X83324307Y-133075548D01*
X83261069Y-133107820D01*
X83237734Y-133110000D01*
X77802372Y-133110000D01*
X77734251Y-133089998D01*
X77706704Y-133065997D01*
X77685102Y-133040793D01*
X77685100Y-133040791D01*
X77680943Y-133035941D01*
X77592443Y-132967293D01*
X77532933Y-132921132D01*
X77532930Y-132921130D01*
X77527884Y-132917216D01*
X77354077Y-132831693D01*
X77347907Y-132830086D01*
X77347902Y-132830084D01*
X77172806Y-132784475D01*
X77172803Y-132784475D01*
X77166624Y-132782865D01*
X77075938Y-132778112D01*
X76979563Y-132773061D01*
X76979559Y-132773061D01*
X76973182Y-132772727D01*
X76819678Y-132795942D01*
X76787965Y-132800738D01*
X76787964Y-132800738D01*
X76781651Y-132801693D01*
X76775663Y-132803896D01*
X76775660Y-132803897D01*
X76708735Y-132828521D01*
X76599858Y-132868581D01*
X76594442Y-132871939D01*
X76594438Y-132871941D01*
X76440650Y-132967293D01*
X76440646Y-132967296D01*
X76435227Y-132970656D01*
X76415400Y-132989406D01*
X76324307Y-133075548D01*
X76261069Y-133107820D01*
X76237734Y-133110000D01*
X72427866Y-133110000D01*
X72359745Y-133089998D01*
X72313252Y-133036342D01*
X72302873Y-132968100D01*
X72328086Y-132769915D01*
X72330571Y-132675000D01*
X72315833Y-132476685D01*
X72310996Y-132411592D01*
X72310996Y-132411591D01*
X72310650Y-132406937D01*
X72304913Y-132381583D01*
X72252361Y-132149331D01*
X72252360Y-132149326D01*
X72251327Y-132144763D01*
X72153902Y-131894238D01*
X72020518Y-131660864D01*
X71854105Y-131449769D01*
X71810013Y-131408292D01*
X76882608Y-131408292D01*
X76912486Y-131605848D01*
X76981477Y-131793361D01*
X77086765Y-131963172D01*
X77224047Y-132108344D01*
X77387716Y-132222946D01*
X77571086Y-132302298D01*
X77766666Y-132343156D01*
X77771522Y-132343411D01*
X77771561Y-132343413D01*
X77771577Y-132343413D01*
X77773229Y-132343500D01*
X78219934Y-132343500D01*
X78249230Y-132340524D01*
X78362434Y-132329026D01*
X78362438Y-132329025D01*
X78368780Y-132328381D01*
X78502042Y-132286619D01*
X78553349Y-132270540D01*
X78553350Y-132270539D01*
X78559440Y-132268631D01*
X78595897Y-132248423D01*
X78728607Y-132174860D01*
X78734191Y-132171765D01*
X78808186Y-132108344D01*
X78881052Y-132045891D01*
X78881053Y-132045890D01*
X78885896Y-132041739D01*
X78922842Y-131994109D01*
X79004445Y-131888907D01*
X79004447Y-131888904D01*
X79008357Y-131883863D01*
X79022081Y-131855974D01*
X79093752Y-131710318D01*
X79096571Y-131704589D01*
X79130034Y-131576122D01*
X79145325Y-131517420D01*
X79145325Y-131517417D01*
X79146935Y-131511238D01*
X79152330Y-131408292D01*
X81882608Y-131408292D01*
X81912486Y-131605848D01*
X81981477Y-131793361D01*
X82086765Y-131963172D01*
X82224047Y-132108344D01*
X82387716Y-132222946D01*
X82571086Y-132302298D01*
X82766666Y-132343156D01*
X82771522Y-132343411D01*
X82771561Y-132343413D01*
X82771577Y-132343413D01*
X82773229Y-132343500D01*
X83219934Y-132343500D01*
X83249230Y-132340524D01*
X83362434Y-132329026D01*
X83362438Y-132329025D01*
X83368780Y-132328381D01*
X83502042Y-132286619D01*
X83553349Y-132270540D01*
X83553350Y-132270539D01*
X83559440Y-132268631D01*
X83595897Y-132248423D01*
X83728607Y-132174860D01*
X83734191Y-132171765D01*
X83808186Y-132108344D01*
X83881052Y-132045891D01*
X83881053Y-132045890D01*
X83885896Y-132041739D01*
X83922842Y-131994109D01*
X84004445Y-131888907D01*
X84004447Y-131888904D01*
X84008357Y-131883863D01*
X84022081Y-131855974D01*
X84093752Y-131710318D01*
X84096571Y-131704589D01*
X84130034Y-131576122D01*
X84131744Y-131569557D01*
X87260939Y-131569557D01*
X87280901Y-131759485D01*
X87339916Y-131941113D01*
X87343219Y-131946835D01*
X87343220Y-131946836D01*
X87372856Y-131998166D01*
X87435403Y-132106501D01*
X87439821Y-132111408D01*
X87439822Y-132111409D01*
X87469854Y-132144763D01*
X87563190Y-132248423D01*
X87621104Y-132290500D01*
X87710621Y-132355538D01*
X87717691Y-132360675D01*
X87723719Y-132363359D01*
X87723721Y-132363360D01*
X87886124Y-132435666D01*
X87892155Y-132438351D01*
X87985555Y-132458204D01*
X88072499Y-132476685D01*
X88072504Y-132476685D01*
X88078956Y-132478057D01*
X88269930Y-132478057D01*
X88276382Y-132476685D01*
X88276387Y-132476685D01*
X88363331Y-132458204D01*
X88456731Y-132438351D01*
X88462762Y-132435666D01*
X88625165Y-132363360D01*
X88625167Y-132363359D01*
X88631195Y-132360675D01*
X88638266Y-132355538D01*
X88727782Y-132290500D01*
X88785696Y-132248423D01*
X88879032Y-132144763D01*
X88909064Y-132111409D01*
X88909065Y-132111408D01*
X88913483Y-132106501D01*
X88976030Y-131998166D01*
X89005666Y-131946836D01*
X89005667Y-131946835D01*
X89008970Y-131941113D01*
X89067985Y-131759485D01*
X89087947Y-131569557D01*
X89082467Y-131517420D01*
X89068675Y-131386192D01*
X89068675Y-131386190D01*
X89068234Y-131382000D01*
X92020496Y-131382000D01*
X92040458Y-131571928D01*
X92099473Y-131753556D01*
X92194960Y-131918944D01*
X92322747Y-132060866D01*
X92392313Y-132111409D01*
X92469666Y-132167609D01*
X92477248Y-132173118D01*
X92483276Y-132175802D01*
X92483278Y-132175803D01*
X92635356Y-132243512D01*
X92651712Y-132250794D01*
X92735628Y-132268631D01*
X92832056Y-132289128D01*
X92832061Y-132289128D01*
X92838513Y-132290500D01*
X93029487Y-132290500D01*
X93035939Y-132289128D01*
X93035944Y-132289128D01*
X93132372Y-132268631D01*
X93216288Y-132250794D01*
X93232644Y-132243512D01*
X93384722Y-132175803D01*
X93384724Y-132175802D01*
X93390752Y-132173118D01*
X93398335Y-132167609D01*
X93475687Y-132111409D01*
X93545253Y-132060866D01*
X93673040Y-131918944D01*
X93699990Y-131872265D01*
X93751372Y-131823272D01*
X93821086Y-131809836D01*
X93883170Y-131833329D01*
X93936761Y-131872265D01*
X94001248Y-131919118D01*
X94007276Y-131921802D01*
X94007278Y-131921803D01*
X94169681Y-131994109D01*
X94175712Y-131996794D01*
X94269112Y-132016647D01*
X94356056Y-132035128D01*
X94356061Y-132035128D01*
X94362513Y-132036500D01*
X94553487Y-132036500D01*
X94559939Y-132035128D01*
X94559944Y-132035128D01*
X94646888Y-132016647D01*
X94740288Y-131996794D01*
X94746319Y-131994109D01*
X94908722Y-131921803D01*
X94908724Y-131921802D01*
X94914752Y-131919118D01*
X95069253Y-131806866D01*
X95111915Y-131759485D01*
X95192621Y-131669852D01*
X95192622Y-131669851D01*
X95197040Y-131664944D01*
X95282213Y-131517420D01*
X95289223Y-131505279D01*
X95289224Y-131505278D01*
X95292527Y-131499556D01*
X95351542Y-131317928D01*
X95363666Y-131202580D01*
X95370814Y-131134565D01*
X95371504Y-131128000D01*
X95359149Y-131010444D01*
X95352232Y-130944635D01*
X95352232Y-130944633D01*
X95351542Y-130938072D01*
X95292527Y-130756444D01*
X95260380Y-130700763D01*
X95200341Y-130596774D01*
X95197040Y-130591056D01*
X95122354Y-130508108D01*
X95073675Y-130454045D01*
X95073674Y-130454044D01*
X95069253Y-130449134D01*
X94925945Y-130345014D01*
X94920094Y-130340763D01*
X94920093Y-130340762D01*
X94914752Y-130336882D01*
X94908724Y-130334198D01*
X94908722Y-130334197D01*
X94746319Y-130261891D01*
X94746318Y-130261891D01*
X94740288Y-130259206D01*
X94646888Y-130239353D01*
X94559944Y-130220872D01*
X94559939Y-130220872D01*
X94553487Y-130219500D01*
X94362513Y-130219500D01*
X94356061Y-130220872D01*
X94356056Y-130220872D01*
X94269112Y-130239353D01*
X94175712Y-130259206D01*
X94169682Y-130261891D01*
X94169681Y-130261891D01*
X94007278Y-130334197D01*
X94007276Y-130334198D01*
X94001248Y-130336882D01*
X93995907Y-130340762D01*
X93995906Y-130340763D01*
X93990055Y-130345014D01*
X93846747Y-130449134D01*
X93842326Y-130454044D01*
X93842325Y-130454045D01*
X93793647Y-130508108D01*
X93718960Y-130591056D01*
X93715659Y-130596774D01*
X93692010Y-130637735D01*
X93640628Y-130686728D01*
X93570914Y-130700164D01*
X93508830Y-130676671D01*
X93396094Y-130594763D01*
X93396093Y-130594762D01*
X93390752Y-130590882D01*
X93384724Y-130588198D01*
X93384722Y-130588197D01*
X93222319Y-130515891D01*
X93222318Y-130515891D01*
X93216288Y-130513206D01*
X93109056Y-130490413D01*
X93035944Y-130474872D01*
X93035939Y-130474872D01*
X93029487Y-130473500D01*
X92838513Y-130473500D01*
X92832061Y-130474872D01*
X92832056Y-130474872D01*
X92758944Y-130490413D01*
X92651712Y-130513206D01*
X92645682Y-130515891D01*
X92645681Y-130515891D01*
X92483278Y-130588197D01*
X92483276Y-130588198D01*
X92477248Y-130590882D01*
X92471907Y-130594762D01*
X92471906Y-130594763D01*
X92442277Y-130616290D01*
X92322747Y-130703134D01*
X92318326Y-130708044D01*
X92318325Y-130708045D01*
X92274747Y-130756444D01*
X92194960Y-130845056D01*
X92099473Y-131010444D01*
X92040458Y-131192072D01*
X92039768Y-131198633D01*
X92039768Y-131198635D01*
X92039174Y-131204286D01*
X92020496Y-131382000D01*
X89068234Y-131382000D01*
X89067985Y-131379629D01*
X89008970Y-131198001D01*
X88913483Y-131032613D01*
X88864525Y-130978239D01*
X88790118Y-130895602D01*
X88790117Y-130895601D01*
X88785696Y-130890691D01*
X88631195Y-130778439D01*
X88625167Y-130775755D01*
X88625165Y-130775754D01*
X88462762Y-130703448D01*
X88462761Y-130703448D01*
X88456731Y-130700763D01*
X88343388Y-130676671D01*
X88276387Y-130662429D01*
X88276382Y-130662429D01*
X88269930Y-130661057D01*
X88078956Y-130661057D01*
X88072504Y-130662429D01*
X88072499Y-130662429D01*
X88005498Y-130676671D01*
X87892155Y-130700763D01*
X87886125Y-130703448D01*
X87886124Y-130703448D01*
X87723721Y-130775754D01*
X87723719Y-130775755D01*
X87717691Y-130778439D01*
X87563190Y-130890691D01*
X87558769Y-130895601D01*
X87558768Y-130895602D01*
X87484362Y-130978239D01*
X87435403Y-131032613D01*
X87339916Y-131198001D01*
X87280901Y-131379629D01*
X87280211Y-131386190D01*
X87280211Y-131386192D01*
X87266419Y-131517420D01*
X87260939Y-131569557D01*
X84131744Y-131569557D01*
X84145325Y-131517420D01*
X84145325Y-131517417D01*
X84146935Y-131511238D01*
X84153364Y-131388565D01*
X84157058Y-131318089D01*
X84157058Y-131318085D01*
X84157392Y-131311708D01*
X84127514Y-131114152D01*
X84108790Y-131063260D01*
X84060727Y-130932629D01*
X84060727Y-130932628D01*
X84058523Y-130926639D01*
X83968288Y-130781106D01*
X83956597Y-130762250D01*
X83956596Y-130762249D01*
X83953235Y-130756828D01*
X83941779Y-130744713D01*
X83875012Y-130674109D01*
X83815953Y-130611656D01*
X83660560Y-130502849D01*
X83657514Y-130500716D01*
X83657513Y-130500716D01*
X83652284Y-130497054D01*
X83468914Y-130417702D01*
X83273334Y-130376844D01*
X83268478Y-130376589D01*
X83268439Y-130376587D01*
X83268423Y-130376587D01*
X83266771Y-130376500D01*
X82820066Y-130376500D01*
X82806933Y-130377834D01*
X82677566Y-130390974D01*
X82677562Y-130390975D01*
X82671220Y-130391619D01*
X82545649Y-130430971D01*
X82486651Y-130449460D01*
X82486650Y-130449461D01*
X82480560Y-130451369D01*
X82474978Y-130454463D01*
X82474976Y-130454464D01*
X82402715Y-130494519D01*
X82305809Y-130548235D01*
X82300960Y-130552391D01*
X82172576Y-130662429D01*
X82154104Y-130678261D01*
X82150197Y-130683298D01*
X82150195Y-130683300D01*
X82035555Y-130831093D01*
X82035553Y-130831096D01*
X82031643Y-130836137D01*
X82028825Y-130841863D01*
X82028823Y-130841867D01*
X81978255Y-130944635D01*
X81943429Y-131015411D01*
X81941820Y-131021589D01*
X81897359Y-131192278D01*
X81893065Y-131208762D01*
X81892731Y-131215142D01*
X81883642Y-131388565D01*
X81882608Y-131408292D01*
X79152330Y-131408292D01*
X79153364Y-131388565D01*
X79157058Y-131318089D01*
X79157058Y-131318085D01*
X79157392Y-131311708D01*
X79127514Y-131114152D01*
X79108790Y-131063260D01*
X79060727Y-130932629D01*
X79060727Y-130932628D01*
X79058523Y-130926639D01*
X78968288Y-130781106D01*
X78956597Y-130762250D01*
X78956596Y-130762249D01*
X78953235Y-130756828D01*
X78941779Y-130744713D01*
X78875012Y-130674109D01*
X78815953Y-130611656D01*
X78660560Y-130502849D01*
X78657514Y-130500716D01*
X78657513Y-130500716D01*
X78652284Y-130497054D01*
X78468914Y-130417702D01*
X78273334Y-130376844D01*
X78268478Y-130376589D01*
X78268439Y-130376587D01*
X78268423Y-130376587D01*
X78266771Y-130376500D01*
X77820066Y-130376500D01*
X77806933Y-130377834D01*
X77677566Y-130390974D01*
X77677562Y-130390975D01*
X77671220Y-130391619D01*
X77545649Y-130430971D01*
X77486651Y-130449460D01*
X77486650Y-130449461D01*
X77480560Y-130451369D01*
X77474978Y-130454463D01*
X77474976Y-130454464D01*
X77402715Y-130494519D01*
X77305809Y-130548235D01*
X77300960Y-130552391D01*
X77172576Y-130662429D01*
X77154104Y-130678261D01*
X77150197Y-130683298D01*
X77150195Y-130683300D01*
X77035555Y-130831093D01*
X77035553Y-130831096D01*
X77031643Y-130836137D01*
X77028825Y-130841863D01*
X77028823Y-130841867D01*
X76978255Y-130944635D01*
X76943429Y-131015411D01*
X76941820Y-131021589D01*
X76897359Y-131192278D01*
X76893065Y-131208762D01*
X76892731Y-131215142D01*
X76883642Y-131388565D01*
X76882608Y-131408292D01*
X71810013Y-131408292D01*
X71658317Y-131265591D01*
X71459982Y-131128000D01*
X71441299Y-131115039D01*
X71441296Y-131115037D01*
X71437457Y-131112374D01*
X71418976Y-131103260D01*
X71200564Y-130995551D01*
X71200561Y-130995550D01*
X71196376Y-130993486D01*
X71148745Y-130978239D01*
X71006258Y-130932629D01*
X70940370Y-130911538D01*
X70935763Y-130910788D01*
X70935760Y-130910787D01*
X70679674Y-130869081D01*
X70679675Y-130869081D01*
X70675063Y-130868330D01*
X70544719Y-130866624D01*
X70410961Y-130864873D01*
X70410958Y-130864873D01*
X70406284Y-130864812D01*
X70139937Y-130901060D01*
X70135451Y-130902368D01*
X70135449Y-130902368D01*
X70107625Y-130910478D01*
X69881874Y-130976278D01*
X69637763Y-131088815D01*
X69608251Y-131108164D01*
X69416881Y-131233631D01*
X69416876Y-131233635D01*
X69412968Y-131236197D01*
X69409476Y-131239314D01*
X69227302Y-131401911D01*
X69212426Y-131415188D01*
X69040544Y-131621854D01*
X68901096Y-131851656D01*
X68899287Y-131855970D01*
X68899285Y-131855974D01*
X68824160Y-132035128D01*
X68797148Y-132099545D01*
X68730981Y-132360077D01*
X68704050Y-132627526D01*
X68704274Y-132632192D01*
X68704274Y-132632197D01*
X68706700Y-132682703D01*
X68716947Y-132896019D01*
X68717859Y-132900604D01*
X68729558Y-132959418D01*
X68723230Y-133030132D01*
X68679676Y-133086200D01*
X68605979Y-133110000D01*
X65188402Y-133110000D01*
X65120281Y-133089998D01*
X65073788Y-133036342D01*
X65063684Y-132966068D01*
X65065433Y-132957780D01*
X65065177Y-132957726D01*
X65066068Y-132953536D01*
X65067244Y-132949406D01*
X65107751Y-132664784D01*
X65107947Y-132627526D01*
X65109235Y-132381583D01*
X65109235Y-132381576D01*
X65109257Y-132377297D01*
X65106393Y-132355538D01*
X65074145Y-132110594D01*
X65071732Y-132092266D01*
X65061799Y-132055955D01*
X65024364Y-131919118D01*
X64995871Y-131814964D01*
X64931872Y-131664922D01*
X64884763Y-131554476D01*
X64884761Y-131554472D01*
X64883077Y-131550524D01*
X64794134Y-131401911D01*
X64737643Y-131307521D01*
X64737640Y-131307517D01*
X64735439Y-131303839D01*
X64555687Y-131079472D01*
X64400067Y-130931794D01*
X64350258Y-130884527D01*
X64350255Y-130884525D01*
X64347149Y-130881577D01*
X64113683Y-130713814D01*
X64091843Y-130702250D01*
X64068654Y-130689972D01*
X63859608Y-130579288D01*
X63679490Y-130513374D01*
X63593658Y-130481964D01*
X63593656Y-130481963D01*
X63589627Y-130480489D01*
X63308736Y-130419245D01*
X63277685Y-130416801D01*
X63085718Y-130401693D01*
X63085709Y-130401693D01*
X63083261Y-130401500D01*
X62927729Y-130401500D01*
X62925592Y-130401646D01*
X62925583Y-130401646D01*
X62856834Y-130406333D01*
X62754559Y-130413306D01*
X62685238Y-130397984D01*
X62635203Y-130347615D01*
X62619994Y-130286706D01*
X62625565Y-129500000D01*
X67971647Y-129500000D01*
X67991022Y-129721463D01*
X68048560Y-129936196D01*
X68050882Y-129941177D01*
X68050883Y-129941178D01*
X68140186Y-130132689D01*
X68140189Y-130132694D01*
X68142512Y-130137676D01*
X68145668Y-130142183D01*
X68145669Y-130142185D01*
X68246894Y-130286749D01*
X68270023Y-130319781D01*
X68427219Y-130476977D01*
X68431727Y-130480134D01*
X68431730Y-130480136D01*
X68482744Y-130515856D01*
X68609323Y-130604488D01*
X68614305Y-130606811D01*
X68614310Y-130606814D01*
X68778336Y-130683300D01*
X68810804Y-130698440D01*
X68816112Y-130699862D01*
X68816114Y-130699863D01*
X68846650Y-130708045D01*
X69025537Y-130755978D01*
X69247000Y-130775353D01*
X69468463Y-130755978D01*
X69647350Y-130708045D01*
X69677886Y-130699863D01*
X69677888Y-130699862D01*
X69683196Y-130698440D01*
X69715664Y-130683300D01*
X69879690Y-130606814D01*
X69879695Y-130606811D01*
X69884677Y-130604488D01*
X70011256Y-130515856D01*
X70062270Y-130480136D01*
X70062273Y-130480134D01*
X70066781Y-130476977D01*
X70223977Y-130319781D01*
X70247107Y-130286749D01*
X70348331Y-130142185D01*
X70348332Y-130142183D01*
X70351488Y-130137676D01*
X70353811Y-130132694D01*
X70353814Y-130132689D01*
X70443117Y-129941178D01*
X70443118Y-129941177D01*
X70445440Y-129936196D01*
X70502978Y-129721463D01*
X70522353Y-129500000D01*
X70502978Y-129278537D01*
X70445440Y-129063804D01*
X70399497Y-128965279D01*
X70353814Y-128867311D01*
X70353811Y-128867306D01*
X70351488Y-128862324D01*
X70319586Y-128816763D01*
X70227136Y-128684730D01*
X70227134Y-128684727D01*
X70223977Y-128680219D01*
X70066781Y-128523023D01*
X70062273Y-128519866D01*
X70062270Y-128519864D01*
X69911706Y-128414438D01*
X69884677Y-128395512D01*
X69879695Y-128393189D01*
X69879690Y-128393186D01*
X69774627Y-128344195D01*
X69763048Y-128334000D01*
X78558496Y-128334000D01*
X78559186Y-128340565D01*
X78576362Y-128503982D01*
X78578458Y-128523928D01*
X78637473Y-128705556D01*
X78732960Y-128870944D01*
X78737378Y-128875851D01*
X78737379Y-128875852D01*
X78856325Y-129007955D01*
X78860747Y-129012866D01*
X78943203Y-129072774D01*
X78984207Y-129102565D01*
X79015248Y-129125118D01*
X79021276Y-129127802D01*
X79021278Y-129127803D01*
X79068652Y-129148895D01*
X79189712Y-129202794D01*
X79196173Y-129204167D01*
X79196172Y-129204167D01*
X79221798Y-129209614D01*
X79284272Y-129243341D01*
X79318594Y-129305490D01*
X79320387Y-129336829D01*
X79321186Y-129336829D01*
X79321186Y-129343435D01*
X79320496Y-129350000D01*
X79321186Y-129356565D01*
X79335894Y-129496500D01*
X79340458Y-129539928D01*
X79399473Y-129721556D01*
X79494960Y-129886944D01*
X79499378Y-129891851D01*
X79499379Y-129891852D01*
X79599572Y-130003128D01*
X79622747Y-130028866D01*
X79721843Y-130100864D01*
X79765647Y-130132689D01*
X79777248Y-130141118D01*
X79783276Y-130143802D01*
X79783278Y-130143803D01*
X79929770Y-130209025D01*
X79951712Y-130218794D01*
X80045112Y-130238647D01*
X80132056Y-130257128D01*
X80132061Y-130257128D01*
X80138513Y-130258500D01*
X80329487Y-130258500D01*
X80335939Y-130257128D01*
X80335944Y-130257128D01*
X80422888Y-130238647D01*
X80516288Y-130218794D01*
X80538230Y-130209025D01*
X80684722Y-130143803D01*
X80684724Y-130143802D01*
X80690752Y-130141118D01*
X80702354Y-130132689D01*
X80746157Y-130100864D01*
X80845253Y-130028866D01*
X80868428Y-130003128D01*
X80968621Y-129891852D01*
X80968622Y-129891851D01*
X80973040Y-129886944D01*
X81068527Y-129721556D01*
X81106724Y-129604000D01*
X86432496Y-129604000D01*
X86433186Y-129610565D01*
X86450863Y-129778749D01*
X86452458Y-129793928D01*
X86511473Y-129975556D01*
X86606960Y-130140944D01*
X86734747Y-130282866D01*
X86816449Y-130342226D01*
X86876667Y-130385977D01*
X86889248Y-130395118D01*
X86895276Y-130397802D01*
X86895278Y-130397803D01*
X87057681Y-130470109D01*
X87063712Y-130472794D01*
X87148056Y-130490722D01*
X87244056Y-130511128D01*
X87244061Y-130511128D01*
X87250513Y-130512500D01*
X87441487Y-130512500D01*
X87447939Y-130511128D01*
X87447944Y-130511128D01*
X87543944Y-130490722D01*
X87628288Y-130472794D01*
X87634319Y-130470109D01*
X87796722Y-130397803D01*
X87796724Y-130397802D01*
X87802752Y-130395118D01*
X87815334Y-130385977D01*
X87875551Y-130342226D01*
X87957253Y-130282866D01*
X88085040Y-130140944D01*
X88180527Y-129975556D01*
X88239542Y-129793928D01*
X88241138Y-129778749D01*
X88258814Y-129610565D01*
X88259504Y-129604000D01*
X88248573Y-129500000D01*
X88240232Y-129420635D01*
X88240232Y-129420633D01*
X88239542Y-129414072D01*
X88180527Y-129232444D01*
X88101751Y-129096000D01*
X100402496Y-129096000D01*
X100403186Y-129102565D01*
X100420863Y-129270749D01*
X100422458Y-129285928D01*
X100481473Y-129467556D01*
X100484776Y-129473278D01*
X100484777Y-129473279D01*
X100503366Y-129505475D01*
X100576960Y-129632944D01*
X100581378Y-129637851D01*
X100581379Y-129637852D01*
X100665973Y-129731803D01*
X100704747Y-129774866D01*
X100859248Y-129887118D01*
X100865276Y-129889802D01*
X100865278Y-129889803D01*
X100980669Y-129941178D01*
X101033712Y-129964794D01*
X101127112Y-129984647D01*
X101214056Y-130003128D01*
X101214061Y-130003128D01*
X101220513Y-130004500D01*
X101411487Y-130004500D01*
X101417939Y-130003128D01*
X101417944Y-130003128D01*
X101504888Y-129984647D01*
X101598288Y-129964794D01*
X101651331Y-129941178D01*
X101766722Y-129889803D01*
X101766724Y-129889802D01*
X101772752Y-129887118D01*
X101927253Y-129774866D01*
X101966027Y-129731803D01*
X102050621Y-129637852D01*
X102050622Y-129637851D01*
X102055040Y-129632944D01*
X102128634Y-129505475D01*
X102147223Y-129473279D01*
X102147224Y-129473278D01*
X102150527Y-129467556D01*
X102209542Y-129285928D01*
X102211138Y-129270749D01*
X102228814Y-129102565D01*
X102229504Y-129096000D01*
X102225946Y-129062148D01*
X102210232Y-128912635D01*
X102210232Y-128912633D01*
X102209542Y-128906072D01*
X102150527Y-128724444D01*
X102055040Y-128559056D01*
X102029064Y-128530206D01*
X101931675Y-128422045D01*
X101931674Y-128422044D01*
X101927253Y-128417134D01*
X101812829Y-128334000D01*
X101778094Y-128308763D01*
X101778093Y-128308762D01*
X101772752Y-128304882D01*
X101766724Y-128302198D01*
X101766722Y-128302197D01*
X101604319Y-128229891D01*
X101604318Y-128229891D01*
X101598288Y-128227206D01*
X101504887Y-128207353D01*
X101417944Y-128188872D01*
X101417939Y-128188872D01*
X101411487Y-128187500D01*
X101220513Y-128187500D01*
X101214061Y-128188872D01*
X101214056Y-128188872D01*
X101127113Y-128207353D01*
X101033712Y-128227206D01*
X101027682Y-128229891D01*
X101027681Y-128229891D01*
X100865278Y-128302197D01*
X100865276Y-128302198D01*
X100859248Y-128304882D01*
X100853907Y-128308762D01*
X100853906Y-128308763D01*
X100819171Y-128334000D01*
X100704747Y-128417134D01*
X100700326Y-128422044D01*
X100700325Y-128422045D01*
X100602937Y-128530206D01*
X100576960Y-128559056D01*
X100481473Y-128724444D01*
X100422458Y-128906072D01*
X100421768Y-128912633D01*
X100421768Y-128912635D01*
X100406054Y-129062148D01*
X100402496Y-129096000D01*
X88101751Y-129096000D01*
X88085040Y-129067056D01*
X88039744Y-129016749D01*
X87961675Y-128930045D01*
X87961674Y-128930044D01*
X87957253Y-128925134D01*
X87802752Y-128812882D01*
X87796724Y-128810198D01*
X87796722Y-128810197D01*
X87634319Y-128737891D01*
X87634318Y-128737891D01*
X87628288Y-128735206D01*
X87515721Y-128711279D01*
X87447944Y-128696872D01*
X87447939Y-128696872D01*
X87441487Y-128695500D01*
X87250513Y-128695500D01*
X87244061Y-128696872D01*
X87244056Y-128696872D01*
X87176279Y-128711279D01*
X87063712Y-128735206D01*
X87057682Y-128737891D01*
X87057681Y-128737891D01*
X86895278Y-128810197D01*
X86895276Y-128810198D01*
X86889248Y-128812882D01*
X86734747Y-128925134D01*
X86730326Y-128930044D01*
X86730325Y-128930045D01*
X86652257Y-129016749D01*
X86606960Y-129067056D01*
X86511473Y-129232444D01*
X86452458Y-129414072D01*
X86451768Y-129420633D01*
X86451768Y-129420635D01*
X86443427Y-129500000D01*
X86432496Y-129604000D01*
X81106724Y-129604000D01*
X81127542Y-129539928D01*
X81131739Y-129500000D01*
X81133326Y-129484899D01*
X81160340Y-129419242D01*
X81218562Y-129378613D01*
X81289507Y-129375910D01*
X81309881Y-129382962D01*
X81475712Y-129456794D01*
X81569112Y-129476647D01*
X81656056Y-129495128D01*
X81656061Y-129495128D01*
X81662513Y-129496500D01*
X81853487Y-129496500D01*
X81859939Y-129495128D01*
X81859944Y-129495128D01*
X81946888Y-129476647D01*
X82040288Y-129456794D01*
X82136244Y-129414072D01*
X82208722Y-129381803D01*
X82208724Y-129381802D01*
X82214752Y-129379118D01*
X82245794Y-129356565D01*
X82316092Y-129305490D01*
X82369253Y-129266866D01*
X82420803Y-129209614D01*
X82492621Y-129129852D01*
X82492622Y-129129851D01*
X82497040Y-129124944D01*
X82592527Y-128959556D01*
X82651542Y-128777928D01*
X82656177Y-128733834D01*
X82670814Y-128594565D01*
X82671504Y-128588000D01*
X82668444Y-128558882D01*
X82652232Y-128404635D01*
X82652232Y-128404633D01*
X82651542Y-128398072D01*
X82592527Y-128216444D01*
X82497040Y-128051056D01*
X82417254Y-127962444D01*
X82373675Y-127914045D01*
X82373674Y-127914044D01*
X82369253Y-127909134D01*
X82214752Y-127796882D01*
X82208724Y-127794198D01*
X82208722Y-127794197D01*
X82046319Y-127721891D01*
X82046318Y-127721891D01*
X82040288Y-127719206D01*
X81946888Y-127699353D01*
X81859944Y-127680872D01*
X81859939Y-127680872D01*
X81853487Y-127679500D01*
X81662513Y-127679500D01*
X81656061Y-127680872D01*
X81656056Y-127680872D01*
X81569112Y-127699353D01*
X81475712Y-127719206D01*
X81469682Y-127721891D01*
X81469681Y-127721891D01*
X81307278Y-127794197D01*
X81307276Y-127794198D01*
X81301248Y-127796882D01*
X81146747Y-127909134D01*
X81142326Y-127914044D01*
X81142325Y-127914045D01*
X81098747Y-127962444D01*
X81018960Y-128051056D01*
X80923473Y-128216444D01*
X80864458Y-128398072D01*
X80863768Y-128404633D01*
X80863768Y-128404635D01*
X80858674Y-128453101D01*
X80831660Y-128518758D01*
X80773438Y-128559387D01*
X80702493Y-128562090D01*
X80682119Y-128555038D01*
X80516288Y-128481206D01*
X80484202Y-128474386D01*
X80421728Y-128440659D01*
X80387406Y-128378510D01*
X80385613Y-128347171D01*
X80384814Y-128347171D01*
X80384814Y-128340565D01*
X80385504Y-128334000D01*
X80374280Y-128227206D01*
X80366232Y-128150635D01*
X80366232Y-128150633D01*
X80365542Y-128144072D01*
X80306527Y-127962444D01*
X80293648Y-127940136D01*
X80214341Y-127802774D01*
X80211040Y-127797056D01*
X80198995Y-127783678D01*
X80087675Y-127660045D01*
X80087674Y-127660044D01*
X80083253Y-127655134D01*
X79928752Y-127542882D01*
X79922724Y-127540198D01*
X79922722Y-127540197D01*
X79760319Y-127467891D01*
X79760318Y-127467891D01*
X79754288Y-127465206D01*
X79652302Y-127443528D01*
X79573944Y-127426872D01*
X79573939Y-127426872D01*
X79567487Y-127425500D01*
X79376513Y-127425500D01*
X79370061Y-127426872D01*
X79370056Y-127426872D01*
X79291698Y-127443528D01*
X79189712Y-127465206D01*
X79183682Y-127467891D01*
X79183681Y-127467891D01*
X79021278Y-127540197D01*
X79021276Y-127540198D01*
X79015248Y-127542882D01*
X78860747Y-127655134D01*
X78856326Y-127660044D01*
X78856325Y-127660045D01*
X78745006Y-127783678D01*
X78732960Y-127797056D01*
X78729659Y-127802774D01*
X78650353Y-127940136D01*
X78637473Y-127962444D01*
X78578458Y-128144072D01*
X78577768Y-128150633D01*
X78577768Y-128150635D01*
X78569720Y-128227206D01*
X78558496Y-128334000D01*
X69763048Y-128334000D01*
X69721342Y-128297278D01*
X69701881Y-128229001D01*
X69722423Y-128161041D01*
X69774627Y-128115805D01*
X69879690Y-128066814D01*
X69879695Y-128066811D01*
X69884677Y-128064488D01*
X70021435Y-127968729D01*
X70062270Y-127940136D01*
X70062273Y-127940134D01*
X70066781Y-127936977D01*
X70223977Y-127779781D01*
X70294195Y-127679500D01*
X70348331Y-127602185D01*
X70348332Y-127602183D01*
X70351488Y-127597676D01*
X70353811Y-127592694D01*
X70353814Y-127592689D01*
X70443117Y-127401178D01*
X70443118Y-127401177D01*
X70445440Y-127396196D01*
X70502978Y-127181463D01*
X70522353Y-126960000D01*
X70502978Y-126738537D01*
X70445440Y-126523804D01*
X70443117Y-126518822D01*
X70353814Y-126327311D01*
X70353811Y-126327306D01*
X70351488Y-126322324D01*
X70245965Y-126171621D01*
X70227136Y-126144730D01*
X70227134Y-126144727D01*
X70223977Y-126140219D01*
X70066781Y-125983023D01*
X70062273Y-125979866D01*
X70062270Y-125979864D01*
X69986505Y-125926813D01*
X69884677Y-125855512D01*
X69879695Y-125853189D01*
X69879690Y-125853186D01*
X69774627Y-125804195D01*
X69721342Y-125757278D01*
X69701881Y-125689001D01*
X69722423Y-125621041D01*
X69774627Y-125575805D01*
X69879690Y-125526814D01*
X69879695Y-125526811D01*
X69884677Y-125524488D01*
X70049212Y-125409279D01*
X70062270Y-125400136D01*
X70062273Y-125400134D01*
X70066781Y-125396977D01*
X70223977Y-125239781D01*
X70241074Y-125215365D01*
X70348331Y-125062185D01*
X70348332Y-125062183D01*
X70351488Y-125057676D01*
X70353811Y-125052694D01*
X70353814Y-125052689D01*
X70443117Y-124861178D01*
X70443118Y-124861177D01*
X70445440Y-124856196D01*
X70502978Y-124641463D01*
X70522353Y-124420000D01*
X70502978Y-124198537D01*
X70493992Y-124165000D01*
X74151372Y-124165000D01*
X74171854Y-124425249D01*
X74173008Y-124430056D01*
X74173009Y-124430062D01*
X74187435Y-124490148D01*
X74232796Y-124679089D01*
X74234689Y-124683660D01*
X74234690Y-124683662D01*
X74303957Y-124850886D01*
X74332697Y-124920271D01*
X74469097Y-125142856D01*
X74638637Y-125341363D01*
X74837144Y-125510903D01*
X75059729Y-125647303D01*
X75064299Y-125649196D01*
X75064303Y-125649198D01*
X75296338Y-125745310D01*
X75300911Y-125747204D01*
X75349874Y-125758959D01*
X75549938Y-125806991D01*
X75549944Y-125806992D01*
X75554751Y-125808146D01*
X75815000Y-125828628D01*
X76075249Y-125808146D01*
X76080056Y-125806992D01*
X76080062Y-125806991D01*
X76280126Y-125758959D01*
X76329089Y-125747204D01*
X76333662Y-125745310D01*
X76565697Y-125649198D01*
X76565701Y-125649196D01*
X76570271Y-125647303D01*
X76792856Y-125510903D01*
X76991363Y-125341363D01*
X77160903Y-125142856D01*
X77228836Y-125032000D01*
X93798496Y-125032000D01*
X93818458Y-125221928D01*
X93877473Y-125403556D01*
X93972960Y-125568944D01*
X93977378Y-125573851D01*
X93977379Y-125573852D01*
X94017526Y-125618440D01*
X94100747Y-125710866D01*
X94255248Y-125823118D01*
X94261276Y-125825802D01*
X94261278Y-125825803D01*
X94322782Y-125853186D01*
X94429712Y-125900794D01*
X94523112Y-125920647D01*
X94610056Y-125939128D01*
X94610061Y-125939128D01*
X94616513Y-125940500D01*
X94807487Y-125940500D01*
X94813939Y-125939128D01*
X94813944Y-125939128D01*
X94900888Y-125920647D01*
X94994288Y-125900794D01*
X95101218Y-125853186D01*
X95162722Y-125825803D01*
X95162724Y-125825802D01*
X95168752Y-125823118D01*
X95323253Y-125710866D01*
X95406474Y-125618440D01*
X95446621Y-125573852D01*
X95446622Y-125573851D01*
X95451040Y-125568944D01*
X95546527Y-125403556D01*
X95605542Y-125221928D01*
X95625504Y-125032000D01*
X95624814Y-125025435D01*
X95606232Y-124848635D01*
X95606232Y-124848633D01*
X95605542Y-124842072D01*
X95546527Y-124660444D01*
X95451040Y-124495056D01*
X95405744Y-124444749D01*
X95327675Y-124358045D01*
X95327674Y-124358044D01*
X95323253Y-124353134D01*
X95168752Y-124240882D01*
X95162724Y-124238198D01*
X95162722Y-124238197D01*
X95000319Y-124165891D01*
X95000318Y-124165891D01*
X94994288Y-124163206D01*
X94881721Y-124139279D01*
X94813944Y-124124872D01*
X94813939Y-124124872D01*
X94807487Y-124123500D01*
X94616513Y-124123500D01*
X94610061Y-124124872D01*
X94610056Y-124124872D01*
X94542279Y-124139279D01*
X94429712Y-124163206D01*
X94423682Y-124165891D01*
X94423681Y-124165891D01*
X94261278Y-124238197D01*
X94261276Y-124238198D01*
X94255248Y-124240882D01*
X94100747Y-124353134D01*
X94096326Y-124358044D01*
X94096325Y-124358045D01*
X94018257Y-124444749D01*
X93972960Y-124495056D01*
X93877473Y-124660444D01*
X93818458Y-124842072D01*
X93817768Y-124848633D01*
X93817768Y-124848635D01*
X93799186Y-125025435D01*
X93798496Y-125032000D01*
X77228836Y-125032000D01*
X77297303Y-124920271D01*
X77326044Y-124850886D01*
X77395310Y-124683662D01*
X77395311Y-124683660D01*
X77397204Y-124679089D01*
X77442565Y-124490148D01*
X77456991Y-124430062D01*
X77456992Y-124430056D01*
X77458146Y-124425249D01*
X77478628Y-124165000D01*
X77458146Y-123904751D01*
X77456992Y-123899944D01*
X77456991Y-123899938D01*
X77406916Y-123691365D01*
X77397204Y-123650911D01*
X77376207Y-123600219D01*
X77299198Y-123414303D01*
X77299196Y-123414299D01*
X77297303Y-123409729D01*
X77160903Y-123187144D01*
X77001068Y-123000000D01*
X92274496Y-123000000D01*
X92275186Y-123006565D01*
X92282826Y-123079251D01*
X92294458Y-123189928D01*
X92353473Y-123371556D01*
X92448960Y-123536944D01*
X92453378Y-123541851D01*
X92453379Y-123541852D01*
X92480589Y-123572072D01*
X92576747Y-123678866D01*
X92675843Y-123750864D01*
X92700207Y-123768565D01*
X92731248Y-123791118D01*
X92737276Y-123793802D01*
X92737278Y-123793803D01*
X92773094Y-123809749D01*
X92905712Y-123868794D01*
X92999112Y-123888647D01*
X93086056Y-123907128D01*
X93086061Y-123907128D01*
X93092513Y-123908500D01*
X93283487Y-123908500D01*
X93289939Y-123907128D01*
X93289944Y-123907128D01*
X93376888Y-123888647D01*
X93470288Y-123868794D01*
X93602906Y-123809749D01*
X93638722Y-123793803D01*
X93638724Y-123793802D01*
X93644752Y-123791118D01*
X93675794Y-123768565D01*
X93782050Y-123691365D01*
X93799253Y-123678866D01*
X93803668Y-123673963D01*
X93808580Y-123669540D01*
X93810221Y-123671362D01*
X93861210Y-123639950D01*
X93894399Y-123635500D01*
X95158578Y-123635500D01*
X95226699Y-123655502D01*
X95247673Y-123672405D01*
X98778750Y-127203483D01*
X98786326Y-127211809D01*
X98790447Y-127218303D01*
X98796222Y-127223726D01*
X98840265Y-127265085D01*
X98843107Y-127267840D01*
X98862906Y-127287639D01*
X98866031Y-127290063D01*
X98866040Y-127290071D01*
X98866126Y-127290137D01*
X98875151Y-127297845D01*
X98907494Y-127328217D01*
X98914438Y-127332035D01*
X98914440Y-127332036D01*
X98925329Y-127338022D01*
X98941847Y-127348873D01*
X98957933Y-127361350D01*
X98998666Y-127378976D01*
X99009314Y-127384193D01*
X99048197Y-127405569D01*
X99055872Y-127407540D01*
X99055878Y-127407542D01*
X99067911Y-127410631D01*
X99086613Y-127417034D01*
X99105292Y-127425117D01*
X99113118Y-127426357D01*
X99113123Y-127426358D01*
X99149120Y-127432060D01*
X99160740Y-127434466D01*
X99196037Y-127443528D01*
X99203718Y-127445500D01*
X99224066Y-127445500D01*
X99243778Y-127447051D01*
X99263880Y-127450235D01*
X99308055Y-127446059D01*
X99319914Y-127445500D01*
X126157280Y-127445500D01*
X126225401Y-127465502D01*
X126271475Y-127518250D01*
X126306186Y-127592689D01*
X126306189Y-127592694D01*
X126308512Y-127597676D01*
X126311668Y-127602183D01*
X126311669Y-127602185D01*
X126365806Y-127679500D01*
X126436023Y-127779781D01*
X126593219Y-127936977D01*
X126597727Y-127940134D01*
X126597730Y-127940136D01*
X126638565Y-127968729D01*
X126775323Y-128064488D01*
X126780305Y-128066811D01*
X126780310Y-128066814D01*
X126885373Y-128115805D01*
X126938658Y-128162722D01*
X126958119Y-128230999D01*
X126937577Y-128298959D01*
X126885373Y-128344195D01*
X126780311Y-128393186D01*
X126780306Y-128393189D01*
X126775324Y-128395512D01*
X126770817Y-128398668D01*
X126770815Y-128398669D01*
X126670782Y-128468713D01*
X126598511Y-128491500D01*
X119660806Y-128491500D01*
X119601265Y-128476544D01*
X119490870Y-128417351D01*
X119490869Y-128417351D01*
X119485437Y-128414438D01*
X119367923Y-128378510D01*
X119302200Y-128358416D01*
X119302198Y-128358416D01*
X119296302Y-128356613D01*
X119238449Y-128350736D01*
X119105666Y-128337248D01*
X119105661Y-128337248D01*
X119099538Y-128336626D01*
X118975475Y-128348354D01*
X118908771Y-128354659D01*
X118908769Y-128354659D01*
X118902638Y-128355239D01*
X118824576Y-128378510D01*
X118719007Y-128409981D01*
X118719005Y-128409982D01*
X118713104Y-128411741D01*
X118538154Y-128503982D01*
X118533368Y-128507858D01*
X118533366Y-128507859D01*
X118389243Y-128624568D01*
X118384453Y-128628447D01*
X118257854Y-128780396D01*
X118163178Y-128954041D01*
X118146283Y-129007955D01*
X118108083Y-129129852D01*
X118104035Y-129142768D01*
X118103370Y-129148891D01*
X118103369Y-129148895D01*
X118090554Y-129266866D01*
X118082676Y-129339388D01*
X118099913Y-129536413D01*
X118101632Y-129542330D01*
X118101633Y-129542335D01*
X118119549Y-129604000D01*
X118155091Y-129726336D01*
X118246108Y-129901926D01*
X118342738Y-130022973D01*
X118345231Y-130025466D01*
X118489150Y-130169384D01*
X118498252Y-130179527D01*
X118521968Y-130209025D01*
X118536087Y-130220872D01*
X118560421Y-130241291D01*
X118564069Y-130244472D01*
X118565881Y-130246115D01*
X118568075Y-130248309D01*
X118601349Y-130275642D01*
X118602147Y-130276304D01*
X118673474Y-130336154D01*
X118678144Y-130338722D01*
X118682261Y-130342103D01*
X118740145Y-130373140D01*
X118764086Y-130385977D01*
X118765245Y-130386606D01*
X118841381Y-130428462D01*
X118841389Y-130428465D01*
X118846787Y-130431433D01*
X118851869Y-130433045D01*
X118856563Y-130435562D01*
X118945531Y-130462762D01*
X118946559Y-130463082D01*
X119035306Y-130491235D01*
X119040602Y-130491829D01*
X119045698Y-130493387D01*
X119138257Y-130502790D01*
X119139393Y-130502911D01*
X119173008Y-130506681D01*
X119185730Y-130508108D01*
X119185734Y-130508108D01*
X119189227Y-130508500D01*
X119192754Y-130508500D01*
X119193739Y-130508555D01*
X119199419Y-130509002D01*
X119228825Y-130511989D01*
X119236337Y-130512752D01*
X119236339Y-130512752D01*
X119242462Y-130513374D01*
X119288108Y-130509059D01*
X119299967Y-130508500D01*
X126598510Y-130508500D01*
X126670781Y-130531287D01*
X126755892Y-130590882D01*
X126775323Y-130604488D01*
X126780305Y-130606811D01*
X126780310Y-130606814D01*
X126944336Y-130683300D01*
X126976804Y-130698440D01*
X126982112Y-130699862D01*
X126982114Y-130699863D01*
X127012650Y-130708045D01*
X127191537Y-130755978D01*
X127413000Y-130775353D01*
X127634463Y-130755978D01*
X127813350Y-130708045D01*
X127843886Y-130699863D01*
X127843888Y-130699862D01*
X127849196Y-130698440D01*
X127881664Y-130683300D01*
X128045690Y-130606814D01*
X128045695Y-130606811D01*
X128050677Y-130604488D01*
X128177256Y-130515856D01*
X128228270Y-130480136D01*
X128228273Y-130480134D01*
X128232781Y-130476977D01*
X128389977Y-130319781D01*
X128413107Y-130286749D01*
X128514331Y-130142185D01*
X128514332Y-130142183D01*
X128517488Y-130137676D01*
X128519811Y-130132694D01*
X128519814Y-130132689D01*
X128609117Y-129941178D01*
X128609118Y-129941177D01*
X128611440Y-129936196D01*
X128668978Y-129721463D01*
X128688353Y-129500000D01*
X128668978Y-129278537D01*
X128611440Y-129063804D01*
X128565497Y-128965279D01*
X128519814Y-128867311D01*
X128519811Y-128867306D01*
X128517488Y-128862324D01*
X128485586Y-128816763D01*
X128393136Y-128684730D01*
X128393134Y-128684727D01*
X128389977Y-128680219D01*
X128232781Y-128523023D01*
X128228273Y-128519866D01*
X128228270Y-128519864D01*
X128077706Y-128414438D01*
X128050677Y-128395512D01*
X128045695Y-128393189D01*
X128045690Y-128393186D01*
X127940627Y-128344195D01*
X127887342Y-128297278D01*
X127867881Y-128229001D01*
X127888423Y-128161041D01*
X127940627Y-128115805D01*
X128045690Y-128066814D01*
X128045695Y-128066811D01*
X128050677Y-128064488D01*
X128187435Y-127968729D01*
X128228270Y-127940136D01*
X128228273Y-127940134D01*
X128232781Y-127936977D01*
X128389977Y-127779781D01*
X128460195Y-127679500D01*
X128514331Y-127602185D01*
X128514332Y-127602183D01*
X128517488Y-127597676D01*
X128519811Y-127592694D01*
X128519814Y-127592689D01*
X128609117Y-127401178D01*
X128609118Y-127401177D01*
X128611440Y-127396196D01*
X128668978Y-127181463D01*
X128688353Y-126960000D01*
X128668978Y-126738537D01*
X128611440Y-126523804D01*
X128609117Y-126518822D01*
X128519814Y-126327311D01*
X128519811Y-126327306D01*
X128517488Y-126322324D01*
X128411965Y-126171621D01*
X128393136Y-126144730D01*
X128393134Y-126144727D01*
X128389977Y-126140219D01*
X128232781Y-125983023D01*
X128228273Y-125979866D01*
X128228270Y-125979864D01*
X128152505Y-125926813D01*
X128050677Y-125855512D01*
X128045695Y-125853189D01*
X128045690Y-125853186D01*
X127940627Y-125804195D01*
X127887342Y-125757278D01*
X127867881Y-125689001D01*
X127888423Y-125621041D01*
X127940627Y-125575805D01*
X128045690Y-125526814D01*
X128045695Y-125526811D01*
X128050677Y-125524488D01*
X128215212Y-125409279D01*
X128228270Y-125400136D01*
X128228273Y-125400134D01*
X128232781Y-125396977D01*
X128389977Y-125239781D01*
X128407074Y-125215365D01*
X128514331Y-125062185D01*
X128514332Y-125062183D01*
X128517488Y-125057676D01*
X128519811Y-125052694D01*
X128519814Y-125052689D01*
X128609117Y-124861178D01*
X128609118Y-124861177D01*
X128611440Y-124856196D01*
X128668978Y-124641463D01*
X128688353Y-124420000D01*
X128668978Y-124198537D01*
X128624924Y-124034128D01*
X128612863Y-123989114D01*
X128612862Y-123989112D01*
X128611440Y-123983804D01*
X128609117Y-123978822D01*
X128519814Y-123787311D01*
X128519811Y-123787306D01*
X128517488Y-123782324D01*
X128498660Y-123755435D01*
X128393136Y-123604730D01*
X128393134Y-123604727D01*
X128389977Y-123600219D01*
X128232781Y-123443023D01*
X128228273Y-123439866D01*
X128228270Y-123439864D01*
X128121740Y-123365271D01*
X128050677Y-123315512D01*
X128045695Y-123313189D01*
X128045690Y-123313186D01*
X127940627Y-123264195D01*
X127887342Y-123217278D01*
X127867881Y-123149001D01*
X127888423Y-123081041D01*
X127940627Y-123035805D01*
X128045690Y-122986814D01*
X128045695Y-122986811D01*
X128050677Y-122984488D01*
X128183000Y-122891834D01*
X128228270Y-122860136D01*
X128228273Y-122860134D01*
X128232781Y-122856977D01*
X128389977Y-122699781D01*
X128401940Y-122682697D01*
X128514331Y-122522185D01*
X128514332Y-122522183D01*
X128517488Y-122517676D01*
X128519811Y-122512694D01*
X128519814Y-122512689D01*
X128609117Y-122321178D01*
X128609118Y-122321177D01*
X128611440Y-122316196D01*
X128626979Y-122258206D01*
X128667554Y-122106776D01*
X128668978Y-122101463D01*
X128688353Y-121880000D01*
X128668978Y-121658537D01*
X128611440Y-121443804D01*
X128576325Y-121368500D01*
X128519814Y-121247311D01*
X128519811Y-121247306D01*
X128517488Y-121242324D01*
X128445046Y-121138866D01*
X128393136Y-121064730D01*
X128393134Y-121064727D01*
X128389977Y-121060219D01*
X128232781Y-120903023D01*
X128228273Y-120899866D01*
X128228270Y-120899864D01*
X128121740Y-120825271D01*
X128050677Y-120775512D01*
X128045695Y-120773189D01*
X128045690Y-120773186D01*
X127940627Y-120724195D01*
X127887342Y-120677278D01*
X127867881Y-120609001D01*
X127888423Y-120541041D01*
X127940627Y-120495805D01*
X128045690Y-120446814D01*
X128045695Y-120446811D01*
X128050677Y-120444488D01*
X128152505Y-120373187D01*
X128228270Y-120320136D01*
X128228273Y-120320134D01*
X128232781Y-120316977D01*
X128389977Y-120159781D01*
X128486008Y-120022635D01*
X128514331Y-119982185D01*
X128514332Y-119982183D01*
X128517488Y-119977676D01*
X128519811Y-119972694D01*
X128519814Y-119972689D01*
X128609117Y-119781178D01*
X128609118Y-119781177D01*
X128611440Y-119776196D01*
X128668978Y-119561463D01*
X128688353Y-119340000D01*
X128668978Y-119118537D01*
X128611440Y-118903804D01*
X128565497Y-118805279D01*
X128519814Y-118707311D01*
X128519811Y-118707306D01*
X128517488Y-118702324D01*
X128514331Y-118697815D01*
X128393136Y-118524730D01*
X128393134Y-118524727D01*
X128389977Y-118520219D01*
X128232781Y-118363023D01*
X128228273Y-118359866D01*
X128228270Y-118359864D01*
X128152505Y-118306813D01*
X128050677Y-118235512D01*
X128045695Y-118233189D01*
X128045690Y-118233186D01*
X127940035Y-118183919D01*
X127886750Y-118137002D01*
X127867289Y-118068725D01*
X127887831Y-118000765D01*
X127940035Y-117955529D01*
X128045445Y-117906376D01*
X128054931Y-117900898D01*
X128098764Y-117870207D01*
X128107139Y-117859729D01*
X128100071Y-117846281D01*
X127425812Y-117172022D01*
X127411868Y-117164408D01*
X127410035Y-117164539D01*
X127403420Y-117168790D01*
X126725207Y-117847003D01*
X126718777Y-117858777D01*
X126728074Y-117870793D01*
X126771069Y-117900898D01*
X126780555Y-117906376D01*
X126885965Y-117955529D01*
X126939250Y-118002446D01*
X126958711Y-118070723D01*
X126938169Y-118138683D01*
X126885965Y-118183919D01*
X126780311Y-118233186D01*
X126780306Y-118233189D01*
X126775324Y-118235512D01*
X126770817Y-118238668D01*
X126770815Y-118238669D01*
X126597730Y-118359864D01*
X126597727Y-118359866D01*
X126593219Y-118363023D01*
X126436023Y-118520219D01*
X126432866Y-118524727D01*
X126432864Y-118524730D01*
X126311669Y-118697815D01*
X126308512Y-118702324D01*
X126306189Y-118707306D01*
X126306186Y-118707311D01*
X126260503Y-118805279D01*
X126214560Y-118903804D01*
X126157022Y-119118537D01*
X126137647Y-119340000D01*
X126157022Y-119561463D01*
X126214560Y-119776196D01*
X126216882Y-119781177D01*
X126216883Y-119781178D01*
X126306186Y-119972689D01*
X126306189Y-119972694D01*
X126308512Y-119977676D01*
X126311668Y-119982183D01*
X126311669Y-119982185D01*
X126339993Y-120022635D01*
X126436023Y-120159781D01*
X126593219Y-120316977D01*
X126597727Y-120320134D01*
X126597730Y-120320136D01*
X126673495Y-120373187D01*
X126775323Y-120444488D01*
X126780305Y-120446811D01*
X126780310Y-120446814D01*
X126885373Y-120495805D01*
X126938658Y-120542722D01*
X126958119Y-120610999D01*
X126937577Y-120678959D01*
X126885373Y-120724195D01*
X126780311Y-120773186D01*
X126780306Y-120773189D01*
X126775324Y-120775512D01*
X126770817Y-120778668D01*
X126770815Y-120778669D01*
X126597730Y-120899864D01*
X126597727Y-120899866D01*
X126593219Y-120903023D01*
X126436023Y-121060219D01*
X126432866Y-121064727D01*
X126432864Y-121064730D01*
X126380954Y-121138866D01*
X126308512Y-121242324D01*
X126306189Y-121247306D01*
X126306186Y-121247311D01*
X126249675Y-121368500D01*
X126214560Y-121443804D01*
X126157022Y-121658537D01*
X126137647Y-121880000D01*
X126157022Y-122101463D01*
X126158446Y-122106776D01*
X126199022Y-122258206D01*
X126214560Y-122316196D01*
X126216882Y-122321177D01*
X126216883Y-122321178D01*
X126306186Y-122512689D01*
X126306189Y-122512694D01*
X126308512Y-122517676D01*
X126311668Y-122522183D01*
X126311669Y-122522185D01*
X126424061Y-122682697D01*
X126436023Y-122699781D01*
X126593219Y-122856977D01*
X126597727Y-122860134D01*
X126597730Y-122860136D01*
X126643000Y-122891834D01*
X126775323Y-122984488D01*
X126780305Y-122986811D01*
X126780310Y-122986814D01*
X126885373Y-123035805D01*
X126938658Y-123082722D01*
X126958119Y-123150999D01*
X126937577Y-123218959D01*
X126885373Y-123264195D01*
X126780311Y-123313186D01*
X126780306Y-123313189D01*
X126775324Y-123315512D01*
X126770817Y-123318668D01*
X126770815Y-123318669D01*
X126597730Y-123439864D01*
X126597727Y-123439866D01*
X126593219Y-123443023D01*
X126436023Y-123600219D01*
X126432866Y-123604727D01*
X126432864Y-123604730D01*
X126327340Y-123755435D01*
X126308512Y-123782324D01*
X126306189Y-123787306D01*
X126306186Y-123787311D01*
X126216883Y-123978822D01*
X126214560Y-123983804D01*
X126213138Y-123989112D01*
X126213137Y-123989114D01*
X126201076Y-124034128D01*
X126157022Y-124198537D01*
X126137647Y-124420000D01*
X126157022Y-124641463D01*
X126214560Y-124856196D01*
X126216882Y-124861177D01*
X126216883Y-124861178D01*
X126306186Y-125052689D01*
X126306189Y-125052694D01*
X126308512Y-125057676D01*
X126311668Y-125062183D01*
X126311669Y-125062185D01*
X126418927Y-125215365D01*
X126436023Y-125239781D01*
X126593219Y-125396977D01*
X126597727Y-125400134D01*
X126597730Y-125400136D01*
X126610788Y-125409279D01*
X126775323Y-125524488D01*
X126780305Y-125526811D01*
X126780310Y-125526814D01*
X126885373Y-125575805D01*
X126938658Y-125622722D01*
X126958119Y-125690999D01*
X126937577Y-125758959D01*
X126885373Y-125804195D01*
X126780311Y-125853186D01*
X126780306Y-125853189D01*
X126775324Y-125855512D01*
X126770817Y-125858668D01*
X126770815Y-125858669D01*
X126597730Y-125979864D01*
X126597727Y-125979866D01*
X126593219Y-125983023D01*
X126438647Y-126137595D01*
X126376335Y-126171621D01*
X126349552Y-126174500D01*
X99599423Y-126174500D01*
X99531302Y-126154498D01*
X99510328Y-126137595D01*
X97134733Y-123762000D01*
X101672496Y-123762000D01*
X101673186Y-123768565D01*
X101689187Y-123920803D01*
X101692458Y-123951928D01*
X101751473Y-124133556D01*
X101754776Y-124139278D01*
X101754777Y-124139279D01*
X101779416Y-124181955D01*
X101846960Y-124298944D01*
X101851378Y-124303851D01*
X101851379Y-124303852D01*
X101895753Y-124353134D01*
X101974747Y-124440866D01*
X102129248Y-124553118D01*
X102135276Y-124555802D01*
X102135278Y-124555803D01*
X102297681Y-124628109D01*
X102303712Y-124630794D01*
X102378901Y-124646776D01*
X102484056Y-124669128D01*
X102484061Y-124669128D01*
X102490513Y-124670500D01*
X102681487Y-124670500D01*
X102687939Y-124669128D01*
X102687944Y-124669128D01*
X102793099Y-124646776D01*
X102868288Y-124630794D01*
X102874319Y-124628109D01*
X103036722Y-124555803D01*
X103036724Y-124555802D01*
X103042752Y-124553118D01*
X103197253Y-124440866D01*
X103276247Y-124353134D01*
X103320621Y-124303852D01*
X103320622Y-124303851D01*
X103325040Y-124298944D01*
X103392584Y-124181955D01*
X103417223Y-124139279D01*
X103417224Y-124139278D01*
X103420527Y-124133556D01*
X103479542Y-123951928D01*
X103482814Y-123920803D01*
X103498814Y-123768565D01*
X103499504Y-123762000D01*
X103492080Y-123691365D01*
X103480232Y-123578635D01*
X103480232Y-123578633D01*
X103479542Y-123572072D01*
X103420527Y-123390444D01*
X103325040Y-123225056D01*
X103299064Y-123196206D01*
X103201675Y-123088045D01*
X103201674Y-123088044D01*
X103197253Y-123083134D01*
X103082829Y-123000000D01*
X103048094Y-122974763D01*
X103048093Y-122974762D01*
X103042752Y-122970882D01*
X103036724Y-122968198D01*
X103036722Y-122968197D01*
X102874319Y-122895891D01*
X102874318Y-122895891D01*
X102868288Y-122893206D01*
X102774888Y-122873353D01*
X102687944Y-122854872D01*
X102687939Y-122854872D01*
X102681487Y-122853500D01*
X102490513Y-122853500D01*
X102484061Y-122854872D01*
X102484056Y-122854872D01*
X102397112Y-122873353D01*
X102303712Y-122893206D01*
X102297682Y-122895891D01*
X102297681Y-122895891D01*
X102135278Y-122968197D01*
X102135276Y-122968198D01*
X102129248Y-122970882D01*
X102123907Y-122974762D01*
X102123906Y-122974763D01*
X102089171Y-123000000D01*
X101974747Y-123083134D01*
X101970326Y-123088044D01*
X101970325Y-123088045D01*
X101872937Y-123196206D01*
X101846960Y-123225056D01*
X101751473Y-123390444D01*
X101692458Y-123572072D01*
X101691768Y-123578633D01*
X101691768Y-123578635D01*
X101679920Y-123691365D01*
X101672496Y-123762000D01*
X97134733Y-123762000D01*
X96118733Y-122746000D01*
X106752496Y-122746000D01*
X106753186Y-122752565D01*
X106767824Y-122891834D01*
X106772458Y-122935928D01*
X106831473Y-123117556D01*
X106834776Y-123123278D01*
X106834777Y-123123279D01*
X106850781Y-123150999D01*
X106926960Y-123282944D01*
X106931378Y-123287851D01*
X106931379Y-123287852D01*
X107045236Y-123414303D01*
X107054747Y-123424866D01*
X107075390Y-123439864D01*
X107178207Y-123514565D01*
X107209248Y-123537118D01*
X107215276Y-123539802D01*
X107215278Y-123539803D01*
X107377681Y-123612109D01*
X107383712Y-123614794D01*
X107477113Y-123634647D01*
X107564056Y-123653128D01*
X107564061Y-123653128D01*
X107570513Y-123654500D01*
X107761487Y-123654500D01*
X107767939Y-123653128D01*
X107767944Y-123653128D01*
X107854887Y-123634647D01*
X107948288Y-123614794D01*
X107954319Y-123612109D01*
X108116722Y-123539803D01*
X108116724Y-123539802D01*
X108122752Y-123537118D01*
X108153794Y-123514565D01*
X108256610Y-123439864D01*
X108277253Y-123424866D01*
X108286764Y-123414303D01*
X108400621Y-123287852D01*
X108400622Y-123287851D01*
X108405040Y-123282944D01*
X108481219Y-123150999D01*
X108497223Y-123123279D01*
X108497224Y-123123278D01*
X108500527Y-123117556D01*
X108559542Y-122935928D01*
X108564177Y-122891834D01*
X108578814Y-122752565D01*
X108579504Y-122746000D01*
X115642496Y-122746000D01*
X115643186Y-122752565D01*
X115657824Y-122891834D01*
X115662458Y-122935928D01*
X115721473Y-123117556D01*
X115724776Y-123123278D01*
X115724777Y-123123279D01*
X115740781Y-123150999D01*
X115816960Y-123282944D01*
X115821378Y-123287851D01*
X115821379Y-123287852D01*
X115935236Y-123414303D01*
X115944747Y-123424866D01*
X115965390Y-123439864D01*
X116068207Y-123514565D01*
X116099248Y-123537118D01*
X116105276Y-123539802D01*
X116105278Y-123539803D01*
X116267681Y-123612109D01*
X116273712Y-123614794D01*
X116367113Y-123634647D01*
X116454056Y-123653128D01*
X116454061Y-123653128D01*
X116460513Y-123654500D01*
X116651487Y-123654500D01*
X116657939Y-123653128D01*
X116657944Y-123653128D01*
X116744887Y-123634647D01*
X116838288Y-123614794D01*
X116844319Y-123612109D01*
X117006722Y-123539803D01*
X117006724Y-123539802D01*
X117012752Y-123537118D01*
X117043794Y-123514565D01*
X117052830Y-123508000D01*
X118690496Y-123508000D01*
X118691186Y-123514565D01*
X118708863Y-123682749D01*
X118710458Y-123697928D01*
X118769473Y-123879556D01*
X118772776Y-123885278D01*
X118772777Y-123885279D01*
X118784019Y-123904751D01*
X118864960Y-124044944D01*
X118869378Y-124049851D01*
X118869379Y-124049852D01*
X118968620Y-124160070D01*
X118992747Y-124186866D01*
X119147248Y-124299118D01*
X119153276Y-124301802D01*
X119153278Y-124301803D01*
X119315681Y-124374109D01*
X119321712Y-124376794D01*
X119415113Y-124396647D01*
X119502056Y-124415128D01*
X119502061Y-124415128D01*
X119508513Y-124416500D01*
X119699487Y-124416500D01*
X119705939Y-124415128D01*
X119705944Y-124415128D01*
X119792887Y-124396647D01*
X119886288Y-124376794D01*
X119892319Y-124374109D01*
X120054722Y-124301803D01*
X120054724Y-124301802D01*
X120060752Y-124299118D01*
X120215253Y-124186866D01*
X120239380Y-124160070D01*
X120338621Y-124049852D01*
X120338622Y-124049851D01*
X120343040Y-124044944D01*
X120423981Y-123904751D01*
X120435223Y-123885279D01*
X120435224Y-123885278D01*
X120438527Y-123879556D01*
X120497542Y-123697928D01*
X120499138Y-123682749D01*
X120516814Y-123514565D01*
X120517504Y-123508000D01*
X120510343Y-123439864D01*
X120498232Y-123324635D01*
X120498232Y-123324633D01*
X120497542Y-123318072D01*
X120438527Y-123136444D01*
X120433075Y-123127000D01*
X123897496Y-123127000D01*
X123898186Y-123133565D01*
X123911916Y-123264195D01*
X123917458Y-123316928D01*
X123976473Y-123498556D01*
X123979776Y-123504278D01*
X123979777Y-123504279D01*
X123985716Y-123514565D01*
X124071960Y-123663944D01*
X124076378Y-123668851D01*
X124076379Y-123668852D01*
X124078639Y-123671362D01*
X124199747Y-123805866D01*
X124282664Y-123866109D01*
X124339122Y-123907128D01*
X124354248Y-123918118D01*
X124360276Y-123920802D01*
X124360278Y-123920803D01*
X124513708Y-123989114D01*
X124528712Y-123995794D01*
X124622112Y-124015647D01*
X124709056Y-124034128D01*
X124709061Y-124034128D01*
X124715513Y-124035500D01*
X124906487Y-124035500D01*
X124912939Y-124034128D01*
X124912944Y-124034128D01*
X124999888Y-124015647D01*
X125093288Y-123995794D01*
X125108292Y-123989114D01*
X125261722Y-123920803D01*
X125261724Y-123920802D01*
X125267752Y-123918118D01*
X125282879Y-123907128D01*
X125339336Y-123866109D01*
X125422253Y-123805866D01*
X125543361Y-123671362D01*
X125545621Y-123668852D01*
X125545622Y-123668851D01*
X125550040Y-123663944D01*
X125636284Y-123514565D01*
X125642223Y-123504279D01*
X125642224Y-123504278D01*
X125645527Y-123498556D01*
X125704542Y-123316928D01*
X125710085Y-123264195D01*
X125723814Y-123133565D01*
X125724504Y-123127000D01*
X125708715Y-122976774D01*
X125705232Y-122943635D01*
X125705232Y-122943633D01*
X125704542Y-122937072D01*
X125645527Y-122755444D01*
X125640075Y-122746000D01*
X125559544Y-122606517D01*
X125550040Y-122590056D01*
X125545209Y-122584690D01*
X125426675Y-122453045D01*
X125426674Y-122453044D01*
X125422253Y-122448134D01*
X125267752Y-122335882D01*
X125261724Y-122333198D01*
X125261722Y-122333197D01*
X125099319Y-122260891D01*
X125099318Y-122260891D01*
X125093288Y-122258206D01*
X124999887Y-122238353D01*
X124912944Y-122219872D01*
X124912939Y-122219872D01*
X124906487Y-122218500D01*
X124715513Y-122218500D01*
X124709061Y-122219872D01*
X124709056Y-122219872D01*
X124622113Y-122238353D01*
X124528712Y-122258206D01*
X124522682Y-122260891D01*
X124522681Y-122260891D01*
X124360278Y-122333197D01*
X124360276Y-122333198D01*
X124354248Y-122335882D01*
X124199747Y-122448134D01*
X124195326Y-122453044D01*
X124195325Y-122453045D01*
X124076792Y-122584690D01*
X124071960Y-122590056D01*
X124062456Y-122606517D01*
X123981926Y-122746000D01*
X123976473Y-122755444D01*
X123917458Y-122937072D01*
X123916768Y-122943633D01*
X123916768Y-122943635D01*
X123913285Y-122976774D01*
X123897496Y-123127000D01*
X120433075Y-123127000D01*
X120359751Y-123000000D01*
X120343040Y-122971056D01*
X120317064Y-122942206D01*
X120219675Y-122834045D01*
X120219674Y-122834044D01*
X120215253Y-122829134D01*
X120100829Y-122746000D01*
X120066094Y-122720763D01*
X120066093Y-122720762D01*
X120060752Y-122716882D01*
X120054724Y-122714198D01*
X120054722Y-122714197D01*
X119892319Y-122641891D01*
X119892318Y-122641891D01*
X119886288Y-122639206D01*
X119792888Y-122619353D01*
X119705944Y-122600872D01*
X119705939Y-122600872D01*
X119699487Y-122599500D01*
X119508513Y-122599500D01*
X119502061Y-122600872D01*
X119502056Y-122600872D01*
X119415112Y-122619353D01*
X119321712Y-122639206D01*
X119315682Y-122641891D01*
X119315681Y-122641891D01*
X119153278Y-122714197D01*
X119153276Y-122714198D01*
X119147248Y-122716882D01*
X119141907Y-122720762D01*
X119141906Y-122720763D01*
X119107171Y-122746000D01*
X118992747Y-122829134D01*
X118988326Y-122834044D01*
X118988325Y-122834045D01*
X118890937Y-122942206D01*
X118864960Y-122971056D01*
X118848249Y-123000000D01*
X118774926Y-123127000D01*
X118769473Y-123136444D01*
X118710458Y-123318072D01*
X118709768Y-123324633D01*
X118709768Y-123324635D01*
X118697657Y-123439864D01*
X118690496Y-123508000D01*
X117052830Y-123508000D01*
X117146610Y-123439864D01*
X117167253Y-123424866D01*
X117176764Y-123414303D01*
X117290621Y-123287852D01*
X117290622Y-123287851D01*
X117295040Y-123282944D01*
X117371219Y-123150999D01*
X117387223Y-123123279D01*
X117387224Y-123123278D01*
X117390527Y-123117556D01*
X117449542Y-122935928D01*
X117454177Y-122891834D01*
X117468814Y-122752565D01*
X117469504Y-122746000D01*
X117464172Y-122695270D01*
X117450232Y-122562635D01*
X117450232Y-122562633D01*
X117449542Y-122556072D01*
X117390527Y-122374444D01*
X117383891Y-122362949D01*
X117322625Y-122256834D01*
X117295040Y-122209056D01*
X117167253Y-122067134D01*
X117012752Y-121954882D01*
X117006724Y-121952198D01*
X117006722Y-121952197D01*
X116844319Y-121879891D01*
X116844318Y-121879891D01*
X116838288Y-121877206D01*
X116744888Y-121857353D01*
X116657944Y-121838872D01*
X116657939Y-121838872D01*
X116651487Y-121837500D01*
X116460513Y-121837500D01*
X116454061Y-121838872D01*
X116454056Y-121838872D01*
X116367112Y-121857353D01*
X116273712Y-121877206D01*
X116267682Y-121879891D01*
X116267681Y-121879891D01*
X116105278Y-121952197D01*
X116105276Y-121952198D01*
X116099248Y-121954882D01*
X115944747Y-122067134D01*
X115816960Y-122209056D01*
X115789375Y-122256834D01*
X115728110Y-122362949D01*
X115721473Y-122374444D01*
X115662458Y-122556072D01*
X115661768Y-122562633D01*
X115661768Y-122562635D01*
X115647828Y-122695270D01*
X115642496Y-122746000D01*
X108579504Y-122746000D01*
X108574172Y-122695270D01*
X108560232Y-122562635D01*
X108560232Y-122562633D01*
X108559542Y-122556072D01*
X108500527Y-122374444D01*
X108493891Y-122362949D01*
X108432625Y-122256834D01*
X108405040Y-122209056D01*
X108277253Y-122067134D01*
X108122752Y-121954882D01*
X108116724Y-121952198D01*
X108116722Y-121952197D01*
X107954319Y-121879891D01*
X107954318Y-121879891D01*
X107948288Y-121877206D01*
X107854888Y-121857353D01*
X107767944Y-121838872D01*
X107767939Y-121838872D01*
X107761487Y-121837500D01*
X107570513Y-121837500D01*
X107564061Y-121838872D01*
X107564056Y-121838872D01*
X107477112Y-121857353D01*
X107383712Y-121877206D01*
X107377682Y-121879891D01*
X107377681Y-121879891D01*
X107215278Y-121952197D01*
X107215276Y-121952198D01*
X107209248Y-121954882D01*
X107054747Y-122067134D01*
X106926960Y-122209056D01*
X106899375Y-122256834D01*
X106838110Y-122362949D01*
X106831473Y-122374444D01*
X106772458Y-122556072D01*
X106771768Y-122562633D01*
X106771768Y-122562635D01*
X106757828Y-122695270D01*
X106752496Y-122746000D01*
X96118733Y-122746000D01*
X95979250Y-122606517D01*
X95971674Y-122598191D01*
X95967553Y-122591697D01*
X95917734Y-122544914D01*
X95914893Y-122542160D01*
X95895094Y-122522361D01*
X95891969Y-122519937D01*
X95891960Y-122519929D01*
X95891874Y-122519863D01*
X95882849Y-122512155D01*
X95856285Y-122487210D01*
X95850506Y-122481783D01*
X95832669Y-122471977D01*
X95816153Y-122461127D01*
X95800067Y-122448650D01*
X95759334Y-122431024D01*
X95748686Y-122425807D01*
X95737058Y-122419415D01*
X95709803Y-122404431D01*
X95702128Y-122402460D01*
X95702122Y-122402458D01*
X95690089Y-122399369D01*
X95671387Y-122392966D01*
X95652708Y-122384883D01*
X95618872Y-122379524D01*
X95608873Y-122377940D01*
X95597260Y-122375535D01*
X95554282Y-122364500D01*
X95533935Y-122364500D01*
X95514224Y-122362949D01*
X95501950Y-122361005D01*
X95494121Y-122359765D01*
X95486229Y-122360511D01*
X95449944Y-122363941D01*
X95438086Y-122364500D01*
X93894399Y-122364500D01*
X93826278Y-122344498D01*
X93809092Y-122329891D01*
X93808580Y-122330460D01*
X93803668Y-122326037D01*
X93799253Y-122321134D01*
X93716336Y-122260891D01*
X93650094Y-122212763D01*
X93650093Y-122212762D01*
X93644752Y-122208882D01*
X93638724Y-122206198D01*
X93638722Y-122206197D01*
X93476319Y-122133891D01*
X93476318Y-122133891D01*
X93470288Y-122131206D01*
X93355355Y-122106776D01*
X93289944Y-122092872D01*
X93289939Y-122092872D01*
X93283487Y-122091500D01*
X93092513Y-122091500D01*
X93086061Y-122092872D01*
X93086056Y-122092872D01*
X93020645Y-122106776D01*
X92905712Y-122131206D01*
X92899682Y-122133891D01*
X92899681Y-122133891D01*
X92737278Y-122206197D01*
X92737276Y-122206198D01*
X92731248Y-122208882D01*
X92725907Y-122212762D01*
X92725906Y-122212763D01*
X92675843Y-122249136D01*
X92576747Y-122321134D01*
X92572326Y-122326044D01*
X92572325Y-122326045D01*
X92498307Y-122408251D01*
X92448960Y-122463056D01*
X92416124Y-122519929D01*
X92366133Y-122606517D01*
X92353473Y-122628444D01*
X92294458Y-122810072D01*
X92293768Y-122816633D01*
X92293768Y-122816635D01*
X92285720Y-122893206D01*
X92274496Y-123000000D01*
X77001068Y-123000000D01*
X76991363Y-122988637D01*
X76792856Y-122819097D01*
X76570271Y-122682697D01*
X76565701Y-122680804D01*
X76565697Y-122680802D01*
X76333662Y-122584690D01*
X76333660Y-122584689D01*
X76329089Y-122582796D01*
X76240069Y-122561424D01*
X76080062Y-122523009D01*
X76080056Y-122523008D01*
X76075249Y-122521854D01*
X75815000Y-122501372D01*
X75554751Y-122521854D01*
X75549944Y-122523008D01*
X75549938Y-122523009D01*
X75389931Y-122561424D01*
X75300911Y-122582796D01*
X75296340Y-122584689D01*
X75296338Y-122584690D01*
X75064303Y-122680802D01*
X75064299Y-122680804D01*
X75059729Y-122682697D01*
X74837144Y-122819097D01*
X74638637Y-122988637D01*
X74469097Y-123187144D01*
X74332697Y-123409729D01*
X74330804Y-123414299D01*
X74330802Y-123414303D01*
X74253793Y-123600219D01*
X74232796Y-123650911D01*
X74223084Y-123691365D01*
X74173009Y-123899938D01*
X74173008Y-123899944D01*
X74171854Y-123904751D01*
X74151372Y-124165000D01*
X70493992Y-124165000D01*
X70458924Y-124034128D01*
X70446863Y-123989114D01*
X70446862Y-123989112D01*
X70445440Y-123983804D01*
X70443117Y-123978822D01*
X70353814Y-123787311D01*
X70353811Y-123787306D01*
X70351488Y-123782324D01*
X70332660Y-123755435D01*
X70227136Y-123604730D01*
X70227134Y-123604727D01*
X70223977Y-123600219D01*
X70066781Y-123443023D01*
X70062273Y-123439866D01*
X70062270Y-123439864D01*
X69955740Y-123365271D01*
X69884677Y-123315512D01*
X69879695Y-123313189D01*
X69879690Y-123313186D01*
X69774627Y-123264195D01*
X69721342Y-123217278D01*
X69701881Y-123149001D01*
X69722423Y-123081041D01*
X69774627Y-123035805D01*
X69879690Y-122986814D01*
X69879695Y-122986811D01*
X69884677Y-122984488D01*
X70017000Y-122891834D01*
X70062270Y-122860136D01*
X70062273Y-122860134D01*
X70066781Y-122856977D01*
X70223977Y-122699781D01*
X70235940Y-122682697D01*
X70348331Y-122522185D01*
X70348332Y-122522183D01*
X70351488Y-122517676D01*
X70353811Y-122512694D01*
X70353814Y-122512689D01*
X70443117Y-122321178D01*
X70443118Y-122321177D01*
X70445440Y-122316196D01*
X70460979Y-122258206D01*
X70501554Y-122106776D01*
X70502978Y-122101463D01*
X70522353Y-121880000D01*
X70502978Y-121658537D01*
X70445440Y-121443804D01*
X70410325Y-121368500D01*
X70353814Y-121247311D01*
X70353811Y-121247306D01*
X70351488Y-121242324D01*
X70279046Y-121138866D01*
X70227136Y-121064730D01*
X70227134Y-121064727D01*
X70223977Y-121060219D01*
X70066781Y-120903023D01*
X70062273Y-120899866D01*
X70062270Y-120899864D01*
X69955740Y-120825271D01*
X69884677Y-120775512D01*
X69879695Y-120773189D01*
X69879690Y-120773186D01*
X69774627Y-120724195D01*
X69721342Y-120677278D01*
X69701881Y-120609001D01*
X69722423Y-120541041D01*
X69774627Y-120495805D01*
X69851412Y-120460000D01*
X106752496Y-120460000D01*
X106772458Y-120649928D01*
X106831473Y-120831556D01*
X106926960Y-120996944D01*
X107054747Y-121138866D01*
X107209248Y-121251118D01*
X107215276Y-121253802D01*
X107215278Y-121253803D01*
X107377681Y-121326109D01*
X107383712Y-121328794D01*
X107477113Y-121348647D01*
X107564056Y-121367128D01*
X107564061Y-121367128D01*
X107570513Y-121368500D01*
X107761487Y-121368500D01*
X107767939Y-121367128D01*
X107767944Y-121367128D01*
X107854887Y-121348647D01*
X107948288Y-121328794D01*
X107954319Y-121326109D01*
X108116722Y-121253803D01*
X108116724Y-121253802D01*
X108122752Y-121251118D01*
X108277253Y-121138866D01*
X108405040Y-120996944D01*
X108500527Y-120831556D01*
X108559542Y-120649928D01*
X108579504Y-120460000D01*
X108559542Y-120270072D01*
X108538724Y-120206000D01*
X117166496Y-120206000D01*
X117186458Y-120395928D01*
X117245473Y-120577556D01*
X117248776Y-120583278D01*
X117248777Y-120583279D01*
X117264781Y-120610999D01*
X117340960Y-120742944D01*
X117345378Y-120747851D01*
X117345379Y-120747852D01*
X117464325Y-120879955D01*
X117468747Y-120884866D01*
X117623248Y-120997118D01*
X117629276Y-120999802D01*
X117629278Y-120999803D01*
X117791681Y-121072109D01*
X117797712Y-121074794D01*
X117891112Y-121094647D01*
X117978056Y-121113128D01*
X117978061Y-121113128D01*
X117984513Y-121114500D01*
X118175487Y-121114500D01*
X118181939Y-121113128D01*
X118181944Y-121113128D01*
X118268888Y-121094647D01*
X118362288Y-121074794D01*
X118368319Y-121072109D01*
X118530722Y-120999803D01*
X118530724Y-120999802D01*
X118536752Y-120997118D01*
X118691253Y-120884866D01*
X118695675Y-120879955D01*
X118814621Y-120747852D01*
X118814622Y-120747851D01*
X118819040Y-120742944D01*
X118895219Y-120610999D01*
X118911223Y-120583279D01*
X118911224Y-120583278D01*
X118914527Y-120577556D01*
X118973542Y-120395928D01*
X118993504Y-120206000D01*
X123770496Y-120206000D01*
X123790458Y-120395928D01*
X123849473Y-120577556D01*
X123852776Y-120583278D01*
X123852777Y-120583279D01*
X123868781Y-120610999D01*
X123944960Y-120742944D01*
X123949378Y-120747851D01*
X123949379Y-120747852D01*
X124068325Y-120879955D01*
X124072747Y-120884866D01*
X124227248Y-120997118D01*
X124233276Y-120999802D01*
X124233278Y-120999803D01*
X124395681Y-121072109D01*
X124401712Y-121074794D01*
X124495112Y-121094647D01*
X124582056Y-121113128D01*
X124582061Y-121113128D01*
X124588513Y-121114500D01*
X124779487Y-121114500D01*
X124785939Y-121113128D01*
X124785944Y-121113128D01*
X124872888Y-121094647D01*
X124966288Y-121074794D01*
X124972319Y-121072109D01*
X125134722Y-120999803D01*
X125134724Y-120999802D01*
X125140752Y-120997118D01*
X125295253Y-120884866D01*
X125299675Y-120879955D01*
X125418621Y-120747852D01*
X125418622Y-120747851D01*
X125423040Y-120742944D01*
X125499219Y-120610999D01*
X125515223Y-120583279D01*
X125515224Y-120583278D01*
X125518527Y-120577556D01*
X125577542Y-120395928D01*
X125597504Y-120206000D01*
X125577542Y-120016072D01*
X125518527Y-119834444D01*
X125423040Y-119669056D01*
X125348028Y-119585746D01*
X125299675Y-119532045D01*
X125299674Y-119532044D01*
X125295253Y-119527134D01*
X125140752Y-119414882D01*
X125134724Y-119412198D01*
X125134722Y-119412197D01*
X124972319Y-119339891D01*
X124972318Y-119339891D01*
X124966288Y-119337206D01*
X124872887Y-119317353D01*
X124785944Y-119298872D01*
X124785939Y-119298872D01*
X124779487Y-119297500D01*
X124588513Y-119297500D01*
X124582061Y-119298872D01*
X124582056Y-119298872D01*
X124495113Y-119317353D01*
X124401712Y-119337206D01*
X124395682Y-119339891D01*
X124395681Y-119339891D01*
X124233278Y-119412197D01*
X124233276Y-119412198D01*
X124227248Y-119414882D01*
X124072747Y-119527134D01*
X124068326Y-119532044D01*
X124068325Y-119532045D01*
X124019973Y-119585746D01*
X123944960Y-119669056D01*
X123849473Y-119834444D01*
X123790458Y-120016072D01*
X123770496Y-120206000D01*
X118993504Y-120206000D01*
X118973542Y-120016072D01*
X118914527Y-119834444D01*
X118819040Y-119669056D01*
X118744028Y-119585746D01*
X118695675Y-119532045D01*
X118695674Y-119532044D01*
X118691253Y-119527134D01*
X118536752Y-119414882D01*
X118530724Y-119412198D01*
X118530722Y-119412197D01*
X118368319Y-119339891D01*
X118368318Y-119339891D01*
X118362288Y-119337206D01*
X118268887Y-119317353D01*
X118181944Y-119298872D01*
X118181939Y-119298872D01*
X118175487Y-119297500D01*
X117984513Y-119297500D01*
X117978061Y-119298872D01*
X117978056Y-119298872D01*
X117891113Y-119317353D01*
X117797712Y-119337206D01*
X117791682Y-119339891D01*
X117791681Y-119339891D01*
X117629278Y-119412197D01*
X117629276Y-119412198D01*
X117623248Y-119414882D01*
X117468747Y-119527134D01*
X117464326Y-119532044D01*
X117464325Y-119532045D01*
X117415973Y-119585746D01*
X117340960Y-119669056D01*
X117245473Y-119834444D01*
X117186458Y-120016072D01*
X117166496Y-120206000D01*
X108538724Y-120206000D01*
X108500527Y-120088444D01*
X108405040Y-119923056D01*
X108325254Y-119834444D01*
X108281675Y-119786045D01*
X108281674Y-119786044D01*
X108277253Y-119781134D01*
X108122752Y-119668882D01*
X108116724Y-119666198D01*
X108116722Y-119666197D01*
X107954319Y-119593891D01*
X107954318Y-119593891D01*
X107948288Y-119591206D01*
X107941827Y-119589833D01*
X107941822Y-119589831D01*
X107922606Y-119585746D01*
X107860132Y-119552018D01*
X107825811Y-119489868D01*
X107830539Y-119419029D01*
X107872815Y-119361992D01*
X107939217Y-119336865D01*
X107948803Y-119336500D01*
X108015487Y-119336500D01*
X108021939Y-119335128D01*
X108021944Y-119335128D01*
X108108887Y-119316647D01*
X108202288Y-119296794D01*
X108208319Y-119294109D01*
X108370722Y-119221803D01*
X108370724Y-119221802D01*
X108376752Y-119219118D01*
X108531253Y-119106866D01*
X108659040Y-118964944D01*
X108754527Y-118799556D01*
X108813542Y-118617928D01*
X108833504Y-118428000D01*
X108813542Y-118238072D01*
X108754527Y-118056444D01*
X108659040Y-117891056D01*
X108640268Y-117870207D01*
X108535675Y-117754045D01*
X108535674Y-117754044D01*
X108531253Y-117749134D01*
X108376752Y-117636882D01*
X108370724Y-117634198D01*
X108370722Y-117634197D01*
X108208319Y-117561891D01*
X108208318Y-117561891D01*
X108202288Y-117559206D01*
X108108887Y-117539353D01*
X108021944Y-117520872D01*
X108021939Y-117520872D01*
X108015487Y-117519500D01*
X107824513Y-117519500D01*
X107818061Y-117520872D01*
X107818056Y-117520872D01*
X107731113Y-117539353D01*
X107637712Y-117559206D01*
X107631682Y-117561891D01*
X107631681Y-117561891D01*
X107469278Y-117634197D01*
X107469276Y-117634198D01*
X107463248Y-117636882D01*
X107308747Y-117749134D01*
X107304326Y-117754044D01*
X107304325Y-117754045D01*
X107199733Y-117870207D01*
X107180960Y-117891056D01*
X107085473Y-118056444D01*
X107026458Y-118238072D01*
X107006496Y-118428000D01*
X107026458Y-118617928D01*
X107085473Y-118799556D01*
X107180960Y-118964944D01*
X107308747Y-119106866D01*
X107463248Y-119219118D01*
X107469276Y-119221802D01*
X107469278Y-119221803D01*
X107631681Y-119294109D01*
X107637712Y-119296794D01*
X107644173Y-119298167D01*
X107644178Y-119298169D01*
X107663394Y-119302254D01*
X107725868Y-119335982D01*
X107760189Y-119398132D01*
X107755461Y-119468971D01*
X107713185Y-119526008D01*
X107646783Y-119551135D01*
X107637197Y-119551500D01*
X107570513Y-119551500D01*
X107564061Y-119552872D01*
X107564056Y-119552872D01*
X107498645Y-119566776D01*
X107383712Y-119591206D01*
X107377682Y-119593891D01*
X107377681Y-119593891D01*
X107215278Y-119666197D01*
X107215276Y-119666198D01*
X107209248Y-119668882D01*
X107054747Y-119781134D01*
X107050326Y-119786044D01*
X107050325Y-119786045D01*
X107006747Y-119834444D01*
X106926960Y-119923056D01*
X106831473Y-120088444D01*
X106772458Y-120270072D01*
X106752496Y-120460000D01*
X69851412Y-120460000D01*
X69879690Y-120446814D01*
X69879695Y-120446811D01*
X69884677Y-120444488D01*
X69986505Y-120373187D01*
X70062270Y-120320136D01*
X70062273Y-120320134D01*
X70066781Y-120316977D01*
X70223977Y-120159781D01*
X70320008Y-120022635D01*
X70348331Y-119982185D01*
X70348332Y-119982183D01*
X70351488Y-119977676D01*
X70353811Y-119972694D01*
X70353814Y-119972689D01*
X70443117Y-119781178D01*
X70443118Y-119781177D01*
X70445440Y-119776196D01*
X70502978Y-119561463D01*
X70522353Y-119340000D01*
X70502978Y-119118537D01*
X70445440Y-118903804D01*
X70399497Y-118805279D01*
X70353814Y-118707311D01*
X70353811Y-118707306D01*
X70351488Y-118702324D01*
X70348331Y-118697815D01*
X70227136Y-118524730D01*
X70227134Y-118524727D01*
X70223977Y-118520219D01*
X70066781Y-118363023D01*
X70062273Y-118359866D01*
X70062270Y-118359864D01*
X69986505Y-118306813D01*
X69884677Y-118235512D01*
X69879695Y-118233189D01*
X69879690Y-118233186D01*
X69774035Y-118183919D01*
X69720750Y-118137002D01*
X69701289Y-118068725D01*
X69721831Y-118000765D01*
X69774035Y-117955529D01*
X69879445Y-117906376D01*
X69888931Y-117900898D01*
X69932764Y-117870207D01*
X69941139Y-117859729D01*
X69934071Y-117846281D01*
X69259812Y-117172022D01*
X69245868Y-117164408D01*
X69244035Y-117164539D01*
X69237420Y-117168790D01*
X68559207Y-117847003D01*
X68552777Y-117858777D01*
X68562074Y-117870793D01*
X68605069Y-117900898D01*
X68614555Y-117906376D01*
X68719965Y-117955529D01*
X68773250Y-118002446D01*
X68792711Y-118070723D01*
X68772169Y-118138683D01*
X68719965Y-118183919D01*
X68614311Y-118233186D01*
X68614306Y-118233189D01*
X68609324Y-118235512D01*
X68604817Y-118238668D01*
X68604815Y-118238669D01*
X68431730Y-118359864D01*
X68431727Y-118359866D01*
X68427219Y-118363023D01*
X68270023Y-118520219D01*
X68266866Y-118524727D01*
X68266864Y-118524730D01*
X68145669Y-118697815D01*
X68142512Y-118702324D01*
X68140189Y-118707306D01*
X68140186Y-118707311D01*
X68094503Y-118805279D01*
X68048560Y-118903804D01*
X67991022Y-119118537D01*
X67971647Y-119340000D01*
X67991022Y-119561463D01*
X68048560Y-119776196D01*
X68050882Y-119781177D01*
X68050883Y-119781178D01*
X68140186Y-119972689D01*
X68140189Y-119972694D01*
X68142512Y-119977676D01*
X68145668Y-119982183D01*
X68145669Y-119982185D01*
X68173993Y-120022635D01*
X68270023Y-120159781D01*
X68427219Y-120316977D01*
X68431727Y-120320134D01*
X68431730Y-120320136D01*
X68507495Y-120373187D01*
X68609323Y-120444488D01*
X68614305Y-120446811D01*
X68614310Y-120446814D01*
X68719373Y-120495805D01*
X68772658Y-120542722D01*
X68792119Y-120610999D01*
X68771577Y-120678959D01*
X68719373Y-120724195D01*
X68614311Y-120773186D01*
X68614306Y-120773189D01*
X68609324Y-120775512D01*
X68604817Y-120778668D01*
X68604815Y-120778669D01*
X68431730Y-120899864D01*
X68431727Y-120899866D01*
X68427219Y-120903023D01*
X68270023Y-121060219D01*
X68266866Y-121064727D01*
X68266864Y-121064730D01*
X68214954Y-121138866D01*
X68142512Y-121242324D01*
X68140189Y-121247306D01*
X68140186Y-121247311D01*
X68083675Y-121368500D01*
X68048560Y-121443804D01*
X67991022Y-121658537D01*
X67971647Y-121880000D01*
X67991022Y-122101463D01*
X67992446Y-122106776D01*
X68033022Y-122258206D01*
X68048560Y-122316196D01*
X68050882Y-122321177D01*
X68050883Y-122321178D01*
X68140186Y-122512689D01*
X68140189Y-122512694D01*
X68142512Y-122517676D01*
X68145668Y-122522183D01*
X68145669Y-122522185D01*
X68258061Y-122682697D01*
X68270023Y-122699781D01*
X68427219Y-122856977D01*
X68431727Y-122860134D01*
X68431730Y-122860136D01*
X68477000Y-122891834D01*
X68609323Y-122984488D01*
X68614305Y-122986811D01*
X68614310Y-122986814D01*
X68719373Y-123035805D01*
X68772658Y-123082722D01*
X68792119Y-123150999D01*
X68771577Y-123218959D01*
X68719373Y-123264195D01*
X68614311Y-123313186D01*
X68614306Y-123313189D01*
X68609324Y-123315512D01*
X68604817Y-123318668D01*
X68604815Y-123318669D01*
X68431730Y-123439864D01*
X68431727Y-123439866D01*
X68427219Y-123443023D01*
X68270023Y-123600219D01*
X68266866Y-123604727D01*
X68266864Y-123604730D01*
X68161340Y-123755435D01*
X68142512Y-123782324D01*
X68140189Y-123787306D01*
X68140186Y-123787311D01*
X68050883Y-123978822D01*
X68048560Y-123983804D01*
X68047138Y-123989112D01*
X68047137Y-123989114D01*
X68035076Y-124034128D01*
X67991022Y-124198537D01*
X67971647Y-124420000D01*
X67991022Y-124641463D01*
X68048560Y-124856196D01*
X68050882Y-124861177D01*
X68050883Y-124861178D01*
X68140186Y-125052689D01*
X68140189Y-125052694D01*
X68142512Y-125057676D01*
X68145668Y-125062183D01*
X68145669Y-125062185D01*
X68252927Y-125215365D01*
X68270023Y-125239781D01*
X68427219Y-125396977D01*
X68431727Y-125400134D01*
X68431730Y-125400136D01*
X68444788Y-125409279D01*
X68609323Y-125524488D01*
X68614305Y-125526811D01*
X68614310Y-125526814D01*
X68719373Y-125575805D01*
X68772658Y-125622722D01*
X68792119Y-125690999D01*
X68771577Y-125758959D01*
X68719373Y-125804195D01*
X68614311Y-125853186D01*
X68614306Y-125853189D01*
X68609324Y-125855512D01*
X68604817Y-125858668D01*
X68604815Y-125858669D01*
X68431730Y-125979864D01*
X68431727Y-125979866D01*
X68427219Y-125983023D01*
X68270023Y-126140219D01*
X68266866Y-126144727D01*
X68266864Y-126144730D01*
X68248035Y-126171621D01*
X68142512Y-126322324D01*
X68140189Y-126327306D01*
X68140186Y-126327311D01*
X68050883Y-126518822D01*
X68048560Y-126523804D01*
X67991022Y-126738537D01*
X67971647Y-126960000D01*
X67991022Y-127181463D01*
X68048560Y-127396196D01*
X68050882Y-127401177D01*
X68050883Y-127401178D01*
X68140186Y-127592689D01*
X68140189Y-127592694D01*
X68142512Y-127597676D01*
X68145668Y-127602183D01*
X68145669Y-127602185D01*
X68199806Y-127679500D01*
X68270023Y-127779781D01*
X68427219Y-127936977D01*
X68431727Y-127940134D01*
X68431730Y-127940136D01*
X68472565Y-127968729D01*
X68609323Y-128064488D01*
X68614305Y-128066811D01*
X68614310Y-128066814D01*
X68719373Y-128115805D01*
X68772658Y-128162722D01*
X68792119Y-128230999D01*
X68771577Y-128298959D01*
X68719373Y-128344195D01*
X68614311Y-128393186D01*
X68614306Y-128393189D01*
X68609324Y-128395512D01*
X68604817Y-128398668D01*
X68604815Y-128398669D01*
X68431730Y-128519864D01*
X68431727Y-128519866D01*
X68427219Y-128523023D01*
X68270023Y-128680219D01*
X68266866Y-128684727D01*
X68266864Y-128684730D01*
X68174414Y-128816763D01*
X68142512Y-128862324D01*
X68140189Y-128867306D01*
X68140186Y-128867311D01*
X68094503Y-128965279D01*
X68048560Y-129063804D01*
X67991022Y-129278537D01*
X67971647Y-129500000D01*
X62625565Y-129500000D01*
X62715462Y-116805475D01*
X67972628Y-116805475D01*
X67991038Y-117015896D01*
X67992941Y-117026691D01*
X68047609Y-117230715D01*
X68051355Y-117241007D01*
X68140623Y-117432441D01*
X68146103Y-117441932D01*
X68176794Y-117485765D01*
X68187271Y-117494140D01*
X68200718Y-117487072D01*
X68874978Y-116812812D01*
X68881356Y-116801132D01*
X69611408Y-116801132D01*
X69611539Y-116802965D01*
X69615790Y-116809580D01*
X70294003Y-117487793D01*
X70305777Y-117494223D01*
X70317793Y-117484926D01*
X70347897Y-117441932D01*
X70353377Y-117432441D01*
X70442645Y-117241007D01*
X70446391Y-117230715D01*
X70501059Y-117026691D01*
X70502962Y-117015896D01*
X70521372Y-116805475D01*
X70521372Y-116794525D01*
X70502962Y-116584104D01*
X70501059Y-116573309D01*
X70446391Y-116369285D01*
X70442645Y-116358993D01*
X70353377Y-116167559D01*
X70347897Y-116158068D01*
X70336647Y-116142000D01*
X115896496Y-116142000D01*
X115897186Y-116148565D01*
X115913187Y-116300803D01*
X115916458Y-116331928D01*
X115975473Y-116513556D01*
X116070960Y-116678944D01*
X116198747Y-116820866D01*
X116353248Y-116933118D01*
X116359276Y-116935802D01*
X116359278Y-116935803D01*
X116521681Y-117008109D01*
X116527712Y-117010794D01*
X116621112Y-117030647D01*
X116708056Y-117049128D01*
X116708061Y-117049128D01*
X116714513Y-117050500D01*
X116905487Y-117050500D01*
X116911939Y-117049128D01*
X116911944Y-117049128D01*
X116998888Y-117030647D01*
X117092288Y-117010794D01*
X117098319Y-117008109D01*
X117260722Y-116935803D01*
X117260724Y-116935802D01*
X117266752Y-116933118D01*
X117421253Y-116820866D01*
X117435111Y-116805475D01*
X126138628Y-116805475D01*
X126157038Y-117015896D01*
X126158941Y-117026691D01*
X126213609Y-117230715D01*
X126217355Y-117241007D01*
X126306623Y-117432441D01*
X126312103Y-117441932D01*
X126342794Y-117485765D01*
X126353271Y-117494140D01*
X126366718Y-117487072D01*
X127040978Y-116812812D01*
X127047356Y-116801132D01*
X127777408Y-116801132D01*
X127777539Y-116802965D01*
X127781790Y-116809580D01*
X128460003Y-117487793D01*
X128471777Y-117494223D01*
X128483793Y-117484926D01*
X128513897Y-117441932D01*
X128519377Y-117432441D01*
X128608645Y-117241007D01*
X128612391Y-117230715D01*
X128667059Y-117026691D01*
X128668962Y-117015896D01*
X128687372Y-116805475D01*
X128687372Y-116794525D01*
X128668962Y-116584104D01*
X128667059Y-116573309D01*
X128612391Y-116369285D01*
X128608645Y-116358993D01*
X128519377Y-116167559D01*
X128513897Y-116158068D01*
X128483206Y-116114235D01*
X128472729Y-116105860D01*
X128459282Y-116112928D01*
X127785022Y-116787188D01*
X127777408Y-116801132D01*
X127047356Y-116801132D01*
X127048592Y-116798868D01*
X127048461Y-116797035D01*
X127044210Y-116790420D01*
X126365997Y-116112207D01*
X126354223Y-116105777D01*
X126342207Y-116115074D01*
X126312103Y-116158068D01*
X126306623Y-116167559D01*
X126217355Y-116358993D01*
X126213609Y-116369285D01*
X126158941Y-116573309D01*
X126157038Y-116584104D01*
X126138628Y-116794525D01*
X126138628Y-116805475D01*
X117435111Y-116805475D01*
X117549040Y-116678944D01*
X117644527Y-116513556D01*
X117703542Y-116331928D01*
X117706814Y-116300803D01*
X117722814Y-116148565D01*
X117723504Y-116142000D01*
X117703542Y-115952072D01*
X117644527Y-115770444D01*
X117549040Y-115605056D01*
X117460750Y-115507000D01*
X118563496Y-115507000D01*
X118564186Y-115513565D01*
X118573335Y-115600609D01*
X118583458Y-115696928D01*
X118642473Y-115878556D01*
X118737960Y-116043944D01*
X118742378Y-116048851D01*
X118742379Y-116048852D01*
X118849263Y-116167559D01*
X118865747Y-116185866D01*
X119020248Y-116298118D01*
X119026276Y-116300802D01*
X119026278Y-116300803D01*
X119156976Y-116358993D01*
X119194712Y-116375794D01*
X119288112Y-116395647D01*
X119375056Y-116414128D01*
X119375061Y-116414128D01*
X119381513Y-116415500D01*
X119572487Y-116415500D01*
X119578939Y-116414128D01*
X119578944Y-116414128D01*
X119665888Y-116395647D01*
X119759288Y-116375794D01*
X119797024Y-116358993D01*
X119927722Y-116300803D01*
X119927724Y-116300802D01*
X119933752Y-116298118D01*
X120088253Y-116185866D01*
X120104737Y-116167559D01*
X120211621Y-116048852D01*
X120211622Y-116048851D01*
X120216040Y-116043944D01*
X120311527Y-115878556D01*
X120356459Y-115740271D01*
X126718860Y-115740271D01*
X126725928Y-115753718D01*
X127400188Y-116427978D01*
X127414132Y-116435592D01*
X127415965Y-116435461D01*
X127422580Y-116431210D01*
X128100793Y-115752997D01*
X128107223Y-115741223D01*
X128097926Y-115729207D01*
X128054931Y-115699102D01*
X128045445Y-115693624D01*
X127854007Y-115604355D01*
X127843715Y-115600609D01*
X127639691Y-115545941D01*
X127628896Y-115544038D01*
X127418475Y-115525628D01*
X127407525Y-115525628D01*
X127197104Y-115544038D01*
X127186309Y-115545941D01*
X126982285Y-115600609D01*
X126971993Y-115604355D01*
X126780559Y-115693623D01*
X126771068Y-115699103D01*
X126727235Y-115729794D01*
X126718860Y-115740271D01*
X120356459Y-115740271D01*
X120370542Y-115696928D01*
X120380666Y-115600609D01*
X120389814Y-115513565D01*
X120390504Y-115507000D01*
X120376655Y-115375233D01*
X120371232Y-115323635D01*
X120371232Y-115323633D01*
X120370542Y-115317072D01*
X120311527Y-115135444D01*
X120287986Y-115094669D01*
X120274314Y-115070990D01*
X120216040Y-114970056D01*
X120088253Y-114828134D01*
X119933752Y-114715882D01*
X119927724Y-114713198D01*
X119927722Y-114713197D01*
X119765319Y-114640891D01*
X119765318Y-114640891D01*
X119759288Y-114638206D01*
X119752827Y-114636833D01*
X119752822Y-114636831D01*
X119733606Y-114632746D01*
X119671132Y-114599018D01*
X119636811Y-114536868D01*
X119641539Y-114466029D01*
X119683815Y-114408992D01*
X119750217Y-114383865D01*
X119759803Y-114383500D01*
X119826487Y-114383500D01*
X119832939Y-114382128D01*
X119832944Y-114382128D01*
X119924597Y-114362646D01*
X120013288Y-114343794D01*
X120019319Y-114341109D01*
X120181722Y-114268803D01*
X120181724Y-114268802D01*
X120187752Y-114266118D01*
X120342253Y-114153866D01*
X120470040Y-114011944D01*
X120565527Y-113846556D01*
X120624542Y-113664928D01*
X120628407Y-113628160D01*
X120633729Y-113577526D01*
X124330050Y-113577526D01*
X124330274Y-113582192D01*
X124330274Y-113582197D01*
X124333933Y-113658365D01*
X124342947Y-113846019D01*
X124395388Y-114109656D01*
X124486220Y-114362646D01*
X124488432Y-114366762D01*
X124488433Y-114366765D01*
X124541770Y-114466029D01*
X124613450Y-114599431D01*
X124616241Y-114603168D01*
X124616245Y-114603175D01*
X124697887Y-114712506D01*
X124774281Y-114814810D01*
X124777590Y-114818090D01*
X124777595Y-114818096D01*
X124925937Y-114965148D01*
X124965180Y-115004050D01*
X124968942Y-115006808D01*
X124968945Y-115006811D01*
X125081299Y-115089192D01*
X125181954Y-115162995D01*
X125186089Y-115165171D01*
X125186093Y-115165173D01*
X125396532Y-115275891D01*
X125419840Y-115288154D01*
X125673613Y-115376775D01*
X125678206Y-115377647D01*
X125933109Y-115426042D01*
X125933112Y-115426042D01*
X125937698Y-115426913D01*
X126065370Y-115431929D01*
X126201625Y-115437283D01*
X126201630Y-115437283D01*
X126206293Y-115437466D01*
X126310607Y-115426042D01*
X126468844Y-115408713D01*
X126468850Y-115408712D01*
X126473497Y-115408203D01*
X126478021Y-115407012D01*
X126728918Y-115340956D01*
X126728920Y-115340955D01*
X126733441Y-115339765D01*
X126770985Y-115323635D01*
X126976120Y-115235502D01*
X126976122Y-115235501D01*
X126980414Y-115233657D01*
X127148373Y-115129721D01*
X127205017Y-115094669D01*
X127205021Y-115094666D01*
X127208990Y-115092210D01*
X127414149Y-114918530D01*
X127591382Y-114716434D01*
X127642583Y-114636834D01*
X127734269Y-114494291D01*
X127736797Y-114490361D01*
X127847199Y-114245278D01*
X127884209Y-114114051D01*
X127918893Y-113991072D01*
X127918894Y-113991069D01*
X127920163Y-113986568D01*
X127938043Y-113846019D01*
X127953688Y-113723045D01*
X127953688Y-113723041D01*
X127954086Y-113719915D01*
X127956571Y-113625000D01*
X127936650Y-113356937D01*
X127920130Y-113283928D01*
X127878361Y-113099331D01*
X127878360Y-113099326D01*
X127877327Y-113094763D01*
X127779902Y-112844238D01*
X127646518Y-112610864D01*
X127641765Y-112604834D01*
X127496089Y-112420045D01*
X127480105Y-112399769D01*
X127284317Y-112215591D01*
X127063457Y-112062374D01*
X127059264Y-112060306D01*
X126826564Y-111945551D01*
X126826561Y-111945550D01*
X126822376Y-111943486D01*
X126774745Y-111928239D01*
X126720621Y-111910914D01*
X126566370Y-111861538D01*
X126561763Y-111860788D01*
X126561760Y-111860787D01*
X126305674Y-111819081D01*
X126305675Y-111819081D01*
X126301063Y-111818330D01*
X126170719Y-111816624D01*
X126036961Y-111814873D01*
X126036958Y-111814873D01*
X126032284Y-111814812D01*
X125765937Y-111851060D01*
X125507874Y-111926278D01*
X125263763Y-112038815D01*
X125259854Y-112041378D01*
X125042881Y-112183631D01*
X125042876Y-112183635D01*
X125038968Y-112186197D01*
X124995262Y-112225206D01*
X124903886Y-112306763D01*
X124838426Y-112365188D01*
X124666544Y-112571854D01*
X124527096Y-112801656D01*
X124525287Y-112805970D01*
X124525285Y-112805974D01*
X124471957Y-112933148D01*
X124423148Y-113049545D01*
X124356981Y-113310077D01*
X124330050Y-113577526D01*
X120633729Y-113577526D01*
X120643814Y-113481565D01*
X120644504Y-113475000D01*
X120642851Y-113459271D01*
X120625232Y-113291635D01*
X120625232Y-113291633D01*
X120624542Y-113285072D01*
X120565527Y-113103444D01*
X120560075Y-113094000D01*
X120473341Y-112943774D01*
X120470040Y-112938056D01*
X120342253Y-112796134D01*
X120187752Y-112683882D01*
X120181724Y-112681198D01*
X120181722Y-112681197D01*
X120019319Y-112608891D01*
X120019318Y-112608891D01*
X120013288Y-112606206D01*
X119919887Y-112586353D01*
X119832944Y-112567872D01*
X119832939Y-112567872D01*
X119826487Y-112566500D01*
X119635513Y-112566500D01*
X119629061Y-112567872D01*
X119629056Y-112567872D01*
X119542113Y-112586353D01*
X119448712Y-112606206D01*
X119442682Y-112608891D01*
X119442681Y-112608891D01*
X119280278Y-112681197D01*
X119280276Y-112681198D01*
X119274248Y-112683882D01*
X119119747Y-112796134D01*
X118991960Y-112938056D01*
X118988659Y-112943774D01*
X118901926Y-113094000D01*
X118896473Y-113103444D01*
X118837458Y-113285072D01*
X118836768Y-113291633D01*
X118836768Y-113291635D01*
X118819149Y-113459271D01*
X118817496Y-113475000D01*
X118818186Y-113481565D01*
X118833594Y-113628160D01*
X118837458Y-113664928D01*
X118896473Y-113846556D01*
X118991960Y-114011944D01*
X119119747Y-114153866D01*
X119274248Y-114266118D01*
X119280276Y-114268802D01*
X119280278Y-114268803D01*
X119442681Y-114341109D01*
X119448712Y-114343794D01*
X119455173Y-114345167D01*
X119455178Y-114345169D01*
X119474394Y-114349254D01*
X119536868Y-114382982D01*
X119571189Y-114445132D01*
X119566461Y-114515971D01*
X119524185Y-114573008D01*
X119457783Y-114598135D01*
X119448197Y-114598500D01*
X119381513Y-114598500D01*
X119375061Y-114599872D01*
X119375056Y-114599872D01*
X119288112Y-114618353D01*
X119194712Y-114638206D01*
X119188682Y-114640891D01*
X119188681Y-114640891D01*
X119026278Y-114713197D01*
X119026276Y-114713198D01*
X119020248Y-114715882D01*
X118865747Y-114828134D01*
X118737960Y-114970056D01*
X118679686Y-115070990D01*
X118666015Y-115094669D01*
X118642473Y-115135444D01*
X118583458Y-115317072D01*
X118582768Y-115323633D01*
X118582768Y-115323635D01*
X118577345Y-115375233D01*
X118563496Y-115507000D01*
X117460750Y-115507000D01*
X117421253Y-115463134D01*
X117266752Y-115350882D01*
X117260724Y-115348198D01*
X117260722Y-115348197D01*
X117098319Y-115275891D01*
X117098318Y-115275891D01*
X117092288Y-115273206D01*
X116998887Y-115253353D01*
X116911944Y-115234872D01*
X116911939Y-115234872D01*
X116905487Y-115233500D01*
X116714513Y-115233500D01*
X116708061Y-115234872D01*
X116708056Y-115234872D01*
X116621113Y-115253353D01*
X116527712Y-115273206D01*
X116521682Y-115275891D01*
X116521681Y-115275891D01*
X116359278Y-115348197D01*
X116359276Y-115348198D01*
X116353248Y-115350882D01*
X116198747Y-115463134D01*
X116070960Y-115605056D01*
X115975473Y-115770444D01*
X115916458Y-115952072D01*
X115896496Y-116142000D01*
X70336647Y-116142000D01*
X70317206Y-116114235D01*
X70306729Y-116105860D01*
X70293282Y-116112928D01*
X69619022Y-116787188D01*
X69611408Y-116801132D01*
X68881356Y-116801132D01*
X68882592Y-116798868D01*
X68882461Y-116797035D01*
X68878210Y-116790420D01*
X68199997Y-116112207D01*
X68188223Y-116105777D01*
X68176207Y-116115074D01*
X68146103Y-116158068D01*
X68140623Y-116167559D01*
X68051355Y-116358993D01*
X68047609Y-116369285D01*
X67992941Y-116573309D01*
X67991038Y-116584104D01*
X67972628Y-116794525D01*
X67972628Y-116805475D01*
X62715462Y-116805475D01*
X62723005Y-115740271D01*
X68552860Y-115740271D01*
X68559928Y-115753718D01*
X69234188Y-116427978D01*
X69248132Y-116435592D01*
X69249965Y-116435461D01*
X69256580Y-116431210D01*
X69934793Y-115752997D01*
X69941223Y-115741223D01*
X69931926Y-115729207D01*
X69888931Y-115699102D01*
X69879445Y-115693624D01*
X69688007Y-115604355D01*
X69677715Y-115600609D01*
X69473691Y-115545941D01*
X69462896Y-115544038D01*
X69252475Y-115525628D01*
X69241525Y-115525628D01*
X69031104Y-115544038D01*
X69020309Y-115545941D01*
X68816285Y-115600609D01*
X68805993Y-115604355D01*
X68614559Y-115693623D01*
X68605068Y-115699103D01*
X68561235Y-115729794D01*
X68552860Y-115740271D01*
X62723005Y-115740271D01*
X62738320Y-113577526D01*
X68704050Y-113577526D01*
X68704274Y-113582192D01*
X68704274Y-113582197D01*
X68707933Y-113658365D01*
X68716947Y-113846019D01*
X68769388Y-114109656D01*
X68860220Y-114362646D01*
X68862432Y-114366762D01*
X68862433Y-114366765D01*
X68915770Y-114466029D01*
X68987450Y-114599431D01*
X68990241Y-114603168D01*
X68990245Y-114603175D01*
X69071887Y-114712506D01*
X69148281Y-114814810D01*
X69151590Y-114818090D01*
X69151595Y-114818096D01*
X69299937Y-114965148D01*
X69339180Y-115004050D01*
X69342942Y-115006808D01*
X69342945Y-115006811D01*
X69455299Y-115089192D01*
X69555954Y-115162995D01*
X69560089Y-115165171D01*
X69560093Y-115165173D01*
X69770532Y-115275891D01*
X69793840Y-115288154D01*
X70047613Y-115376775D01*
X70052206Y-115377647D01*
X70307109Y-115426042D01*
X70307112Y-115426042D01*
X70311698Y-115426913D01*
X70439370Y-115431929D01*
X70575625Y-115437283D01*
X70575630Y-115437283D01*
X70580293Y-115437466D01*
X70684607Y-115426042D01*
X70842844Y-115408713D01*
X70842850Y-115408712D01*
X70847497Y-115408203D01*
X70852021Y-115407012D01*
X71102918Y-115340956D01*
X71102920Y-115340955D01*
X71107441Y-115339765D01*
X71144985Y-115323635D01*
X71350120Y-115235502D01*
X71350122Y-115235501D01*
X71354414Y-115233657D01*
X71522373Y-115129721D01*
X71579017Y-115094669D01*
X71579021Y-115094666D01*
X71582990Y-115092210D01*
X71788149Y-114918530D01*
X71965382Y-114716434D01*
X72016583Y-114636834D01*
X72108269Y-114494291D01*
X72110797Y-114490361D01*
X72221199Y-114245278D01*
X72258209Y-114114051D01*
X72292893Y-113991072D01*
X72292894Y-113991069D01*
X72294163Y-113986568D01*
X72312043Y-113846019D01*
X72327688Y-113723045D01*
X72327688Y-113723041D01*
X72328086Y-113719915D01*
X72330571Y-113625000D01*
X72310650Y-113356937D01*
X72294130Y-113283928D01*
X72252361Y-113099331D01*
X72252360Y-113099326D01*
X72251327Y-113094763D01*
X72251030Y-113094000D01*
X106752496Y-113094000D01*
X106772458Y-113283928D01*
X106831473Y-113465556D01*
X106834776Y-113471278D01*
X106834777Y-113471279D01*
X106840716Y-113481565D01*
X106926960Y-113630944D01*
X107054747Y-113772866D01*
X107209248Y-113885118D01*
X107215276Y-113887802D01*
X107215278Y-113887803D01*
X107377681Y-113960109D01*
X107383712Y-113962794D01*
X107473739Y-113981930D01*
X107564056Y-114001128D01*
X107564061Y-114001128D01*
X107570513Y-114002500D01*
X107761487Y-114002500D01*
X107767939Y-114001128D01*
X107767944Y-114001128D01*
X107858261Y-113981930D01*
X107948288Y-113962794D01*
X107954319Y-113960109D01*
X108116722Y-113887803D01*
X108116724Y-113887802D01*
X108122752Y-113885118D01*
X108277253Y-113772866D01*
X108405040Y-113630944D01*
X108491284Y-113481565D01*
X108497223Y-113471279D01*
X108497224Y-113471278D01*
X108500527Y-113465556D01*
X108559542Y-113283928D01*
X108579504Y-113094000D01*
X108559542Y-112904072D01*
X108500527Y-112722444D01*
X108405040Y-112557056D01*
X108277253Y-112415134D01*
X108122752Y-112302882D01*
X108116724Y-112300198D01*
X108116722Y-112300197D01*
X107954319Y-112227891D01*
X107954318Y-112227891D01*
X107948288Y-112225206D01*
X107854887Y-112205353D01*
X107767944Y-112186872D01*
X107767939Y-112186872D01*
X107761487Y-112185500D01*
X107570513Y-112185500D01*
X107564061Y-112186872D01*
X107564056Y-112186872D01*
X107477113Y-112205353D01*
X107383712Y-112225206D01*
X107377682Y-112227891D01*
X107377681Y-112227891D01*
X107215278Y-112300197D01*
X107215276Y-112300198D01*
X107209248Y-112302882D01*
X107054747Y-112415134D01*
X106926960Y-112557056D01*
X106831473Y-112722444D01*
X106772458Y-112904072D01*
X106752496Y-113094000D01*
X72251030Y-113094000D01*
X72153902Y-112844238D01*
X72020518Y-112610864D01*
X72015765Y-112604834D01*
X71870089Y-112420045D01*
X71854105Y-112399769D01*
X71658317Y-112215591D01*
X71437457Y-112062374D01*
X71433264Y-112060306D01*
X71200564Y-111945551D01*
X71200561Y-111945550D01*
X71196376Y-111943486D01*
X71148745Y-111928239D01*
X71094621Y-111910914D01*
X70940370Y-111861538D01*
X70935763Y-111860788D01*
X70935760Y-111860787D01*
X70679674Y-111819081D01*
X70679675Y-111819081D01*
X70675063Y-111818330D01*
X70544719Y-111816624D01*
X70410961Y-111814873D01*
X70410958Y-111814873D01*
X70406284Y-111814812D01*
X70139937Y-111851060D01*
X69881874Y-111926278D01*
X69637763Y-112038815D01*
X69633854Y-112041378D01*
X69416881Y-112183631D01*
X69416876Y-112183635D01*
X69412968Y-112186197D01*
X69369262Y-112225206D01*
X69277886Y-112306763D01*
X69212426Y-112365188D01*
X69040544Y-112571854D01*
X68901096Y-112801656D01*
X68899287Y-112805970D01*
X68899285Y-112805974D01*
X68845957Y-112933148D01*
X68797148Y-113049545D01*
X68730981Y-113310077D01*
X68704050Y-113577526D01*
X62738320Y-113577526D01*
X62786015Y-106842449D01*
X62791236Y-106105151D01*
X64560629Y-106105151D01*
X64572813Y-106358798D01*
X64622354Y-106607857D01*
X64623933Y-106612255D01*
X64623935Y-106612262D01*
X64668355Y-106735980D01*
X64708164Y-106846858D01*
X64828358Y-107070551D01*
X64831153Y-107074294D01*
X64831155Y-107074297D01*
X64977504Y-107270282D01*
X64977509Y-107270288D01*
X64980296Y-107274020D01*
X64983605Y-107277300D01*
X64983610Y-107277306D01*
X65082192Y-107375031D01*
X65160640Y-107452797D01*
X65164402Y-107455555D01*
X65164405Y-107455558D01*
X65270097Y-107533054D01*
X65365427Y-107602953D01*
X65369562Y-107605129D01*
X65369566Y-107605131D01*
X65417021Y-107630098D01*
X65590160Y-107721191D01*
X65829901Y-107804912D01*
X66079383Y-107852278D01*
X66199865Y-107857011D01*
X66328458Y-107862064D01*
X66328463Y-107862064D01*
X66333126Y-107862247D01*
X66432107Y-107851407D01*
X66580902Y-107835112D01*
X66580908Y-107835111D01*
X66585555Y-107834602D01*
X66695013Y-107805784D01*
X66826606Y-107771138D01*
X66831126Y-107769948D01*
X66949686Y-107719011D01*
X67060140Y-107671557D01*
X67060143Y-107671555D01*
X67064443Y-107669708D01*
X67068423Y-107667245D01*
X67068427Y-107667243D01*
X67128611Y-107630000D01*
X99540000Y-107630000D01*
X127940000Y-107840000D01*
X127940125Y-107804912D01*
X127979936Y-96618116D01*
X127979936Y-96618114D01*
X127980000Y-96600000D01*
X99540000Y-96600000D01*
X99540000Y-107630000D01*
X67128611Y-107630000D01*
X67276397Y-107538547D01*
X67276399Y-107538545D01*
X67280380Y-107536082D01*
X67378761Y-107452797D01*
X67470622Y-107375031D01*
X67470624Y-107375029D01*
X67474195Y-107372006D01*
X67641628Y-107181084D01*
X67779002Y-106967512D01*
X67883300Y-106735980D01*
X67952229Y-106491575D01*
X67984276Y-106239667D01*
X67986624Y-106150000D01*
X67973574Y-105974391D01*
X67968151Y-105901411D01*
X67968150Y-105901407D01*
X67967805Y-105896759D01*
X67964424Y-105881814D01*
X67912792Y-105653639D01*
X67911761Y-105649082D01*
X67841818Y-105469223D01*
X67821417Y-105416762D01*
X67821416Y-105416760D01*
X67819724Y-105412409D01*
X67799199Y-105376498D01*
X67696035Y-105195997D01*
X67696033Y-105195995D01*
X67693716Y-105191940D01*
X67536504Y-104992517D01*
X67452958Y-104913925D01*
X67354943Y-104821722D01*
X67354941Y-104821720D01*
X67351542Y-104818523D01*
X67200603Y-104713813D01*
X67146726Y-104676437D01*
X67146723Y-104676435D01*
X67142894Y-104673779D01*
X67097762Y-104651522D01*
X66987213Y-104597005D01*
X66934964Y-104548936D01*
X66916998Y-104480251D01*
X66939017Y-104412755D01*
X66994032Y-104367879D01*
X67042942Y-104357999D01*
X67518002Y-104357999D01*
X67524823Y-104357629D01*
X67575685Y-104352105D01*
X67590937Y-104348479D01*
X67711387Y-104303324D01*
X67726982Y-104294786D01*
X67829057Y-104218285D01*
X67841618Y-104205724D01*
X67918119Y-104103649D01*
X67926657Y-104088054D01*
X67971811Y-103967606D01*
X67975438Y-103952351D01*
X67980964Y-103901486D01*
X67981333Y-103894672D01*
X67981333Y-103165000D01*
X74151372Y-103165000D01*
X74171854Y-103425249D01*
X74173008Y-103430056D01*
X74173009Y-103430062D01*
X74191240Y-103505999D01*
X74232796Y-103679089D01*
X74234689Y-103683660D01*
X74234690Y-103683662D01*
X74324918Y-103901490D01*
X74332697Y-103920271D01*
X74469097Y-104142856D01*
X74638637Y-104341363D01*
X74837144Y-104510903D01*
X75059729Y-104647303D01*
X75064299Y-104649196D01*
X75064303Y-104649198D01*
X75296338Y-104745310D01*
X75300911Y-104747204D01*
X75376786Y-104765420D01*
X75549938Y-104806991D01*
X75549944Y-104806992D01*
X75554751Y-104808146D01*
X75815000Y-104828628D01*
X76075249Y-104808146D01*
X76080056Y-104806992D01*
X76080062Y-104806991D01*
X76213311Y-104775000D01*
X78789647Y-104775000D01*
X78809022Y-104996463D01*
X78810446Y-105001776D01*
X78852597Y-105159084D01*
X78866560Y-105211196D01*
X78868882Y-105216177D01*
X78868883Y-105216178D01*
X78958186Y-105407689D01*
X78958189Y-105407694D01*
X78960512Y-105412676D01*
X78963668Y-105417183D01*
X78963669Y-105417185D01*
X79000107Y-105469223D01*
X79088023Y-105594781D01*
X79245219Y-105751977D01*
X79249727Y-105755134D01*
X79249730Y-105755136D01*
X79325495Y-105808187D01*
X79427323Y-105879488D01*
X79432305Y-105881811D01*
X79432310Y-105881814D01*
X79622810Y-105970645D01*
X79628804Y-105973440D01*
X79634112Y-105974862D01*
X79634114Y-105974863D01*
X79699949Y-105992503D01*
X79843537Y-106030978D01*
X80065000Y-106050353D01*
X80286463Y-106030978D01*
X80430051Y-105992503D01*
X80495886Y-105974863D01*
X80495888Y-105974862D01*
X80501196Y-105973440D01*
X80507190Y-105970645D01*
X80697690Y-105881814D01*
X80697695Y-105881811D01*
X80702677Y-105879488D01*
X80804505Y-105808187D01*
X80880270Y-105755136D01*
X80880273Y-105755134D01*
X80884781Y-105751977D01*
X81041977Y-105594781D01*
X81129894Y-105469223D01*
X81166331Y-105417185D01*
X81166332Y-105417183D01*
X81169488Y-105412676D01*
X81171811Y-105407694D01*
X81171814Y-105407689D01*
X81220805Y-105302627D01*
X81267723Y-105249342D01*
X81336000Y-105229881D01*
X81403960Y-105250423D01*
X81449195Y-105302627D01*
X81498186Y-105407689D01*
X81498189Y-105407694D01*
X81500512Y-105412676D01*
X81503668Y-105417183D01*
X81503669Y-105417185D01*
X81540107Y-105469223D01*
X81628023Y-105594781D01*
X81785219Y-105751977D01*
X81789727Y-105755134D01*
X81789730Y-105755136D01*
X81865495Y-105808187D01*
X81967323Y-105879488D01*
X81972305Y-105881811D01*
X81972310Y-105881814D01*
X82162810Y-105970645D01*
X82168804Y-105973440D01*
X82174112Y-105974862D01*
X82174114Y-105974863D01*
X82239949Y-105992503D01*
X82383537Y-106030978D01*
X82605000Y-106050353D01*
X82826463Y-106030978D01*
X82970051Y-105992503D01*
X83035886Y-105974863D01*
X83035888Y-105974862D01*
X83041196Y-105973440D01*
X83047190Y-105970645D01*
X83237690Y-105881814D01*
X83237695Y-105881811D01*
X83242677Y-105879488D01*
X83344505Y-105808187D01*
X83420270Y-105755136D01*
X83420273Y-105755134D01*
X83424781Y-105751977D01*
X83581977Y-105594781D01*
X83669894Y-105469223D01*
X83706331Y-105417185D01*
X83706332Y-105417183D01*
X83709488Y-105412676D01*
X83711811Y-105407694D01*
X83711814Y-105407689D01*
X83760805Y-105302627D01*
X83807723Y-105249342D01*
X83876000Y-105229881D01*
X83943960Y-105250423D01*
X83989195Y-105302627D01*
X84038186Y-105407689D01*
X84038189Y-105407694D01*
X84040512Y-105412676D01*
X84043668Y-105417183D01*
X84043669Y-105417185D01*
X84080107Y-105469223D01*
X84168023Y-105594781D01*
X84325219Y-105751977D01*
X84329727Y-105755134D01*
X84329730Y-105755136D01*
X84405495Y-105808187D01*
X84507323Y-105879488D01*
X84512305Y-105881811D01*
X84512310Y-105881814D01*
X84702810Y-105970645D01*
X84708804Y-105973440D01*
X84714112Y-105974862D01*
X84714114Y-105974863D01*
X84779949Y-105992503D01*
X84923537Y-106030978D01*
X85145000Y-106050353D01*
X85366463Y-106030978D01*
X85510051Y-105992503D01*
X85575886Y-105974863D01*
X85575888Y-105974862D01*
X85581196Y-105973440D01*
X85587190Y-105970645D01*
X85777690Y-105881814D01*
X85777695Y-105881811D01*
X85782677Y-105879488D01*
X85847959Y-105833777D01*
X86990777Y-105833777D01*
X87000074Y-105845793D01*
X87043069Y-105875898D01*
X87052555Y-105881376D01*
X87243993Y-105970645D01*
X87254285Y-105974391D01*
X87458309Y-106029059D01*
X87469104Y-106030962D01*
X87679525Y-106049372D01*
X87690475Y-106049372D01*
X87900896Y-106030962D01*
X87911691Y-106029059D01*
X88115715Y-105974391D01*
X88126007Y-105970645D01*
X88317445Y-105881376D01*
X88326931Y-105875898D01*
X88370764Y-105845207D01*
X88379139Y-105834729D01*
X88378639Y-105833777D01*
X89530777Y-105833777D01*
X89540074Y-105845793D01*
X89583069Y-105875898D01*
X89592555Y-105881376D01*
X89783993Y-105970645D01*
X89794285Y-105974391D01*
X89998309Y-106029059D01*
X90009104Y-106030962D01*
X90219525Y-106049372D01*
X90230475Y-106049372D01*
X90440896Y-106030962D01*
X90451691Y-106029059D01*
X90655715Y-105974391D01*
X90666007Y-105970645D01*
X90857445Y-105881376D01*
X90866931Y-105875898D01*
X90910764Y-105845207D01*
X90919139Y-105834729D01*
X90912071Y-105821281D01*
X90237812Y-105147022D01*
X90223868Y-105139408D01*
X90222035Y-105139539D01*
X90215420Y-105143790D01*
X89537207Y-105822003D01*
X89530777Y-105833777D01*
X88378639Y-105833777D01*
X88372071Y-105821281D01*
X87697812Y-105147022D01*
X87683868Y-105139408D01*
X87682035Y-105139539D01*
X87675420Y-105143790D01*
X86997207Y-105822003D01*
X86990777Y-105833777D01*
X85847959Y-105833777D01*
X85884505Y-105808187D01*
X85960270Y-105755136D01*
X85960273Y-105755134D01*
X85964781Y-105751977D01*
X86121977Y-105594781D01*
X86209894Y-105469223D01*
X86246331Y-105417185D01*
X86246332Y-105417183D01*
X86249488Y-105412676D01*
X86251811Y-105407694D01*
X86251814Y-105407689D01*
X86301081Y-105302035D01*
X86347999Y-105248750D01*
X86416276Y-105229289D01*
X86484236Y-105249831D01*
X86529471Y-105302035D01*
X86578623Y-105407441D01*
X86584103Y-105416932D01*
X86614794Y-105460765D01*
X86625271Y-105469140D01*
X86638718Y-105462072D01*
X87312978Y-104787812D01*
X87319356Y-104776132D01*
X88049408Y-104776132D01*
X88049539Y-104777965D01*
X88053790Y-104784580D01*
X88732003Y-105462793D01*
X88743777Y-105469223D01*
X88755793Y-105459926D01*
X88785897Y-105416932D01*
X88791377Y-105407441D01*
X88840805Y-105301443D01*
X88887722Y-105248158D01*
X88956000Y-105228697D01*
X89023960Y-105249239D01*
X89069195Y-105301443D01*
X89118623Y-105407441D01*
X89124103Y-105416932D01*
X89154794Y-105460765D01*
X89165271Y-105469140D01*
X89178718Y-105462072D01*
X89852978Y-104787812D01*
X89859356Y-104776132D01*
X90589408Y-104776132D01*
X90589539Y-104777965D01*
X90593790Y-104784580D01*
X91272003Y-105462793D01*
X91283777Y-105469223D01*
X91295793Y-105459926D01*
X91325897Y-105416932D01*
X91331377Y-105407441D01*
X91380529Y-105302035D01*
X91427447Y-105248750D01*
X91495724Y-105229289D01*
X91563684Y-105249831D01*
X91608919Y-105302035D01*
X91658186Y-105407689D01*
X91658189Y-105407694D01*
X91660512Y-105412676D01*
X91663668Y-105417183D01*
X91663669Y-105417185D01*
X91700107Y-105469223D01*
X91788023Y-105594781D01*
X91945219Y-105751977D01*
X91949727Y-105755134D01*
X91949730Y-105755136D01*
X92025495Y-105808187D01*
X92127323Y-105879488D01*
X92132305Y-105881811D01*
X92132310Y-105881814D01*
X92322810Y-105970645D01*
X92328804Y-105973440D01*
X92334112Y-105974862D01*
X92334114Y-105974863D01*
X92399949Y-105992503D01*
X92543537Y-106030978D01*
X92765000Y-106050353D01*
X92986463Y-106030978D01*
X93130051Y-105992503D01*
X93195886Y-105974863D01*
X93195888Y-105974862D01*
X93201196Y-105973440D01*
X93207190Y-105970645D01*
X93397690Y-105881814D01*
X93397695Y-105881811D01*
X93402677Y-105879488D01*
X93504505Y-105808187D01*
X93580270Y-105755136D01*
X93580273Y-105755134D01*
X93584781Y-105751977D01*
X93741977Y-105594781D01*
X93829894Y-105469223D01*
X93866331Y-105417185D01*
X93866332Y-105417183D01*
X93869488Y-105412676D01*
X93871811Y-105407694D01*
X93871814Y-105407689D01*
X93961117Y-105216178D01*
X93961118Y-105216177D01*
X93963440Y-105211196D01*
X93977404Y-105159084D01*
X94019554Y-105001776D01*
X94020978Y-104996463D01*
X94040353Y-104775000D01*
X94020978Y-104553537D01*
X93967004Y-104352105D01*
X93964863Y-104344114D01*
X93964862Y-104344112D01*
X93963440Y-104338804D01*
X93954727Y-104320119D01*
X93871814Y-104142311D01*
X93871811Y-104142306D01*
X93869488Y-104137324D01*
X93845909Y-104103649D01*
X93745136Y-103959730D01*
X93745134Y-103959727D01*
X93741977Y-103955219D01*
X93584781Y-103798023D01*
X93580273Y-103794866D01*
X93580270Y-103794864D01*
X93504505Y-103741813D01*
X93402677Y-103670512D01*
X93397695Y-103668189D01*
X93397690Y-103668186D01*
X93292627Y-103619195D01*
X93239342Y-103572278D01*
X93219881Y-103504001D01*
X93240423Y-103436041D01*
X93292627Y-103390805D01*
X93397690Y-103341814D01*
X93397695Y-103341811D01*
X93402677Y-103339488D01*
X93504505Y-103268187D01*
X93580270Y-103215136D01*
X93580273Y-103215134D01*
X93584781Y-103211977D01*
X93631758Y-103165000D01*
X95351372Y-103165000D01*
X95371854Y-103425249D01*
X95373008Y-103430056D01*
X95373009Y-103430062D01*
X95391240Y-103505999D01*
X95432796Y-103679089D01*
X95434689Y-103683660D01*
X95434690Y-103683662D01*
X95524918Y-103901490D01*
X95532697Y-103920271D01*
X95669097Y-104142856D01*
X95838637Y-104341363D01*
X96037144Y-104510903D01*
X96259729Y-104647303D01*
X96264299Y-104649196D01*
X96264303Y-104649198D01*
X96496338Y-104745310D01*
X96500911Y-104747204D01*
X96576786Y-104765420D01*
X96749938Y-104806991D01*
X96749944Y-104806992D01*
X96754751Y-104808146D01*
X97015000Y-104828628D01*
X97275249Y-104808146D01*
X97280056Y-104806992D01*
X97280062Y-104806991D01*
X97453214Y-104765420D01*
X97529089Y-104747204D01*
X97533662Y-104745310D01*
X97765697Y-104649198D01*
X97765701Y-104649196D01*
X97770271Y-104647303D01*
X97992856Y-104510903D01*
X98191363Y-104341363D01*
X98360903Y-104142856D01*
X98497303Y-103920271D01*
X98505083Y-103901490D01*
X98595310Y-103683662D01*
X98595311Y-103683660D01*
X98597204Y-103679089D01*
X98638760Y-103505999D01*
X98656991Y-103430062D01*
X98656992Y-103430056D01*
X98658146Y-103425249D01*
X98678628Y-103165000D01*
X98658146Y-102904751D01*
X98656992Y-102899944D01*
X98656991Y-102899938D01*
X98611492Y-102710423D01*
X98597204Y-102650911D01*
X98516661Y-102456463D01*
X98499198Y-102414303D01*
X98499196Y-102414299D01*
X98497303Y-102409729D01*
X98360903Y-102187144D01*
X98191363Y-101988637D01*
X97992856Y-101819097D01*
X97770271Y-101682697D01*
X97765701Y-101680804D01*
X97765697Y-101680802D01*
X97533662Y-101584690D01*
X97533660Y-101584689D01*
X97529089Y-101582796D01*
X97440069Y-101561424D01*
X97280062Y-101523009D01*
X97280056Y-101523008D01*
X97275249Y-101521854D01*
X97015000Y-101501372D01*
X96754751Y-101521854D01*
X96749944Y-101523008D01*
X96749938Y-101523009D01*
X96589931Y-101561424D01*
X96500911Y-101582796D01*
X96496340Y-101584689D01*
X96496338Y-101584690D01*
X96264303Y-101680802D01*
X96264299Y-101680804D01*
X96259729Y-101682697D01*
X96037144Y-101819097D01*
X95838637Y-101988637D01*
X95669097Y-102187144D01*
X95532697Y-102409729D01*
X95530804Y-102414299D01*
X95530802Y-102414303D01*
X95513339Y-102456463D01*
X95432796Y-102650911D01*
X95418508Y-102710423D01*
X95373009Y-102899938D01*
X95373008Y-102899944D01*
X95371854Y-102904751D01*
X95351372Y-103165000D01*
X93631758Y-103165000D01*
X93741977Y-103054781D01*
X93829894Y-102929223D01*
X93866331Y-102877185D01*
X93866332Y-102877183D01*
X93869488Y-102872676D01*
X93871811Y-102867694D01*
X93871814Y-102867689D01*
X93961117Y-102676178D01*
X93961118Y-102676177D01*
X93963440Y-102671196D01*
X93968876Y-102650911D01*
X94019554Y-102461776D01*
X94020978Y-102456463D01*
X94040353Y-102235000D01*
X94020978Y-102013537D01*
X93963440Y-101798804D01*
X93910504Y-101685283D01*
X93871814Y-101602311D01*
X93871811Y-101602306D01*
X93869488Y-101597324D01*
X93860642Y-101584690D01*
X93745136Y-101419730D01*
X93745134Y-101419727D01*
X93741977Y-101415219D01*
X93584781Y-101258023D01*
X93580273Y-101254866D01*
X93580270Y-101254864D01*
X93504505Y-101201813D01*
X93402677Y-101130512D01*
X93397695Y-101128189D01*
X93397690Y-101128186D01*
X93206178Y-101038883D01*
X93206177Y-101038882D01*
X93201196Y-101036560D01*
X93195888Y-101035138D01*
X93195886Y-101035137D01*
X93084212Y-101005214D01*
X92986463Y-100979022D01*
X92765000Y-100959647D01*
X92543537Y-100979022D01*
X92445788Y-101005214D01*
X92334114Y-101035137D01*
X92334112Y-101035138D01*
X92328804Y-101036560D01*
X92323823Y-101038882D01*
X92323822Y-101038883D01*
X92132311Y-101128186D01*
X92132306Y-101128189D01*
X92127324Y-101130512D01*
X92122817Y-101133668D01*
X92122815Y-101133669D01*
X91949730Y-101254864D01*
X91949727Y-101254866D01*
X91945219Y-101258023D01*
X91788023Y-101415219D01*
X91784866Y-101419727D01*
X91784864Y-101419730D01*
X91669358Y-101584690D01*
X91660512Y-101597324D01*
X91658189Y-101602306D01*
X91658186Y-101602311D01*
X91608919Y-101707965D01*
X91562001Y-101761250D01*
X91493724Y-101780711D01*
X91425764Y-101760169D01*
X91380529Y-101707965D01*
X91331377Y-101602559D01*
X91325897Y-101593068D01*
X91295206Y-101549235D01*
X91284729Y-101540860D01*
X91271282Y-101547928D01*
X90597022Y-102222188D01*
X90589408Y-102236132D01*
X90589539Y-102237965D01*
X90593790Y-102244580D01*
X91272003Y-102922793D01*
X91283777Y-102929223D01*
X91295793Y-102919926D01*
X91325897Y-102876932D01*
X91331377Y-102867441D01*
X91380529Y-102762035D01*
X91427447Y-102708750D01*
X91495724Y-102689289D01*
X91563684Y-102709831D01*
X91608919Y-102762035D01*
X91658186Y-102867689D01*
X91658189Y-102867694D01*
X91660512Y-102872676D01*
X91663668Y-102877183D01*
X91663669Y-102877185D01*
X91700107Y-102929223D01*
X91788023Y-103054781D01*
X91945219Y-103211977D01*
X91949727Y-103215134D01*
X91949730Y-103215136D01*
X92025495Y-103268187D01*
X92127323Y-103339488D01*
X92132305Y-103341811D01*
X92132310Y-103341814D01*
X92237373Y-103390805D01*
X92290658Y-103437722D01*
X92310119Y-103505999D01*
X92289577Y-103573959D01*
X92237373Y-103619195D01*
X92132311Y-103668186D01*
X92132306Y-103668189D01*
X92127324Y-103670512D01*
X92122817Y-103673668D01*
X92122815Y-103673669D01*
X91949730Y-103794864D01*
X91949727Y-103794866D01*
X91945219Y-103798023D01*
X91788023Y-103955219D01*
X91784866Y-103959727D01*
X91784864Y-103959730D01*
X91684091Y-104103649D01*
X91660512Y-104137324D01*
X91658189Y-104142306D01*
X91658186Y-104142311D01*
X91608919Y-104247965D01*
X91562001Y-104301250D01*
X91493724Y-104320711D01*
X91425764Y-104300169D01*
X91380529Y-104247965D01*
X91331377Y-104142559D01*
X91325897Y-104133068D01*
X91295206Y-104089235D01*
X91284729Y-104080860D01*
X91271282Y-104087928D01*
X90597022Y-104762188D01*
X90589408Y-104776132D01*
X89859356Y-104776132D01*
X89860592Y-104773868D01*
X89860461Y-104772035D01*
X89856210Y-104765420D01*
X89177997Y-104087207D01*
X89166223Y-104080777D01*
X89154207Y-104090074D01*
X89124103Y-104133068D01*
X89118623Y-104142559D01*
X89069195Y-104248557D01*
X89022278Y-104301842D01*
X88954000Y-104321303D01*
X88886040Y-104300761D01*
X88840805Y-104248557D01*
X88791377Y-104142559D01*
X88785897Y-104133068D01*
X88755206Y-104089235D01*
X88744729Y-104080860D01*
X88731282Y-104087928D01*
X88057022Y-104762188D01*
X88049408Y-104776132D01*
X87319356Y-104776132D01*
X87320592Y-104773868D01*
X87320461Y-104772035D01*
X87316210Y-104765420D01*
X86637997Y-104087207D01*
X86626223Y-104080777D01*
X86614207Y-104090074D01*
X86584103Y-104133068D01*
X86578623Y-104142559D01*
X86529471Y-104247965D01*
X86482553Y-104301250D01*
X86414276Y-104320711D01*
X86346316Y-104300169D01*
X86301081Y-104247965D01*
X86251814Y-104142311D01*
X86251811Y-104142306D01*
X86249488Y-104137324D01*
X86225909Y-104103649D01*
X86125136Y-103959730D01*
X86125134Y-103959727D01*
X86121977Y-103955219D01*
X85964781Y-103798023D01*
X85960273Y-103794866D01*
X85960270Y-103794864D01*
X85884505Y-103741813D01*
X85782677Y-103670512D01*
X85777695Y-103668189D01*
X85777690Y-103668186D01*
X85672627Y-103619195D01*
X85619342Y-103572278D01*
X85599881Y-103504001D01*
X85620423Y-103436041D01*
X85672627Y-103390805D01*
X85777690Y-103341814D01*
X85777695Y-103341811D01*
X85782677Y-103339488D01*
X85847959Y-103293777D01*
X86990777Y-103293777D01*
X87000074Y-103305793D01*
X87043069Y-103335898D01*
X87052555Y-103341376D01*
X87158557Y-103390805D01*
X87211842Y-103437722D01*
X87231303Y-103505999D01*
X87210761Y-103573959D01*
X87158557Y-103619195D01*
X87052559Y-103668623D01*
X87043068Y-103674103D01*
X86999235Y-103704794D01*
X86990860Y-103715271D01*
X86997928Y-103728718D01*
X87672188Y-104402978D01*
X87686132Y-104410592D01*
X87687965Y-104410461D01*
X87694580Y-104406210D01*
X88372793Y-103727997D01*
X88379223Y-103716223D01*
X88369926Y-103704207D01*
X88326931Y-103674102D01*
X88317445Y-103668624D01*
X88211444Y-103619195D01*
X88158159Y-103572278D01*
X88138698Y-103504000D01*
X88159240Y-103436040D01*
X88211444Y-103390805D01*
X88317445Y-103341376D01*
X88326931Y-103335898D01*
X88370764Y-103305207D01*
X88379139Y-103294729D01*
X88378639Y-103293777D01*
X89530777Y-103293777D01*
X89540074Y-103305793D01*
X89583069Y-103335898D01*
X89592555Y-103341376D01*
X89698557Y-103390805D01*
X89751842Y-103437722D01*
X89771303Y-103505999D01*
X89750761Y-103573959D01*
X89698557Y-103619195D01*
X89592559Y-103668623D01*
X89583068Y-103674103D01*
X89539235Y-103704794D01*
X89530860Y-103715271D01*
X89537928Y-103728718D01*
X90212188Y-104402978D01*
X90226132Y-104410592D01*
X90227965Y-104410461D01*
X90234580Y-104406210D01*
X90912793Y-103727997D01*
X90919223Y-103716223D01*
X90909926Y-103704207D01*
X90866931Y-103674102D01*
X90857445Y-103668624D01*
X90751444Y-103619195D01*
X90698159Y-103572278D01*
X90678698Y-103504000D01*
X90699240Y-103436040D01*
X90751444Y-103390805D01*
X90857445Y-103341376D01*
X90866931Y-103335898D01*
X90910764Y-103305207D01*
X90919139Y-103294729D01*
X90912071Y-103281281D01*
X90237812Y-102607022D01*
X90223868Y-102599408D01*
X90222035Y-102599539D01*
X90215420Y-102603790D01*
X89537207Y-103282003D01*
X89530777Y-103293777D01*
X88378639Y-103293777D01*
X88372071Y-103281281D01*
X87697812Y-102607022D01*
X87683868Y-102599408D01*
X87682035Y-102599539D01*
X87675420Y-102603790D01*
X86997207Y-103282003D01*
X86990777Y-103293777D01*
X85847959Y-103293777D01*
X85884505Y-103268187D01*
X85960270Y-103215136D01*
X85960273Y-103215134D01*
X85964781Y-103211977D01*
X86121977Y-103054781D01*
X86209894Y-102929223D01*
X86246331Y-102877185D01*
X86246332Y-102877183D01*
X86249488Y-102872676D01*
X86251811Y-102867694D01*
X86251814Y-102867689D01*
X86301081Y-102762035D01*
X86347999Y-102708750D01*
X86416276Y-102689289D01*
X86484236Y-102709831D01*
X86529471Y-102762035D01*
X86578623Y-102867441D01*
X86584103Y-102876932D01*
X86614794Y-102920765D01*
X86625271Y-102929140D01*
X86638718Y-102922072D01*
X87312978Y-102247812D01*
X87319356Y-102236132D01*
X88049408Y-102236132D01*
X88049539Y-102237965D01*
X88053790Y-102244580D01*
X88732003Y-102922793D01*
X88743777Y-102929223D01*
X88755793Y-102919926D01*
X88785897Y-102876932D01*
X88791377Y-102867441D01*
X88840805Y-102761443D01*
X88887722Y-102708158D01*
X88956000Y-102688697D01*
X89023960Y-102709239D01*
X89069195Y-102761443D01*
X89118623Y-102867441D01*
X89124103Y-102876932D01*
X89154794Y-102920765D01*
X89165271Y-102929140D01*
X89178718Y-102922072D01*
X89852978Y-102247812D01*
X89860592Y-102233868D01*
X89860461Y-102232035D01*
X89856210Y-102225420D01*
X89177997Y-101547207D01*
X89166223Y-101540777D01*
X89154207Y-101550074D01*
X89124103Y-101593068D01*
X89118623Y-101602559D01*
X89069195Y-101708557D01*
X89022278Y-101761842D01*
X88954000Y-101781303D01*
X88886040Y-101760761D01*
X88840805Y-101708557D01*
X88791377Y-101602559D01*
X88785897Y-101593068D01*
X88755206Y-101549235D01*
X88744729Y-101540860D01*
X88731282Y-101547928D01*
X88057022Y-102222188D01*
X88049408Y-102236132D01*
X87319356Y-102236132D01*
X87320592Y-102233868D01*
X87320461Y-102232035D01*
X87316210Y-102225420D01*
X86637997Y-101547207D01*
X86626223Y-101540777D01*
X86614207Y-101550074D01*
X86584103Y-101593068D01*
X86578623Y-101602559D01*
X86529471Y-101707965D01*
X86482553Y-101761250D01*
X86414276Y-101780711D01*
X86346316Y-101760169D01*
X86301081Y-101707965D01*
X86251814Y-101602311D01*
X86251811Y-101602306D01*
X86249488Y-101597324D01*
X86240642Y-101584690D01*
X86125136Y-101419730D01*
X86125134Y-101419727D01*
X86121977Y-101415219D01*
X85964781Y-101258023D01*
X85960273Y-101254866D01*
X85960270Y-101254864D01*
X85884505Y-101201813D01*
X85782677Y-101130512D01*
X85777695Y-101128189D01*
X85777690Y-101128186D01*
X85586178Y-101038883D01*
X85586177Y-101038882D01*
X85581196Y-101036560D01*
X85575888Y-101035138D01*
X85575886Y-101035137D01*
X85464212Y-101005214D01*
X85366463Y-100979022D01*
X85145000Y-100959647D01*
X84923537Y-100979022D01*
X84825788Y-101005214D01*
X84714114Y-101035137D01*
X84714112Y-101035138D01*
X84708804Y-101036560D01*
X84703823Y-101038882D01*
X84703822Y-101038883D01*
X84512311Y-101128186D01*
X84512306Y-101128189D01*
X84507324Y-101130512D01*
X84502817Y-101133668D01*
X84502815Y-101133669D01*
X84329730Y-101254864D01*
X84329727Y-101254866D01*
X84325219Y-101258023D01*
X84168023Y-101415219D01*
X84164866Y-101419727D01*
X84164864Y-101419730D01*
X84049358Y-101584690D01*
X84040512Y-101597324D01*
X84038189Y-101602306D01*
X84038186Y-101602311D01*
X83989195Y-101707373D01*
X83942277Y-101760658D01*
X83874000Y-101780119D01*
X83806040Y-101759577D01*
X83760805Y-101707373D01*
X83711814Y-101602311D01*
X83711811Y-101602306D01*
X83709488Y-101597324D01*
X83700642Y-101584690D01*
X83585136Y-101419730D01*
X83585134Y-101419727D01*
X83581977Y-101415219D01*
X83424781Y-101258023D01*
X83420273Y-101254866D01*
X83420270Y-101254864D01*
X83344505Y-101201813D01*
X83242677Y-101130512D01*
X83237695Y-101128189D01*
X83237690Y-101128186D01*
X83046178Y-101038883D01*
X83046177Y-101038882D01*
X83041196Y-101036560D01*
X83035888Y-101035138D01*
X83035886Y-101035137D01*
X82924212Y-101005214D01*
X82826463Y-100979022D01*
X82605000Y-100959647D01*
X82383537Y-100979022D01*
X82285788Y-101005214D01*
X82174114Y-101035137D01*
X82174112Y-101035138D01*
X82168804Y-101036560D01*
X82163823Y-101038882D01*
X82163822Y-101038883D01*
X81972311Y-101128186D01*
X81972306Y-101128189D01*
X81967324Y-101130512D01*
X81962817Y-101133668D01*
X81962815Y-101133669D01*
X81789730Y-101254864D01*
X81789727Y-101254866D01*
X81785219Y-101258023D01*
X81628023Y-101415219D01*
X81624866Y-101419727D01*
X81624864Y-101419730D01*
X81509358Y-101584690D01*
X81500512Y-101597324D01*
X81498189Y-101602306D01*
X81498186Y-101602311D01*
X81449195Y-101707373D01*
X81402277Y-101760658D01*
X81334000Y-101780119D01*
X81266040Y-101759577D01*
X81220805Y-101707373D01*
X81171814Y-101602311D01*
X81171811Y-101602306D01*
X81169488Y-101597324D01*
X81160642Y-101584690D01*
X81045136Y-101419730D01*
X81045134Y-101419727D01*
X81041977Y-101415219D01*
X80884781Y-101258023D01*
X80880273Y-101254866D01*
X80880270Y-101254864D01*
X80804505Y-101201813D01*
X80702677Y-101130512D01*
X80697695Y-101128189D01*
X80697690Y-101128186D01*
X80506178Y-101038883D01*
X80506177Y-101038882D01*
X80501196Y-101036560D01*
X80495888Y-101035138D01*
X80495886Y-101035137D01*
X80384212Y-101005214D01*
X80286463Y-100979022D01*
X80065000Y-100959647D01*
X79843537Y-100979022D01*
X79745788Y-101005214D01*
X79634114Y-101035137D01*
X79634112Y-101035138D01*
X79628804Y-101036560D01*
X79623823Y-101038882D01*
X79623822Y-101038883D01*
X79432311Y-101128186D01*
X79432306Y-101128189D01*
X79427324Y-101130512D01*
X79422817Y-101133668D01*
X79422815Y-101133669D01*
X79249730Y-101254864D01*
X79249727Y-101254866D01*
X79245219Y-101258023D01*
X79088023Y-101415219D01*
X79084866Y-101419727D01*
X79084864Y-101419730D01*
X78969358Y-101584690D01*
X78960512Y-101597324D01*
X78958189Y-101602306D01*
X78958186Y-101602311D01*
X78919496Y-101685283D01*
X78866560Y-101798804D01*
X78809022Y-102013537D01*
X78789647Y-102235000D01*
X78809022Y-102456463D01*
X78810446Y-102461776D01*
X78861125Y-102650911D01*
X78866560Y-102671196D01*
X78868882Y-102676177D01*
X78868883Y-102676178D01*
X78958186Y-102867689D01*
X78958189Y-102867694D01*
X78960512Y-102872676D01*
X78963668Y-102877183D01*
X78963669Y-102877185D01*
X79000107Y-102929223D01*
X79088023Y-103054781D01*
X79245219Y-103211977D01*
X79249727Y-103215134D01*
X79249730Y-103215136D01*
X79325495Y-103268187D01*
X79427323Y-103339488D01*
X79432305Y-103341811D01*
X79432310Y-103341814D01*
X79537373Y-103390805D01*
X79590658Y-103437722D01*
X79610119Y-103505999D01*
X79589577Y-103573959D01*
X79537373Y-103619195D01*
X79432311Y-103668186D01*
X79432306Y-103668189D01*
X79427324Y-103670512D01*
X79422817Y-103673668D01*
X79422815Y-103673669D01*
X79249730Y-103794864D01*
X79249727Y-103794866D01*
X79245219Y-103798023D01*
X79088023Y-103955219D01*
X79084866Y-103959727D01*
X79084864Y-103959730D01*
X78984091Y-104103649D01*
X78960512Y-104137324D01*
X78958189Y-104142306D01*
X78958186Y-104142311D01*
X78875273Y-104320119D01*
X78866560Y-104338804D01*
X78865138Y-104344112D01*
X78865137Y-104344114D01*
X78862996Y-104352105D01*
X78809022Y-104553537D01*
X78789647Y-104775000D01*
X76213311Y-104775000D01*
X76253214Y-104765420D01*
X76329089Y-104747204D01*
X76333662Y-104745310D01*
X76565697Y-104649198D01*
X76565701Y-104649196D01*
X76570271Y-104647303D01*
X76792856Y-104510903D01*
X76991363Y-104341363D01*
X77160903Y-104142856D01*
X77297303Y-103920271D01*
X77305083Y-103901490D01*
X77395310Y-103683662D01*
X77395311Y-103683660D01*
X77397204Y-103679089D01*
X77438760Y-103505999D01*
X77456991Y-103430062D01*
X77456992Y-103430056D01*
X77458146Y-103425249D01*
X77478628Y-103165000D01*
X77458146Y-102904751D01*
X77456992Y-102899944D01*
X77456991Y-102899938D01*
X77411492Y-102710423D01*
X77397204Y-102650911D01*
X77316661Y-102456463D01*
X77299198Y-102414303D01*
X77299196Y-102414299D01*
X77297303Y-102409729D01*
X77160903Y-102187144D01*
X76991363Y-101988637D01*
X76792856Y-101819097D01*
X76570271Y-101682697D01*
X76565701Y-101680804D01*
X76565697Y-101680802D01*
X76333662Y-101584690D01*
X76333660Y-101584689D01*
X76329089Y-101582796D01*
X76240069Y-101561424D01*
X76080062Y-101523009D01*
X76080056Y-101523008D01*
X76075249Y-101521854D01*
X75815000Y-101501372D01*
X75554751Y-101521854D01*
X75549944Y-101523008D01*
X75549938Y-101523009D01*
X75389931Y-101561424D01*
X75300911Y-101582796D01*
X75296340Y-101584689D01*
X75296338Y-101584690D01*
X75064303Y-101680802D01*
X75064299Y-101680804D01*
X75059729Y-101682697D01*
X74837144Y-101819097D01*
X74638637Y-101988637D01*
X74469097Y-102187144D01*
X74332697Y-102409729D01*
X74330804Y-102414299D01*
X74330802Y-102414303D01*
X74313339Y-102456463D01*
X74232796Y-102650911D01*
X74218508Y-102710423D01*
X74173009Y-102899938D01*
X74173008Y-102899944D01*
X74171854Y-102904751D01*
X74151372Y-103165000D01*
X67981333Y-103165000D01*
X67981333Y-102922115D01*
X67976858Y-102906876D01*
X67975468Y-102905671D01*
X67967785Y-102904000D01*
X64583449Y-102904000D01*
X64568210Y-102908475D01*
X64567005Y-102909865D01*
X64565334Y-102917548D01*
X64565334Y-103894669D01*
X64565704Y-103901490D01*
X64571228Y-103952352D01*
X64574854Y-103967604D01*
X64620009Y-104088054D01*
X64628547Y-104103649D01*
X64705048Y-104205724D01*
X64717609Y-104218285D01*
X64819684Y-104294786D01*
X64835279Y-104303324D01*
X64955727Y-104348478D01*
X64970982Y-104352105D01*
X65021847Y-104357631D01*
X65028661Y-104358000D01*
X65505137Y-104358000D01*
X65573258Y-104378002D01*
X65619751Y-104431658D01*
X65629855Y-104501932D01*
X65600361Y-104566512D01*
X65557889Y-104598425D01*
X65442713Y-104651522D01*
X65438804Y-104654085D01*
X65234261Y-104788189D01*
X65234256Y-104788193D01*
X65230348Y-104790755D01*
X65040895Y-104959848D01*
X64878516Y-105155087D01*
X64746780Y-105372182D01*
X64744971Y-105376496D01*
X64744970Y-105376498D01*
X64653437Y-105594781D01*
X64648579Y-105606365D01*
X64586071Y-105852490D01*
X64560629Y-106105151D01*
X62791236Y-106105151D01*
X62817631Y-102377885D01*
X64565333Y-102377885D01*
X64569808Y-102393124D01*
X64571198Y-102394329D01*
X64578881Y-102396000D01*
X66001218Y-102396000D01*
X66016457Y-102391525D01*
X66017662Y-102390135D01*
X66019333Y-102382452D01*
X66019333Y-102377885D01*
X66527333Y-102377885D01*
X66531808Y-102393124D01*
X66533198Y-102394329D01*
X66540881Y-102396000D01*
X67963217Y-102396000D01*
X67978456Y-102391525D01*
X67979661Y-102390135D01*
X67981332Y-102382452D01*
X67981332Y-101405331D01*
X67980962Y-101398510D01*
X67975438Y-101347648D01*
X67971812Y-101332396D01*
X67926657Y-101211946D01*
X67918119Y-101196351D01*
X67841618Y-101094276D01*
X67829057Y-101081715D01*
X67726982Y-101005214D01*
X67711387Y-100996676D01*
X67590939Y-100951522D01*
X67575684Y-100947895D01*
X67524819Y-100942369D01*
X67518005Y-100942000D01*
X66545448Y-100942000D01*
X66530209Y-100946475D01*
X66529004Y-100947865D01*
X66527333Y-100955548D01*
X66527333Y-102377885D01*
X66019333Y-102377885D01*
X66019333Y-100960116D01*
X66014858Y-100944877D01*
X66013468Y-100943672D01*
X66005785Y-100942001D01*
X65028664Y-100942001D01*
X65021843Y-100942371D01*
X64970981Y-100947895D01*
X64955729Y-100951521D01*
X64835279Y-100996676D01*
X64819684Y-101005214D01*
X64717609Y-101081715D01*
X64705048Y-101094276D01*
X64628547Y-101196351D01*
X64620009Y-101211946D01*
X64574855Y-101332394D01*
X64571228Y-101347649D01*
X64565702Y-101398514D01*
X64565333Y-101405328D01*
X64565333Y-102377885D01*
X62817631Y-102377885D01*
X62835277Y-99886000D01*
X86432496Y-99886000D01*
X86452458Y-100075928D01*
X86511473Y-100257556D01*
X86606960Y-100422944D01*
X86734747Y-100564866D01*
X86889248Y-100677118D01*
X86895276Y-100679802D01*
X86895278Y-100679803D01*
X87057681Y-100752109D01*
X87063712Y-100754794D01*
X87241292Y-100792540D01*
X87303765Y-100826269D01*
X87338087Y-100888418D01*
X87333359Y-100959257D01*
X87291083Y-101016295D01*
X87258189Y-101034188D01*
X87243996Y-101039354D01*
X87052559Y-101128623D01*
X87043068Y-101134103D01*
X86999235Y-101164794D01*
X86990860Y-101175271D01*
X86997928Y-101188718D01*
X87672188Y-101862978D01*
X87686132Y-101870592D01*
X87687965Y-101870461D01*
X87694580Y-101866210D01*
X88372793Y-101187997D01*
X88379223Y-101176223D01*
X88378486Y-101175271D01*
X89530860Y-101175271D01*
X89537928Y-101188718D01*
X90212188Y-101862978D01*
X90226132Y-101870592D01*
X90227965Y-101870461D01*
X90234580Y-101866210D01*
X90912793Y-101187997D01*
X90919223Y-101176223D01*
X90909926Y-101164207D01*
X90866931Y-101134102D01*
X90857445Y-101128624D01*
X90666007Y-101039355D01*
X90655715Y-101035609D01*
X90451691Y-100980941D01*
X90440896Y-100979038D01*
X90230475Y-100960628D01*
X90219525Y-100960628D01*
X90009104Y-100979038D01*
X89998309Y-100980941D01*
X89794285Y-101035609D01*
X89783993Y-101039355D01*
X89592559Y-101128623D01*
X89583068Y-101134103D01*
X89539235Y-101164794D01*
X89530860Y-101175271D01*
X88378486Y-101175271D01*
X88369926Y-101164207D01*
X88326931Y-101134102D01*
X88317445Y-101128624D01*
X88126007Y-101039355D01*
X88115715Y-101035609D01*
X87911691Y-100980941D01*
X87900884Y-100979036D01*
X87737469Y-100964738D01*
X87671351Y-100938875D01*
X87629711Y-100881371D01*
X87625771Y-100810484D01*
X87660781Y-100748720D01*
X87697203Y-100724111D01*
X87796719Y-100679805D01*
X87796726Y-100679801D01*
X87802752Y-100677118D01*
X87957253Y-100564866D01*
X88085040Y-100422944D01*
X88180527Y-100257556D01*
X88239542Y-100075928D01*
X88259504Y-99886000D01*
X88239542Y-99696072D01*
X88180527Y-99514444D01*
X88085040Y-99349056D01*
X87957253Y-99207134D01*
X87802752Y-99094882D01*
X87796724Y-99092198D01*
X87796722Y-99092197D01*
X87634319Y-99019891D01*
X87634318Y-99019891D01*
X87628288Y-99017206D01*
X87534887Y-98997353D01*
X87447944Y-98978872D01*
X87447939Y-98978872D01*
X87441487Y-98977500D01*
X87250513Y-98977500D01*
X87244061Y-98978872D01*
X87244056Y-98978872D01*
X87157113Y-98997353D01*
X87063712Y-99017206D01*
X87057682Y-99019891D01*
X87057681Y-99019891D01*
X86895278Y-99092197D01*
X86895276Y-99092198D01*
X86889248Y-99094882D01*
X86734747Y-99207134D01*
X86606960Y-99349056D01*
X86511473Y-99514444D01*
X86452458Y-99696072D01*
X86432496Y-99886000D01*
X62835277Y-99886000D01*
X62856811Y-96845151D01*
X64560629Y-96845151D01*
X64572813Y-97098798D01*
X64622354Y-97347857D01*
X64623933Y-97352255D01*
X64623935Y-97352262D01*
X64668355Y-97475980D01*
X64708164Y-97586858D01*
X64828358Y-97810551D01*
X64831153Y-97814294D01*
X64831155Y-97814297D01*
X64977504Y-98010282D01*
X64977509Y-98010288D01*
X64980296Y-98014020D01*
X64983605Y-98017300D01*
X64983610Y-98017306D01*
X65082192Y-98115031D01*
X65160640Y-98192797D01*
X65164402Y-98195555D01*
X65164405Y-98195558D01*
X65270097Y-98273054D01*
X65365427Y-98342953D01*
X65369562Y-98345129D01*
X65369566Y-98345131D01*
X65487622Y-98407243D01*
X65590160Y-98461191D01*
X65829901Y-98544912D01*
X66079383Y-98592278D01*
X66199865Y-98597011D01*
X66328458Y-98602064D01*
X66328463Y-98602064D01*
X66333126Y-98602247D01*
X66432107Y-98591407D01*
X66580902Y-98575112D01*
X66580908Y-98575111D01*
X66585555Y-98574602D01*
X66695013Y-98545784D01*
X66826606Y-98511138D01*
X66831126Y-98509948D01*
X66949686Y-98459011D01*
X67060140Y-98411557D01*
X67060143Y-98411555D01*
X67064443Y-98409708D01*
X67068423Y-98407245D01*
X67068427Y-98407243D01*
X67276397Y-98278547D01*
X67276399Y-98278545D01*
X67280380Y-98276082D01*
X67378761Y-98192797D01*
X67470622Y-98115031D01*
X67470624Y-98115029D01*
X67474195Y-98112006D01*
X67641628Y-97921084D01*
X67779002Y-97707512D01*
X67883300Y-97475980D01*
X67952229Y-97231575D01*
X67984276Y-96979667D01*
X67986624Y-96890000D01*
X67967805Y-96636759D01*
X67963587Y-96618116D01*
X67912792Y-96393639D01*
X67911761Y-96389082D01*
X67846981Y-96222500D01*
X67821417Y-96156762D01*
X67821416Y-96156760D01*
X67819724Y-96152409D01*
X67802485Y-96122247D01*
X67696035Y-95935997D01*
X67696033Y-95935995D01*
X67693716Y-95931940D01*
X67536504Y-95732517D01*
X67351542Y-95558523D01*
X67281893Y-95510206D01*
X67146726Y-95416437D01*
X67146723Y-95416435D01*
X67142894Y-95413779D01*
X67097762Y-95391522D01*
X66987213Y-95337005D01*
X66934964Y-95288936D01*
X66916998Y-95220251D01*
X66939017Y-95152755D01*
X66994032Y-95107879D01*
X67042942Y-95097999D01*
X67518002Y-95097999D01*
X67524823Y-95097629D01*
X67575685Y-95092105D01*
X67590937Y-95088479D01*
X67711387Y-95043324D01*
X67726982Y-95034786D01*
X67829057Y-94958285D01*
X67841618Y-94945724D01*
X67918119Y-94843649D01*
X67926657Y-94828054D01*
X67971811Y-94707606D01*
X67975438Y-94692351D01*
X67980964Y-94641486D01*
X67981333Y-94634672D01*
X67981333Y-94365151D01*
X71621962Y-94365151D01*
X71622186Y-94369817D01*
X71622186Y-94369822D01*
X71625807Y-94445206D01*
X71634146Y-94618798D01*
X71653473Y-94715962D01*
X71678872Y-94843649D01*
X71683687Y-94867857D01*
X71685266Y-94872255D01*
X71685268Y-94872262D01*
X71757634Y-95073816D01*
X71769497Y-95106858D01*
X71771714Y-95110984D01*
X71867331Y-95288936D01*
X71889691Y-95330551D01*
X71892486Y-95334294D01*
X71892488Y-95334297D01*
X72038837Y-95530282D01*
X72038842Y-95530288D01*
X72041629Y-95534020D01*
X72044938Y-95537300D01*
X72044943Y-95537306D01*
X72212541Y-95703447D01*
X72221973Y-95712797D01*
X72225735Y-95715555D01*
X72225738Y-95715558D01*
X72253870Y-95736185D01*
X72426760Y-95862953D01*
X72430895Y-95865129D01*
X72430899Y-95865131D01*
X72548955Y-95927243D01*
X72651493Y-95981191D01*
X72785826Y-96028102D01*
X72886687Y-96063324D01*
X72891234Y-96064912D01*
X73140716Y-96112278D01*
X73261198Y-96117011D01*
X73389791Y-96122064D01*
X73389796Y-96122064D01*
X73394459Y-96122247D01*
X73485487Y-96112278D01*
X73642235Y-96095112D01*
X73642241Y-96095111D01*
X73646888Y-96094602D01*
X73756346Y-96065784D01*
X73887939Y-96031138D01*
X73892459Y-96029948D01*
X74111138Y-95935997D01*
X74121473Y-95931557D01*
X74121476Y-95931555D01*
X74125776Y-95929708D01*
X74129756Y-95927245D01*
X74129760Y-95927243D01*
X74337730Y-95798547D01*
X74337732Y-95798545D01*
X74341713Y-95796082D01*
X74345290Y-95793054D01*
X74531955Y-95635031D01*
X74531957Y-95635029D01*
X74535528Y-95632006D01*
X74702961Y-95441084D01*
X74718815Y-95416437D01*
X74837807Y-95231442D01*
X74840335Y-95227512D01*
X74842252Y-95223257D01*
X74842255Y-95223251D01*
X74885785Y-95126618D01*
X74932001Y-95072723D01*
X75000018Y-95052371D01*
X75068241Y-95072022D01*
X75115009Y-95125437D01*
X75126667Y-95178369D01*
X75126667Y-95654669D01*
X75127037Y-95661490D01*
X75132561Y-95712352D01*
X75136187Y-95727604D01*
X75181342Y-95848054D01*
X75189880Y-95863649D01*
X75266381Y-95965724D01*
X75278942Y-95978285D01*
X75381017Y-96054786D01*
X75396612Y-96063324D01*
X75517060Y-96108478D01*
X75532315Y-96112105D01*
X75583180Y-96117631D01*
X75589994Y-96118000D01*
X76562551Y-96118000D01*
X76577790Y-96113525D01*
X76578995Y-96112135D01*
X76580666Y-96104452D01*
X76580666Y-96099884D01*
X77088666Y-96099884D01*
X77093141Y-96115123D01*
X77094531Y-96116328D01*
X77102214Y-96117999D01*
X78079335Y-96117999D01*
X78086156Y-96117629D01*
X78137018Y-96112105D01*
X78152270Y-96108479D01*
X78272720Y-96063324D01*
X78288315Y-96054786D01*
X78390390Y-95978285D01*
X78402951Y-95965724D01*
X78479452Y-95863649D01*
X78487990Y-95848054D01*
X78533144Y-95727606D01*
X78536771Y-95712351D01*
X78542297Y-95661486D01*
X78542666Y-95654672D01*
X78542666Y-94682115D01*
X78538191Y-94666876D01*
X78536801Y-94665671D01*
X78529118Y-94664000D01*
X77106781Y-94664000D01*
X77091542Y-94668475D01*
X77090337Y-94669865D01*
X77088666Y-94677548D01*
X77088666Y-96099884D01*
X76580666Y-96099884D01*
X76580666Y-94365151D01*
X81085296Y-94365151D01*
X81085520Y-94369817D01*
X81085520Y-94369822D01*
X81089141Y-94445206D01*
X81097480Y-94618798D01*
X81116807Y-94715962D01*
X81142206Y-94843649D01*
X81147021Y-94867857D01*
X81148600Y-94872255D01*
X81148602Y-94872262D01*
X81220968Y-95073816D01*
X81232831Y-95106858D01*
X81235048Y-95110984D01*
X81330665Y-95288936D01*
X81353025Y-95330551D01*
X81355820Y-95334294D01*
X81355822Y-95334297D01*
X81502171Y-95530282D01*
X81502176Y-95530288D01*
X81504963Y-95534020D01*
X81508272Y-95537300D01*
X81508277Y-95537306D01*
X81675875Y-95703447D01*
X81685307Y-95712797D01*
X81689069Y-95715555D01*
X81689072Y-95715558D01*
X81717204Y-95736185D01*
X81890094Y-95862953D01*
X81894229Y-95865129D01*
X81894233Y-95865131D01*
X82012289Y-95927243D01*
X82114827Y-95981191D01*
X82249160Y-96028102D01*
X82350021Y-96063324D01*
X82354568Y-96064912D01*
X82604050Y-96112278D01*
X82724532Y-96117011D01*
X82853125Y-96122064D01*
X82853130Y-96122064D01*
X82857793Y-96122247D01*
X82948821Y-96112278D01*
X83105569Y-96095112D01*
X83105575Y-96095111D01*
X83110222Y-96094602D01*
X83219680Y-96065784D01*
X83351273Y-96031138D01*
X83355793Y-96029948D01*
X83574472Y-95935997D01*
X83584807Y-95931557D01*
X83584810Y-95931555D01*
X83589110Y-95929708D01*
X83593090Y-95927245D01*
X83593094Y-95927243D01*
X83801064Y-95798547D01*
X83801066Y-95798545D01*
X83805047Y-95796082D01*
X83808624Y-95793054D01*
X83995289Y-95635031D01*
X83995291Y-95635029D01*
X83998862Y-95632006D01*
X84166295Y-95441084D01*
X84182149Y-95416437D01*
X84301141Y-95231442D01*
X84303669Y-95227512D01*
X84305586Y-95223257D01*
X84305589Y-95223251D01*
X84349119Y-95126618D01*
X84395335Y-95072723D01*
X84463352Y-95052371D01*
X84531575Y-95072022D01*
X84578343Y-95125437D01*
X84590001Y-95178369D01*
X84590001Y-95654669D01*
X84590371Y-95661490D01*
X84595895Y-95712352D01*
X84599521Y-95727604D01*
X84644676Y-95848054D01*
X84653214Y-95863649D01*
X84729715Y-95965724D01*
X84742276Y-95978285D01*
X84844351Y-96054786D01*
X84859946Y-96063324D01*
X84980394Y-96108478D01*
X84995649Y-96112105D01*
X85046514Y-96117631D01*
X85053328Y-96118000D01*
X86025885Y-96118000D01*
X86041124Y-96113525D01*
X86042329Y-96112135D01*
X86044000Y-96104452D01*
X86044000Y-96099884D01*
X86552000Y-96099884D01*
X86556475Y-96115123D01*
X86557865Y-96116328D01*
X86565548Y-96117999D01*
X87542669Y-96117999D01*
X87549490Y-96117629D01*
X87600352Y-96112105D01*
X87615604Y-96108479D01*
X87736054Y-96063324D01*
X87751649Y-96054786D01*
X87853724Y-95978285D01*
X87866285Y-95965724D01*
X87942786Y-95863649D01*
X87951324Y-95848054D01*
X87996478Y-95727606D01*
X88000105Y-95712351D01*
X88005631Y-95661486D01*
X88006000Y-95654672D01*
X88006000Y-95314000D01*
X94306496Y-95314000D01*
X94326458Y-95503928D01*
X94385473Y-95685556D01*
X94388776Y-95691278D01*
X94388777Y-95691279D01*
X94395802Y-95703447D01*
X94480960Y-95850944D01*
X94485378Y-95855851D01*
X94485379Y-95855852D01*
X94520706Y-95895087D01*
X94608747Y-95992866D01*
X94763248Y-96105118D01*
X94769276Y-96107802D01*
X94769278Y-96107803D01*
X94931681Y-96180109D01*
X94937712Y-96182794D01*
X95031113Y-96202647D01*
X95118056Y-96221128D01*
X95118061Y-96221128D01*
X95124513Y-96222500D01*
X95315487Y-96222500D01*
X95321939Y-96221128D01*
X95321944Y-96221128D01*
X95408888Y-96202647D01*
X95502288Y-96182794D01*
X95508319Y-96180109D01*
X95670722Y-96107803D01*
X95670724Y-96107802D01*
X95676752Y-96105118D01*
X95831253Y-95992866D01*
X95919294Y-95895087D01*
X95954621Y-95855852D01*
X95954622Y-95855851D01*
X95959040Y-95850944D01*
X96044198Y-95703447D01*
X96051223Y-95691279D01*
X96051224Y-95691278D01*
X96054527Y-95685556D01*
X96113542Y-95503928D01*
X96133504Y-95314000D01*
X96130478Y-95285208D01*
X96114232Y-95130635D01*
X96114232Y-95130633D01*
X96113542Y-95124072D01*
X96054527Y-94942444D01*
X95959040Y-94777056D01*
X95882772Y-94692351D01*
X95835675Y-94640045D01*
X95835674Y-94640044D01*
X95831253Y-94635134D01*
X95710347Y-94547290D01*
X95682094Y-94526763D01*
X95682093Y-94526762D01*
X95676752Y-94522882D01*
X95670724Y-94520198D01*
X95670722Y-94520197D01*
X95508319Y-94447891D01*
X95508318Y-94447891D01*
X95502288Y-94445206D01*
X95408888Y-94425353D01*
X95321944Y-94406872D01*
X95321939Y-94406872D01*
X95315487Y-94405500D01*
X95124513Y-94405500D01*
X95118061Y-94406872D01*
X95118056Y-94406872D01*
X95031113Y-94425353D01*
X94937712Y-94445206D01*
X94931682Y-94447891D01*
X94931681Y-94447891D01*
X94769278Y-94520197D01*
X94769276Y-94520198D01*
X94763248Y-94522882D01*
X94757907Y-94526762D01*
X94757906Y-94526763D01*
X94729653Y-94547290D01*
X94608747Y-94635134D01*
X94604326Y-94640044D01*
X94604325Y-94640045D01*
X94557229Y-94692351D01*
X94480960Y-94777056D01*
X94385473Y-94942444D01*
X94326458Y-95124072D01*
X94325768Y-95130633D01*
X94325768Y-95130635D01*
X94309522Y-95285208D01*
X94306496Y-95314000D01*
X88006000Y-95314000D01*
X88006000Y-94682115D01*
X88001525Y-94666876D01*
X88000135Y-94665671D01*
X87992452Y-94664000D01*
X86570115Y-94664000D01*
X86554876Y-94668475D01*
X86553671Y-94669865D01*
X86552000Y-94677548D01*
X86552000Y-96099884D01*
X86044000Y-96099884D01*
X86044000Y-94137885D01*
X86552000Y-94137885D01*
X86556475Y-94153124D01*
X86557865Y-94154329D01*
X86565548Y-94156000D01*
X87987884Y-94156000D01*
X88003123Y-94151525D01*
X88004328Y-94150135D01*
X88005999Y-94142452D01*
X88005999Y-93536000D01*
X95576496Y-93536000D01*
X95577186Y-93542565D01*
X95591735Y-93680987D01*
X95596458Y-93725928D01*
X95655473Y-93907556D01*
X95750960Y-94072944D01*
X95755378Y-94077851D01*
X95755379Y-94077852D01*
X95823154Y-94153124D01*
X95878747Y-94214866D01*
X96033248Y-94327118D01*
X96039276Y-94329802D01*
X96039278Y-94329803D01*
X96129163Y-94369822D01*
X96207712Y-94404794D01*
X96301112Y-94424647D01*
X96388056Y-94443128D01*
X96388061Y-94443128D01*
X96394513Y-94444500D01*
X96585487Y-94444500D01*
X96591939Y-94443128D01*
X96591944Y-94443128D01*
X96639144Y-94433095D01*
X98425001Y-94433095D01*
X98425338Y-94439614D01*
X98435257Y-94535206D01*
X98438149Y-94548600D01*
X98489588Y-94702784D01*
X98495761Y-94715962D01*
X98581063Y-94853807D01*
X98590099Y-94865208D01*
X98704829Y-94979739D01*
X98716240Y-94988751D01*
X98854243Y-95073816D01*
X98867424Y-95079963D01*
X99021710Y-95131138D01*
X99035086Y-95134005D01*
X99129438Y-95143672D01*
X99135854Y-95144000D01*
X99755885Y-95144000D01*
X99771124Y-95139525D01*
X99772329Y-95138135D01*
X99774000Y-95130452D01*
X99774000Y-95125884D01*
X100282000Y-95125884D01*
X100286475Y-95141123D01*
X100287865Y-95142328D01*
X100295548Y-95143999D01*
X100920095Y-95143999D01*
X100926614Y-95143662D01*
X101022206Y-95133743D01*
X101035600Y-95130851D01*
X101189784Y-95079412D01*
X101202962Y-95073239D01*
X101340807Y-94987937D01*
X101352208Y-94978901D01*
X101466739Y-94864171D01*
X101475751Y-94852760D01*
X101560816Y-94714757D01*
X101566963Y-94701576D01*
X101618138Y-94547290D01*
X101621005Y-94533914D01*
X101630672Y-94439562D01*
X101631000Y-94433146D01*
X101631000Y-94433095D01*
X106801001Y-94433095D01*
X106801338Y-94439614D01*
X106811257Y-94535206D01*
X106814149Y-94548600D01*
X106865588Y-94702784D01*
X106871761Y-94715962D01*
X106957063Y-94853807D01*
X106966099Y-94865208D01*
X107080829Y-94979739D01*
X107092240Y-94988751D01*
X107230243Y-95073816D01*
X107243424Y-95079963D01*
X107397710Y-95131138D01*
X107411086Y-95134005D01*
X107505438Y-95143672D01*
X107511854Y-95144000D01*
X108131885Y-95144000D01*
X108147124Y-95139525D01*
X108148329Y-95138135D01*
X108150000Y-95130452D01*
X108150000Y-95125884D01*
X108658000Y-95125884D01*
X108662475Y-95141123D01*
X108663865Y-95142328D01*
X108671548Y-95143999D01*
X109296095Y-95143999D01*
X109302614Y-95143662D01*
X109398206Y-95133743D01*
X109411600Y-95130851D01*
X109565784Y-95079412D01*
X109578962Y-95073239D01*
X109716807Y-94987937D01*
X109728208Y-94978901D01*
X109842739Y-94864171D01*
X109851751Y-94852760D01*
X109936816Y-94714757D01*
X109942963Y-94701576D01*
X109994138Y-94547290D01*
X109997005Y-94533914D01*
X110006672Y-94439562D01*
X110007000Y-94433146D01*
X110007000Y-94433095D01*
X115951001Y-94433095D01*
X115951338Y-94439614D01*
X115961257Y-94535206D01*
X115964149Y-94548600D01*
X116015588Y-94702784D01*
X116021761Y-94715962D01*
X116107063Y-94853807D01*
X116116099Y-94865208D01*
X116230829Y-94979739D01*
X116242240Y-94988751D01*
X116380243Y-95073816D01*
X116393424Y-95079963D01*
X116547710Y-95131138D01*
X116561086Y-95134005D01*
X116655438Y-95143672D01*
X116661854Y-95144000D01*
X117281885Y-95144000D01*
X117297124Y-95139525D01*
X117298329Y-95138135D01*
X117300000Y-95130452D01*
X117300000Y-95125884D01*
X117808000Y-95125884D01*
X117812475Y-95141123D01*
X117813865Y-95142328D01*
X117821548Y-95143999D01*
X118446095Y-95143999D01*
X118452614Y-95143662D01*
X118548206Y-95133743D01*
X118561600Y-95130851D01*
X118715784Y-95079412D01*
X118728962Y-95073239D01*
X118866807Y-94987937D01*
X118878208Y-94978901D01*
X118992739Y-94864171D01*
X119001751Y-94852760D01*
X119086816Y-94714757D01*
X119092963Y-94701576D01*
X119144138Y-94547290D01*
X119147005Y-94533914D01*
X119156672Y-94439562D01*
X119157000Y-94433146D01*
X119157000Y-94433095D01*
X124605001Y-94433095D01*
X124605338Y-94439614D01*
X124615257Y-94535206D01*
X124618149Y-94548600D01*
X124669588Y-94702784D01*
X124675761Y-94715962D01*
X124761063Y-94853807D01*
X124770099Y-94865208D01*
X124884829Y-94979739D01*
X124896240Y-94988751D01*
X125034243Y-95073816D01*
X125047424Y-95079963D01*
X125201710Y-95131138D01*
X125215086Y-95134005D01*
X125309438Y-95143672D01*
X125315854Y-95144000D01*
X125935885Y-95144000D01*
X125951124Y-95139525D01*
X125952329Y-95138135D01*
X125954000Y-95130452D01*
X125954000Y-95125884D01*
X126462000Y-95125884D01*
X126466475Y-95141123D01*
X126467865Y-95142328D01*
X126475548Y-95143999D01*
X127100095Y-95143999D01*
X127106614Y-95143662D01*
X127202206Y-95133743D01*
X127215600Y-95130851D01*
X127369784Y-95079412D01*
X127382962Y-95073239D01*
X127520807Y-94987937D01*
X127532208Y-94978901D01*
X127646739Y-94864171D01*
X127655751Y-94852760D01*
X127740816Y-94714757D01*
X127746963Y-94701576D01*
X127798138Y-94547290D01*
X127801005Y-94533914D01*
X127810672Y-94439562D01*
X127811000Y-94433146D01*
X127811000Y-94038115D01*
X127806525Y-94022876D01*
X127805135Y-94021671D01*
X127797452Y-94020000D01*
X126480115Y-94020000D01*
X126464876Y-94024475D01*
X126463671Y-94025865D01*
X126462000Y-94033548D01*
X126462000Y-95125884D01*
X125954000Y-95125884D01*
X125954000Y-94038115D01*
X125949525Y-94022876D01*
X125948135Y-94021671D01*
X125940452Y-94020000D01*
X124623116Y-94020000D01*
X124607877Y-94024475D01*
X124606672Y-94025865D01*
X124605001Y-94033548D01*
X124605001Y-94433095D01*
X119157000Y-94433095D01*
X119157000Y-94038115D01*
X119152525Y-94022876D01*
X119151135Y-94021671D01*
X119143452Y-94020000D01*
X117826115Y-94020000D01*
X117810876Y-94024475D01*
X117809671Y-94025865D01*
X117808000Y-94033548D01*
X117808000Y-95125884D01*
X117300000Y-95125884D01*
X117300000Y-94038115D01*
X117295525Y-94022876D01*
X117294135Y-94021671D01*
X117286452Y-94020000D01*
X115969116Y-94020000D01*
X115953877Y-94024475D01*
X115952672Y-94025865D01*
X115951001Y-94033548D01*
X115951001Y-94433095D01*
X110007000Y-94433095D01*
X110007000Y-94038115D01*
X110002525Y-94022876D01*
X110001135Y-94021671D01*
X109993452Y-94020000D01*
X108676115Y-94020000D01*
X108660876Y-94024475D01*
X108659671Y-94025865D01*
X108658000Y-94033548D01*
X108658000Y-95125884D01*
X108150000Y-95125884D01*
X108150000Y-94038115D01*
X108145525Y-94022876D01*
X108144135Y-94021671D01*
X108136452Y-94020000D01*
X106819116Y-94020000D01*
X106803877Y-94024475D01*
X106802672Y-94025865D01*
X106801001Y-94033548D01*
X106801001Y-94433095D01*
X101631000Y-94433095D01*
X101631000Y-94038115D01*
X101626525Y-94022876D01*
X101625135Y-94021671D01*
X101617452Y-94020000D01*
X100300115Y-94020000D01*
X100284876Y-94024475D01*
X100283671Y-94025865D01*
X100282000Y-94033548D01*
X100282000Y-95125884D01*
X99774000Y-95125884D01*
X99774000Y-94038115D01*
X99769525Y-94022876D01*
X99768135Y-94021671D01*
X99760452Y-94020000D01*
X98443116Y-94020000D01*
X98427877Y-94024475D01*
X98426672Y-94025865D01*
X98425001Y-94033548D01*
X98425001Y-94433095D01*
X96639144Y-94433095D01*
X96678887Y-94424647D01*
X96772288Y-94404794D01*
X96850837Y-94369822D01*
X96940722Y-94329803D01*
X96940724Y-94329802D01*
X96946752Y-94327118D01*
X97101253Y-94214866D01*
X97156846Y-94153124D01*
X97224621Y-94077852D01*
X97224622Y-94077851D01*
X97229040Y-94072944D01*
X97324527Y-93907556D01*
X97383542Y-93725928D01*
X97388266Y-93680987D01*
X97402814Y-93542565D01*
X97403504Y-93536000D01*
X97399078Y-93493885D01*
X97384232Y-93352635D01*
X97384232Y-93352633D01*
X97383542Y-93346072D01*
X97324527Y-93164444D01*
X97229040Y-92999056D01*
X97170265Y-92933779D01*
X97105675Y-92862045D01*
X97105674Y-92862044D01*
X97101253Y-92857134D01*
X97002157Y-92785136D01*
X96952094Y-92748763D01*
X96952093Y-92748762D01*
X96946752Y-92744882D01*
X96940724Y-92742198D01*
X96940722Y-92742197D01*
X96778319Y-92669891D01*
X96778318Y-92669891D01*
X96772288Y-92667206D01*
X96678888Y-92647353D01*
X96591944Y-92628872D01*
X96591939Y-92628872D01*
X96585487Y-92627500D01*
X96394513Y-92627500D01*
X96388061Y-92628872D01*
X96388056Y-92628872D01*
X96301112Y-92647353D01*
X96207712Y-92667206D01*
X96201682Y-92669891D01*
X96201681Y-92669891D01*
X96039278Y-92742197D01*
X96039276Y-92742198D01*
X96033248Y-92744882D01*
X96027907Y-92748762D01*
X96027906Y-92748763D01*
X95977843Y-92785136D01*
X95878747Y-92857134D01*
X95874326Y-92862044D01*
X95874325Y-92862045D01*
X95809736Y-92933779D01*
X95750960Y-92999056D01*
X95655473Y-93164444D01*
X95596458Y-93346072D01*
X95595768Y-93352633D01*
X95595768Y-93352635D01*
X95580922Y-93493885D01*
X95576496Y-93536000D01*
X88005999Y-93536000D01*
X88005999Y-93165331D01*
X88005629Y-93158510D01*
X88000105Y-93107648D01*
X87996479Y-93092396D01*
X87951324Y-92971946D01*
X87942786Y-92956351D01*
X87866285Y-92854276D01*
X87853724Y-92841715D01*
X87751649Y-92765214D01*
X87736054Y-92756676D01*
X87615606Y-92711522D01*
X87600351Y-92707895D01*
X87549486Y-92702369D01*
X87542672Y-92702000D01*
X86570115Y-92702000D01*
X86554876Y-92706475D01*
X86553671Y-92707865D01*
X86552000Y-92715548D01*
X86552000Y-94137885D01*
X86044000Y-94137885D01*
X86044000Y-92720116D01*
X86039525Y-92704877D01*
X86038135Y-92703672D01*
X86030452Y-92702001D01*
X85053331Y-92702001D01*
X85046510Y-92702371D01*
X84995648Y-92707895D01*
X84980396Y-92711521D01*
X84859946Y-92756676D01*
X84844351Y-92765214D01*
X84742276Y-92841715D01*
X84729715Y-92854276D01*
X84653214Y-92956351D01*
X84644676Y-92971946D01*
X84599522Y-93092394D01*
X84595895Y-93107649D01*
X84590369Y-93158514D01*
X84590000Y-93165328D01*
X84590000Y-93632338D01*
X84569998Y-93700459D01*
X84516342Y-93746952D01*
X84446068Y-93757056D01*
X84381488Y-93727562D01*
X84348526Y-93680783D01*
X84348099Y-93680987D01*
X84346904Y-93678482D01*
X84346566Y-93678002D01*
X84346084Y-93676763D01*
X84344391Y-93672409D01*
X84321489Y-93632338D01*
X84220702Y-93455997D01*
X84220700Y-93455995D01*
X84218383Y-93451940D01*
X84061171Y-93252517D01*
X83932552Y-93131525D01*
X83879610Y-93081722D01*
X83879608Y-93081720D01*
X83876209Y-93078523D01*
X83761658Y-92999056D01*
X83671393Y-92936437D01*
X83671390Y-92936435D01*
X83667561Y-92933779D01*
X83663384Y-92931719D01*
X83663377Y-92931715D01*
X83443996Y-92823528D01*
X83443992Y-92823527D01*
X83439810Y-92821464D01*
X83197960Y-92744047D01*
X83193355Y-92743297D01*
X82951935Y-92703980D01*
X82951934Y-92703980D01*
X82947323Y-92703229D01*
X82820364Y-92701567D01*
X82698083Y-92699966D01*
X82698080Y-92699966D01*
X82693406Y-92699905D01*
X82441787Y-92734149D01*
X82437301Y-92735457D01*
X82437299Y-92735457D01*
X82402946Y-92745470D01*
X82197993Y-92805208D01*
X81967380Y-92911522D01*
X81963471Y-92914085D01*
X81758928Y-93048189D01*
X81758923Y-93048193D01*
X81755015Y-93050755D01*
X81691272Y-93107648D01*
X81626647Y-93165328D01*
X81565562Y-93219848D01*
X81403183Y-93415087D01*
X81271447Y-93632182D01*
X81269638Y-93636496D01*
X81269637Y-93636498D01*
X81252753Y-93676763D01*
X81173246Y-93866365D01*
X81110738Y-94112490D01*
X81085296Y-94365151D01*
X76580666Y-94365151D01*
X76580666Y-94137885D01*
X77088666Y-94137885D01*
X77093141Y-94153124D01*
X77094531Y-94154329D01*
X77102214Y-94156000D01*
X78524550Y-94156000D01*
X78539789Y-94151525D01*
X78540994Y-94150135D01*
X78542665Y-94142452D01*
X78542665Y-93165331D01*
X78542295Y-93158510D01*
X78536771Y-93107648D01*
X78533145Y-93092396D01*
X78487990Y-92971946D01*
X78479452Y-92956351D01*
X78402951Y-92854276D01*
X78390390Y-92841715D01*
X78288315Y-92765214D01*
X78272720Y-92756676D01*
X78152272Y-92711522D01*
X78137017Y-92707895D01*
X78086152Y-92702369D01*
X78079338Y-92702000D01*
X77106781Y-92702000D01*
X77091542Y-92706475D01*
X77090337Y-92707865D01*
X77088666Y-92715548D01*
X77088666Y-94137885D01*
X76580666Y-94137885D01*
X76580666Y-92720116D01*
X76576191Y-92704877D01*
X76574801Y-92703672D01*
X76567118Y-92702001D01*
X75589997Y-92702001D01*
X75583176Y-92702371D01*
X75532314Y-92707895D01*
X75517062Y-92711521D01*
X75396612Y-92756676D01*
X75381017Y-92765214D01*
X75278942Y-92841715D01*
X75266381Y-92854276D01*
X75189880Y-92956351D01*
X75181342Y-92971946D01*
X75136188Y-93092394D01*
X75132561Y-93107649D01*
X75127035Y-93158514D01*
X75126666Y-93165328D01*
X75126666Y-93632338D01*
X75106664Y-93700459D01*
X75053008Y-93746952D01*
X74982734Y-93757056D01*
X74918154Y-93727562D01*
X74885192Y-93680783D01*
X74884765Y-93680987D01*
X74883570Y-93678482D01*
X74883232Y-93678002D01*
X74882750Y-93676763D01*
X74881057Y-93672409D01*
X74858155Y-93632338D01*
X74757368Y-93455997D01*
X74757366Y-93455995D01*
X74755049Y-93451940D01*
X74597837Y-93252517D01*
X74469218Y-93131525D01*
X74416276Y-93081722D01*
X74416274Y-93081720D01*
X74412875Y-93078523D01*
X74298324Y-92999056D01*
X74208059Y-92936437D01*
X74208056Y-92936435D01*
X74204227Y-92933779D01*
X74200050Y-92931719D01*
X74200043Y-92931715D01*
X73980662Y-92823528D01*
X73980658Y-92823527D01*
X73976476Y-92821464D01*
X73734626Y-92744047D01*
X73730021Y-92743297D01*
X73488601Y-92703980D01*
X73488600Y-92703980D01*
X73483989Y-92703229D01*
X73357030Y-92701567D01*
X73234749Y-92699966D01*
X73234746Y-92699966D01*
X73230072Y-92699905D01*
X72978453Y-92734149D01*
X72973967Y-92735457D01*
X72973965Y-92735457D01*
X72939612Y-92745470D01*
X72734659Y-92805208D01*
X72504046Y-92911522D01*
X72500137Y-92914085D01*
X72295594Y-93048189D01*
X72295589Y-93048193D01*
X72291681Y-93050755D01*
X72227938Y-93107648D01*
X72163313Y-93165328D01*
X72102228Y-93219848D01*
X71939849Y-93415087D01*
X71808113Y-93632182D01*
X71806304Y-93636496D01*
X71806303Y-93636498D01*
X71789419Y-93676763D01*
X71709912Y-93866365D01*
X71647404Y-94112490D01*
X71621962Y-94365151D01*
X67981333Y-94365151D01*
X67981333Y-93662115D01*
X67976858Y-93646876D01*
X67975468Y-93645671D01*
X67967785Y-93644000D01*
X64583449Y-93644000D01*
X64568210Y-93648475D01*
X64567005Y-93649865D01*
X64565334Y-93657548D01*
X64565334Y-94634669D01*
X64565704Y-94641490D01*
X64571228Y-94692352D01*
X64574854Y-94707604D01*
X64620009Y-94828054D01*
X64628547Y-94843649D01*
X64705048Y-94945724D01*
X64717609Y-94958285D01*
X64819684Y-95034786D01*
X64835279Y-95043324D01*
X64955727Y-95088478D01*
X64970982Y-95092105D01*
X65021847Y-95097631D01*
X65028661Y-95098000D01*
X65505137Y-95098000D01*
X65573258Y-95118002D01*
X65619751Y-95171658D01*
X65629855Y-95241932D01*
X65600361Y-95306512D01*
X65557889Y-95338425D01*
X65442713Y-95391522D01*
X65438804Y-95394085D01*
X65234261Y-95528189D01*
X65234256Y-95528193D01*
X65230348Y-95530755D01*
X65135621Y-95615302D01*
X65050496Y-95691279D01*
X65040895Y-95699848D01*
X64878516Y-95895087D01*
X64746780Y-96112182D01*
X64744971Y-96116496D01*
X64744970Y-96116498D01*
X64716595Y-96184166D01*
X64648579Y-96346365D01*
X64586071Y-96592490D01*
X64560629Y-96845151D01*
X62856811Y-96845151D01*
X62883206Y-93117885D01*
X64565333Y-93117885D01*
X64569808Y-93133124D01*
X64571198Y-93134329D01*
X64578881Y-93136000D01*
X66001218Y-93136000D01*
X66016457Y-93131525D01*
X66017662Y-93130135D01*
X66019333Y-93122452D01*
X66019333Y-93117885D01*
X66527333Y-93117885D01*
X66531808Y-93133124D01*
X66533198Y-93134329D01*
X66540881Y-93136000D01*
X67963217Y-93136000D01*
X67978456Y-93131525D01*
X67979661Y-93130135D01*
X67981332Y-93122452D01*
X67981332Y-92145331D01*
X67980962Y-92138510D01*
X67975438Y-92087648D01*
X67971812Y-92072396D01*
X67926657Y-91951946D01*
X67918119Y-91936351D01*
X67841618Y-91834276D01*
X67829057Y-91821715D01*
X67726982Y-91745214D01*
X67711387Y-91736676D01*
X67590939Y-91691522D01*
X67575684Y-91687895D01*
X67524819Y-91682369D01*
X67518005Y-91682000D01*
X66545448Y-91682000D01*
X66530209Y-91686475D01*
X66529004Y-91687865D01*
X66527333Y-91695548D01*
X66527333Y-93117885D01*
X66019333Y-93117885D01*
X66019333Y-91700116D01*
X66014858Y-91684877D01*
X66013468Y-91683672D01*
X66005785Y-91682001D01*
X65028664Y-91682001D01*
X65021843Y-91682371D01*
X64970981Y-91687895D01*
X64955729Y-91691521D01*
X64835279Y-91736676D01*
X64819684Y-91745214D01*
X64717609Y-91821715D01*
X64705048Y-91834276D01*
X64628547Y-91936351D01*
X64620009Y-91951946D01*
X64574855Y-92072394D01*
X64571228Y-92087649D01*
X64565702Y-92138514D01*
X64565333Y-92145328D01*
X64565333Y-93117885D01*
X62883206Y-93117885D01*
X62897065Y-91160829D01*
X98421052Y-91160829D01*
X98429828Y-91394604D01*
X98477868Y-91623559D01*
X98563797Y-91841146D01*
X98685159Y-92041144D01*
X98838483Y-92217834D01*
X98842615Y-92221222D01*
X98876201Y-92248761D01*
X98916196Y-92307421D01*
X98918127Y-92378391D01*
X98881383Y-92439139D01*
X98858843Y-92454220D01*
X98859268Y-92454906D01*
X98715193Y-92544063D01*
X98703792Y-92553099D01*
X98589261Y-92667829D01*
X98580249Y-92679240D01*
X98495184Y-92817243D01*
X98489037Y-92830424D01*
X98437862Y-92984710D01*
X98434995Y-92998086D01*
X98425328Y-93092438D01*
X98425000Y-93098855D01*
X98425000Y-93493885D01*
X98429475Y-93509124D01*
X98430865Y-93510329D01*
X98438548Y-93512000D01*
X101612884Y-93512000D01*
X101628123Y-93507525D01*
X101629328Y-93506135D01*
X101630999Y-93498452D01*
X101630999Y-93098905D01*
X101630662Y-93092386D01*
X101620743Y-92996794D01*
X101617851Y-92983400D01*
X101566412Y-92829216D01*
X101560239Y-92816038D01*
X101474937Y-92678193D01*
X101465901Y-92666792D01*
X101351171Y-92552261D01*
X101339760Y-92543249D01*
X101195525Y-92454342D01*
X101196817Y-92452245D01*
X101152308Y-92413044D01*
X101132856Y-92344764D01*
X101153407Y-92276807D01*
X101171878Y-92254614D01*
X101289168Y-92142724D01*
X101428813Y-91955035D01*
X101438313Y-91936351D01*
X101532420Y-91751256D01*
X101532420Y-91751255D01*
X101534838Y-91746500D01*
X101604210Y-91523083D01*
X101621239Y-91394604D01*
X101634248Y-91296455D01*
X101634248Y-91296451D01*
X101634948Y-91291171D01*
X101626172Y-91057396D01*
X101578132Y-90828441D01*
X101492203Y-90610854D01*
X101370841Y-90410856D01*
X101217517Y-90234166D01*
X101036614Y-90085835D01*
X101031984Y-90083199D01*
X101031979Y-90083196D01*
X100999484Y-90064699D01*
X100950178Y-90013616D01*
X100936317Y-89943985D01*
X100962301Y-89877915D01*
X100991450Y-89850677D01*
X101032885Y-89822781D01*
X101119896Y-89764202D01*
X101289168Y-89602724D01*
X101428813Y-89415035D01*
X101484398Y-89305709D01*
X101532420Y-89211256D01*
X101532420Y-89211255D01*
X101534838Y-89206500D01*
X101604210Y-88983083D01*
X101621239Y-88854604D01*
X101634248Y-88756455D01*
X101634248Y-88756451D01*
X101634948Y-88751171D01*
X101626172Y-88517396D01*
X101578132Y-88288441D01*
X101492203Y-88070854D01*
X101370841Y-87870856D01*
X101217517Y-87694166D01*
X101036614Y-87545835D01*
X100833305Y-87430104D01*
X100613404Y-87350284D01*
X100608155Y-87349335D01*
X100608152Y-87349334D01*
X100526960Y-87334652D01*
X100383197Y-87308656D01*
X100379058Y-87308461D01*
X100379051Y-87308460D01*
X100360172Y-87307570D01*
X100360165Y-87307570D01*
X100358684Y-87307500D01*
X99744262Y-87307500D01*
X99676359Y-87313262D01*
X99575209Y-87321844D01*
X99575205Y-87321845D01*
X99569898Y-87322295D01*
X99564741Y-87323633D01*
X99564738Y-87323634D01*
X99348629Y-87379725D01*
X99348625Y-87379726D01*
X99343460Y-87381067D01*
X99338594Y-87383259D01*
X99338591Y-87383260D01*
X99228739Y-87432745D01*
X99130163Y-87477150D01*
X98936104Y-87607798D01*
X98766832Y-87769276D01*
X98627187Y-87956965D01*
X98624771Y-87961716D01*
X98624769Y-87961720D01*
X98566756Y-88075823D01*
X98521162Y-88165500D01*
X98451790Y-88388917D01*
X98451089Y-88394204D01*
X98451089Y-88394205D01*
X98434055Y-88522727D01*
X98421052Y-88620829D01*
X98429828Y-88854604D01*
X98477868Y-89083559D01*
X98563797Y-89301146D01*
X98685159Y-89501144D01*
X98838483Y-89677834D01*
X99019386Y-89826165D01*
X99024016Y-89828801D01*
X99024021Y-89828804D01*
X99056516Y-89847301D01*
X99105822Y-89898384D01*
X99119683Y-89968015D01*
X99093699Y-90034085D01*
X99064550Y-90061323D01*
X99032061Y-90083196D01*
X98936104Y-90147798D01*
X98766832Y-90309276D01*
X98627187Y-90496965D01*
X98624771Y-90501716D01*
X98624769Y-90501720D01*
X98566756Y-90615823D01*
X98521162Y-90705500D01*
X98451790Y-90928917D01*
X98451089Y-90934204D01*
X98451089Y-90934205D01*
X98434055Y-91062727D01*
X98421052Y-91160829D01*
X62897065Y-91160829D01*
X62925640Y-87125714D01*
X62946123Y-87057739D01*
X63000107Y-87011628D01*
X63043065Y-87000902D01*
X63078984Y-86998453D01*
X63112547Y-86996165D01*
X63112552Y-86996164D01*
X63116825Y-86995873D01*
X63121020Y-86995004D01*
X63121022Y-86995004D01*
X63307917Y-86956300D01*
X63398342Y-86937574D01*
X63669343Y-86841607D01*
X63810776Y-86768608D01*
X63921005Y-86711715D01*
X63921006Y-86711715D01*
X63924812Y-86709750D01*
X63928313Y-86707289D01*
X63928317Y-86707287D01*
X64156519Y-86546904D01*
X64156522Y-86546901D01*
X64160023Y-86544441D01*
X64160828Y-86543693D01*
X64225644Y-86516661D01*
X64239984Y-86515907D01*
X94696241Y-86653232D01*
G37*
%TD.AperFunction*%
%TD*%
M02*
