%TF.GenerationSoftware,KiCad,Pcbnew,(6.0.0-0)*%
%TF.CreationDate,2022-09-25T22:14:03-04:00*%
%TF.ProjectId,Dome_Controller,446f6d65-5f43-46f6-9e74-726f6c6c6572,rev?*%
%TF.SameCoordinates,Original*%
%TF.FileFunction,Copper,L3,Inr*%
%TF.FilePolarity,Positive*%
%FSLAX46Y46*%
G04 Gerber Fmt 4.6, Leading zero omitted, Abs format (unit mm)*
G04 Created by KiCad (PCBNEW (6.0.0-0)) date 2022-09-25 22:14:03*
%MOMM*%
%LPD*%
G01*
G04 APERTURE LIST*
%TA.AperFunction,ComponentPad*%
%ADD10R,1.600000X1.600000*%
%TD*%
%TA.AperFunction,ComponentPad*%
%ADD11C,1.600000*%
%TD*%
%TA.AperFunction,ComponentPad*%
%ADD12C,4.000000*%
%TD*%
%TA.AperFunction,ComponentPad*%
%ADD13O,2.000000X4.000000*%
%TD*%
%TA.AperFunction,ComponentPad*%
%ADD14O,4.000000X2.000000*%
%TD*%
%TA.AperFunction,ComponentPad*%
%ADD15O,4.400000X2.200000*%
%TD*%
%TA.AperFunction,ComponentPad*%
%ADD16O,1.700000X1.700000*%
%TD*%
%TA.AperFunction,ComponentPad*%
%ADD17R,1.700000X1.700000*%
%TD*%
%TA.AperFunction,ComponentPad*%
%ADD18R,2.400000X2.400000*%
%TD*%
%TA.AperFunction,ComponentPad*%
%ADD19C,2.400000*%
%TD*%
%TA.AperFunction,ComponentPad*%
%ADD20O,0.890000X1.550000*%
%TD*%
%TA.AperFunction,ComponentPad*%
%ADD21O,1.250000X0.950000*%
%TD*%
%TA.AperFunction,ComponentPad*%
%ADD22C,1.524000*%
%TD*%
%TA.AperFunction,ComponentPad*%
%ADD23C,2.300000*%
%TD*%
%TA.AperFunction,ViaPad*%
%ADD24C,0.800000*%
%TD*%
%TA.AperFunction,Conductor*%
%ADD25C,0.200000*%
%TD*%
%TA.AperFunction,Conductor*%
%ADD26C,0.254000*%
%TD*%
G04 APERTURE END LIST*
D10*
%TO.N,+12V*%
%TO.C,J13*%
X61790000Y-64740000D03*
D11*
X61790000Y-67510000D03*
%TO.N,GND*%
X61790000Y-70280000D03*
X61790000Y-73050000D03*
%TO.N,+5V*%
X61790000Y-75820000D03*
%TO.N,SR_I2C_CLK*%
X61790000Y-78590000D03*
%TO.N,unconnected-(J13-Pad7)*%
X61790000Y-81360000D03*
%TO.N,GND*%
X61790000Y-84130000D03*
%TO.N,SR_SER_RX*%
X61790000Y-86900000D03*
%TO.N,GND*%
X61790000Y-89670000D03*
X61790000Y-92440000D03*
%TO.N,+12V*%
X61790000Y-95210000D03*
X61790000Y-97980000D03*
X64630000Y-66125000D03*
X64630000Y-68895000D03*
%TO.N,GND*%
X64630000Y-71665000D03*
X64630000Y-74435000D03*
X64630000Y-77205000D03*
%TO.N,SR_I2C_DATA*%
X64630000Y-79975000D03*
%TO.N,+5V*%
X64630000Y-82745000D03*
%TO.N,SR_SER_TX*%
X64630000Y-85515000D03*
%TO.N,GND*%
X64630000Y-88285000D03*
X64630000Y-91055000D03*
%TO.N,+12V*%
X64630000Y-93825000D03*
X64630000Y-96595000D03*
D12*
%TO.N,unconnected-(J13-Pad0)*%
X63210000Y-104910000D03*
X63210000Y-57810000D03*
%TD*%
D13*
%TO.N,GND*%
%TO.C,J14*%
X71485000Y-64515000D03*
D14*
X76185000Y-61515000D03*
D15*
%TO.N,+12V*%
X76185000Y-67515000D03*
%TD*%
D16*
%TO.N,SR_SER_RX*%
%TO.C,J12*%
X140760000Y-79395000D03*
%TO.N,SR_SER_TX*%
X138220000Y-79395000D03*
%TO.N,GND*%
X135680000Y-79395000D03*
D17*
%TO.N,+5V*%
X133140000Y-79395000D03*
%TD*%
D16*
%TO.N,SR_I2C_DATA*%
%TO.C,J11*%
X140730000Y-84415000D03*
X140730000Y-86955000D03*
%TO.N,SR_I2C_CLK*%
X138190000Y-84415000D03*
X138190000Y-86955000D03*
%TO.N,GND*%
X135650000Y-84415000D03*
X135650000Y-86955000D03*
%TO.N,+5V*%
X133110000Y-84415000D03*
D17*
X133110000Y-86955000D03*
%TD*%
D18*
%TO.N,GND*%
%TO.C,J5*%
X87780000Y-66000000D03*
D19*
%TO.N,+12V*%
X84280000Y-66000000D03*
%TD*%
%TO.N,+5V*%
%TO.C,J8*%
X88480000Y-99510000D03*
D18*
%TO.N,GND*%
X84980000Y-99510000D03*
%TD*%
D20*
%TO.N,unconnected-(J1-Pad6)*%
%TO.C,J1*%
X118400000Y-108450000D03*
D21*
X117400000Y-105750000D03*
X112400000Y-105750000D03*
D20*
X111400000Y-108450000D03*
%TD*%
D18*
%TO.N,GND*%
%TO.C,J9*%
X93850000Y-99510000D03*
D19*
%TO.N,+5V*%
X97350000Y-99510000D03*
%TD*%
D16*
%TO.N,TX_HP*%
%TO.C,J3*%
X140770000Y-70800000D03*
%TO.N,TX_RS*%
X140770000Y-73340000D03*
%TO.N,RX_HP*%
X138230000Y-70800000D03*
%TO.N,RX_RS*%
X138230000Y-73340000D03*
%TO.N,GND*%
X135690000Y-70800000D03*
D17*
X135690000Y-73340000D03*
%TD*%
%TO.N,GND*%
%TO.C,J2*%
X128040000Y-97700000D03*
D16*
%TO.N,unconnected-(J2-Pad2)*%
X130580000Y-97700000D03*
%TO.N,SCL*%
X133120000Y-97700000D03*
%TO.N,SDA*%
X135660000Y-97700000D03*
%TO.N,+3.3V*%
X138200000Y-97700000D03*
%TO.N,+5V*%
X140740000Y-97700000D03*
%TD*%
%TO.N,CL_D*%
%TO.C,J4*%
X140770000Y-92450000D03*
%TO.N,+5V*%
X138230000Y-92450000D03*
D17*
%TO.N,GND*%
X135690000Y-92450000D03*
%TD*%
D16*
%TO.N,TX_FU*%
%TO.C,J10*%
X140770000Y-65070000D03*
%TO.N,RX_FU*%
X138230000Y-65070000D03*
D17*
%TO.N,GND*%
X135690000Y-65070000D03*
%TD*%
D19*
%TO.N,+5V*%
%TO.C,J7*%
X79520000Y-99590000D03*
D18*
%TO.N,GND*%
X76020000Y-99590000D03*
%TD*%
D22*
%TO.N,+5V*%
%TO.C,U6*%
X75035000Y-76185000D03*
%TO.N,GND*%
X75035000Y-78725000D03*
X75035000Y-81265000D03*
%TO.N,+12V*%
X75035000Y-83805000D03*
%TO.N,unconnected-(U6-Pad5)*%
X75035000Y-86345000D03*
%TO.N,unconnected-(U6-Pad6)*%
X75035000Y-88885000D03*
%TO.N,unconnected-(U6-Pad7)*%
X77575000Y-88885000D03*
%TO.N,unconnected-(U6-Pad8)*%
X77575000Y-86345000D03*
%TO.N,+12V*%
X77575000Y-83805000D03*
%TO.N,GND*%
X77575000Y-81265000D03*
X77575000Y-78725000D03*
%TO.N,+5V*%
X77575000Y-76185000D03*
D23*
%TO.N,N/C*%
X75965000Y-71935000D03*
X75965000Y-93135000D03*
X96965000Y-93135000D03*
%TD*%
D18*
%TO.N,GND*%
%TO.C,J6*%
X97850000Y-65930000D03*
D19*
%TO.N,+12V*%
X94350000Y-65930000D03*
%TD*%
D24*
%TO.N,RESET*%
X110930000Y-97800000D03*
X104200000Y-88360000D03*
%TO.N,GND*%
X105800000Y-88240000D03*
%TO.N,RESET*%
X111470000Y-73410000D03*
%TO.N,RX_FU*%
X114720000Y-81650000D03*
%TO.N,TX_FU*%
X113380000Y-82680000D03*
%TO.N,TX_HP*%
X123780000Y-84130000D03*
%TO.N,RX_HP*%
X125040000Y-89730000D03*
%TO.N,TX_RS*%
X112040000Y-82090000D03*
%TO.N,CL_D*%
X111630000Y-84080000D03*
%TO.N,D-*%
X104480000Y-99980000D03*
%TO.N,D+*%
X103990000Y-98090000D03*
X115400000Y-103600000D03*
%TO.N,D-*%
X113805000Y-103555000D03*
%TO.N,RXD0*%
X104100000Y-94780000D03*
%TO.N,TXD0*%
X104000000Y-96220000D03*
%TO.N,+5V*%
X118995000Y-104205000D03*
%TO.N,RX_RS*%
X111490000Y-79760000D03*
%TO.N,ST_LED_D*%
X124270000Y-81410000D03*
X122020000Y-100770000D03*
%TO.N,TXD0*%
X128480000Y-73690000D03*
%TO.N,RXD0*%
X128560000Y-75310000D03*
%TD*%
D25*
%TO.N,RESET*%
X104200000Y-88360000D02*
X104200000Y-80680000D01*
X104200000Y-80680000D02*
X111470000Y-73410000D01*
%TO.N,TX_RS*%
X132380000Y-75070000D02*
X129850000Y-72540000D01*
X140770000Y-73340000D02*
X139040000Y-75070000D01*
X129850000Y-72540000D02*
X129850000Y-72390000D01*
X129850000Y-72390000D02*
X121740000Y-72390000D01*
X139040000Y-75070000D02*
X132380000Y-75070000D01*
X121740000Y-72390000D02*
X112040000Y-82090000D01*
%TO.N,RX_RS*%
X133649511Y-74489511D02*
X130720000Y-71560000D01*
X137080489Y-74489511D02*
X133649511Y-74489511D01*
X138230000Y-73340000D02*
X137080489Y-74489511D01*
X130720000Y-71560000D02*
X119690000Y-71560000D01*
X119690000Y-71560000D02*
X111490000Y-79760000D01*
%TO.N,RX_HP*%
X125040000Y-89730000D02*
X125040000Y-84430000D01*
X125040000Y-84430000D02*
X132620000Y-76850000D01*
X132620000Y-76850000D02*
X142950000Y-76850000D01*
X142950000Y-76850000D02*
X144530000Y-75270000D01*
X144530000Y-75270000D02*
X144530000Y-68560000D01*
X144530000Y-68560000D02*
X143860000Y-67890000D01*
X143860000Y-67890000D02*
X139590000Y-67890000D01*
X139590000Y-67890000D02*
X138230000Y-69250000D01*
X138230000Y-69250000D02*
X138230000Y-70800000D01*
%TO.N,TX_HP*%
X123780000Y-84130000D02*
X124270000Y-84130000D01*
X124270000Y-84130000D02*
X132260000Y-76140000D01*
X132260000Y-76140000D02*
X142120000Y-76140000D01*
X142120000Y-76140000D02*
X143820000Y-74440000D01*
X143820000Y-74440000D02*
X143820000Y-69480000D01*
X142710000Y-68370000D02*
X141680000Y-68370000D01*
X143820000Y-69480000D02*
X142710000Y-68370000D01*
X141680000Y-68370000D02*
X140770000Y-69280000D01*
X140770000Y-69280000D02*
X140770000Y-70800000D01*
D26*
%TO.N,TXD0*%
X104200000Y-92330000D02*
X106370000Y-92330000D01*
X106370000Y-92330000D02*
X125010000Y-73690000D01*
X104000000Y-96220000D02*
X102850000Y-95070000D01*
X102850000Y-95070000D02*
X102850000Y-93680000D01*
X102850000Y-93680000D02*
X104200000Y-92330000D01*
X125010000Y-73690000D02*
X128480000Y-73690000D01*
%TO.N,RXD0*%
X128560000Y-75310000D02*
X124490000Y-75310000D01*
X124490000Y-75310000D02*
X105020000Y-94780000D01*
X105020000Y-94780000D02*
X104100000Y-94780000D01*
%TD*%
M02*
