%TF.GenerationSoftware,KiCad,Pcbnew,(6.0.0-0)*%
%TF.CreationDate,2022-12-05T14:38:03-05:00*%
%TF.ProjectId,Dome_Plate_Controller_V1,446f6d65-5f50-46c6-9174-655f436f6e74,rev?*%
%TF.SameCoordinates,Original*%
%TF.FileFunction,Soldermask,Top*%
%TF.FilePolarity,Negative*%
%FSLAX46Y46*%
G04 Gerber Fmt 4.6, Leading zero omitted, Abs format (unit mm)*
G04 Created by KiCad (PCBNEW (6.0.0-0)) date 2022-12-05 14:38:03*
%MOMM*%
%LPD*%
G01*
G04 APERTURE LIST*
G04 Aperture macros list*
%AMRoundRect*
0 Rectangle with rounded corners*
0 $1 Rounding radius*
0 $2 $3 $4 $5 $6 $7 $8 $9 X,Y pos of 4 corners*
0 Add a 4 corners polygon primitive as box body*
4,1,4,$2,$3,$4,$5,$6,$7,$8,$9,$2,$3,0*
0 Add four circle primitives for the rounded corners*
1,1,$1+$1,$2,$3*
1,1,$1+$1,$4,$5*
1,1,$1+$1,$6,$7*
1,1,$1+$1,$8,$9*
0 Add four rect primitives between the rounded corners*
20,1,$1+$1,$2,$3,$4,$5,0*
20,1,$1+$1,$4,$5,$6,$7,0*
20,1,$1+$1,$6,$7,$8,$9,0*
20,1,$1+$1,$8,$9,$2,$3,0*%
%AMHorizOval*
0 Thick line with rounded ends*
0 $1 width*
0 $2 $3 position (X,Y) of the first rounded end (center of the circle)*
0 $4 $5 position (X,Y) of the second rounded end (center of the circle)*
0 Add line between two ends*
20,1,$1,$2,$3,$4,$5,0*
0 Add two circle primitives to create the rounded ends*
1,1,$1,$2,$3*
1,1,$1,$4,$5*%
%AMRotRect*
0 Rectangle, with rotation*
0 The origin of the aperture is its center*
0 $1 length*
0 $2 width*
0 $3 Rotation angle, in degrees counterclockwise*
0 Add horizontal line*
21,1,$1,$2,0,0,$3*%
G04 Aperture macros list end*
%ADD10C,0.010000*%
%ADD11RoundRect,0.150000X-0.512500X-0.150000X0.512500X-0.150000X0.512500X0.150000X-0.512500X0.150000X0*%
%ADD12RoundRect,0.140000X0.140000X0.170000X-0.140000X0.170000X-0.140000X-0.170000X0.140000X-0.170000X0*%
%ADD13RotRect,1.000000X1.000000X345.000000*%
%ADD14HorizOval,2.200000X0.550000X0.952628X-0.550000X-0.952628X0*%
%ADD15HorizOval,2.000000X0.500000X0.866025X-0.500000X-0.866025X0*%
%ADD16HorizOval,2.000000X-0.866025X0.500000X0.866025X-0.500000X0*%
%ADD17RoundRect,0.200000X0.200000X0.275000X-0.200000X0.275000X-0.200000X-0.275000X0.200000X-0.275000X0*%
%ADD18RoundRect,0.049600X0.260400X-0.605400X0.260400X0.605400X-0.260400X0.605400X-0.260400X-0.605400X0*%
%ADD19RoundRect,0.140000X-0.140000X-0.170000X0.140000X-0.170000X0.140000X0.170000X-0.140000X0.170000X0*%
%ADD20RotRect,2.400000X2.400000X300.000000*%
%ADD21C,2.400000*%
%ADD22C,3.200000*%
%ADD23RoundRect,0.140000X-0.170000X0.140000X-0.170000X-0.140000X0.170000X-0.140000X0.170000X0.140000X0*%
%ADD24RotRect,2.400000X2.400000X195.000000*%
%ADD25C,1.524000*%
%ADD26C,2.300000*%
%ADD27RoundRect,0.100000X-1.054267X-0.220275X0.915348X-0.567571X1.054267X0.220275X-0.915348X0.567571X0*%
%ADD28RoundRect,0.250000X0.845000X-0.620000X0.845000X0.620000X-0.845000X0.620000X-0.845000X-0.620000X0*%
%ADD29O,2.190000X1.740000*%
%ADD30C,4.000000*%
%ADD31R,1.600000X1.600000*%
%ADD32C,1.600000*%
%ADD33RoundRect,0.135000X-0.135000X-0.185000X0.135000X-0.185000X0.135000X0.185000X-0.135000X0.185000X0*%
%ADD34R,1.219200X0.914400*%
%ADD35RoundRect,0.150000X0.587500X0.150000X-0.587500X0.150000X-0.587500X-0.150000X0.587500X-0.150000X0*%
%ADD36RotRect,2.400000X2.400000X200.000000*%
%ADD37R,2.000000X0.900000*%
%ADD38R,0.900000X2.000000*%
%ADD39R,5.000000X5.000000*%
%ADD40RotRect,0.400000X1.350000X168.000000*%
%ADD41RotRect,1.500000X1.550000X168.000000*%
%ADD42RotRect,1.200000X1.550000X168.000000*%
%ADD43HorizOval,0.950000X-0.146722X0.031187X0.146722X-0.031187X0*%
%ADD44HorizOval,0.890000X0.068611X0.322789X-0.068611X-0.322789X0*%
%ADD45RoundRect,0.200000X0.275000X-0.200000X0.275000X0.200000X-0.275000X0.200000X-0.275000X-0.200000X0*%
%ADD46RotRect,2.400000X2.400000X205.000000*%
G04 APERTURE END LIST*
D10*
%TO.C,U5*%
X112645000Y-94615800D02*
X113270000Y-94615800D01*
X113270000Y-94615800D02*
X113270000Y-95015800D01*
X113270000Y-95015800D02*
X112645000Y-95015800D01*
X112645000Y-95015800D02*
X112645000Y-94615800D01*
G36*
X113270000Y-95015800D02*
G01*
X112645000Y-95015800D01*
X112645000Y-94615800D01*
X113270000Y-94615800D01*
X113270000Y-95015800D01*
G37*
X113270000Y-95015800D02*
X112645000Y-95015800D01*
X112645000Y-94615800D01*
X113270000Y-94615800D01*
X113270000Y-95015800D01*
X112645000Y-93315800D02*
X113270000Y-93315800D01*
X113270000Y-93315800D02*
X113270000Y-93715800D01*
X113270000Y-93715800D02*
X112645000Y-93715800D01*
X112645000Y-93715800D02*
X112645000Y-93315800D01*
G36*
X113270000Y-93715800D02*
G01*
X112645000Y-93715800D01*
X112645000Y-93315800D01*
X113270000Y-93315800D01*
X113270000Y-93715800D01*
G37*
X113270000Y-93715800D02*
X112645000Y-93715800D01*
X112645000Y-93315800D01*
X113270000Y-93315800D01*
X113270000Y-93715800D01*
X110820000Y-94615800D02*
X111445000Y-94615800D01*
X111445000Y-94615800D02*
X111445000Y-95015800D01*
X111445000Y-95015800D02*
X110820000Y-95015800D01*
X110820000Y-95015800D02*
X110820000Y-94615800D01*
G36*
X111445000Y-95015800D02*
G01*
X110820000Y-95015800D01*
X110820000Y-94615800D01*
X111445000Y-94615800D01*
X111445000Y-95015800D01*
G37*
X111445000Y-95015800D02*
X110820000Y-95015800D01*
X110820000Y-94615800D01*
X111445000Y-94615800D01*
X111445000Y-95015800D01*
X112645000Y-93965800D02*
X113270000Y-93965800D01*
X113270000Y-93965800D02*
X113270000Y-94365800D01*
X113270000Y-94365800D02*
X112645000Y-94365800D01*
X112645000Y-94365800D02*
X112645000Y-93965800D01*
G36*
X113270000Y-94365800D02*
G01*
X112645000Y-94365800D01*
X112645000Y-93965800D01*
X113270000Y-93965800D01*
X113270000Y-94365800D01*
G37*
X113270000Y-94365800D02*
X112645000Y-94365800D01*
X112645000Y-93965800D01*
X113270000Y-93965800D01*
X113270000Y-94365800D01*
X110820000Y-93965800D02*
X111445000Y-93965800D01*
X111445000Y-93965800D02*
X111445000Y-94365800D01*
X111445000Y-94365800D02*
X110820000Y-94365800D01*
X110820000Y-94365800D02*
X110820000Y-93965800D01*
G36*
X111445000Y-94365800D02*
G01*
X110820000Y-94365800D01*
X110820000Y-93965800D01*
X111445000Y-93965800D01*
X111445000Y-94365800D01*
G37*
X111445000Y-94365800D02*
X110820000Y-94365800D01*
X110820000Y-93965800D01*
X111445000Y-93965800D01*
X111445000Y-94365800D01*
X110820000Y-93315800D02*
X111445000Y-93315800D01*
X111445000Y-93315800D02*
X111445000Y-93715800D01*
X111445000Y-93715800D02*
X110820000Y-93715800D01*
X110820000Y-93715800D02*
X110820000Y-93315800D01*
G36*
X111445000Y-93715800D02*
G01*
X110820000Y-93715800D01*
X110820000Y-93315800D01*
X111445000Y-93315800D01*
X111445000Y-93715800D01*
G37*
X111445000Y-93715800D02*
X110820000Y-93715800D01*
X110820000Y-93315800D01*
X111445000Y-93315800D01*
X111445000Y-93715800D01*
%TD*%
D11*
%TO.C,U3*%
X84902500Y-101360000D03*
X84902500Y-102310000D03*
X84902500Y-103260000D03*
X87177500Y-103260000D03*
X87177500Y-101360000D03*
%TD*%
D12*
%TO.C,C3*%
X88920000Y-84590000D03*
X87960000Y-84590000D03*
%TD*%
D13*
%TO.C,L1*%
X114402182Y-85815553D03*
X114738647Y-84559850D03*
X112777818Y-84034447D03*
X112441353Y-85290150D03*
%TD*%
D14*
%TO.C,J14*%
X128553848Y-122190000D03*
D15*
X133750000Y-125190000D03*
D16*
X133501924Y-119619681D03*
%TD*%
D17*
%TO.C,R1*%
X125685000Y-94440000D03*
X124035000Y-94440000D03*
%TD*%
D18*
%TO.C,U4*%
X113730000Y-102090000D03*
X115000000Y-102090000D03*
X116270000Y-102090000D03*
X117540000Y-102090000D03*
X118810000Y-102090000D03*
X120080000Y-102090000D03*
X121350000Y-102090000D03*
X122620000Y-102090000D03*
X122620000Y-96590000D03*
X121350000Y-96590000D03*
X120080000Y-96590000D03*
X118810000Y-96590000D03*
X117540000Y-96590000D03*
X116270000Y-96590000D03*
X115000000Y-96590000D03*
X113730000Y-96590000D03*
%TD*%
D19*
%TO.C,C5*%
X78260000Y-99240000D03*
X79220000Y-99240000D03*
%TD*%
D20*
%TO.C,J5*%
X55870000Y-105900000D03*
D21*
X57620000Y-108931089D03*
%TD*%
D22*
%TO.C,REF\u002A\u002A*%
X45920000Y-101110000D03*
%TD*%
%TO.C,REF\u002A\u002A*%
X132660000Y-137990000D03*
%TD*%
D20*
%TO.C,J6*%
X60600000Y-113710000D03*
D21*
X62350000Y-116741089D03*
%TD*%
D23*
%TO.C,C7*%
X89780000Y-102030000D03*
X89780000Y-102990000D03*
%TD*%
D24*
%TO.C,J9*%
X82880000Y-92430000D03*
D21*
X79499260Y-93335867D03*
%TD*%
D25*
%TO.C,U6*%
X145418670Y-116899261D03*
X146688670Y-114699557D03*
X147958670Y-112499852D03*
X149228670Y-110300148D03*
X150498670Y-108100443D03*
X151768670Y-105900739D03*
X149568966Y-104630739D03*
X148298966Y-106830443D03*
X147028966Y-109030148D03*
X145758966Y-111229852D03*
X144488966Y-113429557D03*
X143218966Y-115629261D03*
D26*
X142488267Y-120114869D03*
X153088267Y-101755131D03*
X134901733Y-91255131D03*
%TD*%
D19*
%TO.C,C4*%
X111590000Y-88850000D03*
X112550000Y-88850000D03*
%TD*%
D27*
%TO.C,SW1*%
X114864250Y-91027772D03*
X122545750Y-92382228D03*
%TD*%
D12*
%TO.C,C6*%
X117030000Y-103880000D03*
X116070000Y-103880000D03*
%TD*%
D28*
%TO.C,J4*%
X81730000Y-124470000D03*
D29*
X81730000Y-121930000D03*
X81730000Y-119390000D03*
%TD*%
D22*
%TO.C,REF\u002A\u002A*%
X67660000Y-138510000D03*
%TD*%
D30*
%TO.C,J13*%
X76320000Y-149049338D03*
X123420000Y-149049338D03*
D31*
X83250000Y-150469338D03*
D32*
X86020000Y-150469338D03*
X88790000Y-150469338D03*
X91560000Y-150469338D03*
X94330000Y-150469338D03*
X97100000Y-150469338D03*
X99870000Y-150469338D03*
X102640000Y-150469338D03*
X105410000Y-150469338D03*
X108180000Y-150469338D03*
X110950000Y-150469338D03*
X113720000Y-150469338D03*
X116490000Y-150469338D03*
X84635000Y-147629338D03*
X87405000Y-147629338D03*
X90175000Y-147629338D03*
X92945000Y-147629338D03*
X95715000Y-147629338D03*
X98485000Y-147629338D03*
X101255000Y-147629338D03*
X104025000Y-147629338D03*
X106795000Y-147629338D03*
X109565000Y-147629338D03*
X112335000Y-147629338D03*
X115105000Y-147629338D03*
%TD*%
D33*
%TO.C,R4*%
X111790000Y-87110000D03*
X112810000Y-87110000D03*
%TD*%
D34*
%TO.C,CR1*%
X79328500Y-105086800D03*
X79328500Y-101810200D03*
%TD*%
D35*
%TO.C,U2*%
X76267500Y-102630000D03*
X76267500Y-100730000D03*
X74392500Y-101680000D03*
%TD*%
D36*
%TO.C,J7*%
X74020000Y-95220000D03*
D21*
X70731076Y-96417071D03*
%TD*%
D19*
%TO.C,C1*%
X111710000Y-92090000D03*
X112670000Y-92090000D03*
%TD*%
D37*
%TO.C,U1*%
X91630000Y-83265000D03*
X91630000Y-84535000D03*
X91630000Y-85805000D03*
X91630000Y-87075000D03*
X91630000Y-88345000D03*
X91630000Y-89615000D03*
X91630000Y-90885000D03*
X91630000Y-92155000D03*
X91630000Y-93425000D03*
X91630000Y-94695000D03*
X91630000Y-95965000D03*
X91630000Y-97235000D03*
X91630000Y-98505000D03*
X91630000Y-99775000D03*
D38*
X94415000Y-100775000D03*
X95685000Y-100775000D03*
X96955000Y-100775000D03*
X98225000Y-100775000D03*
X99495000Y-100775000D03*
X100765000Y-100775000D03*
X102035000Y-100775000D03*
X103305000Y-100775000D03*
X104575000Y-100775000D03*
X105845000Y-100775000D03*
D37*
X108630000Y-99775000D03*
X108630000Y-98505000D03*
X108630000Y-97235000D03*
X108630000Y-95965000D03*
X108630000Y-94695000D03*
X108630000Y-93425000D03*
X108630000Y-92155000D03*
X108630000Y-90885000D03*
X108630000Y-89615000D03*
X108630000Y-88345000D03*
X108630000Y-87075000D03*
X108630000Y-85805000D03*
X108630000Y-84535000D03*
X108630000Y-83265000D03*
D39*
X99130000Y-90765000D03*
%TD*%
D28*
%TO.C,J12*%
X90565000Y-124470000D03*
D29*
X90565000Y-121930000D03*
X90565000Y-119390000D03*
%TD*%
D30*
%TO.C,J2*%
X76320000Y-134199338D03*
X123420000Y-134199338D03*
D31*
X83250000Y-132779338D03*
D32*
X86020000Y-132779338D03*
X88790000Y-132779338D03*
X91560000Y-132779338D03*
X94330000Y-132779338D03*
X97100000Y-132779338D03*
X99870000Y-132779338D03*
X102640000Y-132779338D03*
X105410000Y-132779338D03*
X108180000Y-132779338D03*
X110950000Y-132779338D03*
X113720000Y-132779338D03*
X116490000Y-132779338D03*
X84635000Y-135619338D03*
X87405000Y-135619338D03*
X90175000Y-135619338D03*
X92945000Y-135619338D03*
X95715000Y-135619338D03*
X98485000Y-135619338D03*
X101255000Y-135619338D03*
X104025000Y-135619338D03*
X106795000Y-135619338D03*
X109565000Y-135619338D03*
X112335000Y-135619338D03*
X115105000Y-135619338D03*
%TD*%
D12*
%TO.C,C2*%
X88820000Y-85930000D03*
X87860000Y-85930000D03*
%TD*%
D28*
%TO.C,J15*%
X99400000Y-124470000D03*
D29*
X99400000Y-121930000D03*
X99400000Y-119390000D03*
%TD*%
D20*
%TO.C,J3*%
X65180000Y-121750000D03*
D21*
X66930000Y-124781089D03*
%TD*%
D22*
%TO.C,REF\u002A\u002A*%
X127970000Y-89420000D03*
%TD*%
D40*
%TO.C,J1*%
X121060516Y-87939692D03*
X120424720Y-87804549D03*
X119788924Y-87669407D03*
X119153128Y-87534264D03*
X118517332Y-87399121D03*
D41*
X121328433Y-85236320D03*
X119372138Y-84820496D03*
D42*
X123186913Y-85631352D03*
X117513657Y-84425464D03*
D43*
X117343555Y-87149627D03*
D44*
X116926769Y-84300717D03*
D43*
X122234293Y-88189186D03*
D44*
X123773802Y-85756099D03*
%TD*%
D17*
%TO.C,R2*%
X76255000Y-104460000D03*
X74605000Y-104460000D03*
%TD*%
D45*
%TO.C,R3*%
X82040000Y-103195000D03*
X82040000Y-101545000D03*
%TD*%
D46*
%TO.C,J8*%
X65330000Y-98420000D03*
D21*
X62157923Y-99899164D03*
%TD*%
D28*
%TO.C,J10*%
X117070000Y-124470000D03*
D29*
X117070000Y-121930000D03*
X117070000Y-119390000D03*
%TD*%
D28*
%TO.C,J11*%
X108235000Y-124470000D03*
D29*
X108235000Y-121930000D03*
X108235000Y-119390000D03*
%TD*%
M02*
