%TF.GenerationSoftware,KiCad,Pcbnew,(6.0.0-0)*%
%TF.CreationDate,2022-12-05T14:38:04-05:00*%
%TF.ProjectId,Dome_Plate_Controller_V1,446f6d65-5f50-46c6-9174-655f436f6e74,rev?*%
%TF.SameCoordinates,Original*%
%TF.FileFunction,Soldermask,Bot*%
%TF.FilePolarity,Negative*%
%FSLAX46Y46*%
G04 Gerber Fmt 4.6, Leading zero omitted, Abs format (unit mm)*
G04 Created by KiCad (PCBNEW (6.0.0-0)) date 2022-12-05 14:38:04*
%MOMM*%
%LPD*%
G01*
G04 APERTURE LIST*
G04 Aperture macros list*
%AMRoundRect*
0 Rectangle with rounded corners*
0 $1 Rounding radius*
0 $2 $3 $4 $5 $6 $7 $8 $9 X,Y pos of 4 corners*
0 Add a 4 corners polygon primitive as box body*
4,1,4,$2,$3,$4,$5,$6,$7,$8,$9,$2,$3,0*
0 Add four circle primitives for the rounded corners*
1,1,$1+$1,$2,$3*
1,1,$1+$1,$4,$5*
1,1,$1+$1,$6,$7*
1,1,$1+$1,$8,$9*
0 Add four rect primitives between the rounded corners*
20,1,$1+$1,$2,$3,$4,$5,0*
20,1,$1+$1,$4,$5,$6,$7,0*
20,1,$1+$1,$6,$7,$8,$9,0*
20,1,$1+$1,$8,$9,$2,$3,0*%
%AMHorizOval*
0 Thick line with rounded ends*
0 $1 width*
0 $2 $3 position (X,Y) of the first rounded end (center of the circle)*
0 $4 $5 position (X,Y) of the second rounded end (center of the circle)*
0 Add line between two ends*
20,1,$1,$2,$3,$4,$5,0*
0 Add two circle primitives to create the rounded ends*
1,1,$1,$2,$3*
1,1,$1,$4,$5*%
%AMRotRect*
0 Rectangle, with rotation*
0 The origin of the aperture is its center*
0 $1 length*
0 $2 width*
0 $3 Rotation angle, in degrees counterclockwise*
0 Add horizontal line*
21,1,$1,$2,0,0,$3*%
G04 Aperture macros list end*
%ADD10HorizOval,2.200000X0.550000X0.952628X-0.550000X-0.952628X0*%
%ADD11HorizOval,2.000000X0.500000X0.866025X-0.500000X-0.866025X0*%
%ADD12HorizOval,2.000000X-0.866025X0.500000X0.866025X-0.500000X0*%
%ADD13RotRect,2.400000X2.400000X300.000000*%
%ADD14C,2.400000*%
%ADD15C,3.200000*%
%ADD16RotRect,2.400000X2.400000X195.000000*%
%ADD17C,1.524000*%
%ADD18C,2.300000*%
%ADD19RoundRect,0.250000X0.845000X-0.620000X0.845000X0.620000X-0.845000X0.620000X-0.845000X-0.620000X0*%
%ADD20O,2.190000X1.740000*%
%ADD21C,4.000000*%
%ADD22R,1.600000X1.600000*%
%ADD23C,1.600000*%
%ADD24RotRect,2.400000X2.400000X200.000000*%
%ADD25HorizOval,0.950000X-0.146722X0.031187X0.146722X-0.031187X0*%
%ADD26HorizOval,0.890000X0.068611X0.322789X-0.068611X-0.322789X0*%
%ADD27RotRect,2.400000X2.400000X205.000000*%
G04 APERTURE END LIST*
D10*
%TO.C,J14*%
X128553848Y-122190000D03*
D11*
X133750000Y-125190000D03*
D12*
X133501924Y-119619681D03*
%TD*%
D13*
%TO.C,J5*%
X55870000Y-105900000D03*
D14*
X57620000Y-108931089D03*
%TD*%
D15*
%TO.C,REF\u002A\u002A*%
X45920000Y-101110000D03*
%TD*%
%TO.C,REF\u002A\u002A*%
X132660000Y-137990000D03*
%TD*%
D13*
%TO.C,J6*%
X60600000Y-113710000D03*
D14*
X62350000Y-116741089D03*
%TD*%
D16*
%TO.C,J9*%
X82880000Y-92430000D03*
D14*
X79499260Y-93335867D03*
%TD*%
D17*
%TO.C,U6*%
X145418670Y-116899261D03*
X146688670Y-114699557D03*
X147958670Y-112499852D03*
X149228670Y-110300148D03*
X150498670Y-108100443D03*
X151768670Y-105900739D03*
X149568966Y-104630739D03*
X148298966Y-106830443D03*
X147028966Y-109030148D03*
X145758966Y-111229852D03*
X144488966Y-113429557D03*
X143218966Y-115629261D03*
D18*
X142488267Y-120114869D03*
X153088267Y-101755131D03*
X134901733Y-91255131D03*
%TD*%
D19*
%TO.C,J4*%
X81730000Y-124470000D03*
D20*
X81730000Y-121930000D03*
X81730000Y-119390000D03*
%TD*%
D15*
%TO.C,REF\u002A\u002A*%
X67660000Y-138510000D03*
%TD*%
D21*
%TO.C,J13*%
X76320000Y-149049338D03*
X123420000Y-149049338D03*
D22*
X83250000Y-150469338D03*
D23*
X86020000Y-150469338D03*
X88790000Y-150469338D03*
X91560000Y-150469338D03*
X94330000Y-150469338D03*
X97100000Y-150469338D03*
X99870000Y-150469338D03*
X102640000Y-150469338D03*
X105410000Y-150469338D03*
X108180000Y-150469338D03*
X110950000Y-150469338D03*
X113720000Y-150469338D03*
X116490000Y-150469338D03*
X84635000Y-147629338D03*
X87405000Y-147629338D03*
X90175000Y-147629338D03*
X92945000Y-147629338D03*
X95715000Y-147629338D03*
X98485000Y-147629338D03*
X101255000Y-147629338D03*
X104025000Y-147629338D03*
X106795000Y-147629338D03*
X109565000Y-147629338D03*
X112335000Y-147629338D03*
X115105000Y-147629338D03*
%TD*%
D24*
%TO.C,J7*%
X74020000Y-95220000D03*
D14*
X70731076Y-96417071D03*
%TD*%
D19*
%TO.C,J12*%
X90565000Y-124470000D03*
D20*
X90565000Y-121930000D03*
X90565000Y-119390000D03*
%TD*%
D21*
%TO.C,J2*%
X76320000Y-134199338D03*
X123420000Y-134199338D03*
D22*
X83250000Y-132779338D03*
D23*
X86020000Y-132779338D03*
X88790000Y-132779338D03*
X91560000Y-132779338D03*
X94330000Y-132779338D03*
X97100000Y-132779338D03*
X99870000Y-132779338D03*
X102640000Y-132779338D03*
X105410000Y-132779338D03*
X108180000Y-132779338D03*
X110950000Y-132779338D03*
X113720000Y-132779338D03*
X116490000Y-132779338D03*
X84635000Y-135619338D03*
X87405000Y-135619338D03*
X90175000Y-135619338D03*
X92945000Y-135619338D03*
X95715000Y-135619338D03*
X98485000Y-135619338D03*
X101255000Y-135619338D03*
X104025000Y-135619338D03*
X106795000Y-135619338D03*
X109565000Y-135619338D03*
X112335000Y-135619338D03*
X115105000Y-135619338D03*
%TD*%
D19*
%TO.C,J15*%
X99400000Y-124470000D03*
D20*
X99400000Y-121930000D03*
X99400000Y-119390000D03*
%TD*%
D13*
%TO.C,J3*%
X65180000Y-121750000D03*
D14*
X66930000Y-124781089D03*
%TD*%
D15*
%TO.C,REF\u002A\u002A*%
X127970000Y-89420000D03*
%TD*%
D25*
%TO.C,J1*%
X117343555Y-87149627D03*
D26*
X116926769Y-84300717D03*
D25*
X122234293Y-88189186D03*
D26*
X123773802Y-85756099D03*
%TD*%
D27*
%TO.C,J8*%
X65330000Y-98420000D03*
D14*
X62157923Y-99899164D03*
%TD*%
D19*
%TO.C,J10*%
X117070000Y-124470000D03*
D20*
X117070000Y-121930000D03*
X117070000Y-119390000D03*
%TD*%
D19*
%TO.C,J11*%
X108235000Y-124470000D03*
D20*
X108235000Y-121930000D03*
X108235000Y-119390000D03*
%TD*%
M02*
