M48
; DRILL file {KiCad (6.0.0-0)} date Monday, December 05, 2022 at 02:38:09 PM
; FORMAT={-:-/ absolute / inch / decimal}
; #@! TF.CreationDate,2022-12-05T14:38:09-05:00
; #@! TF.GenerationSoftware,Kicad,Pcbnew,(6.0.0-0)
; #@! TF.FileFunction,Plated,1,4,PTH
FMAT,2
INCH
; #@! TA.AperFunction,Plated,PTH,ViaDrill
T1C0.0157
; #@! TA.AperFunction,Plated,PTH,ComponentDrill
T2C0.0197
; #@! TA.AperFunction,Plated,PTH,ComponentDrill
T3C0.0217
; #@! TA.AperFunction,Plated,PTH,ComponentDrill
T4C0.0300
; #@! TA.AperFunction,Plated,PTH,ComponentDrill
T5C0.0394
; #@! TA.AperFunction,Plated,PTH,ComponentDrill
T6C0.0469
; #@! TA.AperFunction,Plated,PTH,ComponentDrill
T7C0.0472
; #@! TA.AperFunction,Plated,PTH,ComponentDrill
T8C0.0866
; #@! TA.AperFunction,Plated,PTH,ComponentDrill
T9C0.1260
%
G90
G05
T1
X3.4325Y-3.8116
X3.5024Y-3.8724
X3.5157Y-3.9276
X3.7067Y-3.45
X3.7071Y-3.6626
X3.7256Y-3.8843
X3.7346Y-3.7339
X3.7535Y-3.3579
X3.763Y-4.0618
X3.9291Y-3.7213
X4.102Y-3.4579
X4.1177Y-4.0701
X4.122Y-3.3567
X4.1602Y-3.8661
X4.1646Y-3.7197
X4.1787Y-3.6535
X4.198Y-3.4402
X4.2118Y-3.5106
X4.3591Y-3.3882
X4.3866Y-3.5858
X4.4043Y-3.5453
X4.4083Y-3.7677
X4.4138Y-4.011
X4.4402Y-3.9429
X4.4748Y-3.9051
X4.6555Y-3.5232
X4.6789Y-4.0848
X4.7469Y-4.0803
T4
X5.6385Y-4.5523
X5.6885Y-4.4657
X5.7251Y-4.6023
X5.7385Y-4.3791
X5.7751Y-4.5157
X5.7885Y-4.2925
X5.8251Y-4.4291
X5.8385Y-4.2059
X5.8751Y-4.3425
X5.8885Y-4.1193
X5.9251Y-4.2559
X5.9751Y-4.1693
T5
X3.2776Y-5.2275
X3.2776Y-5.924
X3.3321Y-5.3393
X3.3321Y-5.8122
X3.3866Y-5.2275
X3.3866Y-5.924
X3.4411Y-5.3393
X3.4411Y-5.8122
X3.4957Y-5.2275
X3.4957Y-5.924
X3.5502Y-5.3393
X3.5502Y-5.8122
X3.6047Y-5.2275
X3.6047Y-5.924
X3.6593Y-5.3393
X3.6593Y-5.8122
X3.7138Y-5.2275
X3.7138Y-5.924
X3.7683Y-5.3393
X3.7683Y-5.8122
X3.8228Y-5.2275
X3.8228Y-5.924
X3.8774Y-5.3393
X3.8774Y-5.8122
X3.9319Y-5.2275
X3.9319Y-5.924
X3.9864Y-5.3393
X3.9864Y-5.8122
X4.0409Y-5.2275
X4.0409Y-5.924
X4.0955Y-5.3393
X4.0955Y-5.8122
X4.15Y-5.2275
X4.15Y-5.924
X4.2045Y-5.3393
X4.2045Y-5.8122
X4.2591Y-5.2275
X4.2591Y-5.924
X4.3136Y-5.3393
X4.3136Y-5.8122
X4.3681Y-5.2275
X4.3681Y-5.924
X4.4226Y-5.3393
X4.4226Y-5.8122
X4.4772Y-5.2275
X4.4772Y-5.924
X4.5317Y-5.3393
X4.5317Y-5.8122
X4.5862Y-5.2275
X4.5862Y-5.924
T6
X3.2177Y-4.7004
X3.2177Y-4.8004
X3.2177Y-4.9004
X3.5656Y-4.7004
X3.5656Y-4.8004
X3.5656Y-4.9004
X3.9134Y-4.7004
X3.9134Y-4.8004
X3.9134Y-4.9004
X4.2612Y-4.7004
X4.2612Y-4.8004
X4.2612Y-4.9004
X4.6091Y-4.7004
X4.6091Y-4.8004
X4.6091Y-4.9004
T7
X2.1996Y-4.1693
X2.2685Y-4.2886
X2.3858Y-4.4768
X2.4472Y-3.933
X2.4547Y-4.5961
X2.5661Y-4.7933
X2.572Y-3.8748
X2.635Y-4.9126
X2.7847Y-3.7959
X2.9142Y-3.7488
X3.1299Y-3.6746
X3.263Y-3.639
T8
X5.3111Y-3.5927
X5.6098Y-4.7289
X6.0271Y-4.0061
T9
X3.0047Y-5.2834
X3.0047Y-5.8681
X4.8591Y-5.2834
X4.8591Y-5.8681
T2
G00X4.6008Y-3.3314
M15
G01X4.6061Y-3.3064
M16
G05
G00X4.8703Y-3.3887
M15
G01X4.8756Y-3.3637
M16
G05
T3
G00X4.6256Y-3.4323
M15
G01X4.614Y-3.4299
M16
G05
G00X4.8182Y-3.4732
M15
G01X4.8066Y-3.4708
M16
G05
T5
G00X5.0366Y-4.8532
M15
G01X5.0858Y-4.768
M16
G05
G00X5.2901Y-4.7291
M15
G01X5.2219Y-4.6898
M16
G05
G00X5.2461Y-4.9628
M15
G01X5.2854Y-4.8946
M16
G05
T0
M30
