%TF.GenerationSoftware,KiCad,Pcbnew,9.0.2*%
%TF.CreationDate,2026-06-27T14:48:53-04:00*%
%TF.ProjectId,Sabe-FullSized,53616265-2d46-4756-9c6c-53697a65642e,rev?*%
%TF.SameCoordinates,Original*%
%TF.FileFunction,Copper,L2,Inr*%
%TF.FilePolarity,Positive*%
%FSLAX46Y46*%
G04 Gerber Fmt 4.6, Leading zero omitted, Abs format (unit mm)*
G04 Created by KiCad (PCBNEW 9.0.2) date 2026-06-27 14:48:53*
%MOMM*%
%LPD*%
G01*
G04 APERTURE LIST*
G04 Aperture macros list*
%AMRoundRect*
0 Rectangle with rounded corners*
0 $1 Rounding radius*
0 $2 $3 $4 $5 $6 $7 $8 $9 X,Y pos of 4 corners*
0 Add a 4 corners polygon primitive as box body*
4,1,4,$2,$3,$4,$5,$6,$7,$8,$9,$2,$3,0*
0 Add four circle primitives for the rounded corners*
1,1,$1+$1,$2,$3*
1,1,$1+$1,$4,$5*
1,1,$1+$1,$6,$7*
1,1,$1+$1,$8,$9*
0 Add four rect primitives between the rounded corners*
20,1,$1+$1,$2,$3,$4,$5,0*
20,1,$1+$1,$4,$5,$6,$7,0*
20,1,$1+$1,$6,$7,$8,$9,0*
20,1,$1+$1,$8,$9,$2,$3,0*%
G04 Aperture macros list end*
%TA.AperFunction,ComponentPad*%
%ADD10R,1.530000X1.530000*%
%TD*%
%TA.AperFunction,ComponentPad*%
%ADD11C,1.530000*%
%TD*%
%TA.AperFunction,ComponentPad*%
%ADD12C,1.600000*%
%TD*%
%TA.AperFunction,ComponentPad*%
%ADD13R,1.700000X1.700000*%
%TD*%
%TA.AperFunction,ComponentPad*%
%ADD14C,1.700000*%
%TD*%
%TA.AperFunction,ComponentPad*%
%ADD15RoundRect,0.250000X-0.550000X-0.550000X0.550000X-0.550000X0.550000X0.550000X-0.550000X0.550000X0*%
%TD*%
%TA.AperFunction,ComponentPad*%
%ADD16R,1.905000X2.000000*%
%TD*%
%TA.AperFunction,ComponentPad*%
%ADD17O,1.905000X2.000000*%
%TD*%
%TA.AperFunction,ComponentPad*%
%ADD18RoundRect,0.250000X0.550000X-0.550000X0.550000X0.550000X-0.550000X0.550000X-0.550000X-0.550000X0*%
%TD*%
%TA.AperFunction,ComponentPad*%
%ADD19RoundRect,0.250000X0.550000X0.550000X-0.550000X0.550000X-0.550000X-0.550000X0.550000X-0.550000X0*%
%TD*%
%TA.AperFunction,ComponentPad*%
%ADD20RoundRect,0.250000X-1.050000X-1.050000X1.050000X-1.050000X1.050000X1.050000X-1.050000X1.050000X0*%
%TD*%
%TA.AperFunction,ComponentPad*%
%ADD21C,2.600000*%
%TD*%
%TA.AperFunction,ComponentPad*%
%ADD22C,1.500000*%
%TD*%
%TA.AperFunction,ComponentPad*%
%ADD23R,1.358000X1.358000*%
%TD*%
%TA.AperFunction,ComponentPad*%
%ADD24C,1.358000*%
%TD*%
%TA.AperFunction,Conductor*%
%ADD25C,0.250000*%
%TD*%
G04 APERTURE END LIST*
D10*
%TO.N,unconnected-(U5-3V3-PadJ1_1)_1*%
%TO.C,U5*%
X157000000Y-65430000D03*
D11*
%TO.N,unconnected-(U5-3V3-PadJ1_1)*%
X157000000Y-67970000D03*
%TO.N,RST*%
X157000000Y-70510000D03*
%TO.N,xbee_dout*%
X157000000Y-73050000D03*
%TO.N,xbee_din*%
X157000000Y-75590000D03*
%TO.N,xbee_rst*%
X157000000Y-78130000D03*
%TO.N,RBTQ_1*%
X157000000Y-80670000D03*
%TO.N,S3_RX*%
X157000000Y-83210000D03*
%TO.N,S3_TX*%
X157000000Y-85750000D03*
%TO.N,unconnected-(U5-GPIO17-PadJ1_10)*%
X157000000Y-88290000D03*
%TO.N,unconnected-(U5-GPIO18-PadJ1_11)*%
X157000000Y-90830000D03*
%TO.N,RBTQ_2*%
X157000000Y-93370000D03*
%TO.N,unconnected-(U5-GPIO3-PadJ1_13)*%
X157000000Y-95910000D03*
%TO.N,unconnected-(U5-GPIO46-PadJ1_14)*%
X157000000Y-98450000D03*
%TO.N,Dome_PWM*%
X157000000Y-100990000D03*
%TO.N,ESTOP*%
X157000000Y-103530000D03*
%TO.N,S1_RX*%
X157000000Y-106070000D03*
%TO.N,S1_TX*%
X157000000Y-108610000D03*
%TO.N,S2_RX*%
X157000000Y-111150000D03*
%TO.N,S2_TX*%
X157000000Y-113690000D03*
%TO.N,5V*%
X157000000Y-116230000D03*
%TO.N,GND*%
X157000000Y-118770000D03*
X179860000Y-65430000D03*
X182400000Y-65430000D03*
%TO.N,S6TX_C6RX*%
X179860000Y-67970000D03*
X182400000Y-67940000D03*
%TO.N,S6RX_C6TX*%
X179860000Y-70510000D03*
X182400000Y-70510000D03*
%TO.N,Misc1_G1*%
X179860000Y-73050000D03*
X182400000Y-73050000D03*
%TO.N,Misc1_G2*%
X179860000Y-75590000D03*
X182400000Y-75590000D03*
%TO.N,unconnected-(U5-MTMS{slash}GPIO42-PadJ3_6)*%
X179860000Y-78130000D03*
X182400000Y-78130000D03*
%TO.N,unconnected-(U5-MTDI{slash}GPIO41-PadJ3_7)*%
X179860000Y-80670000D03*
X182400000Y-80670000D03*
%TO.N,unconnected-(U5-MTDO{slash}GPIO40-PadJ3_8)*%
X179860000Y-83210000D03*
X182400000Y-83210000D03*
%TO.N,unconnected-(U5-MTCK{slash}GPIO39-PadJ3_9)_1*%
X179860000Y-85750000D03*
X182400000Y-85750000D03*
%TO.N,unconnected-(U5-GPIO38-PadJ3_10)*%
X179860000Y-88290000D03*
X182400000Y-88290000D03*
%TO.N,unconnected-(U5-GPIO37-PadJ3_11)_1*%
X179860000Y-90830000D03*
X182400000Y-90830000D03*
%TO.N,unconnected-(U5-GPIO36-PadJ3_12)*%
X179860000Y-93370000D03*
X182400000Y-93370000D03*
%TO.N,unconnected-(U5-GPIO35-PadJ3_13)*%
X179860000Y-95910000D03*
X182400000Y-95910000D03*
%TO.N,GPIO_0*%
X179860000Y-98450000D03*
X182400000Y-98450000D03*
%TO.N,unconnected-(U5-GPIO45-PadJ3_15)*%
X179860000Y-100990000D03*
X182400000Y-100990000D03*
%TO.N,Misc3_G48*%
X179860000Y-103530000D03*
X182400000Y-103530000D03*
%TO.N,Misc3_G47*%
X179860000Y-106070000D03*
X182400000Y-106070000D03*
%TO.N,unconnected-(U5-GPIO21-PadJ3_18)*%
X179860000Y-108610000D03*
X182400000Y-108610000D03*
%TO.N,unconnected-(U5-USB_D+{slash}GPIO20-PadJ3_19)_1*%
X179860000Y-111150000D03*
X182400000Y-111150000D03*
%TO.N,unconnected-(U5-USB_D-{slash}GPIO19-PadJ3_20)_1*%
X179860000Y-113690000D03*
X182400000Y-113690000D03*
%TO.N,GND*%
X179860000Y-116230000D03*
X182400000Y-116230000D03*
X179860000Y-118770000D03*
X182400000Y-118770000D03*
%TD*%
D12*
%TO.N,5V*%
%TO.C,C7*%
X167010000Y-64490000D03*
%TO.N,GND*%
X162010000Y-64490000D03*
%TD*%
%TO.N,5V*%
%TO.C,C1*%
X163530000Y-93590000D03*
%TO.N,GND*%
X163530000Y-98590000D03*
%TD*%
D13*
%TO.N,GND*%
%TO.C,J3*%
X126930000Y-89125556D03*
D14*
%TO.N,5V*%
X129470000Y-89125556D03*
%TO.N,S2_TX*%
X132010000Y-89125556D03*
%TO.N,S2_RX*%
X134550000Y-89125556D03*
%TD*%
D12*
%TO.N,S6RX_C6TX*%
%TO.C,R3*%
X175810000Y-119140000D03*
%TO.N,Net-(U7-D9)*%
X165650000Y-119140000D03*
%TD*%
D13*
%TO.N,GND*%
%TO.C,J8*%
X139710000Y-91180000D03*
D14*
%TO.N,5V*%
X142250000Y-91180000D03*
%TO.N,Misc2_G17*%
X144790000Y-91180000D03*
%TO.N,Misc2_G18*%
X147330000Y-91180000D03*
%TD*%
D15*
%TO.N,3.3V*%
%TO.C,C2*%
X168570000Y-96270000D03*
D12*
%TO.N,GND*%
X170570000Y-96270000D03*
%TD*%
D16*
%TO.N,5V*%
%TO.C,U1*%
X166774500Y-87400000D03*
D17*
%TO.N,GND*%
X169314500Y-87400000D03*
%TO.N,3.3V*%
X171854500Y-87400000D03*
%TD*%
D13*
%TO.N,GND*%
%TO.C,J11*%
X127910000Y-108123333D03*
D14*
%TO.N,ESTOP*%
X130450000Y-108123333D03*
%TD*%
D13*
%TO.N,GND*%
%TO.C,J2*%
X126930000Y-92821111D03*
D14*
%TO.N,5V*%
X129470000Y-92821111D03*
%TO.N,S1_TX*%
X132010000Y-92821111D03*
%TO.N,S1_RX*%
X134550000Y-92821111D03*
%TD*%
D13*
%TO.N,GND*%
%TO.C,J9*%
X139760000Y-85583333D03*
D14*
%TO.N,5V*%
X142300000Y-85583333D03*
%TO.N,Misc3_G47*%
X144840000Y-85583333D03*
%TO.N,Misc3_G48*%
X147380000Y-85583333D03*
%TD*%
D18*
%TO.N,3.3V*%
%TO.C,C4*%
X124000000Y-57525000D03*
D12*
%TO.N,GND*%
X124000000Y-55525000D03*
%TD*%
D19*
%TO.N,5V*%
%TO.C,C6*%
X173735113Y-64640000D03*
D12*
%TO.N,GND*%
X171735113Y-64640000D03*
%TD*%
D13*
%TO.N,GND*%
%TO.C,J7*%
X139586508Y-96830000D03*
D14*
%TO.N,5V*%
X142126508Y-96830000D03*
%TO.N,Misc1_G1*%
X144666508Y-96830000D03*
%TO.N,Misc1_G2*%
X147206508Y-96830000D03*
%TD*%
D13*
%TO.N,GND*%
%TO.C,J1*%
X127165000Y-98300000D03*
D14*
%TO.N,5V*%
X129705000Y-98300000D03*
%TO.N,RBTQ_1*%
X132245000Y-98300000D03*
%TO.N,RBTQ_2*%
X134785000Y-98300000D03*
%TD*%
D13*
%TO.N,GND*%
%TO.C,J6*%
X127720000Y-102793333D03*
D14*
%TO.N,Dome_PWM*%
X130260000Y-102793333D03*
%TD*%
D20*
%TO.N,GND*%
%TO.C,J5*%
X126355000Y-117452500D03*
D21*
%TO.N,5V*%
X131435000Y-117452500D03*
%TD*%
D13*
%TO.N,GND*%
%TO.C,J4*%
X126930000Y-85430000D03*
D14*
%TO.N,5V*%
X129470000Y-85430000D03*
%TO.N,S3_RX*%
X132010000Y-85430000D03*
%TO.N,S3_TX*%
X134550000Y-85430000D03*
%TD*%
D22*
%TO.N,3.3V*%
%TO.C,U4*%
X129200000Y-56025000D03*
%TO.N,xbee_dout*%
X129200000Y-58025000D03*
%TO.N,xbee_din*%
X129200000Y-60025000D03*
%TO.N,unconnected-(U4-D08-Pad4)*%
X129200000Y-62025000D03*
%TO.N,xbee_rst*%
X129200000Y-64025000D03*
%TO.N,unconnected-(U4-PWM0{slash}RSSI-Pad6)*%
X129200000Y-66025000D03*
%TO.N,unconnected-(U4-PWM1-Pad7)*%
X129200000Y-68025000D03*
%TO.N,unconnected-(U4-Reserved-Pad8)*%
X129200000Y-70025000D03*
%TO.N,unconnected-(U4-DTR{slash}D18-Pad9)*%
X129200000Y-72025000D03*
%TO.N,GND*%
X129200000Y-74025000D03*
%TO.N,unconnected-(U4-AD4{slash}DI04-Pad11)*%
X151196000Y-74025000D03*
%TO.N,unconnected-(U4-~{CTS}{slash}DIO7-Pad12)*%
X151196000Y-72025000D03*
%TO.N,unconnected-(U4-ON{slash}Sleep-Pad13)*%
X151196000Y-70025000D03*
%TO.N,unconnected-(U4-VREF-Pad14)*%
X151196000Y-68025000D03*
%TO.N,unconnected-(U4-ASC{slash}AD5{slash}DI05-Pad15)*%
X151196000Y-66025000D03*
%TO.N,unconnected-(U4-~{RTS}{slash}AD6{slash}DIO6-Pad16)*%
X151196000Y-64025000D03*
%TO.N,unconnected-(U4-AD3{slash}DI03-Pad17)*%
X151196000Y-62025000D03*
%TO.N,unconnected-(U4-AD2{slash}DI02-Pad18)*%
X151196000Y-60025000D03*
%TO.N,unconnected-(U4-AD1{slash}DI01-Pad19)*%
X151196000Y-58025000D03*
%TO.N,unconnected-(U4-ADO{slash}DIO0-Pad20)*%
X151196000Y-56025000D03*
%TD*%
D12*
%TO.N,3.3V*%
%TO.C,C3*%
X123650000Y-65975000D03*
%TO.N,GND*%
X123650000Y-60975000D03*
%TD*%
D23*
%TO.N,unconnected-(U7-D0-Pad1)*%
%TO.C,U7*%
X152320000Y-122906500D03*
D24*
%TO.N,RST*%
X152320000Y-120366500D03*
%TO.N,GPIO_0*%
X152320000Y-117826500D03*
%TO.N,unconnected-(U7-D3-Pad4)*%
X152320000Y-115286500D03*
%TO.N,unconnected-(U7-D4-Pad5)*%
X152320000Y-112746500D03*
%TO.N,unconnected-(U7-D5-Pad6)*%
X152320000Y-110206500D03*
%TO.N,unconnected-(U7-TX_D6-Pad7)*%
X152320000Y-107666500D03*
%TO.N,unconnected-(U7-RX_D7-Pad8)*%
X137080000Y-107666500D03*
%TO.N,Net-(U7-D8)*%
X137080000Y-110206500D03*
%TO.N,Net-(U7-D9)*%
X137080000Y-112746500D03*
%TO.N,unconnected-(U7-D10-Pad11)*%
X137080000Y-115286500D03*
%TO.N,unconnected-(U7-VCC_3V3-Pad12)*%
X137080000Y-117826500D03*
%TO.N,GND*%
X137080000Y-120366500D03*
%TO.N,5V*%
X137080000Y-122906500D03*
%TD*%
D12*
%TO.N,S6TX_C6RX*%
%TO.C,R2*%
X175770000Y-115960000D03*
%TO.N,Net-(U7-D8)*%
X165610000Y-115960000D03*
%TD*%
%TO.N,xbee_rst*%
%TO.C,R1*%
X123575000Y-80905000D03*
%TO.N,3.3V*%
X123575000Y-70745000D03*
%TD*%
D25*
%TO.N,xbee_rst*%
X127680000Y-76800000D02*
X123575000Y-80905000D01*
X130200000Y-76800000D02*
X127680000Y-76800000D01*
X143399884Y-54200116D02*
X131575000Y-66025000D01*
X131575000Y-66025000D02*
X131575000Y-75425000D01*
X152175980Y-54200116D02*
X143399884Y-54200116D01*
X153125000Y-55149136D02*
X152175980Y-54200116D01*
X153125000Y-74255000D02*
X153125000Y-55149136D01*
X131575000Y-75425000D02*
X130200000Y-76800000D01*
X157000000Y-78130000D02*
X153125000Y-74255000D01*
X123575000Y-74025000D02*
X123575000Y-80905000D01*
X126575000Y-71025000D02*
X123575000Y-74025000D01*
X126575000Y-66650000D02*
X126575000Y-71025000D01*
X129200000Y-64025000D02*
X126575000Y-66650000D01*
%TO.N,RBTQ_1*%
X157000000Y-80670000D02*
X153595000Y-80670000D01*
X125725000Y-94600000D02*
X130093333Y-94600000D01*
X130093333Y-94600000D02*
X131684166Y-96190834D01*
X131684166Y-96190834D02*
X132245000Y-96751667D01*
X152500000Y-79575000D02*
X129025000Y-79575000D01*
X124575000Y-93450000D02*
X125725000Y-94600000D01*
X124575000Y-84025000D02*
X124575000Y-93450000D01*
X153595000Y-80670000D02*
X152500000Y-79575000D01*
X129025000Y-79575000D02*
X124575000Y-84025000D01*
X132245000Y-96751667D02*
X132245000Y-98300000D01*
%TO.N,xbee_rst*%
X156690000Y-78440000D02*
X157000000Y-78130000D01*
%TO.N,xbee_din*%
X153625000Y-72215000D02*
X157000000Y-75590000D01*
X136813660Y-60025000D02*
X143200000Y-53638660D01*
X152263660Y-53638660D02*
X153625000Y-55000000D01*
X153625000Y-55000000D02*
X153625000Y-72215000D01*
X143200000Y-53638660D02*
X152263660Y-53638660D01*
X129200000Y-60025000D02*
X136813660Y-60025000D01*
%TO.N,xbee_dout*%
X152462660Y-53187660D02*
X142562340Y-53187660D01*
X154250000Y-70300000D02*
X154250000Y-54975000D01*
X154250000Y-54975000D02*
X152462660Y-53187660D01*
X157000000Y-73050000D02*
X154250000Y-70300000D01*
X137725000Y-58025000D02*
X129200000Y-58025000D01*
X142562340Y-53187660D02*
X137725000Y-58025000D01*
%TO.N,S2_RX*%
X136375556Y-89125556D02*
X137875000Y-90625000D01*
X137875000Y-90625000D02*
X137875000Y-97625000D01*
X134550000Y-89125556D02*
X136375556Y-89125556D01*
X155175000Y-109325000D02*
X157000000Y-111150000D01*
X152275000Y-103525000D02*
X155175000Y-106425000D01*
X137875000Y-97625000D02*
X143775000Y-103525000D01*
X143775000Y-103525000D02*
X152275000Y-103525000D01*
X155175000Y-106425000D02*
X155175000Y-109325000D01*
%TO.N,S2_TX*%
X154343595Y-111033595D02*
X157000000Y-113690000D01*
X154343595Y-106231405D02*
X154343595Y-111033595D01*
X136100000Y-90700000D02*
X137350000Y-91950000D01*
X143612190Y-104000000D02*
X152112190Y-104000000D01*
X152112190Y-104000000D02*
X154343595Y-106231405D01*
X137350000Y-97737810D02*
X143612190Y-104000000D01*
X137350000Y-91950000D02*
X137350000Y-97737810D01*
X133584444Y-90700000D02*
X136100000Y-90700000D01*
X132010000Y-89125556D02*
X133584444Y-90700000D01*
%TO.N,S3_RX*%
X133200000Y-80525000D02*
X150475000Y-80525000D01*
X132010000Y-81715000D02*
X133200000Y-80525000D01*
X150475000Y-80525000D02*
X153160000Y-83210000D01*
X132010000Y-85430000D02*
X132010000Y-81715000D01*
X153160000Y-83210000D02*
X157000000Y-83210000D01*
%TO.N,S3_TX*%
X157000000Y-85750000D02*
X154925000Y-85750000D01*
X136275000Y-81425000D02*
X134550000Y-83150000D01*
X154925000Y-85750000D02*
X150600000Y-81425000D01*
X134550000Y-83150000D02*
X134550000Y-85430000D01*
X150600000Y-81425000D02*
X136275000Y-81425000D01*
%TO.N,Misc1_G2*%
X154655508Y-89381000D02*
X159306810Y-89381000D01*
X172962810Y-75725000D02*
X179725000Y-75725000D01*
X179725000Y-75725000D02*
X179860000Y-75590000D01*
X147206508Y-96830000D02*
X154655508Y-89381000D01*
X159306810Y-89381000D02*
X172962810Y-75725000D01*
X182400000Y-75590000D02*
X179860000Y-75590000D01*
%TO.N,Misc1_G1*%
X160900000Y-87150000D02*
X154346508Y-87150000D01*
X179860000Y-73050000D02*
X182400000Y-73050000D01*
X179860000Y-73050000D02*
X175000000Y-73050000D01*
X175000000Y-73050000D02*
X160900000Y-87150000D01*
X154346508Y-87150000D02*
X144666508Y-96830000D01*
%TO.N,S6TX_C6RX*%
X182370000Y-67970000D02*
X182400000Y-67940000D01*
X179860000Y-67970000D02*
X182370000Y-67970000D01*
%TO.N,Net-(U7-D8)*%
X147430000Y-118260000D02*
X147430000Y-123040000D01*
X139376500Y-110206500D02*
X147430000Y-118260000D01*
X151770000Y-127380000D02*
X157220000Y-127380000D01*
X157220000Y-127380000D02*
X161520000Y-123080000D01*
X161520000Y-120050000D02*
X165610000Y-115960000D01*
X137080000Y-110206500D02*
X139376500Y-110206500D01*
X161520000Y-123080000D02*
X161520000Y-120050000D01*
X147430000Y-123040000D02*
X151770000Y-127380000D01*
%TO.N,S6RX_C6TX*%
X182400000Y-70510000D02*
X179860000Y-70510000D01*
%TO.N,Net-(U7-D9)*%
X157406810Y-127831000D02*
X151491000Y-127831000D01*
X146930000Y-119660000D02*
X140016500Y-112746500D01*
X151491000Y-127831000D02*
X146930000Y-123270000D01*
X146930000Y-123270000D02*
X146930000Y-119660000D01*
X165650000Y-119587810D02*
X157406810Y-127831000D01*
X165650000Y-119140000D02*
X165650000Y-119587810D01*
X140016500Y-112746500D02*
X137080000Y-112746500D01*
%TO.N,Misc3_G47*%
X182400000Y-106070000D02*
X179860000Y-106070000D01*
%TD*%
%TA.AperFunction,Conductor*%
%TO.N,3.3V*%
G36*
X185022539Y-44630185D02*
G01*
X185068294Y-44682989D01*
X185079500Y-44734500D01*
X185079500Y-129775500D01*
X185059815Y-129842539D01*
X185007011Y-129888294D01*
X184955500Y-129899500D01*
X118294500Y-129899500D01*
X118227461Y-129879815D01*
X118181706Y-129827011D01*
X118170500Y-129775500D01*
X118170500Y-125878711D01*
X119149500Y-125878711D01*
X119149500Y-126121288D01*
X119181161Y-126361785D01*
X119243947Y-126596104D01*
X119294513Y-126718181D01*
X119336776Y-126820212D01*
X119458064Y-127030289D01*
X119458066Y-127030292D01*
X119458067Y-127030293D01*
X119605733Y-127222736D01*
X119605739Y-127222743D01*
X119777256Y-127394260D01*
X119777262Y-127394265D01*
X119969711Y-127541936D01*
X120179788Y-127663224D01*
X120403900Y-127756054D01*
X120638211Y-127818838D01*
X120818586Y-127842584D01*
X120878711Y-127850500D01*
X120878712Y-127850500D01*
X121121289Y-127850500D01*
X121169388Y-127844167D01*
X121361789Y-127818838D01*
X121596100Y-127756054D01*
X121820212Y-127663224D01*
X122030289Y-127541936D01*
X122222738Y-127394265D01*
X122394265Y-127222738D01*
X122541936Y-127030289D01*
X122663224Y-126820212D01*
X122756054Y-126596100D01*
X122818838Y-126361789D01*
X122850500Y-126121288D01*
X122850500Y-125878712D01*
X122818838Y-125638211D01*
X122756054Y-125403900D01*
X122663224Y-125179788D01*
X122541936Y-124969711D01*
X122394265Y-124777262D01*
X122394260Y-124777256D01*
X122222743Y-124605739D01*
X122222736Y-124605733D01*
X122030293Y-124458067D01*
X122030292Y-124458066D01*
X122030289Y-124458064D01*
X121820212Y-124336776D01*
X121820205Y-124336773D01*
X121596104Y-124243947D01*
X121361785Y-124181161D01*
X121121289Y-124149500D01*
X121121288Y-124149500D01*
X120878712Y-124149500D01*
X120878711Y-124149500D01*
X120638214Y-124181161D01*
X120403895Y-124243947D01*
X120179794Y-124336773D01*
X120179785Y-124336777D01*
X119969706Y-124458067D01*
X119777263Y-124605733D01*
X119777256Y-124605739D01*
X119605739Y-124777256D01*
X119605733Y-124777263D01*
X119458067Y-124969706D01*
X119336777Y-125179785D01*
X119336773Y-125179794D01*
X119243947Y-125403895D01*
X119181161Y-125638214D01*
X119149500Y-125878711D01*
X118170500Y-125878711D01*
X118170500Y-116352483D01*
X124554500Y-116352483D01*
X124554500Y-118552501D01*
X124554501Y-118552518D01*
X124565000Y-118655296D01*
X124565001Y-118655299D01*
X124620185Y-118821831D01*
X124620187Y-118821836D01*
X124628594Y-118835466D01*
X124712288Y-118971156D01*
X124836344Y-119095212D01*
X124985666Y-119187314D01*
X125152203Y-119242499D01*
X125254991Y-119253000D01*
X127455008Y-119252999D01*
X127557797Y-119242499D01*
X127724334Y-119187314D01*
X127873656Y-119095212D01*
X127997712Y-118971156D01*
X128089814Y-118821834D01*
X128144999Y-118655297D01*
X128155500Y-118552509D01*
X128155499Y-117334495D01*
X129634500Y-117334495D01*
X129634500Y-117570504D01*
X129634501Y-117570520D01*
X129660900Y-117771045D01*
X129665307Y-117804514D01*
X129700212Y-117934780D01*
X129726394Y-118032493D01*
X129816714Y-118250545D01*
X129816719Y-118250556D01*
X129887677Y-118373457D01*
X129934727Y-118454950D01*
X129934729Y-118454953D01*
X129934730Y-118454954D01*
X130078406Y-118642197D01*
X130078412Y-118642204D01*
X130245295Y-118809087D01*
X130245302Y-118809093D01*
X130279671Y-118835465D01*
X130432550Y-118952773D01*
X130524742Y-119006000D01*
X130636943Y-119070780D01*
X130636948Y-119070782D01*
X130636951Y-119070784D01*
X130855007Y-119161106D01*
X131082986Y-119222193D01*
X131316989Y-119253000D01*
X131316996Y-119253000D01*
X131553004Y-119253000D01*
X131553011Y-119253000D01*
X131787014Y-119222193D01*
X132014993Y-119161106D01*
X132233049Y-119070784D01*
X132437450Y-118952773D01*
X132624699Y-118809092D01*
X132791592Y-118642199D01*
X132935273Y-118454950D01*
X133053284Y-118250549D01*
X133143606Y-118032493D01*
X133173928Y-117919332D01*
X135900499Y-117919332D01*
X135925559Y-118077548D01*
X135929543Y-118102700D01*
X135986915Y-118279271D01*
X136071201Y-118444693D01*
X136180328Y-118594893D01*
X136311607Y-118726172D01*
X136461807Y-118835299D01*
X136627229Y-118919585D01*
X136803800Y-118976957D01*
X136803802Y-118976957D01*
X136808433Y-118978462D01*
X136807726Y-118980635D01*
X136860129Y-119010748D01*
X136892271Y-119072786D01*
X136885771Y-119142352D01*
X136842692Y-119197361D01*
X136807999Y-119213204D01*
X136808433Y-119214538D01*
X136803802Y-119216042D01*
X136803800Y-119216043D01*
X136627229Y-119273415D01*
X136627226Y-119273416D01*
X136461806Y-119357701D01*
X136376111Y-119419962D01*
X136311607Y-119466828D01*
X136311605Y-119466830D01*
X136311604Y-119466830D01*
X136180330Y-119598104D01*
X136180330Y-119598105D01*
X136180328Y-119598107D01*
X136141707Y-119651264D01*
X136071201Y-119748306D01*
X135986916Y-119913726D01*
X135929542Y-120090303D01*
X135900500Y-120273665D01*
X135900500Y-120459334D01*
X135929542Y-120642696D01*
X135929543Y-120642700D01*
X135986915Y-120819271D01*
X136071201Y-120984693D01*
X136180328Y-121134893D01*
X136311607Y-121266172D01*
X136461807Y-121375299D01*
X136627229Y-121459585D01*
X136803800Y-121516957D01*
X136803802Y-121516957D01*
X136808433Y-121518462D01*
X136807726Y-121520635D01*
X136860129Y-121550748D01*
X136892271Y-121612786D01*
X136885771Y-121682352D01*
X136842692Y-121737361D01*
X136807999Y-121753204D01*
X136808433Y-121754538D01*
X136803802Y-121756042D01*
X136803800Y-121756043D01*
X136627229Y-121813415D01*
X136627226Y-121813416D01*
X136461806Y-121897701D01*
X136376111Y-121959962D01*
X136311607Y-122006828D01*
X136311605Y-122006830D01*
X136311604Y-122006830D01*
X136180330Y-122138104D01*
X136180330Y-122138105D01*
X136180328Y-122138107D01*
X136150156Y-122179635D01*
X136071201Y-122288306D01*
X135986916Y-122453726D01*
X135929542Y-122630303D01*
X135900500Y-122813665D01*
X135900500Y-122999334D01*
X135929542Y-123182696D01*
X135929543Y-123182700D01*
X135986915Y-123359271D01*
X136071201Y-123524693D01*
X136180328Y-123674893D01*
X136311607Y-123806172D01*
X136461807Y-123915299D01*
X136627229Y-123999585D01*
X136803800Y-124056957D01*
X136872564Y-124067848D01*
X136987166Y-124086000D01*
X136987171Y-124086000D01*
X137172834Y-124086000D01*
X137274701Y-124069865D01*
X137356200Y-124056957D01*
X137532771Y-123999585D01*
X137698193Y-123915299D01*
X137848393Y-123806172D01*
X137979672Y-123674893D01*
X138088799Y-123524693D01*
X138173085Y-123359271D01*
X138230457Y-123182700D01*
X138243365Y-123101201D01*
X138259500Y-122999334D01*
X138259500Y-122813665D01*
X138230457Y-122630303D01*
X138230457Y-122630300D01*
X138173085Y-122453729D01*
X138088799Y-122288307D01*
X137979672Y-122138107D01*
X137848393Y-122006828D01*
X137698193Y-121897701D01*
X137532771Y-121813415D01*
X137356200Y-121756043D01*
X137356197Y-121756042D01*
X137351567Y-121754538D01*
X137352277Y-121752352D01*
X137299914Y-121722297D01*
X137267740Y-121660276D01*
X137274205Y-121590706D01*
X137317256Y-121535676D01*
X137352004Y-121519807D01*
X137351567Y-121518462D01*
X137356197Y-121516957D01*
X137356200Y-121516957D01*
X137532771Y-121459585D01*
X137698193Y-121375299D01*
X137848393Y-121266172D01*
X137979672Y-121134893D01*
X138088799Y-120984693D01*
X138173085Y-120819271D01*
X138230457Y-120642700D01*
X138243365Y-120561201D01*
X138259500Y-120459334D01*
X138259500Y-120273665D01*
X138230457Y-120090303D01*
X138230457Y-120090300D01*
X138173085Y-119913729D01*
X138088799Y-119748307D01*
X137979672Y-119598107D01*
X137848393Y-119466828D01*
X137698193Y-119357701D01*
X137532771Y-119273415D01*
X137356200Y-119216043D01*
X137356197Y-119216042D01*
X137351567Y-119214538D01*
X137352277Y-119212352D01*
X137299914Y-119182297D01*
X137267740Y-119120276D01*
X137274205Y-119050706D01*
X137317256Y-118995676D01*
X137352004Y-118979807D01*
X137351567Y-118978462D01*
X137356197Y-118976957D01*
X137356200Y-118976957D01*
X137532771Y-118919585D01*
X137698193Y-118835299D01*
X137848393Y-118726172D01*
X137979672Y-118594893D01*
X138088799Y-118444693D01*
X138173085Y-118279271D01*
X138230457Y-118102700D01*
X138255342Y-117945582D01*
X138259500Y-117919332D01*
X138259500Y-117733665D01*
X138239989Y-117610485D01*
X138230457Y-117550300D01*
X138173085Y-117373729D01*
X138088799Y-117208307D01*
X137979672Y-117058107D01*
X137848393Y-116926828D01*
X137698193Y-116817701D01*
X137532771Y-116733415D01*
X137356200Y-116676043D01*
X137356197Y-116676042D01*
X137351567Y-116674538D01*
X137352277Y-116672352D01*
X137299914Y-116642297D01*
X137267740Y-116580276D01*
X137274205Y-116510706D01*
X137317256Y-116455676D01*
X137352004Y-116439807D01*
X137351567Y-116438462D01*
X137356197Y-116436957D01*
X137356200Y-116436957D01*
X137532771Y-116379585D01*
X137698193Y-116295299D01*
X137848393Y-116186172D01*
X137979672Y-116054893D01*
X138088799Y-115904693D01*
X138173085Y-115739271D01*
X138230457Y-115562700D01*
X138246600Y-115460776D01*
X138259500Y-115379334D01*
X138259500Y-115193665D01*
X138239989Y-115070485D01*
X138230457Y-115010300D01*
X138173085Y-114833729D01*
X138088799Y-114668307D01*
X137979672Y-114518107D01*
X137848393Y-114386828D01*
X137698193Y-114277701D01*
X137532771Y-114193415D01*
X137356200Y-114136043D01*
X137356197Y-114136042D01*
X137351567Y-114134538D01*
X137352277Y-114132352D01*
X137299914Y-114102297D01*
X137267740Y-114040276D01*
X137274205Y-113970706D01*
X137317256Y-113915676D01*
X137352004Y-113899807D01*
X137351567Y-113898462D01*
X137356197Y-113896957D01*
X137356200Y-113896957D01*
X137532771Y-113839585D01*
X137698193Y-113755299D01*
X137848393Y-113646172D01*
X137979672Y-113514893D01*
X138046354Y-113423113D01*
X138101683Y-113380449D01*
X138146671Y-113372000D01*
X139706048Y-113372000D01*
X139773087Y-113391685D01*
X139793729Y-113408319D01*
X146268181Y-119882771D01*
X146301666Y-119944094D01*
X146304500Y-119970452D01*
X146304500Y-123331611D01*
X146328535Y-123452444D01*
X146328540Y-123452461D01*
X146375685Y-123566280D01*
X146375687Y-123566283D01*
X146375688Y-123566286D01*
X146409915Y-123617509D01*
X146444142Y-123668733D01*
X146531267Y-123755858D01*
X146531270Y-123755860D01*
X146538554Y-123763144D01*
X151002016Y-128226606D01*
X151002045Y-128226637D01*
X151092264Y-128316856D01*
X151092267Y-128316858D01*
X151143490Y-128351084D01*
X151194714Y-128385312D01*
X151275207Y-128418652D01*
X151308548Y-128432463D01*
X151368971Y-128444481D01*
X151429393Y-128456500D01*
X157468417Y-128456500D01*
X157528839Y-128444481D01*
X157589262Y-128432463D01*
X157622602Y-128418652D01*
X157703096Y-128385312D01*
X157754319Y-128351084D01*
X157760131Y-128347201D01*
X157767081Y-128342556D01*
X157805543Y-128316858D01*
X157892668Y-128229733D01*
X157892669Y-128229731D01*
X157899735Y-128222665D01*
X157899737Y-128222661D01*
X160243688Y-125878711D01*
X169149500Y-125878711D01*
X169149500Y-126121288D01*
X169181161Y-126361785D01*
X169243947Y-126596104D01*
X169294513Y-126718181D01*
X169336776Y-126820212D01*
X169458064Y-127030289D01*
X169458066Y-127030292D01*
X169458067Y-127030293D01*
X169605733Y-127222736D01*
X169605739Y-127222743D01*
X169777256Y-127394260D01*
X169777262Y-127394265D01*
X169969711Y-127541936D01*
X170179788Y-127663224D01*
X170403900Y-127756054D01*
X170638211Y-127818838D01*
X170818586Y-127842584D01*
X170878711Y-127850500D01*
X170878712Y-127850500D01*
X171121289Y-127850500D01*
X171169388Y-127844167D01*
X171361789Y-127818838D01*
X171596100Y-127756054D01*
X171820212Y-127663224D01*
X172030289Y-127541936D01*
X172222738Y-127394265D01*
X172394265Y-127222738D01*
X172541936Y-127030289D01*
X172663224Y-126820212D01*
X172756054Y-126596100D01*
X172818838Y-126361789D01*
X172850500Y-126121288D01*
X172850500Y-125878712D01*
X172818838Y-125638211D01*
X172756054Y-125403900D01*
X172663224Y-125179788D01*
X172541936Y-124969711D01*
X172394265Y-124777262D01*
X172394260Y-124777256D01*
X172222743Y-124605739D01*
X172222736Y-124605733D01*
X172030293Y-124458067D01*
X172030292Y-124458066D01*
X172030289Y-124458064D01*
X171820212Y-124336776D01*
X171820205Y-124336773D01*
X171596104Y-124243947D01*
X171361785Y-124181161D01*
X171121289Y-124149500D01*
X171121288Y-124149500D01*
X170878712Y-124149500D01*
X170878711Y-124149500D01*
X170638214Y-124181161D01*
X170403895Y-124243947D01*
X170179794Y-124336773D01*
X170179785Y-124336777D01*
X169969706Y-124458067D01*
X169777263Y-124605733D01*
X169777256Y-124605739D01*
X169605739Y-124777256D01*
X169605733Y-124777263D01*
X169458067Y-124969706D01*
X169336777Y-125179785D01*
X169336773Y-125179794D01*
X169243947Y-125403895D01*
X169181161Y-125638214D01*
X169149500Y-125878711D01*
X160243688Y-125878711D01*
X165645581Y-120476819D01*
X165706904Y-120443334D01*
X165733262Y-120440500D01*
X165752351Y-120440500D01*
X165752352Y-120440500D01*
X165954534Y-120408477D01*
X166149219Y-120345220D01*
X166331610Y-120252287D01*
X166424590Y-120184732D01*
X166497213Y-120131971D01*
X166497215Y-120131968D01*
X166497219Y-120131966D01*
X166641966Y-119987219D01*
X166641968Y-119987215D01*
X166641971Y-119987213D01*
X166726617Y-119870706D01*
X166762287Y-119821610D01*
X166855220Y-119639219D01*
X166918477Y-119444534D01*
X166950500Y-119242352D01*
X166950500Y-119037648D01*
X174509500Y-119037648D01*
X174509500Y-119242351D01*
X174541522Y-119444534D01*
X174604781Y-119639223D01*
X174637018Y-119702490D01*
X174689741Y-119805965D01*
X174697715Y-119821613D01*
X174818028Y-119987213D01*
X174962786Y-120131971D01*
X175117749Y-120244556D01*
X175128390Y-120252287D01*
X175239872Y-120309090D01*
X175310776Y-120345218D01*
X175310778Y-120345218D01*
X175310781Y-120345220D01*
X175415137Y-120379127D01*
X175505465Y-120408477D01*
X175606557Y-120424488D01*
X175707648Y-120440500D01*
X175707649Y-120440500D01*
X175912351Y-120440500D01*
X175912352Y-120440500D01*
X176114534Y-120408477D01*
X176309219Y-120345220D01*
X176491610Y-120252287D01*
X176584590Y-120184732D01*
X176657213Y-120131971D01*
X176657215Y-120131968D01*
X176657219Y-120131966D01*
X176801966Y-119987219D01*
X176801968Y-119987215D01*
X176801971Y-119987213D01*
X176886617Y-119870706D01*
X176922287Y-119821610D01*
X177015220Y-119639219D01*
X177078477Y-119444534D01*
X177110500Y-119242352D01*
X177110500Y-119037648D01*
X177078477Y-118835466D01*
X177078422Y-118835298D01*
X177019937Y-118655299D01*
X177015220Y-118640781D01*
X177015218Y-118640778D01*
X177015218Y-118640776D01*
X176970248Y-118552518D01*
X176922287Y-118458390D01*
X176912336Y-118444693D01*
X176801971Y-118292786D01*
X176657213Y-118148028D01*
X176491613Y-118027715D01*
X176491612Y-118027714D01*
X176491610Y-118027713D01*
X176434653Y-117998691D01*
X176309223Y-117934781D01*
X176114534Y-117871522D01*
X175939995Y-117843878D01*
X175912352Y-117839500D01*
X175707648Y-117839500D01*
X175683329Y-117843351D01*
X175505465Y-117871522D01*
X175310776Y-117934781D01*
X175128386Y-118027715D01*
X174962786Y-118148028D01*
X174818028Y-118292786D01*
X174697715Y-118458386D01*
X174604781Y-118640776D01*
X174541522Y-118835465D01*
X174509500Y-119037648D01*
X166950500Y-119037648D01*
X166918477Y-118835466D01*
X166918422Y-118835298D01*
X166859937Y-118655299D01*
X166855220Y-118640781D01*
X166855218Y-118640778D01*
X166855218Y-118640776D01*
X166810248Y-118552518D01*
X166762287Y-118458390D01*
X166752336Y-118444693D01*
X166641971Y-118292786D01*
X166497213Y-118148028D01*
X166331613Y-118027715D01*
X166331612Y-118027714D01*
X166331610Y-118027713D01*
X166274653Y-117998691D01*
X166149223Y-117934781D01*
X165954534Y-117871522D01*
X165779995Y-117843878D01*
X165752352Y-117839500D01*
X165547648Y-117839500D01*
X165523329Y-117843351D01*
X165345465Y-117871522D01*
X165150776Y-117934781D01*
X164968386Y-118027715D01*
X164802786Y-118148028D01*
X164658028Y-118292786D01*
X164537715Y-118458386D01*
X164444781Y-118640776D01*
X164381522Y-118835465D01*
X164349500Y-119037648D01*
X164349500Y-119242351D01*
X164381523Y-119444535D01*
X164381523Y-119444538D01*
X164444779Y-119639218D01*
X164444779Y-119639219D01*
X164494751Y-119737296D01*
X164507647Y-119805965D01*
X164481370Y-119870706D01*
X164471947Y-119881271D01*
X162357181Y-121996038D01*
X162295858Y-122029523D01*
X162226166Y-122024539D01*
X162170233Y-121982667D01*
X162145816Y-121917203D01*
X162145500Y-121908357D01*
X162145500Y-120360451D01*
X162165185Y-120293412D01*
X162181814Y-120272775D01*
X165192373Y-117262215D01*
X165253694Y-117228732D01*
X165300410Y-117229249D01*
X165300654Y-117227715D01*
X165404101Y-117244099D01*
X165507648Y-117260500D01*
X165507649Y-117260500D01*
X165712351Y-117260500D01*
X165712352Y-117260500D01*
X165914534Y-117228477D01*
X166109219Y-117165220D01*
X166291610Y-117072287D01*
X166384590Y-117004732D01*
X166457213Y-116951971D01*
X166457215Y-116951968D01*
X166457219Y-116951966D01*
X166601966Y-116807219D01*
X166601968Y-116807215D01*
X166601971Y-116807213D01*
X166664602Y-116721007D01*
X166722287Y-116641610D01*
X166815220Y-116459219D01*
X166878477Y-116264534D01*
X166910500Y-116062352D01*
X166910500Y-115857648D01*
X174469500Y-115857648D01*
X174469500Y-116062351D01*
X174501522Y-116264534D01*
X174564781Y-116459223D01*
X174657715Y-116641613D01*
X174778028Y-116807213D01*
X174922786Y-116951971D01*
X175063798Y-117054420D01*
X175088390Y-117072287D01*
X175204607Y-117131503D01*
X175270776Y-117165218D01*
X175270778Y-117165218D01*
X175270781Y-117165220D01*
X175363253Y-117195266D01*
X175465465Y-117228477D01*
X175566557Y-117244488D01*
X175667648Y-117260500D01*
X175667649Y-117260500D01*
X175872351Y-117260500D01*
X175872352Y-117260500D01*
X176074534Y-117228477D01*
X176269219Y-117165220D01*
X176451610Y-117072287D01*
X176544590Y-117004732D01*
X176617213Y-116951971D01*
X176617215Y-116951968D01*
X176617219Y-116951966D01*
X176761966Y-116807219D01*
X176761968Y-116807215D01*
X176761971Y-116807213D01*
X176824602Y-116721007D01*
X176882287Y-116641610D01*
X176975220Y-116459219D01*
X177038477Y-116264534D01*
X177070500Y-116062352D01*
X177070500Y-115857648D01*
X177048332Y-115717685D01*
X177038477Y-115655465D01*
X176975218Y-115460776D01*
X176941503Y-115394607D01*
X176882287Y-115278390D01*
X176820736Y-115193671D01*
X176761971Y-115112786D01*
X176617213Y-114968028D01*
X176451613Y-114847715D01*
X176451612Y-114847714D01*
X176451610Y-114847713D01*
X176394653Y-114818691D01*
X176269223Y-114754781D01*
X176074534Y-114691522D01*
X175899995Y-114663878D01*
X175872352Y-114659500D01*
X175667648Y-114659500D01*
X175643329Y-114663351D01*
X175465465Y-114691522D01*
X175270776Y-114754781D01*
X175088386Y-114847715D01*
X174922786Y-114968028D01*
X174778028Y-115112786D01*
X174657715Y-115278386D01*
X174564781Y-115460776D01*
X174501522Y-115655465D01*
X174469500Y-115857648D01*
X166910500Y-115857648D01*
X166888332Y-115717685D01*
X166878477Y-115655465D01*
X166815218Y-115460776D01*
X166781503Y-115394607D01*
X166722287Y-115278390D01*
X166660736Y-115193671D01*
X166601971Y-115112786D01*
X166457213Y-114968028D01*
X166291613Y-114847715D01*
X166291612Y-114847714D01*
X166291610Y-114847713D01*
X166234653Y-114818691D01*
X166109223Y-114754781D01*
X165914534Y-114691522D01*
X165739995Y-114663878D01*
X165712352Y-114659500D01*
X165507648Y-114659500D01*
X165483329Y-114663351D01*
X165305465Y-114691522D01*
X165110776Y-114754781D01*
X164928386Y-114847715D01*
X164762786Y-114968028D01*
X164618028Y-115112786D01*
X164497715Y-115278386D01*
X164404781Y-115460776D01*
X164341522Y-115655465D01*
X164317080Y-115809788D01*
X164309500Y-115857648D01*
X164309500Y-116062352D01*
X164320278Y-116130403D01*
X164342285Y-116269346D01*
X164340252Y-116269667D01*
X164337165Y-116330834D01*
X164307781Y-116377627D01*
X161121269Y-119564140D01*
X161034144Y-119651264D01*
X161034138Y-119651272D01*
X160965690Y-119753708D01*
X160965688Y-119753713D01*
X160937565Y-119821610D01*
X160918538Y-119867544D01*
X160918535Y-119867556D01*
X160894500Y-119988389D01*
X160894500Y-122769548D01*
X160874815Y-122836587D01*
X160858181Y-122857229D01*
X156997229Y-126718181D01*
X156935906Y-126751666D01*
X156909548Y-126754500D01*
X152080452Y-126754500D01*
X152013413Y-126734815D01*
X151992771Y-126718181D01*
X148091819Y-122817229D01*
X148058334Y-122755906D01*
X148055500Y-122729548D01*
X148055500Y-118198396D01*
X148055500Y-118198394D01*
X148031463Y-118077548D01*
X148011932Y-118030397D01*
X147984312Y-117963715D01*
X147954654Y-117919329D01*
X147922711Y-117871523D01*
X147915858Y-117861266D01*
X147825637Y-117771045D01*
X147825606Y-117771016D01*
X139869650Y-109815060D01*
X139862360Y-109807770D01*
X139862358Y-109807767D01*
X139775233Y-109720642D01*
X139724009Y-109686415D01*
X139672786Y-109652188D01*
X139672783Y-109652186D01*
X139672780Y-109652185D01*
X139594574Y-109619792D01*
X139594571Y-109619791D01*
X139586693Y-109616528D01*
X139558952Y-109605037D01*
X139474842Y-109588307D01*
X139471260Y-109587594D01*
X139471239Y-109587589D01*
X139438111Y-109581000D01*
X139438107Y-109581000D01*
X139438106Y-109581000D01*
X138146671Y-109581000D01*
X138079632Y-109561315D01*
X138046353Y-109529886D01*
X137979672Y-109438107D01*
X137848393Y-109306828D01*
X137698193Y-109197701D01*
X137532771Y-109113415D01*
X137356200Y-109056043D01*
X137356197Y-109056042D01*
X137351567Y-109054538D01*
X137352277Y-109052352D01*
X137299914Y-109022297D01*
X137267740Y-108960276D01*
X137274205Y-108890706D01*
X137317256Y-108835676D01*
X137352004Y-108819807D01*
X137351567Y-108818462D01*
X137356197Y-108816957D01*
X137356200Y-108816957D01*
X137532771Y-108759585D01*
X137698193Y-108675299D01*
X137848393Y-108566172D01*
X137979672Y-108434893D01*
X138088799Y-108284693D01*
X138173085Y-108119271D01*
X138230457Y-107942700D01*
X138245477Y-107847870D01*
X138259500Y-107759334D01*
X138259500Y-107573665D01*
X138239167Y-107445295D01*
X138230457Y-107390300D01*
X138173085Y-107213729D01*
X138088799Y-107048307D01*
X137979672Y-106898107D01*
X137848393Y-106766828D01*
X137698193Y-106657701D01*
X137532771Y-106573415D01*
X137356200Y-106516043D01*
X137356198Y-106516042D01*
X137356196Y-106516042D01*
X137172834Y-106487000D01*
X137172829Y-106487000D01*
X136987171Y-106487000D01*
X136987166Y-106487000D01*
X136803803Y-106516042D01*
X136627226Y-106573416D01*
X136461806Y-106657701D01*
X136409781Y-106695500D01*
X136311607Y-106766828D01*
X136311605Y-106766830D01*
X136311604Y-106766830D01*
X136180330Y-106898104D01*
X136180330Y-106898105D01*
X136180328Y-106898107D01*
X136167483Y-106915787D01*
X136071201Y-107048306D01*
X135986916Y-107213726D01*
X135929542Y-107390303D01*
X135900500Y-107573665D01*
X135900500Y-107759334D01*
X135918802Y-107874886D01*
X135929543Y-107942700D01*
X135986915Y-108119271D01*
X136071201Y-108284693D01*
X136180328Y-108434893D01*
X136311607Y-108566172D01*
X136461807Y-108675299D01*
X136627229Y-108759585D01*
X136803800Y-108816957D01*
X136803802Y-108816957D01*
X136808433Y-108818462D01*
X136807726Y-108820635D01*
X136860129Y-108850748D01*
X136892271Y-108912786D01*
X136885771Y-108982352D01*
X136842692Y-109037361D01*
X136807999Y-109053204D01*
X136808433Y-109054538D01*
X136803802Y-109056042D01*
X136803800Y-109056043D01*
X136627229Y-109113415D01*
X136627226Y-109113416D01*
X136461806Y-109197701D01*
X136376111Y-109259962D01*
X136311607Y-109306828D01*
X136311605Y-109306830D01*
X136311604Y-109306830D01*
X136180330Y-109438104D01*
X136180330Y-109438105D01*
X136180328Y-109438107D01*
X136133462Y-109502611D01*
X136071201Y-109588306D01*
X135986916Y-109753726D01*
X135929542Y-109930303D01*
X135900500Y-110113665D01*
X135900500Y-110299334D01*
X135918802Y-110414886D01*
X135929543Y-110482700D01*
X135986915Y-110659271D01*
X136071201Y-110824693D01*
X136180328Y-110974893D01*
X136311607Y-111106172D01*
X136461807Y-111215299D01*
X136627229Y-111299585D01*
X136803800Y-111356957D01*
X136803802Y-111356957D01*
X136808433Y-111358462D01*
X136807726Y-111360635D01*
X136860129Y-111390748D01*
X136892271Y-111452786D01*
X136885771Y-111522352D01*
X136842692Y-111577361D01*
X136807999Y-111593204D01*
X136808433Y-111594538D01*
X136803802Y-111596042D01*
X136803800Y-111596043D01*
X136629513Y-111652673D01*
X136627226Y-111653416D01*
X136461806Y-111737701D01*
X136376111Y-111799962D01*
X136311607Y-111846828D01*
X136311605Y-111846830D01*
X136311604Y-111846830D01*
X136180330Y-111978104D01*
X136180330Y-111978105D01*
X136180328Y-111978107D01*
X136133462Y-112042611D01*
X136071201Y-112128306D01*
X135986916Y-112293726D01*
X135929542Y-112470303D01*
X135900500Y-112653665D01*
X135900500Y-112839334D01*
X135929542Y-113022696D01*
X135929543Y-113022700D01*
X135986915Y-113199271D01*
X136071201Y-113364693D01*
X136180328Y-113514893D01*
X136311607Y-113646172D01*
X136461807Y-113755299D01*
X136627229Y-113839585D01*
X136803800Y-113896957D01*
X136803802Y-113896957D01*
X136808433Y-113898462D01*
X136807726Y-113900635D01*
X136860129Y-113930748D01*
X136892271Y-113992786D01*
X136885771Y-114062352D01*
X136842692Y-114117361D01*
X136807999Y-114133204D01*
X136808433Y-114134538D01*
X136803802Y-114136042D01*
X136803800Y-114136043D01*
X136627229Y-114193415D01*
X136627226Y-114193416D01*
X136461806Y-114277701D01*
X136376111Y-114339962D01*
X136311607Y-114386828D01*
X136311605Y-114386830D01*
X136311604Y-114386830D01*
X136180330Y-114518104D01*
X136180330Y-114518105D01*
X136180328Y-114518107D01*
X136133462Y-114582611D01*
X136071201Y-114668306D01*
X135986916Y-114833726D01*
X135929542Y-115010303D01*
X135900500Y-115193665D01*
X135900500Y-115379334D01*
X135929542Y-115562696D01*
X135929543Y-115562700D01*
X135980059Y-115718172D01*
X135986916Y-115739273D01*
X135989435Y-115744217D01*
X136071201Y-115904693D01*
X136180328Y-116054893D01*
X136311607Y-116186172D01*
X136461807Y-116295299D01*
X136627229Y-116379585D01*
X136803800Y-116436957D01*
X136803802Y-116436957D01*
X136808433Y-116438462D01*
X136807726Y-116440635D01*
X136860129Y-116470748D01*
X136892271Y-116532786D01*
X136885771Y-116602352D01*
X136842692Y-116657361D01*
X136807999Y-116673204D01*
X136808433Y-116674538D01*
X136803802Y-116676042D01*
X136803800Y-116676043D01*
X136629513Y-116732673D01*
X136627226Y-116733416D01*
X136461806Y-116817701D01*
X136386373Y-116872507D01*
X136311607Y-116926828D01*
X136311605Y-116926830D01*
X136311604Y-116926830D01*
X136180330Y-117058104D01*
X136180330Y-117058105D01*
X136180328Y-117058107D01*
X136170028Y-117072284D01*
X136071201Y-117208306D01*
X135986916Y-117373726D01*
X135929542Y-117550303D01*
X135900500Y-117733665D01*
X135900500Y-117919330D01*
X135900499Y-117919332D01*
X133173928Y-117919332D01*
X133204693Y-117804514D01*
X133235500Y-117570511D01*
X133235500Y-117334489D01*
X133204693Y-117100486D01*
X133143606Y-116872507D01*
X133053284Y-116654451D01*
X133053282Y-116654448D01*
X133053280Y-116654443D01*
X133010459Y-116580276D01*
X132935273Y-116450050D01*
X132860406Y-116352481D01*
X132791593Y-116262802D01*
X132791587Y-116262795D01*
X132624704Y-116095912D01*
X132624697Y-116095906D01*
X132437454Y-115952230D01*
X132437453Y-115952229D01*
X132437450Y-115952227D01*
X132355119Y-115904693D01*
X132233056Y-115834219D01*
X132233045Y-115834214D01*
X132014993Y-115743894D01*
X131997740Y-115739271D01*
X131787014Y-115682807D01*
X131787013Y-115682806D01*
X131787010Y-115682806D01*
X131553020Y-115652001D01*
X131553017Y-115652000D01*
X131553011Y-115652000D01*
X131316989Y-115652000D01*
X131316983Y-115652000D01*
X131316979Y-115652001D01*
X131082989Y-115682806D01*
X130855006Y-115743894D01*
X130636954Y-115834214D01*
X130636943Y-115834219D01*
X130432545Y-115952230D01*
X130245302Y-116095906D01*
X130245295Y-116095912D01*
X130078412Y-116262795D01*
X130078406Y-116262802D01*
X129934730Y-116450045D01*
X129816719Y-116654443D01*
X129816714Y-116654454D01*
X129726394Y-116872506D01*
X129665306Y-117100489D01*
X129634501Y-117334479D01*
X129634500Y-117334495D01*
X128155499Y-117334495D01*
X128155499Y-116352492D01*
X128144999Y-116249703D01*
X128089814Y-116083166D01*
X127997712Y-115933844D01*
X127873656Y-115809788D01*
X127724334Y-115717686D01*
X127557797Y-115662501D01*
X127557795Y-115662500D01*
X127455010Y-115652000D01*
X125254998Y-115652000D01*
X125254981Y-115652001D01*
X125152203Y-115662500D01*
X125152200Y-115662501D01*
X124985668Y-115717685D01*
X124985663Y-115717687D01*
X124836342Y-115809789D01*
X124712289Y-115933842D01*
X124620187Y-116083163D01*
X124620185Y-116083168D01*
X124615962Y-116095912D01*
X124565001Y-116249703D01*
X124565001Y-116249704D01*
X124565000Y-116249704D01*
X124554500Y-116352483D01*
X118170500Y-116352483D01*
X118170500Y-107225468D01*
X126559500Y-107225468D01*
X126559500Y-109021203D01*
X126559501Y-109021209D01*
X126565908Y-109080816D01*
X126616202Y-109215661D01*
X126616206Y-109215668D01*
X126702452Y-109330877D01*
X126702455Y-109330880D01*
X126817664Y-109417126D01*
X126817671Y-109417130D01*
X126952517Y-109467424D01*
X126952516Y-109467424D01*
X126959444Y-109468168D01*
X127012127Y-109473833D01*
X128807872Y-109473832D01*
X128867483Y-109467424D01*
X129002331Y-109417129D01*
X129117546Y-109330879D01*
X129203796Y-109215664D01*
X129252810Y-109084249D01*
X129294681Y-109028317D01*
X129360145Y-109003899D01*
X129428418Y-109018750D01*
X129456673Y-109039902D01*
X129570213Y-109153442D01*
X129742179Y-109278381D01*
X129742181Y-109278382D01*
X129742184Y-109278384D01*
X129931588Y-109374890D01*
X130133757Y-109440579D01*
X130343713Y-109473833D01*
X130343714Y-109473833D01*
X130556286Y-109473833D01*
X130556287Y-109473833D01*
X130766243Y-109440579D01*
X130968412Y-109374890D01*
X131157816Y-109278384D01*
X131244138Y-109215668D01*
X131329786Y-109153442D01*
X131329788Y-109153439D01*
X131329792Y-109153437D01*
X131480104Y-109003125D01*
X131480106Y-109003121D01*
X131480109Y-109003119D01*
X131605048Y-108831153D01*
X131605047Y-108831153D01*
X131605051Y-108831149D01*
X131701557Y-108641745D01*
X131767246Y-108439576D01*
X131800500Y-108229620D01*
X131800500Y-108017046D01*
X131767246Y-107807090D01*
X131701557Y-107604921D01*
X131605051Y-107415517D01*
X131605049Y-107415514D01*
X131605048Y-107415512D01*
X131480109Y-107243546D01*
X131329786Y-107093223D01*
X131157820Y-106968284D01*
X130968414Y-106871777D01*
X130968413Y-106871776D01*
X130968412Y-106871776D01*
X130766243Y-106806087D01*
X130766241Y-106806086D01*
X130766240Y-106806086D01*
X130604957Y-106780541D01*
X130556287Y-106772833D01*
X130343713Y-106772833D01*
X130295042Y-106780541D01*
X130133760Y-106806086D01*
X129931585Y-106871777D01*
X129742179Y-106968284D01*
X129570215Y-107093222D01*
X129456673Y-107206764D01*
X129395350Y-107240248D01*
X129325658Y-107235264D01*
X129269725Y-107193392D01*
X129252810Y-107162415D01*
X129203797Y-107031004D01*
X129203793Y-107030997D01*
X129117547Y-106915788D01*
X129117544Y-106915785D01*
X129002335Y-106829539D01*
X129002328Y-106829535D01*
X128867482Y-106779241D01*
X128867483Y-106779241D01*
X128807883Y-106772834D01*
X128807881Y-106772833D01*
X128807873Y-106772833D01*
X128807864Y-106772833D01*
X127012129Y-106772833D01*
X127012123Y-106772834D01*
X126952516Y-106779241D01*
X126817671Y-106829535D01*
X126817664Y-106829539D01*
X126702455Y-106915785D01*
X126702452Y-106915788D01*
X126616206Y-107030997D01*
X126616202Y-107031004D01*
X126565908Y-107165850D01*
X126559501Y-107225449D01*
X126559500Y-107225468D01*
X118170500Y-107225468D01*
X118170500Y-101895468D01*
X126369500Y-101895468D01*
X126369500Y-103691203D01*
X126369501Y-103691209D01*
X126375908Y-103750816D01*
X126426202Y-103885661D01*
X126426206Y-103885668D01*
X126512452Y-104000877D01*
X126512455Y-104000880D01*
X126627664Y-104087126D01*
X126627671Y-104087130D01*
X126762517Y-104137424D01*
X126762516Y-104137424D01*
X126769444Y-104138168D01*
X126822127Y-104143833D01*
X128617872Y-104143832D01*
X128677483Y-104137424D01*
X128812331Y-104087129D01*
X128927546Y-104000879D01*
X129013796Y-103885664D01*
X129062810Y-103754249D01*
X129104681Y-103698317D01*
X129170145Y-103673899D01*
X129238418Y-103688750D01*
X129266673Y-103709902D01*
X129380213Y-103823442D01*
X129552179Y-103948381D01*
X129552181Y-103948382D01*
X129552184Y-103948384D01*
X129741588Y-104044890D01*
X129943757Y-104110579D01*
X130153713Y-104143833D01*
X130153714Y-104143833D01*
X130366286Y-104143833D01*
X130366287Y-104143833D01*
X130576243Y-104110579D01*
X130778412Y-104044890D01*
X130967816Y-103948384D01*
X131054138Y-103885668D01*
X131139786Y-103823442D01*
X131139788Y-103823439D01*
X131139792Y-103823437D01*
X131290104Y-103673125D01*
X131290106Y-103673121D01*
X131290109Y-103673119D01*
X131415048Y-103501153D01*
X131415047Y-103501153D01*
X131415051Y-103501149D01*
X131511557Y-103311745D01*
X131577246Y-103109576D01*
X131610500Y-102899620D01*
X131610500Y-102687046D01*
X131577246Y-102477090D01*
X131511557Y-102274921D01*
X131415051Y-102085517D01*
X131415049Y-102085514D01*
X131415048Y-102085512D01*
X131290109Y-101913546D01*
X131139786Y-101763223D01*
X130967820Y-101638284D01*
X130778414Y-101541777D01*
X130778413Y-101541776D01*
X130778412Y-101541776D01*
X130576243Y-101476087D01*
X130576241Y-101476086D01*
X130576240Y-101476086D01*
X130414957Y-101450541D01*
X130366287Y-101442833D01*
X130153713Y-101442833D01*
X130105042Y-101450541D01*
X129943760Y-101476086D01*
X129741585Y-101541777D01*
X129552179Y-101638284D01*
X129380215Y-101763222D01*
X129266673Y-101876764D01*
X129205350Y-101910248D01*
X129135658Y-101905264D01*
X129079725Y-101863392D01*
X129062810Y-101832415D01*
X129013797Y-101701004D01*
X129013793Y-101700997D01*
X128927547Y-101585788D01*
X128927544Y-101585785D01*
X128812335Y-101499539D01*
X128812328Y-101499535D01*
X128677482Y-101449241D01*
X128677483Y-101449241D01*
X128617883Y-101442834D01*
X128617881Y-101442833D01*
X128617873Y-101442833D01*
X128617864Y-101442833D01*
X126822129Y-101442833D01*
X126822123Y-101442834D01*
X126762516Y-101449241D01*
X126627671Y-101499535D01*
X126627664Y-101499539D01*
X126512455Y-101585785D01*
X126512452Y-101585788D01*
X126426206Y-101700997D01*
X126426202Y-101701004D01*
X126375908Y-101835850D01*
X126369501Y-101895449D01*
X126369500Y-101895468D01*
X118170500Y-101895468D01*
X118170500Y-80802648D01*
X122274500Y-80802648D01*
X122274500Y-81007351D01*
X122306522Y-81209534D01*
X122369781Y-81404223D01*
X122462715Y-81586613D01*
X122583028Y-81752213D01*
X122727786Y-81896971D01*
X122836096Y-81975661D01*
X122893390Y-82017287D01*
X122997208Y-82070185D01*
X123075776Y-82110218D01*
X123075778Y-82110218D01*
X123075781Y-82110220D01*
X123129416Y-82127647D01*
X123270465Y-82173477D01*
X123371557Y-82189488D01*
X123472648Y-82205500D01*
X123472649Y-82205500D01*
X123677351Y-82205500D01*
X123677352Y-82205500D01*
X123879534Y-82173477D01*
X124074219Y-82110220D01*
X124256610Y-82017287D01*
X124369181Y-81935500D01*
X124422213Y-81896971D01*
X124422215Y-81896968D01*
X124422219Y-81896966D01*
X124566966Y-81752219D01*
X124566968Y-81752215D01*
X124566971Y-81752213D01*
X124651934Y-81635269D01*
X124687287Y-81586610D01*
X124780220Y-81404219D01*
X124843477Y-81209534D01*
X124875500Y-81007352D01*
X124875500Y-80802648D01*
X124843477Y-80600466D01*
X124843477Y-80600465D01*
X124842715Y-80595654D01*
X124844777Y-80595327D01*
X124847784Y-80534304D01*
X124877215Y-80487373D01*
X127902772Y-77461819D01*
X127964095Y-77428334D01*
X127990453Y-77425500D01*
X130261607Y-77425500D01*
X130322029Y-77413481D01*
X130382452Y-77401463D01*
X130415792Y-77387652D01*
X130496286Y-77354312D01*
X130547509Y-77320084D01*
X130598733Y-77285858D01*
X130685858Y-77198733D01*
X130685858Y-77198731D01*
X130696066Y-77188524D01*
X130696067Y-77188521D01*
X132060858Y-75823733D01*
X132129312Y-75721285D01*
X132176463Y-75607451D01*
X132200501Y-75486606D01*
X132200501Y-75363393D01*
X132200501Y-75358283D01*
X132200500Y-75358257D01*
X132200500Y-66335452D01*
X132220185Y-66268413D01*
X132236819Y-66247771D01*
X143622656Y-54861935D01*
X143683979Y-54828450D01*
X143710337Y-54825616D01*
X150337700Y-54825616D01*
X150404739Y-54845301D01*
X150450494Y-54898105D01*
X150460438Y-54967263D01*
X150431413Y-55030819D01*
X150410588Y-55049932D01*
X150396718Y-55060009D01*
X150381352Y-55071173D01*
X150242174Y-55210351D01*
X150242174Y-55210352D01*
X150242172Y-55210354D01*
X150192485Y-55278741D01*
X150126476Y-55369594D01*
X150037117Y-55544970D01*
X149976290Y-55732173D01*
X149945500Y-55926577D01*
X149945500Y-56123422D01*
X149976290Y-56317826D01*
X150037117Y-56505029D01*
X150101105Y-56630612D01*
X150126476Y-56680405D01*
X150242172Y-56839646D01*
X150242174Y-56839648D01*
X150339845Y-56937319D01*
X150373330Y-56998642D01*
X150368346Y-57068334D01*
X150339845Y-57112681D01*
X150242174Y-57210351D01*
X150242174Y-57210352D01*
X150242172Y-57210354D01*
X150195204Y-57275000D01*
X150126476Y-57369594D01*
X150037117Y-57544970D01*
X149976290Y-57732173D01*
X149945500Y-57926577D01*
X149945500Y-58123422D01*
X149976290Y-58317826D01*
X150037117Y-58505029D01*
X150101105Y-58630612D01*
X150126476Y-58680405D01*
X150242172Y-58839646D01*
X150242174Y-58839648D01*
X150339845Y-58937319D01*
X150373330Y-58998642D01*
X150368346Y-59068334D01*
X150339845Y-59112681D01*
X150242174Y-59210351D01*
X150242174Y-59210352D01*
X150242172Y-59210354D01*
X150192485Y-59278741D01*
X150126476Y-59369594D01*
X150037117Y-59544970D01*
X149976290Y-59732173D01*
X149945500Y-59926577D01*
X149945500Y-60123422D01*
X149976290Y-60317826D01*
X150037117Y-60505029D01*
X150101105Y-60630612D01*
X150126476Y-60680405D01*
X150242172Y-60839646D01*
X150242174Y-60839648D01*
X150339845Y-60937319D01*
X150373330Y-60998642D01*
X150368346Y-61068334D01*
X150339845Y-61112681D01*
X150242174Y-61210351D01*
X150242174Y-61210352D01*
X150242172Y-61210354D01*
X150192485Y-61278741D01*
X150126476Y-61369594D01*
X150037117Y-61544970D01*
X149976290Y-61732173D01*
X149945500Y-61926577D01*
X149945500Y-62123422D01*
X149976290Y-62317826D01*
X150037117Y-62505029D01*
X150101105Y-62630612D01*
X150126476Y-62680405D01*
X150242172Y-62839646D01*
X150242174Y-62839648D01*
X150339845Y-62937319D01*
X150373330Y-62998642D01*
X150368346Y-63068334D01*
X150339845Y-63112681D01*
X150242174Y-63210351D01*
X150242174Y-63210352D01*
X150242172Y-63210354D01*
X150192485Y-63278741D01*
X150126476Y-63369594D01*
X150037117Y-63544970D01*
X149976290Y-63732173D01*
X149945500Y-63926577D01*
X149945500Y-64123422D01*
X149976290Y-64317826D01*
X150037117Y-64505029D01*
X150101105Y-64630612D01*
X150126476Y-64680405D01*
X150242172Y-64839646D01*
X150242174Y-64839648D01*
X150339845Y-64937319D01*
X150373330Y-64998642D01*
X150368346Y-65068334D01*
X150339845Y-65112681D01*
X150242174Y-65210351D01*
X150242174Y-65210352D01*
X150242172Y-65210354D01*
X150220621Y-65240016D01*
X150126476Y-65369594D01*
X150037117Y-65544970D01*
X149976290Y-65732173D01*
X149945500Y-65926577D01*
X149945500Y-66123422D01*
X149976290Y-66317826D01*
X150037117Y-66505029D01*
X150101105Y-66630612D01*
X150126476Y-66680405D01*
X150242172Y-66839646D01*
X150242174Y-66839648D01*
X150339845Y-66937319D01*
X150373330Y-66998642D01*
X150368346Y-67068334D01*
X150339845Y-67112681D01*
X150242174Y-67210351D01*
X150242174Y-67210352D01*
X150242172Y-67210354D01*
X150195204Y-67275000D01*
X150126476Y-67369594D01*
X150037117Y-67544970D01*
X149976290Y-67732173D01*
X149945500Y-67926577D01*
X149945500Y-68123422D01*
X149976290Y-68317826D01*
X150037117Y-68505029D01*
X150104026Y-68636344D01*
X150126476Y-68680405D01*
X150242172Y-68839646D01*
X150242174Y-68839648D01*
X150339845Y-68937319D01*
X150373330Y-68998642D01*
X150368346Y-69068334D01*
X150339845Y-69112681D01*
X150242174Y-69210351D01*
X150242174Y-69210352D01*
X150242172Y-69210354D01*
X150216774Y-69245311D01*
X150126476Y-69369594D01*
X150037117Y-69544970D01*
X149976290Y-69732173D01*
X149945500Y-69926577D01*
X149945500Y-70123422D01*
X149976290Y-70317826D01*
X150037117Y-70505029D01*
X150101105Y-70630612D01*
X150126476Y-70680405D01*
X150242172Y-70839646D01*
X150242174Y-70839648D01*
X150339845Y-70937319D01*
X150373330Y-70998642D01*
X150368346Y-71068334D01*
X150339845Y-71112681D01*
X150242174Y-71210351D01*
X150242174Y-71210352D01*
X150242172Y-71210354D01*
X150217704Y-71244031D01*
X150126476Y-71369594D01*
X150037117Y-71544970D01*
X149976290Y-71732173D01*
X149945500Y-71926577D01*
X149945500Y-72123422D01*
X149976290Y-72317826D01*
X150037117Y-72505029D01*
X150111631Y-72651270D01*
X150126476Y-72680405D01*
X150242172Y-72839646D01*
X150242174Y-72839648D01*
X150339845Y-72937319D01*
X150373330Y-72998642D01*
X150368346Y-73068334D01*
X150339845Y-73112681D01*
X150242174Y-73210351D01*
X150242174Y-73210352D01*
X150242172Y-73210354D01*
X150192485Y-73278741D01*
X150126476Y-73369594D01*
X150037117Y-73544970D01*
X149976290Y-73732173D01*
X149945500Y-73926577D01*
X149945500Y-74123422D01*
X149976290Y-74317826D01*
X150037117Y-74505029D01*
X150098109Y-74624731D01*
X150126476Y-74680405D01*
X150242172Y-74839646D01*
X150381354Y-74978828D01*
X150540595Y-75094524D01*
X150559619Y-75104217D01*
X150715970Y-75183882D01*
X150715972Y-75183882D01*
X150715975Y-75183884D01*
X150816317Y-75216487D01*
X150903173Y-75244709D01*
X151097578Y-75275500D01*
X151097583Y-75275500D01*
X151294422Y-75275500D01*
X151488826Y-75244709D01*
X151676025Y-75183884D01*
X151851405Y-75094524D01*
X152010646Y-74978828D01*
X152149828Y-74839646D01*
X152265524Y-74680405D01*
X152341236Y-74531808D01*
X152347712Y-74524952D01*
X152350809Y-74516044D01*
X152371315Y-74499961D01*
X152389210Y-74481014D01*
X152398365Y-74478746D01*
X152405787Y-74472926D01*
X152431734Y-74470482D01*
X152457031Y-74464218D01*
X152465958Y-74467260D01*
X152475349Y-74466376D01*
X152498497Y-74478348D01*
X152523166Y-74486755D01*
X152530682Y-74494995D01*
X152537409Y-74498474D01*
X152548094Y-74514082D01*
X152559190Y-74526246D01*
X152563207Y-74533225D01*
X152570688Y-74551286D01*
X152589415Y-74579312D01*
X152591718Y-74582759D01*
X152591720Y-74582762D01*
X152639140Y-74653731D01*
X152639141Y-74653732D01*
X152639142Y-74653733D01*
X152726267Y-74740858D01*
X152726268Y-74740858D01*
X152733335Y-74747925D01*
X152733334Y-74747925D01*
X152733338Y-74747928D01*
X155728287Y-77742878D01*
X155761772Y-77804201D01*
X155763079Y-77849956D01*
X155734500Y-78030402D01*
X155734500Y-78229596D01*
X155765661Y-78426340D01*
X155765661Y-78426343D01*
X155827213Y-78615780D01*
X155827215Y-78615783D01*
X155917647Y-78793266D01*
X156034731Y-78954418D01*
X156175582Y-79095269D01*
X156336734Y-79212353D01*
X156406453Y-79247877D01*
X156488172Y-79289515D01*
X156538968Y-79337490D01*
X156555763Y-79405311D01*
X156533225Y-79471446D01*
X156488172Y-79510485D01*
X156336733Y-79587647D01*
X156244790Y-79654447D01*
X156175582Y-79704731D01*
X156175580Y-79704733D01*
X156175579Y-79704733D01*
X156034733Y-79845579D01*
X156034733Y-79845580D01*
X156034731Y-79845582D01*
X155927345Y-79993386D01*
X155872015Y-80036051D01*
X155827027Y-80044500D01*
X153905452Y-80044500D01*
X153838413Y-80024815D01*
X153817771Y-80008181D01*
X152993150Y-79183560D01*
X152985860Y-79176270D01*
X152985858Y-79176267D01*
X152898733Y-79089142D01*
X152847509Y-79054915D01*
X152796286Y-79020688D01*
X152796283Y-79020686D01*
X152796280Y-79020685D01*
X152722603Y-78990168D01*
X152722601Y-78990167D01*
X152715792Y-78987347D01*
X152682452Y-78973537D01*
X152622029Y-78961518D01*
X152617306Y-78960578D01*
X152617304Y-78960578D01*
X152561610Y-78949500D01*
X152561607Y-78949500D01*
X152561606Y-78949500D01*
X129086606Y-78949500D01*
X128963393Y-78949500D01*
X128963389Y-78949500D01*
X128907697Y-78960578D01*
X128902971Y-78961518D01*
X128859743Y-78970116D01*
X128842546Y-78973537D01*
X128728712Y-79020689D01*
X128728706Y-79020693D01*
X128626266Y-79089142D01*
X128626262Y-79089145D01*
X124176269Y-83539140D01*
X124089144Y-83626264D01*
X124089138Y-83626272D01*
X124054914Y-83677489D01*
X124054915Y-83677490D01*
X124020688Y-83728713D01*
X124020685Y-83728718D01*
X124005945Y-83764308D01*
X124005944Y-83764311D01*
X123973538Y-83842545D01*
X123973535Y-83842555D01*
X123949500Y-83963389D01*
X123949500Y-93511611D01*
X123973535Y-93632444D01*
X123973540Y-93632461D01*
X124020685Y-93746281D01*
X124020687Y-93746284D01*
X124020688Y-93746286D01*
X124045329Y-93783162D01*
X124089142Y-93848733D01*
X124176267Y-93935858D01*
X124176269Y-93935859D01*
X124186651Y-93946241D01*
X125326263Y-95085855D01*
X125326267Y-95085858D01*
X125428710Y-95154309D01*
X125428711Y-95154309D01*
X125428715Y-95154312D01*
X125495397Y-95181932D01*
X125542548Y-95201463D01*
X125562597Y-95205451D01*
X125619350Y-95216740D01*
X125663392Y-95225501D01*
X125663394Y-95225501D01*
X125792721Y-95225501D01*
X125792741Y-95225500D01*
X129782881Y-95225500D01*
X129849920Y-95245185D01*
X129870561Y-95261818D01*
X131198308Y-96589567D01*
X131198309Y-96589568D01*
X131484011Y-96875269D01*
X131560204Y-96951461D01*
X131593689Y-97012784D01*
X131588705Y-97082475D01*
X131546834Y-97138409D01*
X131537320Y-97144865D01*
X131537183Y-97144948D01*
X131365213Y-97269890D01*
X131214890Y-97420213D01*
X131089949Y-97592182D01*
X131085484Y-97600946D01*
X131037509Y-97651742D01*
X130969688Y-97668536D01*
X130903553Y-97645998D01*
X130864516Y-97600946D01*
X130860050Y-97592182D01*
X130735109Y-97420213D01*
X130584786Y-97269890D01*
X130412820Y-97144951D01*
X130223414Y-97048444D01*
X130223413Y-97048443D01*
X130223412Y-97048443D01*
X130021243Y-96982754D01*
X130021241Y-96982753D01*
X130021240Y-96982753D01*
X129859957Y-96957208D01*
X129811287Y-96949500D01*
X129598713Y-96949500D01*
X129550042Y-96957208D01*
X129388760Y-96982753D01*
X129186585Y-97048444D01*
X128997179Y-97144951D01*
X128825215Y-97269889D01*
X128711673Y-97383431D01*
X128650350Y-97416915D01*
X128580658Y-97411931D01*
X128524725Y-97370059D01*
X128507810Y-97339082D01*
X128458797Y-97207671D01*
X128458793Y-97207664D01*
X128372547Y-97092455D01*
X128372544Y-97092452D01*
X128257335Y-97006206D01*
X128257328Y-97006202D01*
X128122482Y-96955908D01*
X128122483Y-96955908D01*
X128062883Y-96949501D01*
X128062881Y-96949500D01*
X128062873Y-96949500D01*
X128062864Y-96949500D01*
X126267129Y-96949500D01*
X126267123Y-96949501D01*
X126207516Y-96955908D01*
X126072671Y-97006202D01*
X126072664Y-97006206D01*
X125957455Y-97092452D01*
X125957452Y-97092455D01*
X125871206Y-97207664D01*
X125871202Y-97207671D01*
X125820908Y-97342517D01*
X125814501Y-97402116D01*
X125814500Y-97402135D01*
X125814500Y-99197870D01*
X125814501Y-99197876D01*
X125820908Y-99257483D01*
X125871202Y-99392328D01*
X125871206Y-99392335D01*
X125957452Y-99507544D01*
X125957455Y-99507547D01*
X126072664Y-99593793D01*
X126072671Y-99593797D01*
X126207517Y-99644091D01*
X126207516Y-99644091D01*
X126214444Y-99644835D01*
X126267127Y-99650500D01*
X128062872Y-99650499D01*
X128122483Y-99644091D01*
X128257331Y-99593796D01*
X128372546Y-99507546D01*
X128458796Y-99392331D01*
X128507810Y-99260916D01*
X128549681Y-99204984D01*
X128615145Y-99180566D01*
X128683418Y-99195417D01*
X128711673Y-99216569D01*
X128825213Y-99330109D01*
X128997179Y-99455048D01*
X128997181Y-99455049D01*
X128997184Y-99455051D01*
X129186588Y-99551557D01*
X129388757Y-99617246D01*
X129598713Y-99650500D01*
X129598714Y-99650500D01*
X129811286Y-99650500D01*
X129811287Y-99650500D01*
X130021243Y-99617246D01*
X130223412Y-99551557D01*
X130412816Y-99455051D01*
X130499138Y-99392335D01*
X130584786Y-99330109D01*
X130584788Y-99330106D01*
X130584792Y-99330104D01*
X130735104Y-99179792D01*
X130735106Y-99179788D01*
X130735109Y-99179786D01*
X130860048Y-99007820D01*
X130860047Y-99007820D01*
X130860051Y-99007816D01*
X130864514Y-98999054D01*
X130912488Y-98948259D01*
X130980308Y-98931463D01*
X131046444Y-98953999D01*
X131085486Y-98999056D01*
X131089951Y-99007820D01*
X131214890Y-99179786D01*
X131365213Y-99330109D01*
X131537179Y-99455048D01*
X131537181Y-99455049D01*
X131537184Y-99455051D01*
X131726588Y-99551557D01*
X131928757Y-99617246D01*
X132138713Y-99650500D01*
X132138714Y-99650500D01*
X132351286Y-99650500D01*
X132351287Y-99650500D01*
X132561243Y-99617246D01*
X132763412Y-99551557D01*
X132952816Y-99455051D01*
X133039138Y-99392335D01*
X133124786Y-99330109D01*
X133124788Y-99330106D01*
X133124792Y-99330104D01*
X133275104Y-99179792D01*
X133275106Y-99179788D01*
X133275109Y-99179786D01*
X133400048Y-99007820D01*
X133400047Y-99007820D01*
X133400051Y-99007816D01*
X133404514Y-98999054D01*
X133452488Y-98948259D01*
X133520308Y-98931463D01*
X133586444Y-98953999D01*
X133625486Y-98999056D01*
X133629951Y-99007820D01*
X133754890Y-99179786D01*
X133905213Y-99330109D01*
X134077179Y-99455048D01*
X134077181Y-99455049D01*
X134077184Y-99455051D01*
X134266588Y-99551557D01*
X134468757Y-99617246D01*
X134678713Y-99650500D01*
X134678714Y-99650500D01*
X134891286Y-99650500D01*
X134891287Y-99650500D01*
X135101243Y-99617246D01*
X135303412Y-99551557D01*
X135492816Y-99455051D01*
X135579138Y-99392335D01*
X135664786Y-99330109D01*
X135664788Y-99330106D01*
X135664792Y-99330104D01*
X135815104Y-99179792D01*
X135815106Y-99179788D01*
X135815109Y-99179786D01*
X135940048Y-99007820D01*
X135940047Y-99007820D01*
X135940051Y-99007816D01*
X136036557Y-98818412D01*
X136102246Y-98616243D01*
X136135500Y-98406287D01*
X136135500Y-98193713D01*
X136102246Y-97983757D01*
X136036557Y-97781588D01*
X135940051Y-97592184D01*
X135940049Y-97592181D01*
X135940048Y-97592179D01*
X135815109Y-97420213D01*
X135664786Y-97269890D01*
X135492820Y-97144951D01*
X135303414Y-97048444D01*
X135303413Y-97048443D01*
X135303412Y-97048443D01*
X135101243Y-96982754D01*
X135101241Y-96982753D01*
X135101240Y-96982753D01*
X134939957Y-96957208D01*
X134891287Y-96949500D01*
X134678713Y-96949500D01*
X134630042Y-96957208D01*
X134468760Y-96982753D01*
X134266585Y-97048444D01*
X134077179Y-97144951D01*
X133905213Y-97269890D01*
X133754890Y-97420213D01*
X133629949Y-97592182D01*
X133625484Y-97600946D01*
X133577509Y-97651742D01*
X133509688Y-97668536D01*
X133443553Y-97645998D01*
X133404516Y-97600946D01*
X133400050Y-97592182D01*
X133275109Y-97420213D01*
X133124786Y-97269890D01*
X132952819Y-97144950D01*
X132938203Y-97137503D01*
X132887408Y-97089527D01*
X132870500Y-97027019D01*
X132870500Y-96690060D01*
X132870499Y-96690056D01*
X132847521Y-96574534D01*
X132846463Y-96569215D01*
X132799311Y-96455381D01*
X132799310Y-96455380D01*
X132799307Y-96455374D01*
X132730859Y-96352935D01*
X132689512Y-96311588D01*
X132643733Y-96265809D01*
X132643732Y-96265808D01*
X132387520Y-96009596D01*
X132078580Y-95700656D01*
X132078557Y-95700635D01*
X130586799Y-94208876D01*
X130586798Y-94208875D01*
X130579193Y-94201270D01*
X130579191Y-94201267D01*
X130492066Y-94114142D01*
X130429996Y-94072668D01*
X130389619Y-94045688D01*
X130389617Y-94045687D01*
X130384381Y-94042888D01*
X130334538Y-93993924D01*
X130319079Y-93925786D01*
X130342913Y-93860107D01*
X130355143Y-93845863D01*
X130500104Y-93700903D01*
X130506318Y-93692351D01*
X130625048Y-93528931D01*
X130625047Y-93528931D01*
X130625051Y-93528927D01*
X130629514Y-93520165D01*
X130677488Y-93469370D01*
X130745308Y-93452574D01*
X130811444Y-93475110D01*
X130850486Y-93520167D01*
X130854951Y-93528931D01*
X130979890Y-93700897D01*
X131130213Y-93851220D01*
X131302179Y-93976159D01*
X131302181Y-93976160D01*
X131302184Y-93976162D01*
X131491588Y-94072668D01*
X131693757Y-94138357D01*
X131903713Y-94171611D01*
X131903714Y-94171611D01*
X132116286Y-94171611D01*
X132116287Y-94171611D01*
X132326243Y-94138357D01*
X132528412Y-94072668D01*
X132717816Y-93976162D01*
X132787153Y-93925786D01*
X132889786Y-93851220D01*
X132889788Y-93851217D01*
X132889792Y-93851215D01*
X133040104Y-93700903D01*
X133040106Y-93700899D01*
X133040109Y-93700897D01*
X133165048Y-93528931D01*
X133165047Y-93528931D01*
X133165051Y-93528927D01*
X133169514Y-93520165D01*
X133217488Y-93469370D01*
X133285308Y-93452574D01*
X133351444Y-93475110D01*
X133390486Y-93520167D01*
X133394951Y-93528931D01*
X133519890Y-93700897D01*
X133670213Y-93851220D01*
X133842179Y-93976159D01*
X133842181Y-93976160D01*
X133842184Y-93976162D01*
X134031588Y-94072668D01*
X134233757Y-94138357D01*
X134443713Y-94171611D01*
X134443714Y-94171611D01*
X134656286Y-94171611D01*
X134656287Y-94171611D01*
X134866243Y-94138357D01*
X135068412Y-94072668D01*
X135257816Y-93976162D01*
X135327153Y-93925786D01*
X135429786Y-93851220D01*
X135429788Y-93851217D01*
X135429792Y-93851215D01*
X135580104Y-93700903D01*
X135580106Y-93700899D01*
X135580109Y-93700897D01*
X135705048Y-93528931D01*
X135705047Y-93528931D01*
X135705051Y-93528927D01*
X135801557Y-93339523D01*
X135867246Y-93137354D01*
X135900500Y-92927398D01*
X135900500Y-92714824D01*
X135867246Y-92504868D01*
X135801557Y-92302699D01*
X135705051Y-92113295D01*
X135705049Y-92113292D01*
X135705048Y-92113290D01*
X135580109Y-91941324D01*
X135429786Y-91791001D01*
X135257820Y-91666062D01*
X135068414Y-91569555D01*
X135068413Y-91569554D01*
X135068412Y-91569554D01*
X135061875Y-91567430D01*
X135004202Y-91527994D01*
X134977003Y-91463635D01*
X134988917Y-91394789D01*
X135036161Y-91343313D01*
X135100195Y-91325500D01*
X135789548Y-91325500D01*
X135856587Y-91345185D01*
X135877229Y-91361819D01*
X136688181Y-92172771D01*
X136721666Y-92234094D01*
X136724500Y-92260452D01*
X136724500Y-97676203D01*
X136724500Y-97799417D01*
X136724500Y-97799418D01*
X136724499Y-97799418D01*
X136726097Y-97807450D01*
X136748535Y-97920253D01*
X136748538Y-97920265D01*
X136749394Y-97922331D01*
X136795685Y-98034091D01*
X136795687Y-98034094D01*
X136795688Y-98034096D01*
X136827401Y-98081557D01*
X136864142Y-98136543D01*
X136951267Y-98223668D01*
X136951270Y-98223670D01*
X136958677Y-98231077D01*
X143123206Y-104395606D01*
X143123235Y-104395637D01*
X143213454Y-104485856D01*
X143213457Y-104485858D01*
X143264680Y-104520084D01*
X143315904Y-104554312D01*
X143396397Y-104587652D01*
X143429738Y-104601463D01*
X143490161Y-104613481D01*
X143550583Y-104625500D01*
X143550584Y-104625500D01*
X151801738Y-104625500D01*
X151868777Y-104645185D01*
X151889419Y-104661819D01*
X153681776Y-106454176D01*
X153715261Y-106515499D01*
X153718095Y-106541857D01*
X153718095Y-107378256D01*
X153698410Y-107445295D01*
X153645606Y-107491050D01*
X153576448Y-107500994D01*
X153512892Y-107471969D01*
X153475118Y-107413191D01*
X153471622Y-107397655D01*
X153470457Y-107390302D01*
X153470457Y-107390300D01*
X153413085Y-107213729D01*
X153328799Y-107048307D01*
X153219672Y-106898107D01*
X153088393Y-106766828D01*
X152938193Y-106657701D01*
X152772771Y-106573415D01*
X152596200Y-106516043D01*
X152596198Y-106516042D01*
X152596196Y-106516042D01*
X152412834Y-106487000D01*
X152412829Y-106487000D01*
X152227171Y-106487000D01*
X152227166Y-106487000D01*
X152043803Y-106516042D01*
X151867226Y-106573416D01*
X151701806Y-106657701D01*
X151649781Y-106695500D01*
X151551607Y-106766828D01*
X151551605Y-106766830D01*
X151551604Y-106766830D01*
X151420330Y-106898104D01*
X151420330Y-106898105D01*
X151420328Y-106898107D01*
X151407483Y-106915787D01*
X151311201Y-107048306D01*
X151226916Y-107213726D01*
X151169542Y-107390303D01*
X151140500Y-107573665D01*
X151140500Y-107759334D01*
X151158802Y-107874886D01*
X151169543Y-107942700D01*
X151226915Y-108119271D01*
X151311201Y-108284693D01*
X151420328Y-108434893D01*
X151551607Y-108566172D01*
X151701807Y-108675299D01*
X151867229Y-108759585D01*
X152043800Y-108816957D01*
X152043802Y-108816957D01*
X152048433Y-108818462D01*
X152047726Y-108820635D01*
X152100129Y-108850748D01*
X152132271Y-108912786D01*
X152125771Y-108982352D01*
X152082692Y-109037361D01*
X152047999Y-109053204D01*
X152048433Y-109054538D01*
X152043802Y-109056042D01*
X152043800Y-109056043D01*
X151867229Y-109113415D01*
X151867226Y-109113416D01*
X151701806Y-109197701D01*
X151616111Y-109259962D01*
X151551607Y-109306828D01*
X151551605Y-109306830D01*
X151551604Y-109306830D01*
X151420330Y-109438104D01*
X151420330Y-109438105D01*
X151420328Y-109438107D01*
X151373462Y-109502611D01*
X151311201Y-109588306D01*
X151226916Y-109753726D01*
X151169542Y-109930303D01*
X151140500Y-110113665D01*
X151140500Y-110299334D01*
X151158802Y-110414886D01*
X151169543Y-110482700D01*
X151226915Y-110659271D01*
X151311201Y-110824693D01*
X151420328Y-110974893D01*
X151551607Y-111106172D01*
X151701807Y-111215299D01*
X151867229Y-111299585D01*
X152043800Y-111356957D01*
X152043802Y-111356957D01*
X152048433Y-111358462D01*
X152047726Y-111360635D01*
X152100129Y-111390748D01*
X152132271Y-111452786D01*
X152125771Y-111522352D01*
X152082692Y-111577361D01*
X152047999Y-111593204D01*
X152048433Y-111594538D01*
X152043802Y-111596042D01*
X152043800Y-111596043D01*
X151869513Y-111652673D01*
X151867226Y-111653416D01*
X151701806Y-111737701D01*
X151616111Y-111799962D01*
X151551607Y-111846828D01*
X151551605Y-111846830D01*
X151551604Y-111846830D01*
X151420330Y-111978104D01*
X151420330Y-111978105D01*
X151420328Y-111978107D01*
X151373462Y-112042611D01*
X151311201Y-112128306D01*
X151226916Y-112293726D01*
X151169542Y-112470303D01*
X151140500Y-112653665D01*
X151140500Y-112839334D01*
X151169542Y-113022696D01*
X151169543Y-113022700D01*
X151226915Y-113199271D01*
X151311201Y-113364693D01*
X151420328Y-113514893D01*
X151551607Y-113646172D01*
X151701807Y-113755299D01*
X151867229Y-113839585D01*
X152043800Y-113896957D01*
X152043802Y-113896957D01*
X152048433Y-113898462D01*
X152047726Y-113900635D01*
X152100129Y-113930748D01*
X152132271Y-113992786D01*
X152125771Y-114062352D01*
X152082692Y-114117361D01*
X152047999Y-114133204D01*
X152048433Y-114134538D01*
X152043802Y-114136042D01*
X152043800Y-114136043D01*
X151867229Y-114193415D01*
X151867226Y-114193416D01*
X151701806Y-114277701D01*
X151616111Y-114339962D01*
X151551607Y-114386828D01*
X151551605Y-114386830D01*
X151551604Y-114386830D01*
X151420330Y-114518104D01*
X151420330Y-114518105D01*
X151420328Y-114518107D01*
X151373462Y-114582611D01*
X151311201Y-114668306D01*
X151226916Y-114833726D01*
X151169542Y-115010303D01*
X151140500Y-115193665D01*
X151140500Y-115379334D01*
X151169542Y-115562696D01*
X151169543Y-115562700D01*
X151220059Y-115718172D01*
X151226916Y-115739273D01*
X151229435Y-115744217D01*
X151311201Y-115904693D01*
X151420328Y-116054893D01*
X151551607Y-116186172D01*
X151701807Y-116295299D01*
X151867229Y-116379585D01*
X152043800Y-116436957D01*
X152043802Y-116436957D01*
X152048433Y-116438462D01*
X152047726Y-116440635D01*
X152100129Y-116470748D01*
X152132271Y-116532786D01*
X152125771Y-116602352D01*
X152082692Y-116657361D01*
X152047999Y-116673204D01*
X152048433Y-116674538D01*
X152043802Y-116676042D01*
X152043800Y-116676043D01*
X151869513Y-116732673D01*
X151867226Y-116733416D01*
X151701806Y-116817701D01*
X151626373Y-116872507D01*
X151551607Y-116926828D01*
X151551605Y-116926830D01*
X151551604Y-116926830D01*
X151420330Y-117058104D01*
X151420330Y-117058105D01*
X151420328Y-117058107D01*
X151410028Y-117072284D01*
X151311201Y-117208306D01*
X151226916Y-117373726D01*
X151169542Y-117550303D01*
X151140500Y-117733665D01*
X151140500Y-117919330D01*
X151140499Y-117919332D01*
X151165559Y-118077548D01*
X151169543Y-118102700D01*
X151226915Y-118279271D01*
X151311201Y-118444693D01*
X151420328Y-118594893D01*
X151551607Y-118726172D01*
X151701807Y-118835299D01*
X151867229Y-118919585D01*
X152043800Y-118976957D01*
X152043802Y-118976957D01*
X152048433Y-118978462D01*
X152047726Y-118980635D01*
X152100129Y-119010748D01*
X152132271Y-119072786D01*
X152125771Y-119142352D01*
X152082692Y-119197361D01*
X152047999Y-119213204D01*
X152048433Y-119214538D01*
X152043802Y-119216042D01*
X152043800Y-119216043D01*
X151867229Y-119273415D01*
X151867226Y-119273416D01*
X151701806Y-119357701D01*
X151616111Y-119419962D01*
X151551607Y-119466828D01*
X151551605Y-119466830D01*
X151551604Y-119466830D01*
X151420330Y-119598104D01*
X151420330Y-119598105D01*
X151420328Y-119598107D01*
X151381707Y-119651264D01*
X151311201Y-119748306D01*
X151226916Y-119913726D01*
X151169542Y-120090303D01*
X151140500Y-120273665D01*
X151140500Y-120459334D01*
X151169542Y-120642696D01*
X151169543Y-120642700D01*
X151226915Y-120819271D01*
X151311201Y-120984693D01*
X151420328Y-121134893D01*
X151551607Y-121266172D01*
X151701807Y-121375299D01*
X151867229Y-121459585D01*
X151945665Y-121485070D01*
X152003338Y-121524506D01*
X152030537Y-121588864D01*
X152018623Y-121657711D01*
X151971379Y-121709187D01*
X151907345Y-121727000D01*
X151593130Y-121727000D01*
X151593123Y-121727001D01*
X151533516Y-121733408D01*
X151398671Y-121783702D01*
X151398664Y-121783706D01*
X151283455Y-121869952D01*
X151283452Y-121869955D01*
X151197206Y-121985164D01*
X151197202Y-121985171D01*
X151146908Y-122120017D01*
X151140501Y-122179616D01*
X151140501Y-122179623D01*
X151140500Y-122179635D01*
X151140500Y-123633370D01*
X151140501Y-123633376D01*
X151146908Y-123692983D01*
X151197202Y-123827828D01*
X151197206Y-123827835D01*
X151283452Y-123943044D01*
X151283455Y-123943047D01*
X151398664Y-124029293D01*
X151398671Y-124029297D01*
X151533517Y-124079591D01*
X151533516Y-124079591D01*
X151540444Y-124080335D01*
X151593127Y-124086000D01*
X153046872Y-124085999D01*
X153106483Y-124079591D01*
X153241331Y-124029296D01*
X153356546Y-123943046D01*
X153442796Y-123827831D01*
X153493091Y-123692983D01*
X153499500Y-123633373D01*
X153499499Y-122179628D01*
X153493091Y-122120017D01*
X153450874Y-122006828D01*
X153442797Y-121985171D01*
X153442793Y-121985164D01*
X153356547Y-121869955D01*
X153356544Y-121869952D01*
X153241335Y-121783706D01*
X153241328Y-121783702D01*
X153106482Y-121733408D01*
X153106483Y-121733408D01*
X153046883Y-121727001D01*
X153046881Y-121727000D01*
X153046873Y-121727000D01*
X153046865Y-121727000D01*
X152732656Y-121727000D01*
X152665617Y-121707315D01*
X152619862Y-121654511D01*
X152609918Y-121585353D01*
X152638943Y-121521797D01*
X152694335Y-121485070D01*
X152772771Y-121459585D01*
X152938193Y-121375299D01*
X153088393Y-121266172D01*
X153219672Y-121134893D01*
X153328799Y-120984693D01*
X153413085Y-120819271D01*
X153470457Y-120642700D01*
X153483365Y-120561201D01*
X153499500Y-120459334D01*
X153499500Y-120273665D01*
X153470457Y-120090303D01*
X153470457Y-120090300D01*
X153413085Y-119913729D01*
X153328799Y-119748307D01*
X153219672Y-119598107D01*
X153088393Y-119466828D01*
X152938193Y-119357701D01*
X152772771Y-119273415D01*
X152596200Y-119216043D01*
X152596197Y-119216042D01*
X152591567Y-119214538D01*
X152592277Y-119212352D01*
X152539914Y-119182297D01*
X152507740Y-119120276D01*
X152514205Y-119050706D01*
X152557256Y-118995676D01*
X152592004Y-118979807D01*
X152591567Y-118978462D01*
X152596197Y-118976957D01*
X152596200Y-118976957D01*
X152772771Y-118919585D01*
X152938193Y-118835299D01*
X153088393Y-118726172D01*
X153219672Y-118594893D01*
X153328799Y-118444693D01*
X153413085Y-118279271D01*
X153470457Y-118102700D01*
X153495342Y-117945582D01*
X153499500Y-117919332D01*
X153499500Y-117733665D01*
X153479989Y-117610485D01*
X153470457Y-117550300D01*
X153413085Y-117373729D01*
X153328799Y-117208307D01*
X153219672Y-117058107D01*
X153088393Y-116926828D01*
X152938193Y-116817701D01*
X152772771Y-116733415D01*
X152596200Y-116676043D01*
X152596197Y-116676042D01*
X152591567Y-116674538D01*
X152592277Y-116672352D01*
X152539914Y-116642297D01*
X152507740Y-116580276D01*
X152514205Y-116510706D01*
X152557256Y-116455676D01*
X152592004Y-116439807D01*
X152591567Y-116438462D01*
X152596197Y-116436957D01*
X152596200Y-116436957D01*
X152772771Y-116379585D01*
X152938193Y-116295299D01*
X153088393Y-116186172D01*
X153219672Y-116054893D01*
X153328799Y-115904693D01*
X153413085Y-115739271D01*
X153470457Y-115562700D01*
X153486600Y-115460776D01*
X153499500Y-115379334D01*
X153499500Y-115193665D01*
X153479989Y-115070485D01*
X153470457Y-115010300D01*
X153413085Y-114833729D01*
X153328799Y-114668307D01*
X153219672Y-114518107D01*
X153088393Y-114386828D01*
X152938193Y-114277701D01*
X152772771Y-114193415D01*
X152596200Y-114136043D01*
X152596197Y-114136042D01*
X152591567Y-114134538D01*
X152592277Y-114132352D01*
X152539914Y-114102297D01*
X152507740Y-114040276D01*
X152514205Y-113970706D01*
X152557256Y-113915676D01*
X152592004Y-113899807D01*
X152591567Y-113898462D01*
X152596197Y-113896957D01*
X152596200Y-113896957D01*
X152772771Y-113839585D01*
X152938193Y-113755299D01*
X153088393Y-113646172D01*
X153219672Y-113514893D01*
X153328799Y-113364693D01*
X153413085Y-113199271D01*
X153470457Y-113022700D01*
X153483365Y-112941201D01*
X153499500Y-112839334D01*
X153499500Y-112653665D01*
X153479989Y-112530485D01*
X153470457Y-112470300D01*
X153413085Y-112293729D01*
X153328799Y-112128307D01*
X153219672Y-111978107D01*
X153088393Y-111846828D01*
X152938193Y-111737701D01*
X152772771Y-111653415D01*
X152596200Y-111596043D01*
X152596197Y-111596042D01*
X152591567Y-111594538D01*
X152592277Y-111592352D01*
X152539914Y-111562297D01*
X152507740Y-111500276D01*
X152514205Y-111430706D01*
X152557256Y-111375676D01*
X152592004Y-111359807D01*
X152591567Y-111358462D01*
X152596197Y-111356957D01*
X152596200Y-111356957D01*
X152772771Y-111299585D01*
X152938193Y-111215299D01*
X153088393Y-111106172D01*
X153219672Y-110974893D01*
X153328799Y-110824693D01*
X153413085Y-110659271D01*
X153470457Y-110482700D01*
X153471622Y-110475346D01*
X153501551Y-110412211D01*
X153560862Y-110375279D01*
X153630725Y-110376277D01*
X153688958Y-110414886D01*
X153717072Y-110478850D01*
X153718095Y-110494743D01*
X153718095Y-111095206D01*
X153742130Y-111216039D01*
X153742135Y-111216056D01*
X153789280Y-111329875D01*
X153789282Y-111329878D01*
X153789283Y-111329881D01*
X153823510Y-111381104D01*
X153857737Y-111432328D01*
X153944862Y-111519453D01*
X153944865Y-111519455D01*
X153952149Y-111526739D01*
X155728287Y-113302877D01*
X155761772Y-113364200D01*
X155763079Y-113409955D01*
X155734500Y-113590402D01*
X155734500Y-113789596D01*
X155765661Y-113986340D01*
X155765661Y-113986343D01*
X155827213Y-114175780D01*
X155827215Y-114175783D01*
X155917647Y-114353266D01*
X156034731Y-114514418D01*
X156175582Y-114655269D01*
X156336734Y-114772353D01*
X156406453Y-114807877D01*
X156488172Y-114849515D01*
X156538968Y-114897490D01*
X156555763Y-114965311D01*
X156533225Y-115031446D01*
X156488172Y-115070485D01*
X156336733Y-115147647D01*
X156244790Y-115214447D01*
X156175582Y-115264731D01*
X156175580Y-115264733D01*
X156175579Y-115264733D01*
X156034733Y-115405579D01*
X156034733Y-115405580D01*
X156034731Y-115405582D01*
X155994630Y-115460776D01*
X155917647Y-115566733D01*
X155827213Y-115744219D01*
X155765661Y-115933656D01*
X155765661Y-115933659D01*
X155746459Y-116054895D01*
X155734500Y-116130403D01*
X155734500Y-116329597D01*
X155738125Y-116352483D01*
X155765661Y-116526340D01*
X155765661Y-116526343D01*
X155827213Y-116715780D01*
X155836199Y-116733415D01*
X155917647Y-116893266D01*
X156034731Y-117054418D01*
X156175582Y-117195269D01*
X156336734Y-117312353D01*
X156406453Y-117347877D01*
X156488172Y-117389515D01*
X156538968Y-117437490D01*
X156555763Y-117505311D01*
X156533225Y-117571446D01*
X156488172Y-117610485D01*
X156336733Y-117687647D01*
X156244790Y-117754447D01*
X156175582Y-117804731D01*
X156175580Y-117804733D01*
X156175579Y-117804733D01*
X156034733Y-117945579D01*
X156034733Y-117945580D01*
X156034731Y-117945582D01*
X156021557Y-117963715D01*
X155917647Y-118106733D01*
X155827213Y-118284219D01*
X155765661Y-118473656D01*
X155765661Y-118473659D01*
X155734500Y-118670403D01*
X155734500Y-118869596D01*
X155765661Y-119066340D01*
X155765661Y-119066343D01*
X155827213Y-119255780D01*
X155827215Y-119255783D01*
X155917647Y-119433266D01*
X156034731Y-119594418D01*
X156175582Y-119735269D01*
X156336734Y-119852353D01*
X156467713Y-119919090D01*
X156514219Y-119942786D01*
X156703657Y-120004338D01*
X156703658Y-120004338D01*
X156703661Y-120004339D01*
X156900403Y-120035500D01*
X156900404Y-120035500D01*
X157099596Y-120035500D01*
X157099597Y-120035500D01*
X157296339Y-120004339D01*
X157296342Y-120004338D01*
X157296343Y-120004338D01*
X157485780Y-119942786D01*
X157485780Y-119942785D01*
X157485783Y-119942785D01*
X157663266Y-119852353D01*
X157824418Y-119735269D01*
X157965269Y-119594418D01*
X158082353Y-119433266D01*
X158172785Y-119255783D01*
X158186186Y-119214538D01*
X158234338Y-119066343D01*
X158234338Y-119066342D01*
X158234339Y-119066339D01*
X158265500Y-118869597D01*
X158265500Y-118670403D01*
X158234339Y-118473661D01*
X158234338Y-118473657D01*
X158234338Y-118473656D01*
X158172786Y-118284219D01*
X158082352Y-118106733D01*
X158061148Y-118077548D01*
X157965269Y-117945582D01*
X157824418Y-117804731D01*
X157663266Y-117687647D01*
X157511827Y-117610485D01*
X157461031Y-117562510D01*
X157444236Y-117494689D01*
X157466773Y-117428554D01*
X157511827Y-117389515D01*
X157521116Y-117384781D01*
X157663266Y-117312353D01*
X157824418Y-117195269D01*
X157965269Y-117054418D01*
X158082353Y-116893266D01*
X158172785Y-116715783D01*
X158186186Y-116674538D01*
X158234338Y-116526343D01*
X158234338Y-116526342D01*
X158234339Y-116526339D01*
X158265500Y-116329597D01*
X158265500Y-116130403D01*
X158234339Y-115933661D01*
X158234338Y-115933657D01*
X158234338Y-115933656D01*
X158172786Y-115744219D01*
X158141495Y-115682807D01*
X158082353Y-115566734D01*
X157965269Y-115405582D01*
X157824418Y-115264731D01*
X157663266Y-115147647D01*
X157511827Y-115070485D01*
X157461031Y-115022510D01*
X157444236Y-114954689D01*
X157466773Y-114888554D01*
X157511827Y-114849515D01*
X157521116Y-114844781D01*
X157663266Y-114772353D01*
X157824418Y-114655269D01*
X157965269Y-114514418D01*
X158082353Y-114353266D01*
X158172785Y-114175783D01*
X158186186Y-114134538D01*
X158234338Y-113986343D01*
X158234338Y-113986342D01*
X158234339Y-113986339D01*
X158265500Y-113789597D01*
X158265500Y-113590403D01*
X158234339Y-113393661D01*
X158234338Y-113393657D01*
X158234338Y-113393656D01*
X158172786Y-113204219D01*
X158082352Y-113026733D01*
X158079419Y-113022696D01*
X157965269Y-112865582D01*
X157824418Y-112724731D01*
X157663266Y-112607647D01*
X157511827Y-112530485D01*
X157461031Y-112482510D01*
X157444236Y-112414689D01*
X157466773Y-112348554D01*
X157511827Y-112309515D01*
X157521116Y-112304781D01*
X157663266Y-112232353D01*
X157824418Y-112115269D01*
X157965269Y-111974418D01*
X158082353Y-111813266D01*
X158172785Y-111635783D01*
X158186186Y-111594538D01*
X158234338Y-111446343D01*
X158234338Y-111446342D01*
X158234339Y-111446339D01*
X158265500Y-111249597D01*
X158265500Y-111050403D01*
X158234339Y-110853661D01*
X158234338Y-110853657D01*
X158234338Y-110853656D01*
X158172786Y-110664219D01*
X158159514Y-110638172D01*
X158082353Y-110486734D01*
X157965269Y-110325582D01*
X157824418Y-110184731D01*
X157663266Y-110067647D01*
X157511827Y-109990485D01*
X157461031Y-109942510D01*
X157444236Y-109874689D01*
X157466773Y-109808554D01*
X157511827Y-109769515D01*
X157521116Y-109764781D01*
X157663266Y-109692353D01*
X157824418Y-109575269D01*
X157965269Y-109434418D01*
X158082353Y-109273266D01*
X158172785Y-109095783D01*
X158186186Y-109054538D01*
X158234338Y-108906343D01*
X158234338Y-108906342D01*
X158234339Y-108906339D01*
X158265500Y-108709597D01*
X158265500Y-108510403D01*
X158234339Y-108313661D01*
X158234338Y-108313657D01*
X158234338Y-108313656D01*
X158172786Y-108124219D01*
X158159514Y-108098172D01*
X158082353Y-107946734D01*
X157965269Y-107785582D01*
X157824418Y-107644731D01*
X157663266Y-107527647D01*
X157511827Y-107450485D01*
X157461031Y-107402510D01*
X157444236Y-107334689D01*
X157466773Y-107268554D01*
X157511827Y-107229515D01*
X157521116Y-107224781D01*
X157663266Y-107152353D01*
X157824418Y-107035269D01*
X157965269Y-106894418D01*
X158082353Y-106733266D01*
X158172785Y-106555783D01*
X158234339Y-106366339D01*
X158265500Y-106169597D01*
X158265500Y-105970403D01*
X158234339Y-105773661D01*
X158234338Y-105773657D01*
X158234338Y-105773656D01*
X158172786Y-105584219D01*
X158172785Y-105584217D01*
X158082353Y-105406734D01*
X157965269Y-105245582D01*
X157824418Y-105104731D01*
X157663266Y-104987647D01*
X157511827Y-104910485D01*
X157461031Y-104862510D01*
X157444236Y-104794689D01*
X157466773Y-104728554D01*
X157511827Y-104689515D01*
X157566183Y-104661819D01*
X157663266Y-104612353D01*
X157824418Y-104495269D01*
X157965269Y-104354418D01*
X158082353Y-104193266D01*
X158172785Y-104015783D01*
X158185140Y-103977758D01*
X158234338Y-103826343D01*
X158234338Y-103826342D01*
X158234339Y-103826339D01*
X158265500Y-103629597D01*
X158265500Y-103430403D01*
X158234339Y-103233661D01*
X158234338Y-103233657D01*
X158234338Y-103233656D01*
X158172786Y-103044219D01*
X158150469Y-103000420D01*
X158082353Y-102866734D01*
X157965269Y-102705582D01*
X157824418Y-102564731D01*
X157663266Y-102447647D01*
X157511827Y-102370485D01*
X157461031Y-102322510D01*
X157444236Y-102254689D01*
X157466773Y-102188554D01*
X157511827Y-102149515D01*
X157521116Y-102144781D01*
X157663266Y-102072353D01*
X157824418Y-101955269D01*
X157965269Y-101814418D01*
X158082353Y-101653266D01*
X158172785Y-101475783D01*
X158183491Y-101442833D01*
X158234338Y-101286343D01*
X158234338Y-101286342D01*
X158234339Y-101286339D01*
X158265500Y-101089597D01*
X158265500Y-100890403D01*
X158234339Y-100693661D01*
X158234338Y-100693657D01*
X158234338Y-100693656D01*
X158172786Y-100504219D01*
X158082352Y-100326733D01*
X157965269Y-100165582D01*
X157824418Y-100024731D01*
X157663266Y-99907647D01*
X157511827Y-99830485D01*
X157461031Y-99782510D01*
X157444236Y-99714689D01*
X157466773Y-99648554D01*
X157511827Y-99609515D01*
X157542683Y-99593793D01*
X157663266Y-99532353D01*
X157824418Y-99415269D01*
X157965269Y-99274418D01*
X158082353Y-99113266D01*
X158172785Y-98935783D01*
X158186188Y-98894534D01*
X158234338Y-98746343D01*
X158234338Y-98746342D01*
X158234339Y-98746339D01*
X158265500Y-98549597D01*
X158265500Y-98487648D01*
X162229500Y-98487648D01*
X162229500Y-98692351D01*
X162261522Y-98894534D01*
X162324781Y-99089223D01*
X162417715Y-99271613D01*
X162538028Y-99437213D01*
X162682786Y-99581971D01*
X162823686Y-99684339D01*
X162848390Y-99702287D01*
X162953142Y-99755661D01*
X163030776Y-99795218D01*
X163030778Y-99795218D01*
X163030781Y-99795220D01*
X163098475Y-99817215D01*
X163225465Y-99858477D01*
X163326557Y-99874488D01*
X163427648Y-99890500D01*
X163427649Y-99890500D01*
X163632351Y-99890500D01*
X163632352Y-99890500D01*
X163834534Y-99858477D01*
X164029219Y-99795220D01*
X164211610Y-99702287D01*
X164339301Y-99609515D01*
X164377213Y-99581971D01*
X164377215Y-99581968D01*
X164377219Y-99581966D01*
X164521966Y-99437219D01*
X164521968Y-99437215D01*
X164521971Y-99437213D01*
X164640245Y-99274420D01*
X164642287Y-99271610D01*
X164735220Y-99089219D01*
X164798477Y-98894534D01*
X164830500Y-98692352D01*
X164830500Y-98487648D01*
X164798477Y-98285465D01*
X164755649Y-98153656D01*
X164735220Y-98090781D01*
X164735218Y-98090778D01*
X164735218Y-98090776D01*
X164691901Y-98005763D01*
X164642287Y-97908390D01*
X164607209Y-97860109D01*
X164521971Y-97742786D01*
X164377213Y-97598028D01*
X164211613Y-97477715D01*
X164211612Y-97477714D01*
X164211610Y-97477713D01*
X164154653Y-97448691D01*
X164029223Y-97384781D01*
X163834534Y-97321522D01*
X163645926Y-97291650D01*
X163632352Y-97289500D01*
X163427648Y-97289500D01*
X163414074Y-97291650D01*
X163225465Y-97321522D01*
X163030776Y-97384781D01*
X162848386Y-97477715D01*
X162682786Y-97598028D01*
X162538028Y-97742786D01*
X162417715Y-97908386D01*
X162324781Y-98090776D01*
X162261522Y-98285465D01*
X162229500Y-98487648D01*
X158265500Y-98487648D01*
X158265500Y-98350403D01*
X158234339Y-98153661D01*
X158234338Y-98153657D01*
X158234338Y-98153656D01*
X158172786Y-97964219D01*
X158151443Y-97922331D01*
X158082353Y-97786734D01*
X157965269Y-97625582D01*
X157824418Y-97484731D01*
X157663266Y-97367647D01*
X157591169Y-97330912D01*
X157511827Y-97290485D01*
X157461031Y-97242510D01*
X157444236Y-97174689D01*
X157466773Y-97108554D01*
X157511827Y-97069515D01*
X157553183Y-97048443D01*
X157663266Y-96992353D01*
X157824418Y-96875269D01*
X157965269Y-96734418D01*
X158082353Y-96573266D01*
X158172785Y-96395783D01*
X158234339Y-96206339D01*
X158265500Y-96009597D01*
X158265500Y-95810403D01*
X158243264Y-95670013D01*
X167270000Y-95670013D01*
X167270000Y-96020000D01*
X168254314Y-96020000D01*
X168249920Y-96024394D01*
X168197259Y-96115606D01*
X168170000Y-96217339D01*
X168170000Y-96322661D01*
X168197259Y-96424394D01*
X168249920Y-96515606D01*
X168254314Y-96520000D01*
X167270001Y-96520000D01*
X167270001Y-96869986D01*
X167280494Y-96972697D01*
X167335641Y-97139119D01*
X167335643Y-97139124D01*
X167427684Y-97288345D01*
X167551654Y-97412315D01*
X167700875Y-97504356D01*
X167700880Y-97504358D01*
X167867302Y-97559505D01*
X167867309Y-97559506D01*
X167970019Y-97569999D01*
X168319999Y-97569999D01*
X168320000Y-97569998D01*
X168320000Y-96585686D01*
X168324394Y-96590080D01*
X168415606Y-96642741D01*
X168517339Y-96670000D01*
X168622661Y-96670000D01*
X168724394Y-96642741D01*
X168815606Y-96590080D01*
X168820000Y-96585686D01*
X168820000Y-97569999D01*
X169169972Y-97569999D01*
X169169986Y-97569998D01*
X169272697Y-97559505D01*
X169439119Y-97504358D01*
X169439124Y-97504356D01*
X169588345Y-97412315D01*
X169657112Y-97343549D01*
X169718435Y-97310064D01*
X169788127Y-97315048D01*
X169817674Y-97330909D01*
X169888390Y-97382287D01*
X169927344Y-97402135D01*
X170070776Y-97475218D01*
X170070778Y-97475218D01*
X170070781Y-97475220D01*
X170160459Y-97504358D01*
X170265465Y-97538477D01*
X170366557Y-97554488D01*
X170467648Y-97570500D01*
X170467649Y-97570500D01*
X170672351Y-97570500D01*
X170672352Y-97570500D01*
X170874534Y-97538477D01*
X171069219Y-97475220D01*
X171251610Y-97382287D01*
X171351017Y-97310064D01*
X171417213Y-97261971D01*
X171417215Y-97261968D01*
X171417219Y-97261966D01*
X171561966Y-97117219D01*
X171561968Y-97117215D01*
X171561971Y-97117213D01*
X171614732Y-97044590D01*
X171682287Y-96951610D01*
X171775220Y-96769219D01*
X171838477Y-96574534D01*
X171870500Y-96372352D01*
X171870500Y-96167648D01*
X171862257Y-96115606D01*
X171838477Y-95965465D01*
X171784678Y-95799890D01*
X171775220Y-95770781D01*
X171775218Y-95770778D01*
X171775218Y-95770776D01*
X171723876Y-95670013D01*
X171682287Y-95588390D01*
X171648076Y-95541302D01*
X171561971Y-95422786D01*
X171417213Y-95278028D01*
X171251613Y-95157715D01*
X171251612Y-95157714D01*
X171251610Y-95157713D01*
X171192675Y-95127684D01*
X171069223Y-95064781D01*
X170874534Y-95001522D01*
X170699995Y-94973878D01*
X170672352Y-94969500D01*
X170467648Y-94969500D01*
X170443329Y-94973351D01*
X170265465Y-95001522D01*
X170070776Y-95064781D01*
X169888391Y-95157712D01*
X169888389Y-95157713D01*
X169817676Y-95209088D01*
X169751869Y-95232567D01*
X169683815Y-95216740D01*
X169657111Y-95196450D01*
X169588345Y-95127684D01*
X169439124Y-95035643D01*
X169439119Y-95035641D01*
X169272697Y-94980494D01*
X169272690Y-94980493D01*
X169169986Y-94970000D01*
X168820000Y-94970000D01*
X168820000Y-95954314D01*
X168815606Y-95949920D01*
X168724394Y-95897259D01*
X168622661Y-95870000D01*
X168517339Y-95870000D01*
X168415606Y-95897259D01*
X168324394Y-95949920D01*
X168320000Y-95954314D01*
X168320000Y-94970000D01*
X167970028Y-94970000D01*
X167970012Y-94970001D01*
X167867302Y-94980494D01*
X167700880Y-95035641D01*
X167700875Y-95035643D01*
X167551654Y-95127684D01*
X167427684Y-95251654D01*
X167335643Y-95400875D01*
X167335641Y-95400880D01*
X167280494Y-95567302D01*
X167280493Y-95567309D01*
X167270000Y-95670013D01*
X158243264Y-95670013D01*
X158234339Y-95613661D01*
X158234338Y-95613657D01*
X158234338Y-95613656D01*
X158172786Y-95424219D01*
X158090039Y-95261819D01*
X158082353Y-95246734D01*
X157965269Y-95085582D01*
X157824418Y-94944731D01*
X157663266Y-94827647D01*
X157511827Y-94750485D01*
X157461031Y-94702510D01*
X157444236Y-94634689D01*
X157466773Y-94568554D01*
X157511827Y-94529515D01*
X157521116Y-94524781D01*
X157663266Y-94452353D01*
X157824418Y-94335269D01*
X157965269Y-94194418D01*
X158082353Y-94033266D01*
X158172785Y-93855783D01*
X158180827Y-93831031D01*
X158234338Y-93666343D01*
X158234338Y-93666342D01*
X158234339Y-93666339D01*
X158262641Y-93487648D01*
X162229500Y-93487648D01*
X162229500Y-93692352D01*
X162230854Y-93700903D01*
X162261522Y-93894534D01*
X162324781Y-94089223D01*
X162417715Y-94271613D01*
X162538028Y-94437213D01*
X162682786Y-94581971D01*
X162811742Y-94675661D01*
X162848390Y-94702287D01*
X162942984Y-94750485D01*
X163030776Y-94795218D01*
X163030778Y-94795218D01*
X163030781Y-94795220D01*
X163130581Y-94827647D01*
X163225465Y-94858477D01*
X163326557Y-94874488D01*
X163427648Y-94890500D01*
X163427649Y-94890500D01*
X163632351Y-94890500D01*
X163632352Y-94890500D01*
X163834534Y-94858477D01*
X164029219Y-94795220D01*
X164211610Y-94702287D01*
X164346425Y-94604339D01*
X164377213Y-94581971D01*
X164377215Y-94581968D01*
X164377219Y-94581966D01*
X164521966Y-94437219D01*
X164521968Y-94437215D01*
X164521971Y-94437213D01*
X164596036Y-94335269D01*
X164642287Y-94271610D01*
X164735220Y-94089219D01*
X164798477Y-93894534D01*
X164830500Y-93692352D01*
X164830500Y-93487648D01*
X164815554Y-93393285D01*
X164798477Y-93285465D01*
X164735218Y-93090776D01*
X164701503Y-93024607D01*
X164642287Y-92908390D01*
X164624726Y-92884219D01*
X164521971Y-92742786D01*
X164377213Y-92598028D01*
X164211613Y-92477715D01*
X164211612Y-92477714D01*
X164211610Y-92477713D01*
X164121024Y-92431557D01*
X164029223Y-92384781D01*
X163834534Y-92321522D01*
X163659995Y-92293878D01*
X163632352Y-92289500D01*
X163427648Y-92289500D01*
X163403329Y-92293351D01*
X163225465Y-92321522D01*
X163030776Y-92384781D01*
X162848386Y-92477715D01*
X162682786Y-92598028D01*
X162538028Y-92742786D01*
X162417715Y-92908386D01*
X162324781Y-93090776D01*
X162261522Y-93285465D01*
X162232395Y-93469370D01*
X162229500Y-93487648D01*
X158262641Y-93487648D01*
X158265500Y-93469597D01*
X158265500Y-93270403D01*
X158234339Y-93073661D01*
X158234338Y-93073657D01*
X158234338Y-93073656D01*
X158172786Y-92884219D01*
X158100722Y-92742786D01*
X158082353Y-92706734D01*
X157965269Y-92545582D01*
X157824418Y-92404731D01*
X157663266Y-92287647D01*
X157511827Y-92210485D01*
X157461031Y-92162510D01*
X157444236Y-92094689D01*
X157466773Y-92028554D01*
X157511827Y-91989515D01*
X157521116Y-91984781D01*
X157663266Y-91912353D01*
X157824418Y-91795269D01*
X157965269Y-91654418D01*
X158082353Y-91493266D01*
X158172785Y-91315783D01*
X158182369Y-91286287D01*
X158234338Y-91126343D01*
X158234338Y-91126342D01*
X158234339Y-91126339D01*
X158265500Y-90929597D01*
X158265500Y-90730403D01*
X158234339Y-90533661D01*
X158234338Y-90533657D01*
X158234338Y-90533656D01*
X158172786Y-90344219D01*
X158140374Y-90280607D01*
X158092573Y-90186793D01*
X158079678Y-90118126D01*
X158105954Y-90053385D01*
X158163060Y-90013128D01*
X158203059Y-90006500D01*
X159368417Y-90006500D01*
X159428839Y-89994481D01*
X159489262Y-89982463D01*
X159522602Y-89968652D01*
X159603096Y-89935312D01*
X159654319Y-89901084D01*
X159705543Y-89866858D01*
X159792668Y-89779733D01*
X159796988Y-89775413D01*
X159796997Y-89775402D01*
X163220265Y-86352135D01*
X165321500Y-86352135D01*
X165321500Y-88447870D01*
X165321501Y-88447876D01*
X165327908Y-88507483D01*
X165378202Y-88642328D01*
X165378206Y-88642335D01*
X165464452Y-88757544D01*
X165464455Y-88757547D01*
X165579664Y-88843793D01*
X165579671Y-88843797D01*
X165714517Y-88894091D01*
X165714516Y-88894091D01*
X165721444Y-88894835D01*
X165774127Y-88900500D01*
X167774872Y-88900499D01*
X167834483Y-88894091D01*
X167969331Y-88843796D01*
X168084546Y-88757546D01*
X168170796Y-88642331D01*
X168181190Y-88614460D01*
X168223060Y-88558527D01*
X168288523Y-88534108D01*
X168356797Y-88548958D01*
X168370246Y-88557465D01*
X168552962Y-88690217D01*
X168704674Y-88767518D01*
X168756744Y-88794049D01*
X168974251Y-88864721D01*
X168974252Y-88864721D01*
X168974255Y-88864722D01*
X169200146Y-88900500D01*
X169200147Y-88900500D01*
X169428853Y-88900500D01*
X169428854Y-88900500D01*
X169654745Y-88864722D01*
X169654748Y-88864721D01*
X169654749Y-88864721D01*
X169872255Y-88794049D01*
X169872255Y-88794048D01*
X169872258Y-88794048D01*
X170076038Y-88690217D01*
X170261066Y-88555786D01*
X170422786Y-88394066D01*
X170484492Y-88309134D01*
X170539819Y-88266470D01*
X170609432Y-88260491D01*
X170671227Y-88293096D01*
X170685126Y-88309135D01*
X170746597Y-88393741D01*
X170746597Y-88393742D01*
X170908257Y-88555402D01*
X171093223Y-88689788D01*
X171296929Y-88793582D01*
X171514371Y-88864234D01*
X171604500Y-88878509D01*
X171604500Y-87890747D01*
X171642208Y-87912518D01*
X171782091Y-87950000D01*
X171926909Y-87950000D01*
X172066792Y-87912518D01*
X172104500Y-87890747D01*
X172104500Y-88878508D01*
X172194628Y-88864234D01*
X172412070Y-88793582D01*
X172615776Y-88689788D01*
X172800742Y-88555402D01*
X172962402Y-88393742D01*
X173096788Y-88208776D01*
X173200582Y-88005070D01*
X173271234Y-87787628D01*
X173293032Y-87650000D01*
X172345248Y-87650000D01*
X172367018Y-87612292D01*
X172404500Y-87472409D01*
X172404500Y-87327591D01*
X172367018Y-87187708D01*
X172345248Y-87150000D01*
X173293032Y-87150000D01*
X173271234Y-87012371D01*
X173200582Y-86794929D01*
X173096788Y-86591223D01*
X172962402Y-86406257D01*
X172800742Y-86244597D01*
X172615776Y-86110211D01*
X172412068Y-86006417D01*
X172194624Y-85935765D01*
X172104500Y-85921490D01*
X172104500Y-86909252D01*
X172066792Y-86887482D01*
X171926909Y-86850000D01*
X171782091Y-86850000D01*
X171642208Y-86887482D01*
X171604500Y-86909252D01*
X171604500Y-85921490D01*
X171604499Y-85921490D01*
X171514375Y-85935765D01*
X171296931Y-86006417D01*
X171093223Y-86110211D01*
X170908257Y-86244597D01*
X170746597Y-86406257D01*
X170685127Y-86490864D01*
X170629797Y-86533529D01*
X170560184Y-86539508D01*
X170498389Y-86506902D01*
X170484491Y-86490864D01*
X170422786Y-86405934D01*
X170261066Y-86244214D01*
X170076038Y-86109783D01*
X169872255Y-86005950D01*
X169654748Y-85935278D01*
X169469312Y-85905908D01*
X169428854Y-85899500D01*
X169200146Y-85899500D01*
X169159688Y-85905908D01*
X168974253Y-85935278D01*
X168974250Y-85935278D01*
X168756744Y-86005950D01*
X168552961Y-86109783D01*
X168431875Y-86197758D01*
X168379543Y-86235780D01*
X168370259Y-86242525D01*
X168304452Y-86266005D01*
X168236398Y-86250180D01*
X168187703Y-86200074D01*
X168181190Y-86185538D01*
X168170796Y-86157669D01*
X168170793Y-86157664D01*
X168084547Y-86042455D01*
X168084544Y-86042452D01*
X167969335Y-85956206D01*
X167969328Y-85956202D01*
X167834482Y-85905908D01*
X167834483Y-85905908D01*
X167774883Y-85899501D01*
X167774881Y-85899500D01*
X167774873Y-85899500D01*
X167774864Y-85899500D01*
X165774129Y-85899500D01*
X165774123Y-85899501D01*
X165714516Y-85905908D01*
X165579671Y-85956202D01*
X165579664Y-85956206D01*
X165464455Y-86042452D01*
X165464452Y-86042455D01*
X165378206Y-86157664D01*
X165378202Y-86157671D01*
X165327908Y-86292517D01*
X165321501Y-86352116D01*
X165321500Y-86352135D01*
X163220265Y-86352135D01*
X173185582Y-76386819D01*
X173246905Y-76353334D01*
X173273263Y-76350500D01*
X178785110Y-76350500D01*
X178852149Y-76370185D01*
X178885428Y-76401614D01*
X178894729Y-76414416D01*
X178894731Y-76414418D01*
X179035582Y-76555269D01*
X179196734Y-76672353D01*
X179266453Y-76707877D01*
X179348172Y-76749515D01*
X179398968Y-76797490D01*
X179415763Y-76865311D01*
X179393225Y-76931446D01*
X179348172Y-76970485D01*
X179196733Y-77047647D01*
X179104790Y-77114447D01*
X179035582Y-77164731D01*
X179035580Y-77164733D01*
X179035579Y-77164733D01*
X178894733Y-77305579D01*
X178894733Y-77305580D01*
X178894731Y-77305582D01*
X178859329Y-77354309D01*
X178777647Y-77466733D01*
X178687213Y-77644219D01*
X178625661Y-77833656D01*
X178625661Y-77833659D01*
X178594500Y-78030403D01*
X178594500Y-78229596D01*
X178625661Y-78426340D01*
X178625661Y-78426343D01*
X178687213Y-78615780D01*
X178687215Y-78615783D01*
X178777647Y-78793266D01*
X178894731Y-78954418D01*
X179035582Y-79095269D01*
X179196734Y-79212353D01*
X179266453Y-79247877D01*
X179348172Y-79289515D01*
X179398968Y-79337490D01*
X179415763Y-79405311D01*
X179393225Y-79471446D01*
X179348172Y-79510485D01*
X179196733Y-79587647D01*
X179104790Y-79654447D01*
X179035582Y-79704731D01*
X179035580Y-79704733D01*
X179035579Y-79704733D01*
X178894733Y-79845579D01*
X178894733Y-79845580D01*
X178894731Y-79845582D01*
X178845729Y-79913028D01*
X178777647Y-80006733D01*
X178687213Y-80184219D01*
X178625661Y-80373656D01*
X178625661Y-80373659D01*
X178594500Y-80570403D01*
X178594500Y-80769596D01*
X178625661Y-80966340D01*
X178625661Y-80966343D01*
X178687213Y-81155780D01*
X178724593Y-81229142D01*
X178777647Y-81333266D01*
X178894731Y-81494418D01*
X179035582Y-81635269D01*
X179196734Y-81752353D01*
X179266453Y-81787877D01*
X179348172Y-81829515D01*
X179398968Y-81877490D01*
X179415763Y-81945311D01*
X179393225Y-82011446D01*
X179348172Y-82050485D01*
X179196733Y-82127647D01*
X179104790Y-82194447D01*
X179035582Y-82244731D01*
X179035580Y-82244733D01*
X179035579Y-82244733D01*
X178894733Y-82385579D01*
X178894733Y-82385580D01*
X178894731Y-82385582D01*
X178844447Y-82454790D01*
X178777647Y-82546733D01*
X178687213Y-82724219D01*
X178625661Y-82913656D01*
X178625661Y-82913659D01*
X178594500Y-83110403D01*
X178594500Y-83309596D01*
X178625661Y-83506340D01*
X178625661Y-83506343D01*
X178687213Y-83695780D01*
X178758404Y-83835500D01*
X178777647Y-83873266D01*
X178894731Y-84034418D01*
X179035582Y-84175269D01*
X179196734Y-84292353D01*
X179266453Y-84327877D01*
X179348172Y-84369515D01*
X179398968Y-84417490D01*
X179415763Y-84485311D01*
X179393225Y-84551446D01*
X179348172Y-84590485D01*
X179196733Y-84667647D01*
X179147330Y-84703541D01*
X179035582Y-84784731D01*
X179035580Y-84784733D01*
X179035579Y-84784733D01*
X178894733Y-84925579D01*
X178894733Y-84925580D01*
X178894731Y-84925582D01*
X178863659Y-84968349D01*
X178777647Y-85086733D01*
X178687213Y-85264219D01*
X178625661Y-85453656D01*
X178625661Y-85453659D01*
X178594500Y-85650403D01*
X178594500Y-85849596D01*
X178625661Y-86046340D01*
X178625661Y-86046343D01*
X178687213Y-86235780D01*
X178746495Y-86352127D01*
X178777647Y-86413266D01*
X178894731Y-86574418D01*
X179035582Y-86715269D01*
X179196734Y-86832353D01*
X179266453Y-86867877D01*
X179348172Y-86909515D01*
X179398968Y-86957490D01*
X179415763Y-87025311D01*
X179393225Y-87091446D01*
X179348172Y-87130485D01*
X179196733Y-87207647D01*
X179104790Y-87274447D01*
X179035582Y-87324731D01*
X179035580Y-87324733D01*
X179035579Y-87324733D01*
X178894733Y-87465579D01*
X178894733Y-87465580D01*
X178894731Y-87465582D01*
X178889771Y-87472409D01*
X178777647Y-87626733D01*
X178687213Y-87804219D01*
X178625661Y-87993656D01*
X178625661Y-87993659D01*
X178619394Y-88033227D01*
X178594500Y-88190403D01*
X178594500Y-88389597D01*
X178600345Y-88426502D01*
X178625661Y-88586340D01*
X178625661Y-88586343D01*
X178687213Y-88775780D01*
X178739556Y-88878508D01*
X178777647Y-88953266D01*
X178894731Y-89114418D01*
X179035582Y-89255269D01*
X179196734Y-89372353D01*
X179266453Y-89407877D01*
X179348172Y-89449515D01*
X179398968Y-89497490D01*
X179415763Y-89565311D01*
X179393225Y-89631446D01*
X179348172Y-89670485D01*
X179196733Y-89747647D01*
X179152571Y-89779733D01*
X179035582Y-89864731D01*
X179035580Y-89864733D01*
X179035579Y-89864733D01*
X178894733Y-90005579D01*
X178894733Y-90005580D01*
X178894731Y-90005582D01*
X178880660Y-90024949D01*
X178777647Y-90166733D01*
X178687213Y-90344219D01*
X178625661Y-90533656D01*
X178625661Y-90533659D01*
X178594500Y-90730403D01*
X178594500Y-90929596D01*
X178625661Y-91126340D01*
X178625661Y-91126343D01*
X178687213Y-91315780D01*
X178729101Y-91397989D01*
X178777647Y-91493266D01*
X178894731Y-91654418D01*
X179035582Y-91795269D01*
X179196734Y-91912353D01*
X179247120Y-91938026D01*
X179348172Y-91989515D01*
X179398968Y-92037490D01*
X179415763Y-92105311D01*
X179393225Y-92171446D01*
X179348172Y-92210485D01*
X179196733Y-92287647D01*
X179131492Y-92335048D01*
X179035582Y-92404731D01*
X179035580Y-92404733D01*
X179035579Y-92404733D01*
X178894733Y-92545579D01*
X178894733Y-92545580D01*
X178894731Y-92545582D01*
X178856942Y-92597594D01*
X178777647Y-92706733D01*
X178687213Y-92884219D01*
X178625661Y-93073656D01*
X178625661Y-93073659D01*
X178594500Y-93270403D01*
X178594500Y-93469596D01*
X178625661Y-93666340D01*
X178625661Y-93666343D01*
X178687213Y-93855780D01*
X178748551Y-93976162D01*
X178777647Y-94033266D01*
X178894731Y-94194418D01*
X179035582Y-94335269D01*
X179196734Y-94452353D01*
X179266453Y-94487877D01*
X179348172Y-94529515D01*
X179398968Y-94577490D01*
X179415763Y-94645311D01*
X179393225Y-94711446D01*
X179348172Y-94750485D01*
X179196733Y-94827647D01*
X179154300Y-94858477D01*
X179035582Y-94944731D01*
X179035580Y-94944733D01*
X179035579Y-94944733D01*
X178894733Y-95085579D01*
X178894733Y-95085580D01*
X178894731Y-95085582D01*
X178864142Y-95127684D01*
X178777647Y-95246733D01*
X178687213Y-95424219D01*
X178625661Y-95613656D01*
X178625661Y-95613659D01*
X178594500Y-95810403D01*
X178594500Y-96009596D01*
X178625661Y-96206340D01*
X178625661Y-96206343D01*
X178687213Y-96395780D01*
X178747325Y-96513755D01*
X178777647Y-96573266D01*
X178894731Y-96734418D01*
X179035582Y-96875269D01*
X179196734Y-96992353D01*
X179264770Y-97027019D01*
X179348172Y-97069515D01*
X179398968Y-97117490D01*
X179415763Y-97185311D01*
X179393225Y-97251446D01*
X179348172Y-97290485D01*
X179196733Y-97367647D01*
X179124390Y-97420208D01*
X179035582Y-97484731D01*
X179035580Y-97484733D01*
X179035579Y-97484733D01*
X178894733Y-97625579D01*
X178894733Y-97625580D01*
X178894731Y-97625582D01*
X178879898Y-97645998D01*
X178777647Y-97786733D01*
X178687213Y-97964219D01*
X178625661Y-98153656D01*
X178625661Y-98153659D01*
X178594500Y-98350403D01*
X178594500Y-98549596D01*
X178625661Y-98746340D01*
X178625661Y-98746343D01*
X178687213Y-98935780D01*
X178765394Y-99089219D01*
X178777647Y-99113266D01*
X178894731Y-99274418D01*
X179035582Y-99415269D01*
X179196734Y-99532353D01*
X179234424Y-99551557D01*
X179348172Y-99609515D01*
X179398968Y-99657490D01*
X179415763Y-99725311D01*
X179393225Y-99791446D01*
X179348172Y-99830485D01*
X179196733Y-99907647D01*
X179104790Y-99974447D01*
X179035582Y-100024731D01*
X179035580Y-100024733D01*
X179035579Y-100024733D01*
X178894733Y-100165579D01*
X178894733Y-100165580D01*
X178894731Y-100165582D01*
X178844447Y-100234790D01*
X178777647Y-100326733D01*
X178687213Y-100504219D01*
X178625661Y-100693656D01*
X178625661Y-100693659D01*
X178594500Y-100890403D01*
X178594500Y-101089596D01*
X178625661Y-101286340D01*
X178625661Y-101286343D01*
X178687213Y-101475780D01*
X178743264Y-101585785D01*
X178777647Y-101653266D01*
X178894731Y-101814418D01*
X179035582Y-101955269D01*
X179196734Y-102072353D01*
X179222570Y-102085517D01*
X179348172Y-102149515D01*
X179398968Y-102197490D01*
X179415763Y-102265311D01*
X179393225Y-102331446D01*
X179348172Y-102370485D01*
X179196733Y-102447647D01*
X179156209Y-102477090D01*
X179035582Y-102564731D01*
X179035580Y-102564733D01*
X179035579Y-102564733D01*
X178894733Y-102705579D01*
X178894733Y-102705580D01*
X178894731Y-102705582D01*
X178844447Y-102774790D01*
X178777647Y-102866733D01*
X178687213Y-103044219D01*
X178625661Y-103233656D01*
X178625661Y-103233659D01*
X178613293Y-103311747D01*
X178594500Y-103430403D01*
X178594500Y-103629597D01*
X178604258Y-103691205D01*
X178625661Y-103826340D01*
X178625661Y-103826343D01*
X178687213Y-104015780D01*
X178723568Y-104087130D01*
X178777647Y-104193266D01*
X178894731Y-104354418D01*
X179035582Y-104495269D01*
X179196734Y-104612353D01*
X179261171Y-104645185D01*
X179348172Y-104689515D01*
X179398968Y-104737490D01*
X179415763Y-104805311D01*
X179393225Y-104871446D01*
X179348172Y-104910485D01*
X179196733Y-104987647D01*
X179104790Y-105054447D01*
X179035582Y-105104731D01*
X179035580Y-105104733D01*
X179035579Y-105104733D01*
X178894733Y-105245579D01*
X178894733Y-105245580D01*
X178894731Y-105245582D01*
X178844447Y-105314790D01*
X178777647Y-105406733D01*
X178687213Y-105584219D01*
X178625661Y-105773656D01*
X178625661Y-105773659D01*
X178594500Y-105970403D01*
X178594500Y-106169596D01*
X178625661Y-106366340D01*
X178625661Y-106366343D01*
X178687213Y-106555780D01*
X178687215Y-106555783D01*
X178777647Y-106733266D01*
X178894731Y-106894418D01*
X179035582Y-107035269D01*
X179196734Y-107152353D01*
X179266453Y-107187877D01*
X179348172Y-107229515D01*
X179398968Y-107277490D01*
X179415763Y-107345311D01*
X179393225Y-107411446D01*
X179348172Y-107450485D01*
X179196733Y-107527647D01*
X179104790Y-107594447D01*
X179035582Y-107644731D01*
X179035580Y-107644733D01*
X179035579Y-107644733D01*
X178894733Y-107785579D01*
X178894733Y-107785580D01*
X178894731Y-107785582D01*
X178873167Y-107815262D01*
X178777647Y-107946733D01*
X178687213Y-108124219D01*
X178625661Y-108313656D01*
X178625661Y-108313659D01*
X178605718Y-108439576D01*
X178594500Y-108510403D01*
X178594500Y-108709597D01*
X178610080Y-108807968D01*
X178625661Y-108906340D01*
X178625661Y-108906343D01*
X178687213Y-109095780D01*
X178739145Y-109197701D01*
X178777647Y-109273266D01*
X178894731Y-109434418D01*
X179035582Y-109575269D01*
X179196734Y-109692353D01*
X179266453Y-109727877D01*
X179348172Y-109769515D01*
X179398968Y-109817490D01*
X179415763Y-109885311D01*
X179393225Y-109951446D01*
X179348172Y-109990485D01*
X179196733Y-110067647D01*
X179104790Y-110134447D01*
X179035582Y-110184731D01*
X179035580Y-110184733D01*
X179035579Y-110184733D01*
X178894733Y-110325579D01*
X178894733Y-110325580D01*
X178894731Y-110325582D01*
X178858624Y-110375279D01*
X178777647Y-110486733D01*
X178687213Y-110664219D01*
X178625661Y-110853656D01*
X178625661Y-110853659D01*
X178594500Y-111050403D01*
X178594500Y-111249596D01*
X178625661Y-111446340D01*
X178625661Y-111446343D01*
X178687213Y-111635780D01*
X178696199Y-111653415D01*
X178777647Y-111813266D01*
X178894731Y-111974418D01*
X179035582Y-112115269D01*
X179196734Y-112232353D01*
X179266453Y-112267877D01*
X179348172Y-112309515D01*
X179398968Y-112357490D01*
X179415763Y-112425311D01*
X179393225Y-112491446D01*
X179348172Y-112530485D01*
X179196733Y-112607647D01*
X179104790Y-112674447D01*
X179035582Y-112724731D01*
X179035580Y-112724733D01*
X179035579Y-112724733D01*
X178894733Y-112865579D01*
X178894733Y-112865580D01*
X178894731Y-112865582D01*
X178844447Y-112934790D01*
X178777647Y-113026733D01*
X178687213Y-113204219D01*
X178625661Y-113393656D01*
X178625661Y-113393659D01*
X178594500Y-113590403D01*
X178594500Y-113789596D01*
X178625661Y-113986340D01*
X178625661Y-113986343D01*
X178687213Y-114175780D01*
X178687215Y-114175783D01*
X178777647Y-114353266D01*
X178894731Y-114514418D01*
X179035582Y-114655269D01*
X179196734Y-114772353D01*
X179266453Y-114807877D01*
X179348172Y-114849515D01*
X179398968Y-114897490D01*
X179415763Y-114965311D01*
X179393225Y-115031446D01*
X179348172Y-115070485D01*
X179196733Y-115147647D01*
X179104790Y-115214447D01*
X179035582Y-115264731D01*
X179035580Y-115264733D01*
X179035579Y-115264733D01*
X178894733Y-115405579D01*
X178894733Y-115405580D01*
X178894731Y-115405582D01*
X178854630Y-115460776D01*
X178777647Y-115566733D01*
X178687213Y-115744219D01*
X178625661Y-115933656D01*
X178625661Y-115933659D01*
X178606459Y-116054895D01*
X178594500Y-116130403D01*
X178594500Y-116329597D01*
X178598125Y-116352483D01*
X178625661Y-116526340D01*
X178625661Y-116526343D01*
X178687213Y-116715780D01*
X178696199Y-116733415D01*
X178777647Y-116893266D01*
X178894731Y-117054418D01*
X179035582Y-117195269D01*
X179196734Y-117312353D01*
X179266453Y-117347877D01*
X179348172Y-117389515D01*
X179398968Y-117437490D01*
X179415763Y-117505311D01*
X179393225Y-117571446D01*
X179348172Y-117610485D01*
X179196733Y-117687647D01*
X179104790Y-117754447D01*
X179035582Y-117804731D01*
X179035580Y-117804733D01*
X179035579Y-117804733D01*
X178894733Y-117945579D01*
X178894733Y-117945580D01*
X178894731Y-117945582D01*
X178881557Y-117963715D01*
X178777647Y-118106733D01*
X178687213Y-118284219D01*
X178625661Y-118473656D01*
X178625661Y-118473659D01*
X178594500Y-118670403D01*
X178594500Y-118869596D01*
X178625661Y-119066340D01*
X178625661Y-119066343D01*
X178687213Y-119255780D01*
X178687215Y-119255783D01*
X178777647Y-119433266D01*
X178894731Y-119594418D01*
X179035582Y-119735269D01*
X179196734Y-119852353D01*
X179327713Y-119919090D01*
X179374219Y-119942786D01*
X179563657Y-120004338D01*
X179563658Y-120004338D01*
X179563661Y-120004339D01*
X179760403Y-120035500D01*
X179760404Y-120035500D01*
X179959596Y-120035500D01*
X179959597Y-120035500D01*
X180156339Y-120004339D01*
X180156342Y-120004338D01*
X180156343Y-120004338D01*
X180345780Y-119942786D01*
X180345780Y-119942785D01*
X180345783Y-119942785D01*
X180523266Y-119852353D01*
X180684418Y-119735269D01*
X180825269Y-119594418D01*
X180942353Y-119433266D01*
X181019515Y-119281827D01*
X181067490Y-119231031D01*
X181135311Y-119214236D01*
X181201446Y-119236773D01*
X181240485Y-119281827D01*
X181317647Y-119433266D01*
X181434731Y-119594418D01*
X181575582Y-119735269D01*
X181736734Y-119852353D01*
X181867713Y-119919090D01*
X181914219Y-119942786D01*
X182103657Y-120004338D01*
X182103658Y-120004338D01*
X182103661Y-120004339D01*
X182300403Y-120035500D01*
X182300404Y-120035500D01*
X182499596Y-120035500D01*
X182499597Y-120035500D01*
X182696339Y-120004339D01*
X182696342Y-120004338D01*
X182696343Y-120004338D01*
X182885780Y-119942786D01*
X182885780Y-119942785D01*
X182885783Y-119942785D01*
X183063266Y-119852353D01*
X183224418Y-119735269D01*
X183365269Y-119594418D01*
X183482353Y-119433266D01*
X183572785Y-119255783D01*
X183586186Y-119214538D01*
X183634338Y-119066343D01*
X183634338Y-119066342D01*
X183634339Y-119066339D01*
X183665500Y-118869597D01*
X183665500Y-118670403D01*
X183634339Y-118473661D01*
X183634338Y-118473657D01*
X183634338Y-118473656D01*
X183572786Y-118284219D01*
X183482352Y-118106733D01*
X183461148Y-118077548D01*
X183365269Y-117945582D01*
X183224418Y-117804731D01*
X183063266Y-117687647D01*
X182911827Y-117610485D01*
X182861031Y-117562510D01*
X182844236Y-117494689D01*
X182866773Y-117428554D01*
X182911827Y-117389515D01*
X182921116Y-117384781D01*
X183063266Y-117312353D01*
X183224418Y-117195269D01*
X183365269Y-117054418D01*
X183482353Y-116893266D01*
X183572785Y-116715783D01*
X183586186Y-116674538D01*
X183634338Y-116526343D01*
X183634338Y-116526342D01*
X183634339Y-116526339D01*
X183665500Y-116329597D01*
X183665500Y-116130403D01*
X183634339Y-115933661D01*
X183634338Y-115933657D01*
X183634338Y-115933656D01*
X183572786Y-115744219D01*
X183541495Y-115682807D01*
X183482353Y-115566734D01*
X183365269Y-115405582D01*
X183224418Y-115264731D01*
X183063266Y-115147647D01*
X182911827Y-115070485D01*
X182861031Y-115022510D01*
X182844236Y-114954689D01*
X182866773Y-114888554D01*
X182911827Y-114849515D01*
X182921116Y-114844781D01*
X183063266Y-114772353D01*
X183224418Y-114655269D01*
X183365269Y-114514418D01*
X183482353Y-114353266D01*
X183572785Y-114175783D01*
X183586186Y-114134538D01*
X183634338Y-113986343D01*
X183634338Y-113986342D01*
X183634339Y-113986339D01*
X183665500Y-113789597D01*
X183665500Y-113590403D01*
X183634339Y-113393661D01*
X183634338Y-113393657D01*
X183634338Y-113393656D01*
X183572786Y-113204219D01*
X183482352Y-113026733D01*
X183479419Y-113022696D01*
X183365269Y-112865582D01*
X183224418Y-112724731D01*
X183063266Y-112607647D01*
X182911827Y-112530485D01*
X182861031Y-112482510D01*
X182844236Y-112414689D01*
X182866773Y-112348554D01*
X182911827Y-112309515D01*
X182921116Y-112304781D01*
X183063266Y-112232353D01*
X183224418Y-112115269D01*
X183365269Y-111974418D01*
X183482353Y-111813266D01*
X183572785Y-111635783D01*
X183586186Y-111594538D01*
X183634338Y-111446343D01*
X183634338Y-111446342D01*
X183634339Y-111446339D01*
X183665500Y-111249597D01*
X183665500Y-111050403D01*
X183634339Y-110853661D01*
X183634338Y-110853657D01*
X183634338Y-110853656D01*
X183572786Y-110664219D01*
X183559514Y-110638172D01*
X183482353Y-110486734D01*
X183365269Y-110325582D01*
X183224418Y-110184731D01*
X183063266Y-110067647D01*
X182911827Y-109990485D01*
X182861031Y-109942510D01*
X182844236Y-109874689D01*
X182866773Y-109808554D01*
X182911827Y-109769515D01*
X182921116Y-109764781D01*
X183063266Y-109692353D01*
X183224418Y-109575269D01*
X183365269Y-109434418D01*
X183482353Y-109273266D01*
X183572785Y-109095783D01*
X183586186Y-109054538D01*
X183634338Y-108906343D01*
X183634338Y-108906342D01*
X183634339Y-108906339D01*
X183665500Y-108709597D01*
X183665500Y-108510403D01*
X183634339Y-108313661D01*
X183634338Y-108313657D01*
X183634338Y-108313656D01*
X183572786Y-108124219D01*
X183559514Y-108098172D01*
X183482353Y-107946734D01*
X183365269Y-107785582D01*
X183224418Y-107644731D01*
X183063266Y-107527647D01*
X182911827Y-107450485D01*
X182861031Y-107402510D01*
X182844236Y-107334689D01*
X182866773Y-107268554D01*
X182911827Y-107229515D01*
X182921116Y-107224781D01*
X183063266Y-107152353D01*
X183224418Y-107035269D01*
X183365269Y-106894418D01*
X183482353Y-106733266D01*
X183572785Y-106555783D01*
X183634339Y-106366339D01*
X183665500Y-106169597D01*
X183665500Y-105970403D01*
X183634339Y-105773661D01*
X183634338Y-105773657D01*
X183634338Y-105773656D01*
X183572786Y-105584219D01*
X183572785Y-105584217D01*
X183482353Y-105406734D01*
X183365269Y-105245582D01*
X183224418Y-105104731D01*
X183063266Y-104987647D01*
X182911827Y-104910485D01*
X182861031Y-104862510D01*
X182844236Y-104794689D01*
X182866773Y-104728554D01*
X182911827Y-104689515D01*
X182966183Y-104661819D01*
X183063266Y-104612353D01*
X183224418Y-104495269D01*
X183365269Y-104354418D01*
X183482353Y-104193266D01*
X183572785Y-104015783D01*
X183585140Y-103977758D01*
X183634338Y-103826343D01*
X183634338Y-103826342D01*
X183634339Y-103826339D01*
X183665500Y-103629597D01*
X183665500Y-103430403D01*
X183634339Y-103233661D01*
X183634338Y-103233657D01*
X183634338Y-103233656D01*
X183572786Y-103044219D01*
X183550469Y-103000420D01*
X183482353Y-102866734D01*
X183365269Y-102705582D01*
X183224418Y-102564731D01*
X183063266Y-102447647D01*
X182911827Y-102370485D01*
X182861031Y-102322510D01*
X182844236Y-102254689D01*
X182866773Y-102188554D01*
X182911827Y-102149515D01*
X182921116Y-102144781D01*
X183063266Y-102072353D01*
X183224418Y-101955269D01*
X183365269Y-101814418D01*
X183482353Y-101653266D01*
X183572785Y-101475783D01*
X183583491Y-101442833D01*
X183634338Y-101286343D01*
X183634338Y-101286342D01*
X183634339Y-101286339D01*
X183665500Y-101089597D01*
X183665500Y-100890403D01*
X183634339Y-100693661D01*
X183634338Y-100693657D01*
X183634338Y-100693656D01*
X183572786Y-100504219D01*
X183482352Y-100326733D01*
X183365269Y-100165582D01*
X183224418Y-100024731D01*
X183063266Y-99907647D01*
X182911827Y-99830485D01*
X182861031Y-99782510D01*
X182844236Y-99714689D01*
X182866773Y-99648554D01*
X182911827Y-99609515D01*
X182942683Y-99593793D01*
X183063266Y-99532353D01*
X183224418Y-99415269D01*
X183365269Y-99274418D01*
X183482353Y-99113266D01*
X183572785Y-98935783D01*
X183586188Y-98894534D01*
X183634338Y-98746343D01*
X183634338Y-98746342D01*
X183634339Y-98746339D01*
X183665500Y-98549597D01*
X183665500Y-98350403D01*
X183634339Y-98153661D01*
X183634338Y-98153657D01*
X183634338Y-98153656D01*
X183572786Y-97964219D01*
X183551443Y-97922331D01*
X183482353Y-97786734D01*
X183365269Y-97625582D01*
X183224418Y-97484731D01*
X183063266Y-97367647D01*
X182991169Y-97330912D01*
X182911827Y-97290485D01*
X182861031Y-97242510D01*
X182844236Y-97174689D01*
X182866773Y-97108554D01*
X182911827Y-97069515D01*
X182953183Y-97048443D01*
X183063266Y-96992353D01*
X183224418Y-96875269D01*
X183365269Y-96734418D01*
X183482353Y-96573266D01*
X183572785Y-96395783D01*
X183581699Y-96368349D01*
X183634338Y-96206343D01*
X183634338Y-96206342D01*
X183634339Y-96206339D01*
X183665500Y-96009597D01*
X183665500Y-95810403D01*
X183634339Y-95613661D01*
X183634338Y-95613657D01*
X183634338Y-95613656D01*
X183572786Y-95424219D01*
X183490039Y-95261819D01*
X183482353Y-95246734D01*
X183365269Y-95085582D01*
X183224418Y-94944731D01*
X183063266Y-94827647D01*
X182911827Y-94750485D01*
X182861031Y-94702510D01*
X182844236Y-94634689D01*
X182866773Y-94568554D01*
X182911827Y-94529515D01*
X182921116Y-94524781D01*
X183063266Y-94452353D01*
X183224418Y-94335269D01*
X183365269Y-94194418D01*
X183482353Y-94033266D01*
X183572785Y-93855783D01*
X183580827Y-93831031D01*
X183634338Y-93666343D01*
X183634338Y-93666342D01*
X183634339Y-93666339D01*
X183665500Y-93469597D01*
X183665500Y-93270403D01*
X183634339Y-93073661D01*
X183634338Y-93073657D01*
X183634338Y-93073656D01*
X183572786Y-92884219D01*
X183500722Y-92742786D01*
X183482353Y-92706734D01*
X183365269Y-92545582D01*
X183224418Y-92404731D01*
X183063266Y-92287647D01*
X182911827Y-92210485D01*
X182861031Y-92162510D01*
X182844236Y-92094689D01*
X182866773Y-92028554D01*
X182911827Y-91989515D01*
X182921116Y-91984781D01*
X183063266Y-91912353D01*
X183224418Y-91795269D01*
X183365269Y-91654418D01*
X183482353Y-91493266D01*
X183572785Y-91315783D01*
X183582369Y-91286287D01*
X183634338Y-91126343D01*
X183634338Y-91126342D01*
X183634339Y-91126339D01*
X183665500Y-90929597D01*
X183665500Y-90730403D01*
X183634339Y-90533661D01*
X183634338Y-90533657D01*
X183634338Y-90533656D01*
X183572786Y-90344219D01*
X183540374Y-90280607D01*
X183482353Y-90166734D01*
X183365269Y-90005582D01*
X183224418Y-89864731D01*
X183063266Y-89747647D01*
X182911827Y-89670485D01*
X182861031Y-89622510D01*
X182844236Y-89554689D01*
X182866773Y-89488554D01*
X182911827Y-89449515D01*
X182921116Y-89444781D01*
X183063266Y-89372353D01*
X183224418Y-89255269D01*
X183365269Y-89114418D01*
X183482353Y-88953266D01*
X183572785Y-88775783D01*
X183585771Y-88735815D01*
X183634338Y-88586343D01*
X183634338Y-88586342D01*
X183634339Y-88586339D01*
X183665500Y-88389597D01*
X183665500Y-88190403D01*
X183634339Y-87993661D01*
X183634338Y-87993657D01*
X183634338Y-87993656D01*
X183572786Y-87804219D01*
X183538897Y-87737708D01*
X183482353Y-87626734D01*
X183365269Y-87465582D01*
X183224418Y-87324731D01*
X183063266Y-87207647D01*
X182911827Y-87130485D01*
X182861031Y-87082510D01*
X182844236Y-87014689D01*
X182866773Y-86948554D01*
X182911827Y-86909515D01*
X182955069Y-86887482D01*
X183063266Y-86832353D01*
X183224418Y-86715269D01*
X183365269Y-86574418D01*
X183482353Y-86413266D01*
X183572785Y-86235783D01*
X183585140Y-86197758D01*
X183634338Y-86046343D01*
X183634338Y-86046342D01*
X183634339Y-86046339D01*
X183665500Y-85849597D01*
X183665500Y-85650403D01*
X183634339Y-85453661D01*
X183634338Y-85453657D01*
X183634338Y-85453656D01*
X183572786Y-85264219D01*
X183559514Y-85238172D01*
X183482353Y-85086734D01*
X183365269Y-84925582D01*
X183224418Y-84784731D01*
X183063266Y-84667647D01*
X182911827Y-84590485D01*
X182861031Y-84542510D01*
X182844236Y-84474689D01*
X182866773Y-84408554D01*
X182911827Y-84369515D01*
X182974328Y-84337669D01*
X183063266Y-84292353D01*
X183224418Y-84175269D01*
X183365269Y-84034418D01*
X183482353Y-83873266D01*
X183572785Y-83695783D01*
X183580827Y-83671031D01*
X183634338Y-83506343D01*
X183634338Y-83506342D01*
X183634339Y-83506339D01*
X183665500Y-83309597D01*
X183665500Y-83110403D01*
X183634339Y-82913661D01*
X183634338Y-82913657D01*
X183634338Y-82913656D01*
X183572786Y-82724219D01*
X183542174Y-82664140D01*
X183482353Y-82546734D01*
X183365269Y-82385582D01*
X183224418Y-82244731D01*
X183063266Y-82127647D01*
X183029060Y-82110218D01*
X182911827Y-82050485D01*
X182861031Y-82002510D01*
X182844236Y-81934689D01*
X182866773Y-81868554D01*
X182911827Y-81829515D01*
X182921116Y-81824781D01*
X183063266Y-81752353D01*
X183224418Y-81635269D01*
X183365269Y-81494418D01*
X183482353Y-81333266D01*
X183572785Y-81155783D01*
X183580827Y-81131031D01*
X183634338Y-80966343D01*
X183634338Y-80966342D01*
X183634339Y-80966339D01*
X183665500Y-80769597D01*
X183665500Y-80570403D01*
X183634339Y-80373661D01*
X183634338Y-80373657D01*
X183634338Y-80373656D01*
X183572786Y-80184219D01*
X183508365Y-80057786D01*
X183482353Y-80006734D01*
X183365269Y-79845582D01*
X183224418Y-79704731D01*
X183063266Y-79587647D01*
X182911827Y-79510485D01*
X182861031Y-79462510D01*
X182844236Y-79394689D01*
X182866773Y-79328554D01*
X182911827Y-79289515D01*
X182921116Y-79284781D01*
X183063266Y-79212353D01*
X183224418Y-79095269D01*
X183365269Y-78954418D01*
X183482353Y-78793266D01*
X183572785Y-78615783D01*
X183580827Y-78591031D01*
X183634338Y-78426343D01*
X183634338Y-78426342D01*
X183634339Y-78426339D01*
X183665500Y-78229597D01*
X183665500Y-78030403D01*
X183634339Y-77833661D01*
X183634338Y-77833657D01*
X183634338Y-77833656D01*
X183572786Y-77644219D01*
X183482352Y-77466733D01*
X183478782Y-77461819D01*
X183365269Y-77305582D01*
X183224418Y-77164731D01*
X183063266Y-77047647D01*
X182911827Y-76970485D01*
X182861031Y-76922510D01*
X182844236Y-76854689D01*
X182866773Y-76788554D01*
X182911827Y-76749515D01*
X182921116Y-76744781D01*
X183063266Y-76672353D01*
X183224418Y-76555269D01*
X183365269Y-76414418D01*
X183482353Y-76253266D01*
X183572785Y-76075783D01*
X183634339Y-75886339D01*
X183665500Y-75689597D01*
X183665500Y-75490403D01*
X183634339Y-75293661D01*
X183634338Y-75293657D01*
X183634338Y-75293656D01*
X183572786Y-75104219D01*
X183561766Y-75082591D01*
X183482353Y-74926734D01*
X183365269Y-74765582D01*
X183224418Y-74624731D01*
X183063266Y-74507647D01*
X182990934Y-74470792D01*
X182911827Y-74430485D01*
X182861031Y-74382510D01*
X182844236Y-74314689D01*
X182866773Y-74248554D01*
X182911827Y-74209515D01*
X182943468Y-74193393D01*
X183063266Y-74132353D01*
X183224418Y-74015269D01*
X183365269Y-73874418D01*
X183482353Y-73713266D01*
X183572785Y-73535783D01*
X183613116Y-73411658D01*
X183634338Y-73346343D01*
X183634338Y-73346342D01*
X183634339Y-73346339D01*
X183665500Y-73149597D01*
X183665500Y-72950403D01*
X183634339Y-72753661D01*
X183634338Y-72753657D01*
X183634338Y-72753656D01*
X183572786Y-72564219D01*
X183513843Y-72448537D01*
X183482353Y-72386734D01*
X183365269Y-72225582D01*
X183224418Y-72084731D01*
X183063266Y-71967647D01*
X182982673Y-71926583D01*
X182911827Y-71890485D01*
X182861031Y-71842510D01*
X182844236Y-71774689D01*
X182866773Y-71708554D01*
X182911827Y-71669515D01*
X182921116Y-71664781D01*
X183063266Y-71592353D01*
X183224418Y-71475269D01*
X183365269Y-71334418D01*
X183482353Y-71173266D01*
X183572785Y-70995783D01*
X183583311Y-70963387D01*
X183634338Y-70806343D01*
X183634338Y-70806342D01*
X183634339Y-70806339D01*
X183665500Y-70609597D01*
X183665500Y-70410403D01*
X183634339Y-70213661D01*
X183634338Y-70213657D01*
X183634338Y-70213656D01*
X183572786Y-70024219D01*
X183523035Y-69926577D01*
X183482353Y-69846734D01*
X183365269Y-69685582D01*
X183224418Y-69544731D01*
X183063266Y-69427647D01*
X182885783Y-69337215D01*
X182885781Y-69337214D01*
X182882387Y-69335485D01*
X182831591Y-69287511D01*
X182814796Y-69219690D01*
X182837333Y-69153555D01*
X182882387Y-69114515D01*
X182885781Y-69112785D01*
X182885783Y-69112785D01*
X183063266Y-69022353D01*
X183224418Y-68905269D01*
X183365269Y-68764418D01*
X183482353Y-68603266D01*
X183572785Y-68425783D01*
X183624591Y-68266340D01*
X183634338Y-68236343D01*
X183634338Y-68236342D01*
X183634339Y-68236339D01*
X183665500Y-68039597D01*
X183665500Y-67840403D01*
X183634339Y-67643661D01*
X183634338Y-67643657D01*
X183634338Y-67643656D01*
X183572786Y-67454219D01*
X183534633Y-67379340D01*
X183482353Y-67276734D01*
X183365269Y-67115582D01*
X183224418Y-66974731D01*
X183063266Y-66857647D01*
X182941265Y-66795484D01*
X182890470Y-66747510D01*
X182873675Y-66679689D01*
X182896212Y-66613555D01*
X182941266Y-66574515D01*
X183063266Y-66512353D01*
X183224418Y-66395269D01*
X183365269Y-66254418D01*
X183482353Y-66093266D01*
X183572785Y-65915783D01*
X183586097Y-65874812D01*
X183634338Y-65726343D01*
X183634338Y-65726342D01*
X183634339Y-65726339D01*
X183665500Y-65529597D01*
X183665500Y-65330403D01*
X183634339Y-65133661D01*
X183634338Y-65133657D01*
X183634338Y-65133656D01*
X183572786Y-64944219D01*
X183519503Y-64839646D01*
X183482353Y-64766734D01*
X183365269Y-64605582D01*
X183224418Y-64464731D01*
X183063266Y-64347647D01*
X182885780Y-64257213D01*
X182696342Y-64195661D01*
X182548782Y-64172290D01*
X182499597Y-64164500D01*
X182300403Y-64164500D01*
X182234822Y-64174887D01*
X182103659Y-64195661D01*
X182103656Y-64195661D01*
X181914219Y-64257213D01*
X181736733Y-64347647D01*
X181681677Y-64387648D01*
X181575582Y-64464731D01*
X181575580Y-64464733D01*
X181575579Y-64464733D01*
X181434733Y-64605579D01*
X181434733Y-64605580D01*
X181434731Y-64605582D01*
X181416546Y-64630612D01*
X181317647Y-64766733D01*
X181240485Y-64918172D01*
X181192510Y-64968968D01*
X181124689Y-64985763D01*
X181058554Y-64963225D01*
X181019515Y-64918172D01*
X180977877Y-64836453D01*
X180942353Y-64766734D01*
X180825269Y-64605582D01*
X180684418Y-64464731D01*
X180523266Y-64347647D01*
X180345780Y-64257213D01*
X180156342Y-64195661D01*
X180008782Y-64172290D01*
X179959597Y-64164500D01*
X179760403Y-64164500D01*
X179694822Y-64174887D01*
X179563659Y-64195661D01*
X179563656Y-64195661D01*
X179374219Y-64257213D01*
X179196733Y-64347647D01*
X179141677Y-64387648D01*
X179035582Y-64464731D01*
X179035580Y-64464733D01*
X179035579Y-64464733D01*
X178894733Y-64605579D01*
X178894733Y-64605580D01*
X178894731Y-64605582D01*
X178876546Y-64630612D01*
X178777647Y-64766733D01*
X178687213Y-64944219D01*
X178625661Y-65133656D01*
X178625661Y-65133659D01*
X178624780Y-65139223D01*
X178594500Y-65330403D01*
X178594500Y-65529597D01*
X178596012Y-65539142D01*
X178625661Y-65726340D01*
X178625661Y-65726343D01*
X178687213Y-65915780D01*
X178769521Y-66077317D01*
X178777647Y-66093266D01*
X178894731Y-66254418D01*
X179035582Y-66395269D01*
X179196734Y-66512353D01*
X179266453Y-66547877D01*
X179348172Y-66589515D01*
X179398968Y-66637490D01*
X179415763Y-66705311D01*
X179393225Y-66771446D01*
X179348172Y-66810485D01*
X179196733Y-66887647D01*
X179128366Y-66937319D01*
X179035582Y-67004731D01*
X179035580Y-67004733D01*
X179035579Y-67004733D01*
X178894733Y-67145579D01*
X178894733Y-67145580D01*
X178894731Y-67145582D01*
X178847673Y-67210352D01*
X178777647Y-67306733D01*
X178687213Y-67484219D01*
X178625661Y-67673656D01*
X178625661Y-67673659D01*
X178594500Y-67870403D01*
X178594500Y-68069596D01*
X178625661Y-68266340D01*
X178625661Y-68266343D01*
X178687213Y-68455780D01*
X178687215Y-68455783D01*
X178777647Y-68633266D01*
X178894731Y-68794418D01*
X179035582Y-68935269D01*
X179196734Y-69052353D01*
X179266453Y-69087877D01*
X179348172Y-69129515D01*
X179398968Y-69177490D01*
X179415763Y-69245311D01*
X179393225Y-69311446D01*
X179348172Y-69350485D01*
X179196733Y-69427647D01*
X179128793Y-69477009D01*
X179035582Y-69544731D01*
X179035580Y-69544733D01*
X179035579Y-69544733D01*
X178894733Y-69685579D01*
X178894733Y-69685580D01*
X178894731Y-69685582D01*
X178860881Y-69732173D01*
X178777647Y-69846733D01*
X178687213Y-70024219D01*
X178625661Y-70213656D01*
X178625661Y-70213659D01*
X178594500Y-70410403D01*
X178594500Y-70609597D01*
X178598736Y-70636344D01*
X178625661Y-70806340D01*
X178625661Y-70806343D01*
X178687213Y-70995780D01*
X178758404Y-71135500D01*
X178777647Y-71173266D01*
X178894731Y-71334418D01*
X179035582Y-71475269D01*
X179196734Y-71592353D01*
X179266453Y-71627877D01*
X179348172Y-71669515D01*
X179398968Y-71717490D01*
X179415763Y-71785311D01*
X179393225Y-71851446D01*
X179348172Y-71890485D01*
X179196733Y-71967647D01*
X179134325Y-72012990D01*
X179035582Y-72084731D01*
X179035580Y-72084733D01*
X179035579Y-72084733D01*
X178894733Y-72225579D01*
X178894733Y-72225580D01*
X178894731Y-72225582D01*
X178827712Y-72317826D01*
X178787345Y-72373386D01*
X178732015Y-72416051D01*
X178687027Y-72424500D01*
X174938389Y-72424500D01*
X174877971Y-72436518D01*
X174834743Y-72445116D01*
X174817546Y-72448537D01*
X174703716Y-72495687D01*
X174703707Y-72495692D01*
X174601268Y-72564140D01*
X174557705Y-72607703D01*
X174514142Y-72651267D01*
X174514139Y-72651270D01*
X167577763Y-79587647D01*
X160677229Y-86488181D01*
X160615906Y-86521666D01*
X160589548Y-86524500D01*
X158228026Y-86524500D01*
X158160987Y-86504815D01*
X158115232Y-86452011D01*
X158105288Y-86382853D01*
X158117541Y-86344205D01*
X158172785Y-86235783D01*
X158185140Y-86197758D01*
X158234338Y-86046343D01*
X158234338Y-86046342D01*
X158234339Y-86046339D01*
X158265500Y-85849597D01*
X158265500Y-85650403D01*
X158234339Y-85453661D01*
X158234338Y-85453657D01*
X158234338Y-85453656D01*
X158172786Y-85264219D01*
X158159514Y-85238172D01*
X158082353Y-85086734D01*
X157965269Y-84925582D01*
X157824418Y-84784731D01*
X157663266Y-84667647D01*
X157511827Y-84590485D01*
X157461031Y-84542510D01*
X157444236Y-84474689D01*
X157466773Y-84408554D01*
X157511827Y-84369515D01*
X157574328Y-84337669D01*
X157663266Y-84292353D01*
X157824418Y-84175269D01*
X157965269Y-84034418D01*
X158082353Y-83873266D01*
X158172785Y-83695783D01*
X158180827Y-83671031D01*
X158234338Y-83506343D01*
X158234338Y-83506342D01*
X158234339Y-83506339D01*
X158265500Y-83309597D01*
X158265500Y-83110403D01*
X158234339Y-82913661D01*
X158234338Y-82913657D01*
X158234338Y-82913656D01*
X158172786Y-82724219D01*
X158142174Y-82664140D01*
X158082353Y-82546734D01*
X157965269Y-82385582D01*
X157824418Y-82244731D01*
X157663266Y-82127647D01*
X157629060Y-82110218D01*
X157511827Y-82050485D01*
X157461031Y-82002510D01*
X157444236Y-81934689D01*
X157466773Y-81868554D01*
X157511827Y-81829515D01*
X157521116Y-81824781D01*
X157663266Y-81752353D01*
X157824418Y-81635269D01*
X157965269Y-81494418D01*
X158082353Y-81333266D01*
X158172785Y-81155783D01*
X158180827Y-81131031D01*
X158234338Y-80966343D01*
X158234338Y-80966342D01*
X158234339Y-80966339D01*
X158265500Y-80769597D01*
X158265500Y-80570403D01*
X158234339Y-80373661D01*
X158234338Y-80373657D01*
X158234338Y-80373656D01*
X158172786Y-80184219D01*
X158108365Y-80057786D01*
X158082353Y-80006734D01*
X157965269Y-79845582D01*
X157824418Y-79704731D01*
X157663266Y-79587647D01*
X157511827Y-79510485D01*
X157461031Y-79462510D01*
X157444236Y-79394689D01*
X157466773Y-79328554D01*
X157511827Y-79289515D01*
X157521116Y-79284781D01*
X157663266Y-79212353D01*
X157824418Y-79095269D01*
X157965269Y-78954418D01*
X158082353Y-78793266D01*
X158172785Y-78615783D01*
X158180827Y-78591031D01*
X158234338Y-78426343D01*
X158234338Y-78426342D01*
X158234339Y-78426339D01*
X158265500Y-78229597D01*
X158265500Y-78030403D01*
X158234339Y-77833661D01*
X158234338Y-77833657D01*
X158234338Y-77833656D01*
X158172786Y-77644219D01*
X158082352Y-77466733D01*
X158078782Y-77461819D01*
X157965269Y-77305582D01*
X157824418Y-77164731D01*
X157663266Y-77047647D01*
X157511827Y-76970485D01*
X157461031Y-76922510D01*
X157444236Y-76854689D01*
X157466773Y-76788554D01*
X157511827Y-76749515D01*
X157521116Y-76744781D01*
X157663266Y-76672353D01*
X157824418Y-76555269D01*
X157965269Y-76414418D01*
X158082353Y-76253266D01*
X158172785Y-76075783D01*
X158234339Y-75886339D01*
X158265500Y-75689597D01*
X158265500Y-75490403D01*
X158234339Y-75293661D01*
X158234338Y-75293657D01*
X158234338Y-75293656D01*
X158172786Y-75104219D01*
X158161766Y-75082591D01*
X158082353Y-74926734D01*
X157965269Y-74765582D01*
X157824418Y-74624731D01*
X157663266Y-74507647D01*
X157590934Y-74470792D01*
X157511827Y-74430485D01*
X157461031Y-74382510D01*
X157444236Y-74314689D01*
X157466773Y-74248554D01*
X157511827Y-74209515D01*
X157543468Y-74193393D01*
X157663266Y-74132353D01*
X157824418Y-74015269D01*
X157965269Y-73874418D01*
X158082353Y-73713266D01*
X158172785Y-73535783D01*
X158213116Y-73411658D01*
X158234338Y-73346343D01*
X158234338Y-73346342D01*
X158234339Y-73346339D01*
X158265500Y-73149597D01*
X158265500Y-72950403D01*
X158234339Y-72753661D01*
X158234338Y-72753657D01*
X158234338Y-72753656D01*
X158172786Y-72564219D01*
X158113843Y-72448537D01*
X158082353Y-72386734D01*
X157965269Y-72225582D01*
X157824418Y-72084731D01*
X157663266Y-71967647D01*
X157582673Y-71926583D01*
X157511827Y-71890485D01*
X157461031Y-71842510D01*
X157444236Y-71774689D01*
X157466773Y-71708554D01*
X157511827Y-71669515D01*
X157521116Y-71664781D01*
X157663266Y-71592353D01*
X157824418Y-71475269D01*
X157965269Y-71334418D01*
X158082353Y-71173266D01*
X158172785Y-70995783D01*
X158183311Y-70963387D01*
X158234338Y-70806343D01*
X158234338Y-70806342D01*
X158234339Y-70806339D01*
X158265500Y-70609597D01*
X158265500Y-70410403D01*
X158234339Y-70213661D01*
X158234338Y-70213657D01*
X158234338Y-70213656D01*
X158172786Y-70024219D01*
X158123035Y-69926577D01*
X158082353Y-69846734D01*
X157965269Y-69685582D01*
X157824418Y-69544731D01*
X157663266Y-69427647D01*
X157549332Y-69369595D01*
X157511827Y-69350485D01*
X157461031Y-69302510D01*
X157444236Y-69234689D01*
X157466773Y-69168554D01*
X157511827Y-69129515D01*
X157544865Y-69112681D01*
X157663266Y-69052353D01*
X157824418Y-68935269D01*
X157965269Y-68794418D01*
X158082353Y-68633266D01*
X158172785Y-68455783D01*
X158234339Y-68266339D01*
X158265500Y-68069597D01*
X158265500Y-67870403D01*
X158234339Y-67673661D01*
X158234338Y-67673657D01*
X158234338Y-67673656D01*
X158172786Y-67484219D01*
X158157499Y-67454217D01*
X158082353Y-67306734D01*
X157965269Y-67145582D01*
X157824418Y-67004731D01*
X157707543Y-66919816D01*
X157664878Y-66864487D01*
X157658899Y-66794874D01*
X157691505Y-66733079D01*
X157752343Y-66698722D01*
X157780428Y-66695499D01*
X157812872Y-66695499D01*
X157872483Y-66689091D01*
X158007331Y-66638796D01*
X158122546Y-66552546D01*
X158208796Y-66437331D01*
X158259091Y-66302483D01*
X158265500Y-66242873D01*
X158265499Y-64617128D01*
X158259091Y-64557517D01*
X158251680Y-64537648D01*
X158210079Y-64426109D01*
X158210078Y-64426107D01*
X158210078Y-64426105D01*
X158208797Y-64422672D01*
X158208797Y-64422671D01*
X158208796Y-64422669D01*
X158208794Y-64422666D01*
X158208793Y-64422664D01*
X158182580Y-64387648D01*
X160709500Y-64387648D01*
X160709500Y-64592352D01*
X160712899Y-64613811D01*
X160741522Y-64794534D01*
X160804781Y-64989223D01*
X160823011Y-65025000D01*
X160878374Y-65133656D01*
X160897715Y-65171613D01*
X161018028Y-65337213D01*
X161162786Y-65481971D01*
X161290832Y-65575000D01*
X161328390Y-65602287D01*
X161431688Y-65654920D01*
X161510776Y-65695218D01*
X161510778Y-65695218D01*
X161510781Y-65695220D01*
X161606568Y-65726343D01*
X161705465Y-65758477D01*
X161806557Y-65774488D01*
X161907648Y-65790500D01*
X161907649Y-65790500D01*
X162112351Y-65790500D01*
X162112352Y-65790500D01*
X162314534Y-65758477D01*
X162509219Y-65695220D01*
X162691610Y-65602287D01*
X162791661Y-65529596D01*
X162857213Y-65481971D01*
X162857215Y-65481968D01*
X162857219Y-65481966D01*
X163001966Y-65337219D01*
X163001968Y-65337215D01*
X163001971Y-65337213D01*
X163066005Y-65249076D01*
X163122287Y-65171610D01*
X163215220Y-64989219D01*
X163278477Y-64794534D01*
X163310500Y-64592352D01*
X163310500Y-64387648D01*
X165709500Y-64387648D01*
X165709500Y-64592352D01*
X165712899Y-64613811D01*
X165741522Y-64794534D01*
X165804781Y-64989223D01*
X165823011Y-65025000D01*
X165878374Y-65133656D01*
X165897715Y-65171613D01*
X166018028Y-65337213D01*
X166162786Y-65481971D01*
X166290832Y-65575000D01*
X166328390Y-65602287D01*
X166431688Y-65654920D01*
X166510776Y-65695218D01*
X166510778Y-65695218D01*
X166510781Y-65695220D01*
X166606568Y-65726343D01*
X166705465Y-65758477D01*
X166806557Y-65774488D01*
X166907648Y-65790500D01*
X166907649Y-65790500D01*
X167112351Y-65790500D01*
X167112352Y-65790500D01*
X167314534Y-65758477D01*
X167509219Y-65695220D01*
X167691610Y-65602287D01*
X167791661Y-65529596D01*
X167857213Y-65481971D01*
X167857215Y-65481968D01*
X167857219Y-65481966D01*
X168001966Y-65337219D01*
X168001968Y-65337215D01*
X168001971Y-65337213D01*
X168066005Y-65249076D01*
X168122287Y-65171610D01*
X168215220Y-64989219D01*
X168278477Y-64794534D01*
X168310500Y-64592352D01*
X168310500Y-64537648D01*
X170434613Y-64537648D01*
X170434613Y-64742351D01*
X170466635Y-64944534D01*
X170529894Y-65139223D01*
X170622828Y-65321613D01*
X170743141Y-65487213D01*
X170887899Y-65631971D01*
X171042862Y-65744556D01*
X171053503Y-65752287D01*
X171169720Y-65811503D01*
X171235889Y-65845218D01*
X171235891Y-65845218D01*
X171235894Y-65845220D01*
X171325196Y-65874236D01*
X171430578Y-65908477D01*
X171518099Y-65922339D01*
X171632761Y-65940500D01*
X171632762Y-65940500D01*
X171837464Y-65940500D01*
X171837465Y-65940500D01*
X172039647Y-65908477D01*
X172234332Y-65845220D01*
X172416723Y-65752287D01*
X172487026Y-65701208D01*
X172552830Y-65677729D01*
X172620884Y-65693554D01*
X172647591Y-65713846D01*
X172716457Y-65782712D01*
X172865779Y-65874814D01*
X173032316Y-65929999D01*
X173135104Y-65940500D01*
X174335121Y-65940499D01*
X174437910Y-65929999D01*
X174604447Y-65874814D01*
X174753769Y-65782712D01*
X174877825Y-65658656D01*
X174969927Y-65509334D01*
X175025112Y-65342797D01*
X175035613Y-65240009D01*
X175035612Y-64039992D01*
X175025112Y-63937203D01*
X174969927Y-63770666D01*
X174877825Y-63621344D01*
X174753769Y-63497288D01*
X174636725Y-63425095D01*
X174604449Y-63405187D01*
X174604444Y-63405185D01*
X174602975Y-63404698D01*
X174437910Y-63350001D01*
X174437908Y-63350000D01*
X174335123Y-63339500D01*
X173135111Y-63339500D01*
X173135094Y-63339501D01*
X173032316Y-63350000D01*
X173032313Y-63350001D01*
X172865781Y-63405185D01*
X172865776Y-63405187D01*
X172716458Y-63497287D01*
X172647591Y-63566154D01*
X172586267Y-63599638D01*
X172516576Y-63594653D01*
X172487025Y-63578790D01*
X172416725Y-63527714D01*
X172416721Y-63527712D01*
X172234336Y-63434781D01*
X172039647Y-63371522D01*
X171865108Y-63343878D01*
X171837465Y-63339500D01*
X171632761Y-63339500D01*
X171608442Y-63343351D01*
X171430578Y-63371522D01*
X171235889Y-63434781D01*
X171053499Y-63527715D01*
X170887899Y-63648028D01*
X170743141Y-63792786D01*
X170622828Y-63958386D01*
X170529894Y-64140776D01*
X170466635Y-64335465D01*
X170434613Y-64537648D01*
X168310500Y-64537648D01*
X168310500Y-64387648D01*
X168299441Y-64317826D01*
X168278477Y-64185465D01*
X168249127Y-64095137D01*
X168215220Y-63990781D01*
X168215218Y-63990778D01*
X168215218Y-63990776D01*
X168181503Y-63924607D01*
X168122287Y-63808390D01*
X168110950Y-63792786D01*
X168001971Y-63642786D01*
X167857213Y-63498028D01*
X167691613Y-63377715D01*
X167691612Y-63377714D01*
X167691610Y-63377713D01*
X167616613Y-63339500D01*
X167509223Y-63284781D01*
X167314534Y-63221522D01*
X167139995Y-63193878D01*
X167112352Y-63189500D01*
X166907648Y-63189500D01*
X166883329Y-63193351D01*
X166705465Y-63221522D01*
X166510776Y-63284781D01*
X166328386Y-63377715D01*
X166162786Y-63498028D01*
X166018028Y-63642786D01*
X165897715Y-63808386D01*
X165804781Y-63990776D01*
X165741522Y-64185465D01*
X165715503Y-64349746D01*
X165709500Y-64387648D01*
X163310500Y-64387648D01*
X163299441Y-64317826D01*
X163278477Y-64185465D01*
X163249127Y-64095137D01*
X163215220Y-63990781D01*
X163215218Y-63990778D01*
X163215218Y-63990776D01*
X163181503Y-63924607D01*
X163122287Y-63808390D01*
X163110950Y-63792786D01*
X163001971Y-63642786D01*
X162857213Y-63498028D01*
X162691613Y-63377715D01*
X162691612Y-63377714D01*
X162691610Y-63377713D01*
X162616613Y-63339500D01*
X162509223Y-63284781D01*
X162314534Y-63221522D01*
X162139995Y-63193878D01*
X162112352Y-63189500D01*
X161907648Y-63189500D01*
X161883329Y-63193351D01*
X161705465Y-63221522D01*
X161510776Y-63284781D01*
X161328386Y-63377715D01*
X161162786Y-63498028D01*
X161018028Y-63642786D01*
X160897715Y-63808386D01*
X160804781Y-63990776D01*
X160741522Y-64185465D01*
X160715503Y-64349746D01*
X160709500Y-64387648D01*
X158182580Y-64387648D01*
X158122547Y-64307455D01*
X158122544Y-64307452D01*
X158007335Y-64221206D01*
X158007328Y-64221202D01*
X157872482Y-64170908D01*
X157872483Y-64170908D01*
X157812883Y-64164501D01*
X157812881Y-64164500D01*
X157812873Y-64164500D01*
X157812864Y-64164500D01*
X156187129Y-64164500D01*
X156187123Y-64164501D01*
X156127516Y-64170908D01*
X155992671Y-64221202D01*
X155992664Y-64221206D01*
X155877455Y-64307452D01*
X155877452Y-64307455D01*
X155791206Y-64422664D01*
X155791202Y-64422671D01*
X155740908Y-64557517D01*
X155734501Y-64617116D01*
X155734501Y-64617123D01*
X155734500Y-64617135D01*
X155734500Y-66242870D01*
X155734501Y-66242876D01*
X155740908Y-66302483D01*
X155791202Y-66437328D01*
X155791206Y-66437335D01*
X155877452Y-66552544D01*
X155877455Y-66552547D01*
X155992664Y-66638793D01*
X155992671Y-66638797D01*
X156127517Y-66689091D01*
X156127516Y-66689091D01*
X156134444Y-66689835D01*
X156187127Y-66695500D01*
X156219568Y-66695499D01*
X156286605Y-66715182D01*
X156332361Y-66767984D01*
X156342306Y-66837143D01*
X156313283Y-66900699D01*
X156292455Y-66919816D01*
X156175582Y-67004730D01*
X156034733Y-67145579D01*
X156034733Y-67145580D01*
X156034731Y-67145582D01*
X155987673Y-67210352D01*
X155917647Y-67306733D01*
X155827213Y-67484219D01*
X155765661Y-67673656D01*
X155765661Y-67673659D01*
X155734500Y-67870403D01*
X155734500Y-68069596D01*
X155765661Y-68266340D01*
X155765661Y-68266343D01*
X155827213Y-68455780D01*
X155827215Y-68455783D01*
X155917647Y-68633266D01*
X156034731Y-68794418D01*
X156175582Y-68935269D01*
X156336734Y-69052353D01*
X156406453Y-69087877D01*
X156488172Y-69129515D01*
X156538968Y-69177490D01*
X156555763Y-69245311D01*
X156533225Y-69311446D01*
X156488172Y-69350485D01*
X156336733Y-69427647D01*
X156268793Y-69477009D01*
X156175582Y-69544731D01*
X156175580Y-69544733D01*
X156175579Y-69544733D01*
X156034733Y-69685579D01*
X156034733Y-69685580D01*
X156034731Y-69685582D01*
X156000881Y-69732173D01*
X155917647Y-69846733D01*
X155827213Y-70024219D01*
X155765661Y-70213656D01*
X155765661Y-70213659D01*
X155734500Y-70410403D01*
X155734500Y-70600548D01*
X155714815Y-70667587D01*
X155662011Y-70713342D01*
X155592853Y-70723286D01*
X155529297Y-70694261D01*
X155522819Y-70688229D01*
X154911819Y-70077229D01*
X154878334Y-70015906D01*
X154875500Y-69989548D01*
X154875500Y-54913392D01*
X154866188Y-54866581D01*
X154863457Y-54852850D01*
X154861575Y-54843390D01*
X154851464Y-54792555D01*
X154851463Y-54792548D01*
X154804311Y-54678714D01*
X154804310Y-54678713D01*
X154804307Y-54678707D01*
X154781128Y-54644018D01*
X154752562Y-54601266D01*
X154735858Y-54576267D01*
X154648733Y-54489142D01*
X154648732Y-54489141D01*
X152955587Y-52795997D01*
X152955585Y-52795994D01*
X152955585Y-52795995D01*
X152948519Y-52788929D01*
X152948518Y-52788927D01*
X152861393Y-52701802D01*
X152861389Y-52701799D01*
X152861388Y-52701798D01*
X152809754Y-52667297D01*
X152809748Y-52667294D01*
X152803657Y-52663224D01*
X152758946Y-52633348D01*
X152678452Y-52600007D01*
X152669403Y-52596258D01*
X152645113Y-52586197D01*
X152635087Y-52584203D01*
X152584689Y-52574178D01*
X152524270Y-52562160D01*
X152524267Y-52562160D01*
X152524266Y-52562160D01*
X142623947Y-52562160D01*
X142500733Y-52562160D01*
X142500729Y-52562160D01*
X142449875Y-52572275D01*
X142449870Y-52572276D01*
X142440311Y-52574178D01*
X142379888Y-52586197D01*
X142332737Y-52605727D01*
X142266055Y-52633348D01*
X142266054Y-52633349D01*
X142243687Y-52648293D01*
X142243684Y-52648295D01*
X142163608Y-52701800D01*
X142120045Y-52745363D01*
X142076482Y-52788927D01*
X142076479Y-52788930D01*
X137502229Y-57363181D01*
X137440906Y-57396666D01*
X137414548Y-57399500D01*
X130354433Y-57399500D01*
X130287394Y-57379815D01*
X130254115Y-57348386D01*
X130200796Y-57275000D01*
X130153828Y-57210354D01*
X130014646Y-57071172D01*
X129855405Y-56955476D01*
X129795618Y-56925013D01*
X129712890Y-56882861D01*
X129681504Y-56860057D01*
X129246448Y-56425000D01*
X129252661Y-56425000D01*
X129354394Y-56397741D01*
X129445606Y-56345080D01*
X129520080Y-56270606D01*
X129572741Y-56179394D01*
X129600000Y-56077661D01*
X129600000Y-56071448D01*
X130243678Y-56715126D01*
X130243678Y-56715125D01*
X130269095Y-56680143D01*
X130358418Y-56504835D01*
X130419221Y-56317705D01*
X130450000Y-56123382D01*
X130450000Y-55926617D01*
X130419221Y-55732294D01*
X130358418Y-55545164D01*
X130269096Y-55369858D01*
X130243678Y-55334873D01*
X130243677Y-55334873D01*
X129600000Y-55978551D01*
X129600000Y-55972339D01*
X129572741Y-55870606D01*
X129520080Y-55779394D01*
X129445606Y-55704920D01*
X129354394Y-55652259D01*
X129252661Y-55625000D01*
X129246447Y-55625000D01*
X129890125Y-54981320D01*
X129890125Y-54981319D01*
X129855145Y-54955905D01*
X129679835Y-54866581D01*
X129492705Y-54805778D01*
X129298382Y-54775000D01*
X129101618Y-54775000D01*
X128907294Y-54805778D01*
X128720161Y-54866582D01*
X128544863Y-54955899D01*
X128544859Y-54955902D01*
X128509873Y-54981320D01*
X128509872Y-54981320D01*
X129153554Y-55625000D01*
X129147339Y-55625000D01*
X129045606Y-55652259D01*
X128954394Y-55704920D01*
X128879920Y-55779394D01*
X128827259Y-55870606D01*
X128800000Y-55972339D01*
X128800000Y-55978552D01*
X128156320Y-55334872D01*
X128156320Y-55334873D01*
X128130902Y-55369859D01*
X128130899Y-55369863D01*
X128041582Y-55545161D01*
X127980778Y-55732294D01*
X127950000Y-55926617D01*
X127950000Y-56123382D01*
X127980778Y-56317705D01*
X128041581Y-56504835D01*
X128130905Y-56680145D01*
X128156319Y-56715125D01*
X128156320Y-56715125D01*
X128800000Y-56071445D01*
X128800000Y-56077661D01*
X128827259Y-56179394D01*
X128879920Y-56270606D01*
X128954394Y-56345080D01*
X129045606Y-56397741D01*
X129147339Y-56425000D01*
X129153553Y-56425000D01*
X128718494Y-56860057D01*
X128687109Y-56882860D01*
X128544597Y-56955474D01*
X128485182Y-56998642D01*
X128385354Y-57071172D01*
X128385352Y-57071174D01*
X128385351Y-57071174D01*
X128246174Y-57210351D01*
X128246174Y-57210352D01*
X128246172Y-57210354D01*
X128199204Y-57275000D01*
X128130476Y-57369594D01*
X128041117Y-57544970D01*
X127980290Y-57732173D01*
X127949500Y-57926577D01*
X127949500Y-58123422D01*
X127980290Y-58317826D01*
X128041117Y-58505029D01*
X128105105Y-58630612D01*
X128130476Y-58680405D01*
X128246172Y-58839646D01*
X128246174Y-58839648D01*
X128343845Y-58937319D01*
X128377330Y-58998642D01*
X128372346Y-59068334D01*
X128343845Y-59112681D01*
X128246174Y-59210351D01*
X128246174Y-59210352D01*
X128246172Y-59210354D01*
X128196485Y-59278741D01*
X128130476Y-59369594D01*
X128041117Y-59544970D01*
X127980290Y-59732173D01*
X127949500Y-59926577D01*
X127949500Y-60123422D01*
X127980290Y-60317826D01*
X128041117Y-60505029D01*
X128105105Y-60630612D01*
X128130476Y-60680405D01*
X128246172Y-60839646D01*
X128246174Y-60839648D01*
X128343845Y-60937319D01*
X128377330Y-60998642D01*
X128372346Y-61068334D01*
X128343845Y-61112681D01*
X128246174Y-61210351D01*
X128246174Y-61210352D01*
X128246172Y-61210354D01*
X128196485Y-61278741D01*
X128130476Y-61369594D01*
X128041117Y-61544970D01*
X127980290Y-61732173D01*
X127949500Y-61926577D01*
X127949500Y-62123422D01*
X127980290Y-62317826D01*
X128041117Y-62505029D01*
X128105105Y-62630612D01*
X128130476Y-62680405D01*
X128246172Y-62839646D01*
X128246174Y-62839648D01*
X128343845Y-62937319D01*
X128377330Y-62998642D01*
X128372346Y-63068334D01*
X128343845Y-63112681D01*
X128246174Y-63210351D01*
X128246174Y-63210352D01*
X128246172Y-63210354D01*
X128196485Y-63278741D01*
X128130476Y-63369594D01*
X128041117Y-63544970D01*
X127980290Y-63732173D01*
X127949500Y-63926577D01*
X127949500Y-64123422D01*
X127976189Y-64291931D01*
X127967234Y-64361225D01*
X127941397Y-64399010D01*
X126614070Y-65726339D01*
X126176269Y-66164140D01*
X126176267Y-66164142D01*
X126132704Y-66207704D01*
X126089142Y-66251266D01*
X126087035Y-66254420D01*
X126064821Y-66287666D01*
X126020688Y-66353714D01*
X126003476Y-66395269D01*
X126000604Y-66402201D01*
X126000603Y-66402204D01*
X125973538Y-66467545D01*
X125973535Y-66467555D01*
X125949500Y-66588389D01*
X125949500Y-70714547D01*
X125929815Y-70781586D01*
X125913181Y-70802228D01*
X123089141Y-73626267D01*
X123089136Y-73626273D01*
X123076016Y-73645911D01*
X123076013Y-73645915D01*
X123072307Y-73651463D01*
X123020688Y-73728714D01*
X122987347Y-73809207D01*
X122976703Y-73834906D01*
X122974598Y-73839986D01*
X122974594Y-73839995D01*
X122973538Y-73842544D01*
X122973537Y-73842547D01*
X122973537Y-73842549D01*
X122953250Y-73944547D01*
X122953062Y-73945490D01*
X122953061Y-73945495D01*
X122949500Y-73963394D01*
X122949500Y-79688885D01*
X122929815Y-79755924D01*
X122896428Y-79788606D01*
X122897331Y-79789849D01*
X122727786Y-79913028D01*
X122583028Y-80057786D01*
X122462715Y-80223386D01*
X122369781Y-80405776D01*
X122306522Y-80600465D01*
X122274500Y-80802648D01*
X118170500Y-80802648D01*
X118170500Y-70642682D01*
X122275000Y-70642682D01*
X122275000Y-70847317D01*
X122307009Y-71049417D01*
X122370244Y-71244031D01*
X122463141Y-71426350D01*
X122463147Y-71426359D01*
X122495523Y-71470921D01*
X122495524Y-71470922D01*
X123175000Y-70791446D01*
X123175000Y-70797661D01*
X123202259Y-70899394D01*
X123254920Y-70990606D01*
X123329394Y-71065080D01*
X123420606Y-71117741D01*
X123522339Y-71145000D01*
X123528553Y-71145000D01*
X122849076Y-71824474D01*
X122893650Y-71856859D01*
X123075968Y-71949755D01*
X123270582Y-72012990D01*
X123472683Y-72045000D01*
X123677317Y-72045000D01*
X123879417Y-72012990D01*
X124074031Y-71949755D01*
X124256349Y-71856859D01*
X124300921Y-71824474D01*
X123621447Y-71145000D01*
X123627661Y-71145000D01*
X123729394Y-71117741D01*
X123820606Y-71065080D01*
X123895080Y-70990606D01*
X123947741Y-70899394D01*
X123975000Y-70797661D01*
X123975000Y-70791447D01*
X124654474Y-71470921D01*
X124686859Y-71426349D01*
X124779755Y-71244031D01*
X124842990Y-71049417D01*
X124875000Y-70847317D01*
X124875000Y-70642682D01*
X124842990Y-70440582D01*
X124779755Y-70245968D01*
X124686859Y-70063650D01*
X124654474Y-70019077D01*
X124654474Y-70019076D01*
X123975000Y-70698551D01*
X123975000Y-70692339D01*
X123947741Y-70590606D01*
X123895080Y-70499394D01*
X123820606Y-70424920D01*
X123729394Y-70372259D01*
X123627661Y-70345000D01*
X123621446Y-70345000D01*
X124300922Y-69665524D01*
X124300921Y-69665523D01*
X124256359Y-69633147D01*
X124256350Y-69633141D01*
X124074031Y-69540244D01*
X123879417Y-69477009D01*
X123677317Y-69445000D01*
X123472683Y-69445000D01*
X123270582Y-69477009D01*
X123075968Y-69540244D01*
X122893644Y-69633143D01*
X122849077Y-69665523D01*
X122849077Y-69665524D01*
X123528554Y-70345000D01*
X123522339Y-70345000D01*
X123420606Y-70372259D01*
X123329394Y-70424920D01*
X123254920Y-70499394D01*
X123202259Y-70590606D01*
X123175000Y-70692339D01*
X123175000Y-70698553D01*
X122495524Y-70019077D01*
X122495523Y-70019077D01*
X122463143Y-70063644D01*
X122370244Y-70245968D01*
X122307009Y-70440582D01*
X122275000Y-70642682D01*
X118170500Y-70642682D01*
X118170500Y-65872682D01*
X122350000Y-65872682D01*
X122350000Y-66077317D01*
X122382009Y-66279417D01*
X122445244Y-66474031D01*
X122538141Y-66656350D01*
X122538147Y-66656359D01*
X122570523Y-66700921D01*
X122570524Y-66700922D01*
X123250000Y-66021446D01*
X123250000Y-66027661D01*
X123277259Y-66129394D01*
X123329920Y-66220606D01*
X123404394Y-66295080D01*
X123495606Y-66347741D01*
X123597339Y-66375000D01*
X123603553Y-66375000D01*
X122924076Y-67054474D01*
X122968650Y-67086859D01*
X123150968Y-67179755D01*
X123345582Y-67242990D01*
X123547683Y-67275000D01*
X123752317Y-67275000D01*
X123954417Y-67242990D01*
X124149031Y-67179755D01*
X124331349Y-67086859D01*
X124375921Y-67054474D01*
X123696447Y-66375000D01*
X123702661Y-66375000D01*
X123804394Y-66347741D01*
X123895606Y-66295080D01*
X123970080Y-66220606D01*
X124022741Y-66129394D01*
X124050000Y-66027661D01*
X124050000Y-66021447D01*
X124729474Y-66700921D01*
X124761859Y-66656349D01*
X124854755Y-66474031D01*
X124917990Y-66279417D01*
X124950000Y-66077317D01*
X124950000Y-65872682D01*
X124917990Y-65670582D01*
X124854755Y-65475968D01*
X124761859Y-65293650D01*
X124729474Y-65249077D01*
X124729474Y-65249076D01*
X124050000Y-65928551D01*
X124050000Y-65922339D01*
X124022741Y-65820606D01*
X123970080Y-65729394D01*
X123895606Y-65654920D01*
X123804394Y-65602259D01*
X123702661Y-65575000D01*
X123696446Y-65575000D01*
X124375922Y-64895524D01*
X124375921Y-64895523D01*
X124331359Y-64863147D01*
X124331350Y-64863141D01*
X124149031Y-64770244D01*
X123954417Y-64707009D01*
X123752317Y-64675000D01*
X123547683Y-64675000D01*
X123345582Y-64707009D01*
X123150968Y-64770244D01*
X122968644Y-64863143D01*
X122924077Y-64895523D01*
X122924077Y-64895524D01*
X123603554Y-65575000D01*
X123597339Y-65575000D01*
X123495606Y-65602259D01*
X123404394Y-65654920D01*
X123329920Y-65729394D01*
X123277259Y-65820606D01*
X123250000Y-65922339D01*
X123250000Y-65928553D01*
X122570524Y-65249077D01*
X122570523Y-65249077D01*
X122538143Y-65293644D01*
X122445244Y-65475968D01*
X122382009Y-65670582D01*
X122350000Y-65872682D01*
X118170500Y-65872682D01*
X118170500Y-60872648D01*
X122349500Y-60872648D01*
X122349500Y-61077351D01*
X122381522Y-61279534D01*
X122444781Y-61474223D01*
X122537715Y-61656613D01*
X122658028Y-61822213D01*
X122802786Y-61966971D01*
X122957749Y-62079556D01*
X122968390Y-62087287D01*
X123084607Y-62146503D01*
X123150776Y-62180218D01*
X123150778Y-62180218D01*
X123150781Y-62180220D01*
X123255137Y-62214127D01*
X123345465Y-62243477D01*
X123446557Y-62259488D01*
X123547648Y-62275500D01*
X123547649Y-62275500D01*
X123752351Y-62275500D01*
X123752352Y-62275500D01*
X123954534Y-62243477D01*
X124149219Y-62180220D01*
X124331610Y-62087287D01*
X124424590Y-62019732D01*
X124497213Y-61966971D01*
X124497215Y-61966968D01*
X124497219Y-61966966D01*
X124641966Y-61822219D01*
X124641968Y-61822215D01*
X124641971Y-61822213D01*
X124707388Y-61732173D01*
X124762287Y-61656610D01*
X124855220Y-61474219D01*
X124918477Y-61279534D01*
X124950500Y-61077352D01*
X124950500Y-60872648D01*
X124926796Y-60722989D01*
X124918477Y-60670465D01*
X124855218Y-60475776D01*
X124821503Y-60409607D01*
X124762287Y-60293390D01*
X124754556Y-60282749D01*
X124641971Y-60127786D01*
X124497213Y-59983028D01*
X124331613Y-59862715D01*
X124331612Y-59862714D01*
X124331610Y-59862713D01*
X124274653Y-59833691D01*
X124149223Y-59769781D01*
X123954534Y-59706522D01*
X123779995Y-59678878D01*
X123752352Y-59674500D01*
X123547648Y-59674500D01*
X123523329Y-59678351D01*
X123345465Y-59706522D01*
X123150776Y-59769781D01*
X122968386Y-59862715D01*
X122802786Y-59983028D01*
X122658028Y-60127786D01*
X122537715Y-60293386D01*
X122444781Y-60475776D01*
X122381522Y-60670465D01*
X122349500Y-60872648D01*
X118170500Y-60872648D01*
X118170500Y-55422648D01*
X122699500Y-55422648D01*
X122699500Y-55627351D01*
X122731522Y-55829534D01*
X122794781Y-56024223D01*
X122873846Y-56179394D01*
X122887713Y-56206610D01*
X122939087Y-56277321D01*
X122962567Y-56343127D01*
X122946742Y-56411181D01*
X122926451Y-56437886D01*
X122857684Y-56506654D01*
X122765643Y-56655875D01*
X122765641Y-56655880D01*
X122710494Y-56822302D01*
X122710493Y-56822309D01*
X122700000Y-56925013D01*
X122700000Y-57275000D01*
X123684314Y-57275000D01*
X123679920Y-57279394D01*
X123627259Y-57370606D01*
X123600000Y-57472339D01*
X123600000Y-57577661D01*
X123627259Y-57679394D01*
X123679920Y-57770606D01*
X123684314Y-57775000D01*
X122700001Y-57775000D01*
X122700001Y-58124986D01*
X122710494Y-58227697D01*
X122765641Y-58394119D01*
X122765643Y-58394124D01*
X122857684Y-58543345D01*
X122981654Y-58667315D01*
X123130875Y-58759356D01*
X123130880Y-58759358D01*
X123297302Y-58814505D01*
X123297309Y-58814506D01*
X123400019Y-58824999D01*
X123749999Y-58824999D01*
X123750000Y-58824998D01*
X123750000Y-57840686D01*
X123754394Y-57845080D01*
X123845606Y-57897741D01*
X123947339Y-57925000D01*
X124052661Y-57925000D01*
X124154394Y-57897741D01*
X124245606Y-57845080D01*
X124250000Y-57840686D01*
X124250000Y-58824999D01*
X124599972Y-58824999D01*
X124599986Y-58824998D01*
X124702697Y-58814505D01*
X124869119Y-58759358D01*
X124869124Y-58759356D01*
X125018345Y-58667315D01*
X125142315Y-58543345D01*
X125234356Y-58394124D01*
X125234358Y-58394119D01*
X125289505Y-58227697D01*
X125289506Y-58227690D01*
X125299999Y-58124986D01*
X125300000Y-58124973D01*
X125300000Y-57775000D01*
X124315686Y-57775000D01*
X124320080Y-57770606D01*
X124372741Y-57679394D01*
X124400000Y-57577661D01*
X124400000Y-57472339D01*
X124372741Y-57370606D01*
X124320080Y-57279394D01*
X124315686Y-57275000D01*
X125299999Y-57275000D01*
X125299999Y-56925028D01*
X125299998Y-56925013D01*
X125289505Y-56822302D01*
X125234358Y-56655880D01*
X125234356Y-56655875D01*
X125142315Y-56506654D01*
X125073549Y-56437888D01*
X125040064Y-56376565D01*
X125045048Y-56306873D01*
X125060909Y-56277325D01*
X125112287Y-56206610D01*
X125205220Y-56024219D01*
X125236946Y-55926577D01*
X125250965Y-55883432D01*
X125250965Y-55883431D01*
X125268476Y-55829538D01*
X125268476Y-55829537D01*
X125268477Y-55829534D01*
X125300500Y-55627352D01*
X125300500Y-55422648D01*
X125268477Y-55220466D01*
X125265191Y-55210354D01*
X125253035Y-55172942D01*
X125205220Y-55025781D01*
X125112287Y-54843390D01*
X125075354Y-54792555D01*
X124991971Y-54677786D01*
X124847213Y-54533028D01*
X124681613Y-54412715D01*
X124681612Y-54412714D01*
X124681610Y-54412713D01*
X124624653Y-54383691D01*
X124499223Y-54319781D01*
X124304534Y-54256522D01*
X124129995Y-54228878D01*
X124102352Y-54224500D01*
X123897648Y-54224500D01*
X123873329Y-54228351D01*
X123695465Y-54256522D01*
X123500776Y-54319781D01*
X123318386Y-54412715D01*
X123152786Y-54533028D01*
X123008028Y-54677786D01*
X122887715Y-54843386D01*
X122794781Y-55025776D01*
X122731522Y-55220465D01*
X122699500Y-55422648D01*
X118170500Y-55422648D01*
X118170500Y-50878711D01*
X119149500Y-50878711D01*
X119149500Y-51121288D01*
X119181161Y-51361785D01*
X119243947Y-51596104D01*
X119336773Y-51820205D01*
X119336776Y-51820212D01*
X119458064Y-52030289D01*
X119458066Y-52030292D01*
X119458067Y-52030293D01*
X119605733Y-52222736D01*
X119605739Y-52222743D01*
X119777256Y-52394260D01*
X119777262Y-52394265D01*
X119969711Y-52541936D01*
X120179788Y-52663224D01*
X120403900Y-52756054D01*
X120638211Y-52818838D01*
X120818586Y-52842584D01*
X120878711Y-52850500D01*
X120878712Y-52850500D01*
X121121289Y-52850500D01*
X121169388Y-52844167D01*
X121361789Y-52818838D01*
X121596100Y-52756054D01*
X121820212Y-52663224D01*
X122030289Y-52541936D01*
X122222738Y-52394265D01*
X122394265Y-52222738D01*
X122541936Y-52030289D01*
X122663224Y-51820212D01*
X122756054Y-51596100D01*
X122818838Y-51361789D01*
X122850500Y-51121288D01*
X122850500Y-50878712D01*
X122850500Y-50878711D01*
X169149500Y-50878711D01*
X169149500Y-51121288D01*
X169181161Y-51361785D01*
X169243947Y-51596104D01*
X169336773Y-51820205D01*
X169336776Y-51820212D01*
X169458064Y-52030289D01*
X169458066Y-52030292D01*
X169458067Y-52030293D01*
X169605733Y-52222736D01*
X169605739Y-52222743D01*
X169777256Y-52394260D01*
X169777262Y-52394265D01*
X169969711Y-52541936D01*
X170179788Y-52663224D01*
X170403900Y-52756054D01*
X170638211Y-52818838D01*
X170818586Y-52842584D01*
X170878711Y-52850500D01*
X170878712Y-52850500D01*
X171121289Y-52850500D01*
X171169388Y-52844167D01*
X171361789Y-52818838D01*
X171596100Y-52756054D01*
X171820212Y-52663224D01*
X172030289Y-52541936D01*
X172222738Y-52394265D01*
X172394265Y-52222738D01*
X172541936Y-52030289D01*
X172663224Y-51820212D01*
X172756054Y-51596100D01*
X172818838Y-51361789D01*
X172850500Y-51121288D01*
X172850500Y-50878712D01*
X172818838Y-50638211D01*
X172756054Y-50403900D01*
X172663224Y-50179788D01*
X172541936Y-49969711D01*
X172394265Y-49777262D01*
X172394260Y-49777256D01*
X172222743Y-49605739D01*
X172222736Y-49605733D01*
X172030293Y-49458067D01*
X172030292Y-49458066D01*
X172030289Y-49458064D01*
X171820212Y-49336776D01*
X171820205Y-49336773D01*
X171596104Y-49243947D01*
X171361785Y-49181161D01*
X171121289Y-49149500D01*
X171121288Y-49149500D01*
X170878712Y-49149500D01*
X170878711Y-49149500D01*
X170638214Y-49181161D01*
X170403895Y-49243947D01*
X170179794Y-49336773D01*
X170179785Y-49336777D01*
X169969706Y-49458067D01*
X169777263Y-49605733D01*
X169777256Y-49605739D01*
X169605739Y-49777256D01*
X169605733Y-49777263D01*
X169458067Y-49969706D01*
X169336777Y-50179785D01*
X169336773Y-50179794D01*
X169243947Y-50403895D01*
X169181161Y-50638214D01*
X169149500Y-50878711D01*
X122850500Y-50878711D01*
X122818838Y-50638211D01*
X122756054Y-50403900D01*
X122663224Y-50179788D01*
X122541936Y-49969711D01*
X122394265Y-49777262D01*
X122394260Y-49777256D01*
X122222743Y-49605739D01*
X122222736Y-49605733D01*
X122030293Y-49458067D01*
X122030292Y-49458066D01*
X122030289Y-49458064D01*
X121820212Y-49336776D01*
X121820205Y-49336773D01*
X121596104Y-49243947D01*
X121361785Y-49181161D01*
X121121289Y-49149500D01*
X121121288Y-49149500D01*
X120878712Y-49149500D01*
X120878711Y-49149500D01*
X120638214Y-49181161D01*
X120403895Y-49243947D01*
X120179794Y-49336773D01*
X120179785Y-49336777D01*
X119969706Y-49458067D01*
X119777263Y-49605733D01*
X119777256Y-49605739D01*
X119605739Y-49777256D01*
X119605733Y-49777263D01*
X119458067Y-49969706D01*
X119336777Y-50179785D01*
X119336773Y-50179794D01*
X119243947Y-50403895D01*
X119181161Y-50638214D01*
X119149500Y-50878711D01*
X118170500Y-50878711D01*
X118170500Y-44734500D01*
X118190185Y-44667461D01*
X118242989Y-44621706D01*
X118294500Y-44610500D01*
X184955500Y-44610500D01*
X185022539Y-44630185D01*
G37*
%TD.AperFunction*%
%TD*%
M02*
