%TF.GenerationSoftware,KiCad,Pcbnew,10.0.4*%
%TF.CreationDate,2026-07-23T14:31:14-04:00*%
%TF.ProjectId,R2_HH_Controllers,52325f48-485f-4436-9f6e-74726f6c6c65,rev?*%
%TF.SameCoordinates,Original*%
%TF.FileFunction,Soldermask,Top*%
%TF.FilePolarity,Negative*%
%FSLAX46Y46*%
G04 Gerber Fmt 4.6, Leading zero omitted, Abs format (unit mm)*
G04 Created by KiCad (PCBNEW 10.0.4) date 2026-07-23 14:31:14*
%MOMM*%
%LPD*%
G01*
G04 APERTURE LIST*
G04 Aperture macros list*
%AMRoundRect*
0 Rectangle with rounded corners*
0 $1 Rounding radius*
0 $2 $3 $4 $5 $6 $7 $8 $9 X,Y pos of 4 corners*
0 Add a 4 corners polygon primitive as box body*
4,1,4,$2,$3,$4,$5,$6,$7,$8,$9,$2,$3,0*
0 Add four circle primitives for the rounded corners*
1,1,$1+$1,$2,$3*
1,1,$1+$1,$4,$5*
1,1,$1+$1,$6,$7*
1,1,$1+$1,$8,$9*
0 Add four rect primitives between the rounded corners*
20,1,$1+$1,$2,$3,$4,$5,0*
20,1,$1+$1,$4,$5,$6,$7,0*
20,1,$1+$1,$6,$7,$8,$9,0*
20,1,$1+$1,$8,$9,$2,$3,0*%
G04 Aperture macros list end*
%ADD10C,0.010000*%
%ADD11R,0.700000X0.700000*%
%ADD12RoundRect,0.102000X0.400000X0.200000X-0.400000X0.200000X-0.400000X-0.200000X0.400000X-0.200000X0*%
%ADD13RoundRect,0.102000X0.200000X0.400000X-0.200000X0.400000X-0.200000X-0.400000X0.200000X-0.400000X0*%
%ADD14RoundRect,0.102000X0.600000X0.600000X-0.600000X0.600000X-0.600000X-0.600000X0.600000X-0.600000X0*%
%ADD15RoundRect,0.102000X0.400000X0.400000X-0.400000X0.400000X-0.400000X-0.400000X0.400000X-0.400000X0*%
%ADD16C,0.650000*%
%ADD17O,1.204000X2.304000*%
%ADD18O,1.204000X2.004000*%
%ADD19R,4.191000X1.460500*%
%ADD20R,3.759200X1.206500*%
%ADD21C,0.900000*%
%ADD22RoundRect,0.102000X-0.350000X-0.750000X0.350000X-0.750000X0.350000X0.750000X-0.350000X0.750000X0*%
%ADD23RoundRect,0.102000X-0.500000X-0.400000X0.500000X-0.400000X0.500000X0.400000X-0.500000X0.400000X0*%
%ADD24RoundRect,0.062500X-0.375000X-0.062500X0.375000X-0.062500X0.375000X0.062500X-0.375000X0.062500X0*%
%ADD25RoundRect,0.062500X-0.062500X-0.375000X0.062500X-0.375000X0.062500X0.375000X-0.062500X0.375000X0*%
%ADD26R,1.600000X1.600000*%
%ADD27C,0.500000*%
%ADD28RoundRect,0.150000X-0.150000X0.512500X-0.150000X-0.512500X0.150000X-0.512500X0.150000X0.512500X0*%
%ADD29RoundRect,0.200000X0.200000X0.275000X-0.200000X0.275000X-0.200000X-0.275000X0.200000X-0.275000X0*%
%ADD30RoundRect,0.200000X-0.200000X-0.275000X0.200000X-0.275000X0.200000X0.275000X-0.200000X0.275000X0*%
%ADD31RoundRect,0.200000X0.275000X-0.200000X0.275000X0.200000X-0.275000X0.200000X-0.275000X-0.200000X0*%
%ADD32RoundRect,0.225000X-0.250000X0.225000X-0.250000X-0.225000X0.250000X-0.225000X0.250000X0.225000X0*%
%ADD33RoundRect,0.225000X0.225000X0.250000X-0.225000X0.250000X-0.225000X-0.250000X0.225000X-0.250000X0*%
%ADD34RoundRect,0.225000X0.250000X-0.225000X0.250000X0.225000X-0.250000X0.225000X-0.250000X-0.225000X0*%
%ADD35RoundRect,0.200000X-0.275000X0.200000X-0.275000X-0.200000X0.275000X-0.200000X0.275000X0.200000X0*%
%ADD36R,1.700000X1.000000*%
%ADD37RoundRect,0.225000X-0.225000X-0.250000X0.225000X-0.250000X0.225000X0.250000X-0.225000X0.250000X0*%
%ADD38C,1.950000*%
%ADD39C,1.650000*%
%ADD40C,2.400000*%
%ADD41C,2.475000*%
%ADD42RoundRect,0.150000X-0.512500X-0.150000X0.512500X-0.150000X0.512500X0.150000X-0.512500X0.150000X0*%
%ADD43RoundRect,0.102000X0.580000X-0.580000X0.580000X0.580000X-0.580000X0.580000X-0.580000X-0.580000X0*%
%ADD44C,1.364000*%
%ADD45RoundRect,0.102000X-0.580000X0.580000X-0.580000X-0.580000X0.580000X-0.580000X0.580000X0.580000X0*%
G04 APERTURE END LIST*
D10*
%TO.C,U11*%
X167650000Y-69950000D02*
X166250000Y-69950000D01*
X166250000Y-71350000D01*
X167000000Y-71350000D01*
X167650000Y-70700000D01*
X167650000Y-69950000D01*
G36*
X167650000Y-70700000D02*
G01*
X167000000Y-71350000D01*
X166250000Y-71350000D01*
X166250000Y-69950000D01*
X167650000Y-69950000D01*
X167650000Y-70700000D01*
G37*
%TO.C,U9*%
X141000000Y-69750000D02*
X139600000Y-69750000D01*
X139600000Y-71150000D01*
X140350000Y-71150000D01*
X141000000Y-70500000D01*
X141000000Y-69750000D01*
G36*
X141000000Y-70500000D02*
G01*
X140350000Y-71150000D01*
X139600000Y-71150000D01*
X139600000Y-69750000D01*
X141000000Y-69750000D01*
X141000000Y-70500000D01*
G37*
%TO.C,J1*%
X131930000Y-128020000D02*
X132630000Y-128020000D01*
X132630000Y-129270000D01*
X131930000Y-129270000D01*
X131930000Y-128020000D01*
G36*
X132630000Y-129270000D02*
G01*
X131930000Y-129270000D01*
X131930000Y-128020000D01*
X132630000Y-128020000D01*
X132630000Y-129270000D01*
G37*
X132730000Y-128020000D02*
X133430000Y-128020000D01*
X133430000Y-129270000D01*
X132730000Y-129270000D01*
X132730000Y-128020000D01*
G36*
X133430000Y-129270000D02*
G01*
X132730000Y-129270000D01*
X132730000Y-128020000D01*
X133430000Y-128020000D01*
X133430000Y-129270000D01*
G37*
X133530000Y-128020000D02*
X133930000Y-128020000D01*
X133930000Y-129270000D01*
X133530000Y-129270000D01*
X133530000Y-128020000D01*
G36*
X133930000Y-129270000D02*
G01*
X133530000Y-129270000D01*
X133530000Y-128020000D01*
X133930000Y-128020000D01*
X133930000Y-129270000D01*
G37*
X134030000Y-128020000D02*
X134430000Y-128020000D01*
X134430000Y-129270000D01*
X134030000Y-129270000D01*
X134030000Y-128020000D01*
G36*
X134430000Y-129270000D02*
G01*
X134030000Y-129270000D01*
X134030000Y-128020000D01*
X134430000Y-128020000D01*
X134430000Y-129270000D01*
G37*
X134530000Y-128020000D02*
X134930000Y-128020000D01*
X134930000Y-129270000D01*
X134530000Y-129270000D01*
X134530000Y-128020000D01*
G36*
X134930000Y-129270000D02*
G01*
X134530000Y-129270000D01*
X134530000Y-128020000D01*
X134930000Y-128020000D01*
X134930000Y-129270000D01*
G37*
X135030000Y-128020000D02*
X135430000Y-128020000D01*
X135430000Y-129270000D01*
X135030000Y-129270000D01*
X135030000Y-128020000D01*
G36*
X135430000Y-129270000D02*
G01*
X135030000Y-129270000D01*
X135030000Y-128020000D01*
X135430000Y-128020000D01*
X135430000Y-129270000D01*
G37*
X135530000Y-128020000D02*
X135930000Y-128020000D01*
X135930000Y-129270000D01*
X135530000Y-129270000D01*
X135530000Y-128020000D01*
G36*
X135930000Y-129270000D02*
G01*
X135530000Y-129270000D01*
X135530000Y-128020000D01*
X135930000Y-128020000D01*
X135930000Y-129270000D01*
G37*
X136030000Y-128020000D02*
X136430000Y-128020000D01*
X136430000Y-129270000D01*
X136030000Y-129270000D01*
X136030000Y-128020000D01*
G36*
X136430000Y-129270000D02*
G01*
X136030000Y-129270000D01*
X136030000Y-128020000D01*
X136430000Y-128020000D01*
X136430000Y-129270000D01*
G37*
X136530000Y-128020000D02*
X136930000Y-128020000D01*
X136930000Y-129270000D01*
X136530000Y-129270000D01*
X136530000Y-128020000D01*
G36*
X136930000Y-129270000D02*
G01*
X136530000Y-129270000D01*
X136530000Y-128020000D01*
X136930000Y-128020000D01*
X136930000Y-129270000D01*
G37*
X137030000Y-128020000D02*
X137430000Y-128020000D01*
X137430000Y-129270000D01*
X137030000Y-129270000D01*
X137030000Y-128020000D01*
G36*
X137430000Y-129270000D02*
G01*
X137030000Y-129270000D01*
X137030000Y-128020000D01*
X137430000Y-128020000D01*
X137430000Y-129270000D01*
G37*
X137530000Y-128020000D02*
X138230000Y-128020000D01*
X138230000Y-129270000D01*
X137530000Y-129270000D01*
X137530000Y-128020000D01*
G36*
X138230000Y-129270000D02*
G01*
X137530000Y-129270000D01*
X137530000Y-128020000D01*
X138230000Y-128020000D01*
X138230000Y-129270000D01*
G37*
X138330000Y-128020000D02*
X139030000Y-128020000D01*
X139030000Y-129270000D01*
X138330000Y-129270000D01*
X138330000Y-128020000D01*
G36*
X139030000Y-129270000D02*
G01*
X138330000Y-129270000D01*
X138330000Y-128020000D01*
X139030000Y-128020000D01*
X139030000Y-129270000D01*
G37*
%TO.C,J3*%
X164750000Y-128020000D02*
X165450000Y-128020000D01*
X165450000Y-129270000D01*
X164750000Y-129270000D01*
X164750000Y-128020000D01*
G36*
X165450000Y-129270000D02*
G01*
X164750000Y-129270000D01*
X164750000Y-128020000D01*
X165450000Y-128020000D01*
X165450000Y-129270000D01*
G37*
X165550000Y-128020000D02*
X166250000Y-128020000D01*
X166250000Y-129270000D01*
X165550000Y-129270000D01*
X165550000Y-128020000D01*
G36*
X166250000Y-129270000D02*
G01*
X165550000Y-129270000D01*
X165550000Y-128020000D01*
X166250000Y-128020000D01*
X166250000Y-129270000D01*
G37*
X166350000Y-128020000D02*
X166750000Y-128020000D01*
X166750000Y-129270000D01*
X166350000Y-129270000D01*
X166350000Y-128020000D01*
G36*
X166750000Y-129270000D02*
G01*
X166350000Y-129270000D01*
X166350000Y-128020000D01*
X166750000Y-128020000D01*
X166750000Y-129270000D01*
G37*
X166850000Y-128020000D02*
X167250000Y-128020000D01*
X167250000Y-129270000D01*
X166850000Y-129270000D01*
X166850000Y-128020000D01*
G36*
X167250000Y-129270000D02*
G01*
X166850000Y-129270000D01*
X166850000Y-128020000D01*
X167250000Y-128020000D01*
X167250000Y-129270000D01*
G37*
X167350000Y-128020000D02*
X167750000Y-128020000D01*
X167750000Y-129270000D01*
X167350000Y-129270000D01*
X167350000Y-128020000D01*
G36*
X167750000Y-129270000D02*
G01*
X167350000Y-129270000D01*
X167350000Y-128020000D01*
X167750000Y-128020000D01*
X167750000Y-129270000D01*
G37*
X167850000Y-128020000D02*
X168250000Y-128020000D01*
X168250000Y-129270000D01*
X167850000Y-129270000D01*
X167850000Y-128020000D01*
G36*
X168250000Y-129270000D02*
G01*
X167850000Y-129270000D01*
X167850000Y-128020000D01*
X168250000Y-128020000D01*
X168250000Y-129270000D01*
G37*
X168350000Y-128020000D02*
X168750000Y-128020000D01*
X168750000Y-129270000D01*
X168350000Y-129270000D01*
X168350000Y-128020000D01*
G36*
X168750000Y-129270000D02*
G01*
X168350000Y-129270000D01*
X168350000Y-128020000D01*
X168750000Y-128020000D01*
X168750000Y-129270000D01*
G37*
X168850000Y-128020000D02*
X169250000Y-128020000D01*
X169250000Y-129270000D01*
X168850000Y-129270000D01*
X168850000Y-128020000D01*
G36*
X169250000Y-129270000D02*
G01*
X168850000Y-129270000D01*
X168850000Y-128020000D01*
X169250000Y-128020000D01*
X169250000Y-129270000D01*
G37*
X169350000Y-128020000D02*
X169750000Y-128020000D01*
X169750000Y-129270000D01*
X169350000Y-129270000D01*
X169350000Y-128020000D01*
G36*
X169750000Y-129270000D02*
G01*
X169350000Y-129270000D01*
X169350000Y-128020000D01*
X169750000Y-128020000D01*
X169750000Y-129270000D01*
G37*
X169850000Y-128020000D02*
X170250000Y-128020000D01*
X170250000Y-129270000D01*
X169850000Y-129270000D01*
X169850000Y-128020000D01*
G36*
X170250000Y-129270000D02*
G01*
X169850000Y-129270000D01*
X169850000Y-128020000D01*
X170250000Y-128020000D01*
X170250000Y-129270000D01*
G37*
X170350000Y-128020000D02*
X171050000Y-128020000D01*
X171050000Y-129270000D01*
X170350000Y-129270000D01*
X170350000Y-128020000D01*
G36*
X171050000Y-129270000D02*
G01*
X170350000Y-129270000D01*
X170350000Y-128020000D01*
X171050000Y-128020000D01*
X171050000Y-129270000D01*
G37*
X171150000Y-128020000D02*
X171850000Y-128020000D01*
X171850000Y-129270000D01*
X171150000Y-129270000D01*
X171150000Y-128020000D01*
G36*
X171850000Y-129270000D02*
G01*
X171150000Y-129270000D01*
X171150000Y-128020000D01*
X171850000Y-128020000D01*
X171850000Y-129270000D01*
G37*
%TD*%
D11*
%TO.C,D6*%
X175410000Y-27750000D03*
X175410000Y-28850000D03*
X177240000Y-28850000D03*
X177240000Y-27750000D03*
%TD*%
%TO.C,D5*%
X155460000Y-27750000D03*
X155460000Y-28850000D03*
X157290000Y-28850000D03*
X157290000Y-27750000D03*
%TD*%
%TO.C,D4*%
X156565000Y-128390000D03*
X156565000Y-129490000D03*
X158395000Y-129490000D03*
X158395000Y-128390000D03*
%TD*%
%TO.C,D3*%
X144275000Y-28780000D03*
X144275000Y-29880000D03*
X146105000Y-29880000D03*
X146105000Y-28780000D03*
%TD*%
%TO.C,D2*%
X126315000Y-28780000D03*
X126315000Y-29880000D03*
X128145000Y-29880000D03*
X128145000Y-28780000D03*
%TD*%
%TO.C,D1*%
X143895000Y-128290000D03*
X143895000Y-129390000D03*
X145725000Y-129390000D03*
X145725000Y-128290000D03*
%TD*%
D12*
%TO.C,U11*%
X172300000Y-74950000D03*
X172300000Y-74100000D03*
X172300000Y-73250000D03*
X172300000Y-72400000D03*
X172300000Y-71550000D03*
X172300000Y-70700000D03*
X172300000Y-69850000D03*
X172300000Y-69000000D03*
X172300000Y-68150000D03*
X172300000Y-67300000D03*
X172300000Y-66450000D03*
X172300000Y-65600000D03*
X172300000Y-64750000D03*
X172300000Y-63900000D03*
X172300000Y-63050000D03*
D13*
X171250000Y-62000000D03*
X170400000Y-62000000D03*
X169550000Y-62000000D03*
X168700000Y-62000000D03*
X167850000Y-62000000D03*
X167000000Y-62000000D03*
X166150000Y-62000000D03*
X165300000Y-62000000D03*
X164450000Y-62000000D03*
X163600000Y-62000000D03*
X162750000Y-62000000D03*
X161900000Y-62000000D03*
X161050000Y-62000000D03*
X160200000Y-62000000D03*
X159350000Y-62000000D03*
D12*
X158300000Y-63050000D03*
X158300000Y-63900000D03*
X158300000Y-64750000D03*
X158300000Y-65600000D03*
X158300000Y-66450000D03*
X158300000Y-67300000D03*
X158300000Y-68150000D03*
X158300000Y-69000000D03*
X158300000Y-69850000D03*
X158300000Y-70700000D03*
X158300000Y-71550000D03*
X158300000Y-72400000D03*
X158300000Y-73250000D03*
X158300000Y-74100000D03*
X158300000Y-74950000D03*
D13*
X159350000Y-76000000D03*
X160200000Y-76000000D03*
X161050000Y-76000000D03*
X161900000Y-76000000D03*
X162750000Y-76000000D03*
X163600000Y-76000000D03*
X164450000Y-76000000D03*
X165300000Y-76000000D03*
X166150000Y-76000000D03*
X167000000Y-76000000D03*
X167850000Y-76000000D03*
X168700000Y-76000000D03*
X169550000Y-76000000D03*
X170400000Y-76000000D03*
X171250000Y-76000000D03*
D14*
X165300000Y-69000000D03*
X165300000Y-70650000D03*
X163650000Y-70650000D03*
X163650000Y-69000000D03*
X163650000Y-67350000D03*
X165300000Y-67350000D03*
X166950000Y-67350000D03*
X166950000Y-69000000D03*
D15*
X172300000Y-76000000D03*
X172300000Y-62000000D03*
X158300000Y-62000000D03*
X158300000Y-76000000D03*
%TD*%
D12*
%TO.C,U9*%
X145650000Y-74750000D03*
X145650000Y-73900000D03*
X145650000Y-73050000D03*
X145650000Y-72200000D03*
X145650000Y-71350000D03*
X145650000Y-70500000D03*
X145650000Y-69650000D03*
X145650000Y-68800000D03*
X145650000Y-67950000D03*
X145650000Y-67100000D03*
X145650000Y-66250000D03*
X145650000Y-65400000D03*
X145650000Y-64550000D03*
X145650000Y-63700000D03*
X145650000Y-62850000D03*
D13*
X144600000Y-61800000D03*
X143750000Y-61800000D03*
X142900000Y-61800000D03*
X142050000Y-61800000D03*
X141200000Y-61800000D03*
X140350000Y-61800000D03*
X139500000Y-61800000D03*
X138650000Y-61800000D03*
X137800000Y-61800000D03*
X136950000Y-61800000D03*
X136100000Y-61800000D03*
X135250000Y-61800000D03*
X134400000Y-61800000D03*
X133550000Y-61800000D03*
X132700000Y-61800000D03*
D12*
X131650000Y-62850000D03*
X131650000Y-63700000D03*
X131650000Y-64550000D03*
X131650000Y-65400000D03*
X131650000Y-66250000D03*
X131650000Y-67100000D03*
X131650000Y-67950000D03*
X131650000Y-68800000D03*
X131650000Y-69650000D03*
X131650000Y-70500000D03*
X131650000Y-71350000D03*
X131650000Y-72200000D03*
X131650000Y-73050000D03*
X131650000Y-73900000D03*
X131650000Y-74750000D03*
D13*
X132700000Y-75800000D03*
X133550000Y-75800000D03*
X134400000Y-75800000D03*
X135250000Y-75800000D03*
X136100000Y-75800000D03*
X136950000Y-75800000D03*
X137800000Y-75800000D03*
X138650000Y-75800000D03*
X139500000Y-75800000D03*
X140350000Y-75800000D03*
X141200000Y-75800000D03*
X142050000Y-75800000D03*
X142900000Y-75800000D03*
X143750000Y-75800000D03*
X144600000Y-75800000D03*
D14*
X138650000Y-68800000D03*
X138650000Y-70450000D03*
X137000000Y-70450000D03*
X137000000Y-68800000D03*
X137000000Y-67150000D03*
X138650000Y-67150000D03*
X140300000Y-67150000D03*
X140300000Y-68800000D03*
D15*
X145650000Y-75800000D03*
X145650000Y-61800000D03*
X131650000Y-61800000D03*
X131650000Y-75800000D03*
%TD*%
D16*
%TO.C,J1*%
X132590000Y-129720000D03*
X138370000Y-129720000D03*
D17*
X131160000Y-129220000D03*
X139800000Y-129220000D03*
D18*
X131160000Y-133400000D03*
X139800000Y-133400000D03*
%TD*%
D16*
%TO.C,J3*%
X165410000Y-129720000D03*
X171190000Y-129720000D03*
D17*
X163980000Y-129220000D03*
X172620000Y-129220000D03*
D18*
X163980000Y-133400000D03*
X172620000Y-133400000D03*
%TD*%
D19*
%TO.C,SW1*%
X126392300Y-63348750D03*
X126392300Y-70651250D03*
D20*
X126938400Y-68873250D03*
X126938400Y-65126750D03*
%TD*%
D19*
%TO.C,SW2*%
X126191200Y-83668750D03*
X126191200Y-90971250D03*
D20*
X126737300Y-89193250D03*
X126737300Y-85446750D03*
%TD*%
D19*
%TO.C,SW3*%
X126191200Y-103798750D03*
X126191200Y-111101250D03*
D20*
X126737300Y-109323250D03*
X126737300Y-105576750D03*
%TD*%
D19*
%TO.C,SW4*%
X126691200Y-124128750D03*
X126691200Y-131431250D03*
D20*
X127237300Y-129653250D03*
X127237300Y-125906750D03*
%TD*%
D21*
%TO.C,SW11*%
X143970000Y-133780000D03*
X146970000Y-133780000D03*
D22*
X143220000Y-132030000D03*
X146220000Y-132030000D03*
X147720000Y-132030000D03*
D23*
X141820000Y-132815000D03*
X141820000Y-134745000D03*
X149120000Y-134745000D03*
X149120000Y-132815000D03*
%TD*%
D19*
%TO.C,SW12*%
X177308800Y-70421250D03*
X177308800Y-63118750D03*
D20*
X176762700Y-64896750D03*
X176762700Y-68643250D03*
%TD*%
D19*
%TO.C,SW13*%
X177308800Y-90961250D03*
X177308800Y-83658750D03*
D20*
X176762700Y-85436750D03*
X176762700Y-89183250D03*
%TD*%
D19*
%TO.C,SW14*%
X177308800Y-111091250D03*
X177308800Y-103788750D03*
D20*
X176762700Y-105566750D03*
X176762700Y-109313250D03*
%TD*%
D19*
%TO.C,SW15*%
X177308800Y-131421250D03*
X177308800Y-124118750D03*
D20*
X176762700Y-125896750D03*
X176762700Y-129643250D03*
%TD*%
D21*
%TO.C,SW22*%
X156660000Y-133620000D03*
X159660000Y-133620000D03*
D22*
X155910000Y-131870000D03*
X158910000Y-131870000D03*
X160410000Y-131870000D03*
D23*
X154510000Y-132655000D03*
X154510000Y-134585000D03*
X161810000Y-134585000D03*
X161810000Y-132655000D03*
%TD*%
D24*
%TO.C,U3*%
X135542500Y-97090000D03*
X135542500Y-97590000D03*
X135542500Y-98090000D03*
X135542500Y-98590000D03*
D25*
X136230000Y-99277500D03*
X136730000Y-99277500D03*
X137230000Y-99277500D03*
X137730000Y-99277500D03*
D24*
X138417500Y-98590000D03*
X138417500Y-98090000D03*
X138417500Y-97590000D03*
X138417500Y-97090000D03*
D25*
X137730000Y-96402500D03*
X137230000Y-96402500D03*
X136730000Y-96402500D03*
X136230000Y-96402500D03*
D26*
X136980000Y-97840000D03*
%TD*%
D24*
%TO.C,U7*%
X162762500Y-96440000D03*
X162762500Y-96940000D03*
X162762500Y-97440000D03*
X162762500Y-97940000D03*
D25*
X163450000Y-98627500D03*
X163950000Y-98627500D03*
X164450000Y-98627500D03*
X164950000Y-98627500D03*
D24*
X165637500Y-97940000D03*
X165637500Y-97440000D03*
X165637500Y-96940000D03*
X165637500Y-96440000D03*
D25*
X164950000Y-95752500D03*
X164450000Y-95752500D03*
X163950000Y-95752500D03*
X163450000Y-95752500D03*
D26*
X164200000Y-97190000D03*
%TD*%
D27*
%TO.C,U10*%
X150630000Y-67160000D03*
X152830000Y-67160000D03*
X150630000Y-66360000D03*
X152830000Y-66360000D03*
X150630000Y-65560000D03*
X152830000Y-65560000D03*
%TD*%
%TO.C,U12*%
X150630000Y-120050000D03*
X152830000Y-120050000D03*
X150630000Y-119250000D03*
X152830000Y-119250000D03*
X150630000Y-118450000D03*
X152830000Y-118450000D03*
%TD*%
%TO.C,U14*%
X150630000Y-78610000D03*
X152830000Y-78610000D03*
X150630000Y-77810000D03*
X152830000Y-77810000D03*
X150630000Y-77010000D03*
X152830000Y-77010000D03*
%TD*%
%TO.C,U16*%
X150630000Y-128770000D03*
X152830000Y-128770000D03*
X150630000Y-127970000D03*
X152830000Y-127970000D03*
X150630000Y-127170000D03*
X152830000Y-127170000D03*
%TD*%
%TO.C,U18*%
X150630000Y-43010000D03*
X152830000Y-43010000D03*
X150630000Y-42210000D03*
X152830000Y-42210000D03*
X150630000Y-41410000D03*
X152830000Y-41410000D03*
%TD*%
%TO.C,U20*%
X150630000Y-100190000D03*
X152830000Y-100190000D03*
X150630000Y-99390000D03*
X152830000Y-99390000D03*
X150630000Y-98590000D03*
X152830000Y-98590000D03*
%TD*%
%TO.C,U22*%
X150630000Y-30140000D03*
X152830000Y-30140000D03*
X150630000Y-29340000D03*
X152830000Y-29340000D03*
X150630000Y-28540000D03*
X152830000Y-28540000D03*
%TD*%
%TO.C,U24*%
X150630000Y-89200000D03*
X152830000Y-89200000D03*
X150630000Y-88400000D03*
X152830000Y-88400000D03*
X150630000Y-87600000D03*
X152830000Y-87600000D03*
%TD*%
%TO.C,U26*%
X150630000Y-57910000D03*
X152830000Y-57910000D03*
X150630000Y-57110000D03*
X152830000Y-57110000D03*
X150630000Y-56310000D03*
X152830000Y-56310000D03*
%TD*%
%TO.C,U28*%
X150630000Y-110620000D03*
X152830000Y-110620000D03*
X150630000Y-109820000D03*
X152830000Y-109820000D03*
X150630000Y-109020000D03*
X152830000Y-109020000D03*
%TD*%
D28*
%TO.C,U4*%
X136270000Y-123682500D03*
X135320000Y-123682500D03*
X134370000Y-123682500D03*
X134370000Y-125957500D03*
X135320000Y-125957500D03*
X136270000Y-125957500D03*
%TD*%
D29*
%TO.C,R15*%
X139875000Y-125640000D03*
X138225000Y-125640000D03*
%TD*%
D30*
%TO.C,R19*%
X171005000Y-108830000D03*
X172655000Y-108830000D03*
%TD*%
D29*
%TO.C,R3*%
X147255000Y-125610000D03*
X145605000Y-125610000D03*
%TD*%
D31*
%TO.C,R22*%
X175375000Y-32225000D03*
X175375000Y-30575000D03*
%TD*%
D32*
%TO.C,C16*%
X139210000Y-92280000D03*
X139210000Y-93830000D03*
%TD*%
D33*
%TO.C,C3*%
X145660000Y-38230000D03*
X144110000Y-38230000D03*
%TD*%
D34*
%TO.C,C9*%
X147930000Y-75225000D03*
X147930000Y-73675000D03*
%TD*%
D35*
%TO.C,R17*%
X176490000Y-52595000D03*
X176490000Y-54245000D03*
%TD*%
D34*
%TO.C,C31*%
X168407500Y-103400000D03*
X168407500Y-101850000D03*
%TD*%
D35*
%TO.C,R26*%
X160875000Y-92700000D03*
X160875000Y-94350000D03*
%TD*%
D34*
%TO.C,C19*%
X176530000Y-46605000D03*
X176530000Y-45055000D03*
%TD*%
D36*
%TO.C,SW20*%
X162380000Y-115040000D03*
X156080000Y-115040000D03*
X162380000Y-111240000D03*
X156080000Y-111240000D03*
%TD*%
D35*
%TO.C,R11*%
X133485000Y-93230000D03*
X133485000Y-94880000D03*
%TD*%
%TO.C,R2*%
X147020000Y-54155000D03*
X147020000Y-55805000D03*
%TD*%
D34*
%TO.C,C30*%
X157600000Y-32175000D03*
X157600000Y-30625000D03*
%TD*%
D31*
%TO.C,R21*%
X155950000Y-32225000D03*
X155950000Y-30575000D03*
%TD*%
D34*
%TO.C,C18*%
X129810000Y-98705000D03*
X129810000Y-97155000D03*
%TD*%
D35*
%TO.C,R25*%
X168500000Y-93975000D03*
X168500000Y-95625000D03*
%TD*%
D34*
%TO.C,C36*%
X157050000Y-97900000D03*
X157050000Y-96350000D03*
%TD*%
%TO.C,C14*%
X146385000Y-33205000D03*
X146385000Y-31655000D03*
%TD*%
%TO.C,C6*%
X143160000Y-89105000D03*
X143160000Y-87555000D03*
%TD*%
D37*
%TO.C,C10*%
X127605000Y-73900000D03*
X129155000Y-73900000D03*
%TD*%
D31*
%TO.C,R23*%
X156340000Y-74115000D03*
X156340000Y-72465000D03*
%TD*%
D36*
%TO.C,SW9*%
X137910000Y-114410000D03*
X131610000Y-114410000D03*
X137910000Y-110610000D03*
X131610000Y-110610000D03*
%TD*%
D32*
%TO.C,C33*%
X164450000Y-91225000D03*
X164450000Y-92775000D03*
%TD*%
%TO.C,C8*%
X147750000Y-70185000D03*
X147750000Y-71735000D03*
%TD*%
D29*
%TO.C,R27*%
X165095000Y-125490000D03*
X163445000Y-125490000D03*
%TD*%
D30*
%TO.C,R29*%
X158855000Y-96270000D03*
X160505000Y-96270000D03*
%TD*%
D38*
%TO.C,S2*%
X161680000Y-51890000D03*
D39*
X173660000Y-48640000D03*
X173660000Y-46140000D03*
X173660000Y-43640000D03*
D38*
X161680000Y-56390000D03*
D39*
X167430000Y-37410000D03*
X164930000Y-37410000D03*
X162430000Y-37410000D03*
D38*
X168180000Y-51890000D03*
X168180000Y-56390000D03*
D40*
X158605000Y-51140000D03*
X158605000Y-41140000D03*
X171255000Y-51140000D03*
X171255000Y-41140000D03*
D41*
X160630000Y-46140000D03*
X169230000Y-46140000D03*
%TD*%
D38*
%TO.C,S1*%
X132170000Y-51890000D03*
D39*
X144150000Y-48640000D03*
X144150000Y-46140000D03*
X144150000Y-43640000D03*
D38*
X132170000Y-56390000D03*
D39*
X137920000Y-37410000D03*
X135420000Y-37410000D03*
X132920000Y-37410000D03*
D38*
X138670000Y-51890000D03*
X138670000Y-56390000D03*
D40*
X129095000Y-51140000D03*
X129095000Y-41140000D03*
X141745000Y-51140000D03*
X141745000Y-41140000D03*
D41*
X131120000Y-46140000D03*
X139720000Y-46140000D03*
%TD*%
D35*
%TO.C,R10*%
X141160000Y-94780000D03*
X141160000Y-96430000D03*
%TD*%
D28*
%TO.C,U8*%
X168882500Y-123682500D03*
X167932500Y-123682500D03*
X166982500Y-123682500D03*
X166982500Y-125957500D03*
X167932500Y-125957500D03*
X168882500Y-125957500D03*
%TD*%
D33*
%TO.C,C21*%
X174350000Y-37200000D03*
X172800000Y-37200000D03*
%TD*%
D42*
%TO.C,U5*%
X163232500Y-102070000D03*
X163232500Y-103020000D03*
X163232500Y-103970000D03*
X165507500Y-103970000D03*
X165507500Y-102070000D03*
%TD*%
D43*
%TO.C,R20*%
X155980000Y-89650000D03*
D44*
X155980000Y-87110000D03*
X155980000Y-84570000D03*
%TD*%
D29*
%TO.C,R13*%
X133305000Y-98570000D03*
X131655000Y-98570000D03*
%TD*%
D42*
%TO.C,U1*%
X135050000Y-102070000D03*
X135050000Y-103020000D03*
X135050000Y-103970000D03*
X137325000Y-103970000D03*
X137325000Y-102070000D03*
%TD*%
D45*
%TO.C,R5*%
X147480000Y-84800000D03*
D44*
X147480000Y-87340000D03*
X147480000Y-89880000D03*
%TD*%
D34*
%TO.C,C12*%
X126290000Y-33145000D03*
X126290000Y-31595000D03*
%TD*%
D36*
%TO.C,SW10*%
X140585000Y-110610000D03*
X146885000Y-110610000D03*
X140585000Y-114410000D03*
X146885000Y-114410000D03*
%TD*%
D30*
%TO.C,R4*%
X144185000Y-106660000D03*
X145835000Y-106660000D03*
%TD*%
D34*
%TO.C,C32*%
X177200000Y-32175000D03*
X177200000Y-30625000D03*
%TD*%
D32*
%TO.C,C24*%
X159470000Y-84865000D03*
X159470000Y-86415000D03*
%TD*%
D34*
%TO.C,C1*%
X147010000Y-47705000D03*
X147010000Y-46155000D03*
%TD*%
D35*
%TO.C,R6*%
X128190000Y-31545000D03*
X128190000Y-33195000D03*
%TD*%
D29*
%TO.C,R28*%
X160475000Y-97980000D03*
X158825000Y-97980000D03*
%TD*%
D32*
%TO.C,C5*%
X147020000Y-50985000D03*
X147020000Y-52535000D03*
%TD*%
D34*
%TO.C,C23*%
X176530000Y-50935000D03*
X176530000Y-49385000D03*
%TD*%
D35*
%TO.C,R24*%
X162700000Y-91600000D03*
X162700000Y-93250000D03*
%TD*%
D29*
%TO.C,R12*%
X132475000Y-125580000D03*
X130825000Y-125580000D03*
%TD*%
D33*
%TO.C,C35*%
X169675000Y-97450000D03*
X168125000Y-97450000D03*
%TD*%
D37*
%TO.C,C7*%
X142480000Y-125610000D03*
X144030000Y-125610000D03*
%TD*%
D35*
%TO.C,R9*%
X135485000Y-92430000D03*
X135485000Y-94080000D03*
%TD*%
D29*
%TO.C,R8*%
X129205000Y-75840000D03*
X127555000Y-75840000D03*
%TD*%
D32*
%TO.C,C34*%
X166250000Y-92050000D03*
X166250000Y-93600000D03*
%TD*%
D34*
%TO.C,C13*%
X140380000Y-103785000D03*
X140380000Y-102235000D03*
%TD*%
D32*
%TO.C,C29*%
X160027500Y-101850000D03*
X160027500Y-103400000D03*
%TD*%
D33*
%TO.C,C17*%
X142235000Y-98055000D03*
X140685000Y-98055000D03*
%TD*%
%TO.C,C26*%
X176515000Y-75280000D03*
X174965000Y-75280000D03*
%TD*%
D35*
%TO.C,R7*%
X144435000Y-31605000D03*
X144435000Y-33255000D03*
%TD*%
D33*
%TO.C,C27*%
X176455000Y-73140000D03*
X174905000Y-73140000D03*
%TD*%
D30*
%TO.C,R14*%
X131685000Y-96960000D03*
X133335000Y-96960000D03*
%TD*%
D29*
%TO.C,R18*%
X160105000Y-125550000D03*
X158455000Y-125550000D03*
%TD*%
%TO.C,R30*%
X172385000Y-125380000D03*
X170735000Y-125380000D03*
%TD*%
D32*
%TO.C,C15*%
X137310000Y-91480000D03*
X137310000Y-93030000D03*
%TD*%
%TO.C,C11*%
X132470000Y-102175000D03*
X132470000Y-103725000D03*
%TD*%
D37*
%TO.C,C25*%
X155180000Y-125550000D03*
X156730000Y-125550000D03*
%TD*%
D36*
%TO.C,SW21*%
X165390000Y-111240000D03*
X171690000Y-111240000D03*
X165390000Y-115040000D03*
X171690000Y-115040000D03*
%TD*%
D34*
%TO.C,C28*%
X156320000Y-77585000D03*
X156320000Y-76035000D03*
%TD*%
M02*
