%TF.GenerationSoftware,KiCad,Pcbnew,10.0.4*%
%TF.CreationDate,2026-07-23T14:31:14-04:00*%
%TF.ProjectId,R2_HH_Controllers,52325f48-485f-4436-9f6e-74726f6c6c65,rev?*%
%TF.SameCoordinates,Original*%
%TF.FileFunction,Legend,Bot*%
%TF.FilePolarity,Positive*%
%FSLAX46Y46*%
G04 Gerber Fmt 4.6, Leading zero omitted, Abs format (unit mm)*
G04 Created by KiCad (PCBNEW 10.0.4) date 2026-07-23 14:31:14*
%MOMM*%
%LPD*%
G01*
G04 APERTURE LIST*
%ADD10C,0.150000*%
%ADD11C,0.152400*%
%ADD12C,0.127000*%
%ADD13C,0.200000*%
%ADD14C,0.300000*%
%ADD15C,0.120000*%
G04 APERTURE END LIST*
D10*
X127333332Y-58657200D02*
X127190475Y-58704819D01*
X127190475Y-58704819D02*
X126952380Y-58704819D01*
X126952380Y-58704819D02*
X126857142Y-58657200D01*
X126857142Y-58657200D02*
X126809523Y-58609580D01*
X126809523Y-58609580D02*
X126761904Y-58514342D01*
X126761904Y-58514342D02*
X126761904Y-58419104D01*
X126761904Y-58419104D02*
X126809523Y-58323866D01*
X126809523Y-58323866D02*
X126857142Y-58276247D01*
X126857142Y-58276247D02*
X126952380Y-58228628D01*
X126952380Y-58228628D02*
X127142856Y-58181009D01*
X127142856Y-58181009D02*
X127238094Y-58133390D01*
X127238094Y-58133390D02*
X127285713Y-58085771D01*
X127285713Y-58085771D02*
X127333332Y-57990533D01*
X127333332Y-57990533D02*
X127333332Y-57895295D01*
X127333332Y-57895295D02*
X127285713Y-57800057D01*
X127285713Y-57800057D02*
X127238094Y-57752438D01*
X127238094Y-57752438D02*
X127142856Y-57704819D01*
X127142856Y-57704819D02*
X126904761Y-57704819D01*
X126904761Y-57704819D02*
X126761904Y-57752438D01*
X126428570Y-57704819D02*
X126190475Y-58704819D01*
X126190475Y-58704819D02*
X125999999Y-57990533D01*
X125999999Y-57990533D02*
X125809523Y-58704819D01*
X125809523Y-58704819D02*
X125571428Y-57704819D01*
X124714285Y-57704819D02*
X125190475Y-57704819D01*
X125190475Y-57704819D02*
X125238094Y-58181009D01*
X125238094Y-58181009D02*
X125190475Y-58133390D01*
X125190475Y-58133390D02*
X125095237Y-58085771D01*
X125095237Y-58085771D02*
X124857142Y-58085771D01*
X124857142Y-58085771D02*
X124761904Y-58133390D01*
X124761904Y-58133390D02*
X124714285Y-58181009D01*
X124714285Y-58181009D02*
X124666666Y-58276247D01*
X124666666Y-58276247D02*
X124666666Y-58514342D01*
X124666666Y-58514342D02*
X124714285Y-58609580D01*
X124714285Y-58609580D02*
X124761904Y-58657200D01*
X124761904Y-58657200D02*
X124857142Y-58704819D01*
X124857142Y-58704819D02*
X125095237Y-58704819D01*
X125095237Y-58704819D02*
X125190475Y-58657200D01*
X125190475Y-58657200D02*
X125238094Y-58609580D01*
X127333332Y-79407200D02*
X127190475Y-79454819D01*
X127190475Y-79454819D02*
X126952380Y-79454819D01*
X126952380Y-79454819D02*
X126857142Y-79407200D01*
X126857142Y-79407200D02*
X126809523Y-79359580D01*
X126809523Y-79359580D02*
X126761904Y-79264342D01*
X126761904Y-79264342D02*
X126761904Y-79169104D01*
X126761904Y-79169104D02*
X126809523Y-79073866D01*
X126809523Y-79073866D02*
X126857142Y-79026247D01*
X126857142Y-79026247D02*
X126952380Y-78978628D01*
X126952380Y-78978628D02*
X127142856Y-78931009D01*
X127142856Y-78931009D02*
X127238094Y-78883390D01*
X127238094Y-78883390D02*
X127285713Y-78835771D01*
X127285713Y-78835771D02*
X127333332Y-78740533D01*
X127333332Y-78740533D02*
X127333332Y-78645295D01*
X127333332Y-78645295D02*
X127285713Y-78550057D01*
X127285713Y-78550057D02*
X127238094Y-78502438D01*
X127238094Y-78502438D02*
X127142856Y-78454819D01*
X127142856Y-78454819D02*
X126904761Y-78454819D01*
X126904761Y-78454819D02*
X126761904Y-78502438D01*
X126428570Y-78454819D02*
X126190475Y-79454819D01*
X126190475Y-79454819D02*
X125999999Y-78740533D01*
X125999999Y-78740533D02*
X125809523Y-79454819D01*
X125809523Y-79454819D02*
X125571428Y-78454819D01*
X124761904Y-78454819D02*
X124952380Y-78454819D01*
X124952380Y-78454819D02*
X125047618Y-78502438D01*
X125047618Y-78502438D02*
X125095237Y-78550057D01*
X125095237Y-78550057D02*
X125190475Y-78692914D01*
X125190475Y-78692914D02*
X125238094Y-78883390D01*
X125238094Y-78883390D02*
X125238094Y-79264342D01*
X125238094Y-79264342D02*
X125190475Y-79359580D01*
X125190475Y-79359580D02*
X125142856Y-79407200D01*
X125142856Y-79407200D02*
X125047618Y-79454819D01*
X125047618Y-79454819D02*
X124857142Y-79454819D01*
X124857142Y-79454819D02*
X124761904Y-79407200D01*
X124761904Y-79407200D02*
X124714285Y-79359580D01*
X124714285Y-79359580D02*
X124666666Y-79264342D01*
X124666666Y-79264342D02*
X124666666Y-79026247D01*
X124666666Y-79026247D02*
X124714285Y-78931009D01*
X124714285Y-78931009D02*
X124761904Y-78883390D01*
X124761904Y-78883390D02*
X124857142Y-78835771D01*
X124857142Y-78835771D02*
X125047618Y-78835771D01*
X125047618Y-78835771D02*
X125142856Y-78883390D01*
X125142856Y-78883390D02*
X125190475Y-78931009D01*
X125190475Y-78931009D02*
X125238094Y-79026247D01*
X127333332Y-99567200D02*
X127190475Y-99614819D01*
X127190475Y-99614819D02*
X126952380Y-99614819D01*
X126952380Y-99614819D02*
X126857142Y-99567200D01*
X126857142Y-99567200D02*
X126809523Y-99519580D01*
X126809523Y-99519580D02*
X126761904Y-99424342D01*
X126761904Y-99424342D02*
X126761904Y-99329104D01*
X126761904Y-99329104D02*
X126809523Y-99233866D01*
X126809523Y-99233866D02*
X126857142Y-99186247D01*
X126857142Y-99186247D02*
X126952380Y-99138628D01*
X126952380Y-99138628D02*
X127142856Y-99091009D01*
X127142856Y-99091009D02*
X127238094Y-99043390D01*
X127238094Y-99043390D02*
X127285713Y-98995771D01*
X127285713Y-98995771D02*
X127333332Y-98900533D01*
X127333332Y-98900533D02*
X127333332Y-98805295D01*
X127333332Y-98805295D02*
X127285713Y-98710057D01*
X127285713Y-98710057D02*
X127238094Y-98662438D01*
X127238094Y-98662438D02*
X127142856Y-98614819D01*
X127142856Y-98614819D02*
X126904761Y-98614819D01*
X126904761Y-98614819D02*
X126761904Y-98662438D01*
X126428570Y-98614819D02*
X126190475Y-99614819D01*
X126190475Y-99614819D02*
X125999999Y-98900533D01*
X125999999Y-98900533D02*
X125809523Y-99614819D01*
X125809523Y-99614819D02*
X125571428Y-98614819D01*
X125285713Y-98614819D02*
X124619047Y-98614819D01*
X124619047Y-98614819D02*
X125047618Y-99614819D01*
X127333332Y-119907200D02*
X127190475Y-119954819D01*
X127190475Y-119954819D02*
X126952380Y-119954819D01*
X126952380Y-119954819D02*
X126857142Y-119907200D01*
X126857142Y-119907200D02*
X126809523Y-119859580D01*
X126809523Y-119859580D02*
X126761904Y-119764342D01*
X126761904Y-119764342D02*
X126761904Y-119669104D01*
X126761904Y-119669104D02*
X126809523Y-119573866D01*
X126809523Y-119573866D02*
X126857142Y-119526247D01*
X126857142Y-119526247D02*
X126952380Y-119478628D01*
X126952380Y-119478628D02*
X127142856Y-119431009D01*
X127142856Y-119431009D02*
X127238094Y-119383390D01*
X127238094Y-119383390D02*
X127285713Y-119335771D01*
X127285713Y-119335771D02*
X127333332Y-119240533D01*
X127333332Y-119240533D02*
X127333332Y-119145295D01*
X127333332Y-119145295D02*
X127285713Y-119050057D01*
X127285713Y-119050057D02*
X127238094Y-119002438D01*
X127238094Y-119002438D02*
X127142856Y-118954819D01*
X127142856Y-118954819D02*
X126904761Y-118954819D01*
X126904761Y-118954819D02*
X126761904Y-119002438D01*
X126428570Y-118954819D02*
X126190475Y-119954819D01*
X126190475Y-119954819D02*
X125999999Y-119240533D01*
X125999999Y-119240533D02*
X125809523Y-119954819D01*
X125809523Y-119954819D02*
X125571428Y-118954819D01*
X125047618Y-119383390D02*
X125142856Y-119335771D01*
X125142856Y-119335771D02*
X125190475Y-119288152D01*
X125190475Y-119288152D02*
X125238094Y-119192914D01*
X125238094Y-119192914D02*
X125238094Y-119145295D01*
X125238094Y-119145295D02*
X125190475Y-119050057D01*
X125190475Y-119050057D02*
X125142856Y-119002438D01*
X125142856Y-119002438D02*
X125047618Y-118954819D01*
X125047618Y-118954819D02*
X124857142Y-118954819D01*
X124857142Y-118954819D02*
X124761904Y-119002438D01*
X124761904Y-119002438D02*
X124714285Y-119050057D01*
X124714285Y-119050057D02*
X124666666Y-119145295D01*
X124666666Y-119145295D02*
X124666666Y-119192914D01*
X124666666Y-119192914D02*
X124714285Y-119288152D01*
X124714285Y-119288152D02*
X124761904Y-119335771D01*
X124761904Y-119335771D02*
X124857142Y-119383390D01*
X124857142Y-119383390D02*
X125047618Y-119383390D01*
X125047618Y-119383390D02*
X125142856Y-119431009D01*
X125142856Y-119431009D02*
X125190475Y-119478628D01*
X125190475Y-119478628D02*
X125238094Y-119573866D01*
X125238094Y-119573866D02*
X125238094Y-119764342D01*
X125238094Y-119764342D02*
X125190475Y-119859580D01*
X125190475Y-119859580D02*
X125142856Y-119907200D01*
X125142856Y-119907200D02*
X125047618Y-119954819D01*
X125047618Y-119954819D02*
X124857142Y-119954819D01*
X124857142Y-119954819D02*
X124761904Y-119907200D01*
X124761904Y-119907200D02*
X124714285Y-119859580D01*
X124714285Y-119859580D02*
X124666666Y-119764342D01*
X124666666Y-119764342D02*
X124666666Y-119573866D01*
X124666666Y-119573866D02*
X124714285Y-119478628D01*
X124714285Y-119478628D02*
X124761904Y-119431009D01*
X124761904Y-119431009D02*
X124857142Y-119383390D01*
X179309523Y-58907200D02*
X179166666Y-58954819D01*
X179166666Y-58954819D02*
X178928571Y-58954819D01*
X178928571Y-58954819D02*
X178833333Y-58907200D01*
X178833333Y-58907200D02*
X178785714Y-58859580D01*
X178785714Y-58859580D02*
X178738095Y-58764342D01*
X178738095Y-58764342D02*
X178738095Y-58669104D01*
X178738095Y-58669104D02*
X178785714Y-58573866D01*
X178785714Y-58573866D02*
X178833333Y-58526247D01*
X178833333Y-58526247D02*
X178928571Y-58478628D01*
X178928571Y-58478628D02*
X179119047Y-58431009D01*
X179119047Y-58431009D02*
X179214285Y-58383390D01*
X179214285Y-58383390D02*
X179261904Y-58335771D01*
X179261904Y-58335771D02*
X179309523Y-58240533D01*
X179309523Y-58240533D02*
X179309523Y-58145295D01*
X179309523Y-58145295D02*
X179261904Y-58050057D01*
X179261904Y-58050057D02*
X179214285Y-58002438D01*
X179214285Y-58002438D02*
X179119047Y-57954819D01*
X179119047Y-57954819D02*
X178880952Y-57954819D01*
X178880952Y-57954819D02*
X178738095Y-58002438D01*
X178404761Y-57954819D02*
X178166666Y-58954819D01*
X178166666Y-58954819D02*
X177976190Y-58240533D01*
X177976190Y-58240533D02*
X177785714Y-58954819D01*
X177785714Y-58954819D02*
X177547619Y-57954819D01*
X176642857Y-58954819D02*
X177214285Y-58954819D01*
X176928571Y-58954819D02*
X176928571Y-57954819D01*
X176928571Y-57954819D02*
X177023809Y-58097676D01*
X177023809Y-58097676D02*
X177119047Y-58192914D01*
X177119047Y-58192914D02*
X177214285Y-58240533D01*
X175785714Y-57954819D02*
X175976190Y-57954819D01*
X175976190Y-57954819D02*
X176071428Y-58002438D01*
X176071428Y-58002438D02*
X176119047Y-58050057D01*
X176119047Y-58050057D02*
X176214285Y-58192914D01*
X176214285Y-58192914D02*
X176261904Y-58383390D01*
X176261904Y-58383390D02*
X176261904Y-58764342D01*
X176261904Y-58764342D02*
X176214285Y-58859580D01*
X176214285Y-58859580D02*
X176166666Y-58907200D01*
X176166666Y-58907200D02*
X176071428Y-58954819D01*
X176071428Y-58954819D02*
X175880952Y-58954819D01*
X175880952Y-58954819D02*
X175785714Y-58907200D01*
X175785714Y-58907200D02*
X175738095Y-58859580D01*
X175738095Y-58859580D02*
X175690476Y-58764342D01*
X175690476Y-58764342D02*
X175690476Y-58526247D01*
X175690476Y-58526247D02*
X175738095Y-58431009D01*
X175738095Y-58431009D02*
X175785714Y-58383390D01*
X175785714Y-58383390D02*
X175880952Y-58335771D01*
X175880952Y-58335771D02*
X176071428Y-58335771D01*
X176071428Y-58335771D02*
X176166666Y-58383390D01*
X176166666Y-58383390D02*
X176214285Y-58431009D01*
X176214285Y-58431009D02*
X176261904Y-58526247D01*
X179309523Y-79407200D02*
X179166666Y-79454819D01*
X179166666Y-79454819D02*
X178928571Y-79454819D01*
X178928571Y-79454819D02*
X178833333Y-79407200D01*
X178833333Y-79407200D02*
X178785714Y-79359580D01*
X178785714Y-79359580D02*
X178738095Y-79264342D01*
X178738095Y-79264342D02*
X178738095Y-79169104D01*
X178738095Y-79169104D02*
X178785714Y-79073866D01*
X178785714Y-79073866D02*
X178833333Y-79026247D01*
X178833333Y-79026247D02*
X178928571Y-78978628D01*
X178928571Y-78978628D02*
X179119047Y-78931009D01*
X179119047Y-78931009D02*
X179214285Y-78883390D01*
X179214285Y-78883390D02*
X179261904Y-78835771D01*
X179261904Y-78835771D02*
X179309523Y-78740533D01*
X179309523Y-78740533D02*
X179309523Y-78645295D01*
X179309523Y-78645295D02*
X179261904Y-78550057D01*
X179261904Y-78550057D02*
X179214285Y-78502438D01*
X179214285Y-78502438D02*
X179119047Y-78454819D01*
X179119047Y-78454819D02*
X178880952Y-78454819D01*
X178880952Y-78454819D02*
X178738095Y-78502438D01*
X178404761Y-78454819D02*
X178166666Y-79454819D01*
X178166666Y-79454819D02*
X177976190Y-78740533D01*
X177976190Y-78740533D02*
X177785714Y-79454819D01*
X177785714Y-79454819D02*
X177547619Y-78454819D01*
X176642857Y-79454819D02*
X177214285Y-79454819D01*
X176928571Y-79454819D02*
X176928571Y-78454819D01*
X176928571Y-78454819D02*
X177023809Y-78597676D01*
X177023809Y-78597676D02*
X177119047Y-78692914D01*
X177119047Y-78692914D02*
X177214285Y-78740533D01*
X176309523Y-78454819D02*
X175642857Y-78454819D01*
X175642857Y-78454819D02*
X176071428Y-79454819D01*
X179809523Y-99407200D02*
X179666666Y-99454819D01*
X179666666Y-99454819D02*
X179428571Y-99454819D01*
X179428571Y-99454819D02*
X179333333Y-99407200D01*
X179333333Y-99407200D02*
X179285714Y-99359580D01*
X179285714Y-99359580D02*
X179238095Y-99264342D01*
X179238095Y-99264342D02*
X179238095Y-99169104D01*
X179238095Y-99169104D02*
X179285714Y-99073866D01*
X179285714Y-99073866D02*
X179333333Y-99026247D01*
X179333333Y-99026247D02*
X179428571Y-98978628D01*
X179428571Y-98978628D02*
X179619047Y-98931009D01*
X179619047Y-98931009D02*
X179714285Y-98883390D01*
X179714285Y-98883390D02*
X179761904Y-98835771D01*
X179761904Y-98835771D02*
X179809523Y-98740533D01*
X179809523Y-98740533D02*
X179809523Y-98645295D01*
X179809523Y-98645295D02*
X179761904Y-98550057D01*
X179761904Y-98550057D02*
X179714285Y-98502438D01*
X179714285Y-98502438D02*
X179619047Y-98454819D01*
X179619047Y-98454819D02*
X179380952Y-98454819D01*
X179380952Y-98454819D02*
X179238095Y-98502438D01*
X178904761Y-98454819D02*
X178666666Y-99454819D01*
X178666666Y-99454819D02*
X178476190Y-98740533D01*
X178476190Y-98740533D02*
X178285714Y-99454819D01*
X178285714Y-99454819D02*
X178047619Y-98454819D01*
X177142857Y-99454819D02*
X177714285Y-99454819D01*
X177428571Y-99454819D02*
X177428571Y-98454819D01*
X177428571Y-98454819D02*
X177523809Y-98597676D01*
X177523809Y-98597676D02*
X177619047Y-98692914D01*
X177619047Y-98692914D02*
X177714285Y-98740533D01*
X176571428Y-98883390D02*
X176666666Y-98835771D01*
X176666666Y-98835771D02*
X176714285Y-98788152D01*
X176714285Y-98788152D02*
X176761904Y-98692914D01*
X176761904Y-98692914D02*
X176761904Y-98645295D01*
X176761904Y-98645295D02*
X176714285Y-98550057D01*
X176714285Y-98550057D02*
X176666666Y-98502438D01*
X176666666Y-98502438D02*
X176571428Y-98454819D01*
X176571428Y-98454819D02*
X176380952Y-98454819D01*
X176380952Y-98454819D02*
X176285714Y-98502438D01*
X176285714Y-98502438D02*
X176238095Y-98550057D01*
X176238095Y-98550057D02*
X176190476Y-98645295D01*
X176190476Y-98645295D02*
X176190476Y-98692914D01*
X176190476Y-98692914D02*
X176238095Y-98788152D01*
X176238095Y-98788152D02*
X176285714Y-98835771D01*
X176285714Y-98835771D02*
X176380952Y-98883390D01*
X176380952Y-98883390D02*
X176571428Y-98883390D01*
X176571428Y-98883390D02*
X176666666Y-98931009D01*
X176666666Y-98931009D02*
X176714285Y-98978628D01*
X176714285Y-98978628D02*
X176761904Y-99073866D01*
X176761904Y-99073866D02*
X176761904Y-99264342D01*
X176761904Y-99264342D02*
X176714285Y-99359580D01*
X176714285Y-99359580D02*
X176666666Y-99407200D01*
X176666666Y-99407200D02*
X176571428Y-99454819D01*
X176571428Y-99454819D02*
X176380952Y-99454819D01*
X176380952Y-99454819D02*
X176285714Y-99407200D01*
X176285714Y-99407200D02*
X176238095Y-99359580D01*
X176238095Y-99359580D02*
X176190476Y-99264342D01*
X176190476Y-99264342D02*
X176190476Y-99073866D01*
X176190476Y-99073866D02*
X176238095Y-98978628D01*
X176238095Y-98978628D02*
X176285714Y-98931009D01*
X176285714Y-98931009D02*
X176380952Y-98883390D01*
X179309523Y-119907200D02*
X179166666Y-119954819D01*
X179166666Y-119954819D02*
X178928571Y-119954819D01*
X178928571Y-119954819D02*
X178833333Y-119907200D01*
X178833333Y-119907200D02*
X178785714Y-119859580D01*
X178785714Y-119859580D02*
X178738095Y-119764342D01*
X178738095Y-119764342D02*
X178738095Y-119669104D01*
X178738095Y-119669104D02*
X178785714Y-119573866D01*
X178785714Y-119573866D02*
X178833333Y-119526247D01*
X178833333Y-119526247D02*
X178928571Y-119478628D01*
X178928571Y-119478628D02*
X179119047Y-119431009D01*
X179119047Y-119431009D02*
X179214285Y-119383390D01*
X179214285Y-119383390D02*
X179261904Y-119335771D01*
X179261904Y-119335771D02*
X179309523Y-119240533D01*
X179309523Y-119240533D02*
X179309523Y-119145295D01*
X179309523Y-119145295D02*
X179261904Y-119050057D01*
X179261904Y-119050057D02*
X179214285Y-119002438D01*
X179214285Y-119002438D02*
X179119047Y-118954819D01*
X179119047Y-118954819D02*
X178880952Y-118954819D01*
X178880952Y-118954819D02*
X178738095Y-119002438D01*
X178404761Y-118954819D02*
X178166666Y-119954819D01*
X178166666Y-119954819D02*
X177976190Y-119240533D01*
X177976190Y-119240533D02*
X177785714Y-119954819D01*
X177785714Y-119954819D02*
X177547619Y-118954819D01*
X176642857Y-119954819D02*
X177214285Y-119954819D01*
X176928571Y-119954819D02*
X176928571Y-118954819D01*
X176928571Y-118954819D02*
X177023809Y-119097676D01*
X177023809Y-119097676D02*
X177119047Y-119192914D01*
X177119047Y-119192914D02*
X177214285Y-119240533D01*
X176166666Y-119954819D02*
X175976190Y-119954819D01*
X175976190Y-119954819D02*
X175880952Y-119907200D01*
X175880952Y-119907200D02*
X175833333Y-119859580D01*
X175833333Y-119859580D02*
X175738095Y-119716723D01*
X175738095Y-119716723D02*
X175690476Y-119526247D01*
X175690476Y-119526247D02*
X175690476Y-119145295D01*
X175690476Y-119145295D02*
X175738095Y-119050057D01*
X175738095Y-119050057D02*
X175785714Y-119002438D01*
X175785714Y-119002438D02*
X175880952Y-118954819D01*
X175880952Y-118954819D02*
X176071428Y-118954819D01*
X176071428Y-118954819D02*
X176166666Y-119002438D01*
X176166666Y-119002438D02*
X176214285Y-119050057D01*
X176214285Y-119050057D02*
X176261904Y-119145295D01*
X176261904Y-119145295D02*
X176261904Y-119383390D01*
X176261904Y-119383390D02*
X176214285Y-119478628D01*
X176214285Y-119478628D02*
X176166666Y-119526247D01*
X176166666Y-119526247D02*
X176071428Y-119573866D01*
X176071428Y-119573866D02*
X175880952Y-119573866D01*
X175880952Y-119573866D02*
X175785714Y-119526247D01*
X175785714Y-119526247D02*
X175738095Y-119478628D01*
X175738095Y-119478628D02*
X175690476Y-119383390D01*
X163976189Y-78954819D02*
X163976189Y-77954819D01*
X162928571Y-78859580D02*
X162976190Y-78907200D01*
X162976190Y-78907200D02*
X163119047Y-78954819D01*
X163119047Y-78954819D02*
X163214285Y-78954819D01*
X163214285Y-78954819D02*
X163357142Y-78907200D01*
X163357142Y-78907200D02*
X163452380Y-78811961D01*
X163452380Y-78811961D02*
X163499999Y-78716723D01*
X163499999Y-78716723D02*
X163547618Y-78526247D01*
X163547618Y-78526247D02*
X163547618Y-78383390D01*
X163547618Y-78383390D02*
X163499999Y-78192914D01*
X163499999Y-78192914D02*
X163452380Y-78097676D01*
X163452380Y-78097676D02*
X163357142Y-78002438D01*
X163357142Y-78002438D02*
X163214285Y-77954819D01*
X163214285Y-77954819D02*
X163119047Y-77954819D01*
X163119047Y-77954819D02*
X162976190Y-78002438D01*
X162976190Y-78002438D02*
X162928571Y-78050057D01*
X162547618Y-78050057D02*
X162499999Y-78002438D01*
X162499999Y-78002438D02*
X162404761Y-77954819D01*
X162404761Y-77954819D02*
X162166666Y-77954819D01*
X162166666Y-77954819D02*
X162071428Y-78002438D01*
X162071428Y-78002438D02*
X162023809Y-78050057D01*
X162023809Y-78050057D02*
X161976190Y-78145295D01*
X161976190Y-78145295D02*
X161976190Y-78240533D01*
X161976190Y-78240533D02*
X162023809Y-78383390D01*
X162023809Y-78383390D02*
X162595237Y-78954819D01*
X162595237Y-78954819D02*
X161976190Y-78954819D01*
X163404762Y-73817200D02*
X163500000Y-73864819D01*
X163500000Y-73864819D02*
X163690476Y-73864819D01*
X163690476Y-73864819D02*
X163785714Y-73817200D01*
X163785714Y-73817200D02*
X163833333Y-73721961D01*
X163833333Y-73721961D02*
X163833333Y-73341009D01*
X163833333Y-73341009D02*
X163785714Y-73245771D01*
X163785714Y-73245771D02*
X163690476Y-73198152D01*
X163690476Y-73198152D02*
X163500000Y-73198152D01*
X163500000Y-73198152D02*
X163404762Y-73245771D01*
X163404762Y-73245771D02*
X163357143Y-73341009D01*
X163357143Y-73341009D02*
X163357143Y-73436247D01*
X163357143Y-73436247D02*
X163833333Y-73531485D01*
X162595238Y-73341009D02*
X162452381Y-73388628D01*
X162452381Y-73388628D02*
X162404762Y-73436247D01*
X162404762Y-73436247D02*
X162357143Y-73531485D01*
X162357143Y-73531485D02*
X162357143Y-73674342D01*
X162357143Y-73674342D02*
X162404762Y-73769580D01*
X162404762Y-73769580D02*
X162452381Y-73817200D01*
X162452381Y-73817200D02*
X162547619Y-73864819D01*
X162547619Y-73864819D02*
X162928571Y-73864819D01*
X162928571Y-73864819D02*
X162928571Y-72864819D01*
X162928571Y-72864819D02*
X162595238Y-72864819D01*
X162595238Y-72864819D02*
X162500000Y-72912438D01*
X162500000Y-72912438D02*
X162452381Y-72960057D01*
X162452381Y-72960057D02*
X162404762Y-73055295D01*
X162404762Y-73055295D02*
X162404762Y-73150533D01*
X162404762Y-73150533D02*
X162452381Y-73245771D01*
X162452381Y-73245771D02*
X162500000Y-73293390D01*
X162500000Y-73293390D02*
X162595238Y-73341009D01*
X162595238Y-73341009D02*
X162928571Y-73341009D01*
X162023809Y-73198152D02*
X161785714Y-73864819D01*
X161547619Y-73198152D02*
X161785714Y-73864819D01*
X161785714Y-73864819D02*
X161880952Y-74102914D01*
X161880952Y-74102914D02*
X161928571Y-74150533D01*
X161928571Y-74150533D02*
X162023809Y-74198152D01*
X161309523Y-73198152D02*
X160928571Y-73198152D01*
X161166666Y-72864819D02*
X161166666Y-73721961D01*
X161166666Y-73721961D02*
X161119047Y-73817200D01*
X161119047Y-73817200D02*
X161023809Y-73864819D01*
X161023809Y-73864819D02*
X160928571Y-73864819D01*
X160214285Y-73817200D02*
X160309523Y-73864819D01*
X160309523Y-73864819D02*
X160499999Y-73864819D01*
X160499999Y-73864819D02*
X160595237Y-73817200D01*
X160595237Y-73817200D02*
X160642856Y-73721961D01*
X160642856Y-73721961D02*
X160642856Y-73341009D01*
X160642856Y-73341009D02*
X160595237Y-73245771D01*
X160595237Y-73245771D02*
X160499999Y-73198152D01*
X160499999Y-73198152D02*
X160309523Y-73198152D01*
X160309523Y-73198152D02*
X160214285Y-73245771D01*
X160214285Y-73245771D02*
X160166666Y-73341009D01*
X160166666Y-73341009D02*
X160166666Y-73436247D01*
X160166666Y-73436247D02*
X160642856Y-73531485D01*
X140476189Y-78954819D02*
X140476189Y-77954819D01*
X139428571Y-78859580D02*
X139476190Y-78907200D01*
X139476190Y-78907200D02*
X139619047Y-78954819D01*
X139619047Y-78954819D02*
X139714285Y-78954819D01*
X139714285Y-78954819D02*
X139857142Y-78907200D01*
X139857142Y-78907200D02*
X139952380Y-78811961D01*
X139952380Y-78811961D02*
X139999999Y-78716723D01*
X139999999Y-78716723D02*
X140047618Y-78526247D01*
X140047618Y-78526247D02*
X140047618Y-78383390D01*
X140047618Y-78383390D02*
X139999999Y-78192914D01*
X139999999Y-78192914D02*
X139952380Y-78097676D01*
X139952380Y-78097676D02*
X139857142Y-78002438D01*
X139857142Y-78002438D02*
X139714285Y-77954819D01*
X139714285Y-77954819D02*
X139619047Y-77954819D01*
X139619047Y-77954819D02*
X139476190Y-78002438D01*
X139476190Y-78002438D02*
X139428571Y-78050057D01*
X138476190Y-78954819D02*
X139047618Y-78954819D01*
X138761904Y-78954819D02*
X138761904Y-77954819D01*
X138761904Y-77954819D02*
X138857142Y-78097676D01*
X138857142Y-78097676D02*
X138952380Y-78192914D01*
X138952380Y-78192914D02*
X139047618Y-78240533D01*
X139644762Y-73817200D02*
X139740000Y-73864819D01*
X139740000Y-73864819D02*
X139930476Y-73864819D01*
X139930476Y-73864819D02*
X140025714Y-73817200D01*
X140025714Y-73817200D02*
X140073333Y-73721961D01*
X140073333Y-73721961D02*
X140073333Y-73341009D01*
X140073333Y-73341009D02*
X140025714Y-73245771D01*
X140025714Y-73245771D02*
X139930476Y-73198152D01*
X139930476Y-73198152D02*
X139740000Y-73198152D01*
X139740000Y-73198152D02*
X139644762Y-73245771D01*
X139644762Y-73245771D02*
X139597143Y-73341009D01*
X139597143Y-73341009D02*
X139597143Y-73436247D01*
X139597143Y-73436247D02*
X140073333Y-73531485D01*
X138835238Y-73341009D02*
X138692381Y-73388628D01*
X138692381Y-73388628D02*
X138644762Y-73436247D01*
X138644762Y-73436247D02*
X138597143Y-73531485D01*
X138597143Y-73531485D02*
X138597143Y-73674342D01*
X138597143Y-73674342D02*
X138644762Y-73769580D01*
X138644762Y-73769580D02*
X138692381Y-73817200D01*
X138692381Y-73817200D02*
X138787619Y-73864819D01*
X138787619Y-73864819D02*
X139168571Y-73864819D01*
X139168571Y-73864819D02*
X139168571Y-72864819D01*
X139168571Y-72864819D02*
X138835238Y-72864819D01*
X138835238Y-72864819D02*
X138740000Y-72912438D01*
X138740000Y-72912438D02*
X138692381Y-72960057D01*
X138692381Y-72960057D02*
X138644762Y-73055295D01*
X138644762Y-73055295D02*
X138644762Y-73150533D01*
X138644762Y-73150533D02*
X138692381Y-73245771D01*
X138692381Y-73245771D02*
X138740000Y-73293390D01*
X138740000Y-73293390D02*
X138835238Y-73341009D01*
X138835238Y-73341009D02*
X139168571Y-73341009D01*
X138263809Y-73198152D02*
X138025714Y-73864819D01*
X137787619Y-73198152D02*
X138025714Y-73864819D01*
X138025714Y-73864819D02*
X138120952Y-74102914D01*
X138120952Y-74102914D02*
X138168571Y-74150533D01*
X138168571Y-74150533D02*
X138263809Y-74198152D01*
X137549523Y-73198152D02*
X137168571Y-73198152D01*
X137406666Y-72864819D02*
X137406666Y-73721961D01*
X137406666Y-73721961D02*
X137359047Y-73817200D01*
X137359047Y-73817200D02*
X137263809Y-73864819D01*
X137263809Y-73864819D02*
X137168571Y-73864819D01*
X136454285Y-73817200D02*
X136549523Y-73864819D01*
X136549523Y-73864819D02*
X136739999Y-73864819D01*
X136739999Y-73864819D02*
X136835237Y-73817200D01*
X136835237Y-73817200D02*
X136882856Y-73721961D01*
X136882856Y-73721961D02*
X136882856Y-73341009D01*
X136882856Y-73341009D02*
X136835237Y-73245771D01*
X136835237Y-73245771D02*
X136739999Y-73198152D01*
X136739999Y-73198152D02*
X136549523Y-73198152D01*
X136549523Y-73198152D02*
X136454285Y-73245771D01*
X136454285Y-73245771D02*
X136406666Y-73341009D01*
X136406666Y-73341009D02*
X136406666Y-73436247D01*
X136406666Y-73436247D02*
X136882856Y-73531485D01*
X169604166Y-20852533D02*
X169137500Y-20852533D01*
X168937500Y-21585866D02*
X169604166Y-21585866D01*
X169604166Y-21585866D02*
X169604166Y-20185866D01*
X169604166Y-20185866D02*
X168937500Y-20185866D01*
X168404166Y-20319200D02*
X168337499Y-20252533D01*
X168337499Y-20252533D02*
X168204166Y-20185866D01*
X168204166Y-20185866D02*
X167870833Y-20185866D01*
X167870833Y-20185866D02*
X167737499Y-20252533D01*
X167737499Y-20252533D02*
X167670833Y-20319200D01*
X167670833Y-20319200D02*
X167604166Y-20452533D01*
X167604166Y-20452533D02*
X167604166Y-20585866D01*
X167604166Y-20585866D02*
X167670833Y-20785866D01*
X167670833Y-20785866D02*
X168470833Y-21585866D01*
X168470833Y-21585866D02*
X167604166Y-21585866D01*
X140114166Y-20902533D02*
X139647500Y-20902533D01*
X139447500Y-21635866D02*
X140114166Y-21635866D01*
X140114166Y-21635866D02*
X140114166Y-20235866D01*
X140114166Y-20235866D02*
X139447500Y-20235866D01*
X138114166Y-21635866D02*
X138914166Y-21635866D01*
X138514166Y-21635866D02*
X138514166Y-20235866D01*
X138514166Y-20235866D02*
X138647499Y-20435866D01*
X138647499Y-20435866D02*
X138780833Y-20569200D01*
X138780833Y-20569200D02*
X138914166Y-20635866D01*
X159541782Y-124587643D02*
X159541782Y-125303492D01*
X159541782Y-125303492D02*
X159589506Y-125446662D01*
X159589506Y-125446662D02*
X159684952Y-125542109D01*
X159684952Y-125542109D02*
X159828122Y-125589832D01*
X159828122Y-125589832D02*
X159923569Y-125589832D01*
X158635040Y-124921706D02*
X158635040Y-125589832D01*
X158873656Y-124539920D02*
X159112272Y-125255769D01*
X159112272Y-125255769D02*
X158491870Y-125255769D01*
X145181782Y-122967643D02*
X145181782Y-123683492D01*
X145181782Y-123683492D02*
X145229506Y-123826662D01*
X145229506Y-123826662D02*
X145324952Y-123922109D01*
X145324952Y-123922109D02*
X145468122Y-123969832D01*
X145468122Y-123969832D02*
X145563569Y-123969832D01*
X144752272Y-123063089D02*
X144704549Y-123015366D01*
X144704549Y-123015366D02*
X144609103Y-122967643D01*
X144609103Y-122967643D02*
X144370486Y-122967643D01*
X144370486Y-122967643D02*
X144275040Y-123015366D01*
X144275040Y-123015366D02*
X144227316Y-123063089D01*
X144227316Y-123063089D02*
X144179593Y-123158536D01*
X144179593Y-123158536D02*
X144179593Y-123253983D01*
X144179593Y-123253983D02*
X144227316Y-123397152D01*
X144227316Y-123397152D02*
X144799996Y-123969832D01*
X144799996Y-123969832D02*
X144179593Y-123969832D01*
X143126666Y-62169580D02*
X143174285Y-62217200D01*
X143174285Y-62217200D02*
X143317142Y-62264819D01*
X143317142Y-62264819D02*
X143412380Y-62264819D01*
X143412380Y-62264819D02*
X143555237Y-62217200D01*
X143555237Y-62217200D02*
X143650475Y-62121961D01*
X143650475Y-62121961D02*
X143698094Y-62026723D01*
X143698094Y-62026723D02*
X143745713Y-61836247D01*
X143745713Y-61836247D02*
X143745713Y-61693390D01*
X143745713Y-61693390D02*
X143698094Y-61502914D01*
X143698094Y-61502914D02*
X143650475Y-61407676D01*
X143650475Y-61407676D02*
X143555237Y-61312438D01*
X143555237Y-61312438D02*
X143412380Y-61264819D01*
X143412380Y-61264819D02*
X143317142Y-61264819D01*
X143317142Y-61264819D02*
X143174285Y-61312438D01*
X143174285Y-61312438D02*
X143126666Y-61360057D01*
X142269523Y-61598152D02*
X142269523Y-62264819D01*
X142507618Y-61217200D02*
X142745713Y-61931485D01*
X142745713Y-61931485D02*
X142126666Y-61931485D01*
X175642857Y-66454580D02*
X175690476Y-66502200D01*
X175690476Y-66502200D02*
X175833333Y-66549819D01*
X175833333Y-66549819D02*
X175928571Y-66549819D01*
X175928571Y-66549819D02*
X176071428Y-66502200D01*
X176071428Y-66502200D02*
X176166666Y-66406961D01*
X176166666Y-66406961D02*
X176214285Y-66311723D01*
X176214285Y-66311723D02*
X176261904Y-66121247D01*
X176261904Y-66121247D02*
X176261904Y-65978390D01*
X176261904Y-65978390D02*
X176214285Y-65787914D01*
X176214285Y-65787914D02*
X176166666Y-65692676D01*
X176166666Y-65692676D02*
X176071428Y-65597438D01*
X176071428Y-65597438D02*
X175928571Y-65549819D01*
X175928571Y-65549819D02*
X175833333Y-65549819D01*
X175833333Y-65549819D02*
X175690476Y-65597438D01*
X175690476Y-65597438D02*
X175642857Y-65645057D01*
X175261904Y-65645057D02*
X175214285Y-65597438D01*
X175214285Y-65597438D02*
X175119047Y-65549819D01*
X175119047Y-65549819D02*
X174880952Y-65549819D01*
X174880952Y-65549819D02*
X174785714Y-65597438D01*
X174785714Y-65597438D02*
X174738095Y-65645057D01*
X174738095Y-65645057D02*
X174690476Y-65740295D01*
X174690476Y-65740295D02*
X174690476Y-65835533D01*
X174690476Y-65835533D02*
X174738095Y-65978390D01*
X174738095Y-65978390D02*
X175309523Y-66549819D01*
X175309523Y-66549819D02*
X174690476Y-66549819D01*
X174309523Y-65645057D02*
X174261904Y-65597438D01*
X174261904Y-65597438D02*
X174166666Y-65549819D01*
X174166666Y-65549819D02*
X173928571Y-65549819D01*
X173928571Y-65549819D02*
X173833333Y-65597438D01*
X173833333Y-65597438D02*
X173785714Y-65645057D01*
X173785714Y-65645057D02*
X173738095Y-65740295D01*
X173738095Y-65740295D02*
X173738095Y-65835533D01*
X173738095Y-65835533D02*
X173785714Y-65978390D01*
X173785714Y-65978390D02*
X174357142Y-66549819D01*
X174357142Y-66549819D02*
X173738095Y-66549819D01*
X175642857Y-72859580D02*
X175690476Y-72907200D01*
X175690476Y-72907200D02*
X175833333Y-72954819D01*
X175833333Y-72954819D02*
X175928571Y-72954819D01*
X175928571Y-72954819D02*
X176071428Y-72907200D01*
X176071428Y-72907200D02*
X176166666Y-72811961D01*
X176166666Y-72811961D02*
X176214285Y-72716723D01*
X176214285Y-72716723D02*
X176261904Y-72526247D01*
X176261904Y-72526247D02*
X176261904Y-72383390D01*
X176261904Y-72383390D02*
X176214285Y-72192914D01*
X176214285Y-72192914D02*
X176166666Y-72097676D01*
X176166666Y-72097676D02*
X176071428Y-72002438D01*
X176071428Y-72002438D02*
X175928571Y-71954819D01*
X175928571Y-71954819D02*
X175833333Y-71954819D01*
X175833333Y-71954819D02*
X175690476Y-72002438D01*
X175690476Y-72002438D02*
X175642857Y-72050057D01*
X175261904Y-72050057D02*
X175214285Y-72002438D01*
X175214285Y-72002438D02*
X175119047Y-71954819D01*
X175119047Y-71954819D02*
X174880952Y-71954819D01*
X174880952Y-71954819D02*
X174785714Y-72002438D01*
X174785714Y-72002438D02*
X174738095Y-72050057D01*
X174738095Y-72050057D02*
X174690476Y-72145295D01*
X174690476Y-72145295D02*
X174690476Y-72240533D01*
X174690476Y-72240533D02*
X174738095Y-72383390D01*
X174738095Y-72383390D02*
X175309523Y-72954819D01*
X175309523Y-72954819D02*
X174690476Y-72954819D01*
X174071428Y-71954819D02*
X173976190Y-71954819D01*
X173976190Y-71954819D02*
X173880952Y-72002438D01*
X173880952Y-72002438D02*
X173833333Y-72050057D01*
X173833333Y-72050057D02*
X173785714Y-72145295D01*
X173785714Y-72145295D02*
X173738095Y-72335771D01*
X173738095Y-72335771D02*
X173738095Y-72573866D01*
X173738095Y-72573866D02*
X173785714Y-72764342D01*
X173785714Y-72764342D02*
X173833333Y-72859580D01*
X173833333Y-72859580D02*
X173880952Y-72907200D01*
X173880952Y-72907200D02*
X173976190Y-72954819D01*
X173976190Y-72954819D02*
X174071428Y-72954819D01*
X174071428Y-72954819D02*
X174166666Y-72907200D01*
X174166666Y-72907200D02*
X174214285Y-72859580D01*
X174214285Y-72859580D02*
X174261904Y-72764342D01*
X174261904Y-72764342D02*
X174309523Y-72573866D01*
X174309523Y-72573866D02*
X174309523Y-72335771D01*
X174309523Y-72335771D02*
X174261904Y-72145295D01*
X174261904Y-72145295D02*
X174214285Y-72050057D01*
X174214285Y-72050057D02*
X174166666Y-72002438D01*
X174166666Y-72002438D02*
X174071428Y-71954819D01*
X162022857Y-62454819D02*
X162356190Y-61978628D01*
X162594285Y-62454819D02*
X162594285Y-61454819D01*
X162594285Y-61454819D02*
X162213333Y-61454819D01*
X162213333Y-61454819D02*
X162118095Y-61502438D01*
X162118095Y-61502438D02*
X162070476Y-61550057D01*
X162070476Y-61550057D02*
X162022857Y-61645295D01*
X162022857Y-61645295D02*
X162022857Y-61788152D01*
X162022857Y-61788152D02*
X162070476Y-61883390D01*
X162070476Y-61883390D02*
X162118095Y-61931009D01*
X162118095Y-61931009D02*
X162213333Y-61978628D01*
X162213333Y-61978628D02*
X162594285Y-61978628D01*
X161070476Y-62454819D02*
X161641904Y-62454819D01*
X161356190Y-62454819D02*
X161356190Y-61454819D01*
X161356190Y-61454819D02*
X161451428Y-61597676D01*
X161451428Y-61597676D02*
X161546666Y-61692914D01*
X161546666Y-61692914D02*
X161641904Y-61740533D01*
X160213333Y-61454819D02*
X160403809Y-61454819D01*
X160403809Y-61454819D02*
X160499047Y-61502438D01*
X160499047Y-61502438D02*
X160546666Y-61550057D01*
X160546666Y-61550057D02*
X160641904Y-61692914D01*
X160641904Y-61692914D02*
X160689523Y-61883390D01*
X160689523Y-61883390D02*
X160689523Y-62264342D01*
X160689523Y-62264342D02*
X160641904Y-62359580D01*
X160641904Y-62359580D02*
X160594285Y-62407200D01*
X160594285Y-62407200D02*
X160499047Y-62454819D01*
X160499047Y-62454819D02*
X160308571Y-62454819D01*
X160308571Y-62454819D02*
X160213333Y-62407200D01*
X160213333Y-62407200D02*
X160165714Y-62359580D01*
X160165714Y-62359580D02*
X160118095Y-62264342D01*
X160118095Y-62264342D02*
X160118095Y-62026247D01*
X160118095Y-62026247D02*
X160165714Y-61931009D01*
X160165714Y-61931009D02*
X160213333Y-61883390D01*
X160213333Y-61883390D02*
X160308571Y-61835771D01*
X160308571Y-61835771D02*
X160499047Y-61835771D01*
X160499047Y-61835771D02*
X160594285Y-61883390D01*
X160594285Y-61883390D02*
X160641904Y-61931009D01*
X160641904Y-61931009D02*
X160689523Y-62026247D01*
X149524580Y-60233333D02*
X149572200Y-60185714D01*
X149572200Y-60185714D02*
X149619819Y-60042857D01*
X149619819Y-60042857D02*
X149619819Y-59947619D01*
X149619819Y-59947619D02*
X149572200Y-59804762D01*
X149572200Y-59804762D02*
X149476961Y-59709524D01*
X149476961Y-59709524D02*
X149381723Y-59661905D01*
X149381723Y-59661905D02*
X149191247Y-59614286D01*
X149191247Y-59614286D02*
X149048390Y-59614286D01*
X149048390Y-59614286D02*
X148857914Y-59661905D01*
X148857914Y-59661905D02*
X148762676Y-59709524D01*
X148762676Y-59709524D02*
X148667438Y-59804762D01*
X148667438Y-59804762D02*
X148619819Y-59947619D01*
X148619819Y-59947619D02*
X148619819Y-60042857D01*
X148619819Y-60042857D02*
X148667438Y-60185714D01*
X148667438Y-60185714D02*
X148715057Y-60233333D01*
X148715057Y-60614286D02*
X148667438Y-60661905D01*
X148667438Y-60661905D02*
X148619819Y-60757143D01*
X148619819Y-60757143D02*
X148619819Y-60995238D01*
X148619819Y-60995238D02*
X148667438Y-61090476D01*
X148667438Y-61090476D02*
X148715057Y-61138095D01*
X148715057Y-61138095D02*
X148810295Y-61185714D01*
X148810295Y-61185714D02*
X148905533Y-61185714D01*
X148905533Y-61185714D02*
X149048390Y-61138095D01*
X149048390Y-61138095D02*
X149619819Y-60566667D01*
X149619819Y-60566667D02*
X149619819Y-61185714D01*
X135676666Y-62079819D02*
X136009999Y-61603628D01*
X136248094Y-62079819D02*
X136248094Y-61079819D01*
X136248094Y-61079819D02*
X135867142Y-61079819D01*
X135867142Y-61079819D02*
X135771904Y-61127438D01*
X135771904Y-61127438D02*
X135724285Y-61175057D01*
X135724285Y-61175057D02*
X135676666Y-61270295D01*
X135676666Y-61270295D02*
X135676666Y-61413152D01*
X135676666Y-61413152D02*
X135724285Y-61508390D01*
X135724285Y-61508390D02*
X135771904Y-61556009D01*
X135771904Y-61556009D02*
X135867142Y-61603628D01*
X135867142Y-61603628D02*
X136248094Y-61603628D01*
X134724285Y-62079819D02*
X135295713Y-62079819D01*
X135009999Y-62079819D02*
X135009999Y-61079819D01*
X135009999Y-61079819D02*
X135105237Y-61222676D01*
X135105237Y-61222676D02*
X135200475Y-61317914D01*
X135200475Y-61317914D02*
X135295713Y-61365533D01*
%TO.C,SW5*%
D11*
X127880300Y-57312740D02*
X127880300Y-59187260D01*
%TO.C,SW6*%
X127880300Y-78052740D02*
X127880300Y-79927260D01*
%TO.C,SW7*%
X127880300Y-98222740D02*
X127880300Y-100097260D01*
%TO.C,SW8*%
X128081400Y-118432740D02*
X128081400Y-120307260D01*
%TO.C,SW16*%
X175418600Y-59347260D02*
X175418600Y-57472740D01*
%TO.C,SW17*%
X175418600Y-79937260D02*
X175418600Y-78062740D01*
%TO.C,SW18*%
X175619700Y-99867260D02*
X175619700Y-97992740D01*
%TO.C,SW19*%
X175418600Y-120407260D02*
X175418600Y-118532740D01*
%TO.C,IC2*%
D12*
X158180000Y-82300000D02*
X168340000Y-82300000D01*
X158180000Y-68330000D02*
X158180000Y-82300000D01*
X160720000Y-68330000D02*
X158180000Y-68330000D01*
X160720000Y-64520000D02*
X160720000Y-68330000D01*
X168340000Y-82300000D02*
X168340000Y-64520000D01*
X168340000Y-64520000D02*
X160720000Y-64520000D01*
X158053000Y-64520000D02*
G75*
G02*
X157545000Y-64520000I-254000J0D01*
G01*
X157545000Y-64520000D02*
G75*
G02*
X158053000Y-64520000I254000J0D01*
G01*
X160212000Y-65536000D02*
G75*
G02*
X158180000Y-65536000I-1016000J0D01*
G01*
X158180000Y-65536000D02*
G75*
G02*
X160212000Y-65536000I1016000J0D01*
G01*
%TO.C,IC1*%
X134430000Y-82300000D02*
X144590000Y-82300000D01*
X134430000Y-68330000D02*
X134430000Y-82300000D01*
X136970000Y-68330000D02*
X134430000Y-68330000D01*
X136970000Y-64520000D02*
X136970000Y-68330000D01*
X144590000Y-82300000D02*
X144590000Y-64520000D01*
X144590000Y-64520000D02*
X136970000Y-64520000D01*
X134303000Y-64520000D02*
G75*
G02*
X133795000Y-64520000I-254000J0D01*
G01*
X133795000Y-64520000D02*
G75*
G02*
X134303000Y-64520000I254000J0D01*
G01*
X136462000Y-65536000D02*
G75*
G02*
X134430000Y-65536000I-1016000J0D01*
G01*
X134430000Y-65536000D02*
G75*
G02*
X136462000Y-65536000I1016000J0D01*
G01*
%TO.C,E2*%
X172852500Y-25135000D02*
X159652500Y-25135000D01*
X172852500Y-34235000D02*
X172852500Y-25135000D01*
X159652500Y-25135000D02*
X159652500Y-34235000D01*
D13*
X173782500Y-34635000D02*
G75*
G02*
X173582500Y-34635000I-100000J0D01*
G01*
X173582500Y-34635000D02*
G75*
G02*
X173782500Y-34635000I100000J0D01*
G01*
%TO.C,E1*%
D12*
X143362500Y-25185000D02*
X130162500Y-25185000D01*
X143362500Y-34285000D02*
X143362500Y-25185000D01*
X130162500Y-25185000D02*
X130162500Y-34285000D01*
D13*
X144292500Y-34685000D02*
G75*
G02*
X144092500Y-34685000I-100000J0D01*
G01*
X144092500Y-34685000D02*
G75*
G02*
X144292500Y-34685000I100000J0D01*
G01*
%TO.C,J4*%
D12*
X155950000Y-122300000D02*
X155950000Y-118300000D01*
X157700000Y-114700000D02*
X162100000Y-114700000D01*
X158000000Y-122300000D02*
X155950000Y-122300000D01*
X163850000Y-122300000D02*
X161800000Y-122300000D01*
X163850000Y-118300000D02*
X163850000Y-122300000D01*
D14*
X157850000Y-123300000D02*
G75*
G02*
X157650000Y-123300000I-100000J0D01*
G01*
X157650000Y-123300000D02*
G75*
G02*
X157850000Y-123300000I100000J0D01*
G01*
%TO.C,J2*%
D12*
X141590000Y-120680000D02*
X141590000Y-116680000D01*
X143340000Y-113080000D02*
X147740000Y-113080000D01*
X143640000Y-120680000D02*
X141590000Y-120680000D01*
X149490000Y-120680000D02*
X147440000Y-120680000D01*
X149490000Y-116680000D02*
X149490000Y-120680000D01*
D14*
X143490000Y-121680000D02*
G75*
G02*
X143290000Y-121680000I-100000J0D01*
G01*
X143290000Y-121680000D02*
G75*
G02*
X143490000Y-121680000I100000J0D01*
G01*
%TO.C,C4*%
D15*
X142698748Y-60865000D02*
X143221252Y-60865000D01*
X142698748Y-59395000D02*
X143221252Y-59395000D01*
%TO.C,C22*%
X174861252Y-67040000D02*
X174338748Y-67040000D01*
X174861252Y-68510000D02*
X174338748Y-68510000D01*
%TO.C,C20*%
X174898752Y-69765000D02*
X174376248Y-69765000D01*
X174898752Y-71235000D02*
X174376248Y-71235000D01*
%TO.C,R16*%
X161607064Y-58835000D02*
X161152936Y-58835000D01*
X161607064Y-60305000D02*
X161152936Y-60305000D01*
%TO.C,C2*%
X148220000Y-60661252D02*
X148220000Y-60138748D01*
X146750000Y-60661252D02*
X146750000Y-60138748D01*
%TO.C,R1*%
X135282936Y-60710000D02*
X135737064Y-60710000D01*
X135282936Y-59240000D02*
X135737064Y-59240000D01*
%TD*%
M02*
