M48
; DRILL file KiCad 10.0.4 date 2026-07-23T14:31:12
; FORMAT={-:-/ absolute / metric / decimal}
; #@! TF.CreationDate,2026-07-23T14:31:12-04:00
; #@! TF.GenerationSoftware,Kicad,Pcbnew,10.0.4
; #@! TF.FileFunction,NonPlated,1,4,NPTH
FMAT,2
METRIC
; #@! TA.AperFunction,NonPlated,NPTH,ComponentDrill
T1C0.500
; #@! TA.AperFunction,NonPlated,NPTH,ComponentDrill
T2C0.650
; #@! TA.AperFunction,NonPlated,NPTH,ComponentDrill
T3C0.900
%
G90
G05
T1
X150.63Y-28.54
X150.63Y-29.34
X150.63Y-30.14
X150.63Y-41.41
X150.63Y-42.21
X150.63Y-43.01
X150.63Y-56.31
X150.63Y-57.11
X150.63Y-57.91
X150.63Y-65.56
X150.63Y-66.36
X150.63Y-67.16
X150.63Y-77.01
X150.63Y-77.81
X150.63Y-78.61
X150.63Y-87.6
X150.63Y-88.4
X150.63Y-89.2
X150.63Y-98.59
X150.63Y-99.39
X150.63Y-100.19
X150.63Y-109.02
X150.63Y-109.82
X150.63Y-110.62
X150.63Y-118.45
X150.63Y-119.25
X150.63Y-120.05
X150.63Y-127.17
X150.63Y-127.97
X150.63Y-128.77
X152.83Y-28.54
X152.83Y-29.34
X152.83Y-30.14
X152.83Y-41.41
X152.83Y-42.21
X152.83Y-43.01
X152.83Y-56.31
X152.83Y-57.11
X152.83Y-57.91
X152.83Y-65.56
X152.83Y-66.36
X152.83Y-67.16
X152.83Y-77.01
X152.83Y-77.81
X152.83Y-78.61
X152.83Y-87.6
X152.83Y-88.4
X152.83Y-89.2
X152.83Y-98.59
X152.83Y-99.39
X152.83Y-100.19
X152.83Y-109.02
X152.83Y-109.82
X152.83Y-110.62
X152.83Y-118.45
X152.83Y-119.25
X152.83Y-120.05
X152.83Y-127.17
X152.83Y-127.97
X152.83Y-128.77
T2
X132.59Y-129.72
X138.37Y-129.72
X165.41Y-129.72
X171.19Y-129.72
T3
X143.97Y-133.78
X146.97Y-133.78
X156.66Y-133.62
X159.66Y-133.62
M30
