%TF.GenerationSoftware,KiCad,Pcbnew,10.0.4*%
%TF.CreationDate,2026-07-23T14:31:14-04:00*%
%TF.ProjectId,R2_HH_Controllers,52325f48-485f-4436-9f6e-74726f6c6c65,rev?*%
%TF.SameCoordinates,Original*%
%TF.FileFunction,Profile,NP*%
%FSLAX46Y46*%
G04 Gerber Fmt 4.6, Leading zero omitted, Abs format (unit mm)*
G04 Created by KiCad (PCBNEW 10.0.4) date 2026-07-23 14:31:14*
%MOMM*%
%LPD*%
G01*
G04 APERTURE LIST*
%TA.AperFunction,Profile*%
%ADD10C,0.050000*%
%TD*%
%TA.AperFunction,Profile*%
%ADD11C,0.100000*%
%TD*%
G04 APERTURE END LIST*
D10*
X180000000Y-136000000D02*
X153000000Y-136000000D01*
X150460000Y-112150000D02*
X150460000Y-116920000D01*
X150450000Y-25000000D02*
X150460000Y-27010000D01*
X153000000Y-31670000D02*
X153000000Y-39880000D01*
X153000000Y-59440000D02*
X153000000Y-64030000D01*
X152996000Y-121580000D02*
X152996000Y-125640000D01*
X153000000Y-130300000D02*
X153000000Y-136000000D01*
X150460000Y-59440000D02*
X150460000Y-64030000D01*
X152996000Y-68690000D02*
X153000000Y-75480000D01*
X153000000Y-44540000D02*
X153000000Y-54780000D01*
X150460000Y-130300000D02*
X150450000Y-136000000D01*
X153000000Y-112150000D02*
X153000000Y-116920000D01*
X150460000Y-101720000D02*
X150460000Y-107490000D01*
X150460000Y-80140000D02*
X150460000Y-86070000D01*
X153000000Y-101720000D02*
X153009914Y-107490000D01*
X150450000Y-136000000D02*
X123450000Y-136000000D01*
X180000000Y-25000000D02*
X180000000Y-136000000D01*
X150456000Y-68690000D02*
X150460000Y-75480000D01*
X123450000Y-25000000D02*
X150450000Y-25000000D01*
X153010000Y-25000000D02*
X153000000Y-27010000D01*
X152996000Y-80140000D02*
X153000000Y-86070000D01*
X150456000Y-121580000D02*
X150456000Y-125640000D01*
X150460000Y-44540000D02*
X150460000Y-54780000D01*
X150460000Y-90730000D02*
X150456006Y-97060000D01*
X150456001Y-31670000D02*
X150455002Y-39880000D01*
X153000000Y-90730000D02*
X153000000Y-97060000D01*
X180000000Y-25000000D02*
X153010000Y-25000000D01*
X123450000Y-136000000D02*
X123450000Y-25000000D01*
%TO.C,U10*%
D11*
X150460000Y-68690000D02*
G75*
G02*
X153000000Y-68690000I1270000J0D01*
G01*
X153000000Y-64030000D02*
G75*
G02*
X150460000Y-64030000I-1270000J0D01*
G01*
%TO.C,U12*%
X150460000Y-121580000D02*
G75*
G02*
X153000000Y-121580000I1270000J0D01*
G01*
X153000000Y-116920000D02*
G75*
G02*
X150460000Y-116920000I-1270000J0D01*
G01*
%TO.C,U14*%
X150460000Y-80140000D02*
G75*
G02*
X153000000Y-80140000I1270000J0D01*
G01*
X153000000Y-75480000D02*
G75*
G02*
X150460000Y-75480000I-1270000J0D01*
G01*
%TO.C,U16*%
X150460000Y-130300000D02*
G75*
G02*
X153000000Y-130300000I1270000J0D01*
G01*
X153000000Y-125640000D02*
G75*
G02*
X150460000Y-125640000I-1270000J0D01*
G01*
%TO.C,U18*%
X150460000Y-44540000D02*
G75*
G02*
X153000000Y-44540000I1270000J0D01*
G01*
X153000000Y-39880000D02*
G75*
G02*
X150460000Y-39880000I-1270000J0D01*
G01*
%TO.C,U20*%
X150460000Y-101720000D02*
G75*
G02*
X153000000Y-101720000I1270000J0D01*
G01*
X153000000Y-97060000D02*
G75*
G02*
X150460000Y-97060000I-1270000J0D01*
G01*
%TO.C,U22*%
X150460000Y-31670000D02*
G75*
G02*
X153000000Y-31670000I1270000J0D01*
G01*
X153000000Y-27010000D02*
G75*
G02*
X150460000Y-27010000I-1270000J0D01*
G01*
%TO.C,U24*%
X150460000Y-90730000D02*
G75*
G02*
X153000000Y-90730000I1270000J0D01*
G01*
X153000000Y-86070000D02*
G75*
G02*
X150460000Y-86070000I-1270000J0D01*
G01*
%TO.C,U26*%
X150460000Y-59440000D02*
G75*
G02*
X153000000Y-59440000I1270000J0D01*
G01*
X153000000Y-54780000D02*
G75*
G02*
X150460000Y-54780000I-1270000J0D01*
G01*
%TO.C,U28*%
X150460000Y-112150000D02*
G75*
G02*
X153000000Y-112150000I1270000J0D01*
G01*
X153000000Y-107490000D02*
G75*
G02*
X150460000Y-107490000I-1270000J0D01*
G01*
%TD*%
M02*
