%TF.GenerationSoftware,KiCad,Pcbnew,10.0.4*%
%TF.CreationDate,2026-07-23T14:31:14-04:00*%
%TF.ProjectId,R2_HH_Controllers,52325f48-485f-4436-9f6e-74726f6c6c65,rev?*%
%TF.SameCoordinates,Original*%
%TF.FileFunction,Copper,L1,Top*%
%TF.FilePolarity,Positive*%
%FSLAX46Y46*%
G04 Gerber Fmt 4.6, Leading zero omitted, Abs format (unit mm)*
G04 Created by KiCad (PCBNEW 10.0.4) date 2026-07-23 14:31:14*
%MOMM*%
%LPD*%
G01*
G04 APERTURE LIST*
G04 Aperture macros list*
%AMRoundRect*
0 Rectangle with rounded corners*
0 $1 Rounding radius*
0 $2 $3 $4 $5 $6 $7 $8 $9 X,Y pos of 4 corners*
0 Add a 4 corners polygon primitive as box body*
4,1,4,$2,$3,$4,$5,$6,$7,$8,$9,$2,$3,0*
0 Add four circle primitives for the rounded corners*
1,1,$1+$1,$2,$3*
1,1,$1+$1,$4,$5*
1,1,$1+$1,$6,$7*
1,1,$1+$1,$8,$9*
0 Add four rect primitives between the rounded corners*
20,1,$1+$1,$2,$3,$4,$5,0*
20,1,$1+$1,$4,$5,$6,$7,0*
20,1,$1+$1,$6,$7,$8,$9,0*
20,1,$1+$1,$8,$9,$2,$3,0*%
%AMFreePoly0*
4,1,14,0.603536,0.603536,0.605000,0.600000,0.605000,-0.600000,0.603536,-0.603536,0.600000,-0.605000,-0.600000,-0.605000,-0.603536,-0.603536,-0.605000,-0.600000,-0.605000,0.000000,-0.603536,0.003536,-0.003536,0.603536,0.000000,0.605000,0.600000,0.605000,0.603536,0.603536,0.603536,0.603536,$1*%
G04 Aperture macros list end*
%TA.AperFunction,SMDPad,CuDef*%
%ADD10R,0.700000X0.700000*%
%TD*%
%TA.AperFunction,SMDPad,CuDef*%
%ADD11R,0.800000X0.400000*%
%TD*%
%TA.AperFunction,SMDPad,CuDef*%
%ADD12R,0.400000X0.800000*%
%TD*%
%TA.AperFunction,SMDPad,CuDef*%
%ADD13R,1.200000X1.200000*%
%TD*%
%TA.AperFunction,SMDPad,CuDef*%
%ADD14FreePoly0,180.000000*%
%TD*%
%TA.AperFunction,SMDPad,CuDef*%
%ADD15R,0.800000X0.800000*%
%TD*%
%TA.AperFunction,SMDPad,CuDef*%
%ADD16R,0.600000X1.150000*%
%TD*%
%TA.AperFunction,SMDPad,CuDef*%
%ADD17R,0.300000X1.150000*%
%TD*%
%TA.AperFunction,ComponentPad*%
%ADD18O,1.000000X2.100000*%
%TD*%
%TA.AperFunction,ComponentPad*%
%ADD19O,1.000000X1.800000*%
%TD*%
%TA.AperFunction,SMDPad,CuDef*%
%ADD20R,4.191000X1.460500*%
%TD*%
%TA.AperFunction,SMDPad,CuDef*%
%ADD21R,3.759200X1.206500*%
%TD*%
%TA.AperFunction,SMDPad,CuDef*%
%ADD22R,0.700000X1.500000*%
%TD*%
%TA.AperFunction,SMDPad,CuDef*%
%ADD23R,1.000000X0.800000*%
%TD*%
%TA.AperFunction,SMDPad,CuDef*%
%ADD24RoundRect,0.062500X-0.375000X-0.062500X0.375000X-0.062500X0.375000X0.062500X-0.375000X0.062500X0*%
%TD*%
%TA.AperFunction,SMDPad,CuDef*%
%ADD25RoundRect,0.062500X-0.062500X-0.375000X0.062500X-0.375000X0.062500X0.375000X-0.062500X0.375000X0*%
%TD*%
%TA.AperFunction,HeatsinkPad*%
%ADD26R,1.600000X1.600000*%
%TD*%
%TA.AperFunction,SMDPad,CuDef*%
%ADD27RoundRect,0.150000X-0.150000X0.512500X-0.150000X-0.512500X0.150000X-0.512500X0.150000X0.512500X0*%
%TD*%
%TA.AperFunction,SMDPad,CuDef*%
%ADD28RoundRect,0.200000X0.200000X0.275000X-0.200000X0.275000X-0.200000X-0.275000X0.200000X-0.275000X0*%
%TD*%
%TA.AperFunction,SMDPad,CuDef*%
%ADD29RoundRect,0.200000X-0.200000X-0.275000X0.200000X-0.275000X0.200000X0.275000X-0.200000X0.275000X0*%
%TD*%
%TA.AperFunction,SMDPad,CuDef*%
%ADD30RoundRect,0.200000X0.275000X-0.200000X0.275000X0.200000X-0.275000X0.200000X-0.275000X-0.200000X0*%
%TD*%
%TA.AperFunction,SMDPad,CuDef*%
%ADD31RoundRect,0.225000X-0.250000X0.225000X-0.250000X-0.225000X0.250000X-0.225000X0.250000X0.225000X0*%
%TD*%
%TA.AperFunction,SMDPad,CuDef*%
%ADD32RoundRect,0.225000X0.225000X0.250000X-0.225000X0.250000X-0.225000X-0.250000X0.225000X-0.250000X0*%
%TD*%
%TA.AperFunction,SMDPad,CuDef*%
%ADD33RoundRect,0.225000X0.250000X-0.225000X0.250000X0.225000X-0.250000X0.225000X-0.250000X-0.225000X0*%
%TD*%
%TA.AperFunction,SMDPad,CuDef*%
%ADD34RoundRect,0.200000X-0.275000X0.200000X-0.275000X-0.200000X0.275000X-0.200000X0.275000X0.200000X0*%
%TD*%
%TA.AperFunction,SMDPad,CuDef*%
%ADD35R,1.700000X1.000000*%
%TD*%
%TA.AperFunction,SMDPad,CuDef*%
%ADD36RoundRect,0.225000X-0.225000X-0.250000X0.225000X-0.250000X0.225000X0.250000X-0.225000X0.250000X0*%
%TD*%
%TA.AperFunction,ComponentPad*%
%ADD37C,1.950000*%
%TD*%
%TA.AperFunction,ComponentPad*%
%ADD38C,1.650000*%
%TD*%
%TA.AperFunction,ComponentPad*%
%ADD39C,2.400000*%
%TD*%
%TA.AperFunction,ComponentPad*%
%ADD40C,2.475000*%
%TD*%
%TA.AperFunction,SMDPad,CuDef*%
%ADD41RoundRect,0.150000X-0.512500X-0.150000X0.512500X-0.150000X0.512500X0.150000X-0.512500X0.150000X0*%
%TD*%
%TA.AperFunction,ComponentPad*%
%ADD42R,1.160000X1.160000*%
%TD*%
%TA.AperFunction,ComponentPad*%
%ADD43C,1.160000*%
%TD*%
%TA.AperFunction,ViaPad*%
%ADD44C,0.600000*%
%TD*%
%TA.AperFunction,Conductor*%
%ADD45C,0.400000*%
%TD*%
%TA.AperFunction,Conductor*%
%ADD46C,0.200000*%
%TD*%
G04 APERTURE END LIST*
D10*
%TO.P,D6,1,DOUT_1*%
%TO.N,unconnected-(D6-DOUT-Pad1)*%
X175410000Y-27750000D03*
%TO.P,D6,2,VSS_2*%
%TO.N,GND*%
X175410000Y-28850000D03*
%TO.P,D6,3,DIN_3*%
%TO.N,Net-(D6-DIN)*%
X177240000Y-28850000D03*
%TO.P,D6,4,VDD_4*%
%TO.N,/Remote_Left_Hand/3.3V_REG*%
X177240000Y-27750000D03*
%TD*%
%TO.P,D5,1,DOUT_1*%
%TO.N,/Remote_Left_Hand/D2-D3*%
X155460000Y-27750000D03*
%TO.P,D5,2,VSS_2*%
%TO.N,GND*%
X155460000Y-28850000D03*
%TO.P,D5,3,DIN_3*%
%TO.N,Net-(D5-DIN)*%
X157290000Y-28850000D03*
%TO.P,D5,4,VDD_4*%
%TO.N,/Remote_Left_Hand/3.3V_REG*%
X157290000Y-27750000D03*
%TD*%
%TO.P,D4,1,DOUT_1*%
%TO.N,/Remote_Left_Hand/D1-D2*%
X156565000Y-128390000D03*
%TO.P,D4,2,VSS_2*%
%TO.N,GND*%
X156565000Y-129490000D03*
%TO.P,D4,3,DIN_3*%
%TO.N,Net-(D4-DIN)*%
X158395000Y-129490000D03*
%TO.P,D4,4,VDD_4*%
%TO.N,/Remote_Left_Hand/3.3V_REG*%
X158395000Y-128390000D03*
%TD*%
%TO.P,D3,1,DOUT_1*%
%TO.N,unconnected-(D3-DOUT-Pad1)*%
X144275000Y-28780000D03*
%TO.P,D3,2,VSS_2*%
%TO.N,GND*%
X144275000Y-29880000D03*
%TO.P,D3,3,DIN_3*%
%TO.N,Net-(D3-DIN)*%
X146105000Y-29880000D03*
%TO.P,D3,4,VDD_4*%
%TO.N,/Remote_Right_Hand/3.3V_REG*%
X146105000Y-28780000D03*
%TD*%
%TO.P,D2,1,DOUT_1*%
%TO.N,/Remote_Right_Hand/D2-D3*%
X126315000Y-28780000D03*
%TO.P,D2,2,VSS_2*%
%TO.N,GND*%
X126315000Y-29880000D03*
%TO.P,D2,3,DIN_3*%
%TO.N,Net-(D2-DIN)*%
X128145000Y-29880000D03*
%TO.P,D2,4,VDD_4*%
%TO.N,/Remote_Right_Hand/3.3V_REG*%
X128145000Y-28780000D03*
%TD*%
%TO.P,D1,1,DOUT_1*%
%TO.N,/Remote_Right_Hand/D1-D2*%
X143895000Y-128290000D03*
%TO.P,D1,2,VSS_2*%
%TO.N,GND*%
X143895000Y-129390000D03*
%TO.P,D1,3,DIN_3*%
%TO.N,Net-(D1-DIN)*%
X145725000Y-129390000D03*
%TO.P,D1,4,VDD_4*%
%TO.N,/Remote_Right_Hand/3.3V_REG*%
X145725000Y-128290000D03*
%TD*%
D11*
%TO.P,U11,1,GND_1*%
%TO.N,GND*%
X172300000Y-74950000D03*
%TO.P,U11,2,GND_2*%
X172300000Y-74100000D03*
%TO.P,U11,3,3V3_3*%
%TO.N,/Remote_Left_Hand/3.3V_REG*%
X172300000Y-73250000D03*
%TO.P,U11,4,IO0_4*%
%TO.N,/Remote_Left_Hand/BOOT*%
X172300000Y-72400000D03*
%TO.P,U11,5,IO1_5*%
%TO.N,/Remote_Left_Hand/JOY_X*%
X172300000Y-71550000D03*
%TO.P,U11,6,IO2_6*%
%TO.N,/Remote_Left_Hand/JOY_Y*%
X172300000Y-70700000D03*
%TO.P,U11,7,IO3_7*%
%TO.N,/Remote_Left_Hand/JOY_SWITCH*%
X172300000Y-69850000D03*
%TO.P,U11,8,IO4_8*%
%TO.N,/Remote_Left_Hand/BTN_2*%
X172300000Y-69000000D03*
%TO.P,U11,9,IO5_9*%
%TO.N,/Remote_Left_Hand/BTN_3*%
X172300000Y-68150000D03*
%TO.P,U11,10,IO6_10*%
%TO.N,/Remote_Left_Hand/BTN_4*%
X172300000Y-67300000D03*
%TO.P,U11,11,IO7_11*%
%TO.N,/Remote_Left_Hand/VOL_POT*%
X172300000Y-66450000D03*
%TO.P,U11,12,IO8_12*%
%TO.N,/Remote_Left_Hand/NEOPIXEL*%
X172300000Y-65600000D03*
%TO.P,U11,13,IO9_13*%
%TO.N,/Remote_Left_Hand/BTN_1*%
X172300000Y-64750000D03*
%TO.P,U11,14,IO10_14*%
%TO.N,/Remote_Left_Hand/NSS*%
X172300000Y-63900000D03*
%TO.P,U11,15,IO11_15*%
%TO.N,/Remote_Left_Hand/MOSI*%
X172300000Y-63050000D03*
D12*
%TO.P,U11,16,IO12_16*%
%TO.N,/Remote_Left_Hand/SCK*%
X171250000Y-62000000D03*
%TO.P,U11,17,IO13_17*%
%TO.N,/Remote_Left_Hand/MISO*%
X170400000Y-62000000D03*
%TO.P,U11,18,IO14_18*%
%TO.N,/Remote_Left_Hand/RST*%
X169550000Y-62000000D03*
%TO.P,U11,19,IO15_19*%
%TO.N,/Remote_Left_Hand/BUSY*%
X168700000Y-62000000D03*
%TO.P,U11,20,IO16_20*%
%TO.N,/Remote_Left_Hand/DIO1*%
X167850000Y-62000000D03*
%TO.P,U11,21,IO17_21*%
%TO.N,/Remote_Left_Hand/BTN_5*%
X167000000Y-62000000D03*
%TO.P,U11,22,IO18_22*%
%TO.N,/Remote_Left_Hand/BTN_6*%
X166150000Y-62000000D03*
%TO.P,U11,23,IO19_23*%
%TO.N,/Remote_Left_Hand/D-_ESP*%
X165300000Y-62000000D03*
%TO.P,U11,24,IO20_24*%
%TO.N,/Remote_Left_Hand/D+_ESP*%
X164450000Y-62000000D03*
%TO.P,U11,25,IO21_25*%
%TO.N,/Remote_Left_Hand/BTN_7*%
X163600000Y-62000000D03*
%TO.P,U11,26,IO26_26*%
%TO.N,unconnected-(U11-IO26-Pad26)*%
X162750000Y-62000000D03*
%TO.P,U11,27,IO47_27*%
%TO.N,unconnected-(U11-IO47-Pad27)*%
X161900000Y-62000000D03*
%TO.P,U11,28,IO33_28*%
%TO.N,/Remote_Left_Hand/BTN_8*%
X161050000Y-62000000D03*
%TO.P,U11,29,IO34_29*%
%TO.N,/Remote_Left_Hand/RX_EN*%
X160200000Y-62000000D03*
%TO.P,U11,30,IO48_30*%
%TO.N,unconnected-(U11-IO48-Pad30)*%
X159350000Y-62000000D03*
D11*
%TO.P,U11,31,IO35_31*%
%TO.N,unconnected-(U11-IO35-Pad31)*%
X158300000Y-63050000D03*
%TO.P,U11,32,IO36_32*%
%TO.N,unconnected-(U11-IO36-Pad32)*%
X158300000Y-63900000D03*
%TO.P,U11,33,IO37_33*%
%TO.N,unconnected-(U11-IO37-Pad33)*%
X158300000Y-64750000D03*
%TO.P,U11,34,IO38_34*%
%TO.N,/Remote_Left_Hand/TX_EN*%
X158300000Y-65600000D03*
%TO.P,U11,35,IO39_35*%
%TO.N,unconnected-(U11-IO39-Pad35)*%
X158300000Y-66450000D03*
%TO.P,U11,36,IO40_36*%
%TO.N,unconnected-(U11-IO40-Pad36)*%
X158300000Y-67300000D03*
%TO.P,U11,37,IO41_37*%
%TO.N,unconnected-(U11-IO41-Pad37)*%
X158300000Y-68150000D03*
%TO.P,U11,38,IO42_38*%
%TO.N,unconnected-(U11-IO42-Pad38)*%
X158300000Y-69000000D03*
%TO.P,U11,39,TXD0_39*%
%TO.N,unconnected-(U11-TXD0-Pad39)*%
X158300000Y-69850000D03*
%TO.P,U11,40,RXD0_40*%
%TO.N,unconnected-(U11-RXD0-Pad40)*%
X158300000Y-70700000D03*
%TO.P,U11,41,IO45_41*%
%TO.N,unconnected-(U11-IO45-Pad41)*%
X158300000Y-71550000D03*
%TO.P,U11,42,GND_42*%
%TO.N,GND*%
X158300000Y-72400000D03*
%TO.P,U11,43,GND_43*%
X158300000Y-73250000D03*
%TO.P,U11,44,IO46_44*%
%TO.N,unconnected-(U11-IO46-Pad44)*%
X158300000Y-74100000D03*
%TO.P,U11,45,EN_45*%
%TO.N,/Remote_Left_Hand/EN*%
X158300000Y-74950000D03*
D12*
%TO.P,U11,46,GND_46*%
%TO.N,GND*%
X159350000Y-76000000D03*
%TO.P,U11,47,GND_47*%
X160200000Y-76000000D03*
%TO.P,U11,48,GND_48*%
X161050000Y-76000000D03*
%TO.P,U11,49,GND_49*%
X161900000Y-76000000D03*
%TO.P,U11,50,GND_50*%
X162750000Y-76000000D03*
%TO.P,U11,51,GND_51*%
X163600000Y-76000000D03*
%TO.P,U11,52,GND_52*%
X164450000Y-76000000D03*
%TO.P,U11,53,GND_53*%
X165300000Y-76000000D03*
%TO.P,U11,54,GND_54*%
X166150000Y-76000000D03*
%TO.P,U11,55,GND_55*%
X167000000Y-76000000D03*
%TO.P,U11,56,GND_56*%
X167850000Y-76000000D03*
%TO.P,U11,57,GND_57*%
X168700000Y-76000000D03*
%TO.P,U11,58,GND_58*%
X169550000Y-76000000D03*
%TO.P,U11,59,GND_59*%
X170400000Y-76000000D03*
%TO.P,U11,60,GND_60*%
X171250000Y-76000000D03*
D13*
%TO.P,U11,61,GND_61*%
X165300000Y-69000000D03*
D14*
%TO.P,U11,61_1,GND_61_1*%
X166950000Y-70650000D03*
D13*
%TO.P,U11,61_2,GND_61_2*%
X165300000Y-70650000D03*
%TO.P,U11,61_3,GND_61_3*%
X163650000Y-70650000D03*
%TO.P,U11,61_4,GND_61_4*%
X163650000Y-69000000D03*
%TO.P,U11,61_5,GND_61_5*%
X163650000Y-67350000D03*
%TO.P,U11,61_6,GND_61_6*%
X165300000Y-67350000D03*
%TO.P,U11,61_7,GND_61_7*%
X166950000Y-67350000D03*
%TO.P,U11,61_8,GND_61_8*%
X166950000Y-69000000D03*
D15*
%TO.P,U11,62,GND_62*%
X172300000Y-76000000D03*
%TO.P,U11,63,GND_63*%
X172300000Y-62000000D03*
%TO.P,U11,64,GND_64*%
X158300000Y-62000000D03*
%TO.P,U11,65,GND_65*%
X158300000Y-76000000D03*
%TD*%
D11*
%TO.P,U9,1,GND_1*%
%TO.N,GND*%
X145650000Y-74750000D03*
%TO.P,U9,2,GND_2*%
X145650000Y-73900000D03*
%TO.P,U9,3,3V3_3*%
%TO.N,/Remote_Right_Hand/3.3V_REG*%
X145650000Y-73050000D03*
%TO.P,U9,4,IO0_4*%
%TO.N,/Remote_Right_Hand/BOOT*%
X145650000Y-72200000D03*
%TO.P,U9,5,IO1_5*%
%TO.N,/Remote_Right_Hand/JOY_X*%
X145650000Y-71350000D03*
%TO.P,U9,6,IO2_6*%
%TO.N,/Remote_Right_Hand/JOY_Y*%
X145650000Y-70500000D03*
%TO.P,U9,7,IO3_7*%
%TO.N,/Remote_Right_Hand/JOY_SWITCH*%
X145650000Y-69650000D03*
%TO.P,U9,8,IO4_8*%
%TO.N,/Remote_Right_Hand/BTN_2*%
X145650000Y-68800000D03*
%TO.P,U9,9,IO5_9*%
%TO.N,/Remote_Right_Hand/BTN_3*%
X145650000Y-67950000D03*
%TO.P,U9,10,IO6_10*%
%TO.N,/Remote_Right_Hand/BTN_4*%
X145650000Y-67100000D03*
%TO.P,U9,11,IO7_11*%
%TO.N,/Remote_Right_Hand/VOL_POT*%
X145650000Y-66250000D03*
%TO.P,U9,12,IO8_12*%
%TO.N,/Remote_Right_Hand/NEOPIXEL*%
X145650000Y-65400000D03*
%TO.P,U9,13,IO9_13*%
%TO.N,/Remote_Right_Hand/BTN_1*%
X145650000Y-64550000D03*
%TO.P,U9,14,IO10_14*%
%TO.N,/Remote_Right_Hand/NSS*%
X145650000Y-63700000D03*
%TO.P,U9,15,IO11_15*%
%TO.N,/Remote_Right_Hand/MOSI*%
X145650000Y-62850000D03*
D12*
%TO.P,U9,16,IO12_16*%
%TO.N,/Remote_Right_Hand/SCK*%
X144600000Y-61800000D03*
%TO.P,U9,17,IO13_17*%
%TO.N,/Remote_Right_Hand/MISO*%
X143750000Y-61800000D03*
%TO.P,U9,18,IO14_18*%
%TO.N,/Remote_Right_Hand/RST*%
X142900000Y-61800000D03*
%TO.P,U9,19,IO15_19*%
%TO.N,/Remote_Right_Hand/BUSY*%
X142050000Y-61800000D03*
%TO.P,U9,20,IO16_20*%
%TO.N,/Remote_Right_Hand/DIO1*%
X141200000Y-61800000D03*
%TO.P,U9,21,IO17_21*%
%TO.N,/Remote_Right_Hand/BTN_5*%
X140350000Y-61800000D03*
%TO.P,U9,22,IO18_22*%
%TO.N,/Remote_Right_Hand/BTN_6*%
X139500000Y-61800000D03*
%TO.P,U9,23,IO19_23*%
%TO.N,/Remote_Right_Hand/D-_ESP*%
X138650000Y-61800000D03*
%TO.P,U9,24,IO20_24*%
%TO.N,/Remote_Right_Hand/D+_ESP*%
X137800000Y-61800000D03*
%TO.P,U9,25,IO21_25*%
%TO.N,/Remote_Right_Hand/BTN_7*%
X136950000Y-61800000D03*
%TO.P,U9,26,IO26_26*%
%TO.N,unconnected-(U9-IO26-Pad26)*%
X136100000Y-61800000D03*
%TO.P,U9,27,IO47_27*%
%TO.N,unconnected-(U9-IO47-Pad27)*%
X135250000Y-61800000D03*
%TO.P,U9,28,IO33_28*%
%TO.N,/Remote_Right_Hand/BTN_8*%
X134400000Y-61800000D03*
%TO.P,U9,29,IO34_29*%
%TO.N,/Remote_Right_Hand/RX_EN*%
X133550000Y-61800000D03*
%TO.P,U9,30,IO48_30*%
%TO.N,unconnected-(U9-IO48-Pad30)*%
X132700000Y-61800000D03*
D11*
%TO.P,U9,31,IO35_31*%
%TO.N,unconnected-(U9-IO35-Pad31)*%
X131650000Y-62850000D03*
%TO.P,U9,32,IO36_32*%
%TO.N,unconnected-(U9-IO36-Pad32)*%
X131650000Y-63700000D03*
%TO.P,U9,33,IO37_33*%
%TO.N,unconnected-(U9-IO37-Pad33)*%
X131650000Y-64550000D03*
%TO.P,U9,34,IO38_34*%
%TO.N,/Remote_Right_Hand/TX_EN*%
X131650000Y-65400000D03*
%TO.P,U9,35,IO39_35*%
%TO.N,unconnected-(U9-IO39-Pad35)*%
X131650000Y-66250000D03*
%TO.P,U9,36,IO40_36*%
%TO.N,unconnected-(U9-IO40-Pad36)*%
X131650000Y-67100000D03*
%TO.P,U9,37,IO41_37*%
%TO.N,unconnected-(U9-IO41-Pad37)*%
X131650000Y-67950000D03*
%TO.P,U9,38,IO42_38*%
%TO.N,unconnected-(U9-IO42-Pad38)*%
X131650000Y-68800000D03*
%TO.P,U9,39,TXD0_39*%
%TO.N,unconnected-(U9-TXD0-Pad39)*%
X131650000Y-69650000D03*
%TO.P,U9,40,RXD0_40*%
%TO.N,unconnected-(U9-RXD0-Pad40)*%
X131650000Y-70500000D03*
%TO.P,U9,41,IO45_41*%
%TO.N,unconnected-(U9-IO45-Pad41)*%
X131650000Y-71350000D03*
%TO.P,U9,42,GND_42*%
%TO.N,GND*%
X131650000Y-72200000D03*
%TO.P,U9,43,GND_43*%
X131650000Y-73050000D03*
%TO.P,U9,44,IO46_44*%
%TO.N,unconnected-(U9-IO46-Pad44)*%
X131650000Y-73900000D03*
%TO.P,U9,45,EN_45*%
%TO.N,/Remote_Right_Hand/EN*%
X131650000Y-74750000D03*
D12*
%TO.P,U9,46,GND_46*%
%TO.N,GND*%
X132700000Y-75800000D03*
%TO.P,U9,47,GND_47*%
X133550000Y-75800000D03*
%TO.P,U9,48,GND_48*%
X134400000Y-75800000D03*
%TO.P,U9,49,GND_49*%
X135250000Y-75800000D03*
%TO.P,U9,50,GND_50*%
X136100000Y-75800000D03*
%TO.P,U9,51,GND_51*%
X136950000Y-75800000D03*
%TO.P,U9,52,GND_52*%
X137800000Y-75800000D03*
%TO.P,U9,53,GND_53*%
X138650000Y-75800000D03*
%TO.P,U9,54,GND_54*%
X139500000Y-75800000D03*
%TO.P,U9,55,GND_55*%
X140350000Y-75800000D03*
%TO.P,U9,56,GND_56*%
X141200000Y-75800000D03*
%TO.P,U9,57,GND_57*%
X142050000Y-75800000D03*
%TO.P,U9,58,GND_58*%
X142900000Y-75800000D03*
%TO.P,U9,59,GND_59*%
X143750000Y-75800000D03*
%TO.P,U9,60,GND_60*%
X144600000Y-75800000D03*
D13*
%TO.P,U9,61,GND_61*%
X138650000Y-68800000D03*
D14*
%TO.P,U9,61_1,GND_61_1*%
X140300000Y-70450000D03*
D13*
%TO.P,U9,61_2,GND_61_2*%
X138650000Y-70450000D03*
%TO.P,U9,61_3,GND_61_3*%
X137000000Y-70450000D03*
%TO.P,U9,61_4,GND_61_4*%
X137000000Y-68800000D03*
%TO.P,U9,61_5,GND_61_5*%
X137000000Y-67150000D03*
%TO.P,U9,61_6,GND_61_6*%
X138650000Y-67150000D03*
%TO.P,U9,61_7,GND_61_7*%
X140300000Y-67150000D03*
%TO.P,U9,61_8,GND_61_8*%
X140300000Y-68800000D03*
D15*
%TO.P,U9,62,GND_62*%
X145650000Y-75800000D03*
%TO.P,U9,63,GND_63*%
X145650000Y-61800000D03*
%TO.P,U9,64,GND_64*%
X131650000Y-61800000D03*
%TO.P,U9,65,GND_65*%
X131650000Y-75800000D03*
%TD*%
D16*
%TO.P,J1,A1_B12,GND_A1_B12*%
%TO.N,GND*%
X132280000Y-128645000D03*
%TO.P,J1,A4_B9,VBUS_A4_B9*%
%TO.N,VBUS*%
X133080000Y-128645000D03*
D17*
%TO.P,J1,A5,CC1_A5*%
%TO.N,Net-(J1-CC1)*%
X134230000Y-128645000D03*
%TO.P,J1,A6,DP1_A6*%
%TO.N,/Remote_Right_Hand/D+*%
X135230000Y-128645000D03*
%TO.P,J1,A7,DN1_A7*%
%TO.N,/Remote_Right_Hand/D-*%
X135730000Y-128645000D03*
%TO.P,J1,A8,SBU1_A8*%
%TO.N,unconnected-(J1-SBU1-PadA8)*%
X136730000Y-128645000D03*
D16*
%TO.P,J1,B1_A12,GND_B1_A12*%
%TO.N,GND*%
X138680000Y-128645000D03*
%TO.P,J1,B4_A9,VBUS_B4_A9*%
%TO.N,VBUS*%
X137880000Y-128645000D03*
D17*
%TO.P,J1,B5,CC2_B5*%
%TO.N,Net-(J1-CC2)*%
X137230000Y-128645000D03*
%TO.P,J1,B6,DP2_B6*%
%TO.N,/Remote_Right_Hand/D+*%
X136230000Y-128645000D03*
%TO.P,J1,B7,DN2_B7*%
%TO.N,/Remote_Right_Hand/D-*%
X134730000Y-128645000D03*
%TO.P,J1,B8,SBU2_B8*%
%TO.N,unconnected-(J1-SBU2-PadB8)*%
X133730000Y-128645000D03*
D18*
%TO.P,J1,SH1,SHELL_GND_SH1*%
%TO.N,GND*%
X131160000Y-129220000D03*
%TO.P,J1,SH2,SHELL_GND_SH2*%
X139800000Y-129220000D03*
D19*
%TO.P,J1,SH3,SHELL_GND_SH3*%
X131160000Y-133400000D03*
%TO.P,J1,SH4,SHELL_GND_SH4*%
X139800000Y-133400000D03*
%TD*%
D16*
%TO.P,J3,A1_B12,GND_A1_B12*%
%TO.N,GND*%
X165100000Y-128645000D03*
%TO.P,J3,A4_B9,VBUS_A4_B9*%
%TO.N,VBUS*%
X165900000Y-128645000D03*
D17*
%TO.P,J3,A5,CC1_A5*%
%TO.N,Net-(J3-CC1)*%
X167050000Y-128645000D03*
%TO.P,J3,A6,DP1_A6*%
%TO.N,/Remote_Left_Hand/D+*%
X168050000Y-128645000D03*
%TO.P,J3,A7,DN1_A7*%
%TO.N,/Remote_Left_Hand/D-*%
X168550000Y-128645000D03*
%TO.P,J3,A8,SBU1_A8*%
%TO.N,unconnected-(J3-SBU1-PadA8)*%
X169550000Y-128645000D03*
D16*
%TO.P,J3,B1_A12,GND_B1_A12*%
%TO.N,GND*%
X171500000Y-128645000D03*
%TO.P,J3,B4_A9,VBUS_B4_A9*%
%TO.N,VBUS*%
X170700000Y-128645000D03*
D17*
%TO.P,J3,B5,CC2_B5*%
%TO.N,Net-(J3-CC2)*%
X170050000Y-128645000D03*
%TO.P,J3,B6,DP2_B6*%
%TO.N,/Remote_Left_Hand/D+*%
X169050000Y-128645000D03*
%TO.P,J3,B7,DN2_B7*%
%TO.N,/Remote_Left_Hand/D-*%
X167550000Y-128645000D03*
%TO.P,J3,B8,SBU2_B8*%
%TO.N,unconnected-(J3-SBU2-PadB8)*%
X166550000Y-128645000D03*
D18*
%TO.P,J3,SH1,SHELL_GND_SH1*%
%TO.N,GND*%
X163980000Y-129220000D03*
%TO.P,J3,SH2,SHELL_GND_SH2*%
X172620000Y-129220000D03*
D19*
%TO.P,J3,SH3,SHELL_GND_SH3*%
X163980000Y-133400000D03*
%TO.P,J3,SH4,SHELL_GND_SH4*%
X172620000Y-133400000D03*
%TD*%
D20*
%TO.P,SW1,*%
%TO.N,*%
X126392300Y-63348750D03*
X126392300Y-70651250D03*
D21*
%TO.P,SW1,1,1_1*%
%TO.N,/Remote_Right_Hand/BTN_1*%
X126938400Y-68873250D03*
%TO.P,SW1,2,2_2*%
%TO.N,GND*%
X126938400Y-65126750D03*
%TD*%
D20*
%TO.P,SW2,*%
%TO.N,*%
X126191200Y-83668750D03*
X126191200Y-90971250D03*
D21*
%TO.P,SW2,1,1_1*%
%TO.N,/Remote_Right_Hand/BTN_2*%
X126737300Y-89193250D03*
%TO.P,SW2,2,2_2*%
%TO.N,GND*%
X126737300Y-85446750D03*
%TD*%
D20*
%TO.P,SW3,*%
%TO.N,*%
X126191200Y-103798750D03*
X126191200Y-111101250D03*
D21*
%TO.P,SW3,1,1_1*%
%TO.N,/Remote_Right_Hand/BTN_3*%
X126737300Y-109323250D03*
%TO.P,SW3,2,2_2*%
%TO.N,GND*%
X126737300Y-105576750D03*
%TD*%
D20*
%TO.P,SW4,*%
%TO.N,*%
X126691200Y-124128750D03*
X126691200Y-131431250D03*
D21*
%TO.P,SW4,1,1_1*%
%TO.N,/Remote_Right_Hand/BTN_4*%
X127237300Y-129653250D03*
%TO.P,SW4,2,2_2*%
%TO.N,GND*%
X127237300Y-125906750D03*
%TD*%
D22*
%TO.P,SW11,1*%
%TO.N,/Remote_Right_Hand/CHARGER_OUT*%
X143220000Y-132030000D03*
%TO.P,SW11,2*%
%TO.N,/Remote_Right_Hand/BAT+_SWITCHED*%
X146220000Y-132030000D03*
%TO.P,SW11,3*%
%TO.N,unconnected-(SW11-Pad3)*%
X147720000Y-132030000D03*
D23*
%TO.P,SW11,S1,SHIELD_S1*%
%TO.N,GND*%
X141820000Y-132815000D03*
%TO.P,SW11,S2,SHIELD_S2*%
X141820000Y-134745000D03*
%TO.P,SW11,S3,SHIELD_S3*%
X149120000Y-134745000D03*
%TO.P,SW11,S4,SHIELD_S4*%
X149120000Y-132815000D03*
%TD*%
D20*
%TO.P,SW12,*%
%TO.N,*%
X177308800Y-70421250D03*
X177308800Y-63118750D03*
D21*
%TO.P,SW12,1,1_1*%
%TO.N,/Remote_Left_Hand/BTN_1*%
X176762700Y-64896750D03*
%TO.P,SW12,2,2_2*%
%TO.N,GND*%
X176762700Y-68643250D03*
%TD*%
D20*
%TO.P,SW13,*%
%TO.N,*%
X177308800Y-90961250D03*
X177308800Y-83658750D03*
D21*
%TO.P,SW13,1,1_1*%
%TO.N,/Remote_Left_Hand/BTN_2*%
X176762700Y-85436750D03*
%TO.P,SW13,2,2_2*%
%TO.N,GND*%
X176762700Y-89183250D03*
%TD*%
D20*
%TO.P,SW14,*%
%TO.N,*%
X177308800Y-111091250D03*
X177308800Y-103788750D03*
D21*
%TO.P,SW14,1,1_1*%
%TO.N,/Remote_Left_Hand/BTN_3*%
X176762700Y-105566750D03*
%TO.P,SW14,2,2_2*%
%TO.N,GND*%
X176762700Y-109313250D03*
%TD*%
D20*
%TO.P,SW15,*%
%TO.N,*%
X177308800Y-131421250D03*
X177308800Y-124118750D03*
D21*
%TO.P,SW15,1,1_1*%
%TO.N,/Remote_Left_Hand/BTN_4*%
X176762700Y-125896750D03*
%TO.P,SW15,2,2_2*%
%TO.N,GND*%
X176762700Y-129643250D03*
%TD*%
D22*
%TO.P,SW22,1*%
%TO.N,/Remote_Left_Hand/CHARGER_OUT*%
X155910000Y-131870000D03*
%TO.P,SW22,2*%
%TO.N,/Remote_Left_Hand/BAT+_SWITCHED*%
X158910000Y-131870000D03*
%TO.P,SW22,3*%
%TO.N,unconnected-(SW22-Pad3)*%
X160410000Y-131870000D03*
D23*
%TO.P,SW22,S1,SHIELD_S1*%
%TO.N,GND*%
X154510000Y-132655000D03*
%TO.P,SW22,S2,SHIELD_S2*%
X154510000Y-134585000D03*
%TO.P,SW22,S3,SHIELD_S3*%
X161810000Y-134585000D03*
%TO.P,SW22,S4,SHIELD_S4*%
X161810000Y-132655000D03*
%TD*%
D24*
%TO.P,U3,1,TS_1*%
%TO.N,Net-(U3-TS)*%
X135542500Y-97090000D03*
%TO.P,U3,2,BAT_2*%
%TO.N,/Remote_Right_Hand/JST_BAT+*%
X135542500Y-97590000D03*
%TO.P,U3,3,BAT_3*%
X135542500Y-98090000D03*
%TO.P,U3,4,~{CE}_4*%
%TO.N,GND*%
X135542500Y-98590000D03*
D25*
%TO.P,U3,5,EN2_5*%
X136230000Y-99277500D03*
%TO.P,U3,6,EN1_6*%
%TO.N,/Remote_Right_Hand/3.3V_REG*%
X136730000Y-99277500D03*
%TO.P,U3,7,~{PGOOD}_7*%
%TO.N,unconnected-(U3-~{PGOOD}-Pad7)*%
X137230000Y-99277500D03*
%TO.P,U3,8,VSS_8*%
%TO.N,GND*%
X137730000Y-99277500D03*
D24*
%TO.P,U3,9,~{CHG}_9*%
%TO.N,unconnected-(U3-~{CHG}-Pad9)*%
X138417500Y-98590000D03*
%TO.P,U3,10,OUT_10*%
%TO.N,/Remote_Right_Hand/CHARGER_OUT*%
X138417500Y-98090000D03*
%TO.P,U3,11,OUT_11*%
X138417500Y-97590000D03*
%TO.P,U3,12,ILIM_12*%
%TO.N,Net-(U3-ILIM)*%
X138417500Y-97090000D03*
D25*
%TO.P,U3,13,IN_13*%
%TO.N,VBUS*%
X137730000Y-96402500D03*
%TO.P,U3,14,TMR_14*%
%TO.N,Net-(U3-TMR)*%
X137230000Y-96402500D03*
%TO.P,U3,15,ITERM_15*%
%TO.N,Net-(U3-ITERM)*%
X136730000Y-96402500D03*
%TO.P,U3,16,ISET_16*%
%TO.N,Net-(U3-ISET)*%
X136230000Y-96402500D03*
D26*
%TO.P,U3,17,VSS_17*%
%TO.N,GND*%
X136980000Y-97840000D03*
%TD*%
D24*
%TO.P,U7,1,TS_1*%
%TO.N,Net-(U7-TS)*%
X162762500Y-96440000D03*
%TO.P,U7,2,BAT_2*%
%TO.N,/Remote_Left_Hand/JST_BAT+*%
X162762500Y-96940000D03*
%TO.P,U7,3,BAT_3*%
X162762500Y-97440000D03*
%TO.P,U7,4,~{CE}_4*%
%TO.N,GND*%
X162762500Y-97940000D03*
D25*
%TO.P,U7,5,EN2_5*%
X163450000Y-98627500D03*
%TO.P,U7,6,EN1_6*%
%TO.N,/Remote_Left_Hand/3.3V_REG*%
X163950000Y-98627500D03*
%TO.P,U7,7,~{PGOOD}_7*%
%TO.N,unconnected-(U7-~{PGOOD}-Pad7)*%
X164450000Y-98627500D03*
%TO.P,U7,8,VSS_8*%
%TO.N,GND*%
X164950000Y-98627500D03*
D24*
%TO.P,U7,9,~{CHG}_9*%
%TO.N,unconnected-(U7-~{CHG}-Pad9)*%
X165637500Y-97940000D03*
%TO.P,U7,10,OUT_10*%
%TO.N,/Remote_Left_Hand/CHARGER_OUT*%
X165637500Y-97440000D03*
%TO.P,U7,11,OUT_11*%
X165637500Y-96940000D03*
%TO.P,U7,12,ILIM_12*%
%TO.N,Net-(U7-ILIM)*%
X165637500Y-96440000D03*
D25*
%TO.P,U7,13,IN_13*%
%TO.N,VBUS*%
X164950000Y-95752500D03*
%TO.P,U7,14,TMR_14*%
%TO.N,Net-(U7-TMR)*%
X164450000Y-95752500D03*
%TO.P,U7,15,ITERM_15*%
%TO.N,Net-(U7-ITERM)*%
X163950000Y-95752500D03*
%TO.P,U7,16,ISET_16*%
%TO.N,Net-(U7-ISET)*%
X163450000Y-95752500D03*
D26*
%TO.P,U7,17,VSS_17*%
%TO.N,GND*%
X164200000Y-97190000D03*
%TD*%
D27*
%TO.P,U4,1,I/O1_1*%
%TO.N,/Remote_Right_Hand/D+_ESP*%
X136270000Y-123682500D03*
%TO.P,U4,2,GND_2*%
%TO.N,GND*%
X135320000Y-123682500D03*
%TO.P,U4,3,I/O2_3*%
%TO.N,/Remote_Right_Hand/D-_ESP*%
X134370000Y-123682500D03*
%TO.P,U4,4,I/O2_4*%
%TO.N,/Remote_Right_Hand/D-*%
X134370000Y-125957500D03*
%TO.P,U4,5,VBUS_5*%
%TO.N,/Remote_Right_Hand/3.3V_REG*%
X135320000Y-125957500D03*
%TO.P,U4,6,I/O1_6*%
%TO.N,/Remote_Right_Hand/D+*%
X136270000Y-125957500D03*
%TD*%
D28*
%TO.P,R15,1*%
%TO.N,GND*%
X139875000Y-125640000D03*
%TO.P,R15,2*%
%TO.N,Net-(J1-CC2)*%
X138225000Y-125640000D03*
%TD*%
D29*
%TO.P,R19,1*%
%TO.N,/Remote_Left_Hand/BOOT*%
X171005000Y-108830000D03*
%TO.P,R19,2*%
%TO.N,/Remote_Left_Hand/3.3V_REG*%
X172655000Y-108830000D03*
%TD*%
D28*
%TO.P,R3,1*%
%TO.N,Net-(D1-DIN)*%
X147255000Y-125610000D03*
%TO.P,R3,2*%
%TO.N,/Remote_Right_Hand/NEOPIXEL*%
X145605000Y-125610000D03*
%TD*%
D30*
%TO.P,R22,1*%
%TO.N,Net-(D6-DIN)*%
X175375000Y-32225000D03*
%TO.P,R22,2*%
%TO.N,/Remote_Left_Hand/D2-D3*%
X175375000Y-30575000D03*
%TD*%
D31*
%TO.P,C16,1*%
%TO.N,GND*%
X139210000Y-92280000D03*
%TO.P,C16,2*%
%TO.N,VBUS*%
X139210000Y-93830000D03*
%TD*%
D32*
%TO.P,C3,1*%
%TO.N,GND*%
X145660000Y-38230000D03*
%TO.P,C3,2*%
%TO.N,/Remote_Right_Hand/JOY_Y*%
X144110000Y-38230000D03*
%TD*%
D33*
%TO.P,C9,1*%
%TO.N,GND*%
X147930000Y-75225000D03*
%TO.P,C9,2*%
%TO.N,/Remote_Right_Hand/3.3V_REG*%
X147930000Y-73675000D03*
%TD*%
D34*
%TO.P,R17,1*%
%TO.N,/Remote_Left_Hand/JOY_SWITCH*%
X176490000Y-52595000D03*
%TO.P,R17,2*%
%TO.N,/Remote_Left_Hand/3.3V_REG*%
X176490000Y-54245000D03*
%TD*%
D33*
%TO.P,C31,1*%
%TO.N,GND*%
X168407500Y-103400000D03*
%TO.P,C31,2*%
%TO.N,/Remote_Left_Hand/3.3V_REG*%
X168407500Y-101850000D03*
%TD*%
D34*
%TO.P,R26,1*%
%TO.N,GND*%
X160875000Y-92700000D03*
%TO.P,R26,2*%
%TO.N,Net-(U7-ISET)*%
X160875000Y-94350000D03*
%TD*%
D33*
%TO.P,C19,1*%
%TO.N,GND*%
X176530000Y-46605000D03*
%TO.P,C19,2*%
%TO.N,/Remote_Left_Hand/JOY_X*%
X176530000Y-45055000D03*
%TD*%
D35*
%TO.P,SW20,1,1_1*%
%TO.N,GND*%
X162380000Y-115040000D03*
X156080000Y-115040000D03*
%TO.P,SW20,2,2_2*%
%TO.N,/Remote_Left_Hand/EN*%
X162380000Y-111240000D03*
X156080000Y-111240000D03*
%TD*%
D34*
%TO.P,R11,1*%
%TO.N,GND*%
X133485000Y-93230000D03*
%TO.P,R11,2*%
%TO.N,Net-(U3-ISET)*%
X133485000Y-94880000D03*
%TD*%
%TO.P,R2,1*%
%TO.N,/Remote_Right_Hand/JOY_SWITCH*%
X147020000Y-54155000D03*
%TO.P,R2,2*%
%TO.N,/Remote_Right_Hand/3.3V_REG*%
X147020000Y-55805000D03*
%TD*%
D33*
%TO.P,C30,1*%
%TO.N,GND*%
X157600000Y-32175000D03*
%TO.P,C30,2*%
%TO.N,/Remote_Left_Hand/3.3V_REG*%
X157600000Y-30625000D03*
%TD*%
D30*
%TO.P,R21,1*%
%TO.N,Net-(D5-DIN)*%
X155950000Y-32225000D03*
%TO.P,R21,2*%
%TO.N,/Remote_Left_Hand/D1-D2*%
X155950000Y-30575000D03*
%TD*%
D33*
%TO.P,C18,1*%
%TO.N,/Remote_Right_Hand/JST_BAT+*%
X129810000Y-98705000D03*
%TO.P,C18,2*%
%TO.N,GND*%
X129810000Y-97155000D03*
%TD*%
D34*
%TO.P,R25,1*%
%TO.N,GND*%
X168500000Y-93975000D03*
%TO.P,R25,2*%
%TO.N,Net-(U7-ILIM)*%
X168500000Y-95625000D03*
%TD*%
D33*
%TO.P,C36,1*%
%TO.N,/Remote_Left_Hand/JST_BAT+*%
X157050000Y-97900000D03*
%TO.P,C36,2*%
%TO.N,GND*%
X157050000Y-96350000D03*
%TD*%
%TO.P,C14,1*%
%TO.N,GND*%
X146385000Y-33205000D03*
%TO.P,C14,2*%
%TO.N,/Remote_Right_Hand/3.3V_REG*%
X146385000Y-31655000D03*
%TD*%
%TO.P,C6,1*%
%TO.N,GND*%
X143160000Y-89105000D03*
%TO.P,C6,2*%
%TO.N,/Remote_Right_Hand/VOL_POT*%
X143160000Y-87555000D03*
%TD*%
D36*
%TO.P,C10,1*%
%TO.N,GND*%
X127605000Y-73900000D03*
%TO.P,C10,2*%
%TO.N,/Remote_Right_Hand/EN*%
X129155000Y-73900000D03*
%TD*%
D30*
%TO.P,R23,1*%
%TO.N,/Remote_Left_Hand/EN*%
X156340000Y-74115000D03*
%TO.P,R23,2*%
%TO.N,/Remote_Left_Hand/3.3V_REG*%
X156340000Y-72465000D03*
%TD*%
D35*
%TO.P,SW9,1,1_1*%
%TO.N,GND*%
X137910000Y-114410000D03*
X131610000Y-114410000D03*
%TO.P,SW9,2,2_2*%
%TO.N,/Remote_Right_Hand/EN*%
X137910000Y-110610000D03*
X131610000Y-110610000D03*
%TD*%
D31*
%TO.P,C33,1*%
%TO.N,GND*%
X164450000Y-91225000D03*
%TO.P,C33,2*%
%TO.N,Net-(U7-TMR)*%
X164450000Y-92775000D03*
%TD*%
%TO.P,C8,1*%
%TO.N,GND*%
X147750000Y-70185000D03*
%TO.P,C8,2*%
%TO.N,/Remote_Right_Hand/3.3V_REG*%
X147750000Y-71735000D03*
%TD*%
D28*
%TO.P,R27,1*%
%TO.N,Net-(J3-CC1)*%
X165095000Y-125490000D03*
%TO.P,R27,2*%
%TO.N,GND*%
X163445000Y-125490000D03*
%TD*%
D29*
%TO.P,R29,1*%
%TO.N,GND*%
X158855000Y-96270000D03*
%TO.P,R29,2*%
%TO.N,Net-(U7-TS)*%
X160505000Y-96270000D03*
%TD*%
D37*
%TO.P,S2,A1,A1_A1*%
%TO.N,/Remote_Left_Hand/JOY_SWITCH*%
X161680000Y-51890000D03*
D38*
%TO.P,S2,A11,A11_A11*%
%TO.N,GND*%
X173660000Y-48640000D03*
%TO.P,S2,A12,A12_A12*%
%TO.N,/Remote_Left_Hand/JOY_X*%
X173660000Y-46140000D03*
%TO.P,S2,A13,A13_A13*%
%TO.N,/Remote_Left_Hand/3.3V_REG*%
X173660000Y-43640000D03*
D37*
%TO.P,S2,B1,B1_B1*%
%TO.N,GND*%
X161680000Y-56390000D03*
D38*
%TO.P,S2,B11,B11_B11*%
X167430000Y-37410000D03*
%TO.P,S2,B12,B12_B12*%
%TO.N,/Remote_Left_Hand/JOY_Y*%
X164930000Y-37410000D03*
%TO.P,S2,B13,B13_B13*%
%TO.N,/Remote_Left_Hand/3.3V_REG*%
X162430000Y-37410000D03*
D37*
%TO.P,S2,C1,C1_C1*%
%TO.N,/Remote_Left_Hand/JOY_SWITCH*%
X168180000Y-51890000D03*
%TO.P,S2,D1,D1_D1*%
%TO.N,GND*%
X168180000Y-56390000D03*
D39*
%TO.P,S2,MH1,MH1_MH1*%
X158605000Y-51140000D03*
%TO.P,S2,MH2,MH2_MH2*%
X158605000Y-41140000D03*
%TO.P,S2,MH3,MH3_MH3*%
X171255000Y-51140000D03*
%TO.P,S2,MH4,MH4_MH4*%
X171255000Y-41140000D03*
D40*
%TO.P,S2,MH5,MH5_MH5*%
X160630000Y-46140000D03*
%TO.P,S2,MH6,MH6_MH6*%
X169230000Y-46140000D03*
%TD*%
D37*
%TO.P,S1,A1,A1_A1*%
%TO.N,/Remote_Right_Hand/JOY_SWITCH*%
X132170000Y-51890000D03*
D38*
%TO.P,S1,A11,A11_A11*%
%TO.N,GND*%
X144150000Y-48640000D03*
%TO.P,S1,A12,A12_A12*%
%TO.N,/Remote_Right_Hand/JOY_X*%
X144150000Y-46140000D03*
%TO.P,S1,A13,A13_A13*%
%TO.N,/Remote_Right_Hand/3.3V_REG*%
X144150000Y-43640000D03*
D37*
%TO.P,S1,B1,B1_B1*%
%TO.N,GND*%
X132170000Y-56390000D03*
D38*
%TO.P,S1,B11,B11_B11*%
X137920000Y-37410000D03*
%TO.P,S1,B12,B12_B12*%
%TO.N,/Remote_Right_Hand/JOY_Y*%
X135420000Y-37410000D03*
%TO.P,S1,B13,B13_B13*%
%TO.N,/Remote_Right_Hand/3.3V_REG*%
X132920000Y-37410000D03*
D37*
%TO.P,S1,C1,C1_C1*%
%TO.N,/Remote_Right_Hand/JOY_SWITCH*%
X138670000Y-51890000D03*
%TO.P,S1,D1,D1_D1*%
%TO.N,GND*%
X138670000Y-56390000D03*
D39*
%TO.P,S1,MH1,MH1_MH1*%
X129095000Y-51140000D03*
%TO.P,S1,MH2,MH2_MH2*%
X129095000Y-41140000D03*
%TO.P,S1,MH3,MH3_MH3*%
X141745000Y-51140000D03*
%TO.P,S1,MH4,MH4_MH4*%
X141745000Y-41140000D03*
D40*
%TO.P,S1,MH5,MH5_MH5*%
X131120000Y-46140000D03*
%TO.P,S1,MH6,MH6_MH6*%
X139720000Y-46140000D03*
%TD*%
D34*
%TO.P,R10,1*%
%TO.N,GND*%
X141160000Y-94780000D03*
%TO.P,R10,2*%
%TO.N,Net-(U3-ILIM)*%
X141160000Y-96430000D03*
%TD*%
D27*
%TO.P,U8,1,I/O1_1*%
%TO.N,/Remote_Left_Hand/D+_ESP*%
X168882500Y-123682500D03*
%TO.P,U8,2,GND_2*%
%TO.N,GND*%
X167932500Y-123682500D03*
%TO.P,U8,3,I/O2_3*%
%TO.N,/Remote_Left_Hand/D-_ESP*%
X166982500Y-123682500D03*
%TO.P,U8,4,I/O2_4*%
%TO.N,/Remote_Left_Hand/D-*%
X166982500Y-125957500D03*
%TO.P,U8,5,VBUS_5*%
%TO.N,/Remote_Left_Hand/3.3V_REG*%
X167932500Y-125957500D03*
%TO.P,U8,6,I/O1_6*%
%TO.N,/Remote_Left_Hand/D+*%
X168882500Y-125957500D03*
%TD*%
D32*
%TO.P,C21,1*%
%TO.N,GND*%
X174350000Y-37200000D03*
%TO.P,C21,2*%
%TO.N,/Remote_Left_Hand/JOY_Y*%
X172800000Y-37200000D03*
%TD*%
D41*
%TO.P,U5,1,VIN_1*%
%TO.N,/Remote_Left_Hand/BAT+_SWITCHED*%
X163232500Y-102070000D03*
%TO.P,U5,2,GND_2*%
%TO.N,GND*%
X163232500Y-103020000D03*
%TO.P,U5,3,EN_3*%
%TO.N,/Remote_Left_Hand/BAT+_SWITCHED*%
X163232500Y-103970000D03*
%TO.P,U5,4,NC_4*%
%TO.N,unconnected-(U5-NC-Pad4)*%
X165507500Y-103970000D03*
%TO.P,U5,5,VOUT_5*%
%TO.N,/Remote_Left_Hand/3.3V_REG*%
X165507500Y-102070000D03*
%TD*%
D42*
%TO.P,R20,1*%
%TO.N,/Remote_Left_Hand/3.3V_REG*%
X155980000Y-89650000D03*
D43*
%TO.P,R20,2*%
%TO.N,/Remote_Left_Hand/VOL_POT*%
X155980000Y-87110000D03*
%TO.P,R20,3*%
%TO.N,GND*%
X155980000Y-84570000D03*
%TD*%
D28*
%TO.P,R13,1*%
%TO.N,Net-(U3-TS)*%
X133305000Y-98570000D03*
%TO.P,R13,2*%
%TO.N,/Remote_Right_Hand/JST_BAT+*%
X131655000Y-98570000D03*
%TD*%
D41*
%TO.P,U1,1,VIN_1*%
%TO.N,/Remote_Right_Hand/BAT+_SWITCHED*%
X135050000Y-102070000D03*
%TO.P,U1,2,GND_2*%
%TO.N,GND*%
X135050000Y-103020000D03*
%TO.P,U1,3,EN_3*%
%TO.N,/Remote_Right_Hand/BAT+_SWITCHED*%
X135050000Y-103970000D03*
%TO.P,U1,4,NC_4*%
%TO.N,unconnected-(U1-NC-Pad4)*%
X137325000Y-103970000D03*
%TO.P,U1,5,VOUT_5*%
%TO.N,/Remote_Right_Hand/3.3V_REG*%
X137325000Y-102070000D03*
%TD*%
D42*
%TO.P,R5,1*%
%TO.N,/Remote_Right_Hand/3.3V_REG*%
X147480000Y-84800000D03*
D43*
%TO.P,R5,2*%
%TO.N,/Remote_Right_Hand/VOL_POT*%
X147480000Y-87340000D03*
%TO.P,R5,3*%
%TO.N,GND*%
X147480000Y-89880000D03*
%TD*%
D33*
%TO.P,C12,1*%
%TO.N,GND*%
X126290000Y-33145000D03*
%TO.P,C12,2*%
%TO.N,/Remote_Right_Hand/3.3V_REG*%
X126290000Y-31595000D03*
%TD*%
D35*
%TO.P,SW10,1,1_1*%
%TO.N,/Remote_Right_Hand/BOOT*%
X140585000Y-110610000D03*
X146885000Y-110610000D03*
%TO.P,SW10,2,2_2*%
%TO.N,GND*%
X140585000Y-114410000D03*
X146885000Y-114410000D03*
%TD*%
D29*
%TO.P,R4,1*%
%TO.N,/Remote_Right_Hand/BOOT*%
X144185000Y-106660000D03*
%TO.P,R4,2*%
%TO.N,/Remote_Right_Hand/3.3V_REG*%
X145835000Y-106660000D03*
%TD*%
D33*
%TO.P,C32,1*%
%TO.N,GND*%
X177200000Y-32175000D03*
%TO.P,C32,2*%
%TO.N,/Remote_Left_Hand/3.3V_REG*%
X177200000Y-30625000D03*
%TD*%
D31*
%TO.P,C24,1*%
%TO.N,GND*%
X159470000Y-84865000D03*
%TO.P,C24,2*%
%TO.N,/Remote_Left_Hand/VOL_POT*%
X159470000Y-86415000D03*
%TD*%
D33*
%TO.P,C1,1*%
%TO.N,GND*%
X147010000Y-47705000D03*
%TO.P,C1,2*%
%TO.N,/Remote_Right_Hand/JOY_X*%
X147010000Y-46155000D03*
%TD*%
D34*
%TO.P,R6,1*%
%TO.N,Net-(D2-DIN)*%
X128190000Y-31545000D03*
%TO.P,R6,2*%
%TO.N,/Remote_Right_Hand/D1-D2*%
X128190000Y-33195000D03*
%TD*%
D28*
%TO.P,R28,1*%
%TO.N,Net-(U7-TS)*%
X160475000Y-97980000D03*
%TO.P,R28,2*%
%TO.N,/Remote_Left_Hand/JST_BAT+*%
X158825000Y-97980000D03*
%TD*%
D31*
%TO.P,C5,1*%
%TO.N,GND*%
X147020000Y-50985000D03*
%TO.P,C5,2*%
%TO.N,/Remote_Right_Hand/JOY_SWITCH*%
X147020000Y-52535000D03*
%TD*%
D33*
%TO.P,C23,1*%
%TO.N,GND*%
X176530000Y-50935000D03*
%TO.P,C23,2*%
%TO.N,/Remote_Left_Hand/JOY_SWITCH*%
X176530000Y-49385000D03*
%TD*%
D34*
%TO.P,R24,1*%
%TO.N,GND*%
X162700000Y-91600000D03*
%TO.P,R24,2*%
%TO.N,Net-(U7-ITERM)*%
X162700000Y-93250000D03*
%TD*%
D28*
%TO.P,R12,1*%
%TO.N,Net-(J1-CC1)*%
X132475000Y-125580000D03*
%TO.P,R12,2*%
%TO.N,GND*%
X130825000Y-125580000D03*
%TD*%
D32*
%TO.P,C35,1*%
%TO.N,GND*%
X169675000Y-97450000D03*
%TO.P,C35,2*%
%TO.N,/Remote_Left_Hand/CHARGER_OUT*%
X168125000Y-97450000D03*
%TD*%
D36*
%TO.P,C7,1*%
%TO.N,GND*%
X142480000Y-125610000D03*
%TO.P,C7,2*%
%TO.N,/Remote_Right_Hand/3.3V_REG*%
X144030000Y-125610000D03*
%TD*%
D34*
%TO.P,R9,1*%
%TO.N,GND*%
X135485000Y-92430000D03*
%TO.P,R9,2*%
%TO.N,Net-(U3-ITERM)*%
X135485000Y-94080000D03*
%TD*%
D28*
%TO.P,R8,1*%
%TO.N,/Remote_Right_Hand/EN*%
X129205000Y-75840000D03*
%TO.P,R8,2*%
%TO.N,/Remote_Right_Hand/3.3V_REG*%
X127555000Y-75840000D03*
%TD*%
D31*
%TO.P,C34,1*%
%TO.N,GND*%
X166250000Y-92050000D03*
%TO.P,C34,2*%
%TO.N,VBUS*%
X166250000Y-93600000D03*
%TD*%
D33*
%TO.P,C13,1*%
%TO.N,GND*%
X140380000Y-103785000D03*
%TO.P,C13,2*%
%TO.N,/Remote_Right_Hand/3.3V_REG*%
X140380000Y-102235000D03*
%TD*%
D31*
%TO.P,C29,1*%
%TO.N,GND*%
X160027500Y-101850000D03*
%TO.P,C29,2*%
%TO.N,/Remote_Left_Hand/BAT+_SWITCHED*%
X160027500Y-103400000D03*
%TD*%
D32*
%TO.P,C17,1*%
%TO.N,GND*%
X142235000Y-98055000D03*
%TO.P,C17,2*%
%TO.N,/Remote_Right_Hand/CHARGER_OUT*%
X140685000Y-98055000D03*
%TD*%
%TO.P,C26,1*%
%TO.N,GND*%
X176515000Y-75280000D03*
%TO.P,C26,2*%
%TO.N,/Remote_Left_Hand/3.3V_REG*%
X174965000Y-75280000D03*
%TD*%
D34*
%TO.P,R7,1*%
%TO.N,Net-(D3-DIN)*%
X144435000Y-31605000D03*
%TO.P,R7,2*%
%TO.N,/Remote_Right_Hand/D2-D3*%
X144435000Y-33255000D03*
%TD*%
D32*
%TO.P,C27,1*%
%TO.N,GND*%
X176455000Y-73140000D03*
%TO.P,C27,2*%
%TO.N,/Remote_Left_Hand/3.3V_REG*%
X174905000Y-73140000D03*
%TD*%
D29*
%TO.P,R14,1*%
%TO.N,GND*%
X131685000Y-96960000D03*
%TO.P,R14,2*%
%TO.N,Net-(U3-TS)*%
X133335000Y-96960000D03*
%TD*%
D28*
%TO.P,R18,1*%
%TO.N,Net-(D4-DIN)*%
X160105000Y-125550000D03*
%TO.P,R18,2*%
%TO.N,/Remote_Left_Hand/NEOPIXEL*%
X158455000Y-125550000D03*
%TD*%
%TO.P,R30,1*%
%TO.N,GND*%
X172385000Y-125380000D03*
%TO.P,R30,2*%
%TO.N,Net-(J3-CC2)*%
X170735000Y-125380000D03*
%TD*%
D31*
%TO.P,C15,1*%
%TO.N,GND*%
X137310000Y-91480000D03*
%TO.P,C15,2*%
%TO.N,Net-(U3-TMR)*%
X137310000Y-93030000D03*
%TD*%
%TO.P,C11,1*%
%TO.N,GND*%
X132470000Y-102175000D03*
%TO.P,C11,2*%
%TO.N,/Remote_Right_Hand/BAT+_SWITCHED*%
X132470000Y-103725000D03*
%TD*%
D36*
%TO.P,C25,1*%
%TO.N,GND*%
X155180000Y-125550000D03*
%TO.P,C25,2*%
%TO.N,/Remote_Left_Hand/3.3V_REG*%
X156730000Y-125550000D03*
%TD*%
D35*
%TO.P,SW21,1,1_1*%
%TO.N,/Remote_Left_Hand/BOOT*%
X165390000Y-111240000D03*
X171690000Y-111240000D03*
%TO.P,SW21,2,2_2*%
%TO.N,GND*%
X165390000Y-115040000D03*
X171690000Y-115040000D03*
%TD*%
D33*
%TO.P,C28,1*%
%TO.N,GND*%
X156320000Y-77585000D03*
%TO.P,C28,2*%
%TO.N,/Remote_Left_Hand/EN*%
X156320000Y-76035000D03*
%TD*%
D44*
%TO.N,GND*%
X179000000Y-68500000D03*
%TO.N,/Remote_Left_Hand/JOY_SWITCH*%
X179000000Y-60000000D03*
X179200000Y-65061028D03*
%TO.N,/Remote_Right_Hand/3.3V_REG*%
X146670000Y-57170000D03*
X135630000Y-127031471D03*
X145420000Y-127040000D03*
%TO.N,/Remote_Right_Hand/JOY_Y*%
X142930000Y-36840000D03*
X144980000Y-70360000D03*
%TO.N,/Remote_Right_Hand/JOY_SWITCH*%
X144670000Y-69360000D03*
X145614500Y-53125500D03*
%TO.N,/Remote_Right_Hand/D1-D2*%
X144770000Y-128770000D03*
X129320000Y-35230000D03*
%TO.N,/Remote_Right_Hand/VOL_POT*%
X144400000Y-65770000D03*
%TO.N,/Remote_Right_Hand/EN*%
X138090000Y-106730000D03*
X129732465Y-74802465D03*
%TO.N,/Remote_Right_Hand/BAT+_SWITCHED*%
X147280000Y-130120000D03*
X138925000Y-105255000D03*
%TO.N,GND*%
X141585000Y-66335000D03*
X159610000Y-93240000D03*
X172890000Y-88260000D03*
X168460000Y-104730000D03*
X174973500Y-78143500D03*
X174470000Y-107610000D03*
X169840000Y-95600000D03*
X139330000Y-103520000D03*
X168230000Y-66120000D03*
X162350000Y-66060000D03*
X135470000Y-69290000D03*
X176515000Y-78640000D03*
X174100000Y-28980000D03*
X176325000Y-35225000D03*
X144060000Y-114410000D03*
X147800000Y-68810000D03*
X134780000Y-114410000D03*
X140225000Y-93295000D03*
X132402500Y-94312500D03*
X162310000Y-70650000D03*
X162600000Y-98920000D03*
X133485000Y-102665000D03*
X161540000Y-102660000D03*
X172650000Y-60240000D03*
X161600000Y-91230000D03*
X157050000Y-61870000D03*
X159450000Y-115040000D03*
X168140000Y-115040000D03*
X130420000Y-76430000D03*
X135040000Y-99690000D03*
%TO.N,VBUS*%
X171470000Y-122180000D03*
X138714250Y-95444250D03*
X131700000Y-121740000D03*
X166750000Y-95070000D03*
X164290000Y-122190000D03*
X139090000Y-121550000D03*
%TO.N,/Remote_Right_Hand/CHARGER_OUT*%
X141710000Y-129700000D03*
X140250000Y-100860000D03*
%TO.N,/Remote_Right_Hand/JST_BAT+*%
X132880000Y-100780000D03*
%TO.N,/Remote_Left_Hand/JOY_X*%
X169760000Y-69070000D03*
X168710000Y-48960000D03*
%TO.N,/Remote_Left_Hand/3.3V_REG*%
X171890000Y-86840000D03*
X176670000Y-71990000D03*
X176770000Y-58720000D03*
X168140000Y-127120000D03*
X157132500Y-127127500D03*
%TO.N,/Remote_Left_Hand/JOY_Y*%
X170710000Y-38470000D03*
X170020000Y-70220000D03*
%TO.N,/Remote_Left_Hand/VOL_POT*%
X160500000Y-86290000D03*
X175690000Y-66446000D03*
%TO.N,/Remote_Left_Hand/EN*%
X160260000Y-109420000D03*
X157830000Y-92710000D03*
%TO.N,/Remote_Left_Hand/BAT+_SWITCHED*%
X161510000Y-128990000D03*
X162250000Y-105060000D03*
%TO.N,/Remote_Left_Hand/CHARGER_OUT*%
X154490000Y-129280000D03*
X166770000Y-98940000D03*
%TO.N,/Remote_Left_Hand/JST_BAT+*%
X155805000Y-97595000D03*
%TO.N,/Remote_Right_Hand/SCK*%
X137065245Y-72183342D03*
%TO.N,/Remote_Right_Hand/MOSI*%
X137799509Y-72520000D03*
%TO.N,/Remote_Right_Hand/RST*%
X137887549Y-73315144D03*
%TO.N,/Remote_Right_Hand/DIO1*%
X139400000Y-73590000D03*
%TO.N,/Remote_Right_Hand/RX_EN*%
X138020000Y-63920000D03*
%TO.N,/Remote_Right_Hand/BUSY*%
X138742682Y-72910000D03*
%TO.N,/Remote_Right_Hand/TX_EN*%
X136690000Y-64170000D03*
%TO.N,/Remote_Right_Hand/MISO*%
X136827792Y-73639435D03*
%TO.N,/Remote_Right_Hand/NSS*%
X140360000Y-73300000D03*
%TO.N,/Remote_Left_Hand/NSS*%
X173770000Y-63350000D03*
%TO.N,/Remote_Left_Hand/DIO1*%
X167200000Y-65760000D03*
%TO.N,/Remote_Left_Hand/SCK*%
X171370000Y-62700000D03*
%TO.N,/Remote_Left_Hand/TX_EN*%
X164250000Y-74390000D03*
%TO.N,/Remote_Left_Hand/MOSI*%
X170770000Y-63340000D03*
%TO.N,/Remote_Left_Hand/BUSY*%
X168530000Y-64380000D03*
%TO.N,/Remote_Left_Hand/RX_EN*%
X165325000Y-74145000D03*
%TO.N,/Remote_Left_Hand/MISO*%
X169925814Y-63510000D03*
%TO.N,/Remote_Left_Hand/RST*%
X169140000Y-63360000D03*
%TO.N,/Remote_Left_Hand/D1-D2*%
X155970000Y-123130000D03*
X155800000Y-33660000D03*
%TO.N,/Remote_Right_Hand/NEOPIXEL*%
X148400000Y-124260000D03*
X146230000Y-58610000D03*
%TO.N,/Remote_Right_Hand/BOOT*%
X142720000Y-105300000D03*
X144720000Y-72580000D03*
%TO.N,/Remote_Left_Hand/NEOPIXEL*%
X157520000Y-121270000D03*
X173525000Y-65845000D03*
%TO.N,/Remote_Left_Hand/BOOT*%
X164895000Y-109785000D03*
X165580000Y-72520000D03*
%TO.N,/Remote_Right_Hand/BTN_1*%
X129970000Y-68780000D03*
X144395000Y-58215000D03*
%TO.N,/Remote_Right_Hand/BTN_2*%
X144540000Y-68570633D03*
X128420000Y-88000000D03*
%TO.N,/Remote_Right_Hand/BTN_3*%
X144640000Y-67300000D03*
X135120000Y-106680000D03*
%TO.N,/Remote_Right_Hand/BTN_4*%
X136180000Y-106430000D03*
X143989000Y-66780000D03*
%TO.N,/Remote_Right_Hand/BTN_5*%
X130010000Y-54700000D03*
%TO.N,/Remote_Right_Hand/BTN_6*%
X139285735Y-60074265D03*
%TO.N,/Remote_Right_Hand/BTN_7*%
X132610000Y-59050000D03*
X132840000Y-84820000D03*
%TO.N,/Remote_Right_Hand/BTN_8*%
X132790000Y-60400000D03*
X131780000Y-84760000D03*
%TO.N,/Remote_Left_Hand/BTN_2*%
X172750000Y-84570000D03*
X170790000Y-68400000D03*
%TO.N,/Remote_Left_Hand/BTN_3*%
X169810000Y-68120000D03*
X173930000Y-106780000D03*
%TO.N,/Remote_Left_Hand/BTN_4*%
X174580000Y-113570000D03*
X168880000Y-67830000D03*
%TO.N,/Remote_Left_Hand/BTN_5*%
X173790000Y-58810000D03*
%TO.N,/Remote_Left_Hand/BTN_6*%
X168215000Y-59365000D03*
X178270000Y-79660000D03*
%TO.N,/Remote_Left_Hand/BTN_7*%
X176330000Y-98710000D03*
X162290000Y-65150000D03*
%TO.N,/Remote_Left_Hand/BTN_8*%
X162100000Y-64130000D03*
X177310000Y-119440000D03*
%TO.N,/Remote_Right_Hand/D+_ESP*%
X136590000Y-58530000D03*
X136275000Y-122265000D03*
%TO.N,/Remote_Right_Hand/D-_ESP*%
X134350000Y-122250000D03*
X137590000Y-58530000D03*
%TO.N,/Remote_Left_Hand/D+_ESP*%
X168890000Y-121090000D03*
X164680000Y-60330000D03*
%TO.N,/Remote_Left_Hand/D-_ESP*%
X165540000Y-60410000D03*
X166982500Y-121072500D03*
%TD*%
%TO.N,/Remote_Left_Hand/3.3V_REG*%
D45*
X171120000Y-84380000D02*
X171120000Y-87860000D01*
X174000000Y-81500000D02*
X171120000Y-84380000D01*
X174965000Y-75280000D02*
X174000000Y-76245000D01*
X174000000Y-76245000D02*
X174000000Y-81500000D01*
%TO.N,/Remote_Left_Hand/BTN_3*%
D46*
X169840000Y-68150000D02*
X169810000Y-68120000D01*
X170541471Y-67800000D02*
X170191471Y-68150000D01*
X170191471Y-68150000D02*
X169840000Y-68150000D01*
X171038529Y-67800000D02*
X170541471Y-67800000D01*
X171388529Y-68150000D02*
X171038529Y-67800000D01*
X172260000Y-68150000D02*
X171388529Y-68150000D01*
%TO.N,/Remote_Left_Hand/BTN_4*%
X168880000Y-67560000D02*
X168880000Y-67830000D01*
X169140000Y-67300000D02*
X168880000Y-67560000D01*
X172300000Y-67300000D02*
X169140000Y-67300000D01*
%TO.N,/Remote_Left_Hand/JOY_SWITCH*%
X176553460Y-60000000D02*
X169793460Y-53240000D01*
X179000000Y-60000000D02*
X176553460Y-60000000D01*
X169793460Y-53240000D02*
X169530000Y-53240000D01*
%TO.N,GND*%
X125400000Y-133400000D02*
X131160000Y-133400000D01*
X124500000Y-133000000D02*
X125000000Y-133000000D01*
X124050000Y-132550000D02*
X124500000Y-133000000D01*
X124050000Y-129357000D02*
X124050000Y-132550000D01*
X127500000Y-125907000D02*
X124050000Y-129357000D01*
X125000000Y-133000000D02*
X125400000Y-133400000D01*
X176905950Y-68500000D02*
X179000000Y-68500000D01*
X176762700Y-68643250D02*
X176905950Y-68500000D01*
%TO.N,/Remote_Left_Hand/JOY_SWITCH*%
X172890000Y-69850000D02*
X172370000Y-69850000D01*
X173500000Y-68810000D02*
X173500000Y-69240000D01*
X173800000Y-68510000D02*
X173500000Y-68810000D01*
X173500000Y-69240000D02*
X172890000Y-69850000D01*
X174515694Y-67410000D02*
X173800000Y-68125694D01*
X177590000Y-67410000D02*
X174515694Y-67410000D01*
X179200000Y-65800000D02*
X177590000Y-67410000D01*
X179200000Y-65061028D02*
X179200000Y-65800000D01*
X173800000Y-68125694D02*
X173800000Y-68510000D01*
%TO.N,/Remote_Right_Hand/3.3V_REG*%
D45*
X144900000Y-84500000D02*
X145200000Y-84800000D01*
X137000000Y-83500000D02*
X138000000Y-84500000D01*
X131500000Y-83500000D02*
X137000000Y-83500000D01*
X145200000Y-84800000D02*
X147480000Y-84800000D01*
X127555000Y-79555000D02*
X131500000Y-83500000D01*
X138000000Y-84500000D02*
X144900000Y-84500000D01*
X127555000Y-75840000D02*
X127555000Y-79555000D01*
%TO.N,/Remote_Right_Hand/BTN_4*%
D46*
X136219943Y-106430000D02*
X136180000Y-106430000D01*
X135368943Y-107281000D02*
X136219943Y-106430000D01*
X135152550Y-107281000D02*
X135368943Y-107281000D01*
X132752550Y-109681000D02*
X135152550Y-107281000D01*
X129799000Y-110461000D02*
X130579000Y-109681000D01*
X130579000Y-109681000D02*
X132752550Y-109681000D01*
X129799000Y-127311000D02*
X129799000Y-110461000D01*
X127500000Y-129610000D02*
X129799000Y-127311000D01*
%TO.N,GND*%
X129000000Y-85447000D02*
X132402500Y-88849500D01*
X132402500Y-88849500D02*
X132402500Y-94312500D01*
X129000000Y-85447000D02*
X127500000Y-85447000D01*
%TO.N,/Remote_Right_Hand/JOY_X*%
X147796000Y-46941000D02*
X147796000Y-54568064D01*
X146531936Y-55104000D02*
X145260000Y-56375936D01*
X146995000Y-46140000D02*
X147010000Y-46155000D01*
X148125000Y-59625000D02*
X148125000Y-65085000D01*
X147260064Y-55104000D02*
X146531936Y-55104000D01*
X146610000Y-70854500D02*
X146092000Y-71372500D01*
X145260000Y-56375936D02*
X145260000Y-56760000D01*
X147010000Y-46155000D02*
X147796000Y-46941000D01*
X146092000Y-71372500D02*
X145740000Y-71372500D01*
X144150000Y-46140000D02*
X146995000Y-46140000D01*
X146610000Y-66600000D02*
X146610000Y-70854500D01*
X145260000Y-56760000D02*
X148125000Y-59625000D01*
X147796000Y-54568064D02*
X147260064Y-55104000D01*
X148125000Y-65085000D02*
X146610000Y-66600000D01*
%TO.N,Net-(U3-TMR)*%
X137230000Y-96402500D02*
X137230000Y-93110000D01*
X137230000Y-93110000D02*
X137310000Y-93030000D01*
%TO.N,/Remote_Right_Hand/3.3V_REG*%
D45*
X148461000Y-108999000D02*
X148430000Y-109030000D01*
X145420000Y-127040000D02*
X145420000Y-127000000D01*
X147750000Y-71735000D02*
X148626000Y-70859000D01*
D46*
X136730000Y-101475000D02*
X137325000Y-102070000D01*
X136730000Y-99277500D02*
X136730000Y-101475000D01*
D45*
X145835000Y-106660000D02*
X146270000Y-106660000D01*
X129745000Y-37085000D02*
X127546000Y-34886000D01*
X135630000Y-127031471D02*
X135630000Y-127010000D01*
X145970000Y-121630000D02*
X144030000Y-123570000D01*
X144150000Y-43640000D02*
X136300000Y-43640000D01*
X148430000Y-119150000D02*
X145970000Y-121610000D01*
X146385000Y-31655000D02*
X147550000Y-32820000D01*
X126485000Y-31595000D02*
X126290000Y-31595000D01*
X127170000Y-29005000D02*
X127170000Y-30715000D01*
X138175000Y-102235000D02*
X140380000Y-102235000D01*
X147020000Y-55805000D02*
X147020000Y-56820000D01*
X147930000Y-73675000D02*
X148806000Y-74551000D01*
X147480000Y-84800000D02*
X148461000Y-85781000D01*
X147550000Y-32820000D02*
X147550000Y-40240000D01*
X147748750Y-71733750D02*
X146410000Y-73072500D01*
X141410000Y-102235000D02*
X140380000Y-102235000D01*
X148626000Y-45666000D02*
X146600000Y-43640000D01*
X132920000Y-37410000D02*
X130070000Y-37410000D01*
X148806000Y-83474000D02*
X147480000Y-84800000D01*
X128145000Y-28780000D02*
X127395000Y-28780000D01*
X130070000Y-37410000D02*
X129745000Y-37085000D01*
X146591000Y-28781000D02*
X146106000Y-28781000D01*
X127546000Y-34886000D02*
X127546000Y-33996000D01*
X146410000Y-73072500D02*
X145740000Y-73072500D01*
X148430000Y-108820000D02*
X148430000Y-109030000D01*
X145420000Y-127000000D02*
X144030000Y-125610000D01*
X145835000Y-106660000D02*
X141410000Y-102235000D01*
X147020000Y-56820000D02*
X146670000Y-57170000D01*
X147740000Y-71725000D02*
X147748750Y-71733750D01*
X147550000Y-40240000D02*
X144150000Y-43640000D01*
X145725000Y-127305000D02*
X145725000Y-128290000D01*
X145420000Y-127040000D02*
X145460000Y-127040000D01*
X135320000Y-126700000D02*
X135320000Y-125957500D01*
X127220000Y-33670000D02*
X127220000Y-32330000D01*
X127395000Y-28780000D02*
X127170000Y-29005000D01*
X148626000Y-57411000D02*
X148626000Y-45666000D01*
X147050000Y-30990000D02*
X147050000Y-29240000D01*
X138010000Y-102070000D02*
X138175000Y-102235000D01*
X147037500Y-73072500D02*
X146410000Y-73072500D01*
X147050000Y-29240000D02*
X146591000Y-28781000D01*
X145460000Y-127040000D02*
X145725000Y-127305000D01*
X147930000Y-73675000D02*
X147640000Y-73675000D01*
X148626000Y-70859000D02*
X148626000Y-57411000D01*
X145970000Y-121610000D02*
X145970000Y-121630000D01*
X138010000Y-102070000D02*
X137325000Y-102070000D01*
X148806000Y-74551000D02*
X148806000Y-83474000D01*
X144030000Y-123570000D02*
X144030000Y-125610000D01*
X148626000Y-57411000D02*
X147020000Y-55805000D01*
X148461000Y-85781000D02*
X148461000Y-108999000D01*
X146270000Y-106660000D02*
X148430000Y-108820000D01*
X147640000Y-73675000D02*
X147037500Y-73072500D01*
X127170000Y-30715000D02*
X126290000Y-31595000D01*
X127220000Y-32330000D02*
X126485000Y-31595000D01*
X146385000Y-31655000D02*
X147050000Y-30990000D01*
X127546000Y-33996000D02*
X127220000Y-33670000D01*
X136300000Y-43640000D02*
X129745000Y-37085000D01*
X148430000Y-109030000D02*
X148430000Y-119150000D01*
X135630000Y-127010000D02*
X135320000Y-126700000D01*
X146106000Y-28781000D02*
X146105000Y-28780000D01*
X146600000Y-43640000D02*
X144150000Y-43640000D01*
%TO.N,/Remote_Right_Hand/JOY_Y*%
D46*
X143804000Y-38536000D02*
X144110000Y-38230000D01*
X144980000Y-70360000D02*
X145577500Y-70360000D01*
X136546000Y-38536000D02*
X143804000Y-38536000D01*
X135420000Y-37410000D02*
X136546000Y-38536000D01*
X145577500Y-70360000D02*
X145740000Y-70522500D01*
X144110000Y-38020000D02*
X142930000Y-36840000D01*
X144110000Y-38230000D02*
X144110000Y-38020000D01*
%TO.N,/Remote_Right_Hand/JOY_SWITCH*%
X146914000Y-52641000D02*
X145130000Y-52641000D01*
X132170000Y-51890000D02*
X138670000Y-51890000D01*
X146644000Y-54155000D02*
X145614500Y-53125500D01*
X147020000Y-52535000D02*
X146914000Y-52641000D01*
X147020000Y-54155000D02*
X146644000Y-54155000D01*
X145130000Y-52641000D02*
X139421000Y-52641000D01*
X145614500Y-53125500D02*
X145130000Y-52641000D01*
X145740000Y-69672500D02*
X144982500Y-69672500D01*
X144982500Y-69672500D02*
X144670000Y-69360000D01*
X139421000Y-52641000D02*
X138670000Y-51890000D01*
%TO.N,/Remote_Right_Hand/D1-D2*%
X128190000Y-33195000D02*
X128190000Y-34100000D01*
X144375000Y-128770000D02*
X143895000Y-128290000D01*
X128190000Y-34100000D02*
X129320000Y-35230000D01*
X144770000Y-128770000D02*
X144375000Y-128770000D01*
%TO.N,/Remote_Right_Hand/VOL_POT*%
X145140000Y-66272500D02*
X144637500Y-65770000D01*
X145740000Y-66272500D02*
X145140000Y-66272500D01*
X144637500Y-65770000D02*
X144400000Y-65770000D01*
X143375000Y-87340000D02*
X143160000Y-87555000D01*
X147480000Y-87340000D02*
X143375000Y-87340000D01*
%TO.N,/Remote_Right_Hand/EN*%
X129205000Y-75815000D02*
X129205000Y-75840000D01*
X129205000Y-75840000D02*
X129725000Y-75840000D01*
X129155000Y-73900000D02*
X129920000Y-73900000D01*
X129920000Y-73900000D02*
X130792500Y-74772500D01*
X129840000Y-75180000D02*
X129205000Y-75815000D01*
X137910000Y-110610000D02*
X137910000Y-106910000D01*
X137910000Y-106910000D02*
X138090000Y-106730000D01*
X131610000Y-110610000D02*
X137910000Y-110610000D01*
X129732465Y-74802465D02*
X129840000Y-74910000D01*
X129840000Y-74910000D02*
X129840000Y-75180000D01*
X129725000Y-75840000D02*
X130792500Y-74772500D01*
X130792500Y-74772500D02*
X131740000Y-74772500D01*
%TO.N,/Remote_Right_Hand/BAT+_SWITCHED*%
D45*
X135800000Y-103970000D02*
X135050000Y-103970000D01*
X132715000Y-103970000D02*
X135050000Y-103970000D01*
X132470000Y-103725000D02*
X132715000Y-103970000D01*
X136240000Y-103530000D02*
X135800000Y-103970000D01*
X135780000Y-102070000D02*
X136240000Y-102530000D01*
X146220000Y-131180000D02*
X146220000Y-132030000D01*
X135050000Y-102070000D02*
X135780000Y-102070000D01*
X136335000Y-105255000D02*
X135050000Y-103970000D01*
X147280000Y-130120000D02*
X146220000Y-131180000D01*
X138925000Y-105255000D02*
X136335000Y-105255000D01*
X136240000Y-102530000D02*
X136240000Y-103530000D01*
%TO.N,GND*%
D46*
X133810000Y-93230000D02*
X134610000Y-92430000D01*
X158370000Y-73140000D02*
X158722000Y-73140000D01*
X133485000Y-93230000D02*
X133810000Y-93230000D01*
X131160000Y-125915000D02*
X130825000Y-125580000D01*
X131740000Y-61822500D02*
X130402500Y-61822500D01*
X145740000Y-75822500D02*
X146982500Y-75822500D01*
X131610000Y-114410000D02*
X134780000Y-114410000D01*
X147480000Y-89880000D02*
X143935000Y-89880000D01*
X137470000Y-91480000D02*
X138270000Y-92280000D01*
X163720000Y-67240000D02*
X167020000Y-67240000D01*
X158722000Y-73140000D02*
X159420000Y-73838000D01*
X138680000Y-128645000D02*
X139225000Y-128645000D01*
X167323468Y-124646000D02*
X166036000Y-124646000D01*
X168140000Y-115040000D02*
X171690000Y-115040000D01*
X144150000Y-48640000D02*
X146075000Y-48640000D01*
X130645000Y-76205000D02*
X130420000Y-76430000D01*
X164664798Y-97889000D02*
X164899000Y-98123202D01*
X126290000Y-35090000D02*
X126290000Y-33145000D01*
X173660000Y-48640000D02*
X175955000Y-50935000D01*
X159450000Y-115040000D02*
X162380000Y-115040000D01*
X163111250Y-98288750D02*
X163450000Y-98627500D01*
X159165000Y-84560000D02*
X159470000Y-84865000D01*
X155551057Y-34261000D02*
X154330000Y-33039943D01*
X141585000Y-66335000D02*
X141600000Y-66320000D01*
X156080000Y-115040000D02*
X159450000Y-115040000D01*
X134750000Y-120920000D02*
X130890000Y-120920000D01*
X141745000Y-41140000D02*
X142750000Y-41140000D01*
X147750000Y-68860000D02*
X147800000Y-68810000D01*
X160150000Y-92700000D02*
X159610000Y-93240000D01*
X158605000Y-41140000D02*
X157680000Y-40215000D01*
X163511000Y-97889000D02*
X164164798Y-97889000D01*
X160730000Y-101850000D02*
X161540000Y-102660000D01*
X157600000Y-32175000D02*
X157600000Y-32709943D01*
X131160000Y-129220000D02*
X131160000Y-125915000D01*
X158140000Y-134585000D02*
X161810000Y-134585000D01*
X172385000Y-128985000D02*
X172620000Y-129220000D01*
X143693000Y-129390000D02*
X143895000Y-129390000D01*
X166036000Y-124646000D02*
X165430000Y-124040000D01*
X162762500Y-97940000D02*
X163450000Y-97940000D01*
X129095000Y-41140000D02*
X129095000Y-37895000D01*
X143895000Y-129390000D02*
X143895000Y-130435000D01*
X176325000Y-35225000D02*
X174350000Y-37200000D01*
X165430000Y-124040000D02*
X165430000Y-120650000D01*
X140747500Y-67172500D02*
X141585000Y-66335000D01*
X129810000Y-97155000D02*
X131490000Y-97155000D01*
X135320000Y-121490000D02*
X134750000Y-120920000D01*
X156320000Y-77585000D02*
X156210000Y-77695000D01*
X146982500Y-75822500D02*
X147580000Y-75225000D01*
X130200000Y-124850000D02*
X130825000Y-125475000D01*
X139595000Y-103785000D02*
X139330000Y-103520000D01*
X156675000Y-77585000D02*
X156320000Y-77585000D01*
X164235202Y-97889000D02*
X164664798Y-97889000D01*
X128420000Y-76244064D02*
X128791936Y-76616000D01*
X149120000Y-132815000D02*
X149120000Y-134745000D01*
X172370000Y-73990000D02*
X172370000Y-75890000D01*
X144060000Y-114410000D02*
X146885000Y-114410000D01*
X167020000Y-67240000D02*
X167020000Y-70540000D01*
X163530000Y-67240000D02*
X162350000Y-66060000D01*
X174230000Y-28850000D02*
X174100000Y-28980000D01*
X157070000Y-61890000D02*
X157050000Y-61870000D01*
X164950000Y-98205798D02*
X164950000Y-98627500D01*
X158855000Y-96270000D02*
X159720000Y-95405000D01*
X160337500Y-101850000D02*
X160730000Y-101850000D01*
X141235000Y-133400000D02*
X141820000Y-132815000D01*
X133485000Y-93230000D02*
X132402500Y-94312500D01*
X172075000Y-129220000D02*
X171500000Y-128645000D01*
X163720000Y-70540000D02*
X162420000Y-70540000D01*
X145660000Y-33930000D02*
X146385000Y-33205000D01*
X165370000Y-67240000D02*
X165370000Y-70540000D01*
X162780000Y-120750000D02*
X162780000Y-125070000D01*
X141000000Y-56390000D02*
X138670000Y-56390000D01*
X136230000Y-98590000D02*
X136230000Y-99277500D01*
X172370000Y-60520000D02*
X172650000Y-60240000D01*
X176000000Y-109313000D02*
X174470000Y-107783000D01*
X136230000Y-99277500D02*
X135817500Y-99690000D01*
X139970000Y-129390000D02*
X139800000Y-129220000D01*
X155180000Y-128307000D02*
X155180000Y-125550000D01*
X128306460Y-64907000D02*
X127500000Y-64907000D01*
X173813000Y-89183000D02*
X172890000Y-88260000D01*
X168460000Y-104730000D02*
X168427500Y-104697500D01*
X135470000Y-67880000D02*
X135470000Y-69290000D01*
X135542500Y-98590000D02*
X135542500Y-99187500D01*
X164200000Y-97853798D02*
X164200000Y-97190000D01*
X177200000Y-32175000D02*
X177200000Y-34350000D01*
X167932500Y-123682500D02*
X167932500Y-124036968D01*
X129068000Y-105577000D02*
X132470000Y-102175000D01*
X140390000Y-67172500D02*
X137090000Y-67172500D01*
X130234000Y-76616000D02*
X130420000Y-76430000D01*
X157680000Y-32255000D02*
X157600000Y-32175000D01*
X141160000Y-94230000D02*
X141160000Y-94780000D01*
X140390000Y-67172500D02*
X140747500Y-67172500D01*
X174470000Y-107783000D02*
X174470000Y-107610000D01*
X143659000Y-32018064D02*
X143960936Y-32320000D01*
X158370000Y-61890000D02*
X157070000Y-61890000D01*
X130200000Y-121610000D02*
X130200000Y-124850000D01*
X140380000Y-103785000D02*
X139595000Y-103785000D01*
X129740000Y-61160000D02*
X129740000Y-63255400D01*
X163200000Y-125490000D02*
X163445000Y-125490000D01*
X131490000Y-97155000D02*
X131685000Y-96960000D01*
X172370000Y-75890000D02*
X158370000Y-75890000D01*
X132402500Y-94312500D02*
X131685000Y-95030000D01*
X145740000Y-73922500D02*
X145740000Y-75822500D01*
X165100000Y-128645000D02*
X165100000Y-128300000D01*
X164899000Y-98123202D02*
X164899000Y-98154798D01*
X162780000Y-125070000D02*
X163200000Y-125490000D01*
X176953460Y-73140000D02*
X176455000Y-73140000D01*
X129719000Y-63494460D02*
X128306460Y-64907000D01*
X127500000Y-105577000D02*
X129068000Y-105577000D01*
X142235000Y-95855000D02*
X142235000Y-98055000D01*
X165100000Y-128300000D02*
X163445000Y-126645000D01*
X158775000Y-96350000D02*
X158855000Y-96270000D01*
X133485000Y-102665000D02*
X133840000Y-103020000D01*
X131740000Y-73072500D02*
X128432500Y-73072500D01*
X163720000Y-68890000D02*
X167020000Y-68890000D01*
X162960000Y-91340000D02*
X164335000Y-91340000D01*
X134780000Y-114410000D02*
X137910000Y-114410000D01*
X163310000Y-120220000D02*
X162780000Y-120750000D01*
X137310000Y-91480000D02*
X137470000Y-91480000D01*
X135530000Y-92430000D02*
X136480000Y-91480000D01*
X168427500Y-104697500D02*
X168427500Y-103690000D01*
X146495000Y-50985000D02*
X147020000Y-50985000D01*
X147750000Y-70185000D02*
X147750000Y-68860000D01*
X161810000Y-132655000D02*
X161810000Y-134585000D01*
X139225000Y-128645000D02*
X139800000Y-129220000D01*
X155990000Y-84560000D02*
X159165000Y-84560000D01*
X139330000Y-103520000D02*
X139310000Y-103500000D01*
X172620000Y-129220000D02*
X175577000Y-129220000D01*
X154510000Y-132655000D02*
X154510000Y-134585000D01*
X161540000Y-102660000D02*
X161900000Y-103020000D01*
X135542500Y-98590000D02*
X136230000Y-98590000D01*
X172650000Y-60240000D02*
X172660000Y-60230000D01*
X157050000Y-96350000D02*
X158775000Y-96350000D01*
X131735000Y-128645000D02*
X131160000Y-129220000D01*
X172385000Y-125380000D02*
X172385000Y-128985000D01*
X130890000Y-120920000D02*
X130200000Y-121610000D01*
X163450000Y-98627500D02*
X163450000Y-97940000D01*
X125514000Y-30856000D02*
X125514000Y-32369000D01*
X128432500Y-73072500D02*
X127605000Y-73900000D01*
X176000000Y-68643000D02*
X178033000Y-68643000D01*
X156363000Y-129490000D02*
X155180000Y-128307000D01*
X159420000Y-73838000D02*
X159420000Y-75890000D01*
X162330000Y-91230000D02*
X162700000Y-91600000D01*
X156048943Y-34261000D02*
X155551057Y-34261000D01*
X163720000Y-70540000D02*
X163720000Y-67240000D01*
X140390000Y-67172500D02*
X140390000Y-70472500D01*
X156565000Y-129490000D02*
X157720000Y-130645000D01*
X144150000Y-48640000D02*
X146495000Y-50985000D01*
X135320000Y-123682500D02*
X135320000Y-121490000D01*
X126315000Y-29880000D02*
X126315000Y-30055000D01*
X156210000Y-84340000D02*
X155980000Y-84570000D01*
X137679000Y-99226500D02*
X137679000Y-98539000D01*
X164164798Y-97889000D02*
X164200000Y-97853798D01*
X176515000Y-75280000D02*
X176455000Y-75220000D01*
X134610000Y-92430000D02*
X135485000Y-92430000D01*
X140225000Y-93295000D02*
X141160000Y-94230000D01*
X160047500Y-102140000D02*
X160337500Y-101850000D01*
X130825000Y-125475000D02*
X130825000Y-125580000D01*
X167110000Y-67240000D02*
X168240000Y-66110000D01*
X138270000Y-92280000D02*
X139210000Y-92280000D01*
X130402500Y-61822500D02*
X129740000Y-61160000D01*
X175695000Y-46605000D02*
X173660000Y-48640000D01*
X169840000Y-95600000D02*
X169840000Y-95315000D01*
X165900000Y-92050000D02*
X165075000Y-91225000D01*
X143935000Y-89880000D02*
X143160000Y-89105000D01*
X157720000Y-130645000D02*
X157720000Y-134165000D01*
X127605000Y-73900000D02*
X128420000Y-74715000D01*
X162600000Y-98800000D02*
X163511000Y-97889000D01*
X146225000Y-33205000D02*
X146385000Y-33205000D01*
X140585000Y-114410000D02*
X144060000Y-114410000D01*
X176515000Y-78725000D02*
X176450000Y-78790000D01*
X164525000Y-129220000D02*
X165100000Y-128645000D01*
X129095000Y-37895000D02*
X126290000Y-35090000D01*
X175955000Y-50935000D02*
X176530000Y-50935000D01*
X163445000Y-126645000D02*
X163445000Y-125490000D01*
X176530000Y-46605000D02*
X175695000Y-46605000D01*
X162762500Y-97940000D02*
X163111250Y-98288750D01*
X137090000Y-70472500D02*
X140390000Y-70472500D01*
X129740000Y-63255400D02*
X129719000Y-63276400D01*
X162600000Y-98800000D02*
X163111250Y-98288750D01*
X154330000Y-33039943D02*
X154330000Y-29980000D01*
X167020000Y-67240000D02*
X167110000Y-67240000D01*
X137090000Y-67172500D02*
X137032500Y-67172500D01*
X141235000Y-133405000D02*
X141820000Y-133990000D01*
X149120000Y-134745000D02*
X145280000Y-134745000D01*
X135470000Y-69290000D02*
X135470000Y-69330000D01*
X164200000Y-97853798D02*
X164235202Y-97889000D01*
X141160000Y-94780000D02*
X142235000Y-95855000D01*
X131740000Y-75822500D02*
X131027500Y-75822500D01*
X162420000Y-70540000D02*
X162310000Y-70650000D01*
X136480000Y-91480000D02*
X137310000Y-91480000D01*
X143960936Y-32320000D02*
X145340000Y-32320000D01*
X172620000Y-129220000D02*
X172075000Y-129220000D01*
X128420000Y-74715000D02*
X128420000Y-76244064D01*
X139875000Y-125640000D02*
X139875000Y-129145000D01*
X157720000Y-134165000D02*
X158140000Y-134585000D01*
X154510000Y-134585000D02*
X158140000Y-134585000D01*
X139800000Y-133400000D02*
X141235000Y-133400000D01*
X169675000Y-95765000D02*
X169840000Y-95600000D01*
X145280000Y-134745000D02*
X141820000Y-134745000D01*
X136960000Y-67100000D02*
X136250000Y-67100000D01*
X136250000Y-67100000D02*
X135470000Y-67880000D01*
X164335000Y-91340000D02*
X164450000Y-91225000D01*
X131685000Y-95030000D02*
X131685000Y-96960000D01*
X157600000Y-32709943D02*
X156048943Y-34261000D01*
X145740000Y-61130000D02*
X141000000Y-56390000D01*
X145740000Y-75822500D02*
X131740000Y-75822500D01*
X129740000Y-58820000D02*
X129740000Y-61160000D01*
X125514000Y-32369000D02*
X126290000Y-33145000D01*
X126315000Y-30055000D02*
X125514000Y-30856000D01*
X132470000Y-102175000D02*
X132995000Y-102175000D01*
X131027500Y-75822500D02*
X130645000Y-76205000D01*
X165390000Y-115040000D02*
X168140000Y-115040000D01*
X141235000Y-133400000D02*
X141235000Y-133405000D01*
X154330000Y-29980000D02*
X155460000Y-28850000D01*
X155980000Y-84570000D02*
X155990000Y-84560000D01*
X167932500Y-124036968D02*
X167323468Y-124646000D01*
X137730000Y-99277500D02*
X137679000Y-99226500D01*
X159720000Y-93350000D02*
X159610000Y-93240000D01*
X146075000Y-48640000D02*
X147010000Y-47705000D01*
X137090000Y-67172500D02*
X137090000Y-70472500D01*
X135485000Y-92430000D02*
X135530000Y-92430000D01*
X147580000Y-75225000D02*
X147930000Y-75225000D01*
X142750000Y-41140000D02*
X145660000Y-38230000D01*
X176455000Y-75220000D02*
X176455000Y-73140000D01*
X168240000Y-66110000D02*
X168230000Y-66120000D01*
X163980000Y-129220000D02*
X164525000Y-129220000D01*
X169840000Y-95315000D02*
X168500000Y-93975000D01*
X175577000Y-129220000D02*
X176000000Y-129643000D01*
X144275000Y-29880000D02*
X143659000Y-30496000D01*
X158370000Y-72290000D02*
X158370000Y-73140000D01*
X177200000Y-34350000D02*
X176325000Y-35225000D01*
X141820000Y-133990000D02*
X141820000Y-134745000D01*
X162600000Y-98920000D02*
X162600000Y-98800000D01*
X128791936Y-76616000D02*
X130234000Y-76616000D01*
X145740000Y-61822500D02*
X145740000Y-61130000D01*
X176515000Y-78640000D02*
X176515000Y-78725000D01*
X158370000Y-75890000D02*
X156675000Y-77585000D01*
X156565000Y-129490000D02*
X156363000Y-129490000D01*
X176515000Y-75280000D02*
X176515000Y-78640000D01*
X132280000Y-128645000D02*
X131735000Y-128645000D01*
X137090000Y-68822500D02*
X140390000Y-68822500D01*
X162700000Y-91600000D02*
X162960000Y-91340000D01*
X157680000Y-40215000D02*
X157680000Y-32255000D01*
X142480000Y-128177000D02*
X143693000Y-129390000D01*
X135542500Y-99187500D02*
X135040000Y-99690000D01*
X143895000Y-130435000D02*
X145280000Y-131820000D01*
X143659000Y-30496000D02*
X143659000Y-32018064D01*
X135817500Y-99690000D02*
X135040000Y-99690000D01*
X165430000Y-120650000D02*
X165000000Y-120220000D01*
X169675000Y-97450000D02*
X169675000Y-95765000D01*
X129719000Y-63276400D02*
X129719000Y-63494460D01*
X156210000Y-77695000D02*
X156210000Y-84340000D01*
X164899000Y-98154798D02*
X164950000Y-98205798D01*
X137679000Y-98539000D02*
X136980000Y-97840000D01*
X136230000Y-98590000D02*
X136980000Y-97840000D01*
X131740000Y-73072500D02*
X131740000Y-72222500D01*
X161600000Y-91230000D02*
X162330000Y-91230000D01*
X132995000Y-102175000D02*
X133485000Y-102665000D01*
X133840000Y-103020000D02*
X135050000Y-103020000D01*
X161900000Y-103020000D02*
X163142500Y-103020000D01*
X139210000Y-92280000D02*
X140225000Y-93295000D01*
X147800000Y-68810000D02*
X147830000Y-68780000D01*
X132170000Y-56390000D02*
X129740000Y-58820000D01*
X145660000Y-38230000D02*
X145660000Y-33930000D01*
X137032500Y-67172500D02*
X136960000Y-67100000D01*
X166250000Y-92050000D02*
X165900000Y-92050000D01*
X162795000Y-134585000D02*
X163980000Y-133400000D01*
X160875000Y-92700000D02*
X160150000Y-92700000D01*
X172370000Y-61890000D02*
X172370000Y-60520000D01*
X142480000Y-125610000D02*
X142480000Y-128177000D01*
X138740000Y-67172500D02*
X138740000Y-70472500D01*
X165000000Y-120220000D02*
X163310000Y-120220000D01*
X139875000Y-129145000D02*
X139800000Y-129220000D01*
X145280000Y-131820000D02*
X145280000Y-134745000D01*
X165075000Y-91225000D02*
X164450000Y-91225000D01*
X163142500Y-103020000D02*
X163252500Y-102910000D01*
X167020000Y-70540000D02*
X163720000Y-70540000D01*
X159720000Y-95405000D02*
X159720000Y-93350000D01*
X145340000Y-32320000D02*
X146225000Y-33205000D01*
X163450000Y-97940000D02*
X164200000Y-97190000D01*
X161810000Y-134585000D02*
X162795000Y-134585000D01*
X175410000Y-28850000D02*
X174230000Y-28850000D01*
X176000000Y-89183000D02*
X173813000Y-89183000D01*
X166250000Y-92050000D02*
X166520000Y-92050000D01*
%TO.N,VBUS*%
D45*
X165900000Y-128520000D02*
X165910000Y-128510000D01*
X131674000Y-121766000D02*
X131700000Y-121740000D01*
X164246000Y-126016000D02*
X165900000Y-127670000D01*
X133080000Y-128645000D02*
X133080000Y-127515484D01*
X165900000Y-127670000D02*
X165900000Y-128645000D01*
X138714250Y-95444250D02*
X137756000Y-96402500D01*
X139210000Y-93830000D02*
X139210000Y-94948500D01*
X139210000Y-94948500D02*
X138714250Y-95444250D01*
X171560000Y-126630000D02*
X170700000Y-127490000D01*
D46*
X164950000Y-95752500D02*
X164950000Y-94900000D01*
D45*
X131674000Y-126109484D02*
X131674000Y-121766000D01*
X170700000Y-127490000D02*
X170700000Y-128645000D01*
X166750000Y-95070000D02*
X166750000Y-94100000D01*
X166750000Y-94100000D02*
X166250000Y-93600000D01*
X165900000Y-128645000D02*
X165900000Y-128520000D01*
X139074000Y-126294520D02*
X139074000Y-121566000D01*
X139074000Y-121566000D02*
X139090000Y-121550000D01*
X164290000Y-122190000D02*
X164246000Y-122234000D01*
X171470000Y-122180000D02*
X171560000Y-122270000D01*
D46*
X164950000Y-94900000D02*
X166250000Y-93600000D01*
D45*
X164246000Y-122234000D02*
X164246000Y-126016000D01*
X171560000Y-122270000D02*
X171560000Y-126630000D01*
X137880000Y-128645000D02*
X137880000Y-127488520D01*
X133080000Y-127515484D02*
X131674000Y-126109484D01*
X137880000Y-127488520D02*
X139074000Y-126294520D01*
%TO.N,Net-(D1-DIN)*%
D46*
X147255000Y-128410000D02*
X146275000Y-129390000D01*
X147255000Y-125610000D02*
X147255000Y-128410000D01*
X146275000Y-129390000D02*
X145725000Y-129390000D01*
%TO.N,/Remote_Right_Hand/CHARGER_OUT*%
D45*
X138426500Y-98055000D02*
X138417500Y-98064000D01*
D46*
X138417500Y-97590000D02*
X138905000Y-97590000D01*
D45*
X140250000Y-100860000D02*
X140250000Y-98490000D01*
X143220000Y-131210000D02*
X141710000Y-129700000D01*
X140685000Y-98055000D02*
X139370000Y-98055000D01*
D46*
X138905000Y-97590000D02*
X139370000Y-98055000D01*
D45*
X143220000Y-132030000D02*
X143220000Y-131210000D01*
X139370000Y-98055000D02*
X138426500Y-98055000D01*
X140250000Y-98490000D02*
X140685000Y-98055000D01*
%TO.N,/Remote_Right_Hand/JST_BAT+*%
D46*
X134260000Y-98930000D02*
X134200000Y-98990000D01*
X134200000Y-98320000D02*
X134200000Y-98990000D01*
X135542500Y-97590000D02*
X134930000Y-97590000D01*
X134260000Y-98919202D02*
X134260000Y-98930000D01*
D45*
X131655000Y-100325000D02*
X131655000Y-98570000D01*
X129810000Y-98705000D02*
X131520000Y-98705000D01*
D46*
X134200000Y-98990000D02*
X134200000Y-99320000D01*
X135089202Y-98090000D02*
X134260000Y-98919202D01*
X131655000Y-99355000D02*
X131655000Y-98570000D01*
D45*
X131900000Y-100570000D02*
X131655000Y-100325000D01*
X132670000Y-100570000D02*
X131900000Y-100570000D01*
D46*
X134930000Y-97590000D02*
X134200000Y-98320000D01*
D45*
X131520000Y-98705000D02*
X131655000Y-98570000D01*
D46*
X132010000Y-99710000D02*
X131655000Y-99355000D01*
D45*
X132880000Y-100780000D02*
X132670000Y-100570000D01*
D46*
X134200000Y-99320000D02*
X133810000Y-99710000D01*
X135542500Y-98090000D02*
X135089202Y-98090000D01*
X133810000Y-99710000D02*
X132010000Y-99710000D01*
%TO.N,/Remote_Left_Hand/JOY_X*%
X169419000Y-70468943D02*
X170390057Y-71440000D01*
X174745000Y-45055000D02*
X173660000Y-46140000D01*
X176530000Y-45055000D02*
X174745000Y-45055000D01*
X169760000Y-69070000D02*
X169419000Y-69411000D01*
X169419000Y-69411000D02*
X169419000Y-70468943D01*
X170840000Y-48960000D02*
X168710000Y-48960000D01*
X170390057Y-71440000D02*
X172370000Y-71440000D01*
X173660000Y-46140000D02*
X170840000Y-48960000D01*
%TO.N,/Remote_Left_Hand/3.3V_REG*%
D45*
X168407500Y-101332500D02*
X171120000Y-98620000D01*
X154260000Y-88110000D02*
X155800000Y-89650000D01*
X165480000Y-102070000D02*
X165507500Y-102070000D01*
D46*
X158270000Y-29955000D02*
X158270000Y-28470000D01*
D45*
X155800000Y-89650000D02*
X155980000Y-89650000D01*
D46*
X157600000Y-30625000D02*
X158270000Y-29955000D01*
D45*
X174965000Y-75165000D02*
X174965000Y-75280000D01*
X171890000Y-86840000D02*
X171890000Y-87090000D01*
X176055000Y-71990000D02*
X174905000Y-73140000D01*
X178440000Y-28200000D02*
X178440000Y-29385000D01*
X178440000Y-29385000D02*
X177200000Y-30625000D01*
X178060000Y-52675000D02*
X176490000Y-54245000D01*
X168140000Y-127120000D02*
X168140000Y-127220000D01*
X168407500Y-101850000D02*
X168287500Y-101970000D01*
X177240000Y-27750000D02*
X177990000Y-27750000D01*
X172655000Y-108830000D02*
X173470000Y-109645000D01*
X173470000Y-119100000D02*
X170070000Y-122500000D01*
X155980000Y-89650000D02*
X154660000Y-90970000D01*
X168660000Y-43640000D02*
X162430000Y-37410000D01*
X154260000Y-74545000D02*
X154260000Y-88110000D01*
X158476000Y-31684468D02*
X158115532Y-31324000D01*
X173470000Y-109645000D02*
X173470000Y-119100000D01*
X176900000Y-43640000D02*
X178060000Y-44800000D01*
X170070000Y-124088888D02*
X169264888Y-124894000D01*
X176670000Y-71990000D02*
X176055000Y-71990000D01*
X172370000Y-73140000D02*
X173790000Y-73140000D01*
X157170000Y-100530000D02*
X163940000Y-100530000D01*
X165607500Y-101970000D02*
X165507500Y-102070000D01*
X157132500Y-127127500D02*
X158395000Y-128390000D01*
X178060000Y-44800000D02*
X178060000Y-52675000D01*
X167932500Y-125295001D02*
X167932500Y-125957500D01*
X169870000Y-101820000D02*
X168747500Y-101820000D01*
X156730000Y-125550000D02*
X156730000Y-126725000D01*
X173660000Y-43640000D02*
X168660000Y-43640000D01*
X172655000Y-104605000D02*
X169870000Y-101820000D01*
X178076000Y-31501000D02*
X178076000Y-39224000D01*
X177200000Y-30625000D02*
X178076000Y-31501000D01*
X168427500Y-101870000D02*
X168407500Y-101850000D01*
X177990000Y-27750000D02*
X178440000Y-28200000D01*
X168140000Y-126165000D02*
X168140000Y-127120000D01*
X171890000Y-87090000D02*
X171120000Y-87860000D01*
X160190000Y-37410000D02*
X158476000Y-35696000D01*
D46*
X158270000Y-28470000D02*
X157550000Y-27750000D01*
D45*
X173790000Y-73140000D02*
X173790000Y-73990000D01*
X168333501Y-124894000D02*
X167932500Y-125295001D01*
X154660000Y-90970000D02*
X154660000Y-98020000D01*
X163940000Y-100530000D02*
X165480000Y-102070000D01*
X167932500Y-125957500D02*
X168140000Y-126165000D01*
X168287500Y-101970000D02*
X165607500Y-101970000D01*
D46*
X165507500Y-101940000D02*
X163950000Y-100382500D01*
D45*
X173790000Y-73140000D02*
X174905000Y-73140000D01*
X170070000Y-122500000D02*
X170070000Y-124088888D01*
X178076000Y-39224000D02*
X173660000Y-43640000D01*
X158115532Y-31324000D02*
X157600000Y-31324000D01*
X172655000Y-108830000D02*
X172655000Y-104605000D01*
X156340000Y-72465000D02*
X154260000Y-74545000D01*
X154660000Y-98020000D02*
X157170000Y-100530000D01*
D46*
X157550000Y-27750000D02*
X157290000Y-27750000D01*
D45*
X158476000Y-35696000D02*
X158476000Y-31684468D01*
X157600000Y-31324000D02*
X157600000Y-30625000D01*
X173660000Y-43640000D02*
X176900000Y-43640000D01*
X171120000Y-98620000D02*
X171120000Y-87860000D01*
X162430000Y-37410000D02*
X160190000Y-37410000D01*
X169264888Y-124894000D02*
X168333501Y-124894000D01*
X176490000Y-58440000D02*
X176770000Y-58720000D01*
X156730000Y-126725000D02*
X157132500Y-127127500D01*
X168407500Y-101850000D02*
X168407500Y-101332500D01*
X173790000Y-73990000D02*
X174965000Y-75165000D01*
D46*
X163950000Y-100382500D02*
X163950000Y-98627500D01*
D45*
X176490000Y-54245000D02*
X176490000Y-58440000D01*
%TO.N,/Remote_Left_Hand/JOY_Y*%
D46*
X164930000Y-37410000D02*
X166056000Y-36284000D01*
X171980000Y-37200000D02*
X170710000Y-38470000D01*
X172800000Y-37200000D02*
X171980000Y-37200000D01*
X171884000Y-36284000D02*
X172800000Y-37200000D01*
X170390000Y-70590000D02*
X172370000Y-70590000D01*
X166056000Y-36284000D02*
X171884000Y-36284000D01*
X170020000Y-70220000D02*
X170390000Y-70590000D01*
%TO.N,/Remote_Left_Hand/JOY_SWITCH*%
X175845000Y-53240000D02*
X169530000Y-53240000D01*
X169530000Y-53240000D02*
X168180000Y-51890000D01*
X177500000Y-51585000D02*
X176490000Y-52595000D01*
X177500000Y-50355000D02*
X177500000Y-51585000D01*
X176490000Y-52595000D02*
X175845000Y-53240000D01*
X176530000Y-49385000D02*
X177500000Y-50355000D01*
X168180000Y-51890000D02*
X161680000Y-51890000D01*
%TO.N,/Remote_Left_Hand/VOL_POT*%
X158785000Y-87100000D02*
X159470000Y-86415000D01*
X160500000Y-86290000D02*
X159595000Y-86290000D01*
X159595000Y-86290000D02*
X159470000Y-86415000D01*
X155980000Y-87110000D02*
X155990000Y-87100000D01*
X155990000Y-87100000D02*
X158785000Y-87100000D01*
X172476000Y-66446000D02*
X175690000Y-66446000D01*
X172370000Y-66340000D02*
X172476000Y-66446000D01*
%TO.N,/Remote_Left_Hand/EN*%
X157940000Y-89860000D02*
X157830000Y-89970000D01*
X154819260Y-77535740D02*
X154819260Y-87550260D01*
X157350000Y-74840000D02*
X158370000Y-74840000D01*
X156849000Y-88769000D02*
X157940000Y-89860000D01*
X162380000Y-111240000D02*
X156080000Y-111240000D01*
X156320000Y-75870000D02*
X157350000Y-74840000D01*
X156320000Y-76035000D02*
X156320000Y-75870000D01*
X157830000Y-89970000D02*
X157830000Y-92710000D01*
X156340000Y-74115000D02*
X156625000Y-74115000D01*
X156625000Y-74115000D02*
X157350000Y-74840000D01*
X156320000Y-76035000D02*
X154819260Y-77535740D01*
X156038000Y-88769000D02*
X156849000Y-88769000D01*
X160260000Y-109420000D02*
X160560000Y-109420000D01*
X154819260Y-87550260D02*
X156038000Y-88769000D01*
X160560000Y-109420000D02*
X162380000Y-111240000D01*
%TO.N,/Remote_Left_Hand/BAT+_SWITCHED*%
X164520000Y-103330000D02*
X164520000Y-102700000D01*
X160830000Y-103970000D02*
X163232500Y-103970000D01*
X162250000Y-105060000D02*
X162250000Y-104952500D01*
X163890000Y-102070000D02*
X163232500Y-102070000D01*
X158910000Y-131590000D02*
X161510000Y-128990000D01*
X163880000Y-103970000D02*
X164520000Y-103330000D01*
X162250000Y-104952500D02*
X163232500Y-103970000D01*
X160027500Y-103670000D02*
X160027500Y-103400000D01*
X158910000Y-131870000D02*
X158910000Y-131590000D01*
X160027500Y-103400000D02*
X160260000Y-103400000D01*
X163302500Y-102040000D02*
X163760000Y-102040000D01*
X164520000Y-102700000D02*
X163890000Y-102070000D01*
X163232500Y-103970000D02*
X163880000Y-103970000D01*
X160260000Y-103400000D02*
X160830000Y-103970000D01*
%TO.N,/Remote_Left_Hand/CHARGER_OUT*%
X166650000Y-96940000D02*
X167150000Y-97440000D01*
X155910000Y-131870000D02*
X155910000Y-130700000D01*
X168115000Y-97440000D02*
X168125000Y-97450000D01*
X168125000Y-97585000D02*
X168125000Y-97450000D01*
X167150000Y-97440000D02*
X168115000Y-97440000D01*
X155910000Y-130700000D02*
X154490000Y-129280000D01*
X166770000Y-98940000D02*
X168125000Y-97585000D01*
X165637500Y-97440000D02*
X167150000Y-97440000D01*
X165637500Y-96940000D02*
X166650000Y-96940000D01*
%TO.N,/Remote_Left_Hand/JST_BAT+*%
X162010000Y-97440000D02*
X161560000Y-97890000D01*
X161560000Y-98540000D02*
X161020000Y-99080000D01*
X161920000Y-96940000D02*
X161560000Y-97300000D01*
X156745000Y-97595000D02*
X157050000Y-97900000D01*
X161560000Y-97300000D02*
X161560000Y-98000000D01*
X162762500Y-97440000D02*
X162010000Y-97440000D01*
X162762500Y-96940000D02*
X161920000Y-96940000D01*
X159060000Y-99080000D02*
X158825000Y-98845000D01*
X161560000Y-98000000D02*
X161560000Y-98540000D01*
X158825000Y-98845000D02*
X158825000Y-97980000D01*
X161020000Y-99080000D02*
X159060000Y-99080000D01*
X157050000Y-97900000D02*
X158745000Y-97900000D01*
X158745000Y-97900000D02*
X158825000Y-97980000D01*
X161560000Y-97890000D02*
X161560000Y-98000000D01*
X155805000Y-97595000D02*
X156745000Y-97595000D01*
%TO.N,Net-(U3-TS)*%
X133335000Y-96960000D02*
X135412500Y-96960000D01*
X135412500Y-96960000D02*
X135542500Y-97090000D01*
X133305000Y-96990000D02*
X133335000Y-96960000D01*
X135502500Y-97130000D02*
X135542500Y-97090000D01*
X133305000Y-98570000D02*
X133305000Y-96990000D01*
%TO.N,/Remote_Right_Hand/SCK*%
X137070707Y-72179293D02*
X137330000Y-71920000D01*
X137330000Y-71920000D02*
X137982900Y-71920000D01*
X142587000Y-70163000D02*
X142587000Y-65025900D01*
X140841000Y-71909000D02*
X142587000Y-70163000D01*
X137982900Y-71920000D02*
X137993900Y-71909000D01*
X137065245Y-72183342D02*
X137069294Y-72179293D01*
X137993900Y-71909000D02*
X140841000Y-71909000D01*
X144690000Y-62922900D02*
X144690000Y-61822500D01*
X137069294Y-72179293D02*
X137070707Y-72179293D01*
X142587000Y-65025900D02*
X144690000Y-62922900D01*
%TO.N,Net-(U3-ISET)*%
X133485000Y-94880000D02*
X134707500Y-94880000D01*
X134707500Y-94880000D02*
X136230000Y-96402500D01*
%TO.N,Net-(U3-ILIM)*%
X139780000Y-96430000D02*
X141160000Y-96430000D01*
X139120000Y-97090000D02*
X139780000Y-96430000D01*
X138417500Y-97090000D02*
X139120000Y-97090000D01*
%TO.N,Net-(U3-ITERM)*%
X135485000Y-94080000D02*
X135485000Y-94435000D01*
X135485000Y-94435000D02*
X136730000Y-95680000D01*
X136730000Y-95680000D02*
X136730000Y-96402500D01*
%TO.N,/Remote_Right_Hand/MOSI*%
X138160000Y-72310000D02*
X141007100Y-72310000D01*
X142988000Y-65192000D02*
X145330000Y-62850000D01*
X137950000Y-72520000D02*
X138160000Y-72310000D01*
X142988000Y-70329100D02*
X142988000Y-65192000D01*
X141007100Y-72310000D02*
X142988000Y-70329100D01*
X137799509Y-72520000D02*
X137950000Y-72520000D01*
%TO.N,/Remote_Right_Hand/RST*%
X136550000Y-74270000D02*
X134761000Y-72481000D01*
X143190000Y-62222500D02*
X142990000Y-62022500D01*
X134761000Y-72481000D02*
X134761000Y-67169000D01*
X140578700Y-65900000D02*
X143190000Y-63288700D01*
X143190000Y-63288700D02*
X143190000Y-62222500D01*
X137970000Y-73888473D02*
X137588473Y-74270000D01*
X137588473Y-74270000D02*
X136550000Y-74270000D01*
X137887549Y-73315144D02*
X137944688Y-73315144D01*
X137944688Y-73315144D02*
X137970000Y-73340456D01*
X136030000Y-65900000D02*
X140578700Y-65900000D01*
X142990000Y-62022500D02*
X142990000Y-61822500D01*
X134761000Y-67169000D02*
X136030000Y-65900000D01*
X137970000Y-73340456D02*
X137970000Y-73888473D01*
%TO.N,/Remote_Right_Hand/DIO1*%
X139400000Y-73757043D02*
X138085043Y-75072000D01*
X135532000Y-65098000D02*
X140124900Y-65098000D01*
X139400000Y-73590000D02*
X139400000Y-73757043D01*
X140124900Y-65098000D02*
X141290000Y-63932900D01*
X138085043Y-75072000D02*
X136214900Y-75072000D01*
X133750000Y-72607100D02*
X133750000Y-66880000D01*
X133750000Y-66880000D02*
X135532000Y-65098000D01*
X141290000Y-63932900D02*
X141290000Y-61822500D01*
X136214900Y-75072000D02*
X133750000Y-72607100D01*
%TO.N,/Remote_Right_Hand/RX_EN*%
X134040000Y-63020000D02*
X133640000Y-62620000D01*
X133640000Y-62620000D02*
X133640000Y-61822500D01*
X137120000Y-63020000D02*
X134040000Y-63020000D01*
X138020000Y-63920000D02*
X137120000Y-63020000D01*
%TO.N,/Remote_Right_Hand/BUSY*%
X134360000Y-72650000D02*
X134360000Y-66837100D01*
X137918943Y-74671000D02*
X136381000Y-74671000D01*
X142140000Y-63650000D02*
X142140000Y-61822500D01*
X140291000Y-65499000D02*
X142140000Y-63650000D01*
X134360000Y-66837100D02*
X135698100Y-65499000D01*
X136381000Y-74671000D02*
X134360000Y-72650000D01*
X138710000Y-72942682D02*
X138710000Y-73879943D01*
X135698100Y-65499000D02*
X140291000Y-65499000D01*
X138710000Y-73879943D02*
X137918943Y-74671000D01*
X138742682Y-72910000D02*
X138710000Y-72942682D01*
%TO.N,/Remote_Right_Hand/TX_EN*%
X134587500Y-65422500D02*
X131740000Y-65422500D01*
X136690000Y-64170000D02*
X135840000Y-64170000D01*
X135840000Y-64170000D02*
X134587500Y-65422500D01*
%TO.N,/Remote_Right_Hand/MISO*%
X143840000Y-63205800D02*
X143840000Y-61822500D01*
X140809400Y-71373500D02*
X142186000Y-69996900D01*
X142186000Y-64859800D02*
X143840000Y-63205800D01*
X136359000Y-72041057D02*
X137026557Y-71373500D01*
X136359000Y-73170643D02*
X136359000Y-72041057D01*
X136827792Y-73639435D02*
X136359000Y-73170643D01*
X137026557Y-71373500D02*
X140809400Y-71373500D01*
X142186000Y-69996900D02*
X142186000Y-64859800D01*
%TO.N,/Remote_Right_Hand/NSS*%
X143060000Y-70830000D02*
X143060000Y-70824200D01*
X143060000Y-70824200D02*
X143389000Y-70495200D01*
X145024600Y-63722500D02*
X145740000Y-63722500D01*
X143389000Y-65358100D02*
X145024600Y-63722500D01*
X143389000Y-70495200D02*
X143389000Y-65358100D01*
X140360000Y-73300000D02*
X140590000Y-73300000D01*
X140590000Y-73300000D02*
X143060000Y-70830000D01*
%TO.N,/Remote_Left_Hand/NSS*%
X173330000Y-63790000D02*
X172370000Y-63790000D01*
X173770000Y-63350000D02*
X173330000Y-63790000D01*
%TO.N,/Remote_Left_Hand/DIO1*%
X167920000Y-63570000D02*
X167920000Y-61890000D01*
X167760000Y-65200000D02*
X167760000Y-63730000D01*
X167200000Y-65760000D02*
X167760000Y-65200000D01*
X167760000Y-63730000D02*
X167920000Y-63570000D01*
%TO.N,/Remote_Left_Hand/SCK*%
X171370000Y-62700000D02*
X171370000Y-61940000D01*
X171370000Y-61940000D02*
X171320000Y-61890000D01*
%TO.N,/Remote_Left_Hand/TX_EN*%
X164250000Y-74390000D02*
X162210000Y-74390000D01*
X158570000Y-65490000D02*
X158370000Y-65490000D01*
X159720000Y-71900000D02*
X159720000Y-66640000D01*
X162210000Y-74390000D02*
X159720000Y-71900000D01*
X159720000Y-66640000D02*
X158570000Y-65490000D01*
%TO.N,/Remote_Left_Hand/MOSI*%
X171770000Y-63340000D02*
X172170000Y-62940000D01*
X170770000Y-63340000D02*
X171770000Y-63340000D01*
X172170000Y-62940000D02*
X172370000Y-62940000D01*
%TO.N,/Remote_Left_Hand/BUSY*%
X168530000Y-62130000D02*
X168770000Y-61890000D01*
X168530000Y-64380000D02*
X168530000Y-62130000D01*
%TO.N,/Remote_Left_Hand/RX_EN*%
X165325000Y-74145000D02*
X164851000Y-74145000D01*
X164216100Y-73789000D02*
X160270000Y-69842900D01*
X160270000Y-69842900D02*
X160270000Y-61890000D01*
X164498943Y-73789000D02*
X164216100Y-73789000D01*
X164851000Y-74141057D02*
X164498943Y-73789000D01*
X164851000Y-74145000D02*
X164851000Y-74141057D01*
%TO.N,/Remote_Right_Hand/D2-D3*%
X126315000Y-28780000D02*
X126966000Y-28129000D01*
X144435000Y-34205000D02*
X144435000Y-33255000D01*
X126966000Y-28129000D02*
X128796000Y-28129000D01*
X129370000Y-28703000D02*
X129370000Y-33770000D01*
X130980000Y-35380000D02*
X143260000Y-35380000D01*
X143260000Y-35380000D02*
X144435000Y-34205000D01*
X128796000Y-28129000D02*
X129370000Y-28703000D01*
X129370000Y-33770000D02*
X130980000Y-35380000D01*
%TO.N,Net-(D2-DIN)*%
X128190000Y-29925000D02*
X128145000Y-29880000D01*
X128190000Y-31545000D02*
X128190000Y-29925000D01*
%TO.N,Net-(D3-DIN)*%
X144435000Y-31605000D02*
X146105000Y-29935000D01*
X146105000Y-29935000D02*
X146105000Y-29880000D01*
%TO.N,/Remote_Left_Hand/MISO*%
X169925814Y-63510000D02*
X170021000Y-63414814D01*
X170470000Y-62090000D02*
X170470000Y-61890000D01*
X170021000Y-63414814D02*
X170021000Y-62539000D01*
X170021000Y-62539000D02*
X170470000Y-62090000D01*
%TO.N,/Remote_Left_Hand/RST*%
X169620000Y-62880000D02*
X169620000Y-61890000D01*
X169140000Y-63360000D02*
X169620000Y-62880000D01*
%TO.N,Net-(U7-TMR)*%
X164450000Y-95752500D02*
X164450000Y-92775000D01*
%TO.N,/Remote_Left_Hand/D1-D2*%
X155174000Y-33034000D02*
X155174000Y-31351000D01*
X156565000Y-128390000D02*
X155970000Y-127795000D01*
X155174000Y-31351000D02*
X155950000Y-30575000D01*
X156480000Y-128360000D02*
X156510000Y-128390000D01*
X155800000Y-33660000D02*
X155174000Y-33034000D01*
X155970000Y-127795000D02*
X155970000Y-123130000D01*
X156565000Y-128390000D02*
X156510000Y-128390000D01*
X155970000Y-123130000D02*
X155970000Y-122930000D01*
X155970000Y-122930000D02*
X155920000Y-122880000D01*
%TO.N,Net-(D4-DIN)*%
X160105000Y-128330000D02*
X158945000Y-129490000D01*
X160105000Y-125550000D02*
X160105000Y-128330000D01*
X158945000Y-129490000D02*
X158395000Y-129490000D01*
%TO.N,Net-(D5-DIN)*%
X156726000Y-29414000D02*
X157290000Y-28850000D01*
X155950000Y-32225000D02*
X156726000Y-31449000D01*
X156726000Y-31449000D02*
X156726000Y-29414000D01*
%TO.N,/Remote_Left_Hand/D2-D3*%
X155460000Y-27750000D02*
X156111000Y-27099000D01*
X173250000Y-35450000D02*
X174180000Y-34520000D01*
X156111000Y-27099000D02*
X157979000Y-27099000D01*
X159790000Y-35450000D02*
X173250000Y-35450000D01*
X158980000Y-30700000D02*
X158980000Y-34640000D01*
X174180000Y-34520000D02*
X174180000Y-31770000D01*
X158980000Y-34640000D02*
X159790000Y-35450000D01*
X158730000Y-30450000D02*
X158980000Y-30700000D01*
X158730000Y-27850000D02*
X158730000Y-30450000D01*
X157979000Y-27099000D02*
X158730000Y-27850000D01*
X174180000Y-31770000D02*
X175375000Y-30575000D01*
%TO.N,Net-(D6-DIN)*%
X176150000Y-29940000D02*
X177240000Y-28850000D01*
X175375000Y-32225000D02*
X176150000Y-31450000D01*
X176150000Y-31450000D02*
X176150000Y-29940000D01*
%TO.N,/Remote_Right_Hand/D+*%
X135230000Y-128645000D02*
X135230000Y-129472000D01*
X136230000Y-129472000D02*
X136230000Y-128645000D01*
X136181000Y-129521000D02*
X136230000Y-129472000D01*
X136230000Y-128645000D02*
X136230000Y-125997500D01*
X135279000Y-129521000D02*
X136181000Y-129521000D01*
X136230000Y-125997500D02*
X136270000Y-125957500D01*
X135230000Y-129472000D02*
X135279000Y-129521000D01*
%TO.N,/Remote_Right_Hand/D-*%
X135730000Y-128645000D02*
X135730000Y-127979998D01*
X134370000Y-125957500D02*
X134370000Y-126619999D01*
X134730000Y-126979999D02*
X134730000Y-128645000D01*
X134730001Y-126979999D02*
X134730000Y-126979999D01*
X134370000Y-126619999D02*
X134730000Y-126979999D01*
X135730000Y-127979998D02*
X134730001Y-126979999D01*
%TO.N,/Remote_Left_Hand/D-*%
X168388943Y-127721000D02*
X167538100Y-127721000D01*
X167501000Y-128596000D02*
X167501000Y-127769000D01*
X168550000Y-127882057D02*
X168388943Y-127721000D01*
X167150000Y-126890000D02*
X166982500Y-126722500D01*
X168550000Y-128645000D02*
X168550000Y-127882057D01*
X167451000Y-127633900D02*
X167150000Y-127332900D01*
X166982500Y-126722500D02*
X166982500Y-125957500D01*
X167538100Y-127721000D02*
X167451000Y-127633900D01*
X167550000Y-128645000D02*
X167501000Y-128596000D01*
X167501000Y-127769000D02*
X167451000Y-127769000D01*
X167451000Y-127769000D02*
X167451000Y-127633900D01*
X167150000Y-127332900D02*
X167150000Y-126890000D01*
%TO.N,Net-(J1-CC1)*%
X134230000Y-127335000D02*
X134230000Y-128645000D01*
X132475000Y-125580000D02*
X134230000Y-127335000D01*
%TO.N,Net-(J1-CC2)*%
X138225000Y-126435000D02*
X137230000Y-127430000D01*
X138225000Y-125640000D02*
X138225000Y-126435000D01*
X137230000Y-127430000D02*
X137230000Y-128645000D01*
%TO.N,Net-(J3-CC1)*%
X167050000Y-127800000D02*
X165095000Y-125845000D01*
X167050000Y-128645000D02*
X167050000Y-127800000D01*
X165095000Y-125845000D02*
X165095000Y-125490000D01*
%TO.N,Net-(J3-CC2)*%
X170735000Y-126385000D02*
X170735000Y-125380000D01*
X170050000Y-128645000D02*
X170050000Y-127070000D01*
X170050000Y-127070000D02*
X170735000Y-126385000D01*
%TO.N,Net-(U7-ITERM)*%
X163950000Y-95752500D02*
X163950000Y-94500000D01*
X163950000Y-94500000D02*
X162700000Y-93250000D01*
%TO.N,Net-(U7-ILIM)*%
X167685000Y-96440000D02*
X168500000Y-95625000D01*
X165637500Y-96440000D02*
X167685000Y-96440000D01*
%TO.N,Net-(U7-ISET)*%
X162047500Y-94350000D02*
X163450000Y-95752500D01*
X160875000Y-94350000D02*
X162047500Y-94350000D01*
%TO.N,Net-(U7-TS)*%
X160475000Y-96300000D02*
X160505000Y-96270000D01*
X160505000Y-96270000D02*
X162592500Y-96270000D01*
X160475000Y-97980000D02*
X160475000Y-96300000D01*
X162592500Y-96270000D02*
X162762500Y-96440000D01*
%TO.N,/Remote_Left_Hand/D+*%
X168099000Y-129521000D02*
X169001000Y-129521000D01*
X168050000Y-128645000D02*
X168050000Y-129472000D01*
X169050000Y-128645000D02*
X169050000Y-126125000D01*
X168050000Y-129472000D02*
X168099000Y-129521000D01*
X169050000Y-129472000D02*
X169050000Y-128645000D01*
X169050000Y-126125000D02*
X168882500Y-125957500D01*
X169001000Y-129521000D02*
X169050000Y-129472000D01*
%TO.N,/Remote_Right_Hand/NEOPIXEL*%
X145740000Y-65422500D02*
X145940000Y-65422500D01*
X146955000Y-124260000D02*
X145605000Y-125610000D01*
X148400000Y-124260000D02*
X146955000Y-124260000D01*
X147201000Y-64161500D02*
X147201000Y-59581000D01*
X147201000Y-59581000D02*
X146230000Y-58610000D01*
X145940000Y-65422500D02*
X147201000Y-64161500D01*
%TO.N,/Remote_Right_Hand/BOOT*%
X144185000Y-106660000D02*
X144190000Y-106660000D01*
X145077500Y-72222500D02*
X145740000Y-72222500D01*
X140585000Y-109415000D02*
X140585000Y-110610000D01*
X146885000Y-109355000D02*
X146885000Y-110610000D01*
X144080000Y-106660000D02*
X142720000Y-105300000D01*
X144720000Y-72580000D02*
X145077500Y-72222500D01*
X144190000Y-106660000D02*
X146885000Y-109355000D01*
X147010000Y-110610000D02*
X147190000Y-110430000D01*
X144185000Y-106660000D02*
X144080000Y-106660000D01*
X143340000Y-106660000D02*
X140585000Y-109415000D01*
X144185000Y-106660000D02*
X143340000Y-106660000D01*
X146885000Y-110610000D02*
X147010000Y-110610000D01*
%TO.N,/Remote_Left_Hand/NEOPIXEL*%
X158455000Y-125550000D02*
X158455000Y-122685000D01*
X158455000Y-122685000D02*
X158455000Y-122205000D01*
X173525000Y-65845000D02*
X173170000Y-65490000D01*
X158455000Y-122205000D02*
X157520000Y-121270000D01*
X173170000Y-65490000D02*
X172370000Y-65490000D01*
%TO.N,/Remote_Left_Hand/BOOT*%
D45*
X171005000Y-110555000D02*
X171690000Y-111240000D01*
D46*
X164895000Y-109785000D02*
X164895000Y-110745000D01*
X172370000Y-72290000D02*
X165810000Y-72290000D01*
D45*
X171005000Y-108830000D02*
X167800000Y-108830000D01*
D46*
X164895000Y-110745000D02*
X165390000Y-111240000D01*
D45*
X167800000Y-108830000D02*
X165390000Y-111240000D01*
D46*
X165810000Y-72290000D02*
X165580000Y-72520000D01*
D45*
X171005000Y-108830000D02*
X171005000Y-110555000D01*
%TO.N,/Remote_Right_Hand/BTN_1*%
D46*
X129970000Y-68780000D02*
X129800000Y-68610000D01*
X145740000Y-64572500D02*
X145940000Y-64572500D01*
X145940000Y-64572500D02*
X146800000Y-63712500D01*
X146800000Y-60970000D02*
X146800000Y-60620000D01*
X129800000Y-68610000D02*
X127500000Y-68610000D01*
X146800000Y-63712500D02*
X146800000Y-60970000D01*
X146800000Y-60620000D02*
X144395000Y-58215000D01*
X144395000Y-58215000D02*
X144380000Y-58200000D01*
%TO.N,/Remote_Right_Hand/BTN_2*%
X144777500Y-68460000D02*
X145140000Y-68822500D01*
X145140000Y-68822500D02*
X145740000Y-68822500D01*
X144650633Y-68460000D02*
X144777500Y-68460000D01*
X144540000Y-68570633D02*
X144650633Y-68460000D01*
X128420000Y-88230000D02*
X127500000Y-89150000D01*
X128420000Y-88000000D02*
X128420000Y-88230000D01*
%TO.N,/Remote_Right_Hand/BTN_3*%
X144640000Y-67300000D02*
X145312500Y-67972500D01*
X145312500Y-67972500D02*
X145740000Y-67972500D01*
X145740000Y-67972500D02*
X145940000Y-67972500D01*
X132520000Y-109280000D02*
X135120000Y-106680000D01*
X127500000Y-109280000D02*
X132520000Y-109280000D01*
%TO.N,/Remote_Right_Hand/BTN_4*%
X144888943Y-66699000D02*
X145069943Y-66880000D01*
X145115000Y-66880000D02*
X145357500Y-67122500D01*
X145357500Y-67122500D02*
X145740000Y-67122500D01*
X145069943Y-66880000D02*
X145115000Y-66880000D01*
X143989000Y-66780000D02*
X144343265Y-66425735D01*
X144343265Y-66425735D02*
X144585735Y-66425735D01*
X144859000Y-66699000D02*
X144888943Y-66699000D01*
X144585735Y-66425735D02*
X144859000Y-66699000D01*
%TO.N,/Remote_Right_Hand/BTN_5*%
X137394000Y-56334000D02*
X135760000Y-54700000D01*
X138726000Y-57666000D02*
X138141463Y-57666000D01*
X140440000Y-59380000D02*
X138726000Y-57666000D01*
X140440000Y-61822500D02*
X140440000Y-59380000D01*
X135760000Y-54700000D02*
X130010000Y-54700000D01*
X138141463Y-57666000D02*
X137394000Y-56918537D01*
X137394000Y-56918537D02*
X137394000Y-56334000D01*
%TO.N,/Remote_Right_Hand/BTN_6*%
X139590000Y-60378530D02*
X139590000Y-61822500D01*
X139285735Y-60074265D02*
X139590000Y-60378530D01*
%TO.N,/Remote_Right_Hand/BTN_7*%
X137040000Y-61622500D02*
X134577500Y-59160000D01*
X134577500Y-59160000D02*
X133790000Y-59160000D01*
X133680000Y-59050000D02*
X132610000Y-59050000D01*
X137040000Y-61822500D02*
X137040000Y-61622500D01*
X133790000Y-59160000D02*
X133680000Y-59050000D01*
%TO.N,/Remote_Right_Hand/BTN_8*%
X134490000Y-61822500D02*
X134490000Y-61622500D01*
X133267500Y-60400000D02*
X132790000Y-60400000D01*
X134490000Y-61622500D02*
X133267500Y-60400000D01*
%TO.N,/Remote_Left_Hand/BTN_1*%
X175700000Y-64640000D02*
X176000000Y-64940000D01*
X172370000Y-64640000D02*
X175700000Y-64640000D01*
%TO.N,/Remote_Left_Hand/BTN_2*%
X176000000Y-85480000D02*
X173660000Y-85480000D01*
X171280000Y-68890000D02*
X170790000Y-68400000D01*
X173660000Y-85480000D02*
X172750000Y-84570000D01*
X172370000Y-68890000D02*
X171280000Y-68890000D01*
X172750000Y-84570000D02*
X172710000Y-84530000D01*
%TO.N,/Remote_Left_Hand/BTN_3*%
X173930000Y-106780000D02*
X174830000Y-106780000D01*
X174830000Y-106780000D02*
X176000000Y-105610000D01*
%TO.N,/Remote_Left_Hand/BTN_4*%
X174150000Y-119980000D02*
X174150000Y-116840000D01*
X173290000Y-120840000D02*
X174150000Y-119980000D01*
X168880000Y-67830000D02*
X168880000Y-67850000D01*
X174150000Y-116840000D02*
X174150000Y-114000000D01*
X173290000Y-125095936D02*
X173290000Y-120840000D01*
X176000000Y-125940000D02*
X174134064Y-125940000D01*
X174150000Y-114000000D02*
X174580000Y-113570000D01*
X174134064Y-125940000D02*
X173290000Y-125095936D01*
%TO.N,/Remote_Left_Hand/BTN_5*%
X170710000Y-58810000D02*
X173790000Y-58810000D01*
X173790000Y-58810000D02*
X173890000Y-58810000D01*
X168690000Y-60370000D02*
X168390000Y-60370000D01*
X169480000Y-60040000D02*
X170710000Y-58810000D01*
X167070000Y-61690000D02*
X167070000Y-61890000D01*
X169020000Y-60040000D02*
X168690000Y-60370000D01*
X169020000Y-60040000D02*
X169480000Y-60040000D01*
X168390000Y-60370000D02*
X167070000Y-61690000D01*
%TO.N,/Remote_Left_Hand/BTN_6*%
X168215000Y-59365000D02*
X168230000Y-59350000D01*
X166220000Y-61360000D02*
X168215000Y-59365000D01*
X166220000Y-61890000D02*
X166220000Y-61360000D01*
%TO.N,/Remote_Left_Hand/BTN_7*%
X163670000Y-63770000D02*
X162290000Y-65150000D01*
X163670000Y-61890000D02*
X163670000Y-63770000D01*
%TO.N,/Remote_Left_Hand/BTN_8*%
X162100000Y-63650000D02*
X162100000Y-64130000D01*
X161120000Y-62670000D02*
X162100000Y-63650000D01*
X161120000Y-61890000D02*
X161120000Y-62670000D01*
%TO.N,/Remote_Right_Hand/D+_ESP*%
X136580000Y-58540000D02*
X136580000Y-60070000D01*
X136590000Y-58530000D02*
X136580000Y-58540000D01*
X136275000Y-122265000D02*
X136275000Y-123677500D01*
X136275000Y-123677500D02*
X136270000Y-123682500D01*
X137890000Y-61380000D02*
X137890000Y-61822500D01*
X136580000Y-60070000D02*
X137890000Y-61380000D01*
%TO.N,/Remote_Right_Hand/D-_ESP*%
X137590000Y-58530000D02*
X137590000Y-58780000D01*
X134350000Y-122970000D02*
X134317500Y-123002500D01*
X134317500Y-123630000D02*
X134370000Y-123682500D01*
X134317500Y-123002500D02*
X134317500Y-123630000D01*
X137590000Y-58530000D02*
X137590000Y-60150000D01*
X137590000Y-60150000D02*
X138740000Y-61300000D01*
X134350000Y-122250000D02*
X134350000Y-122970000D01*
X138740000Y-61300000D02*
X138740000Y-61822500D01*
%TO.N,/Remote_Left_Hand/D+_ESP*%
X164510000Y-61880000D02*
X164520000Y-61890000D01*
X168882500Y-123682500D02*
X168882500Y-121097500D01*
X168882500Y-121097500D02*
X168890000Y-121090000D01*
X164510000Y-60500000D02*
X164510000Y-61880000D01*
X164680000Y-60330000D02*
X164510000Y-60500000D01*
%TO.N,/Remote_Left_Hand/D-_ESP*%
X166982500Y-121072500D02*
X166960000Y-121050000D01*
X166982500Y-123682500D02*
X166982500Y-121072500D01*
X165540000Y-60410000D02*
X165540000Y-61720000D01*
X165540000Y-61720000D02*
X165370000Y-61890000D01*
%TD*%
M02*
