M48
; DRILL file KiCad 10.0.4 date 2026-07-23T14:31:12
; FORMAT={-:-/ absolute / metric / decimal}
; #@! TF.CreationDate,2026-07-23T14:31:12-04:00
; #@! TF.GenerationSoftware,Kicad,Pcbnew,10.0.4
; #@! TF.FileFunction,Plated,1,4,PTH
FMAT,2
METRIC
; #@! TA.AperFunction,Plated,PTH,ViaDrill
T1C0.300
; #@! TA.AperFunction,Plated,PTH,ComponentDrill
T2C0.600
; #@! TA.AperFunction,Plated,PTH,ComponentDrill
T3C0.760
; #@! TA.AperFunction,Plated,PTH,ComponentDrill
T4C1.100
; #@! TA.AperFunction,Plated,PTH,ComponentDrill
T5C1.300
; #@! TA.AperFunction,Plated,PTH,ComponentDrill
T6C1.600
; #@! TA.AperFunction,Plated,PTH,ComponentDrill
T7C1.650
%
G90
G05
T1
X128.42Y-88.0
X129.32Y-35.23
X129.732Y-74.802
X129.97Y-68.78
X130.01Y-54.7
X130.42Y-76.43
X131.7Y-121.74
X131.78Y-84.76
X132.403Y-94.312
X132.61Y-59.05
X132.79Y-60.4
X132.84Y-84.82
X132.88Y-100.78
X133.485Y-102.665
X134.35Y-122.25
X134.78Y-114.41
X135.04Y-99.69
X135.12Y-106.68
X135.47Y-69.29
X135.63Y-127.031
X136.18Y-106.43
X136.275Y-122.265
X136.59Y-58.53
X136.69Y-64.17
X136.828Y-73.639
X137.065Y-72.183
X137.59Y-58.53
X137.8Y-72.52
X137.888Y-73.315
X138.02Y-63.92
X138.09Y-106.73
X138.714Y-95.444
X138.743Y-72.91
X138.925Y-105.255
X139.09Y-121.55
X139.286Y-60.074
X139.33Y-103.52
X139.4Y-73.59
X140.225Y-93.295
X140.25Y-100.86
X140.36Y-73.3
X141.585Y-66.335
X141.71Y-129.7
X142.72Y-105.3
X142.93Y-36.84
X143.989Y-66.78
X144.06Y-114.41
X144.395Y-58.215
X144.4Y-65.77
X144.54Y-68.571
X144.64Y-67.3
X144.67Y-69.36
X144.72Y-72.58
X144.77Y-128.77
X144.98Y-70.36
X145.42Y-127.04
X145.614Y-53.125
X146.23Y-58.61
X146.67Y-57.17
X147.28Y-130.12
X147.8Y-68.81
X148.4Y-124.26
X154.49Y-129.28
X155.8Y-33.66
X155.805Y-97.595
X155.97Y-123.13
X157.05Y-61.87
X157.132Y-127.127
X157.52Y-121.27
X157.83Y-92.71
X159.45Y-115.04
X159.61Y-93.24
X160.26Y-109.42
X160.5Y-86.29
X161.51Y-128.99
X161.54Y-102.66
X161.6Y-91.23
X162.1Y-64.13
X162.25Y-105.06
X162.29Y-65.15
X162.31Y-70.65
X162.35Y-66.06
X162.6Y-98.92
X164.25Y-74.39
X164.29Y-122.19
X164.68Y-60.33
X164.895Y-109.785
X165.325Y-74.145
X165.54Y-60.41
X165.58Y-72.52
X166.75Y-95.07
X166.77Y-98.94
X166.982Y-121.072
X167.2Y-65.76
X168.14Y-115.04
X168.14Y-127.12
X168.215Y-59.365
X168.23Y-66.12
X168.46Y-104.73
X168.53Y-64.38
X168.71Y-48.96
X168.88Y-67.83
X168.89Y-121.09
X169.14Y-63.36
X169.76Y-69.07
X169.81Y-68.12
X169.84Y-95.6
X169.926Y-63.51
X170.02Y-70.22
X170.71Y-38.47
X170.77Y-63.34
X170.79Y-68.4
X171.37Y-62.7
X171.47Y-122.18
X171.89Y-86.84
X172.65Y-60.24
X172.75Y-84.57
X172.89Y-88.26
X173.525Y-65.845
X173.77Y-63.35
X173.79Y-58.81
X173.93Y-106.78
X174.1Y-28.98
X174.47Y-107.61
X174.58Y-113.57
X174.974Y-78.144
X175.69Y-66.446
X176.325Y-35.225
X176.33Y-98.71
X176.515Y-78.64
X176.67Y-71.99
X176.77Y-58.72
X177.31Y-119.44
X178.27Y-79.66
X179.0Y-60.0
X179.0Y-68.5
X179.2Y-65.061
T3
X147.48Y-84.8
X147.48Y-87.34
X147.48Y-89.88
X155.98Y-84.57
X155.98Y-87.11
X155.98Y-89.65
T4
X132.92Y-37.41
X135.42Y-37.41
X137.92Y-37.41
X144.15Y-43.64
X144.15Y-46.14
X144.15Y-48.64
X162.43Y-37.41
X164.93Y-37.41
X167.43Y-37.41
X173.66Y-43.64
X173.66Y-46.14
X173.66Y-48.64
T5
X132.17Y-51.89
X132.17Y-56.39
X138.67Y-51.89
X138.67Y-56.39
X161.68Y-51.89
X161.68Y-56.39
X168.18Y-51.89
X168.18Y-56.39
T6
X129.095Y-41.14
X129.095Y-51.14
X141.745Y-41.14
X141.745Y-51.14
X158.605Y-41.14
X158.605Y-51.14
X171.255Y-41.14
X171.255Y-51.14
T7
X131.12Y-46.14
X139.72Y-46.14
X160.63Y-46.14
X169.23Y-46.14
T2
G00X131.16Y-128.67
M15
G01X131.16Y-129.77
M16
G05
G00X131.16Y-133.0
M15
G01X131.16Y-133.8
M16
G05
G00X139.8Y-128.67
M15
G01X139.8Y-129.77
M16
G05
G00X139.8Y-133.0
M15
G01X139.8Y-133.8
M16
G05
G00X163.98Y-128.67
M15
G01X163.98Y-129.77
M16
G05
G00X163.98Y-133.0
M15
G01X163.98Y-133.8
M16
G05
G00X172.62Y-128.67
M15
G01X172.62Y-129.77
M16
G05
G00X172.62Y-133.0
M15
G01X172.62Y-133.8
M16
G05
M30
