%TF.GenerationSoftware,KiCad,Pcbnew,(6.0.0-0)*%
%TF.CreationDate,2022-12-05T13:27:29-05:00*%
%TF.ProjectId,Body_Servos,426f6479-5f53-4657-9276-6f732e6b6963,rev?*%
%TF.SameCoordinates,Original*%
%TF.FileFunction,Copper,L2,Inr*%
%TF.FilePolarity,Positive*%
%FSLAX46Y46*%
G04 Gerber Fmt 4.6, Leading zero omitted, Abs format (unit mm)*
G04 Created by KiCad (PCBNEW (6.0.0-0)) date 2022-12-05 13:27:29*
%MOMM*%
%LPD*%
G01*
G04 APERTURE LIST*
G04 Aperture macros list*
%AMRoundRect*
0 Rectangle with rounded corners*
0 $1 Rounding radius*
0 $2 $3 $4 $5 $6 $7 $8 $9 X,Y pos of 4 corners*
0 Add a 4 corners polygon primitive as box body*
4,1,4,$2,$3,$4,$5,$6,$7,$8,$9,$2,$3,0*
0 Add four circle primitives for the rounded corners*
1,1,$1+$1,$2,$3*
1,1,$1+$1,$4,$5*
1,1,$1+$1,$6,$7*
1,1,$1+$1,$8,$9*
0 Add four rect primitives between the rounded corners*
20,1,$1+$1,$2,$3,$4,$5,0*
20,1,$1+$1,$4,$5,$6,$7,0*
20,1,$1+$1,$6,$7,$8,$9,0*
20,1,$1+$1,$8,$9,$2,$3,0*%
G04 Aperture macros list end*
%TA.AperFunction,ComponentPad*%
%ADD10R,2.400000X2.400000*%
%TD*%
%TA.AperFunction,ComponentPad*%
%ADD11C,2.400000*%
%TD*%
%TA.AperFunction,ComponentPad*%
%ADD12RoundRect,0.250000X0.845000X-0.620000X0.845000X0.620000X-0.845000X0.620000X-0.845000X-0.620000X0*%
%TD*%
%TA.AperFunction,ComponentPad*%
%ADD13O,2.190000X1.740000*%
%TD*%
%TA.AperFunction,ComponentPad*%
%ADD14O,0.890000X1.550000*%
%TD*%
%TA.AperFunction,ComponentPad*%
%ADD15O,1.250000X0.950000*%
%TD*%
%TA.AperFunction,ComponentPad*%
%ADD16C,1.524000*%
%TD*%
%TA.AperFunction,ComponentPad*%
%ADD17C,2.600000*%
%TD*%
%TA.AperFunction,ComponentPad*%
%ADD18C,2.300000*%
%TD*%
%TA.AperFunction,ViaPad*%
%ADD19C,0.800000*%
%TD*%
%TA.AperFunction,Conductor*%
%ADD20C,0.250000*%
%TD*%
%TA.AperFunction,Conductor*%
%ADD21C,0.200000*%
%TD*%
%TA.AperFunction,Conductor*%
%ADD22C,0.254000*%
%TD*%
G04 APERTURE END LIST*
D10*
%TO.N,GND*%
%TO.C,J5*%
X66273333Y-93390000D03*
D11*
%TO.N,+12V*%
X66273333Y-96890000D03*
%TD*%
D12*
%TO.N,GND*%
%TO.C,J3*%
X108404000Y-93766000D03*
D13*
%TO.N,+5V*%
X108404000Y-91226000D03*
%TO.N,AUX1-1*%
X108404000Y-88686000D03*
%TO.N,AUX1-2*%
X108404000Y-86146000D03*
%TD*%
D14*
%TO.N,unconnected-(J1-Pad6)*%
%TO.C,J1*%
X77020000Y-134060000D03*
X84020000Y-134060000D03*
D15*
X78020000Y-131360000D03*
X83020000Y-131360000D03*
%TD*%
D10*
%TO.N,GND*%
%TO.C,J8*%
X86298000Y-94410000D03*
D11*
%TO.N,+5V*%
X82798000Y-94410000D03*
%TD*%
D12*
%TO.N,GND*%
%TO.C,J2*%
X126208000Y-93766000D03*
D13*
%TO.N,+5V*%
X126208000Y-91226000D03*
%TO.N,AUX3-1*%
X126208000Y-88686000D03*
%TO.N,AUX3-2*%
X126208000Y-86146000D03*
%TD*%
D16*
%TO.N,GND*%
%TO.C,U7*%
X69247000Y-116800000D03*
%TO.N,unconnected-(U7-Pad2)*%
X69247000Y-119340000D03*
%TO.N,SCL*%
X69247000Y-121880000D03*
%TO.N,SDA*%
X69247000Y-124420000D03*
%TO.N,+3.3V*%
X69247000Y-126960000D03*
%TO.N,+5V*%
X69247000Y-129500000D03*
%TO.N,GND*%
X127413000Y-116800000D03*
%TO.N,unconnected-(U7-Pad8)*%
X127413000Y-119340000D03*
%TO.N,SCL*%
X127413000Y-121880000D03*
%TO.N,SDA*%
X127413000Y-124420000D03*
%TO.N,+3.3V*%
X127413000Y-126960000D03*
%TO.N,+5V*%
X127413000Y-129500000D03*
D17*
%TO.N,N/C*%
X70517000Y-113625000D03*
X126143000Y-113625000D03*
X126143000Y-132675000D03*
X70517000Y-132675000D03*
%TD*%
D16*
%TO.N,+5V*%
%TO.C,U6*%
X92765000Y-102235000D03*
%TO.N,GND*%
X90225000Y-102235000D03*
X87685000Y-102235000D03*
%TO.N,+12V*%
X85145000Y-102235000D03*
%TO.N,unconnected-(U6-Pad5)*%
X82605000Y-102235000D03*
%TO.N,unconnected-(U6-Pad6)*%
X80065000Y-102235000D03*
%TO.N,unconnected-(U6-Pad7)*%
X80065000Y-104775000D03*
%TO.N,unconnected-(U6-Pad8)*%
X82605000Y-104775000D03*
%TO.N,+12V*%
X85145000Y-104775000D03*
%TO.N,GND*%
X87685000Y-104775000D03*
X90225000Y-104775000D03*
%TO.N,+5V*%
X92765000Y-104775000D03*
D18*
%TO.N,N/C*%
X97015000Y-103165000D03*
X75815000Y-103165000D03*
X75815000Y-124165000D03*
%TD*%
D10*
%TO.N,GND*%
%TO.C,J6*%
X66273333Y-102650000D03*
D11*
%TO.N,+12V*%
X66273333Y-106150000D03*
%TD*%
D12*
%TO.N,GND*%
%TO.C,J4*%
X117554000Y-93766000D03*
D13*
%TO.N,+5V*%
X117554000Y-91226000D03*
%TO.N,AUX2-1*%
X117554000Y-88686000D03*
%TO.N,AUX2-2*%
X117554000Y-86146000D03*
%TD*%
D12*
%TO.N,GND*%
%TO.C,J12*%
X100028000Y-93766000D03*
D13*
%TO.N,RX_FU*%
X100028000Y-91226000D03*
%TO.N,TX_FU*%
X100028000Y-88686000D03*
%TD*%
D10*
%TO.N,GND*%
%TO.C,J7*%
X76834666Y-94410000D03*
D11*
%TO.N,+5V*%
X73334666Y-94410000D03*
%TD*%
D19*
%TO.N,RX_FU*%
X107666000Y-122746000D03*
%TO.N,GND*%
X98522000Y-119698000D03*
X85560000Y-130350000D03*
X115878500Y-113686500D03*
X101200000Y-114734000D03*
X96236000Y-97600000D03*
X110206000Y-123254000D03*
X110633500Y-113428500D03*
%TO.N,+3.3V*%
X87346000Y-99886000D03*
X93188000Y-123000000D03*
%TO.N,VBUS*%
X79472000Y-128334000D03*
X94712000Y-125032000D03*
%TO.N,D-*%
X94458000Y-131128000D03*
X80234000Y-129350000D03*
%TO.N,D+*%
X92934000Y-131382000D03*
X81758000Y-128588000D03*
%TO.N,+5V*%
X119096000Y-129350000D03*
X102586000Y-123762000D03*
X101316000Y-129096000D03*
%TO.N,ST_LED_D*%
X96490000Y-93536000D03*
X119604000Y-123508000D03*
%TO.N,TX_FU*%
X116556000Y-122746000D03*
%TO.N,TXD0*%
X119731000Y-113475000D03*
X87346000Y-129604000D03*
%TO.N,RXD0*%
X119477000Y-115507000D03*
X88174443Y-131569557D03*
%TO.N,RESET*%
X107666000Y-113094000D03*
X95220000Y-95314000D03*
%TO.N,AUX3-1*%
X124811000Y-123127000D03*
%TO.N,AUX3-2*%
X124684000Y-120206000D03*
%TO.N,AUX1-1*%
X107666000Y-120460000D03*
%TO.N,AUX1-2*%
X107920000Y-118428000D03*
%TO.N,AUX2-1*%
X118080000Y-120206000D03*
%TO.N,AUX2-2*%
X116810000Y-116142000D03*
%TD*%
D20*
%TO.N,+3.3V*%
X87346000Y-99886000D02*
X89138489Y-101678489D01*
X89138489Y-118950489D02*
X93188000Y-123000000D01*
X89138489Y-101678489D02*
X89138489Y-118950489D01*
%TO.N,VBUS*%
X79472000Y-128334000D02*
X82774000Y-125032000D01*
X82774000Y-125032000D02*
X94712000Y-125032000D01*
D21*
%TO.N,D-*%
X80234000Y-129122741D02*
X80234000Y-129350000D01*
X90902000Y-127572000D02*
X81784741Y-127572000D01*
X81784741Y-127572000D02*
X80234000Y-129122741D01*
X94458000Y-131128000D02*
X90902000Y-127572000D01*
%TO.N,D+*%
X90140000Y-128588000D02*
X92934000Y-131382000D01*
X81758000Y-128588000D02*
X90140000Y-128588000D01*
D22*
%TO.N,+5V*%
X102586000Y-127826000D02*
X102586000Y-123762000D01*
X93950000Y-117666000D02*
X93950000Y-105960000D01*
X100046000Y-123762000D02*
X93950000Y-117666000D01*
X102586000Y-123762000D02*
X100046000Y-123762000D01*
X93950000Y-105960000D02*
X92765000Y-104775000D01*
X101316000Y-129096000D02*
X102586000Y-127826000D01*
D20*
%TO.N,ST_LED_D*%
X99030000Y-108522000D02*
X99792000Y-109284000D01*
X99792000Y-109284000D02*
X118588000Y-109284000D01*
X96490000Y-93536000D02*
X96490000Y-94044000D01*
X118588000Y-109284000D02*
X121636000Y-112332000D01*
X119604000Y-118428000D02*
X119604000Y-123508000D01*
X121636000Y-116396000D02*
X119604000Y-118428000D01*
X96490000Y-94044000D02*
X99030000Y-96584000D01*
X121636000Y-112332000D02*
X121636000Y-116396000D01*
X99030000Y-96584000D02*
X99030000Y-108522000D01*
%TO.N,TXD0*%
X119731000Y-113475000D02*
X120201511Y-113945511D01*
X88362000Y-133160000D02*
X87346000Y-132144000D01*
X103094000Y-133160000D02*
X88362000Y-133160000D01*
X120201511Y-113945511D02*
X120201511Y-116052489D01*
X120201511Y-116052489D02*
X103094000Y-133160000D01*
X87346000Y-132144000D02*
X87346000Y-129604000D01*
%TO.N,RXD0*%
X119477000Y-115507000D02*
X102877489Y-132106511D01*
X88711397Y-132106511D02*
X88174443Y-131569557D01*
X102877489Y-132106511D02*
X88711397Y-132106511D01*
%TO.N,RESET*%
X107666000Y-111570000D02*
X107666000Y-113094000D01*
X95220000Y-105982000D02*
X99284000Y-110046000D01*
X99284000Y-110046000D02*
X106142000Y-110046000D01*
X95220000Y-95314000D02*
X95220000Y-105982000D01*
X106142000Y-110046000D02*
X107666000Y-111570000D01*
D22*
%TO.N,AUX3-1*%
X130272000Y-92520000D02*
X130272000Y-91758000D01*
X124811000Y-123127000D02*
X123957489Y-122273489D01*
X132050000Y-110046000D02*
X132812000Y-109284000D01*
X126716000Y-110046000D02*
X132050000Y-110046000D01*
X123957489Y-112804511D02*
X126716000Y-110046000D01*
X123957489Y-122273489D02*
X123957489Y-112804511D01*
X132812000Y-109284000D02*
X132812000Y-95060000D01*
X132812000Y-95060000D02*
X130272000Y-92520000D01*
X130272000Y-91758000D02*
X127200000Y-88686000D01*
X127200000Y-88686000D02*
X126208000Y-88686000D01*
%TO.N,AUX3-2*%
X133574000Y-110300000D02*
X133574000Y-94552000D01*
X133066000Y-110808000D02*
X133574000Y-110300000D01*
X131865612Y-110808000D02*
X133066000Y-110808000D01*
X131772000Y-91710000D02*
X126208000Y-86146000D01*
X124684000Y-120206000D02*
X124684000Y-117989612D01*
X133574000Y-94552000D02*
X131772000Y-92750000D01*
X124684000Y-117989612D02*
X131865612Y-110808000D01*
X131772000Y-92750000D02*
X131772000Y-91710000D01*
%TO.N,AUX2-1*%
X120850000Y-88686000D02*
X117554000Y-88686000D01*
X118080000Y-120206000D02*
X118080000Y-123762000D01*
X123922000Y-95314000D02*
X122906000Y-94298000D01*
X118588000Y-124270000D02*
X121636000Y-124270000D01*
X123414000Y-112706626D02*
X126582626Y-109538000D01*
X118080000Y-123762000D02*
X118588000Y-124270000D01*
X121636000Y-124270000D02*
X123414000Y-122492000D01*
X122906000Y-90742000D02*
X120850000Y-88686000D01*
X131796000Y-108522000D02*
X131796000Y-96838000D01*
X122906000Y-94298000D02*
X122906000Y-90742000D01*
X126582626Y-109538000D02*
X130780000Y-109538000D01*
X130780000Y-109538000D02*
X131796000Y-108522000D01*
X130272000Y-95314000D02*
X123922000Y-95314000D01*
X123414000Y-122492000D02*
X123414000Y-112706626D01*
X131796000Y-96838000D02*
X130272000Y-95314000D01*
%TD*%
M02*
