%TF.GenerationSoftware,KiCad,Pcbnew,(6.0.0-0)*%
%TF.CreationDate,2022-12-05T13:27:29-05:00*%
%TF.ProjectId,Body_Servos,426f6479-5f53-4657-9276-6f732e6b6963,rev?*%
%TF.SameCoordinates,Original*%
%TF.FileFunction,Copper,L1,Top*%
%TF.FilePolarity,Positive*%
%FSLAX46Y46*%
G04 Gerber Fmt 4.6, Leading zero omitted, Abs format (unit mm)*
G04 Created by KiCad (PCBNEW (6.0.0-0)) date 2022-12-05 13:27:29*
%MOMM*%
%LPD*%
G01*
G04 APERTURE LIST*
G04 Aperture macros list*
%AMRoundRect*
0 Rectangle with rounded corners*
0 $1 Rounding radius*
0 $2 $3 $4 $5 $6 $7 $8 $9 X,Y pos of 4 corners*
0 Add a 4 corners polygon primitive as box body*
4,1,4,$2,$3,$4,$5,$6,$7,$8,$9,$2,$3,0*
0 Add four circle primitives for the rounded corners*
1,1,$1+$1,$2,$3*
1,1,$1+$1,$4,$5*
1,1,$1+$1,$6,$7*
1,1,$1+$1,$8,$9*
0 Add four rect primitives between the rounded corners*
20,1,$1+$1,$2,$3,$4,$5,0*
20,1,$1+$1,$4,$5,$6,$7,0*
20,1,$1+$1,$6,$7,$8,$9,0*
20,1,$1+$1,$8,$9,$2,$3,0*%
G04 Aperture macros list end*
%TA.AperFunction,SMDPad,CuDef*%
%ADD10RoundRect,0.140000X0.140000X0.170000X-0.140000X0.170000X-0.140000X-0.170000X0.140000X-0.170000X0*%
%TD*%
%TA.AperFunction,SMDPad,CuDef*%
%ADD11R,1.000000X1.000000*%
%TD*%
%TA.AperFunction,ComponentPad*%
%ADD12R,2.400000X2.400000*%
%TD*%
%TA.AperFunction,ComponentPad*%
%ADD13C,2.400000*%
%TD*%
%TA.AperFunction,ComponentPad*%
%ADD14RoundRect,0.250000X0.845000X-0.620000X0.845000X0.620000X-0.845000X0.620000X-0.845000X-0.620000X0*%
%TD*%
%TA.AperFunction,ComponentPad*%
%ADD15O,2.190000X1.740000*%
%TD*%
%TA.AperFunction,SMDPad,CuDef*%
%ADD16R,0.400000X1.350000*%
%TD*%
%TA.AperFunction,ComponentPad*%
%ADD17O,0.890000X1.550000*%
%TD*%
%TA.AperFunction,SMDPad,CuDef*%
%ADD18R,1.200000X1.550000*%
%TD*%
%TA.AperFunction,ComponentPad*%
%ADD19O,1.250000X0.950000*%
%TD*%
%TA.AperFunction,SMDPad,CuDef*%
%ADD20R,1.500000X1.550000*%
%TD*%
%TA.AperFunction,ComponentPad*%
%ADD21C,1.524000*%
%TD*%
%TA.AperFunction,ComponentPad*%
%ADD22C,2.600000*%
%TD*%
%TA.AperFunction,SMDPad,CuDef*%
%ADD23R,0.500000X0.300000*%
%TD*%
%TA.AperFunction,SMDPad,CuDef*%
%ADD24RoundRect,0.140000X-0.140000X-0.170000X0.140000X-0.170000X0.140000X0.170000X-0.140000X0.170000X0*%
%TD*%
%TA.AperFunction,SMDPad,CuDef*%
%ADD25RoundRect,0.200000X0.275000X-0.200000X0.275000X0.200000X-0.275000X0.200000X-0.275000X-0.200000X0*%
%TD*%
%TA.AperFunction,SMDPad,CuDef*%
%ADD26RoundRect,0.150000X0.150000X-0.512500X0.150000X0.512500X-0.150000X0.512500X-0.150000X-0.512500X0*%
%TD*%
%TA.AperFunction,ComponentPad*%
%ADD27C,2.300000*%
%TD*%
%TA.AperFunction,SMDPad,CuDef*%
%ADD28RoundRect,0.200000X-0.200000X-0.275000X0.200000X-0.275000X0.200000X0.275000X-0.200000X0.275000X0*%
%TD*%
%TA.AperFunction,SMDPad,CuDef*%
%ADD29RoundRect,0.049600X0.260400X-0.605400X0.260400X0.605400X-0.260400X0.605400X-0.260400X-0.605400X0*%
%TD*%
%TA.AperFunction,SMDPad,CuDef*%
%ADD30R,0.914400X1.219200*%
%TD*%
%TA.AperFunction,SMDPad,CuDef*%
%ADD31R,2.000000X0.900000*%
%TD*%
%TA.AperFunction,SMDPad,CuDef*%
%ADD32R,0.900000X2.000000*%
%TD*%
%TA.AperFunction,SMDPad,CuDef*%
%ADD33R,5.000000X5.000000*%
%TD*%
%TA.AperFunction,SMDPad,CuDef*%
%ADD34RoundRect,0.135000X0.135000X0.185000X-0.135000X0.185000X-0.135000X-0.185000X0.135000X-0.185000X0*%
%TD*%
%TA.AperFunction,SMDPad,CuDef*%
%ADD35RoundRect,0.150000X0.150000X-0.587500X0.150000X0.587500X-0.150000X0.587500X-0.150000X-0.587500X0*%
%TD*%
%TA.AperFunction,SMDPad,CuDef*%
%ADD36RoundRect,0.100000X-0.400000X1.000000X-0.400000X-1.000000X0.400000X-1.000000X0.400000X1.000000X0*%
%TD*%
%TA.AperFunction,SMDPad,CuDef*%
%ADD37RoundRect,0.200000X-0.275000X0.200000X-0.275000X-0.200000X0.275000X-0.200000X0.275000X0.200000X0*%
%TD*%
%TA.AperFunction,ViaPad*%
%ADD38C,0.800000*%
%TD*%
%TA.AperFunction,Conductor*%
%ADD39C,0.250000*%
%TD*%
%TA.AperFunction,Conductor*%
%ADD40C,0.254000*%
%TD*%
%TA.AperFunction,Conductor*%
%ADD41C,0.200000*%
%TD*%
%TA.AperFunction,Conductor*%
%ADD42C,1.000000*%
%TD*%
G04 APERTURE END LIST*
D10*
%TO.P,C7,1*%
%TO.N,+3.3V*%
X101210000Y-113390000D03*
%TO.P,C7,2*%
%TO.N,GND*%
X100250000Y-113390000D03*
%TD*%
D11*
%TO.P,L1,1,DO*%
%TO.N,unconnected-(L1-Pad1)*%
X93859000Y-98447000D03*
%TO.P,L1,2,VSS*%
%TO.N,GND*%
X93859000Y-97147000D03*
%TO.P,L1,3,DI*%
%TO.N,Net-(L1-Pad3)*%
X91829000Y-97147000D03*
%TO.P,L1,4,VDD*%
%TO.N,+5V*%
X91829000Y-98447000D03*
%TD*%
D12*
%TO.P,J5,1,Pin_1*%
%TO.N,GND*%
X66273333Y-93390000D03*
D13*
%TO.P,J5,2,Pin_2*%
%TO.N,+12V*%
X66273333Y-96890000D03*
%TD*%
D14*
%TO.P,J3,1,Pin_1*%
%TO.N,GND*%
X108404000Y-93766000D03*
D15*
%TO.P,J3,2,Pin_2*%
%TO.N,+5V*%
X108404000Y-91226000D03*
%TO.P,J3,3,Pin_3*%
%TO.N,AUX1-1*%
X108404000Y-88686000D03*
%TO.P,J3,4,Pin_4*%
%TO.N,AUX1-2*%
X108404000Y-86146000D03*
%TD*%
D16*
%TO.P,J1,1,VBUS*%
%TO.N,VBUS*%
X79220000Y-131360000D03*
%TO.P,J1,2,D-*%
%TO.N,D-*%
X79870000Y-131360000D03*
%TO.P,J1,3,D+*%
%TO.N,D+*%
X80520000Y-131360000D03*
%TO.P,J1,4,ID*%
%TO.N,unconnected-(J1-Pad4)*%
X81170000Y-131360000D03*
%TO.P,J1,5,GND*%
%TO.N,GND*%
X81820000Y-131360000D03*
D17*
%TO.P,J1,6,Shield*%
%TO.N,unconnected-(J1-Pad6)*%
X77020000Y-134060000D03*
D18*
X77620000Y-134060000D03*
D17*
X84020000Y-134060000D03*
D19*
X78020000Y-131360000D03*
D18*
X83420000Y-134060000D03*
D20*
X79520000Y-134060000D03*
D19*
X83020000Y-131360000D03*
D20*
X81520000Y-134060000D03*
%TD*%
D12*
%TO.P,J8,1,Pin_1*%
%TO.N,GND*%
X86298000Y-94410000D03*
D13*
%TO.P,J8,2,Pin_2*%
%TO.N,+5V*%
X82798000Y-94410000D03*
%TD*%
D14*
%TO.P,J2,1,Pin_1*%
%TO.N,GND*%
X126208000Y-93766000D03*
D15*
%TO.P,J2,2,Pin_2*%
%TO.N,+5V*%
X126208000Y-91226000D03*
%TO.P,J2,3,Pin_3*%
%TO.N,AUX3-1*%
X126208000Y-88686000D03*
%TO.P,J2,4,Pin_4*%
%TO.N,AUX3-2*%
X126208000Y-86146000D03*
%TD*%
D21*
%TO.P,U7,1,GND*%
%TO.N,GND*%
X69247000Y-116800000D03*
%TO.P,U7,2,OE*%
%TO.N,unconnected-(U7-Pad2)*%
X69247000Y-119340000D03*
%TO.P,U7,3,SCL*%
%TO.N,SCL*%
X69247000Y-121880000D03*
%TO.P,U7,4,SDA*%
%TO.N,SDA*%
X69247000Y-124420000D03*
%TO.P,U7,5,VCC*%
%TO.N,+3.3V*%
X69247000Y-126960000D03*
%TO.P,U7,6,V+*%
%TO.N,+5V*%
X69247000Y-129500000D03*
%TO.P,U7,7,GND*%
%TO.N,GND*%
X127413000Y-116800000D03*
%TO.P,U7,8,OE*%
%TO.N,unconnected-(U7-Pad8)*%
X127413000Y-119340000D03*
%TO.P,U7,9,SCL*%
%TO.N,SCL*%
X127413000Y-121880000D03*
%TO.P,U7,10,SDA*%
%TO.N,SDA*%
X127413000Y-124420000D03*
%TO.P,U7,11,VCC*%
%TO.N,+3.3V*%
X127413000Y-126960000D03*
%TO.P,U7,12,V+*%
%TO.N,+5V*%
X127413000Y-129500000D03*
D22*
%TO.P,U7,13*%
%TO.N,N/C*%
X70517000Y-113625000D03*
X126143000Y-113625000D03*
X126143000Y-132675000D03*
X70517000Y-132675000D03*
%TD*%
D10*
%TO.P,C3,1*%
%TO.N,+3.3V*%
X102180000Y-109510000D03*
%TO.P,C3,2*%
%TO.N,GND*%
X101220000Y-109510000D03*
%TD*%
D23*
%TO.P,U5,1*%
%TO.N,RTS*%
X99970000Y-131143800D03*
%TO.P,U5,2*%
%TO.N,DTR*%
X99970000Y-131793800D03*
%TO.P,U5,3*%
%TO.N,GPIO0*%
X99970000Y-132443800D03*
%TO.P,U5,4*%
%TO.N,DTR*%
X101820000Y-132443800D03*
%TO.P,U5,5*%
%TO.N,RTS*%
X101820000Y-131793800D03*
%TO.P,U5,6*%
%TO.N,RESET*%
X101820000Y-131143800D03*
%TD*%
D24*
%TO.P,C5,1*%
%TO.N,GND*%
X99810000Y-119990000D03*
%TO.P,C5,2*%
%TO.N,VIN*%
X100770000Y-119990000D03*
%TD*%
D25*
%TO.P,R2,1*%
%TO.N,VBUS*%
X100170000Y-122975000D03*
%TO.P,R2,2*%
%TO.N,GND*%
X100170000Y-121325000D03*
%TD*%
D26*
%TO.P,U3,1,VIN*%
%TO.N,VIN*%
X100250000Y-118407500D03*
%TO.P,U3,2,VSS*%
%TO.N,GND*%
X101200000Y-118407500D03*
%TO.P,U3,3,CE*%
%TO.N,Net-(R3-Pad1)*%
X102150000Y-118407500D03*
%TO.P,U3,4,NC*%
%TO.N,unconnected-(U3-Pad4)*%
X102150000Y-116132500D03*
%TO.P,U3,5,VOUT*%
%TO.N,+3.3V*%
X100250000Y-116132500D03*
%TD*%
D21*
%TO.P,U6,1,VOUT*%
%TO.N,+5V*%
X92765000Y-102235000D03*
%TO.P,U6,2,GND*%
%TO.N,GND*%
X90225000Y-102235000D03*
%TO.P,U6,3,GND*%
X87685000Y-102235000D03*
%TO.P,U6,4,VIN*%
%TO.N,+12V*%
X85145000Y-102235000D03*
%TO.P,U6,5,VRP*%
%TO.N,unconnected-(U6-Pad5)*%
X82605000Y-102235000D03*
%TO.P,U6,6,EN*%
%TO.N,unconnected-(U6-Pad6)*%
X80065000Y-102235000D03*
%TO.P,U6,7,PG*%
%TO.N,unconnected-(U6-Pad7)*%
X80065000Y-104775000D03*
%TO.P,U6,8,VRP*%
%TO.N,unconnected-(U6-Pad8)*%
X82605000Y-104775000D03*
%TO.P,U6,9,VIN*%
%TO.N,+12V*%
X85145000Y-104775000D03*
%TO.P,U6,10,GND*%
%TO.N,GND*%
X87685000Y-104775000D03*
%TO.P,U6,11,GND*%
X90225000Y-104775000D03*
%TO.P,U6,12,VOUT*%
%TO.N,+5V*%
X92765000Y-104775000D03*
D27*
%TO.P,U6,13*%
%TO.N,N/C*%
X97015000Y-103165000D03*
%TO.P,U6,14*%
X75815000Y-103165000D03*
%TO.P,U6,15*%
X75815000Y-124165000D03*
%TD*%
D28*
%TO.P,R1,1*%
%TO.N,+3.3V*%
X88507000Y-99624000D03*
%TO.P,R1,2*%
%TO.N,RESET*%
X90157000Y-99624000D03*
%TD*%
D10*
%TO.P,C1,1*%
%TO.N,RESET*%
X105756000Y-130336000D03*
%TO.P,C1,2*%
%TO.N,GND*%
X104796000Y-130336000D03*
%TD*%
D29*
%TO.P,U4,1,GND*%
%TO.N,GND*%
X88230000Y-133020000D03*
%TO.P,U4,2,TXD*%
%TO.N,RXD0*%
X89500000Y-133020000D03*
%TO.P,U4,3,RXD*%
%TO.N,TXD0*%
X90770000Y-133020000D03*
%TO.P,U4,4,V3*%
%TO.N,+3.3V*%
X92040000Y-133020000D03*
%TO.P,U4,5,UD+*%
%TO.N,D+*%
X93310000Y-133020000D03*
%TO.P,U4,6,UD-*%
%TO.N,D-*%
X94580000Y-133020000D03*
%TO.P,U4,7,NC.*%
%TO.N,unconnected-(U4-Pad7)*%
X95850000Y-133020000D03*
%TO.P,U4,8,~{OUT}*%
%TO.N,unconnected-(U4-Pad8)*%
X97120000Y-133020000D03*
%TO.P,U4,9,~{CTS}*%
%TO.N,unconnected-(U4-Pad9)*%
X97120000Y-127520000D03*
%TO.P,U4,10,~{DSR}*%
%TO.N,unconnected-(U4-Pad10)*%
X95850000Y-127520000D03*
%TO.P,U4,11,~{RI}*%
%TO.N,unconnected-(U4-Pad11)*%
X94580000Y-127520000D03*
%TO.P,U4,12,~{DCD}*%
%TO.N,unconnected-(U4-Pad12)*%
X93310000Y-127520000D03*
%TO.P,U4,13,~{DTR}*%
%TO.N,DTR*%
X92040000Y-127520000D03*
%TO.P,U4,14,~{RTS}*%
%TO.N,RTS*%
X90770000Y-127520000D03*
%TO.P,U4,15,R232*%
%TO.N,unconnected-(U4-Pad15)*%
X89500000Y-127520000D03*
%TO.P,U4,16,VCC*%
%TO.N,+3.3V*%
X88230000Y-127520000D03*
%TD*%
D12*
%TO.P,J6,1,Pin_1*%
%TO.N,GND*%
X66273333Y-102650000D03*
D13*
%TO.P,J6,2,Pin_2*%
%TO.N,+12V*%
X66273333Y-106150000D03*
%TD*%
D30*
%TO.P,CR1,A,A*%
%TO.N,VBUS*%
X99830200Y-129080500D03*
%TO.P,CR1,C,C*%
%TO.N,VIN*%
X103106800Y-129080500D03*
%TD*%
D31*
%TO.P,U1,1,GND*%
%TO.N,GND*%
X105260000Y-109305000D03*
%TO.P,U1,2,3V3*%
%TO.N,+3.3V*%
X105260000Y-110575000D03*
%TO.P,U1,3,EN*%
%TO.N,RESET*%
X105260000Y-111845000D03*
%TO.P,U1,4,SENSOR_VP*%
%TO.N,unconnected-(U1-Pad4)*%
X105260000Y-113115000D03*
%TO.P,U1,5,SENSOR_VN*%
%TO.N,unconnected-(U1-Pad5)*%
X105260000Y-114385000D03*
%TO.P,U1,6,IO34*%
%TO.N,unconnected-(U1-Pad6)*%
X105260000Y-115655000D03*
%TO.P,U1,7,IO35*%
%TO.N,unconnected-(U1-Pad7)*%
X105260000Y-116925000D03*
%TO.P,U1,8,IO32*%
%TO.N,unconnected-(U1-Pad8)*%
X105260000Y-118195000D03*
%TO.P,U1,9,IO33*%
%TO.N,unconnected-(U1-Pad9)*%
X105260000Y-119465000D03*
%TO.P,U1,10,IO25*%
%TO.N,AUX1-1*%
X105260000Y-120735000D03*
%TO.P,U1,11,IO26*%
%TO.N,AUX1-2*%
X105260000Y-122005000D03*
%TO.P,U1,12,IO27*%
%TO.N,unconnected-(U1-Pad12)*%
X105260000Y-123275000D03*
%TO.P,U1,13,IO14*%
%TO.N,RX_FU*%
X105260000Y-124545000D03*
%TO.P,U1,14,IO12*%
%TO.N,unconnected-(U1-Pad14)*%
X105260000Y-125815000D03*
D32*
%TO.P,U1,15,GND*%
%TO.N,GND*%
X108045000Y-126815000D03*
%TO.P,U1,16,IO13*%
%TO.N,unconnected-(U1-Pad16)*%
X109315000Y-126815000D03*
%TO.P,U1,17,SD2*%
%TO.N,unconnected-(U1-Pad17)*%
X110585000Y-126815000D03*
%TO.P,U1,18,SD3*%
%TO.N,unconnected-(U1-Pad18)*%
X111855000Y-126815000D03*
%TO.P,U1,19,CMD*%
%TO.N,unconnected-(U1-Pad19)*%
X113125000Y-126815000D03*
%TO.P,U1,20,CLK*%
%TO.N,unconnected-(U1-Pad20)*%
X114395000Y-126815000D03*
%TO.P,U1,21,SD0*%
%TO.N,unconnected-(U1-Pad21)*%
X115665000Y-126815000D03*
%TO.P,U1,22,SD1*%
%TO.N,unconnected-(U1-Pad22)*%
X116935000Y-126815000D03*
%TO.P,U1,23,IO15*%
%TO.N,TX_FU*%
X118205000Y-126815000D03*
%TO.P,U1,24,IO2*%
%TO.N,unconnected-(U1-Pad24)*%
X119475000Y-126815000D03*
D31*
%TO.P,U1,25,IO0*%
%TO.N,GPIO0*%
X122260000Y-125815000D03*
%TO.P,U1,26,IO4*%
%TO.N,ST_LED_D*%
X122260000Y-124545000D03*
%TO.P,U1,27,IO16*%
%TO.N,AUX3-1*%
X122260000Y-123275000D03*
%TO.P,U1,28,IO17*%
%TO.N,AUX3-2*%
X122260000Y-122005000D03*
%TO.P,U1,29,IO5*%
%TO.N,unconnected-(U1-Pad29)*%
X122260000Y-120735000D03*
%TO.P,U1,30,IO18*%
%TO.N,AUX2-1*%
X122260000Y-119465000D03*
%TO.P,U1,31,IO19*%
%TO.N,AUX2-2*%
X122260000Y-118195000D03*
%TO.P,U1,32,NC*%
%TO.N,unconnected-(U1-Pad32)*%
X122260000Y-116925000D03*
%TO.P,U1,33,IO21*%
%TO.N,SDA*%
X122260000Y-115655000D03*
%TO.P,U1,34,RXD0*%
%TO.N,RXD0*%
X122260000Y-114385000D03*
%TO.P,U1,35,TXD0*%
%TO.N,TXD0*%
X122260000Y-113115000D03*
%TO.P,U1,36,IO22*%
%TO.N,SCL*%
X122260000Y-111845000D03*
%TO.P,U1,37,IO23*%
%TO.N,unconnected-(U1-Pad37)*%
X122260000Y-110575000D03*
%TO.P,U1,38,GND*%
%TO.N,GND*%
X122260000Y-109305000D03*
D33*
%TO.P,U1,39,GND*%
X112760000Y-116805000D03*
%TD*%
D10*
%TO.P,C6,1*%
%TO.N,+3.3V*%
X91640000Y-134830000D03*
%TO.P,C6,2*%
%TO.N,GND*%
X90680000Y-134830000D03*
%TD*%
D34*
%TO.P,R4,1*%
%TO.N,ST_LED_D*%
X97600000Y-96266000D03*
%TO.P,R4,2*%
%TO.N,Net-(L1-Pad3)*%
X96580000Y-96266000D03*
%TD*%
D14*
%TO.P,J4,1,Pin_1*%
%TO.N,GND*%
X117554000Y-93766000D03*
D15*
%TO.P,J4,2,Pin_2*%
%TO.N,+5V*%
X117554000Y-91226000D03*
%TO.P,J4,3,Pin_3*%
%TO.N,AUX2-1*%
X117554000Y-88686000D03*
%TO.P,J4,4,Pin_4*%
%TO.N,AUX2-2*%
X117554000Y-86146000D03*
%TD*%
D14*
%TO.P,J12,1,Pin_1*%
%TO.N,GND*%
X100028000Y-93766000D03*
D15*
%TO.P,J12,2,Pin_2*%
%TO.N,RX_FU*%
X100028000Y-91226000D03*
%TO.P,J12,3,Pin_3*%
%TO.N,TX_FU*%
X100028000Y-88686000D03*
%TD*%
D12*
%TO.P,J7,1,Pin_1*%
%TO.N,GND*%
X76834666Y-94410000D03*
D13*
%TO.P,J7,2,Pin_2*%
%TO.N,+5V*%
X73334666Y-94410000D03*
%TD*%
D10*
%TO.P,C2,1*%
%TO.N,+3.3V*%
X102190000Y-110830000D03*
%TO.P,C2,2*%
%TO.N,GND*%
X101230000Y-110830000D03*
%TD*%
D35*
%TO.P,U2,1,1*%
%TO.N,VBUS*%
X100510000Y-126719500D03*
%TO.P,U2,2,2*%
%TO.N,VIN*%
X102410000Y-126719500D03*
%TO.P,U2,3,3*%
%TO.N,+5V*%
X101460000Y-124844500D03*
%TD*%
D36*
%TO.P,SW1,1,1*%
%TO.N,GND*%
X92831000Y-86511000D03*
%TO.P,SW1,2,2*%
%TO.N,RESET*%
X92831000Y-94311000D03*
%TD*%
D10*
%TO.P,C4,1*%
%TO.N,+3.3V*%
X86520000Y-127670000D03*
%TO.P,C4,2*%
%TO.N,GND*%
X85560000Y-127670000D03*
%TD*%
D37*
%TO.P,R3,1*%
%TO.N,Net-(R3-Pad1)*%
X102280000Y-120675000D03*
%TO.P,R3,2*%
%TO.N,VIN*%
X102280000Y-122325000D03*
%TD*%
D38*
%TO.N,RX_FU*%
X107666000Y-122746000D03*
%TO.N,GND*%
X98522000Y-119698000D03*
X85560000Y-130350000D03*
X115878500Y-113686500D03*
X101200000Y-114734000D03*
X96236000Y-97600000D03*
X110206000Y-123254000D03*
X110633500Y-113428500D03*
%TO.N,+3.3V*%
X87346000Y-99886000D03*
X93188000Y-123000000D03*
%TO.N,VBUS*%
X79472000Y-128334000D03*
X94712000Y-125032000D03*
%TO.N,D-*%
X94458000Y-131128000D03*
X80234000Y-129350000D03*
%TO.N,D+*%
X92934000Y-131382000D03*
X81758000Y-128588000D03*
%TO.N,+5V*%
X119096000Y-129350000D03*
X102586000Y-123762000D03*
X101316000Y-129096000D03*
%TO.N,ST_LED_D*%
X96490000Y-93536000D03*
X119604000Y-123508000D03*
%TO.N,TX_FU*%
X116556000Y-122746000D03*
%TO.N,TXD0*%
X119731000Y-113475000D03*
X87346000Y-129604000D03*
%TO.N,RXD0*%
X119477000Y-115507000D03*
X88174443Y-131569557D03*
%TO.N,RESET*%
X107666000Y-113094000D03*
X95220000Y-95314000D03*
%TO.N,AUX3-1*%
X124811000Y-123127000D03*
%TO.N,AUX3-2*%
X124684000Y-120206000D03*
%TO.N,AUX1-1*%
X107666000Y-120460000D03*
%TO.N,AUX1-2*%
X107920000Y-118428000D03*
%TO.N,AUX2-1*%
X118080000Y-120206000D03*
%TO.N,AUX2-2*%
X116810000Y-116142000D03*
%TD*%
D39*
%TO.N,RX_FU*%
X105260000Y-124545000D02*
X106510000Y-124545000D01*
X106510000Y-124545000D02*
X107666000Y-123389000D01*
X107666000Y-123389000D02*
X107666000Y-122746000D01*
%TO.N,GND*%
X101200000Y-114734000D02*
X101200000Y-114346930D01*
X108045000Y-126815000D02*
X108045000Y-129987000D01*
X108045000Y-126815000D02*
X108045000Y-125415000D01*
X110633500Y-113428500D02*
X112760000Y-115555000D01*
X101200000Y-118407500D02*
X101200000Y-114734000D01*
X103877000Y-109305000D02*
X102840000Y-108268000D01*
X112760000Y-115555000D02*
X112760000Y-116805000D01*
X108045000Y-129987000D02*
X106736000Y-131296000D01*
X101570000Y-108268000D02*
X101220000Y-108618000D01*
X81820000Y-129796000D02*
X83946000Y-127670000D01*
X101220000Y-109510000D02*
X101220000Y-110820000D01*
X105260000Y-109305000D02*
X106510000Y-109305000D01*
X100170000Y-120350000D02*
X99810000Y-119990000D01*
X88230000Y-134044000D02*
X88230000Y-133020000D01*
X88230000Y-133020000D02*
X85560000Y-130350000D01*
X112760000Y-120700000D02*
X112760000Y-116805000D01*
X105260000Y-109305000D02*
X103877000Y-109305000D01*
X99810000Y-119990000D02*
X98814000Y-119990000D01*
X92831000Y-86511000D02*
X86298000Y-93044000D01*
X120260000Y-109305000D02*
X115878500Y-113686500D01*
X86298000Y-93044000D02*
X86298000Y-94410000D01*
X90680000Y-134830000D02*
X89016000Y-134830000D01*
X101200000Y-114346930D02*
X100250000Y-113396930D01*
X100250000Y-113396930D02*
X100250000Y-113390000D01*
X106736000Y-131296000D02*
X105749070Y-131296000D01*
X83946000Y-127670000D02*
X85560000Y-127670000D01*
X89016000Y-134830000D02*
X88230000Y-134044000D01*
X110206000Y-123254000D02*
X112760000Y-120700000D01*
X105749070Y-131296000D02*
X104796000Y-130342930D01*
X101220000Y-110820000D02*
X101230000Y-110830000D01*
X101220000Y-108618000D02*
X101220000Y-109510000D01*
X98814000Y-119990000D02*
X98522000Y-119698000D01*
X115878500Y-113686500D02*
X112760000Y-116805000D01*
X104796000Y-130342930D02*
X104796000Y-130336000D01*
X95783000Y-97147000D02*
X96236000Y-97600000D01*
X108045000Y-125415000D02*
X110206000Y-123254000D01*
X81820000Y-131360000D02*
X81820000Y-129796000D01*
X93859000Y-97147000D02*
X95783000Y-97147000D01*
X122260000Y-109305000D02*
X120260000Y-109305000D01*
X102840000Y-108268000D02*
X101570000Y-108268000D01*
X85560000Y-130350000D02*
X85560000Y-127670000D01*
X106510000Y-109305000D02*
X110633500Y-113428500D01*
X100170000Y-121325000D02*
X100170000Y-120350000D01*
%TO.N,+3.3V*%
X99284000Y-115166500D02*
X99284000Y-113602000D01*
X101456930Y-112078000D02*
X102586000Y-112078000D01*
X101210000Y-113390000D02*
X101274000Y-113390000D01*
X100055500Y-116132500D02*
X93188000Y-123000000D01*
X102713000Y-111951000D02*
X104089000Y-110575000D01*
X99284000Y-113602000D02*
X99284000Y-113094000D01*
D40*
X77290000Y-126960000D02*
X81250000Y-123000000D01*
D39*
X102586000Y-112078000D02*
X102713000Y-111951000D01*
X88230000Y-126434000D02*
X88230000Y-127520000D01*
X88230000Y-128964000D02*
X92040000Y-132774000D01*
X92040000Y-132774000D02*
X92040000Y-133020000D01*
X92040000Y-134054000D02*
X92040000Y-133020000D01*
D40*
X69247000Y-126960000D02*
X77290000Y-126960000D01*
D39*
X103245000Y-110575000D02*
X105260000Y-110575000D01*
X102445000Y-110575000D02*
X105260000Y-110575000D01*
X86520000Y-127670000D02*
X88080000Y-127670000D01*
X104089000Y-110575000D02*
X105260000Y-110575000D01*
X88507000Y-99624000D02*
X87608000Y-99624000D01*
X100250000Y-116132500D02*
X99284000Y-115166500D01*
X101274000Y-113390000D02*
X102713000Y-111951000D01*
D40*
X81250000Y-123000000D02*
X93188000Y-123000000D01*
D39*
X91640000Y-134830000D02*
X91640000Y-134454000D01*
X89886000Y-124778000D02*
X88230000Y-126434000D01*
X102190000Y-110830000D02*
X102445000Y-110575000D01*
X91640000Y-134454000D02*
X92040000Y-134054000D01*
X100554000Y-111824000D02*
X101202930Y-111824000D01*
X88230000Y-127520000D02*
X88230000Y-128964000D01*
X87608000Y-99624000D02*
X87346000Y-99886000D01*
X91410000Y-124778000D02*
X89886000Y-124778000D01*
X101202930Y-111824000D02*
X101456930Y-112078000D01*
X88080000Y-127670000D02*
X88230000Y-127520000D01*
X93188000Y-123000000D02*
X91410000Y-124778000D01*
X102180000Y-109510000D02*
X103245000Y-110575000D01*
X100250000Y-116132500D02*
X100055500Y-116132500D01*
X99284000Y-113094000D02*
X100554000Y-111824000D01*
%TO.N,VIN*%
X101480480Y-120700480D02*
X100770000Y-119990000D01*
X102410000Y-126719500D02*
X103310511Y-125818989D01*
X100250000Y-118407500D02*
X100414520Y-118572020D01*
X102280000Y-122325000D02*
X101480480Y-121525480D01*
X103310511Y-123165511D02*
X102470000Y-122325000D01*
X103106800Y-129080500D02*
X103106800Y-127416300D01*
X101480480Y-121525480D02*
X101480480Y-120700480D01*
X103310511Y-125818989D02*
X103310511Y-123165511D01*
X100414520Y-119634520D02*
X100770000Y-119990000D01*
X103106800Y-127416300D02*
X102410000Y-126719500D01*
X100414520Y-118572020D02*
X100414520Y-119634520D01*
%TO.N,VBUS*%
X100510000Y-123315000D02*
X100170000Y-122975000D01*
X96769000Y-122975000D02*
X94712000Y-125032000D01*
X79220000Y-128586000D02*
X79472000Y-128334000D01*
X99830200Y-129080500D02*
X100510000Y-128400700D01*
X100170000Y-122975000D02*
X96769000Y-122975000D01*
X79220000Y-131360000D02*
X79220000Y-128586000D01*
X100510000Y-128400700D02*
X100510000Y-123315000D01*
D41*
%TO.N,D-*%
X94580000Y-133020000D02*
X94580000Y-131250000D01*
X79870000Y-129714000D02*
X80234000Y-129350000D01*
X94580000Y-131250000D02*
X94458000Y-131128000D01*
X79870000Y-131360000D02*
X79870000Y-129714000D01*
%TO.N,D+*%
X93310000Y-133020000D02*
X93310000Y-131758000D01*
X80523748Y-130049511D02*
X81758000Y-128815259D01*
X93310000Y-131758000D02*
X92934000Y-131382000D01*
X80520000Y-131360000D02*
X80520000Y-130049511D01*
X80520000Y-130049511D02*
X80523748Y-130049511D01*
X81758000Y-128815259D02*
X81758000Y-128588000D01*
D40*
%TO.N,unconnected-(J1-Pad6)*%
X83020000Y-133060000D02*
X84020000Y-134060000D01*
X79520000Y-134060000D02*
X81520000Y-134060000D01*
X77620000Y-134060000D02*
X79520000Y-134060000D01*
X78020000Y-133660000D02*
X77620000Y-134060000D01*
X81520000Y-134060000D02*
X83420000Y-134060000D01*
X78020000Y-131360000D02*
X78020000Y-133660000D01*
X83020000Y-131360000D02*
X83020000Y-133060000D01*
%TO.N,SCL*%
X126208000Y-120675000D02*
X126208000Y-117920000D01*
X122927000Y-111845000D02*
X122260000Y-111845000D01*
X123922000Y-115634000D02*
X123922000Y-112840000D01*
X123922000Y-112840000D02*
X122927000Y-111845000D01*
X127413000Y-121880000D02*
X126208000Y-120675000D01*
X126208000Y-117920000D02*
X123922000Y-115634000D01*
%TO.N,SDA*%
X125700000Y-122707000D02*
X127413000Y-124420000D01*
X122927000Y-115655000D02*
X125700000Y-118428000D01*
X122260000Y-115655000D02*
X122927000Y-115655000D01*
X125700000Y-118428000D02*
X125700000Y-122707000D01*
D39*
%TO.N,Net-(R3-Pad1)*%
X102150000Y-118407500D02*
X102150000Y-120355000D01*
X102150000Y-120355000D02*
X102470000Y-120675000D01*
%TO.N,ST_LED_D*%
X96490000Y-93536000D02*
X96490000Y-95156000D01*
X122260000Y-124545000D02*
X120641000Y-124545000D01*
X120641000Y-124545000D02*
X119604000Y-123508000D01*
X96490000Y-95156000D02*
X97600000Y-96266000D01*
D40*
%TO.N,TX_FU*%
X118205000Y-126815000D02*
X118205000Y-124395000D01*
X118205000Y-124395000D02*
X116556000Y-122746000D01*
D39*
%TO.N,GPIO0*%
X100686200Y-133160000D02*
X117826000Y-133160000D01*
X117826000Y-133160000D02*
X122260000Y-128726000D01*
X122260000Y-128726000D02*
X122260000Y-125815000D01*
X99970000Y-132443800D02*
X100686200Y-133160000D01*
%TO.N,TXD0*%
X87346000Y-129604000D02*
X87478885Y-129604000D01*
X120091000Y-113115000D02*
X119731000Y-113475000D01*
X122260000Y-113115000D02*
X120091000Y-113115000D01*
X90770000Y-133020000D02*
X90770000Y-132895115D01*
X90770000Y-132895115D02*
X87478885Y-129604000D01*
%TO.N,RXD0*%
X89500000Y-133020000D02*
X89500000Y-132895114D01*
X89500000Y-132895114D02*
X88174443Y-131569557D01*
X120599000Y-114385000D02*
X119477000Y-115507000D01*
X122260000Y-114385000D02*
X120599000Y-114385000D01*
D40*
%TO.N,DTR*%
X98933800Y-131793800D02*
X98425800Y-131285800D01*
D39*
X92040000Y-128456000D02*
X92040000Y-127520000D01*
D40*
X99970000Y-131793800D02*
X98933800Y-131793800D01*
D39*
X98425800Y-131285800D02*
X96744000Y-129604000D01*
D40*
X100775604Y-131793800D02*
X101425604Y-132443800D01*
X99970000Y-131793800D02*
X100775604Y-131793800D01*
D39*
X96744000Y-129604000D02*
X93188000Y-129604000D01*
X93188000Y-129604000D02*
X92040000Y-128456000D01*
D40*
X101425604Y-132443800D02*
X101820000Y-132443800D01*
D39*
%TO.N,RTS*%
X91410000Y-126048000D02*
X97252000Y-126048000D01*
X98014000Y-126810000D02*
X98014000Y-128679800D01*
D40*
X98014000Y-129187800D02*
X98014000Y-128679800D01*
X99970000Y-131143800D02*
X98014000Y-129187800D01*
X99970000Y-131143800D02*
X100766978Y-131143800D01*
D39*
X90770000Y-126688000D02*
X91410000Y-126048000D01*
D40*
X101416978Y-131793800D02*
X101820000Y-131793800D01*
X100766978Y-131143800D02*
X101416978Y-131793800D01*
D39*
X97252000Y-126048000D02*
X98014000Y-126810000D01*
X90770000Y-127520000D02*
X90770000Y-126688000D01*
%TO.N,RESET*%
X91905000Y-94311000D02*
X90140000Y-96076000D01*
D40*
X105756000Y-130234000D02*
X105756000Y-130336000D01*
X105756000Y-128466000D02*
X107158000Y-127064000D01*
X105756000Y-130336000D02*
X105756000Y-128466000D01*
X109444000Y-114872000D02*
X107666000Y-113094000D01*
D39*
X106417000Y-111845000D02*
X107666000Y-113094000D01*
X95220000Y-95314000D02*
X93834000Y-95314000D01*
X92831000Y-94311000D02*
X91905000Y-94311000D01*
D40*
X104872000Y-129350000D02*
X105756000Y-130234000D01*
D39*
X93834000Y-95314000D02*
X92831000Y-94311000D01*
D40*
X109444000Y-122492000D02*
X109444000Y-114872000D01*
D39*
X105260000Y-111845000D02*
X106417000Y-111845000D01*
X90140000Y-96076000D02*
X90140000Y-99607000D01*
D40*
X107158000Y-127064000D02*
X107158000Y-124778000D01*
D39*
X90140000Y-99607000D02*
X90157000Y-99624000D01*
D40*
X107158000Y-124778000D02*
X109444000Y-122492000D01*
X101820000Y-131143800D02*
X102824200Y-131143800D01*
X104618000Y-129350000D02*
X104872000Y-129350000D01*
X102824200Y-131143800D02*
X104618000Y-129350000D01*
D42*
%TO.N,+12V*%
X68743333Y-107350000D02*
X67543333Y-106150000D01*
X63724000Y-103600667D02*
X63724000Y-99439333D01*
X67543333Y-106150000D02*
X66273333Y-106150000D01*
X85145000Y-104775000D02*
X82570000Y-107350000D01*
X82570000Y-107350000D02*
X68743333Y-107350000D01*
X63724000Y-99439333D02*
X66273333Y-96890000D01*
X66273333Y-106150000D02*
X63724000Y-103600667D01*
X85145000Y-104775000D02*
X85145000Y-102235000D01*
D39*
%TO.N,Net-(L1-Pad3)*%
X92710000Y-96266000D02*
X91829000Y-97147000D01*
X96580000Y-96266000D02*
X92710000Y-96266000D01*
D40*
%TO.N,AUX3-1*%
X122260000Y-123275000D02*
X124663000Y-123275000D01*
X124663000Y-123275000D02*
X124811000Y-123127000D01*
%TO.N,AUX3-2*%
X124684000Y-120414022D02*
X124684000Y-120206000D01*
X123093022Y-122005000D02*
X124684000Y-120414022D01*
X122260000Y-122005000D02*
X123093022Y-122005000D01*
%TO.N,AUX1-1*%
X107391000Y-120735000D02*
X107666000Y-120460000D01*
X105260000Y-120735000D02*
X107391000Y-120735000D01*
D39*
%TO.N,AUX1-2*%
X105260000Y-122005000D02*
X107391000Y-122005000D01*
X108936000Y-119190000D02*
X108174000Y-118428000D01*
X108174000Y-121222000D02*
X108682000Y-121222000D01*
X107391000Y-122005000D02*
X108174000Y-121222000D01*
X108936000Y-120968000D02*
X108936000Y-119190000D01*
X108682000Y-121222000D02*
X108936000Y-120968000D01*
X108174000Y-118428000D02*
X107920000Y-118428000D01*
D40*
%TO.N,AUX2-1*%
X122260000Y-119465000D02*
X118821000Y-119465000D01*
X118821000Y-119465000D02*
X118080000Y-120206000D01*
D39*
%TO.N,AUX2-2*%
X122260000Y-118195000D02*
X118863000Y-118195000D01*
X118863000Y-118195000D02*
X116810000Y-116142000D01*
%TD*%
%TA.AperFunction,Conductor*%
%TO.N,+5V*%
G36*
X133603838Y-86190306D02*
G01*
X133634305Y-86217685D01*
X133701613Y-86301697D01*
X133728596Y-86367367D01*
X133729279Y-86380906D01*
X133579034Y-130318302D01*
X133579011Y-130324965D01*
X133558776Y-130393017D01*
X133504962Y-130439326D01*
X133443127Y-130450146D01*
X133335720Y-130441693D01*
X133335707Y-130441692D01*
X133333261Y-130441500D01*
X133177729Y-130441500D01*
X133175593Y-130441646D01*
X133175582Y-130441646D01*
X132967452Y-130455835D01*
X132967446Y-130455836D01*
X132963175Y-130456127D01*
X132958980Y-130456996D01*
X132958978Y-130456996D01*
X132826606Y-130484409D01*
X132681658Y-130514426D01*
X132410657Y-130610393D01*
X132155188Y-130742250D01*
X132151687Y-130744711D01*
X132151683Y-130744713D01*
X132109483Y-130774372D01*
X131919977Y-130907559D01*
X131904892Y-130921577D01*
X131722165Y-131091378D01*
X131709378Y-131103260D01*
X131527287Y-131325732D01*
X131377073Y-131570858D01*
X131375347Y-131574791D01*
X131375346Y-131574792D01*
X131266369Y-131823048D01*
X131261517Y-131834102D01*
X131260342Y-131838229D01*
X131260341Y-131838230D01*
X131241359Y-131904866D01*
X131182756Y-132110594D01*
X131142249Y-132395216D01*
X131142227Y-132399505D01*
X131142226Y-132399512D01*
X131140766Y-132678279D01*
X131140743Y-132682703D01*
X131156699Y-132803897D01*
X131159298Y-132823639D01*
X131148359Y-132893788D01*
X131101231Y-132946887D01*
X131034678Y-132966086D01*
X128071571Y-132973199D01*
X128003404Y-132953360D01*
X127956782Y-132899816D01*
X127946277Y-132831298D01*
X127953688Y-132773045D01*
X127953688Y-132773041D01*
X127954086Y-132769915D01*
X127954315Y-132761188D01*
X127956014Y-132696260D01*
X127956571Y-132675000D01*
X127952697Y-132622872D01*
X127936996Y-132411592D01*
X127936996Y-132411591D01*
X127936650Y-132406937D01*
X127935270Y-132400836D01*
X127878361Y-132149331D01*
X127878360Y-132149326D01*
X127877327Y-132144763D01*
X127779902Y-131894238D01*
X127646518Y-131660864D01*
X127641087Y-131653974D01*
X127523533Y-131504858D01*
X127480105Y-131449769D01*
X127284317Y-131265591D01*
X127117422Y-131149811D01*
X127067299Y-131115039D01*
X127067296Y-131115037D01*
X127063457Y-131112374D01*
X127054920Y-131108164D01*
X126826564Y-130995551D01*
X126826561Y-130995550D01*
X126822376Y-130993486D01*
X126774745Y-130978239D01*
X126632258Y-130932629D01*
X126566370Y-130911538D01*
X126561763Y-130910788D01*
X126561760Y-130910787D01*
X126305674Y-130869081D01*
X126305675Y-130869081D01*
X126301063Y-130868330D01*
X126170719Y-130866624D01*
X126036961Y-130864873D01*
X126036958Y-130864873D01*
X126032284Y-130864812D01*
X125765937Y-130901060D01*
X125761451Y-130902368D01*
X125761449Y-130902368D01*
X125733625Y-130910478D01*
X125507874Y-130976278D01*
X125263763Y-131088815D01*
X125234339Y-131108106D01*
X125042881Y-131233631D01*
X125042876Y-131233635D01*
X125038968Y-131236197D01*
X124983469Y-131285732D01*
X124853302Y-131401911D01*
X124838426Y-131415188D01*
X124666544Y-131621854D01*
X124664121Y-131625847D01*
X124585527Y-131755366D01*
X124527096Y-131851656D01*
X124525287Y-131855970D01*
X124525285Y-131855974D01*
X124469706Y-131988517D01*
X124423148Y-132099545D01*
X124356981Y-132360077D01*
X124330050Y-132627526D01*
X124330274Y-132632192D01*
X124330274Y-132632197D01*
X124340756Y-132850411D01*
X124324045Y-132919413D01*
X124272682Y-132968426D01*
X124215204Y-132982456D01*
X119191882Y-132994514D01*
X119123714Y-132974675D01*
X119077092Y-132921131D01*
X119066820Y-132850882D01*
X119096158Y-132786230D01*
X119102485Y-132779419D01*
X120479994Y-131401911D01*
X121323128Y-130558777D01*
X126718777Y-130558777D01*
X126728074Y-130570793D01*
X126771069Y-130600898D01*
X126780555Y-130606376D01*
X126971993Y-130695645D01*
X126982285Y-130699391D01*
X127186309Y-130754059D01*
X127197104Y-130755962D01*
X127407525Y-130774372D01*
X127418475Y-130774372D01*
X127628896Y-130755962D01*
X127639691Y-130754059D01*
X127843715Y-130699391D01*
X127854007Y-130695645D01*
X128045445Y-130606376D01*
X128054931Y-130600898D01*
X128098764Y-130570207D01*
X128107139Y-130559729D01*
X128100071Y-130546281D01*
X127425812Y-129872022D01*
X127411868Y-129864408D01*
X127410035Y-129864539D01*
X127403420Y-129868790D01*
X126725207Y-130547003D01*
X126718777Y-130558777D01*
X121323128Y-130558777D01*
X122376430Y-129505475D01*
X126138628Y-129505475D01*
X126157038Y-129715896D01*
X126158941Y-129726691D01*
X126213609Y-129930715D01*
X126217355Y-129941007D01*
X126306623Y-130132441D01*
X126312103Y-130141932D01*
X126342794Y-130185765D01*
X126353271Y-130194140D01*
X126366718Y-130187072D01*
X127040978Y-129512812D01*
X127047356Y-129501132D01*
X127777408Y-129501132D01*
X127777539Y-129502965D01*
X127781790Y-129509580D01*
X128460003Y-130187793D01*
X128471777Y-130194223D01*
X128483793Y-130184926D01*
X128513897Y-130141932D01*
X128519377Y-130132441D01*
X128608645Y-129941007D01*
X128612391Y-129930715D01*
X128667059Y-129726691D01*
X128668962Y-129715896D01*
X128687372Y-129505475D01*
X128687372Y-129494525D01*
X128668962Y-129284104D01*
X128667059Y-129273309D01*
X128612391Y-129069285D01*
X128608645Y-129058993D01*
X128519377Y-128867559D01*
X128513897Y-128858068D01*
X128483206Y-128814235D01*
X128472729Y-128805860D01*
X128459282Y-128812928D01*
X127785022Y-129487188D01*
X127777408Y-129501132D01*
X127047356Y-129501132D01*
X127048592Y-129498868D01*
X127048461Y-129497035D01*
X127044210Y-129490420D01*
X126365997Y-128812207D01*
X126354223Y-128805777D01*
X126342207Y-128815074D01*
X126312103Y-128858068D01*
X126306623Y-128867559D01*
X126217355Y-129058993D01*
X126213609Y-129069285D01*
X126158941Y-129273309D01*
X126157038Y-129284104D01*
X126138628Y-129494525D01*
X126138628Y-129505475D01*
X122376430Y-129505475D01*
X122652253Y-129229652D01*
X122660539Y-129222112D01*
X122667018Y-129218000D01*
X122713644Y-129168348D01*
X122716398Y-129165507D01*
X122736135Y-129145770D01*
X122738615Y-129142573D01*
X122746320Y-129133551D01*
X122746873Y-129132962D01*
X122776586Y-129101321D01*
X122780405Y-129094375D01*
X122780407Y-129094372D01*
X122786348Y-129083566D01*
X122797199Y-129067047D01*
X122804758Y-129057301D01*
X122809614Y-129051041D01*
X122812759Y-129043772D01*
X122812762Y-129043768D01*
X122827174Y-129010463D01*
X122832391Y-128999813D01*
X122853695Y-128961060D01*
X122858733Y-128941437D01*
X122865137Y-128922734D01*
X122870033Y-128911420D01*
X122870033Y-128911419D01*
X122873181Y-128904145D01*
X122874420Y-128896322D01*
X122874423Y-128896312D01*
X122880099Y-128860476D01*
X122882505Y-128848856D01*
X122891528Y-128813711D01*
X122891528Y-128813710D01*
X122893500Y-128806030D01*
X122893500Y-128785776D01*
X122895051Y-128766065D01*
X122896980Y-128753886D01*
X122898220Y-128746057D01*
X122894059Y-128702038D01*
X122893500Y-128690181D01*
X122893500Y-126899500D01*
X122913502Y-126831379D01*
X122967158Y-126784886D01*
X123019500Y-126773500D01*
X123308134Y-126773500D01*
X123370316Y-126766745D01*
X123506705Y-126715615D01*
X123623261Y-126628261D01*
X123710615Y-126511705D01*
X123761745Y-126375316D01*
X123767815Y-126319440D01*
X123768131Y-126316531D01*
X123768500Y-126313134D01*
X123768500Y-125316866D01*
X123761745Y-125254684D01*
X123750328Y-125224229D01*
X123745145Y-125153423D01*
X123750326Y-125135776D01*
X123761745Y-125105316D01*
X123768500Y-125043134D01*
X123768500Y-124046866D01*
X123768132Y-124043482D01*
X123768123Y-124043309D01*
X123784415Y-123974207D01*
X123835479Y-123924882D01*
X123893939Y-123910500D01*
X124310355Y-123910500D01*
X124361604Y-123921393D01*
X124387373Y-123932866D01*
X124495482Y-123980999D01*
X124528712Y-123995794D01*
X124622112Y-124015647D01*
X124709056Y-124034128D01*
X124709061Y-124034128D01*
X124715513Y-124035500D01*
X124906487Y-124035500D01*
X124912939Y-124034128D01*
X124912944Y-124034128D01*
X124999888Y-124015647D01*
X125093288Y-123995794D01*
X125108292Y-123989114D01*
X125261722Y-123920803D01*
X125261724Y-123920802D01*
X125267752Y-123918118D01*
X125277028Y-123911379D01*
X125368533Y-123844896D01*
X125422253Y-123805866D01*
X125550040Y-123663944D01*
X125551510Y-123661397D01*
X125606657Y-123618875D01*
X125677393Y-123612801D01*
X125741464Y-123647196D01*
X125938279Y-123844012D01*
X126134277Y-124040010D01*
X126168302Y-124102322D01*
X126166888Y-124161716D01*
X126157022Y-124198537D01*
X126137647Y-124420000D01*
X126157022Y-124641463D01*
X126214560Y-124856196D01*
X126216882Y-124861177D01*
X126216883Y-124861178D01*
X126306186Y-125052689D01*
X126306189Y-125052694D01*
X126308512Y-125057676D01*
X126311668Y-125062183D01*
X126311669Y-125062185D01*
X126427920Y-125228208D01*
X126436023Y-125239781D01*
X126593219Y-125396977D01*
X126597727Y-125400134D01*
X126597730Y-125400136D01*
X126658751Y-125442863D01*
X126775323Y-125524488D01*
X126780305Y-125526811D01*
X126780310Y-125526814D01*
X126861757Y-125564793D01*
X126876924Y-125571865D01*
X126885373Y-125575805D01*
X126938658Y-125622722D01*
X126958119Y-125690999D01*
X126937577Y-125758959D01*
X126885373Y-125804195D01*
X126780311Y-125853186D01*
X126780306Y-125853189D01*
X126775324Y-125855512D01*
X126770817Y-125858668D01*
X126770815Y-125858669D01*
X126597730Y-125979864D01*
X126597727Y-125979866D01*
X126593219Y-125983023D01*
X126436023Y-126140219D01*
X126432866Y-126144727D01*
X126432864Y-126144730D01*
X126320994Y-126304498D01*
X126308512Y-126322324D01*
X126306189Y-126327306D01*
X126306186Y-126327311D01*
X126216883Y-126518822D01*
X126214560Y-126523804D01*
X126213138Y-126529112D01*
X126213137Y-126529114D01*
X126195497Y-126594949D01*
X126157022Y-126738537D01*
X126137647Y-126960000D01*
X126157022Y-127181463D01*
X126187970Y-127296961D01*
X126210330Y-127380408D01*
X126214560Y-127396196D01*
X126216882Y-127401177D01*
X126216883Y-127401178D01*
X126306186Y-127592689D01*
X126306189Y-127592694D01*
X126308512Y-127597676D01*
X126311668Y-127602183D01*
X126311669Y-127602185D01*
X126432861Y-127775265D01*
X126436023Y-127779781D01*
X126593219Y-127936977D01*
X126597727Y-127940134D01*
X126597730Y-127940136D01*
X126638565Y-127968729D01*
X126775323Y-128064488D01*
X126780305Y-128066811D01*
X126780310Y-128066814D01*
X126843844Y-128096440D01*
X126885101Y-128115678D01*
X126885965Y-128116081D01*
X126939250Y-128162998D01*
X126958711Y-128231275D01*
X126938169Y-128299235D01*
X126885965Y-128344471D01*
X126780559Y-128393623D01*
X126771068Y-128399103D01*
X126727235Y-128429794D01*
X126718860Y-128440271D01*
X126725928Y-128453718D01*
X127400188Y-129127978D01*
X127414132Y-129135592D01*
X127415965Y-129135461D01*
X127422580Y-129131210D01*
X128100793Y-128452997D01*
X128107223Y-128441223D01*
X128097926Y-128429207D01*
X128054931Y-128399102D01*
X128045445Y-128393624D01*
X127940035Y-128344471D01*
X127886750Y-128297554D01*
X127867289Y-128229277D01*
X127887831Y-128161317D01*
X127940035Y-128116081D01*
X127940900Y-128115678D01*
X127982156Y-128096440D01*
X128045690Y-128066814D01*
X128045695Y-128066811D01*
X128050677Y-128064488D01*
X128187435Y-127968729D01*
X128228270Y-127940136D01*
X128228273Y-127940134D01*
X128232781Y-127936977D01*
X128389977Y-127779781D01*
X128393140Y-127775265D01*
X128514331Y-127602185D01*
X128514332Y-127602183D01*
X128517488Y-127597676D01*
X128519811Y-127592694D01*
X128519814Y-127592689D01*
X128609117Y-127401178D01*
X128609118Y-127401177D01*
X128611440Y-127396196D01*
X128615671Y-127380408D01*
X128638030Y-127296961D01*
X128668978Y-127181463D01*
X128688353Y-126960000D01*
X128668978Y-126738537D01*
X128630503Y-126594949D01*
X128612863Y-126529114D01*
X128612862Y-126529112D01*
X128611440Y-126523804D01*
X128609117Y-126518822D01*
X128519814Y-126327311D01*
X128519811Y-126327306D01*
X128517488Y-126322324D01*
X128505006Y-126304498D01*
X128393136Y-126144730D01*
X128393134Y-126144727D01*
X128389977Y-126140219D01*
X128232781Y-125983023D01*
X128228273Y-125979866D01*
X128228270Y-125979864D01*
X128152505Y-125926813D01*
X128050677Y-125855512D01*
X128045695Y-125853189D01*
X128045690Y-125853186D01*
X127940627Y-125804195D01*
X127887342Y-125757278D01*
X127867881Y-125689001D01*
X127888423Y-125621041D01*
X127940627Y-125575805D01*
X127949077Y-125571865D01*
X127964243Y-125564793D01*
X128045690Y-125526814D01*
X128045695Y-125526811D01*
X128050677Y-125524488D01*
X128167249Y-125442863D01*
X128228270Y-125400136D01*
X128228273Y-125400134D01*
X128232781Y-125396977D01*
X128389977Y-125239781D01*
X128398081Y-125228208D01*
X128514331Y-125062185D01*
X128514332Y-125062183D01*
X128517488Y-125057676D01*
X128519811Y-125052694D01*
X128519814Y-125052689D01*
X128609117Y-124861178D01*
X128609118Y-124861177D01*
X128611440Y-124856196D01*
X128668978Y-124641463D01*
X128688353Y-124420000D01*
X128668978Y-124198537D01*
X128626829Y-124041237D01*
X128612863Y-123989114D01*
X128612862Y-123989112D01*
X128611440Y-123983804D01*
X128580810Y-123918118D01*
X128519814Y-123787311D01*
X128519811Y-123787306D01*
X128517488Y-123782324D01*
X128466257Y-123709158D01*
X128393136Y-123604730D01*
X128393134Y-123604727D01*
X128389977Y-123600219D01*
X128232781Y-123443023D01*
X128228273Y-123439866D01*
X128228270Y-123439864D01*
X128071505Y-123330096D01*
X128050677Y-123315512D01*
X128045695Y-123313189D01*
X128045690Y-123313186D01*
X127940627Y-123264195D01*
X127887342Y-123217278D01*
X127867881Y-123149001D01*
X127888423Y-123081041D01*
X127940627Y-123035805D01*
X128045690Y-122986814D01*
X128045695Y-122986811D01*
X128050677Y-122984488D01*
X128173809Y-122898270D01*
X128228270Y-122860136D01*
X128228273Y-122860134D01*
X128232781Y-122856977D01*
X128389977Y-122699781D01*
X128400866Y-122684231D01*
X128514331Y-122522185D01*
X128514332Y-122522183D01*
X128517488Y-122517676D01*
X128519811Y-122512694D01*
X128519814Y-122512689D01*
X128609117Y-122321178D01*
X128609118Y-122321177D01*
X128611440Y-122316196D01*
X128626979Y-122258206D01*
X128635004Y-122228254D01*
X128668978Y-122101463D01*
X128688353Y-121880000D01*
X128668978Y-121658537D01*
X128626498Y-121500000D01*
X128612863Y-121449114D01*
X128612862Y-121449112D01*
X128611440Y-121443804D01*
X128577025Y-121370000D01*
X128519814Y-121247311D01*
X128519811Y-121247306D01*
X128517488Y-121242324D01*
X128490413Y-121203657D01*
X128393136Y-121064730D01*
X128393134Y-121064727D01*
X128389977Y-121060219D01*
X128232781Y-120903023D01*
X128228273Y-120899866D01*
X128228270Y-120899864D01*
X128106746Y-120814772D01*
X128050677Y-120775512D01*
X128045695Y-120773189D01*
X128045690Y-120773186D01*
X127940627Y-120724195D01*
X127887342Y-120677278D01*
X127867881Y-120609001D01*
X127888423Y-120541041D01*
X127940627Y-120495805D01*
X127949210Y-120491803D01*
X127986316Y-120474500D01*
X128045690Y-120446814D01*
X128045695Y-120446811D01*
X128050677Y-120444488D01*
X128201959Y-120338559D01*
X128228270Y-120320136D01*
X128228273Y-120320134D01*
X128232781Y-120316977D01*
X128389977Y-120159781D01*
X128400866Y-120144231D01*
X128514331Y-119982185D01*
X128514332Y-119982183D01*
X128517488Y-119977676D01*
X128519811Y-119972694D01*
X128519814Y-119972689D01*
X128609117Y-119781178D01*
X128609118Y-119781177D01*
X128611440Y-119776196D01*
X128668978Y-119561463D01*
X128688353Y-119340000D01*
X128668978Y-119118537D01*
X128626194Y-118958866D01*
X128612863Y-118909114D01*
X128612862Y-118909112D01*
X128611440Y-118903804D01*
X128582165Y-118841024D01*
X128519814Y-118707311D01*
X128519811Y-118707306D01*
X128517488Y-118702324D01*
X128511053Y-118693134D01*
X128393136Y-118524730D01*
X128393134Y-118524727D01*
X128389977Y-118520219D01*
X128232781Y-118363023D01*
X128228273Y-118359866D01*
X128228270Y-118359864D01*
X128125857Y-118288154D01*
X128050677Y-118235512D01*
X128045695Y-118233189D01*
X128045690Y-118233186D01*
X127940627Y-118184195D01*
X127887342Y-118137278D01*
X127867881Y-118069001D01*
X127888423Y-118001041D01*
X127940627Y-117955805D01*
X128045690Y-117906814D01*
X128045695Y-117906811D01*
X128050677Y-117904488D01*
X128155674Y-117830968D01*
X128228270Y-117780136D01*
X128228273Y-117780134D01*
X128232781Y-117776977D01*
X128389977Y-117619781D01*
X128400866Y-117604231D01*
X128514331Y-117442185D01*
X128514332Y-117442183D01*
X128517488Y-117437676D01*
X128519811Y-117432694D01*
X128519814Y-117432689D01*
X128609117Y-117241178D01*
X128609118Y-117241177D01*
X128611440Y-117236196D01*
X128668978Y-117021463D01*
X128688353Y-116800000D01*
X128668978Y-116578537D01*
X128624924Y-116414128D01*
X128612863Y-116369114D01*
X128612862Y-116369112D01*
X128611440Y-116363804D01*
X128580810Y-116298118D01*
X128519814Y-116167311D01*
X128519811Y-116167306D01*
X128517488Y-116162324D01*
X128490895Y-116124345D01*
X128393136Y-115984730D01*
X128393134Y-115984727D01*
X128389977Y-115980219D01*
X128232781Y-115823023D01*
X128228273Y-115819866D01*
X128228270Y-115819864D01*
X128139543Y-115757737D01*
X128050677Y-115695512D01*
X128045695Y-115693189D01*
X128045690Y-115693186D01*
X127854178Y-115603883D01*
X127854177Y-115603882D01*
X127849196Y-115601560D01*
X127843888Y-115600138D01*
X127843886Y-115600137D01*
X127739560Y-115572183D01*
X127634463Y-115544022D01*
X127413000Y-115524647D01*
X127191537Y-115544022D01*
X127086440Y-115572183D01*
X126982114Y-115600137D01*
X126982112Y-115600138D01*
X126976804Y-115601560D01*
X126971823Y-115603882D01*
X126971822Y-115603883D01*
X126780311Y-115693186D01*
X126780306Y-115693189D01*
X126775324Y-115695512D01*
X126770817Y-115698668D01*
X126770815Y-115698669D01*
X126597730Y-115819864D01*
X126597727Y-115819866D01*
X126593219Y-115823023D01*
X126436023Y-115980219D01*
X126432866Y-115984727D01*
X126432864Y-115984730D01*
X126335105Y-116124345D01*
X126308512Y-116162324D01*
X126306189Y-116167306D01*
X126306186Y-116167311D01*
X126245190Y-116298118D01*
X126214560Y-116363804D01*
X126213138Y-116369112D01*
X126213137Y-116369114D01*
X126201076Y-116414128D01*
X126157022Y-116578537D01*
X126149056Y-116669593D01*
X126123193Y-116735711D01*
X126065689Y-116777351D01*
X125994802Y-116781292D01*
X125934440Y-116747707D01*
X124594405Y-115407672D01*
X124560379Y-115345360D01*
X124557500Y-115318577D01*
X124557500Y-114901906D01*
X124577502Y-114833785D01*
X124631158Y-114787292D01*
X124701432Y-114777188D01*
X124766012Y-114806682D01*
X124774218Y-114814874D01*
X124774281Y-114814810D01*
X124884356Y-114923928D01*
X124965180Y-115004050D01*
X124968942Y-115006808D01*
X124968945Y-115006811D01*
X125136574Y-115129721D01*
X125181954Y-115162995D01*
X125186089Y-115165171D01*
X125186093Y-115165173D01*
X125392932Y-115273997D01*
X125419840Y-115288154D01*
X125495393Y-115314538D01*
X125656409Y-115370767D01*
X125673613Y-115376775D01*
X125678206Y-115377647D01*
X125933109Y-115426042D01*
X125933112Y-115426042D01*
X125937698Y-115426913D01*
X126065370Y-115431929D01*
X126201625Y-115437283D01*
X126201630Y-115437283D01*
X126206293Y-115437466D01*
X126310607Y-115426042D01*
X126468844Y-115408713D01*
X126468850Y-115408712D01*
X126473497Y-115408203D01*
X126478021Y-115407012D01*
X126728918Y-115340956D01*
X126728920Y-115340955D01*
X126733441Y-115339765D01*
X126770985Y-115323635D01*
X126976120Y-115235502D01*
X126976122Y-115235501D01*
X126980414Y-115233657D01*
X127104507Y-115156866D01*
X127205017Y-115094669D01*
X127205021Y-115094666D01*
X127208990Y-115092210D01*
X127414149Y-114918530D01*
X127591382Y-114716434D01*
X127642583Y-114636834D01*
X127721541Y-114514079D01*
X127736797Y-114490361D01*
X127847199Y-114245278D01*
X127854372Y-114219846D01*
X127918893Y-113991072D01*
X127918894Y-113991069D01*
X127920163Y-113986568D01*
X127938043Y-113846019D01*
X127953688Y-113723045D01*
X127953688Y-113723041D01*
X127954086Y-113719915D01*
X127954457Y-113705769D01*
X127956488Y-113628160D01*
X127956571Y-113625000D01*
X127936650Y-113356937D01*
X127935619Y-113352379D01*
X127878361Y-113099331D01*
X127878360Y-113099326D01*
X127877327Y-113094763D01*
X127779902Y-112844238D01*
X127646518Y-112610864D01*
X127641765Y-112604834D01*
X127570936Y-112514988D01*
X127480105Y-112399769D01*
X127284317Y-112215591D01*
X127063457Y-112062374D01*
X127059264Y-112060306D01*
X126826564Y-111945551D01*
X126826561Y-111945550D01*
X126822376Y-111943486D01*
X126774745Y-111928239D01*
X126720621Y-111910914D01*
X126566370Y-111861538D01*
X126561763Y-111860788D01*
X126561760Y-111860787D01*
X126305674Y-111819081D01*
X126305675Y-111819081D01*
X126301063Y-111818330D01*
X126170719Y-111816624D01*
X126036961Y-111814873D01*
X126036958Y-111814873D01*
X126032284Y-111814812D01*
X125765937Y-111851060D01*
X125507874Y-111926278D01*
X125263763Y-112038815D01*
X125259854Y-112041378D01*
X125042881Y-112183631D01*
X125042876Y-112183635D01*
X125038968Y-112186197D01*
X124995262Y-112225206D01*
X124903886Y-112306763D01*
X124838426Y-112365188D01*
X124792802Y-112420045D01*
X124687158Y-112547068D01*
X124628221Y-112586652D01*
X124557239Y-112588088D01*
X124496748Y-112550921D01*
X124483886Y-112532844D01*
X124483319Y-112531412D01*
X124471387Y-112514988D01*
X124457233Y-112495507D01*
X124450716Y-112485585D01*
X124432172Y-112454228D01*
X124432170Y-112454225D01*
X124428134Y-112447401D01*
X124413747Y-112433014D01*
X124400906Y-112417980D01*
X124393602Y-112407927D01*
X124388942Y-112401513D01*
X124354750Y-112373227D01*
X124345971Y-112365238D01*
X123805405Y-111824672D01*
X123771379Y-111762360D01*
X123768500Y-111735577D01*
X123768500Y-111346866D01*
X123761745Y-111284684D01*
X123750328Y-111254229D01*
X123745145Y-111183423D01*
X123750326Y-111165776D01*
X123761745Y-111135316D01*
X123768500Y-111073134D01*
X123768500Y-110076866D01*
X123761745Y-110014684D01*
X123750328Y-109984229D01*
X123745145Y-109913423D01*
X123750326Y-109895776D01*
X123761745Y-109865316D01*
X123768500Y-109803134D01*
X123768500Y-108806866D01*
X123761745Y-108744684D01*
X123710615Y-108608295D01*
X123623261Y-108491739D01*
X123506705Y-108404385D01*
X123370316Y-108353255D01*
X123308134Y-108346500D01*
X121211866Y-108346500D01*
X121149684Y-108353255D01*
X121013295Y-108404385D01*
X120896739Y-108491739D01*
X120809385Y-108608295D01*
X120809139Y-108608951D01*
X120761825Y-108656157D01*
X120701567Y-108671500D01*
X120338768Y-108671500D01*
X120327585Y-108670973D01*
X120320092Y-108669298D01*
X120312166Y-108669547D01*
X120312165Y-108669547D01*
X120252002Y-108671438D01*
X120248044Y-108671500D01*
X120220144Y-108671500D01*
X120216154Y-108672004D01*
X120204320Y-108672936D01*
X120160111Y-108674326D01*
X120152497Y-108676538D01*
X120152492Y-108676539D01*
X120140659Y-108679977D01*
X120121296Y-108683988D01*
X120101203Y-108686526D01*
X120093836Y-108689443D01*
X120093831Y-108689444D01*
X120060092Y-108702802D01*
X120048865Y-108706646D01*
X120006407Y-108718982D01*
X119999581Y-108723019D01*
X119988972Y-108729293D01*
X119971224Y-108737988D01*
X119952383Y-108745448D01*
X119945967Y-108750110D01*
X119945966Y-108750110D01*
X119916613Y-108771436D01*
X119906693Y-108777952D01*
X119875465Y-108796420D01*
X119875462Y-108796422D01*
X119868638Y-108800458D01*
X119854317Y-108814779D01*
X119839284Y-108827619D01*
X119822893Y-108839528D01*
X119814217Y-108850016D01*
X119794702Y-108873605D01*
X119786712Y-108882384D01*
X115928000Y-112741095D01*
X115865688Y-112775121D01*
X115838905Y-112778000D01*
X115783013Y-112778000D01*
X115776561Y-112779372D01*
X115776556Y-112779372D01*
X115697700Y-112796134D01*
X115596212Y-112817706D01*
X115590182Y-112820391D01*
X115590181Y-112820391D01*
X115427778Y-112892697D01*
X115427776Y-112892698D01*
X115421748Y-112895382D01*
X115416407Y-112899262D01*
X115416406Y-112899263D01*
X115400754Y-112910635D01*
X115267247Y-113007634D01*
X115262826Y-113012544D01*
X115262825Y-113012545D01*
X115225430Y-113054077D01*
X115139460Y-113149556D01*
X115084277Y-113245135D01*
X115049404Y-113305538D01*
X115043973Y-113314944D01*
X114984958Y-113496572D01*
X114970518Y-113633967D01*
X114967593Y-113661793D01*
X114940580Y-113727450D01*
X114931378Y-113737718D01*
X114909501Y-113759595D01*
X114847189Y-113793621D01*
X114820406Y-113796500D01*
X111949595Y-113796500D01*
X111881474Y-113776498D01*
X111860500Y-113759595D01*
X111580622Y-113479717D01*
X111546596Y-113417405D01*
X111544407Y-113403792D01*
X111539483Y-113356937D01*
X111538477Y-113347366D01*
X111527732Y-113245135D01*
X111527732Y-113245133D01*
X111527042Y-113238572D01*
X111468027Y-113056944D01*
X111461265Y-113045231D01*
X111379766Y-112904072D01*
X111372540Y-112891556D01*
X111343173Y-112858940D01*
X111249175Y-112754545D01*
X111249174Y-112754544D01*
X111244753Y-112749634D01*
X111090252Y-112637382D01*
X111084224Y-112634698D01*
X111084222Y-112634697D01*
X110921819Y-112562391D01*
X110921818Y-112562391D01*
X110915788Y-112559706D01*
X110810687Y-112537366D01*
X110735444Y-112521372D01*
X110735439Y-112521372D01*
X110728987Y-112520000D01*
X110673094Y-112520000D01*
X110604973Y-112499998D01*
X110583999Y-112483095D01*
X107013652Y-108912747D01*
X107006112Y-108904461D01*
X107002000Y-108897982D01*
X106952348Y-108851356D01*
X106949507Y-108848602D01*
X106929770Y-108828865D01*
X106926573Y-108826385D01*
X106917551Y-108818680D01*
X106901353Y-108803469D01*
X106885321Y-108788414D01*
X106878375Y-108784595D01*
X106878372Y-108784593D01*
X106867566Y-108778652D01*
X106851047Y-108767801D01*
X106850583Y-108767441D01*
X106835041Y-108755386D01*
X106801485Y-108740865D01*
X106746911Y-108695454D01*
X106733544Y-108669458D01*
X106713767Y-108616703D01*
X106710615Y-108608295D01*
X106623261Y-108491739D01*
X106506705Y-108404385D01*
X106370316Y-108353255D01*
X106308134Y-108346500D01*
X104211866Y-108346500D01*
X104149684Y-108353255D01*
X104013295Y-108404385D01*
X104006112Y-108409769D01*
X104005943Y-108409861D01*
X103936586Y-108425029D01*
X103870038Y-108400292D01*
X103856340Y-108388435D01*
X103343652Y-107875747D01*
X103336118Y-107867470D01*
X103333098Y-107862712D01*
X103306105Y-107799889D01*
X103317792Y-107729861D01*
X103365484Y-107677268D01*
X103432127Y-107658780D01*
X125364669Y-107820957D01*
X127940000Y-107840000D01*
X127940125Y-107804912D01*
X127979936Y-96618116D01*
X127979936Y-96618114D01*
X127980000Y-96600000D01*
X99540000Y-96600000D01*
X99540000Y-107630000D01*
X100473083Y-107636900D01*
X100998058Y-107640782D01*
X101066029Y-107661288D01*
X101112124Y-107715286D01*
X101121707Y-107785632D01*
X101091738Y-107849993D01*
X101086221Y-107855875D01*
X100827742Y-108114353D01*
X100819463Y-108121887D01*
X100812982Y-108126000D01*
X100804253Y-108135296D01*
X100766356Y-108175652D01*
X100763601Y-108178494D01*
X100743865Y-108198230D01*
X100741385Y-108201427D01*
X100733682Y-108210447D01*
X100703414Y-108242679D01*
X100699595Y-108249625D01*
X100699593Y-108249628D01*
X100693652Y-108260434D01*
X100682801Y-108276953D01*
X100670386Y-108292959D01*
X100667241Y-108300228D01*
X100667238Y-108300232D01*
X100652826Y-108333537D01*
X100647609Y-108344187D01*
X100626305Y-108382940D01*
X100624334Y-108390615D01*
X100624334Y-108390616D01*
X100621267Y-108402562D01*
X100614863Y-108421266D01*
X100606819Y-108439855D01*
X100605580Y-108447678D01*
X100605577Y-108447688D01*
X100599901Y-108483524D01*
X100597495Y-108495144D01*
X100586500Y-108537970D01*
X100586500Y-108558224D01*
X100584949Y-108577934D01*
X100581780Y-108597943D01*
X100582526Y-108605835D01*
X100585941Y-108641961D01*
X100586500Y-108653819D01*
X100586500Y-108868217D01*
X100566498Y-108936338D01*
X100566384Y-108936499D01*
X100563512Y-108939371D01*
X100480106Y-109080403D01*
X100434394Y-109237746D01*
X100431500Y-109274516D01*
X100431500Y-109745484D01*
X100434394Y-109782254D01*
X100480106Y-109939597D01*
X100484141Y-109946419D01*
X100484141Y-109946420D01*
X100559278Y-110073469D01*
X100560327Y-110075243D01*
X100563512Y-110080629D01*
X100562644Y-110081143D01*
X100586006Y-110140635D01*
X100586500Y-110151783D01*
X100586500Y-110202939D01*
X100568954Y-110267078D01*
X100490106Y-110400403D01*
X100444394Y-110557746D01*
X100441500Y-110594516D01*
X100441500Y-111065484D01*
X100441693Y-111067937D01*
X100441694Y-111067961D01*
X100443487Y-111090737D01*
X100428893Y-111160218D01*
X100379051Y-111210778D01*
X100364259Y-111217777D01*
X100354098Y-111221800D01*
X100342869Y-111225645D01*
X100300407Y-111237982D01*
X100293585Y-111242016D01*
X100293579Y-111242019D01*
X100282968Y-111248294D01*
X100265218Y-111256990D01*
X100253756Y-111261528D01*
X100253751Y-111261531D01*
X100246383Y-111264448D01*
X100239968Y-111269109D01*
X100210625Y-111290427D01*
X100200707Y-111296943D01*
X100182019Y-111307995D01*
X100162637Y-111319458D01*
X100148313Y-111333782D01*
X100133281Y-111346621D01*
X100116893Y-111358528D01*
X100088712Y-111392593D01*
X100080722Y-111401373D01*
X98891747Y-112590348D01*
X98883461Y-112597888D01*
X98876982Y-112602000D01*
X98871557Y-112607777D01*
X98830357Y-112651651D01*
X98827602Y-112654493D01*
X98807865Y-112674230D01*
X98805385Y-112677427D01*
X98797682Y-112686447D01*
X98767414Y-112718679D01*
X98763595Y-112725625D01*
X98763593Y-112725628D01*
X98757652Y-112736434D01*
X98746801Y-112752953D01*
X98734386Y-112768959D01*
X98731241Y-112776228D01*
X98731238Y-112776232D01*
X98716826Y-112809537D01*
X98711609Y-112820187D01*
X98690305Y-112858940D01*
X98688334Y-112866615D01*
X98688334Y-112866616D01*
X98685267Y-112878562D01*
X98678863Y-112897266D01*
X98670819Y-112915855D01*
X98669580Y-112923678D01*
X98669577Y-112923688D01*
X98663901Y-112959524D01*
X98661495Y-112971144D01*
X98650500Y-113013970D01*
X98650500Y-113034224D01*
X98648949Y-113053934D01*
X98645780Y-113073943D01*
X98646526Y-113081835D01*
X98649941Y-113117961D01*
X98650500Y-113129819D01*
X98650500Y-115087733D01*
X98649973Y-115098916D01*
X98648298Y-115106409D01*
X98648547Y-115114335D01*
X98648547Y-115114336D01*
X98650438Y-115174486D01*
X98650500Y-115178445D01*
X98650500Y-115206356D01*
X98650997Y-115210290D01*
X98650997Y-115210291D01*
X98651005Y-115210356D01*
X98651938Y-115222193D01*
X98653327Y-115266389D01*
X98656088Y-115275891D01*
X98658978Y-115285839D01*
X98662987Y-115305200D01*
X98665526Y-115325297D01*
X98668445Y-115332668D01*
X98668445Y-115332670D01*
X98681804Y-115366412D01*
X98685649Y-115377642D01*
X98694182Y-115407012D01*
X98697982Y-115420093D01*
X98702015Y-115426912D01*
X98702017Y-115426917D01*
X98708293Y-115437528D01*
X98716988Y-115455276D01*
X98724448Y-115474117D01*
X98729110Y-115480533D01*
X98729110Y-115480534D01*
X98750436Y-115509887D01*
X98756952Y-115519807D01*
X98770990Y-115543543D01*
X98779458Y-115557862D01*
X98793779Y-115572183D01*
X98806619Y-115587216D01*
X98818528Y-115603607D01*
X98852605Y-115631798D01*
X98861384Y-115639788D01*
X99167751Y-115946155D01*
X99201777Y-116008467D01*
X99196712Y-116079282D01*
X99167751Y-116124345D01*
X96190140Y-119101955D01*
X93237500Y-122054595D01*
X93175188Y-122088621D01*
X93148405Y-122091500D01*
X93092513Y-122091500D01*
X93086061Y-122092872D01*
X93086056Y-122092872D01*
X93020645Y-122106776D01*
X92905712Y-122131206D01*
X92899682Y-122133891D01*
X92899681Y-122133891D01*
X92737278Y-122206197D01*
X92737276Y-122206198D01*
X92731248Y-122208882D01*
X92725907Y-122212762D01*
X92725906Y-122212763D01*
X92607954Y-122298461D01*
X92576747Y-122321134D01*
X92572332Y-122326037D01*
X92567420Y-122330460D01*
X92565779Y-122328638D01*
X92514790Y-122360050D01*
X92481601Y-122364500D01*
X81329032Y-122364500D01*
X81317793Y-122363970D01*
X81310281Y-122362291D01*
X81302356Y-122362540D01*
X81302355Y-122362540D01*
X81241970Y-122364438D01*
X81238012Y-122364500D01*
X81210017Y-122364500D01*
X81206083Y-122364997D01*
X81206081Y-122364997D01*
X81205994Y-122365008D01*
X81194160Y-122365940D01*
X81149795Y-122367335D01*
X81142182Y-122369547D01*
X81142181Y-122369547D01*
X81130252Y-122373013D01*
X81110888Y-122377023D01*
X81098560Y-122378580D01*
X81098558Y-122378580D01*
X81090701Y-122379573D01*
X81083337Y-122382489D01*
X81083332Y-122382490D01*
X81049444Y-122395907D01*
X81038215Y-122399752D01*
X81024241Y-122403812D01*
X80995607Y-122412131D01*
X80988781Y-122416168D01*
X80978091Y-122422490D01*
X80960341Y-122431187D01*
X80941412Y-122438681D01*
X80934998Y-122443341D01*
X80905514Y-122464762D01*
X80895594Y-122471278D01*
X80864229Y-122489827D01*
X80864226Y-122489829D01*
X80857402Y-122493865D01*
X80843014Y-122508253D01*
X80827980Y-122521094D01*
X80825344Y-122523009D01*
X80811513Y-122533058D01*
X80806460Y-122539166D01*
X80783228Y-122567249D01*
X80775238Y-122576029D01*
X77063672Y-126287595D01*
X77001360Y-126321621D01*
X76974577Y-126324500D01*
X70418603Y-126324500D01*
X70350482Y-126304498D01*
X70315390Y-126270770D01*
X70227140Y-126144735D01*
X70227135Y-126144729D01*
X70223977Y-126140219D01*
X70066781Y-125983023D01*
X70062273Y-125979866D01*
X70062270Y-125979864D01*
X69986505Y-125926813D01*
X69884677Y-125855512D01*
X69879695Y-125853189D01*
X69879690Y-125853186D01*
X69774627Y-125804195D01*
X69721342Y-125757278D01*
X69701881Y-125689001D01*
X69722423Y-125621041D01*
X69774627Y-125575805D01*
X69783077Y-125571865D01*
X69798243Y-125564793D01*
X69879690Y-125526814D01*
X69879695Y-125526811D01*
X69884677Y-125524488D01*
X70001249Y-125442863D01*
X70062270Y-125400136D01*
X70062273Y-125400134D01*
X70066781Y-125396977D01*
X70223977Y-125239781D01*
X70232081Y-125228208D01*
X70348331Y-125062185D01*
X70348332Y-125062183D01*
X70351488Y-125057676D01*
X70353811Y-125052694D01*
X70353814Y-125052689D01*
X70443117Y-124861178D01*
X70443118Y-124861177D01*
X70445440Y-124856196D01*
X70502978Y-124641463D01*
X70522353Y-124420000D01*
X70502978Y-124198537D01*
X70493992Y-124165000D01*
X74151372Y-124165000D01*
X74171854Y-124425249D01*
X74173008Y-124430056D01*
X74173009Y-124430062D01*
X74183563Y-124474020D01*
X74232796Y-124679089D01*
X74234689Y-124683660D01*
X74234690Y-124683662D01*
X74303957Y-124850886D01*
X74332697Y-124920271D01*
X74469097Y-125142856D01*
X74638637Y-125341363D01*
X74837144Y-125510903D01*
X75059729Y-125647303D01*
X75064299Y-125649196D01*
X75064303Y-125649198D01*
X75296338Y-125745310D01*
X75300911Y-125747204D01*
X75349874Y-125758959D01*
X75549938Y-125806991D01*
X75549944Y-125806992D01*
X75554751Y-125808146D01*
X75815000Y-125828628D01*
X76075249Y-125808146D01*
X76080056Y-125806992D01*
X76080062Y-125806991D01*
X76280126Y-125758959D01*
X76329089Y-125747204D01*
X76333662Y-125745310D01*
X76565697Y-125649198D01*
X76565701Y-125649196D01*
X76570271Y-125647303D01*
X76792856Y-125510903D01*
X76991363Y-125341363D01*
X77160903Y-125142856D01*
X77297303Y-124920271D01*
X77326044Y-124850886D01*
X77395310Y-124683662D01*
X77395311Y-124683660D01*
X77397204Y-124679089D01*
X77446437Y-124474020D01*
X77456991Y-124430062D01*
X77456992Y-124430056D01*
X77458146Y-124425249D01*
X77478628Y-124165000D01*
X77458146Y-123904751D01*
X77456992Y-123899944D01*
X77456991Y-123899938D01*
X77405038Y-123683543D01*
X77397204Y-123650911D01*
X77395214Y-123646107D01*
X77299198Y-123414303D01*
X77299196Y-123414299D01*
X77297303Y-123409729D01*
X77160903Y-123187144D01*
X76991363Y-122988637D01*
X76792856Y-122819097D01*
X76570271Y-122682697D01*
X76565701Y-122680804D01*
X76565697Y-122680802D01*
X76333662Y-122584690D01*
X76333660Y-122584689D01*
X76329089Y-122582796D01*
X76223558Y-122557460D01*
X76080062Y-122523009D01*
X76080056Y-122523008D01*
X76075249Y-122521854D01*
X75815000Y-122501372D01*
X75554751Y-122521854D01*
X75549944Y-122523008D01*
X75549938Y-122523009D01*
X75406442Y-122557460D01*
X75300911Y-122582796D01*
X75296340Y-122584689D01*
X75296338Y-122584690D01*
X75064303Y-122680802D01*
X75064299Y-122680804D01*
X75059729Y-122682697D01*
X74837144Y-122819097D01*
X74638637Y-122988637D01*
X74469097Y-123187144D01*
X74332697Y-123409729D01*
X74330804Y-123414299D01*
X74330802Y-123414303D01*
X74234786Y-123646107D01*
X74232796Y-123650911D01*
X74224962Y-123683543D01*
X74173009Y-123899938D01*
X74173008Y-123899944D01*
X74171854Y-123904751D01*
X74151372Y-124165000D01*
X70493992Y-124165000D01*
X70460829Y-124041237D01*
X70446863Y-123989114D01*
X70446862Y-123989112D01*
X70445440Y-123983804D01*
X70414810Y-123918118D01*
X70353814Y-123787311D01*
X70353811Y-123787306D01*
X70351488Y-123782324D01*
X70300257Y-123709158D01*
X70227136Y-123604730D01*
X70227134Y-123604727D01*
X70223977Y-123600219D01*
X70066781Y-123443023D01*
X70062273Y-123439866D01*
X70062270Y-123439864D01*
X69905505Y-123330096D01*
X69884677Y-123315512D01*
X69879695Y-123313189D01*
X69879690Y-123313186D01*
X69774627Y-123264195D01*
X69721342Y-123217278D01*
X69701881Y-123149001D01*
X69722423Y-123081041D01*
X69774627Y-123035805D01*
X69879690Y-122986814D01*
X69879695Y-122986811D01*
X69884677Y-122984488D01*
X70007809Y-122898270D01*
X70062270Y-122860136D01*
X70062273Y-122860134D01*
X70066781Y-122856977D01*
X70223977Y-122699781D01*
X70234866Y-122684231D01*
X70348331Y-122522185D01*
X70348332Y-122522183D01*
X70351488Y-122517676D01*
X70353811Y-122512694D01*
X70353814Y-122512689D01*
X70443117Y-122321178D01*
X70443118Y-122321177D01*
X70445440Y-122316196D01*
X70460979Y-122258206D01*
X70469004Y-122228254D01*
X70502978Y-122101463D01*
X70522353Y-121880000D01*
X70502978Y-121658537D01*
X70460498Y-121500000D01*
X70446863Y-121449114D01*
X70446862Y-121449112D01*
X70445440Y-121443804D01*
X70411025Y-121370000D01*
X70353814Y-121247311D01*
X70353811Y-121247306D01*
X70351488Y-121242324D01*
X70324413Y-121203657D01*
X70227136Y-121064730D01*
X70227134Y-121064727D01*
X70223977Y-121060219D01*
X70066781Y-120903023D01*
X70062273Y-120899866D01*
X70062270Y-120899864D01*
X69940746Y-120814772D01*
X69884677Y-120775512D01*
X69879695Y-120773189D01*
X69879690Y-120773186D01*
X69774627Y-120724195D01*
X69721342Y-120677278D01*
X69701881Y-120609001D01*
X69722423Y-120541041D01*
X69774627Y-120495805D01*
X69783210Y-120491803D01*
X69820316Y-120474500D01*
X69879690Y-120446814D01*
X69879695Y-120446811D01*
X69884677Y-120444488D01*
X70035959Y-120338559D01*
X70062270Y-120320136D01*
X70062273Y-120320134D01*
X70066781Y-120316977D01*
X70223977Y-120159781D01*
X70234866Y-120144231D01*
X70348331Y-119982185D01*
X70348332Y-119982183D01*
X70351488Y-119977676D01*
X70353811Y-119972694D01*
X70353814Y-119972689D01*
X70443117Y-119781178D01*
X70443118Y-119781177D01*
X70445440Y-119776196D01*
X70502978Y-119561463D01*
X70522353Y-119340000D01*
X70502978Y-119118537D01*
X70460194Y-118958866D01*
X70446863Y-118909114D01*
X70446862Y-118909112D01*
X70445440Y-118903804D01*
X70416165Y-118841024D01*
X70353814Y-118707311D01*
X70353811Y-118707306D01*
X70351488Y-118702324D01*
X70345053Y-118693134D01*
X70227136Y-118524730D01*
X70227134Y-118524727D01*
X70223977Y-118520219D01*
X70066781Y-118363023D01*
X70062273Y-118359866D01*
X70062270Y-118359864D01*
X69959857Y-118288154D01*
X69884677Y-118235512D01*
X69879695Y-118233189D01*
X69879690Y-118233186D01*
X69774627Y-118184195D01*
X69721342Y-118137278D01*
X69701881Y-118069001D01*
X69722423Y-118001041D01*
X69774627Y-117955805D01*
X69879690Y-117906814D01*
X69879695Y-117906811D01*
X69884677Y-117904488D01*
X69989674Y-117830968D01*
X70062270Y-117780136D01*
X70062273Y-117780134D01*
X70066781Y-117776977D01*
X70223977Y-117619781D01*
X70234866Y-117604231D01*
X70348331Y-117442185D01*
X70348332Y-117442183D01*
X70351488Y-117437676D01*
X70353811Y-117432694D01*
X70353814Y-117432689D01*
X70443117Y-117241178D01*
X70443118Y-117241177D01*
X70445440Y-117236196D01*
X70502978Y-117021463D01*
X70522353Y-116800000D01*
X70502978Y-116578537D01*
X70458924Y-116414128D01*
X70446863Y-116369114D01*
X70446862Y-116369112D01*
X70445440Y-116363804D01*
X70414810Y-116298118D01*
X70353814Y-116167311D01*
X70353811Y-116167306D01*
X70351488Y-116162324D01*
X70324895Y-116124345D01*
X70227136Y-115984730D01*
X70227134Y-115984727D01*
X70223977Y-115980219D01*
X70066781Y-115823023D01*
X70062273Y-115819866D01*
X70062270Y-115819864D01*
X69973543Y-115757737D01*
X69884677Y-115695512D01*
X69879695Y-115693189D01*
X69879690Y-115693186D01*
X69688178Y-115603883D01*
X69688177Y-115603882D01*
X69683196Y-115601560D01*
X69677888Y-115600138D01*
X69677886Y-115600137D01*
X69573560Y-115572183D01*
X69468463Y-115544022D01*
X69247000Y-115524647D01*
X69025537Y-115544022D01*
X68920440Y-115572183D01*
X68816114Y-115600137D01*
X68816112Y-115600138D01*
X68810804Y-115601560D01*
X68805823Y-115603882D01*
X68805822Y-115603883D01*
X68614311Y-115693186D01*
X68614306Y-115693189D01*
X68609324Y-115695512D01*
X68604817Y-115698668D01*
X68604815Y-115698669D01*
X68431730Y-115819864D01*
X68431727Y-115819866D01*
X68427219Y-115823023D01*
X68270023Y-115980219D01*
X68266866Y-115984727D01*
X68266864Y-115984730D01*
X68169105Y-116124345D01*
X68142512Y-116162324D01*
X68140189Y-116167306D01*
X68140186Y-116167311D01*
X68079190Y-116298118D01*
X68048560Y-116363804D01*
X68047138Y-116369112D01*
X68047137Y-116369114D01*
X68035076Y-116414128D01*
X67991022Y-116578537D01*
X67971647Y-116800000D01*
X67991022Y-117021463D01*
X68048560Y-117236196D01*
X68050882Y-117241177D01*
X68050883Y-117241178D01*
X68140186Y-117432689D01*
X68140189Y-117432694D01*
X68142512Y-117437676D01*
X68145668Y-117442183D01*
X68145669Y-117442185D01*
X68259135Y-117604231D01*
X68270023Y-117619781D01*
X68427219Y-117776977D01*
X68431727Y-117780134D01*
X68431730Y-117780136D01*
X68504326Y-117830968D01*
X68609323Y-117904488D01*
X68614305Y-117906811D01*
X68614310Y-117906814D01*
X68719373Y-117955805D01*
X68772658Y-118002722D01*
X68792119Y-118070999D01*
X68771577Y-118138959D01*
X68719373Y-118184195D01*
X68614311Y-118233186D01*
X68614306Y-118233189D01*
X68609324Y-118235512D01*
X68604817Y-118238668D01*
X68604815Y-118238669D01*
X68431730Y-118359864D01*
X68431727Y-118359866D01*
X68427219Y-118363023D01*
X68270023Y-118520219D01*
X68266866Y-118524727D01*
X68266864Y-118524730D01*
X68148947Y-118693134D01*
X68142512Y-118702324D01*
X68140189Y-118707306D01*
X68140186Y-118707311D01*
X68077835Y-118841024D01*
X68048560Y-118903804D01*
X68047138Y-118909112D01*
X68047137Y-118909114D01*
X68033806Y-118958866D01*
X67991022Y-119118537D01*
X67971647Y-119340000D01*
X67991022Y-119561463D01*
X68048560Y-119776196D01*
X68050882Y-119781177D01*
X68050883Y-119781178D01*
X68140186Y-119972689D01*
X68140189Y-119972694D01*
X68142512Y-119977676D01*
X68145668Y-119982183D01*
X68145669Y-119982185D01*
X68259135Y-120144231D01*
X68270023Y-120159781D01*
X68427219Y-120316977D01*
X68431727Y-120320134D01*
X68431730Y-120320136D01*
X68458041Y-120338559D01*
X68609323Y-120444488D01*
X68614305Y-120446811D01*
X68614310Y-120446814D01*
X68673684Y-120474500D01*
X68710791Y-120491803D01*
X68719373Y-120495805D01*
X68772658Y-120542722D01*
X68792119Y-120610999D01*
X68771577Y-120678959D01*
X68719373Y-120724195D01*
X68614311Y-120773186D01*
X68614306Y-120773189D01*
X68609324Y-120775512D01*
X68604817Y-120778668D01*
X68604815Y-120778669D01*
X68431730Y-120899864D01*
X68431727Y-120899866D01*
X68427219Y-120903023D01*
X68270023Y-121060219D01*
X68266866Y-121064727D01*
X68266864Y-121064730D01*
X68169587Y-121203657D01*
X68142512Y-121242324D01*
X68140189Y-121247306D01*
X68140186Y-121247311D01*
X68082975Y-121370000D01*
X68048560Y-121443804D01*
X68047138Y-121449112D01*
X68047137Y-121449114D01*
X68033502Y-121500000D01*
X67991022Y-121658537D01*
X67971647Y-121880000D01*
X67991022Y-122101463D01*
X68024996Y-122228254D01*
X68033022Y-122258206D01*
X68048560Y-122316196D01*
X68050882Y-122321177D01*
X68050883Y-122321178D01*
X68140186Y-122512689D01*
X68140189Y-122512694D01*
X68142512Y-122517676D01*
X68145668Y-122522183D01*
X68145669Y-122522185D01*
X68259135Y-122684231D01*
X68270023Y-122699781D01*
X68427219Y-122856977D01*
X68431727Y-122860134D01*
X68431730Y-122860136D01*
X68486191Y-122898270D01*
X68609323Y-122984488D01*
X68614305Y-122986811D01*
X68614310Y-122986814D01*
X68719373Y-123035805D01*
X68772658Y-123082722D01*
X68792119Y-123150999D01*
X68771577Y-123218959D01*
X68719373Y-123264195D01*
X68614311Y-123313186D01*
X68614306Y-123313189D01*
X68609324Y-123315512D01*
X68604817Y-123318668D01*
X68604815Y-123318669D01*
X68431730Y-123439864D01*
X68431727Y-123439866D01*
X68427219Y-123443023D01*
X68270023Y-123600219D01*
X68266866Y-123604727D01*
X68266864Y-123604730D01*
X68193743Y-123709158D01*
X68142512Y-123782324D01*
X68140189Y-123787306D01*
X68140186Y-123787311D01*
X68079190Y-123918118D01*
X68048560Y-123983804D01*
X68047138Y-123989112D01*
X68047137Y-123989114D01*
X68033171Y-124041237D01*
X67991022Y-124198537D01*
X67971647Y-124420000D01*
X67991022Y-124641463D01*
X68048560Y-124856196D01*
X68050882Y-124861177D01*
X68050883Y-124861178D01*
X68140186Y-125052689D01*
X68140189Y-125052694D01*
X68142512Y-125057676D01*
X68145668Y-125062183D01*
X68145669Y-125062185D01*
X68261920Y-125228208D01*
X68270023Y-125239781D01*
X68427219Y-125396977D01*
X68431727Y-125400134D01*
X68431730Y-125400136D01*
X68492751Y-125442863D01*
X68609323Y-125524488D01*
X68614305Y-125526811D01*
X68614310Y-125526814D01*
X68695757Y-125564793D01*
X68710924Y-125571865D01*
X68719373Y-125575805D01*
X68772658Y-125622722D01*
X68792119Y-125690999D01*
X68771577Y-125758959D01*
X68719373Y-125804195D01*
X68614311Y-125853186D01*
X68614306Y-125853189D01*
X68609324Y-125855512D01*
X68604817Y-125858668D01*
X68604815Y-125858669D01*
X68431730Y-125979864D01*
X68431727Y-125979866D01*
X68427219Y-125983023D01*
X68270023Y-126140219D01*
X68266866Y-126144727D01*
X68266864Y-126144730D01*
X68154994Y-126304498D01*
X68142512Y-126322324D01*
X68140189Y-126327306D01*
X68140186Y-126327311D01*
X68050883Y-126518822D01*
X68048560Y-126523804D01*
X68047138Y-126529112D01*
X68047137Y-126529114D01*
X68029497Y-126594949D01*
X67991022Y-126738537D01*
X67971647Y-126960000D01*
X67991022Y-127181463D01*
X68021970Y-127296961D01*
X68044330Y-127380408D01*
X68048560Y-127396196D01*
X68050882Y-127401177D01*
X68050883Y-127401178D01*
X68140186Y-127592689D01*
X68140189Y-127592694D01*
X68142512Y-127597676D01*
X68145668Y-127602183D01*
X68145669Y-127602185D01*
X68266861Y-127775265D01*
X68270023Y-127779781D01*
X68427219Y-127936977D01*
X68431727Y-127940134D01*
X68431730Y-127940136D01*
X68472565Y-127968729D01*
X68609323Y-128064488D01*
X68614305Y-128066811D01*
X68614310Y-128066814D01*
X68677844Y-128096440D01*
X68719101Y-128115678D01*
X68719965Y-128116081D01*
X68773250Y-128162998D01*
X68792711Y-128231275D01*
X68772169Y-128299235D01*
X68719965Y-128344471D01*
X68614559Y-128393623D01*
X68605068Y-128399103D01*
X68561235Y-128429794D01*
X68552860Y-128440271D01*
X68559928Y-128453718D01*
X69234188Y-129127978D01*
X69248132Y-129135592D01*
X69249965Y-129135461D01*
X69256580Y-129131210D01*
X69934793Y-128452997D01*
X69941223Y-128441223D01*
X69931926Y-128429207D01*
X69888931Y-128399102D01*
X69879445Y-128393624D01*
X69774035Y-128344471D01*
X69720750Y-128297554D01*
X69701289Y-128229277D01*
X69721831Y-128161317D01*
X69774035Y-128116081D01*
X69774900Y-128115678D01*
X69816156Y-128096440D01*
X69879690Y-128066814D01*
X69879695Y-128066811D01*
X69884677Y-128064488D01*
X70021435Y-127968729D01*
X70062270Y-127940136D01*
X70062273Y-127940134D01*
X70066781Y-127936977D01*
X70223977Y-127779781D01*
X70227136Y-127775270D01*
X70227140Y-127775265D01*
X70315390Y-127649230D01*
X70370847Y-127604901D01*
X70418603Y-127595500D01*
X77210980Y-127595500D01*
X77222214Y-127596030D01*
X77229719Y-127597708D01*
X77298012Y-127595562D01*
X77301969Y-127595500D01*
X77329983Y-127595500D01*
X77333908Y-127595004D01*
X77333909Y-127595004D01*
X77334004Y-127594992D01*
X77345849Y-127594059D01*
X77375670Y-127593122D01*
X77382282Y-127592914D01*
X77382283Y-127592914D01*
X77390205Y-127592665D01*
X77409749Y-127586987D01*
X77429112Y-127582977D01*
X77441440Y-127581420D01*
X77441442Y-127581420D01*
X77449299Y-127580427D01*
X77456663Y-127577511D01*
X77456668Y-127577510D01*
X77490556Y-127564093D01*
X77501785Y-127560248D01*
X77518465Y-127555402D01*
X77544393Y-127547869D01*
X77551220Y-127543831D01*
X77551223Y-127543830D01*
X77561906Y-127537512D01*
X77579664Y-127528812D01*
X77591215Y-127524239D01*
X77591221Y-127524235D01*
X77598588Y-127521319D01*
X77634491Y-127495234D01*
X77644410Y-127488719D01*
X77675768Y-127470174D01*
X77675772Y-127470171D01*
X77682598Y-127466134D01*
X77696982Y-127451750D01*
X77712016Y-127438909D01*
X77722073Y-127431602D01*
X77728487Y-127426942D01*
X77756778Y-127392744D01*
X77764767Y-127383965D01*
X81476328Y-123672405D01*
X81538640Y-123638379D01*
X81565423Y-123635500D01*
X91352405Y-123635500D01*
X91420526Y-123655502D01*
X91467019Y-123709158D01*
X91477123Y-123779432D01*
X91447629Y-123844012D01*
X91441500Y-123850595D01*
X91184500Y-124107595D01*
X91122188Y-124141621D01*
X91095405Y-124144500D01*
X89964768Y-124144500D01*
X89953585Y-124143973D01*
X89946092Y-124142298D01*
X89938166Y-124142547D01*
X89938165Y-124142547D01*
X89878002Y-124144438D01*
X89874044Y-124144500D01*
X89846144Y-124144500D01*
X89842154Y-124145004D01*
X89830320Y-124145936D01*
X89786111Y-124147326D01*
X89778495Y-124149539D01*
X89778493Y-124149539D01*
X89766652Y-124152979D01*
X89747293Y-124156988D01*
X89745983Y-124157154D01*
X89727203Y-124159526D01*
X89719837Y-124162442D01*
X89719831Y-124162444D01*
X89686098Y-124175800D01*
X89674868Y-124179645D01*
X89640017Y-124189770D01*
X89632407Y-124191981D01*
X89625584Y-124196016D01*
X89614966Y-124202295D01*
X89597213Y-124210992D01*
X89589568Y-124214019D01*
X89578383Y-124218448D01*
X89571968Y-124223109D01*
X89542612Y-124244437D01*
X89532695Y-124250951D01*
X89494638Y-124273458D01*
X89480317Y-124287779D01*
X89465284Y-124300619D01*
X89448893Y-124312528D01*
X89421959Y-124345085D01*
X89420702Y-124346605D01*
X89412712Y-124355384D01*
X87837747Y-125930348D01*
X87829461Y-125937888D01*
X87822982Y-125942000D01*
X87817557Y-125947777D01*
X87776357Y-125991651D01*
X87773602Y-125994493D01*
X87753865Y-126014230D01*
X87751385Y-126017427D01*
X87743682Y-126026447D01*
X87713414Y-126058679D01*
X87709595Y-126065625D01*
X87709593Y-126065628D01*
X87703652Y-126076434D01*
X87692801Y-126092953D01*
X87680386Y-126108959D01*
X87677241Y-126116228D01*
X87677238Y-126116232D01*
X87662826Y-126149537D01*
X87657609Y-126160187D01*
X87636305Y-126198940D01*
X87634334Y-126206615D01*
X87634334Y-126206616D01*
X87631267Y-126218562D01*
X87624863Y-126237266D01*
X87621235Y-126245651D01*
X87616819Y-126255855D01*
X87615580Y-126263678D01*
X87615577Y-126263688D01*
X87609901Y-126299524D01*
X87607495Y-126311144D01*
X87598877Y-126344712D01*
X87596500Y-126353970D01*
X87596500Y-126374224D01*
X87594949Y-126393934D01*
X87591780Y-126413943D01*
X87592526Y-126421834D01*
X87593484Y-126431969D01*
X87579981Y-126501670D01*
X87568405Y-126520007D01*
X87483999Y-126631206D01*
X87483997Y-126631210D01*
X87478804Y-126638051D01*
X87422514Y-126780223D01*
X87421541Y-126788261D01*
X87421541Y-126788262D01*
X87417532Y-126821394D01*
X87411500Y-126871240D01*
X87411500Y-126910500D01*
X87391498Y-126978621D01*
X87337842Y-127025114D01*
X87285500Y-127036500D01*
X87165807Y-127036500D01*
X87097686Y-127016498D01*
X87076712Y-126999595D01*
X87060629Y-126983512D01*
X86919597Y-126900106D01*
X86911986Y-126897895D01*
X86911984Y-126897894D01*
X86839748Y-126876908D01*
X86762254Y-126854394D01*
X86755849Y-126853890D01*
X86755844Y-126853889D01*
X86727940Y-126851693D01*
X86727932Y-126851693D01*
X86725484Y-126851500D01*
X86314516Y-126851500D01*
X86312068Y-126851693D01*
X86312060Y-126851693D01*
X86284156Y-126853889D01*
X86284151Y-126853890D01*
X86277746Y-126854394D01*
X86200252Y-126876908D01*
X86128016Y-126897894D01*
X86128014Y-126897895D01*
X86120403Y-126900106D01*
X86113580Y-126904141D01*
X86113578Y-126904142D01*
X86104137Y-126909725D01*
X86035320Y-126927183D01*
X85975863Y-126909725D01*
X85966422Y-126904142D01*
X85966420Y-126904141D01*
X85959597Y-126900106D01*
X85951986Y-126897895D01*
X85951984Y-126897894D01*
X85879748Y-126876908D01*
X85802254Y-126854394D01*
X85795849Y-126853890D01*
X85795844Y-126853889D01*
X85767940Y-126851693D01*
X85767932Y-126851693D01*
X85765484Y-126851500D01*
X85354516Y-126851500D01*
X85352068Y-126851693D01*
X85352060Y-126851693D01*
X85324156Y-126853889D01*
X85324151Y-126853890D01*
X85317746Y-126854394D01*
X85240252Y-126876908D01*
X85168016Y-126897894D01*
X85168014Y-126897895D01*
X85160403Y-126900106D01*
X85019371Y-126983512D01*
X85003288Y-126999595D01*
X84940976Y-127033621D01*
X84914193Y-127036500D01*
X84024767Y-127036500D01*
X84013584Y-127035973D01*
X84006091Y-127034298D01*
X83998165Y-127034547D01*
X83998164Y-127034547D01*
X83938014Y-127036438D01*
X83934055Y-127036500D01*
X83906144Y-127036500D01*
X83902210Y-127036997D01*
X83902209Y-127036997D01*
X83902144Y-127037005D01*
X83890307Y-127037938D01*
X83858049Y-127038952D01*
X83854030Y-127039078D01*
X83846111Y-127039327D01*
X83826657Y-127044979D01*
X83807300Y-127048987D01*
X83795070Y-127050532D01*
X83795069Y-127050532D01*
X83787203Y-127051526D01*
X83779832Y-127054445D01*
X83779830Y-127054445D01*
X83746088Y-127067804D01*
X83734858Y-127071649D01*
X83700017Y-127081771D01*
X83700016Y-127081771D01*
X83692407Y-127083982D01*
X83685588Y-127088015D01*
X83685583Y-127088017D01*
X83674972Y-127094293D01*
X83657224Y-127102988D01*
X83638383Y-127110448D01*
X83631967Y-127115110D01*
X83631966Y-127115110D01*
X83602613Y-127136436D01*
X83592693Y-127142952D01*
X83561465Y-127161420D01*
X83561462Y-127161422D01*
X83554638Y-127165458D01*
X83540317Y-127179779D01*
X83525284Y-127192619D01*
X83508893Y-127204528D01*
X83503843Y-127210632D01*
X83503838Y-127210637D01*
X83480707Y-127238598D01*
X83472717Y-127247379D01*
X82672419Y-128047676D01*
X82610107Y-128081701D01*
X82539291Y-128076636D01*
X82489688Y-128042891D01*
X82471116Y-128022265D01*
X82369253Y-127909134D01*
X82254615Y-127825844D01*
X82220094Y-127800763D01*
X82220093Y-127800762D01*
X82214752Y-127796882D01*
X82208724Y-127794198D01*
X82208722Y-127794197D01*
X82046319Y-127721891D01*
X82046318Y-127721891D01*
X82040288Y-127719206D01*
X81946888Y-127699353D01*
X81859944Y-127680872D01*
X81859939Y-127680872D01*
X81853487Y-127679500D01*
X81662513Y-127679500D01*
X81656061Y-127680872D01*
X81656056Y-127680872D01*
X81569112Y-127699353D01*
X81475712Y-127719206D01*
X81469682Y-127721891D01*
X81469681Y-127721891D01*
X81307278Y-127794197D01*
X81307276Y-127794198D01*
X81301248Y-127796882D01*
X81295907Y-127800762D01*
X81295906Y-127800763D01*
X81261385Y-127825844D01*
X81146747Y-127909134D01*
X81142329Y-127914041D01*
X81142325Y-127914045D01*
X81041819Y-128025669D01*
X81018960Y-128051056D01*
X80981418Y-128116081D01*
X80949665Y-128171079D01*
X80923473Y-128216444D01*
X80864458Y-128398072D01*
X80863768Y-128404633D01*
X80863768Y-128404635D01*
X80858674Y-128453101D01*
X80831660Y-128518758D01*
X80773438Y-128559387D01*
X80702493Y-128562090D01*
X80682119Y-128555038D01*
X80562799Y-128501914D01*
X80522319Y-128483891D01*
X80522318Y-128483891D01*
X80516288Y-128481206D01*
X80484202Y-128474386D01*
X80421728Y-128440659D01*
X80387406Y-128378510D01*
X80385613Y-128347171D01*
X80384814Y-128347171D01*
X80384814Y-128340565D01*
X80385504Y-128334000D01*
X80382601Y-128306379D01*
X80366232Y-128150635D01*
X80366232Y-128150633D01*
X80365542Y-128144072D01*
X80306527Y-127962444D01*
X80293648Y-127940136D01*
X80233755Y-127836400D01*
X80211040Y-127797056D01*
X80198995Y-127783678D01*
X80087675Y-127660045D01*
X80087674Y-127660044D01*
X80083253Y-127655134D01*
X79957946Y-127564093D01*
X79934094Y-127546763D01*
X79934093Y-127546762D01*
X79928752Y-127542882D01*
X79922724Y-127540198D01*
X79922722Y-127540197D01*
X79760319Y-127467891D01*
X79760318Y-127467891D01*
X79754288Y-127465206D01*
X79657980Y-127444735D01*
X79573944Y-127426872D01*
X79573939Y-127426872D01*
X79567487Y-127425500D01*
X79376513Y-127425500D01*
X79370061Y-127426872D01*
X79370056Y-127426872D01*
X79286020Y-127444735D01*
X79189712Y-127465206D01*
X79183682Y-127467891D01*
X79183681Y-127467891D01*
X79021278Y-127540197D01*
X79021276Y-127540198D01*
X79015248Y-127542882D01*
X79009907Y-127546762D01*
X79009906Y-127546763D01*
X78986054Y-127564093D01*
X78860747Y-127655134D01*
X78856326Y-127660044D01*
X78856325Y-127660045D01*
X78745006Y-127783678D01*
X78732960Y-127797056D01*
X78710245Y-127836400D01*
X78650353Y-127940136D01*
X78637473Y-127962444D01*
X78578458Y-128144072D01*
X78577768Y-128150633D01*
X78577768Y-128150635D01*
X78561399Y-128306379D01*
X78558496Y-128334000D01*
X78578458Y-128523928D01*
X78580331Y-128529692D01*
X78582922Y-128558730D01*
X78581780Y-128565943D01*
X78584961Y-128599594D01*
X78585941Y-128609961D01*
X78586500Y-128621819D01*
X78586500Y-130287225D01*
X78566498Y-130355346D01*
X78512842Y-130401839D01*
X78442568Y-130411943D01*
X78434747Y-130410564D01*
X78329905Y-130388662D01*
X78278070Y-130377833D01*
X78278065Y-130377832D01*
X78273334Y-130376844D01*
X78268478Y-130376589D01*
X78268439Y-130376587D01*
X78268423Y-130376587D01*
X78266771Y-130376500D01*
X77820066Y-130376500D01*
X77806943Y-130377833D01*
X77677566Y-130390974D01*
X77677562Y-130390975D01*
X77671220Y-130391619D01*
X77579898Y-130420238D01*
X77486651Y-130449460D01*
X77486650Y-130449461D01*
X77480560Y-130451369D01*
X77474978Y-130454463D01*
X77474976Y-130454464D01*
X77408699Y-130491202D01*
X77305809Y-130548235D01*
X77300960Y-130552391D01*
X77209783Y-130630539D01*
X77154104Y-130678261D01*
X77150197Y-130683298D01*
X77150195Y-130683300D01*
X77035555Y-130831093D01*
X77035553Y-130831096D01*
X77031643Y-130836137D01*
X77028825Y-130841863D01*
X77028823Y-130841867D01*
X76978255Y-130944635D01*
X76943429Y-131015411D01*
X76940535Y-131026522D01*
X76899048Y-131185794D01*
X76893065Y-131208762D01*
X76890227Y-131262923D01*
X76883642Y-131388565D01*
X76882608Y-131408292D01*
X76912486Y-131605848D01*
X76914689Y-131611835D01*
X76914689Y-131611836D01*
X76978850Y-131786221D01*
X76981477Y-131793361D01*
X77048301Y-131901137D01*
X77064135Y-131926673D01*
X77086765Y-131963172D01*
X77091146Y-131967805D01*
X77091147Y-131967806D01*
X77215726Y-132099545D01*
X77224047Y-132108344D01*
X77229277Y-132112006D01*
X77229278Y-132112007D01*
X77330770Y-132183072D01*
X77375099Y-132238529D01*
X77384500Y-132286285D01*
X77384500Y-132650500D01*
X77364498Y-132718621D01*
X77310842Y-132765114D01*
X77258500Y-132776500D01*
X77048467Y-132776500D01*
X77041873Y-132776327D01*
X76979563Y-132773061D01*
X76979559Y-132773061D01*
X76973182Y-132772727D01*
X76819678Y-132795942D01*
X76787965Y-132800738D01*
X76787964Y-132800738D01*
X76781651Y-132801693D01*
X76775663Y-132803896D01*
X76775660Y-132803897D01*
X76720420Y-132824222D01*
X76599858Y-132868581D01*
X76594442Y-132871939D01*
X76594438Y-132871941D01*
X76440650Y-132967293D01*
X76440646Y-132967296D01*
X76435227Y-132970656D01*
X76430589Y-132975042D01*
X76337429Y-133063139D01*
X76274191Y-133095411D01*
X76251158Y-133097591D01*
X72428580Y-133106767D01*
X72360412Y-133086928D01*
X72313790Y-133033384D01*
X72303285Y-132964866D01*
X72327688Y-132773046D01*
X72327688Y-132773040D01*
X72328086Y-132769915D01*
X72328315Y-132761188D01*
X72330014Y-132696260D01*
X72330571Y-132675000D01*
X72326697Y-132622872D01*
X72310996Y-132411592D01*
X72310996Y-132411591D01*
X72310650Y-132406937D01*
X72309270Y-132400836D01*
X72252361Y-132149331D01*
X72252360Y-132149326D01*
X72251327Y-132144763D01*
X72153902Y-131894238D01*
X72020518Y-131660864D01*
X72015087Y-131653974D01*
X71897533Y-131504858D01*
X71854105Y-131449769D01*
X71658317Y-131265591D01*
X71491422Y-131149811D01*
X71441299Y-131115039D01*
X71441296Y-131115037D01*
X71437457Y-131112374D01*
X71428920Y-131108164D01*
X71200564Y-130995551D01*
X71200561Y-130995550D01*
X71196376Y-130993486D01*
X71148745Y-130978239D01*
X71006258Y-130932629D01*
X70940370Y-130911538D01*
X70935763Y-130910788D01*
X70935760Y-130910787D01*
X70679674Y-130869081D01*
X70679675Y-130869081D01*
X70675063Y-130868330D01*
X70544719Y-130866624D01*
X70410961Y-130864873D01*
X70410958Y-130864873D01*
X70406284Y-130864812D01*
X70139937Y-130901060D01*
X70135451Y-130902368D01*
X70135449Y-130902368D01*
X70107625Y-130910478D01*
X69881874Y-130976278D01*
X69637763Y-131088815D01*
X69608339Y-131108106D01*
X69416881Y-131233631D01*
X69416876Y-131233635D01*
X69412968Y-131236197D01*
X69357469Y-131285732D01*
X69227302Y-131401911D01*
X69212426Y-131415188D01*
X69040544Y-131621854D01*
X69038121Y-131625847D01*
X68959527Y-131755366D01*
X68901096Y-131851656D01*
X68899287Y-131855970D01*
X68899285Y-131855974D01*
X68843706Y-131988517D01*
X68797148Y-132099545D01*
X68730981Y-132360077D01*
X68704050Y-132627526D01*
X68704274Y-132632192D01*
X68704274Y-132632197D01*
X68707668Y-132702842D01*
X68716947Y-132896019D01*
X68730740Y-132965360D01*
X68724412Y-133036072D01*
X68680858Y-133092139D01*
X68607465Y-133115939D01*
X67076622Y-133119614D01*
X65184671Y-133124155D01*
X65116503Y-133104316D01*
X65069881Y-133050772D01*
X65059609Y-132980523D01*
X65063189Y-132963640D01*
X65067244Y-132949406D01*
X65105811Y-132678417D01*
X65107146Y-132669036D01*
X65107146Y-132669034D01*
X65107751Y-132664784D01*
X65107947Y-132627526D01*
X65109235Y-132381583D01*
X65109235Y-132381576D01*
X65109257Y-132377297D01*
X65107345Y-132362769D01*
X65078069Y-132140402D01*
X65071732Y-132092266D01*
X64995871Y-131814964D01*
X64981601Y-131781508D01*
X64884763Y-131554476D01*
X64884761Y-131554472D01*
X64883077Y-131550524D01*
X64794134Y-131401911D01*
X64737643Y-131307521D01*
X64737640Y-131307517D01*
X64735439Y-131303839D01*
X64555687Y-131079472D01*
X64400067Y-130931794D01*
X64350258Y-130884527D01*
X64350255Y-130884525D01*
X64347149Y-130881577D01*
X64150521Y-130740285D01*
X64117172Y-130716321D01*
X64117171Y-130716320D01*
X64113683Y-130713814D01*
X64091843Y-130702250D01*
X64068654Y-130689972D01*
X63859608Y-130579288D01*
X63803559Y-130558777D01*
X68552777Y-130558777D01*
X68562074Y-130570793D01*
X68605069Y-130600898D01*
X68614555Y-130606376D01*
X68805993Y-130695645D01*
X68816285Y-130699391D01*
X69020309Y-130754059D01*
X69031104Y-130755962D01*
X69241525Y-130774372D01*
X69252475Y-130774372D01*
X69462896Y-130755962D01*
X69473691Y-130754059D01*
X69677715Y-130699391D01*
X69688007Y-130695645D01*
X69879445Y-130606376D01*
X69888931Y-130600898D01*
X69932764Y-130570207D01*
X69941139Y-130559729D01*
X69934071Y-130546281D01*
X69259812Y-129872022D01*
X69245868Y-129864408D01*
X69244035Y-129864539D01*
X69237420Y-129868790D01*
X68559207Y-130547003D01*
X68552777Y-130558777D01*
X63803559Y-130558777D01*
X63679990Y-130513557D01*
X63593658Y-130481964D01*
X63593656Y-130481963D01*
X63589627Y-130480489D01*
X63308736Y-130419245D01*
X63277685Y-130416801D01*
X63085718Y-130401693D01*
X63085709Y-130401693D01*
X63083261Y-130401500D01*
X62927729Y-130401500D01*
X62925595Y-130401645D01*
X62925580Y-130401646D01*
X62891274Y-130403985D01*
X62821951Y-130388662D01*
X62771917Y-130338293D01*
X62756705Y-130277981D01*
X62758521Y-129505475D01*
X67972628Y-129505475D01*
X67991038Y-129715896D01*
X67992941Y-129726691D01*
X68047609Y-129930715D01*
X68051355Y-129941007D01*
X68140623Y-130132441D01*
X68146103Y-130141932D01*
X68176794Y-130185765D01*
X68187271Y-130194140D01*
X68200718Y-130187072D01*
X68874978Y-129512812D01*
X68881356Y-129501132D01*
X69611408Y-129501132D01*
X69611539Y-129502965D01*
X69615790Y-129509580D01*
X70294003Y-130187793D01*
X70305777Y-130194223D01*
X70317793Y-130184926D01*
X70347897Y-130141932D01*
X70353377Y-130132441D01*
X70442645Y-129941007D01*
X70446391Y-129930715D01*
X70501059Y-129726691D01*
X70502962Y-129715896D01*
X70521372Y-129505475D01*
X70521372Y-129494525D01*
X70502962Y-129284104D01*
X70501059Y-129273309D01*
X70446391Y-129069285D01*
X70442645Y-129058993D01*
X70353377Y-128867559D01*
X70347897Y-128858068D01*
X70317206Y-128814235D01*
X70306729Y-128805860D01*
X70293282Y-128812928D01*
X69619022Y-129487188D01*
X69611408Y-129501132D01*
X68881356Y-129501132D01*
X68882592Y-129498868D01*
X68882461Y-129497035D01*
X68878210Y-129490420D01*
X68199997Y-128812207D01*
X68188223Y-128805777D01*
X68176207Y-128815074D01*
X68146103Y-128858068D01*
X68140623Y-128867559D01*
X68051355Y-129058993D01*
X68047609Y-129069285D01*
X67992941Y-129273309D01*
X67991038Y-129284104D01*
X67972628Y-129494525D01*
X67972628Y-129505475D01*
X62758521Y-129505475D01*
X62770554Y-124386988D01*
X62795966Y-113577526D01*
X68704050Y-113577526D01*
X68704274Y-113582192D01*
X68704274Y-113582197D01*
X68710210Y-113705769D01*
X68716947Y-113846019D01*
X68769388Y-114109656D01*
X68860220Y-114362646D01*
X68862432Y-114366762D01*
X68862433Y-114366765D01*
X68863768Y-114369249D01*
X68987450Y-114599431D01*
X68990241Y-114603168D01*
X68990245Y-114603175D01*
X69056877Y-114692405D01*
X69148281Y-114814810D01*
X69151590Y-114818090D01*
X69151595Y-114818096D01*
X69299937Y-114965148D01*
X69339180Y-115004050D01*
X69342942Y-115006808D01*
X69342945Y-115006811D01*
X69510574Y-115129721D01*
X69555954Y-115162995D01*
X69560089Y-115165171D01*
X69560093Y-115165173D01*
X69766932Y-115273997D01*
X69793840Y-115288154D01*
X69869393Y-115314538D01*
X70030409Y-115370767D01*
X70047613Y-115376775D01*
X70052206Y-115377647D01*
X70307109Y-115426042D01*
X70307112Y-115426042D01*
X70311698Y-115426913D01*
X70439370Y-115431929D01*
X70575625Y-115437283D01*
X70575630Y-115437283D01*
X70580293Y-115437466D01*
X70684607Y-115426042D01*
X70842844Y-115408713D01*
X70842850Y-115408712D01*
X70847497Y-115408203D01*
X70852021Y-115407012D01*
X71102918Y-115340956D01*
X71102920Y-115340955D01*
X71107441Y-115339765D01*
X71144985Y-115323635D01*
X71350120Y-115235502D01*
X71350122Y-115235501D01*
X71354414Y-115233657D01*
X71478507Y-115156866D01*
X71579017Y-115094669D01*
X71579021Y-115094666D01*
X71582990Y-115092210D01*
X71788149Y-114918530D01*
X71965382Y-114716434D01*
X72016583Y-114636834D01*
X72095541Y-114514079D01*
X72110797Y-114490361D01*
X72221199Y-114245278D01*
X72228372Y-114219846D01*
X72292893Y-113991072D01*
X72292894Y-113991069D01*
X72294163Y-113986568D01*
X72312043Y-113846019D01*
X72327688Y-113723045D01*
X72327688Y-113723041D01*
X72328086Y-113719915D01*
X72328457Y-113705769D01*
X72330488Y-113628160D01*
X72330571Y-113625000D01*
X72310650Y-113356937D01*
X72309619Y-113352379D01*
X72252361Y-113099331D01*
X72252360Y-113099326D01*
X72251327Y-113094763D01*
X72153902Y-112844238D01*
X72020518Y-112610864D01*
X72015765Y-112604834D01*
X71944936Y-112514988D01*
X71854105Y-112399769D01*
X71658317Y-112215591D01*
X71437457Y-112062374D01*
X71433264Y-112060306D01*
X71200564Y-111945551D01*
X71200561Y-111945550D01*
X71196376Y-111943486D01*
X71148745Y-111928239D01*
X71094621Y-111910914D01*
X70940370Y-111861538D01*
X70935763Y-111860788D01*
X70935760Y-111860787D01*
X70679674Y-111819081D01*
X70679675Y-111819081D01*
X70675063Y-111818330D01*
X70544719Y-111816624D01*
X70410961Y-111814873D01*
X70410958Y-111814873D01*
X70406284Y-111814812D01*
X70139937Y-111851060D01*
X69881874Y-111926278D01*
X69637763Y-112038815D01*
X69633854Y-112041378D01*
X69416881Y-112183631D01*
X69416876Y-112183635D01*
X69412968Y-112186197D01*
X69369262Y-112225206D01*
X69277886Y-112306763D01*
X69212426Y-112365188D01*
X69115277Y-112481997D01*
X69043566Y-112568221D01*
X69040544Y-112571854D01*
X69038121Y-112575847D01*
X68937846Y-112741095D01*
X68901096Y-112801656D01*
X68899287Y-112805970D01*
X68899285Y-112805974D01*
X68849924Y-112923688D01*
X68797148Y-113049545D01*
X68730981Y-113310077D01*
X68704050Y-113577526D01*
X62795966Y-113577526D01*
X62817478Y-104427117D01*
X62837640Y-104359045D01*
X62891405Y-104312679D01*
X62961703Y-104302740D01*
X63023792Y-104330329D01*
X63032583Y-104337601D01*
X63040261Y-104343953D01*
X63049042Y-104351944D01*
X64540475Y-105843377D01*
X64574501Y-105905689D01*
X64576746Y-105945094D01*
X64560629Y-106105151D01*
X64572813Y-106358798D01*
X64622354Y-106607857D01*
X64623933Y-106612255D01*
X64623935Y-106612262D01*
X64706581Y-106842449D01*
X64708164Y-106846858D01*
X64828358Y-107070551D01*
X64831153Y-107074294D01*
X64831155Y-107074297D01*
X64977504Y-107270282D01*
X64977509Y-107270288D01*
X64980296Y-107274020D01*
X64983605Y-107277300D01*
X64983610Y-107277306D01*
X65157323Y-107449509D01*
X65160640Y-107452797D01*
X65164402Y-107455555D01*
X65164405Y-107455558D01*
X65237107Y-107508865D01*
X65365427Y-107602953D01*
X65369562Y-107605129D01*
X65369566Y-107605131D01*
X65465747Y-107655734D01*
X65590160Y-107721191D01*
X65829901Y-107804912D01*
X66079383Y-107852278D01*
X66199865Y-107857011D01*
X66328458Y-107862064D01*
X66328463Y-107862064D01*
X66333126Y-107862247D01*
X66432107Y-107851407D01*
X66580902Y-107835112D01*
X66580908Y-107835111D01*
X66585555Y-107834602D01*
X66695013Y-107805784D01*
X66771125Y-107785745D01*
X66831126Y-107769948D01*
X66958356Y-107715286D01*
X67060140Y-107671557D01*
X67060143Y-107671555D01*
X67064443Y-107669708D01*
X67068423Y-107667245D01*
X67068427Y-107667243D01*
X67276405Y-107538542D01*
X67276407Y-107538541D01*
X67280380Y-107536082D01*
X67285014Y-107532159D01*
X67312531Y-107508865D01*
X67377447Y-107480118D01*
X67447600Y-107491031D01*
X67483036Y-107515938D01*
X67986482Y-108019383D01*
X67995584Y-108029527D01*
X68019301Y-108059025D01*
X68057789Y-108091320D01*
X68061408Y-108094478D01*
X68063223Y-108096124D01*
X68065408Y-108098309D01*
X68067788Y-108100264D01*
X68067798Y-108100273D01*
X68098569Y-108125549D01*
X68099584Y-108126391D01*
X68109726Y-108134901D01*
X68170807Y-108186154D01*
X68175481Y-108188723D01*
X68179594Y-108192102D01*
X68185031Y-108195017D01*
X68185032Y-108195018D01*
X68261380Y-108235955D01*
X68262510Y-108236568D01*
X68344120Y-108281433D01*
X68349202Y-108283045D01*
X68353896Y-108285562D01*
X68442864Y-108312762D01*
X68443892Y-108313082D01*
X68532639Y-108341235D01*
X68537935Y-108341829D01*
X68543031Y-108343387D01*
X68635590Y-108352790D01*
X68636726Y-108352911D01*
X68670341Y-108356681D01*
X68683063Y-108358108D01*
X68683067Y-108358108D01*
X68686560Y-108358500D01*
X68690087Y-108358500D01*
X68691072Y-108358555D01*
X68696752Y-108359002D01*
X68726158Y-108361989D01*
X68733670Y-108362752D01*
X68733672Y-108362752D01*
X68739795Y-108363374D01*
X68785441Y-108359059D01*
X68797300Y-108358500D01*
X82508157Y-108358500D01*
X82521764Y-108359237D01*
X82553262Y-108362659D01*
X82553267Y-108362659D01*
X82559388Y-108363324D01*
X82585638Y-108361027D01*
X82609388Y-108358950D01*
X82614214Y-108358621D01*
X82616686Y-108358500D01*
X82619769Y-108358500D01*
X82631738Y-108357326D01*
X82662506Y-108354310D01*
X82663819Y-108354188D01*
X82708084Y-108350315D01*
X82756413Y-108346087D01*
X82761532Y-108344600D01*
X82766833Y-108344080D01*
X82855834Y-108317209D01*
X82856967Y-108316874D01*
X82940414Y-108292630D01*
X82940418Y-108292628D01*
X82946336Y-108290909D01*
X82951068Y-108288456D01*
X82956169Y-108286916D01*
X82963173Y-108283192D01*
X83038260Y-108243269D01*
X83039426Y-108242657D01*
X83116453Y-108202729D01*
X83121926Y-108199892D01*
X83126089Y-108196569D01*
X83130796Y-108194066D01*
X83202918Y-108135245D01*
X83203774Y-108134554D01*
X83242973Y-108103262D01*
X83245477Y-108100758D01*
X83246195Y-108100116D01*
X83250528Y-108096415D01*
X83284062Y-108069065D01*
X83313288Y-108033737D01*
X83321277Y-108024958D01*
X85277918Y-106068316D01*
X85340230Y-106034291D01*
X85356036Y-106031890D01*
X85356487Y-106031851D01*
X85360983Y-106031458D01*
X85360990Y-106031457D01*
X85366463Y-106030978D01*
X85371771Y-106029556D01*
X85371775Y-106029555D01*
X85575886Y-105974863D01*
X85575888Y-105974862D01*
X85581196Y-105973440D01*
X85587190Y-105970645D01*
X85777690Y-105881814D01*
X85777695Y-105881811D01*
X85782677Y-105879488D01*
X85884505Y-105808187D01*
X85960270Y-105755136D01*
X85960273Y-105755134D01*
X85964781Y-105751977D01*
X86121977Y-105594781D01*
X86201916Y-105480617D01*
X86246331Y-105417185D01*
X86246332Y-105417183D01*
X86249488Y-105412676D01*
X86251811Y-105407694D01*
X86251814Y-105407689D01*
X86300805Y-105302627D01*
X86347723Y-105249342D01*
X86416000Y-105229881D01*
X86483960Y-105250423D01*
X86529195Y-105302627D01*
X86578186Y-105407689D01*
X86578189Y-105407694D01*
X86580512Y-105412676D01*
X86583668Y-105417183D01*
X86583669Y-105417185D01*
X86628085Y-105480617D01*
X86708023Y-105594781D01*
X86865219Y-105751977D01*
X86869727Y-105755134D01*
X86869730Y-105755136D01*
X86945495Y-105808187D01*
X87047323Y-105879488D01*
X87052305Y-105881811D01*
X87052310Y-105881814D01*
X87242810Y-105970645D01*
X87248804Y-105973440D01*
X87254112Y-105974862D01*
X87254114Y-105974863D01*
X87315238Y-105991241D01*
X87463537Y-106030978D01*
X87685000Y-106050353D01*
X87906463Y-106030978D01*
X88054762Y-105991241D01*
X88115886Y-105974863D01*
X88115888Y-105974862D01*
X88121196Y-105973440D01*
X88127190Y-105970645D01*
X88317690Y-105881814D01*
X88317695Y-105881811D01*
X88322677Y-105879488D01*
X88424505Y-105808187D01*
X88500270Y-105755136D01*
X88500273Y-105755134D01*
X88504781Y-105751977D01*
X88661977Y-105594781D01*
X88741916Y-105480617D01*
X88786331Y-105417185D01*
X88786332Y-105417183D01*
X88789488Y-105412676D01*
X88791811Y-105407694D01*
X88791814Y-105407689D01*
X88840805Y-105302627D01*
X88887723Y-105249342D01*
X88956000Y-105229881D01*
X89023960Y-105250423D01*
X89069195Y-105302627D01*
X89118186Y-105407689D01*
X89118189Y-105407694D01*
X89120512Y-105412676D01*
X89123668Y-105417183D01*
X89123669Y-105417185D01*
X89168085Y-105480617D01*
X89248023Y-105594781D01*
X89405219Y-105751977D01*
X89409727Y-105755134D01*
X89409730Y-105755136D01*
X89485495Y-105808187D01*
X89587323Y-105879488D01*
X89592305Y-105881811D01*
X89592310Y-105881814D01*
X89782810Y-105970645D01*
X89788804Y-105973440D01*
X89794112Y-105974862D01*
X89794114Y-105974863D01*
X89855238Y-105991241D01*
X90003537Y-106030978D01*
X90225000Y-106050353D01*
X90446463Y-106030978D01*
X90594762Y-105991241D01*
X90655886Y-105974863D01*
X90655888Y-105974862D01*
X90661196Y-105973440D01*
X90667190Y-105970645D01*
X90857690Y-105881814D01*
X90857695Y-105881811D01*
X90862677Y-105879488D01*
X90927959Y-105833777D01*
X92070777Y-105833777D01*
X92080074Y-105845793D01*
X92123069Y-105875898D01*
X92132555Y-105881376D01*
X92323993Y-105970645D01*
X92334285Y-105974391D01*
X92538309Y-106029059D01*
X92549104Y-106030962D01*
X92759525Y-106049372D01*
X92770475Y-106049372D01*
X92980896Y-106030962D01*
X92991691Y-106029059D01*
X93195715Y-105974391D01*
X93206007Y-105970645D01*
X93397445Y-105881376D01*
X93406931Y-105875898D01*
X93450764Y-105845207D01*
X93459139Y-105834729D01*
X93452071Y-105821281D01*
X92777812Y-105147022D01*
X92763868Y-105139408D01*
X92762035Y-105139539D01*
X92755420Y-105143790D01*
X92077207Y-105822003D01*
X92070777Y-105833777D01*
X90927959Y-105833777D01*
X90964505Y-105808187D01*
X91040270Y-105755136D01*
X91040273Y-105755134D01*
X91044781Y-105751977D01*
X91201977Y-105594781D01*
X91281916Y-105480617D01*
X91326331Y-105417185D01*
X91326332Y-105417183D01*
X91329488Y-105412676D01*
X91331811Y-105407694D01*
X91331814Y-105407689D01*
X91381081Y-105302035D01*
X91427999Y-105248750D01*
X91496276Y-105229289D01*
X91564236Y-105249831D01*
X91609471Y-105302035D01*
X91658623Y-105407441D01*
X91664103Y-105416932D01*
X91694794Y-105460765D01*
X91705271Y-105469140D01*
X91718718Y-105462072D01*
X92392978Y-104787812D01*
X92399356Y-104776132D01*
X93129408Y-104776132D01*
X93129539Y-104777965D01*
X93133790Y-104784580D01*
X93812003Y-105462793D01*
X93823777Y-105469223D01*
X93835793Y-105459926D01*
X93865897Y-105416932D01*
X93871377Y-105407441D01*
X93960645Y-105216007D01*
X93964391Y-105205715D01*
X94019059Y-105001691D01*
X94020962Y-104990896D01*
X94039372Y-104780475D01*
X94039372Y-104769525D01*
X94020962Y-104559104D01*
X94019059Y-104548309D01*
X93964391Y-104344285D01*
X93960645Y-104333993D01*
X93871377Y-104142559D01*
X93865897Y-104133068D01*
X93835206Y-104089235D01*
X93824729Y-104080860D01*
X93811282Y-104087928D01*
X93137022Y-104762188D01*
X93129408Y-104776132D01*
X92399356Y-104776132D01*
X92400592Y-104773868D01*
X92400461Y-104772035D01*
X92396210Y-104765420D01*
X91717997Y-104087207D01*
X91706223Y-104080777D01*
X91694207Y-104090074D01*
X91664103Y-104133068D01*
X91658623Y-104142559D01*
X91609471Y-104247965D01*
X91562553Y-104301250D01*
X91494276Y-104320711D01*
X91426316Y-104300169D01*
X91381081Y-104247965D01*
X91331814Y-104142311D01*
X91331811Y-104142306D01*
X91329488Y-104137324D01*
X91306078Y-104103891D01*
X91205136Y-103959730D01*
X91205134Y-103959727D01*
X91201977Y-103955219D01*
X91044781Y-103798023D01*
X91040273Y-103794866D01*
X91040270Y-103794864D01*
X90964505Y-103741813D01*
X90862677Y-103670512D01*
X90857695Y-103668189D01*
X90857690Y-103668186D01*
X90752627Y-103619195D01*
X90699342Y-103572278D01*
X90679881Y-103504001D01*
X90700423Y-103436041D01*
X90752627Y-103390805D01*
X90857690Y-103341814D01*
X90857695Y-103341811D01*
X90862677Y-103339488D01*
X90927959Y-103293777D01*
X92070777Y-103293777D01*
X92080074Y-103305793D01*
X92123069Y-103335898D01*
X92132555Y-103341376D01*
X92238557Y-103390805D01*
X92291842Y-103437722D01*
X92311303Y-103505999D01*
X92290761Y-103573959D01*
X92238557Y-103619195D01*
X92132559Y-103668623D01*
X92123068Y-103674103D01*
X92079235Y-103704794D01*
X92070860Y-103715271D01*
X92077928Y-103728718D01*
X92752188Y-104402978D01*
X92766132Y-104410592D01*
X92767965Y-104410461D01*
X92774580Y-104406210D01*
X93452793Y-103727997D01*
X93459223Y-103716223D01*
X93449926Y-103704207D01*
X93406931Y-103674102D01*
X93397445Y-103668624D01*
X93291444Y-103619195D01*
X93238159Y-103572278D01*
X93218698Y-103504000D01*
X93239240Y-103436040D01*
X93291444Y-103390805D01*
X93397445Y-103341376D01*
X93406931Y-103335898D01*
X93450764Y-103305207D01*
X93459139Y-103294729D01*
X93452071Y-103281281D01*
X93335790Y-103165000D01*
X95351372Y-103165000D01*
X95371854Y-103425249D01*
X95373008Y-103430056D01*
X95373009Y-103430062D01*
X95391240Y-103505999D01*
X95432796Y-103679089D01*
X95434689Y-103683660D01*
X95434690Y-103683662D01*
X95524935Y-103901531D01*
X95532697Y-103920271D01*
X95669097Y-104142856D01*
X95838637Y-104341363D01*
X96037144Y-104510903D01*
X96259729Y-104647303D01*
X96264299Y-104649196D01*
X96264303Y-104649198D01*
X96496338Y-104745310D01*
X96500911Y-104747204D01*
X96576786Y-104765420D01*
X96749938Y-104806991D01*
X96749944Y-104806992D01*
X96754751Y-104808146D01*
X97015000Y-104828628D01*
X97275249Y-104808146D01*
X97280056Y-104806992D01*
X97280062Y-104806991D01*
X97453214Y-104765420D01*
X97529089Y-104747204D01*
X97533662Y-104745310D01*
X97765697Y-104649198D01*
X97765701Y-104649196D01*
X97770271Y-104647303D01*
X97992856Y-104510903D01*
X98191363Y-104341363D01*
X98360903Y-104142856D01*
X98497303Y-103920271D01*
X98505066Y-103901531D01*
X98595310Y-103683662D01*
X98595311Y-103683660D01*
X98597204Y-103679089D01*
X98638760Y-103505999D01*
X98656991Y-103430062D01*
X98656992Y-103430056D01*
X98658146Y-103425249D01*
X98678628Y-103165000D01*
X98658146Y-102904751D01*
X98656992Y-102899944D01*
X98656991Y-102899938D01*
X98611492Y-102710423D01*
X98597204Y-102650911D01*
X98518862Y-102461776D01*
X98499198Y-102414303D01*
X98499196Y-102414299D01*
X98497303Y-102409729D01*
X98360903Y-102187144D01*
X98191363Y-101988637D01*
X97992856Y-101819097D01*
X97770271Y-101682697D01*
X97765701Y-101680804D01*
X97765697Y-101680802D01*
X97533662Y-101584690D01*
X97533660Y-101584689D01*
X97529089Y-101582796D01*
X97440069Y-101561424D01*
X97280062Y-101523009D01*
X97280056Y-101523008D01*
X97275249Y-101521854D01*
X97015000Y-101501372D01*
X96754751Y-101521854D01*
X96749944Y-101523008D01*
X96749938Y-101523009D01*
X96589931Y-101561424D01*
X96500911Y-101582796D01*
X96496340Y-101584689D01*
X96496338Y-101584690D01*
X96264303Y-101680802D01*
X96264299Y-101680804D01*
X96259729Y-101682697D01*
X96037144Y-101819097D01*
X95838637Y-101988637D01*
X95669097Y-102187144D01*
X95532697Y-102409729D01*
X95530804Y-102414299D01*
X95530802Y-102414303D01*
X95511138Y-102461776D01*
X95432796Y-102650911D01*
X95418508Y-102710423D01*
X95373009Y-102899938D01*
X95373008Y-102899944D01*
X95371854Y-102904751D01*
X95351372Y-103165000D01*
X93335790Y-103165000D01*
X92777812Y-102607022D01*
X92763868Y-102599408D01*
X92762035Y-102599539D01*
X92755420Y-102603790D01*
X92077207Y-103282003D01*
X92070777Y-103293777D01*
X90927959Y-103293777D01*
X90964505Y-103268187D01*
X91040270Y-103215136D01*
X91040273Y-103215134D01*
X91044781Y-103211977D01*
X91201977Y-103054781D01*
X91205683Y-103049489D01*
X91326331Y-102877185D01*
X91326332Y-102877183D01*
X91329488Y-102872676D01*
X91331811Y-102867694D01*
X91331814Y-102867689D01*
X91381081Y-102762035D01*
X91427999Y-102708750D01*
X91496276Y-102689289D01*
X91564236Y-102709831D01*
X91609471Y-102762035D01*
X91658623Y-102867441D01*
X91664103Y-102876932D01*
X91694794Y-102920765D01*
X91705271Y-102929140D01*
X91718718Y-102922072D01*
X92392978Y-102247812D01*
X92399356Y-102236132D01*
X93129408Y-102236132D01*
X93129539Y-102237965D01*
X93133790Y-102244580D01*
X93812003Y-102922793D01*
X93823777Y-102929223D01*
X93835793Y-102919926D01*
X93865897Y-102876932D01*
X93871377Y-102867441D01*
X93960645Y-102676007D01*
X93964391Y-102665715D01*
X94019059Y-102461691D01*
X94020962Y-102450896D01*
X94039372Y-102240475D01*
X94039372Y-102229525D01*
X94020962Y-102019104D01*
X94019059Y-102008309D01*
X93964391Y-101804285D01*
X93960645Y-101793993D01*
X93871377Y-101602559D01*
X93865897Y-101593068D01*
X93835206Y-101549235D01*
X93824729Y-101540860D01*
X93811282Y-101547928D01*
X93137022Y-102222188D01*
X93129408Y-102236132D01*
X92399356Y-102236132D01*
X92400592Y-102233868D01*
X92400461Y-102232035D01*
X92396210Y-102225420D01*
X91717997Y-101547207D01*
X91706223Y-101540777D01*
X91694207Y-101550074D01*
X91664103Y-101593068D01*
X91658623Y-101602559D01*
X91609471Y-101707965D01*
X91562553Y-101761250D01*
X91494276Y-101780711D01*
X91426316Y-101760169D01*
X91381081Y-101707965D01*
X91331814Y-101602311D01*
X91331811Y-101602306D01*
X91329488Y-101597324D01*
X91320642Y-101584690D01*
X91205136Y-101419730D01*
X91205134Y-101419727D01*
X91201977Y-101415219D01*
X91044781Y-101258023D01*
X91040273Y-101254866D01*
X91040270Y-101254864D01*
X90956359Y-101196109D01*
X90926599Y-101175271D01*
X92070860Y-101175271D01*
X92077928Y-101188718D01*
X92752188Y-101862978D01*
X92766132Y-101870592D01*
X92767965Y-101870461D01*
X92774580Y-101866210D01*
X93452793Y-101187997D01*
X93459223Y-101176223D01*
X93449926Y-101164207D01*
X93406931Y-101134102D01*
X93397445Y-101128624D01*
X93206007Y-101039355D01*
X93195715Y-101035609D01*
X92991691Y-100980941D01*
X92980896Y-100979038D01*
X92770475Y-100960628D01*
X92759525Y-100960628D01*
X92549104Y-100979038D01*
X92538309Y-100980941D01*
X92334285Y-101035609D01*
X92323993Y-101039355D01*
X92132559Y-101128623D01*
X92123068Y-101134103D01*
X92079235Y-101164794D01*
X92070860Y-101175271D01*
X90926599Y-101175271D01*
X90862677Y-101130512D01*
X90857695Y-101128189D01*
X90857690Y-101128186D01*
X90666178Y-101038883D01*
X90666177Y-101038882D01*
X90661196Y-101036560D01*
X90655888Y-101035138D01*
X90655886Y-101035137D01*
X90584831Y-101016098D01*
X90446463Y-100979022D01*
X90225000Y-100959647D01*
X90003537Y-100979022D01*
X89865169Y-101016098D01*
X89794114Y-101035137D01*
X89794112Y-101035138D01*
X89788804Y-101036560D01*
X89783823Y-101038882D01*
X89783822Y-101038883D01*
X89592311Y-101128186D01*
X89592306Y-101128189D01*
X89587324Y-101130512D01*
X89582817Y-101133668D01*
X89582815Y-101133669D01*
X89409730Y-101254864D01*
X89409727Y-101254866D01*
X89405219Y-101258023D01*
X89248023Y-101415219D01*
X89244866Y-101419727D01*
X89244864Y-101419730D01*
X89129358Y-101584690D01*
X89120512Y-101597324D01*
X89118189Y-101602306D01*
X89118186Y-101602311D01*
X89069195Y-101707373D01*
X89022277Y-101760658D01*
X88954000Y-101780119D01*
X88886040Y-101759577D01*
X88840805Y-101707373D01*
X88791814Y-101602311D01*
X88791811Y-101602306D01*
X88789488Y-101597324D01*
X88780642Y-101584690D01*
X88665136Y-101419730D01*
X88665134Y-101419727D01*
X88661977Y-101415219D01*
X88504781Y-101258023D01*
X88500273Y-101254866D01*
X88500270Y-101254864D01*
X88416359Y-101196109D01*
X88322677Y-101130512D01*
X88317695Y-101128189D01*
X88317690Y-101128186D01*
X88126178Y-101038883D01*
X88126177Y-101038882D01*
X88121196Y-101036560D01*
X88115888Y-101035138D01*
X88115886Y-101035137D01*
X88044831Y-101016098D01*
X87906463Y-100979022D01*
X87738413Y-100964320D01*
X87672294Y-100938457D01*
X87630655Y-100880953D01*
X87626714Y-100810066D01*
X87661723Y-100748301D01*
X87698145Y-100723692D01*
X87796722Y-100679803D01*
X87796724Y-100679802D01*
X87802752Y-100677118D01*
X87937678Y-100579088D01*
X88004545Y-100555230D01*
X88049415Y-100560790D01*
X88176938Y-100600753D01*
X88250365Y-100607500D01*
X88253263Y-100607500D01*
X88507665Y-100607499D01*
X88763634Y-100607499D01*
X88766492Y-100607236D01*
X88766501Y-100607236D01*
X88802004Y-100603974D01*
X88837062Y-100600753D01*
X88906195Y-100579088D01*
X88993450Y-100551744D01*
X88993452Y-100551743D01*
X89000699Y-100549472D01*
X89147381Y-100460639D01*
X89242905Y-100365115D01*
X89305217Y-100331089D01*
X89376032Y-100336154D01*
X89421095Y-100365115D01*
X89516619Y-100460639D01*
X89663301Y-100549472D01*
X89670548Y-100551743D01*
X89670550Y-100551744D01*
X89736836Y-100572517D01*
X89826938Y-100600753D01*
X89900365Y-100607500D01*
X89903263Y-100607500D01*
X90157665Y-100607499D01*
X90413634Y-100607499D01*
X90416492Y-100607236D01*
X90416501Y-100607236D01*
X90452004Y-100603974D01*
X90487062Y-100600753D01*
X90556195Y-100579088D01*
X90643450Y-100551744D01*
X90643452Y-100551743D01*
X90650699Y-100549472D01*
X90797381Y-100460639D01*
X90918639Y-100339381D01*
X91007472Y-100192699D01*
X91058753Y-100029062D01*
X91065500Y-99955635D01*
X91065499Y-99570260D01*
X91085501Y-99502141D01*
X91139156Y-99455648D01*
X91209430Y-99445543D01*
X91220644Y-99447678D01*
X91226646Y-99449105D01*
X91277514Y-99454631D01*
X91284328Y-99455000D01*
X91556885Y-99455000D01*
X91572124Y-99450525D01*
X91573329Y-99449135D01*
X91575000Y-99441452D01*
X91575000Y-98319000D01*
X91595002Y-98250879D01*
X91648658Y-98204386D01*
X91701000Y-98193000D01*
X91957000Y-98193000D01*
X92025121Y-98213002D01*
X92071614Y-98266658D01*
X92083000Y-98319000D01*
X92083000Y-99436884D01*
X92087475Y-99452123D01*
X92088865Y-99453328D01*
X92096548Y-99454999D01*
X92373669Y-99454999D01*
X92380490Y-99454629D01*
X92431352Y-99449105D01*
X92446604Y-99445479D01*
X92567054Y-99400324D01*
X92582649Y-99391786D01*
X92684724Y-99315285D01*
X92697285Y-99302724D01*
X92742862Y-99241911D01*
X92799721Y-99199396D01*
X92870540Y-99194370D01*
X92932833Y-99228430D01*
X92944503Y-99241898D01*
X92995739Y-99310261D01*
X93112295Y-99397615D01*
X93248684Y-99448745D01*
X93310866Y-99455500D01*
X94407134Y-99455500D01*
X94469316Y-99448745D01*
X94605705Y-99397615D01*
X94722261Y-99310261D01*
X94809615Y-99193705D01*
X94860745Y-99057316D01*
X94867500Y-98995134D01*
X94867500Y-97906500D01*
X94887502Y-97838379D01*
X94941158Y-97791886D01*
X94993500Y-97780500D01*
X95247851Y-97780500D01*
X95315972Y-97800502D01*
X95362465Y-97854158D01*
X95367682Y-97867559D01*
X95401473Y-97971556D01*
X95496960Y-98136944D01*
X95501378Y-98141851D01*
X95501379Y-98141852D01*
X95513668Y-98155500D01*
X95624747Y-98278866D01*
X95779248Y-98391118D01*
X95785276Y-98393802D01*
X95785278Y-98393803D01*
X95947681Y-98466109D01*
X95953712Y-98468794D01*
X96047113Y-98488647D01*
X96134056Y-98507128D01*
X96134061Y-98507128D01*
X96140513Y-98508500D01*
X96331487Y-98508500D01*
X96337939Y-98507128D01*
X96337944Y-98507128D01*
X96424887Y-98488647D01*
X96518288Y-98468794D01*
X96524319Y-98466109D01*
X96686722Y-98393803D01*
X96686724Y-98393802D01*
X96692752Y-98391118D01*
X96847253Y-98278866D01*
X96958332Y-98155500D01*
X96970621Y-98141852D01*
X96970622Y-98141851D01*
X96975040Y-98136944D01*
X97070527Y-97971556D01*
X97129542Y-97789928D01*
X97149504Y-97600000D01*
X97129542Y-97410072D01*
X97070527Y-97228444D01*
X97067224Y-97222724D01*
X97066570Y-97221254D01*
X97057135Y-97150887D01*
X97087240Y-97086590D01*
X97147329Y-97048776D01*
X97216828Y-97049007D01*
X97363534Y-97091629D01*
X97369941Y-97092133D01*
X97369945Y-97092134D01*
X97397556Y-97094307D01*
X97397562Y-97094307D01*
X97400011Y-97094500D01*
X97599878Y-97094500D01*
X97799988Y-97094499D01*
X97836466Y-97091629D01*
X97934815Y-97063056D01*
X97984983Y-97048481D01*
X97984985Y-97048480D01*
X97992596Y-97046269D01*
X98110000Y-96976837D01*
X98125720Y-96967540D01*
X98132541Y-96963506D01*
X98247506Y-96848541D01*
X98330269Y-96708596D01*
X98375629Y-96552466D01*
X98376872Y-96536684D01*
X98378307Y-96518444D01*
X98378307Y-96518438D01*
X98378500Y-96515989D01*
X98378499Y-96016012D01*
X98375629Y-95979534D01*
X98341064Y-95860562D01*
X98332481Y-95831017D01*
X98332480Y-95831015D01*
X98330269Y-95823404D01*
X98318981Y-95804316D01*
X98251540Y-95690280D01*
X98247506Y-95683459D01*
X98132541Y-95568494D01*
X97992596Y-95485731D01*
X97984985Y-95483520D01*
X97984983Y-95483519D01*
X97842644Y-95442166D01*
X97842645Y-95442166D01*
X97836466Y-95440371D01*
X97830059Y-95439867D01*
X97830055Y-95439866D01*
X97802444Y-95437693D01*
X97802438Y-95437693D01*
X97799989Y-95437500D01*
X97719595Y-95437500D01*
X97651474Y-95417498D01*
X97630500Y-95400595D01*
X97160405Y-94930500D01*
X97126379Y-94868188D01*
X97123500Y-94841405D01*
X97123500Y-94238524D01*
X97143502Y-94170403D01*
X97155858Y-94154221D01*
X97229040Y-94072944D01*
X97324527Y-93907556D01*
X97383542Y-93725928D01*
X97388393Y-93679779D01*
X97402814Y-93542565D01*
X97403504Y-93536000D01*
X97389845Y-93406038D01*
X97384232Y-93352635D01*
X97384232Y-93352633D01*
X97383542Y-93346072D01*
X97324527Y-93164444D01*
X97321078Y-93158469D01*
X97257472Y-93048302D01*
X97229040Y-92999056D01*
X97220737Y-92989834D01*
X97105675Y-92862045D01*
X97105674Y-92862044D01*
X97101253Y-92857134D01*
X96962374Y-92756232D01*
X96952094Y-92748763D01*
X96952093Y-92748762D01*
X96946752Y-92744882D01*
X96940724Y-92742198D01*
X96940722Y-92742197D01*
X96778319Y-92669891D01*
X96778318Y-92669891D01*
X96772288Y-92667206D01*
X96673915Y-92646296D01*
X96591944Y-92628872D01*
X96591939Y-92628872D01*
X96585487Y-92627500D01*
X96394513Y-92627500D01*
X96388061Y-92628872D01*
X96388056Y-92628872D01*
X96306085Y-92646296D01*
X96207712Y-92667206D01*
X96201682Y-92669891D01*
X96201681Y-92669891D01*
X96039278Y-92742197D01*
X96039276Y-92742198D01*
X96033248Y-92744882D01*
X96027907Y-92748762D01*
X96027906Y-92748763D01*
X96017626Y-92756232D01*
X95878747Y-92857134D01*
X95874326Y-92862044D01*
X95874325Y-92862045D01*
X95759264Y-92989834D01*
X95750960Y-92999056D01*
X95722528Y-93048302D01*
X95658923Y-93158469D01*
X95655473Y-93164444D01*
X95596458Y-93346072D01*
X95595768Y-93352633D01*
X95595768Y-93352635D01*
X95590155Y-93406038D01*
X95576496Y-93536000D01*
X95577186Y-93542565D01*
X95591608Y-93679779D01*
X95596458Y-93725928D01*
X95655473Y-93907556D01*
X95750960Y-94072944D01*
X95824137Y-94154215D01*
X95854853Y-94218221D01*
X95856500Y-94238524D01*
X95856500Y-94409218D01*
X95836498Y-94477339D01*
X95782842Y-94523832D01*
X95712568Y-94533936D01*
X95677270Y-94521718D01*
X95676752Y-94522882D01*
X95508319Y-94447891D01*
X95508318Y-94447891D01*
X95502288Y-94445206D01*
X95396933Y-94422812D01*
X95321944Y-94406872D01*
X95321939Y-94406872D01*
X95315487Y-94405500D01*
X95124513Y-94405500D01*
X95118061Y-94406872D01*
X95118056Y-94406872D01*
X95043067Y-94422812D01*
X94937712Y-94445206D01*
X94931682Y-94447891D01*
X94931681Y-94447891D01*
X94769278Y-94520197D01*
X94769276Y-94520198D01*
X94763248Y-94522882D01*
X94757907Y-94526762D01*
X94757906Y-94526763D01*
X94747915Y-94534022D01*
X94608747Y-94635134D01*
X94604332Y-94640037D01*
X94599420Y-94644460D01*
X94598295Y-94643211D01*
X94544986Y-94676051D01*
X94511800Y-94680500D01*
X94148595Y-94680500D01*
X94080474Y-94660498D01*
X94059500Y-94643595D01*
X93876405Y-94460500D01*
X93842379Y-94398188D01*
X93839500Y-94371405D01*
X93839499Y-93275239D01*
X93839499Y-93271116D01*
X93825457Y-93164444D01*
X93824916Y-93160337D01*
X93824916Y-93160335D01*
X93823838Y-93152150D01*
X93770965Y-93024502D01*
X93765684Y-93011752D01*
X93765683Y-93011750D01*
X93762524Y-93004124D01*
X93690302Y-92910004D01*
X93670014Y-92883564D01*
X93670013Y-92883563D01*
X93664987Y-92877013D01*
X93658436Y-92871986D01*
X93658434Y-92871984D01*
X93591347Y-92820507D01*
X93537875Y-92779476D01*
X93389850Y-92718162D01*
X93349562Y-92712858D01*
X93274972Y-92703038D01*
X93274971Y-92703038D01*
X93270885Y-92702500D01*
X92831054Y-92702500D01*
X92391116Y-92702501D01*
X92387031Y-92703039D01*
X92387027Y-92703039D01*
X92280337Y-92717084D01*
X92280335Y-92717084D01*
X92272150Y-92718162D01*
X92229211Y-92735948D01*
X92131752Y-92776316D01*
X92131750Y-92776317D01*
X92124124Y-92779476D01*
X91997013Y-92877013D01*
X91991987Y-92883563D01*
X91991984Y-92883566D01*
X91954708Y-92932145D01*
X91899476Y-93004125D01*
X91838162Y-93152150D01*
X91822500Y-93271115D01*
X91822500Y-93576688D01*
X91802498Y-93644809D01*
X91742883Y-93693840D01*
X91705093Y-93708802D01*
X91693865Y-93712646D01*
X91651407Y-93724982D01*
X91644581Y-93729019D01*
X91633972Y-93735293D01*
X91616224Y-93743988D01*
X91597383Y-93751448D01*
X91590967Y-93756110D01*
X91590966Y-93756110D01*
X91561613Y-93777436D01*
X91551693Y-93783952D01*
X91520465Y-93802420D01*
X91520462Y-93802422D01*
X91513638Y-93806458D01*
X91499317Y-93820779D01*
X91484284Y-93833619D01*
X91467893Y-93845528D01*
X91462842Y-93851634D01*
X91439702Y-93879605D01*
X91431712Y-93888384D01*
X89747747Y-95572348D01*
X89739461Y-95579888D01*
X89732982Y-95584000D01*
X89727557Y-95589777D01*
X89686357Y-95633651D01*
X89683602Y-95636493D01*
X89663865Y-95656230D01*
X89661385Y-95659427D01*
X89653682Y-95668447D01*
X89623414Y-95700679D01*
X89619595Y-95707625D01*
X89619593Y-95707628D01*
X89613652Y-95718434D01*
X89602801Y-95734953D01*
X89590386Y-95750959D01*
X89587241Y-95758228D01*
X89587238Y-95758232D01*
X89572826Y-95791537D01*
X89567609Y-95802187D01*
X89546305Y-95840940D01*
X89544334Y-95848615D01*
X89544334Y-95848616D01*
X89541267Y-95860562D01*
X89534863Y-95879266D01*
X89526819Y-95897855D01*
X89525580Y-95905678D01*
X89525577Y-95905688D01*
X89519901Y-95941524D01*
X89517495Y-95953144D01*
X89510973Y-95978547D01*
X89506500Y-95995970D01*
X89506500Y-96016224D01*
X89504949Y-96035934D01*
X89501780Y-96055943D01*
X89502526Y-96063835D01*
X89505941Y-96099961D01*
X89506500Y-96111819D01*
X89506500Y-98745290D01*
X89486498Y-98813411D01*
X89469595Y-98834385D01*
X89421095Y-98882885D01*
X89358783Y-98916911D01*
X89287968Y-98911846D01*
X89242905Y-98882885D01*
X89147381Y-98787361D01*
X89000699Y-98698528D01*
X88993452Y-98696257D01*
X88993450Y-98696256D01*
X88927164Y-98675483D01*
X88837062Y-98647247D01*
X88763635Y-98640500D01*
X88760737Y-98640500D01*
X88506335Y-98640501D01*
X88250366Y-98640501D01*
X88247508Y-98640764D01*
X88247499Y-98640764D01*
X88211996Y-98644026D01*
X88176938Y-98647247D01*
X88170560Y-98649246D01*
X88170559Y-98649246D01*
X88020550Y-98696256D01*
X88020548Y-98696257D01*
X88013301Y-98698528D01*
X87866619Y-98787361D01*
X87745361Y-98908619D01*
X87733109Y-98928850D01*
X87680713Y-98976756D01*
X87629293Y-98989517D01*
X87604702Y-98990290D01*
X87599998Y-98990438D01*
X87596043Y-98990500D01*
X87568144Y-98990500D01*
X87564154Y-98991004D01*
X87552320Y-98991936D01*
X87530170Y-98992633D01*
X87500016Y-98989941D01*
X87441487Y-98977500D01*
X87250513Y-98977500D01*
X87244061Y-98978872D01*
X87244056Y-98978872D01*
X87167552Y-98995134D01*
X87063712Y-99017206D01*
X87057682Y-99019891D01*
X87057681Y-99019891D01*
X86895278Y-99092197D01*
X86895276Y-99092198D01*
X86889248Y-99094882D01*
X86734747Y-99207134D01*
X86730326Y-99212044D01*
X86730325Y-99212045D01*
X86637368Y-99315285D01*
X86606960Y-99349056D01*
X86511473Y-99514444D01*
X86452458Y-99696072D01*
X86432496Y-99886000D01*
X86452458Y-100075928D01*
X86511473Y-100257556D01*
X86606960Y-100422944D01*
X86611378Y-100427851D01*
X86611379Y-100427852D01*
X86705999Y-100532938D01*
X86734747Y-100564866D01*
X86889248Y-100677118D01*
X86895276Y-100679802D01*
X86895278Y-100679803D01*
X86993855Y-100723692D01*
X87063712Y-100754794D01*
X87228603Y-100789843D01*
X87240365Y-100792343D01*
X87302838Y-100826072D01*
X87337160Y-100888221D01*
X87332432Y-100959060D01*
X87290156Y-101016098D01*
X87257263Y-101033991D01*
X87254113Y-101035137D01*
X87248804Y-101036560D01*
X87243823Y-101038882D01*
X87243822Y-101038883D01*
X87052311Y-101128186D01*
X87052306Y-101128189D01*
X87047324Y-101130512D01*
X87042817Y-101133668D01*
X87042815Y-101133669D01*
X86869730Y-101254864D01*
X86869727Y-101254866D01*
X86865219Y-101258023D01*
X86708023Y-101415219D01*
X86704866Y-101419727D01*
X86704864Y-101419730D01*
X86589358Y-101584690D01*
X86580512Y-101597324D01*
X86578189Y-101602306D01*
X86578186Y-101602311D01*
X86529195Y-101707373D01*
X86482277Y-101760658D01*
X86414000Y-101780119D01*
X86346040Y-101759577D01*
X86300805Y-101707373D01*
X86251814Y-101602311D01*
X86251811Y-101602306D01*
X86249488Y-101597324D01*
X86240642Y-101584690D01*
X86125136Y-101419730D01*
X86125134Y-101419727D01*
X86121977Y-101415219D01*
X85964781Y-101258023D01*
X85960273Y-101254866D01*
X85960270Y-101254864D01*
X85876359Y-101196109D01*
X85782677Y-101130512D01*
X85777695Y-101128189D01*
X85777690Y-101128186D01*
X85586178Y-101038883D01*
X85586177Y-101038882D01*
X85581196Y-101036560D01*
X85575888Y-101035138D01*
X85575886Y-101035137D01*
X85504831Y-101016098D01*
X85366463Y-100979022D01*
X85145000Y-100959647D01*
X84923537Y-100979022D01*
X84785169Y-101016098D01*
X84714114Y-101035137D01*
X84714112Y-101035138D01*
X84708804Y-101036560D01*
X84703823Y-101038882D01*
X84703822Y-101038883D01*
X84512311Y-101128186D01*
X84512306Y-101128189D01*
X84507324Y-101130512D01*
X84502817Y-101133668D01*
X84502815Y-101133669D01*
X84329730Y-101254864D01*
X84329727Y-101254866D01*
X84325219Y-101258023D01*
X84168023Y-101415219D01*
X84164866Y-101419727D01*
X84164864Y-101419730D01*
X84049358Y-101584690D01*
X84040512Y-101597324D01*
X84038189Y-101602306D01*
X84038186Y-101602311D01*
X83989195Y-101707373D01*
X83942277Y-101760658D01*
X83874000Y-101780119D01*
X83806040Y-101759577D01*
X83760805Y-101707373D01*
X83711814Y-101602311D01*
X83711811Y-101602306D01*
X83709488Y-101597324D01*
X83700642Y-101584690D01*
X83585136Y-101419730D01*
X83585134Y-101419727D01*
X83581977Y-101415219D01*
X83424781Y-101258023D01*
X83420273Y-101254866D01*
X83420270Y-101254864D01*
X83336359Y-101196109D01*
X83242677Y-101130512D01*
X83237695Y-101128189D01*
X83237690Y-101128186D01*
X83046178Y-101038883D01*
X83046177Y-101038882D01*
X83041196Y-101036560D01*
X83035888Y-101035138D01*
X83035886Y-101035137D01*
X82964831Y-101016098D01*
X82826463Y-100979022D01*
X82605000Y-100959647D01*
X82383537Y-100979022D01*
X82245169Y-101016098D01*
X82174114Y-101035137D01*
X82174112Y-101035138D01*
X82168804Y-101036560D01*
X82163823Y-101038882D01*
X82163822Y-101038883D01*
X81972311Y-101128186D01*
X81972306Y-101128189D01*
X81967324Y-101130512D01*
X81962817Y-101133668D01*
X81962815Y-101133669D01*
X81789730Y-101254864D01*
X81789727Y-101254866D01*
X81785219Y-101258023D01*
X81628023Y-101415219D01*
X81624866Y-101419727D01*
X81624864Y-101419730D01*
X81509358Y-101584690D01*
X81500512Y-101597324D01*
X81498189Y-101602306D01*
X81498186Y-101602311D01*
X81449195Y-101707373D01*
X81402277Y-101760658D01*
X81334000Y-101780119D01*
X81266040Y-101759577D01*
X81220805Y-101707373D01*
X81171814Y-101602311D01*
X81171811Y-101602306D01*
X81169488Y-101597324D01*
X81160642Y-101584690D01*
X81045136Y-101419730D01*
X81045134Y-101419727D01*
X81041977Y-101415219D01*
X80884781Y-101258023D01*
X80880273Y-101254866D01*
X80880270Y-101254864D01*
X80796359Y-101196109D01*
X80702677Y-101130512D01*
X80697695Y-101128189D01*
X80697690Y-101128186D01*
X80506178Y-101038883D01*
X80506177Y-101038882D01*
X80501196Y-101036560D01*
X80495888Y-101035138D01*
X80495886Y-101035137D01*
X80424831Y-101016098D01*
X80286463Y-100979022D01*
X80065000Y-100959647D01*
X79843537Y-100979022D01*
X79705169Y-101016098D01*
X79634114Y-101035137D01*
X79634112Y-101035138D01*
X79628804Y-101036560D01*
X79623823Y-101038882D01*
X79623822Y-101038883D01*
X79432311Y-101128186D01*
X79432306Y-101128189D01*
X79427324Y-101130512D01*
X79422817Y-101133668D01*
X79422815Y-101133669D01*
X79249730Y-101254864D01*
X79249727Y-101254866D01*
X79245219Y-101258023D01*
X79088023Y-101415219D01*
X79084866Y-101419727D01*
X79084864Y-101419730D01*
X78969358Y-101584690D01*
X78960512Y-101597324D01*
X78958189Y-101602306D01*
X78958186Y-101602311D01*
X78919496Y-101685283D01*
X78866560Y-101798804D01*
X78809022Y-102013537D01*
X78789647Y-102235000D01*
X78809022Y-102456463D01*
X78810446Y-102461776D01*
X78861125Y-102650911D01*
X78866560Y-102671196D01*
X78868882Y-102676177D01*
X78868883Y-102676178D01*
X78958186Y-102867689D01*
X78958189Y-102867694D01*
X78960512Y-102872676D01*
X78963668Y-102877183D01*
X78963669Y-102877185D01*
X79084318Y-103049489D01*
X79088023Y-103054781D01*
X79245219Y-103211977D01*
X79249727Y-103215134D01*
X79249730Y-103215136D01*
X79325495Y-103268187D01*
X79427323Y-103339488D01*
X79432305Y-103341811D01*
X79432310Y-103341814D01*
X79537373Y-103390805D01*
X79590658Y-103437722D01*
X79610119Y-103505999D01*
X79589577Y-103573959D01*
X79537373Y-103619195D01*
X79432311Y-103668186D01*
X79432306Y-103668189D01*
X79427324Y-103670512D01*
X79422817Y-103673668D01*
X79422815Y-103673669D01*
X79249730Y-103794864D01*
X79249727Y-103794866D01*
X79245219Y-103798023D01*
X79088023Y-103955219D01*
X79084866Y-103959727D01*
X79084864Y-103959730D01*
X78983922Y-104103891D01*
X78960512Y-104137324D01*
X78958189Y-104142306D01*
X78958186Y-104142311D01*
X78895213Y-104277357D01*
X78866560Y-104338804D01*
X78809022Y-104553537D01*
X78789647Y-104775000D01*
X78809022Y-104996463D01*
X78810446Y-105001776D01*
X78849634Y-105148026D01*
X78866560Y-105211196D01*
X78868882Y-105216177D01*
X78868883Y-105216178D01*
X78958186Y-105407689D01*
X78958189Y-105407694D01*
X78960512Y-105412676D01*
X78963668Y-105417183D01*
X78963669Y-105417185D01*
X79008085Y-105480617D01*
X79088023Y-105594781D01*
X79245219Y-105751977D01*
X79249727Y-105755134D01*
X79249730Y-105755136D01*
X79325495Y-105808187D01*
X79427323Y-105879488D01*
X79432305Y-105881811D01*
X79432310Y-105881814D01*
X79622810Y-105970645D01*
X79628804Y-105973440D01*
X79634112Y-105974862D01*
X79634114Y-105974863D01*
X79695238Y-105991241D01*
X79843537Y-106030978D01*
X80065000Y-106050353D01*
X80286463Y-106030978D01*
X80434762Y-105991241D01*
X80495886Y-105974863D01*
X80495888Y-105974862D01*
X80501196Y-105973440D01*
X80507190Y-105970645D01*
X80697690Y-105881814D01*
X80697695Y-105881811D01*
X80702677Y-105879488D01*
X80804505Y-105808187D01*
X80880270Y-105755136D01*
X80880273Y-105755134D01*
X80884781Y-105751977D01*
X81041977Y-105594781D01*
X81121916Y-105480617D01*
X81166331Y-105417185D01*
X81166332Y-105417183D01*
X81169488Y-105412676D01*
X81171811Y-105407694D01*
X81171814Y-105407689D01*
X81220805Y-105302627D01*
X81267723Y-105249342D01*
X81336000Y-105229881D01*
X81403960Y-105250423D01*
X81449195Y-105302627D01*
X81498186Y-105407689D01*
X81498189Y-105407694D01*
X81500512Y-105412676D01*
X81503668Y-105417183D01*
X81503669Y-105417185D01*
X81548085Y-105480617D01*
X81628023Y-105594781D01*
X81785219Y-105751977D01*
X81789727Y-105755134D01*
X81789730Y-105755136D01*
X81865495Y-105808187D01*
X81967323Y-105879488D01*
X81972305Y-105881811D01*
X81972310Y-105881814D01*
X82162810Y-105970645D01*
X82168804Y-105973440D01*
X82174112Y-105974862D01*
X82174114Y-105974863D01*
X82194788Y-105980402D01*
X82235240Y-105991242D01*
X82295862Y-106028193D01*
X82326883Y-106092053D01*
X82318455Y-106162548D01*
X82291723Y-106202043D01*
X82189171Y-106304595D01*
X82126859Y-106338621D01*
X82100076Y-106341500D01*
X69213259Y-106341500D01*
X69145138Y-106321498D01*
X69124164Y-106304596D01*
X68300184Y-105480617D01*
X68291082Y-105470473D01*
X68271230Y-105445782D01*
X68267365Y-105440975D01*
X68228911Y-105408708D01*
X68225264Y-105405528D01*
X68223452Y-105403885D01*
X68221258Y-105401691D01*
X68187984Y-105374358D01*
X68187186Y-105373696D01*
X68115859Y-105313846D01*
X68111189Y-105311278D01*
X68107072Y-105307897D01*
X68025247Y-105264023D01*
X68024088Y-105263394D01*
X67947952Y-105221538D01*
X67947944Y-105221535D01*
X67942546Y-105218567D01*
X67937464Y-105216955D01*
X67932770Y-105214438D01*
X67843802Y-105187238D01*
X67842774Y-105186918D01*
X67754027Y-105158765D01*
X67748731Y-105158171D01*
X67743635Y-105156613D01*
X67722096Y-105154425D01*
X67712242Y-105153424D01*
X67646491Y-105126639D01*
X67626026Y-105106075D01*
X67543736Y-105001691D01*
X67536504Y-104992517D01*
X67452958Y-104913925D01*
X67354943Y-104821722D01*
X67354941Y-104821720D01*
X67351542Y-104818523D01*
X67200603Y-104713813D01*
X67146726Y-104676437D01*
X67146723Y-104676435D01*
X67142894Y-104673779D01*
X67093049Y-104649198D01*
X66988229Y-104597506D01*
X66935980Y-104549437D01*
X66918014Y-104480752D01*
X66940033Y-104413256D01*
X66995049Y-104368380D01*
X67043958Y-104358500D01*
X67521467Y-104358500D01*
X67583649Y-104351745D01*
X67720038Y-104300615D01*
X67836594Y-104213261D01*
X67923948Y-104096705D01*
X67975078Y-103960316D01*
X67981833Y-103898134D01*
X67981833Y-103165000D01*
X74151372Y-103165000D01*
X74171854Y-103425249D01*
X74173008Y-103430056D01*
X74173009Y-103430062D01*
X74191240Y-103505999D01*
X74232796Y-103679089D01*
X74234689Y-103683660D01*
X74234690Y-103683662D01*
X74324935Y-103901531D01*
X74332697Y-103920271D01*
X74469097Y-104142856D01*
X74638637Y-104341363D01*
X74837144Y-104510903D01*
X75059729Y-104647303D01*
X75064299Y-104649196D01*
X75064303Y-104649198D01*
X75296338Y-104745310D01*
X75300911Y-104747204D01*
X75376786Y-104765420D01*
X75549938Y-104806991D01*
X75549944Y-104806992D01*
X75554751Y-104808146D01*
X75815000Y-104828628D01*
X76075249Y-104808146D01*
X76080056Y-104806992D01*
X76080062Y-104806991D01*
X76253214Y-104765420D01*
X76329089Y-104747204D01*
X76333662Y-104745310D01*
X76565697Y-104649198D01*
X76565701Y-104649196D01*
X76570271Y-104647303D01*
X76792856Y-104510903D01*
X76991363Y-104341363D01*
X77160903Y-104142856D01*
X77297303Y-103920271D01*
X77305066Y-103901531D01*
X77395310Y-103683662D01*
X77395311Y-103683660D01*
X77397204Y-103679089D01*
X77438760Y-103505999D01*
X77456991Y-103430062D01*
X77456992Y-103430056D01*
X77458146Y-103425249D01*
X77478628Y-103165000D01*
X77458146Y-102904751D01*
X77456992Y-102899944D01*
X77456991Y-102899938D01*
X77411492Y-102710423D01*
X77397204Y-102650911D01*
X77318862Y-102461776D01*
X77299198Y-102414303D01*
X77299196Y-102414299D01*
X77297303Y-102409729D01*
X77160903Y-102187144D01*
X76991363Y-101988637D01*
X76792856Y-101819097D01*
X76570271Y-101682697D01*
X76565701Y-101680804D01*
X76565697Y-101680802D01*
X76333662Y-101584690D01*
X76333660Y-101584689D01*
X76329089Y-101582796D01*
X76240069Y-101561424D01*
X76080062Y-101523009D01*
X76080056Y-101523008D01*
X76075249Y-101521854D01*
X75815000Y-101501372D01*
X75554751Y-101521854D01*
X75549944Y-101523008D01*
X75549938Y-101523009D01*
X75389931Y-101561424D01*
X75300911Y-101582796D01*
X75296340Y-101584689D01*
X75296338Y-101584690D01*
X75064303Y-101680802D01*
X75064299Y-101680804D01*
X75059729Y-101682697D01*
X74837144Y-101819097D01*
X74638637Y-101988637D01*
X74469097Y-102187144D01*
X74332697Y-102409729D01*
X74330804Y-102414299D01*
X74330802Y-102414303D01*
X74311138Y-102461776D01*
X74232796Y-102650911D01*
X74218508Y-102710423D01*
X74173009Y-102899938D01*
X74173008Y-102899944D01*
X74171854Y-102904751D01*
X74151372Y-103165000D01*
X67981833Y-103165000D01*
X67981833Y-101401866D01*
X67975078Y-101339684D01*
X67923948Y-101203295D01*
X67836594Y-101086739D01*
X67720038Y-100999385D01*
X67583649Y-100948255D01*
X67521467Y-100941500D01*
X65025199Y-100941500D01*
X64963017Y-100948255D01*
X64902729Y-100970856D01*
X64831923Y-100976039D01*
X64769554Y-100942119D01*
X64735425Y-100879863D01*
X64732500Y-100852874D01*
X64732500Y-99909258D01*
X64752502Y-99841137D01*
X64769405Y-99820163D01*
X65963265Y-98626303D01*
X66025577Y-98592277D01*
X66070050Y-98591690D01*
X66070143Y-98590877D01*
X66074794Y-98591407D01*
X66079383Y-98592278D01*
X66199865Y-98597011D01*
X66328458Y-98602064D01*
X66328463Y-98602064D01*
X66333126Y-98602247D01*
X66436947Y-98590877D01*
X66580902Y-98575112D01*
X66580908Y-98575111D01*
X66585555Y-98574602D01*
X66831126Y-98509948D01*
X66949144Y-98459244D01*
X67060140Y-98411557D01*
X67060143Y-98411555D01*
X67064443Y-98409708D01*
X67068423Y-98407245D01*
X67068427Y-98407243D01*
X67276397Y-98278547D01*
X67276399Y-98278545D01*
X67280380Y-98276082D01*
X67310151Y-98250879D01*
X67470622Y-98115031D01*
X67470624Y-98115029D01*
X67474195Y-98112006D01*
X67641628Y-97921084D01*
X67721442Y-97797000D01*
X67776474Y-97711442D01*
X67779002Y-97707512D01*
X67883300Y-97475980D01*
X67952229Y-97231575D01*
X67969667Y-97094500D01*
X67983878Y-96982798D01*
X67983878Y-96982792D01*
X67984276Y-96979667D01*
X67986624Y-96890000D01*
X67982945Y-96840497D01*
X67968151Y-96641411D01*
X67968150Y-96641407D01*
X67967805Y-96636759D01*
X67963587Y-96618116D01*
X67912792Y-96393639D01*
X67911761Y-96389082D01*
X67893471Y-96342050D01*
X67821417Y-96156762D01*
X67821416Y-96156760D01*
X67819724Y-96152409D01*
X67811776Y-96138503D01*
X67696035Y-95935997D01*
X67696033Y-95935995D01*
X67693716Y-95931940D01*
X67576584Y-95783359D01*
X72326052Y-95783359D01*
X72334765Y-95794879D01*
X72423252Y-95859760D01*
X72431171Y-95864708D01*
X72647543Y-95978547D01*
X72656117Y-95982275D01*
X72886948Y-96062885D01*
X72895957Y-96065299D01*
X73136184Y-96110908D01*
X73145441Y-96111962D01*
X73389773Y-96121563D01*
X73399086Y-96121237D01*
X73642144Y-96094618D01*
X73651321Y-96092917D01*
X73887773Y-96030665D01*
X73896592Y-96027628D01*
X74121250Y-95931107D01*
X74129522Y-95926800D01*
X74337443Y-95798135D01*
X74339286Y-95796796D01*
X74346704Y-95785541D01*
X74340640Y-95775184D01*
X73347478Y-94782022D01*
X73333534Y-94774408D01*
X73331701Y-94774539D01*
X73325086Y-94778790D01*
X72332710Y-95771166D01*
X72326052Y-95783359D01*
X67576584Y-95783359D01*
X67536504Y-95732517D01*
X67421599Y-95624426D01*
X67354943Y-95561722D01*
X67354941Y-95561720D01*
X67351542Y-95558523D01*
X67223720Y-95469850D01*
X67146726Y-95416437D01*
X67146723Y-95416435D01*
X67142894Y-95413779D01*
X67138709Y-95411715D01*
X66988229Y-95337506D01*
X66935980Y-95289437D01*
X66918014Y-95220752D01*
X66940033Y-95153256D01*
X66995049Y-95108380D01*
X67043958Y-95098500D01*
X67521467Y-95098500D01*
X67583649Y-95091745D01*
X67720038Y-95040615D01*
X67836594Y-94953261D01*
X67923948Y-94836705D01*
X67975078Y-94700316D01*
X67981833Y-94638134D01*
X67981833Y-94369835D01*
X71622688Y-94369835D01*
X71634420Y-94614064D01*
X71635557Y-94623324D01*
X71683259Y-94863143D01*
X71685748Y-94872118D01*
X71768374Y-95102250D01*
X71772171Y-95110778D01*
X71887900Y-95326160D01*
X71892911Y-95334027D01*
X71949839Y-95410263D01*
X71961097Y-95418712D01*
X71973516Y-95411940D01*
X72962644Y-94422812D01*
X72969022Y-94411132D01*
X73699074Y-94411132D01*
X73699205Y-94412965D01*
X73703456Y-94419580D01*
X74698398Y-95414522D01*
X74710778Y-95421282D01*
X74719119Y-95415038D01*
X74837366Y-95231202D01*
X74841813Y-95223011D01*
X74885284Y-95126510D01*
X74931500Y-95072616D01*
X74999516Y-95052263D01*
X75067739Y-95071913D01*
X75114508Y-95125328D01*
X75126166Y-95178261D01*
X75126166Y-95658134D01*
X75132921Y-95720316D01*
X75184051Y-95856705D01*
X75271405Y-95973261D01*
X75387961Y-96060615D01*
X75524350Y-96111745D01*
X75586532Y-96118500D01*
X78082800Y-96118500D01*
X78144982Y-96111745D01*
X78281371Y-96060615D01*
X78397927Y-95973261D01*
X78485281Y-95856705D01*
X78512777Y-95783359D01*
X81789386Y-95783359D01*
X81798099Y-95794879D01*
X81886586Y-95859760D01*
X81894505Y-95864708D01*
X82110877Y-95978547D01*
X82119451Y-95982275D01*
X82350282Y-96062885D01*
X82359291Y-96065299D01*
X82599518Y-96110908D01*
X82608775Y-96111962D01*
X82853107Y-96121563D01*
X82862420Y-96121237D01*
X83105478Y-96094618D01*
X83114655Y-96092917D01*
X83351107Y-96030665D01*
X83359926Y-96027628D01*
X83584584Y-95931107D01*
X83592856Y-95926800D01*
X83800777Y-95798135D01*
X83802620Y-95796796D01*
X83810038Y-95785541D01*
X83803974Y-95775184D01*
X82810812Y-94782022D01*
X82796868Y-94774408D01*
X82795035Y-94774539D01*
X82788420Y-94778790D01*
X81796044Y-95771166D01*
X81789386Y-95783359D01*
X78512777Y-95783359D01*
X78536411Y-95720316D01*
X78543166Y-95658134D01*
X78543166Y-94369835D01*
X81086022Y-94369835D01*
X81097754Y-94614064D01*
X81098891Y-94623324D01*
X81146593Y-94863143D01*
X81149082Y-94872118D01*
X81231708Y-95102250D01*
X81235505Y-95110778D01*
X81351234Y-95326160D01*
X81356245Y-95334027D01*
X81413173Y-95410263D01*
X81424431Y-95418712D01*
X81436850Y-95411940D01*
X82425978Y-94422812D01*
X82433592Y-94408868D01*
X82433461Y-94407035D01*
X82429210Y-94400420D01*
X81434828Y-93406038D01*
X81421520Y-93398771D01*
X81411481Y-93405893D01*
X81406581Y-93411784D01*
X81401168Y-93419373D01*
X81274322Y-93628409D01*
X81270084Y-93636726D01*
X81175529Y-93862214D01*
X81172572Y-93871052D01*
X81112384Y-94108042D01*
X81110763Y-94117232D01*
X81086267Y-94360510D01*
X81086022Y-94369835D01*
X78543166Y-94369835D01*
X78543166Y-93161866D01*
X78536411Y-93099684D01*
X78512131Y-93034917D01*
X81787330Y-93034917D01*
X81791903Y-93044693D01*
X82785188Y-94037978D01*
X82799132Y-94045592D01*
X82800965Y-94045461D01*
X82807580Y-94041210D01*
X83800488Y-93048302D01*
X83806872Y-93036612D01*
X83797460Y-93024502D01*
X83671144Y-92936873D01*
X83663116Y-92932145D01*
X83443810Y-92823995D01*
X83435177Y-92820507D01*
X83202288Y-92745958D01*
X83193238Y-92743785D01*
X82951891Y-92704480D01*
X82942602Y-92703668D01*
X82698114Y-92700467D01*
X82688803Y-92701037D01*
X82446522Y-92734010D01*
X82437403Y-92735948D01*
X82202668Y-92804367D01*
X82193915Y-92807639D01*
X81971869Y-92910004D01*
X81963714Y-92914524D01*
X81796468Y-93024175D01*
X81787330Y-93034917D01*
X78512131Y-93034917D01*
X78485281Y-92963295D01*
X78397927Y-92846739D01*
X78281371Y-92759385D01*
X78144982Y-92708255D01*
X78082800Y-92701500D01*
X75586532Y-92701500D01*
X75524350Y-92708255D01*
X75387961Y-92759385D01*
X75271405Y-92846739D01*
X75184051Y-92963295D01*
X75132921Y-93099684D01*
X75126166Y-93161866D01*
X75126166Y-93632433D01*
X75106164Y-93700554D01*
X75052508Y-93747047D01*
X74982234Y-93757151D01*
X74917654Y-93727657D01*
X74884765Y-93680983D01*
X74884310Y-93681200D01*
X74883037Y-93678531D01*
X74882732Y-93678098D01*
X74882297Y-93676980D01*
X74878285Y-93668567D01*
X74756950Y-93456276D01*
X74751740Y-93448553D01*
X74720453Y-93408865D01*
X74708529Y-93400395D01*
X74696994Y-93406882D01*
X73706688Y-94397188D01*
X73699074Y-94411132D01*
X72969022Y-94411132D01*
X72970258Y-94408868D01*
X72970127Y-94407035D01*
X72965876Y-94400420D01*
X71971494Y-93406038D01*
X71958186Y-93398771D01*
X71948147Y-93405893D01*
X71943247Y-93411784D01*
X71937834Y-93419373D01*
X71810988Y-93628409D01*
X71806750Y-93636726D01*
X71712195Y-93862214D01*
X71709238Y-93871052D01*
X71649050Y-94108042D01*
X71647429Y-94117232D01*
X71622933Y-94360510D01*
X71622688Y-94369835D01*
X67981833Y-94369835D01*
X67981833Y-93034917D01*
X72323996Y-93034917D01*
X72328569Y-93044693D01*
X73321854Y-94037978D01*
X73335798Y-94045592D01*
X73337631Y-94045461D01*
X73344246Y-94041210D01*
X74337154Y-93048302D01*
X74343538Y-93036612D01*
X74334126Y-93024502D01*
X74207810Y-92936873D01*
X74199782Y-92932145D01*
X73980476Y-92823995D01*
X73971843Y-92820507D01*
X73738954Y-92745958D01*
X73729904Y-92743785D01*
X73488557Y-92704480D01*
X73479268Y-92703668D01*
X73234780Y-92700467D01*
X73225469Y-92701037D01*
X72983188Y-92734010D01*
X72974069Y-92735948D01*
X72739334Y-92804367D01*
X72730581Y-92807639D01*
X72508535Y-92910004D01*
X72500380Y-92914524D01*
X72333134Y-93024175D01*
X72323996Y-93034917D01*
X67981833Y-93034917D01*
X67981833Y-92141866D01*
X67981462Y-92138446D01*
X67975931Y-92087540D01*
X67975078Y-92079684D01*
X67923948Y-91943295D01*
X67836594Y-91826739D01*
X67720038Y-91739385D01*
X67583649Y-91688255D01*
X67521467Y-91681500D01*
X65025199Y-91681500D01*
X64963017Y-91688255D01*
X64826628Y-91739385D01*
X64710072Y-91826739D01*
X64622718Y-91943295D01*
X64571588Y-92079684D01*
X64570735Y-92087540D01*
X64565205Y-92138446D01*
X64564833Y-92141866D01*
X64564833Y-94638134D01*
X64571588Y-94700316D01*
X64622718Y-94836705D01*
X64710072Y-94953261D01*
X64826628Y-95040615D01*
X64963017Y-95091745D01*
X65025199Y-95098500D01*
X65504052Y-95098500D01*
X65572173Y-95118502D01*
X65618666Y-95172158D01*
X65628770Y-95242432D01*
X65599276Y-95307012D01*
X65556804Y-95338926D01*
X65442713Y-95391522D01*
X65397322Y-95421282D01*
X65234261Y-95528189D01*
X65234256Y-95528193D01*
X65230348Y-95530755D01*
X65192585Y-95564460D01*
X65046439Y-95694900D01*
X65040895Y-95699848D01*
X64878516Y-95895087D01*
X64746780Y-96112182D01*
X64744971Y-96116496D01*
X64744970Y-96116498D01*
X64744131Y-96118500D01*
X64648579Y-96346365D01*
X64586071Y-96592490D01*
X64560629Y-96845151D01*
X64560853Y-96849817D01*
X64560853Y-96849822D01*
X64567241Y-96982798D01*
X64572698Y-97096411D01*
X64572698Y-97096413D01*
X64572813Y-97098798D01*
X64572301Y-97098823D01*
X64561243Y-97165872D01*
X64536830Y-97200268D01*
X63054621Y-98682478D01*
X63044478Y-98691579D01*
X63036130Y-98698291D01*
X62970508Y-98725388D01*
X62900653Y-98712705D01*
X62848745Y-98664269D01*
X62831178Y-98599799D01*
X62831387Y-98511138D01*
X62836486Y-96342050D01*
X62858141Y-87130915D01*
X62878303Y-87062841D01*
X62932068Y-87016475D01*
X62975571Y-87005503D01*
X63112548Y-86996165D01*
X63112554Y-86996164D01*
X63116825Y-86995873D01*
X63121020Y-86995004D01*
X63121022Y-86995004D01*
X63306550Y-86956583D01*
X63398342Y-86937574D01*
X63669343Y-86841607D01*
X63924812Y-86709750D01*
X63928313Y-86707289D01*
X63928317Y-86707287D01*
X64047400Y-86623594D01*
X64160023Y-86544441D01*
X64347823Y-86369926D01*
X64411340Y-86338207D01*
X64433291Y-86336226D01*
X76094347Y-86308254D01*
X91696199Y-86270829D01*
X91764367Y-86290668D01*
X91810989Y-86344212D01*
X91822501Y-86396829D01*
X91822501Y-86571404D01*
X91802499Y-86639525D01*
X91785596Y-86660499D01*
X85905747Y-92540348D01*
X85897461Y-92547888D01*
X85890982Y-92552000D01*
X85885557Y-92557777D01*
X85844357Y-92601651D01*
X85841602Y-92604493D01*
X85821865Y-92624230D01*
X85819385Y-92627427D01*
X85811680Y-92636449D01*
X85787918Y-92661753D01*
X85726705Y-92697718D01*
X85696068Y-92701500D01*
X85049866Y-92701500D01*
X84987684Y-92708255D01*
X84851295Y-92759385D01*
X84734739Y-92846739D01*
X84647385Y-92963295D01*
X84596255Y-93099684D01*
X84589500Y-93161866D01*
X84589500Y-93632433D01*
X84569498Y-93700554D01*
X84515842Y-93747047D01*
X84445568Y-93757151D01*
X84380988Y-93727657D01*
X84348099Y-93680983D01*
X84347644Y-93681200D01*
X84346371Y-93678531D01*
X84346066Y-93678098D01*
X84345631Y-93676980D01*
X84341619Y-93668567D01*
X84220284Y-93456276D01*
X84215074Y-93448553D01*
X84183787Y-93408865D01*
X84171863Y-93400395D01*
X84160328Y-93406882D01*
X83170022Y-94397188D01*
X83162408Y-94411132D01*
X83162539Y-94412965D01*
X83166790Y-94419580D01*
X84161732Y-95414522D01*
X84174112Y-95421282D01*
X84182453Y-95415038D01*
X84300700Y-95231202D01*
X84305147Y-95223011D01*
X84348618Y-95126510D01*
X84394834Y-95072616D01*
X84462850Y-95052263D01*
X84531073Y-95071913D01*
X84577842Y-95125328D01*
X84589500Y-95178261D01*
X84589500Y-95658134D01*
X84596255Y-95720316D01*
X84647385Y-95856705D01*
X84734739Y-95973261D01*
X84851295Y-96060615D01*
X84987684Y-96111745D01*
X85049866Y-96118500D01*
X87546134Y-96118500D01*
X87608316Y-96111745D01*
X87744705Y-96060615D01*
X87861261Y-95973261D01*
X87948615Y-95856705D01*
X87999745Y-95720316D01*
X88006500Y-95658134D01*
X88006500Y-93161866D01*
X87999745Y-93099684D01*
X87948615Y-92963295D01*
X87861261Y-92846739D01*
X87744705Y-92759385D01*
X87736296Y-92756233D01*
X87736295Y-92756232D01*
X87734343Y-92755500D01*
X87732689Y-92754258D01*
X87728425Y-92751923D01*
X87728762Y-92751307D01*
X87677580Y-92712858D01*
X87652881Y-92646296D01*
X87668089Y-92576947D01*
X87689480Y-92548424D01*
X89077075Y-91160829D01*
X98421052Y-91160829D01*
X98429828Y-91394604D01*
X98477868Y-91623559D01*
X98563797Y-91841146D01*
X98685159Y-92041144D01*
X98838483Y-92217834D01*
X98875485Y-92248173D01*
X98875770Y-92248407D01*
X98915764Y-92307067D01*
X98917695Y-92378038D01*
X98880950Y-92438786D01*
X98858610Y-92453733D01*
X98859054Y-92454450D01*
X98708652Y-92547522D01*
X98583695Y-92672697D01*
X98579855Y-92678927D01*
X98579854Y-92678928D01*
X98526940Y-92764771D01*
X98490885Y-92823262D01*
X98488581Y-92830209D01*
X98441650Y-92971703D01*
X98435203Y-92991139D01*
X98434503Y-92997975D01*
X98434502Y-92997978D01*
X98430544Y-93036612D01*
X98424500Y-93095600D01*
X98424500Y-94436400D01*
X98424837Y-94439646D01*
X98424837Y-94439650D01*
X98433876Y-94526763D01*
X98435474Y-94542166D01*
X98437655Y-94548702D01*
X98437655Y-94548704D01*
X98468625Y-94641531D01*
X98491450Y-94709946D01*
X98584522Y-94860348D01*
X98709697Y-94985305D01*
X98715927Y-94989145D01*
X98715928Y-94989146D01*
X98853090Y-95073694D01*
X98860262Y-95078115D01*
X98903927Y-95092598D01*
X99021611Y-95131632D01*
X99021613Y-95131632D01*
X99028139Y-95133797D01*
X99034975Y-95134497D01*
X99034978Y-95134498D01*
X99078031Y-95138909D01*
X99132600Y-95144500D01*
X100923400Y-95144500D01*
X100926646Y-95144163D01*
X100926650Y-95144163D01*
X101022308Y-95134238D01*
X101022312Y-95134237D01*
X101029166Y-95133526D01*
X101035702Y-95131345D01*
X101035704Y-95131345D01*
X101167806Y-95087272D01*
X101196946Y-95077550D01*
X101347348Y-94984478D01*
X101472305Y-94859303D01*
X101486235Y-94836705D01*
X101561275Y-94714968D01*
X101561276Y-94714966D01*
X101565115Y-94708738D01*
X101620797Y-94540861D01*
X101622242Y-94526763D01*
X101629031Y-94460500D01*
X101631500Y-94436400D01*
X106800500Y-94436400D01*
X106800837Y-94439646D01*
X106800837Y-94439650D01*
X106809876Y-94526763D01*
X106811474Y-94542166D01*
X106813655Y-94548702D01*
X106813655Y-94548704D01*
X106844625Y-94641531D01*
X106867450Y-94709946D01*
X106960522Y-94860348D01*
X107085697Y-94985305D01*
X107091927Y-94989145D01*
X107091928Y-94989146D01*
X107229090Y-95073694D01*
X107236262Y-95078115D01*
X107279927Y-95092598D01*
X107397611Y-95131632D01*
X107397613Y-95131632D01*
X107404139Y-95133797D01*
X107410975Y-95134497D01*
X107410978Y-95134498D01*
X107454031Y-95138909D01*
X107508600Y-95144500D01*
X109299400Y-95144500D01*
X109302646Y-95144163D01*
X109302650Y-95144163D01*
X109398308Y-95134238D01*
X109398312Y-95134237D01*
X109405166Y-95133526D01*
X109411702Y-95131345D01*
X109411704Y-95131345D01*
X109543806Y-95087272D01*
X109572946Y-95077550D01*
X109723348Y-94984478D01*
X109848305Y-94859303D01*
X109862235Y-94836705D01*
X109937275Y-94714968D01*
X109937276Y-94714966D01*
X109941115Y-94708738D01*
X109996797Y-94540861D01*
X109998242Y-94526763D01*
X110005031Y-94460500D01*
X110007500Y-94436400D01*
X115950500Y-94436400D01*
X115950837Y-94439646D01*
X115950837Y-94439650D01*
X115959876Y-94526763D01*
X115961474Y-94542166D01*
X115963655Y-94548702D01*
X115963655Y-94548704D01*
X115994625Y-94641531D01*
X116017450Y-94709946D01*
X116110522Y-94860348D01*
X116235697Y-94985305D01*
X116241927Y-94989145D01*
X116241928Y-94989146D01*
X116379090Y-95073694D01*
X116386262Y-95078115D01*
X116429927Y-95092598D01*
X116547611Y-95131632D01*
X116547613Y-95131632D01*
X116554139Y-95133797D01*
X116560975Y-95134497D01*
X116560978Y-95134498D01*
X116604031Y-95138909D01*
X116658600Y-95144500D01*
X118449400Y-95144500D01*
X118452646Y-95144163D01*
X118452650Y-95144163D01*
X118548308Y-95134238D01*
X118548312Y-95134237D01*
X118555166Y-95133526D01*
X118561702Y-95131345D01*
X118561704Y-95131345D01*
X118693806Y-95087272D01*
X118722946Y-95077550D01*
X118873348Y-94984478D01*
X118998305Y-94859303D01*
X119012235Y-94836705D01*
X119087275Y-94714968D01*
X119087276Y-94714966D01*
X119091115Y-94708738D01*
X119146797Y-94540861D01*
X119148242Y-94526763D01*
X119155031Y-94460500D01*
X119157500Y-94436400D01*
X124604500Y-94436400D01*
X124604837Y-94439646D01*
X124604837Y-94439650D01*
X124613876Y-94526763D01*
X124615474Y-94542166D01*
X124617655Y-94548702D01*
X124617655Y-94548704D01*
X124648625Y-94641531D01*
X124671450Y-94709946D01*
X124764522Y-94860348D01*
X124889697Y-94985305D01*
X124895927Y-94989145D01*
X124895928Y-94989146D01*
X125033090Y-95073694D01*
X125040262Y-95078115D01*
X125083927Y-95092598D01*
X125201611Y-95131632D01*
X125201613Y-95131632D01*
X125208139Y-95133797D01*
X125214975Y-95134497D01*
X125214978Y-95134498D01*
X125258031Y-95138909D01*
X125312600Y-95144500D01*
X127103400Y-95144500D01*
X127106646Y-95144163D01*
X127106650Y-95144163D01*
X127202308Y-95134238D01*
X127202312Y-95134237D01*
X127209166Y-95133526D01*
X127215702Y-95131345D01*
X127215704Y-95131345D01*
X127347806Y-95087272D01*
X127376946Y-95077550D01*
X127527348Y-94984478D01*
X127652305Y-94859303D01*
X127666235Y-94836705D01*
X127741275Y-94714968D01*
X127741276Y-94714966D01*
X127745115Y-94708738D01*
X127800797Y-94540861D01*
X127802242Y-94526763D01*
X127809031Y-94460500D01*
X127811500Y-94436400D01*
X127811500Y-93095600D01*
X127811156Y-93092285D01*
X127801238Y-92996692D01*
X127801237Y-92996688D01*
X127800526Y-92989834D01*
X127789275Y-92956109D01*
X127746868Y-92829002D01*
X127744550Y-92822054D01*
X127651478Y-92671652D01*
X127526303Y-92546695D01*
X127516007Y-92540348D01*
X127375738Y-92453885D01*
X127376982Y-92451868D01*
X127332225Y-92412463D01*
X127312761Y-92344187D01*
X127333300Y-92276226D01*
X127351785Y-92254011D01*
X127464930Y-92146076D01*
X127471979Y-92138108D01*
X127605203Y-91959048D01*
X127610802Y-91950018D01*
X127711953Y-91751069D01*
X127715956Y-91741208D01*
X127782138Y-91528071D01*
X127784420Y-91517691D01*
X127787036Y-91497957D01*
X127784840Y-91483793D01*
X127771655Y-91480000D01*
X124646373Y-91480000D01*
X124632842Y-91483973D01*
X124631317Y-91494580D01*
X124657252Y-91618188D01*
X124660312Y-91628384D01*
X124742284Y-91835952D01*
X124747018Y-91845489D01*
X124862796Y-92036285D01*
X124869062Y-92044878D01*
X125015333Y-92213441D01*
X125022965Y-92220862D01*
X125056272Y-92248173D01*
X125096266Y-92306833D01*
X125098197Y-92377803D01*
X125061452Y-92438551D01*
X125038654Y-92453804D01*
X125039054Y-92454450D01*
X124888652Y-92547522D01*
X124763695Y-92672697D01*
X124759855Y-92678927D01*
X124759854Y-92678928D01*
X124706940Y-92764771D01*
X124670885Y-92823262D01*
X124668581Y-92830209D01*
X124621650Y-92971703D01*
X124615203Y-92991139D01*
X124614503Y-92997975D01*
X124614502Y-92997978D01*
X124610544Y-93036612D01*
X124604500Y-93095600D01*
X124604500Y-94436400D01*
X119157500Y-94436400D01*
X119157500Y-93095600D01*
X119157156Y-93092285D01*
X119147238Y-92996692D01*
X119147237Y-92996688D01*
X119146526Y-92989834D01*
X119135275Y-92956109D01*
X119092868Y-92829002D01*
X119090550Y-92822054D01*
X118997478Y-92671652D01*
X118872303Y-92546695D01*
X118862007Y-92540348D01*
X118721738Y-92453885D01*
X118722982Y-92451868D01*
X118678225Y-92412463D01*
X118658761Y-92344187D01*
X118679300Y-92276226D01*
X118697785Y-92254011D01*
X118810930Y-92146076D01*
X118817979Y-92138108D01*
X118951203Y-91959048D01*
X118956802Y-91950018D01*
X119057953Y-91751069D01*
X119061956Y-91741208D01*
X119128138Y-91528071D01*
X119130420Y-91517691D01*
X119133036Y-91497957D01*
X119130840Y-91483793D01*
X119117655Y-91480000D01*
X115992373Y-91480000D01*
X115978842Y-91483973D01*
X115977317Y-91494580D01*
X116003252Y-91618188D01*
X116006312Y-91628384D01*
X116088284Y-91835952D01*
X116093018Y-91845489D01*
X116208796Y-92036285D01*
X116215062Y-92044878D01*
X116361333Y-92213441D01*
X116368965Y-92220862D01*
X116402272Y-92248173D01*
X116442266Y-92306833D01*
X116444197Y-92377803D01*
X116407452Y-92438551D01*
X116384654Y-92453804D01*
X116385054Y-92454450D01*
X116234652Y-92547522D01*
X116109695Y-92672697D01*
X116105855Y-92678927D01*
X116105854Y-92678928D01*
X116052940Y-92764771D01*
X116016885Y-92823262D01*
X116014581Y-92830209D01*
X115967650Y-92971703D01*
X115961203Y-92991139D01*
X115960503Y-92997975D01*
X115960502Y-92997978D01*
X115956544Y-93036612D01*
X115950500Y-93095600D01*
X115950500Y-94436400D01*
X110007500Y-94436400D01*
X110007500Y-93095600D01*
X110007156Y-93092285D01*
X109997238Y-92996692D01*
X109997237Y-92996688D01*
X109996526Y-92989834D01*
X109985275Y-92956109D01*
X109942868Y-92829002D01*
X109940550Y-92822054D01*
X109847478Y-92671652D01*
X109722303Y-92546695D01*
X109712007Y-92540348D01*
X109571738Y-92453885D01*
X109572982Y-92451868D01*
X109528225Y-92412463D01*
X109508761Y-92344187D01*
X109529300Y-92276226D01*
X109547785Y-92254011D01*
X109660930Y-92146076D01*
X109667979Y-92138108D01*
X109801203Y-91959048D01*
X109806802Y-91950018D01*
X109907953Y-91751069D01*
X109911956Y-91741208D01*
X109978138Y-91528071D01*
X109980420Y-91517691D01*
X109983036Y-91497957D01*
X109980840Y-91483793D01*
X109967655Y-91480000D01*
X106842373Y-91480000D01*
X106828842Y-91483973D01*
X106827317Y-91494580D01*
X106853252Y-91618188D01*
X106856312Y-91628384D01*
X106938284Y-91835952D01*
X106943018Y-91845489D01*
X107058796Y-92036285D01*
X107065062Y-92044878D01*
X107211333Y-92213441D01*
X107218965Y-92220862D01*
X107252272Y-92248173D01*
X107292266Y-92306833D01*
X107294197Y-92377803D01*
X107257452Y-92438551D01*
X107234654Y-92453804D01*
X107235054Y-92454450D01*
X107084652Y-92547522D01*
X106959695Y-92672697D01*
X106955855Y-92678927D01*
X106955854Y-92678928D01*
X106902940Y-92764771D01*
X106866885Y-92823262D01*
X106864581Y-92830209D01*
X106817650Y-92971703D01*
X106811203Y-92991139D01*
X106810503Y-92997975D01*
X106810502Y-92997978D01*
X106806544Y-93036612D01*
X106800500Y-93095600D01*
X106800500Y-94436400D01*
X101631500Y-94436400D01*
X101631500Y-93095600D01*
X101631156Y-93092285D01*
X101621238Y-92996692D01*
X101621237Y-92996688D01*
X101620526Y-92989834D01*
X101609275Y-92956109D01*
X101566868Y-92829002D01*
X101564550Y-92822054D01*
X101471478Y-92671652D01*
X101346303Y-92546695D01*
X101336007Y-92540348D01*
X101195738Y-92453885D01*
X101197062Y-92451738D01*
X101152710Y-92412688D01*
X101133248Y-92344411D01*
X101153788Y-92276451D01*
X101172272Y-92254239D01*
X101285306Y-92146410D01*
X101285316Y-92146398D01*
X101289168Y-92142724D01*
X101428813Y-91955035D01*
X101484398Y-91845709D01*
X101532420Y-91751256D01*
X101532420Y-91751255D01*
X101534838Y-91746500D01*
X101604210Y-91523083D01*
X101621239Y-91394604D01*
X101634248Y-91296455D01*
X101634248Y-91296451D01*
X101634948Y-91291171D01*
X101626172Y-91057396D01*
X101578132Y-90828441D01*
X101492203Y-90610854D01*
X101370841Y-90410856D01*
X101217517Y-90234166D01*
X101036614Y-90085835D01*
X101031984Y-90083199D01*
X101031979Y-90083196D01*
X100999484Y-90064699D01*
X100950178Y-90013616D01*
X100936317Y-89943985D01*
X100962301Y-89877915D01*
X100991450Y-89850677D01*
X101032885Y-89822781D01*
X101119896Y-89764202D01*
X101289168Y-89602724D01*
X101428813Y-89415035D01*
X101484398Y-89305709D01*
X101532420Y-89211256D01*
X101532420Y-89211255D01*
X101534838Y-89206500D01*
X101604210Y-88983083D01*
X101621239Y-88854604D01*
X101634248Y-88756455D01*
X101634248Y-88756451D01*
X101634948Y-88751171D01*
X101626172Y-88517396D01*
X101578132Y-88288441D01*
X101492203Y-88070854D01*
X101415825Y-87944987D01*
X101373609Y-87875417D01*
X101373607Y-87875414D01*
X101370841Y-87870856D01*
X101217517Y-87694166D01*
X101036614Y-87545835D01*
X100833305Y-87430104D01*
X100613404Y-87350284D01*
X100608155Y-87349335D01*
X100608152Y-87349334D01*
X100526960Y-87334652D01*
X100383197Y-87308656D01*
X100379058Y-87308461D01*
X100379051Y-87308460D01*
X100360172Y-87307570D01*
X100360165Y-87307570D01*
X100358684Y-87307500D01*
X99744262Y-87307500D01*
X99676359Y-87313262D01*
X99575209Y-87321844D01*
X99575205Y-87321845D01*
X99569898Y-87322295D01*
X99564741Y-87323633D01*
X99564738Y-87323634D01*
X99348629Y-87379725D01*
X99348625Y-87379726D01*
X99343460Y-87381067D01*
X99338594Y-87383259D01*
X99338591Y-87383260D01*
X99228739Y-87432745D01*
X99130163Y-87477150D01*
X98936104Y-87607798D01*
X98766832Y-87769276D01*
X98627187Y-87956965D01*
X98624771Y-87961716D01*
X98624769Y-87961720D01*
X98544824Y-88118961D01*
X98521162Y-88165500D01*
X98451790Y-88388917D01*
X98451089Y-88394204D01*
X98451089Y-88394205D01*
X98434055Y-88522727D01*
X98421052Y-88620829D01*
X98429828Y-88854604D01*
X98477868Y-89083559D01*
X98563797Y-89301146D01*
X98685159Y-89501144D01*
X98838483Y-89677834D01*
X99019386Y-89826165D01*
X99024016Y-89828801D01*
X99024021Y-89828804D01*
X99056516Y-89847301D01*
X99105822Y-89898384D01*
X99119683Y-89968015D01*
X99093699Y-90034085D01*
X99064550Y-90061323D01*
X99059072Y-90065011D01*
X98936104Y-90147798D01*
X98766832Y-90309276D01*
X98627187Y-90496965D01*
X98624771Y-90501716D01*
X98624769Y-90501720D01*
X98566756Y-90615823D01*
X98521162Y-90705500D01*
X98451790Y-90928917D01*
X98451089Y-90934204D01*
X98451089Y-90934205D01*
X98434055Y-91062727D01*
X98421052Y-91160829D01*
X89077075Y-91160829D01*
X92114978Y-88122926D01*
X92177290Y-88088900D01*
X92252290Y-88095612D01*
X92272150Y-88103838D01*
X92280338Y-88104916D01*
X92387021Y-88118961D01*
X92391115Y-88119500D01*
X92830946Y-88119500D01*
X93270884Y-88119499D01*
X93274969Y-88118961D01*
X93274973Y-88118961D01*
X93381663Y-88104916D01*
X93381665Y-88104916D01*
X93389850Y-88103838D01*
X93487491Y-88063394D01*
X93530248Y-88045684D01*
X93530250Y-88045683D01*
X93537876Y-88042524D01*
X93544426Y-88037498D01*
X93658436Y-87950014D01*
X93658437Y-87950013D01*
X93664987Y-87944987D01*
X93670013Y-87938437D01*
X93670016Y-87938434D01*
X93724965Y-87866822D01*
X93762524Y-87817875D01*
X93823838Y-87669850D01*
X93839500Y-87550885D01*
X93839499Y-86391384D01*
X93859501Y-86323265D01*
X93913157Y-86276772D01*
X93965196Y-86265386D01*
X100214766Y-86250395D01*
X106686490Y-86234871D01*
X106754658Y-86254710D01*
X106801280Y-86308254D01*
X106810107Y-86334996D01*
X106853868Y-86543559D01*
X106939797Y-86761146D01*
X106942566Y-86765709D01*
X107047384Y-86938443D01*
X107061159Y-86961144D01*
X107214483Y-87137834D01*
X107395386Y-87286165D01*
X107400016Y-87288801D01*
X107400021Y-87288804D01*
X107432516Y-87307301D01*
X107481822Y-87358384D01*
X107495683Y-87428015D01*
X107469699Y-87494085D01*
X107440550Y-87521323D01*
X107408061Y-87543196D01*
X107312104Y-87607798D01*
X107142832Y-87769276D01*
X107003187Y-87956965D01*
X107000771Y-87961716D01*
X107000769Y-87961720D01*
X106920824Y-88118961D01*
X106897162Y-88165500D01*
X106827790Y-88388917D01*
X106827089Y-88394204D01*
X106827089Y-88394205D01*
X106810055Y-88522727D01*
X106797052Y-88620829D01*
X106805828Y-88854604D01*
X106853868Y-89083559D01*
X106939797Y-89301146D01*
X107061159Y-89501144D01*
X107214483Y-89677834D01*
X107395386Y-89826165D01*
X107400022Y-89828804D01*
X107400025Y-89828806D01*
X107433001Y-89847577D01*
X107482307Y-89898659D01*
X107496169Y-89968289D01*
X107470186Y-90034360D01*
X107441036Y-90061599D01*
X107316845Y-90145210D01*
X107308559Y-90151871D01*
X107147070Y-90305924D01*
X107140021Y-90313892D01*
X107006797Y-90492952D01*
X107001198Y-90501982D01*
X106900047Y-90700931D01*
X106896044Y-90710792D01*
X106829862Y-90923929D01*
X106827580Y-90934309D01*
X106824964Y-90954043D01*
X106827160Y-90968207D01*
X106840345Y-90972000D01*
X109965627Y-90972000D01*
X109979158Y-90968027D01*
X109980683Y-90957420D01*
X109954748Y-90833812D01*
X109951688Y-90823616D01*
X109869716Y-90616048D01*
X109864982Y-90606511D01*
X109749204Y-90415715D01*
X109742938Y-90407122D01*
X109596667Y-90238559D01*
X109589036Y-90231139D01*
X109416458Y-90089632D01*
X109407691Y-90083607D01*
X109375022Y-90065011D01*
X109325715Y-90013929D01*
X109311854Y-89944298D01*
X109337837Y-89878227D01*
X109366987Y-89850989D01*
X109433601Y-89806142D01*
X109495896Y-89764202D01*
X109665168Y-89602724D01*
X109804813Y-89415035D01*
X109860398Y-89305709D01*
X109908420Y-89211256D01*
X109908420Y-89211255D01*
X109910838Y-89206500D01*
X109980210Y-88983083D01*
X109997239Y-88854604D01*
X110010248Y-88756455D01*
X110010248Y-88756451D01*
X110010948Y-88751171D01*
X110002172Y-88517396D01*
X109954132Y-88288441D01*
X109868203Y-88070854D01*
X109791825Y-87944987D01*
X109749609Y-87875417D01*
X109749607Y-87875414D01*
X109746841Y-87870856D01*
X109593517Y-87694166D01*
X109412614Y-87545835D01*
X109407980Y-87543197D01*
X109407979Y-87543196D01*
X109375484Y-87524699D01*
X109326178Y-87473616D01*
X109312317Y-87403985D01*
X109338301Y-87337915D01*
X109367450Y-87310677D01*
X109408885Y-87282781D01*
X109495896Y-87224202D01*
X109665168Y-87062724D01*
X109804813Y-86875035D01*
X109821082Y-86843038D01*
X109908420Y-86671256D01*
X109908420Y-86671255D01*
X109910838Y-86666500D01*
X109980210Y-86443083D01*
X109994392Y-86336082D01*
X110023172Y-86271180D01*
X110082471Y-86232140D01*
X110118997Y-86226637D01*
X113192935Y-86219263D01*
X115832021Y-86212933D01*
X115900189Y-86232772D01*
X115946811Y-86286316D01*
X115954896Y-86314800D01*
X115955828Y-86314604D01*
X115962991Y-86348740D01*
X116003868Y-86543559D01*
X116089797Y-86761146D01*
X116092566Y-86765709D01*
X116197384Y-86938443D01*
X116211159Y-86961144D01*
X116364483Y-87137834D01*
X116545386Y-87286165D01*
X116550016Y-87288801D01*
X116550021Y-87288804D01*
X116582516Y-87307301D01*
X116631822Y-87358384D01*
X116645683Y-87428015D01*
X116619699Y-87494085D01*
X116590550Y-87521323D01*
X116558061Y-87543196D01*
X116462104Y-87607798D01*
X116292832Y-87769276D01*
X116153187Y-87956965D01*
X116150771Y-87961716D01*
X116150769Y-87961720D01*
X116070824Y-88118961D01*
X116047162Y-88165500D01*
X115977790Y-88388917D01*
X115977089Y-88394204D01*
X115977089Y-88394205D01*
X115960055Y-88522727D01*
X115947052Y-88620829D01*
X115955828Y-88854604D01*
X116003868Y-89083559D01*
X116089797Y-89301146D01*
X116211159Y-89501144D01*
X116364483Y-89677834D01*
X116545386Y-89826165D01*
X116550022Y-89828804D01*
X116550025Y-89828806D01*
X116583001Y-89847577D01*
X116632307Y-89898659D01*
X116646169Y-89968289D01*
X116620186Y-90034360D01*
X116591036Y-90061599D01*
X116466845Y-90145210D01*
X116458559Y-90151871D01*
X116297070Y-90305924D01*
X116290021Y-90313892D01*
X116156797Y-90492952D01*
X116151198Y-90501982D01*
X116050047Y-90700931D01*
X116046044Y-90710792D01*
X115979862Y-90923929D01*
X115977580Y-90934309D01*
X115974964Y-90954043D01*
X115977160Y-90968207D01*
X115990345Y-90972000D01*
X119115627Y-90972000D01*
X119129158Y-90968027D01*
X119130683Y-90957420D01*
X119104748Y-90833812D01*
X119101688Y-90823616D01*
X119019716Y-90616048D01*
X119014982Y-90606511D01*
X118899204Y-90415715D01*
X118892938Y-90407122D01*
X118746667Y-90238559D01*
X118739036Y-90231139D01*
X118566458Y-90089632D01*
X118557691Y-90083607D01*
X118525022Y-90065011D01*
X118475715Y-90013929D01*
X118461854Y-89944298D01*
X118487837Y-89878227D01*
X118516987Y-89850989D01*
X118583601Y-89806142D01*
X118645896Y-89764202D01*
X118815168Y-89602724D01*
X118954813Y-89415035D01*
X119010398Y-89305709D01*
X119058420Y-89211256D01*
X119058420Y-89211255D01*
X119060838Y-89206500D01*
X119130210Y-88983083D01*
X119147239Y-88854604D01*
X119160248Y-88756455D01*
X119160248Y-88756451D01*
X119160948Y-88751171D01*
X119152172Y-88517396D01*
X119104132Y-88288441D01*
X119018203Y-88070854D01*
X118941825Y-87944987D01*
X118899609Y-87875417D01*
X118899607Y-87875414D01*
X118896841Y-87870856D01*
X118743517Y-87694166D01*
X118562614Y-87545835D01*
X118557980Y-87543197D01*
X118557979Y-87543196D01*
X118525484Y-87524699D01*
X118476178Y-87473616D01*
X118462317Y-87403985D01*
X118488301Y-87337915D01*
X118517450Y-87310677D01*
X118558885Y-87282781D01*
X118645896Y-87224202D01*
X118815168Y-87062724D01*
X118954813Y-86875035D01*
X118971082Y-86843038D01*
X119058420Y-86671256D01*
X119058420Y-86671255D01*
X119060838Y-86666500D01*
X119130210Y-86443083D01*
X119147302Y-86314125D01*
X119176081Y-86249224D01*
X119235381Y-86210184D01*
X119271905Y-86204681D01*
X123942832Y-86193477D01*
X124483572Y-86192180D01*
X124551740Y-86212019D01*
X124598362Y-86265563D01*
X124607563Y-86304153D01*
X124608978Y-86303979D01*
X124609628Y-86309272D01*
X124609828Y-86314604D01*
X124657868Y-86543559D01*
X124743797Y-86761146D01*
X124746566Y-86765709D01*
X124851384Y-86938443D01*
X124865159Y-86961144D01*
X125018483Y-87137834D01*
X125199386Y-87286165D01*
X125204016Y-87288801D01*
X125204021Y-87288804D01*
X125236516Y-87307301D01*
X125285822Y-87358384D01*
X125299683Y-87428015D01*
X125273699Y-87494085D01*
X125244550Y-87521323D01*
X125212061Y-87543196D01*
X125116104Y-87607798D01*
X124946832Y-87769276D01*
X124807187Y-87956965D01*
X124804771Y-87961716D01*
X124804769Y-87961720D01*
X124724824Y-88118961D01*
X124701162Y-88165500D01*
X124631790Y-88388917D01*
X124631089Y-88394204D01*
X124631089Y-88394205D01*
X124614055Y-88522727D01*
X124601052Y-88620829D01*
X124609828Y-88854604D01*
X124657868Y-89083559D01*
X124743797Y-89301146D01*
X124865159Y-89501144D01*
X125018483Y-89677834D01*
X125199386Y-89826165D01*
X125204022Y-89828804D01*
X125204025Y-89828806D01*
X125237001Y-89847577D01*
X125286307Y-89898659D01*
X125300169Y-89968289D01*
X125274186Y-90034360D01*
X125245036Y-90061599D01*
X125120845Y-90145210D01*
X125112559Y-90151871D01*
X124951070Y-90305924D01*
X124944021Y-90313892D01*
X124810797Y-90492952D01*
X124805198Y-90501982D01*
X124704047Y-90700931D01*
X124700044Y-90710792D01*
X124633862Y-90923929D01*
X124631580Y-90934309D01*
X124628964Y-90954043D01*
X124631160Y-90968207D01*
X124644345Y-90972000D01*
X127769627Y-90972000D01*
X127783158Y-90968027D01*
X127784683Y-90957420D01*
X127758748Y-90833812D01*
X127755688Y-90823616D01*
X127673716Y-90616048D01*
X127668982Y-90606511D01*
X127553204Y-90415715D01*
X127546938Y-90407122D01*
X127400667Y-90238559D01*
X127393036Y-90231139D01*
X127220458Y-90089632D01*
X127211691Y-90083607D01*
X127179022Y-90065011D01*
X127129715Y-90013929D01*
X127115854Y-89944298D01*
X127141837Y-89878227D01*
X127170987Y-89850989D01*
X127237601Y-89806142D01*
X127299896Y-89764202D01*
X127469168Y-89602724D01*
X127608813Y-89415035D01*
X127664398Y-89305709D01*
X127712420Y-89211256D01*
X127712420Y-89211255D01*
X127714838Y-89206500D01*
X127784210Y-88983083D01*
X127801239Y-88854604D01*
X127814248Y-88756455D01*
X127814248Y-88756451D01*
X127814948Y-88751171D01*
X127806172Y-88517396D01*
X127758132Y-88288441D01*
X127672203Y-88070854D01*
X127595825Y-87944987D01*
X127553609Y-87875417D01*
X127553607Y-87875414D01*
X127550841Y-87870856D01*
X127397517Y-87694166D01*
X127216614Y-87545835D01*
X127211980Y-87543197D01*
X127211979Y-87543196D01*
X127179484Y-87524699D01*
X127130178Y-87473616D01*
X127116317Y-87403985D01*
X127142301Y-87337915D01*
X127171450Y-87310677D01*
X127212885Y-87282781D01*
X127299896Y-87224202D01*
X127469168Y-87062724D01*
X127608813Y-86875035D01*
X127625082Y-86843038D01*
X127712420Y-86671256D01*
X127712420Y-86671255D01*
X127714838Y-86666500D01*
X127784210Y-86443083D01*
X127804055Y-86293360D01*
X127832833Y-86228459D01*
X127892133Y-86189419D01*
X127928660Y-86183916D01*
X128009455Y-86183722D01*
X133535670Y-86170467D01*
X133603838Y-86190306D01*
G37*
%TD.AperFunction*%
%TA.AperFunction,Conductor*%
G36*
X119038648Y-124220215D02*
G01*
X119147248Y-124299118D01*
X119153276Y-124301802D01*
X119153278Y-124301803D01*
X119281685Y-124358973D01*
X119321712Y-124376794D01*
X119415113Y-124396647D01*
X119502056Y-124415128D01*
X119502061Y-124415128D01*
X119508513Y-124416500D01*
X119564406Y-124416500D01*
X119632527Y-124436502D01*
X119653501Y-124453405D01*
X120137343Y-124937247D01*
X120144887Y-124945537D01*
X120149000Y-124952018D01*
X120154777Y-124957443D01*
X120198667Y-124998658D01*
X120201509Y-125001413D01*
X120221230Y-125021134D01*
X120224425Y-125023612D01*
X120233447Y-125031318D01*
X120265679Y-125061586D01*
X120272628Y-125065406D01*
X120283432Y-125071346D01*
X120299956Y-125082199D01*
X120315959Y-125094613D01*
X120356543Y-125112176D01*
X120367173Y-125117383D01*
X120405940Y-125138695D01*
X120413617Y-125140666D01*
X120413622Y-125140668D01*
X120425558Y-125143732D01*
X120444266Y-125150137D01*
X120462855Y-125158181D01*
X120470680Y-125159420D01*
X120470682Y-125159421D01*
X120506519Y-125165097D01*
X120518140Y-125167504D01*
X120553289Y-125176528D01*
X120560970Y-125178500D01*
X120581231Y-125178500D01*
X120600940Y-125180051D01*
X120620943Y-125183219D01*
X120628835Y-125182473D01*
X120629914Y-125182507D01*
X120697373Y-125204639D01*
X120742157Y-125259729D01*
X120751712Y-125314913D01*
X120751500Y-125316866D01*
X120751500Y-126313134D01*
X120751869Y-126316531D01*
X120752185Y-126319440D01*
X120758255Y-126375316D01*
X120809385Y-126511705D01*
X120896739Y-126628261D01*
X121013295Y-126715615D01*
X121149684Y-126766745D01*
X121211866Y-126773500D01*
X121500500Y-126773500D01*
X121568621Y-126793502D01*
X121615114Y-126847158D01*
X121626500Y-126899500D01*
X121626500Y-128411406D01*
X121606498Y-128479527D01*
X121589595Y-128500501D01*
X117600500Y-132489595D01*
X117538188Y-132523621D01*
X117511405Y-132526500D01*
X102704500Y-132526500D01*
X102636379Y-132506498D01*
X102589886Y-132452842D01*
X102578500Y-132400500D01*
X102578500Y-132245666D01*
X102571745Y-132183484D01*
X102564077Y-132163030D01*
X102558894Y-132092223D01*
X102564077Y-132074570D01*
X102571745Y-132054116D01*
X102578500Y-131991934D01*
X102578500Y-131905300D01*
X102598502Y-131837179D01*
X102652158Y-131790686D01*
X102704500Y-131779300D01*
X102745180Y-131779300D01*
X102756414Y-131779830D01*
X102763919Y-131781508D01*
X102832212Y-131779362D01*
X102836169Y-131779300D01*
X102864183Y-131779300D01*
X102868108Y-131778804D01*
X102868109Y-131778804D01*
X102868204Y-131778792D01*
X102880049Y-131777859D01*
X102909870Y-131776922D01*
X102916482Y-131776714D01*
X102916483Y-131776714D01*
X102924405Y-131776465D01*
X102943949Y-131770787D01*
X102963312Y-131766777D01*
X102975640Y-131765220D01*
X102975642Y-131765220D01*
X102983499Y-131764227D01*
X102990863Y-131761311D01*
X102990868Y-131761310D01*
X103024756Y-131747893D01*
X103035985Y-131744048D01*
X103052665Y-131739202D01*
X103078593Y-131731669D01*
X103085420Y-131727631D01*
X103085423Y-131727630D01*
X103096106Y-131721312D01*
X103113864Y-131712612D01*
X103125415Y-131708039D01*
X103125421Y-131708035D01*
X103132788Y-131705119D01*
X103140133Y-131699783D01*
X103168688Y-131679036D01*
X103178610Y-131672519D01*
X103209968Y-131653974D01*
X103209972Y-131653971D01*
X103216798Y-131649934D01*
X103231182Y-131635550D01*
X103246216Y-131622709D01*
X103256273Y-131615402D01*
X103262687Y-131610742D01*
X103290978Y-131576544D01*
X103298967Y-131567765D01*
X103960789Y-130905943D01*
X104023101Y-130871917D01*
X104093916Y-130876982D01*
X104137291Y-130908850D01*
X104139512Y-130906629D01*
X104255371Y-131022488D01*
X104262192Y-131026522D01*
X104350294Y-131078625D01*
X104396403Y-131105894D01*
X104404014Y-131108105D01*
X104404016Y-131108106D01*
X104443139Y-131119472D01*
X104553746Y-131151606D01*
X104560151Y-131152110D01*
X104560156Y-131152111D01*
X104588060Y-131154307D01*
X104588068Y-131154307D01*
X104590516Y-131154500D01*
X104659476Y-131154500D01*
X104727597Y-131174502D01*
X104748571Y-131191405D01*
X105245413Y-131688247D01*
X105252957Y-131696537D01*
X105257070Y-131703018D01*
X105302529Y-131745706D01*
X105306737Y-131749658D01*
X105309579Y-131752413D01*
X105329301Y-131772135D01*
X105332425Y-131774558D01*
X105332429Y-131774562D01*
X105332494Y-131774612D01*
X105341515Y-131782317D01*
X105373749Y-131812586D01*
X105380697Y-131816405D01*
X105380699Y-131816407D01*
X105391502Y-131822346D01*
X105408029Y-131833202D01*
X105417768Y-131840757D01*
X105417770Y-131840758D01*
X105424030Y-131845614D01*
X105464610Y-131863174D01*
X105475258Y-131868391D01*
X105503402Y-131883863D01*
X105514010Y-131889695D01*
X105521686Y-131891666D01*
X105521689Y-131891667D01*
X105533632Y-131894733D01*
X105552336Y-131901137D01*
X105560954Y-131904866D01*
X105570925Y-131909181D01*
X105578748Y-131910420D01*
X105578758Y-131910423D01*
X105614594Y-131916099D01*
X105626214Y-131918505D01*
X105658029Y-131926673D01*
X105669040Y-131929500D01*
X105689294Y-131929500D01*
X105709004Y-131931051D01*
X105729013Y-131934220D01*
X105736905Y-131933474D01*
X105755650Y-131931702D01*
X105773032Y-131930059D01*
X105784889Y-131929500D01*
X106657233Y-131929500D01*
X106668416Y-131930027D01*
X106675909Y-131931702D01*
X106683835Y-131931453D01*
X106683836Y-131931453D01*
X106743986Y-131929562D01*
X106747945Y-131929500D01*
X106775856Y-131929500D01*
X106779791Y-131929003D01*
X106779856Y-131928995D01*
X106791693Y-131928062D01*
X106823951Y-131927048D01*
X106827970Y-131926922D01*
X106835889Y-131926673D01*
X106855343Y-131921021D01*
X106874700Y-131917013D01*
X106886930Y-131915468D01*
X106886931Y-131915468D01*
X106894797Y-131914474D01*
X106902168Y-131911555D01*
X106902170Y-131911555D01*
X106935912Y-131898196D01*
X106947142Y-131894351D01*
X106981983Y-131884229D01*
X106981984Y-131884229D01*
X106989593Y-131882018D01*
X106996412Y-131877985D01*
X106996417Y-131877983D01*
X107007028Y-131871707D01*
X107024776Y-131863012D01*
X107043617Y-131855552D01*
X107054483Y-131847658D01*
X107079387Y-131829564D01*
X107089307Y-131823048D01*
X107120535Y-131804580D01*
X107120538Y-131804578D01*
X107127362Y-131800542D01*
X107141683Y-131786221D01*
X107156717Y-131773380D01*
X107160286Y-131770787D01*
X107173107Y-131761472D01*
X107201298Y-131727395D01*
X107209288Y-131718616D01*
X108437247Y-130490657D01*
X108445537Y-130483113D01*
X108452018Y-130479000D01*
X108458159Y-130472461D01*
X108498658Y-130429333D01*
X108501413Y-130426491D01*
X108521135Y-130406769D01*
X108523612Y-130403576D01*
X108531317Y-130394555D01*
X108543640Y-130381432D01*
X108561586Y-130362321D01*
X108565407Y-130355371D01*
X108571346Y-130344568D01*
X108582202Y-130328041D01*
X108589757Y-130318302D01*
X108589758Y-130318300D01*
X108594614Y-130312040D01*
X108612174Y-130271460D01*
X108617391Y-130260812D01*
X108634875Y-130229009D01*
X108634876Y-130229007D01*
X108638695Y-130222060D01*
X108643733Y-130202437D01*
X108650137Y-130183734D01*
X108655033Y-130172420D01*
X108655033Y-130172419D01*
X108658181Y-130165145D01*
X108659420Y-130157322D01*
X108659423Y-130157312D01*
X108665099Y-130121476D01*
X108667505Y-130109856D01*
X108676528Y-130074711D01*
X108676528Y-130074710D01*
X108678500Y-130067030D01*
X108678500Y-130046776D01*
X108680051Y-130027065D01*
X108681980Y-130014886D01*
X108683220Y-130007057D01*
X108679059Y-129963038D01*
X108678500Y-129951181D01*
X108678500Y-128448830D01*
X108698502Y-128380709D01*
X108752158Y-128334216D01*
X108811317Y-128323015D01*
X108813480Y-128323132D01*
X108816866Y-128323500D01*
X109813134Y-128323500D01*
X109875316Y-128316745D01*
X109905771Y-128305328D01*
X109976577Y-128300145D01*
X109994224Y-128305326D01*
X110024684Y-128316745D01*
X110086866Y-128323500D01*
X111083134Y-128323500D01*
X111145316Y-128316745D01*
X111175771Y-128305328D01*
X111246577Y-128300145D01*
X111264224Y-128305326D01*
X111294684Y-128316745D01*
X111356866Y-128323500D01*
X112353134Y-128323500D01*
X112415316Y-128316745D01*
X112445771Y-128305328D01*
X112516577Y-128300145D01*
X112534224Y-128305326D01*
X112564684Y-128316745D01*
X112626866Y-128323500D01*
X113623134Y-128323500D01*
X113685316Y-128316745D01*
X113715771Y-128305328D01*
X113786577Y-128300145D01*
X113804224Y-128305326D01*
X113834684Y-128316745D01*
X113896866Y-128323500D01*
X114893134Y-128323500D01*
X114955316Y-128316745D01*
X114985771Y-128305328D01*
X115056577Y-128300145D01*
X115074224Y-128305326D01*
X115104684Y-128316745D01*
X115166866Y-128323500D01*
X116163134Y-128323500D01*
X116225316Y-128316745D01*
X116255771Y-128305328D01*
X116326577Y-128300145D01*
X116344224Y-128305326D01*
X116374684Y-128316745D01*
X116436866Y-128323500D01*
X117433134Y-128323500D01*
X117495316Y-128316745D01*
X117525771Y-128305328D01*
X117596577Y-128300145D01*
X117614224Y-128305326D01*
X117644684Y-128316745D01*
X117706866Y-128323500D01*
X118703134Y-128323500D01*
X118765316Y-128316745D01*
X118795771Y-128305328D01*
X118866577Y-128300145D01*
X118884224Y-128305326D01*
X118914684Y-128316745D01*
X118976866Y-128323500D01*
X119973134Y-128323500D01*
X120035316Y-128316745D01*
X120171705Y-128265615D01*
X120288261Y-128178261D01*
X120375615Y-128061705D01*
X120426745Y-127925316D01*
X120433500Y-127863134D01*
X120433500Y-125766866D01*
X120426745Y-125704684D01*
X120375615Y-125568295D01*
X120288261Y-125451739D01*
X120171705Y-125364385D01*
X120035316Y-125313255D01*
X119979440Y-125307185D01*
X119976531Y-125306869D01*
X119973134Y-125306500D01*
X118976866Y-125306500D01*
X118973482Y-125306868D01*
X118973309Y-125306877D01*
X118904207Y-125290585D01*
X118854882Y-125239521D01*
X118840500Y-125181061D01*
X118840500Y-124474020D01*
X118841030Y-124462786D01*
X118842708Y-124455281D01*
X118840562Y-124386988D01*
X118840500Y-124383031D01*
X118840500Y-124355017D01*
X118839992Y-124350996D01*
X118839058Y-124339139D01*
X118838649Y-124326102D01*
X118856505Y-124257388D01*
X118908677Y-124209235D01*
X118978599Y-124196933D01*
X119038648Y-124220215D01*
G37*
%TD.AperFunction*%
%TA.AperFunction,Conductor*%
G36*
X101362011Y-122842818D02*
G01*
X101387275Y-122872772D01*
X101443361Y-122965381D01*
X101564619Y-123086639D01*
X101711301Y-123175472D01*
X101718548Y-123177743D01*
X101718550Y-123177744D01*
X101766326Y-123192716D01*
X101874938Y-123226753D01*
X101948365Y-123233500D01*
X101976469Y-123233500D01*
X102430404Y-123233499D01*
X102498525Y-123253501D01*
X102519500Y-123270404D01*
X102640107Y-123391012D01*
X102674132Y-123453324D01*
X102677011Y-123480107D01*
X102677011Y-125347500D01*
X102657009Y-125415621D01*
X102603353Y-125462114D01*
X102551011Y-125473500D01*
X102394000Y-125473500D01*
X102325879Y-125453498D01*
X102279386Y-125399842D01*
X102268000Y-125347500D01*
X102268000Y-125116615D01*
X102263525Y-125101376D01*
X102262135Y-125100171D01*
X102254452Y-125098500D01*
X101732115Y-125098500D01*
X101716876Y-125102975D01*
X101715671Y-125104365D01*
X101714000Y-125112048D01*
X101714000Y-125727158D01*
X101696453Y-125791297D01*
X101650855Y-125868399D01*
X101604438Y-126028169D01*
X101603934Y-126034574D01*
X101603933Y-126034579D01*
X101601693Y-126063042D01*
X101601500Y-126065498D01*
X101601500Y-127373502D01*
X101601693Y-127375950D01*
X101601693Y-127375958D01*
X101603015Y-127392745D01*
X101604438Y-127410831D01*
X101650855Y-127570601D01*
X101663904Y-127592665D01*
X101731509Y-127706980D01*
X101731511Y-127706983D01*
X101735547Y-127713807D01*
X101853193Y-127831453D01*
X101860017Y-127835489D01*
X101860020Y-127835491D01*
X101967589Y-127899107D01*
X101996399Y-127916145D01*
X102004010Y-127918356D01*
X102004012Y-127918357D01*
X102149989Y-127960767D01*
X102149993Y-127960768D01*
X102156169Y-127962562D01*
X102162580Y-127963067D01*
X102166448Y-127963773D01*
X102229865Y-127995690D01*
X102265960Y-128056826D01*
X102263272Y-128127772D01*
X102244633Y-128163287D01*
X102198985Y-128224195D01*
X102147855Y-128360584D01*
X102141100Y-128422766D01*
X102141100Y-129738234D01*
X102147855Y-129800416D01*
X102198985Y-129936805D01*
X102286339Y-130053361D01*
X102402895Y-130140715D01*
X102539284Y-130191845D01*
X102547136Y-130192698D01*
X102547140Y-130192699D01*
X102582844Y-130196577D01*
X102648406Y-130223819D01*
X102688833Y-130282181D01*
X102691289Y-130353136D01*
X102658332Y-130410935D01*
X102597872Y-130471395D01*
X102535560Y-130505421D01*
X102508777Y-130508300D01*
X102246491Y-130508300D01*
X102202261Y-130500282D01*
X102180316Y-130492055D01*
X102118134Y-130485300D01*
X101521866Y-130485300D01*
X101459684Y-130492055D01*
X101323295Y-130543185D01*
X101250767Y-130597542D01*
X101184261Y-130622390D01*
X101114878Y-130607337D01*
X101101875Y-130598827D01*
X101099313Y-130597312D01*
X101093045Y-130592450D01*
X101052312Y-130574824D01*
X101041664Y-130569607D01*
X101021964Y-130558777D01*
X101002781Y-130548231D01*
X100995106Y-130546260D01*
X100995100Y-130546258D01*
X100983067Y-130543169D01*
X100964365Y-130536766D01*
X100945686Y-130528683D01*
X100911850Y-130523324D01*
X100901851Y-130521740D01*
X100890238Y-130519335D01*
X100847260Y-130508300D01*
X100826913Y-130508300D01*
X100807202Y-130506749D01*
X100794928Y-130504805D01*
X100787099Y-130503565D01*
X100779207Y-130504311D01*
X100742922Y-130507741D01*
X100731064Y-130508300D01*
X100396491Y-130508300D01*
X100352261Y-130500282D01*
X100330316Y-130492055D01*
X100268134Y-130485300D01*
X100262422Y-130485300D01*
X100261903Y-130485148D01*
X100261320Y-130485116D01*
X100261327Y-130484979D01*
X100194301Y-130465298D01*
X100173327Y-130448395D01*
X100138627Y-130413695D01*
X100104601Y-130351383D01*
X100109666Y-130280568D01*
X100152213Y-130223732D01*
X100218733Y-130198921D01*
X100227722Y-130198600D01*
X100335534Y-130198600D01*
X100397716Y-130191845D01*
X100534105Y-130140715D01*
X100650661Y-130053361D01*
X100738015Y-129936805D01*
X100789145Y-129800416D01*
X100795900Y-129738234D01*
X100795900Y-129062894D01*
X100815902Y-128994773D01*
X100832805Y-128973799D01*
X100902247Y-128904357D01*
X100910537Y-128896813D01*
X100917018Y-128892700D01*
X100963659Y-128843032D01*
X100966413Y-128840191D01*
X100986134Y-128820470D01*
X100988612Y-128817275D01*
X100996318Y-128808253D01*
X101021158Y-128781801D01*
X101026586Y-128776021D01*
X101034618Y-128761411D01*
X101036346Y-128758268D01*
X101047199Y-128741745D01*
X101052271Y-128735206D01*
X101059613Y-128725741D01*
X101077176Y-128685157D01*
X101082383Y-128674527D01*
X101103695Y-128635760D01*
X101105666Y-128628083D01*
X101105668Y-128628078D01*
X101108732Y-128616142D01*
X101115138Y-128597430D01*
X101120034Y-128586117D01*
X101123181Y-128578845D01*
X101125225Y-128565943D01*
X101130097Y-128535181D01*
X101132504Y-128523560D01*
X101141528Y-128488411D01*
X101141528Y-128488410D01*
X101143500Y-128480730D01*
X101143500Y-128460469D01*
X101145051Y-128440758D01*
X101146881Y-128429207D01*
X101148219Y-128420757D01*
X101144059Y-128376746D01*
X101143500Y-128364889D01*
X101143500Y-127806950D01*
X101163502Y-127738829D01*
X101174059Y-127725729D01*
X101173989Y-127725675D01*
X101178845Y-127719415D01*
X101184453Y-127713807D01*
X101188489Y-127706983D01*
X101188491Y-127706980D01*
X101256096Y-127592665D01*
X101269145Y-127570601D01*
X101315562Y-127410831D01*
X101316986Y-127392745D01*
X101318307Y-127375958D01*
X101318307Y-127375950D01*
X101318500Y-127373502D01*
X101318500Y-126065498D01*
X101318307Y-126063042D01*
X101316067Y-126034579D01*
X101316066Y-126034574D01*
X101315562Y-126028169D01*
X101269145Y-125868399D01*
X101223547Y-125791297D01*
X101206000Y-125727158D01*
X101206000Y-124572385D01*
X101714000Y-124572385D01*
X101718475Y-124587624D01*
X101719865Y-124588829D01*
X101727548Y-124590500D01*
X102249884Y-124590500D01*
X102265123Y-124586025D01*
X102266328Y-124584635D01*
X102267999Y-124576952D01*
X102267999Y-124193017D01*
X102267805Y-124188080D01*
X102265570Y-124159664D01*
X102263270Y-124147069D01*
X102220893Y-124001210D01*
X102214648Y-123986779D01*
X102138089Y-123857322D01*
X102128449Y-123844896D01*
X102022104Y-123738551D01*
X102009678Y-123728911D01*
X101880221Y-123652352D01*
X101865790Y-123646107D01*
X101731395Y-123607061D01*
X101717294Y-123607101D01*
X101714000Y-123614370D01*
X101714000Y-124572385D01*
X101206000Y-124572385D01*
X101206000Y-123620122D01*
X101201525Y-123604883D01*
X101186987Y-123592285D01*
X101148604Y-123532559D01*
X101143500Y-123497061D01*
X101143500Y-123393768D01*
X101144027Y-123382585D01*
X101145702Y-123375092D01*
X101145404Y-123365594D01*
X101145004Y-123352874D01*
X101144299Y-123330468D01*
X101146295Y-123306523D01*
X101146753Y-123305062D01*
X101153500Y-123231635D01*
X101153499Y-122938042D01*
X101173501Y-122869923D01*
X101227156Y-122823430D01*
X101297430Y-122813325D01*
X101362011Y-122842818D01*
G37*
%TD.AperFunction*%
%TD*%
M02*
