M48
; DRILL file {KiCad (6.0.0-0)} date Monday, December 05, 2022 at 01:27:34 PM
; FORMAT={-:-/ absolute / inch / decimal}
; #@! TF.CreationDate,2022-12-05T13:27:34-05:00
; #@! TF.GenerationSoftware,Kicad,Pcbnew,(6.0.0-0)
; #@! TF.FileFunction,Plated,1,4,PTH
FMAT,2
INCH
; #@! TA.AperFunction,Plated,PTH,ViaDrill
T1C0.0157
; #@! TA.AperFunction,Plated,PTH,ComponentDrill
T2C0.0197
; #@! TA.AperFunction,Plated,PTH,ComponentDrill
T3C0.0217
; #@! TA.AperFunction,Plated,PTH,ComponentDrill
T4C0.0300
; #@! TA.AperFunction,Plated,PTH,ComponentDrill
T5C0.0469
; #@! TA.AperFunction,Plated,PTH,ComponentDrill
T6C0.0472
; #@! TA.AperFunction,Plated,PTH,ComponentDrill
T7C0.0866
; #@! TA.AperFunction,Plated,PTH,ComponentDrill
T8C0.0984
%
G90
G05
T1
X3.1288Y-5.0525
X3.1588Y-5.0925
X3.2188Y-5.0625
X3.3685Y-5.1319
X3.4388Y-3.9325
X3.4388Y-5.1025
X3.4714Y-5.1799
X3.6588Y-5.1725
X3.6688Y-4.8425
X3.7188Y-5.1625
X3.7288Y-4.9225
X3.7488Y-3.7525
X3.7888Y-3.8425
X3.7988Y-3.6825
X3.8788Y-4.7125
X3.9843Y-4.5171
X3.9888Y-5.0825
X4.0388Y-4.8725
X4.2388Y-4.4525
X4.2388Y-4.7425
X4.2388Y-4.8325
X4.2488Y-4.6625
X4.3388Y-4.8525
X4.3556Y-4.4657
X4.5621Y-4.4758
X4.5888Y-4.8325
X4.5988Y-4.5725
X4.6488Y-4.7325
X4.6888Y-5.0925
X4.7038Y-4.5475
X4.7088Y-4.8625
X4.7138Y-4.4675
X4.9088Y-4.7325
X4.9138Y-4.8475
T4
X2.7263Y-4.5984
X2.7263Y-4.6984
X2.7263Y-4.7984
X2.7263Y-4.8984
X2.7263Y-4.9984
X2.7263Y-5.0984
X3.1522Y-4.025
X3.1522Y-4.125
X3.2522Y-4.025
X3.2522Y-4.125
X3.3522Y-4.025
X3.3522Y-4.125
X3.4522Y-4.025
X3.4522Y-4.125
X3.5522Y-4.025
X3.5522Y-4.125
X3.6522Y-4.025
X3.6522Y-4.125
X5.0163Y-4.5984
X5.0163Y-4.6984
X5.0163Y-4.7984
X5.0163Y-4.8984
X5.0163Y-4.9984
X5.0163Y-5.0984
T5
X3.9381Y-3.4916
X3.9381Y-3.5916
X3.9381Y-3.6916
X4.2679Y-3.3916
X4.2679Y-3.4916
X4.2679Y-3.5916
X4.2679Y-3.6916
X4.6281Y-3.3916
X4.6281Y-3.4916
X4.6281Y-3.5916
X4.6281Y-3.6916
X4.9688Y-3.3916
X4.9688Y-3.4916
X4.9688Y-3.5916
X4.9688Y-3.6916
T6
X2.6092Y-3.6768
X2.6092Y-3.8146
X2.6092Y-4.0413
X2.6092Y-4.1791
X2.8872Y-3.7169
X3.025Y-3.7169
X3.2598Y-3.7169
X3.3976Y-3.7169
T7
X2.9848Y-4.0616
X2.9848Y-4.8884
X3.8195Y-4.0616
T8
X2.7763Y-4.4734
X2.7763Y-5.2234
X4.9663Y-4.4734
X4.9663Y-5.2234
T2
G00X3.0323Y-5.2652
M15
G01X3.0323Y-5.2907
M16
G05
G00X3.3079Y-5.2652
M15
G01X3.3079Y-5.2907
M16
G05
T3
G00X3.0657Y-5.1717
M15
G01X3.0776Y-5.1717
M16
G05
G00X3.2626Y-5.1717
M15
G01X3.2744Y-5.1717
M16
G05
T0
M30
