%TF.GenerationSoftware,KiCad,Pcbnew,(6.0.0-0)*%
%TF.CreationDate,2022-09-25T22:14:02-04:00*%
%TF.ProjectId,Dome_Controller,446f6d65-5f43-46f6-9e74-726f6c6c6572,rev?*%
%TF.SameCoordinates,Original*%
%TF.FileFunction,Copper,L1,Top*%
%TF.FilePolarity,Positive*%
%FSLAX46Y46*%
G04 Gerber Fmt 4.6, Leading zero omitted, Abs format (unit mm)*
G04 Created by KiCad (PCBNEW (6.0.0-0)) date 2022-09-25 22:14:02*
%MOMM*%
%LPD*%
G01*
G04 APERTURE LIST*
G04 Aperture macros list*
%AMRoundRect*
0 Rectangle with rounded corners*
0 $1 Rounding radius*
0 $2 $3 $4 $5 $6 $7 $8 $9 X,Y pos of 4 corners*
0 Add a 4 corners polygon primitive as box body*
4,1,4,$2,$3,$4,$5,$6,$7,$8,$9,$2,$3,0*
0 Add four circle primitives for the rounded corners*
1,1,$1+$1,$2,$3*
1,1,$1+$1,$4,$5*
1,1,$1+$1,$6,$7*
1,1,$1+$1,$8,$9*
0 Add four rect primitives between the rounded corners*
20,1,$1+$1,$2,$3,$4,$5,0*
20,1,$1+$1,$4,$5,$6,$7,0*
20,1,$1+$1,$6,$7,$8,$9,0*
20,1,$1+$1,$8,$9,$2,$3,0*%
G04 Aperture macros list end*
%TA.AperFunction,ComponentPad*%
%ADD10R,1.600000X1.600000*%
%TD*%
%TA.AperFunction,ComponentPad*%
%ADD11C,1.600000*%
%TD*%
%TA.AperFunction,ComponentPad*%
%ADD12C,4.000000*%
%TD*%
%TA.AperFunction,ComponentPad*%
%ADD13O,2.000000X4.000000*%
%TD*%
%TA.AperFunction,ComponentPad*%
%ADD14O,4.000000X2.000000*%
%TD*%
%TA.AperFunction,ComponentPad*%
%ADD15O,4.400000X2.200000*%
%TD*%
%TA.AperFunction,ComponentPad*%
%ADD16O,1.700000X1.700000*%
%TD*%
%TA.AperFunction,ComponentPad*%
%ADD17R,1.700000X1.700000*%
%TD*%
%TA.AperFunction,ComponentPad*%
%ADD18R,2.400000X2.400000*%
%TD*%
%TA.AperFunction,ComponentPad*%
%ADD19C,2.400000*%
%TD*%
%TA.AperFunction,SMDPad,CuDef*%
%ADD20RoundRect,0.140000X0.170000X-0.140000X0.170000X0.140000X-0.170000X0.140000X-0.170000X-0.140000X0*%
%TD*%
%TA.AperFunction,SMDPad,CuDef*%
%ADD21RoundRect,0.200000X-0.200000X-0.275000X0.200000X-0.275000X0.200000X0.275000X-0.200000X0.275000X0*%
%TD*%
%TA.AperFunction,SMDPad,CuDef*%
%ADD22R,0.400000X1.350000*%
%TD*%
%TA.AperFunction,SMDPad,CuDef*%
%ADD23R,1.500000X1.550000*%
%TD*%
%TA.AperFunction,ComponentPad*%
%ADD24O,0.890000X1.550000*%
%TD*%
%TA.AperFunction,ComponentPad*%
%ADD25O,1.250000X0.950000*%
%TD*%
%TA.AperFunction,SMDPad,CuDef*%
%ADD26R,1.200000X1.550000*%
%TD*%
%TA.AperFunction,SMDPad,CuDef*%
%ADD27R,2.000000X0.900000*%
%TD*%
%TA.AperFunction,SMDPad,CuDef*%
%ADD28R,0.900000X2.000000*%
%TD*%
%TA.AperFunction,SMDPad,CuDef*%
%ADD29R,5.000000X5.000000*%
%TD*%
%TA.AperFunction,SMDPad,CuDef*%
%ADD30RoundRect,0.140000X0.140000X0.170000X-0.140000X0.170000X-0.140000X-0.170000X0.140000X-0.170000X0*%
%TD*%
%TA.AperFunction,SMDPad,CuDef*%
%ADD31RoundRect,0.100000X1.000000X0.400000X-1.000000X0.400000X-1.000000X-0.400000X1.000000X-0.400000X0*%
%TD*%
%TA.AperFunction,SMDPad,CuDef*%
%ADD32RoundRect,0.140000X-0.170000X0.140000X-0.170000X-0.140000X0.170000X-0.140000X0.170000X0.140000X0*%
%TD*%
%TA.AperFunction,SMDPad,CuDef*%
%ADD33RoundRect,0.135000X-0.185000X0.135000X-0.185000X-0.135000X0.185000X-0.135000X0.185000X0.135000X0*%
%TD*%
%TA.AperFunction,SMDPad,CuDef*%
%ADD34R,0.914400X1.219200*%
%TD*%
%TA.AperFunction,WasherPad*%
%ADD35C,3.400000*%
%TD*%
%TA.AperFunction,SMDPad,CuDef*%
%ADD36R,1.000000X1.000000*%
%TD*%
%TA.AperFunction,SMDPad,CuDef*%
%ADD37RoundRect,0.150000X-0.150000X0.587500X-0.150000X-0.587500X0.150000X-0.587500X0.150000X0.587500X0*%
%TD*%
%TA.AperFunction,ComponentPad*%
%ADD38C,1.524000*%
%TD*%
%TA.AperFunction,ComponentPad*%
%ADD39C,2.300000*%
%TD*%
%TA.AperFunction,SMDPad,CuDef*%
%ADD40RoundRect,0.140000X-0.140000X-0.170000X0.140000X-0.170000X0.140000X0.170000X-0.140000X0.170000X0*%
%TD*%
%TA.AperFunction,SMDPad,CuDef*%
%ADD41R,0.300000X0.500000*%
%TD*%
%TA.AperFunction,SMDPad,CuDef*%
%ADD42RoundRect,0.049600X-0.605400X-0.260400X0.605400X-0.260400X0.605400X0.260400X-0.605400X0.260400X0*%
%TD*%
%TA.AperFunction,SMDPad,CuDef*%
%ADD43RoundRect,0.150000X-0.512500X-0.150000X0.512500X-0.150000X0.512500X0.150000X-0.512500X0.150000X0*%
%TD*%
%TA.AperFunction,SMDPad,CuDef*%
%ADD44RoundRect,0.200000X0.200000X0.275000X-0.200000X0.275000X-0.200000X-0.275000X0.200000X-0.275000X0*%
%TD*%
%TA.AperFunction,ViaPad*%
%ADD45C,0.800000*%
%TD*%
%TA.AperFunction,Conductor*%
%ADD46C,0.200000*%
%TD*%
%TA.AperFunction,Conductor*%
%ADD47C,0.250000*%
%TD*%
%TA.AperFunction,Conductor*%
%ADD48C,0.254000*%
%TD*%
%TA.AperFunction,Conductor*%
%ADD49C,0.500000*%
%TD*%
G04 APERTURE END LIST*
D10*
%TO.P,J13,1,1*%
%TO.N,+12V*%
X61790000Y-64740000D03*
D11*
%TO.P,J13,2,2*%
X61790000Y-67510000D03*
%TO.P,J13,3,3*%
%TO.N,GND*%
X61790000Y-70280000D03*
%TO.P,J13,4,4*%
X61790000Y-73050000D03*
%TO.P,J13,5,5*%
%TO.N,+5V*%
X61790000Y-75820000D03*
%TO.P,J13,6,6*%
%TO.N,SR_I2C_CLK*%
X61790000Y-78590000D03*
%TO.P,J13,7,7*%
%TO.N,unconnected-(J13-Pad7)*%
X61790000Y-81360000D03*
%TO.P,J13,8,8*%
%TO.N,GND*%
X61790000Y-84130000D03*
%TO.P,J13,9,9*%
%TO.N,SR_SER_RX*%
X61790000Y-86900000D03*
%TO.P,J13,10,10*%
%TO.N,GND*%
X61790000Y-89670000D03*
%TO.P,J13,11,11*%
X61790000Y-92440000D03*
%TO.P,J13,12,12*%
%TO.N,+12V*%
X61790000Y-95210000D03*
%TO.P,J13,13,13*%
X61790000Y-97980000D03*
%TO.P,J13,14,P14*%
X64630000Y-66125000D03*
%TO.P,J13,15,P15*%
X64630000Y-68895000D03*
%TO.P,J13,16,P16*%
%TO.N,GND*%
X64630000Y-71665000D03*
%TO.P,J13,17,P17*%
X64630000Y-74435000D03*
%TO.P,J13,18,P18*%
X64630000Y-77205000D03*
%TO.P,J13,19,P19*%
%TO.N,SR_I2C_DATA*%
X64630000Y-79975000D03*
%TO.P,J13,20,P20*%
%TO.N,+5V*%
X64630000Y-82745000D03*
%TO.P,J13,21,P21*%
%TO.N,SR_SER_TX*%
X64630000Y-85515000D03*
%TO.P,J13,22,P22*%
%TO.N,GND*%
X64630000Y-88285000D03*
%TO.P,J13,23,P23*%
X64630000Y-91055000D03*
%TO.P,J13,24,P24*%
%TO.N,+12V*%
X64630000Y-93825000D03*
%TO.P,J13,25,P25*%
X64630000Y-96595000D03*
D12*
%TO.P,J13,0,PAD*%
%TO.N,unconnected-(J13-Pad0)*%
X63210000Y-104910000D03*
X63210000Y-57810000D03*
%TD*%
D13*
%TO.P,J14,3*%
%TO.N,GND*%
X71485000Y-64515000D03*
D14*
%TO.P,J14,2*%
X76185000Y-61515000D03*
D15*
%TO.P,J14,1*%
%TO.N,+12V*%
X76185000Y-67515000D03*
%TD*%
D16*
%TO.P,J12,4,Pin_4*%
%TO.N,SR_SER_RX*%
X140760000Y-79395000D03*
%TO.P,J12,3,Pin_3*%
%TO.N,SR_SER_TX*%
X138220000Y-79395000D03*
%TO.P,J12,2,Pin_2*%
%TO.N,GND*%
X135680000Y-79395000D03*
D17*
%TO.P,J12,1,Pin_1*%
%TO.N,+5V*%
X133140000Y-79395000D03*
%TD*%
D16*
%TO.P,J11,8,Pin_8*%
%TO.N,SR_I2C_DATA*%
X140730000Y-84415000D03*
%TO.P,J11,7,Pin_7*%
X140730000Y-86955000D03*
%TO.P,J11,6,Pin_6*%
%TO.N,SR_I2C_CLK*%
X138190000Y-84415000D03*
%TO.P,J11,5,Pin_5*%
X138190000Y-86955000D03*
%TO.P,J11,4,Pin_4*%
%TO.N,GND*%
X135650000Y-84415000D03*
%TO.P,J11,3,Pin_3*%
X135650000Y-86955000D03*
%TO.P,J11,2,Pin_2*%
%TO.N,+5V*%
X133110000Y-84415000D03*
D17*
%TO.P,J11,1,Pin_1*%
X133110000Y-86955000D03*
%TD*%
D18*
%TO.P,J5,1,Pin_1*%
%TO.N,GND*%
X87780000Y-66000000D03*
D19*
%TO.P,J5,2,Pin_2*%
%TO.N,+12V*%
X84280000Y-66000000D03*
%TD*%
D20*
%TO.P,C4,1*%
%TO.N,+3.3V*%
X109420000Y-93120000D03*
%TO.P,C4,2*%
%TO.N,GND*%
X109420000Y-92160000D03*
%TD*%
D19*
%TO.P,J8,2,Pin_2*%
%TO.N,+5V*%
X88480000Y-99510000D03*
D18*
%TO.P,J8,1,Pin_1*%
%TO.N,GND*%
X84980000Y-99510000D03*
%TD*%
D21*
%TO.P,R2,1*%
%TO.N,VBUS*%
X104165000Y-75030000D03*
%TO.P,R2,2*%
%TO.N,GND*%
X105815000Y-75030000D03*
%TD*%
%TO.P,R3,1*%
%TO.N,Net-(R3-Pad1)*%
X100755000Y-81700000D03*
%TO.P,R3,2*%
%TO.N,VIN*%
X102405000Y-81700000D03*
%TD*%
D22*
%TO.P,J1,1,VBUS*%
%TO.N,VBUS*%
X113600000Y-105750000D03*
%TO.P,J1,2,D-*%
%TO.N,D-*%
X114250000Y-105750000D03*
%TO.P,J1,3,D+*%
%TO.N,D+*%
X114900000Y-105750000D03*
%TO.P,J1,4,ID*%
%TO.N,unconnected-(J1-Pad4)*%
X115550000Y-105750000D03*
%TO.P,J1,5,GND*%
%TO.N,GND*%
X116200000Y-105750000D03*
D23*
%TO.P,J1,6,Shield*%
%TO.N,unconnected-(J1-Pad6)*%
X115900000Y-108450000D03*
D24*
X118400000Y-108450000D03*
D25*
X117400000Y-105750000D03*
D26*
X112000000Y-108450000D03*
D25*
X112400000Y-105750000D03*
D26*
X117800000Y-108450000D03*
D23*
X113900000Y-108450000D03*
D24*
X111400000Y-108450000D03*
%TD*%
D27*
%TO.P,U1,1,GND*%
%TO.N,GND*%
X108980000Y-70245000D03*
%TO.P,U1,2,3V3*%
%TO.N,+3.3V*%
X108980000Y-71515000D03*
%TO.P,U1,3,EN*%
%TO.N,RESET*%
X108980000Y-72785000D03*
%TO.P,U1,4,SENSOR_VP*%
%TO.N,unconnected-(U1-Pad4)*%
X108980000Y-74055000D03*
%TO.P,U1,5,SENSOR_VN*%
%TO.N,unconnected-(U1-Pad5)*%
X108980000Y-75325000D03*
%TO.P,U1,6,IO34*%
%TO.N,unconnected-(U1-Pad6)*%
X108980000Y-76595000D03*
%TO.P,U1,7,IO35*%
%TO.N,unconnected-(U1-Pad7)*%
X108980000Y-77865000D03*
%TO.P,U1,8,IO32*%
%TO.N,unconnected-(U1-Pad8)*%
X108980000Y-79135000D03*
%TO.P,U1,9,IO33*%
%TO.N,unconnected-(U1-Pad9)*%
X108980000Y-80405000D03*
%TO.P,U1,10,IO25*%
%TO.N,RX_RS*%
X108980000Y-81675000D03*
%TO.P,U1,11,IO26*%
%TO.N,TX_RS*%
X108980000Y-82945000D03*
%TO.P,U1,12,IO27*%
%TO.N,CL_D*%
X108980000Y-84215000D03*
%TO.P,U1,13,IO14*%
%TO.N,TX_FU*%
X108980000Y-85485000D03*
%TO.P,U1,14,IO12*%
%TO.N,RX_FU*%
X108980000Y-86755000D03*
D28*
%TO.P,U1,15,GND*%
%TO.N,GND*%
X111765000Y-87755000D03*
%TO.P,U1,16,IO13*%
%TO.N,unconnected-(U1-Pad16)*%
X113035000Y-87755000D03*
%TO.P,U1,17,SD2*%
%TO.N,unconnected-(U1-Pad17)*%
X114305000Y-87755000D03*
%TO.P,U1,18,SD3*%
%TO.N,unconnected-(U1-Pad18)*%
X115575000Y-87755000D03*
%TO.P,U1,19,CMD*%
%TO.N,unconnected-(U1-Pad19)*%
X116845000Y-87755000D03*
%TO.P,U1,20,CLK*%
%TO.N,unconnected-(U1-Pad20)*%
X118115000Y-87755000D03*
%TO.P,U1,21,SD0*%
%TO.N,unconnected-(U1-Pad21)*%
X119385000Y-87755000D03*
%TO.P,U1,22,SD1*%
%TO.N,unconnected-(U1-Pad22)*%
X120655000Y-87755000D03*
%TO.P,U1,23,IO15*%
%TO.N,RX_HP*%
X121925000Y-87755000D03*
%TO.P,U1,24,IO2*%
%TO.N,unconnected-(U1-Pad24)*%
X123195000Y-87755000D03*
D27*
%TO.P,U1,25,IO0*%
%TO.N,GPIO0*%
X125980000Y-86755000D03*
%TO.P,U1,26,IO4*%
%TO.N,unconnected-(U1-Pad26)*%
X125980000Y-85485000D03*
%TO.P,U1,27,IO16*%
%TO.N,TX_HP*%
X125980000Y-84215000D03*
%TO.P,U1,28,IO17*%
%TO.N,unconnected-(U1-Pad28)*%
X125980000Y-82945000D03*
%TO.P,U1,29,IO5*%
%TO.N,unconnected-(U1-Pad29)*%
X125980000Y-81675000D03*
%TO.P,U1,30,IO18*%
%TO.N,ST_LED_D*%
X125980000Y-80405000D03*
%TO.P,U1,31,IO19*%
%TO.N,unconnected-(U1-Pad31)*%
X125980000Y-79135000D03*
%TO.P,U1,32,NC*%
%TO.N,unconnected-(U1-Pad32)*%
X125980000Y-77865000D03*
%TO.P,U1,33,IO21*%
%TO.N,SDA*%
X125980000Y-76595000D03*
%TO.P,U1,34,RXD0*%
%TO.N,RXD0*%
X125980000Y-75325000D03*
%TO.P,U1,35,TXD0*%
%TO.N,TXD0*%
X125980000Y-74055000D03*
%TO.P,U1,36,IO22*%
%TO.N,SCL*%
X125980000Y-72785000D03*
%TO.P,U1,37,IO23*%
%TO.N,unconnected-(U1-Pad37)*%
X125980000Y-71515000D03*
%TO.P,U1,38,GND*%
%TO.N,GND*%
X125980000Y-70245000D03*
D29*
%TO.P,U1,39,GND*%
X116480000Y-77745000D03*
%TD*%
D30*
%TO.P,C3,1*%
%TO.N,+3.3V*%
X106350000Y-71550000D03*
%TO.P,C3,2*%
%TO.N,GND*%
X105390000Y-71550000D03*
%TD*%
%TO.P,C5,1*%
%TO.N,GND*%
X103440000Y-80110000D03*
%TO.P,C5,2*%
%TO.N,VIN*%
X102480000Y-80110000D03*
%TD*%
D18*
%TO.P,J9,1,Pin_1*%
%TO.N,GND*%
X93850000Y-99510000D03*
D19*
%TO.P,J9,2,Pin_2*%
%TO.N,+5V*%
X97350000Y-99510000D03*
%TD*%
D30*
%TO.P,C2,1*%
%TO.N,+3.3V*%
X106390000Y-70320000D03*
%TO.P,C2,2*%
%TO.N,GND*%
X105430000Y-70320000D03*
%TD*%
D31*
%TO.P,SW1,1,1*%
%TO.N,GND*%
X118705000Y-101600000D03*
%TO.P,SW1,2,2*%
%TO.N,RESET*%
X110905000Y-101600000D03*
%TD*%
D32*
%TO.P,C7,1*%
%TO.N,+3.3V*%
X105870000Y-83990000D03*
%TO.P,C7,2*%
%TO.N,GND*%
X105870000Y-84950000D03*
%TD*%
D33*
%TO.P,R4,1*%
%TO.N,ST_LED_D*%
X121580000Y-102330000D03*
%TO.P,R4,2*%
%TO.N,Net-(L1-Pad3)*%
X121580000Y-103350000D03*
%TD*%
D34*
%TO.P,CR1,A,A*%
%TO.N,VBUS*%
X105476800Y-77738500D03*
%TO.P,CR1,C,C*%
%TO.N,VIN*%
X102200200Y-77738500D03*
%TD*%
D35*
%TO.P,REF\u002A\u002A,*%
%TO.N,*%
X50000000Y-57000000D03*
%TD*%
D36*
%TO.P,L1,1,DO*%
%TO.N,unconnected-(L1-Pad1)*%
X122375000Y-107320000D03*
%TO.P,L1,2,VSS*%
%TO.N,GND*%
X122375000Y-106020000D03*
%TO.P,L1,3,DI*%
%TO.N,Net-(L1-Pad3)*%
X120345000Y-106020000D03*
%TO.P,L1,4,VDD*%
%TO.N,+5V*%
X120345000Y-107320000D03*
%TD*%
D16*
%TO.P,J3,6,Pin_6*%
%TO.N,TX_HP*%
X140770000Y-70800000D03*
%TO.P,J3,5,Pin_5*%
%TO.N,TX_RS*%
X140770000Y-73340000D03*
%TO.P,J3,4,Pin_4*%
%TO.N,RX_HP*%
X138230000Y-70800000D03*
%TO.P,J3,3,Pin_3*%
%TO.N,RX_RS*%
X138230000Y-73340000D03*
%TO.P,J3,2,Pin_2*%
%TO.N,GND*%
X135690000Y-70800000D03*
D17*
%TO.P,J3,1,Pin_1*%
X135690000Y-73340000D03*
%TD*%
D37*
%TO.P,U2,1,1*%
%TO.N,VBUS*%
X103130000Y-71142500D03*
%TO.P,U2,2,2*%
%TO.N,VIN*%
X101230000Y-71142500D03*
%TO.P,U2,3,3*%
%TO.N,+5V*%
X102180000Y-73017500D03*
%TD*%
D35*
%TO.P,REF\u002A\u002A,*%
%TO.N,*%
X50000000Y-103000000D03*
%TD*%
D17*
%TO.P,J2,1,Pin_1*%
%TO.N,GND*%
X128040000Y-97700000D03*
D16*
%TO.P,J2,2,Pin_2*%
%TO.N,unconnected-(J2-Pad2)*%
X130580000Y-97700000D03*
%TO.P,J2,3,Pin_3*%
%TO.N,SCL*%
X133120000Y-97700000D03*
%TO.P,J2,4,Pin_4*%
%TO.N,SDA*%
X135660000Y-97700000D03*
%TO.P,J2,5,Pin_5*%
%TO.N,+3.3V*%
X138200000Y-97700000D03*
%TO.P,J2,6,Pin_6*%
%TO.N,+5V*%
X140740000Y-97700000D03*
%TD*%
D20*
%TO.P,C6,1*%
%TO.N,+3.3V*%
X100520000Y-95330000D03*
%TO.P,C6,2*%
%TO.N,GND*%
X100520000Y-94370000D03*
%TD*%
D35*
%TO.P,REF\u002A\u002A,*%
%TO.N,*%
X148000000Y-103000000D03*
%TD*%
D16*
%TO.P,J4,3,Pin_3*%
%TO.N,CL_D*%
X140770000Y-92450000D03*
%TO.P,J4,2,Pin_2*%
%TO.N,+5V*%
X138230000Y-92450000D03*
D17*
%TO.P,J4,1,Pin_1*%
%TO.N,GND*%
X135690000Y-92450000D03*
%TD*%
D35*
%TO.P,REF\u002A\u002A,*%
%TO.N,*%
X148000000Y-57000000D03*
%TD*%
D16*
%TO.P,J10,3,Pin_3*%
%TO.N,TX_FU*%
X140770000Y-65070000D03*
%TO.P,J10,2,Pin_2*%
%TO.N,RX_FU*%
X138230000Y-65070000D03*
D17*
%TO.P,J10,1,Pin_1*%
%TO.N,GND*%
X135690000Y-65070000D03*
%TD*%
D19*
%TO.P,J7,2,Pin_2*%
%TO.N,+5V*%
X79520000Y-99590000D03*
D18*
%TO.P,J7,1,Pin_1*%
%TO.N,GND*%
X76020000Y-99590000D03*
%TD*%
D38*
%TO.P,U6,1,VOUT*%
%TO.N,+5V*%
X75035000Y-76185000D03*
%TO.P,U6,2,GND*%
%TO.N,GND*%
X75035000Y-78725000D03*
%TO.P,U6,3,GND*%
X75035000Y-81265000D03*
%TO.P,U6,4,VIN*%
%TO.N,+12V*%
X75035000Y-83805000D03*
%TO.P,U6,5,VRP*%
%TO.N,unconnected-(U6-Pad5)*%
X75035000Y-86345000D03*
%TO.P,U6,6,EN*%
%TO.N,unconnected-(U6-Pad6)*%
X75035000Y-88885000D03*
%TO.P,U6,7,PG*%
%TO.N,unconnected-(U6-Pad7)*%
X77575000Y-88885000D03*
%TO.P,U6,8,VRP*%
%TO.N,unconnected-(U6-Pad8)*%
X77575000Y-86345000D03*
%TO.P,U6,9,VIN*%
%TO.N,+12V*%
X77575000Y-83805000D03*
%TO.P,U6,10,GND*%
%TO.N,GND*%
X77575000Y-81265000D03*
%TO.P,U6,11,GND*%
X77575000Y-78725000D03*
%TO.P,U6,12,VOUT*%
%TO.N,+5V*%
X77575000Y-76185000D03*
D39*
%TO.P,U6,13*%
%TO.N,N/C*%
X75965000Y-71935000D03*
%TO.P,U6,14*%
X75965000Y-93135000D03*
%TO.P,U6,15*%
X96965000Y-93135000D03*
%TD*%
D40*
%TO.P,C1,1*%
%TO.N,RESET*%
X104290000Y-89280000D03*
%TO.P,C1,2*%
%TO.N,GND*%
X105250000Y-89280000D03*
%TD*%
D41*
%TO.P,U5,1*%
%TO.N,RTS*%
X102604200Y-89110000D03*
%TO.P,U5,2*%
%TO.N,DTR*%
X101954200Y-89110000D03*
%TO.P,U5,3*%
%TO.N,GPIO0*%
X101304200Y-89110000D03*
%TO.P,U5,4*%
%TO.N,DTR*%
X101304200Y-90960000D03*
%TO.P,U5,5*%
%TO.N,RTS*%
X101954200Y-90960000D03*
%TO.P,U5,6*%
%TO.N,RESET*%
X102604200Y-90960000D03*
%TD*%
D42*
%TO.P,U4,1,GND*%
%TO.N,GND*%
X102245000Y-93155000D03*
%TO.P,U4,2,TXD*%
%TO.N,RXD0*%
X102245000Y-94425000D03*
%TO.P,U4,3,RXD*%
%TO.N,TXD0*%
X102245000Y-95695000D03*
%TO.P,U4,4,V3*%
%TO.N,+3.3V*%
X102245000Y-96965000D03*
%TO.P,U4,5,UD+*%
%TO.N,D+*%
X102245000Y-98235000D03*
%TO.P,U4,6,UD-*%
%TO.N,D-*%
X102245000Y-99505000D03*
%TO.P,U4,7,NC.*%
%TO.N,unconnected-(U4-Pad7)*%
X102245000Y-100775000D03*
%TO.P,U4,8,~{OUT}*%
%TO.N,unconnected-(U4-Pad8)*%
X102245000Y-102045000D03*
%TO.P,U4,9,~{CTS}*%
%TO.N,unconnected-(U4-Pad9)*%
X107745000Y-102045000D03*
%TO.P,U4,10,~{DSR}*%
%TO.N,unconnected-(U4-Pad10)*%
X107745000Y-100775000D03*
%TO.P,U4,11,~{RI}*%
%TO.N,unconnected-(U4-Pad11)*%
X107745000Y-99505000D03*
%TO.P,U4,12,~{DCD}*%
%TO.N,unconnected-(U4-Pad12)*%
X107745000Y-98235000D03*
%TO.P,U4,13,~{DTR}*%
%TO.N,DTR*%
X107745000Y-96965000D03*
%TO.P,U4,14,~{RTS}*%
%TO.N,RTS*%
X107745000Y-95695000D03*
%TO.P,U4,15,R232*%
%TO.N,unconnected-(U4-Pad15)*%
X107745000Y-94425000D03*
%TO.P,U4,16,VCC*%
%TO.N,+3.3V*%
X107745000Y-93155000D03*
%TD*%
D18*
%TO.P,J6,1,Pin_1*%
%TO.N,GND*%
X97850000Y-65930000D03*
D19*
%TO.P,J6,2,Pin_2*%
%TO.N,+12V*%
X94350000Y-65930000D03*
%TD*%
D43*
%TO.P,U3,1,VIN*%
%TO.N,VIN*%
X102032500Y-83920000D03*
%TO.P,U3,2,VSS*%
%TO.N,GND*%
X102032500Y-84870000D03*
%TO.P,U3,3,CE*%
%TO.N,Net-(R3-Pad1)*%
X102032500Y-85820000D03*
%TO.P,U3,4,NC*%
%TO.N,unconnected-(U3-Pad4)*%
X104307500Y-85820000D03*
%TO.P,U3,5,VOUT*%
%TO.N,+3.3V*%
X104307500Y-83920000D03*
%TD*%
D44*
%TO.P,R1,1*%
%TO.N,+3.3V*%
X106115000Y-90710000D03*
%TO.P,R1,2*%
%TO.N,RESET*%
X104465000Y-90710000D03*
%TD*%
D45*
%TO.N,RESET*%
X110930000Y-97800000D03*
X104200000Y-88360000D03*
%TO.N,GND*%
X105800000Y-88240000D03*
%TO.N,RESET*%
X111470000Y-73410000D03*
%TO.N,RX_FU*%
X114720000Y-81650000D03*
%TO.N,TX_FU*%
X113380000Y-82680000D03*
%TO.N,TX_HP*%
X123780000Y-84130000D03*
%TO.N,RX_HP*%
X125040000Y-89730000D03*
%TO.N,TX_RS*%
X112040000Y-82090000D03*
%TO.N,CL_D*%
X111630000Y-84080000D03*
%TO.N,D-*%
X104480000Y-99980000D03*
%TO.N,D+*%
X103990000Y-98090000D03*
X115400000Y-103600000D03*
%TO.N,D-*%
X113805000Y-103555000D03*
%TO.N,RXD0*%
X104100000Y-94780000D03*
%TO.N,TXD0*%
X104000000Y-96220000D03*
%TO.N,+5V*%
X118995000Y-104205000D03*
%TO.N,RX_RS*%
X111490000Y-79760000D03*
%TO.N,ST_LED_D*%
X124270000Y-81410000D03*
X122020000Y-100770000D03*
%TO.N,TXD0*%
X128480000Y-73690000D03*
%TO.N,RXD0*%
X128560000Y-75310000D03*
%TD*%
D46*
%TO.N,RESET*%
X102604200Y-90960000D02*
X102610000Y-90960000D01*
X102610000Y-90960000D02*
X104290000Y-89280000D01*
X102604200Y-90960000D02*
X104215000Y-90960000D01*
X104215000Y-90960000D02*
X104465000Y-90710000D01*
X110905000Y-97825000D02*
X110930000Y-97800000D01*
X110905000Y-101600000D02*
X110905000Y-97825000D01*
%TO.N,GND*%
X105250000Y-88790000D02*
X105800000Y-88240000D01*
X105250000Y-89280000D02*
X105250000Y-88790000D01*
%TO.N,RESET*%
X104290000Y-88450000D02*
X104200000Y-88360000D01*
X104290000Y-89280000D02*
X104290000Y-88450000D01*
X110845000Y-72785000D02*
X111470000Y-73410000D01*
X108980000Y-72785000D02*
X110845000Y-72785000D01*
%TO.N,RX_FU*%
X108980000Y-86755000D02*
X109279511Y-86455489D01*
X109279511Y-86455489D02*
X111154511Y-86455489D01*
X111154511Y-86455489D02*
X114720000Y-82890000D01*
X114720000Y-82890000D02*
X114720000Y-81650000D01*
%TO.N,TX_FU*%
X113380000Y-83319259D02*
X113380000Y-82680000D01*
X111214259Y-85485000D02*
X113380000Y-83319259D01*
X108980000Y-85485000D02*
X111214259Y-85485000D01*
D47*
%TO.N,GND*%
X116480000Y-77745000D02*
X115830000Y-78395000D01*
X115830000Y-78395000D02*
X115830000Y-82860978D01*
X115830000Y-82860978D02*
X111765000Y-86925978D01*
X111765000Y-86925978D02*
X111765000Y-87755000D01*
D46*
%TO.N,TX_HP*%
X123865000Y-84215000D02*
X123780000Y-84130000D01*
X125980000Y-84215000D02*
X123865000Y-84215000D01*
%TO.N,RX_HP*%
X123120978Y-89730000D02*
X125040000Y-89730000D01*
X121925000Y-88534022D02*
X123120978Y-89730000D01*
X121925000Y-87755000D02*
X121925000Y-88534022D01*
%TO.N,TX_RS*%
X111185000Y-82945000D02*
X112040000Y-82090000D01*
X108980000Y-82945000D02*
X111185000Y-82945000D01*
%TO.N,SR_I2C_DATA*%
X140730000Y-86955000D02*
X140730000Y-84415000D01*
%TO.N,SR_I2C_CLK*%
X138190000Y-86955000D02*
X138190000Y-84415000D01*
%TO.N,CL_D*%
X111495000Y-84215000D02*
X111630000Y-84080000D01*
X108980000Y-84215000D02*
X111495000Y-84215000D01*
D48*
%TO.N,GND*%
X105870000Y-84950000D02*
X105870000Y-86350000D01*
X100300000Y-94150000D02*
X100520000Y-94370000D01*
X105870000Y-86350000D02*
X105340000Y-86880000D01*
X105340000Y-86880000D02*
X103568545Y-86880000D01*
X101735000Y-93155000D02*
X102245000Y-93155000D01*
X103437025Y-87011520D02*
X101658480Y-87011520D01*
X103568545Y-86880000D02*
X103437025Y-87011520D01*
X101658480Y-87011520D02*
X100300000Y-88370000D01*
X100300000Y-88370000D02*
X100300000Y-94150000D01*
X100520000Y-94370000D02*
X101735000Y-93155000D01*
D46*
%TO.N,D-*%
X104005000Y-99505000D02*
X104480000Y-99980000D01*
X102245000Y-99505000D02*
X104005000Y-99505000D01*
%TO.N,D+*%
X103845000Y-98235000D02*
X103990000Y-98090000D01*
X102245000Y-98235000D02*
X103845000Y-98235000D01*
X114900000Y-104100000D02*
X115400000Y-103600000D01*
X114900000Y-105750000D02*
X114900000Y-104100000D01*
%TO.N,D-*%
X114250000Y-104000000D02*
X113805000Y-103555000D01*
X114250000Y-105750000D02*
X114250000Y-104000000D01*
D48*
%TO.N,GPIO0*%
X101304200Y-89110000D02*
X101304200Y-88706978D01*
X129750000Y-89451454D02*
X127053546Y-86755000D01*
X101304200Y-88706978D02*
X102546138Y-87465040D01*
X106123520Y-87333520D02*
X110179273Y-91389273D01*
X128490000Y-92610000D02*
X129750000Y-91350000D01*
X103624879Y-87465040D02*
X103756399Y-87333520D01*
X102546138Y-87465040D02*
X103624879Y-87465040D01*
X103756399Y-87333520D02*
X106123520Y-87333520D01*
X129750000Y-91350000D02*
X129750000Y-89451454D01*
X123389273Y-91389273D02*
X124610000Y-92610000D01*
X124610000Y-92610000D02*
X128490000Y-92610000D01*
X110179273Y-91389273D02*
X123389273Y-91389273D01*
X127053546Y-86755000D02*
X125980000Y-86755000D01*
D46*
%TO.N,+3.3V*%
X109420000Y-93120000D02*
X117845361Y-93120000D01*
X117845361Y-93120000D02*
X119615361Y-94890000D01*
D47*
X104307500Y-83920000D02*
X104307500Y-84354430D01*
X103250000Y-85411930D02*
X103250000Y-86560000D01*
X104307500Y-84354430D02*
X103250000Y-85411930D01*
X103250000Y-86560000D02*
X101110000Y-86560000D01*
X101110000Y-86560000D02*
X99330000Y-88340000D01*
X99330000Y-88340000D02*
X99330000Y-97880000D01*
X99330000Y-97880000D02*
X99330000Y-101500000D01*
D48*
X102245000Y-96965000D02*
X100245000Y-96965000D01*
X100245000Y-96965000D02*
X99330000Y-97880000D01*
D46*
%TO.N,GND*%
X105250000Y-89280000D02*
X106116810Y-89280000D01*
X106116810Y-89280000D02*
X108996810Y-92160000D01*
X108996810Y-92160000D02*
X109420000Y-92160000D01*
%TO.N,+3.3V*%
X107745000Y-93155000D02*
X109385000Y-93155000D01*
X109385000Y-93155000D02*
X109420000Y-93120000D01*
X106115000Y-90710000D02*
X106115000Y-91525000D01*
X106115000Y-91525000D02*
X107745000Y-93155000D01*
D47*
X127579022Y-94890000D02*
X129405489Y-96716467D01*
X119615361Y-94890000D02*
X127579022Y-94890000D01*
X99330000Y-101500000D02*
X100850000Y-103020000D01*
X100850000Y-103020000D02*
X111485361Y-103020000D01*
X129405489Y-99255489D02*
X131210000Y-101060000D01*
X134840000Y-101060000D02*
X138200000Y-97700000D01*
X111485361Y-103020000D02*
X119615361Y-94890000D01*
X129405489Y-96716467D02*
X129405489Y-99255489D01*
X131210000Y-101060000D02*
X134840000Y-101060000D01*
D46*
%TO.N,SDA*%
X135660000Y-97700000D02*
X133690000Y-99670000D01*
X131729511Y-90319511D02*
X129010000Y-87600000D01*
X129010000Y-78845978D02*
X126759022Y-76595000D01*
X133690000Y-99670000D02*
X132820000Y-99670000D01*
X132820000Y-99670000D02*
X131729511Y-98579511D01*
X131729511Y-98579511D02*
X131729511Y-90319511D01*
X129010000Y-87600000D02*
X129010000Y-78845978D01*
X126759022Y-76595000D02*
X125980000Y-76595000D01*
%TO.N,SCL*%
X125980000Y-72785000D02*
X129135000Y-72785000D01*
X129135000Y-72785000D02*
X130270000Y-73920000D01*
X130270000Y-73920000D02*
X130270000Y-87440000D01*
X133120000Y-90290000D02*
X133120000Y-97700000D01*
X130270000Y-87440000D02*
X133120000Y-90290000D01*
D48*
%TO.N,RXD0*%
X103745000Y-94425000D02*
X104100000Y-94780000D01*
X102245000Y-94425000D02*
X103745000Y-94425000D01*
%TO.N,TXD0*%
X103475000Y-95695000D02*
X104000000Y-96220000D01*
X102245000Y-95695000D02*
X103475000Y-95695000D01*
%TO.N,DTR*%
X101304200Y-90960000D02*
X101304200Y-90171648D01*
X101304200Y-90171648D02*
X101954200Y-89521648D01*
X101954200Y-89521648D02*
X101954200Y-89110000D01*
%TO.N,RTS*%
X101954200Y-90960000D02*
X101954200Y-90163022D01*
X101954200Y-90163022D02*
X102604200Y-89513022D01*
X102604200Y-89513022D02*
X102604200Y-89110000D01*
%TO.N,DTR*%
X107745000Y-96965000D02*
X107617286Y-96965000D01*
X103540000Y-92887714D02*
X103540000Y-92560000D01*
X101863520Y-92203520D02*
X101304200Y-91644200D01*
X107617286Y-96965000D02*
X103540000Y-92887714D01*
X103540000Y-92560000D02*
X103183520Y-92203520D01*
X103183520Y-92203520D02*
X101863520Y-92203520D01*
X101304200Y-91644200D02*
X101304200Y-90960000D01*
%TO.N,RTS*%
X105750000Y-94010000D02*
X105750000Y-94420000D01*
X103490000Y-91750000D02*
X105750000Y-94010000D01*
X105750000Y-94420000D02*
X107025000Y-95695000D01*
X101954200Y-91464000D02*
X102240200Y-91750000D01*
X101954200Y-90960000D02*
X101954200Y-91464000D01*
X102240200Y-91750000D02*
X103490000Y-91750000D01*
X107025000Y-95695000D02*
X107745000Y-95695000D01*
%TO.N,+3.3V*%
X100370000Y-95340000D02*
X101995000Y-96965000D01*
X101995000Y-96965000D02*
X102245000Y-96965000D01*
%TO.N,GND*%
X123273489Y-100043489D02*
X123350000Y-100120000D01*
X123350000Y-100120000D02*
X124286000Y-101056000D01*
X128040000Y-97700000D02*
X125770000Y-97700000D01*
X125770000Y-97700000D02*
X123350000Y-100120000D01*
X116200000Y-105750000D02*
X116200000Y-103775000D01*
X119931511Y-100043489D02*
X123273489Y-100043489D01*
X116200000Y-103775000D02*
X119931511Y-100043489D01*
X122375000Y-104611000D02*
X122375000Y-106020000D01*
X124286000Y-101056000D02*
X124286000Y-102700000D01*
X124286000Y-102700000D02*
X122375000Y-104611000D01*
%TO.N,+5V*%
X102180000Y-73017500D02*
X91742500Y-73017500D01*
X91742500Y-73017500D02*
X87730000Y-77030000D01*
X87730000Y-77030000D02*
X87730000Y-98760000D01*
X87730000Y-98760000D02*
X88290000Y-99320000D01*
%TO.N,VBUS*%
X113600000Y-105750000D02*
X113600000Y-105275000D01*
X99921099Y-71040000D02*
X100882619Y-70078480D01*
X112105000Y-103780000D02*
X85000000Y-103780000D01*
X85000000Y-103780000D02*
X82430000Y-101210000D01*
X113600000Y-105275000D02*
X112105000Y-103780000D01*
X86010000Y-76420000D02*
X91390000Y-71040000D01*
X82430000Y-101210000D02*
X82430000Y-95460000D01*
X82430000Y-95460000D02*
X86010000Y-91880000D01*
X86010000Y-91880000D02*
X86010000Y-76420000D01*
X91390000Y-71040000D02*
X99921099Y-71040000D01*
D49*
%TO.N,unconnected-(J13-Pad0)*%
X63210000Y-104910000D02*
X57970000Y-99670000D01*
X57970000Y-99670000D02*
X57970000Y-63330000D01*
X57970000Y-63330000D02*
X63210000Y-58090000D01*
X63210000Y-58090000D02*
X63210000Y-57810000D01*
%TO.N,+12V*%
X76185000Y-67515000D02*
X82765000Y-67515000D01*
X82765000Y-67515000D02*
X84280000Y-66000000D01*
X69780000Y-74045000D02*
X69780000Y-79990000D01*
X69780000Y-79990000D02*
X73595000Y-83805000D01*
X64630000Y-68895000D02*
X69780000Y-74045000D01*
X73595000Y-83805000D02*
X75035000Y-83805000D01*
X61790000Y-67510000D02*
X61790000Y-64740000D01*
X64630000Y-68895000D02*
X63175000Y-68895000D01*
X63175000Y-68895000D02*
X61790000Y-67510000D01*
X64630000Y-66125000D02*
X64630000Y-68895000D01*
X61790000Y-64740000D02*
X63245000Y-64740000D01*
X63245000Y-64740000D02*
X64630000Y-66125000D01*
X64630000Y-93825000D02*
X74650000Y-83805000D01*
X74650000Y-83805000D02*
X75035000Y-83805000D01*
X64630000Y-96595000D02*
X64630000Y-93825000D01*
X61790000Y-97980000D02*
X63245000Y-97980000D01*
X63245000Y-97980000D02*
X64630000Y-96595000D01*
X61790000Y-95210000D02*
X63245000Y-95210000D01*
X63245000Y-95210000D02*
X64630000Y-93825000D01*
X61790000Y-97980000D02*
X61790000Y-95210000D01*
D48*
%TO.N,GND*%
X108418480Y-69683480D02*
X108980000Y-70245000D01*
D47*
X104821122Y-80110000D02*
X106260000Y-78671122D01*
D48*
X105430000Y-70310000D02*
X106056520Y-69683480D01*
D47*
X116480000Y-74995000D02*
X111730000Y-70245000D01*
X105815000Y-75030000D02*
X105390000Y-74605000D01*
X116480000Y-77745000D02*
X116480000Y-74995000D01*
X102032500Y-84870000D02*
X102416072Y-84870000D01*
X103440000Y-80110000D02*
X104821122Y-80110000D01*
X121230000Y-70245000D02*
X125980000Y-70245000D01*
X116480000Y-74995000D02*
X121230000Y-70245000D01*
X105870000Y-85744022D02*
X107880978Y-87755000D01*
X103320480Y-80229520D02*
X103440000Y-80110000D01*
X111730000Y-70245000D02*
X108980000Y-70245000D01*
X105870000Y-84950000D02*
X105870000Y-85744022D01*
X107880978Y-87755000D02*
X111765000Y-87755000D01*
D48*
X106056520Y-69683480D02*
X108418480Y-69683480D01*
X97820000Y-65360000D02*
X101930000Y-69470000D01*
D47*
X103320480Y-83965592D02*
X103320480Y-80229520D01*
D48*
X105430000Y-70320000D02*
X105430000Y-70310000D01*
D47*
X105390000Y-74605000D02*
X105390000Y-71550000D01*
D48*
X105430000Y-70320000D02*
X105430000Y-71510000D01*
X104580000Y-69470000D02*
X105430000Y-70320000D01*
D47*
X106260000Y-78671122D02*
X106260000Y-75475000D01*
D48*
X101930000Y-69470000D02*
X104580000Y-69470000D01*
D47*
X106260000Y-75475000D02*
X105815000Y-75030000D01*
D48*
X105430000Y-71510000D02*
X105390000Y-71550000D01*
D47*
X102416072Y-84870000D02*
X103320480Y-83965592D01*
%TO.N,+3.3V*%
X106920000Y-72745978D02*
X106920000Y-81307500D01*
X106920000Y-81307500D02*
X104307500Y-83920000D01*
X108150978Y-71515000D02*
X106920000Y-72745978D01*
X108980000Y-71515000D02*
X106385000Y-71515000D01*
X108980000Y-71515000D02*
X108150978Y-71515000D01*
X107585000Y-71515000D02*
X106390000Y-70320000D01*
X104307500Y-83920000D02*
X105800000Y-83920000D01*
X108980000Y-71515000D02*
X107585000Y-71515000D01*
X105800000Y-83920000D02*
X105870000Y-83990000D01*
X106385000Y-71515000D02*
X106350000Y-71550000D01*
%TO.N,VIN*%
X101230000Y-71142500D02*
X101721428Y-71142500D01*
X102405000Y-80185000D02*
X102480000Y-80110000D01*
X102804520Y-72225592D02*
X102804520Y-77134180D01*
X101721428Y-71142500D02*
X102804520Y-72225592D01*
X102480000Y-78018300D02*
X102200200Y-77738500D01*
X102804520Y-77134180D02*
X102200200Y-77738500D01*
X102032500Y-82072500D02*
X102405000Y-81700000D01*
X102405000Y-81700000D02*
X102405000Y-80185000D01*
X102480000Y-80110000D02*
X102480000Y-78018300D01*
X102032500Y-83920000D02*
X102032500Y-82072500D01*
%TO.N,VBUS*%
X104165000Y-72177500D02*
X104165000Y-75030000D01*
X104165000Y-75030000D02*
X105476800Y-76341800D01*
X102067980Y-70080480D02*
X103130000Y-71142500D01*
X103130000Y-71142500D02*
X104165000Y-72177500D01*
X100883448Y-70080480D02*
X102067980Y-70080480D01*
X105476800Y-76341800D02*
X105476800Y-77738500D01*
D48*
%TO.N,unconnected-(J1-Pad6)*%
X113900000Y-108450000D02*
X115900000Y-108450000D01*
X112400000Y-108050000D02*
X112000000Y-108450000D01*
X117800000Y-108450000D02*
X117800000Y-106150000D01*
X115900000Y-108450000D02*
X117800000Y-108450000D01*
X117800000Y-106150000D02*
X117400000Y-105750000D01*
X112400000Y-105750000D02*
X112400000Y-108050000D01*
X112000000Y-108450000D02*
X113900000Y-108450000D01*
D47*
%TO.N,+5V*%
X118995000Y-106319022D02*
X118995000Y-104205000D01*
X120345000Y-107320000D02*
X119995978Y-107320000D01*
X119995978Y-107320000D02*
X118995000Y-106319022D01*
D48*
%TO.N,RX_RS*%
X108980000Y-81675000D02*
X110234000Y-81675000D01*
X110234000Y-81675000D02*
X111490000Y-80419000D01*
X111490000Y-80419000D02*
X111490000Y-79760000D01*
D47*
%TO.N,Net-(R3-Pad1)*%
X100755000Y-84926072D02*
X100755000Y-81700000D01*
X102032500Y-85820000D02*
X101648928Y-85820000D01*
X101648928Y-85820000D02*
X100755000Y-84926072D01*
D48*
%TO.N,ST_LED_D*%
X125275000Y-80405000D02*
X124270000Y-81410000D01*
X125980000Y-80405000D02*
X125275000Y-80405000D01*
D47*
X121580000Y-101210000D02*
X122020000Y-100770000D01*
X121580000Y-102330000D02*
X121580000Y-101210000D01*
D48*
%TO.N,TXD0*%
X125980000Y-74055000D02*
X128065000Y-74055000D01*
X128065000Y-74055000D02*
X128400000Y-73720000D01*
%TO.N,RXD0*%
X125980000Y-75325000D02*
X128455000Y-75325000D01*
X128455000Y-75325000D02*
X128480000Y-75350000D01*
D49*
%TO.N,+12V*%
X77575000Y-83805000D02*
X75035000Y-83805000D01*
X84250000Y-77130000D02*
X84250000Y-65150000D01*
X84250000Y-65150000D02*
X84250000Y-65410000D01*
X86030000Y-68010000D02*
X92270000Y-68010000D01*
X92270000Y-68010000D02*
X94350000Y-65930000D01*
X77575000Y-83805000D02*
X84250000Y-77130000D01*
X84280000Y-66260000D02*
X86030000Y-68010000D01*
D48*
%TO.N,Net-(L1-Pad3)*%
X121570000Y-104795000D02*
X120345000Y-106020000D01*
X121570000Y-104795000D02*
X121570000Y-103360000D01*
X121570000Y-103360000D02*
X121580000Y-103350000D01*
%TD*%
M02*
