%TF.GenerationSoftware,KiCad,Pcbnew,(6.0.0-0)*%
%TF.CreationDate,2022-09-25T22:14:04-04:00*%
%TF.ProjectId,Dome_Controller,446f6d65-5f43-46f6-9e74-726f6c6c6572,rev?*%
%TF.SameCoordinates,Original*%
%TF.FileFunction,Soldermask,Top*%
%TF.FilePolarity,Negative*%
%FSLAX46Y46*%
G04 Gerber Fmt 4.6, Leading zero omitted, Abs format (unit mm)*
G04 Created by KiCad (PCBNEW (6.0.0-0)) date 2022-09-25 22:14:04*
%MOMM*%
%LPD*%
G01*
G04 APERTURE LIST*
G04 Aperture macros list*
%AMRoundRect*
0 Rectangle with rounded corners*
0 $1 Rounding radius*
0 $2 $3 $4 $5 $6 $7 $8 $9 X,Y pos of 4 corners*
0 Add a 4 corners polygon primitive as box body*
4,1,4,$2,$3,$4,$5,$6,$7,$8,$9,$2,$3,0*
0 Add four circle primitives for the rounded corners*
1,1,$1+$1,$2,$3*
1,1,$1+$1,$4,$5*
1,1,$1+$1,$6,$7*
1,1,$1+$1,$8,$9*
0 Add four rect primitives between the rounded corners*
20,1,$1+$1,$2,$3,$4,$5,0*
20,1,$1+$1,$4,$5,$6,$7,0*
20,1,$1+$1,$6,$7,$8,$9,0*
20,1,$1+$1,$8,$9,$2,$3,0*%
G04 Aperture macros list end*
%ADD10R,1.600000X1.600000*%
%ADD11C,1.600000*%
%ADD12C,4.000000*%
%ADD13O,2.000000X4.000000*%
%ADD14O,4.000000X2.000000*%
%ADD15O,4.400000X2.200000*%
%ADD16O,1.700000X1.700000*%
%ADD17R,1.700000X1.700000*%
%ADD18R,2.400000X2.400000*%
%ADD19C,2.400000*%
%ADD20RoundRect,0.140000X0.170000X-0.140000X0.170000X0.140000X-0.170000X0.140000X-0.170000X-0.140000X0*%
%ADD21RoundRect,0.200000X-0.200000X-0.275000X0.200000X-0.275000X0.200000X0.275000X-0.200000X0.275000X0*%
%ADD22R,0.400000X1.350000*%
%ADD23R,1.500000X1.550000*%
%ADD24O,0.890000X1.550000*%
%ADD25O,1.250000X0.950000*%
%ADD26R,1.200000X1.550000*%
%ADD27R,2.000000X0.900000*%
%ADD28R,0.900000X2.000000*%
%ADD29R,5.000000X5.000000*%
%ADD30RoundRect,0.140000X0.140000X0.170000X-0.140000X0.170000X-0.140000X-0.170000X0.140000X-0.170000X0*%
%ADD31RoundRect,0.100000X1.000000X0.400000X-1.000000X0.400000X-1.000000X-0.400000X1.000000X-0.400000X0*%
%ADD32RoundRect,0.140000X-0.170000X0.140000X-0.170000X-0.140000X0.170000X-0.140000X0.170000X0.140000X0*%
%ADD33RoundRect,0.135000X-0.185000X0.135000X-0.185000X-0.135000X0.185000X-0.135000X0.185000X0.135000X0*%
%ADD34R,0.914400X1.219200*%
%ADD35C,3.400000*%
%ADD36R,1.000000X1.000000*%
%ADD37RoundRect,0.150000X-0.150000X0.587500X-0.150000X-0.587500X0.150000X-0.587500X0.150000X0.587500X0*%
%ADD38C,1.524000*%
%ADD39C,2.300000*%
%ADD40RoundRect,0.140000X-0.140000X-0.170000X0.140000X-0.170000X0.140000X0.170000X-0.140000X0.170000X0*%
%ADD41RoundRect,0.049600X-0.605400X-0.260400X0.605400X-0.260400X0.605400X0.260400X-0.605400X0.260400X0*%
%ADD42RoundRect,0.150000X-0.512500X-0.150000X0.512500X-0.150000X0.512500X0.150000X-0.512500X0.150000X0*%
%ADD43RoundRect,0.200000X0.200000X0.275000X-0.200000X0.275000X-0.200000X-0.275000X0.200000X-0.275000X0*%
G04 APERTURE END LIST*
D10*
%TO.C,J13*%
X61790000Y-64740000D03*
D11*
X61790000Y-67510000D03*
X61790000Y-70280000D03*
X61790000Y-73050000D03*
X61790000Y-75820000D03*
X61790000Y-78590000D03*
X61790000Y-81360000D03*
X61790000Y-84130000D03*
X61790000Y-86900000D03*
X61790000Y-89670000D03*
X61790000Y-92440000D03*
X61790000Y-95210000D03*
X61790000Y-97980000D03*
X64630000Y-66125000D03*
X64630000Y-68895000D03*
X64630000Y-71665000D03*
X64630000Y-74435000D03*
X64630000Y-77205000D03*
X64630000Y-79975000D03*
X64630000Y-82745000D03*
X64630000Y-85515000D03*
X64630000Y-88285000D03*
X64630000Y-91055000D03*
X64630000Y-93825000D03*
X64630000Y-96595000D03*
D12*
X63210000Y-104910000D03*
X63210000Y-57810000D03*
%TD*%
D13*
%TO.C,J14*%
X71485000Y-64515000D03*
D14*
X76185000Y-61515000D03*
D15*
X76185000Y-67515000D03*
%TD*%
D16*
%TO.C,J12*%
X140760000Y-79395000D03*
X138220000Y-79395000D03*
X135680000Y-79395000D03*
D17*
X133140000Y-79395000D03*
%TD*%
D16*
%TO.C,J11*%
X140730000Y-84415000D03*
X140730000Y-86955000D03*
X138190000Y-84415000D03*
X138190000Y-86955000D03*
X135650000Y-84415000D03*
X135650000Y-86955000D03*
X133110000Y-84415000D03*
D17*
X133110000Y-86955000D03*
%TD*%
D18*
%TO.C,J5*%
X87780000Y-66000000D03*
D19*
X84280000Y-66000000D03*
%TD*%
D20*
%TO.C,C4*%
X109420000Y-93120000D03*
X109420000Y-92160000D03*
%TD*%
D19*
%TO.C,J8*%
X88480000Y-99510000D03*
D18*
X84980000Y-99510000D03*
%TD*%
D21*
%TO.C,R2*%
X104165000Y-75030000D03*
X105815000Y-75030000D03*
%TD*%
%TO.C,R3*%
X100755000Y-81700000D03*
X102405000Y-81700000D03*
%TD*%
D22*
%TO.C,J1*%
X113600000Y-105750000D03*
X114250000Y-105750000D03*
X114900000Y-105750000D03*
X115550000Y-105750000D03*
X116200000Y-105750000D03*
D23*
X115900000Y-108450000D03*
D24*
X118400000Y-108450000D03*
D25*
X117400000Y-105750000D03*
D26*
X112000000Y-108450000D03*
D25*
X112400000Y-105750000D03*
D26*
X117800000Y-108450000D03*
D23*
X113900000Y-108450000D03*
D24*
X111400000Y-108450000D03*
%TD*%
D27*
%TO.C,U1*%
X108980000Y-70245000D03*
X108980000Y-71515000D03*
X108980000Y-72785000D03*
X108980000Y-74055000D03*
X108980000Y-75325000D03*
X108980000Y-76595000D03*
X108980000Y-77865000D03*
X108980000Y-79135000D03*
X108980000Y-80405000D03*
X108980000Y-81675000D03*
X108980000Y-82945000D03*
X108980000Y-84215000D03*
X108980000Y-85485000D03*
X108980000Y-86755000D03*
D28*
X111765000Y-87755000D03*
X113035000Y-87755000D03*
X114305000Y-87755000D03*
X115575000Y-87755000D03*
X116845000Y-87755000D03*
X118115000Y-87755000D03*
X119385000Y-87755000D03*
X120655000Y-87755000D03*
X121925000Y-87755000D03*
X123195000Y-87755000D03*
D27*
X125980000Y-86755000D03*
X125980000Y-85485000D03*
X125980000Y-84215000D03*
X125980000Y-82945000D03*
X125980000Y-81675000D03*
X125980000Y-80405000D03*
X125980000Y-79135000D03*
X125980000Y-77865000D03*
X125980000Y-76595000D03*
X125980000Y-75325000D03*
X125980000Y-74055000D03*
X125980000Y-72785000D03*
X125980000Y-71515000D03*
X125980000Y-70245000D03*
D29*
X116480000Y-77745000D03*
%TD*%
D30*
%TO.C,C3*%
X106350000Y-71550000D03*
X105390000Y-71550000D03*
%TD*%
%TO.C,C5*%
X103440000Y-80110000D03*
X102480000Y-80110000D03*
%TD*%
D18*
%TO.C,J9*%
X93850000Y-99510000D03*
D19*
X97350000Y-99510000D03*
%TD*%
D30*
%TO.C,C2*%
X106390000Y-70320000D03*
X105430000Y-70320000D03*
%TD*%
D31*
%TO.C,SW1*%
X118705000Y-101600000D03*
X110905000Y-101600000D03*
%TD*%
D32*
%TO.C,C7*%
X105870000Y-83990000D03*
X105870000Y-84950000D03*
%TD*%
D33*
%TO.C,R4*%
X121580000Y-102330000D03*
X121580000Y-103350000D03*
%TD*%
D34*
%TO.C,CR1*%
X105476800Y-77738500D03*
X102200200Y-77738500D03*
%TD*%
D35*
%TO.C,REF\u002A\u002A*%
X50000000Y-57000000D03*
%TD*%
D36*
%TO.C,L1*%
X122375000Y-107320000D03*
X122375000Y-106020000D03*
X120345000Y-106020000D03*
X120345000Y-107320000D03*
%TD*%
D16*
%TO.C,J3*%
X140770000Y-70800000D03*
X140770000Y-73340000D03*
X138230000Y-70800000D03*
X138230000Y-73340000D03*
X135690000Y-70800000D03*
D17*
X135690000Y-73340000D03*
%TD*%
D37*
%TO.C,U2*%
X103130000Y-71142500D03*
X101230000Y-71142500D03*
X102180000Y-73017500D03*
%TD*%
D35*
%TO.C,REF\u002A\u002A*%
X50000000Y-103000000D03*
%TD*%
D17*
%TO.C,J2*%
X128040000Y-97700000D03*
D16*
X130580000Y-97700000D03*
X133120000Y-97700000D03*
X135660000Y-97700000D03*
X138200000Y-97700000D03*
X140740000Y-97700000D03*
%TD*%
D20*
%TO.C,C6*%
X100520000Y-95330000D03*
X100520000Y-94370000D03*
%TD*%
D35*
%TO.C,REF\u002A\u002A*%
X148000000Y-103000000D03*
%TD*%
D16*
%TO.C,J4*%
X140770000Y-92450000D03*
X138230000Y-92450000D03*
D17*
X135690000Y-92450000D03*
%TD*%
D35*
%TO.C,REF\u002A\u002A*%
X148000000Y-57000000D03*
%TD*%
D16*
%TO.C,J10*%
X140770000Y-65070000D03*
X138230000Y-65070000D03*
D17*
X135690000Y-65070000D03*
%TD*%
D19*
%TO.C,J7*%
X79520000Y-99590000D03*
D18*
X76020000Y-99590000D03*
%TD*%
D38*
%TO.C,U6*%
X75035000Y-76185000D03*
X75035000Y-78725000D03*
X75035000Y-81265000D03*
X75035000Y-83805000D03*
X75035000Y-86345000D03*
X75035000Y-88885000D03*
X77575000Y-88885000D03*
X77575000Y-86345000D03*
X77575000Y-83805000D03*
X77575000Y-81265000D03*
X77575000Y-78725000D03*
X77575000Y-76185000D03*
D39*
X75965000Y-71935000D03*
X75965000Y-93135000D03*
X96965000Y-93135000D03*
%TD*%
D40*
%TO.C,C1*%
X104290000Y-89280000D03*
X105250000Y-89280000D03*
%TD*%
D41*
%TO.C,U4*%
X102245000Y-93155000D03*
X102245000Y-94425000D03*
X102245000Y-95695000D03*
X102245000Y-96965000D03*
X102245000Y-98235000D03*
X102245000Y-99505000D03*
X102245000Y-100775000D03*
X102245000Y-102045000D03*
X107745000Y-102045000D03*
X107745000Y-100775000D03*
X107745000Y-99505000D03*
X107745000Y-98235000D03*
X107745000Y-96965000D03*
X107745000Y-95695000D03*
X107745000Y-94425000D03*
X107745000Y-93155000D03*
%TD*%
D18*
%TO.C,J6*%
X97850000Y-65930000D03*
D19*
X94350000Y-65930000D03*
%TD*%
D42*
%TO.C,U3*%
X102032500Y-83920000D03*
X102032500Y-84870000D03*
X102032500Y-85820000D03*
X104307500Y-85820000D03*
X104307500Y-83920000D03*
%TD*%
D43*
%TO.C,R1*%
X106115000Y-90710000D03*
X104465000Y-90710000D03*
%TD*%
M02*
