M48
; DRILL file {KiCad (6.0.0-0)} date Sunday, September 25, 2022 at 10:13:58 PM
; FORMAT={-:-/ absolute / inch / decimal}
; #@! TF.CreationDate,2022-09-25T22:13:58-04:00
; #@! TF.GenerationSoftware,Kicad,Pcbnew,(6.0.0-0)
; #@! TF.FileFunction,Plated,1,4,PTH
FMAT,2
INCH
; #@! TA.AperFunction,Plated,PTH,ViaDrill
T1C0.0157
; #@! TA.AperFunction,Plated,PTH,ComponentDrill
T2C0.0197
; #@! TA.AperFunction,Plated,PTH,ComponentDrill
T3C0.0217
; #@! TA.AperFunction,Plated,PTH,ComponentDrill
T4C0.0300
; #@! TA.AperFunction,Plated,PTH,ComponentDrill
T5C0.0394
; #@! TA.AperFunction,Plated,PTH,ComponentDrill
T6C0.0472
; #@! TA.AperFunction,Plated,PTH,ComponentDrill
T7C0.0866
; #@! TA.AperFunction,Plated,PTH,ComponentDrill
T8C0.1260
%
G90
G05
T1
X4.0941Y-3.8618
X4.0945Y-3.7882
X4.0984Y-3.7315
X4.1024Y-3.4787
X4.1134Y-3.9362
X4.1654Y-3.474
X4.3673Y-3.8504
X4.3886Y-2.8902
X4.3894Y-3.1402
X4.3949Y-3.3102
X4.411Y-3.2319
X4.4638Y-3.2551
X4.4805Y-4.077
X4.5165Y-3.2146
X4.5433Y-4.0787
X4.6848Y-4.1026
X4.8039Y-3.9673
X4.8732Y-3.3122
X4.8925Y-3.2051
X4.9228Y-3.5327
X5.0583Y-2.9012
X5.0614Y-2.965
T4
X2.9541Y-2.9994
X2.9541Y-3.0994
X2.9541Y-3.1994
X2.9541Y-3.2994
X2.9541Y-3.3994
X2.9541Y-3.4994
X3.0541Y-2.9994
X3.0541Y-3.0994
X3.0541Y-3.1994
X3.0541Y-3.2994
X3.0541Y-3.3994
X3.0541Y-3.4994
T5
X2.4327Y-2.5488
X2.4327Y-2.6579
X2.4327Y-2.7669
X2.4327Y-2.876
X2.4327Y-2.985
X2.4327Y-3.0941
X2.4327Y-3.2031
X2.4327Y-3.3122
X2.4327Y-3.4213
X2.4327Y-3.5303
X2.4327Y-3.6394
X2.4327Y-3.7484
X2.4327Y-3.8575
X2.5445Y-2.6033
X2.5445Y-2.7124
X2.5445Y-2.8215
X2.5445Y-2.9305
X2.5445Y-3.0396
X2.5445Y-3.1486
X2.5445Y-3.2577
X2.5445Y-3.3667
X2.5445Y-3.4758
X2.5445Y-3.5848
X2.5445Y-3.6939
X2.5445Y-3.803
X5.0409Y-3.8465
X5.1409Y-3.8465
X5.2406Y-3.3234
X5.2406Y-3.4234
X5.2409Y-3.8465
X5.2417Y-3.1258
X5.3406Y-3.3234
X5.3406Y-3.4234
X5.3409Y-3.8465
X5.3417Y-3.1258
X5.3421Y-2.5618
X5.3421Y-2.7874
X5.3421Y-2.8874
X5.3421Y-3.6398
X5.4406Y-3.3234
X5.4406Y-3.4234
X5.4409Y-3.8465
X5.4417Y-3.1258
X5.4421Y-2.5618
X5.4421Y-2.7874
X5.4421Y-2.8874
X5.4421Y-3.6398
X5.5406Y-3.3234
X5.5406Y-3.4234
X5.5409Y-3.8465
X5.5417Y-3.1258
X5.5421Y-2.5618
X5.5421Y-2.7874
X5.5421Y-2.8874
X5.5421Y-3.6398
T6
X2.9929Y-3.9209
X3.1307Y-3.9209
X3.3181Y-2.5984
X3.3457Y-3.9177
X3.4559Y-2.5984
X3.4835Y-3.9177
X3.6949Y-3.9177
X3.7146Y-2.5957
X3.8327Y-3.9177
X3.8524Y-2.5957
T7
X2.9907Y-2.8321
X2.9907Y-3.6667
X3.8175Y-3.6667
T8
X2.4886Y-2.276
X2.4886Y-4.1303
T2
G00X4.3858Y-4.2569
M15
G01X4.3858Y-4.2825
M16
G05
G00X4.6614Y-4.2569
M15
G01X4.6614Y-4.2825
M16
G05
T3
G00X4.4193Y-4.1634
M15
G01X4.4311Y-4.1634
M16
G05
G00X4.6161Y-4.1634
M15
G01X4.628Y-4.1634
M16
G05
T5
G00X2.8144Y-2.5006
M15
G01X2.8144Y-2.5793
M16
G05
G00X3.0388Y-2.4219
M15
G01X2.96Y-2.4219
M16
G05
G00X3.0486Y-2.6581
M15
G01X2.9502Y-2.6581
M16
G05
T0
M30
