%TF.GenerationSoftware,KiCad,Pcbnew,(6.0.0-0)*%
%TF.CreationDate,2022-12-05T15:29:04-05:00*%
%TF.ProjectId,Dome_Controller_V2,446f6d65-5f43-46f6-9e74-726f6c6c6572,2.0*%
%TF.SameCoordinates,Original*%
%TF.FileFunction,Soldermask,Bot*%
%TF.FilePolarity,Negative*%
%FSLAX46Y46*%
G04 Gerber Fmt 4.6, Leading zero omitted, Abs format (unit mm)*
G04 Created by KiCad (PCBNEW (6.0.0-0)) date 2022-12-05 15:29:04*
%MOMM*%
%LPD*%
G01*
G04 APERTURE LIST*
G04 Aperture macros list*
%AMRoundRect*
0 Rectangle with rounded corners*
0 $1 Rounding radius*
0 $2 $3 $4 $5 $6 $7 $8 $9 X,Y pos of 4 corners*
0 Add a 4 corners polygon primitive as box body*
4,1,4,$2,$3,$4,$5,$6,$7,$8,$9,$2,$3,0*
0 Add four circle primitives for the rounded corners*
1,1,$1+$1,$2,$3*
1,1,$1+$1,$4,$5*
1,1,$1+$1,$6,$7*
1,1,$1+$1,$8,$9*
0 Add four rect primitives between the rounded corners*
20,1,$1+$1,$2,$3,$4,$5,0*
20,1,$1+$1,$4,$5,$6,$7,0*
20,1,$1+$1,$6,$7,$8,$9,0*
20,1,$1+$1,$8,$9,$2,$3,0*%
G04 Aperture macros list end*
%ADD10C,3.200000*%
%ADD11R,2.400000X2.400000*%
%ADD12C,2.400000*%
%ADD13O,4.400000X2.200000*%
%ADD14O,4.000000X2.000000*%
%ADD15O,2.000000X4.000000*%
%ADD16RoundRect,0.250000X-0.620000X-0.845000X0.620000X-0.845000X0.620000X0.845000X-0.620000X0.845000X0*%
%ADD17O,1.740000X2.190000*%
%ADD18O,1.250000X0.950000*%
%ADD19O,0.890000X1.550000*%
%ADD20C,1.524000*%
%ADD21C,2.300000*%
%ADD22C,2.600000*%
%ADD23C,4.000000*%
%ADD24R,1.600000X1.600000*%
%ADD25C,1.600000*%
G04 APERTURE END LIST*
D10*
%TO.C,REF\u002A\u002A*%
X48750000Y-106250000D03*
%TD*%
D11*
%TO.C,J7*%
X75960000Y-99686000D03*
D12*
X79460000Y-99686000D03*
%TD*%
D13*
%TO.C,J14*%
X75314000Y-68124000D03*
D14*
X75314000Y-62124000D03*
D15*
X70614000Y-65124000D03*
%TD*%
D16*
%TO.C,J4*%
X138342000Y-81723000D03*
D17*
X140882000Y-81723000D03*
X143422000Y-81723000D03*
%TD*%
D18*
%TO.C,J1*%
X118488000Y-105808000D03*
D19*
X112488000Y-108508000D03*
X119488000Y-108508000D03*
D18*
X113488000Y-105808000D03*
%TD*%
D16*
%TO.C,J10*%
X138342000Y-61534000D03*
D17*
X140882000Y-61534000D03*
X143422000Y-61534000D03*
%TD*%
D11*
%TO.C,J9*%
X84899000Y-99686000D03*
D12*
X88399000Y-99686000D03*
%TD*%
D16*
%TO.C,J11*%
X138342000Y-91817500D03*
D17*
X140882000Y-91817500D03*
X143422000Y-91817500D03*
%TD*%
D11*
%TO.C,J8*%
X93838000Y-99686000D03*
D12*
X97338000Y-99686000D03*
%TD*%
D20*
%TO.C,U6*%
X75279000Y-76841000D03*
X75279000Y-79381000D03*
X75279000Y-81921000D03*
X75279000Y-84461000D03*
X75279000Y-87001000D03*
X75279000Y-89541000D03*
X77819000Y-89541000D03*
X77819000Y-87001000D03*
X77819000Y-84461000D03*
X77819000Y-81921000D03*
X77819000Y-79381000D03*
X77819000Y-76841000D03*
D21*
X76209000Y-72591000D03*
X76209000Y-93791000D03*
X97209000Y-93791000D03*
%TD*%
D11*
%TO.C,J5*%
X87160000Y-66064000D03*
D12*
X83660000Y-66064000D03*
%TD*%
D10*
%TO.C,REF\u002A\u002A*%
X48750000Y-56750000D03*
%TD*%
D20*
%TO.C,U7*%
X159144000Y-110077000D03*
X161684000Y-110077000D03*
X164224000Y-110077000D03*
X166764000Y-110077000D03*
X169304000Y-110077000D03*
X171844000Y-110077000D03*
X159144000Y-51911000D03*
X161684000Y-51911000D03*
X164224000Y-51911000D03*
X166764000Y-51911000D03*
X169304000Y-51911000D03*
X171844000Y-51911000D03*
D22*
X155969000Y-53181000D03*
X175019000Y-53181000D03*
X175019000Y-108807000D03*
X155969000Y-108807000D03*
%TD*%
D10*
%TO.C,REF\u002A\u002A*%
X149000000Y-106250000D03*
%TD*%
D11*
%TO.C,J6*%
X97086000Y-66060000D03*
D12*
X93586000Y-66060000D03*
%TD*%
D23*
%TO.C,J13*%
X62423338Y-105272000D03*
X62423338Y-58172000D03*
D24*
X61003338Y-98342000D03*
D25*
X61003338Y-95572000D03*
X61003338Y-92802000D03*
X61003338Y-90032000D03*
X61003338Y-87262000D03*
X61003338Y-84492000D03*
X61003338Y-81722000D03*
X61003338Y-78952000D03*
X61003338Y-76182000D03*
X61003338Y-73412000D03*
X61003338Y-70642000D03*
X61003338Y-67872000D03*
X61003338Y-65102000D03*
X63843338Y-96957000D03*
X63843338Y-94187000D03*
X63843338Y-91417000D03*
X63843338Y-88647000D03*
X63843338Y-85877000D03*
X63843338Y-83107000D03*
X63843338Y-80337000D03*
X63843338Y-77567000D03*
X63843338Y-74797000D03*
X63843338Y-72027000D03*
X63843338Y-69257000D03*
X63843338Y-66487000D03*
%TD*%
D16*
%TO.C,J12*%
X138342000Y-71628500D03*
D17*
X140882000Y-71628500D03*
X143422000Y-71628500D03*
%TD*%
D10*
%TO.C,REF\u002A\u002A*%
X149000000Y-56750000D03*
%TD*%
D16*
%TO.C,J16*%
X138342000Y-101912000D03*
D17*
X140882000Y-101912000D03*
X143422000Y-101912000D03*
%TD*%
M02*
