%TF.GenerationSoftware,KiCad,Pcbnew,(6.0.0-0)*%
%TF.CreationDate,2022-12-05T15:29:03-05:00*%
%TF.ProjectId,Dome_Controller_V2,446f6d65-5f43-46f6-9e74-726f6c6c6572,2.0*%
%TF.SameCoordinates,Original*%
%TF.FileFunction,Legend,Bot*%
%TF.FilePolarity,Positive*%
%FSLAX46Y46*%
G04 Gerber Fmt 4.6, Leading zero omitted, Abs format (unit mm)*
G04 Created by KiCad (PCBNEW (6.0.0-0)) date 2022-12-05 15:29:03*
%MOMM*%
%LPD*%
G01*
G04 APERTURE LIST*
%ADD10C,0.150000*%
%ADD11C,0.010000*%
G04 APERTURE END LIST*
D10*
X172864404Y-82829380D02*
X172864404Y-81829380D01*
X172531071Y-82543666D01*
X172197738Y-81829380D01*
X172197738Y-82829380D01*
X171292976Y-82829380D02*
X171292976Y-82305571D01*
X171340595Y-82210333D01*
X171435833Y-82162714D01*
X171626309Y-82162714D01*
X171721547Y-82210333D01*
X171292976Y-82781761D02*
X171388214Y-82829380D01*
X171626309Y-82829380D01*
X171721547Y-82781761D01*
X171769166Y-82686523D01*
X171769166Y-82591285D01*
X171721547Y-82496047D01*
X171626309Y-82448428D01*
X171388214Y-82448428D01*
X171292976Y-82400809D01*
X170816785Y-82162714D02*
X170816785Y-82829380D01*
X170816785Y-82257952D02*
X170769166Y-82210333D01*
X170673928Y-82162714D01*
X170531071Y-82162714D01*
X170435833Y-82210333D01*
X170388214Y-82305571D01*
X170388214Y-82829380D01*
X169483452Y-82162714D02*
X169483452Y-82829380D01*
X169912023Y-82162714D02*
X169912023Y-82686523D01*
X169864404Y-82781761D01*
X169769166Y-82829380D01*
X169626309Y-82829380D01*
X169531071Y-82781761D01*
X169483452Y-82734142D01*
X169150119Y-82162714D02*
X168769166Y-82162714D01*
X169007261Y-82829380D02*
X169007261Y-81972238D01*
X168959642Y-81877000D01*
X168864404Y-81829380D01*
X168769166Y-81829380D01*
X168007261Y-82829380D02*
X168007261Y-82305571D01*
X168054880Y-82210333D01*
X168150119Y-82162714D01*
X168340595Y-82162714D01*
X168435833Y-82210333D01*
X168007261Y-82781761D02*
X168102500Y-82829380D01*
X168340595Y-82829380D01*
X168435833Y-82781761D01*
X168483452Y-82686523D01*
X168483452Y-82591285D01*
X168435833Y-82496047D01*
X168340595Y-82448428D01*
X168102500Y-82448428D01*
X168007261Y-82400809D01*
X167102500Y-82781761D02*
X167197738Y-82829380D01*
X167388214Y-82829380D01*
X167483452Y-82781761D01*
X167531071Y-82734142D01*
X167578690Y-82638904D01*
X167578690Y-82353190D01*
X167531071Y-82257952D01*
X167483452Y-82210333D01*
X167388214Y-82162714D01*
X167197738Y-82162714D01*
X167102500Y-82210333D01*
X166816785Y-82162714D02*
X166435833Y-82162714D01*
X166673928Y-81829380D02*
X166673928Y-82686523D01*
X166626309Y-82781761D01*
X166531071Y-82829380D01*
X166435833Y-82829380D01*
X165673928Y-82162714D02*
X165673928Y-82829380D01*
X166102500Y-82162714D02*
X166102500Y-82686523D01*
X166054880Y-82781761D01*
X165959642Y-82829380D01*
X165816785Y-82829380D01*
X165721547Y-82781761D01*
X165673928Y-82734142D01*
X165197738Y-82829380D02*
X165197738Y-82162714D01*
X165197738Y-82353190D02*
X165150119Y-82257952D01*
X165102500Y-82210333D01*
X165007261Y-82162714D01*
X164912023Y-82162714D01*
X164197738Y-82781761D02*
X164292976Y-82829380D01*
X164483452Y-82829380D01*
X164578690Y-82781761D01*
X164626309Y-82686523D01*
X164626309Y-82305571D01*
X164578690Y-82210333D01*
X164483452Y-82162714D01*
X164292976Y-82162714D01*
X164197738Y-82210333D01*
X164150119Y-82305571D01*
X164150119Y-82400809D01*
X164626309Y-82496047D01*
X163292976Y-82829380D02*
X163292976Y-81829380D01*
X163292976Y-82781761D02*
X163388214Y-82829380D01*
X163578690Y-82829380D01*
X163673928Y-82781761D01*
X163721547Y-82734142D01*
X163769166Y-82638904D01*
X163769166Y-82353190D01*
X163721547Y-82257952D01*
X163673928Y-82210333D01*
X163578690Y-82162714D01*
X163388214Y-82162714D01*
X163292976Y-82210333D01*
X162054880Y-82829380D02*
X162054880Y-81829380D01*
X162054880Y-82210333D02*
X161959642Y-82162714D01*
X161769166Y-82162714D01*
X161673928Y-82210333D01*
X161626309Y-82257952D01*
X161578690Y-82353190D01*
X161578690Y-82638904D01*
X161626309Y-82734142D01*
X161673928Y-82781761D01*
X161769166Y-82829380D01*
X161959642Y-82829380D01*
X162054880Y-82781761D01*
X161245357Y-82162714D02*
X161007261Y-82829380D01*
X160769166Y-82162714D02*
X161007261Y-82829380D01*
X161102500Y-83067476D01*
X161150119Y-83115095D01*
X161245357Y-83162714D01*
X159340595Y-81829380D02*
X159340595Y-82543666D01*
X159388214Y-82686523D01*
X159483452Y-82781761D01*
X159626309Y-82829380D01*
X159721547Y-82829380D01*
X158388214Y-82829380D02*
X158864404Y-82829380D01*
X158864404Y-81829380D01*
X157483452Y-82734142D02*
X157531071Y-82781761D01*
X157673928Y-82829380D01*
X157769166Y-82829380D01*
X157912023Y-82781761D01*
X158007261Y-82686523D01*
X158054880Y-82591285D01*
X158102500Y-82400809D01*
X158102500Y-82257952D01*
X158054880Y-82067476D01*
X158007261Y-81972238D01*
X157912023Y-81877000D01*
X157769166Y-81829380D01*
X157673928Y-81829380D01*
X157531071Y-81877000D01*
X157483452Y-81924619D01*
X157054880Y-82829380D02*
X157054880Y-81829380D01*
X156673928Y-81829380D01*
X156578690Y-81877000D01*
X156531071Y-81924619D01*
X156483452Y-82019857D01*
X156483452Y-82162714D01*
X156531071Y-82257952D01*
X156578690Y-82305571D01*
X156673928Y-82353190D01*
X157054880Y-82353190D01*
X155483452Y-82734142D02*
X155531071Y-82781761D01*
X155673928Y-82829380D01*
X155769166Y-82829380D01*
X155912023Y-82781761D01*
X156007261Y-82686523D01*
X156054880Y-82591285D01*
X156102500Y-82400809D01*
X156102500Y-82257952D01*
X156054880Y-82067476D01*
X156007261Y-81972238D01*
X155912023Y-81877000D01*
X155769166Y-81829380D01*
X155673928Y-81829380D01*
X155531071Y-81877000D01*
X155483452Y-81924619D01*
X154721547Y-82305571D02*
X154578690Y-82353190D01*
X154531071Y-82400809D01*
X154483452Y-82496047D01*
X154483452Y-82638904D01*
X154531071Y-82734142D01*
X154578690Y-82781761D01*
X154673928Y-82829380D01*
X155054880Y-82829380D01*
X155054880Y-81829380D01*
X154721547Y-81829380D01*
X154626309Y-81877000D01*
X154578690Y-81924619D01*
X154531071Y-82019857D01*
X154531071Y-82115095D01*
X154578690Y-82210333D01*
X154626309Y-82257952D01*
X154721547Y-82305571D01*
X155054880Y-82305571D01*
X172673928Y-83439380D02*
X172483452Y-83439380D01*
X172388214Y-83487000D01*
X172292976Y-83582238D01*
X172245357Y-83772714D01*
X172245357Y-84106047D01*
X172292976Y-84296523D01*
X172388214Y-84391761D01*
X172483452Y-84439380D01*
X172673928Y-84439380D01*
X172769166Y-84391761D01*
X172864404Y-84296523D01*
X172912023Y-84106047D01*
X172912023Y-83772714D01*
X172864404Y-83582238D01*
X172769166Y-83487000D01*
X172673928Y-83439380D01*
X171816785Y-84439380D02*
X171816785Y-83772714D01*
X171816785Y-83963190D02*
X171769166Y-83867952D01*
X171721547Y-83820333D01*
X171626309Y-83772714D01*
X171531071Y-83772714D01*
X170769166Y-84439380D02*
X170769166Y-83439380D01*
X170769166Y-84391761D02*
X170864404Y-84439380D01*
X171054880Y-84439380D01*
X171150119Y-84391761D01*
X171197738Y-84344142D01*
X171245357Y-84248904D01*
X171245357Y-83963190D01*
X171197738Y-83867952D01*
X171150119Y-83820333D01*
X171054880Y-83772714D01*
X170864404Y-83772714D01*
X170769166Y-83820333D01*
X169912023Y-84391761D02*
X170007261Y-84439380D01*
X170197738Y-84439380D01*
X170292976Y-84391761D01*
X170340595Y-84296523D01*
X170340595Y-83915571D01*
X170292976Y-83820333D01*
X170197738Y-83772714D01*
X170007261Y-83772714D01*
X169912023Y-83820333D01*
X169864404Y-83915571D01*
X169864404Y-84010809D01*
X170340595Y-84106047D01*
X169435833Y-84439380D02*
X169435833Y-83772714D01*
X169435833Y-83963190D02*
X169388214Y-83867952D01*
X169340595Y-83820333D01*
X169245357Y-83772714D01*
X169150119Y-83772714D01*
X168102500Y-83772714D02*
X167388214Y-83772714D01*
X167816785Y-83344142D02*
X168102500Y-84629857D01*
X167483452Y-84201285D02*
X168197738Y-84201285D01*
X167769166Y-84629857D02*
X167483452Y-83344142D01*
X167054880Y-84344142D02*
X167007261Y-84391761D01*
X167054880Y-84439380D01*
X167102500Y-84391761D01*
X167054880Y-84344142D01*
X167054880Y-84439380D01*
X167054880Y-83820333D02*
X167007261Y-83867952D01*
X167054880Y-83915571D01*
X167102500Y-83867952D01*
X167054880Y-83820333D01*
X167054880Y-83915571D01*
X165919047Y-83744380D02*
X165919047Y-84458666D01*
X165966666Y-84601523D01*
X166061904Y-84696761D01*
X166204761Y-84744380D01*
X166300000Y-84744380D01*
X164966666Y-84744380D02*
X165442857Y-84744380D01*
X165442857Y-83744380D01*
X164061904Y-84649142D02*
X164109523Y-84696761D01*
X164252380Y-84744380D01*
X164347619Y-84744380D01*
X164490476Y-84696761D01*
X164585714Y-84601523D01*
X164633333Y-84506285D01*
X164680952Y-84315809D01*
X164680952Y-84172952D01*
X164633333Y-83982476D01*
X164585714Y-83887238D01*
X164490476Y-83792000D01*
X164347619Y-83744380D01*
X164252380Y-83744380D01*
X164109523Y-83792000D01*
X164061904Y-83839619D01*
X163347619Y-83744380D02*
X163347619Y-84458666D01*
X163395238Y-84601523D01*
X163490476Y-84696761D01*
X163633333Y-84744380D01*
X163728571Y-84744380D01*
X162395238Y-84744380D02*
X162871428Y-84744380D01*
X162871428Y-83744380D01*
X161490476Y-84649142D02*
X161538095Y-84696761D01*
X161680952Y-84744380D01*
X161776190Y-84744380D01*
X161919047Y-84696761D01*
X162014285Y-84601523D01*
X162061904Y-84506285D01*
X162109523Y-84315809D01*
X162109523Y-84172952D01*
X162061904Y-83982476D01*
X162014285Y-83887238D01*
X161919047Y-83792000D01*
X161776190Y-83744380D01*
X161680952Y-83744380D01*
X161538095Y-83792000D01*
X161490476Y-83839619D01*
X160776190Y-83744380D02*
X160776190Y-84458666D01*
X160823809Y-84601523D01*
X160919047Y-84696761D01*
X161061904Y-84744380D01*
X161157142Y-84744380D01*
X159823809Y-84744380D02*
X160300000Y-84744380D01*
X160300000Y-83744380D01*
X158919047Y-84649142D02*
X158966666Y-84696761D01*
X159109523Y-84744380D01*
X159204761Y-84744380D01*
X159347619Y-84696761D01*
X159442857Y-84601523D01*
X159490476Y-84506285D01*
X159538095Y-84315809D01*
X159538095Y-84172952D01*
X159490476Y-83982476D01*
X159442857Y-83887238D01*
X159347619Y-83792000D01*
X159204761Y-83744380D01*
X159109523Y-83744380D01*
X158966666Y-83792000D01*
X158919047Y-83839619D01*
X158204761Y-83744380D02*
X158204761Y-84458666D01*
X158252380Y-84601523D01*
X158347619Y-84696761D01*
X158490476Y-84744380D01*
X158585714Y-84744380D01*
X157252380Y-84744380D02*
X157728571Y-84744380D01*
X157728571Y-83744380D01*
X156347619Y-84649142D02*
X156395238Y-84696761D01*
X156538095Y-84744380D01*
X156633333Y-84744380D01*
X156776190Y-84696761D01*
X156871428Y-84601523D01*
X156919047Y-84506285D01*
X156966666Y-84315809D01*
X156966666Y-84172952D01*
X156919047Y-83982476D01*
X156871428Y-83887238D01*
X156776190Y-83792000D01*
X156633333Y-83744380D01*
X156538095Y-83744380D01*
X156395238Y-83792000D01*
X156347619Y-83839619D01*
D11*
%TO.C,REF\u002A\u002A*%
X165940114Y-79115448D02*
X165916548Y-79129273D01*
X165916548Y-79129273D02*
X165885735Y-79151881D01*
X165885735Y-79151881D02*
X165846078Y-79184338D01*
X165846078Y-79184338D02*
X165795980Y-79227708D01*
X165795980Y-79227708D02*
X165733843Y-79283058D01*
X165733843Y-79283058D02*
X165658072Y-79351451D01*
X165658072Y-79351451D02*
X165571334Y-79430084D01*
X165571334Y-79430084D02*
X165390711Y-79593878D01*
X165390711Y-79593878D02*
X165385067Y-79374029D01*
X165385067Y-79374029D02*
X165383029Y-79298351D01*
X165383029Y-79298351D02*
X165381063Y-79241994D01*
X165381063Y-79241994D02*
X165378734Y-79201706D01*
X165378734Y-79201706D02*
X165375606Y-79174235D01*
X165375606Y-79174235D02*
X165371245Y-79156329D01*
X165371245Y-79156329D02*
X165365216Y-79144737D01*
X165365216Y-79144737D02*
X165357084Y-79136208D01*
X165357084Y-79136208D02*
X165352772Y-79132623D01*
X165352772Y-79132623D02*
X165318241Y-79113670D01*
X165318241Y-79113670D02*
X165285383Y-79116441D01*
X165285383Y-79116441D02*
X165259318Y-79132633D01*
X165259318Y-79132633D02*
X165232667Y-79154199D01*
X165232667Y-79154199D02*
X165229352Y-79469151D01*
X165229352Y-79469151D02*
X165228435Y-79561779D01*
X165228435Y-79561779D02*
X165227968Y-79634544D01*
X165227968Y-79634544D02*
X165228113Y-79690161D01*
X165228113Y-79690161D02*
X165229032Y-79731342D01*
X165229032Y-79731342D02*
X165230887Y-79760803D01*
X165230887Y-79760803D02*
X165233839Y-79781255D01*
X165233839Y-79781255D02*
X165238050Y-79795413D01*
X165238050Y-79795413D02*
X165243682Y-79805991D01*
X165243682Y-79805991D02*
X165249927Y-79814474D01*
X165249927Y-79814474D02*
X165263439Y-79830207D01*
X165263439Y-79830207D02*
X165276883Y-79840636D01*
X165276883Y-79840636D02*
X165292124Y-79844639D01*
X165292124Y-79844639D02*
X165311026Y-79841094D01*
X165311026Y-79841094D02*
X165335455Y-79828879D01*
X165335455Y-79828879D02*
X165367273Y-79806871D01*
X165367273Y-79806871D02*
X165408348Y-79773949D01*
X165408348Y-79773949D02*
X165460542Y-79728991D01*
X165460542Y-79728991D02*
X165525722Y-79670875D01*
X165525722Y-79670875D02*
X165599556Y-79604099D01*
X165599556Y-79604099D02*
X165864845Y-79363458D01*
X165864845Y-79363458D02*
X165870489Y-79582589D01*
X165870489Y-79582589D02*
X165872531Y-79658128D01*
X165872531Y-79658128D02*
X165874502Y-79714354D01*
X165874502Y-79714354D02*
X165876839Y-79754524D01*
X165876839Y-79754524D02*
X165879981Y-79781896D01*
X165879981Y-79781896D02*
X165884364Y-79799728D01*
X165884364Y-79799728D02*
X165890424Y-79811279D01*
X165890424Y-79811279D02*
X165898600Y-79819807D01*
X165898600Y-79819807D02*
X165902784Y-79823282D01*
X165902784Y-79823282D02*
X165939765Y-79842372D01*
X165939765Y-79842372D02*
X165974708Y-79839493D01*
X165974708Y-79839493D02*
X166005136Y-79815100D01*
X166005136Y-79815100D02*
X166012097Y-79805286D01*
X166012097Y-79805286D02*
X166017523Y-79793826D01*
X166017523Y-79793826D02*
X166021603Y-79777968D01*
X166021603Y-79777968D02*
X166024529Y-79754963D01*
X166024529Y-79754963D02*
X166026492Y-79722062D01*
X166026492Y-79722062D02*
X166027683Y-79676516D01*
X166027683Y-79676516D02*
X166028292Y-79615573D01*
X166028292Y-79615573D02*
X166028511Y-79536486D01*
X166028511Y-79536486D02*
X166028534Y-79477956D01*
X166028534Y-79477956D02*
X166028460Y-79386407D01*
X166028460Y-79386407D02*
X166028113Y-79314687D01*
X166028113Y-79314687D02*
X166027301Y-79260045D01*
X166027301Y-79260045D02*
X166025833Y-79219732D01*
X166025833Y-79219732D02*
X166023519Y-79190998D01*
X166023519Y-79190998D02*
X166020167Y-79171093D01*
X166020167Y-79171093D02*
X166015588Y-79157268D01*
X166015588Y-79157268D02*
X166009589Y-79146772D01*
X166009589Y-79146772D02*
X166005136Y-79140811D01*
X166005136Y-79140811D02*
X165993850Y-79126691D01*
X165993850Y-79126691D02*
X165983301Y-79116029D01*
X165983301Y-79116029D02*
X165971893Y-79109892D01*
X165971893Y-79109892D02*
X165958030Y-79109343D01*
X165958030Y-79109343D02*
X165940114Y-79115448D01*
X165940114Y-79115448D02*
X165940114Y-79115448D01*
G36*
X165971893Y-79109892D02*
G01*
X165983301Y-79116029D01*
X165993850Y-79126691D01*
X166005136Y-79140811D01*
X166009589Y-79146772D01*
X166015588Y-79157268D01*
X166020167Y-79171093D01*
X166023519Y-79190998D01*
X166025833Y-79219732D01*
X166027301Y-79260045D01*
X166028113Y-79314687D01*
X166028460Y-79386407D01*
X166028534Y-79477956D01*
X166028511Y-79536486D01*
X166028292Y-79615573D01*
X166027683Y-79676516D01*
X166026492Y-79722062D01*
X166024529Y-79754963D01*
X166021603Y-79777968D01*
X166017523Y-79793826D01*
X166012097Y-79805286D01*
X166005136Y-79815100D01*
X165974708Y-79839493D01*
X165939765Y-79842372D01*
X165902784Y-79823282D01*
X165898600Y-79819807D01*
X165890424Y-79811279D01*
X165884364Y-79799728D01*
X165879981Y-79781896D01*
X165876839Y-79754524D01*
X165874502Y-79714354D01*
X165872531Y-79658128D01*
X165870489Y-79582589D01*
X165864845Y-79363458D01*
X165599556Y-79604099D01*
X165525722Y-79670875D01*
X165460542Y-79728991D01*
X165408348Y-79773949D01*
X165367273Y-79806871D01*
X165335455Y-79828879D01*
X165311026Y-79841094D01*
X165292124Y-79844639D01*
X165276883Y-79840636D01*
X165263439Y-79830207D01*
X165249927Y-79814474D01*
X165243682Y-79805991D01*
X165238050Y-79795413D01*
X165233839Y-79781255D01*
X165230887Y-79760803D01*
X165229032Y-79731342D01*
X165228113Y-79690161D01*
X165227968Y-79634544D01*
X165228435Y-79561779D01*
X165229352Y-79469151D01*
X165232667Y-79154199D01*
X165259318Y-79132633D01*
X165285383Y-79116441D01*
X165318241Y-79113670D01*
X165352772Y-79132623D01*
X165357084Y-79136208D01*
X165365216Y-79144737D01*
X165371245Y-79156329D01*
X165375606Y-79174235D01*
X165378734Y-79201706D01*
X165381063Y-79241994D01*
X165383029Y-79298351D01*
X165385067Y-79374029D01*
X165390711Y-79593878D01*
X165571334Y-79430084D01*
X165658072Y-79351451D01*
X165733843Y-79283058D01*
X165795980Y-79227708D01*
X165846078Y-79184338D01*
X165885735Y-79151881D01*
X165916548Y-79129273D01*
X165940114Y-79115448D01*
X165958030Y-79109343D01*
X165971893Y-79109892D01*
G37*
X165971893Y-79109892D02*
X165983301Y-79116029D01*
X165993850Y-79126691D01*
X166005136Y-79140811D01*
X166009589Y-79146772D01*
X166015588Y-79157268D01*
X166020167Y-79171093D01*
X166023519Y-79190998D01*
X166025833Y-79219732D01*
X166027301Y-79260045D01*
X166028113Y-79314687D01*
X166028460Y-79386407D01*
X166028534Y-79477956D01*
X166028511Y-79536486D01*
X166028292Y-79615573D01*
X166027683Y-79676516D01*
X166026492Y-79722062D01*
X166024529Y-79754963D01*
X166021603Y-79777968D01*
X166017523Y-79793826D01*
X166012097Y-79805286D01*
X166005136Y-79815100D01*
X165974708Y-79839493D01*
X165939765Y-79842372D01*
X165902784Y-79823282D01*
X165898600Y-79819807D01*
X165890424Y-79811279D01*
X165884364Y-79799728D01*
X165879981Y-79781896D01*
X165876839Y-79754524D01*
X165874502Y-79714354D01*
X165872531Y-79658128D01*
X165870489Y-79582589D01*
X165864845Y-79363458D01*
X165599556Y-79604099D01*
X165525722Y-79670875D01*
X165460542Y-79728991D01*
X165408348Y-79773949D01*
X165367273Y-79806871D01*
X165335455Y-79828879D01*
X165311026Y-79841094D01*
X165292124Y-79844639D01*
X165276883Y-79840636D01*
X165263439Y-79830207D01*
X165249927Y-79814474D01*
X165243682Y-79805991D01*
X165238050Y-79795413D01*
X165233839Y-79781255D01*
X165230887Y-79760803D01*
X165229032Y-79731342D01*
X165228113Y-79690161D01*
X165227968Y-79634544D01*
X165228435Y-79561779D01*
X165229352Y-79469151D01*
X165232667Y-79154199D01*
X165259318Y-79132633D01*
X165285383Y-79116441D01*
X165318241Y-79113670D01*
X165352772Y-79132623D01*
X165357084Y-79136208D01*
X165365216Y-79144737D01*
X165371245Y-79156329D01*
X165375606Y-79174235D01*
X165378734Y-79201706D01*
X165381063Y-79241994D01*
X165383029Y-79298351D01*
X165385067Y-79374029D01*
X165390711Y-79593878D01*
X165571334Y-79430084D01*
X165658072Y-79351451D01*
X165733843Y-79283058D01*
X165795980Y-79227708D01*
X165846078Y-79184338D01*
X165885735Y-79151881D01*
X165916548Y-79129273D01*
X165940114Y-79115448D01*
X165958030Y-79109343D01*
X165971893Y-79109892D01*
X167586400Y-74331054D02*
X167575535Y-74444993D01*
X167575535Y-74444993D02*
X167543918Y-74552616D01*
X167543918Y-74552616D02*
X167493015Y-74651615D01*
X167493015Y-74651615D02*
X167424293Y-74739684D01*
X167424293Y-74739684D02*
X167339219Y-74814516D01*
X167339219Y-74814516D02*
X167242232Y-74872384D01*
X167242232Y-74872384D02*
X167135964Y-74912005D01*
X167135964Y-74912005D02*
X167028950Y-74930573D01*
X167028950Y-74930573D02*
X166923300Y-74929434D01*
X166923300Y-74929434D02*
X166821125Y-74909930D01*
X166821125Y-74909930D02*
X166724534Y-74873406D01*
X166724534Y-74873406D02*
X166635638Y-74821205D01*
X166635638Y-74821205D02*
X166556546Y-74754673D01*
X166556546Y-74754673D02*
X166489369Y-74675152D01*
X166489369Y-74675152D02*
X166436217Y-74583987D01*
X166436217Y-74583987D02*
X166399199Y-74482523D01*
X166399199Y-74482523D02*
X166380427Y-74372102D01*
X166380427Y-74372102D02*
X166378489Y-74322206D01*
X166378489Y-74322206D02*
X166378489Y-74234267D01*
X166378489Y-74234267D02*
X166326560Y-74234267D01*
X166326560Y-74234267D02*
X166290253Y-74237111D01*
X166290253Y-74237111D02*
X166263355Y-74248911D01*
X166263355Y-74248911D02*
X166236249Y-74272649D01*
X166236249Y-74272649D02*
X166197867Y-74311031D01*
X166197867Y-74311031D02*
X166197867Y-76502602D01*
X166197867Y-76502602D02*
X166197876Y-76764739D01*
X166197876Y-76764739D02*
X166197908Y-77005241D01*
X166197908Y-77005241D02*
X166197972Y-77225048D01*
X166197972Y-77225048D02*
X166198076Y-77425101D01*
X166198076Y-77425101D02*
X166198227Y-77606344D01*
X166198227Y-77606344D02*
X166198434Y-77769716D01*
X166198434Y-77769716D02*
X166198706Y-77916160D01*
X166198706Y-77916160D02*
X166199050Y-78046617D01*
X166199050Y-78046617D02*
X166199474Y-78162029D01*
X166199474Y-78162029D02*
X166199987Y-78263338D01*
X166199987Y-78263338D02*
X166200597Y-78351484D01*
X166200597Y-78351484D02*
X166201312Y-78427410D01*
X166201312Y-78427410D02*
X166202140Y-78492057D01*
X166202140Y-78492057D02*
X166203089Y-78546367D01*
X166203089Y-78546367D02*
X166204167Y-78591280D01*
X166204167Y-78591280D02*
X166205383Y-78627740D01*
X166205383Y-78627740D02*
X166206745Y-78656687D01*
X166206745Y-78656687D02*
X166208261Y-78679063D01*
X166208261Y-78679063D02*
X166209938Y-78695809D01*
X166209938Y-78695809D02*
X166211786Y-78707868D01*
X166211786Y-78707868D02*
X166213813Y-78716180D01*
X166213813Y-78716180D02*
X166216025Y-78721687D01*
X166216025Y-78721687D02*
X166217108Y-78723537D01*
X166217108Y-78723537D02*
X166221271Y-78730549D01*
X166221271Y-78730549D02*
X166224805Y-78736996D01*
X166224805Y-78736996D02*
X166228635Y-78742900D01*
X166228635Y-78742900D02*
X166233682Y-78748286D01*
X166233682Y-78748286D02*
X166240871Y-78753178D01*
X166240871Y-78753178D02*
X166251123Y-78757598D01*
X166251123Y-78757598D02*
X166265364Y-78761572D01*
X166265364Y-78761572D02*
X166284514Y-78765121D01*
X166284514Y-78765121D02*
X166309499Y-78768270D01*
X166309499Y-78768270D02*
X166341240Y-78771042D01*
X166341240Y-78771042D02*
X166380662Y-78773461D01*
X166380662Y-78773461D02*
X166428686Y-78775551D01*
X166428686Y-78775551D02*
X166486237Y-78777335D01*
X166486237Y-78777335D02*
X166554237Y-78778837D01*
X166554237Y-78778837D02*
X166633610Y-78780080D01*
X166633610Y-78780080D02*
X166725279Y-78781089D01*
X166725279Y-78781089D02*
X166830166Y-78781885D01*
X166830166Y-78781885D02*
X166949196Y-78782494D01*
X166949196Y-78782494D02*
X167083290Y-78782939D01*
X167083290Y-78782939D02*
X167233373Y-78783243D01*
X167233373Y-78783243D02*
X167400367Y-78783430D01*
X167400367Y-78783430D02*
X167585196Y-78783524D01*
X167585196Y-78783524D02*
X167788783Y-78783548D01*
X167788783Y-78783548D02*
X168012050Y-78783525D01*
X168012050Y-78783525D02*
X168255922Y-78783480D01*
X168255922Y-78783480D02*
X168521321Y-78783437D01*
X168521321Y-78783437D02*
X168559704Y-78783432D01*
X168559704Y-78783432D02*
X168826682Y-78783389D01*
X168826682Y-78783389D02*
X169072002Y-78783318D01*
X169072002Y-78783318D02*
X169296583Y-78783213D01*
X169296583Y-78783213D02*
X169501345Y-78783066D01*
X169501345Y-78783066D02*
X169687206Y-78782869D01*
X169687206Y-78782869D02*
X169855088Y-78782616D01*
X169855088Y-78782616D02*
X170005908Y-78782300D01*
X170005908Y-78782300D02*
X170140587Y-78781913D01*
X170140587Y-78781913D02*
X170260044Y-78781447D01*
X170260044Y-78781447D02*
X170365199Y-78780897D01*
X170365199Y-78780897D02*
X170456971Y-78780253D01*
X170456971Y-78780253D02*
X170536279Y-78779511D01*
X170536279Y-78779511D02*
X170604043Y-78778661D01*
X170604043Y-78778661D02*
X170661182Y-78777697D01*
X170661182Y-78777697D02*
X170708617Y-78776611D01*
X170708617Y-78776611D02*
X170747266Y-78775397D01*
X170747266Y-78775397D02*
X170778049Y-78774047D01*
X170778049Y-78774047D02*
X170801885Y-78772555D01*
X170801885Y-78772555D02*
X170819694Y-78770911D01*
X170819694Y-78770911D02*
X170832395Y-78769111D01*
X170832395Y-78769111D02*
X170840908Y-78767145D01*
X170840908Y-78767145D02*
X170845266Y-78765477D01*
X170845266Y-78765477D02*
X170853728Y-78761906D01*
X170853728Y-78761906D02*
X170861497Y-78759270D01*
X170861497Y-78759270D02*
X170868602Y-78756634D01*
X170868602Y-78756634D02*
X170875073Y-78753062D01*
X170875073Y-78753062D02*
X170880939Y-78747621D01*
X170880939Y-78747621D02*
X170886229Y-78739375D01*
X170886229Y-78739375D02*
X170890974Y-78727390D01*
X170890974Y-78727390D02*
X170895202Y-78710731D01*
X170895202Y-78710731D02*
X170898943Y-78688463D01*
X170898943Y-78688463D02*
X170902227Y-78659652D01*
X170902227Y-78659652D02*
X170905083Y-78623363D01*
X170905083Y-78623363D02*
X170907540Y-78578661D01*
X170907540Y-78578661D02*
X170909629Y-78524611D01*
X170909629Y-78524611D02*
X170911378Y-78460279D01*
X170911378Y-78460279D02*
X170912817Y-78384730D01*
X170912817Y-78384730D02*
X170913976Y-78297030D01*
X170913976Y-78297030D02*
X170914883Y-78196243D01*
X170914883Y-78196243D02*
X170915569Y-78081434D01*
X170915569Y-78081434D02*
X170916063Y-77951670D01*
X170916063Y-77951670D02*
X170916395Y-77806015D01*
X170916395Y-77806015D02*
X170916593Y-77643535D01*
X170916593Y-77643535D02*
X170916687Y-77463295D01*
X170916687Y-77463295D02*
X170916708Y-77264360D01*
X170916708Y-77264360D02*
X170916685Y-77045796D01*
X170916685Y-77045796D02*
X170916646Y-76806668D01*
X170916646Y-76806668D02*
X170916622Y-76546040D01*
X170916622Y-76546040D02*
X170916622Y-76503889D01*
X170916622Y-76503889D02*
X170916636Y-76240992D01*
X170916636Y-76240992D02*
X170916661Y-75999732D01*
X170916661Y-75999732D02*
X170916671Y-75779165D01*
X170916671Y-75779165D02*
X170916642Y-75578352D01*
X170916642Y-75578352D02*
X170916548Y-75396349D01*
X170916548Y-75396349D02*
X170916362Y-75232216D01*
X170916362Y-75232216D02*
X170916059Y-75085011D01*
X170916059Y-75085011D02*
X170915614Y-74953792D01*
X170915614Y-74953792D02*
X170915034Y-74843867D01*
X170915034Y-74843867D02*
X170612197Y-74843867D01*
X170612197Y-74843867D02*
X170572407Y-74901711D01*
X170572407Y-74901711D02*
X170561236Y-74917479D01*
X170561236Y-74917479D02*
X170551166Y-74931441D01*
X170551166Y-74931441D02*
X170542138Y-74944784D01*
X170542138Y-74944784D02*
X170534097Y-74958693D01*
X170534097Y-74958693D02*
X170526986Y-74974356D01*
X170526986Y-74974356D02*
X170520747Y-74992958D01*
X170520747Y-74992958D02*
X170515325Y-75015686D01*
X170515325Y-75015686D02*
X170510662Y-75043727D01*
X170510662Y-75043727D02*
X170506701Y-75078267D01*
X170506701Y-75078267D02*
X170503385Y-75120492D01*
X170503385Y-75120492D02*
X170500659Y-75171589D01*
X170500659Y-75171589D02*
X170498464Y-75232744D01*
X170498464Y-75232744D02*
X170496745Y-75305144D01*
X170496745Y-75305144D02*
X170495444Y-75389975D01*
X170495444Y-75389975D02*
X170494505Y-75488422D01*
X170494505Y-75488422D02*
X170493870Y-75601674D01*
X170493870Y-75601674D02*
X170493484Y-75730916D01*
X170493484Y-75730916D02*
X170493288Y-75877334D01*
X170493288Y-75877334D02*
X170493227Y-76042116D01*
X170493227Y-76042116D02*
X170493243Y-76226447D01*
X170493243Y-76226447D02*
X170493280Y-76431513D01*
X170493280Y-76431513D02*
X170493289Y-76554133D01*
X170493289Y-76554133D02*
X170493265Y-76771082D01*
X170493265Y-76771082D02*
X170493231Y-76966642D01*
X170493231Y-76966642D02*
X170493243Y-77141999D01*
X170493243Y-77141999D02*
X170493358Y-77298341D01*
X170493358Y-77298341D02*
X170493630Y-77436857D01*
X170493630Y-77436857D02*
X170494118Y-77558734D01*
X170494118Y-77558734D02*
X170494876Y-77665160D01*
X170494876Y-77665160D02*
X170495962Y-77757322D01*
X170495962Y-77757322D02*
X170497431Y-77836409D01*
X170497431Y-77836409D02*
X170499340Y-77903608D01*
X170499340Y-77903608D02*
X170501744Y-77960107D01*
X170501744Y-77960107D02*
X170504701Y-78007093D01*
X170504701Y-78007093D02*
X170508266Y-78045755D01*
X170508266Y-78045755D02*
X170512495Y-78077280D01*
X170512495Y-78077280D02*
X170517446Y-78102855D01*
X170517446Y-78102855D02*
X170523173Y-78123670D01*
X170523173Y-78123670D02*
X170529733Y-78140911D01*
X170529733Y-78140911D02*
X170537183Y-78155765D01*
X170537183Y-78155765D02*
X170545579Y-78169422D01*
X170545579Y-78169422D02*
X170554976Y-78183069D01*
X170554976Y-78183069D02*
X170565432Y-78197893D01*
X170565432Y-78197893D02*
X170571523Y-78206783D01*
X170571523Y-78206783D02*
X170610296Y-78264400D01*
X170610296Y-78264400D02*
X170078732Y-78264400D01*
X170078732Y-78264400D02*
X169955483Y-78264365D01*
X169955483Y-78264365D02*
X169852987Y-78264215D01*
X169852987Y-78264215D02*
X169769420Y-78263878D01*
X169769420Y-78263878D02*
X169702956Y-78263286D01*
X169702956Y-78263286D02*
X169651771Y-78262367D01*
X169651771Y-78262367D02*
X169614041Y-78261051D01*
X169614041Y-78261051D02*
X169587940Y-78259269D01*
X169587940Y-78259269D02*
X169571644Y-78256951D01*
X169571644Y-78256951D02*
X169563328Y-78254026D01*
X169563328Y-78254026D02*
X169561168Y-78250424D01*
X169561168Y-78250424D02*
X169563339Y-78246075D01*
X169563339Y-78246075D02*
X169564535Y-78244645D01*
X169564535Y-78244645D02*
X169589685Y-78207573D01*
X169589685Y-78207573D02*
X169615583Y-78154772D01*
X169615583Y-78154772D02*
X169639192Y-78092770D01*
X169639192Y-78092770D02*
X169647461Y-78066357D01*
X169647461Y-78066357D02*
X169652078Y-78048416D01*
X169652078Y-78048416D02*
X169655979Y-78027355D01*
X169655979Y-78027355D02*
X169659248Y-78001089D01*
X169659248Y-78001089D02*
X169661966Y-77967532D01*
X169661966Y-77967532D02*
X169664215Y-77924599D01*
X169664215Y-77924599D02*
X169666077Y-77870204D01*
X169666077Y-77870204D02*
X169667636Y-77802262D01*
X169667636Y-77802262D02*
X169668972Y-77718688D01*
X169668972Y-77718688D02*
X169670169Y-77617395D01*
X169670169Y-77617395D02*
X169671308Y-77496300D01*
X169671308Y-77496300D02*
X169671685Y-77451600D01*
X169671685Y-77451600D02*
X169672702Y-77326449D01*
X169672702Y-77326449D02*
X169673460Y-77222082D01*
X169673460Y-77222082D02*
X169673903Y-77136707D01*
X169673903Y-77136707D02*
X169673970Y-77068533D01*
X169673970Y-77068533D02*
X169673605Y-77015765D01*
X169673605Y-77015765D02*
X169672748Y-76976614D01*
X169672748Y-76976614D02*
X169671341Y-76949285D01*
X169671341Y-76949285D02*
X169669325Y-76931986D01*
X169669325Y-76931986D02*
X169666643Y-76922926D01*
X169666643Y-76922926D02*
X169663236Y-76920312D01*
X169663236Y-76920312D02*
X169659044Y-76922351D01*
X169659044Y-76922351D02*
X169654571Y-76926667D01*
X169654571Y-76926667D02*
X169644216Y-76939602D01*
X169644216Y-76939602D02*
X169622158Y-76968676D01*
X169622158Y-76968676D02*
X169589957Y-77011759D01*
X169589957Y-77011759D02*
X169549174Y-77066718D01*
X169549174Y-77066718D02*
X169501370Y-77131423D01*
X169501370Y-77131423D02*
X169448105Y-77203742D01*
X169448105Y-77203742D02*
X169390940Y-77281544D01*
X169390940Y-77281544D02*
X169331437Y-77362698D01*
X169331437Y-77362698D02*
X169271155Y-77445072D01*
X169271155Y-77445072D02*
X169211655Y-77526536D01*
X169211655Y-77526536D02*
X169154498Y-77604957D01*
X169154498Y-77604957D02*
X169101245Y-77678204D01*
X169101245Y-77678204D02*
X169053457Y-77744147D01*
X169053457Y-77744147D02*
X169012693Y-77800654D01*
X169012693Y-77800654D02*
X168980516Y-77845593D01*
X168980516Y-77845593D02*
X168958485Y-77876834D01*
X168958485Y-77876834D02*
X168953917Y-77883466D01*
X168953917Y-77883466D02*
X168930996Y-77920369D01*
X168930996Y-77920369D02*
X168904188Y-77968359D01*
X168904188Y-77968359D02*
X168878789Y-78017897D01*
X168878789Y-78017897D02*
X168875568Y-78024577D01*
X168875568Y-78024577D02*
X168853890Y-78072772D01*
X168853890Y-78072772D02*
X168841304Y-78110334D01*
X168841304Y-78110334D02*
X168835574Y-78146160D01*
X168835574Y-78146160D02*
X168834456Y-78188200D01*
X168834456Y-78188200D02*
X168835090Y-78264400D01*
X168835090Y-78264400D02*
X167680651Y-78264400D01*
X167680651Y-78264400D02*
X167771815Y-78170669D01*
X167771815Y-78170669D02*
X167818612Y-78120775D01*
X167818612Y-78120775D02*
X167868899Y-78064295D01*
X167868899Y-78064295D02*
X167914944Y-78010026D01*
X167914944Y-78010026D02*
X167935369Y-77984673D01*
X167935369Y-77984673D02*
X167965807Y-77945128D01*
X167965807Y-77945128D02*
X168005862Y-77891916D01*
X168005862Y-77891916D02*
X168054361Y-77826667D01*
X168054361Y-77826667D02*
X168110135Y-77751011D01*
X168110135Y-77751011D02*
X168172011Y-77666577D01*
X168172011Y-77666577D02*
X168238819Y-77574994D01*
X168238819Y-77574994D02*
X168309387Y-77477892D01*
X168309387Y-77477892D02*
X168382545Y-77376901D01*
X168382545Y-77376901D02*
X168457121Y-77273650D01*
X168457121Y-77273650D02*
X168531944Y-77169768D01*
X168531944Y-77169768D02*
X168605843Y-77066885D01*
X168605843Y-77066885D02*
X168677646Y-76966631D01*
X168677646Y-76966631D02*
X168746184Y-76870636D01*
X168746184Y-76870636D02*
X168810284Y-76780527D01*
X168810284Y-76780527D02*
X168868775Y-76697936D01*
X168868775Y-76697936D02*
X168920486Y-76624492D01*
X168920486Y-76624492D02*
X168964247Y-76561824D01*
X168964247Y-76561824D02*
X168998885Y-76511561D01*
X168998885Y-76511561D02*
X169023230Y-76475334D01*
X169023230Y-76475334D02*
X169036111Y-76454771D01*
X169036111Y-76454771D02*
X169037869Y-76450668D01*
X169037869Y-76450668D02*
X169029910Y-76439342D01*
X169029910Y-76439342D02*
X169009115Y-76412162D01*
X169009115Y-76412162D02*
X168976847Y-76370829D01*
X168976847Y-76370829D02*
X168934470Y-76317044D01*
X168934470Y-76317044D02*
X168883347Y-76252506D01*
X168883347Y-76252506D02*
X168824841Y-76178918D01*
X168824841Y-76178918D02*
X168760314Y-76097978D01*
X168760314Y-76097978D02*
X168691131Y-76011388D01*
X168691131Y-76011388D02*
X168618653Y-75920848D01*
X168618653Y-75920848D02*
X168544246Y-75828060D01*
X168544246Y-75828060D02*
X168484517Y-75753702D01*
X168484517Y-75753702D02*
X167473511Y-75753702D01*
X167473511Y-75753702D02*
X167467602Y-75766659D01*
X167467602Y-75766659D02*
X167453272Y-75788908D01*
X167453272Y-75788908D02*
X167452225Y-75790391D01*
X167452225Y-75790391D02*
X167433438Y-75820544D01*
X167433438Y-75820544D02*
X167413791Y-75857375D01*
X167413791Y-75857375D02*
X167409892Y-75865511D01*
X167409892Y-75865511D02*
X167406356Y-75873940D01*
X167406356Y-75873940D02*
X167403230Y-75884059D01*
X167403230Y-75884059D02*
X167400486Y-75897260D01*
X167400486Y-75897260D02*
X167398092Y-75914938D01*
X167398092Y-75914938D02*
X167396019Y-75938484D01*
X167396019Y-75938484D02*
X167394235Y-75969293D01*
X167394235Y-75969293D02*
X167392712Y-76008757D01*
X167392712Y-76008757D02*
X167391419Y-76058269D01*
X167391419Y-76058269D02*
X167390326Y-76119223D01*
X167390326Y-76119223D02*
X167389403Y-76193011D01*
X167389403Y-76193011D02*
X167388619Y-76281028D01*
X167388619Y-76281028D02*
X167387945Y-76384665D01*
X167387945Y-76384665D02*
X167387350Y-76505316D01*
X167387350Y-76505316D02*
X167386805Y-76644374D01*
X167386805Y-76644374D02*
X167386279Y-76803232D01*
X167386279Y-76803232D02*
X167385745Y-76982089D01*
X167385745Y-76982089D02*
X167385206Y-77167207D01*
X167385206Y-77167207D02*
X167384772Y-77331145D01*
X167384772Y-77331145D02*
X167384509Y-77475303D01*
X167384509Y-77475303D02*
X167384484Y-77601079D01*
X167384484Y-77601079D02*
X167384765Y-77709871D01*
X167384765Y-77709871D02*
X167385419Y-77803077D01*
X167385419Y-77803077D02*
X167386514Y-77882097D01*
X167386514Y-77882097D02*
X167388118Y-77948328D01*
X167388118Y-77948328D02*
X167390297Y-78003170D01*
X167390297Y-78003170D02*
X167393119Y-78048021D01*
X167393119Y-78048021D02*
X167396651Y-78084278D01*
X167396651Y-78084278D02*
X167400961Y-78113341D01*
X167400961Y-78113341D02*
X167406117Y-78136609D01*
X167406117Y-78136609D02*
X167412185Y-78155479D01*
X167412185Y-78155479D02*
X167419233Y-78171351D01*
X167419233Y-78171351D02*
X167427329Y-78185622D01*
X167427329Y-78185622D02*
X167436540Y-78199691D01*
X167436540Y-78199691D02*
X167445040Y-78212158D01*
X167445040Y-78212158D02*
X167462176Y-78238452D01*
X167462176Y-78238452D02*
X167472322Y-78256037D01*
X167472322Y-78256037D02*
X167473511Y-78259257D01*
X167473511Y-78259257D02*
X167462604Y-78260334D01*
X167462604Y-78260334D02*
X167431411Y-78261335D01*
X167431411Y-78261335D02*
X167382223Y-78262235D01*
X167382223Y-78262235D02*
X167317333Y-78263010D01*
X167317333Y-78263010D02*
X167239030Y-78263637D01*
X167239030Y-78263637D02*
X167149607Y-78264091D01*
X167149607Y-78264091D02*
X167051356Y-78264349D01*
X167051356Y-78264349D02*
X166982445Y-78264400D01*
X166982445Y-78264400D02*
X166877452Y-78264180D01*
X166877452Y-78264180D02*
X166780610Y-78263548D01*
X166780610Y-78263548D02*
X166694107Y-78262549D01*
X166694107Y-78262549D02*
X166620132Y-78261227D01*
X166620132Y-78261227D02*
X166560874Y-78259626D01*
X166560874Y-78259626D02*
X166518520Y-78257791D01*
X166518520Y-78257791D02*
X166495260Y-78255765D01*
X166495260Y-78255765D02*
X166491378Y-78254493D01*
X166491378Y-78254493D02*
X166499076Y-78239591D01*
X166499076Y-78239591D02*
X166507074Y-78231560D01*
X166507074Y-78231560D02*
X166520246Y-78214434D01*
X166520246Y-78214434D02*
X166537485Y-78184183D01*
X166537485Y-78184183D02*
X166549407Y-78159622D01*
X166549407Y-78159622D02*
X166576045Y-78100711D01*
X166576045Y-78100711D02*
X166579120Y-76923845D01*
X166579120Y-76923845D02*
X166582195Y-75746978D01*
X166582195Y-75746978D02*
X167027853Y-75746978D01*
X167027853Y-75746978D02*
X167125670Y-75747142D01*
X167125670Y-75747142D02*
X167216064Y-75747611D01*
X167216064Y-75747611D02*
X167296630Y-75748347D01*
X167296630Y-75748347D02*
X167364962Y-75749316D01*
X167364962Y-75749316D02*
X167418656Y-75750480D01*
X167418656Y-75750480D02*
X167455305Y-75751803D01*
X167455305Y-75751803D02*
X167472504Y-75753249D01*
X167472504Y-75753249D02*
X167473511Y-75753702D01*
X167473511Y-75753702D02*
X168484517Y-75753702D01*
X168484517Y-75753702D02*
X168469270Y-75734722D01*
X168469270Y-75734722D02*
X168395090Y-75642537D01*
X168395090Y-75642537D02*
X168323069Y-75553204D01*
X168323069Y-75553204D02*
X168254569Y-75468424D01*
X168254569Y-75468424D02*
X168190955Y-75389898D01*
X168190955Y-75389898D02*
X168133588Y-75319326D01*
X168133588Y-75319326D02*
X168083833Y-75258409D01*
X168083833Y-75258409D02*
X168043052Y-75208847D01*
X168043052Y-75208847D02*
X168025888Y-75188178D01*
X168025888Y-75188178D02*
X167939596Y-75087516D01*
X167939596Y-75087516D02*
X167862997Y-75004259D01*
X167862997Y-75004259D02*
X167794183Y-74936438D01*
X167794183Y-74936438D02*
X167731248Y-74882089D01*
X167731248Y-74882089D02*
X167721867Y-74874722D01*
X167721867Y-74874722D02*
X167682356Y-74844117D01*
X167682356Y-74844117D02*
X168814116Y-74843867D01*
X168814116Y-74843867D02*
X168808827Y-74891844D01*
X168808827Y-74891844D02*
X168812130Y-74949188D01*
X168812130Y-74949188D02*
X168833661Y-75017463D01*
X168833661Y-75017463D02*
X168873635Y-75097212D01*
X168873635Y-75097212D02*
X168918943Y-75169495D01*
X168918943Y-75169495D02*
X168935161Y-75192140D01*
X168935161Y-75192140D02*
X168963214Y-75229696D01*
X168963214Y-75229696D02*
X169001430Y-75280021D01*
X169001430Y-75280021D02*
X169048137Y-75340973D01*
X169048137Y-75340973D02*
X169101661Y-75410411D01*
X169101661Y-75410411D02*
X169160331Y-75486194D01*
X169160331Y-75486194D02*
X169222475Y-75566180D01*
X169222475Y-75566180D02*
X169286421Y-75648228D01*
X169286421Y-75648228D02*
X169350495Y-75730196D01*
X169350495Y-75730196D02*
X169413027Y-75809943D01*
X169413027Y-75809943D02*
X169472343Y-75885327D01*
X169472343Y-75885327D02*
X169526771Y-75954207D01*
X169526771Y-75954207D02*
X169574639Y-76014442D01*
X169574639Y-76014442D02*
X169614275Y-76063889D01*
X169614275Y-76063889D02*
X169644006Y-76100408D01*
X169644006Y-76100408D02*
X169662161Y-76121858D01*
X169662161Y-76121858D02*
X169665220Y-76125156D01*
X169665220Y-76125156D02*
X169668079Y-76117149D01*
X169668079Y-76117149D02*
X169670293Y-76086855D01*
X169670293Y-76086855D02*
X169671857Y-76034556D01*
X169671857Y-76034556D02*
X169672767Y-75960531D01*
X169672767Y-75960531D02*
X169673020Y-75865063D01*
X169673020Y-75865063D02*
X169672613Y-75748434D01*
X169672613Y-75748434D02*
X169671704Y-75628445D01*
X169671704Y-75628445D02*
X169670382Y-75496333D01*
X169670382Y-75496333D02*
X169668857Y-75384594D01*
X169668857Y-75384594D02*
X169666881Y-75291025D01*
X169666881Y-75291025D02*
X169664206Y-75213419D01*
X169664206Y-75213419D02*
X169660582Y-75149574D01*
X169660582Y-75149574D02*
X169655761Y-75097283D01*
X169655761Y-75097283D02*
X169649494Y-75054344D01*
X169649494Y-75054344D02*
X169641532Y-75018551D01*
X169641532Y-75018551D02*
X169631627Y-74987700D01*
X169631627Y-74987700D02*
X169619531Y-74959586D01*
X169619531Y-74959586D02*
X169604993Y-74932005D01*
X169604993Y-74932005D02*
X169590311Y-74906966D01*
X169590311Y-74906966D02*
X169552314Y-74843867D01*
X169552314Y-74843867D02*
X170612197Y-74843867D01*
X170612197Y-74843867D02*
X170915034Y-74843867D01*
X170915034Y-74843867D02*
X170915001Y-74837617D01*
X170915001Y-74837617D02*
X170914195Y-74735544D01*
X170914195Y-74735544D02*
X170913170Y-74646633D01*
X170913170Y-74646633D02*
X170911900Y-74569941D01*
X170911900Y-74569941D02*
X170910360Y-74504527D01*
X170910360Y-74504527D02*
X170908524Y-74449449D01*
X170908524Y-74449449D02*
X170906367Y-74403765D01*
X170906367Y-74403765D02*
X170903863Y-74366534D01*
X170903863Y-74366534D02*
X170900987Y-74336813D01*
X170900987Y-74336813D02*
X170897713Y-74313662D01*
X170897713Y-74313662D02*
X170894015Y-74296139D01*
X170894015Y-74296139D02*
X170889869Y-74283301D01*
X170889869Y-74283301D02*
X170885247Y-74274208D01*
X170885247Y-74274208D02*
X170880126Y-74267918D01*
X170880126Y-74267918D02*
X170874478Y-74263488D01*
X170874478Y-74263488D02*
X170868279Y-74259978D01*
X170868279Y-74259978D02*
X170861504Y-74256445D01*
X170861504Y-74256445D02*
X170855508Y-74252876D01*
X170855508Y-74252876D02*
X170850275Y-74250300D01*
X170850275Y-74250300D02*
X170842099Y-74247972D01*
X170842099Y-74247972D02*
X170829886Y-74245878D01*
X170829886Y-74245878D02*
X170812541Y-74244007D01*
X170812541Y-74244007D02*
X170788969Y-74242347D01*
X170788969Y-74242347D02*
X170758077Y-74240884D01*
X170758077Y-74240884D02*
X170718768Y-74239608D01*
X170718768Y-74239608D02*
X170669950Y-74238504D01*
X170669950Y-74238504D02*
X170610527Y-74237561D01*
X170610527Y-74237561D02*
X170539404Y-74236767D01*
X170539404Y-74236767D02*
X170455488Y-74236109D01*
X170455488Y-74236109D02*
X170357683Y-74235575D01*
X170357683Y-74235575D02*
X170244894Y-74235153D01*
X170244894Y-74235153D02*
X170116029Y-74234829D01*
X170116029Y-74234829D02*
X169969991Y-74234592D01*
X169969991Y-74234592D02*
X169805686Y-74234430D01*
X169805686Y-74234430D02*
X169622020Y-74234330D01*
X169622020Y-74234330D02*
X169417897Y-74234280D01*
X169417897Y-74234280D02*
X169206753Y-74234267D01*
X169206753Y-74234267D02*
X167586400Y-74234267D01*
X167586400Y-74234267D02*
X167586400Y-74331054D01*
X167586400Y-74331054D02*
X167586400Y-74331054D01*
G36*
X170916059Y-75085011D02*
G01*
X170916362Y-75232216D01*
X170916548Y-75396349D01*
X170916642Y-75578352D01*
X170916671Y-75779165D01*
X170916661Y-75999732D01*
X170916636Y-76240992D01*
X170916622Y-76503889D01*
X170916622Y-76546040D01*
X170916646Y-76806668D01*
X170916685Y-77045796D01*
X170916708Y-77264360D01*
X170916687Y-77463295D01*
X170916593Y-77643535D01*
X170916395Y-77806015D01*
X170916063Y-77951670D01*
X170915569Y-78081434D01*
X170914883Y-78196243D01*
X170913976Y-78297030D01*
X170912817Y-78384730D01*
X170911378Y-78460279D01*
X170909629Y-78524611D01*
X170907540Y-78578661D01*
X170905083Y-78623363D01*
X170902227Y-78659652D01*
X170898943Y-78688463D01*
X170895202Y-78710731D01*
X170890974Y-78727390D01*
X170886229Y-78739375D01*
X170880939Y-78747621D01*
X170875073Y-78753062D01*
X170868602Y-78756634D01*
X170861497Y-78759270D01*
X170853728Y-78761906D01*
X170845266Y-78765477D01*
X170840908Y-78767145D01*
X170832395Y-78769111D01*
X170819694Y-78770911D01*
X170801885Y-78772555D01*
X170778049Y-78774047D01*
X170747266Y-78775397D01*
X170708617Y-78776611D01*
X170661182Y-78777697D01*
X170604043Y-78778661D01*
X170536279Y-78779511D01*
X170456971Y-78780253D01*
X170365199Y-78780897D01*
X170260044Y-78781447D01*
X170140587Y-78781913D01*
X170005908Y-78782300D01*
X169855088Y-78782616D01*
X169687206Y-78782869D01*
X169501345Y-78783066D01*
X169296583Y-78783213D01*
X169072002Y-78783318D01*
X168826682Y-78783389D01*
X168559704Y-78783432D01*
X168521321Y-78783437D01*
X168255922Y-78783480D01*
X168012050Y-78783525D01*
X167788783Y-78783548D01*
X167585196Y-78783524D01*
X167400367Y-78783430D01*
X167233373Y-78783243D01*
X167083290Y-78782939D01*
X166949196Y-78782494D01*
X166830166Y-78781885D01*
X166725279Y-78781089D01*
X166633610Y-78780080D01*
X166554237Y-78778837D01*
X166486237Y-78777335D01*
X166428686Y-78775551D01*
X166380662Y-78773461D01*
X166341240Y-78771042D01*
X166309499Y-78768270D01*
X166284514Y-78765121D01*
X166265364Y-78761572D01*
X166251123Y-78757598D01*
X166240871Y-78753178D01*
X166233682Y-78748286D01*
X166228635Y-78742900D01*
X166224805Y-78736996D01*
X166221271Y-78730549D01*
X166217108Y-78723537D01*
X166216025Y-78721687D01*
X166213813Y-78716180D01*
X166211786Y-78707868D01*
X166209938Y-78695809D01*
X166208261Y-78679063D01*
X166206745Y-78656687D01*
X166205383Y-78627740D01*
X166204167Y-78591280D01*
X166203089Y-78546367D01*
X166202140Y-78492057D01*
X166201312Y-78427410D01*
X166200597Y-78351484D01*
X166199987Y-78263338D01*
X166199942Y-78254493D01*
X166491378Y-78254493D01*
X166495260Y-78255765D01*
X166518520Y-78257791D01*
X166560874Y-78259626D01*
X166620132Y-78261227D01*
X166694107Y-78262549D01*
X166780610Y-78263548D01*
X166877452Y-78264180D01*
X166982445Y-78264400D01*
X167680651Y-78264400D01*
X168835090Y-78264400D01*
X168834456Y-78188200D01*
X168835574Y-78146160D01*
X168841304Y-78110334D01*
X168853890Y-78072772D01*
X168875568Y-78024577D01*
X168878789Y-78017897D01*
X168904188Y-77968359D01*
X168930996Y-77920369D01*
X168953917Y-77883466D01*
X168958485Y-77876834D01*
X168980516Y-77845593D01*
X169012693Y-77800654D01*
X169053457Y-77744147D01*
X169101245Y-77678204D01*
X169154498Y-77604957D01*
X169211655Y-77526536D01*
X169271155Y-77445072D01*
X169331437Y-77362698D01*
X169390940Y-77281544D01*
X169448105Y-77203742D01*
X169501370Y-77131423D01*
X169549174Y-77066718D01*
X169589957Y-77011759D01*
X169622158Y-76968676D01*
X169644216Y-76939602D01*
X169654571Y-76926667D01*
X169659044Y-76922351D01*
X169663236Y-76920312D01*
X169666643Y-76922926D01*
X169669325Y-76931986D01*
X169671341Y-76949285D01*
X169672748Y-76976614D01*
X169673605Y-77015765D01*
X169673970Y-77068533D01*
X169673903Y-77136707D01*
X169673460Y-77222082D01*
X169672702Y-77326449D01*
X169671685Y-77451600D01*
X169671308Y-77496300D01*
X169670169Y-77617395D01*
X169668972Y-77718688D01*
X169667636Y-77802262D01*
X169666077Y-77870204D01*
X169664215Y-77924599D01*
X169661966Y-77967532D01*
X169659248Y-78001089D01*
X169655979Y-78027355D01*
X169652078Y-78048416D01*
X169647461Y-78066357D01*
X169639192Y-78092770D01*
X169615583Y-78154772D01*
X169589685Y-78207573D01*
X169564535Y-78244645D01*
X169563339Y-78246075D01*
X169561168Y-78250424D01*
X169563328Y-78254026D01*
X169571644Y-78256951D01*
X169587940Y-78259269D01*
X169614041Y-78261051D01*
X169651771Y-78262367D01*
X169702956Y-78263286D01*
X169769420Y-78263878D01*
X169852987Y-78264215D01*
X169955483Y-78264365D01*
X170078732Y-78264400D01*
X170610296Y-78264400D01*
X170571523Y-78206783D01*
X170565432Y-78197893D01*
X170554976Y-78183069D01*
X170545579Y-78169422D01*
X170537183Y-78155765D01*
X170529733Y-78140911D01*
X170523173Y-78123670D01*
X170517446Y-78102855D01*
X170512495Y-78077280D01*
X170508266Y-78045755D01*
X170504701Y-78007093D01*
X170501744Y-77960107D01*
X170499340Y-77903608D01*
X170497431Y-77836409D01*
X170495962Y-77757322D01*
X170494876Y-77665160D01*
X170494118Y-77558734D01*
X170493630Y-77436857D01*
X170493358Y-77298341D01*
X170493243Y-77141999D01*
X170493231Y-76966642D01*
X170493265Y-76771082D01*
X170493289Y-76554133D01*
X170493280Y-76431513D01*
X170493243Y-76226447D01*
X170493227Y-76042116D01*
X170493288Y-75877334D01*
X170493484Y-75730916D01*
X170493870Y-75601674D01*
X170494505Y-75488422D01*
X170495444Y-75389975D01*
X170496745Y-75305144D01*
X170498464Y-75232744D01*
X170500659Y-75171589D01*
X170503385Y-75120492D01*
X170506701Y-75078267D01*
X170510662Y-75043727D01*
X170515325Y-75015686D01*
X170520747Y-74992958D01*
X170526986Y-74974356D01*
X170534097Y-74958693D01*
X170542138Y-74944784D01*
X170551166Y-74931441D01*
X170561236Y-74917479D01*
X170572407Y-74901711D01*
X170612197Y-74843867D01*
X169552314Y-74843867D01*
X169590311Y-74906966D01*
X169604993Y-74932005D01*
X169619531Y-74959586D01*
X169631627Y-74987700D01*
X169641532Y-75018551D01*
X169649494Y-75054344D01*
X169655761Y-75097283D01*
X169660582Y-75149574D01*
X169664206Y-75213419D01*
X169666881Y-75291025D01*
X169668857Y-75384594D01*
X169670382Y-75496333D01*
X169671704Y-75628445D01*
X169672613Y-75748434D01*
X169673020Y-75865063D01*
X169672767Y-75960531D01*
X169671857Y-76034556D01*
X169670293Y-76086855D01*
X169668079Y-76117149D01*
X169665220Y-76125156D01*
X169662161Y-76121858D01*
X169644006Y-76100408D01*
X169614275Y-76063889D01*
X169574639Y-76014442D01*
X169526771Y-75954207D01*
X169472343Y-75885327D01*
X169413027Y-75809943D01*
X169350495Y-75730196D01*
X169286421Y-75648228D01*
X169222475Y-75566180D01*
X169160331Y-75486194D01*
X169101661Y-75410411D01*
X169048137Y-75340973D01*
X169001430Y-75280021D01*
X168963214Y-75229696D01*
X168935161Y-75192140D01*
X168918943Y-75169495D01*
X168873635Y-75097212D01*
X168833661Y-75017463D01*
X168812130Y-74949188D01*
X168808827Y-74891844D01*
X168814116Y-74843867D01*
X167682356Y-74844117D01*
X167721867Y-74874722D01*
X167731248Y-74882089D01*
X167794183Y-74936438D01*
X167862997Y-75004259D01*
X167939596Y-75087516D01*
X168025888Y-75188178D01*
X168043052Y-75208847D01*
X168083833Y-75258409D01*
X168133588Y-75319326D01*
X168190955Y-75389898D01*
X168254569Y-75468424D01*
X168323069Y-75553204D01*
X168395090Y-75642537D01*
X168469270Y-75734722D01*
X168484517Y-75753702D01*
X168544246Y-75828060D01*
X168618653Y-75920848D01*
X168691131Y-76011388D01*
X168760314Y-76097978D01*
X168824841Y-76178918D01*
X168883347Y-76252506D01*
X168934470Y-76317044D01*
X168976847Y-76370829D01*
X169009115Y-76412162D01*
X169029910Y-76439342D01*
X169037869Y-76450668D01*
X169036111Y-76454771D01*
X169023230Y-76475334D01*
X168998885Y-76511561D01*
X168964247Y-76561824D01*
X168920486Y-76624492D01*
X168868775Y-76697936D01*
X168810284Y-76780527D01*
X168746184Y-76870636D01*
X168677646Y-76966631D01*
X168605843Y-77066885D01*
X168531944Y-77169768D01*
X168457121Y-77273650D01*
X168382545Y-77376901D01*
X168309387Y-77477892D01*
X168238819Y-77574994D01*
X168172011Y-77666577D01*
X168110135Y-77751011D01*
X168054361Y-77826667D01*
X168005862Y-77891916D01*
X167965807Y-77945128D01*
X167935369Y-77984673D01*
X167914944Y-78010026D01*
X167868899Y-78064295D01*
X167818612Y-78120775D01*
X167771815Y-78170669D01*
X167680651Y-78264400D01*
X166982445Y-78264400D01*
X167051356Y-78264349D01*
X167149607Y-78264091D01*
X167239030Y-78263637D01*
X167317333Y-78263010D01*
X167382223Y-78262235D01*
X167431411Y-78261335D01*
X167462604Y-78260334D01*
X167473511Y-78259257D01*
X167472322Y-78256037D01*
X167462176Y-78238452D01*
X167445040Y-78212158D01*
X167436540Y-78199691D01*
X167427329Y-78185622D01*
X167419233Y-78171351D01*
X167412185Y-78155479D01*
X167406117Y-78136609D01*
X167400961Y-78113341D01*
X167396651Y-78084278D01*
X167393119Y-78048021D01*
X167390297Y-78003170D01*
X167388118Y-77948328D01*
X167386514Y-77882097D01*
X167385419Y-77803077D01*
X167384765Y-77709871D01*
X167384484Y-77601079D01*
X167384509Y-77475303D01*
X167384772Y-77331145D01*
X167385206Y-77167207D01*
X167385745Y-76982089D01*
X167386279Y-76803232D01*
X167386805Y-76644374D01*
X167387350Y-76505316D01*
X167387945Y-76384665D01*
X167388619Y-76281028D01*
X167389403Y-76193011D01*
X167390326Y-76119223D01*
X167391419Y-76058269D01*
X167392712Y-76008757D01*
X167394235Y-75969293D01*
X167396019Y-75938484D01*
X167398092Y-75914938D01*
X167400486Y-75897260D01*
X167403230Y-75884059D01*
X167406356Y-75873940D01*
X167409892Y-75865511D01*
X167413791Y-75857375D01*
X167433438Y-75820544D01*
X167452225Y-75790391D01*
X167453272Y-75788908D01*
X167467602Y-75766659D01*
X167473511Y-75753702D01*
X167472504Y-75753249D01*
X167455305Y-75751803D01*
X167418656Y-75750480D01*
X167364962Y-75749316D01*
X167296630Y-75748347D01*
X167216064Y-75747611D01*
X167125670Y-75747142D01*
X167027853Y-75746978D01*
X166582195Y-75746978D01*
X166579120Y-76923845D01*
X166576045Y-78100711D01*
X166549407Y-78159622D01*
X166537485Y-78184183D01*
X166520246Y-78214434D01*
X166507074Y-78231560D01*
X166499076Y-78239591D01*
X166491378Y-78254493D01*
X166199942Y-78254493D01*
X166199474Y-78162029D01*
X166199050Y-78046617D01*
X166198706Y-77916160D01*
X166198434Y-77769716D01*
X166198227Y-77606344D01*
X166198076Y-77425101D01*
X166197972Y-77225048D01*
X166197908Y-77005241D01*
X166197876Y-76764739D01*
X166197867Y-76502602D01*
X166197867Y-74311031D01*
X166236249Y-74272649D01*
X166263355Y-74248911D01*
X166290253Y-74237111D01*
X166326560Y-74234267D01*
X166378489Y-74234267D01*
X166378489Y-74322206D01*
X166380427Y-74372102D01*
X166399199Y-74482523D01*
X166436217Y-74583987D01*
X166489369Y-74675152D01*
X166556546Y-74754673D01*
X166635638Y-74821205D01*
X166724534Y-74873406D01*
X166821125Y-74909930D01*
X166923300Y-74929434D01*
X167028950Y-74930573D01*
X167135964Y-74912005D01*
X167242232Y-74872384D01*
X167339219Y-74814516D01*
X167424293Y-74739684D01*
X167493015Y-74651615D01*
X167543918Y-74552616D01*
X167575535Y-74444993D01*
X167586400Y-74331054D01*
X167586400Y-74234267D01*
X169206753Y-74234267D01*
X169417897Y-74234280D01*
X169622020Y-74234330D01*
X169805686Y-74234430D01*
X169969991Y-74234592D01*
X170116029Y-74234829D01*
X170244894Y-74235153D01*
X170357683Y-74235575D01*
X170455488Y-74236109D01*
X170539404Y-74236767D01*
X170610527Y-74237561D01*
X170669950Y-74238504D01*
X170718768Y-74239608D01*
X170758077Y-74240884D01*
X170788969Y-74242347D01*
X170812541Y-74244007D01*
X170829886Y-74245878D01*
X170842099Y-74247972D01*
X170850275Y-74250300D01*
X170855508Y-74252876D01*
X170861504Y-74256445D01*
X170868279Y-74259978D01*
X170874478Y-74263488D01*
X170880126Y-74267918D01*
X170885247Y-74274208D01*
X170889869Y-74283301D01*
X170894015Y-74296139D01*
X170897713Y-74313662D01*
X170900987Y-74336813D01*
X170903863Y-74366534D01*
X170906367Y-74403765D01*
X170908524Y-74449449D01*
X170910360Y-74504527D01*
X170911900Y-74569941D01*
X170913170Y-74646633D01*
X170914195Y-74735544D01*
X170915001Y-74837617D01*
X170915034Y-74843867D01*
X170915614Y-74953792D01*
X170916059Y-75085011D01*
G37*
X170916059Y-75085011D02*
X170916362Y-75232216D01*
X170916548Y-75396349D01*
X170916642Y-75578352D01*
X170916671Y-75779165D01*
X170916661Y-75999732D01*
X170916636Y-76240992D01*
X170916622Y-76503889D01*
X170916622Y-76546040D01*
X170916646Y-76806668D01*
X170916685Y-77045796D01*
X170916708Y-77264360D01*
X170916687Y-77463295D01*
X170916593Y-77643535D01*
X170916395Y-77806015D01*
X170916063Y-77951670D01*
X170915569Y-78081434D01*
X170914883Y-78196243D01*
X170913976Y-78297030D01*
X170912817Y-78384730D01*
X170911378Y-78460279D01*
X170909629Y-78524611D01*
X170907540Y-78578661D01*
X170905083Y-78623363D01*
X170902227Y-78659652D01*
X170898943Y-78688463D01*
X170895202Y-78710731D01*
X170890974Y-78727390D01*
X170886229Y-78739375D01*
X170880939Y-78747621D01*
X170875073Y-78753062D01*
X170868602Y-78756634D01*
X170861497Y-78759270D01*
X170853728Y-78761906D01*
X170845266Y-78765477D01*
X170840908Y-78767145D01*
X170832395Y-78769111D01*
X170819694Y-78770911D01*
X170801885Y-78772555D01*
X170778049Y-78774047D01*
X170747266Y-78775397D01*
X170708617Y-78776611D01*
X170661182Y-78777697D01*
X170604043Y-78778661D01*
X170536279Y-78779511D01*
X170456971Y-78780253D01*
X170365199Y-78780897D01*
X170260044Y-78781447D01*
X170140587Y-78781913D01*
X170005908Y-78782300D01*
X169855088Y-78782616D01*
X169687206Y-78782869D01*
X169501345Y-78783066D01*
X169296583Y-78783213D01*
X169072002Y-78783318D01*
X168826682Y-78783389D01*
X168559704Y-78783432D01*
X168521321Y-78783437D01*
X168255922Y-78783480D01*
X168012050Y-78783525D01*
X167788783Y-78783548D01*
X167585196Y-78783524D01*
X167400367Y-78783430D01*
X167233373Y-78783243D01*
X167083290Y-78782939D01*
X166949196Y-78782494D01*
X166830166Y-78781885D01*
X166725279Y-78781089D01*
X166633610Y-78780080D01*
X166554237Y-78778837D01*
X166486237Y-78777335D01*
X166428686Y-78775551D01*
X166380662Y-78773461D01*
X166341240Y-78771042D01*
X166309499Y-78768270D01*
X166284514Y-78765121D01*
X166265364Y-78761572D01*
X166251123Y-78757598D01*
X166240871Y-78753178D01*
X166233682Y-78748286D01*
X166228635Y-78742900D01*
X166224805Y-78736996D01*
X166221271Y-78730549D01*
X166217108Y-78723537D01*
X166216025Y-78721687D01*
X166213813Y-78716180D01*
X166211786Y-78707868D01*
X166209938Y-78695809D01*
X166208261Y-78679063D01*
X166206745Y-78656687D01*
X166205383Y-78627740D01*
X166204167Y-78591280D01*
X166203089Y-78546367D01*
X166202140Y-78492057D01*
X166201312Y-78427410D01*
X166200597Y-78351484D01*
X166199987Y-78263338D01*
X166199942Y-78254493D01*
X166491378Y-78254493D01*
X166495260Y-78255765D01*
X166518520Y-78257791D01*
X166560874Y-78259626D01*
X166620132Y-78261227D01*
X166694107Y-78262549D01*
X166780610Y-78263548D01*
X166877452Y-78264180D01*
X166982445Y-78264400D01*
X167680651Y-78264400D01*
X168835090Y-78264400D01*
X168834456Y-78188200D01*
X168835574Y-78146160D01*
X168841304Y-78110334D01*
X168853890Y-78072772D01*
X168875568Y-78024577D01*
X168878789Y-78017897D01*
X168904188Y-77968359D01*
X168930996Y-77920369D01*
X168953917Y-77883466D01*
X168958485Y-77876834D01*
X168980516Y-77845593D01*
X169012693Y-77800654D01*
X169053457Y-77744147D01*
X169101245Y-77678204D01*
X169154498Y-77604957D01*
X169211655Y-77526536D01*
X169271155Y-77445072D01*
X169331437Y-77362698D01*
X169390940Y-77281544D01*
X169448105Y-77203742D01*
X169501370Y-77131423D01*
X169549174Y-77066718D01*
X169589957Y-77011759D01*
X169622158Y-76968676D01*
X169644216Y-76939602D01*
X169654571Y-76926667D01*
X169659044Y-76922351D01*
X169663236Y-76920312D01*
X169666643Y-76922926D01*
X169669325Y-76931986D01*
X169671341Y-76949285D01*
X169672748Y-76976614D01*
X169673605Y-77015765D01*
X169673970Y-77068533D01*
X169673903Y-77136707D01*
X169673460Y-77222082D01*
X169672702Y-77326449D01*
X169671685Y-77451600D01*
X169671308Y-77496300D01*
X169670169Y-77617395D01*
X169668972Y-77718688D01*
X169667636Y-77802262D01*
X169666077Y-77870204D01*
X169664215Y-77924599D01*
X169661966Y-77967532D01*
X169659248Y-78001089D01*
X169655979Y-78027355D01*
X169652078Y-78048416D01*
X169647461Y-78066357D01*
X169639192Y-78092770D01*
X169615583Y-78154772D01*
X169589685Y-78207573D01*
X169564535Y-78244645D01*
X169563339Y-78246075D01*
X169561168Y-78250424D01*
X169563328Y-78254026D01*
X169571644Y-78256951D01*
X169587940Y-78259269D01*
X169614041Y-78261051D01*
X169651771Y-78262367D01*
X169702956Y-78263286D01*
X169769420Y-78263878D01*
X169852987Y-78264215D01*
X169955483Y-78264365D01*
X170078732Y-78264400D01*
X170610296Y-78264400D01*
X170571523Y-78206783D01*
X170565432Y-78197893D01*
X170554976Y-78183069D01*
X170545579Y-78169422D01*
X170537183Y-78155765D01*
X170529733Y-78140911D01*
X170523173Y-78123670D01*
X170517446Y-78102855D01*
X170512495Y-78077280D01*
X170508266Y-78045755D01*
X170504701Y-78007093D01*
X170501744Y-77960107D01*
X170499340Y-77903608D01*
X170497431Y-77836409D01*
X170495962Y-77757322D01*
X170494876Y-77665160D01*
X170494118Y-77558734D01*
X170493630Y-77436857D01*
X170493358Y-77298341D01*
X170493243Y-77141999D01*
X170493231Y-76966642D01*
X170493265Y-76771082D01*
X170493289Y-76554133D01*
X170493280Y-76431513D01*
X170493243Y-76226447D01*
X170493227Y-76042116D01*
X170493288Y-75877334D01*
X170493484Y-75730916D01*
X170493870Y-75601674D01*
X170494505Y-75488422D01*
X170495444Y-75389975D01*
X170496745Y-75305144D01*
X170498464Y-75232744D01*
X170500659Y-75171589D01*
X170503385Y-75120492D01*
X170506701Y-75078267D01*
X170510662Y-75043727D01*
X170515325Y-75015686D01*
X170520747Y-74992958D01*
X170526986Y-74974356D01*
X170534097Y-74958693D01*
X170542138Y-74944784D01*
X170551166Y-74931441D01*
X170561236Y-74917479D01*
X170572407Y-74901711D01*
X170612197Y-74843867D01*
X169552314Y-74843867D01*
X169590311Y-74906966D01*
X169604993Y-74932005D01*
X169619531Y-74959586D01*
X169631627Y-74987700D01*
X169641532Y-75018551D01*
X169649494Y-75054344D01*
X169655761Y-75097283D01*
X169660582Y-75149574D01*
X169664206Y-75213419D01*
X169666881Y-75291025D01*
X169668857Y-75384594D01*
X169670382Y-75496333D01*
X169671704Y-75628445D01*
X169672613Y-75748434D01*
X169673020Y-75865063D01*
X169672767Y-75960531D01*
X169671857Y-76034556D01*
X169670293Y-76086855D01*
X169668079Y-76117149D01*
X169665220Y-76125156D01*
X169662161Y-76121858D01*
X169644006Y-76100408D01*
X169614275Y-76063889D01*
X169574639Y-76014442D01*
X169526771Y-75954207D01*
X169472343Y-75885327D01*
X169413027Y-75809943D01*
X169350495Y-75730196D01*
X169286421Y-75648228D01*
X169222475Y-75566180D01*
X169160331Y-75486194D01*
X169101661Y-75410411D01*
X169048137Y-75340973D01*
X169001430Y-75280021D01*
X168963214Y-75229696D01*
X168935161Y-75192140D01*
X168918943Y-75169495D01*
X168873635Y-75097212D01*
X168833661Y-75017463D01*
X168812130Y-74949188D01*
X168808827Y-74891844D01*
X168814116Y-74843867D01*
X167682356Y-74844117D01*
X167721867Y-74874722D01*
X167731248Y-74882089D01*
X167794183Y-74936438D01*
X167862997Y-75004259D01*
X167939596Y-75087516D01*
X168025888Y-75188178D01*
X168043052Y-75208847D01*
X168083833Y-75258409D01*
X168133588Y-75319326D01*
X168190955Y-75389898D01*
X168254569Y-75468424D01*
X168323069Y-75553204D01*
X168395090Y-75642537D01*
X168469270Y-75734722D01*
X168484517Y-75753702D01*
X168544246Y-75828060D01*
X168618653Y-75920848D01*
X168691131Y-76011388D01*
X168760314Y-76097978D01*
X168824841Y-76178918D01*
X168883347Y-76252506D01*
X168934470Y-76317044D01*
X168976847Y-76370829D01*
X169009115Y-76412162D01*
X169029910Y-76439342D01*
X169037869Y-76450668D01*
X169036111Y-76454771D01*
X169023230Y-76475334D01*
X168998885Y-76511561D01*
X168964247Y-76561824D01*
X168920486Y-76624492D01*
X168868775Y-76697936D01*
X168810284Y-76780527D01*
X168746184Y-76870636D01*
X168677646Y-76966631D01*
X168605843Y-77066885D01*
X168531944Y-77169768D01*
X168457121Y-77273650D01*
X168382545Y-77376901D01*
X168309387Y-77477892D01*
X168238819Y-77574994D01*
X168172011Y-77666577D01*
X168110135Y-77751011D01*
X168054361Y-77826667D01*
X168005862Y-77891916D01*
X167965807Y-77945128D01*
X167935369Y-77984673D01*
X167914944Y-78010026D01*
X167868899Y-78064295D01*
X167818612Y-78120775D01*
X167771815Y-78170669D01*
X167680651Y-78264400D01*
X166982445Y-78264400D01*
X167051356Y-78264349D01*
X167149607Y-78264091D01*
X167239030Y-78263637D01*
X167317333Y-78263010D01*
X167382223Y-78262235D01*
X167431411Y-78261335D01*
X167462604Y-78260334D01*
X167473511Y-78259257D01*
X167472322Y-78256037D01*
X167462176Y-78238452D01*
X167445040Y-78212158D01*
X167436540Y-78199691D01*
X167427329Y-78185622D01*
X167419233Y-78171351D01*
X167412185Y-78155479D01*
X167406117Y-78136609D01*
X167400961Y-78113341D01*
X167396651Y-78084278D01*
X167393119Y-78048021D01*
X167390297Y-78003170D01*
X167388118Y-77948328D01*
X167386514Y-77882097D01*
X167385419Y-77803077D01*
X167384765Y-77709871D01*
X167384484Y-77601079D01*
X167384509Y-77475303D01*
X167384772Y-77331145D01*
X167385206Y-77167207D01*
X167385745Y-76982089D01*
X167386279Y-76803232D01*
X167386805Y-76644374D01*
X167387350Y-76505316D01*
X167387945Y-76384665D01*
X167388619Y-76281028D01*
X167389403Y-76193011D01*
X167390326Y-76119223D01*
X167391419Y-76058269D01*
X167392712Y-76008757D01*
X167394235Y-75969293D01*
X167396019Y-75938484D01*
X167398092Y-75914938D01*
X167400486Y-75897260D01*
X167403230Y-75884059D01*
X167406356Y-75873940D01*
X167409892Y-75865511D01*
X167413791Y-75857375D01*
X167433438Y-75820544D01*
X167452225Y-75790391D01*
X167453272Y-75788908D01*
X167467602Y-75766659D01*
X167473511Y-75753702D01*
X167472504Y-75753249D01*
X167455305Y-75751803D01*
X167418656Y-75750480D01*
X167364962Y-75749316D01*
X167296630Y-75748347D01*
X167216064Y-75747611D01*
X167125670Y-75747142D01*
X167027853Y-75746978D01*
X166582195Y-75746978D01*
X166579120Y-76923845D01*
X166576045Y-78100711D01*
X166549407Y-78159622D01*
X166537485Y-78184183D01*
X166520246Y-78214434D01*
X166507074Y-78231560D01*
X166499076Y-78239591D01*
X166491378Y-78254493D01*
X166199942Y-78254493D01*
X166199474Y-78162029D01*
X166199050Y-78046617D01*
X166198706Y-77916160D01*
X166198434Y-77769716D01*
X166198227Y-77606344D01*
X166198076Y-77425101D01*
X166197972Y-77225048D01*
X166197908Y-77005241D01*
X166197876Y-76764739D01*
X166197867Y-76502602D01*
X166197867Y-74311031D01*
X166236249Y-74272649D01*
X166263355Y-74248911D01*
X166290253Y-74237111D01*
X166326560Y-74234267D01*
X166378489Y-74234267D01*
X166378489Y-74322206D01*
X166380427Y-74372102D01*
X166399199Y-74482523D01*
X166436217Y-74583987D01*
X166489369Y-74675152D01*
X166556546Y-74754673D01*
X166635638Y-74821205D01*
X166724534Y-74873406D01*
X166821125Y-74909930D01*
X166923300Y-74929434D01*
X167028950Y-74930573D01*
X167135964Y-74912005D01*
X167242232Y-74872384D01*
X167339219Y-74814516D01*
X167424293Y-74739684D01*
X167493015Y-74651615D01*
X167543918Y-74552616D01*
X167575535Y-74444993D01*
X167586400Y-74331054D01*
X167586400Y-74234267D01*
X169206753Y-74234267D01*
X169417897Y-74234280D01*
X169622020Y-74234330D01*
X169805686Y-74234430D01*
X169969991Y-74234592D01*
X170116029Y-74234829D01*
X170244894Y-74235153D01*
X170357683Y-74235575D01*
X170455488Y-74236109D01*
X170539404Y-74236767D01*
X170610527Y-74237561D01*
X170669950Y-74238504D01*
X170718768Y-74239608D01*
X170758077Y-74240884D01*
X170788969Y-74242347D01*
X170812541Y-74244007D01*
X170829886Y-74245878D01*
X170842099Y-74247972D01*
X170850275Y-74250300D01*
X170855508Y-74252876D01*
X170861504Y-74256445D01*
X170868279Y-74259978D01*
X170874478Y-74263488D01*
X170880126Y-74267918D01*
X170885247Y-74274208D01*
X170889869Y-74283301D01*
X170894015Y-74296139D01*
X170897713Y-74313662D01*
X170900987Y-74336813D01*
X170903863Y-74366534D01*
X170906367Y-74403765D01*
X170908524Y-74449449D01*
X170910360Y-74504527D01*
X170911900Y-74569941D01*
X170913170Y-74646633D01*
X170914195Y-74735544D01*
X170915001Y-74837617D01*
X170915034Y-74843867D01*
X170915614Y-74953792D01*
X170916059Y-75085011D01*
X163621691Y-79111275D02*
X163492712Y-79115636D01*
X163492712Y-79115636D02*
X163383009Y-79128861D01*
X163383009Y-79128861D02*
X163290774Y-79151741D01*
X163290774Y-79151741D02*
X163214198Y-79185070D01*
X163214198Y-79185070D02*
X163151473Y-79229638D01*
X163151473Y-79229638D02*
X163100788Y-79286236D01*
X163100788Y-79286236D02*
X163060337Y-79355658D01*
X163060337Y-79355658D02*
X163059541Y-79357351D01*
X163059541Y-79357351D02*
X163035399Y-79419483D01*
X163035399Y-79419483D02*
X163026797Y-79474509D01*
X163026797Y-79474509D02*
X163033769Y-79529887D01*
X163033769Y-79529887D02*
X163056346Y-79593073D01*
X163056346Y-79593073D02*
X163060628Y-79602689D01*
X163060628Y-79602689D02*
X163089828Y-79658966D01*
X163089828Y-79658966D02*
X163122644Y-79702451D01*
X163122644Y-79702451D02*
X163164998Y-79739417D01*
X163164998Y-79739417D02*
X163222810Y-79776135D01*
X163222810Y-79776135D02*
X163226169Y-79778052D01*
X163226169Y-79778052D02*
X163276496Y-79802227D01*
X163276496Y-79802227D02*
X163333379Y-79820282D01*
X163333379Y-79820282D02*
X163400473Y-79832839D01*
X163400473Y-79832839D02*
X163481435Y-79840522D01*
X163481435Y-79840522D02*
X163579918Y-79843953D01*
X163579918Y-79843953D02*
X163614714Y-79844251D01*
X163614714Y-79844251D02*
X163780406Y-79844845D01*
X163780406Y-79844845D02*
X163803803Y-79815100D01*
X163803803Y-79815100D02*
X163810743Y-79805319D01*
X163810743Y-79805319D02*
X163816158Y-79793897D01*
X163816158Y-79793897D02*
X163820235Y-79778095D01*
X163820235Y-79778095D02*
X163823163Y-79755175D01*
X163823163Y-79755175D02*
X163825133Y-79722396D01*
X163825133Y-79722396D02*
X163825775Y-79698089D01*
X163825775Y-79698089D02*
X163669156Y-79698089D01*
X163669156Y-79698089D02*
X163575274Y-79698089D01*
X163575274Y-79698089D02*
X163520336Y-79696483D01*
X163520336Y-79696483D02*
X163463940Y-79692255D01*
X163463940Y-79692255D02*
X163417655Y-79686292D01*
X163417655Y-79686292D02*
X163414861Y-79685790D01*
X163414861Y-79685790D02*
X163332652Y-79663736D01*
X163332652Y-79663736D02*
X163268886Y-79630600D01*
X163268886Y-79630600D02*
X163221548Y-79584847D01*
X163221548Y-79584847D02*
X163188618Y-79524939D01*
X163188618Y-79524939D02*
X163182892Y-79509061D01*
X163182892Y-79509061D02*
X163177279Y-79484333D01*
X163177279Y-79484333D02*
X163179709Y-79459902D01*
X163179709Y-79459902D02*
X163191533Y-79427400D01*
X163191533Y-79427400D02*
X163198660Y-79411434D01*
X163198660Y-79411434D02*
X163222000Y-79369006D01*
X163222000Y-79369006D02*
X163250120Y-79339240D01*
X163250120Y-79339240D02*
X163281060Y-79318511D01*
X163281060Y-79318511D02*
X163343034Y-79291537D01*
X163343034Y-79291537D02*
X163422349Y-79271998D01*
X163422349Y-79271998D02*
X163514747Y-79260746D01*
X163514747Y-79260746D02*
X163581667Y-79258270D01*
X163581667Y-79258270D02*
X163669156Y-79257822D01*
X163669156Y-79257822D02*
X163669156Y-79698089D01*
X163669156Y-79698089D02*
X163825775Y-79698089D01*
X163825775Y-79698089D02*
X163826332Y-79677021D01*
X163826332Y-79677021D02*
X163826950Y-79616311D01*
X163826950Y-79616311D02*
X163827175Y-79537526D01*
X163827175Y-79537526D02*
X163827200Y-79475920D01*
X163827200Y-79475920D02*
X163827200Y-79166485D01*
X163827200Y-79166485D02*
X163799491Y-79138776D01*
X163799491Y-79138776D02*
X163787194Y-79127544D01*
X163787194Y-79127544D02*
X163773897Y-79119853D01*
X163773897Y-79119853D02*
X163755328Y-79115040D01*
X163755328Y-79115040D02*
X163727214Y-79112446D01*
X163727214Y-79112446D02*
X163685283Y-79111410D01*
X163685283Y-79111410D02*
X163625263Y-79111270D01*
X163625263Y-79111270D02*
X163621691Y-79111275D01*
X163621691Y-79111275D02*
X163621691Y-79111275D01*
G36*
X163823163Y-79755175D02*
G01*
X163820235Y-79778095D01*
X163816158Y-79793897D01*
X163810743Y-79805319D01*
X163803803Y-79815100D01*
X163780406Y-79844845D01*
X163614714Y-79844251D01*
X163579918Y-79843953D01*
X163481435Y-79840522D01*
X163400473Y-79832839D01*
X163333379Y-79820282D01*
X163276496Y-79802227D01*
X163226169Y-79778052D01*
X163222810Y-79776135D01*
X163164998Y-79739417D01*
X163122644Y-79702451D01*
X163089828Y-79658966D01*
X163060628Y-79602689D01*
X163056346Y-79593073D01*
X163033769Y-79529887D01*
X163028034Y-79484333D01*
X163177279Y-79484333D01*
X163182892Y-79509061D01*
X163188618Y-79524939D01*
X163221548Y-79584847D01*
X163268886Y-79630600D01*
X163332652Y-79663736D01*
X163414861Y-79685790D01*
X163417655Y-79686292D01*
X163463940Y-79692255D01*
X163520336Y-79696483D01*
X163575274Y-79698089D01*
X163669156Y-79698089D01*
X163669156Y-79257822D01*
X163581667Y-79258270D01*
X163514747Y-79260746D01*
X163422349Y-79271998D01*
X163343034Y-79291537D01*
X163281060Y-79318511D01*
X163250120Y-79339240D01*
X163222000Y-79369006D01*
X163198660Y-79411434D01*
X163191533Y-79427400D01*
X163179709Y-79459902D01*
X163177279Y-79484333D01*
X163028034Y-79484333D01*
X163026797Y-79474509D01*
X163035399Y-79419483D01*
X163059541Y-79357351D01*
X163060337Y-79355658D01*
X163100788Y-79286236D01*
X163151473Y-79229638D01*
X163214198Y-79185070D01*
X163290774Y-79151741D01*
X163383009Y-79128861D01*
X163492712Y-79115636D01*
X163621691Y-79111275D01*
X163625263Y-79111270D01*
X163685283Y-79111410D01*
X163727214Y-79112446D01*
X163755328Y-79115040D01*
X163773897Y-79119853D01*
X163787194Y-79127544D01*
X163799491Y-79138776D01*
X163827200Y-79166485D01*
X163827200Y-79475920D01*
X163827175Y-79537526D01*
X163826950Y-79616311D01*
X163826332Y-79677021D01*
X163825775Y-79698089D01*
X163825133Y-79722396D01*
X163823163Y-79755175D01*
G37*
X163823163Y-79755175D02*
X163820235Y-79778095D01*
X163816158Y-79793897D01*
X163810743Y-79805319D01*
X163803803Y-79815100D01*
X163780406Y-79844845D01*
X163614714Y-79844251D01*
X163579918Y-79843953D01*
X163481435Y-79840522D01*
X163400473Y-79832839D01*
X163333379Y-79820282D01*
X163276496Y-79802227D01*
X163226169Y-79778052D01*
X163222810Y-79776135D01*
X163164998Y-79739417D01*
X163122644Y-79702451D01*
X163089828Y-79658966D01*
X163060628Y-79602689D01*
X163056346Y-79593073D01*
X163033769Y-79529887D01*
X163028034Y-79484333D01*
X163177279Y-79484333D01*
X163182892Y-79509061D01*
X163188618Y-79524939D01*
X163221548Y-79584847D01*
X163268886Y-79630600D01*
X163332652Y-79663736D01*
X163414861Y-79685790D01*
X163417655Y-79686292D01*
X163463940Y-79692255D01*
X163520336Y-79696483D01*
X163575274Y-79698089D01*
X163669156Y-79698089D01*
X163669156Y-79257822D01*
X163581667Y-79258270D01*
X163514747Y-79260746D01*
X163422349Y-79271998D01*
X163343034Y-79291537D01*
X163281060Y-79318511D01*
X163250120Y-79339240D01*
X163222000Y-79369006D01*
X163198660Y-79411434D01*
X163191533Y-79427400D01*
X163179709Y-79459902D01*
X163177279Y-79484333D01*
X163028034Y-79484333D01*
X163026797Y-79474509D01*
X163035399Y-79419483D01*
X163059541Y-79357351D01*
X163060337Y-79355658D01*
X163100788Y-79286236D01*
X163151473Y-79229638D01*
X163214198Y-79185070D01*
X163290774Y-79151741D01*
X163383009Y-79128861D01*
X163492712Y-79115636D01*
X163621691Y-79111275D01*
X163625263Y-79111270D01*
X163685283Y-79111410D01*
X163727214Y-79112446D01*
X163755328Y-79115040D01*
X163773897Y-79119853D01*
X163787194Y-79127544D01*
X163799491Y-79138776D01*
X163827200Y-79166485D01*
X163827200Y-79475920D01*
X163827175Y-79537526D01*
X163826950Y-79616311D01*
X163826332Y-79677021D01*
X163825775Y-79698089D01*
X163825133Y-79722396D01*
X163823163Y-79755175D01*
X161966426Y-75708552D02*
X161814508Y-75728567D01*
X161814508Y-75728567D02*
X161679244Y-75762202D01*
X161679244Y-75762202D02*
X161559761Y-75809725D01*
X161559761Y-75809725D02*
X161455185Y-75871405D01*
X161455185Y-75871405D02*
X161377576Y-75934965D01*
X161377576Y-75934965D02*
X161308735Y-76009099D01*
X161308735Y-76009099D02*
X161254994Y-76088871D01*
X161254994Y-76088871D02*
X161212090Y-76181091D01*
X161212090Y-76181091D02*
X161196616Y-76224161D01*
X161196616Y-76224161D02*
X161183756Y-76263142D01*
X161183756Y-76263142D02*
X161172554Y-76299289D01*
X161172554Y-76299289D02*
X161162880Y-76334434D01*
X161162880Y-76334434D02*
X161154604Y-76370410D01*
X161154604Y-76370410D02*
X161147597Y-76409050D01*
X161147597Y-76409050D02*
X161141728Y-76452185D01*
X161141728Y-76452185D02*
X161136869Y-76501649D01*
X161136869Y-76501649D02*
X161132890Y-76559273D01*
X161132890Y-76559273D02*
X161129660Y-76626891D01*
X161129660Y-76626891D02*
X161127051Y-76706334D01*
X161127051Y-76706334D02*
X161124933Y-76799436D01*
X161124933Y-76799436D02*
X161123176Y-76908027D01*
X161123176Y-76908027D02*
X161121651Y-77033942D01*
X161121651Y-77033942D02*
X161120228Y-77179012D01*
X161120228Y-77179012D02*
X161118975Y-77321778D01*
X161118975Y-77321778D02*
X161117649Y-77477968D01*
X161117649Y-77477968D02*
X161116444Y-77613239D01*
X161116444Y-77613239D02*
X161115234Y-77729246D01*
X161115234Y-77729246D02*
X161113894Y-77827645D01*
X161113894Y-77827645D02*
X161112300Y-77910093D01*
X161112300Y-77910093D02*
X161110325Y-77978246D01*
X161110325Y-77978246D02*
X161107844Y-78033760D01*
X161107844Y-78033760D02*
X161104731Y-78078292D01*
X161104731Y-78078292D02*
X161100862Y-78113498D01*
X161100862Y-78113498D02*
X161096111Y-78141034D01*
X161096111Y-78141034D02*
X161090352Y-78162556D01*
X161090352Y-78162556D02*
X161083461Y-78179722D01*
X161083461Y-78179722D02*
X161075311Y-78194186D01*
X161075311Y-78194186D02*
X161065777Y-78207606D01*
X161065777Y-78207606D02*
X161054734Y-78221638D01*
X161054734Y-78221638D02*
X161050434Y-78227071D01*
X161050434Y-78227071D02*
X161034614Y-78249910D01*
X161034614Y-78249910D02*
X161027578Y-78265463D01*
X161027578Y-78265463D02*
X161027556Y-78265922D01*
X161027556Y-78265922D02*
X161038433Y-78268121D01*
X161038433Y-78268121D02*
X161069418Y-78270147D01*
X161069418Y-78270147D02*
X161118043Y-78271942D01*
X161118043Y-78271942D02*
X161181837Y-78273451D01*
X161181837Y-78273451D02*
X161258331Y-78274616D01*
X161258331Y-78274616D02*
X161345056Y-78275380D01*
X161345056Y-78275380D02*
X161439543Y-78275686D01*
X161439543Y-78275686D02*
X161450450Y-78275689D01*
X161450450Y-78275689D02*
X161873343Y-78275689D01*
X161873343Y-78275689D02*
X161876605Y-78179622D01*
X161876605Y-78179622D02*
X161879867Y-78083556D01*
X161879867Y-78083556D02*
X161941956Y-78134543D01*
X161941956Y-78134543D02*
X162039286Y-78202057D01*
X162039286Y-78202057D02*
X162149187Y-78256749D01*
X162149187Y-78256749D02*
X162235651Y-78286978D01*
X162235651Y-78286978D02*
X162304722Y-78301666D01*
X162304722Y-78301666D02*
X162388075Y-78311659D01*
X162388075Y-78311659D02*
X162477841Y-78316646D01*
X162477841Y-78316646D02*
X162566155Y-78316313D01*
X162566155Y-78316313D02*
X162645149Y-78310351D01*
X162645149Y-78310351D02*
X162681378Y-78304638D01*
X162681378Y-78304638D02*
X162821397Y-78266776D01*
X162821397Y-78266776D02*
X162947822Y-78211932D01*
X162947822Y-78211932D02*
X163059740Y-78140924D01*
X163059740Y-78140924D02*
X163156238Y-78054568D01*
X163156238Y-78054568D02*
X163236400Y-77953679D01*
X163236400Y-77953679D02*
X163299313Y-77839076D01*
X163299313Y-77839076D02*
X163343688Y-77712984D01*
X163343688Y-77712984D02*
X163356022Y-77656401D01*
X163356022Y-77656401D02*
X163363632Y-77594202D01*
X163363632Y-77594202D02*
X163367261Y-77519363D01*
X163367261Y-77519363D02*
X163367755Y-77485467D01*
X163367755Y-77485467D02*
X163367690Y-77482282D01*
X163367690Y-77482282D02*
X162607752Y-77482282D01*
X162607752Y-77482282D02*
X162598459Y-77557333D01*
X162598459Y-77557333D02*
X162570272Y-77621160D01*
X162570272Y-77621160D02*
X162521803Y-77676798D01*
X162521803Y-77676798D02*
X162516746Y-77681211D01*
X162516746Y-77681211D02*
X162468452Y-77716037D01*
X162468452Y-77716037D02*
X162416743Y-77738620D01*
X162416743Y-77738620D02*
X162356011Y-77750540D01*
X162356011Y-77750540D02*
X162280648Y-77753383D01*
X162280648Y-77753383D02*
X162262541Y-77752978D01*
X162262541Y-77752978D02*
X162208722Y-77750325D01*
X162208722Y-77750325D02*
X162168692Y-77744909D01*
X162168692Y-77744909D02*
X162133676Y-77734745D01*
X162133676Y-77734745D02*
X162094897Y-77717850D01*
X162094897Y-77717850D02*
X162084255Y-77712672D01*
X162084255Y-77712672D02*
X162023604Y-77676844D01*
X162023604Y-77676844D02*
X161976785Y-77634212D01*
X161976785Y-77634212D02*
X161964048Y-77618973D01*
X161964048Y-77618973D02*
X161919378Y-77562462D01*
X161919378Y-77562462D02*
X161919378Y-77366586D01*
X161919378Y-77366586D02*
X161919914Y-77287939D01*
X161919914Y-77287939D02*
X161921604Y-77229988D01*
X161921604Y-77229988D02*
X161924572Y-77190875D01*
X161924572Y-77190875D02*
X161928943Y-77168741D01*
X161928943Y-77168741D02*
X161933028Y-77162274D01*
X161933028Y-77162274D02*
X161948953Y-77159111D01*
X161948953Y-77159111D02*
X161982736Y-77156488D01*
X161982736Y-77156488D02*
X162029660Y-77154655D01*
X162029660Y-77154655D02*
X162085007Y-77153857D01*
X162085007Y-77153857D02*
X162093894Y-77153842D01*
X162093894Y-77153842D02*
X162214670Y-77159096D01*
X162214670Y-77159096D02*
X162317340Y-77175263D01*
X162317340Y-77175263D02*
X162403894Y-77202961D01*
X162403894Y-77202961D02*
X162476319Y-77242808D01*
X162476319Y-77242808D02*
X162531249Y-77289758D01*
X162531249Y-77289758D02*
X162575796Y-77347645D01*
X162575796Y-77347645D02*
X162600520Y-77410693D01*
X162600520Y-77410693D02*
X162607752Y-77482282D01*
X162607752Y-77482282D02*
X163367690Y-77482282D01*
X163367690Y-77482282D02*
X163365822Y-77391712D01*
X163365822Y-77391712D02*
X163357478Y-77312812D01*
X163357478Y-77312812D02*
X163341232Y-77241590D01*
X163341232Y-77241590D02*
X163315595Y-77170864D01*
X163315595Y-77170864D02*
X163291599Y-77118493D01*
X163291599Y-77118493D02*
X163232980Y-77023196D01*
X163232980Y-77023196D02*
X163154883Y-76935170D01*
X163154883Y-76935170D02*
X163059685Y-76856017D01*
X163059685Y-76856017D02*
X162949762Y-76787340D01*
X162949762Y-76787340D02*
X162827490Y-76730741D01*
X162827490Y-76730741D02*
X162695245Y-76687821D01*
X162695245Y-76687821D02*
X162630578Y-76672882D01*
X162630578Y-76672882D02*
X162494396Y-76650777D01*
X162494396Y-76650777D02*
X162345951Y-76636194D01*
X162345951Y-76636194D02*
X162194495Y-76629813D01*
X162194495Y-76629813D02*
X162067936Y-76631445D01*
X162067936Y-76631445D02*
X161906050Y-76638224D01*
X161906050Y-76638224D02*
X161913470Y-76579245D01*
X161913470Y-76579245D02*
X161932762Y-76480092D01*
X161932762Y-76480092D02*
X161963896Y-76399372D01*
X161963896Y-76399372D02*
X162007731Y-76336466D01*
X162007731Y-76336466D02*
X162065129Y-76290756D01*
X162065129Y-76290756D02*
X162136952Y-76261622D01*
X162136952Y-76261622D02*
X162224059Y-76248447D01*
X162224059Y-76248447D02*
X162327314Y-76250611D01*
X162327314Y-76250611D02*
X162365289Y-76254612D01*
X162365289Y-76254612D02*
X162506480Y-76279780D01*
X162506480Y-76279780D02*
X162643293Y-76320814D01*
X162643293Y-76320814D02*
X162737822Y-76358815D01*
X162737822Y-76358815D02*
X162782982Y-76378190D01*
X162782982Y-76378190D02*
X162821415Y-76393760D01*
X162821415Y-76393760D02*
X162847766Y-76403405D01*
X162847766Y-76403405D02*
X162855454Y-76405452D01*
X162855454Y-76405452D02*
X162865198Y-76396374D01*
X162865198Y-76396374D02*
X162881917Y-76367405D01*
X162881917Y-76367405D02*
X162905768Y-76318217D01*
X162905768Y-76318217D02*
X162936907Y-76248484D01*
X162936907Y-76248484D02*
X162975493Y-76157879D01*
X162975493Y-76157879D02*
X162982090Y-76142089D01*
X162982090Y-76142089D02*
X163012147Y-76069772D01*
X163012147Y-76069772D02*
X163039126Y-76004425D01*
X163039126Y-76004425D02*
X163061864Y-75948906D01*
X163061864Y-75948906D02*
X163079194Y-75906072D01*
X163079194Y-75906072D02*
X163089952Y-75878781D01*
X163089952Y-75878781D02*
X163093059Y-75869942D01*
X163093059Y-75869942D02*
X163083060Y-75865187D01*
X163083060Y-75865187D02*
X163056783Y-75859910D01*
X163056783Y-75859910D02*
X163028511Y-75856231D01*
X163028511Y-75856231D02*
X162998354Y-75851474D01*
X162998354Y-75851474D02*
X162950567Y-75842028D01*
X162950567Y-75842028D02*
X162889388Y-75828820D01*
X162889388Y-75828820D02*
X162819054Y-75812776D01*
X162819054Y-75812776D02*
X162743806Y-75794820D01*
X162743806Y-75794820D02*
X162715245Y-75787797D01*
X162715245Y-75787797D02*
X162610184Y-75762209D01*
X162610184Y-75762209D02*
X162522520Y-75742147D01*
X162522520Y-75742147D02*
X162447932Y-75726969D01*
X162447932Y-75726969D02*
X162382097Y-75716035D01*
X162382097Y-75716035D02*
X162320693Y-75708704D01*
X162320693Y-75708704D02*
X162259398Y-75704335D01*
X162259398Y-75704335D02*
X162193890Y-75702287D01*
X162193890Y-75702287D02*
X162135872Y-75701889D01*
X162135872Y-75701889D02*
X161966426Y-75708552D01*
X161966426Y-75708552D02*
X161966426Y-75708552D01*
G36*
X163367261Y-77519363D02*
G01*
X163363632Y-77594202D01*
X163356022Y-77656401D01*
X163343688Y-77712984D01*
X163299313Y-77839076D01*
X163236400Y-77953679D01*
X163156238Y-78054568D01*
X163059740Y-78140924D01*
X162947822Y-78211932D01*
X162821397Y-78266776D01*
X162681378Y-78304638D01*
X162645149Y-78310351D01*
X162566155Y-78316313D01*
X162477841Y-78316646D01*
X162388075Y-78311659D01*
X162304722Y-78301666D01*
X162235651Y-78286978D01*
X162149187Y-78256749D01*
X162039286Y-78202057D01*
X161941956Y-78134543D01*
X161879867Y-78083556D01*
X161876605Y-78179622D01*
X161873343Y-78275689D01*
X161450450Y-78275689D01*
X161439543Y-78275686D01*
X161345056Y-78275380D01*
X161258331Y-78274616D01*
X161181837Y-78273451D01*
X161118043Y-78271942D01*
X161069418Y-78270147D01*
X161038433Y-78268121D01*
X161027556Y-78265922D01*
X161027578Y-78265463D01*
X161034614Y-78249910D01*
X161050434Y-78227071D01*
X161054734Y-78221638D01*
X161065777Y-78207606D01*
X161075311Y-78194186D01*
X161083461Y-78179722D01*
X161090352Y-78162556D01*
X161096111Y-78141034D01*
X161100862Y-78113498D01*
X161104731Y-78078292D01*
X161107844Y-78033760D01*
X161110325Y-77978246D01*
X161112300Y-77910093D01*
X161113894Y-77827645D01*
X161115234Y-77729246D01*
X161116444Y-77613239D01*
X161116896Y-77562462D01*
X161919378Y-77562462D01*
X161964048Y-77618973D01*
X161976785Y-77634212D01*
X162023604Y-77676844D01*
X162084255Y-77712672D01*
X162094897Y-77717850D01*
X162133676Y-77734745D01*
X162168692Y-77744909D01*
X162208722Y-77750325D01*
X162262541Y-77752978D01*
X162280648Y-77753383D01*
X162356011Y-77750540D01*
X162416743Y-77738620D01*
X162468452Y-77716037D01*
X162516746Y-77681211D01*
X162521803Y-77676798D01*
X162570272Y-77621160D01*
X162598459Y-77557333D01*
X162607752Y-77482282D01*
X162600520Y-77410693D01*
X162575796Y-77347645D01*
X162531249Y-77289758D01*
X162476319Y-77242808D01*
X162403894Y-77202961D01*
X162317340Y-77175263D01*
X162214670Y-77159096D01*
X162093894Y-77153842D01*
X162085007Y-77153857D01*
X162029660Y-77154655D01*
X161982736Y-77156488D01*
X161948953Y-77159111D01*
X161933028Y-77162274D01*
X161928943Y-77168741D01*
X161924572Y-77190875D01*
X161921604Y-77229988D01*
X161919914Y-77287939D01*
X161919378Y-77366586D01*
X161919378Y-77562462D01*
X161116896Y-77562462D01*
X161117649Y-77477968D01*
X161118975Y-77321778D01*
X161120228Y-77179012D01*
X161121651Y-77033942D01*
X161123176Y-76908027D01*
X161124933Y-76799436D01*
X161127051Y-76706334D01*
X161129660Y-76626891D01*
X161132890Y-76559273D01*
X161136869Y-76501649D01*
X161141728Y-76452185D01*
X161147597Y-76409050D01*
X161154604Y-76370410D01*
X161162880Y-76334434D01*
X161172554Y-76299289D01*
X161183756Y-76263142D01*
X161196616Y-76224161D01*
X161212090Y-76181091D01*
X161254994Y-76088871D01*
X161308735Y-76009099D01*
X161377576Y-75934965D01*
X161455185Y-75871405D01*
X161559761Y-75809725D01*
X161679244Y-75762202D01*
X161814508Y-75728567D01*
X161966426Y-75708552D01*
X162135872Y-75701889D01*
X162193890Y-75702287D01*
X162259398Y-75704335D01*
X162320693Y-75708704D01*
X162382097Y-75716035D01*
X162447932Y-75726969D01*
X162522520Y-75742147D01*
X162610184Y-75762209D01*
X162715245Y-75787797D01*
X162743806Y-75794820D01*
X162819054Y-75812776D01*
X162889388Y-75828820D01*
X162950567Y-75842028D01*
X162998354Y-75851474D01*
X163028511Y-75856231D01*
X163056783Y-75859910D01*
X163083060Y-75865187D01*
X163093059Y-75869942D01*
X163089952Y-75878781D01*
X163079194Y-75906072D01*
X163061864Y-75948906D01*
X163039126Y-76004425D01*
X163012147Y-76069772D01*
X162982090Y-76142089D01*
X162975493Y-76157879D01*
X162936907Y-76248484D01*
X162905768Y-76318217D01*
X162881917Y-76367405D01*
X162865198Y-76396374D01*
X162855454Y-76405452D01*
X162847766Y-76403405D01*
X162821415Y-76393760D01*
X162782982Y-76378190D01*
X162737822Y-76358815D01*
X162643293Y-76320814D01*
X162506480Y-76279780D01*
X162365289Y-76254612D01*
X162327314Y-76250611D01*
X162224059Y-76248447D01*
X162136952Y-76261622D01*
X162065129Y-76290756D01*
X162007731Y-76336466D01*
X161963896Y-76399372D01*
X161932762Y-76480092D01*
X161913470Y-76579245D01*
X161906050Y-76638224D01*
X162067936Y-76631445D01*
X162194495Y-76629813D01*
X162345951Y-76636194D01*
X162494396Y-76650777D01*
X162630578Y-76672882D01*
X162695245Y-76687821D01*
X162827490Y-76730741D01*
X162949762Y-76787340D01*
X163059685Y-76856017D01*
X163154883Y-76935170D01*
X163232980Y-77023196D01*
X163291599Y-77118493D01*
X163315595Y-77170864D01*
X163341232Y-77241590D01*
X163357478Y-77312812D01*
X163365822Y-77391712D01*
X163367690Y-77482282D01*
X163367755Y-77485467D01*
X163367261Y-77519363D01*
G37*
X163367261Y-77519363D02*
X163363632Y-77594202D01*
X163356022Y-77656401D01*
X163343688Y-77712984D01*
X163299313Y-77839076D01*
X163236400Y-77953679D01*
X163156238Y-78054568D01*
X163059740Y-78140924D01*
X162947822Y-78211932D01*
X162821397Y-78266776D01*
X162681378Y-78304638D01*
X162645149Y-78310351D01*
X162566155Y-78316313D01*
X162477841Y-78316646D01*
X162388075Y-78311659D01*
X162304722Y-78301666D01*
X162235651Y-78286978D01*
X162149187Y-78256749D01*
X162039286Y-78202057D01*
X161941956Y-78134543D01*
X161879867Y-78083556D01*
X161876605Y-78179622D01*
X161873343Y-78275689D01*
X161450450Y-78275689D01*
X161439543Y-78275686D01*
X161345056Y-78275380D01*
X161258331Y-78274616D01*
X161181837Y-78273451D01*
X161118043Y-78271942D01*
X161069418Y-78270147D01*
X161038433Y-78268121D01*
X161027556Y-78265922D01*
X161027578Y-78265463D01*
X161034614Y-78249910D01*
X161050434Y-78227071D01*
X161054734Y-78221638D01*
X161065777Y-78207606D01*
X161075311Y-78194186D01*
X161083461Y-78179722D01*
X161090352Y-78162556D01*
X161096111Y-78141034D01*
X161100862Y-78113498D01*
X161104731Y-78078292D01*
X161107844Y-78033760D01*
X161110325Y-77978246D01*
X161112300Y-77910093D01*
X161113894Y-77827645D01*
X161115234Y-77729246D01*
X161116444Y-77613239D01*
X161116896Y-77562462D01*
X161919378Y-77562462D01*
X161964048Y-77618973D01*
X161976785Y-77634212D01*
X162023604Y-77676844D01*
X162084255Y-77712672D01*
X162094897Y-77717850D01*
X162133676Y-77734745D01*
X162168692Y-77744909D01*
X162208722Y-77750325D01*
X162262541Y-77752978D01*
X162280648Y-77753383D01*
X162356011Y-77750540D01*
X162416743Y-77738620D01*
X162468452Y-77716037D01*
X162516746Y-77681211D01*
X162521803Y-77676798D01*
X162570272Y-77621160D01*
X162598459Y-77557333D01*
X162607752Y-77482282D01*
X162600520Y-77410693D01*
X162575796Y-77347645D01*
X162531249Y-77289758D01*
X162476319Y-77242808D01*
X162403894Y-77202961D01*
X162317340Y-77175263D01*
X162214670Y-77159096D01*
X162093894Y-77153842D01*
X162085007Y-77153857D01*
X162029660Y-77154655D01*
X161982736Y-77156488D01*
X161948953Y-77159111D01*
X161933028Y-77162274D01*
X161928943Y-77168741D01*
X161924572Y-77190875D01*
X161921604Y-77229988D01*
X161919914Y-77287939D01*
X161919378Y-77366586D01*
X161919378Y-77562462D01*
X161116896Y-77562462D01*
X161117649Y-77477968D01*
X161118975Y-77321778D01*
X161120228Y-77179012D01*
X161121651Y-77033942D01*
X161123176Y-76908027D01*
X161124933Y-76799436D01*
X161127051Y-76706334D01*
X161129660Y-76626891D01*
X161132890Y-76559273D01*
X161136869Y-76501649D01*
X161141728Y-76452185D01*
X161147597Y-76409050D01*
X161154604Y-76370410D01*
X161162880Y-76334434D01*
X161172554Y-76299289D01*
X161183756Y-76263142D01*
X161196616Y-76224161D01*
X161212090Y-76181091D01*
X161254994Y-76088871D01*
X161308735Y-76009099D01*
X161377576Y-75934965D01*
X161455185Y-75871405D01*
X161559761Y-75809725D01*
X161679244Y-75762202D01*
X161814508Y-75728567D01*
X161966426Y-75708552D01*
X162135872Y-75701889D01*
X162193890Y-75702287D01*
X162259398Y-75704335D01*
X162320693Y-75708704D01*
X162382097Y-75716035D01*
X162447932Y-75726969D01*
X162522520Y-75742147D01*
X162610184Y-75762209D01*
X162715245Y-75787797D01*
X162743806Y-75794820D01*
X162819054Y-75812776D01*
X162889388Y-75828820D01*
X162950567Y-75842028D01*
X162998354Y-75851474D01*
X163028511Y-75856231D01*
X163056783Y-75859910D01*
X163083060Y-75865187D01*
X163093059Y-75869942D01*
X163089952Y-75878781D01*
X163079194Y-75906072D01*
X163061864Y-75948906D01*
X163039126Y-76004425D01*
X163012147Y-76069772D01*
X162982090Y-76142089D01*
X162975493Y-76157879D01*
X162936907Y-76248484D01*
X162905768Y-76318217D01*
X162881917Y-76367405D01*
X162865198Y-76396374D01*
X162855454Y-76405452D01*
X162847766Y-76403405D01*
X162821415Y-76393760D01*
X162782982Y-76378190D01*
X162737822Y-76358815D01*
X162643293Y-76320814D01*
X162506480Y-76279780D01*
X162365289Y-76254612D01*
X162327314Y-76250611D01*
X162224059Y-76248447D01*
X162136952Y-76261622D01*
X162065129Y-76290756D01*
X162007731Y-76336466D01*
X161963896Y-76399372D01*
X161932762Y-76480092D01*
X161913470Y-76579245D01*
X161906050Y-76638224D01*
X162067936Y-76631445D01*
X162194495Y-76629813D01*
X162345951Y-76636194D01*
X162494396Y-76650777D01*
X162630578Y-76672882D01*
X162695245Y-76687821D01*
X162827490Y-76730741D01*
X162949762Y-76787340D01*
X163059685Y-76856017D01*
X163154883Y-76935170D01*
X163232980Y-77023196D01*
X163291599Y-77118493D01*
X163315595Y-77170864D01*
X163341232Y-77241590D01*
X163357478Y-77312812D01*
X163365822Y-77391712D01*
X163367690Y-77482282D01*
X163367755Y-77485467D01*
X163367261Y-77519363D01*
X164311571Y-74791071D02*
X164151430Y-74812245D01*
X164151430Y-74812245D02*
X163987490Y-74852385D01*
X163987490Y-74852385D02*
X163817687Y-74911889D01*
X163817687Y-74911889D02*
X163639957Y-74991154D01*
X163639957Y-74991154D02*
X163628690Y-74996699D01*
X163628690Y-74996699D02*
X163570995Y-75024725D01*
X163570995Y-75024725D02*
X163519448Y-75048802D01*
X163519448Y-75048802D02*
X163477809Y-75067249D01*
X163477809Y-75067249D02*
X163449838Y-75078386D01*
X163449838Y-75078386D02*
X163440267Y-75080933D01*
X163440267Y-75080933D02*
X163421050Y-75085941D01*
X163421050Y-75085941D02*
X163416439Y-75090147D01*
X163416439Y-75090147D02*
X163421542Y-75100580D01*
X163421542Y-75100580D02*
X163437582Y-75126868D01*
X163437582Y-75126868D02*
X163462712Y-75166257D01*
X163462712Y-75166257D02*
X163495086Y-75215991D01*
X163495086Y-75215991D02*
X163532857Y-75273315D01*
X163532857Y-75273315D02*
X163574178Y-75335476D01*
X163574178Y-75335476D02*
X163617202Y-75399718D01*
X163617202Y-75399718D02*
X163660083Y-75463285D01*
X163660083Y-75463285D02*
X163700974Y-75523425D01*
X163700974Y-75523425D02*
X163738029Y-75577380D01*
X163738029Y-75577380D02*
X163769400Y-75622397D01*
X163769400Y-75622397D02*
X163793241Y-75655721D01*
X163793241Y-75655721D02*
X163807706Y-75674597D01*
X163807706Y-75674597D02*
X163809691Y-75676787D01*
X163809691Y-75676787D02*
X163819809Y-75672138D01*
X163819809Y-75672138D02*
X163842150Y-75654962D01*
X163842150Y-75654962D02*
X163872720Y-75628440D01*
X163872720Y-75628440D02*
X163888464Y-75613964D01*
X163888464Y-75613964D02*
X163984953Y-75538682D01*
X163984953Y-75538682D02*
X164091664Y-75483241D01*
X164091664Y-75483241D02*
X164207168Y-75448141D01*
X164207168Y-75448141D02*
X164330038Y-75433880D01*
X164330038Y-75433880D02*
X164399439Y-75435051D01*
X164399439Y-75435051D02*
X164520577Y-75452212D01*
X164520577Y-75452212D02*
X164629795Y-75488094D01*
X164629795Y-75488094D02*
X164727418Y-75542959D01*
X164727418Y-75542959D02*
X164813772Y-75617070D01*
X164813772Y-75617070D02*
X164889185Y-75710688D01*
X164889185Y-75710688D02*
X164953982Y-75824076D01*
X164953982Y-75824076D02*
X164991399Y-75910667D01*
X164991399Y-75910667D02*
X165035252Y-76046366D01*
X165035252Y-76046366D02*
X165067572Y-76193850D01*
X165067572Y-76193850D02*
X165088443Y-76349314D01*
X165088443Y-76349314D02*
X165097949Y-76508956D01*
X165097949Y-76508956D02*
X165096173Y-76668973D01*
X165096173Y-76668973D02*
X165083197Y-76825561D01*
X165083197Y-76825561D02*
X165059106Y-76974918D01*
X165059106Y-76974918D02*
X165023982Y-77113240D01*
X165023982Y-77113240D02*
X164977908Y-77236724D01*
X164977908Y-77236724D02*
X164961627Y-77270978D01*
X164961627Y-77270978D02*
X164893380Y-77385064D01*
X164893380Y-77385064D02*
X164812921Y-77481557D01*
X164812921Y-77481557D02*
X164721430Y-77559670D01*
X164721430Y-77559670D02*
X164620089Y-77618617D01*
X164620089Y-77618617D02*
X164510080Y-77657612D01*
X164510080Y-77657612D02*
X164392585Y-77675868D01*
X164392585Y-77675868D02*
X164351117Y-77677211D01*
X164351117Y-77677211D02*
X164229559Y-77666290D01*
X164229559Y-77666290D02*
X164109122Y-77633474D01*
X164109122Y-77633474D02*
X163991334Y-77579439D01*
X163991334Y-77579439D02*
X163877723Y-77504865D01*
X163877723Y-77504865D02*
X163786315Y-77426539D01*
X163786315Y-77426539D02*
X163739785Y-77382008D01*
X163739785Y-77382008D02*
X163558517Y-77679271D01*
X163558517Y-77679271D02*
X163513420Y-77753433D01*
X163513420Y-77753433D02*
X163472181Y-77821646D01*
X163472181Y-77821646D02*
X163436265Y-77881459D01*
X163436265Y-77881459D02*
X163407134Y-77930420D01*
X163407134Y-77930420D02*
X163386250Y-77966079D01*
X163386250Y-77966079D02*
X163375076Y-77985984D01*
X163375076Y-77985984D02*
X163373625Y-77989079D01*
X163373625Y-77989079D02*
X163381854Y-77998718D01*
X163381854Y-77998718D02*
X163407433Y-78015999D01*
X163407433Y-78015999D02*
X163447127Y-78039283D01*
X163447127Y-78039283D02*
X163497703Y-78066934D01*
X163497703Y-78066934D02*
X163555926Y-78097315D01*
X163555926Y-78097315D02*
X163618563Y-78128790D01*
X163618563Y-78128790D02*
X163682379Y-78159722D01*
X163682379Y-78159722D02*
X163744140Y-78188473D01*
X163744140Y-78188473D02*
X163800612Y-78213408D01*
X163800612Y-78213408D02*
X163848562Y-78232889D01*
X163848562Y-78232889D02*
X163872014Y-78241318D01*
X163872014Y-78241318D02*
X164005779Y-78279133D01*
X164005779Y-78279133D02*
X164143673Y-78304136D01*
X164143673Y-78304136D02*
X164291378Y-78317140D01*
X164291378Y-78317140D02*
X164418167Y-78319468D01*
X164418167Y-78319468D02*
X164486122Y-78318373D01*
X164486122Y-78318373D02*
X164551723Y-78316275D01*
X164551723Y-78316275D02*
X164609153Y-78313434D01*
X164609153Y-78313434D02*
X164652597Y-78310106D01*
X164652597Y-78310106D02*
X164666702Y-78308422D01*
X164666702Y-78308422D02*
X164805716Y-78279587D01*
X164805716Y-78279587D02*
X164947243Y-78234468D01*
X164947243Y-78234468D02*
X165084725Y-78175750D01*
X165084725Y-78175750D02*
X165211606Y-78106120D01*
X165211606Y-78106120D02*
X165289111Y-78053441D01*
X165289111Y-78053441D02*
X165416519Y-77945239D01*
X165416519Y-77945239D02*
X165534822Y-77818671D01*
X165534822Y-77818671D02*
X165641828Y-77676866D01*
X165641828Y-77676866D02*
X165735348Y-77522951D01*
X165735348Y-77522951D02*
X165813190Y-77360053D01*
X165813190Y-77360053D02*
X165857044Y-77242756D01*
X165857044Y-77242756D02*
X165907292Y-77059128D01*
X165907292Y-77059128D02*
X165940791Y-76864581D01*
X165940791Y-76864581D02*
X165957551Y-76663325D01*
X165957551Y-76663325D02*
X165957584Y-76459568D01*
X165957584Y-76459568D02*
X165940899Y-76257521D01*
X165940899Y-76257521D02*
X165907507Y-76061392D01*
X165907507Y-76061392D02*
X165857420Y-75875391D01*
X165857420Y-75875391D02*
X165853603Y-75863803D01*
X165853603Y-75863803D02*
X165790719Y-75701750D01*
X165790719Y-75701750D02*
X165713972Y-75553832D01*
X165713972Y-75553832D02*
X165620758Y-75415865D01*
X165620758Y-75415865D02*
X165508473Y-75283661D01*
X165508473Y-75283661D02*
X165464608Y-75238399D01*
X165464608Y-75238399D02*
X165328466Y-75114457D01*
X165328466Y-75114457D02*
X165188509Y-75011915D01*
X165188509Y-75011915D02*
X165042589Y-74929656D01*
X165042589Y-74929656D02*
X164888558Y-74866564D01*
X164888558Y-74866564D02*
X164724268Y-74821523D01*
X164724268Y-74821523D02*
X164628711Y-74804033D01*
X164628711Y-74804033D02*
X164469977Y-74788466D01*
X164469977Y-74788466D02*
X164311571Y-74791071D01*
X164311571Y-74791071D02*
X164311571Y-74791071D01*
G36*
X164628711Y-74804033D02*
G01*
X164724268Y-74821523D01*
X164888558Y-74866564D01*
X165042589Y-74929656D01*
X165188509Y-75011915D01*
X165328466Y-75114457D01*
X165464608Y-75238399D01*
X165508473Y-75283661D01*
X165620758Y-75415865D01*
X165713972Y-75553832D01*
X165790719Y-75701750D01*
X165853603Y-75863803D01*
X165857420Y-75875391D01*
X165907507Y-76061392D01*
X165940899Y-76257521D01*
X165957584Y-76459568D01*
X165957551Y-76663325D01*
X165940791Y-76864581D01*
X165907292Y-77059128D01*
X165857044Y-77242756D01*
X165813190Y-77360053D01*
X165735348Y-77522951D01*
X165641828Y-77676866D01*
X165534822Y-77818671D01*
X165416519Y-77945239D01*
X165289111Y-78053441D01*
X165211606Y-78106120D01*
X165084725Y-78175750D01*
X164947243Y-78234468D01*
X164805716Y-78279587D01*
X164666702Y-78308422D01*
X164652597Y-78310106D01*
X164609153Y-78313434D01*
X164551723Y-78316275D01*
X164486122Y-78318373D01*
X164418167Y-78319468D01*
X164291378Y-78317140D01*
X164143673Y-78304136D01*
X164005779Y-78279133D01*
X163872014Y-78241318D01*
X163848562Y-78232889D01*
X163800612Y-78213408D01*
X163744140Y-78188473D01*
X163682379Y-78159722D01*
X163618563Y-78128790D01*
X163555926Y-78097315D01*
X163497703Y-78066934D01*
X163447127Y-78039283D01*
X163407433Y-78015999D01*
X163381854Y-77998718D01*
X163373625Y-77989079D01*
X163375076Y-77985984D01*
X163386250Y-77966079D01*
X163407134Y-77930420D01*
X163436265Y-77881459D01*
X163472181Y-77821646D01*
X163513420Y-77753433D01*
X163558517Y-77679271D01*
X163739785Y-77382008D01*
X163786315Y-77426539D01*
X163877723Y-77504865D01*
X163991334Y-77579439D01*
X164109122Y-77633474D01*
X164229559Y-77666290D01*
X164351117Y-77677211D01*
X164392585Y-77675868D01*
X164510080Y-77657612D01*
X164620089Y-77618617D01*
X164721430Y-77559670D01*
X164812921Y-77481557D01*
X164893380Y-77385064D01*
X164961627Y-77270978D01*
X164977908Y-77236724D01*
X165023982Y-77113240D01*
X165059106Y-76974918D01*
X165083197Y-76825561D01*
X165096173Y-76668973D01*
X165097949Y-76508956D01*
X165088443Y-76349314D01*
X165067572Y-76193850D01*
X165035252Y-76046366D01*
X164991399Y-75910667D01*
X164953982Y-75824076D01*
X164889185Y-75710688D01*
X164813772Y-75617070D01*
X164727418Y-75542959D01*
X164629795Y-75488094D01*
X164520577Y-75452212D01*
X164399439Y-75435051D01*
X164330038Y-75433880D01*
X164207168Y-75448141D01*
X164091664Y-75483241D01*
X163984953Y-75538682D01*
X163888464Y-75613964D01*
X163872720Y-75628440D01*
X163842150Y-75654962D01*
X163819809Y-75672138D01*
X163809691Y-75676787D01*
X163807706Y-75674597D01*
X163793241Y-75655721D01*
X163769400Y-75622397D01*
X163738029Y-75577380D01*
X163700974Y-75523425D01*
X163660083Y-75463285D01*
X163617202Y-75399718D01*
X163574178Y-75335476D01*
X163532857Y-75273315D01*
X163495086Y-75215991D01*
X163462712Y-75166257D01*
X163437582Y-75126868D01*
X163421542Y-75100580D01*
X163416439Y-75090147D01*
X163421050Y-75085941D01*
X163440267Y-75080933D01*
X163449838Y-75078386D01*
X163477809Y-75067249D01*
X163519448Y-75048802D01*
X163570995Y-75024725D01*
X163628690Y-74996699D01*
X163639957Y-74991154D01*
X163817687Y-74911889D01*
X163987490Y-74852385D01*
X164151430Y-74812245D01*
X164311571Y-74791071D01*
X164469977Y-74788466D01*
X164628711Y-74804033D01*
G37*
X164628711Y-74804033D02*
X164724268Y-74821523D01*
X164888558Y-74866564D01*
X165042589Y-74929656D01*
X165188509Y-75011915D01*
X165328466Y-75114457D01*
X165464608Y-75238399D01*
X165508473Y-75283661D01*
X165620758Y-75415865D01*
X165713972Y-75553832D01*
X165790719Y-75701750D01*
X165853603Y-75863803D01*
X165857420Y-75875391D01*
X165907507Y-76061392D01*
X165940899Y-76257521D01*
X165957584Y-76459568D01*
X165957551Y-76663325D01*
X165940791Y-76864581D01*
X165907292Y-77059128D01*
X165857044Y-77242756D01*
X165813190Y-77360053D01*
X165735348Y-77522951D01*
X165641828Y-77676866D01*
X165534822Y-77818671D01*
X165416519Y-77945239D01*
X165289111Y-78053441D01*
X165211606Y-78106120D01*
X165084725Y-78175750D01*
X164947243Y-78234468D01*
X164805716Y-78279587D01*
X164666702Y-78308422D01*
X164652597Y-78310106D01*
X164609153Y-78313434D01*
X164551723Y-78316275D01*
X164486122Y-78318373D01*
X164418167Y-78319468D01*
X164291378Y-78317140D01*
X164143673Y-78304136D01*
X164005779Y-78279133D01*
X163872014Y-78241318D01*
X163848562Y-78232889D01*
X163800612Y-78213408D01*
X163744140Y-78188473D01*
X163682379Y-78159722D01*
X163618563Y-78128790D01*
X163555926Y-78097315D01*
X163497703Y-78066934D01*
X163447127Y-78039283D01*
X163407433Y-78015999D01*
X163381854Y-77998718D01*
X163373625Y-77989079D01*
X163375076Y-77985984D01*
X163386250Y-77966079D01*
X163407134Y-77930420D01*
X163436265Y-77881459D01*
X163472181Y-77821646D01*
X163513420Y-77753433D01*
X163558517Y-77679271D01*
X163739785Y-77382008D01*
X163786315Y-77426539D01*
X163877723Y-77504865D01*
X163991334Y-77579439D01*
X164109122Y-77633474D01*
X164229559Y-77666290D01*
X164351117Y-77677211D01*
X164392585Y-77675868D01*
X164510080Y-77657612D01*
X164620089Y-77618617D01*
X164721430Y-77559670D01*
X164812921Y-77481557D01*
X164893380Y-77385064D01*
X164961627Y-77270978D01*
X164977908Y-77236724D01*
X165023982Y-77113240D01*
X165059106Y-76974918D01*
X165083197Y-76825561D01*
X165096173Y-76668973D01*
X165097949Y-76508956D01*
X165088443Y-76349314D01*
X165067572Y-76193850D01*
X165035252Y-76046366D01*
X164991399Y-75910667D01*
X164953982Y-75824076D01*
X164889185Y-75710688D01*
X164813772Y-75617070D01*
X164727418Y-75542959D01*
X164629795Y-75488094D01*
X164520577Y-75452212D01*
X164399439Y-75435051D01*
X164330038Y-75433880D01*
X164207168Y-75448141D01*
X164091664Y-75483241D01*
X163984953Y-75538682D01*
X163888464Y-75613964D01*
X163872720Y-75628440D01*
X163842150Y-75654962D01*
X163819809Y-75672138D01*
X163809691Y-75676787D01*
X163807706Y-75674597D01*
X163793241Y-75655721D01*
X163769400Y-75622397D01*
X163738029Y-75577380D01*
X163700974Y-75523425D01*
X163660083Y-75463285D01*
X163617202Y-75399718D01*
X163574178Y-75335476D01*
X163532857Y-75273315D01*
X163495086Y-75215991D01*
X163462712Y-75166257D01*
X163437582Y-75126868D01*
X163421542Y-75100580D01*
X163416439Y-75090147D01*
X163421050Y-75085941D01*
X163440267Y-75080933D01*
X163449838Y-75078386D01*
X163477809Y-75067249D01*
X163519448Y-75048802D01*
X163570995Y-75024725D01*
X163628690Y-74996699D01*
X163639957Y-74991154D01*
X163817687Y-74911889D01*
X163987490Y-74852385D01*
X164151430Y-74812245D01*
X164311571Y-74791071D01*
X164469977Y-74788466D01*
X164628711Y-74804033D01*
X160451386Y-79117877D02*
X160427673Y-79132647D01*
X160427673Y-79132647D02*
X160401022Y-79154227D01*
X160401022Y-79154227D02*
X160401022Y-79475773D01*
X160401022Y-79475773D02*
X160401107Y-79569830D01*
X160401107Y-79569830D02*
X160401471Y-79643932D01*
X160401471Y-79643932D02*
X160402276Y-79700704D01*
X160402276Y-79700704D02*
X160403687Y-79742768D01*
X160403687Y-79742768D02*
X160405867Y-79772748D01*
X160405867Y-79772748D02*
X160408979Y-79793267D01*
X160408979Y-79793267D02*
X160413186Y-79806949D01*
X160413186Y-79806949D02*
X160418652Y-79816416D01*
X160418652Y-79816416D02*
X160422528Y-79821082D01*
X160422528Y-79821082D02*
X160453966Y-79841575D01*
X160453966Y-79841575D02*
X160489767Y-79840739D01*
X160489767Y-79840739D02*
X160521127Y-79823264D01*
X160521127Y-79823264D02*
X160547778Y-79801684D01*
X160547778Y-79801684D02*
X160547778Y-79154227D01*
X160547778Y-79154227D02*
X160521127Y-79132647D01*
X160521127Y-79132647D02*
X160495406Y-79116949D01*
X160495406Y-79116949D02*
X160474400Y-79111067D01*
X160474400Y-79111067D02*
X160451386Y-79117877D01*
X160451386Y-79117877D02*
X160451386Y-79117877D01*
G36*
X160495406Y-79116949D02*
G01*
X160521127Y-79132647D01*
X160547778Y-79154227D01*
X160547778Y-79801684D01*
X160521127Y-79823264D01*
X160489767Y-79840739D01*
X160453966Y-79841575D01*
X160422528Y-79821082D01*
X160418652Y-79816416D01*
X160413186Y-79806949D01*
X160408979Y-79793267D01*
X160405867Y-79772748D01*
X160403687Y-79742768D01*
X160402276Y-79700704D01*
X160401471Y-79643932D01*
X160401107Y-79569830D01*
X160401022Y-79475773D01*
X160401022Y-79154227D01*
X160427673Y-79132647D01*
X160451386Y-79117877D01*
X160474400Y-79111067D01*
X160495406Y-79116949D01*
G37*
X160495406Y-79116949D02*
X160521127Y-79132647D01*
X160547778Y-79154227D01*
X160547778Y-79801684D01*
X160521127Y-79823264D01*
X160489767Y-79840739D01*
X160453966Y-79841575D01*
X160422528Y-79821082D01*
X160418652Y-79816416D01*
X160413186Y-79806949D01*
X160408979Y-79793267D01*
X160405867Y-79772748D01*
X160403687Y-79742768D01*
X160402276Y-79700704D01*
X160401471Y-79643932D01*
X160401107Y-79569830D01*
X160401022Y-79475773D01*
X160401022Y-79154227D01*
X160427673Y-79132647D01*
X160451386Y-79117877D01*
X160474400Y-79111067D01*
X160495406Y-79116949D01*
X169352794Y-79111146D02*
X169283386Y-79111518D01*
X169283386Y-79111518D02*
X169230997Y-79112385D01*
X169230997Y-79112385D02*
X169192847Y-79113946D01*
X169192847Y-79113946D02*
X169166159Y-79116403D01*
X169166159Y-79116403D02*
X169148153Y-79119957D01*
X169148153Y-79119957D02*
X169136049Y-79124810D01*
X169136049Y-79124810D02*
X169127069Y-79131161D01*
X169127069Y-79131161D02*
X169123818Y-79134084D01*
X169123818Y-79134084D02*
X169104043Y-79165142D01*
X169104043Y-79165142D02*
X169100482Y-79200828D01*
X169100482Y-79200828D02*
X169113491Y-79232510D01*
X169113491Y-79232510D02*
X169119506Y-79238913D01*
X169119506Y-79238913D02*
X169129235Y-79245121D01*
X169129235Y-79245121D02*
X169144901Y-79249910D01*
X169144901Y-79249910D02*
X169169408Y-79253514D01*
X169169408Y-79253514D02*
X169205661Y-79256164D01*
X169205661Y-79256164D02*
X169256565Y-79258095D01*
X169256565Y-79258095D02*
X169325026Y-79259539D01*
X169325026Y-79259539D02*
X169387617Y-79260418D01*
X169387617Y-79260418D02*
X169635334Y-79263467D01*
X169635334Y-79263467D02*
X169638719Y-79328378D01*
X169638719Y-79328378D02*
X169642105Y-79393289D01*
X169642105Y-79393289D02*
X169473958Y-79393289D01*
X169473958Y-79393289D02*
X169400959Y-79393919D01*
X169400959Y-79393919D02*
X169347517Y-79396553D01*
X169347517Y-79396553D02*
X169310628Y-79402309D01*
X169310628Y-79402309D02*
X169287288Y-79412304D01*
X169287288Y-79412304D02*
X169274494Y-79427656D01*
X169274494Y-79427656D02*
X169269242Y-79449482D01*
X169269242Y-79449482D02*
X169268445Y-79469738D01*
X169268445Y-79469738D02*
X169270923Y-79494592D01*
X169270923Y-79494592D02*
X169280277Y-79512906D01*
X169280277Y-79512906D02*
X169299383Y-79525637D01*
X169299383Y-79525637D02*
X169331118Y-79533741D01*
X169331118Y-79533741D02*
X169378359Y-79538176D01*
X169378359Y-79538176D02*
X169443983Y-79539899D01*
X169443983Y-79539899D02*
X169479801Y-79540045D01*
X169479801Y-79540045D02*
X169640978Y-79540045D01*
X169640978Y-79540045D02*
X169640978Y-79698089D01*
X169640978Y-79698089D02*
X169392622Y-79698089D01*
X169392622Y-79698089D02*
X169311213Y-79698202D01*
X169311213Y-79698202D02*
X169249342Y-79698712D01*
X169249342Y-79698712D02*
X169203968Y-79699870D01*
X169203968Y-79699870D02*
X169172054Y-79701930D01*
X169172054Y-79701930D02*
X169150559Y-79705146D01*
X169150559Y-79705146D02*
X169136443Y-79709772D01*
X169136443Y-79709772D02*
X169126668Y-79716059D01*
X169126668Y-79716059D02*
X169121689Y-79720667D01*
X169121689Y-79720667D02*
X169104610Y-79747560D01*
X169104610Y-79747560D02*
X169099111Y-79771467D01*
X169099111Y-79771467D02*
X169106963Y-79800667D01*
X169106963Y-79800667D02*
X169121689Y-79822267D01*
X169121689Y-79822267D02*
X169129546Y-79829066D01*
X169129546Y-79829066D02*
X169139688Y-79834346D01*
X169139688Y-79834346D02*
X169154844Y-79838298D01*
X169154844Y-79838298D02*
X169177741Y-79841113D01*
X169177741Y-79841113D02*
X169211109Y-79842982D01*
X169211109Y-79842982D02*
X169257675Y-79844098D01*
X169257675Y-79844098D02*
X169320167Y-79844651D01*
X169320167Y-79844651D02*
X169401314Y-79844833D01*
X169401314Y-79844833D02*
X169443422Y-79844845D01*
X169443422Y-79844845D02*
X169533598Y-79844765D01*
X169533598Y-79844765D02*
X169603924Y-79844398D01*
X169603924Y-79844398D02*
X169657129Y-79843552D01*
X169657129Y-79843552D02*
X169695940Y-79842036D01*
X169695940Y-79842036D02*
X169723087Y-79839659D01*
X169723087Y-79839659D02*
X169741298Y-79836229D01*
X169741298Y-79836229D02*
X169753300Y-79831554D01*
X169753300Y-79831554D02*
X169761822Y-79825444D01*
X169761822Y-79825444D02*
X169765156Y-79822267D01*
X169765156Y-79822267D02*
X169771755Y-79814670D01*
X169771755Y-79814670D02*
X169776927Y-79804870D01*
X169776927Y-79804870D02*
X169780846Y-79790239D01*
X169780846Y-79790239D02*
X169783684Y-79768152D01*
X169783684Y-79768152D02*
X169785615Y-79735982D01*
X169785615Y-79735982D02*
X169786812Y-79691103D01*
X169786812Y-79691103D02*
X169787448Y-79630889D01*
X169787448Y-79630889D02*
X169787697Y-79552713D01*
X169787697Y-79552713D02*
X169787734Y-79479923D01*
X169787734Y-79479923D02*
X169787700Y-79386707D01*
X169787700Y-79386707D02*
X169787465Y-79313431D01*
X169787465Y-79313431D02*
X169786830Y-79257458D01*
X169786830Y-79257458D02*
X169785594Y-79216151D01*
X169785594Y-79216151D02*
X169783556Y-79186872D01*
X169783556Y-79186872D02*
X169780517Y-79166984D01*
X169780517Y-79166984D02*
X169776277Y-79153850D01*
X169776277Y-79153850D02*
X169770635Y-79144832D01*
X169770635Y-79144832D02*
X169763391Y-79137293D01*
X169763391Y-79137293D02*
X169761606Y-79135612D01*
X169761606Y-79135612D02*
X169752945Y-79128172D01*
X169752945Y-79128172D02*
X169742882Y-79122409D01*
X169742882Y-79122409D02*
X169728625Y-79118112D01*
X169728625Y-79118112D02*
X169707383Y-79115064D01*
X169707383Y-79115064D02*
X169676364Y-79113051D01*
X169676364Y-79113051D02*
X169632777Y-79111860D01*
X169632777Y-79111860D02*
X169573831Y-79111275D01*
X169573831Y-79111275D02*
X169496734Y-79111083D01*
X169496734Y-79111083D02*
X169442001Y-79111067D01*
X169442001Y-79111067D02*
X169352794Y-79111146D01*
X169352794Y-79111146D02*
X169352794Y-79111146D01*
G36*
X169496734Y-79111083D02*
G01*
X169573831Y-79111275D01*
X169632777Y-79111860D01*
X169676364Y-79113051D01*
X169707383Y-79115064D01*
X169728625Y-79118112D01*
X169742882Y-79122409D01*
X169752945Y-79128172D01*
X169761606Y-79135612D01*
X169763391Y-79137293D01*
X169770635Y-79144832D01*
X169776277Y-79153850D01*
X169780517Y-79166984D01*
X169783556Y-79186872D01*
X169785594Y-79216151D01*
X169786830Y-79257458D01*
X169787465Y-79313431D01*
X169787700Y-79386707D01*
X169787734Y-79479923D01*
X169787697Y-79552713D01*
X169787448Y-79630889D01*
X169786812Y-79691103D01*
X169785615Y-79735982D01*
X169783684Y-79768152D01*
X169780846Y-79790239D01*
X169776927Y-79804870D01*
X169771755Y-79814670D01*
X169765156Y-79822267D01*
X169761822Y-79825444D01*
X169753300Y-79831554D01*
X169741298Y-79836229D01*
X169723087Y-79839659D01*
X169695940Y-79842036D01*
X169657129Y-79843552D01*
X169603924Y-79844398D01*
X169533598Y-79844765D01*
X169443422Y-79844845D01*
X169401314Y-79844833D01*
X169320167Y-79844651D01*
X169257675Y-79844098D01*
X169211109Y-79842982D01*
X169177741Y-79841113D01*
X169154844Y-79838298D01*
X169139688Y-79834346D01*
X169129546Y-79829066D01*
X169121689Y-79822267D01*
X169106963Y-79800667D01*
X169099111Y-79771467D01*
X169104610Y-79747560D01*
X169121689Y-79720667D01*
X169126668Y-79716059D01*
X169136443Y-79709772D01*
X169150559Y-79705146D01*
X169172054Y-79701930D01*
X169203968Y-79699870D01*
X169249342Y-79698712D01*
X169311213Y-79698202D01*
X169392622Y-79698089D01*
X169640978Y-79698089D01*
X169640978Y-79540045D01*
X169479801Y-79540045D01*
X169443983Y-79539899D01*
X169378359Y-79538176D01*
X169331118Y-79533741D01*
X169299383Y-79525637D01*
X169280277Y-79512906D01*
X169270923Y-79494592D01*
X169268445Y-79469738D01*
X169269242Y-79449482D01*
X169274494Y-79427656D01*
X169287288Y-79412304D01*
X169310628Y-79402309D01*
X169347517Y-79396553D01*
X169400959Y-79393919D01*
X169473958Y-79393289D01*
X169642105Y-79393289D01*
X169638719Y-79328378D01*
X169635334Y-79263467D01*
X169387617Y-79260418D01*
X169325026Y-79259539D01*
X169256565Y-79258095D01*
X169205661Y-79256164D01*
X169169408Y-79253514D01*
X169144901Y-79249910D01*
X169129235Y-79245121D01*
X169119506Y-79238913D01*
X169113491Y-79232510D01*
X169100482Y-79200828D01*
X169104043Y-79165142D01*
X169123818Y-79134084D01*
X169127069Y-79131161D01*
X169136049Y-79124810D01*
X169148153Y-79119957D01*
X169166159Y-79116403D01*
X169192847Y-79113946D01*
X169230997Y-79112385D01*
X169283386Y-79111518D01*
X169352794Y-79111146D01*
X169442001Y-79111067D01*
X169496734Y-79111083D01*
G37*
X169496734Y-79111083D02*
X169573831Y-79111275D01*
X169632777Y-79111860D01*
X169676364Y-79113051D01*
X169707383Y-79115064D01*
X169728625Y-79118112D01*
X169742882Y-79122409D01*
X169752945Y-79128172D01*
X169761606Y-79135612D01*
X169763391Y-79137293D01*
X169770635Y-79144832D01*
X169776277Y-79153850D01*
X169780517Y-79166984D01*
X169783556Y-79186872D01*
X169785594Y-79216151D01*
X169786830Y-79257458D01*
X169787465Y-79313431D01*
X169787700Y-79386707D01*
X169787734Y-79479923D01*
X169787697Y-79552713D01*
X169787448Y-79630889D01*
X169786812Y-79691103D01*
X169785615Y-79735982D01*
X169783684Y-79768152D01*
X169780846Y-79790239D01*
X169776927Y-79804870D01*
X169771755Y-79814670D01*
X169765156Y-79822267D01*
X169761822Y-79825444D01*
X169753300Y-79831554D01*
X169741298Y-79836229D01*
X169723087Y-79839659D01*
X169695940Y-79842036D01*
X169657129Y-79843552D01*
X169603924Y-79844398D01*
X169533598Y-79844765D01*
X169443422Y-79844845D01*
X169401314Y-79844833D01*
X169320167Y-79844651D01*
X169257675Y-79844098D01*
X169211109Y-79842982D01*
X169177741Y-79841113D01*
X169154844Y-79838298D01*
X169139688Y-79834346D01*
X169129546Y-79829066D01*
X169121689Y-79822267D01*
X169106963Y-79800667D01*
X169099111Y-79771467D01*
X169104610Y-79747560D01*
X169121689Y-79720667D01*
X169126668Y-79716059D01*
X169136443Y-79709772D01*
X169150559Y-79705146D01*
X169172054Y-79701930D01*
X169203968Y-79699870D01*
X169249342Y-79698712D01*
X169311213Y-79698202D01*
X169392622Y-79698089D01*
X169640978Y-79698089D01*
X169640978Y-79540045D01*
X169479801Y-79540045D01*
X169443983Y-79539899D01*
X169378359Y-79538176D01*
X169331118Y-79533741D01*
X169299383Y-79525637D01*
X169280277Y-79512906D01*
X169270923Y-79494592D01*
X169268445Y-79469738D01*
X169269242Y-79449482D01*
X169274494Y-79427656D01*
X169287288Y-79412304D01*
X169310628Y-79402309D01*
X169347517Y-79396553D01*
X169400959Y-79393919D01*
X169473958Y-79393289D01*
X169642105Y-79393289D01*
X169638719Y-79328378D01*
X169635334Y-79263467D01*
X169387617Y-79260418D01*
X169325026Y-79259539D01*
X169256565Y-79258095D01*
X169205661Y-79256164D01*
X169169408Y-79253514D01*
X169144901Y-79249910D01*
X169129235Y-79245121D01*
X169119506Y-79238913D01*
X169113491Y-79232510D01*
X169100482Y-79200828D01*
X169104043Y-79165142D01*
X169123818Y-79134084D01*
X169127069Y-79131161D01*
X169136049Y-79124810D01*
X169148153Y-79119957D01*
X169166159Y-79116403D01*
X169192847Y-79113946D01*
X169230997Y-79112385D01*
X169283386Y-79111518D01*
X169352794Y-79111146D01*
X169442001Y-79111067D01*
X169496734Y-79111083D01*
X170761371Y-79111066D02*
X170721889Y-79111467D01*
X170721889Y-79111467D02*
X170606200Y-79114259D01*
X170606200Y-79114259D02*
X170509311Y-79122550D01*
X170509311Y-79122550D02*
X170427919Y-79137232D01*
X170427919Y-79137232D02*
X170358723Y-79159193D01*
X170358723Y-79159193D02*
X170298420Y-79189322D01*
X170298420Y-79189322D02*
X170243708Y-79228510D01*
X170243708Y-79228510D02*
X170224167Y-79245532D01*
X170224167Y-79245532D02*
X170191750Y-79285363D01*
X170191750Y-79285363D02*
X170162520Y-79339413D01*
X170162520Y-79339413D02*
X170139991Y-79399323D01*
X170139991Y-79399323D02*
X170127679Y-79456739D01*
X170127679Y-79456739D02*
X170126400Y-79477956D01*
X170126400Y-79477956D02*
X170134417Y-79536769D01*
X170134417Y-79536769D02*
X170155899Y-79601013D01*
X170155899Y-79601013D02*
X170186999Y-79661821D01*
X170186999Y-79661821D02*
X170223866Y-79710330D01*
X170223866Y-79710330D02*
X170229854Y-79716182D01*
X170229854Y-79716182D02*
X170280579Y-79757321D01*
X170280579Y-79757321D02*
X170336125Y-79789435D01*
X170336125Y-79789435D02*
X170399696Y-79813365D01*
X170399696Y-79813365D02*
X170474494Y-79829953D01*
X170474494Y-79829953D02*
X170563722Y-79840041D01*
X170563722Y-79840041D02*
X170670582Y-79844469D01*
X170670582Y-79844469D02*
X170719528Y-79844845D01*
X170719528Y-79844845D02*
X170781762Y-79844545D01*
X170781762Y-79844545D02*
X170825528Y-79843292D01*
X170825528Y-79843292D02*
X170854931Y-79840554D01*
X170854931Y-79840554D02*
X170874079Y-79835801D01*
X170874079Y-79835801D02*
X170887077Y-79828501D01*
X170887077Y-79828501D02*
X170894045Y-79822267D01*
X170894045Y-79822267D02*
X170900626Y-79814694D01*
X170900626Y-79814694D02*
X170905788Y-79804924D01*
X170905788Y-79804924D02*
X170909703Y-79790340D01*
X170909703Y-79790340D02*
X170912543Y-79768326D01*
X170912543Y-79768326D02*
X170914480Y-79736264D01*
X170914480Y-79736264D02*
X170915684Y-79691536D01*
X170915684Y-79691536D02*
X170916328Y-79631526D01*
X170916328Y-79631526D02*
X170916583Y-79553617D01*
X170916583Y-79553617D02*
X170916622Y-79477956D01*
X170916622Y-79477956D02*
X170916870Y-79377041D01*
X170916870Y-79377041D02*
X170916817Y-79296427D01*
X170916817Y-79296427D02*
X170915857Y-79257822D01*
X170915857Y-79257822D02*
X170769867Y-79257822D01*
X170769867Y-79257822D02*
X170769867Y-79698089D01*
X170769867Y-79698089D02*
X170676734Y-79698004D01*
X170676734Y-79698004D02*
X170620693Y-79696396D01*
X170620693Y-79696396D02*
X170561999Y-79692256D01*
X170561999Y-79692256D02*
X170513028Y-79686464D01*
X170513028Y-79686464D02*
X170511538Y-79686226D01*
X170511538Y-79686226D02*
X170432392Y-79667090D01*
X170432392Y-79667090D02*
X170371002Y-79637287D01*
X170371002Y-79637287D02*
X170324305Y-79594878D01*
X170324305Y-79594878D02*
X170294635Y-79548961D01*
X170294635Y-79548961D02*
X170276353Y-79498026D01*
X170276353Y-79498026D02*
X170277771Y-79450200D01*
X170277771Y-79450200D02*
X170298988Y-79398933D01*
X170298988Y-79398933D02*
X170340489Y-79345899D01*
X170340489Y-79345899D02*
X170397998Y-79306600D01*
X170397998Y-79306600D02*
X170472750Y-79280331D01*
X170472750Y-79280331D02*
X170522708Y-79271035D01*
X170522708Y-79271035D02*
X170579416Y-79264507D01*
X170579416Y-79264507D02*
X170639519Y-79259782D01*
X170639519Y-79259782D02*
X170690639Y-79257817D01*
X170690639Y-79257817D02*
X170693667Y-79257808D01*
X170693667Y-79257808D02*
X170769867Y-79257822D01*
X170769867Y-79257822D02*
X170915857Y-79257822D01*
X170915857Y-79257822D02*
X170915260Y-79233851D01*
X170915260Y-79233851D02*
X170910998Y-79187055D01*
X170910998Y-79187055D02*
X170902830Y-79153778D01*
X170902830Y-79153778D02*
X170889556Y-79131759D01*
X170889556Y-79131759D02*
X170869974Y-79118739D01*
X170869974Y-79118739D02*
X170842883Y-79112457D01*
X170842883Y-79112457D02*
X170807082Y-79110653D01*
X170807082Y-79110653D02*
X170761371Y-79111066D01*
X170761371Y-79111066D02*
X170761371Y-79111066D01*
G36*
X170916870Y-79377041D02*
G01*
X170916622Y-79477956D01*
X170916583Y-79553617D01*
X170916328Y-79631526D01*
X170915684Y-79691536D01*
X170914480Y-79736264D01*
X170912543Y-79768326D01*
X170909703Y-79790340D01*
X170905788Y-79804924D01*
X170900626Y-79814694D01*
X170894045Y-79822267D01*
X170887077Y-79828501D01*
X170874079Y-79835801D01*
X170854931Y-79840554D01*
X170825528Y-79843292D01*
X170781762Y-79844545D01*
X170719528Y-79844845D01*
X170670582Y-79844469D01*
X170563722Y-79840041D01*
X170474494Y-79829953D01*
X170399696Y-79813365D01*
X170336125Y-79789435D01*
X170280579Y-79757321D01*
X170229854Y-79716182D01*
X170223866Y-79710330D01*
X170186999Y-79661821D01*
X170155899Y-79601013D01*
X170134417Y-79536769D01*
X170129136Y-79498026D01*
X170276353Y-79498026D01*
X170294635Y-79548961D01*
X170324305Y-79594878D01*
X170371002Y-79637287D01*
X170432392Y-79667090D01*
X170511538Y-79686226D01*
X170513028Y-79686464D01*
X170561999Y-79692256D01*
X170620693Y-79696396D01*
X170676734Y-79698004D01*
X170769867Y-79698089D01*
X170769867Y-79257822D01*
X170693667Y-79257808D01*
X170690639Y-79257817D01*
X170639519Y-79259782D01*
X170579416Y-79264507D01*
X170522708Y-79271035D01*
X170472750Y-79280331D01*
X170397998Y-79306600D01*
X170340489Y-79345899D01*
X170298988Y-79398933D01*
X170277771Y-79450200D01*
X170276353Y-79498026D01*
X170129136Y-79498026D01*
X170126400Y-79477956D01*
X170127679Y-79456739D01*
X170139991Y-79399323D01*
X170162520Y-79339413D01*
X170191750Y-79285363D01*
X170224167Y-79245532D01*
X170243708Y-79228510D01*
X170298420Y-79189322D01*
X170358723Y-79159193D01*
X170427919Y-79137232D01*
X170509311Y-79122550D01*
X170606200Y-79114259D01*
X170721889Y-79111467D01*
X170761371Y-79111066D01*
X170807082Y-79110653D01*
X170842883Y-79112457D01*
X170869974Y-79118739D01*
X170889556Y-79131759D01*
X170902830Y-79153778D01*
X170910998Y-79187055D01*
X170915260Y-79233851D01*
X170915857Y-79257822D01*
X170916817Y-79296427D01*
X170916870Y-79377041D01*
G37*
X170916870Y-79377041D02*
X170916622Y-79477956D01*
X170916583Y-79553617D01*
X170916328Y-79631526D01*
X170915684Y-79691536D01*
X170914480Y-79736264D01*
X170912543Y-79768326D01*
X170909703Y-79790340D01*
X170905788Y-79804924D01*
X170900626Y-79814694D01*
X170894045Y-79822267D01*
X170887077Y-79828501D01*
X170874079Y-79835801D01*
X170854931Y-79840554D01*
X170825528Y-79843292D01*
X170781762Y-79844545D01*
X170719528Y-79844845D01*
X170670582Y-79844469D01*
X170563722Y-79840041D01*
X170474494Y-79829953D01*
X170399696Y-79813365D01*
X170336125Y-79789435D01*
X170280579Y-79757321D01*
X170229854Y-79716182D01*
X170223866Y-79710330D01*
X170186999Y-79661821D01*
X170155899Y-79601013D01*
X170134417Y-79536769D01*
X170129136Y-79498026D01*
X170276353Y-79498026D01*
X170294635Y-79548961D01*
X170324305Y-79594878D01*
X170371002Y-79637287D01*
X170432392Y-79667090D01*
X170511538Y-79686226D01*
X170513028Y-79686464D01*
X170561999Y-79692256D01*
X170620693Y-79696396D01*
X170676734Y-79698004D01*
X170769867Y-79698089D01*
X170769867Y-79257822D01*
X170693667Y-79257808D01*
X170690639Y-79257817D01*
X170639519Y-79259782D01*
X170579416Y-79264507D01*
X170522708Y-79271035D01*
X170472750Y-79280331D01*
X170397998Y-79306600D01*
X170340489Y-79345899D01*
X170298988Y-79398933D01*
X170277771Y-79450200D01*
X170276353Y-79498026D01*
X170129136Y-79498026D01*
X170126400Y-79477956D01*
X170127679Y-79456739D01*
X170139991Y-79399323D01*
X170162520Y-79339413D01*
X170191750Y-79285363D01*
X170224167Y-79245532D01*
X170243708Y-79228510D01*
X170298420Y-79189322D01*
X170358723Y-79159193D01*
X170427919Y-79137232D01*
X170509311Y-79122550D01*
X170606200Y-79114259D01*
X170721889Y-79111467D01*
X170761371Y-79111066D01*
X170807082Y-79110653D01*
X170842883Y-79112457D01*
X170869974Y-79118739D01*
X170889556Y-79131759D01*
X170902830Y-79153778D01*
X170910998Y-79187055D01*
X170915260Y-79233851D01*
X170915857Y-79257822D01*
X170916817Y-79296427D01*
X170916870Y-79377041D01*
X168331703Y-79112351D02*
X168256888Y-79117581D01*
X168256888Y-79117581D02*
X168187306Y-79125750D01*
X168187306Y-79125750D02*
X168127002Y-79136550D01*
X168127002Y-79136550D02*
X168080020Y-79149673D01*
X168080020Y-79149673D02*
X168050406Y-79164813D01*
X168050406Y-79164813D02*
X168045860Y-79169269D01*
X168045860Y-79169269D02*
X168030054Y-79203850D01*
X168030054Y-79203850D02*
X168034847Y-79239351D01*
X168034847Y-79239351D02*
X168059364Y-79269725D01*
X168059364Y-79269725D02*
X168060534Y-79270596D01*
X168060534Y-79270596D02*
X168074954Y-79279954D01*
X168074954Y-79279954D02*
X168090008Y-79284876D01*
X168090008Y-79284876D02*
X168111005Y-79285473D01*
X168111005Y-79285473D02*
X168143257Y-79281861D01*
X168143257Y-79281861D02*
X168192073Y-79274154D01*
X168192073Y-79274154D02*
X168196000Y-79273505D01*
X168196000Y-79273505D02*
X168268739Y-79264569D01*
X168268739Y-79264569D02*
X168347217Y-79260161D01*
X168347217Y-79260161D02*
X168425927Y-79260119D01*
X168425927Y-79260119D02*
X168499361Y-79264279D01*
X168499361Y-79264279D02*
X168562011Y-79272479D01*
X168562011Y-79272479D02*
X168608370Y-79284557D01*
X168608370Y-79284557D02*
X168611416Y-79285771D01*
X168611416Y-79285771D02*
X168645048Y-79304615D01*
X168645048Y-79304615D02*
X168656864Y-79323685D01*
X168656864Y-79323685D02*
X168647614Y-79342439D01*
X168647614Y-79342439D02*
X168618047Y-79360337D01*
X168618047Y-79360337D02*
X168568911Y-79376837D01*
X168568911Y-79376837D02*
X168500957Y-79391396D01*
X168500957Y-79391396D02*
X168455645Y-79398406D01*
X168455645Y-79398406D02*
X168361456Y-79411889D01*
X168361456Y-79411889D02*
X168286544Y-79424214D01*
X168286544Y-79424214D02*
X168227717Y-79436449D01*
X168227717Y-79436449D02*
X168181785Y-79449661D01*
X168181785Y-79449661D02*
X168145555Y-79464917D01*
X168145555Y-79464917D02*
X168115838Y-79483285D01*
X168115838Y-79483285D02*
X168089442Y-79505831D01*
X168089442Y-79505831D02*
X168068230Y-79527971D01*
X168068230Y-79527971D02*
X168043065Y-79558819D01*
X168043065Y-79558819D02*
X168030681Y-79585345D01*
X168030681Y-79585345D02*
X168026808Y-79618026D01*
X168026808Y-79618026D02*
X168026667Y-79629995D01*
X168026667Y-79629995D02*
X168029576Y-79669712D01*
X168029576Y-79669712D02*
X168041202Y-79699259D01*
X168041202Y-79699259D02*
X168061323Y-79725486D01*
X168061323Y-79725486D02*
X168102216Y-79765576D01*
X168102216Y-79765576D02*
X168147817Y-79796149D01*
X168147817Y-79796149D02*
X168201513Y-79818203D01*
X168201513Y-79818203D02*
X168266692Y-79832735D01*
X168266692Y-79832735D02*
X168346744Y-79840741D01*
X168346744Y-79840741D02*
X168445057Y-79843218D01*
X168445057Y-79843218D02*
X168461289Y-79843177D01*
X168461289Y-79843177D02*
X168526849Y-79841818D01*
X168526849Y-79841818D02*
X168591866Y-79838730D01*
X168591866Y-79838730D02*
X168649252Y-79834356D01*
X168649252Y-79834356D02*
X168691922Y-79829140D01*
X168691922Y-79829140D02*
X168695372Y-79828541D01*
X168695372Y-79828541D02*
X168737796Y-79818491D01*
X168737796Y-79818491D02*
X168773780Y-79805796D01*
X168773780Y-79805796D02*
X168794150Y-79794190D01*
X168794150Y-79794190D02*
X168813107Y-79763572D01*
X168813107Y-79763572D02*
X168814427Y-79727918D01*
X168814427Y-79727918D02*
X168798085Y-79696144D01*
X168798085Y-79696144D02*
X168794429Y-79692551D01*
X168794429Y-79692551D02*
X168779315Y-79681876D01*
X168779315Y-79681876D02*
X168760415Y-79677276D01*
X168760415Y-79677276D02*
X168731162Y-79678059D01*
X168731162Y-79678059D02*
X168695651Y-79682127D01*
X168695651Y-79682127D02*
X168655970Y-79685762D01*
X168655970Y-79685762D02*
X168600345Y-79688828D01*
X168600345Y-79688828D02*
X168535406Y-79691053D01*
X168535406Y-79691053D02*
X168467785Y-79692164D01*
X168467785Y-79692164D02*
X168450000Y-79692237D01*
X168450000Y-79692237D02*
X168382128Y-79691964D01*
X168382128Y-79691964D02*
X168332454Y-79690646D01*
X168332454Y-79690646D02*
X168296610Y-79687827D01*
X168296610Y-79687827D02*
X168270224Y-79683050D01*
X168270224Y-79683050D02*
X168248926Y-79675857D01*
X168248926Y-79675857D02*
X168236126Y-79669867D01*
X168236126Y-79669867D02*
X168208000Y-79653233D01*
X168208000Y-79653233D02*
X168190068Y-79638168D01*
X168190068Y-79638168D02*
X168187447Y-79633897D01*
X168187447Y-79633897D02*
X168192976Y-79616263D01*
X168192976Y-79616263D02*
X168219260Y-79599192D01*
X168219260Y-79599192D02*
X168264478Y-79583458D01*
X168264478Y-79583458D02*
X168326808Y-79569838D01*
X168326808Y-79569838D02*
X168345171Y-79566804D01*
X168345171Y-79566804D02*
X168441090Y-79551738D01*
X168441090Y-79551738D02*
X168517641Y-79539146D01*
X168517641Y-79539146D02*
X168577780Y-79528111D01*
X168577780Y-79528111D02*
X168624460Y-79517720D01*
X168624460Y-79517720D02*
X168660637Y-79507056D01*
X168660637Y-79507056D02*
X168689265Y-79495205D01*
X168689265Y-79495205D02*
X168713298Y-79481251D01*
X168713298Y-79481251D02*
X168735692Y-79464281D01*
X168735692Y-79464281D02*
X168759402Y-79443378D01*
X168759402Y-79443378D02*
X168767380Y-79436049D01*
X168767380Y-79436049D02*
X168795353Y-79408699D01*
X168795353Y-79408699D02*
X168810160Y-79387029D01*
X168810160Y-79387029D02*
X168815952Y-79362232D01*
X168815952Y-79362232D02*
X168816889Y-79330983D01*
X168816889Y-79330983D02*
X168806575Y-79269705D01*
X168806575Y-79269705D02*
X168775752Y-79217640D01*
X168775752Y-79217640D02*
X168724595Y-79174958D01*
X168724595Y-79174958D02*
X168653283Y-79141825D01*
X168653283Y-79141825D02*
X168602400Y-79126964D01*
X168602400Y-79126964D02*
X168547100Y-79117366D01*
X168547100Y-79117366D02*
X168480853Y-79111936D01*
X168480853Y-79111936D02*
X168407706Y-79110367D01*
X168407706Y-79110367D02*
X168331703Y-79112351D01*
X168331703Y-79112351D02*
X168331703Y-79112351D01*
G36*
X168480853Y-79111936D02*
G01*
X168547100Y-79117366D01*
X168602400Y-79126964D01*
X168653283Y-79141825D01*
X168724595Y-79174958D01*
X168775752Y-79217640D01*
X168806575Y-79269705D01*
X168816889Y-79330983D01*
X168815952Y-79362232D01*
X168810160Y-79387029D01*
X168795353Y-79408699D01*
X168767380Y-79436049D01*
X168759402Y-79443378D01*
X168735692Y-79464281D01*
X168713298Y-79481251D01*
X168689265Y-79495205D01*
X168660637Y-79507056D01*
X168624460Y-79517720D01*
X168577780Y-79528111D01*
X168517641Y-79539146D01*
X168441090Y-79551738D01*
X168345171Y-79566804D01*
X168326808Y-79569838D01*
X168264478Y-79583458D01*
X168219260Y-79599192D01*
X168192976Y-79616263D01*
X168187447Y-79633897D01*
X168190068Y-79638168D01*
X168208000Y-79653233D01*
X168236126Y-79669867D01*
X168248926Y-79675857D01*
X168270224Y-79683050D01*
X168296610Y-79687827D01*
X168332454Y-79690646D01*
X168382128Y-79691964D01*
X168450000Y-79692237D01*
X168467785Y-79692164D01*
X168535406Y-79691053D01*
X168600345Y-79688828D01*
X168655970Y-79685762D01*
X168695651Y-79682127D01*
X168731162Y-79678059D01*
X168760415Y-79677276D01*
X168779315Y-79681876D01*
X168794429Y-79692551D01*
X168798085Y-79696144D01*
X168814427Y-79727918D01*
X168813107Y-79763572D01*
X168794150Y-79794190D01*
X168773780Y-79805796D01*
X168737796Y-79818491D01*
X168695372Y-79828541D01*
X168691922Y-79829140D01*
X168649252Y-79834356D01*
X168591866Y-79838730D01*
X168526849Y-79841818D01*
X168461289Y-79843177D01*
X168445057Y-79843218D01*
X168346744Y-79840741D01*
X168266692Y-79832735D01*
X168201513Y-79818203D01*
X168147817Y-79796149D01*
X168102216Y-79765576D01*
X168061323Y-79725486D01*
X168041202Y-79699259D01*
X168029576Y-79669712D01*
X168026667Y-79629995D01*
X168026808Y-79618026D01*
X168030681Y-79585345D01*
X168043065Y-79558819D01*
X168068230Y-79527971D01*
X168089442Y-79505831D01*
X168115838Y-79483285D01*
X168145555Y-79464917D01*
X168181785Y-79449661D01*
X168227717Y-79436449D01*
X168286544Y-79424214D01*
X168361456Y-79411889D01*
X168455645Y-79398406D01*
X168500957Y-79391396D01*
X168568911Y-79376837D01*
X168618047Y-79360337D01*
X168647614Y-79342439D01*
X168656864Y-79323685D01*
X168645048Y-79304615D01*
X168611416Y-79285771D01*
X168608370Y-79284557D01*
X168562011Y-79272479D01*
X168499361Y-79264279D01*
X168425927Y-79260119D01*
X168347217Y-79260161D01*
X168268739Y-79264569D01*
X168196000Y-79273505D01*
X168192073Y-79274154D01*
X168143257Y-79281861D01*
X168111005Y-79285473D01*
X168090008Y-79284876D01*
X168074954Y-79279954D01*
X168060534Y-79270596D01*
X168059364Y-79269725D01*
X168034847Y-79239351D01*
X168030054Y-79203850D01*
X168045860Y-79169269D01*
X168050406Y-79164813D01*
X168080020Y-79149673D01*
X168127002Y-79136550D01*
X168187306Y-79125750D01*
X168256888Y-79117581D01*
X168331703Y-79112351D01*
X168407706Y-79110367D01*
X168480853Y-79111936D01*
G37*
X168480853Y-79111936D02*
X168547100Y-79117366D01*
X168602400Y-79126964D01*
X168653283Y-79141825D01*
X168724595Y-79174958D01*
X168775752Y-79217640D01*
X168806575Y-79269705D01*
X168816889Y-79330983D01*
X168815952Y-79362232D01*
X168810160Y-79387029D01*
X168795353Y-79408699D01*
X168767380Y-79436049D01*
X168759402Y-79443378D01*
X168735692Y-79464281D01*
X168713298Y-79481251D01*
X168689265Y-79495205D01*
X168660637Y-79507056D01*
X168624460Y-79517720D01*
X168577780Y-79528111D01*
X168517641Y-79539146D01*
X168441090Y-79551738D01*
X168345171Y-79566804D01*
X168326808Y-79569838D01*
X168264478Y-79583458D01*
X168219260Y-79599192D01*
X168192976Y-79616263D01*
X168187447Y-79633897D01*
X168190068Y-79638168D01*
X168208000Y-79653233D01*
X168236126Y-79669867D01*
X168248926Y-79675857D01*
X168270224Y-79683050D01*
X168296610Y-79687827D01*
X168332454Y-79690646D01*
X168382128Y-79691964D01*
X168450000Y-79692237D01*
X168467785Y-79692164D01*
X168535406Y-79691053D01*
X168600345Y-79688828D01*
X168655970Y-79685762D01*
X168695651Y-79682127D01*
X168731162Y-79678059D01*
X168760415Y-79677276D01*
X168779315Y-79681876D01*
X168794429Y-79692551D01*
X168798085Y-79696144D01*
X168814427Y-79727918D01*
X168813107Y-79763572D01*
X168794150Y-79794190D01*
X168773780Y-79805796D01*
X168737796Y-79818491D01*
X168695372Y-79828541D01*
X168691922Y-79829140D01*
X168649252Y-79834356D01*
X168591866Y-79838730D01*
X168526849Y-79841818D01*
X168461289Y-79843177D01*
X168445057Y-79843218D01*
X168346744Y-79840741D01*
X168266692Y-79832735D01*
X168201513Y-79818203D01*
X168147817Y-79796149D01*
X168102216Y-79765576D01*
X168061323Y-79725486D01*
X168041202Y-79699259D01*
X168029576Y-79669712D01*
X168026667Y-79629995D01*
X168026808Y-79618026D01*
X168030681Y-79585345D01*
X168043065Y-79558819D01*
X168068230Y-79527971D01*
X168089442Y-79505831D01*
X168115838Y-79483285D01*
X168145555Y-79464917D01*
X168181785Y-79449661D01*
X168227717Y-79436449D01*
X168286544Y-79424214D01*
X168361456Y-79411889D01*
X168455645Y-79398406D01*
X168500957Y-79391396D01*
X168568911Y-79376837D01*
X168618047Y-79360337D01*
X168647614Y-79342439D01*
X168656864Y-79323685D01*
X168645048Y-79304615D01*
X168611416Y-79285771D01*
X168608370Y-79284557D01*
X168562011Y-79272479D01*
X168499361Y-79264279D01*
X168425927Y-79260119D01*
X168347217Y-79260161D01*
X168268739Y-79264569D01*
X168196000Y-79273505D01*
X168192073Y-79274154D01*
X168143257Y-79281861D01*
X168111005Y-79285473D01*
X168090008Y-79284876D01*
X168074954Y-79279954D01*
X168060534Y-79270596D01*
X168059364Y-79269725D01*
X168034847Y-79239351D01*
X168030054Y-79203850D01*
X168045860Y-79169269D01*
X168050406Y-79164813D01*
X168080020Y-79149673D01*
X168127002Y-79136550D01*
X168187306Y-79125750D01*
X168256888Y-79117581D01*
X168331703Y-79112351D01*
X168407706Y-79110367D01*
X168480853Y-79111936D01*
X159676935Y-79111163D02*
X159598228Y-79111542D01*
X159598228Y-79111542D02*
X159537137Y-79112333D01*
X159537137Y-79112333D02*
X159491183Y-79113670D01*
X159491183Y-79113670D02*
X159457886Y-79115683D01*
X159457886Y-79115683D02*
X159434764Y-79118506D01*
X159434764Y-79118506D02*
X159419338Y-79122269D01*
X159419338Y-79122269D02*
X159409129Y-79127105D01*
X159409129Y-79127105D02*
X159404187Y-79130822D01*
X159404187Y-79130822D02*
X159378543Y-79163358D01*
X159378543Y-79163358D02*
X159375441Y-79197138D01*
X159375441Y-79197138D02*
X159391289Y-79227826D01*
X159391289Y-79227826D02*
X159401652Y-79240089D01*
X159401652Y-79240089D02*
X159412804Y-79248450D01*
X159412804Y-79248450D02*
X159428965Y-79253657D01*
X159428965Y-79253657D02*
X159454358Y-79256457D01*
X159454358Y-79256457D02*
X159493202Y-79257596D01*
X159493202Y-79257596D02*
X159549720Y-79257821D01*
X159549720Y-79257821D02*
X159560820Y-79257822D01*
X159560820Y-79257822D02*
X159706756Y-79257822D01*
X159706756Y-79257822D02*
X159706756Y-79528756D01*
X159706756Y-79528756D02*
X159706852Y-79614154D01*
X159706852Y-79614154D02*
X159707289Y-79679864D01*
X159707289Y-79679864D02*
X159708288Y-79728774D01*
X159708288Y-79728774D02*
X159710072Y-79763773D01*
X159710072Y-79763773D02*
X159712863Y-79787749D01*
X159712863Y-79787749D02*
X159716883Y-79803593D01*
X159716883Y-79803593D02*
X159722355Y-79814191D01*
X159722355Y-79814191D02*
X159729334Y-79822267D01*
X159729334Y-79822267D02*
X159762266Y-79842112D01*
X159762266Y-79842112D02*
X159796646Y-79840548D01*
X159796646Y-79840548D02*
X159827824Y-79817906D01*
X159827824Y-79817906D02*
X159830114Y-79815100D01*
X159830114Y-79815100D02*
X159837571Y-79804492D01*
X159837571Y-79804492D02*
X159843253Y-79792081D01*
X159843253Y-79792081D02*
X159847399Y-79774850D01*
X159847399Y-79774850D02*
X159850250Y-79749784D01*
X159850250Y-79749784D02*
X159852046Y-79713867D01*
X159852046Y-79713867D02*
X159853028Y-79664083D01*
X159853028Y-79664083D02*
X159853436Y-79597417D01*
X159853436Y-79597417D02*
X159853511Y-79521589D01*
X159853511Y-79521589D02*
X159853511Y-79257822D01*
X159853511Y-79257822D02*
X159992873Y-79257822D01*
X159992873Y-79257822D02*
X160052678Y-79257418D01*
X160052678Y-79257418D02*
X160094082Y-79255840D01*
X160094082Y-79255840D02*
X160121252Y-79252547D01*
X160121252Y-79252547D02*
X160138354Y-79246992D01*
X160138354Y-79246992D02*
X160149557Y-79238631D01*
X160149557Y-79238631D02*
X160150917Y-79237178D01*
X160150917Y-79237178D02*
X160167275Y-79203939D01*
X160167275Y-79203939D02*
X160165828Y-79166362D01*
X160165828Y-79166362D02*
X160147022Y-79133645D01*
X160147022Y-79133645D02*
X160139750Y-79127298D01*
X160139750Y-79127298D02*
X160130373Y-79122266D01*
X160130373Y-79122266D02*
X160116391Y-79118396D01*
X160116391Y-79118396D02*
X160095304Y-79115537D01*
X160095304Y-79115537D02*
X160064611Y-79113535D01*
X160064611Y-79113535D02*
X160021811Y-79112239D01*
X160021811Y-79112239D02*
X159964405Y-79111498D01*
X159964405Y-79111498D02*
X159889890Y-79111158D01*
X159889890Y-79111158D02*
X159795767Y-79111068D01*
X159795767Y-79111068D02*
X159775740Y-79111067D01*
X159775740Y-79111067D02*
X159676935Y-79111163D01*
X159676935Y-79111163D02*
X159676935Y-79111163D01*
G36*
X159795767Y-79111068D02*
G01*
X159889890Y-79111158D01*
X159964405Y-79111498D01*
X160021811Y-79112239D01*
X160064611Y-79113535D01*
X160095304Y-79115537D01*
X160116391Y-79118396D01*
X160130373Y-79122266D01*
X160139750Y-79127298D01*
X160147022Y-79133645D01*
X160165828Y-79166362D01*
X160167275Y-79203939D01*
X160150917Y-79237178D01*
X160149557Y-79238631D01*
X160138354Y-79246992D01*
X160121252Y-79252547D01*
X160094082Y-79255840D01*
X160052678Y-79257418D01*
X159992873Y-79257822D01*
X159853511Y-79257822D01*
X159853511Y-79521589D01*
X159853436Y-79597417D01*
X159853028Y-79664083D01*
X159852046Y-79713867D01*
X159850250Y-79749784D01*
X159847399Y-79774850D01*
X159843253Y-79792081D01*
X159837571Y-79804492D01*
X159830114Y-79815100D01*
X159827824Y-79817906D01*
X159796646Y-79840548D01*
X159762266Y-79842112D01*
X159729334Y-79822267D01*
X159722355Y-79814191D01*
X159716883Y-79803593D01*
X159712863Y-79787749D01*
X159710072Y-79763773D01*
X159708288Y-79728774D01*
X159707289Y-79679864D01*
X159706852Y-79614154D01*
X159706756Y-79528756D01*
X159706756Y-79257822D01*
X159560820Y-79257822D01*
X159549720Y-79257821D01*
X159493202Y-79257596D01*
X159454358Y-79256457D01*
X159428965Y-79253657D01*
X159412804Y-79248450D01*
X159401652Y-79240089D01*
X159391289Y-79227826D01*
X159375441Y-79197138D01*
X159378543Y-79163358D01*
X159404187Y-79130822D01*
X159409129Y-79127105D01*
X159419338Y-79122269D01*
X159434764Y-79118506D01*
X159457886Y-79115683D01*
X159491183Y-79113670D01*
X159537137Y-79112333D01*
X159598228Y-79111542D01*
X159676935Y-79111163D01*
X159775740Y-79111067D01*
X159795767Y-79111068D01*
G37*
X159795767Y-79111068D02*
X159889890Y-79111158D01*
X159964405Y-79111498D01*
X160021811Y-79112239D01*
X160064611Y-79113535D01*
X160095304Y-79115537D01*
X160116391Y-79118396D01*
X160130373Y-79122266D01*
X160139750Y-79127298D01*
X160147022Y-79133645D01*
X160165828Y-79166362D01*
X160167275Y-79203939D01*
X160150917Y-79237178D01*
X160149557Y-79238631D01*
X160138354Y-79246992D01*
X160121252Y-79252547D01*
X160094082Y-79255840D01*
X160052678Y-79257418D01*
X159992873Y-79257822D01*
X159853511Y-79257822D01*
X159853511Y-79521589D01*
X159853436Y-79597417D01*
X159853028Y-79664083D01*
X159852046Y-79713867D01*
X159850250Y-79749784D01*
X159847399Y-79774850D01*
X159843253Y-79792081D01*
X159837571Y-79804492D01*
X159830114Y-79815100D01*
X159827824Y-79817906D01*
X159796646Y-79840548D01*
X159762266Y-79842112D01*
X159729334Y-79822267D01*
X159722355Y-79814191D01*
X159716883Y-79803593D01*
X159712863Y-79787749D01*
X159710072Y-79763773D01*
X159708288Y-79728774D01*
X159707289Y-79679864D01*
X159706852Y-79614154D01*
X159706756Y-79528756D01*
X159706756Y-79257822D01*
X159560820Y-79257822D01*
X159549720Y-79257821D01*
X159493202Y-79257596D01*
X159454358Y-79256457D01*
X159428965Y-79253657D01*
X159412804Y-79248450D01*
X159401652Y-79240089D01*
X159391289Y-79227826D01*
X159375441Y-79197138D01*
X159378543Y-79163358D01*
X159404187Y-79130822D01*
X159409129Y-79127105D01*
X159419338Y-79122269D01*
X159434764Y-79118506D01*
X159457886Y-79115683D01*
X159491183Y-79113670D01*
X159537137Y-79112333D01*
X159598228Y-79111542D01*
X159676935Y-79111163D01*
X159775740Y-79111067D01*
X159795767Y-79111068D01*
X166590081Y-79116599D02*
X166521565Y-79128095D01*
X166521565Y-79128095D02*
X166468943Y-79145967D01*
X166468943Y-79145967D02*
X166434708Y-79169499D01*
X166434708Y-79169499D02*
X166425379Y-79182924D01*
X166425379Y-79182924D02*
X166415893Y-79214148D01*
X166415893Y-79214148D02*
X166422277Y-79242395D01*
X166422277Y-79242395D02*
X166442430Y-79269182D01*
X166442430Y-79269182D02*
X166473745Y-79281713D01*
X166473745Y-79281713D02*
X166519183Y-79280696D01*
X166519183Y-79280696D02*
X166554326Y-79273906D01*
X166554326Y-79273906D02*
X166632419Y-79260971D01*
X166632419Y-79260971D02*
X166712226Y-79259742D01*
X166712226Y-79259742D02*
X166801555Y-79270241D01*
X166801555Y-79270241D02*
X166826229Y-79274690D01*
X166826229Y-79274690D02*
X166909291Y-79298108D01*
X166909291Y-79298108D02*
X166974273Y-79332945D01*
X166974273Y-79332945D02*
X167020461Y-79378604D01*
X167020461Y-79378604D02*
X167047145Y-79434494D01*
X167047145Y-79434494D02*
X167052663Y-79463388D01*
X167052663Y-79463388D02*
X167049051Y-79522012D01*
X167049051Y-79522012D02*
X167025729Y-79573879D01*
X167025729Y-79573879D02*
X166984824Y-79617978D01*
X166984824Y-79617978D02*
X166928459Y-79653299D01*
X166928459Y-79653299D02*
X166858760Y-79678829D01*
X166858760Y-79678829D02*
X166777852Y-79693559D01*
X166777852Y-79693559D02*
X166687860Y-79696478D01*
X166687860Y-79696478D02*
X166590910Y-79686575D01*
X166590910Y-79686575D02*
X166585436Y-79685641D01*
X166585436Y-79685641D02*
X166546875Y-79678459D01*
X166546875Y-79678459D02*
X166525494Y-79671521D01*
X166525494Y-79671521D02*
X166516227Y-79661227D01*
X166516227Y-79661227D02*
X166514006Y-79643976D01*
X166514006Y-79643976D02*
X166513956Y-79634841D01*
X166513956Y-79634841D02*
X166513956Y-79596489D01*
X166513956Y-79596489D02*
X166582431Y-79596489D01*
X166582431Y-79596489D02*
X166642900Y-79592347D01*
X166642900Y-79592347D02*
X166684165Y-79579147D01*
X166684165Y-79579147D02*
X166708175Y-79555730D01*
X166708175Y-79555730D02*
X166716877Y-79520936D01*
X166716877Y-79520936D02*
X166716983Y-79516394D01*
X166716983Y-79516394D02*
X166711892Y-79486654D01*
X166711892Y-79486654D02*
X166694433Y-79465419D01*
X166694433Y-79465419D02*
X166661939Y-79451366D01*
X166661939Y-79451366D02*
X166611743Y-79443173D01*
X166611743Y-79443173D02*
X166563123Y-79440161D01*
X166563123Y-79440161D02*
X166492456Y-79438433D01*
X166492456Y-79438433D02*
X166441198Y-79441070D01*
X166441198Y-79441070D02*
X166406239Y-79450800D01*
X166406239Y-79450800D02*
X166384470Y-79470353D01*
X166384470Y-79470353D02*
X166372780Y-79502456D01*
X166372780Y-79502456D02*
X166368060Y-79549838D01*
X166368060Y-79549838D02*
X166367200Y-79612071D01*
X166367200Y-79612071D02*
X166368609Y-79681535D01*
X166368609Y-79681535D02*
X166372848Y-79728786D01*
X166372848Y-79728786D02*
X166379936Y-79754012D01*
X166379936Y-79754012D02*
X166381311Y-79755988D01*
X166381311Y-79755988D02*
X166420228Y-79787508D01*
X166420228Y-79787508D02*
X166477286Y-79812470D01*
X166477286Y-79812470D02*
X166548869Y-79830340D01*
X166548869Y-79830340D02*
X166631358Y-79840586D01*
X166631358Y-79840586D02*
X166721139Y-79842673D01*
X166721139Y-79842673D02*
X166814592Y-79836068D01*
X166814592Y-79836068D02*
X166869556Y-79827956D01*
X166869556Y-79827956D02*
X166955766Y-79803554D01*
X166955766Y-79803554D02*
X167035892Y-79763662D01*
X167035892Y-79763662D02*
X167102977Y-79711887D01*
X167102977Y-79711887D02*
X167113173Y-79701539D01*
X167113173Y-79701539D02*
X167146302Y-79658035D01*
X167146302Y-79658035D02*
X167176194Y-79604118D01*
X167176194Y-79604118D02*
X167199357Y-79547592D01*
X167199357Y-79547592D02*
X167212298Y-79496259D01*
X167212298Y-79496259D02*
X167213858Y-79476544D01*
X167213858Y-79476544D02*
X167207218Y-79435419D01*
X167207218Y-79435419D02*
X167189568Y-79384252D01*
X167189568Y-79384252D02*
X167164297Y-79330394D01*
X167164297Y-79330394D02*
X167134789Y-79281195D01*
X167134789Y-79281195D02*
X167108719Y-79248334D01*
X167108719Y-79248334D02*
X167047765Y-79199452D01*
X167047765Y-79199452D02*
X166968969Y-79160545D01*
X166968969Y-79160545D02*
X166875157Y-79132494D01*
X166875157Y-79132494D02*
X166769150Y-79116179D01*
X166769150Y-79116179D02*
X166672000Y-79112192D01*
X166672000Y-79112192D02*
X166590081Y-79116599D01*
X166590081Y-79116599D02*
X166590081Y-79116599D01*
G36*
X166769150Y-79116179D02*
G01*
X166875157Y-79132494D01*
X166968969Y-79160545D01*
X167047765Y-79199452D01*
X167108719Y-79248334D01*
X167134789Y-79281195D01*
X167164297Y-79330394D01*
X167189568Y-79384252D01*
X167207218Y-79435419D01*
X167213858Y-79476544D01*
X167212298Y-79496259D01*
X167199357Y-79547592D01*
X167176194Y-79604118D01*
X167146302Y-79658035D01*
X167113173Y-79701539D01*
X167102977Y-79711887D01*
X167035892Y-79763662D01*
X166955766Y-79803554D01*
X166869556Y-79827956D01*
X166814592Y-79836068D01*
X166721139Y-79842673D01*
X166631358Y-79840586D01*
X166548869Y-79830340D01*
X166477286Y-79812470D01*
X166420228Y-79787508D01*
X166381311Y-79755988D01*
X166379936Y-79754012D01*
X166372848Y-79728786D01*
X166368609Y-79681535D01*
X166367200Y-79612071D01*
X166368060Y-79549838D01*
X166372780Y-79502456D01*
X166384470Y-79470353D01*
X166406239Y-79450800D01*
X166441198Y-79441070D01*
X166492456Y-79438433D01*
X166563123Y-79440161D01*
X166611743Y-79443173D01*
X166661939Y-79451366D01*
X166694433Y-79465419D01*
X166711892Y-79486654D01*
X166716983Y-79516394D01*
X166716877Y-79520936D01*
X166708175Y-79555730D01*
X166684165Y-79579147D01*
X166642900Y-79592347D01*
X166582431Y-79596489D01*
X166513956Y-79596489D01*
X166513956Y-79634841D01*
X166514006Y-79643976D01*
X166516227Y-79661227D01*
X166525494Y-79671521D01*
X166546875Y-79678459D01*
X166585436Y-79685641D01*
X166590910Y-79686575D01*
X166687860Y-79696478D01*
X166777852Y-79693559D01*
X166858760Y-79678829D01*
X166928459Y-79653299D01*
X166984824Y-79617978D01*
X167025729Y-79573879D01*
X167049051Y-79522012D01*
X167052663Y-79463388D01*
X167047145Y-79434494D01*
X167020461Y-79378604D01*
X166974273Y-79332945D01*
X166909291Y-79298108D01*
X166826229Y-79274690D01*
X166801555Y-79270241D01*
X166712226Y-79259742D01*
X166632419Y-79260971D01*
X166554326Y-79273906D01*
X166519183Y-79280696D01*
X166473745Y-79281713D01*
X166442430Y-79269182D01*
X166422277Y-79242395D01*
X166415893Y-79214148D01*
X166425379Y-79182924D01*
X166434708Y-79169499D01*
X166468943Y-79145967D01*
X166521565Y-79128095D01*
X166590081Y-79116599D01*
X166672000Y-79112192D01*
X166769150Y-79116179D01*
G37*
X166769150Y-79116179D02*
X166875157Y-79132494D01*
X166968969Y-79160545D01*
X167047765Y-79199452D01*
X167108719Y-79248334D01*
X167134789Y-79281195D01*
X167164297Y-79330394D01*
X167189568Y-79384252D01*
X167207218Y-79435419D01*
X167213858Y-79476544D01*
X167212298Y-79496259D01*
X167199357Y-79547592D01*
X167176194Y-79604118D01*
X167146302Y-79658035D01*
X167113173Y-79701539D01*
X167102977Y-79711887D01*
X167035892Y-79763662D01*
X166955766Y-79803554D01*
X166869556Y-79827956D01*
X166814592Y-79836068D01*
X166721139Y-79842673D01*
X166631358Y-79840586D01*
X166548869Y-79830340D01*
X166477286Y-79812470D01*
X166420228Y-79787508D01*
X166381311Y-79755988D01*
X166379936Y-79754012D01*
X166372848Y-79728786D01*
X166368609Y-79681535D01*
X166367200Y-79612071D01*
X166368060Y-79549838D01*
X166372780Y-79502456D01*
X166384470Y-79470353D01*
X166406239Y-79450800D01*
X166441198Y-79441070D01*
X166492456Y-79438433D01*
X166563123Y-79440161D01*
X166611743Y-79443173D01*
X166661939Y-79451366D01*
X166694433Y-79465419D01*
X166711892Y-79486654D01*
X166716983Y-79516394D01*
X166716877Y-79520936D01*
X166708175Y-79555730D01*
X166684165Y-79579147D01*
X166642900Y-79592347D01*
X166582431Y-79596489D01*
X166513956Y-79596489D01*
X166513956Y-79634841D01*
X166514006Y-79643976D01*
X166516227Y-79661227D01*
X166525494Y-79671521D01*
X166546875Y-79678459D01*
X166585436Y-79685641D01*
X166590910Y-79686575D01*
X166687860Y-79696478D01*
X166777852Y-79693559D01*
X166858760Y-79678829D01*
X166928459Y-79653299D01*
X166984824Y-79617978D01*
X167025729Y-79573879D01*
X167049051Y-79522012D01*
X167052663Y-79463388D01*
X167047145Y-79434494D01*
X167020461Y-79378604D01*
X166974273Y-79332945D01*
X166909291Y-79298108D01*
X166826229Y-79274690D01*
X166801555Y-79270241D01*
X166712226Y-79259742D01*
X166632419Y-79260971D01*
X166554326Y-79273906D01*
X166519183Y-79280696D01*
X166473745Y-79281713D01*
X166442430Y-79269182D01*
X166422277Y-79242395D01*
X166415893Y-79214148D01*
X166425379Y-79182924D01*
X166434708Y-79169499D01*
X166468943Y-79145967D01*
X166521565Y-79128095D01*
X166590081Y-79116599D01*
X166672000Y-79112192D01*
X166769150Y-79116179D01*
X167563822Y-79133645D02*
X167557242Y-79141218D01*
X167557242Y-79141218D02*
X167552079Y-79150987D01*
X167552079Y-79150987D02*
X167548164Y-79165571D01*
X167548164Y-79165571D02*
X167545324Y-79187585D01*
X167545324Y-79187585D02*
X167543387Y-79219648D01*
X167543387Y-79219648D02*
X167542183Y-79264375D01*
X167542183Y-79264375D02*
X167541539Y-79324385D01*
X167541539Y-79324385D02*
X167541284Y-79402294D01*
X167541284Y-79402294D02*
X167541245Y-79477956D01*
X167541245Y-79477956D02*
X167541314Y-79571802D01*
X167541314Y-79571802D02*
X167541638Y-79645689D01*
X167541638Y-79645689D02*
X167542386Y-79702232D01*
X167542386Y-79702232D02*
X167543732Y-79744049D01*
X167543732Y-79744049D02*
X167545846Y-79773757D01*
X167545846Y-79773757D02*
X167548900Y-79793973D01*
X167548900Y-79793973D02*
X167553066Y-79807314D01*
X167553066Y-79807314D02*
X167558516Y-79816398D01*
X167558516Y-79816398D02*
X167563822Y-79822267D01*
X167563822Y-79822267D02*
X167596826Y-79841947D01*
X167596826Y-79841947D02*
X167631991Y-79840181D01*
X167631991Y-79840181D02*
X167663455Y-79818717D01*
X167663455Y-79818717D02*
X167670684Y-79810337D01*
X167670684Y-79810337D02*
X167676334Y-79800614D01*
X167676334Y-79800614D02*
X167680599Y-79786861D01*
X167680599Y-79786861D02*
X167683673Y-79766389D01*
X167683673Y-79766389D02*
X167685752Y-79736512D01*
X167685752Y-79736512D02*
X167687030Y-79694541D01*
X167687030Y-79694541D02*
X167687701Y-79637789D01*
X167687701Y-79637789D02*
X167687959Y-79563567D01*
X167687959Y-79563567D02*
X167688000Y-79479537D01*
X167688000Y-79479537D02*
X167688000Y-79166485D01*
X167688000Y-79166485D02*
X167660291Y-79138776D01*
X167660291Y-79138776D02*
X167626137Y-79115463D01*
X167626137Y-79115463D02*
X167593006Y-79114623D01*
X167593006Y-79114623D02*
X167563822Y-79133645D01*
X167563822Y-79133645D02*
X167563822Y-79133645D01*
G36*
X167626137Y-79115463D02*
G01*
X167660291Y-79138776D01*
X167688000Y-79166485D01*
X167688000Y-79479537D01*
X167687959Y-79563567D01*
X167687701Y-79637789D01*
X167687030Y-79694541D01*
X167685752Y-79736512D01*
X167683673Y-79766389D01*
X167680599Y-79786861D01*
X167676334Y-79800614D01*
X167670684Y-79810337D01*
X167663455Y-79818717D01*
X167631991Y-79840181D01*
X167596826Y-79841947D01*
X167563822Y-79822267D01*
X167558516Y-79816398D01*
X167553066Y-79807314D01*
X167548900Y-79793973D01*
X167545846Y-79773757D01*
X167543732Y-79744049D01*
X167542386Y-79702232D01*
X167541638Y-79645689D01*
X167541314Y-79571802D01*
X167541245Y-79477956D01*
X167541284Y-79402294D01*
X167541539Y-79324385D01*
X167542183Y-79264375D01*
X167543387Y-79219648D01*
X167545324Y-79187585D01*
X167548164Y-79165571D01*
X167552079Y-79150987D01*
X167557242Y-79141218D01*
X167563822Y-79133645D01*
X167593006Y-79114623D01*
X167626137Y-79115463D01*
G37*
X167626137Y-79115463D02*
X167660291Y-79138776D01*
X167688000Y-79166485D01*
X167688000Y-79479537D01*
X167687959Y-79563567D01*
X167687701Y-79637789D01*
X167687030Y-79694541D01*
X167685752Y-79736512D01*
X167683673Y-79766389D01*
X167680599Y-79786861D01*
X167676334Y-79800614D01*
X167670684Y-79810337D01*
X167663455Y-79818717D01*
X167631991Y-79840181D01*
X167596826Y-79841947D01*
X167563822Y-79822267D01*
X167558516Y-79816398D01*
X167553066Y-79807314D01*
X167548900Y-79793973D01*
X167545846Y-79773757D01*
X167543732Y-79744049D01*
X167542386Y-79702232D01*
X167541638Y-79645689D01*
X167541314Y-79571802D01*
X167541245Y-79477956D01*
X167541284Y-79402294D01*
X167541539Y-79324385D01*
X167542183Y-79264375D01*
X167543387Y-79219648D01*
X167545324Y-79187585D01*
X167548164Y-79165571D01*
X167552079Y-79150987D01*
X167557242Y-79141218D01*
X167563822Y-79133645D01*
X167593006Y-79114623D01*
X167626137Y-79115463D01*
X158411177Y-79116533D02*
X158379798Y-79138776D01*
X158379798Y-79138776D02*
X158352089Y-79166485D01*
X158352089Y-79166485D02*
X158352089Y-79475920D01*
X158352089Y-79475920D02*
X158352162Y-79567799D01*
X158352162Y-79567799D02*
X158352505Y-79639840D01*
X158352505Y-79639840D02*
X158353308Y-79694780D01*
X158353308Y-79694780D02*
X158354759Y-79735360D01*
X158354759Y-79735360D02*
X158357048Y-79764317D01*
X158357048Y-79764317D02*
X158360364Y-79784391D01*
X158360364Y-79784391D02*
X158364895Y-79798321D01*
X158364895Y-79798321D02*
X158370831Y-79808845D01*
X158370831Y-79808845D02*
X158375486Y-79815100D01*
X158375486Y-79815100D02*
X158406217Y-79839673D01*
X158406217Y-79839673D02*
X158441504Y-79842341D01*
X158441504Y-79842341D02*
X158473755Y-79827271D01*
X158473755Y-79827271D02*
X158484412Y-79818374D01*
X158484412Y-79818374D02*
X158491536Y-79806557D01*
X158491536Y-79806557D02*
X158495833Y-79787526D01*
X158495833Y-79787526D02*
X158498009Y-79756992D01*
X158498009Y-79756992D02*
X158498772Y-79710662D01*
X158498772Y-79710662D02*
X158498845Y-79674871D01*
X158498845Y-79674871D02*
X158498845Y-79540045D01*
X158498845Y-79540045D02*
X158995556Y-79540045D01*
X158995556Y-79540045D02*
X158995556Y-79662700D01*
X158995556Y-79662700D02*
X158996069Y-79718787D01*
X158996069Y-79718787D02*
X158998124Y-79757333D01*
X158998124Y-79757333D02*
X159002492Y-79783361D01*
X159002492Y-79783361D02*
X159009944Y-79801897D01*
X159009944Y-79801897D02*
X159018953Y-79815100D01*
X159018953Y-79815100D02*
X159049856Y-79839604D01*
X159049856Y-79839604D02*
X159084804Y-79842506D01*
X159084804Y-79842506D02*
X159118262Y-79825089D01*
X159118262Y-79825089D02*
X159127396Y-79815959D01*
X159127396Y-79815959D02*
X159133848Y-79803855D01*
X159133848Y-79803855D02*
X159138103Y-79785001D01*
X159138103Y-79785001D02*
X159140648Y-79755620D01*
X159140648Y-79755620D02*
X159141971Y-79711937D01*
X159141971Y-79711937D02*
X159142557Y-79650175D01*
X159142557Y-79650175D02*
X159142625Y-79636000D01*
X159142625Y-79636000D02*
X159143109Y-79519631D01*
X159143109Y-79519631D02*
X159143359Y-79423727D01*
X159143359Y-79423727D02*
X159143277Y-79346177D01*
X159143277Y-79346177D02*
X159142769Y-79284869D01*
X159142769Y-79284869D02*
X159141738Y-79237690D01*
X159141738Y-79237690D02*
X159140087Y-79202530D01*
X159140087Y-79202530D02*
X159137721Y-79177276D01*
X159137721Y-79177276D02*
X159134543Y-79159817D01*
X159134543Y-79159817D02*
X159130456Y-79148041D01*
X159130456Y-79148041D02*
X159125366Y-79139835D01*
X159125366Y-79139835D02*
X159119734Y-79133645D01*
X159119734Y-79133645D02*
X159087872Y-79113844D01*
X159087872Y-79113844D02*
X159054643Y-79116533D01*
X159054643Y-79116533D02*
X159023265Y-79138776D01*
X159023265Y-79138776D02*
X159010567Y-79153126D01*
X159010567Y-79153126D02*
X159002474Y-79168978D01*
X159002474Y-79168978D02*
X158997958Y-79191554D01*
X158997958Y-79191554D02*
X158995994Y-79226078D01*
X158995994Y-79226078D02*
X158995556Y-79277776D01*
X158995556Y-79277776D02*
X158995556Y-79393289D01*
X158995556Y-79393289D02*
X158498845Y-79393289D01*
X158498845Y-79393289D02*
X158498845Y-79274756D01*
X158498845Y-79274756D02*
X158498338Y-79220148D01*
X158498338Y-79220148D02*
X158496302Y-79183275D01*
X158496302Y-79183275D02*
X158491965Y-79159307D01*
X158491965Y-79159307D02*
X158484553Y-79143415D01*
X158484553Y-79143415D02*
X158476267Y-79133645D01*
X158476267Y-79133645D02*
X158444406Y-79113844D01*
X158444406Y-79113844D02*
X158411177Y-79116533D01*
X158411177Y-79116533D02*
X158411177Y-79116533D01*
G36*
X159119734Y-79133645D02*
G01*
X159125366Y-79139835D01*
X159130456Y-79148041D01*
X159134543Y-79159817D01*
X159137721Y-79177276D01*
X159140087Y-79202530D01*
X159141738Y-79237690D01*
X159142769Y-79284869D01*
X159143277Y-79346177D01*
X159143359Y-79423727D01*
X159143109Y-79519631D01*
X159142625Y-79636000D01*
X159142557Y-79650175D01*
X159141971Y-79711937D01*
X159140648Y-79755620D01*
X159138103Y-79785001D01*
X159133848Y-79803855D01*
X159127396Y-79815959D01*
X159118262Y-79825089D01*
X159084804Y-79842506D01*
X159049856Y-79839604D01*
X159018953Y-79815100D01*
X159009944Y-79801897D01*
X159002492Y-79783361D01*
X158998124Y-79757333D01*
X158996069Y-79718787D01*
X158995556Y-79662700D01*
X158995556Y-79540045D01*
X158498845Y-79540045D01*
X158498845Y-79674871D01*
X158498772Y-79710662D01*
X158498009Y-79756992D01*
X158495833Y-79787526D01*
X158491536Y-79806557D01*
X158484412Y-79818374D01*
X158473755Y-79827271D01*
X158441504Y-79842341D01*
X158406217Y-79839673D01*
X158375486Y-79815100D01*
X158370831Y-79808845D01*
X158364895Y-79798321D01*
X158360364Y-79784391D01*
X158357048Y-79764317D01*
X158354759Y-79735360D01*
X158353308Y-79694780D01*
X158352505Y-79639840D01*
X158352162Y-79567799D01*
X158352089Y-79475920D01*
X158352089Y-79166485D01*
X158379798Y-79138776D01*
X158411177Y-79116533D01*
X158444406Y-79113844D01*
X158476267Y-79133645D01*
X158484553Y-79143415D01*
X158491965Y-79159307D01*
X158496302Y-79183275D01*
X158498338Y-79220148D01*
X158498845Y-79274756D01*
X158498845Y-79393289D01*
X158995556Y-79393289D01*
X158995556Y-79277776D01*
X158995994Y-79226078D01*
X158997958Y-79191554D01*
X159002474Y-79168978D01*
X159010567Y-79153126D01*
X159023265Y-79138776D01*
X159054643Y-79116533D01*
X159087872Y-79113844D01*
X159119734Y-79133645D01*
G37*
X159119734Y-79133645D02*
X159125366Y-79139835D01*
X159130456Y-79148041D01*
X159134543Y-79159817D01*
X159137721Y-79177276D01*
X159140087Y-79202530D01*
X159141738Y-79237690D01*
X159142769Y-79284869D01*
X159143277Y-79346177D01*
X159143359Y-79423727D01*
X159143109Y-79519631D01*
X159142625Y-79636000D01*
X159142557Y-79650175D01*
X159141971Y-79711937D01*
X159140648Y-79755620D01*
X159138103Y-79785001D01*
X159133848Y-79803855D01*
X159127396Y-79815959D01*
X159118262Y-79825089D01*
X159084804Y-79842506D01*
X159049856Y-79839604D01*
X159018953Y-79815100D01*
X159009944Y-79801897D01*
X159002492Y-79783361D01*
X158998124Y-79757333D01*
X158996069Y-79718787D01*
X158995556Y-79662700D01*
X158995556Y-79540045D01*
X158498845Y-79540045D01*
X158498845Y-79674871D01*
X158498772Y-79710662D01*
X158498009Y-79756992D01*
X158495833Y-79787526D01*
X158491536Y-79806557D01*
X158484412Y-79818374D01*
X158473755Y-79827271D01*
X158441504Y-79842341D01*
X158406217Y-79839673D01*
X158375486Y-79815100D01*
X158370831Y-79808845D01*
X158364895Y-79798321D01*
X158360364Y-79784391D01*
X158357048Y-79764317D01*
X158354759Y-79735360D01*
X158353308Y-79694780D01*
X158352505Y-79639840D01*
X158352162Y-79567799D01*
X158352089Y-79475920D01*
X158352089Y-79166485D01*
X158379798Y-79138776D01*
X158411177Y-79116533D01*
X158444406Y-79113844D01*
X158476267Y-79133645D01*
X158484553Y-79143415D01*
X158491965Y-79159307D01*
X158496302Y-79183275D01*
X158498338Y-79220148D01*
X158498845Y-79274756D01*
X158498845Y-79393289D01*
X158995556Y-79393289D01*
X158995556Y-79277776D01*
X158995994Y-79226078D01*
X158997958Y-79191554D01*
X159002474Y-79168978D01*
X159010567Y-79153126D01*
X159023265Y-79138776D01*
X159054643Y-79116533D01*
X159087872Y-79113844D01*
X159119734Y-79133645D01*
X166913043Y-73868571D02*
X166816768Y-73892809D01*
X166816768Y-73892809D02*
X166730184Y-73935641D01*
X166730184Y-73935641D02*
X166655373Y-73995419D01*
X166655373Y-73995419D02*
X166594418Y-74070494D01*
X166594418Y-74070494D02*
X166549399Y-74159220D01*
X166549399Y-74159220D02*
X166523136Y-74255530D01*
X166523136Y-74255530D02*
X166517286Y-74352795D01*
X166517286Y-74352795D02*
X166532140Y-74446654D01*
X166532140Y-74446654D02*
X166565840Y-74534511D01*
X166565840Y-74534511D02*
X166616528Y-74613770D01*
X166616528Y-74613770D02*
X166682345Y-74681836D01*
X166682345Y-74681836D02*
X166761434Y-74736112D01*
X166761434Y-74736112D02*
X166851934Y-74774002D01*
X166851934Y-74774002D02*
X166903200Y-74786426D01*
X166903200Y-74786426D02*
X166947698Y-74793947D01*
X166947698Y-74793947D02*
X166981999Y-74796919D01*
X166981999Y-74796919D02*
X167014960Y-74795094D01*
X167014960Y-74795094D02*
X167055434Y-74788225D01*
X167055434Y-74788225D02*
X167088531Y-74781250D01*
X167088531Y-74781250D02*
X167181947Y-74749741D01*
X167181947Y-74749741D02*
X167265619Y-74698617D01*
X167265619Y-74698617D02*
X167337665Y-74629429D01*
X167337665Y-74629429D02*
X167396200Y-74543728D01*
X167396200Y-74543728D02*
X167410148Y-74516489D01*
X167410148Y-74516489D02*
X167426586Y-74480122D01*
X167426586Y-74480122D02*
X167436894Y-74449582D01*
X167436894Y-74449582D02*
X167442460Y-74417450D01*
X167442460Y-74417450D02*
X167444669Y-74376307D01*
X167444669Y-74376307D02*
X167444948Y-74330222D01*
X167444948Y-74330222D02*
X167440861Y-74245865D01*
X167440861Y-74245865D02*
X167427446Y-74176586D01*
X167427446Y-74176586D02*
X167402256Y-74115961D01*
X167402256Y-74115961D02*
X167362846Y-74057567D01*
X167362846Y-74057567D02*
X167324298Y-74013302D01*
X167324298Y-74013302D02*
X167252406Y-73947484D01*
X167252406Y-73947484D02*
X167177313Y-73902053D01*
X167177313Y-73902053D02*
X167094562Y-73874850D01*
X167094562Y-73874850D02*
X167016928Y-73864576D01*
X167016928Y-73864576D02*
X166913043Y-73868571D01*
X166913043Y-73868571D02*
X166913043Y-73868571D01*
G36*
X167094562Y-73874850D02*
G01*
X167177313Y-73902053D01*
X167252406Y-73947484D01*
X167324298Y-74013302D01*
X167362846Y-74057567D01*
X167402256Y-74115961D01*
X167427446Y-74176586D01*
X167440861Y-74245865D01*
X167444948Y-74330222D01*
X167444669Y-74376307D01*
X167442460Y-74417450D01*
X167436894Y-74449582D01*
X167426586Y-74480122D01*
X167410148Y-74516489D01*
X167396200Y-74543728D01*
X167337665Y-74629429D01*
X167265619Y-74698617D01*
X167181947Y-74749741D01*
X167088531Y-74781250D01*
X167055434Y-74788225D01*
X167014960Y-74795094D01*
X166981999Y-74796919D01*
X166947698Y-74793947D01*
X166903200Y-74786426D01*
X166851934Y-74774002D01*
X166761434Y-74736112D01*
X166682345Y-74681836D01*
X166616528Y-74613770D01*
X166565840Y-74534511D01*
X166532140Y-74446654D01*
X166517286Y-74352795D01*
X166523136Y-74255530D01*
X166549399Y-74159220D01*
X166594418Y-74070494D01*
X166655373Y-73995419D01*
X166730184Y-73935641D01*
X166816768Y-73892809D01*
X166913043Y-73868571D01*
X167016928Y-73864576D01*
X167094562Y-73874850D01*
G37*
X167094562Y-73874850D02*
X167177313Y-73902053D01*
X167252406Y-73947484D01*
X167324298Y-74013302D01*
X167362846Y-74057567D01*
X167402256Y-74115961D01*
X167427446Y-74176586D01*
X167440861Y-74245865D01*
X167444948Y-74330222D01*
X167444669Y-74376307D01*
X167442460Y-74417450D01*
X167436894Y-74449582D01*
X167426586Y-74480122D01*
X167410148Y-74516489D01*
X167396200Y-74543728D01*
X167337665Y-74629429D01*
X167265619Y-74698617D01*
X167181947Y-74749741D01*
X167088531Y-74781250D01*
X167055434Y-74788225D01*
X167014960Y-74795094D01*
X166981999Y-74796919D01*
X166947698Y-74793947D01*
X166903200Y-74786426D01*
X166851934Y-74774002D01*
X166761434Y-74736112D01*
X166682345Y-74681836D01*
X166616528Y-74613770D01*
X166565840Y-74534511D01*
X166532140Y-74446654D01*
X166517286Y-74352795D01*
X166523136Y-74255530D01*
X166549399Y-74159220D01*
X166594418Y-74070494D01*
X166655373Y-73995419D01*
X166730184Y-73935641D01*
X166816768Y-73892809D01*
X166913043Y-73868571D01*
X167016928Y-73864576D01*
X167094562Y-73874850D01*
X164409657Y-79111260D02*
X164333299Y-79112174D01*
X164333299Y-79112174D02*
X164274783Y-79114311D01*
X164274783Y-79114311D02*
X164231745Y-79118175D01*
X164231745Y-79118175D02*
X164201817Y-79124267D01*
X164201817Y-79124267D02*
X164182632Y-79133090D01*
X164182632Y-79133090D02*
X164171824Y-79145146D01*
X164171824Y-79145146D02*
X164167027Y-79160939D01*
X164167027Y-79160939D02*
X164165873Y-79180970D01*
X164165873Y-79180970D02*
X164165867Y-79183335D01*
X164165867Y-79183335D02*
X164166869Y-79205992D01*
X164166869Y-79205992D02*
X164171604Y-79223503D01*
X164171604Y-79223503D02*
X164182667Y-79236574D01*
X164182667Y-79236574D02*
X164202652Y-79245913D01*
X164202652Y-79245913D02*
X164234154Y-79252227D01*
X164234154Y-79252227D02*
X164279768Y-79256222D01*
X164279768Y-79256222D02*
X164342087Y-79258606D01*
X164342087Y-79258606D02*
X164423707Y-79260086D01*
X164423707Y-79260086D02*
X164448723Y-79260414D01*
X164448723Y-79260414D02*
X164690800Y-79263467D01*
X164690800Y-79263467D02*
X164694186Y-79328378D01*
X164694186Y-79328378D02*
X164697571Y-79393289D01*
X164697571Y-79393289D02*
X164529424Y-79393289D01*
X164529424Y-79393289D02*
X164463734Y-79393531D01*
X164463734Y-79393531D02*
X164416828Y-79394556D01*
X164416828Y-79394556D02*
X164384917Y-79396811D01*
X164384917Y-79396811D02*
X164364209Y-79400742D01*
X164364209Y-79400742D02*
X164350916Y-79406798D01*
X164350916Y-79406798D02*
X164341245Y-79415424D01*
X164341245Y-79415424D02*
X164341183Y-79415493D01*
X164341183Y-79415493D02*
X164323644Y-79449112D01*
X164323644Y-79449112D02*
X164324278Y-79485448D01*
X164324278Y-79485448D02*
X164342686Y-79516423D01*
X164342686Y-79516423D02*
X164346329Y-79519607D01*
X164346329Y-79519607D02*
X164359259Y-79527812D01*
X164359259Y-79527812D02*
X164376976Y-79533521D01*
X164376976Y-79533521D02*
X164403430Y-79537162D01*
X164403430Y-79537162D02*
X164442568Y-79539167D01*
X164442568Y-79539167D02*
X164498338Y-79539964D01*
X164498338Y-79539964D02*
X164534006Y-79540045D01*
X164534006Y-79540045D02*
X164696445Y-79540045D01*
X164696445Y-79540045D02*
X164696445Y-79698089D01*
X164696445Y-79698089D02*
X164449839Y-79698089D01*
X164449839Y-79698089D02*
X164368420Y-79698231D01*
X164368420Y-79698231D02*
X164306590Y-79698814D01*
X164306590Y-79698814D02*
X164261363Y-79700068D01*
X164261363Y-79700068D02*
X164229752Y-79702227D01*
X164229752Y-79702227D02*
X164208769Y-79705523D01*
X164208769Y-79705523D02*
X164195427Y-79710189D01*
X164195427Y-79710189D02*
X164186739Y-79716457D01*
X164186739Y-79716457D02*
X164184550Y-79718733D01*
X164184550Y-79718733D02*
X164168386Y-79750280D01*
X164168386Y-79750280D02*
X164167203Y-79786168D01*
X164167203Y-79786168D02*
X164180464Y-79817285D01*
X164180464Y-79817285D02*
X164190957Y-79827271D01*
X164190957Y-79827271D02*
X164201871Y-79832769D01*
X164201871Y-79832769D02*
X164218783Y-79837022D01*
X164218783Y-79837022D02*
X164244367Y-79840180D01*
X164244367Y-79840180D02*
X164281299Y-79842392D01*
X164281299Y-79842392D02*
X164332254Y-79843806D01*
X164332254Y-79843806D02*
X164399906Y-79844572D01*
X164399906Y-79844572D02*
X164486931Y-79844838D01*
X164486931Y-79844838D02*
X164506606Y-79844845D01*
X164506606Y-79844845D02*
X164595089Y-79844787D01*
X164595089Y-79844787D02*
X164663773Y-79844467D01*
X164663773Y-79844467D02*
X164715436Y-79843667D01*
X164715436Y-79843667D02*
X164752855Y-79842167D01*
X164752855Y-79842167D02*
X164778810Y-79839749D01*
X164778810Y-79839749D02*
X164796078Y-79836194D01*
X164796078Y-79836194D02*
X164807438Y-79831282D01*
X164807438Y-79831282D02*
X164815668Y-79824795D01*
X164815668Y-79824795D02*
X164820183Y-79820138D01*
X164820183Y-79820138D02*
X164826979Y-79811889D01*
X164826979Y-79811889D02*
X164832288Y-79801669D01*
X164832288Y-79801669D02*
X164836294Y-79786800D01*
X164836294Y-79786800D02*
X164839179Y-79764602D01*
X164839179Y-79764602D02*
X164841126Y-79732393D01*
X164841126Y-79732393D02*
X164842319Y-79687496D01*
X164842319Y-79687496D02*
X164842939Y-79627228D01*
X164842939Y-79627228D02*
X164843171Y-79548911D01*
X164843171Y-79548911D02*
X164843200Y-79482994D01*
X164843200Y-79482994D02*
X164843129Y-79390628D01*
X164843129Y-79390628D02*
X164842792Y-79318117D01*
X164842792Y-79318117D02*
X164842002Y-79262737D01*
X164842002Y-79262737D02*
X164840574Y-79221765D01*
X164840574Y-79221765D02*
X164838321Y-79192478D01*
X164838321Y-79192478D02*
X164835057Y-79172153D01*
X164835057Y-79172153D02*
X164830596Y-79158066D01*
X164830596Y-79158066D02*
X164824752Y-79147495D01*
X164824752Y-79147495D02*
X164819803Y-79140811D01*
X164819803Y-79140811D02*
X164796406Y-79111067D01*
X164796406Y-79111067D02*
X164506226Y-79111067D01*
X164506226Y-79111067D02*
X164409657Y-79111260D01*
X164409657Y-79111260D02*
X164409657Y-79111260D01*
G36*
X164819803Y-79140811D02*
G01*
X164824752Y-79147495D01*
X164830596Y-79158066D01*
X164835057Y-79172153D01*
X164838321Y-79192478D01*
X164840574Y-79221765D01*
X164842002Y-79262737D01*
X164842792Y-79318117D01*
X164843129Y-79390628D01*
X164843200Y-79482994D01*
X164843171Y-79548911D01*
X164842939Y-79627228D01*
X164842319Y-79687496D01*
X164841126Y-79732393D01*
X164839179Y-79764602D01*
X164836294Y-79786800D01*
X164832288Y-79801669D01*
X164826979Y-79811889D01*
X164820183Y-79820138D01*
X164815668Y-79824795D01*
X164807438Y-79831282D01*
X164796078Y-79836194D01*
X164778810Y-79839749D01*
X164752855Y-79842167D01*
X164715436Y-79843667D01*
X164663773Y-79844467D01*
X164595089Y-79844787D01*
X164506606Y-79844845D01*
X164486931Y-79844838D01*
X164399906Y-79844572D01*
X164332254Y-79843806D01*
X164281299Y-79842392D01*
X164244367Y-79840180D01*
X164218783Y-79837022D01*
X164201871Y-79832769D01*
X164190957Y-79827271D01*
X164180464Y-79817285D01*
X164167203Y-79786168D01*
X164168386Y-79750280D01*
X164184550Y-79718733D01*
X164186739Y-79716457D01*
X164195427Y-79710189D01*
X164208769Y-79705523D01*
X164229752Y-79702227D01*
X164261363Y-79700068D01*
X164306590Y-79698814D01*
X164368420Y-79698231D01*
X164449839Y-79698089D01*
X164696445Y-79698089D01*
X164696445Y-79540045D01*
X164534006Y-79540045D01*
X164498338Y-79539964D01*
X164442568Y-79539167D01*
X164403430Y-79537162D01*
X164376976Y-79533521D01*
X164359259Y-79527812D01*
X164346329Y-79519607D01*
X164342686Y-79516423D01*
X164324278Y-79485448D01*
X164323644Y-79449112D01*
X164341183Y-79415493D01*
X164341245Y-79415424D01*
X164350916Y-79406798D01*
X164364209Y-79400742D01*
X164384917Y-79396811D01*
X164416828Y-79394556D01*
X164463734Y-79393531D01*
X164529424Y-79393289D01*
X164697571Y-79393289D01*
X164694186Y-79328378D01*
X164690800Y-79263467D01*
X164448723Y-79260414D01*
X164423707Y-79260086D01*
X164342087Y-79258606D01*
X164279768Y-79256222D01*
X164234154Y-79252227D01*
X164202652Y-79245913D01*
X164182667Y-79236574D01*
X164171604Y-79223503D01*
X164166869Y-79205992D01*
X164165867Y-79183335D01*
X164165873Y-79180970D01*
X164167027Y-79160939D01*
X164171824Y-79145146D01*
X164182632Y-79133090D01*
X164201817Y-79124267D01*
X164231745Y-79118175D01*
X164274783Y-79114311D01*
X164333299Y-79112174D01*
X164409657Y-79111260D01*
X164506226Y-79111067D01*
X164796406Y-79111067D01*
X164819803Y-79140811D01*
G37*
X164819803Y-79140811D02*
X164824752Y-79147495D01*
X164830596Y-79158066D01*
X164835057Y-79172153D01*
X164838321Y-79192478D01*
X164840574Y-79221765D01*
X164842002Y-79262737D01*
X164842792Y-79318117D01*
X164843129Y-79390628D01*
X164843200Y-79482994D01*
X164843171Y-79548911D01*
X164842939Y-79627228D01*
X164842319Y-79687496D01*
X164841126Y-79732393D01*
X164839179Y-79764602D01*
X164836294Y-79786800D01*
X164832288Y-79801669D01*
X164826979Y-79811889D01*
X164820183Y-79820138D01*
X164815668Y-79824795D01*
X164807438Y-79831282D01*
X164796078Y-79836194D01*
X164778810Y-79839749D01*
X164752855Y-79842167D01*
X164715436Y-79843667D01*
X164663773Y-79844467D01*
X164595089Y-79844787D01*
X164506606Y-79844845D01*
X164486931Y-79844838D01*
X164399906Y-79844572D01*
X164332254Y-79843806D01*
X164281299Y-79842392D01*
X164244367Y-79840180D01*
X164218783Y-79837022D01*
X164201871Y-79832769D01*
X164190957Y-79827271D01*
X164180464Y-79817285D01*
X164167203Y-79786168D01*
X164168386Y-79750280D01*
X164184550Y-79718733D01*
X164186739Y-79716457D01*
X164195427Y-79710189D01*
X164208769Y-79705523D01*
X164229752Y-79702227D01*
X164261363Y-79700068D01*
X164306590Y-79698814D01*
X164368420Y-79698231D01*
X164449839Y-79698089D01*
X164696445Y-79698089D01*
X164696445Y-79540045D01*
X164534006Y-79540045D01*
X164498338Y-79539964D01*
X164442568Y-79539167D01*
X164403430Y-79537162D01*
X164376976Y-79533521D01*
X164359259Y-79527812D01*
X164346329Y-79519607D01*
X164342686Y-79516423D01*
X164324278Y-79485448D01*
X164323644Y-79449112D01*
X164341183Y-79415493D01*
X164341245Y-79415424D01*
X164350916Y-79406798D01*
X164364209Y-79400742D01*
X164384917Y-79396811D01*
X164416828Y-79394556D01*
X164463734Y-79393531D01*
X164529424Y-79393289D01*
X164697571Y-79393289D01*
X164694186Y-79328378D01*
X164690800Y-79263467D01*
X164448723Y-79260414D01*
X164423707Y-79260086D01*
X164342087Y-79258606D01*
X164279768Y-79256222D01*
X164234154Y-79252227D01*
X164202652Y-79245913D01*
X164182667Y-79236574D01*
X164171604Y-79223503D01*
X164166869Y-79205992D01*
X164165867Y-79183335D01*
X164165873Y-79180970D01*
X164167027Y-79160939D01*
X164171824Y-79145146D01*
X164182632Y-79133090D01*
X164201817Y-79124267D01*
X164231745Y-79118175D01*
X164274783Y-79114311D01*
X164333299Y-79112174D01*
X164409657Y-79111260D01*
X164506226Y-79111067D01*
X164796406Y-79111067D01*
X164819803Y-79140811D01*
X160895335Y-79113034D02*
X160875745Y-79120035D01*
X160875745Y-79120035D02*
X160874990Y-79120377D01*
X160874990Y-79120377D02*
X160848387Y-79140678D01*
X160848387Y-79140678D02*
X160833730Y-79161561D01*
X160833730Y-79161561D02*
X160830862Y-79171352D01*
X160830862Y-79171352D02*
X160831004Y-79184361D01*
X160831004Y-79184361D02*
X160835039Y-79202895D01*
X160835039Y-79202895D02*
X160843854Y-79229257D01*
X160843854Y-79229257D02*
X160858331Y-79265752D01*
X160858331Y-79265752D02*
X160879355Y-79314687D01*
X160879355Y-79314687D02*
X160907812Y-79378365D01*
X160907812Y-79378365D02*
X160944585Y-79459093D01*
X160944585Y-79459093D02*
X160964825Y-79503216D01*
X160964825Y-79503216D02*
X161001375Y-79581985D01*
X161001375Y-79581985D02*
X161035685Y-79654423D01*
X161035685Y-79654423D02*
X161066448Y-79717880D01*
X161066448Y-79717880D02*
X161092352Y-79769708D01*
X161092352Y-79769708D02*
X161112090Y-79807259D01*
X161112090Y-79807259D02*
X161124350Y-79827884D01*
X161124350Y-79827884D02*
X161126776Y-79830733D01*
X161126776Y-79830733D02*
X161157817Y-79843302D01*
X161157817Y-79843302D02*
X161192879Y-79841619D01*
X161192879Y-79841619D02*
X161221000Y-79826332D01*
X161221000Y-79826332D02*
X161222146Y-79825089D01*
X161222146Y-79825089D02*
X161233332Y-79808154D01*
X161233332Y-79808154D02*
X161252096Y-79775170D01*
X161252096Y-79775170D02*
X161276125Y-79730380D01*
X161276125Y-79730380D02*
X161303103Y-79678032D01*
X161303103Y-79678032D02*
X161312799Y-79658742D01*
X161312799Y-79658742D02*
X161385986Y-79512150D01*
X161385986Y-79512150D02*
X161465760Y-79671393D01*
X161465760Y-79671393D02*
X161494233Y-79726415D01*
X161494233Y-79726415D02*
X161520650Y-79774132D01*
X161520650Y-79774132D02*
X161542852Y-79810893D01*
X161542852Y-79810893D02*
X161558681Y-79833044D01*
X161558681Y-79833044D02*
X161564046Y-79837741D01*
X161564046Y-79837741D02*
X161605743Y-79844102D01*
X161605743Y-79844102D02*
X161640151Y-79830733D01*
X161640151Y-79830733D02*
X161650272Y-79816446D01*
X161650272Y-79816446D02*
X161667786Y-79784692D01*
X161667786Y-79784692D02*
X161691265Y-79738597D01*
X161691265Y-79738597D02*
X161719280Y-79681285D01*
X161719280Y-79681285D02*
X161750401Y-79615880D01*
X161750401Y-79615880D02*
X161783201Y-79545507D01*
X161783201Y-79545507D02*
X161816250Y-79473291D01*
X161816250Y-79473291D02*
X161848119Y-79402355D01*
X161848119Y-79402355D02*
X161877381Y-79335825D01*
X161877381Y-79335825D02*
X161902605Y-79276826D01*
X161902605Y-79276826D02*
X161922364Y-79228481D01*
X161922364Y-79228481D02*
X161935228Y-79193915D01*
X161935228Y-79193915D02*
X161939769Y-79176253D01*
X161939769Y-79176253D02*
X161939723Y-79175613D01*
X161939723Y-79175613D02*
X161928674Y-79153388D01*
X161928674Y-79153388D02*
X161906590Y-79130753D01*
X161906590Y-79130753D02*
X161905290Y-79129768D01*
X161905290Y-79129768D02*
X161878147Y-79114425D01*
X161878147Y-79114425D02*
X161853042Y-79114574D01*
X161853042Y-79114574D02*
X161843632Y-79117466D01*
X161843632Y-79117466D02*
X161832166Y-79123718D01*
X161832166Y-79123718D02*
X161819990Y-79136014D01*
X161819990Y-79136014D02*
X161805643Y-79156908D01*
X161805643Y-79156908D02*
X161787664Y-79188949D01*
X161787664Y-79188949D02*
X161764593Y-79234688D01*
X161764593Y-79234688D02*
X161734970Y-79296677D01*
X161734970Y-79296677D02*
X161708255Y-79353898D01*
X161708255Y-79353898D02*
X161677520Y-79420226D01*
X161677520Y-79420226D02*
X161649979Y-79479874D01*
X161649979Y-79479874D02*
X161627062Y-79529725D01*
X161627062Y-79529725D02*
X161610202Y-79566664D01*
X161610202Y-79566664D02*
X161600827Y-79587573D01*
X161600827Y-79587573D02*
X161599460Y-79590845D01*
X161599460Y-79590845D02*
X161593311Y-79585497D01*
X161593311Y-79585497D02*
X161579178Y-79563109D01*
X161579178Y-79563109D02*
X161558943Y-79526946D01*
X161558943Y-79526946D02*
X161534485Y-79480277D01*
X161534485Y-79480277D02*
X161524752Y-79461022D01*
X161524752Y-79461022D02*
X161491783Y-79396004D01*
X161491783Y-79396004D02*
X161466357Y-79348654D01*
X161466357Y-79348654D02*
X161446388Y-79316219D01*
X161446388Y-79316219D02*
X161429790Y-79295946D01*
X161429790Y-79295946D02*
X161414476Y-79285082D01*
X161414476Y-79285082D02*
X161398360Y-79280875D01*
X161398360Y-79280875D02*
X161387857Y-79280400D01*
X161387857Y-79280400D02*
X161369330Y-79282042D01*
X161369330Y-79282042D02*
X161353096Y-79288831D01*
X161353096Y-79288831D02*
X161336965Y-79303566D01*
X161336965Y-79303566D02*
X161318749Y-79329044D01*
X161318749Y-79329044D02*
X161296261Y-79368061D01*
X161296261Y-79368061D02*
X161267311Y-79423414D01*
X161267311Y-79423414D02*
X161251338Y-79454903D01*
X161251338Y-79454903D02*
X161225430Y-79505087D01*
X161225430Y-79505087D02*
X161202833Y-79546704D01*
X161202833Y-79546704D02*
X161185542Y-79576242D01*
X161185542Y-79576242D02*
X161175550Y-79590189D01*
X161175550Y-79590189D02*
X161174191Y-79590770D01*
X161174191Y-79590770D02*
X161167739Y-79579793D01*
X161167739Y-79579793D02*
X161153292Y-79551290D01*
X161153292Y-79551290D02*
X161132297Y-79508244D01*
X161132297Y-79508244D02*
X161106203Y-79453638D01*
X161106203Y-79453638D02*
X161076454Y-79390454D01*
X161076454Y-79390454D02*
X161061820Y-79359071D01*
X161061820Y-79359071D02*
X161023750Y-79278078D01*
X161023750Y-79278078D02*
X160993095Y-79215756D01*
X160993095Y-79215756D02*
X160968263Y-79170071D01*
X160968263Y-79170071D02*
X160947663Y-79138989D01*
X160947663Y-79138989D02*
X160929702Y-79120478D01*
X160929702Y-79120478D02*
X160912790Y-79112504D01*
X160912790Y-79112504D02*
X160895335Y-79113034D01*
X160895335Y-79113034D02*
X160895335Y-79113034D01*
G36*
X160929702Y-79120478D02*
G01*
X160947663Y-79138989D01*
X160968263Y-79170071D01*
X160993095Y-79215756D01*
X161023750Y-79278078D01*
X161061820Y-79359071D01*
X161076454Y-79390454D01*
X161106203Y-79453638D01*
X161132297Y-79508244D01*
X161153292Y-79551290D01*
X161167739Y-79579793D01*
X161174191Y-79590770D01*
X161175550Y-79590189D01*
X161185542Y-79576242D01*
X161202833Y-79546704D01*
X161225430Y-79505087D01*
X161251338Y-79454903D01*
X161267311Y-79423414D01*
X161296261Y-79368061D01*
X161318749Y-79329044D01*
X161336965Y-79303566D01*
X161353096Y-79288831D01*
X161369330Y-79282042D01*
X161387857Y-79280400D01*
X161398360Y-79280875D01*
X161414476Y-79285082D01*
X161429790Y-79295946D01*
X161446388Y-79316219D01*
X161466357Y-79348654D01*
X161491783Y-79396004D01*
X161524752Y-79461022D01*
X161534485Y-79480277D01*
X161558943Y-79526946D01*
X161579178Y-79563109D01*
X161593311Y-79585497D01*
X161599460Y-79590845D01*
X161600827Y-79587573D01*
X161610202Y-79566664D01*
X161627062Y-79529725D01*
X161649979Y-79479874D01*
X161677520Y-79420226D01*
X161708255Y-79353898D01*
X161734970Y-79296677D01*
X161764593Y-79234688D01*
X161787664Y-79188949D01*
X161805643Y-79156908D01*
X161819990Y-79136014D01*
X161832166Y-79123718D01*
X161843632Y-79117466D01*
X161853042Y-79114574D01*
X161878147Y-79114425D01*
X161905290Y-79129768D01*
X161906590Y-79130753D01*
X161928674Y-79153388D01*
X161939723Y-79175613D01*
X161939769Y-79176253D01*
X161935228Y-79193915D01*
X161922364Y-79228481D01*
X161902605Y-79276826D01*
X161877381Y-79335825D01*
X161848119Y-79402355D01*
X161816250Y-79473291D01*
X161783201Y-79545507D01*
X161750401Y-79615880D01*
X161719280Y-79681285D01*
X161691265Y-79738597D01*
X161667786Y-79784692D01*
X161650272Y-79816446D01*
X161640151Y-79830733D01*
X161605743Y-79844102D01*
X161564046Y-79837741D01*
X161558681Y-79833044D01*
X161542852Y-79810893D01*
X161520650Y-79774132D01*
X161494233Y-79726415D01*
X161465760Y-79671393D01*
X161385986Y-79512150D01*
X161312799Y-79658742D01*
X161303103Y-79678032D01*
X161276125Y-79730380D01*
X161252096Y-79775170D01*
X161233332Y-79808154D01*
X161222146Y-79825089D01*
X161221000Y-79826332D01*
X161192879Y-79841619D01*
X161157817Y-79843302D01*
X161126776Y-79830733D01*
X161124350Y-79827884D01*
X161112090Y-79807259D01*
X161092352Y-79769708D01*
X161066448Y-79717880D01*
X161035685Y-79654423D01*
X161001375Y-79581985D01*
X160964825Y-79503216D01*
X160944585Y-79459093D01*
X160907812Y-79378365D01*
X160879355Y-79314687D01*
X160858331Y-79265752D01*
X160843854Y-79229257D01*
X160835039Y-79202895D01*
X160831004Y-79184361D01*
X160830862Y-79171352D01*
X160833730Y-79161561D01*
X160848387Y-79140678D01*
X160874990Y-79120377D01*
X160875745Y-79120035D01*
X160895335Y-79113034D01*
X160912790Y-79112504D01*
X160929702Y-79120478D01*
G37*
X160929702Y-79120478D02*
X160947663Y-79138989D01*
X160968263Y-79170071D01*
X160993095Y-79215756D01*
X161023750Y-79278078D01*
X161061820Y-79359071D01*
X161076454Y-79390454D01*
X161106203Y-79453638D01*
X161132297Y-79508244D01*
X161153292Y-79551290D01*
X161167739Y-79579793D01*
X161174191Y-79590770D01*
X161175550Y-79590189D01*
X161185542Y-79576242D01*
X161202833Y-79546704D01*
X161225430Y-79505087D01*
X161251338Y-79454903D01*
X161267311Y-79423414D01*
X161296261Y-79368061D01*
X161318749Y-79329044D01*
X161336965Y-79303566D01*
X161353096Y-79288831D01*
X161369330Y-79282042D01*
X161387857Y-79280400D01*
X161398360Y-79280875D01*
X161414476Y-79285082D01*
X161429790Y-79295946D01*
X161446388Y-79316219D01*
X161466357Y-79348654D01*
X161491783Y-79396004D01*
X161524752Y-79461022D01*
X161534485Y-79480277D01*
X161558943Y-79526946D01*
X161579178Y-79563109D01*
X161593311Y-79585497D01*
X161599460Y-79590845D01*
X161600827Y-79587573D01*
X161610202Y-79566664D01*
X161627062Y-79529725D01*
X161649979Y-79479874D01*
X161677520Y-79420226D01*
X161708255Y-79353898D01*
X161734970Y-79296677D01*
X161764593Y-79234688D01*
X161787664Y-79188949D01*
X161805643Y-79156908D01*
X161819990Y-79136014D01*
X161832166Y-79123718D01*
X161843632Y-79117466D01*
X161853042Y-79114574D01*
X161878147Y-79114425D01*
X161905290Y-79129768D01*
X161906590Y-79130753D01*
X161928674Y-79153388D01*
X161939723Y-79175613D01*
X161939769Y-79176253D01*
X161935228Y-79193915D01*
X161922364Y-79228481D01*
X161902605Y-79276826D01*
X161877381Y-79335825D01*
X161848119Y-79402355D01*
X161816250Y-79473291D01*
X161783201Y-79545507D01*
X161750401Y-79615880D01*
X161719280Y-79681285D01*
X161691265Y-79738597D01*
X161667786Y-79784692D01*
X161650272Y-79816446D01*
X161640151Y-79830733D01*
X161605743Y-79844102D01*
X161564046Y-79837741D01*
X161558681Y-79833044D01*
X161542852Y-79810893D01*
X161520650Y-79774132D01*
X161494233Y-79726415D01*
X161465760Y-79671393D01*
X161385986Y-79512150D01*
X161312799Y-79658742D01*
X161303103Y-79678032D01*
X161276125Y-79730380D01*
X161252096Y-79775170D01*
X161233332Y-79808154D01*
X161222146Y-79825089D01*
X161221000Y-79826332D01*
X161192879Y-79841619D01*
X161157817Y-79843302D01*
X161126776Y-79830733D01*
X161124350Y-79827884D01*
X161112090Y-79807259D01*
X161092352Y-79769708D01*
X161066448Y-79717880D01*
X161035685Y-79654423D01*
X161001375Y-79581985D01*
X160964825Y-79503216D01*
X160944585Y-79459093D01*
X160907812Y-79378365D01*
X160879355Y-79314687D01*
X160858331Y-79265752D01*
X160843854Y-79229257D01*
X160835039Y-79202895D01*
X160831004Y-79184361D01*
X160830862Y-79171352D01*
X160833730Y-79161561D01*
X160848387Y-79140678D01*
X160874990Y-79120377D01*
X160875745Y-79120035D01*
X160895335Y-79113034D01*
X160912790Y-79112504D01*
X160929702Y-79120478D01*
X158453493Y-76314245D02*
X158453474Y-76548662D01*
X158453474Y-76548662D02*
X158453448Y-76761603D01*
X158453448Y-76761603D02*
X158453375Y-76954168D01*
X158453375Y-76954168D02*
X158453218Y-77127459D01*
X158453218Y-77127459D02*
X158452936Y-77282576D01*
X158452936Y-77282576D02*
X158452491Y-77420620D01*
X158452491Y-77420620D02*
X158451844Y-77542692D01*
X158451844Y-77542692D02*
X158450955Y-77649894D01*
X158450955Y-77649894D02*
X158449787Y-77743326D01*
X158449787Y-77743326D02*
X158448299Y-77824090D01*
X158448299Y-77824090D02*
X158446454Y-77893286D01*
X158446454Y-77893286D02*
X158444211Y-77952015D01*
X158444211Y-77952015D02*
X158441531Y-78001379D01*
X158441531Y-78001379D02*
X158438377Y-78042478D01*
X158438377Y-78042478D02*
X158434708Y-78076413D01*
X158434708Y-78076413D02*
X158430487Y-78104286D01*
X158430487Y-78104286D02*
X158425673Y-78127198D01*
X158425673Y-78127198D02*
X158420227Y-78146249D01*
X158420227Y-78146249D02*
X158414112Y-78162540D01*
X158414112Y-78162540D02*
X158407288Y-78177173D01*
X158407288Y-78177173D02*
X158399715Y-78191249D01*
X158399715Y-78191249D02*
X158391355Y-78205868D01*
X158391355Y-78205868D02*
X158386161Y-78214974D01*
X158386161Y-78214974D02*
X158351896Y-78275689D01*
X158351896Y-78275689D02*
X159210045Y-78275689D01*
X159210045Y-78275689D02*
X159210045Y-78179733D01*
X159210045Y-78179733D02*
X159210776Y-78136370D01*
X159210776Y-78136370D02*
X159212728Y-78103205D01*
X159212728Y-78103205D02*
X159215537Y-78085424D01*
X159215537Y-78085424D02*
X159216779Y-78083778D01*
X159216779Y-78083778D02*
X159228201Y-78090662D01*
X159228201Y-78090662D02*
X159250916Y-78108505D01*
X159250916Y-78108505D02*
X159273615Y-78127879D01*
X159273615Y-78127879D02*
X159328200Y-78168614D01*
X159328200Y-78168614D02*
X159397679Y-78209617D01*
X159397679Y-78209617D02*
X159474730Y-78247123D01*
X159474730Y-78247123D02*
X159552035Y-78277364D01*
X159552035Y-78277364D02*
X159582887Y-78287012D01*
X159582887Y-78287012D02*
X159651384Y-78301578D01*
X159651384Y-78301578D02*
X159734236Y-78311539D01*
X159734236Y-78311539D02*
X159823629Y-78316583D01*
X159823629Y-78316583D02*
X159911752Y-78316396D01*
X159911752Y-78316396D02*
X159990793Y-78310666D01*
X159990793Y-78310666D02*
X160028489Y-78304858D01*
X160028489Y-78304858D02*
X160166586Y-78266797D01*
X160166586Y-78266797D02*
X160293887Y-78209073D01*
X160293887Y-78209073D02*
X160409708Y-78132211D01*
X160409708Y-78132211D02*
X160513363Y-78036739D01*
X160513363Y-78036739D02*
X160604167Y-77923179D01*
X160604167Y-77923179D02*
X160670969Y-77812381D01*
X160670969Y-77812381D02*
X160725836Y-77695625D01*
X160725836Y-77695625D02*
X160767837Y-77576276D01*
X160767837Y-77576276D02*
X160797833Y-77450283D01*
X160797833Y-77450283D02*
X160816689Y-77313594D01*
X160816689Y-77313594D02*
X160825268Y-77162158D01*
X160825268Y-77162158D02*
X160825994Y-77084711D01*
X160825994Y-77084711D02*
X160823900Y-77027934D01*
X160823900Y-77027934D02*
X159994783Y-77027934D01*
X159994783Y-77027934D02*
X159994576Y-77121002D01*
X159994576Y-77121002D02*
X159991663Y-77208692D01*
X159991663Y-77208692D02*
X159986000Y-77285772D01*
X159986000Y-77285772D02*
X159977545Y-77347009D01*
X159977545Y-77347009D02*
X159974962Y-77359350D01*
X159974962Y-77359350D02*
X159943160Y-77466633D01*
X159943160Y-77466633D02*
X159901502Y-77553658D01*
X159901502Y-77553658D02*
X159849637Y-77620642D01*
X159849637Y-77620642D02*
X159787219Y-77667805D01*
X159787219Y-77667805D02*
X159713900Y-77695365D01*
X159713900Y-77695365D02*
X159629331Y-77703541D01*
X159629331Y-77703541D02*
X159533165Y-77692551D01*
X159533165Y-77692551D02*
X159469689Y-77676829D01*
X159469689Y-77676829D02*
X159420546Y-77658639D01*
X159420546Y-77658639D02*
X159366417Y-77632791D01*
X159366417Y-77632791D02*
X159325756Y-77609089D01*
X159325756Y-77609089D02*
X159255200Y-77562721D01*
X159255200Y-77562721D02*
X159255200Y-76412530D01*
X159255200Y-76412530D02*
X159322608Y-76368962D01*
X159322608Y-76368962D02*
X159401133Y-76328040D01*
X159401133Y-76328040D02*
X159485319Y-76301389D01*
X159485319Y-76301389D02*
X159570443Y-76289465D01*
X159570443Y-76289465D02*
X159651784Y-76292722D01*
X159651784Y-76292722D02*
X159724620Y-76311615D01*
X159724620Y-76311615D02*
X159756574Y-76327184D01*
X159756574Y-76327184D02*
X159814499Y-76370181D01*
X159814499Y-76370181D02*
X159863456Y-76426953D01*
X159863456Y-76426953D02*
X159904610Y-76499575D01*
X159904610Y-76499575D02*
X159939126Y-76590121D01*
X159939126Y-76590121D02*
X159968167Y-76700666D01*
X159968167Y-76700666D02*
X159969448Y-76706533D01*
X159969448Y-76706533D02*
X159979619Y-76768788D01*
X159979619Y-76768788D02*
X159987261Y-76846594D01*
X159987261Y-76846594D02*
X159992330Y-76934720D01*
X159992330Y-76934720D02*
X159994783Y-77027934D01*
X159994783Y-77027934D02*
X160823900Y-77027934D01*
X160823900Y-77027934D02*
X160818143Y-76871895D01*
X160818143Y-76871895D02*
X160796198Y-76676059D01*
X160796198Y-76676059D02*
X160760214Y-76497332D01*
X160760214Y-76497332D02*
X160710241Y-76335845D01*
X160710241Y-76335845D02*
X160646332Y-76191726D01*
X160646332Y-76191726D02*
X160568538Y-76065106D01*
X160568538Y-76065106D02*
X160476911Y-75956115D01*
X160476911Y-75956115D02*
X160371503Y-75864883D01*
X160371503Y-75864883D02*
X160326338Y-75833932D01*
X160326338Y-75833932D02*
X160225389Y-75777785D01*
X160225389Y-75777785D02*
X160122099Y-75738174D01*
X160122099Y-75738174D02*
X160012011Y-75714014D01*
X160012011Y-75714014D02*
X159890670Y-75704219D01*
X159890670Y-75704219D02*
X159798164Y-75705265D01*
X159798164Y-75705265D02*
X159668510Y-75716231D01*
X159668510Y-75716231D02*
X159555916Y-75738046D01*
X159555916Y-75738046D02*
X159457125Y-75771714D01*
X159457125Y-75771714D02*
X159368879Y-75818236D01*
X159368879Y-75818236D02*
X159320014Y-75852448D01*
X159320014Y-75852448D02*
X159290647Y-75874362D01*
X159290647Y-75874362D02*
X159268957Y-75889333D01*
X159268957Y-75889333D02*
X159260747Y-75893733D01*
X159260747Y-75893733D02*
X159259132Y-75882904D01*
X159259132Y-75882904D02*
X159257841Y-75852251D01*
X159257841Y-75852251D02*
X159256862Y-75804526D01*
X159256862Y-75804526D02*
X159256183Y-75742479D01*
X159256183Y-75742479D02*
X159255790Y-75668862D01*
X159255790Y-75668862D02*
X159255670Y-75586427D01*
X159255670Y-75586427D02*
X159255812Y-75497925D01*
X159255812Y-75497925D02*
X159256203Y-75406107D01*
X159256203Y-75406107D02*
X159256829Y-75313724D01*
X159256829Y-75313724D02*
X159257680Y-75223528D01*
X159257680Y-75223528D02*
X159258740Y-75138271D01*
X159258740Y-75138271D02*
X159259999Y-75060703D01*
X159259999Y-75060703D02*
X159261444Y-74993576D01*
X159261444Y-74993576D02*
X159263062Y-74939641D01*
X159263062Y-74939641D02*
X159264839Y-74901650D01*
X159264839Y-74901650D02*
X159265331Y-74894667D01*
X159265331Y-74894667D02*
X159272908Y-74824251D01*
X159272908Y-74824251D02*
X159284469Y-74769102D01*
X159284469Y-74769102D02*
X159302208Y-74721981D01*
X159302208Y-74721981D02*
X159328318Y-74675647D01*
X159328318Y-74675647D02*
X159334585Y-74666067D01*
X159334585Y-74666067D02*
X159359017Y-74629378D01*
X159359017Y-74629378D02*
X158453689Y-74629378D01*
X158453689Y-74629378D02*
X158453493Y-76314245D01*
X158453493Y-76314245D02*
X158453493Y-76314245D01*
G36*
X160825268Y-77162158D02*
G01*
X160816689Y-77313594D01*
X160797833Y-77450283D01*
X160767837Y-77576276D01*
X160725836Y-77695625D01*
X160670969Y-77812381D01*
X160604167Y-77923179D01*
X160513363Y-78036739D01*
X160409708Y-78132211D01*
X160293887Y-78209073D01*
X160166586Y-78266797D01*
X160028489Y-78304858D01*
X159990793Y-78310666D01*
X159911752Y-78316396D01*
X159823629Y-78316583D01*
X159734236Y-78311539D01*
X159651384Y-78301578D01*
X159582887Y-78287012D01*
X159552035Y-78277364D01*
X159474730Y-78247123D01*
X159397679Y-78209617D01*
X159328200Y-78168614D01*
X159273615Y-78127879D01*
X159250916Y-78108505D01*
X159228201Y-78090662D01*
X159216779Y-78083778D01*
X159215537Y-78085424D01*
X159212728Y-78103205D01*
X159210776Y-78136370D01*
X159210045Y-78179733D01*
X159210045Y-78275689D01*
X158351896Y-78275689D01*
X158386161Y-78214974D01*
X158391355Y-78205868D01*
X158399715Y-78191249D01*
X158407288Y-78177173D01*
X158414112Y-78162540D01*
X158420227Y-78146249D01*
X158425673Y-78127198D01*
X158430487Y-78104286D01*
X158434708Y-78076413D01*
X158438377Y-78042478D01*
X158441531Y-78001379D01*
X158444211Y-77952015D01*
X158446454Y-77893286D01*
X158448299Y-77824090D01*
X158449787Y-77743326D01*
X158450955Y-77649894D01*
X158451678Y-77562721D01*
X159255200Y-77562721D01*
X159325756Y-77609089D01*
X159366417Y-77632791D01*
X159420546Y-77658639D01*
X159469689Y-77676829D01*
X159533165Y-77692551D01*
X159629331Y-77703541D01*
X159713900Y-77695365D01*
X159787219Y-77667805D01*
X159849637Y-77620642D01*
X159901502Y-77553658D01*
X159943160Y-77466633D01*
X159974962Y-77359350D01*
X159977545Y-77347009D01*
X159986000Y-77285772D01*
X159991663Y-77208692D01*
X159994576Y-77121002D01*
X159994783Y-77027934D01*
X159992330Y-76934720D01*
X159987261Y-76846594D01*
X159979619Y-76768788D01*
X159969448Y-76706533D01*
X159968167Y-76700666D01*
X159939126Y-76590121D01*
X159904610Y-76499575D01*
X159863456Y-76426953D01*
X159814499Y-76370181D01*
X159756574Y-76327184D01*
X159724620Y-76311615D01*
X159651784Y-76292722D01*
X159570443Y-76289465D01*
X159485319Y-76301389D01*
X159401133Y-76328040D01*
X159322608Y-76368962D01*
X159255200Y-76412530D01*
X159255200Y-77562721D01*
X158451678Y-77562721D01*
X158451844Y-77542692D01*
X158452491Y-77420620D01*
X158452936Y-77282576D01*
X158453218Y-77127459D01*
X158453375Y-76954168D01*
X158453448Y-76761603D01*
X158453474Y-76548662D01*
X158453493Y-76314245D01*
X158453689Y-74629378D01*
X159359017Y-74629378D01*
X159334585Y-74666067D01*
X159328318Y-74675647D01*
X159302208Y-74721981D01*
X159284469Y-74769102D01*
X159272908Y-74824251D01*
X159265331Y-74894667D01*
X159264839Y-74901650D01*
X159263062Y-74939641D01*
X159261444Y-74993576D01*
X159259999Y-75060703D01*
X159258740Y-75138271D01*
X159257680Y-75223528D01*
X159256829Y-75313724D01*
X159256203Y-75406107D01*
X159255812Y-75497925D01*
X159255670Y-75586427D01*
X159255790Y-75668862D01*
X159256183Y-75742479D01*
X159256862Y-75804526D01*
X159257841Y-75852251D01*
X159259132Y-75882904D01*
X159260747Y-75893733D01*
X159268957Y-75889333D01*
X159290647Y-75874362D01*
X159320014Y-75852448D01*
X159368879Y-75818236D01*
X159457125Y-75771714D01*
X159555916Y-75738046D01*
X159668510Y-75716231D01*
X159798164Y-75705265D01*
X159890670Y-75704219D01*
X160012011Y-75714014D01*
X160122099Y-75738174D01*
X160225389Y-75777785D01*
X160326338Y-75833932D01*
X160371503Y-75864883D01*
X160476911Y-75956115D01*
X160568538Y-76065106D01*
X160646332Y-76191726D01*
X160710241Y-76335845D01*
X160760214Y-76497332D01*
X160796198Y-76676059D01*
X160818143Y-76871895D01*
X160823900Y-77027934D01*
X160825994Y-77084711D01*
X160825268Y-77162158D01*
G37*
X160825268Y-77162158D02*
X160816689Y-77313594D01*
X160797833Y-77450283D01*
X160767837Y-77576276D01*
X160725836Y-77695625D01*
X160670969Y-77812381D01*
X160604167Y-77923179D01*
X160513363Y-78036739D01*
X160409708Y-78132211D01*
X160293887Y-78209073D01*
X160166586Y-78266797D01*
X160028489Y-78304858D01*
X159990793Y-78310666D01*
X159911752Y-78316396D01*
X159823629Y-78316583D01*
X159734236Y-78311539D01*
X159651384Y-78301578D01*
X159582887Y-78287012D01*
X159552035Y-78277364D01*
X159474730Y-78247123D01*
X159397679Y-78209617D01*
X159328200Y-78168614D01*
X159273615Y-78127879D01*
X159250916Y-78108505D01*
X159228201Y-78090662D01*
X159216779Y-78083778D01*
X159215537Y-78085424D01*
X159212728Y-78103205D01*
X159210776Y-78136370D01*
X159210045Y-78179733D01*
X159210045Y-78275689D01*
X158351896Y-78275689D01*
X158386161Y-78214974D01*
X158391355Y-78205868D01*
X158399715Y-78191249D01*
X158407288Y-78177173D01*
X158414112Y-78162540D01*
X158420227Y-78146249D01*
X158425673Y-78127198D01*
X158430487Y-78104286D01*
X158434708Y-78076413D01*
X158438377Y-78042478D01*
X158441531Y-78001379D01*
X158444211Y-77952015D01*
X158446454Y-77893286D01*
X158448299Y-77824090D01*
X158449787Y-77743326D01*
X158450955Y-77649894D01*
X158451678Y-77562721D01*
X159255200Y-77562721D01*
X159325756Y-77609089D01*
X159366417Y-77632791D01*
X159420546Y-77658639D01*
X159469689Y-77676829D01*
X159533165Y-77692551D01*
X159629331Y-77703541D01*
X159713900Y-77695365D01*
X159787219Y-77667805D01*
X159849637Y-77620642D01*
X159901502Y-77553658D01*
X159943160Y-77466633D01*
X159974962Y-77359350D01*
X159977545Y-77347009D01*
X159986000Y-77285772D01*
X159991663Y-77208692D01*
X159994576Y-77121002D01*
X159994783Y-77027934D01*
X159992330Y-76934720D01*
X159987261Y-76846594D01*
X159979619Y-76768788D01*
X159969448Y-76706533D01*
X159968167Y-76700666D01*
X159939126Y-76590121D01*
X159904610Y-76499575D01*
X159863456Y-76426953D01*
X159814499Y-76370181D01*
X159756574Y-76327184D01*
X159724620Y-76311615D01*
X159651784Y-76292722D01*
X159570443Y-76289465D01*
X159485319Y-76301389D01*
X159401133Y-76328040D01*
X159322608Y-76368962D01*
X159255200Y-76412530D01*
X159255200Y-77562721D01*
X158451678Y-77562721D01*
X158451844Y-77542692D01*
X158452491Y-77420620D01*
X158452936Y-77282576D01*
X158453218Y-77127459D01*
X158453375Y-76954168D01*
X158453448Y-76761603D01*
X158453474Y-76548662D01*
X158453493Y-76314245D01*
X158453689Y-74629378D01*
X159359017Y-74629378D01*
X159334585Y-74666067D01*
X159328318Y-74675647D01*
X159302208Y-74721981D01*
X159284469Y-74769102D01*
X159272908Y-74824251D01*
X159265331Y-74894667D01*
X159264839Y-74901650D01*
X159263062Y-74939641D01*
X159261444Y-74993576D01*
X159259999Y-75060703D01*
X159258740Y-75138271D01*
X159257680Y-75223528D01*
X159256829Y-75313724D01*
X159256203Y-75406107D01*
X159255812Y-75497925D01*
X159255670Y-75586427D01*
X159255790Y-75668862D01*
X159256183Y-75742479D01*
X159256862Y-75804526D01*
X159257841Y-75852251D01*
X159259132Y-75882904D01*
X159260747Y-75893733D01*
X159268957Y-75889333D01*
X159290647Y-75874362D01*
X159320014Y-75852448D01*
X159368879Y-75818236D01*
X159457125Y-75771714D01*
X159555916Y-75738046D01*
X159668510Y-75716231D01*
X159798164Y-75705265D01*
X159890670Y-75704219D01*
X160012011Y-75714014D01*
X160122099Y-75738174D01*
X160225389Y-75777785D01*
X160326338Y-75833932D01*
X160371503Y-75864883D01*
X160476911Y-75956115D01*
X160568538Y-76065106D01*
X160646332Y-76191726D01*
X160710241Y-76335845D01*
X160760214Y-76497332D01*
X160796198Y-76676059D01*
X160818143Y-76871895D01*
X160823900Y-77027934D01*
X160825994Y-77084711D01*
X160825268Y-77162158D01*
%TD*%
M02*
