%TF.GenerationSoftware,KiCad,Pcbnew,(6.0.0-0)*%
%TF.CreationDate,2022-09-02T10:43:53-04:00*%
%TF.ProjectId,Dome_Controller,446f6d65-5f43-46f6-9e74-726f6c6c6572,rev?*%
%TF.SameCoordinates,Original*%
%TF.FileFunction,Copper,L4,Bot*%
%TF.FilePolarity,Positive*%
%FSLAX46Y46*%
G04 Gerber Fmt 4.6, Leading zero omitted, Abs format (unit mm)*
G04 Created by KiCad (PCBNEW (6.0.0-0)) date 2022-09-02 10:43:53*
%MOMM*%
%LPD*%
G01*
G04 APERTURE LIST*
%TA.AperFunction,ComponentPad*%
%ADD10R,2.400000X2.400000*%
%TD*%
%TA.AperFunction,ComponentPad*%
%ADD11C,2.400000*%
%TD*%
%TA.AperFunction,ComponentPad*%
%ADD12O,0.890000X1.550000*%
%TD*%
%TA.AperFunction,ComponentPad*%
%ADD13O,1.250000X0.950000*%
%TD*%
%TA.AperFunction,WasherPad*%
%ADD14C,3.400000*%
%TD*%
%TA.AperFunction,ComponentPad*%
%ADD15R,1.700000X1.700000*%
%TD*%
%TA.AperFunction,ComponentPad*%
%ADD16O,1.700000X1.700000*%
%TD*%
%TA.AperFunction,ComponentPad*%
%ADD17C,1.524000*%
%TD*%
%TA.AperFunction,ComponentPad*%
%ADD18C,2.300000*%
%TD*%
%TA.AperFunction,ViaPad*%
%ADD19C,0.800000*%
%TD*%
%TA.AperFunction,Conductor*%
%ADD20C,0.254000*%
%TD*%
%TA.AperFunction,Conductor*%
%ADD21C,0.500000*%
%TD*%
G04 APERTURE END LIST*
D10*
%TO.P,J5,1,Pin_1*%
%TO.N,GND*%
X87780000Y-66000000D03*
D11*
%TO.P,J5,2,Pin_2*%
%TO.N,+12V*%
X84280000Y-66000000D03*
%TD*%
D10*
%TO.P,J8,1,Pin_1*%
%TO.N,GND*%
X93190000Y-99570000D03*
D11*
%TO.P,J8,2,Pin_2*%
%TO.N,+5V*%
X96690000Y-99570000D03*
%TD*%
D12*
%TO.P,J1,6,Shield*%
%TO.N,unconnected-(J1-Pad6)*%
X118400000Y-108450000D03*
D13*
X117400000Y-105750000D03*
X112400000Y-105750000D03*
D12*
X111400000Y-108450000D03*
%TD*%
D10*
%TO.P,J9,1,Pin_1*%
%TO.N,GND*%
X102060000Y-99570000D03*
D11*
%TO.P,J9,2,Pin_2*%
%TO.N,+5V*%
X105560000Y-99570000D03*
%TD*%
D14*
%TO.P,REF\u002A\u002A,*%
%TO.N,*%
X77000000Y-61000000D03*
%TD*%
D15*
%TO.P,J3,1,Pin_1*%
%TO.N,GND*%
X139210000Y-67040000D03*
D16*
%TO.P,J3,2,Pin_2*%
X141750000Y-67040000D03*
%TO.P,J3,3,Pin_3*%
%TO.N,RX_RS*%
X139210000Y-69580000D03*
%TO.P,J3,4,Pin_4*%
%TO.N,RX_HP*%
X141750000Y-69580000D03*
%TO.P,J3,5,Pin_5*%
%TO.N,TX_RS*%
X139210000Y-72120000D03*
%TO.P,J3,6,Pin_6*%
%TO.N,TX_HP*%
X141750000Y-72120000D03*
%TD*%
D14*
%TO.P,REF\u002A\u002A,*%
%TO.N,*%
X77000000Y-103000000D03*
%TD*%
D15*
%TO.P,J2,1,Pin_1*%
%TO.N,GND*%
X142610000Y-81150000D03*
D16*
%TO.P,J2,2,Pin_2*%
%TO.N,unconnected-(J2-Pad2)*%
X142610000Y-83690000D03*
%TO.P,J2,3,Pin_3*%
%TO.N,SCL*%
X142610000Y-86230000D03*
%TO.P,J2,4,Pin_4*%
%TO.N,SDA*%
X142610000Y-88770000D03*
%TO.P,J2,5,Pin_5*%
%TO.N,+3.3V*%
X142610000Y-91310000D03*
%TO.P,J2,6,Pin_6*%
%TO.N,+5V*%
X142610000Y-93850000D03*
%TD*%
D14*
%TO.P,REF\u002A\u002A,*%
%TO.N,*%
X148000000Y-103000000D03*
%TD*%
D15*
%TO.P,J4,1,Pin_1*%
%TO.N,GND*%
X142050000Y-76320000D03*
D16*
%TO.P,J4,2,Pin_2*%
%TO.N,+5V*%
X139510000Y-76320000D03*
%TO.P,J4,3,Pin_3*%
%TO.N,CL_D*%
X136970000Y-76320000D03*
%TD*%
D14*
%TO.P,REF\u002A\u002A,*%
%TO.N,*%
X148000000Y-61000000D03*
%TD*%
D15*
%TO.P,J10,1,Pin_1*%
%TO.N,GND*%
X134870000Y-67020000D03*
D16*
%TO.P,J10,2,Pin_2*%
%TO.N,RX_FU*%
X134870000Y-69560000D03*
%TO.P,J10,3,Pin_3*%
%TO.N,TX_FU*%
X134870000Y-72100000D03*
%TD*%
D10*
%TO.P,J7,1,Pin_1*%
%TO.N,GND*%
X84230000Y-99650000D03*
D11*
%TO.P,J7,2,Pin_2*%
%TO.N,+5V*%
X87730000Y-99650000D03*
%TD*%
D17*
%TO.P,U6,1,VOUT*%
%TO.N,+5V*%
X75035000Y-76185000D03*
%TO.P,U6,2,GND*%
%TO.N,GND*%
X75035000Y-78725000D03*
%TO.P,U6,3,GND*%
X75035000Y-81265000D03*
%TO.P,U6,4,VIN*%
%TO.N,+12V*%
X75035000Y-83805000D03*
%TO.P,U6,5,VRP*%
%TO.N,unconnected-(U6-Pad5)*%
X75035000Y-86345000D03*
%TO.P,U6,6,EN*%
%TO.N,unconnected-(U6-Pad6)*%
X75035000Y-88885000D03*
%TO.P,U6,7,PG*%
%TO.N,unconnected-(U6-Pad7)*%
X77575000Y-88885000D03*
%TO.P,U6,8,VRP*%
%TO.N,unconnected-(U6-Pad8)*%
X77575000Y-86345000D03*
%TO.P,U6,9,VIN*%
%TO.N,+12V*%
X77575000Y-83805000D03*
%TO.P,U6,10,GND*%
%TO.N,GND*%
X77575000Y-81265000D03*
%TO.P,U6,11,GND*%
X77575000Y-78725000D03*
%TO.P,U6,12,VOUT*%
%TO.N,+5V*%
X77575000Y-76185000D03*
D18*
%TO.P,U6,13*%
%TO.N,N/C*%
X75965000Y-71935000D03*
%TO.P,U6,14*%
X75965000Y-93135000D03*
%TO.P,U6,15*%
X96965000Y-93135000D03*
%TD*%
D10*
%TO.P,J6,1,Pin_1*%
%TO.N,GND*%
X97850000Y-65930000D03*
D11*
%TO.P,J6,2,Pin_2*%
%TO.N,+12V*%
X94350000Y-65930000D03*
%TD*%
D19*
%TO.N,RX_FU*%
X111650000Y-85410000D03*
%TO.N,D-*%
X132870000Y-86910000D03*
X113545000Y-103815000D03*
%TO.N,D+*%
X133110000Y-85340000D03*
X115200000Y-103660000D03*
%TO.N,+5V*%
X118995000Y-104205000D03*
%TO.N,RX_RS*%
X111490000Y-79760000D03*
%TO.N,RX_HP*%
X122220000Y-84920000D03*
%TO.N,TX_RS*%
X111890000Y-81220000D03*
%TO.N,TX_HP*%
X123940000Y-83780000D03*
%TO.N,CL_D*%
X112090000Y-82520000D03*
%TO.N,ST_LED_D*%
X124270000Y-81410000D03*
X122020000Y-100770000D03*
%TO.N,TX_FU*%
X111960000Y-84020000D03*
%TO.N,GPIO0*%
X127970000Y-86730000D03*
X138230000Y-85740000D03*
%TO.N,TXD0*%
X128480000Y-75350000D03*
X132412337Y-82183784D03*
%TO.N,RXD0*%
X132480000Y-80810000D03*
X128400000Y-73720000D03*
%TO.N,RESET*%
X110635000Y-95045000D03*
X111280000Y-73950000D03*
X140055000Y-82385000D03*
%TD*%
D20*
%TO.N,RX_FU*%
X109120000Y-82880000D02*
X111650000Y-85410000D01*
X109120000Y-78750000D02*
X109120000Y-82880000D01*
X117850000Y-70020000D02*
X109120000Y-78750000D01*
X134410000Y-70020000D02*
X117850000Y-70020000D01*
X134870000Y-69560000D02*
X134410000Y-70020000D01*
D21*
%TO.N,+5V*%
X75035000Y-76185000D02*
X77575000Y-76185000D01*
X97550000Y-96900000D02*
X104220000Y-96900000D01*
X87730000Y-98530000D02*
X89460000Y-96800000D01*
X136890000Y-99570000D02*
X142610000Y-93850000D01*
X96690000Y-97760000D02*
X97550000Y-96900000D01*
X145580000Y-90880000D02*
X145580000Y-79550000D01*
X104220000Y-96900000D02*
X105560000Y-98240000D01*
X145580000Y-79550000D02*
X144500000Y-78470000D01*
X105560000Y-98240000D02*
X105560000Y-99570000D01*
X87730000Y-99650000D02*
X87730000Y-98530000D01*
X144500000Y-78470000D02*
X141660000Y-78470000D01*
X82800000Y-94720000D02*
X87730000Y-99650000D01*
X96690000Y-99570000D02*
X96690000Y-97760000D01*
X95460000Y-96800000D02*
X96690000Y-98030000D01*
X77575000Y-76185000D02*
X82800000Y-81410000D01*
X89460000Y-96800000D02*
X95460000Y-96800000D01*
X142610000Y-93850000D02*
X145580000Y-90880000D01*
X105560000Y-99570000D02*
X136890000Y-99570000D01*
X141660000Y-78470000D02*
X139510000Y-76320000D01*
X96690000Y-98030000D02*
X96690000Y-99570000D01*
X82800000Y-81410000D02*
X82800000Y-94720000D01*
D20*
%TO.N,RX_RS*%
X136570000Y-72890000D02*
X136570000Y-72220000D01*
X136020000Y-73440000D02*
X136570000Y-72890000D01*
X111490000Y-79760000D02*
X120020000Y-71230000D01*
X120020000Y-71230000D02*
X131400000Y-71230000D01*
X136570000Y-72220000D02*
X139210000Y-69580000D01*
X131400000Y-71230000D02*
X133610000Y-73440000D01*
X133610000Y-73440000D02*
X136020000Y-73440000D01*
%TO.N,RX_HP*%
X140573489Y-72607328D02*
X140573489Y-70756511D01*
X138833777Y-74347040D02*
X140573489Y-72607328D01*
X122220000Y-84920000D02*
X122220000Y-74040000D01*
X133234292Y-74347040D02*
X138833777Y-74347040D01*
X131300772Y-72413520D02*
X133234292Y-74347040D01*
X122220000Y-74040000D02*
X123846480Y-72413520D01*
X140573489Y-70756511D02*
X141750000Y-69580000D01*
X123846480Y-72413520D02*
X131300772Y-72413520D01*
%TO.N,TX_RS*%
X133422146Y-73893520D02*
X131488626Y-71960000D01*
X137436480Y-73893520D02*
X133422146Y-73893520D01*
X139210000Y-72120000D02*
X137436480Y-73893520D01*
X121150000Y-71960000D02*
X111890000Y-81220000D01*
X131488626Y-71960000D02*
X121150000Y-71960000D01*
%TO.N,TX_HP*%
X124252960Y-72867040D02*
X131112918Y-72867040D01*
X123490000Y-83780000D02*
X122673520Y-82963520D01*
X122673520Y-82963520D02*
X122673520Y-74446480D01*
X123940000Y-83780000D02*
X123490000Y-83780000D01*
X131112918Y-72867040D02*
X133046438Y-74800560D01*
X139069440Y-74800560D02*
X141750000Y-72120000D01*
X122673520Y-74446480D02*
X124252960Y-72867040D01*
X133046438Y-74800560D02*
X139069440Y-74800560D01*
%TO.N,CL_D*%
X115830000Y-86260000D02*
X112090000Y-82520000D01*
X136970000Y-76320000D02*
X135310000Y-76320000D01*
X133206511Y-82417053D02*
X132713269Y-82910295D01*
X123340000Y-86260000D02*
X115830000Y-86260000D01*
X135310000Y-76320000D02*
X133206511Y-78423489D01*
X132713269Y-82910295D02*
X126689705Y-82910295D01*
X133206511Y-78423489D02*
X133206511Y-82417053D01*
X126689705Y-82910295D02*
X123340000Y-86260000D01*
%TO.N,TX_FU*%
X110763489Y-82823489D02*
X110763489Y-79456511D01*
X133440000Y-70670000D02*
X134870000Y-72100000D01*
X111960000Y-84020000D02*
X110763489Y-82823489D01*
X119550000Y-70670000D02*
X133440000Y-70670000D01*
X110763489Y-79456511D02*
X119550000Y-70670000D01*
%TO.N,GPIO0*%
X128930000Y-85770000D02*
X128930000Y-84830000D01*
X127970000Y-86730000D02*
X128930000Y-85770000D01*
X136690000Y-84200000D02*
X138230000Y-85740000D01*
X129560000Y-84200000D02*
X136690000Y-84200000D01*
X128930000Y-84830000D02*
X129560000Y-84200000D01*
%TO.N,TXD0*%
X128480000Y-78251447D02*
X132412337Y-82183784D01*
X128480000Y-75350000D02*
X128480000Y-78251447D01*
%TO.N,RXD0*%
X132480000Y-77800000D02*
X132480000Y-80810000D01*
X128400000Y-73720000D02*
X132480000Y-77800000D01*
%TO.N,RESET*%
X107760000Y-93360000D02*
X109445000Y-95045000D01*
X122215000Y-95045000D02*
X110635000Y-95045000D01*
X126470000Y-86648626D02*
X126470000Y-89320000D01*
X109445000Y-95045000D02*
X110635000Y-95045000D01*
X107760000Y-76180000D02*
X107760000Y-93360000D01*
X111280000Y-73950000D02*
X109660000Y-75570000D01*
X140055000Y-82385000D02*
X138780000Y-83660000D01*
X124490000Y-91300000D02*
X124490000Y-92770000D01*
X108370000Y-75570000D02*
X107760000Y-76180000D01*
X129458626Y-83660000D02*
X126470000Y-86648626D01*
X138780000Y-83660000D02*
X129458626Y-83660000D01*
X109660000Y-75570000D02*
X108370000Y-75570000D01*
X124490000Y-92770000D02*
X122215000Y-95045000D01*
X126470000Y-89320000D02*
X124490000Y-91300000D01*
%TD*%
%TA.AperFunction,Conductor*%
%TO.N,GND*%
G36*
X151145992Y-58018912D02*
G01*
X151213934Y-58039511D01*
X151259954Y-58093572D01*
X151270883Y-58144008D01*
X151485109Y-88242815D01*
X151491997Y-89210579D01*
X151492000Y-89211476D01*
X151492000Y-108472776D01*
X151471998Y-108540897D01*
X151418342Y-108587390D01*
X151365417Y-108598775D01*
X119478914Y-108451133D01*
X119410889Y-108430816D01*
X119364645Y-108376946D01*
X119353500Y-108325135D01*
X119353500Y-108071592D01*
X119338842Y-107927284D01*
X119280915Y-107742439D01*
X119187003Y-107573018D01*
X119119063Y-107493751D01*
X119065102Y-107430793D01*
X119065100Y-107430791D01*
X119060943Y-107425941D01*
X118972443Y-107357293D01*
X118912933Y-107311132D01*
X118912930Y-107311130D01*
X118907884Y-107307216D01*
X118734077Y-107221693D01*
X118727907Y-107220086D01*
X118727902Y-107220084D01*
X118552806Y-107174475D01*
X118552803Y-107174475D01*
X118546624Y-107172865D01*
X118455938Y-107168112D01*
X118359563Y-107163061D01*
X118359559Y-107163061D01*
X118353182Y-107162727D01*
X118199678Y-107185942D01*
X118167965Y-107190738D01*
X118167964Y-107190738D01*
X118161651Y-107191693D01*
X118155663Y-107193896D01*
X118155660Y-107193897D01*
X118088735Y-107218521D01*
X117979858Y-107258581D01*
X117974442Y-107261939D01*
X117974438Y-107261941D01*
X117820650Y-107357293D01*
X117820646Y-107357296D01*
X117815227Y-107360656D01*
X117674483Y-107493751D01*
X117563377Y-107652427D01*
X117486446Y-107830204D01*
X117446833Y-108019818D01*
X117446500Y-108026172D01*
X117446500Y-108315138D01*
X117426498Y-108383259D01*
X117372842Y-108429752D01*
X117319919Y-108441137D01*
X112478916Y-108418722D01*
X112410889Y-108398404D01*
X112364645Y-108344534D01*
X112353500Y-108292723D01*
X112353500Y-108071592D01*
X112338842Y-107927284D01*
X112280915Y-107742439D01*
X112187003Y-107573018D01*
X112119063Y-107493751D01*
X112065102Y-107430793D01*
X112065100Y-107430791D01*
X112060943Y-107425941D01*
X111972443Y-107357293D01*
X111912933Y-107311132D01*
X111912930Y-107311130D01*
X111907884Y-107307216D01*
X111734077Y-107221693D01*
X111727907Y-107220086D01*
X111727902Y-107220084D01*
X111552806Y-107174475D01*
X111552803Y-107174475D01*
X111546624Y-107172865D01*
X111455938Y-107168112D01*
X111359563Y-107163061D01*
X111359559Y-107163061D01*
X111353182Y-107162727D01*
X111199678Y-107185942D01*
X111167965Y-107190738D01*
X111167964Y-107190738D01*
X111161651Y-107191693D01*
X111155663Y-107193896D01*
X111155660Y-107193897D01*
X111088735Y-107218521D01*
X110979858Y-107258581D01*
X110974442Y-107261939D01*
X110974438Y-107261941D01*
X110820650Y-107357293D01*
X110820646Y-107357296D01*
X110815227Y-107360656D01*
X110674483Y-107493751D01*
X110563377Y-107652427D01*
X110486446Y-107830204D01*
X110446833Y-108019818D01*
X110446500Y-108026172D01*
X110446500Y-108282726D01*
X110426498Y-108350847D01*
X110372842Y-108397340D01*
X110319917Y-108408725D01*
X74004923Y-108240578D01*
X73936895Y-108220260D01*
X73890651Y-108166390D01*
X73879507Y-108115077D01*
X73870355Y-105798292D01*
X111262608Y-105798292D01*
X111292486Y-105995848D01*
X111361477Y-106183361D01*
X111466765Y-106353172D01*
X111604047Y-106498344D01*
X111767716Y-106612946D01*
X111951086Y-106692298D01*
X112146666Y-106733156D01*
X112151522Y-106733411D01*
X112151561Y-106733413D01*
X112151577Y-106733413D01*
X112153229Y-106733500D01*
X112599934Y-106733500D01*
X112629230Y-106730524D01*
X112742434Y-106719026D01*
X112742438Y-106719025D01*
X112748780Y-106718381D01*
X112882042Y-106676619D01*
X112933349Y-106660540D01*
X112933350Y-106660539D01*
X112939440Y-106658631D01*
X113114191Y-106561765D01*
X113265896Y-106431739D01*
X113269805Y-106426700D01*
X113384445Y-106278907D01*
X113384447Y-106278904D01*
X113388357Y-106273863D01*
X113476571Y-106094589D01*
X113526935Y-105901238D01*
X113532330Y-105798292D01*
X116262608Y-105798292D01*
X116292486Y-105995848D01*
X116361477Y-106183361D01*
X116466765Y-106353172D01*
X116604047Y-106498344D01*
X116767716Y-106612946D01*
X116951086Y-106692298D01*
X117146666Y-106733156D01*
X117151522Y-106733411D01*
X117151561Y-106733413D01*
X117151577Y-106733413D01*
X117153229Y-106733500D01*
X117599934Y-106733500D01*
X117629230Y-106730524D01*
X117742434Y-106719026D01*
X117742438Y-106719025D01*
X117748780Y-106718381D01*
X117882042Y-106676619D01*
X117933349Y-106660540D01*
X117933350Y-106660539D01*
X117939440Y-106658631D01*
X118114191Y-106561765D01*
X118265896Y-106431739D01*
X118269805Y-106426700D01*
X118384445Y-106278907D01*
X118384447Y-106278904D01*
X118388357Y-106273863D01*
X118476571Y-106094589D01*
X118526935Y-105901238D01*
X118537392Y-105701708D01*
X118507514Y-105504152D01*
X118438523Y-105316639D01*
X118435160Y-105311215D01*
X118435158Y-105311211D01*
X118333555Y-105147342D01*
X118314658Y-105078907D01*
X118335759Y-105011119D01*
X118390160Y-104965500D01*
X118460589Y-104956535D01*
X118514704Y-104979012D01*
X118532904Y-104992236D01*
X118532906Y-104992237D01*
X118538248Y-104996118D01*
X118544276Y-104998802D01*
X118544278Y-104998803D01*
X118706681Y-105071109D01*
X118712712Y-105073794D01*
X118806113Y-105093647D01*
X118893056Y-105112128D01*
X118893061Y-105112128D01*
X118899513Y-105113500D01*
X119090487Y-105113500D01*
X119096939Y-105112128D01*
X119096944Y-105112128D01*
X119183887Y-105093647D01*
X119277288Y-105073794D01*
X119283319Y-105071109D01*
X119445722Y-104998803D01*
X119445724Y-104998802D01*
X119451752Y-104996118D01*
X119606253Y-104883866D01*
X119641731Y-104844464D01*
X119729621Y-104746852D01*
X119729622Y-104746851D01*
X119734040Y-104741944D01*
X119829527Y-104576556D01*
X119888542Y-104394928D01*
X119893219Y-104350434D01*
X119907814Y-104211565D01*
X119908504Y-104205000D01*
X119888542Y-104015072D01*
X119829527Y-103833444D01*
X119734040Y-103668056D01*
X119726787Y-103660000D01*
X119610675Y-103531045D01*
X119610674Y-103531044D01*
X119606253Y-103526134D01*
X119501091Y-103449729D01*
X119457094Y-103417763D01*
X119457093Y-103417762D01*
X119451752Y-103413882D01*
X119445724Y-103411198D01*
X119445722Y-103411197D01*
X119283319Y-103338891D01*
X119283318Y-103338891D01*
X119277288Y-103336206D01*
X119183887Y-103316353D01*
X119096944Y-103297872D01*
X119096939Y-103297872D01*
X119090487Y-103296500D01*
X118899513Y-103296500D01*
X118893061Y-103297872D01*
X118893056Y-103297872D01*
X118806112Y-103316353D01*
X118712712Y-103336206D01*
X118706682Y-103338891D01*
X118706681Y-103338891D01*
X118544278Y-103411197D01*
X118544276Y-103411198D01*
X118538248Y-103413882D01*
X118532907Y-103417762D01*
X118532906Y-103417763D01*
X118488909Y-103449729D01*
X118383747Y-103526134D01*
X118379326Y-103531044D01*
X118379325Y-103531045D01*
X118263214Y-103660000D01*
X118255960Y-103668056D01*
X118160473Y-103833444D01*
X118101458Y-104015072D01*
X118081496Y-104205000D01*
X118082186Y-104211565D01*
X118096782Y-104350434D01*
X118101458Y-104394928D01*
X118160473Y-104576556D01*
X118163776Y-104582278D01*
X118163777Y-104582279D01*
X118179091Y-104608803D01*
X118255960Y-104741944D01*
X118260379Y-104746851D01*
X118261357Y-104748198D01*
X118285216Y-104815066D01*
X118269135Y-104884218D01*
X118218221Y-104933698D01*
X118148638Y-104947797D01*
X118087151Y-104925473D01*
X118032284Y-104887054D01*
X117848914Y-104807702D01*
X117653334Y-104766844D01*
X117648478Y-104766589D01*
X117648439Y-104766587D01*
X117648423Y-104766587D01*
X117646771Y-104766500D01*
X117200066Y-104766500D01*
X117186933Y-104767834D01*
X117057566Y-104780974D01*
X117057562Y-104780975D01*
X117051220Y-104781619D01*
X116959898Y-104810238D01*
X116866651Y-104839460D01*
X116866650Y-104839461D01*
X116860560Y-104841369D01*
X116685809Y-104938235D01*
X116680960Y-104942391D01*
X116559972Y-105046090D01*
X116534104Y-105068261D01*
X116530197Y-105073298D01*
X116530195Y-105073300D01*
X116415555Y-105221093D01*
X116415553Y-105221096D01*
X116411643Y-105226137D01*
X116323429Y-105405411D01*
X116273065Y-105598762D01*
X116262608Y-105798292D01*
X113532330Y-105798292D01*
X113537392Y-105701708D01*
X113507514Y-105504152D01*
X113438523Y-105316639D01*
X113333235Y-105146828D01*
X113323467Y-105136498D01*
X113200335Y-105006290D01*
X113195953Y-105001656D01*
X113032284Y-104887054D01*
X112848914Y-104807702D01*
X112653334Y-104766844D01*
X112648478Y-104766589D01*
X112648439Y-104766587D01*
X112648423Y-104766587D01*
X112646771Y-104766500D01*
X112200066Y-104766500D01*
X112186933Y-104767834D01*
X112057566Y-104780974D01*
X112057562Y-104780975D01*
X112051220Y-104781619D01*
X111959898Y-104810238D01*
X111866651Y-104839460D01*
X111866650Y-104839461D01*
X111860560Y-104841369D01*
X111685809Y-104938235D01*
X111680960Y-104942391D01*
X111559972Y-105046090D01*
X111534104Y-105068261D01*
X111530197Y-105073298D01*
X111530195Y-105073300D01*
X111415555Y-105221093D01*
X111415553Y-105221096D01*
X111411643Y-105226137D01*
X111323429Y-105405411D01*
X111273065Y-105598762D01*
X111262608Y-105798292D01*
X73870355Y-105798292D01*
X73859301Y-103000000D01*
X74786761Y-103000000D01*
X74787031Y-103004119D01*
X74796006Y-103141041D01*
X74805696Y-103288886D01*
X74806500Y-103292926D01*
X74806500Y-103292929D01*
X74852115Y-103522251D01*
X74862175Y-103572828D01*
X74863501Y-103576734D01*
X74863502Y-103576738D01*
X74952776Y-103839729D01*
X74955234Y-103846970D01*
X75083279Y-104106619D01*
X75244119Y-104347335D01*
X75246831Y-104350427D01*
X75246836Y-104350434D01*
X75400901Y-104526109D01*
X75435004Y-104564996D01*
X75438093Y-104567705D01*
X75649565Y-104753163D01*
X75649571Y-104753168D01*
X75652665Y-104755881D01*
X75893380Y-104916721D01*
X75897079Y-104918545D01*
X75897084Y-104918548D01*
X76149335Y-105042944D01*
X76153030Y-105044766D01*
X76156928Y-105046089D01*
X76156930Y-105046090D01*
X76423262Y-105136498D01*
X76423266Y-105136499D01*
X76427172Y-105137825D01*
X76431216Y-105138629D01*
X76431222Y-105138631D01*
X76707071Y-105193500D01*
X76707074Y-105193500D01*
X76711114Y-105194304D01*
X76715225Y-105194573D01*
X76715229Y-105194574D01*
X76995881Y-105212969D01*
X77000000Y-105213239D01*
X77004119Y-105212969D01*
X77284771Y-105194574D01*
X77284775Y-105194573D01*
X77288886Y-105194304D01*
X77292926Y-105193500D01*
X77292929Y-105193500D01*
X77568778Y-105138631D01*
X77568784Y-105138629D01*
X77572828Y-105137825D01*
X77576734Y-105136499D01*
X77576738Y-105136498D01*
X77843070Y-105046090D01*
X77843072Y-105046089D01*
X77846970Y-105044766D01*
X77850665Y-105042944D01*
X78102916Y-104918548D01*
X78102921Y-104918545D01*
X78106620Y-104916721D01*
X78347335Y-104755881D01*
X78350429Y-104753168D01*
X78350435Y-104753163D01*
X78561907Y-104567705D01*
X78564996Y-104564996D01*
X78599099Y-104526109D01*
X78753164Y-104350434D01*
X78753169Y-104350427D01*
X78755881Y-104347335D01*
X78916721Y-104106619D01*
X79044766Y-103846970D01*
X79047224Y-103839729D01*
X79055618Y-103815000D01*
X112631496Y-103815000D01*
X112651458Y-104004928D01*
X112710473Y-104186556D01*
X112713776Y-104192278D01*
X112713777Y-104192279D01*
X112717331Y-104198435D01*
X112805960Y-104351944D01*
X112810378Y-104356851D01*
X112810379Y-104356852D01*
X112897674Y-104453803D01*
X112933747Y-104493866D01*
X113027397Y-104561907D01*
X113055437Y-104582279D01*
X113088248Y-104606118D01*
X113094276Y-104608802D01*
X113094278Y-104608803D01*
X113256681Y-104681109D01*
X113262712Y-104683794D01*
X113356113Y-104703647D01*
X113443056Y-104722128D01*
X113443061Y-104722128D01*
X113449513Y-104723500D01*
X113640487Y-104723500D01*
X113646939Y-104722128D01*
X113646944Y-104722128D01*
X113733887Y-104703647D01*
X113827288Y-104683794D01*
X113833319Y-104681109D01*
X113995722Y-104608803D01*
X113995724Y-104608802D01*
X114001752Y-104606118D01*
X114034564Y-104582279D01*
X114062603Y-104561907D01*
X114156253Y-104493866D01*
X114192326Y-104453803D01*
X114279621Y-104356852D01*
X114279622Y-104356851D01*
X114284040Y-104351944D01*
X114320976Y-104287969D01*
X114372358Y-104238976D01*
X114442072Y-104225540D01*
X114507983Y-104251926D01*
X114523729Y-104266656D01*
X114588747Y-104338866D01*
X114743248Y-104451118D01*
X114749276Y-104453802D01*
X114749278Y-104453803D01*
X114839262Y-104493866D01*
X114917712Y-104528794D01*
X115011112Y-104548647D01*
X115098056Y-104567128D01*
X115098061Y-104567128D01*
X115104513Y-104568500D01*
X115295487Y-104568500D01*
X115301939Y-104567128D01*
X115301944Y-104567128D01*
X115388888Y-104548647D01*
X115482288Y-104528794D01*
X115560738Y-104493866D01*
X115650722Y-104453803D01*
X115650724Y-104453802D01*
X115656752Y-104451118D01*
X115811253Y-104338866D01*
X115925875Y-104211565D01*
X115934621Y-104201852D01*
X115934622Y-104201851D01*
X115939040Y-104196944D01*
X116034527Y-104031556D01*
X116093542Y-103849928D01*
X116113504Y-103660000D01*
X116103916Y-103568778D01*
X116094232Y-103476635D01*
X116094232Y-103476633D01*
X116093542Y-103470072D01*
X116034527Y-103288444D01*
X116028530Y-103278056D01*
X115949426Y-103141045D01*
X115939040Y-103123056D01*
X115849744Y-103023882D01*
X115828240Y-103000000D01*
X145786761Y-103000000D01*
X145787031Y-103004119D01*
X145796006Y-103141041D01*
X145805696Y-103288886D01*
X145806500Y-103292926D01*
X145806500Y-103292929D01*
X145852115Y-103522251D01*
X145862175Y-103572828D01*
X145863501Y-103576734D01*
X145863502Y-103576738D01*
X145952776Y-103839729D01*
X145955234Y-103846970D01*
X146083279Y-104106619D01*
X146244119Y-104347335D01*
X146246831Y-104350427D01*
X146246836Y-104350434D01*
X146400901Y-104526109D01*
X146435004Y-104564996D01*
X146438093Y-104567705D01*
X146649565Y-104753163D01*
X146649571Y-104753168D01*
X146652665Y-104755881D01*
X146893380Y-104916721D01*
X146897079Y-104918545D01*
X146897084Y-104918548D01*
X147149335Y-105042944D01*
X147153030Y-105044766D01*
X147156928Y-105046089D01*
X147156930Y-105046090D01*
X147423262Y-105136498D01*
X147423266Y-105136499D01*
X147427172Y-105137825D01*
X147431216Y-105138629D01*
X147431222Y-105138631D01*
X147707071Y-105193500D01*
X147707074Y-105193500D01*
X147711114Y-105194304D01*
X147715225Y-105194573D01*
X147715229Y-105194574D01*
X147995881Y-105212969D01*
X148000000Y-105213239D01*
X148004119Y-105212969D01*
X148284771Y-105194574D01*
X148284775Y-105194573D01*
X148288886Y-105194304D01*
X148292926Y-105193500D01*
X148292929Y-105193500D01*
X148568778Y-105138631D01*
X148568784Y-105138629D01*
X148572828Y-105137825D01*
X148576734Y-105136499D01*
X148576738Y-105136498D01*
X148843070Y-105046090D01*
X148843072Y-105046089D01*
X148846970Y-105044766D01*
X148850665Y-105042944D01*
X149102916Y-104918548D01*
X149102921Y-104918545D01*
X149106620Y-104916721D01*
X149347335Y-104755881D01*
X149350429Y-104753168D01*
X149350435Y-104753163D01*
X149561907Y-104567705D01*
X149564996Y-104564996D01*
X149599099Y-104526109D01*
X149753164Y-104350434D01*
X149753169Y-104350427D01*
X149755881Y-104347335D01*
X149916721Y-104106619D01*
X150044766Y-103846970D01*
X150047224Y-103839729D01*
X150136498Y-103576738D01*
X150136499Y-103576734D01*
X150137825Y-103572828D01*
X150147886Y-103522251D01*
X150193500Y-103292929D01*
X150193500Y-103292926D01*
X150194304Y-103288886D01*
X150203995Y-103141041D01*
X150212969Y-103004119D01*
X150213239Y-103000000D01*
X150209623Y-102944834D01*
X150194574Y-102715229D01*
X150194573Y-102715225D01*
X150194304Y-102711114D01*
X150137825Y-102427172D01*
X150044766Y-102153030D01*
X149916721Y-101893381D01*
X149755881Y-101652665D01*
X149753169Y-101649573D01*
X149753164Y-101649566D01*
X149567705Y-101438093D01*
X149564996Y-101435004D01*
X149482033Y-101362247D01*
X149350435Y-101246837D01*
X149350429Y-101246832D01*
X149347335Y-101244119D01*
X149106620Y-101083279D01*
X149102921Y-101081455D01*
X149102916Y-101081452D01*
X148850665Y-100957056D01*
X148850663Y-100957055D01*
X148846970Y-100955234D01*
X148688646Y-100901490D01*
X148576738Y-100863502D01*
X148576734Y-100863501D01*
X148572828Y-100862175D01*
X148568784Y-100861371D01*
X148568778Y-100861369D01*
X148292929Y-100806500D01*
X148292926Y-100806500D01*
X148288886Y-100805696D01*
X148284775Y-100805427D01*
X148284771Y-100805426D01*
X148004119Y-100787031D01*
X148000000Y-100786761D01*
X147995881Y-100787031D01*
X147715229Y-100805426D01*
X147715225Y-100805427D01*
X147711114Y-100805696D01*
X147707074Y-100806500D01*
X147707071Y-100806500D01*
X147431222Y-100861369D01*
X147431216Y-100861371D01*
X147427172Y-100862175D01*
X147423266Y-100863501D01*
X147423262Y-100863502D01*
X147311354Y-100901490D01*
X147153030Y-100955234D01*
X147149337Y-100957055D01*
X147149335Y-100957056D01*
X147130781Y-100966206D01*
X146893381Y-101083279D01*
X146652665Y-101244119D01*
X146649573Y-101246831D01*
X146649566Y-101246836D01*
X146517967Y-101362247D01*
X146435004Y-101435004D01*
X146432295Y-101438093D01*
X146246836Y-101649566D01*
X146246831Y-101649573D01*
X146244119Y-101652665D01*
X146083279Y-101893381D01*
X145955234Y-102153030D01*
X145862175Y-102427172D01*
X145805696Y-102711114D01*
X145805427Y-102715225D01*
X145805426Y-102715229D01*
X145790377Y-102944834D01*
X145786761Y-103000000D01*
X115828240Y-103000000D01*
X115815675Y-102986045D01*
X115815674Y-102986044D01*
X115811253Y-102981134D01*
X115656752Y-102868882D01*
X115650724Y-102866198D01*
X115650722Y-102866197D01*
X115488319Y-102793891D01*
X115488318Y-102793891D01*
X115482288Y-102791206D01*
X115388887Y-102771353D01*
X115301944Y-102752872D01*
X115301939Y-102752872D01*
X115295487Y-102751500D01*
X115104513Y-102751500D01*
X115098061Y-102752872D01*
X115098056Y-102752872D01*
X115011112Y-102771353D01*
X114917712Y-102791206D01*
X114911682Y-102793891D01*
X114911681Y-102793891D01*
X114749278Y-102866197D01*
X114749276Y-102866198D01*
X114743248Y-102868882D01*
X114588747Y-102981134D01*
X114584326Y-102986044D01*
X114584325Y-102986045D01*
X114550257Y-103023882D01*
X114460960Y-103123056D01*
X114450574Y-103141045D01*
X114424024Y-103187031D01*
X114372642Y-103236024D01*
X114302928Y-103249460D01*
X114237017Y-103223074D01*
X114221269Y-103208342D01*
X114156253Y-103136134D01*
X114001752Y-103023882D01*
X113995724Y-103021198D01*
X113995722Y-103021197D01*
X113833319Y-102948891D01*
X113833318Y-102948891D01*
X113827288Y-102946206D01*
X113733887Y-102926353D01*
X113646944Y-102907872D01*
X113646939Y-102907872D01*
X113640487Y-102906500D01*
X113449513Y-102906500D01*
X113443061Y-102907872D01*
X113443056Y-102907872D01*
X113356112Y-102926353D01*
X113262712Y-102946206D01*
X113256682Y-102948891D01*
X113256681Y-102948891D01*
X113094278Y-103021197D01*
X113094276Y-103021198D01*
X113088248Y-103023882D01*
X112933747Y-103136134D01*
X112805960Y-103278056D01*
X112710473Y-103443444D01*
X112651458Y-103625072D01*
X112631496Y-103815000D01*
X79055618Y-103815000D01*
X79136498Y-103576738D01*
X79136499Y-103576734D01*
X79137825Y-103572828D01*
X79147886Y-103522251D01*
X79193500Y-103292929D01*
X79193500Y-103292926D01*
X79194304Y-103288886D01*
X79203995Y-103141041D01*
X79212969Y-103004119D01*
X79213239Y-103000000D01*
X79209623Y-102944834D01*
X79194574Y-102715229D01*
X79194573Y-102715225D01*
X79194304Y-102711114D01*
X79137825Y-102427172D01*
X79044766Y-102153030D01*
X78916721Y-101893381D01*
X78755881Y-101652665D01*
X78753169Y-101649573D01*
X78753164Y-101649566D01*
X78567705Y-101438093D01*
X78564996Y-101435004D01*
X78482033Y-101362247D01*
X78350435Y-101246837D01*
X78350429Y-101246832D01*
X78347335Y-101244119D01*
X78106620Y-101083279D01*
X78102921Y-101081455D01*
X78102916Y-101081452D01*
X77850665Y-100957056D01*
X77850663Y-100957055D01*
X77846970Y-100955234D01*
X77688646Y-100901490D01*
X77668552Y-100894669D01*
X82522001Y-100894669D01*
X82522371Y-100901490D01*
X82527895Y-100952352D01*
X82531521Y-100967604D01*
X82576676Y-101088054D01*
X82585214Y-101103649D01*
X82661715Y-101205724D01*
X82674276Y-101218285D01*
X82776351Y-101294786D01*
X82791946Y-101303324D01*
X82912394Y-101348478D01*
X82927649Y-101352105D01*
X82978514Y-101357631D01*
X82985328Y-101358000D01*
X83957885Y-101358000D01*
X83973124Y-101353525D01*
X83974329Y-101352135D01*
X83976000Y-101344452D01*
X83976000Y-99922115D01*
X83971525Y-99906876D01*
X83970135Y-99905671D01*
X83962452Y-99904000D01*
X82540116Y-99904000D01*
X82524877Y-99908475D01*
X82523672Y-99909865D01*
X82522001Y-99917548D01*
X82522001Y-100894669D01*
X77668552Y-100894669D01*
X77576738Y-100863502D01*
X77576734Y-100863501D01*
X77572828Y-100862175D01*
X77568784Y-100861371D01*
X77568778Y-100861369D01*
X77292929Y-100806500D01*
X77292926Y-100806500D01*
X77288886Y-100805696D01*
X77284775Y-100805427D01*
X77284771Y-100805426D01*
X77004119Y-100787031D01*
X77000000Y-100786761D01*
X76995881Y-100787031D01*
X76715229Y-100805426D01*
X76715225Y-100805427D01*
X76711114Y-100805696D01*
X76707074Y-100806500D01*
X76707071Y-100806500D01*
X76431222Y-100861369D01*
X76431216Y-100861371D01*
X76427172Y-100862175D01*
X76423266Y-100863501D01*
X76423262Y-100863502D01*
X76311354Y-100901490D01*
X76153030Y-100955234D01*
X76149337Y-100957055D01*
X76149335Y-100957056D01*
X76130781Y-100966206D01*
X75893381Y-101083279D01*
X75652665Y-101244119D01*
X75649573Y-101246831D01*
X75649566Y-101246836D01*
X75517967Y-101362247D01*
X75435004Y-101435004D01*
X75432295Y-101438093D01*
X75246836Y-101649566D01*
X75246831Y-101649573D01*
X75244119Y-101652665D01*
X75083279Y-101893381D01*
X74955234Y-102153030D01*
X74862175Y-102427172D01*
X74805696Y-102711114D01*
X74805427Y-102715225D01*
X74805426Y-102715229D01*
X74790377Y-102944834D01*
X74786761Y-103000000D01*
X73859301Y-103000000D01*
X73844993Y-99377885D01*
X82522000Y-99377885D01*
X82526475Y-99393124D01*
X82527865Y-99394329D01*
X82535548Y-99396000D01*
X83957885Y-99396000D01*
X83973124Y-99391525D01*
X83974329Y-99390135D01*
X83976000Y-99382452D01*
X83976000Y-97960116D01*
X83971525Y-97944877D01*
X83970135Y-97943672D01*
X83962452Y-97942001D01*
X82985331Y-97942001D01*
X82978510Y-97942371D01*
X82927648Y-97947895D01*
X82912396Y-97951521D01*
X82791946Y-97996676D01*
X82776351Y-98005214D01*
X82674276Y-98081715D01*
X82661715Y-98094276D01*
X82585214Y-98196351D01*
X82576676Y-98211946D01*
X82531522Y-98332394D01*
X82527895Y-98347649D01*
X82522369Y-98398514D01*
X82522000Y-98405328D01*
X82522000Y-99377885D01*
X73844993Y-99377885D01*
X73820332Y-93135000D01*
X74301372Y-93135000D01*
X74321854Y-93395249D01*
X74323008Y-93400056D01*
X74323009Y-93400062D01*
X74344427Y-93489272D01*
X74382796Y-93649089D01*
X74384689Y-93653660D01*
X74384690Y-93653662D01*
X74452221Y-93816695D01*
X74482697Y-93890271D01*
X74619097Y-94112856D01*
X74788637Y-94311363D01*
X74987144Y-94480903D01*
X75209729Y-94617303D01*
X75214299Y-94619196D01*
X75214303Y-94619198D01*
X75446338Y-94715310D01*
X75450911Y-94717204D01*
X75533937Y-94737137D01*
X75699938Y-94776991D01*
X75699944Y-94776992D01*
X75704751Y-94778146D01*
X75965000Y-94798628D01*
X76225249Y-94778146D01*
X76230056Y-94776992D01*
X76230062Y-94776991D01*
X76396063Y-94737137D01*
X76479089Y-94717204D01*
X76483662Y-94715310D01*
X76715697Y-94619198D01*
X76715701Y-94619196D01*
X76720271Y-94617303D01*
X76942856Y-94480903D01*
X77141363Y-94311363D01*
X77310903Y-94112856D01*
X77447303Y-93890271D01*
X77477780Y-93816695D01*
X77545310Y-93653662D01*
X77545311Y-93653660D01*
X77547204Y-93649089D01*
X77585573Y-93489272D01*
X77606991Y-93400062D01*
X77606992Y-93400056D01*
X77608146Y-93395249D01*
X77628628Y-93135000D01*
X77608146Y-92874751D01*
X77606992Y-92869944D01*
X77606991Y-92869938D01*
X77548359Y-92625723D01*
X77547204Y-92620911D01*
X77515211Y-92543673D01*
X77449198Y-92384303D01*
X77449196Y-92384299D01*
X77447303Y-92379729D01*
X77310903Y-92157144D01*
X77141363Y-91958637D01*
X76942856Y-91789097D01*
X76720271Y-91652697D01*
X76715701Y-91650804D01*
X76715697Y-91650802D01*
X76483662Y-91554690D01*
X76483660Y-91554689D01*
X76479089Y-91552796D01*
X76390069Y-91531424D01*
X76230062Y-91493009D01*
X76230056Y-91493008D01*
X76225249Y-91491854D01*
X75965000Y-91471372D01*
X75704751Y-91491854D01*
X75699944Y-91493008D01*
X75699938Y-91493009D01*
X75539931Y-91531424D01*
X75450911Y-91552796D01*
X75446340Y-91554689D01*
X75446338Y-91554690D01*
X75214303Y-91650802D01*
X75214299Y-91650804D01*
X75209729Y-91652697D01*
X74987144Y-91789097D01*
X74788637Y-91958637D01*
X74619097Y-92157144D01*
X74482697Y-92379729D01*
X74480804Y-92384299D01*
X74480802Y-92384303D01*
X74414789Y-92543673D01*
X74382796Y-92620911D01*
X74381641Y-92625723D01*
X74323009Y-92869938D01*
X74323008Y-92869944D01*
X74321854Y-92874751D01*
X74301372Y-93135000D01*
X73820332Y-93135000D01*
X73806946Y-89746323D01*
X73826679Y-89678124D01*
X73880150Y-89631419D01*
X73950384Y-89621038D01*
X74015081Y-89650275D01*
X74036156Y-89673552D01*
X74058023Y-89704781D01*
X74215219Y-89861977D01*
X74219727Y-89865134D01*
X74219730Y-89865136D01*
X74245710Y-89883327D01*
X74397323Y-89989488D01*
X74402305Y-89991811D01*
X74402310Y-89991814D01*
X74562772Y-90066638D01*
X74598804Y-90083440D01*
X74604112Y-90084862D01*
X74604114Y-90084863D01*
X74665697Y-90101364D01*
X74813537Y-90140978D01*
X75035000Y-90160353D01*
X75256463Y-90140978D01*
X75404303Y-90101364D01*
X75465886Y-90084863D01*
X75465888Y-90084862D01*
X75471196Y-90083440D01*
X75507228Y-90066638D01*
X75667690Y-89991814D01*
X75667695Y-89991811D01*
X75672677Y-89989488D01*
X75824290Y-89883327D01*
X75850270Y-89865136D01*
X75850273Y-89865134D01*
X75854781Y-89861977D01*
X76011977Y-89704781D01*
X76017772Y-89696506D01*
X76136331Y-89527185D01*
X76136332Y-89527183D01*
X76139488Y-89522676D01*
X76141811Y-89517694D01*
X76141814Y-89517689D01*
X76190805Y-89412627D01*
X76237723Y-89359342D01*
X76306000Y-89339881D01*
X76373960Y-89360423D01*
X76419195Y-89412627D01*
X76468186Y-89517689D01*
X76468189Y-89517694D01*
X76470512Y-89522676D01*
X76473668Y-89527183D01*
X76473669Y-89527185D01*
X76592229Y-89696506D01*
X76598023Y-89704781D01*
X76755219Y-89861977D01*
X76759727Y-89865134D01*
X76759730Y-89865136D01*
X76785710Y-89883327D01*
X76937323Y-89989488D01*
X76942305Y-89991811D01*
X76942310Y-89991814D01*
X77102772Y-90066638D01*
X77138804Y-90083440D01*
X77144112Y-90084862D01*
X77144114Y-90084863D01*
X77205697Y-90101364D01*
X77353537Y-90140978D01*
X77575000Y-90160353D01*
X77796463Y-90140978D01*
X77944303Y-90101364D01*
X78005886Y-90084863D01*
X78005888Y-90084862D01*
X78011196Y-90083440D01*
X78047228Y-90066638D01*
X78207690Y-89991814D01*
X78207695Y-89991811D01*
X78212677Y-89989488D01*
X78364290Y-89883327D01*
X78390270Y-89865136D01*
X78390273Y-89865134D01*
X78394781Y-89861977D01*
X78551977Y-89704781D01*
X78557772Y-89696506D01*
X78676331Y-89527185D01*
X78676332Y-89527183D01*
X78679488Y-89522676D01*
X78681811Y-89517694D01*
X78681814Y-89517689D01*
X78771117Y-89326178D01*
X78771118Y-89326177D01*
X78773440Y-89321196D01*
X78830978Y-89106463D01*
X78850353Y-88885000D01*
X78830978Y-88663537D01*
X78773440Y-88448804D01*
X78706055Y-88304297D01*
X78681814Y-88252311D01*
X78681811Y-88252306D01*
X78679488Y-88247324D01*
X78676331Y-88242815D01*
X78555136Y-88069730D01*
X78555134Y-88069727D01*
X78551977Y-88065219D01*
X78394781Y-87908023D01*
X78390273Y-87904866D01*
X78390270Y-87904864D01*
X78264970Y-87817128D01*
X78212677Y-87780512D01*
X78207695Y-87778189D01*
X78207690Y-87778186D01*
X78102627Y-87729195D01*
X78049342Y-87682278D01*
X78029881Y-87614001D01*
X78050423Y-87546041D01*
X78102627Y-87500805D01*
X78207690Y-87451814D01*
X78207695Y-87451811D01*
X78212677Y-87449488D01*
X78381711Y-87331129D01*
X78390270Y-87325136D01*
X78390273Y-87325134D01*
X78394781Y-87321977D01*
X78551977Y-87164781D01*
X78592241Y-87107279D01*
X78676331Y-86987185D01*
X78676332Y-86987183D01*
X78679488Y-86982676D01*
X78681811Y-86977694D01*
X78681814Y-86977689D01*
X78771117Y-86786178D01*
X78771118Y-86786177D01*
X78773440Y-86781196D01*
X78775693Y-86772790D01*
X78812239Y-86636397D01*
X78830978Y-86566463D01*
X78850353Y-86345000D01*
X78830978Y-86123537D01*
X78781205Y-85937783D01*
X78774863Y-85914114D01*
X78774862Y-85914112D01*
X78773440Y-85908804D01*
X78771117Y-85903822D01*
X78681814Y-85712311D01*
X78681811Y-85712306D01*
X78679488Y-85707324D01*
X78603545Y-85598866D01*
X78555136Y-85529730D01*
X78555134Y-85529727D01*
X78551977Y-85525219D01*
X78394781Y-85368023D01*
X78390273Y-85364866D01*
X78390270Y-85364864D01*
X78276599Y-85285271D01*
X78212677Y-85240512D01*
X78207695Y-85238189D01*
X78207690Y-85238186D01*
X78102627Y-85189195D01*
X78049342Y-85142278D01*
X78029881Y-85074001D01*
X78050423Y-85006041D01*
X78102627Y-84960805D01*
X78207690Y-84911814D01*
X78207695Y-84911811D01*
X78212677Y-84909488D01*
X78316966Y-84836464D01*
X78390270Y-84785136D01*
X78390273Y-84785134D01*
X78394781Y-84781977D01*
X78551977Y-84624781D01*
X78596041Y-84561852D01*
X78676331Y-84447185D01*
X78676332Y-84447183D01*
X78679488Y-84442676D01*
X78681811Y-84437694D01*
X78681814Y-84437689D01*
X78771117Y-84246178D01*
X78771118Y-84246177D01*
X78773440Y-84241196D01*
X78780015Y-84216660D01*
X78802806Y-84131602D01*
X78830978Y-84026463D01*
X78850353Y-83805000D01*
X78830978Y-83583537D01*
X78773440Y-83368804D01*
X78768158Y-83357476D01*
X78681814Y-83172311D01*
X78681811Y-83172306D01*
X78679488Y-83167324D01*
X78676331Y-83162815D01*
X78555136Y-82989730D01*
X78555134Y-82989727D01*
X78551977Y-82985219D01*
X78394781Y-82828023D01*
X78390273Y-82824866D01*
X78390270Y-82824864D01*
X78263142Y-82735848D01*
X78212677Y-82700512D01*
X78207695Y-82698189D01*
X78207690Y-82698186D01*
X78102035Y-82648919D01*
X78048750Y-82602002D01*
X78029289Y-82533725D01*
X78049831Y-82465765D01*
X78102035Y-82420529D01*
X78207445Y-82371376D01*
X78216931Y-82365898D01*
X78260764Y-82335207D01*
X78269139Y-82324729D01*
X78262071Y-82311281D01*
X77587812Y-81637022D01*
X77573868Y-81629408D01*
X77572035Y-81629539D01*
X77565420Y-81633790D01*
X76887207Y-82312003D01*
X76880777Y-82323777D01*
X76890074Y-82335793D01*
X76933069Y-82365898D01*
X76942555Y-82371376D01*
X77047965Y-82420529D01*
X77101250Y-82467446D01*
X77120711Y-82535723D01*
X77100169Y-82603683D01*
X77047965Y-82648919D01*
X76942311Y-82698186D01*
X76942306Y-82698189D01*
X76937324Y-82700512D01*
X76932817Y-82703668D01*
X76932815Y-82703669D01*
X76759730Y-82824864D01*
X76759727Y-82824866D01*
X76755219Y-82828023D01*
X76598023Y-82985219D01*
X76594866Y-82989727D01*
X76594864Y-82989730D01*
X76473669Y-83162815D01*
X76470512Y-83167324D01*
X76468189Y-83172306D01*
X76468186Y-83172311D01*
X76419195Y-83277373D01*
X76372277Y-83330658D01*
X76304000Y-83350119D01*
X76236040Y-83329577D01*
X76190805Y-83277373D01*
X76141814Y-83172311D01*
X76141811Y-83172306D01*
X76139488Y-83167324D01*
X76136331Y-83162815D01*
X76015136Y-82989730D01*
X76015134Y-82989727D01*
X76011977Y-82985219D01*
X75854781Y-82828023D01*
X75850273Y-82824866D01*
X75850270Y-82824864D01*
X75723142Y-82735848D01*
X75672677Y-82700512D01*
X75667695Y-82698189D01*
X75667690Y-82698186D01*
X75562035Y-82648919D01*
X75508750Y-82602002D01*
X75489289Y-82533725D01*
X75509831Y-82465765D01*
X75562035Y-82420529D01*
X75667445Y-82371376D01*
X75676931Y-82365898D01*
X75720764Y-82335207D01*
X75729139Y-82324729D01*
X75722071Y-82311281D01*
X75047812Y-81637022D01*
X75033868Y-81629408D01*
X75032035Y-81629539D01*
X75025420Y-81633790D01*
X74347207Y-82312003D01*
X74340777Y-82323777D01*
X74350074Y-82335793D01*
X74393069Y-82365898D01*
X74402555Y-82371376D01*
X74507965Y-82420529D01*
X74561250Y-82467446D01*
X74580711Y-82535723D01*
X74560169Y-82603683D01*
X74507965Y-82648919D01*
X74402311Y-82698186D01*
X74402306Y-82698189D01*
X74397324Y-82700512D01*
X74392817Y-82703668D01*
X74392815Y-82703669D01*
X74219730Y-82824864D01*
X74219727Y-82824866D01*
X74215219Y-82828023D01*
X74058023Y-82985219D01*
X74054865Y-82989729D01*
X74054860Y-82989735D01*
X74009440Y-83054602D01*
X73953983Y-83098931D01*
X73883364Y-83106240D01*
X73820003Y-83074210D01*
X73784018Y-83013008D01*
X73780228Y-82982830D01*
X73779789Y-82871500D01*
X73776594Y-82062849D01*
X73796327Y-81994650D01*
X73849798Y-81947946D01*
X73920032Y-81937565D01*
X73972620Y-81960209D01*
X73973136Y-81960262D01*
X73988718Y-81952072D01*
X74662978Y-81277812D01*
X74669356Y-81266132D01*
X75399408Y-81266132D01*
X75399539Y-81267965D01*
X75403790Y-81274580D01*
X76082003Y-81952793D01*
X76093777Y-81959223D01*
X76105793Y-81949926D01*
X76135897Y-81906932D01*
X76141377Y-81897441D01*
X76190805Y-81791443D01*
X76237722Y-81738158D01*
X76306000Y-81718697D01*
X76373960Y-81739239D01*
X76419195Y-81791443D01*
X76468623Y-81897441D01*
X76474103Y-81906932D01*
X76504794Y-81950765D01*
X76515271Y-81959140D01*
X76528718Y-81952072D01*
X77202978Y-81277812D01*
X77209356Y-81266132D01*
X77939408Y-81266132D01*
X77939539Y-81267965D01*
X77943790Y-81274580D01*
X78622003Y-81952793D01*
X78633777Y-81959223D01*
X78645793Y-81949926D01*
X78675897Y-81906932D01*
X78681377Y-81897441D01*
X78770645Y-81706007D01*
X78774391Y-81695715D01*
X78829059Y-81491691D01*
X78830962Y-81480896D01*
X78849372Y-81270475D01*
X78849372Y-81259525D01*
X78830962Y-81049104D01*
X78829059Y-81038309D01*
X78774391Y-80834285D01*
X78770645Y-80823993D01*
X78681377Y-80632559D01*
X78675897Y-80623068D01*
X78645206Y-80579235D01*
X78634729Y-80570860D01*
X78621282Y-80577928D01*
X77947022Y-81252188D01*
X77939408Y-81266132D01*
X77209356Y-81266132D01*
X77210592Y-81263868D01*
X77210461Y-81262035D01*
X77206210Y-81255420D01*
X76527997Y-80577207D01*
X76516223Y-80570777D01*
X76504207Y-80580074D01*
X76474103Y-80623068D01*
X76468623Y-80632559D01*
X76419195Y-80738557D01*
X76372278Y-80791842D01*
X76304000Y-80811303D01*
X76236040Y-80790761D01*
X76190805Y-80738557D01*
X76141377Y-80632559D01*
X76135897Y-80623068D01*
X76105206Y-80579235D01*
X76094729Y-80570860D01*
X76081282Y-80577928D01*
X75407022Y-81252188D01*
X75399408Y-81266132D01*
X74669356Y-81266132D01*
X74670592Y-81263868D01*
X74670461Y-81262035D01*
X74666210Y-81255420D01*
X73987997Y-80577207D01*
X73976223Y-80570777D01*
X73973417Y-80572948D01*
X73907299Y-80598811D01*
X73837694Y-80584823D01*
X73786701Y-80535424D01*
X73770317Y-80473789D01*
X73769919Y-80372888D01*
X73767592Y-79783777D01*
X74340777Y-79783777D01*
X74350074Y-79795793D01*
X74393069Y-79825898D01*
X74402555Y-79831376D01*
X74508557Y-79880805D01*
X74561842Y-79927722D01*
X74581303Y-79995999D01*
X74560761Y-80063959D01*
X74508557Y-80109195D01*
X74402559Y-80158623D01*
X74393068Y-80164103D01*
X74349235Y-80194794D01*
X74340860Y-80205271D01*
X74347928Y-80218718D01*
X75022188Y-80892978D01*
X75036132Y-80900592D01*
X75037965Y-80900461D01*
X75044580Y-80896210D01*
X75722793Y-80217997D01*
X75729223Y-80206223D01*
X75719926Y-80194207D01*
X75676931Y-80164102D01*
X75667445Y-80158624D01*
X75561444Y-80109195D01*
X75508159Y-80062278D01*
X75488698Y-79994000D01*
X75509240Y-79926040D01*
X75561444Y-79880805D01*
X75667445Y-79831376D01*
X75676931Y-79825898D01*
X75720764Y-79795207D01*
X75729139Y-79784729D01*
X75728639Y-79783777D01*
X76880777Y-79783777D01*
X76890074Y-79795793D01*
X76933069Y-79825898D01*
X76942555Y-79831376D01*
X77048557Y-79880805D01*
X77101842Y-79927722D01*
X77121303Y-79995999D01*
X77100761Y-80063959D01*
X77048557Y-80109195D01*
X76942559Y-80158623D01*
X76933068Y-80164103D01*
X76889235Y-80194794D01*
X76880860Y-80205271D01*
X76887928Y-80218718D01*
X77562188Y-80892978D01*
X77576132Y-80900592D01*
X77577965Y-80900461D01*
X77584580Y-80896210D01*
X78262793Y-80217997D01*
X78269223Y-80206223D01*
X78259926Y-80194207D01*
X78216931Y-80164102D01*
X78207445Y-80158624D01*
X78101444Y-80109195D01*
X78048159Y-80062278D01*
X78028698Y-79994000D01*
X78049240Y-79926040D01*
X78101444Y-79880805D01*
X78207445Y-79831376D01*
X78216931Y-79825898D01*
X78260764Y-79795207D01*
X78269139Y-79784729D01*
X78262071Y-79771281D01*
X77587812Y-79097022D01*
X77573868Y-79089408D01*
X77572035Y-79089539D01*
X77565420Y-79093790D01*
X76887207Y-79772003D01*
X76880777Y-79783777D01*
X75728639Y-79783777D01*
X75722071Y-79771281D01*
X75047812Y-79097022D01*
X75033868Y-79089408D01*
X75032035Y-79089539D01*
X75025420Y-79093790D01*
X74347207Y-79772003D01*
X74340777Y-79783777D01*
X73767592Y-79783777D01*
X73766529Y-79514804D01*
X73786262Y-79446604D01*
X73839733Y-79399900D01*
X73909967Y-79389519D01*
X73971202Y-79415886D01*
X73975272Y-79419140D01*
X73988718Y-79412072D01*
X74662978Y-78737812D01*
X74669356Y-78726132D01*
X75399408Y-78726132D01*
X75399539Y-78727965D01*
X75403790Y-78734580D01*
X76082003Y-79412793D01*
X76093777Y-79419223D01*
X76105793Y-79409926D01*
X76135897Y-79366932D01*
X76141377Y-79357441D01*
X76190805Y-79251443D01*
X76237722Y-79198158D01*
X76306000Y-79178697D01*
X76373960Y-79199239D01*
X76419195Y-79251443D01*
X76468623Y-79357441D01*
X76474103Y-79366932D01*
X76504794Y-79410765D01*
X76515271Y-79419140D01*
X76528718Y-79412072D01*
X77202978Y-78737812D01*
X77210592Y-78723868D01*
X77210461Y-78722035D01*
X77206210Y-78715420D01*
X76527997Y-78037207D01*
X76516223Y-78030777D01*
X76504207Y-78040074D01*
X76474103Y-78083068D01*
X76468623Y-78092559D01*
X76419195Y-78198557D01*
X76372278Y-78251842D01*
X76304000Y-78271303D01*
X76236040Y-78250761D01*
X76190805Y-78198557D01*
X76141377Y-78092559D01*
X76135897Y-78083068D01*
X76105206Y-78039235D01*
X76094729Y-78030860D01*
X76081282Y-78037928D01*
X75407022Y-78712188D01*
X75399408Y-78726132D01*
X74669356Y-78726132D01*
X74670592Y-78723868D01*
X74670461Y-78722035D01*
X74666210Y-78715420D01*
X73987997Y-78037207D01*
X73976223Y-78030777D01*
X73963414Y-78040687D01*
X73897296Y-78066550D01*
X73827691Y-78052562D01*
X73776698Y-78003163D01*
X73760314Y-77941528D01*
X73760182Y-77908035D01*
X73756493Y-76974268D01*
X73776226Y-76906070D01*
X73829697Y-76859365D01*
X73899931Y-76848984D01*
X73964628Y-76878221D01*
X73985705Y-76901500D01*
X74052019Y-76996206D01*
X74058023Y-77004781D01*
X74215219Y-77161977D01*
X74219727Y-77165134D01*
X74219730Y-77165136D01*
X74268510Y-77199292D01*
X74397323Y-77289488D01*
X74402305Y-77291811D01*
X74402310Y-77291814D01*
X74507965Y-77341081D01*
X74561250Y-77387998D01*
X74580711Y-77456275D01*
X74560169Y-77524235D01*
X74507965Y-77569471D01*
X74402559Y-77618623D01*
X74393068Y-77624103D01*
X74349235Y-77654794D01*
X74340860Y-77665271D01*
X74347928Y-77678718D01*
X75022188Y-78352978D01*
X75036132Y-78360592D01*
X75037965Y-78360461D01*
X75044580Y-78356210D01*
X75722793Y-77677997D01*
X75729223Y-77666223D01*
X75719926Y-77654207D01*
X75676931Y-77624102D01*
X75667445Y-77618624D01*
X75562035Y-77569471D01*
X75508750Y-77522554D01*
X75489289Y-77454277D01*
X75509831Y-77386317D01*
X75562035Y-77341081D01*
X75667690Y-77291814D01*
X75667695Y-77291811D01*
X75672677Y-77289488D01*
X75801490Y-77199292D01*
X75850270Y-77165136D01*
X75850273Y-77165134D01*
X75854781Y-77161977D01*
X76011977Y-77004781D01*
X76017264Y-76997231D01*
X76018546Y-76996206D01*
X76018669Y-76996059D01*
X76018698Y-76996084D01*
X76072718Y-76952902D01*
X76120477Y-76943500D01*
X76489523Y-76943500D01*
X76557644Y-76963502D01*
X76592736Y-76997230D01*
X76598023Y-77004781D01*
X76755219Y-77161977D01*
X76759727Y-77165134D01*
X76759730Y-77165136D01*
X76808510Y-77199292D01*
X76937323Y-77289488D01*
X76942305Y-77291811D01*
X76942310Y-77291814D01*
X77047965Y-77341081D01*
X77101250Y-77387998D01*
X77120711Y-77456275D01*
X77100169Y-77524235D01*
X77047965Y-77569471D01*
X76942559Y-77618623D01*
X76933068Y-77624103D01*
X76889235Y-77654794D01*
X76880860Y-77665271D01*
X76887928Y-77678718D01*
X78622003Y-79412793D01*
X78633777Y-79419223D01*
X78645793Y-79409926D01*
X78675897Y-79366932D01*
X78681377Y-79357441D01*
X78770645Y-79166007D01*
X78774391Y-79155715D01*
X78829059Y-78951691D01*
X78830962Y-78940896D01*
X78841785Y-78817195D01*
X78867649Y-78751077D01*
X78925152Y-78709438D01*
X78996039Y-78705497D01*
X79056401Y-78739082D01*
X82004595Y-81687276D01*
X82038621Y-81749588D01*
X82041500Y-81776371D01*
X82041500Y-94652930D01*
X82040067Y-94671880D01*
X82036801Y-94693349D01*
X82037394Y-94700641D01*
X82037394Y-94700644D01*
X82041085Y-94746018D01*
X82041500Y-94756233D01*
X82041500Y-94764293D01*
X82041925Y-94767937D01*
X82044789Y-94792507D01*
X82045222Y-94796882D01*
X82045333Y-94798240D01*
X82051140Y-94869637D01*
X82053396Y-94876601D01*
X82054587Y-94882560D01*
X82055971Y-94888415D01*
X82056818Y-94895681D01*
X82081735Y-94964327D01*
X82083152Y-94968455D01*
X82100141Y-95020896D01*
X82105649Y-95037899D01*
X82109445Y-95044154D01*
X82111951Y-95049628D01*
X82114670Y-95055058D01*
X82117167Y-95061937D01*
X82121180Y-95068057D01*
X82121180Y-95068058D01*
X82157186Y-95122976D01*
X82159523Y-95126680D01*
X82197405Y-95189107D01*
X82201121Y-95193315D01*
X82201122Y-95193316D01*
X82204803Y-95197484D01*
X82204776Y-95197508D01*
X82207429Y-95200500D01*
X82210132Y-95203733D01*
X82214144Y-95209852D01*
X82219456Y-95214884D01*
X82270383Y-95263128D01*
X82272825Y-95265506D01*
X84734224Y-97726905D01*
X84768250Y-97789217D01*
X84763185Y-97860032D01*
X84720638Y-97916868D01*
X84654118Y-97941679D01*
X84645129Y-97942000D01*
X84502115Y-97942000D01*
X84486876Y-97946475D01*
X84485671Y-97947865D01*
X84484000Y-97955548D01*
X84484000Y-101339884D01*
X84488475Y-101355123D01*
X84489865Y-101356328D01*
X84497548Y-101357999D01*
X85474669Y-101357999D01*
X85481490Y-101357629D01*
X85532352Y-101352105D01*
X85547604Y-101348479D01*
X85668054Y-101303324D01*
X85683649Y-101294786D01*
X85785724Y-101218285D01*
X85798285Y-101205724D01*
X85874786Y-101103649D01*
X85883324Y-101088054D01*
X85928478Y-100967606D01*
X85932105Y-100952351D01*
X85937631Y-100901486D01*
X85938000Y-100894672D01*
X85938000Y-100425406D01*
X85958002Y-100357285D01*
X86011658Y-100310792D01*
X86081932Y-100300688D01*
X86146512Y-100330182D01*
X86174991Y-100365767D01*
X86285025Y-100570551D01*
X86287820Y-100574294D01*
X86287822Y-100574297D01*
X86434171Y-100770282D01*
X86434176Y-100770288D01*
X86436963Y-100774020D01*
X86440272Y-100777300D01*
X86440277Y-100777306D01*
X86565546Y-100901486D01*
X86617307Y-100952797D01*
X86621069Y-100955555D01*
X86621072Y-100955558D01*
X86713937Y-101023649D01*
X86822094Y-101102953D01*
X86826229Y-101105129D01*
X86826233Y-101105131D01*
X86944289Y-101167243D01*
X87046827Y-101221191D01*
X87120266Y-101246837D01*
X87282021Y-101303324D01*
X87286568Y-101304912D01*
X87536050Y-101352278D01*
X87656532Y-101357011D01*
X87785125Y-101362064D01*
X87785130Y-101362064D01*
X87789793Y-101362247D01*
X87888774Y-101351407D01*
X88037569Y-101335112D01*
X88037575Y-101335111D01*
X88042222Y-101334602D01*
X88151680Y-101305784D01*
X88223837Y-101286786D01*
X88287793Y-101269948D01*
X88474000Y-101189948D01*
X88516807Y-101171557D01*
X88516810Y-101171555D01*
X88521110Y-101169708D01*
X88525090Y-101167245D01*
X88525094Y-101167243D01*
X88733064Y-101038547D01*
X88733066Y-101038545D01*
X88737047Y-101036082D01*
X88749983Y-101025131D01*
X88927289Y-100875031D01*
X88927291Y-100875029D01*
X88930862Y-100872006D01*
X88981145Y-100814669D01*
X91482001Y-100814669D01*
X91482371Y-100821490D01*
X91487895Y-100872352D01*
X91491521Y-100887604D01*
X91536676Y-101008054D01*
X91545214Y-101023649D01*
X91621715Y-101125724D01*
X91634276Y-101138285D01*
X91736351Y-101214786D01*
X91751946Y-101223324D01*
X91872394Y-101268478D01*
X91887649Y-101272105D01*
X91938514Y-101277631D01*
X91945328Y-101278000D01*
X92917885Y-101278000D01*
X92933124Y-101273525D01*
X92934329Y-101272135D01*
X92936000Y-101264452D01*
X92936000Y-99842115D01*
X92931525Y-99826876D01*
X92930135Y-99825671D01*
X92922452Y-99824000D01*
X91500116Y-99824000D01*
X91484877Y-99828475D01*
X91483672Y-99829865D01*
X91482001Y-99837548D01*
X91482001Y-100814669D01*
X88981145Y-100814669D01*
X89098295Y-100681084D01*
X89235669Y-100467512D01*
X89339967Y-100235980D01*
X89408896Y-99991575D01*
X89430002Y-99825671D01*
X89440545Y-99742798D01*
X89440545Y-99742792D01*
X89440943Y-99739667D01*
X89443291Y-99650000D01*
X89424472Y-99396759D01*
X89422974Y-99390135D01*
X89402099Y-99297885D01*
X91482000Y-99297885D01*
X91486475Y-99313124D01*
X91487865Y-99314329D01*
X91495548Y-99316000D01*
X92917885Y-99316000D01*
X92933124Y-99311525D01*
X92934329Y-99310135D01*
X92936000Y-99302452D01*
X92936000Y-97880116D01*
X92931525Y-97864877D01*
X92930135Y-97863672D01*
X92922452Y-97862001D01*
X91945331Y-97862001D01*
X91938510Y-97862371D01*
X91887648Y-97867895D01*
X91872396Y-97871521D01*
X91751946Y-97916676D01*
X91736351Y-97925214D01*
X91634276Y-98001715D01*
X91621715Y-98014276D01*
X91545214Y-98116351D01*
X91536676Y-98131946D01*
X91491522Y-98252394D01*
X91487895Y-98267649D01*
X91482369Y-98318514D01*
X91482000Y-98325328D01*
X91482000Y-99297885D01*
X89402099Y-99297885D01*
X89369459Y-99153639D01*
X89368428Y-99149082D01*
X89351816Y-99106365D01*
X89278084Y-98916762D01*
X89278083Y-98916760D01*
X89276391Y-98912409D01*
X89273290Y-98906983D01*
X89152702Y-98695997D01*
X89152700Y-98695995D01*
X89150383Y-98691940D01*
X89147491Y-98688271D01*
X88995040Y-98494887D01*
X88968575Y-98429007D01*
X88981928Y-98359277D01*
X89004895Y-98327786D01*
X89737276Y-97595405D01*
X89799588Y-97561379D01*
X89826371Y-97558500D01*
X95093629Y-97558500D01*
X95161750Y-97578502D01*
X95182724Y-97595405D01*
X95632535Y-98045216D01*
X95666561Y-98107528D01*
X95661496Y-98178343D01*
X95627341Y-98228314D01*
X95493638Y-98347649D01*
X95457562Y-98379848D01*
X95295183Y-98575087D01*
X95163447Y-98792182D01*
X95161638Y-98796496D01*
X95161637Y-98796498D01*
X95140196Y-98847629D01*
X95095407Y-98902715D01*
X95027946Y-98924841D01*
X94959233Y-98906983D01*
X94911081Y-98854810D01*
X94897999Y-98798903D01*
X94897999Y-98325331D01*
X94897629Y-98318510D01*
X94892105Y-98267648D01*
X94888479Y-98252396D01*
X94843324Y-98131946D01*
X94834786Y-98116351D01*
X94758285Y-98014276D01*
X94745724Y-98001715D01*
X94643649Y-97925214D01*
X94628054Y-97916676D01*
X94507606Y-97871522D01*
X94492351Y-97867895D01*
X94441486Y-97862369D01*
X94434672Y-97862000D01*
X93462115Y-97862000D01*
X93446876Y-97866475D01*
X93445671Y-97867865D01*
X93444000Y-97875548D01*
X93444000Y-101259884D01*
X93448475Y-101275123D01*
X93449865Y-101276328D01*
X93457548Y-101277999D01*
X94434669Y-101277999D01*
X94441490Y-101277629D01*
X94492352Y-101272105D01*
X94507604Y-101268479D01*
X94628054Y-101223324D01*
X94643649Y-101214786D01*
X94745724Y-101138285D01*
X94758285Y-101125724D01*
X94834786Y-101023649D01*
X94843324Y-101008054D01*
X94888478Y-100887606D01*
X94892105Y-100872351D01*
X94897631Y-100821486D01*
X94898000Y-100814672D01*
X94898000Y-100345406D01*
X94918002Y-100277285D01*
X94971658Y-100230792D01*
X95041932Y-100220688D01*
X95106512Y-100250182D01*
X95134991Y-100285767D01*
X95245025Y-100490551D01*
X95247820Y-100494294D01*
X95247822Y-100494297D01*
X95394171Y-100690282D01*
X95394176Y-100690288D01*
X95396963Y-100694020D01*
X95400272Y-100697300D01*
X95400277Y-100697306D01*
X95572960Y-100868488D01*
X95577307Y-100872797D01*
X95581069Y-100875555D01*
X95581072Y-100875558D01*
X95704701Y-100966206D01*
X95782094Y-101022953D01*
X95786229Y-101025129D01*
X95786233Y-101025131D01*
X95811733Y-101038547D01*
X96006827Y-101141191D01*
X96093782Y-101171557D01*
X96242021Y-101223324D01*
X96246568Y-101224912D01*
X96496050Y-101272278D01*
X96616532Y-101277011D01*
X96745125Y-101282064D01*
X96745130Y-101282064D01*
X96749793Y-101282247D01*
X96848774Y-101271407D01*
X96997569Y-101255112D01*
X96997575Y-101255111D01*
X97002222Y-101254602D01*
X97031716Y-101246837D01*
X97243273Y-101191138D01*
X97247793Y-101189948D01*
X97445212Y-101105131D01*
X97476807Y-101091557D01*
X97476810Y-101091555D01*
X97481110Y-101089708D01*
X97485090Y-101087245D01*
X97485094Y-101087243D01*
X97693064Y-100958547D01*
X97693066Y-100958545D01*
X97697047Y-100956082D01*
X97700624Y-100953054D01*
X97864092Y-100814669D01*
X100352001Y-100814669D01*
X100352371Y-100821490D01*
X100357895Y-100872352D01*
X100361521Y-100887604D01*
X100406676Y-101008054D01*
X100415214Y-101023649D01*
X100491715Y-101125724D01*
X100504276Y-101138285D01*
X100606351Y-101214786D01*
X100621946Y-101223324D01*
X100742394Y-101268478D01*
X100757649Y-101272105D01*
X100808514Y-101277631D01*
X100815328Y-101278000D01*
X101787885Y-101278000D01*
X101803124Y-101273525D01*
X101804329Y-101272135D01*
X101806000Y-101264452D01*
X101806000Y-99842115D01*
X101801525Y-99826876D01*
X101800135Y-99825671D01*
X101792452Y-99824000D01*
X100370116Y-99824000D01*
X100354877Y-99828475D01*
X100353672Y-99829865D01*
X100352001Y-99837548D01*
X100352001Y-100814669D01*
X97864092Y-100814669D01*
X97887289Y-100795031D01*
X97887291Y-100795029D01*
X97890862Y-100792006D01*
X98058295Y-100601084D01*
X98071811Y-100580072D01*
X98193141Y-100391442D01*
X98195669Y-100387512D01*
X98299967Y-100155980D01*
X98368896Y-99911575D01*
X98400943Y-99659667D01*
X98401114Y-99653160D01*
X98403208Y-99573160D01*
X98403291Y-99570000D01*
X98390361Y-99396000D01*
X98384818Y-99321411D01*
X98384817Y-99321407D01*
X98384472Y-99316759D01*
X98382974Y-99310135D01*
X98329459Y-99073639D01*
X98328428Y-99069082D01*
X98265391Y-98906983D01*
X98238084Y-98836762D01*
X98238083Y-98836760D01*
X98236391Y-98832409D01*
X98215866Y-98796498D01*
X98112702Y-98615997D01*
X98112700Y-98615995D01*
X98110383Y-98611940D01*
X97953171Y-98412517D01*
X97863099Y-98327786D01*
X97771610Y-98241722D01*
X97771608Y-98241720D01*
X97768209Y-98238523D01*
X97606345Y-98126234D01*
X97561775Y-98070970D01*
X97554158Y-98000384D01*
X97589070Y-97933611D01*
X97827276Y-97695405D01*
X97889588Y-97661379D01*
X97916371Y-97658500D01*
X100615578Y-97658500D01*
X100683699Y-97678502D01*
X100730192Y-97732158D01*
X100740296Y-97802432D01*
X100710802Y-97867012D01*
X100659808Y-97902482D01*
X100621946Y-97916676D01*
X100606351Y-97925214D01*
X100504276Y-98001715D01*
X100491715Y-98014276D01*
X100415214Y-98116351D01*
X100406676Y-98131946D01*
X100361522Y-98252394D01*
X100357895Y-98267649D01*
X100352369Y-98318514D01*
X100352000Y-98325328D01*
X100352000Y-99297885D01*
X100356475Y-99313124D01*
X100357865Y-99314329D01*
X100365548Y-99316000D01*
X102188000Y-99316000D01*
X102256121Y-99336002D01*
X102302614Y-99389658D01*
X102314000Y-99442000D01*
X102314000Y-101259884D01*
X102318475Y-101275123D01*
X102319865Y-101276328D01*
X102327548Y-101277999D01*
X103304669Y-101277999D01*
X103311490Y-101277629D01*
X103362352Y-101272105D01*
X103377604Y-101268479D01*
X103498054Y-101223324D01*
X103513649Y-101214786D01*
X103615724Y-101138285D01*
X103628285Y-101125724D01*
X103704786Y-101023649D01*
X103713324Y-101008054D01*
X103758478Y-100887606D01*
X103762105Y-100872351D01*
X103767631Y-100821486D01*
X103768000Y-100814672D01*
X103768000Y-100345406D01*
X103788002Y-100277285D01*
X103841658Y-100230792D01*
X103911932Y-100220688D01*
X103976512Y-100250182D01*
X104004991Y-100285767D01*
X104115025Y-100490551D01*
X104117820Y-100494294D01*
X104117822Y-100494297D01*
X104264171Y-100690282D01*
X104264176Y-100690288D01*
X104266963Y-100694020D01*
X104270272Y-100697300D01*
X104270277Y-100697306D01*
X104442960Y-100868488D01*
X104447307Y-100872797D01*
X104451069Y-100875555D01*
X104451072Y-100875558D01*
X104574701Y-100966206D01*
X104652094Y-101022953D01*
X104656229Y-101025129D01*
X104656233Y-101025131D01*
X104681733Y-101038547D01*
X104876827Y-101141191D01*
X104963782Y-101171557D01*
X105112021Y-101223324D01*
X105116568Y-101224912D01*
X105366050Y-101272278D01*
X105486532Y-101277011D01*
X105615125Y-101282064D01*
X105615130Y-101282064D01*
X105619793Y-101282247D01*
X105718774Y-101271407D01*
X105867569Y-101255112D01*
X105867575Y-101255111D01*
X105872222Y-101254602D01*
X105901716Y-101246837D01*
X106113273Y-101191138D01*
X106117793Y-101189948D01*
X106315212Y-101105131D01*
X106346807Y-101091557D01*
X106346810Y-101091555D01*
X106351110Y-101089708D01*
X106355090Y-101087245D01*
X106355094Y-101087243D01*
X106563064Y-100958547D01*
X106563066Y-100958545D01*
X106567047Y-100956082D01*
X106570624Y-100953054D01*
X106757289Y-100795031D01*
X106757291Y-100795029D01*
X106760862Y-100792006D01*
X106928295Y-100601084D01*
X106941811Y-100580072D01*
X107065669Y-100387512D01*
X107067322Y-100388575D01*
X107111632Y-100344055D01*
X107172278Y-100328500D01*
X121034775Y-100328500D01*
X121102896Y-100348502D01*
X121149389Y-100402158D01*
X121159493Y-100472432D01*
X121154608Y-100493436D01*
X121126458Y-100580072D01*
X121125768Y-100586633D01*
X121125768Y-100586635D01*
X121123880Y-100604597D01*
X121106496Y-100770000D01*
X121107186Y-100776565D01*
X121125736Y-100953054D01*
X121126458Y-100959928D01*
X121185473Y-101141556D01*
X121188776Y-101147278D01*
X121188777Y-101147279D01*
X121202794Y-101171557D01*
X121280960Y-101306944D01*
X121285378Y-101311851D01*
X121285379Y-101311852D01*
X121399047Y-101438093D01*
X121408747Y-101448866D01*
X121563248Y-101561118D01*
X121569276Y-101563802D01*
X121569278Y-101563803D01*
X121731681Y-101636109D01*
X121737712Y-101638794D01*
X121802970Y-101652665D01*
X121918056Y-101677128D01*
X121918061Y-101677128D01*
X121924513Y-101678500D01*
X122115487Y-101678500D01*
X122121939Y-101677128D01*
X122121944Y-101677128D01*
X122237030Y-101652665D01*
X122302288Y-101638794D01*
X122308319Y-101636109D01*
X122470722Y-101563803D01*
X122470724Y-101563802D01*
X122476752Y-101561118D01*
X122631253Y-101448866D01*
X122640953Y-101438093D01*
X122754621Y-101311852D01*
X122754622Y-101311851D01*
X122759040Y-101306944D01*
X122837206Y-101171557D01*
X122851223Y-101147279D01*
X122851224Y-101147278D01*
X122854527Y-101141556D01*
X122913542Y-100959928D01*
X122914265Y-100953054D01*
X122932814Y-100776565D01*
X122933504Y-100770000D01*
X122916120Y-100604597D01*
X122914232Y-100586635D01*
X122914232Y-100586633D01*
X122913542Y-100580072D01*
X122885392Y-100493436D01*
X122883364Y-100422469D01*
X122920027Y-100361671D01*
X122983739Y-100330345D01*
X123005225Y-100328500D01*
X136822930Y-100328500D01*
X136841880Y-100329933D01*
X136856115Y-100332099D01*
X136856119Y-100332099D01*
X136863349Y-100333199D01*
X136870641Y-100332606D01*
X136870644Y-100332606D01*
X136916018Y-100328915D01*
X136926233Y-100328500D01*
X136934293Y-100328500D01*
X136947583Y-100326951D01*
X136962507Y-100325211D01*
X136966882Y-100324778D01*
X137032339Y-100319454D01*
X137032342Y-100319453D01*
X137039637Y-100318860D01*
X137046601Y-100316604D01*
X137052560Y-100315413D01*
X137058415Y-100314029D01*
X137065681Y-100313182D01*
X137134327Y-100288265D01*
X137138455Y-100286848D01*
X137200936Y-100266607D01*
X137200938Y-100266606D01*
X137207899Y-100264351D01*
X137214154Y-100260555D01*
X137219628Y-100258049D01*
X137225058Y-100255330D01*
X137231937Y-100252833D01*
X137292976Y-100212814D01*
X137296680Y-100210477D01*
X137359107Y-100172595D01*
X137367484Y-100165197D01*
X137367508Y-100165224D01*
X137370500Y-100162571D01*
X137373733Y-100159868D01*
X137379852Y-100155856D01*
X137433128Y-100099617D01*
X137435506Y-100097175D01*
X142301441Y-95231240D01*
X142363753Y-95197214D01*
X142415657Y-95196865D01*
X142448597Y-95203567D01*
X142453772Y-95203757D01*
X142453774Y-95203757D01*
X142666673Y-95211564D01*
X142666677Y-95211564D01*
X142671837Y-95211753D01*
X142676957Y-95211097D01*
X142676959Y-95211097D01*
X142888288Y-95184025D01*
X142888289Y-95184025D01*
X142893416Y-95183368D01*
X142898366Y-95181883D01*
X143102429Y-95120661D01*
X143102434Y-95120659D01*
X143107384Y-95119174D01*
X143307994Y-95020896D01*
X143489860Y-94891173D01*
X143511472Y-94869637D01*
X143644435Y-94737137D01*
X143648096Y-94733489D01*
X143671698Y-94700644D01*
X143775435Y-94556277D01*
X143778453Y-94552077D01*
X143832499Y-94442724D01*
X143875136Y-94356453D01*
X143875137Y-94356451D01*
X143877430Y-94351811D01*
X143942370Y-94138069D01*
X143971529Y-93916590D01*
X143973156Y-93850000D01*
X143955870Y-93639747D01*
X143970223Y-93570219D01*
X143992351Y-93540330D01*
X146068911Y-91463770D01*
X146083323Y-91451384D01*
X146094918Y-91442851D01*
X146094923Y-91442846D01*
X146100818Y-91438508D01*
X146105557Y-91432930D01*
X146105560Y-91432927D01*
X146135035Y-91398232D01*
X146141965Y-91390716D01*
X146147660Y-91385021D01*
X146165281Y-91362749D01*
X146168072Y-91359345D01*
X146210591Y-91309297D01*
X146210592Y-91309295D01*
X146215333Y-91303715D01*
X146218661Y-91297199D01*
X146222028Y-91292150D01*
X146225195Y-91287021D01*
X146229734Y-91281284D01*
X146260655Y-91215125D01*
X146262561Y-91211225D01*
X146268147Y-91200285D01*
X146295769Y-91146192D01*
X146297508Y-91139084D01*
X146299607Y-91133441D01*
X146301524Y-91127678D01*
X146304622Y-91121050D01*
X146319487Y-91049583D01*
X146320457Y-91045299D01*
X146336473Y-90979845D01*
X146337808Y-90974390D01*
X146338500Y-90963236D01*
X146338536Y-90963238D01*
X146338775Y-90959245D01*
X146339149Y-90955053D01*
X146340640Y-90947885D01*
X146338546Y-90870479D01*
X146338500Y-90867072D01*
X146338500Y-79617070D01*
X146339933Y-79598120D01*
X146342099Y-79583885D01*
X146342099Y-79583881D01*
X146343199Y-79576651D01*
X146338915Y-79523982D01*
X146338500Y-79513767D01*
X146338500Y-79505707D01*
X146335209Y-79477480D01*
X146334778Y-79473121D01*
X146329454Y-79407662D01*
X146329453Y-79407659D01*
X146328860Y-79400364D01*
X146326604Y-79393400D01*
X146325417Y-79387461D01*
X146324030Y-79381590D01*
X146323182Y-79374319D01*
X146320686Y-79367443D01*
X146320684Y-79367434D01*
X146298275Y-79305702D01*
X146296865Y-79301598D01*
X146274352Y-79232101D01*
X146270556Y-79225846D01*
X146268057Y-79220387D01*
X146265329Y-79214939D01*
X146262833Y-79208063D01*
X146222805Y-79147010D01*
X146220481Y-79143327D01*
X146212664Y-79130444D01*
X146202907Y-79114366D01*
X146185504Y-79085686D01*
X146185501Y-79085682D01*
X146182595Y-79080893D01*
X146178886Y-79076694D01*
X146178883Y-79076689D01*
X146175197Y-79072516D01*
X146175224Y-79072492D01*
X146172571Y-79069500D01*
X146169868Y-79066267D01*
X146165856Y-79060148D01*
X146109617Y-79006872D01*
X146107175Y-79004494D01*
X145083770Y-77981089D01*
X145071384Y-77966677D01*
X145062851Y-77955082D01*
X145062846Y-77955077D01*
X145058508Y-77949182D01*
X145052930Y-77944443D01*
X145052927Y-77944440D01*
X145018232Y-77914965D01*
X145010716Y-77908035D01*
X145005021Y-77902340D01*
X144998880Y-77897482D01*
X144982749Y-77884719D01*
X144979345Y-77881928D01*
X144929297Y-77839409D01*
X144929295Y-77839408D01*
X144923715Y-77834667D01*
X144917199Y-77831339D01*
X144912150Y-77827972D01*
X144907021Y-77824805D01*
X144901284Y-77820266D01*
X144835125Y-77789345D01*
X144831225Y-77787439D01*
X144766192Y-77754231D01*
X144759084Y-77752492D01*
X144753441Y-77750393D01*
X144747678Y-77748476D01*
X144741050Y-77745378D01*
X144669583Y-77730513D01*
X144665299Y-77729543D01*
X144594390Y-77712192D01*
X144588788Y-77711844D01*
X144588785Y-77711844D01*
X144583236Y-77711500D01*
X144583238Y-77711464D01*
X144579245Y-77711225D01*
X144575053Y-77710851D01*
X144567885Y-77709360D01*
X144501675Y-77711151D01*
X144490479Y-77711454D01*
X144487072Y-77711500D01*
X143380944Y-77711500D01*
X143312823Y-77691498D01*
X143266330Y-77637842D01*
X143256226Y-77567568D01*
X143280118Y-77509935D01*
X143344786Y-77423649D01*
X143353324Y-77408054D01*
X143398478Y-77287606D01*
X143402105Y-77272351D01*
X143407631Y-77221486D01*
X143408000Y-77214672D01*
X143408000Y-76592115D01*
X143403525Y-76576876D01*
X143402135Y-76575671D01*
X143394452Y-76574000D01*
X141922000Y-76574000D01*
X141853879Y-76553998D01*
X141807386Y-76500342D01*
X141796000Y-76448000D01*
X141796000Y-76047885D01*
X142304000Y-76047885D01*
X142308475Y-76063124D01*
X142309865Y-76064329D01*
X142317548Y-76066000D01*
X143389884Y-76066000D01*
X143405123Y-76061525D01*
X143406328Y-76060135D01*
X143407999Y-76052452D01*
X143407999Y-75425331D01*
X143407629Y-75418510D01*
X143402105Y-75367648D01*
X143398479Y-75352396D01*
X143353324Y-75231946D01*
X143344786Y-75216351D01*
X143268285Y-75114276D01*
X143255724Y-75101715D01*
X143153649Y-75025214D01*
X143138054Y-75016676D01*
X143017606Y-74971522D01*
X143002351Y-74967895D01*
X142951486Y-74962369D01*
X142944672Y-74962000D01*
X142322115Y-74962000D01*
X142306876Y-74966475D01*
X142305671Y-74967865D01*
X142304000Y-74975548D01*
X142304000Y-76047885D01*
X141796000Y-76047885D01*
X141796000Y-74980116D01*
X141791525Y-74964877D01*
X141790135Y-74963672D01*
X141782452Y-74962001D01*
X141155331Y-74962001D01*
X141148510Y-74962371D01*
X141097648Y-74967895D01*
X141082396Y-74971521D01*
X140961946Y-75016676D01*
X140946351Y-75025214D01*
X140844276Y-75101715D01*
X140831715Y-75114276D01*
X140755214Y-75216351D01*
X140746676Y-75231946D01*
X140705297Y-75342322D01*
X140662655Y-75399087D01*
X140596093Y-75423786D01*
X140526744Y-75408578D01*
X140494121Y-75382891D01*
X140443151Y-75326876D01*
X140443148Y-75326873D01*
X140439670Y-75323051D01*
X140435619Y-75319852D01*
X140435615Y-75319848D01*
X140268414Y-75187800D01*
X140268410Y-75187798D01*
X140264359Y-75184598D01*
X140068789Y-75076638D01*
X140063920Y-75074914D01*
X140063916Y-75074912D01*
X139978847Y-75044788D01*
X139921311Y-75003194D01*
X139895395Y-74937096D01*
X139909329Y-74867480D01*
X139931812Y-74836920D01*
X141296899Y-73471833D01*
X141359211Y-73437807D01*
X141411112Y-73437457D01*
X141588597Y-73473567D01*
X141593772Y-73473757D01*
X141593774Y-73473757D01*
X141806673Y-73481564D01*
X141806677Y-73481564D01*
X141811837Y-73481753D01*
X141816957Y-73481097D01*
X141816959Y-73481097D01*
X142028288Y-73454025D01*
X142028289Y-73454025D01*
X142033416Y-73453368D01*
X142038366Y-73451883D01*
X142242429Y-73390661D01*
X142242434Y-73390659D01*
X142247384Y-73389174D01*
X142447994Y-73290896D01*
X142629860Y-73161173D01*
X142634854Y-73156197D01*
X142755393Y-73036078D01*
X142788096Y-73003489D01*
X142918453Y-72822077D01*
X142924128Y-72810596D01*
X143015136Y-72626453D01*
X143015137Y-72626451D01*
X143017430Y-72621811D01*
X143082370Y-72408069D01*
X143111529Y-72186590D01*
X143112780Y-72135401D01*
X143113074Y-72123365D01*
X143113074Y-72123361D01*
X143113156Y-72120000D01*
X143094852Y-71897361D01*
X143040431Y-71680702D01*
X142951354Y-71475840D01*
X142830014Y-71288277D01*
X142679670Y-71123051D01*
X142675619Y-71119852D01*
X142675615Y-71119848D01*
X142508414Y-70987800D01*
X142508410Y-70987798D01*
X142504359Y-70984598D01*
X142463053Y-70961796D01*
X142413084Y-70911364D01*
X142398312Y-70841921D01*
X142423428Y-70775516D01*
X142450780Y-70748909D01*
X142553693Y-70675502D01*
X142629860Y-70621173D01*
X142788096Y-70463489D01*
X142797213Y-70450802D01*
X142915435Y-70286277D01*
X142918453Y-70282077D01*
X142930631Y-70257438D01*
X143015136Y-70086453D01*
X143015137Y-70086451D01*
X143017430Y-70081811D01*
X143082370Y-69868069D01*
X143111529Y-69646590D01*
X143113156Y-69580000D01*
X143094852Y-69357361D01*
X143040431Y-69140702D01*
X142951354Y-68935840D01*
X142868655Y-68808007D01*
X142832822Y-68752617D01*
X142832820Y-68752614D01*
X142830014Y-68748277D01*
X142679670Y-68583051D01*
X142675619Y-68579852D01*
X142675615Y-68579848D01*
X142508414Y-68447800D01*
X142508410Y-68447798D01*
X142504359Y-68444598D01*
X142462569Y-68421529D01*
X142412598Y-68371097D01*
X142397826Y-68301654D01*
X142422942Y-68235248D01*
X142450294Y-68208641D01*
X142625328Y-68083792D01*
X142633200Y-68077139D01*
X142784052Y-67926812D01*
X142790730Y-67918965D01*
X142915003Y-67746020D01*
X142920313Y-67737183D01*
X143014670Y-67546267D01*
X143018469Y-67536672D01*
X143080377Y-67332910D01*
X143082555Y-67322837D01*
X143083986Y-67311962D01*
X143081775Y-67297778D01*
X143068617Y-67294000D01*
X137870116Y-67294000D01*
X137854877Y-67298475D01*
X137853672Y-67299865D01*
X137852001Y-67307548D01*
X137852001Y-67934669D01*
X137852371Y-67941490D01*
X137857895Y-67992352D01*
X137861521Y-68007604D01*
X137906676Y-68128054D01*
X137915214Y-68143649D01*
X137991715Y-68245724D01*
X138004276Y-68258285D01*
X138106351Y-68334786D01*
X138121946Y-68343324D01*
X138230827Y-68384142D01*
X138287591Y-68426784D01*
X138312291Y-68493345D01*
X138297083Y-68562694D01*
X138277691Y-68589175D01*
X138170889Y-68700937D01*
X138150629Y-68722138D01*
X138024743Y-68906680D01*
X137992602Y-68975922D01*
X137938260Y-69092993D01*
X137930688Y-69109305D01*
X137870989Y-69324570D01*
X137847251Y-69546695D01*
X137847548Y-69551848D01*
X137847548Y-69551851D01*
X137853011Y-69646590D01*
X137860110Y-69769715D01*
X137861247Y-69774761D01*
X137861248Y-69774767D01*
X137892933Y-69915360D01*
X137888397Y-69986212D01*
X137859111Y-70032156D01*
X136312538Y-71578729D01*
X136250226Y-71612755D01*
X136179411Y-71607690D01*
X136122575Y-71565143D01*
X136107897Y-71539883D01*
X136071354Y-71455840D01*
X135987035Y-71325502D01*
X135952822Y-71272617D01*
X135952820Y-71272614D01*
X135950014Y-71268277D01*
X135799670Y-71103051D01*
X135795619Y-71099852D01*
X135795615Y-71099848D01*
X135628414Y-70967800D01*
X135628410Y-70967798D01*
X135624359Y-70964598D01*
X135583053Y-70941796D01*
X135533084Y-70891364D01*
X135518312Y-70821921D01*
X135543428Y-70755516D01*
X135570780Y-70728909D01*
X135645654Y-70675502D01*
X135749860Y-70601173D01*
X135764572Y-70586513D01*
X135888026Y-70463489D01*
X135908096Y-70443489D01*
X136038453Y-70262077D01*
X136127546Y-70081811D01*
X136135136Y-70066453D01*
X136135137Y-70066451D01*
X136137430Y-70061811D01*
X136202370Y-69848069D01*
X136231529Y-69626590D01*
X136232270Y-69596253D01*
X136233074Y-69563365D01*
X136233074Y-69563361D01*
X136233156Y-69560000D01*
X136214852Y-69337361D01*
X136160431Y-69120702D01*
X136071354Y-68915840D01*
X135985615Y-68783307D01*
X135952822Y-68732617D01*
X135952820Y-68732614D01*
X135950014Y-68728277D01*
X135946540Y-68724459D01*
X135946533Y-68724450D01*
X135802435Y-68566088D01*
X135771383Y-68502242D01*
X135779779Y-68431744D01*
X135824956Y-68376976D01*
X135851400Y-68363307D01*
X135958052Y-68323325D01*
X135973649Y-68314786D01*
X136075724Y-68238285D01*
X136088285Y-68225724D01*
X136164786Y-68123649D01*
X136173324Y-68108054D01*
X136218478Y-67987606D01*
X136222105Y-67972351D01*
X136227631Y-67921486D01*
X136228000Y-67914672D01*
X136228000Y-67292115D01*
X136223525Y-67276876D01*
X136222135Y-67275671D01*
X136214452Y-67274000D01*
X133530116Y-67274000D01*
X133514877Y-67278475D01*
X133513672Y-67279865D01*
X133512001Y-67287548D01*
X133512001Y-67914669D01*
X133512371Y-67921490D01*
X133517895Y-67972352D01*
X133521521Y-67987604D01*
X133566676Y-68108054D01*
X133575214Y-68123649D01*
X133651715Y-68225724D01*
X133664276Y-68238285D01*
X133766351Y-68314786D01*
X133781946Y-68323324D01*
X133890827Y-68364142D01*
X133947591Y-68406784D01*
X133972291Y-68473345D01*
X133957083Y-68542694D01*
X133937691Y-68569175D01*
X133835692Y-68675911D01*
X133810629Y-68702138D01*
X133807715Y-68706410D01*
X133807714Y-68706411D01*
X133765470Y-68768339D01*
X133684743Y-68886680D01*
X133590688Y-69089305D01*
X133575043Y-69145720D01*
X133534427Y-69292173D01*
X133496948Y-69352470D01*
X133432819Y-69382933D01*
X133413010Y-69384500D01*
X133351032Y-69384500D01*
X133282911Y-69364498D01*
X133236418Y-69310842D01*
X133225050Y-69260655D01*
X133182402Y-66767885D01*
X137852000Y-66767885D01*
X137856475Y-66783124D01*
X137857865Y-66784329D01*
X137865548Y-66786000D01*
X138937885Y-66786000D01*
X138953124Y-66781525D01*
X138954329Y-66780135D01*
X138956000Y-66772452D01*
X138956000Y-66767885D01*
X139464000Y-66767885D01*
X139468475Y-66783124D01*
X139469865Y-66784329D01*
X139477548Y-66786000D01*
X141477885Y-66786000D01*
X141493124Y-66781525D01*
X141494329Y-66780135D01*
X141496000Y-66772452D01*
X141496000Y-66767885D01*
X142004000Y-66767885D01*
X142008475Y-66783124D01*
X142009865Y-66784329D01*
X142017548Y-66786000D01*
X143068344Y-66786000D01*
X143081875Y-66782027D01*
X143083180Y-66772947D01*
X143041214Y-66605875D01*
X143037894Y-66596124D01*
X142952972Y-66400814D01*
X142948105Y-66391739D01*
X142832426Y-66212926D01*
X142826136Y-66204757D01*
X142682806Y-66047240D01*
X142675273Y-66040215D01*
X142508139Y-65908222D01*
X142499552Y-65902517D01*
X142313117Y-65799599D01*
X142303705Y-65795369D01*
X142102959Y-65724280D01*
X142092988Y-65721646D01*
X142021837Y-65708972D01*
X142008540Y-65710432D01*
X142004000Y-65724989D01*
X142004000Y-66767885D01*
X141496000Y-66767885D01*
X141496000Y-65723102D01*
X141492082Y-65709758D01*
X141477806Y-65707771D01*
X141439324Y-65713660D01*
X141429288Y-65716051D01*
X141226868Y-65782212D01*
X141217359Y-65786209D01*
X141028463Y-65884542D01*
X141019738Y-65890036D01*
X140849433Y-66017905D01*
X140841726Y-66024748D01*
X140764094Y-66105985D01*
X140702570Y-66141415D01*
X140631657Y-66137958D01*
X140573871Y-66096712D01*
X140555018Y-66063164D01*
X140513324Y-65951946D01*
X140504786Y-65936351D01*
X140428285Y-65834276D01*
X140415724Y-65821715D01*
X140313649Y-65745214D01*
X140298054Y-65736676D01*
X140177606Y-65691522D01*
X140162351Y-65687895D01*
X140111486Y-65682369D01*
X140104672Y-65682000D01*
X139482115Y-65682000D01*
X139466876Y-65686475D01*
X139465671Y-65687865D01*
X139464000Y-65695548D01*
X139464000Y-66767885D01*
X138956000Y-66767885D01*
X138956000Y-65700116D01*
X138951525Y-65684877D01*
X138950135Y-65683672D01*
X138942452Y-65682001D01*
X138315331Y-65682001D01*
X138308510Y-65682371D01*
X138257648Y-65687895D01*
X138242396Y-65691521D01*
X138121946Y-65736676D01*
X138106351Y-65745214D01*
X138004276Y-65821715D01*
X137991715Y-65834276D01*
X137915214Y-65936351D01*
X137906676Y-65951946D01*
X137861522Y-66072394D01*
X137857895Y-66087649D01*
X137852369Y-66138514D01*
X137852000Y-66145328D01*
X137852000Y-66767885D01*
X133182402Y-66767885D01*
X133182060Y-66747885D01*
X133512000Y-66747885D01*
X133516475Y-66763124D01*
X133517865Y-66764329D01*
X133525548Y-66766000D01*
X134597885Y-66766000D01*
X134613124Y-66761525D01*
X134614329Y-66760135D01*
X134616000Y-66752452D01*
X134616000Y-66747885D01*
X135124000Y-66747885D01*
X135128475Y-66763124D01*
X135129865Y-66764329D01*
X135137548Y-66766000D01*
X136209884Y-66766000D01*
X136225123Y-66761525D01*
X136226328Y-66760135D01*
X136227999Y-66752452D01*
X136227999Y-66125331D01*
X136227629Y-66118510D01*
X136222105Y-66067648D01*
X136218479Y-66052396D01*
X136173324Y-65931946D01*
X136164786Y-65916351D01*
X136088285Y-65814276D01*
X136075723Y-65801714D01*
X135973649Y-65725214D01*
X135958054Y-65716676D01*
X135837606Y-65671522D01*
X135822351Y-65667895D01*
X135771486Y-65662369D01*
X135764672Y-65662000D01*
X135142115Y-65662000D01*
X135126876Y-65666475D01*
X135125671Y-65667865D01*
X135124000Y-65675548D01*
X135124000Y-66747885D01*
X134616000Y-66747885D01*
X134616000Y-65680116D01*
X134611525Y-65664877D01*
X134610135Y-65663672D01*
X134602452Y-65662001D01*
X133975331Y-65662001D01*
X133968510Y-65662371D01*
X133917648Y-65667895D01*
X133902396Y-65671521D01*
X133781946Y-65716676D01*
X133766351Y-65725214D01*
X133664277Y-65801714D01*
X133651715Y-65814276D01*
X133575214Y-65916351D01*
X133566676Y-65931946D01*
X133521522Y-66052394D01*
X133517895Y-66067649D01*
X133512369Y-66118514D01*
X133512000Y-66125328D01*
X133512000Y-66747885D01*
X133182060Y-66747885D01*
X133083721Y-61000000D01*
X145786761Y-61000000D01*
X145805696Y-61288886D01*
X145862175Y-61572828D01*
X145955234Y-61846970D01*
X146083279Y-62106619D01*
X146244119Y-62347335D01*
X146246831Y-62350427D01*
X146246836Y-62350434D01*
X146432167Y-62561761D01*
X146435004Y-62564996D01*
X146438093Y-62567705D01*
X146649565Y-62753163D01*
X146649571Y-62753168D01*
X146652665Y-62755881D01*
X146893380Y-62916721D01*
X146897079Y-62918545D01*
X146897084Y-62918548D01*
X147149335Y-63042944D01*
X147153030Y-63044766D01*
X147156928Y-63046089D01*
X147156930Y-63046090D01*
X147423262Y-63136498D01*
X147423266Y-63136499D01*
X147427172Y-63137825D01*
X147431216Y-63138629D01*
X147431222Y-63138631D01*
X147707071Y-63193500D01*
X147707074Y-63193500D01*
X147711114Y-63194304D01*
X147715225Y-63194573D01*
X147715229Y-63194574D01*
X147995881Y-63212969D01*
X148000000Y-63213239D01*
X148004119Y-63212969D01*
X148284771Y-63194574D01*
X148284775Y-63194573D01*
X148288886Y-63194304D01*
X148292926Y-63193500D01*
X148292929Y-63193500D01*
X148568778Y-63138631D01*
X148568784Y-63138629D01*
X148572828Y-63137825D01*
X148576734Y-63136499D01*
X148576738Y-63136498D01*
X148843070Y-63046090D01*
X148843072Y-63046089D01*
X148846970Y-63044766D01*
X148850665Y-63042944D01*
X149102916Y-62918548D01*
X149102921Y-62918545D01*
X149106620Y-62916721D01*
X149347335Y-62755881D01*
X149350429Y-62753168D01*
X149350435Y-62753163D01*
X149561907Y-62567705D01*
X149564996Y-62564996D01*
X149567833Y-62561761D01*
X149753164Y-62350434D01*
X149753169Y-62350427D01*
X149755881Y-62347335D01*
X149916721Y-62106619D01*
X150044766Y-61846970D01*
X150137825Y-61572828D01*
X150194304Y-61288886D01*
X150213239Y-61000000D01*
X150194304Y-60711114D01*
X150137825Y-60427172D01*
X150044766Y-60153030D01*
X149916721Y-59893381D01*
X149755881Y-59652665D01*
X149753169Y-59649573D01*
X149753164Y-59649566D01*
X149567705Y-59438093D01*
X149564996Y-59435004D01*
X149561733Y-59432142D01*
X149350435Y-59246837D01*
X149350429Y-59246832D01*
X149347335Y-59244119D01*
X149106620Y-59083279D01*
X149102921Y-59081455D01*
X149102916Y-59081452D01*
X148850665Y-58957056D01*
X148850663Y-58957055D01*
X148846970Y-58955234D01*
X148843070Y-58953910D01*
X148576738Y-58863502D01*
X148576734Y-58863501D01*
X148572828Y-58862175D01*
X148568784Y-58861371D01*
X148568778Y-58861369D01*
X148292929Y-58806500D01*
X148292926Y-58806500D01*
X148288886Y-58805696D01*
X148284775Y-58805427D01*
X148284771Y-58805426D01*
X148004119Y-58787031D01*
X148000000Y-58786761D01*
X147995881Y-58787031D01*
X147715229Y-58805426D01*
X147715225Y-58805427D01*
X147711114Y-58805696D01*
X147707074Y-58806500D01*
X147707071Y-58806500D01*
X147431222Y-58861369D01*
X147431216Y-58861371D01*
X147427172Y-58862175D01*
X147423266Y-58863501D01*
X147423262Y-58863502D01*
X147156930Y-58953910D01*
X147153030Y-58955234D01*
X146893381Y-59083279D01*
X146652665Y-59244119D01*
X146649573Y-59246831D01*
X146649566Y-59246836D01*
X146438239Y-59432167D01*
X146435004Y-59435004D01*
X146432295Y-59438093D01*
X146246836Y-59649566D01*
X146246831Y-59649573D01*
X146244119Y-59652665D01*
X146083279Y-59893381D01*
X145955234Y-60153030D01*
X145862175Y-60427172D01*
X145805696Y-60711114D01*
X145786761Y-61000000D01*
X133083721Y-61000000D01*
X133032212Y-57989284D01*
X133051046Y-57920831D01*
X133103899Y-57873428D01*
X133159298Y-57861134D01*
X151145992Y-58018912D01*
G37*
%TD.AperFunction*%
%TA.AperFunction,Conductor*%
G36*
X102434121Y-57630002D02*
G01*
X102480614Y-57683658D01*
X102492000Y-57736000D01*
X102492000Y-68491298D01*
X102491998Y-68492068D01*
X102491524Y-68569652D01*
X102493990Y-68578281D01*
X102493991Y-68578286D01*
X102499639Y-68598048D01*
X102503217Y-68614809D01*
X102506130Y-68635152D01*
X102506133Y-68635162D01*
X102507405Y-68644045D01*
X102518021Y-68667395D01*
X102524464Y-68684907D01*
X102531512Y-68709565D01*
X102547274Y-68734548D01*
X102555404Y-68749614D01*
X102567633Y-68776510D01*
X102584374Y-68795939D01*
X102595479Y-68810947D01*
X102609160Y-68832631D01*
X102615888Y-68838573D01*
X102631296Y-68852181D01*
X102643340Y-68864373D01*
X102662619Y-68886747D01*
X102670147Y-68891626D01*
X102670150Y-68891629D01*
X102684139Y-68900696D01*
X102699013Y-68911986D01*
X102718228Y-68928956D01*
X102726354Y-68932771D01*
X102726355Y-68932772D01*
X102726398Y-68932792D01*
X102744966Y-68941510D01*
X102759935Y-68949824D01*
X102784727Y-68965893D01*
X102793327Y-68968465D01*
X102809290Y-68973239D01*
X102826736Y-68979901D01*
X102849948Y-68990799D01*
X102851632Y-68991061D01*
X102907870Y-69028090D01*
X102936646Y-69092993D01*
X102937719Y-69107376D01*
X102938379Y-69145720D01*
X102940000Y-69240000D01*
X102952669Y-69240130D01*
X102952671Y-69240130D01*
X107720778Y-69288928D01*
X117281598Y-69386778D01*
X117349509Y-69407475D01*
X117395450Y-69461603D01*
X117404834Y-69531977D01*
X117374682Y-69596253D01*
X117369402Y-69601865D01*
X108726517Y-78244750D01*
X108718191Y-78252326D01*
X108711697Y-78256447D01*
X108706274Y-78262222D01*
X108664915Y-78306265D01*
X108662160Y-78309107D01*
X108642361Y-78328906D01*
X108639937Y-78332031D01*
X108639929Y-78332040D01*
X108639863Y-78332126D01*
X108632154Y-78341152D01*
X108613349Y-78361177D01*
X108552136Y-78397142D01*
X108481197Y-78394303D01*
X108423053Y-78353562D01*
X108396165Y-78287854D01*
X108395500Y-78274923D01*
X108395500Y-76495422D01*
X108415502Y-76427301D01*
X108432405Y-76406327D01*
X108596327Y-76242405D01*
X108658639Y-76208379D01*
X108685422Y-76205500D01*
X109580980Y-76205500D01*
X109592214Y-76206030D01*
X109599719Y-76207708D01*
X109668012Y-76205562D01*
X109671969Y-76205500D01*
X109699983Y-76205500D01*
X109703908Y-76205004D01*
X109703909Y-76205004D01*
X109704004Y-76204992D01*
X109715849Y-76204059D01*
X109745670Y-76203122D01*
X109752282Y-76202914D01*
X109752283Y-76202914D01*
X109760205Y-76202665D01*
X109779749Y-76196987D01*
X109799112Y-76192977D01*
X109811440Y-76191420D01*
X109811442Y-76191420D01*
X109819299Y-76190427D01*
X109826663Y-76187511D01*
X109826668Y-76187510D01*
X109860556Y-76174093D01*
X109871785Y-76170248D01*
X109888465Y-76165402D01*
X109914393Y-76157869D01*
X109921220Y-76153831D01*
X109921223Y-76153830D01*
X109931906Y-76147512D01*
X109949664Y-76138812D01*
X109961215Y-76134239D01*
X109961221Y-76134235D01*
X109968588Y-76131319D01*
X110004491Y-76105234D01*
X110014410Y-76098719D01*
X110045768Y-76080174D01*
X110045772Y-76080171D01*
X110052598Y-76076134D01*
X110066982Y-76061750D01*
X110082016Y-76048909D01*
X110092073Y-76041602D01*
X110098487Y-76036942D01*
X110126778Y-76002744D01*
X110134767Y-75993965D01*
X111233328Y-74895405D01*
X111295640Y-74861379D01*
X111322423Y-74858500D01*
X111375487Y-74858500D01*
X111381939Y-74857128D01*
X111381944Y-74857128D01*
X111477012Y-74836920D01*
X111562288Y-74818794D01*
X111575176Y-74813056D01*
X111730722Y-74743803D01*
X111730724Y-74743802D01*
X111736752Y-74741118D01*
X111779979Y-74709712D01*
X111792157Y-74700864D01*
X111891253Y-74628866D01*
X112019040Y-74486944D01*
X112114527Y-74321556D01*
X112173542Y-74139928D01*
X112181517Y-74064056D01*
X112192814Y-73956565D01*
X112193504Y-73950000D01*
X112184181Y-73861292D01*
X112174232Y-73766635D01*
X112174232Y-73766633D01*
X112173542Y-73760072D01*
X112114527Y-73578444D01*
X112096054Y-73546447D01*
X112058593Y-73481564D01*
X112019040Y-73413056D01*
X111998876Y-73390661D01*
X111895675Y-73276045D01*
X111895674Y-73276044D01*
X111891253Y-73271134D01*
X111736752Y-73158882D01*
X111730724Y-73156198D01*
X111730722Y-73156197D01*
X111568319Y-73083891D01*
X111568318Y-73083891D01*
X111562288Y-73081206D01*
X111468888Y-73061353D01*
X111381944Y-73042872D01*
X111381939Y-73042872D01*
X111375487Y-73041500D01*
X111184513Y-73041500D01*
X111178061Y-73042872D01*
X111178056Y-73042872D01*
X111091112Y-73061353D01*
X110997712Y-73081206D01*
X110991682Y-73083891D01*
X110991681Y-73083891D01*
X110829278Y-73156197D01*
X110829276Y-73156198D01*
X110823248Y-73158882D01*
X110668747Y-73271134D01*
X110664326Y-73276044D01*
X110664325Y-73276045D01*
X110561125Y-73390661D01*
X110540960Y-73413056D01*
X110501407Y-73481564D01*
X110463947Y-73546447D01*
X110445473Y-73578444D01*
X110386458Y-73760072D01*
X110385768Y-73766633D01*
X110385768Y-73766635D01*
X110369425Y-73922132D01*
X110342412Y-73987789D01*
X110333210Y-73998058D01*
X109433671Y-74897596D01*
X109371359Y-74931621D01*
X109344576Y-74934500D01*
X108449020Y-74934500D01*
X108437786Y-74933970D01*
X108430281Y-74932292D01*
X108362571Y-74934420D01*
X108361988Y-74934438D01*
X108358031Y-74934500D01*
X108330017Y-74934500D01*
X108326092Y-74934996D01*
X108326091Y-74934996D01*
X108325996Y-74935008D01*
X108314151Y-74935941D01*
X108284330Y-74936878D01*
X108277718Y-74937086D01*
X108277717Y-74937086D01*
X108269795Y-74937335D01*
X108250252Y-74943013D01*
X108230888Y-74947023D01*
X108218560Y-74948580D01*
X108218558Y-74948580D01*
X108210701Y-74949573D01*
X108203337Y-74952489D01*
X108203332Y-74952490D01*
X108169444Y-74965907D01*
X108158215Y-74969752D01*
X108144241Y-74973812D01*
X108115607Y-74982131D01*
X108108781Y-74986168D01*
X108098091Y-74992490D01*
X108080341Y-75001187D01*
X108061412Y-75008681D01*
X108054996Y-75013342D01*
X108054995Y-75013343D01*
X108025519Y-75034759D01*
X108015595Y-75041278D01*
X107984224Y-75059830D01*
X107984219Y-75059834D01*
X107977401Y-75063866D01*
X107963014Y-75078253D01*
X107947980Y-75091094D01*
X107931513Y-75103058D01*
X107926460Y-75109166D01*
X107903228Y-75137249D01*
X107895238Y-75146029D01*
X107366517Y-75674750D01*
X107358191Y-75682326D01*
X107351697Y-75686447D01*
X107324630Y-75715271D01*
X107304915Y-75736265D01*
X107302160Y-75739107D01*
X107282361Y-75758906D01*
X107279937Y-75762031D01*
X107279929Y-75762040D01*
X107279863Y-75762126D01*
X107272155Y-75771151D01*
X107241783Y-75803494D01*
X107237965Y-75810438D01*
X107237964Y-75810440D01*
X107231978Y-75821329D01*
X107221127Y-75837847D01*
X107208650Y-75853933D01*
X107191024Y-75894666D01*
X107185807Y-75905314D01*
X107164431Y-75944197D01*
X107162460Y-75951872D01*
X107162458Y-75951878D01*
X107159369Y-75963911D01*
X107152966Y-75982613D01*
X107144883Y-76001292D01*
X107143644Y-76009117D01*
X107137940Y-76045127D01*
X107135535Y-76056740D01*
X107124500Y-76099718D01*
X107124500Y-76120065D01*
X107122949Y-76139776D01*
X107119765Y-76159879D01*
X107120511Y-76167771D01*
X107123941Y-76204056D01*
X107124500Y-76215914D01*
X107124500Y-93280980D01*
X107123970Y-93292214D01*
X107122292Y-93299719D01*
X107122541Y-93307638D01*
X107124438Y-93368012D01*
X107124500Y-93371969D01*
X107124500Y-93399983D01*
X107124996Y-93403908D01*
X107124996Y-93403909D01*
X107125008Y-93404004D01*
X107125941Y-93415849D01*
X107127335Y-93460205D01*
X107129547Y-93467817D01*
X107133013Y-93479748D01*
X107137023Y-93499112D01*
X107139573Y-93519299D01*
X107142489Y-93526663D01*
X107142490Y-93526668D01*
X107155907Y-93560556D01*
X107159752Y-93571785D01*
X107172131Y-93614393D01*
X107176169Y-93621220D01*
X107176170Y-93621223D01*
X107182488Y-93631906D01*
X107191188Y-93649664D01*
X107195761Y-93661215D01*
X107195765Y-93661221D01*
X107198681Y-93668588D01*
X107203339Y-93674999D01*
X107203340Y-93675001D01*
X107224764Y-93704488D01*
X107231281Y-93714410D01*
X107249826Y-93745768D01*
X107249829Y-93745772D01*
X107253866Y-93752598D01*
X107268250Y-93766982D01*
X107281091Y-93782016D01*
X107293058Y-93798487D01*
X107299166Y-93803540D01*
X107327255Y-93826777D01*
X107336035Y-93834767D01*
X108939750Y-95438483D01*
X108947326Y-95446809D01*
X108951447Y-95453303D01*
X108957222Y-95458726D01*
X109001265Y-95500085D01*
X109004107Y-95502840D01*
X109023906Y-95522639D01*
X109027031Y-95525063D01*
X109027040Y-95525071D01*
X109027126Y-95525137D01*
X109036151Y-95532845D01*
X109068494Y-95563217D01*
X109075438Y-95567035D01*
X109075440Y-95567036D01*
X109086329Y-95573022D01*
X109102847Y-95583873D01*
X109118933Y-95596350D01*
X109159666Y-95613976D01*
X109170314Y-95619193D01*
X109181942Y-95625585D01*
X109209197Y-95640569D01*
X109216872Y-95642540D01*
X109216878Y-95642542D01*
X109228911Y-95645631D01*
X109247613Y-95652034D01*
X109266292Y-95660117D01*
X109299818Y-95665427D01*
X109310127Y-95667060D01*
X109321740Y-95669465D01*
X109364718Y-95680500D01*
X109385065Y-95680500D01*
X109404777Y-95682051D01*
X109424879Y-95685235D01*
X109432771Y-95684489D01*
X109469056Y-95681059D01*
X109480914Y-95680500D01*
X109928601Y-95680500D01*
X109996722Y-95700502D01*
X110013908Y-95715109D01*
X110014420Y-95714540D01*
X110019332Y-95718963D01*
X110023747Y-95723866D01*
X110178248Y-95836118D01*
X110184276Y-95838802D01*
X110184278Y-95838803D01*
X110346681Y-95911109D01*
X110352712Y-95913794D01*
X110446113Y-95933647D01*
X110533056Y-95952128D01*
X110533061Y-95952128D01*
X110539513Y-95953500D01*
X110730487Y-95953500D01*
X110736939Y-95952128D01*
X110736944Y-95952128D01*
X110823887Y-95933647D01*
X110917288Y-95913794D01*
X110923319Y-95911109D01*
X111085722Y-95838803D01*
X111085724Y-95838802D01*
X111091752Y-95836118D01*
X111246253Y-95723866D01*
X111250668Y-95718963D01*
X111255580Y-95714540D01*
X111257221Y-95716362D01*
X111308210Y-95684950D01*
X111341399Y-95680500D01*
X122135980Y-95680500D01*
X122147214Y-95681030D01*
X122154719Y-95682708D01*
X122223012Y-95680562D01*
X122226969Y-95680500D01*
X122254983Y-95680500D01*
X122258908Y-95680004D01*
X122258909Y-95680004D01*
X122259004Y-95679992D01*
X122270849Y-95679059D01*
X122300670Y-95678122D01*
X122307282Y-95677914D01*
X122307283Y-95677914D01*
X122315205Y-95677665D01*
X122334749Y-95671987D01*
X122354112Y-95667977D01*
X122366440Y-95666420D01*
X122366442Y-95666420D01*
X122374299Y-95665427D01*
X122381663Y-95662511D01*
X122381668Y-95662510D01*
X122415556Y-95649093D01*
X122426785Y-95645248D01*
X122443465Y-95640402D01*
X122469393Y-95632869D01*
X122476220Y-95628831D01*
X122476223Y-95628830D01*
X122486906Y-95622512D01*
X122504664Y-95613812D01*
X122516215Y-95609239D01*
X122516221Y-95609235D01*
X122523588Y-95606319D01*
X122532977Y-95599498D01*
X122559488Y-95580236D01*
X122569410Y-95573719D01*
X122600768Y-95555174D01*
X122600772Y-95555171D01*
X122607598Y-95551134D01*
X122621982Y-95536750D01*
X122637016Y-95523909D01*
X122647073Y-95516602D01*
X122653487Y-95511942D01*
X122681778Y-95477744D01*
X122689767Y-95468965D01*
X124883483Y-93275250D01*
X124891809Y-93267674D01*
X124898303Y-93263553D01*
X124945086Y-93213734D01*
X124947840Y-93210893D01*
X124967639Y-93191094D01*
X124970063Y-93187969D01*
X124970071Y-93187960D01*
X124970137Y-93187874D01*
X124977845Y-93178849D01*
X125002790Y-93152285D01*
X125008217Y-93146506D01*
X125018023Y-93128669D01*
X125028873Y-93112153D01*
X125041350Y-93096067D01*
X125058976Y-93055334D01*
X125064193Y-93044686D01*
X125081749Y-93012751D01*
X125085569Y-93005803D01*
X125087540Y-92998128D01*
X125087542Y-92998122D01*
X125090631Y-92986089D01*
X125097034Y-92967387D01*
X125105117Y-92948708D01*
X125112060Y-92904873D01*
X125114467Y-92893251D01*
X125125500Y-92850282D01*
X125125500Y-92829935D01*
X125127051Y-92810224D01*
X125128995Y-92797950D01*
X125130235Y-92790121D01*
X125126059Y-92745944D01*
X125125500Y-92734086D01*
X125125500Y-91615422D01*
X125145502Y-91547301D01*
X125162405Y-91526327D01*
X126863483Y-89825250D01*
X126871809Y-89817674D01*
X126878303Y-89813553D01*
X126925086Y-89763734D01*
X126927840Y-89760893D01*
X126947639Y-89741094D01*
X126950063Y-89737969D01*
X126950071Y-89737960D01*
X126950137Y-89737874D01*
X126957845Y-89728849D01*
X126982790Y-89702285D01*
X126988217Y-89696506D01*
X126998023Y-89678669D01*
X127008873Y-89662153D01*
X127021350Y-89646067D01*
X127038976Y-89605334D01*
X127044193Y-89594686D01*
X127061749Y-89562751D01*
X127065569Y-89555803D01*
X127067540Y-89548128D01*
X127067542Y-89548122D01*
X127070631Y-89536089D01*
X127077034Y-89517387D01*
X127085117Y-89498708D01*
X127092060Y-89454873D01*
X127094467Y-89443251D01*
X127102330Y-89412627D01*
X127105500Y-89400282D01*
X127105500Y-89379935D01*
X127107051Y-89360224D01*
X127108995Y-89347950D01*
X127110235Y-89340121D01*
X127106059Y-89295944D01*
X127105500Y-89284086D01*
X127105500Y-87455847D01*
X127125502Y-87387726D01*
X127179158Y-87341233D01*
X127249432Y-87331129D01*
X127314012Y-87360623D01*
X127325135Y-87371536D01*
X127358747Y-87408866D01*
X127457843Y-87480864D01*
X127483004Y-87499144D01*
X127513248Y-87521118D01*
X127519276Y-87523802D01*
X127519278Y-87523803D01*
X127681681Y-87596109D01*
X127687712Y-87598794D01*
X127763955Y-87615000D01*
X127868056Y-87637128D01*
X127868061Y-87637128D01*
X127874513Y-87638500D01*
X128065487Y-87638500D01*
X128071939Y-87637128D01*
X128071944Y-87637128D01*
X128176045Y-87615000D01*
X128252288Y-87598794D01*
X128258319Y-87596109D01*
X128420722Y-87523803D01*
X128420724Y-87523802D01*
X128426752Y-87521118D01*
X128456997Y-87499144D01*
X128482157Y-87480864D01*
X128581253Y-87408866D01*
X128695883Y-87281556D01*
X128704621Y-87271852D01*
X128704622Y-87271851D01*
X128709040Y-87266944D01*
X128795531Y-87117137D01*
X128801223Y-87107279D01*
X128801224Y-87107278D01*
X128804527Y-87101556D01*
X128863542Y-86919928D01*
X128864586Y-86910000D01*
X128880575Y-86757868D01*
X128907588Y-86692211D01*
X128916790Y-86681942D01*
X129323488Y-86275245D01*
X129331807Y-86267675D01*
X129338303Y-86263553D01*
X129385086Y-86213734D01*
X129387840Y-86210893D01*
X129407639Y-86191094D01*
X129410063Y-86187969D01*
X129410071Y-86187960D01*
X129410137Y-86187874D01*
X129417845Y-86178849D01*
X129442790Y-86152285D01*
X129448217Y-86146506D01*
X129458023Y-86128669D01*
X129468873Y-86112153D01*
X129481350Y-86096067D01*
X129498976Y-86055334D01*
X129504193Y-86044686D01*
X129516253Y-86022749D01*
X129525569Y-86005803D01*
X129527540Y-85998128D01*
X129527542Y-85998122D01*
X129530631Y-85986089D01*
X129537034Y-85967387D01*
X129545117Y-85948708D01*
X129552060Y-85904873D01*
X129554467Y-85893251D01*
X129565500Y-85850282D01*
X129565500Y-85829935D01*
X129567051Y-85810224D01*
X129568995Y-85797950D01*
X129570235Y-85790121D01*
X129566059Y-85745944D01*
X129565500Y-85734086D01*
X129565500Y-85145423D01*
X129585502Y-85077302D01*
X129602405Y-85056327D01*
X129786329Y-84872404D01*
X129848641Y-84838379D01*
X129875424Y-84835500D01*
X132145245Y-84835500D01*
X132213366Y-84855502D01*
X132259859Y-84909158D01*
X132269963Y-84979432D01*
X132265078Y-85000436D01*
X132216458Y-85150072D01*
X132215768Y-85156633D01*
X132215768Y-85156635D01*
X132209700Y-85214373D01*
X132196496Y-85340000D01*
X132197186Y-85346565D01*
X132212179Y-85489211D01*
X132216458Y-85529928D01*
X132275473Y-85711556D01*
X132370960Y-85876944D01*
X132412758Y-85923365D01*
X132425740Y-85937783D01*
X132456457Y-86001791D01*
X132447692Y-86072244D01*
X132406164Y-86124029D01*
X132267567Y-86224726D01*
X132258747Y-86231134D01*
X132254326Y-86236044D01*
X132254325Y-86236045D01*
X132176428Y-86322559D01*
X132130960Y-86373056D01*
X132103566Y-86420504D01*
X132039703Y-86531118D01*
X132035473Y-86538444D01*
X131976458Y-86720072D01*
X131975768Y-86726633D01*
X131975768Y-86726635D01*
X131960493Y-86871971D01*
X131956496Y-86910000D01*
X131976458Y-87099928D01*
X132035473Y-87281556D01*
X132130960Y-87446944D01*
X132135378Y-87451851D01*
X132135379Y-87451852D01*
X132180350Y-87501797D01*
X132258747Y-87588866D01*
X132413248Y-87701118D01*
X132419276Y-87703802D01*
X132419278Y-87703803D01*
X132574813Y-87773051D01*
X132587712Y-87778794D01*
X132681112Y-87798647D01*
X132768056Y-87817128D01*
X132768061Y-87817128D01*
X132774513Y-87818500D01*
X132965487Y-87818500D01*
X132971939Y-87817128D01*
X132971944Y-87817128D01*
X133058887Y-87798647D01*
X133152288Y-87778794D01*
X133165187Y-87773051D01*
X133320722Y-87703803D01*
X133320724Y-87703802D01*
X133326752Y-87701118D01*
X133481253Y-87588866D01*
X133559650Y-87501797D01*
X133604621Y-87451852D01*
X133604622Y-87451851D01*
X133609040Y-87446944D01*
X133704527Y-87281556D01*
X133763542Y-87099928D01*
X133783504Y-86910000D01*
X133779507Y-86871971D01*
X133764232Y-86726635D01*
X133764232Y-86726633D01*
X133763542Y-86720072D01*
X133704527Y-86538444D01*
X133700298Y-86531118D01*
X133636434Y-86420504D01*
X133609040Y-86373056D01*
X133554260Y-86312216D01*
X133523543Y-86248209D01*
X133532308Y-86177756D01*
X133573836Y-86125971D01*
X133715909Y-86022749D01*
X133715911Y-86022747D01*
X133721253Y-86018866D01*
X133736131Y-86002342D01*
X133844621Y-85881852D01*
X133844622Y-85881851D01*
X133849040Y-85876944D01*
X133944527Y-85711556D01*
X134003542Y-85529928D01*
X134007822Y-85489211D01*
X134022814Y-85346565D01*
X134023504Y-85340000D01*
X134010300Y-85214373D01*
X134004232Y-85156635D01*
X134004232Y-85156633D01*
X134003542Y-85150072D01*
X133954922Y-85000436D01*
X133952894Y-84929469D01*
X133989557Y-84868671D01*
X134053269Y-84837345D01*
X134074755Y-84835500D01*
X136374577Y-84835500D01*
X136442698Y-84855502D01*
X136463673Y-84872405D01*
X137283211Y-85691944D01*
X137317236Y-85754256D01*
X137319425Y-85767868D01*
X137333825Y-85904873D01*
X137336458Y-85929928D01*
X137395473Y-86111556D01*
X137398776Y-86117278D01*
X137398777Y-86117279D01*
X137406767Y-86131118D01*
X137490960Y-86276944D01*
X137495378Y-86281851D01*
X137495379Y-86281852D01*
X137578295Y-86373940D01*
X137618747Y-86418866D01*
X137663317Y-86451248D01*
X137755288Y-86518069D01*
X137773248Y-86531118D01*
X137779276Y-86533802D01*
X137779278Y-86533803D01*
X137924838Y-86598610D01*
X137947712Y-86608794D01*
X138040444Y-86628505D01*
X138128056Y-86647128D01*
X138128061Y-86647128D01*
X138134513Y-86648500D01*
X138325487Y-86648500D01*
X138331939Y-86647128D01*
X138331944Y-86647128D01*
X138419556Y-86628505D01*
X138512288Y-86608794D01*
X138535162Y-86598610D01*
X138680722Y-86533803D01*
X138680724Y-86533802D01*
X138686752Y-86531118D01*
X138704713Y-86518069D01*
X138796683Y-86451248D01*
X138841253Y-86418866D01*
X138881705Y-86373940D01*
X138964621Y-86281852D01*
X138964622Y-86281851D01*
X138969040Y-86276944D01*
X139053233Y-86131118D01*
X139061223Y-86117279D01*
X139061224Y-86117278D01*
X139064527Y-86111556D01*
X139123542Y-85929928D01*
X139126176Y-85904873D01*
X139142814Y-85746565D01*
X139143504Y-85740000D01*
X139129262Y-85604498D01*
X139124232Y-85556635D01*
X139124232Y-85556633D01*
X139123542Y-85550072D01*
X139064527Y-85368444D01*
X138969040Y-85203056D01*
X138927243Y-85156635D01*
X138845675Y-85066045D01*
X138845674Y-85066044D01*
X138841253Y-85061134D01*
X138700918Y-84959174D01*
X138692094Y-84952763D01*
X138692093Y-84952762D01*
X138686752Y-84948882D01*
X138680724Y-84946198D01*
X138680722Y-84946197D01*
X138518319Y-84873891D01*
X138518318Y-84873891D01*
X138512288Y-84871206D01*
X138410057Y-84849476D01*
X138331944Y-84832872D01*
X138331939Y-84832872D01*
X138325487Y-84831500D01*
X138272423Y-84831500D01*
X138204302Y-84811498D01*
X138183327Y-84794595D01*
X137899328Y-84510595D01*
X137865303Y-84448283D01*
X137870368Y-84377467D01*
X137912915Y-84320632D01*
X137979435Y-84295821D01*
X137988424Y-84295500D01*
X138700980Y-84295500D01*
X138712214Y-84296030D01*
X138719719Y-84297708D01*
X138788012Y-84295562D01*
X138791969Y-84295500D01*
X138819983Y-84295500D01*
X138823908Y-84295004D01*
X138823909Y-84295004D01*
X138824004Y-84294992D01*
X138835849Y-84294059D01*
X138865670Y-84293122D01*
X138872282Y-84292914D01*
X138872283Y-84292914D01*
X138880205Y-84292665D01*
X138899749Y-84286987D01*
X138919112Y-84282977D01*
X138931440Y-84281420D01*
X138931442Y-84281420D01*
X138939299Y-84280427D01*
X138946663Y-84277511D01*
X138946668Y-84277510D01*
X138980556Y-84264093D01*
X138991785Y-84260248D01*
X139008465Y-84255402D01*
X139034393Y-84247869D01*
X139041220Y-84243831D01*
X139041223Y-84243830D01*
X139051906Y-84237512D01*
X139069664Y-84228812D01*
X139081215Y-84224239D01*
X139081221Y-84224235D01*
X139088588Y-84221319D01*
X139104267Y-84209928D01*
X139124488Y-84195236D01*
X139134410Y-84188719D01*
X139165768Y-84170174D01*
X139165772Y-84170171D01*
X139172598Y-84166134D01*
X139186982Y-84151750D01*
X139202016Y-84138909D01*
X139212073Y-84131602D01*
X139218487Y-84126942D01*
X139246778Y-84092744D01*
X139254767Y-84083965D01*
X140008327Y-83330405D01*
X140070639Y-83296379D01*
X140097422Y-83293500D01*
X140150487Y-83293500D01*
X140156939Y-83292128D01*
X140156944Y-83292128D01*
X140248691Y-83272626D01*
X140337288Y-83253794D01*
X140344233Y-83250702D01*
X140505722Y-83178803D01*
X140505724Y-83178802D01*
X140511752Y-83176118D01*
X140666253Y-83063866D01*
X140707148Y-83018448D01*
X140789621Y-82926852D01*
X140789622Y-82926851D01*
X140794040Y-82921944D01*
X140879363Y-82774161D01*
X140886223Y-82762279D01*
X140886224Y-82762278D01*
X140889527Y-82756556D01*
X140948542Y-82574928D01*
X140963021Y-82437173D01*
X140967814Y-82391565D01*
X140968504Y-82385000D01*
X140961515Y-82318500D01*
X140949232Y-82201635D01*
X140949232Y-82201633D01*
X140948542Y-82195072D01*
X140889527Y-82013444D01*
X140871983Y-81983056D01*
X140825973Y-81903365D01*
X140794040Y-81848056D01*
X140787808Y-81841134D01*
X140670675Y-81711045D01*
X140670674Y-81711044D01*
X140666253Y-81706134D01*
X140560649Y-81629408D01*
X140517094Y-81597763D01*
X140517093Y-81597762D01*
X140511752Y-81593882D01*
X140505724Y-81591198D01*
X140505722Y-81591197D01*
X140343319Y-81518891D01*
X140343318Y-81518891D01*
X140337288Y-81516206D01*
X140221955Y-81491691D01*
X140156944Y-81477872D01*
X140156939Y-81477872D01*
X140150487Y-81476500D01*
X139959513Y-81476500D01*
X139953061Y-81477872D01*
X139953056Y-81477872D01*
X139888045Y-81491691D01*
X139772712Y-81516206D01*
X139766682Y-81518891D01*
X139766681Y-81518891D01*
X139604278Y-81591197D01*
X139604276Y-81591198D01*
X139598248Y-81593882D01*
X139592907Y-81597762D01*
X139592906Y-81597763D01*
X139549351Y-81629408D01*
X139443747Y-81706134D01*
X139439326Y-81711044D01*
X139439325Y-81711045D01*
X139322193Y-81841134D01*
X139315960Y-81848056D01*
X139284027Y-81903365D01*
X139238018Y-81983056D01*
X139220473Y-82013444D01*
X139161458Y-82195072D01*
X139160768Y-82201633D01*
X139160768Y-82201635D01*
X139144425Y-82357132D01*
X139117412Y-82422789D01*
X139108210Y-82433057D01*
X138553672Y-82987595D01*
X138491360Y-83021621D01*
X138464577Y-83024500D01*
X133799029Y-83024500D01*
X133730908Y-83004498D01*
X133684415Y-82950842D01*
X133674311Y-82880568D01*
X133707178Y-82812248D01*
X133719303Y-82799336D01*
X133724728Y-82793559D01*
X133728546Y-82786614D01*
X133728549Y-82786610D01*
X133734537Y-82775719D01*
X133745389Y-82759198D01*
X133753003Y-82749382D01*
X133753003Y-82749381D01*
X133757861Y-82743119D01*
X133775485Y-82702391D01*
X133780707Y-82691734D01*
X133798259Y-82659807D01*
X133798260Y-82659804D01*
X133802080Y-82652856D01*
X133807143Y-82633138D01*
X133813545Y-82614439D01*
X133821628Y-82595760D01*
X133822867Y-82587936D01*
X133822869Y-82587930D01*
X133828571Y-82551933D01*
X133830977Y-82540313D01*
X133840039Y-82505016D01*
X133840039Y-82505015D01*
X133842011Y-82497335D01*
X133842011Y-82476987D01*
X133843562Y-82457276D01*
X133845506Y-82445002D01*
X133846746Y-82437173D01*
X133842570Y-82392997D01*
X133842011Y-82381139D01*
X133842011Y-80877885D01*
X141252000Y-80877885D01*
X141256475Y-80893124D01*
X141257865Y-80894329D01*
X141265548Y-80896000D01*
X142337885Y-80896000D01*
X142353124Y-80891525D01*
X142354329Y-80890135D01*
X142356000Y-80882452D01*
X142356000Y-80877885D01*
X142864000Y-80877885D01*
X142868475Y-80893124D01*
X142869865Y-80894329D01*
X142877548Y-80896000D01*
X143949884Y-80896000D01*
X143965123Y-80891525D01*
X143966328Y-80890135D01*
X143967999Y-80882452D01*
X143967999Y-80255331D01*
X143967629Y-80248510D01*
X143962105Y-80197648D01*
X143958479Y-80182396D01*
X143913324Y-80061946D01*
X143904786Y-80046351D01*
X143828285Y-79944276D01*
X143815724Y-79931715D01*
X143713649Y-79855214D01*
X143698054Y-79846676D01*
X143577606Y-79801522D01*
X143562351Y-79797895D01*
X143511486Y-79792369D01*
X143504672Y-79792000D01*
X142882115Y-79792000D01*
X142866876Y-79796475D01*
X142865671Y-79797865D01*
X142864000Y-79805548D01*
X142864000Y-80877885D01*
X142356000Y-80877885D01*
X142356000Y-79810116D01*
X142351525Y-79794877D01*
X142350135Y-79793672D01*
X142342452Y-79792001D01*
X141715331Y-79792001D01*
X141708510Y-79792371D01*
X141657648Y-79797895D01*
X141642396Y-79801521D01*
X141521946Y-79846676D01*
X141506351Y-79855214D01*
X141404276Y-79931715D01*
X141391715Y-79944276D01*
X141315214Y-80046351D01*
X141306676Y-80061946D01*
X141261522Y-80182394D01*
X141257895Y-80197649D01*
X141252369Y-80248514D01*
X141252000Y-80255328D01*
X141252000Y-80877885D01*
X133842011Y-80877885D01*
X133842011Y-78738911D01*
X133862013Y-78670790D01*
X133878916Y-78649816D01*
X135536328Y-76992405D01*
X135598640Y-76958379D01*
X135625423Y-76955500D01*
X135695500Y-76955500D01*
X135763621Y-76975502D01*
X135802933Y-77015666D01*
X135867287Y-77120683D01*
X135867291Y-77120688D01*
X135869987Y-77125088D01*
X136016250Y-77293938D01*
X136188126Y-77436632D01*
X136381000Y-77549338D01*
X136589692Y-77629030D01*
X136594760Y-77630061D01*
X136594763Y-77630062D01*
X136702017Y-77651883D01*
X136808597Y-77673567D01*
X136813772Y-77673757D01*
X136813774Y-77673757D01*
X137026673Y-77681564D01*
X137026677Y-77681564D01*
X137031837Y-77681753D01*
X137036957Y-77681097D01*
X137036959Y-77681097D01*
X137248288Y-77654025D01*
X137248289Y-77654025D01*
X137253416Y-77653368D01*
X137258366Y-77651883D01*
X137462429Y-77590661D01*
X137462434Y-77590659D01*
X137467384Y-77589174D01*
X137667994Y-77490896D01*
X137849860Y-77361173D01*
X137854590Y-77356460D01*
X138004435Y-77207137D01*
X138008096Y-77203489D01*
X138040726Y-77158080D01*
X138138453Y-77022077D01*
X138139776Y-77023028D01*
X138186645Y-76979857D01*
X138256580Y-76967625D01*
X138322026Y-76995144D01*
X138349875Y-77026994D01*
X138409987Y-77125088D01*
X138556250Y-77293938D01*
X138728126Y-77436632D01*
X138921000Y-77549338D01*
X139129692Y-77629030D01*
X139134760Y-77630061D01*
X139134763Y-77630062D01*
X139242017Y-77651883D01*
X139348597Y-77673567D01*
X139353772Y-77673757D01*
X139353774Y-77673757D01*
X139566673Y-77681564D01*
X139566677Y-77681564D01*
X139571837Y-77681753D01*
X139711908Y-77663809D01*
X139782017Y-77674993D01*
X139817012Y-77699693D01*
X141076230Y-78958911D01*
X141088616Y-78973323D01*
X141097149Y-78984918D01*
X141097154Y-78984923D01*
X141101492Y-78990818D01*
X141107070Y-78995557D01*
X141107073Y-78995560D01*
X141141768Y-79025035D01*
X141149284Y-79031965D01*
X141154979Y-79037660D01*
X141157861Y-79039940D01*
X141177251Y-79055281D01*
X141180655Y-79058072D01*
X141213159Y-79085686D01*
X141236285Y-79105333D01*
X141242801Y-79108661D01*
X141247850Y-79112028D01*
X141252979Y-79115195D01*
X141258716Y-79119734D01*
X141324875Y-79150655D01*
X141328769Y-79152558D01*
X141393808Y-79185769D01*
X141400916Y-79187508D01*
X141406559Y-79189607D01*
X141412322Y-79191524D01*
X141418950Y-79194622D01*
X141483571Y-79208063D01*
X141490412Y-79209486D01*
X141494696Y-79210456D01*
X141565610Y-79227808D01*
X141571212Y-79228156D01*
X141571215Y-79228156D01*
X141576764Y-79228500D01*
X141576762Y-79228536D01*
X141580755Y-79228775D01*
X141584947Y-79229149D01*
X141592115Y-79230640D01*
X141669520Y-79228546D01*
X141672928Y-79228500D01*
X144133629Y-79228500D01*
X144201750Y-79248502D01*
X144222724Y-79265405D01*
X144784595Y-79827276D01*
X144818621Y-79889588D01*
X144821500Y-79916371D01*
X144821500Y-90513629D01*
X144801498Y-90581750D01*
X144784595Y-90602724D01*
X144173448Y-91213871D01*
X144111136Y-91247897D01*
X144040321Y-91242832D01*
X143983485Y-91200285D01*
X143958777Y-91135101D01*
X143955276Y-91092521D01*
X143954852Y-91087361D01*
X143900431Y-90870702D01*
X143811354Y-90665840D01*
X143756954Y-90581750D01*
X143692822Y-90482617D01*
X143692820Y-90482614D01*
X143690014Y-90478277D01*
X143539670Y-90313051D01*
X143535619Y-90309852D01*
X143535615Y-90309848D01*
X143368414Y-90177800D01*
X143368410Y-90177798D01*
X143364359Y-90174598D01*
X143323053Y-90151796D01*
X143273084Y-90101364D01*
X143258312Y-90031921D01*
X143283428Y-89965516D01*
X143310780Y-89938909D01*
X143354603Y-89907650D01*
X143489860Y-89811173D01*
X143648096Y-89653489D01*
X143707594Y-89570689D01*
X143775435Y-89476277D01*
X143778453Y-89472077D01*
X143810144Y-89407956D01*
X143875136Y-89276453D01*
X143875137Y-89276451D01*
X143877430Y-89271811D01*
X143942370Y-89058069D01*
X143971529Y-88836590D01*
X143973156Y-88770000D01*
X143954852Y-88547361D01*
X143900431Y-88330702D01*
X143811354Y-88125840D01*
X143690014Y-87938277D01*
X143539670Y-87773051D01*
X143535619Y-87769852D01*
X143535615Y-87769848D01*
X143368414Y-87637800D01*
X143368410Y-87637798D01*
X143364359Y-87634598D01*
X143323053Y-87611796D01*
X143273084Y-87561364D01*
X143258312Y-87491921D01*
X143283428Y-87425516D01*
X143310780Y-87398909D01*
X143364455Y-87360623D01*
X143489860Y-87271173D01*
X143648096Y-87113489D01*
X143653330Y-87106206D01*
X143775435Y-86936277D01*
X143778453Y-86932077D01*
X143784458Y-86919928D01*
X143875136Y-86736453D01*
X143875137Y-86736451D01*
X143877430Y-86731811D01*
X143937918Y-86532721D01*
X143940865Y-86523023D01*
X143940865Y-86523021D01*
X143942370Y-86518069D01*
X143971529Y-86296590D01*
X143972009Y-86276944D01*
X143973074Y-86233365D01*
X143973074Y-86233361D01*
X143973156Y-86230000D01*
X143954852Y-86007361D01*
X143900431Y-85790702D01*
X143811354Y-85585840D01*
X143745565Y-85484146D01*
X143692822Y-85402617D01*
X143692820Y-85402614D01*
X143690014Y-85398277D01*
X143539670Y-85233051D01*
X143535619Y-85229852D01*
X143535615Y-85229848D01*
X143368414Y-85097800D01*
X143368410Y-85097798D01*
X143364359Y-85094598D01*
X143323053Y-85071796D01*
X143273084Y-85021364D01*
X143258312Y-84951921D01*
X143283428Y-84885516D01*
X143310780Y-84858909D01*
X143377248Y-84811498D01*
X143489860Y-84731173D01*
X143532683Y-84688500D01*
X143644435Y-84577137D01*
X143648096Y-84573489D01*
X143652589Y-84567237D01*
X143775435Y-84396277D01*
X143778453Y-84392077D01*
X143782912Y-84383056D01*
X143875136Y-84196453D01*
X143875137Y-84196451D01*
X143877430Y-84191811D01*
X143942370Y-83978069D01*
X143971529Y-83756590D01*
X143973156Y-83690000D01*
X143954852Y-83467361D01*
X143900431Y-83250702D01*
X143811354Y-83045840D01*
X143751713Y-82953649D01*
X143692822Y-82862617D01*
X143692820Y-82862614D01*
X143690014Y-82858277D01*
X143686540Y-82854459D01*
X143686533Y-82854450D01*
X143542435Y-82696088D01*
X143511383Y-82632242D01*
X143519779Y-82561744D01*
X143564956Y-82506976D01*
X143591400Y-82493307D01*
X143698052Y-82453325D01*
X143713649Y-82444786D01*
X143815724Y-82368285D01*
X143828285Y-82355724D01*
X143904786Y-82253649D01*
X143913324Y-82238054D01*
X143958478Y-82117606D01*
X143962105Y-82102351D01*
X143967631Y-82051486D01*
X143968000Y-82044672D01*
X143968000Y-81422115D01*
X143963525Y-81406876D01*
X143962135Y-81405671D01*
X143954452Y-81404000D01*
X141270116Y-81404000D01*
X141254877Y-81408475D01*
X141253672Y-81409865D01*
X141252001Y-81417548D01*
X141252001Y-82044669D01*
X141252371Y-82051490D01*
X141257895Y-82102352D01*
X141261521Y-82117604D01*
X141306676Y-82238054D01*
X141315214Y-82253649D01*
X141391715Y-82355724D01*
X141404276Y-82368285D01*
X141506351Y-82444786D01*
X141521946Y-82453324D01*
X141630827Y-82494142D01*
X141687591Y-82536784D01*
X141712291Y-82603345D01*
X141697083Y-82672694D01*
X141677691Y-82699175D01*
X141569636Y-82812248D01*
X141550629Y-82832138D01*
X141547715Y-82836410D01*
X141547714Y-82836411D01*
X141488174Y-82923694D01*
X141424743Y-83016680D01*
X141409003Y-83050590D01*
X141350735Y-83176118D01*
X141330688Y-83219305D01*
X141270989Y-83434570D01*
X141247251Y-83656695D01*
X141247548Y-83661848D01*
X141247548Y-83661851D01*
X141255486Y-83799525D01*
X141260110Y-83879715D01*
X141261247Y-83884761D01*
X141261248Y-83884767D01*
X141281119Y-83972939D01*
X141309222Y-84097639D01*
X141363967Y-84232461D01*
X141390668Y-84298217D01*
X141393266Y-84304616D01*
X141421892Y-84351330D01*
X141490170Y-84462749D01*
X141509987Y-84495088D01*
X141656250Y-84663938D01*
X141828126Y-84806632D01*
X141870683Y-84831500D01*
X141901445Y-84849476D01*
X141950169Y-84901114D01*
X141963240Y-84970897D01*
X141936509Y-85036669D01*
X141896055Y-85070027D01*
X141883607Y-85076507D01*
X141879474Y-85079610D01*
X141879471Y-85079612D01*
X141793769Y-85143959D01*
X141704965Y-85210635D01*
X141701393Y-85214373D01*
X141560373Y-85361942D01*
X141550629Y-85372138D01*
X141424743Y-85556680D01*
X141405161Y-85598866D01*
X141333032Y-85754256D01*
X141330688Y-85759305D01*
X141270989Y-85974570D01*
X141247251Y-86196695D01*
X141247548Y-86201848D01*
X141247548Y-86201851D01*
X141253011Y-86296590D01*
X141260110Y-86419715D01*
X141261247Y-86424761D01*
X141261248Y-86424767D01*
X141271424Y-86469918D01*
X141309222Y-86637639D01*
X141364101Y-86772790D01*
X141389034Y-86834193D01*
X141393266Y-86844616D01*
X141416212Y-86882060D01*
X141494190Y-87009309D01*
X141509987Y-87035088D01*
X141656250Y-87203938D01*
X141756635Y-87287279D01*
X141809453Y-87331129D01*
X141828126Y-87346632D01*
X141852069Y-87360623D01*
X141901445Y-87389476D01*
X141950169Y-87441114D01*
X141963240Y-87510897D01*
X141936509Y-87576669D01*
X141896055Y-87610027D01*
X141883607Y-87616507D01*
X141879474Y-87619610D01*
X141879471Y-87619612D01*
X141767339Y-87703803D01*
X141704965Y-87750635D01*
X141550629Y-87912138D01*
X141424743Y-88096680D01*
X141330688Y-88299305D01*
X141270989Y-88514570D01*
X141247251Y-88736695D01*
X141247548Y-88741848D01*
X141247548Y-88741851D01*
X141253011Y-88836590D01*
X141260110Y-88959715D01*
X141261247Y-88964761D01*
X141261248Y-88964767D01*
X141270220Y-89004578D01*
X141309222Y-89177639D01*
X141354859Y-89290031D01*
X141387338Y-89370016D01*
X141393266Y-89384616D01*
X141509987Y-89575088D01*
X141656250Y-89743938D01*
X141828126Y-89886632D01*
X141898595Y-89927811D01*
X141901445Y-89929476D01*
X141950169Y-89981114D01*
X141963240Y-90050897D01*
X141936509Y-90116669D01*
X141896055Y-90150027D01*
X141883607Y-90156507D01*
X141879474Y-90159610D01*
X141879471Y-90159612D01*
X141855247Y-90177800D01*
X141704965Y-90290635D01*
X141550629Y-90452138D01*
X141424743Y-90636680D01*
X141409003Y-90670590D01*
X141351370Y-90794750D01*
X141330688Y-90839305D01*
X141270989Y-91054570D01*
X141247251Y-91276695D01*
X141247548Y-91281848D01*
X141247548Y-91281851D01*
X141253825Y-91390716D01*
X141260110Y-91499715D01*
X141261247Y-91504761D01*
X141261248Y-91504767D01*
X141266107Y-91526327D01*
X141309222Y-91717639D01*
X141393266Y-91924616D01*
X141509987Y-92115088D01*
X141656250Y-92283938D01*
X141828126Y-92426632D01*
X141875950Y-92454578D01*
X141901445Y-92469476D01*
X141950169Y-92521114D01*
X141963240Y-92590897D01*
X141936509Y-92656669D01*
X141896055Y-92690027D01*
X141883607Y-92696507D01*
X141879474Y-92699610D01*
X141879471Y-92699612D01*
X141719108Y-92820016D01*
X141704965Y-92830635D01*
X141701393Y-92834373D01*
X141556410Y-92986089D01*
X141550629Y-92992138D01*
X141547715Y-92996410D01*
X141547714Y-92996411D01*
X141514783Y-93044686D01*
X141424743Y-93176680D01*
X141416750Y-93193900D01*
X141363955Y-93307638D01*
X141330688Y-93379305D01*
X141270989Y-93594570D01*
X141247251Y-93816695D01*
X141247548Y-93821848D01*
X141247548Y-93821851D01*
X141251493Y-93890271D01*
X141260110Y-94039715D01*
X141261247Y-94044760D01*
X141261966Y-94049877D01*
X141260518Y-94050081D01*
X141256398Y-94114274D01*
X141227119Y-94160200D01*
X136612724Y-98774595D01*
X136550412Y-98808621D01*
X136523629Y-98811500D01*
X107167554Y-98811500D01*
X107099433Y-98791498D01*
X107058161Y-98748023D01*
X107039114Y-98714698D01*
X106980383Y-98611940D01*
X106823171Y-98412517D01*
X106733099Y-98327786D01*
X106641610Y-98241722D01*
X106641608Y-98241720D01*
X106638209Y-98238523D01*
X106476345Y-98126234D01*
X106433393Y-98096437D01*
X106433390Y-98096435D01*
X106429561Y-98093779D01*
X106405098Y-98081715D01*
X106334963Y-98047128D01*
X106282714Y-97999059D01*
X106270825Y-97972953D01*
X106256607Y-97929064D01*
X106256606Y-97929062D01*
X106254351Y-97922101D01*
X106250555Y-97915846D01*
X106248049Y-97910372D01*
X106245330Y-97904942D01*
X106242833Y-97898063D01*
X106231066Y-97880116D01*
X106202814Y-97837024D01*
X106200467Y-97833305D01*
X106181733Y-97802432D01*
X106162595Y-97770893D01*
X106155197Y-97762516D01*
X106155224Y-97762492D01*
X106152571Y-97759500D01*
X106149868Y-97756267D01*
X106145856Y-97750148D01*
X106089617Y-97696872D01*
X106087175Y-97694494D01*
X104803770Y-96411089D01*
X104791384Y-96396677D01*
X104782851Y-96385082D01*
X104782846Y-96385077D01*
X104778508Y-96379182D01*
X104772930Y-96374443D01*
X104772927Y-96374440D01*
X104738232Y-96344965D01*
X104730716Y-96338035D01*
X104725021Y-96332340D01*
X104708736Y-96319456D01*
X104702749Y-96314719D01*
X104699345Y-96311928D01*
X104649297Y-96269409D01*
X104649295Y-96269408D01*
X104643715Y-96264667D01*
X104637199Y-96261339D01*
X104632150Y-96257972D01*
X104627021Y-96254805D01*
X104621284Y-96250266D01*
X104555125Y-96219345D01*
X104551225Y-96217439D01*
X104486192Y-96184231D01*
X104479084Y-96182492D01*
X104473441Y-96180393D01*
X104467678Y-96178476D01*
X104461050Y-96175378D01*
X104389583Y-96160513D01*
X104385299Y-96159543D01*
X104385238Y-96159528D01*
X104314390Y-96142192D01*
X104308788Y-96141844D01*
X104308785Y-96141844D01*
X104303236Y-96141500D01*
X104303238Y-96141464D01*
X104299245Y-96141225D01*
X104295053Y-96140851D01*
X104287885Y-96139360D01*
X104224120Y-96141085D01*
X104210479Y-96141454D01*
X104207072Y-96141500D01*
X97617070Y-96141500D01*
X97598120Y-96140067D01*
X97583885Y-96137901D01*
X97583881Y-96137901D01*
X97576651Y-96136801D01*
X97569359Y-96137394D01*
X97569356Y-96137394D01*
X97523982Y-96141085D01*
X97513767Y-96141500D01*
X97505707Y-96141500D01*
X97502073Y-96141924D01*
X97502067Y-96141924D01*
X97489042Y-96143443D01*
X97477480Y-96144791D01*
X97473132Y-96145221D01*
X97451059Y-96147016D01*
X97407662Y-96150546D01*
X97407659Y-96150547D01*
X97400364Y-96151140D01*
X97393400Y-96153396D01*
X97387461Y-96154583D01*
X97381590Y-96155970D01*
X97374319Y-96156818D01*
X97367443Y-96159314D01*
X97367434Y-96159316D01*
X97305702Y-96181725D01*
X97301598Y-96183135D01*
X97232101Y-96205648D01*
X97225846Y-96209444D01*
X97220387Y-96211943D01*
X97214939Y-96214671D01*
X97208063Y-96217167D01*
X97147010Y-96257195D01*
X97143327Y-96259519D01*
X97085686Y-96294496D01*
X97085682Y-96294499D01*
X97080893Y-96297405D01*
X97076694Y-96301114D01*
X97076689Y-96301117D01*
X97072516Y-96304803D01*
X97072492Y-96304776D01*
X97069500Y-96307429D01*
X97066267Y-96310132D01*
X97060148Y-96314144D01*
X97030951Y-96344965D01*
X97006872Y-96370383D01*
X97004494Y-96372825D01*
X96644095Y-96733224D01*
X96581783Y-96767250D01*
X96510968Y-96762185D01*
X96465905Y-96733224D01*
X96043770Y-96311089D01*
X96031384Y-96296677D01*
X96022851Y-96285082D01*
X96022846Y-96285077D01*
X96018508Y-96279182D01*
X96012930Y-96274443D01*
X96012927Y-96274440D01*
X95978232Y-96244965D01*
X95970716Y-96238035D01*
X95965021Y-96232340D01*
X95950911Y-96221177D01*
X95942749Y-96214719D01*
X95939345Y-96211928D01*
X95889297Y-96169409D01*
X95889295Y-96169408D01*
X95883715Y-96164667D01*
X95877199Y-96161339D01*
X95872150Y-96157972D01*
X95867021Y-96154805D01*
X95861284Y-96150266D01*
X95795125Y-96119345D01*
X95791225Y-96117439D01*
X95726192Y-96084231D01*
X95719084Y-96082492D01*
X95713441Y-96080393D01*
X95707678Y-96078476D01*
X95701050Y-96075378D01*
X95629583Y-96060513D01*
X95625299Y-96059543D01*
X95590958Y-96051140D01*
X95554390Y-96042192D01*
X95548788Y-96041844D01*
X95548785Y-96041844D01*
X95543236Y-96041500D01*
X95543238Y-96041464D01*
X95539245Y-96041225D01*
X95535053Y-96040851D01*
X95527885Y-96039360D01*
X95464120Y-96041085D01*
X95450479Y-96041454D01*
X95447072Y-96041500D01*
X89527063Y-96041500D01*
X89508114Y-96040067D01*
X89507907Y-96040036D01*
X89486651Y-96036802D01*
X89479359Y-96037395D01*
X89479356Y-96037395D01*
X89433991Y-96041085D01*
X89423777Y-96041500D01*
X89415707Y-96041500D01*
X89412087Y-96041922D01*
X89412069Y-96041923D01*
X89387461Y-96044792D01*
X89383100Y-96045224D01*
X89357981Y-96047267D01*
X89317661Y-96050546D01*
X89317658Y-96050547D01*
X89310363Y-96051140D01*
X89303399Y-96053396D01*
X89297440Y-96054587D01*
X89291585Y-96055971D01*
X89284319Y-96056818D01*
X89215673Y-96081735D01*
X89211545Y-96083152D01*
X89149064Y-96103393D01*
X89149062Y-96103394D01*
X89142101Y-96105649D01*
X89135846Y-96109445D01*
X89130372Y-96111951D01*
X89124942Y-96114670D01*
X89118063Y-96117167D01*
X89057016Y-96157191D01*
X89053327Y-96159518D01*
X89053287Y-96159543D01*
X88995693Y-96194491D01*
X88995688Y-96194495D01*
X88990892Y-96197405D01*
X88982516Y-96204803D01*
X88982493Y-96204777D01*
X88979503Y-96207426D01*
X88976264Y-96210134D01*
X88970148Y-96214144D01*
X88965121Y-96219451D01*
X88965117Y-96219454D01*
X88916872Y-96270383D01*
X88914494Y-96272825D01*
X87259095Y-97928224D01*
X87196783Y-97962250D01*
X87125968Y-97957185D01*
X87080905Y-97928224D01*
X83595405Y-94442724D01*
X83561379Y-94380412D01*
X83558500Y-94353629D01*
X83558500Y-93135000D01*
X95301372Y-93135000D01*
X95321854Y-93395249D01*
X95323008Y-93400056D01*
X95323009Y-93400062D01*
X95344427Y-93489272D01*
X95382796Y-93649089D01*
X95384689Y-93653660D01*
X95384690Y-93653662D01*
X95452221Y-93816695D01*
X95482697Y-93890271D01*
X95619097Y-94112856D01*
X95788637Y-94311363D01*
X95987144Y-94480903D01*
X96209729Y-94617303D01*
X96214299Y-94619196D01*
X96214303Y-94619198D01*
X96446338Y-94715310D01*
X96450911Y-94717204D01*
X96533937Y-94737137D01*
X96699938Y-94776991D01*
X96699944Y-94776992D01*
X96704751Y-94778146D01*
X96965000Y-94798628D01*
X97225249Y-94778146D01*
X97230056Y-94776992D01*
X97230062Y-94776991D01*
X97396063Y-94737137D01*
X97479089Y-94717204D01*
X97483662Y-94715310D01*
X97715697Y-94619198D01*
X97715701Y-94619196D01*
X97720271Y-94617303D01*
X97942856Y-94480903D01*
X98141363Y-94311363D01*
X98310903Y-94112856D01*
X98447303Y-93890271D01*
X98477780Y-93816695D01*
X98545310Y-93653662D01*
X98545311Y-93653660D01*
X98547204Y-93649089D01*
X98585573Y-93489272D01*
X98606991Y-93400062D01*
X98606992Y-93400056D01*
X98608146Y-93395249D01*
X98628628Y-93135000D01*
X98608146Y-92874751D01*
X98606992Y-92869944D01*
X98606991Y-92869938D01*
X98548359Y-92625723D01*
X98547204Y-92620911D01*
X98515211Y-92543673D01*
X98449198Y-92384303D01*
X98449196Y-92384299D01*
X98447303Y-92379729D01*
X98310903Y-92157144D01*
X98141363Y-91958637D01*
X97942856Y-91789097D01*
X97720271Y-91652697D01*
X97715701Y-91650804D01*
X97715697Y-91650802D01*
X97483662Y-91554690D01*
X97483660Y-91554689D01*
X97479089Y-91552796D01*
X97390069Y-91531424D01*
X97230062Y-91493009D01*
X97230056Y-91493008D01*
X97225249Y-91491854D01*
X96965000Y-91471372D01*
X96704751Y-91491854D01*
X96699944Y-91493008D01*
X96699938Y-91493009D01*
X96539931Y-91531424D01*
X96450911Y-91552796D01*
X96446340Y-91554689D01*
X96446338Y-91554690D01*
X96214303Y-91650802D01*
X96214299Y-91650804D01*
X96209729Y-91652697D01*
X95987144Y-91789097D01*
X95788637Y-91958637D01*
X95619097Y-92157144D01*
X95482697Y-92379729D01*
X95480804Y-92384299D01*
X95480802Y-92384303D01*
X95414789Y-92543673D01*
X95382796Y-92620911D01*
X95381641Y-92625723D01*
X95323009Y-92869938D01*
X95323008Y-92869944D01*
X95321854Y-92874751D01*
X95301372Y-93135000D01*
X83558500Y-93135000D01*
X83558500Y-81477070D01*
X83559933Y-81458120D01*
X83562099Y-81443885D01*
X83562099Y-81443881D01*
X83563199Y-81436651D01*
X83561566Y-81416565D01*
X83558915Y-81383982D01*
X83558500Y-81373767D01*
X83558500Y-81365707D01*
X83555209Y-81337480D01*
X83554778Y-81333121D01*
X83549453Y-81267660D01*
X83548860Y-81260364D01*
X83546605Y-81253403D01*
X83545418Y-81247463D01*
X83544029Y-81241588D01*
X83543182Y-81234319D01*
X83518264Y-81165670D01*
X83516847Y-81161542D01*
X83496607Y-81099064D01*
X83496606Y-81099062D01*
X83494351Y-81092101D01*
X83490555Y-81085846D01*
X83488049Y-81080372D01*
X83485330Y-81074942D01*
X83482833Y-81068063D01*
X83470403Y-81049104D01*
X83442814Y-81007024D01*
X83440467Y-81003305D01*
X83402595Y-80940893D01*
X83395197Y-80932516D01*
X83395224Y-80932492D01*
X83392571Y-80929500D01*
X83389868Y-80926267D01*
X83385856Y-80920148D01*
X83329617Y-80866872D01*
X83327175Y-80864494D01*
X78875595Y-76412914D01*
X78841569Y-76350602D01*
X78839169Y-76312838D01*
X78849874Y-76190476D01*
X78849874Y-76190475D01*
X78850353Y-76185000D01*
X78830978Y-75963537D01*
X78773440Y-75748804D01*
X78754574Y-75708345D01*
X78681814Y-75552311D01*
X78681811Y-75552306D01*
X78679488Y-75547324D01*
X78676331Y-75542815D01*
X78555136Y-75369730D01*
X78555132Y-75369725D01*
X78551977Y-75365219D01*
X78394781Y-75208023D01*
X78390273Y-75204866D01*
X78390270Y-75204864D01*
X78300238Y-75141823D01*
X78212677Y-75080512D01*
X78207695Y-75078189D01*
X78207690Y-75078186D01*
X78016178Y-74988883D01*
X78016177Y-74988882D01*
X78011196Y-74986560D01*
X78005888Y-74985138D01*
X78005886Y-74985137D01*
X77934119Y-74965907D01*
X77796463Y-74929022D01*
X77575000Y-74909647D01*
X77353537Y-74929022D01*
X77215881Y-74965907D01*
X77144114Y-74985137D01*
X77144112Y-74985138D01*
X77138804Y-74986560D01*
X77133823Y-74988882D01*
X77133822Y-74988883D01*
X76942311Y-75078186D01*
X76942306Y-75078189D01*
X76937324Y-75080512D01*
X76932817Y-75083668D01*
X76932815Y-75083669D01*
X76759730Y-75204864D01*
X76759727Y-75204866D01*
X76755219Y-75208023D01*
X76598023Y-75365219D01*
X76592736Y-75372769D01*
X76591454Y-75373794D01*
X76591331Y-75373941D01*
X76591302Y-75373916D01*
X76537282Y-75417098D01*
X76489523Y-75426500D01*
X76120477Y-75426500D01*
X76052356Y-75406498D01*
X76017264Y-75372770D01*
X76011977Y-75365219D01*
X75854781Y-75208023D01*
X75850273Y-75204866D01*
X75850270Y-75204864D01*
X75760238Y-75141823D01*
X75672677Y-75080512D01*
X75667695Y-75078189D01*
X75667690Y-75078186D01*
X75476178Y-74988883D01*
X75476177Y-74988882D01*
X75471196Y-74986560D01*
X75465888Y-74985138D01*
X75465886Y-74985137D01*
X75394119Y-74965907D01*
X75256463Y-74929022D01*
X75035000Y-74909647D01*
X74813537Y-74929022D01*
X74675881Y-74965907D01*
X74604114Y-74985137D01*
X74604112Y-74985138D01*
X74598804Y-74986560D01*
X74593823Y-74988882D01*
X74593822Y-74988883D01*
X74402311Y-75078186D01*
X74402306Y-75078189D01*
X74397324Y-75080512D01*
X74392817Y-75083668D01*
X74392815Y-75083669D01*
X74219730Y-75204864D01*
X74219727Y-75204866D01*
X74215219Y-75208023D01*
X74058023Y-75365219D01*
X74054868Y-75369725D01*
X74054864Y-75369730D01*
X73979508Y-75477350D01*
X73924051Y-75521678D01*
X73853432Y-75528987D01*
X73790071Y-75496956D01*
X73754086Y-75435755D01*
X73750297Y-75405582D01*
X73736587Y-71935000D01*
X74301372Y-71935000D01*
X74321854Y-72195249D01*
X74323008Y-72200056D01*
X74323009Y-72200062D01*
X74323031Y-72200152D01*
X74382796Y-72449089D01*
X74384689Y-72453660D01*
X74384690Y-72453662D01*
X74473952Y-72669158D01*
X74482697Y-72690271D01*
X74619097Y-72912856D01*
X74788637Y-73111363D01*
X74987144Y-73280903D01*
X74991361Y-73283487D01*
X75202799Y-73413056D01*
X75209729Y-73417303D01*
X75214299Y-73419196D01*
X75214303Y-73419198D01*
X75446338Y-73515310D01*
X75450911Y-73517204D01*
X75504510Y-73530072D01*
X75699938Y-73576991D01*
X75699944Y-73576992D01*
X75704751Y-73578146D01*
X75965000Y-73598628D01*
X76225249Y-73578146D01*
X76230056Y-73576992D01*
X76230062Y-73576991D01*
X76425490Y-73530072D01*
X76479089Y-73517204D01*
X76483662Y-73515310D01*
X76715697Y-73419198D01*
X76715701Y-73419196D01*
X76720271Y-73417303D01*
X76727202Y-73413056D01*
X76938639Y-73283487D01*
X76942856Y-73280903D01*
X77141363Y-73111363D01*
X77310903Y-72912856D01*
X77447303Y-72690271D01*
X77456049Y-72669158D01*
X77545310Y-72453662D01*
X77545311Y-72453660D01*
X77547204Y-72449089D01*
X77606969Y-72200152D01*
X77606991Y-72200062D01*
X77606992Y-72200056D01*
X77608146Y-72195249D01*
X77628628Y-71935000D01*
X77608146Y-71674751D01*
X77606992Y-71669944D01*
X77606991Y-71669938D01*
X77560391Y-71475840D01*
X77547204Y-71420911D01*
X77509809Y-71330632D01*
X77449198Y-71184303D01*
X77449196Y-71184299D01*
X77447303Y-71179729D01*
X77310903Y-70957144D01*
X77141363Y-70758637D01*
X76942856Y-70589097D01*
X76720271Y-70452697D01*
X76715701Y-70450804D01*
X76715697Y-70450802D01*
X76483662Y-70354690D01*
X76483660Y-70354689D01*
X76479089Y-70352796D01*
X76390069Y-70331424D01*
X76230062Y-70293009D01*
X76230056Y-70293008D01*
X76225249Y-70291854D01*
X75965000Y-70271372D01*
X75704751Y-70291854D01*
X75699944Y-70293008D01*
X75699938Y-70293009D01*
X75539931Y-70331424D01*
X75450911Y-70352796D01*
X75446340Y-70354689D01*
X75446338Y-70354690D01*
X75214303Y-70450802D01*
X75214299Y-70450804D01*
X75209729Y-70452697D01*
X74987144Y-70589097D01*
X74788637Y-70758637D01*
X74619097Y-70957144D01*
X74482697Y-71179729D01*
X74480804Y-71184299D01*
X74480802Y-71184303D01*
X74420191Y-71330632D01*
X74382796Y-71420911D01*
X74369609Y-71475840D01*
X74323009Y-71669938D01*
X74323008Y-71669944D01*
X74321854Y-71674751D01*
X74301372Y-71935000D01*
X73736587Y-71935000D01*
X73712965Y-65955151D01*
X82567296Y-65955151D01*
X82567520Y-65959817D01*
X82567520Y-65959822D01*
X82571967Y-66052394D01*
X82579480Y-66208798D01*
X82629021Y-66457857D01*
X82630600Y-66462255D01*
X82630602Y-66462262D01*
X82675022Y-66585980D01*
X82714831Y-66696858D01*
X82717048Y-66700984D01*
X82799426Y-66854297D01*
X82835025Y-66920551D01*
X82837820Y-66924294D01*
X82837822Y-66924297D01*
X82984171Y-67120282D01*
X82984176Y-67120288D01*
X82986963Y-67124020D01*
X82990272Y-67127300D01*
X82990277Y-67127306D01*
X83139943Y-67275671D01*
X83167307Y-67302797D01*
X83171069Y-67305555D01*
X83171072Y-67305558D01*
X83188787Y-67318547D01*
X83372094Y-67452953D01*
X83376229Y-67455129D01*
X83376233Y-67455131D01*
X83463779Y-67501191D01*
X83596827Y-67571191D01*
X83722598Y-67615112D01*
X83832021Y-67653324D01*
X83836568Y-67654912D01*
X84086050Y-67702278D01*
X84206532Y-67707011D01*
X84335125Y-67712064D01*
X84335130Y-67712064D01*
X84339793Y-67712247D01*
X84438774Y-67701407D01*
X84587569Y-67685112D01*
X84587575Y-67685111D01*
X84592222Y-67684602D01*
X84701680Y-67655784D01*
X84833273Y-67621138D01*
X84837793Y-67619948D01*
X85031625Y-67536672D01*
X85066807Y-67521557D01*
X85066810Y-67521555D01*
X85071110Y-67519708D01*
X85075090Y-67517245D01*
X85075094Y-67517243D01*
X85283064Y-67388547D01*
X85283066Y-67388545D01*
X85287047Y-67386082D01*
X85308343Y-67368054D01*
X85477289Y-67225031D01*
X85477291Y-67225029D01*
X85480862Y-67222006D01*
X85648295Y-67031084D01*
X85693321Y-66961084D01*
X85783141Y-66821442D01*
X85785669Y-66817512D01*
X85787586Y-66813257D01*
X85787589Y-66813251D01*
X85831119Y-66716618D01*
X85877335Y-66662723D01*
X85945352Y-66642371D01*
X86013575Y-66662022D01*
X86060343Y-66715437D01*
X86072001Y-66768369D01*
X86072001Y-67244669D01*
X86072371Y-67251490D01*
X86077895Y-67302352D01*
X86081521Y-67317604D01*
X86126676Y-67438054D01*
X86135214Y-67453649D01*
X86211715Y-67555724D01*
X86224276Y-67568285D01*
X86326351Y-67644786D01*
X86341946Y-67653324D01*
X86462394Y-67698478D01*
X86477649Y-67702105D01*
X86528514Y-67707631D01*
X86535328Y-67708000D01*
X87507885Y-67708000D01*
X87523124Y-67703525D01*
X87524329Y-67702135D01*
X87526000Y-67694452D01*
X87526000Y-67689884D01*
X88034000Y-67689884D01*
X88038475Y-67705123D01*
X88039865Y-67706328D01*
X88047548Y-67707999D01*
X89024669Y-67707999D01*
X89031490Y-67707629D01*
X89082352Y-67702105D01*
X89097604Y-67698479D01*
X89218054Y-67653324D01*
X89233649Y-67644786D01*
X89335724Y-67568285D01*
X89348285Y-67555724D01*
X89424786Y-67453649D01*
X89433324Y-67438054D01*
X89478478Y-67317606D01*
X89482105Y-67302351D01*
X89487631Y-67251486D01*
X89488000Y-67244672D01*
X89488000Y-66272115D01*
X89483525Y-66256876D01*
X89482135Y-66255671D01*
X89474452Y-66254000D01*
X88052115Y-66254000D01*
X88036876Y-66258475D01*
X88035671Y-66259865D01*
X88034000Y-66267548D01*
X88034000Y-67689884D01*
X87526000Y-67689884D01*
X87526000Y-65885151D01*
X92637296Y-65885151D01*
X92637520Y-65889817D01*
X92637520Y-65889822D01*
X92640658Y-65955151D01*
X92649480Y-66138798D01*
X92699021Y-66387857D01*
X92700600Y-66392255D01*
X92700602Y-66392262D01*
X92725735Y-66462262D01*
X92784831Y-66626858D01*
X92787048Y-66630984D01*
X92887273Y-66817512D01*
X92905025Y-66850551D01*
X92907820Y-66854294D01*
X92907822Y-66854297D01*
X93054171Y-67050282D01*
X93054176Y-67050288D01*
X93056963Y-67054020D01*
X93060272Y-67057300D01*
X93060277Y-67057306D01*
X93226421Y-67222006D01*
X93237307Y-67232797D01*
X93241069Y-67235555D01*
X93241072Y-67235558D01*
X93345274Y-67311962D01*
X93442094Y-67382953D01*
X93446229Y-67385129D01*
X93446233Y-67385131D01*
X93564289Y-67447243D01*
X93666827Y-67501191D01*
X93768429Y-67536672D01*
X93902021Y-67583324D01*
X93906568Y-67584912D01*
X94156050Y-67632278D01*
X94276532Y-67637011D01*
X94405125Y-67642064D01*
X94405130Y-67642064D01*
X94409793Y-67642247D01*
X94508774Y-67631407D01*
X94657569Y-67615112D01*
X94657575Y-67615111D01*
X94662222Y-67614602D01*
X94771680Y-67585784D01*
X94903273Y-67551138D01*
X94907793Y-67549948D01*
X95128488Y-67455131D01*
X95136807Y-67451557D01*
X95136810Y-67451555D01*
X95141110Y-67449708D01*
X95145090Y-67447245D01*
X95145094Y-67447243D01*
X95353064Y-67318547D01*
X95353066Y-67318545D01*
X95357047Y-67316082D01*
X95367128Y-67307548D01*
X95547289Y-67155031D01*
X95547291Y-67155029D01*
X95550862Y-67152006D01*
X95718295Y-66961084D01*
X95741958Y-66924297D01*
X95830913Y-66786000D01*
X95855669Y-66747512D01*
X95857586Y-66743257D01*
X95857589Y-66743251D01*
X95901119Y-66646618D01*
X95947335Y-66592723D01*
X96015352Y-66572371D01*
X96083575Y-66592022D01*
X96130343Y-66645437D01*
X96142001Y-66698369D01*
X96142001Y-67174669D01*
X96142371Y-67181490D01*
X96147895Y-67232352D01*
X96151521Y-67247604D01*
X96196676Y-67368054D01*
X96205214Y-67383649D01*
X96281715Y-67485724D01*
X96294276Y-67498285D01*
X96396351Y-67574786D01*
X96411946Y-67583324D01*
X96532394Y-67628478D01*
X96547649Y-67632105D01*
X96598514Y-67637631D01*
X96605328Y-67638000D01*
X97577885Y-67638000D01*
X97593124Y-67633525D01*
X97594329Y-67632135D01*
X97596000Y-67624452D01*
X97596000Y-67619884D01*
X98104000Y-67619884D01*
X98108475Y-67635123D01*
X98109865Y-67636328D01*
X98117548Y-67637999D01*
X99094669Y-67637999D01*
X99101490Y-67637629D01*
X99152352Y-67632105D01*
X99167604Y-67628479D01*
X99288054Y-67583324D01*
X99303649Y-67574786D01*
X99405724Y-67498285D01*
X99418285Y-67485724D01*
X99494786Y-67383649D01*
X99503324Y-67368054D01*
X99548478Y-67247606D01*
X99552105Y-67232351D01*
X99557631Y-67181486D01*
X99558000Y-67174672D01*
X99558000Y-66202115D01*
X99553525Y-66186876D01*
X99552135Y-66185671D01*
X99544452Y-66184000D01*
X98122115Y-66184000D01*
X98106876Y-66188475D01*
X98105671Y-66189865D01*
X98104000Y-66197548D01*
X98104000Y-67619884D01*
X97596000Y-67619884D01*
X97596000Y-65657885D01*
X98104000Y-65657885D01*
X98108475Y-65673124D01*
X98109865Y-65674329D01*
X98117548Y-65676000D01*
X99539884Y-65676000D01*
X99555123Y-65671525D01*
X99556328Y-65670135D01*
X99557999Y-65662452D01*
X99557999Y-64685331D01*
X99557629Y-64678510D01*
X99552105Y-64627648D01*
X99548479Y-64612396D01*
X99503324Y-64491946D01*
X99494786Y-64476351D01*
X99418285Y-64374276D01*
X99405724Y-64361715D01*
X99303649Y-64285214D01*
X99288054Y-64276676D01*
X99167606Y-64231522D01*
X99152351Y-64227895D01*
X99101486Y-64222369D01*
X99094672Y-64222000D01*
X98122115Y-64222000D01*
X98106876Y-64226475D01*
X98105671Y-64227865D01*
X98104000Y-64235548D01*
X98104000Y-65657885D01*
X97596000Y-65657885D01*
X97596000Y-64240116D01*
X97591525Y-64224877D01*
X97590135Y-64223672D01*
X97582452Y-64222001D01*
X96605331Y-64222001D01*
X96598510Y-64222371D01*
X96547648Y-64227895D01*
X96532396Y-64231521D01*
X96411946Y-64276676D01*
X96396351Y-64285214D01*
X96294276Y-64361715D01*
X96281715Y-64374276D01*
X96205214Y-64476351D01*
X96196676Y-64491946D01*
X96151522Y-64612394D01*
X96147895Y-64627649D01*
X96142369Y-64678514D01*
X96142000Y-64685328D01*
X96142000Y-65152338D01*
X96121998Y-65220459D01*
X96068342Y-65266952D01*
X95998068Y-65277056D01*
X95933488Y-65247562D01*
X95900526Y-65200783D01*
X95900099Y-65200987D01*
X95898904Y-65198482D01*
X95898566Y-65198002D01*
X95898084Y-65196763D01*
X95896391Y-65192409D01*
X95873489Y-65152338D01*
X95772702Y-64975997D01*
X95772700Y-64975995D01*
X95770383Y-64971940D01*
X95613171Y-64772517D01*
X95473103Y-64640755D01*
X95431610Y-64601722D01*
X95431608Y-64601720D01*
X95428209Y-64598523D01*
X95292077Y-64504085D01*
X95223393Y-64456437D01*
X95223390Y-64456435D01*
X95219561Y-64453779D01*
X95215384Y-64451719D01*
X95215377Y-64451715D01*
X94995996Y-64343528D01*
X94995992Y-64343527D01*
X94991810Y-64341464D01*
X94749960Y-64264047D01*
X94745355Y-64263297D01*
X94503935Y-64223980D01*
X94503934Y-64223980D01*
X94499323Y-64223229D01*
X94372365Y-64221567D01*
X94250083Y-64219966D01*
X94250080Y-64219966D01*
X94245406Y-64219905D01*
X93993787Y-64254149D01*
X93749993Y-64325208D01*
X93745740Y-64327168D01*
X93745739Y-64327169D01*
X93730820Y-64334047D01*
X93519380Y-64431522D01*
X93515471Y-64434085D01*
X93310928Y-64568189D01*
X93310923Y-64568193D01*
X93307015Y-64570755D01*
X93228587Y-64640755D01*
X93178647Y-64685328D01*
X93117562Y-64739848D01*
X92955183Y-64935087D01*
X92823447Y-65152182D01*
X92821638Y-65156496D01*
X92821637Y-65156498D01*
X92741730Y-65347056D01*
X92725246Y-65386365D01*
X92662738Y-65632490D01*
X92637296Y-65885151D01*
X87526000Y-65885151D01*
X87526000Y-65727885D01*
X88034000Y-65727885D01*
X88038475Y-65743124D01*
X88039865Y-65744329D01*
X88047548Y-65746000D01*
X89469884Y-65746000D01*
X89485123Y-65741525D01*
X89486328Y-65740135D01*
X89487999Y-65732452D01*
X89487999Y-64755331D01*
X89487629Y-64748510D01*
X89482105Y-64697648D01*
X89478479Y-64682396D01*
X89433324Y-64561946D01*
X89424786Y-64546351D01*
X89348285Y-64444276D01*
X89335724Y-64431715D01*
X89233649Y-64355214D01*
X89218054Y-64346676D01*
X89097606Y-64301522D01*
X89082351Y-64297895D01*
X89031486Y-64292369D01*
X89024672Y-64292000D01*
X88052115Y-64292000D01*
X88036876Y-64296475D01*
X88035671Y-64297865D01*
X88034000Y-64305548D01*
X88034000Y-65727885D01*
X87526000Y-65727885D01*
X87526000Y-64310116D01*
X87521525Y-64294877D01*
X87520135Y-64293672D01*
X87512452Y-64292001D01*
X86535331Y-64292001D01*
X86528510Y-64292371D01*
X86477648Y-64297895D01*
X86462396Y-64301521D01*
X86341946Y-64346676D01*
X86326351Y-64355214D01*
X86224276Y-64431715D01*
X86211715Y-64444276D01*
X86135214Y-64546351D01*
X86126676Y-64561946D01*
X86081522Y-64682394D01*
X86077895Y-64697649D01*
X86072369Y-64748514D01*
X86072000Y-64755328D01*
X86072000Y-65222338D01*
X86051998Y-65290459D01*
X85998342Y-65336952D01*
X85928068Y-65347056D01*
X85863488Y-65317562D01*
X85830526Y-65270783D01*
X85830099Y-65270987D01*
X85828904Y-65268482D01*
X85828566Y-65268002D01*
X85828084Y-65266763D01*
X85826391Y-65262409D01*
X85803489Y-65222338D01*
X85702702Y-65045997D01*
X85702700Y-65045995D01*
X85700383Y-65041940D01*
X85543171Y-64842517D01*
X85376077Y-64685331D01*
X85361610Y-64671722D01*
X85361608Y-64671720D01*
X85358209Y-64668523D01*
X85257304Y-64598523D01*
X85153393Y-64526437D01*
X85153390Y-64526435D01*
X85149561Y-64523779D01*
X85145384Y-64521719D01*
X85145377Y-64521715D01*
X84925996Y-64413528D01*
X84925992Y-64413527D01*
X84921810Y-64411464D01*
X84679960Y-64334047D01*
X84637727Y-64327169D01*
X84433935Y-64293980D01*
X84433934Y-64293980D01*
X84429323Y-64293229D01*
X84302365Y-64291567D01*
X84180083Y-64289966D01*
X84180080Y-64289966D01*
X84175406Y-64289905D01*
X83923787Y-64324149D01*
X83919301Y-64325457D01*
X83919299Y-64325457D01*
X83857300Y-64343528D01*
X83679993Y-64395208D01*
X83449380Y-64501522D01*
X83445471Y-64504085D01*
X83240928Y-64638189D01*
X83240923Y-64638193D01*
X83237015Y-64640755D01*
X83190360Y-64682396D01*
X83108647Y-64755328D01*
X83047562Y-64809848D01*
X82885183Y-65005087D01*
X82753447Y-65222182D01*
X82751638Y-65226496D01*
X82751637Y-65226498D01*
X82666687Y-65429082D01*
X82655246Y-65456365D01*
X82592738Y-65702490D01*
X82567296Y-65955151D01*
X73712965Y-65955151D01*
X73700954Y-62914427D01*
X73693392Y-61000000D01*
X74786761Y-61000000D01*
X74805696Y-61288886D01*
X74862175Y-61572828D01*
X74955234Y-61846970D01*
X75083279Y-62106619D01*
X75244119Y-62347335D01*
X75246831Y-62350427D01*
X75246836Y-62350434D01*
X75432167Y-62561761D01*
X75435004Y-62564996D01*
X75438093Y-62567705D01*
X75649565Y-62753163D01*
X75649571Y-62753168D01*
X75652665Y-62755881D01*
X75893380Y-62916721D01*
X75897079Y-62918545D01*
X75897084Y-62918548D01*
X76149335Y-63042944D01*
X76153030Y-63044766D01*
X76156928Y-63046089D01*
X76156930Y-63046090D01*
X76423262Y-63136498D01*
X76423266Y-63136499D01*
X76427172Y-63137825D01*
X76431216Y-63138629D01*
X76431222Y-63138631D01*
X76707071Y-63193500D01*
X76707074Y-63193500D01*
X76711114Y-63194304D01*
X76715225Y-63194573D01*
X76715229Y-63194574D01*
X76995881Y-63212969D01*
X77000000Y-63213239D01*
X77004119Y-63212969D01*
X77284771Y-63194574D01*
X77284775Y-63194573D01*
X77288886Y-63194304D01*
X77292926Y-63193500D01*
X77292929Y-63193500D01*
X77568778Y-63138631D01*
X77568784Y-63138629D01*
X77572828Y-63137825D01*
X77576734Y-63136499D01*
X77576738Y-63136498D01*
X77843070Y-63046090D01*
X77843072Y-63046089D01*
X77846970Y-63044766D01*
X77850665Y-63042944D01*
X78102916Y-62918548D01*
X78102921Y-62918545D01*
X78106620Y-62916721D01*
X78347335Y-62755881D01*
X78350429Y-62753168D01*
X78350435Y-62753163D01*
X78561907Y-62567705D01*
X78564996Y-62564996D01*
X78567833Y-62561761D01*
X78753164Y-62350434D01*
X78753169Y-62350427D01*
X78755881Y-62347335D01*
X78916721Y-62106619D01*
X79044766Y-61846970D01*
X79137825Y-61572828D01*
X79194304Y-61288886D01*
X79213239Y-61000000D01*
X79194304Y-60711114D01*
X79137825Y-60427172D01*
X79044766Y-60153030D01*
X78916721Y-59893381D01*
X78755881Y-59652665D01*
X78753169Y-59649573D01*
X78753164Y-59649566D01*
X78567705Y-59438093D01*
X78564996Y-59435004D01*
X78561733Y-59432142D01*
X78350435Y-59246837D01*
X78350429Y-59246832D01*
X78347335Y-59244119D01*
X78106620Y-59083279D01*
X78102921Y-59081455D01*
X78102916Y-59081452D01*
X77850665Y-58957056D01*
X77850663Y-58957055D01*
X77846970Y-58955234D01*
X77843070Y-58953910D01*
X77576738Y-58863502D01*
X77576734Y-58863501D01*
X77572828Y-58862175D01*
X77568784Y-58861371D01*
X77568778Y-58861369D01*
X77292929Y-58806500D01*
X77292926Y-58806500D01*
X77288886Y-58805696D01*
X77284775Y-58805427D01*
X77284771Y-58805426D01*
X77004119Y-58787031D01*
X77000000Y-58786761D01*
X76995881Y-58787031D01*
X76715229Y-58805426D01*
X76715225Y-58805427D01*
X76711114Y-58805696D01*
X76707074Y-58806500D01*
X76707071Y-58806500D01*
X76431222Y-58861369D01*
X76431216Y-58861371D01*
X76427172Y-58862175D01*
X76423266Y-58863501D01*
X76423262Y-58863502D01*
X76156930Y-58953910D01*
X76153030Y-58955234D01*
X75893381Y-59083279D01*
X75652665Y-59244119D01*
X75649573Y-59246831D01*
X75649566Y-59246836D01*
X75438239Y-59432167D01*
X75435004Y-59435004D01*
X75432295Y-59438093D01*
X75246836Y-59649566D01*
X75246831Y-59649573D01*
X75244119Y-59652665D01*
X75083279Y-59893381D01*
X74955234Y-60153030D01*
X74862175Y-60427172D01*
X74805696Y-60711114D01*
X74786761Y-61000000D01*
X73693392Y-61000000D01*
X73680500Y-57736498D01*
X73700233Y-57668298D01*
X73753704Y-57621594D01*
X73806499Y-57610000D01*
X102366000Y-57610000D01*
X102434121Y-57630002D01*
G37*
%TD.AperFunction*%
%TD*%
M02*
