%TF.GenerationSoftware,KiCad,Pcbnew,(6.0.0-0)*%
%TF.CreationDate,2022-09-02T10:43:53-04:00*%
%TF.ProjectId,Dome_Controller,446f6d65-5f43-46f6-9e74-726f6c6c6572,rev?*%
%TF.SameCoordinates,Original*%
%TF.FileFunction,Copper,L1,Top*%
%TF.FilePolarity,Positive*%
%FSLAX46Y46*%
G04 Gerber Fmt 4.6, Leading zero omitted, Abs format (unit mm)*
G04 Created by KiCad (PCBNEW (6.0.0-0)) date 2022-09-02 10:43:53*
%MOMM*%
%LPD*%
G01*
G04 APERTURE LIST*
G04 Aperture macros list*
%AMRoundRect*
0 Rectangle with rounded corners*
0 $1 Rounding radius*
0 $2 $3 $4 $5 $6 $7 $8 $9 X,Y pos of 4 corners*
0 Add a 4 corners polygon primitive as box body*
4,1,4,$2,$3,$4,$5,$6,$7,$8,$9,$2,$3,0*
0 Add four circle primitives for the rounded corners*
1,1,$1+$1,$2,$3*
1,1,$1+$1,$4,$5*
1,1,$1+$1,$6,$7*
1,1,$1+$1,$8,$9*
0 Add four rect primitives between the rounded corners*
20,1,$1+$1,$2,$3,$4,$5,0*
20,1,$1+$1,$4,$5,$6,$7,0*
20,1,$1+$1,$6,$7,$8,$9,0*
20,1,$1+$1,$8,$9,$2,$3,0*%
G04 Aperture macros list end*
%TA.AperFunction,SMDPad,CuDef*%
%ADD10RoundRect,0.100000X1.000000X0.400000X-1.000000X0.400000X-1.000000X-0.400000X1.000000X-0.400000X0*%
%TD*%
%TA.AperFunction,ComponentPad*%
%ADD11R,2.400000X2.400000*%
%TD*%
%TA.AperFunction,ComponentPad*%
%ADD12C,2.400000*%
%TD*%
%TA.AperFunction,SMDPad,CuDef*%
%ADD13RoundRect,0.140000X-0.170000X0.140000X-0.170000X-0.140000X0.170000X-0.140000X0.170000X0.140000X0*%
%TD*%
%TA.AperFunction,SMDPad,CuDef*%
%ADD14RoundRect,0.200000X-0.200000X-0.275000X0.200000X-0.275000X0.200000X0.275000X-0.200000X0.275000X0*%
%TD*%
%TA.AperFunction,SMDPad,CuDef*%
%ADD15R,0.400000X1.350000*%
%TD*%
%TA.AperFunction,SMDPad,CuDef*%
%ADD16R,1.500000X1.550000*%
%TD*%
%TA.AperFunction,ComponentPad*%
%ADD17O,0.890000X1.550000*%
%TD*%
%TA.AperFunction,ComponentPad*%
%ADD18O,1.250000X0.950000*%
%TD*%
%TA.AperFunction,SMDPad,CuDef*%
%ADD19R,1.200000X1.550000*%
%TD*%
%TA.AperFunction,SMDPad,CuDef*%
%ADD20R,2.000000X0.900000*%
%TD*%
%TA.AperFunction,SMDPad,CuDef*%
%ADD21R,0.900000X2.000000*%
%TD*%
%TA.AperFunction,SMDPad,CuDef*%
%ADD22R,5.000000X5.000000*%
%TD*%
%TA.AperFunction,SMDPad,CuDef*%
%ADD23RoundRect,0.140000X0.140000X0.170000X-0.140000X0.170000X-0.140000X-0.170000X0.140000X-0.170000X0*%
%TD*%
%TA.AperFunction,SMDPad,CuDef*%
%ADD24R,0.914400X1.219200*%
%TD*%
%TA.AperFunction,WasherPad*%
%ADD25C,3.400000*%
%TD*%
%TA.AperFunction,SMDPad,CuDef*%
%ADD26R,1.000000X1.000000*%
%TD*%
%TA.AperFunction,ComponentPad*%
%ADD27R,1.700000X1.700000*%
%TD*%
%TA.AperFunction,ComponentPad*%
%ADD28O,1.700000X1.700000*%
%TD*%
%TA.AperFunction,SMDPad,CuDef*%
%ADD29RoundRect,0.150000X-0.150000X0.587500X-0.150000X-0.587500X0.150000X-0.587500X0.150000X0.587500X0*%
%TD*%
%TA.AperFunction,ComponentPad*%
%ADD30C,1.524000*%
%TD*%
%TA.AperFunction,ComponentPad*%
%ADD31C,2.300000*%
%TD*%
%TA.AperFunction,SMDPad,CuDef*%
%ADD32RoundRect,0.140000X-0.140000X-0.170000X0.140000X-0.170000X0.140000X0.170000X-0.140000X0.170000X0*%
%TD*%
%TA.AperFunction,SMDPad,CuDef*%
%ADD33R,0.500000X0.300000*%
%TD*%
%TA.AperFunction,SMDPad,CuDef*%
%ADD34RoundRect,0.049600X-0.605400X-0.260400X0.605400X-0.260400X0.605400X0.260400X-0.605400X0.260400X0*%
%TD*%
%TA.AperFunction,SMDPad,CuDef*%
%ADD35RoundRect,0.150000X-0.512500X-0.150000X0.512500X-0.150000X0.512500X0.150000X-0.512500X0.150000X0*%
%TD*%
%TA.AperFunction,SMDPad,CuDef*%
%ADD36RoundRect,0.200000X0.200000X0.275000X-0.200000X0.275000X-0.200000X-0.275000X0.200000X-0.275000X0*%
%TD*%
%TA.AperFunction,ViaPad*%
%ADD37C,0.800000*%
%TD*%
%TA.AperFunction,Conductor*%
%ADD38C,0.250000*%
%TD*%
%TA.AperFunction,Conductor*%
%ADD39C,0.254000*%
%TD*%
%TA.AperFunction,Conductor*%
%ADD40C,0.200000*%
%TD*%
%TA.AperFunction,Conductor*%
%ADD41C,0.500000*%
%TD*%
G04 APERTURE END LIST*
D10*
%TO.P,SW1,1,1*%
%TO.N,GND*%
X118705000Y-101600000D03*
%TO.P,SW1,2,2*%
%TO.N,RESET*%
X110905000Y-101600000D03*
%TD*%
D11*
%TO.P,J5,1,Pin_1*%
%TO.N,GND*%
X87780000Y-66000000D03*
D12*
%TO.P,J5,2,Pin_2*%
%TO.N,+12V*%
X84280000Y-66000000D03*
%TD*%
D13*
%TO.P,C4,1*%
%TO.N,+3.3V*%
X138220000Y-80620000D03*
%TO.P,C4,2*%
%TO.N,GND*%
X138220000Y-81580000D03*
%TD*%
D11*
%TO.P,J8,1,Pin_1*%
%TO.N,GND*%
X93190000Y-99570000D03*
D12*
%TO.P,J8,2,Pin_2*%
%TO.N,+5V*%
X96690000Y-99570000D03*
%TD*%
D14*
%TO.P,R2,1*%
%TO.N,VBUS*%
X104165000Y-75030000D03*
%TO.P,R2,2*%
%TO.N,GND*%
X105815000Y-75030000D03*
%TD*%
%TO.P,R3,1*%
%TO.N,Net-(R3-Pad1)*%
X100755000Y-81700000D03*
%TO.P,R3,2*%
%TO.N,VIN*%
X102405000Y-81700000D03*
%TD*%
D15*
%TO.P,J1,1,VBUS*%
%TO.N,VBUS*%
X113600000Y-105750000D03*
%TO.P,J1,2,D-*%
%TO.N,D-*%
X114250000Y-105750000D03*
%TO.P,J1,3,D+*%
%TO.N,D+*%
X114900000Y-105750000D03*
%TO.P,J1,4,ID*%
%TO.N,unconnected-(J1-Pad4)*%
X115550000Y-105750000D03*
%TO.P,J1,5,GND*%
%TO.N,GND*%
X116200000Y-105750000D03*
D16*
%TO.P,J1,6,Shield*%
%TO.N,unconnected-(J1-Pad6)*%
X115900000Y-108450000D03*
D17*
X118400000Y-108450000D03*
D18*
X117400000Y-105750000D03*
D19*
X112000000Y-108450000D03*
D18*
X112400000Y-105750000D03*
D19*
X117800000Y-108450000D03*
D16*
X113900000Y-108450000D03*
D17*
X111400000Y-108450000D03*
%TD*%
D20*
%TO.P,U1,1,GND*%
%TO.N,GND*%
X108980000Y-70245000D03*
%TO.P,U1,2,3V3*%
%TO.N,+3.3V*%
X108980000Y-71515000D03*
%TO.P,U1,3,EN*%
%TO.N,RESET*%
X108980000Y-72785000D03*
%TO.P,U1,4,SENSOR_VP*%
%TO.N,unconnected-(U1-Pad4)*%
X108980000Y-74055000D03*
%TO.P,U1,5,SENSOR_VN*%
%TO.N,unconnected-(U1-Pad5)*%
X108980000Y-75325000D03*
%TO.P,U1,6,IO34*%
%TO.N,unconnected-(U1-Pad6)*%
X108980000Y-76595000D03*
%TO.P,U1,7,IO35*%
%TO.N,unconnected-(U1-Pad7)*%
X108980000Y-77865000D03*
%TO.P,U1,8,IO32*%
%TO.N,unconnected-(U1-Pad8)*%
X108980000Y-79135000D03*
%TO.P,U1,9,IO33*%
%TO.N,unconnected-(U1-Pad9)*%
X108980000Y-80405000D03*
%TO.P,U1,10,IO25*%
%TO.N,RX_RS*%
X108980000Y-81675000D03*
%TO.P,U1,11,IO26*%
%TO.N,TX_RS*%
X108980000Y-82945000D03*
%TO.P,U1,12,IO27*%
%TO.N,CL_D*%
X108980000Y-84215000D03*
%TO.P,U1,13,IO14*%
%TO.N,TX_FU*%
X108980000Y-85485000D03*
%TO.P,U1,14,IO12*%
%TO.N,RX_FU*%
X108980000Y-86755000D03*
D21*
%TO.P,U1,15,GND*%
%TO.N,GND*%
X111765000Y-87755000D03*
%TO.P,U1,16,IO13*%
%TO.N,unconnected-(U1-Pad16)*%
X113035000Y-87755000D03*
%TO.P,U1,17,SD2*%
%TO.N,unconnected-(U1-Pad17)*%
X114305000Y-87755000D03*
%TO.P,U1,18,SD3*%
%TO.N,unconnected-(U1-Pad18)*%
X115575000Y-87755000D03*
%TO.P,U1,19,CMD*%
%TO.N,unconnected-(U1-Pad19)*%
X116845000Y-87755000D03*
%TO.P,U1,20,CLK*%
%TO.N,unconnected-(U1-Pad20)*%
X118115000Y-87755000D03*
%TO.P,U1,21,SD0*%
%TO.N,unconnected-(U1-Pad21)*%
X119385000Y-87755000D03*
%TO.P,U1,22,SD1*%
%TO.N,unconnected-(U1-Pad22)*%
X120655000Y-87755000D03*
%TO.P,U1,23,IO15*%
%TO.N,RX_HP*%
X121925000Y-87755000D03*
%TO.P,U1,24,IO2*%
%TO.N,unconnected-(U1-Pad24)*%
X123195000Y-87755000D03*
D20*
%TO.P,U1,25,IO0*%
%TO.N,GPIO0*%
X125980000Y-86755000D03*
%TO.P,U1,26,IO4*%
%TO.N,unconnected-(U1-Pad26)*%
X125980000Y-85485000D03*
%TO.P,U1,27,IO16*%
%TO.N,TX_HP*%
X125980000Y-84215000D03*
%TO.P,U1,28,IO17*%
%TO.N,unconnected-(U1-Pad28)*%
X125980000Y-82945000D03*
%TO.P,U1,29,IO5*%
%TO.N,unconnected-(U1-Pad29)*%
X125980000Y-81675000D03*
%TO.P,U1,30,IO18*%
%TO.N,ST_LED_D*%
X125980000Y-80405000D03*
%TO.P,U1,31,IO19*%
%TO.N,unconnected-(U1-Pad31)*%
X125980000Y-79135000D03*
%TO.P,U1,32,NC*%
%TO.N,unconnected-(U1-Pad32)*%
X125980000Y-77865000D03*
%TO.P,U1,33,IO21*%
%TO.N,SDA*%
X125980000Y-76595000D03*
%TO.P,U1,34,RXD0*%
%TO.N,TXD0*%
X125980000Y-75325000D03*
%TO.P,U1,35,TXD0*%
%TO.N,RXD0*%
X125980000Y-74055000D03*
%TO.P,U1,36,IO22*%
%TO.N,SCL*%
X125980000Y-72785000D03*
%TO.P,U1,37,IO23*%
%TO.N,unconnected-(U1-Pad37)*%
X125980000Y-71515000D03*
%TO.P,U1,38,GND*%
%TO.N,GND*%
X125980000Y-70245000D03*
D22*
%TO.P,U1,39,GND*%
X116480000Y-77745000D03*
%TD*%
D23*
%TO.P,C3,1*%
%TO.N,+3.3V*%
X106350000Y-71550000D03*
%TO.P,C3,2*%
%TO.N,GND*%
X105390000Y-71550000D03*
%TD*%
%TO.P,C5,1*%
%TO.N,GND*%
X103440000Y-80110000D03*
%TO.P,C5,2*%
%TO.N,VIN*%
X102480000Y-80110000D03*
%TD*%
D11*
%TO.P,J9,1,Pin_1*%
%TO.N,GND*%
X102060000Y-99570000D03*
D12*
%TO.P,J9,2,Pin_2*%
%TO.N,+5V*%
X105560000Y-99570000D03*
%TD*%
D23*
%TO.P,C2,1*%
%TO.N,+3.3V*%
X106390000Y-70320000D03*
%TO.P,C2,2*%
%TO.N,GND*%
X105430000Y-70320000D03*
%TD*%
D13*
%TO.P,C7,1*%
%TO.N,+3.3V*%
X105870000Y-83990000D03*
%TO.P,C7,2*%
%TO.N,GND*%
X105870000Y-84950000D03*
%TD*%
D24*
%TO.P,CR1,A,A*%
%TO.N,VBUS*%
X105476800Y-77738500D03*
%TO.P,CR1,C,C*%
%TO.N,VIN*%
X102200200Y-77738500D03*
%TD*%
D25*
%TO.P,REF\u002A\u002A,*%
%TO.N,*%
X77000000Y-61000000D03*
%TD*%
D26*
%TO.P,L1,1,DO*%
%TO.N,unconnected-(L1-Pad1)*%
X122375000Y-107320000D03*
%TO.P,L1,2,VSS*%
%TO.N,GND*%
X122375000Y-106020000D03*
%TO.P,L1,3,DI*%
%TO.N,ST_LED_D*%
X120345000Y-106020000D03*
%TO.P,L1,4,VDD*%
%TO.N,+5V*%
X120345000Y-107320000D03*
%TD*%
D27*
%TO.P,J3,1,Pin_1*%
%TO.N,GND*%
X139210000Y-67040000D03*
D28*
%TO.P,J3,2,Pin_2*%
X141750000Y-67040000D03*
%TO.P,J3,3,Pin_3*%
%TO.N,RX_RS*%
X139210000Y-69580000D03*
%TO.P,J3,4,Pin_4*%
%TO.N,RX_HP*%
X141750000Y-69580000D03*
%TO.P,J3,5,Pin_5*%
%TO.N,TX_RS*%
X139210000Y-72120000D03*
%TO.P,J3,6,Pin_6*%
%TO.N,TX_HP*%
X141750000Y-72120000D03*
%TD*%
D29*
%TO.P,U2,1,1*%
%TO.N,VBUS*%
X103130000Y-71142500D03*
%TO.P,U2,2,2*%
%TO.N,VIN*%
X101230000Y-71142500D03*
%TO.P,U2,3,3*%
%TO.N,+5V*%
X102180000Y-73017500D03*
%TD*%
D25*
%TO.P,REF\u002A\u002A,*%
%TO.N,*%
X77000000Y-103000000D03*
%TD*%
D27*
%TO.P,J2,1,Pin_1*%
%TO.N,GND*%
X142610000Y-81150000D03*
D28*
%TO.P,J2,2,Pin_2*%
%TO.N,unconnected-(J2-Pad2)*%
X142610000Y-83690000D03*
%TO.P,J2,3,Pin_3*%
%TO.N,SCL*%
X142610000Y-86230000D03*
%TO.P,J2,4,Pin_4*%
%TO.N,SDA*%
X142610000Y-88770000D03*
%TO.P,J2,5,Pin_5*%
%TO.N,+3.3V*%
X142610000Y-91310000D03*
%TO.P,J2,6,Pin_6*%
%TO.N,+5V*%
X142610000Y-93850000D03*
%TD*%
D13*
%TO.P,C6,1*%
%TO.N,+3.3V*%
X128680000Y-84190000D03*
%TO.P,C6,2*%
%TO.N,GND*%
X128680000Y-85150000D03*
%TD*%
D25*
%TO.P,REF\u002A\u002A,*%
%TO.N,*%
X148000000Y-103000000D03*
%TD*%
D27*
%TO.P,J4,1,Pin_1*%
%TO.N,GND*%
X142050000Y-76320000D03*
D28*
%TO.P,J4,2,Pin_2*%
%TO.N,+5V*%
X139510000Y-76320000D03*
%TO.P,J4,3,Pin_3*%
%TO.N,CL_D*%
X136970000Y-76320000D03*
%TD*%
D25*
%TO.P,REF\u002A\u002A,*%
%TO.N,*%
X148000000Y-61000000D03*
%TD*%
D27*
%TO.P,J10,1,Pin_1*%
%TO.N,GND*%
X134870000Y-67020000D03*
D28*
%TO.P,J10,2,Pin_2*%
%TO.N,RX_FU*%
X134870000Y-69560000D03*
%TO.P,J10,3,Pin_3*%
%TO.N,TX_FU*%
X134870000Y-72100000D03*
%TD*%
D11*
%TO.P,J7,1,Pin_1*%
%TO.N,GND*%
X84230000Y-99650000D03*
D12*
%TO.P,J7,2,Pin_2*%
%TO.N,+5V*%
X87730000Y-99650000D03*
%TD*%
D30*
%TO.P,U6,1,VOUT*%
%TO.N,+5V*%
X75035000Y-76185000D03*
%TO.P,U6,2,GND*%
%TO.N,GND*%
X75035000Y-78725000D03*
%TO.P,U6,3,GND*%
X75035000Y-81265000D03*
%TO.P,U6,4,VIN*%
%TO.N,+12V*%
X75035000Y-83805000D03*
%TO.P,U6,5,VRP*%
%TO.N,unconnected-(U6-Pad5)*%
X75035000Y-86345000D03*
%TO.P,U6,6,EN*%
%TO.N,unconnected-(U6-Pad6)*%
X75035000Y-88885000D03*
%TO.P,U6,7,PG*%
%TO.N,unconnected-(U6-Pad7)*%
X77575000Y-88885000D03*
%TO.P,U6,8,VRP*%
%TO.N,unconnected-(U6-Pad8)*%
X77575000Y-86345000D03*
%TO.P,U6,9,VIN*%
%TO.N,+12V*%
X77575000Y-83805000D03*
%TO.P,U6,10,GND*%
%TO.N,GND*%
X77575000Y-81265000D03*
%TO.P,U6,11,GND*%
X77575000Y-78725000D03*
%TO.P,U6,12,VOUT*%
%TO.N,+5V*%
X77575000Y-76185000D03*
D31*
%TO.P,U6,13*%
%TO.N,N/C*%
X75965000Y-71935000D03*
%TO.P,U6,14*%
X75965000Y-93135000D03*
%TO.P,U6,15*%
X96965000Y-93135000D03*
%TD*%
D32*
%TO.P,C1,1*%
%TO.N,RESET*%
X110180000Y-97890000D03*
%TO.P,C1,2*%
%TO.N,GND*%
X111140000Y-97890000D03*
%TD*%
D33*
%TO.P,U5,1*%
%TO.N,RTS*%
X138230000Y-83295800D03*
%TO.P,U5,2*%
%TO.N,DTR*%
X138230000Y-83945800D03*
%TO.P,U5,3*%
%TO.N,GPIO0*%
X138230000Y-84595800D03*
%TO.P,U5,4*%
%TO.N,DTR*%
X140080000Y-84595800D03*
%TO.P,U5,5*%
%TO.N,RTS*%
X140080000Y-83945800D03*
%TO.P,U5,6*%
%TO.N,RESET*%
X140080000Y-83295800D03*
%TD*%
D34*
%TO.P,U4,1,GND*%
%TO.N,GND*%
X130845000Y-80395000D03*
%TO.P,U4,2,TXD*%
%TO.N,RXD0*%
X130845000Y-81665000D03*
%TO.P,U4,3,RXD*%
%TO.N,TXD0*%
X130845000Y-82935000D03*
%TO.P,U4,4,V3*%
%TO.N,+3.3V*%
X130845000Y-84205000D03*
%TO.P,U4,5,UD+*%
%TO.N,D+*%
X130845000Y-85475000D03*
%TO.P,U4,6,UD-*%
%TO.N,D-*%
X130845000Y-86745000D03*
%TO.P,U4,7,NC.*%
%TO.N,unconnected-(U4-Pad7)*%
X130845000Y-88015000D03*
%TO.P,U4,8,~{OUT}*%
%TO.N,unconnected-(U4-Pad8)*%
X130845000Y-89285000D03*
%TO.P,U4,9,~{CTS}*%
%TO.N,unconnected-(U4-Pad9)*%
X136345000Y-89285000D03*
%TO.P,U4,10,~{DSR}*%
%TO.N,unconnected-(U4-Pad10)*%
X136345000Y-88015000D03*
%TO.P,U4,11,~{RI}*%
%TO.N,unconnected-(U4-Pad11)*%
X136345000Y-86745000D03*
%TO.P,U4,12,~{DCD}*%
%TO.N,unconnected-(U4-Pad12)*%
X136345000Y-85475000D03*
%TO.P,U4,13,~{DTR}*%
%TO.N,DTR*%
X136345000Y-84205000D03*
%TO.P,U4,14,~{RTS}*%
%TO.N,RTS*%
X136345000Y-82935000D03*
%TO.P,U4,15,R232*%
%TO.N,unconnected-(U4-Pad15)*%
X136345000Y-81665000D03*
%TO.P,U4,16,VCC*%
%TO.N,+3.3V*%
X136345000Y-80395000D03*
%TD*%
D11*
%TO.P,J6,1,Pin_1*%
%TO.N,GND*%
X97850000Y-65930000D03*
D12*
%TO.P,J6,2,Pin_2*%
%TO.N,+12V*%
X94350000Y-65930000D03*
%TD*%
D35*
%TO.P,U3,1,VIN*%
%TO.N,VIN*%
X102032500Y-83920000D03*
%TO.P,U3,2,VSS*%
%TO.N,GND*%
X102032500Y-84870000D03*
%TO.P,U3,3,CE*%
%TO.N,Net-(R3-Pad1)*%
X102032500Y-85820000D03*
%TO.P,U3,4,NC*%
%TO.N,unconnected-(U3-Pad4)*%
X104307500Y-85820000D03*
%TO.P,U3,5,VOUT*%
%TO.N,+3.3V*%
X104307500Y-83920000D03*
%TD*%
D36*
%TO.P,R1,1*%
%TO.N,+3.3V*%
X112855000Y-96010000D03*
%TO.P,R1,2*%
%TO.N,RESET*%
X111205000Y-96010000D03*
%TD*%
D37*
%TO.N,RX_FU*%
X111650000Y-85410000D03*
%TO.N,D-*%
X132870000Y-86910000D03*
X113545000Y-103815000D03*
%TO.N,D+*%
X133110000Y-85340000D03*
X115200000Y-103660000D03*
%TO.N,+5V*%
X118995000Y-104205000D03*
%TO.N,RX_RS*%
X111490000Y-79760000D03*
%TO.N,RX_HP*%
X122220000Y-84920000D03*
%TO.N,TX_RS*%
X111890000Y-81220000D03*
%TO.N,TX_HP*%
X123940000Y-83780000D03*
%TO.N,CL_D*%
X112090000Y-82520000D03*
%TO.N,ST_LED_D*%
X124270000Y-81410000D03*
X122020000Y-100770000D03*
%TO.N,TX_FU*%
X111960000Y-84020000D03*
%TO.N,GPIO0*%
X127970000Y-86730000D03*
X138230000Y-85740000D03*
%TO.N,TXD0*%
X128480000Y-75350000D03*
X132412337Y-82183784D03*
%TO.N,RXD0*%
X132480000Y-80810000D03*
X128400000Y-73720000D03*
%TO.N,RESET*%
X110635000Y-95045000D03*
X111280000Y-73950000D03*
X140055000Y-82385000D03*
%TD*%
D38*
%TO.N,+5V*%
X120345000Y-107320000D02*
X119995978Y-107320000D01*
X119995978Y-107320000D02*
X118995000Y-106319022D01*
X118995000Y-106319022D02*
X118995000Y-104205000D01*
D39*
%TO.N,GND*%
X142610000Y-81150000D02*
X142610000Y-76880000D01*
X142610000Y-76880000D02*
X142050000Y-76320000D01*
X111140000Y-97890000D02*
X114665000Y-97890000D01*
X114665000Y-97890000D02*
X118375000Y-101600000D01*
%TO.N,RESET*%
X111350000Y-101155000D02*
X111350000Y-98526520D01*
X111350000Y-98526520D02*
X110806762Y-98526520D01*
X110180000Y-97899758D02*
X110180000Y-97035000D01*
X110806762Y-98526520D02*
X110180000Y-97899758D01*
X110180000Y-97035000D02*
X111205000Y-96010000D01*
%TO.N,RX_FU*%
X108980000Y-86755000D02*
X110305000Y-86755000D01*
X110305000Y-86755000D02*
X111650000Y-85410000D01*
D38*
%TO.N,GND*%
X128220000Y-87920000D02*
X128250000Y-87950000D01*
D39*
X138270000Y-79520000D02*
X139020000Y-80270000D01*
X108418480Y-69683480D02*
X108980000Y-70245000D01*
D38*
X116480000Y-77745000D02*
X113940000Y-80285000D01*
X116480000Y-77745000D02*
X116480000Y-78155386D01*
X104821122Y-80110000D02*
X106260000Y-78671122D01*
D39*
X105430000Y-70310000D02*
X106056520Y-69683480D01*
D38*
X116480000Y-74995000D02*
X111730000Y-70245000D01*
D39*
X130005000Y-80395000D02*
X130845000Y-80395000D01*
D38*
X105815000Y-75030000D02*
X105390000Y-74605000D01*
X116480000Y-77745000D02*
X116480000Y-74995000D01*
X102032500Y-84870000D02*
X102416072Y-84870000D01*
X103440000Y-80110000D02*
X104821122Y-80110000D01*
D39*
X125700000Y-102700000D02*
X124286000Y-102700000D01*
X118375000Y-101600000D02*
X116200000Y-103775000D01*
D38*
X124230000Y-87830000D02*
X124790000Y-88390000D01*
X127110000Y-88390000D02*
X127580000Y-87920000D01*
D39*
X122375000Y-104611000D02*
X122375000Y-106020000D01*
D38*
X121230000Y-70245000D02*
X125980000Y-70245000D01*
X116480000Y-74995000D02*
X121230000Y-70245000D01*
X128250000Y-87950000D02*
X128750000Y-87450000D01*
X127580000Y-87920000D02*
X128220000Y-87920000D01*
D39*
X142660000Y-81150000D02*
X144350000Y-82840000D01*
X142370000Y-102700000D02*
X125700000Y-102700000D01*
D38*
X113940000Y-84750978D02*
X111765000Y-86925978D01*
X105870000Y-85744022D02*
X107880978Y-87755000D01*
X124230000Y-85905386D02*
X124230000Y-87830000D01*
X124790000Y-88390000D02*
X127110000Y-88390000D01*
X113940000Y-80285000D02*
X113940000Y-84750978D01*
X103320480Y-80229520D02*
X103440000Y-80110000D01*
X111730000Y-70245000D02*
X108980000Y-70245000D01*
X105870000Y-84950000D02*
X105870000Y-85744022D01*
X107880978Y-87755000D02*
X111765000Y-87755000D01*
D39*
X130845000Y-80395000D02*
X131655000Y-80395000D01*
X118375000Y-101600000D02*
X119931511Y-100043489D01*
X128680000Y-85150000D02*
X127970000Y-85150000D01*
X123043489Y-100043489D02*
X125700000Y-102700000D01*
X106056520Y-69683480D02*
X108418480Y-69683480D01*
X127760000Y-84940000D02*
X127760000Y-82640000D01*
X132530000Y-79520000D02*
X138270000Y-79520000D01*
X138830000Y-81580000D02*
X138220000Y-81580000D01*
X144350000Y-100720000D02*
X142370000Y-102700000D01*
D38*
X128750000Y-87450000D02*
X128750000Y-85450000D01*
D39*
X139020000Y-80270000D02*
X139020000Y-81390000D01*
X97820000Y-65360000D02*
X101930000Y-69470000D01*
D38*
X103320480Y-83965592D02*
X103320480Y-80229520D01*
D39*
X119931511Y-100043489D02*
X123043489Y-100043489D01*
D38*
X116480000Y-78155386D02*
X124230000Y-85905386D01*
D39*
X105430000Y-70320000D02*
X105430000Y-70310000D01*
D38*
X105390000Y-74605000D02*
X105390000Y-71550000D01*
D39*
X127970000Y-85150000D02*
X127760000Y-84940000D01*
X105430000Y-70320000D02*
X105430000Y-71510000D01*
X104580000Y-69470000D02*
X105430000Y-70320000D01*
X127760000Y-82640000D02*
X130005000Y-80395000D01*
X116200000Y-103775000D02*
X116200000Y-105750000D01*
X131655000Y-80395000D02*
X132530000Y-79520000D01*
X144350000Y-82840000D02*
X144350000Y-100720000D01*
D38*
X111765000Y-86925978D02*
X111765000Y-87755000D01*
X106260000Y-78671122D02*
X106260000Y-75475000D01*
D39*
X142610000Y-81150000D02*
X142660000Y-81150000D01*
X101930000Y-69470000D02*
X104580000Y-69470000D01*
D38*
X106260000Y-75475000D02*
X105815000Y-75030000D01*
D39*
X139020000Y-81390000D02*
X138830000Y-81580000D01*
X105430000Y-71510000D02*
X105390000Y-71550000D01*
X124286000Y-102700000D02*
X122375000Y-104611000D01*
D38*
X102416072Y-84870000D02*
X103320480Y-83965592D01*
%TO.N,+3.3V*%
X116425000Y-92440000D02*
X123070000Y-92440000D01*
X105420480Y-85467410D02*
X105420480Y-87340480D01*
X106920000Y-72745978D02*
X106920000Y-81307500D01*
X106920000Y-81307500D02*
X104307500Y-83920000D01*
X131735000Y-84205000D02*
X135545000Y-80395000D01*
X108150978Y-71515000D02*
X106920000Y-72745978D01*
X104307500Y-83920000D02*
X104307500Y-84354430D01*
D39*
X128680000Y-84190000D02*
X130830000Y-84190000D01*
D38*
X130685089Y-84205000D02*
X130845000Y-84205000D01*
X108980000Y-71515000D02*
X106385000Y-71515000D01*
X108980000Y-71515000D02*
X108150978Y-71515000D01*
X105420480Y-87340480D02*
X112855000Y-94775000D01*
D39*
X130830000Y-84190000D02*
X130845000Y-84205000D01*
D38*
X135545000Y-80395000D02*
X136345000Y-80395000D01*
X104307500Y-84354430D02*
X105420480Y-85467410D01*
X124900000Y-90610000D02*
X127110000Y-90610000D01*
X107585000Y-71515000D02*
X106390000Y-70320000D01*
X129300000Y-85590089D02*
X130685089Y-84205000D01*
X104307500Y-83920000D02*
X105800000Y-83920000D01*
X125600000Y-91310000D02*
X142610000Y-91310000D01*
X129300000Y-88420000D02*
X129300000Y-85590089D01*
D39*
X138220000Y-80620000D02*
X136570000Y-80620000D01*
D38*
X123070000Y-92440000D02*
X124900000Y-90610000D01*
D39*
X136570000Y-80620000D02*
X136345000Y-80395000D01*
D38*
X108980000Y-71515000D02*
X107585000Y-71515000D01*
X124900000Y-90610000D02*
X125600000Y-91310000D01*
X105800000Y-83920000D02*
X105870000Y-83990000D01*
X112855000Y-96010000D02*
X116425000Y-92440000D01*
X127110000Y-90610000D02*
X129300000Y-88420000D01*
X106385000Y-71515000D02*
X106350000Y-71550000D01*
X112855000Y-94775000D02*
X112855000Y-96010000D01*
X130845000Y-84205000D02*
X131735000Y-84205000D01*
%TO.N,VIN*%
X101230000Y-71142500D02*
X101721428Y-71142500D01*
X102405000Y-80185000D02*
X102480000Y-80110000D01*
X102804520Y-72225592D02*
X102804520Y-77134180D01*
X101721428Y-71142500D02*
X102804520Y-72225592D01*
X102480000Y-78018300D02*
X102200200Y-77738500D01*
X102804520Y-77134180D02*
X102200200Y-77738500D01*
X102032500Y-82072500D02*
X102405000Y-81700000D01*
X102405000Y-81700000D02*
X102405000Y-80185000D01*
X102480000Y-80110000D02*
X102480000Y-78018300D01*
X102032500Y-83920000D02*
X102032500Y-82072500D01*
D39*
%TO.N,VBUS*%
X98491099Y-72470000D02*
X100882619Y-70078480D01*
D38*
X104165000Y-72177500D02*
X104165000Y-75030000D01*
D39*
X87276480Y-91993520D02*
X87276480Y-76733520D01*
X84410000Y-93480000D02*
X85790000Y-93480000D01*
X112105000Y-103780000D02*
X83440000Y-103780000D01*
X85790000Y-93480000D02*
X87276480Y-91993520D01*
D38*
X104165000Y-75030000D02*
X105476800Y-76341800D01*
D39*
X87276480Y-76733520D02*
X91540000Y-72470000D01*
X113600000Y-105750000D02*
X113600000Y-105275000D01*
X81090000Y-96800000D02*
X84410000Y-93480000D01*
X81090000Y-101430000D02*
X81090000Y-96800000D01*
X91540000Y-72470000D02*
X98491099Y-72470000D01*
D38*
X102067980Y-70080480D02*
X103130000Y-71142500D01*
D39*
X113600000Y-105275000D02*
X112105000Y-103780000D01*
D38*
X103130000Y-71142500D02*
X104165000Y-72177500D01*
X100883448Y-70080480D02*
X102067980Y-70080480D01*
X105476800Y-76341800D02*
X105476800Y-77738500D01*
D39*
X83440000Y-103780000D02*
X81090000Y-101430000D01*
%TO.N,D-*%
X114250000Y-105750000D02*
X114250000Y-104520000D01*
D40*
X132705000Y-86745000D02*
X132870000Y-86910000D01*
D39*
X114250000Y-104520000D02*
X113545000Y-103815000D01*
D40*
X130845000Y-86745000D02*
X132705000Y-86745000D01*
%TO.N,D+*%
X130845000Y-85475000D02*
X132975000Y-85475000D01*
D39*
X114900000Y-103960000D02*
X115200000Y-103660000D01*
X114900000Y-105750000D02*
X114900000Y-103960000D01*
D40*
X132975000Y-85475000D02*
X133110000Y-85340000D01*
D39*
%TO.N,unconnected-(J1-Pad6)*%
X113900000Y-108450000D02*
X115900000Y-108450000D01*
X112400000Y-108050000D02*
X112000000Y-108450000D01*
X117800000Y-108450000D02*
X117800000Y-106150000D01*
X115900000Y-108450000D02*
X117800000Y-108450000D01*
X117800000Y-106150000D02*
X117400000Y-105750000D01*
X112400000Y-105750000D02*
X112400000Y-108050000D01*
X112000000Y-108450000D02*
X113900000Y-108450000D01*
%TO.N,SCL*%
X141433489Y-85053489D02*
X142610000Y-86230000D01*
X129185000Y-72785000D02*
X134350000Y-77950000D01*
X138780000Y-78320000D02*
X141433489Y-80973489D01*
X125980000Y-72785000D02*
X129185000Y-72785000D01*
X137220000Y-77950000D02*
X137590000Y-78320000D01*
X141433489Y-80973489D02*
X141433489Y-85053489D01*
X137590000Y-78320000D02*
X138780000Y-78320000D01*
X134350000Y-77950000D02*
X137220000Y-77950000D01*
%TO.N,SDA*%
X138183520Y-78773520D02*
X140979969Y-81569969D01*
X140979969Y-81569969D02*
X140979969Y-87139969D01*
X132353626Y-76595000D02*
X134532146Y-78773520D01*
X140979969Y-87139969D02*
X142610000Y-88770000D01*
X134532146Y-78773520D02*
X138183520Y-78773520D01*
X125980000Y-76595000D02*
X132353626Y-76595000D01*
%TO.N,+5V*%
X87730000Y-77030000D02*
X87730000Y-99650000D01*
X91742500Y-73017500D02*
X87730000Y-77030000D01*
X102180000Y-73017500D02*
X91742500Y-73017500D01*
%TO.N,RX_RS*%
X108980000Y-81675000D02*
X110234000Y-81675000D01*
X110234000Y-81675000D02*
X111490000Y-80419000D01*
X111490000Y-80419000D02*
X111490000Y-79760000D01*
%TO.N,RX_HP*%
X121925000Y-85215000D02*
X122220000Y-84920000D01*
X121925000Y-87755000D02*
X121925000Y-85215000D01*
%TO.N,TX_RS*%
X108980000Y-82945000D02*
X110165000Y-82945000D01*
X110165000Y-82945000D02*
X111890000Y-81220000D01*
%TO.N,TX_HP*%
X125980000Y-84215000D02*
X124375000Y-84215000D01*
X124375000Y-84215000D02*
X123940000Y-83780000D01*
%TO.N,CL_D*%
X110395000Y-84215000D02*
X112090000Y-82520000D01*
X108980000Y-84215000D02*
X110395000Y-84215000D01*
D38*
%TO.N,Net-(R3-Pad1)*%
X100755000Y-84926072D02*
X100755000Y-81700000D01*
X102032500Y-85820000D02*
X101648928Y-85820000D01*
X101648928Y-85820000D02*
X100755000Y-84926072D01*
D39*
%TO.N,ST_LED_D*%
X121570000Y-104795000D02*
X120345000Y-106020000D01*
X125275000Y-80405000D02*
X124270000Y-81410000D01*
X121570000Y-101220000D02*
X121570000Y-104795000D01*
X125980000Y-80405000D02*
X125275000Y-80405000D01*
X122020000Y-100770000D02*
X121570000Y-101220000D01*
%TO.N,TX_FU*%
X108980000Y-85485000D02*
X110495000Y-85485000D01*
X110495000Y-85485000D02*
X111960000Y-84020000D01*
%TO.N,GPIO0*%
X127845000Y-86755000D02*
X127970000Y-86730000D01*
X125980000Y-86755000D02*
X127845000Y-86755000D01*
X127970000Y-86730000D02*
X127860000Y-86740000D01*
X138230000Y-84595800D02*
X138230000Y-85740000D01*
%TO.N,TXD0*%
X131635000Y-82935000D02*
X132412337Y-82183784D01*
X125980000Y-75325000D02*
X128455000Y-75325000D01*
X130845000Y-82935000D02*
X131635000Y-82935000D01*
X128455000Y-75325000D02*
X128480000Y-75350000D01*
%TO.N,RXD0*%
X131625000Y-81665000D02*
X132480000Y-80810000D01*
X125980000Y-74055000D02*
X128065000Y-74055000D01*
X128065000Y-74055000D02*
X128400000Y-73720000D01*
X130845000Y-81665000D02*
X131625000Y-81665000D01*
%TO.N,DTR*%
X136604200Y-83945800D02*
X138230000Y-83945800D01*
X139283022Y-84595800D02*
X138633022Y-83945800D01*
X140080000Y-84595800D02*
X139283022Y-84595800D01*
X138633022Y-83945800D02*
X138230000Y-83945800D01*
X136345000Y-84205000D02*
X136604200Y-83945800D01*
%TO.N,RTS*%
X140080000Y-83945800D02*
X139685800Y-83945800D01*
X139685800Y-83945800D02*
X139035800Y-83295800D01*
X138230000Y-83295800D02*
X136705800Y-83295800D01*
X139035800Y-83295800D02*
X138230000Y-83295800D01*
X136705800Y-83295800D02*
X136345000Y-82935000D01*
%TO.N,RESET*%
X108980000Y-72785000D02*
X110115000Y-72785000D01*
X140080000Y-83295800D02*
X140080000Y-82410000D01*
X110115000Y-72785000D02*
X111280000Y-73950000D01*
X111205000Y-95615000D02*
X110635000Y-95045000D01*
X111205000Y-96010000D02*
X111205000Y-95615000D01*
D41*
%TO.N,+12V*%
X77575000Y-83805000D02*
X75035000Y-83805000D01*
X84250000Y-77130000D02*
X84250000Y-65150000D01*
X84250000Y-65150000D02*
X84250000Y-65410000D01*
X86030000Y-68010000D02*
X92270000Y-68010000D01*
X92270000Y-68010000D02*
X94350000Y-65930000D01*
X77575000Y-83805000D02*
X84250000Y-77130000D01*
X84280000Y-66260000D02*
X86030000Y-68010000D01*
%TD*%
M02*
